<?xml version="1.0" standalone="no"?>
<!DOCTYPE svg PUBLIC "-//W3C//DTD SVG 1.1//EN" "http://www.w3.org/Graphics/SVG/1.1/DTD/svg11.dtd" >
<svg xmlns="http://www.w3.org/2000/svg" xmlns:xlink="http://www.w3.org/1999/xlink" version="1.1">
<metadata>
Created by FontForge 20170805 at Mon Sep  4 10:49:53 2017
 By Manatsawin
Copyright (C) 2017, Worawut Thanawatanawanich. All rights reserved.
</metadata>
<defs>
<font id="SOV_jarukbali" horiz-adv-x="400" >
  <font-face 
    font-family="SOV_jarukbali"
    font-weight="400"
    font-stretch="normal"
    units-per-em="1000"
    panose-1="2 7 5 6 6 0 0 2 0 4"
    ascent="800"
    descent="-200"
    x-height="387"
    cap-height="800"
    bbox="-594 -382 1468 992.143"
    underline-thickness="30"
    underline-position="-50"
    unicode-range="U+0020-F7EF"
  />
<missing-glyph horiz-adv-x="275" 
d="M16 406v-390h242v390h-242zM274 0h-274v423h274v-423z" />
    <glyph glyph-name="uvSOV" unicode="&#xe2f;&#xe23;&#xe2d;&#xe07;&#xe2f;" horiz-adv-x="1320" 
d="M743 543q0 1 6 -3q8 -7 29 -3q20 5 30 -4q5 -6 8 -6t11 6q8 5 12.5 4.5t12.5 -8.5q6 -6 8 -7t6 0q5 0 5 -1q-3 -2 -9.5 -2t-14 8t-11.5 6.5t-9 -6.5t-10.5 -5.5t-12 5t-9.5 2.5q-5 -5 -19 -61q-7 -28 -2 -34q3 -4 9.5 -3t9.5 -1.5t1 -3.5q0 -1 -2 1q-3 2 -7 -1
q-8 -4 -16 5t-28 44q-26 44 -34 48q-4 1 -6.5 4.5t-7.5 5.5l2 1q7 -1 10.5 -3t17.5 -1l13 1l6 -7q5 -6 7 -5.5t2 -1t-2.5 -1.5t-5.5 2l-5 2q-4 4 -7 3q-3 -2 -1.5 -6t14.5 -25q14 -23 15 -21q1 3 6 28.5t5 27.5q-1 2 -9 3t-13 6.5t-5 6.5zM614 568q2 7 3 7q1 -1 1 -6
q0 -10 9 -3q5 3 12 2t10 -6q6 -9 -1 -34q-5 -16 -5 -21t5 -9q4 -5 14 -4t17 1h8v6q-1 7 -13 29q-6 11 -4.5 21.5t9.5 15.5q6 3 14.5 1t11.5 -7q1 -3 0 -11v-8l4 -2q8 -2 -2 -3q-3 -1 -7 -1q-8 0 -10 4q-6 9 2 12q3 2 2.5 3.5t-4.5 2t-6 -3.5q-6 -8 8 -25q14 -16 14 -30
q0 -9 -5.5 -15t-5.5 -11q0 -4 1 -5t6 -2l6 -2h-7q-9 0 -13 10l-3 5h-22q-19 1 -24.5 3t-10.5 10q-6 9 1 37q7 25 3 25q-2 0 -6 -2t-8 -1q-8 4 -4 17zM682 585q40 9 47 -4q3 -6 -2 -2q-9 6 -34 -1q-22 -6 -33 -2q-4 2 -8.5 5t-8.5 3l-2 2q2 3 17 -1q9 -2 24 0zM579 -63
q15 -3 39 -3q21 -1 40 1q1 -1 64 14q31 7 52 17q13 7 30.5 22t29.5 29q36 44 50.5 92.5t6.5 93.5q-17 98 -92 147q-59 39 -141 55q-16 3 -45 3t-40 -3l-11 -3l9 10q29 35 29 68q0 24 -12.5 44.5t-30.5 27.5q-11 4 -51 3q-21 0 -28 1q-38 11 -36 53q1 13 5 22q10 21 45 43
q21 14 28 21.5t7 18.5t-6.5 20t-26.5 26q-31 27 -31 46q0 12 15 28t17 38q2 23 -4 35l1 -7q3 -22 -3 -38t-27 -29q-19 -13 -21.5 -26.5t10.5 -35.5q15 -25 16 -39q1 -9 -3 -17q-5 -12 -22 -26q-37 -29 -48 -70q-4 -14 -4 -36t4 -34q10 -32 31 -44.5t64 -10.5l24 1l8 -6
q14 -11 14 -28q0 -22 -41 -61q-58 -54 -74 -95q-20 -50 3 -80q2 -3 5 -5q16 -18 17 -13q1 2 5 18q27 101 123 113q37 4 74 -1q72 -9 118 -56q53 -55 53 -119q0 -34 -8 -57t-27 -47q-11 -13 -31 -27.5t-38 -21.5q-30 -13 -52 -18q-18 -4 -55 -2t-59 7q-67 17 -66 88
q0 34 19 54q14 13 40 20q42 10 53 -24q6 -15 0 -20q-4 -2 -7 1q-11 10 -25.5 6.5t-20.5 -17.5q-4 -10 -3.5 -24.5t6.5 -24.5q9 -17 23 -24q20 -11 52 -9.5t59 13.5l9 4h-16q-43 1 -53 11q-4 4 -4 13q2 17 15 36q16 24 2 57q-8 20 -19.5 30.5t-31.5 15.5q-11 3 -36 3t-35 -3
q-30 -8 -54 -32t-31 -52q-6 -24 -4 -51q3 -28 16 -52.5t32 -37.5q17 -13 51 -25t60 -15zM22 221l7 -6q7 -6 22.5 -13.5t26 -10.5t59 -3t53.5 -2.5t7.5 -6.5t-1.5 -16q-8 -24 -1 -44q3 -10 2 -10q-8 -3 -11 -12q-1 -5 0 -14q2 -11 9 -17t29 -14q33 -12 23 -41
q-5 -14 -24.5 -26.5t-36.5 -12.5q-9 0 -34 5q-46 9 -73 2q-11 -3 -12 -4l2 -1q18 4 37 4q20 0 52 -8q27 -8 52 -3q18 4 33 15q11 9 17 24t3 31q-2 10 -4 15q-6 12 -23 18q-9 4 -13.5 7t-3.5 5q3 5 18 0q12 -4 46.5 -4t52.5 4q25 5 42 18q34 25 31 84q-1 24 -16 40
q-13 14 -55 29q-63 23 -83 37q-23 15 -27 27q-8 20 12 35q25 18 57 18q30 0 52 -9q11 -4 20 -13t12 -19q3 -11 1.5 -24t-6.5 -13q-2 0 -8.5 4t-16.5 4.5t-11.5 2t0.5 9.5t-1 13q-4 9 -17 15h-2q12 -10 13.5 -14.5t-6.5 -16.5q-11 -16 -3 -31q4 -8 12 -11q24 -10 45 9
q10 10 12.5 17.5t2.5 25.5q0 28 -7.5 40t-32.5 23l-18 9q-21 13 -7 37q5 9 4 9q-1 1 -2.5 -1t-3 -5t-3.5 -6t-3.5 -6.5t-1.5 -4.5q-3 -16 6 -27l4 -4h-4q-3 0 -16 3q-27 6 -55 -3t-46 -30q-19 -23 -17 -55q1 -24 17.5 -37t83.5 -42q42 -19 55.5 -28t19.5 -20q5 -11 3 -25.5
t-9 -22.5q-8 -8 -30.5 -17t-38.5 -10q-21 -2 -42 7t-27 22q-4 11 0 28l2 8l5 -3q8 -5 19 0q12 5 12 20q0 12 -8 23t-19 14q-26 6 -94 -5q-60 -10 -87 -2q-26 7 -33 13zM1286 321h-7q-14 -3 -27 4q-11 6 -21 21q-12 20 -31 27q-22 9 -85 1q-58 -7 -73 -2q-6 3 -15 10t-17 7
t-14 -2t-11 -1q-11 3 -21 23l-4 10l1 -9q2 -18 14 -29t25 -8q7 1 9 0.5t6 -7.5q6 -13 26 -14q12 -1 14 -5q4 -7 -2 -24.5t-39 -93.5q-41 -96 -42 -96l-38 91l-42 102q-1 1 -0.5 1.5t2 0.5t4 0.5t6.5 0.5q20 1 25 11t16 4q25 -15 2 -45q-15 -18 -15 -41q0 -17 11 -26
q14 -13 17 -11l-4 4q-22 14 -18 36q4 17 18 36q13 18 13 30q0 17 -17 35q-11 11 -36 14q-12 2 -17 0.5t-13 -9.5q-8 -9 -11 -8t-8 10q-7 13 -13 16t-17 -1t-13.5 -2.5t-8.5 12.5q-9 18 -26 18l-7 -1l8 -1q15 -3 19 -21q2 -10 5 -13t22 0q7 1 11 -2q8 -5 56 -137
q41 -114 57 -146q24 -50 44 -60q15 -8 14 -23l1 -7q2 2 2.5 12t-1.5 13t-13 8t-13 8q-7 7 0 29q4 14 50.5 123t57.5 129q11 22 40 36q23 12 41 10q28 -5 47 -31q21 -30 44 -21z" />
    <glyph glyph-name="saraaathai.loy1" unicode="&#xe2d;&#xe32;" horiz-adv-x="700" 
d="M365 153q-10 -2 -17 -5q-3 -6 -3 -13q0 -14 7 -20q5 -4 13 -5v43zM154 161q-10 0 -18 -5q-4 -8 -4 -21q0 -5 3 -9l7 -7q5 -6 12 -7v49zM596 172q-2 -1 -4 -3l-4 -6q-5 -9 -4 -19v-9q1 -14 2 -17q2 -6 11 -7zM596 182v117l-113 51q-17 8 -31 12l-19 6l-80 -34l50 -32v-200
l-5 -6q-4 -3 -5 -4l-28 -19q-24 0 -35 8q-7 5 -15 23q-4 6 -4 15t3 18t12.5 21t19.5 17q9 5 19 7l2 28l-176 -2v-109l-5 -6q-3 -2 -4 -4q-11 -8 -14 -10l-12 -6q-35 0 -51 28q-6 13 -6 28q0 12 4 20q9 14 19 24q3 4 5 5q10 8 27 13v64l-124 57q-1 0 5 5q3 4 5 5l109 81
l89 -55q1 0 -5 -5q-1 -2 -3 -3q-14 -13 -26 -13q-7 0 -17 3l-46 31l-46 -35l96 -47v-33l176 1v29l-84 55q-1 0 5 5q4 5 5 5l145 66q6 -1 16 -4q27 -6 49 -16q38 -16 80 -36q42 -21 49 -28l-1 -216l-5 -6q-1 -1 -3 -2l-25 -23l-2 -2q-14 0 -23 4q-24 9 -24 37q0 22 6 34
q5 10 17.5 20t23.5 13z" />
    <glyph glyph-name="saraithai.loy1" unicode="&#xe2d;&#xe34;" horiz-adv-x="420" 
d="M336 177v65l-24 17q-19 14 -48 24q-35 13 -68 13q-32 0 -64 -25q-19 -15 -36 -40t-18 -34l-1 -14v-5q0 -34 16 -53q13 -16 31 -16q8 0 14 3q0 1 1 2l1 1q9 11 11 18q2 5 2 15q0 -1 -1 -2q-3 -3 -5 -4q-16 -14 -30 -14t-21 15q-7 13 -7 30v12q4 22 28 42q13 10 24 9h4
q19 -4 24 -8q17 -12 22 -46q-3 -32 -9.5 -51t-23.5 -35q-1 -2 -2 -3q-20 -18 -55 -18q-30 5 -46 34q-13 24 -13 56q0 10 2 19q5 25 28 60q22 33 50 55l-44 10q-9 2 -35 6l-16 2q-1 0 4 5q4 3 6 5q40 31 85 54q50 26 75 26q16 0 46 -10q8 -2 49 -18q26 -11 34 -11q17 0 52 29
h1q37 28 74 75h1q49 59 93 135q1 2 6 7q5 4 4 3q-15 -54 -56 -115q-39 -58 -87 -107q0 -1 -1 -1q-48 -49 -81 -63l-7 -3q-6 -3 -9 -2l-7 1q-9 1 -37 13l-47 21q-24 9 -35 9q-21 0 -55 -14q-14 -6 -33 -17l62 -8h14q22 1 66 -8q30 -8 55 -16l44 -23q19 -9 28 -24v-146
q-4 -15 -10 -23q-2 -4 -8.5 -10t-9.5 -7q-19 0 -32 14q-14 14 -14 36q0 17 9 29q14 18 30 24zM336 166q-9 -13 -9 -27t10 -20zM154 151v6v12q0 9 -7.5 17.5t-15.5 8.5q-3 0 -6 -1q-4 -8 -4 -16q0 -27 25 -27h8z" />
    <glyph glyph-name="saraiithai.loy1" unicode="&#xe2d;&#xe35;" horiz-adv-x="490" 
d="M157 138v5v14q0 9 -7.5 18.5t-15.5 9.5q-3 0 -6 -2q-5 -7 -5 -17q0 -14 7 -21q8 -8 20 -8q3 0 7 1zM156 134l-4 -4q-19 -16 -32 -16q-14 0 -23 15q-8 13 -8 32q0 7 1 12q4 20 16 33q7 8 13 13h1q12 9 24 8h3q14 -4 25 -13q16 -15 20 -43q0 -53 -17 -76q-11 -17 -31 -26.5
t-42 -9.5q-30 5 -47 36q-14 25 -14 58q0 10 2 20q4 27 29 62q23 34 52 58l-41 10q-29 7 -46 9q-1 0 4 5q4 4 6 5q41 31 83 53q45 23 72 23q17 0 49 -9q7 -2 49 -15q28 -10 37 -10q10 0 53 35q49 38 97 91q64 71 111 151q1 2 6 7q5 4 4 3q-16 -56 -67 -130q-46 -64 -106 -124
q-56 -56 -91 -71l-9 -3q-2 -1 -9 -2h-7q-7 1 -80 31q-32 12 -44 12q-22 0 -50 -12q-10 -4 -27 -14q30 -5 42 -10l7 -3l10 1h4q22 2 70 -10q33 -7 57 -17l46 -22q20 -10 29 -26v-152q-5 -16 -10 -23q-9 -13 -18 -18q-20 0 -34 15t-14 37q0 8 0.5 12.5t4 11t11.5 14.5
q12 13 25 17l1 69l-26 15q-21 15 -51 24q-35 13 -71 13q-32 0 -67 -25q-20 -15 -37 -40q-18 -26 -20 -36v-19q0 -35 16 -55q14 -16 32 -16q9 0 16 4q0 1 1 2l1 2q11 12 13 31zM348 155q-3 -3 -5 -8q-6 -11 -6 -22q0 -15 11 -22v52zM197 -1q17 2 39 2q41 0 87 -15
q51 -17 77 -45l35 8q1 0 6 5l4 5v331l-21 15l-3 3l6 4l22 -15q15 -10 26 -10q5 0 14.5 6.5t16.5 17.5q-10 3 -37 21q-15 11 -32 19l-23 -17l-41 -30q-3 -2 -7 -7q-4 -3 -3 -3l45 -34l1 -269q-79 46 -180 46q-46 0 -76 -15q-18 -9 -30.5 -26.5t-12.5 -33.5v-4l1 -5
q3 -22 23 -40q20 -19 39 -19q17 0 34 15q11 11 17 21q7 11 7 24q0 17 -12 31q-10 12 -22 14zM181 -4q-10 -6 -15 -15q16 -2 25 -12q7 -7 7 -17t-5 -17q-5 -3 -10 -3q-14 0 -26 11q-13 11 -13 27q0 5 2 10q1 2 3 5q11 7 32 11z" />
    <glyph glyph-name="sarauethai.loy1" unicode="&#xe2d;&#xe36;" horiz-adv-x="420" 
d="M342 515q0 -25 -16 -44q-23 -26 -47 -26q-22 0 -38 17.5t-16 42.5q0 26 17 46q24 26 47 26t38 -18t15 -44zM309 505q0 15 -9 25.5t-21 10.5q-8 0 -15 -5q-6 -9 -6 -21q0 -14 9.5 -24t21.5 -10q8 0 14 4q6 9 6 20zM336 177v65l-24 17q-19 14 -48 24q-35 13 -68 13
q-32 0 -64 -25q-19 -15 -36 -40t-18 -34l-1 -14v-5q0 -34 16 -53q13 -16 31 -16q8 0 14 3q0 1 1 2l1 1q9 11 11 18q2 5 2 15q0 -1 -1 -2q-3 -3 -5 -4q-16 -14 -30 -14t-21 15q-7 13 -7 30v12q4 22 28 42q13 10 24 9h4q19 -4 24 -8q17 -12 22 -46q-3 -32 -9.5 -51t-23.5 -35
q-1 -2 -2 -3q-20 -18 -55 -18q-30 5 -46 34q-13 24 -13 56q0 10 2 19q5 25 28 60q22 33 50 55l-44 10q-9 2 -35 6l-16 2q-1 0 4 5q4 3 6 5q40 31 85 54q50 26 75 26q16 0 46 -10q8 -2 49 -18q26 -11 34 -11q17 0 52 29h1q37 28 74 75h1q49 59 93 135q1 2 6 7q5 4 4 3
q-15 -54 -56 -115q-39 -58 -87 -107q0 -1 -1 -1q-48 -49 -81 -63l-7 -3q-6 -3 -9 -2l-7 1q-9 1 -37 13l-47 21q-24 9 -35 9q-21 0 -55 -14q-14 -6 -33 -17l62 -8h14q22 1 66 -8q30 -8 55 -16l44 -23q19 -9 28 -24v-146q-4 -15 -10 -23q-2 -4 -8.5 -10t-9.5 -7q-19 0 -32 14
q-14 14 -14 36q0 17 9 29q14 18 30 24zM336 166q-9 -13 -9 -27t10 -20zM154 151v6v12q0 9 -7.5 17.5t-15.5 8.5q-3 0 -6 -1q-4 -8 -4 -16q0 -27 25 -27h8z" />
    <glyph glyph-name="saraueethai.loy1" unicode="&#xe2d;&#xe37;" horiz-adv-x="420" 
d="M249 520q23 16 23 -18v-107q46 -19 60 -19h2q16 0 47 25q29 24 75 73q63 81 98 138q1 2 6 7q4 4 4 3v-2q-17 -61 -101 -170q-1 -1 -2 -3q-51 -54 -128 -112q-2 -1 -10 -1h-6q-11 0 -110 41q-8 2 -15 2h-3q-26 0 -87 -31q59 -11 112 -11q133 -24 162 -70v-148
q-4 -21 -16 -33q-9 -9 -14 -9h-2q-33 0 -43 42v3q0 14 2.5 22.5t13.5 20.5q12 12 24 16v66q-22 25 -95 44q-23 6 -42 6h-15q-40 0 -68 -28q-7 -6 -17 -20q0 -1 -1 -1q-29 -34 -29 -63q0 -53 36 -72h18q6 0 12 4q6 9 13 23q1 6 1 11v23q0 27 -22 27q-3 0 -6 -1q-3 -7 -6 -17
q0 -29 33 -29v-2l-5 -6q-4 -3 -5 -4q-16 -10 -23 -10h-3q-25 0 -30 49q0 22 18 40q13 14 28 21h8q36 0 45 -31q5 -13 5 -24q0 -48 -28 -85q-2 -3 -7 -8q-2 -2 -3 -2q-20 -13 -45 -13h-6q-46 0 -61 76v19q0 51 71 124q4 5 6 6l4 3q2 1 -92 17l-3 3q-1 0 5 5q3 4 5 5
q98 69 152 79v96q0 2 6 7.5t7 5.5q14 0 21 -21v-89l15 -5v100q0 5 11 12zM341 166q-9 -11 -9 -19v-12q0 -9 9 -14v45z" />
    <glyph glyph-name="sarauthai.loy1" unicode="&#xe2d;&#xe38;" horiz-adv-x="420" 
d="M139 252q0 10 -6 15l-11 6q-4 2 -11 3q-6 0 -12 -2q-4 -1 -9 -5l-2 -6q0 -4 4 -8l7 -7l8 -5l8 -3h7q8 0 15 4q2 3 2 8zM334 264l-22 21q-22 21 -47 40q-45 31 -71 37q-10 0 -30 -10l-22 -11l-27 -18l-5 -3l-4 -3q-3 -3 -5 -7l-2 -4l10 5q2 0 8 2q2 1 4 1l4 -1q9 0 21 -5
q7 -3 14 -10q12 -14 14 -29v-9q0 -18 -13 -33q-6 -7 -13 -14h-1q-14 -12 -36 -12q-7 0 -17 3l-14 5q-9 4 -15 9q-1 1 -4 5t-5 7q-6 9 -7.5 19t-1.5 23q0 10 7 25q5 12 15 24q22 25 71 54q48 31 67 31q28 0 88 -48l24 -18q23 -18 42 -38q21 -25 19 -37q0 -11 -17 -29t-42 -35
q-38 -25 -82 -44q-35 -13 -93 -31q-38 -12 -61 -18q5 -5 12 -10q17 -13 35 -15l12 -1h14q22 -1 50 6l29 9q59 17 85 41q1 0 1 1q7 8 17 26l12 21q1 2 6 7l4 3l27 -1v-274l-5 -6q-4 -4 -5 -4l-26 -15l-2 225q-32 -30 -58 -43q-9 -5 -52 -21q-44 -17 -98 -17q-35 0 -71 21
q-41 23 -64 60q-1 0 5 5l5 5q2 0 15 4l50 14l60 16q5 1 24 7q47 13 68 24l49 24q25 13 37 25q8 8 13 19z" />
    <glyph glyph-name="sarauuthai.loy1" unicode="&#xe2d;&#xe39;" horiz-adv-x="490" 
d="M139 254q0 11 -5 15l-11 6q-4 2 -12 3q-5 0 -12 -1q-3 -2 -8 -4q-2 -4 -3 -7q1 -5 5 -9l6 -7l8 -5l9 -2h7q7 -1 14 2q2 4 2 9zM336 265l-22 23q-21 21 -48 40q-44 31 -71 37q-10 0 -30 -11l-22 -10l-28 -19q1 1 -4 -3l-4 -2q-2 -4 -5 -8q-1 -2 -2 -3t-2 -1h1l10 5
q3 1 9 2q2 1 4 1l3 -1q10 0 22 -4q6 -4 14 -11q13 -13 14 -29v-8q0 -20 -13 -35q-5 -7 -12 -13h-1q-15 -13 -38 -13q-7 0 -16 4l-14 5q-10 4 -15 10q-1 0 -5 4q-2 4 -5 8q-6 8 -7.5 18t-1.5 23q0 11 8 26q4 11 15 24q22 26 71 55q49 30 67 30q28 0 89 -48l23 -18
q24 -18 43 -39q21 -25 19 -37q0 -11 -17 -29t-42 -35q-39 -26 -83 -44q-35 -14 -92 -31q-39 -13 -63 -18q6 -6 12 -11q18 -13 35 -15l12 -1h15q22 -1 50 7l29 9q61 17 87 42q7 8 17 25l12 23q0 1 6 6l4 4l27 -3v-275l-5 -6q-4 -4 -5 -4l-26 -15l-2 227q-32 -31 -59 -44
q-8 -4 -51 -21q-45 -17 -99 -17q-35 0 -72 20q-41 24 -64 61q-1 0 5 5q4 5 5 5q2 1 15 4l50 15l61 16q5 1 25 7q46 13 68 25l49 24q26 14 39 26q6 7 11 16zM416 199l27 -3v-275l-5 -6q-4 -4 -5 -4l-26 -15l-1 293l5 6z" />
    <glyph glyph-name="saraethai.loy1" unicode="&#xe40;&#xe2d;" horiz-adv-x="420" 
d="M72 327q-4 -9 -4 -18q0 -6 1 -10q5 -15 14 -20h10t8 1l2 10q0 16 -10 27q-9 9 -21 10zM88 343h2q16 0 29 -8q16 -8 20 -26l1 -10q0 -12 -5 -22q-5 -16 -24 -29l-17 -7q-5 -1 -12 -1t-23 3q-16 9 -21 19.5t-5 38.5q0 30 26 58q22 22 52 36q22 10 41 14q20 -7 55 -29
q39 -21 68 -44q32 -25 36 -40q0 -19 -41 -51q-26 -19 -75 -47l-78 -44q27 -37 45 -42q15 9 59 39l48 33q22 15 49 35q13 -20 22 -44q8 -16 12 -32q5 13 5 36v269q0 50 -20 88q-13 25 -53 71q-1 0 5 5l5 5q39 0 70 -54q28 -47 28 -94v-291q0 -39 -16 -64q-8 -12 -20.5 -22
t-20.5 -12l-23 53l-15 36q-12 -10 -30 -22l-18 -13q-20 -14 -48 -34q-33 -20 -60 -26q-38 18 -79 81q-1 0 5 5l5 5q28 18 85 48q58 31 85 48q14 9 22 16q4 5 5 9q-12 15 -61 45t-65 34q-14 0 -37 -12z" />
    <glyph glyph-name="saraothai.loy1" unicode="&#xe42;&#xe2d;" horiz-adv-x="393" 
d="M262 457q-9 -7 -16 -7q-9 0 -28 21l-51 56q-32 35 -94 78q-5 3 -16 3q-16 0 -35 -7q-7 -3 -12 -5q46 -30 92 -69q53 -43 86 -80q38 -40 38 -61l-5 -6q-5 -5 -5 -4q-7 4 -19 4q-33 0 -56 -14l10 -9q12 -10 12 -15q0 -1 -5 -6.5t-7 -6.5h-6q-11 0 -24 8q-15 10 -19 30
q19 27 52 40q5 2 13 4q-16 26 -117 106q-43 36 -95 73q17 27 60 43q34 12 59 12q15 0 21 -4q18 -10 54 -46q20 -20 63 -64l60 -64q1 0 -5 -5q-3 -4 -5 -5zM133 213q0 10 -5 13l-11 6q-3 1 -10 3q-5 0 -10 -2q-3 -1 -7 -3l-2 -6q0 -4 3 -7l7 -6l6 -4l8 -3l6 -1q7 0 13 3
q2 3 2 7zM309 223l-20 20q-20 19 -43 35q-40 28 -63 35q-9 0 -28 -10l-19 -10l-25 -16l-5 -2q-2 -1 -7 -9q0 -2 -2 -3l10 4q2 0 6 2q3 1 5 1l3 -1q9 0 19 -5q6 -2 13 -9q11 -12 12 -25l1 -9q0 -16 -12 -30q-7 -7 -14 -13q-12 -11 -33 -11q-6 0 -15 3l-12 4q-9 3 -14 8
q-1 1 -4 5q-2 3 -5 7q-4 7 -5.5 16.5t-1.5 20.5q0 10 6 22q4 11 14 23q21 23 65 50t60 27q25 0 80 -42l20 -17q22 -17 38 -35q19 -23 18 -33q0 -10 -15 -26q-16 -17 -39 -32q-35 -23 -74 -39q-32 -13 -83 -29q-34 -11 -55 -16q5 -4 11 -9q16 -12 31 -13l11 -1l13 -1
q20 -1 44 7l27 7q53 15 76 37q2 1 3 3q6 7 13 20l11 20q1 1 6 7l4 3l24 -2v-247l-5 -6q-4 -4 -5 -4l-24 -13l-2 203q-28 -27 -52 -39q-7 -4 -46 -19q-40 -15 -89 -15q-30 0 -64 18q-37 21 -58 55q-1 0 5 5l5 5q2 0 15 3l44 13l55 14q3 1 22 7q42 12 61 22l44 22q22 11 34 22
q6 7 10 15z" />
    <glyph glyph-name="saraaimaimalaithai.loy1" unicode="&#xe44;&#xe2d;" horiz-adv-x="350" 
d="M126 399q0 5 -1 11q-3 8 -3 32q0 34 26 66q24 32 59 55l24 16l-6 6l-8 10q-6 4 -10 5l-18 -17q-1 -1 -2 -1l-22 -14q-9 -7 -23 -13q-10 -4 -20 -4q-20 0 -46 23q-20 18 -38 47q-17 26 -17 36q0 8 2 12l4 10q0 1 5 6t5 4l53 -70q23 -32 48 -32q20 0 41 21q29 27 42 27
q12 0 36 -24l22 -22q0 -5 -13 -17t-29 -21l-29 -18q-20 -12 -30 -20q-25 -23 -25 -59q0 -20 10 -30q6 -9 20 -9q7 0 13 4q3 5 3 12q0 5 -4 11q-6 4 -11 6h-1l-6 -13q0 -1 -6 -6q-4 -5 -4 -4l-7 6q-2 3 -3 7q0 6 10 17q16 21 33 21q11 0 20 -8t9 -17q0 -16 -7 -31
q-4 -8 -12 -17q34 -23 51 -39q32 -31 32 -57q0 -32 -35 -70q-1 -2 -3 -3q-36 -37 -85 -63l-82 -43l6 -8l9 -9q9 -8 12 -8q8 0 21 6q15 8 34 22l74 54q37 28 47 28q12 0 16 -6q5 -5 5 -12v-208q0 -6 -11 -18t-25 -20v220l-2 1l-3 1q-2 0 -35 -27h-1l-38 -29l-30 -21
q-38 -27 -61 -27q-17 0 -38 19q-6 5 -16 16q-6 8 -15 21l-12 19q0 7 7 16t12 9q6 0 7 -1q4 0 8 -3l8 -3l7 -1q11 0 29 9q10 7 37 22q4 2 9 5q3 1 10 6l20 12q11 6 29 17l23 17q7 6 12 10q15 15 15 35q0 17 -33 49q-17 16 -35 25q-17 9 -32 9q-19 0 -38 -9q-18 -10 -32 -23
q-1 -2 -2 -3q-26 -24 -26 -46q0 -19 20 -29.5t46 -10.5q23 0 37 10q8 11 8 26q0 20 -21 20q-3 0 -5 -1l-8 -21q0 -1 -5 -6l-5 -4h-11v19q8 21 16 31h1q17 19 32 19q12 0 23 -9q16 -11 16 -34q0 -33 -21 -56q-8 -9 -16 -15q-22 -16 -57 -16q-30 0 -53 14q-30 18 -30 46
q0 38 37 79h1q33 36 61 45v-2z" />
    <glyph glyph-name="saraaothai.loy1" unicode="&#xe40;&#xe2d;&#xe32;" horiz-adv-x="490" 
d="M42 187l4 1l5 -1l9 -4q3 -3 11 -5l13 -3l6 1q9 2 14 3l21 11l24 10l28 14l37 21q8 7 16 13l5 4q3 4 7 7q0 1 1 1q8 11 8 24q-1 7 -6 17l-9 15q-6 9 -14 20l-16 16q-22 22 -52 22q-24 0 -51 -26q-24 -22 -24 -53q0 -16 16 -26q7 -5 18 -7q11 -3 22 -3q24 0 41 10l1 1
q5 7 6 17q0 9 -7 14q-8 6 -15 6q-6 0 -10 -2q-4 -7 -7 -26q0 -1 -5 -6t-5 -4l-6 6l-3 6q-3 6 -3 12q0 14 12 28q9 9 16 14q11 7 21 7q15 0 28 -15q15 -16 15 -32q0 -20 -16 -38q-8 -9 -16 -16q-22 -17 -55 -17q-30 0 -52 15q-27 18 -27 46q0 39 26 71q9 10 21 21
q37 32 73 32q3 0 6 -1q-1 7 4 21l3 16q13 29 60 69q-5 3 -11 7q-5 2 -14 6q-17 8 -26 11q-9 2 -9 15l4 6q0 1 2 3l13 14q5 5 8 7l40 30q24 18 43 18q7 0 11 -1q7 -2 12 -3q12 -6 24 -16l46 -37l49 -32q28 -27 28 -50v-397q0 -4 -8 -12t-14 -10l-15 -4q-10 4 -15 8l-12 15
q-6 9 -9 21l-1 9q0 26 18 44q10 11 19 16l1 295q0 20 -32 43l-14 9l-21 15l-28 22l-15 13q-14 12 -32 14q-11 0 -32 -16l-15 -9q-1 -1 -4 -3q5 -4 20 -12l20 -10q20 -11 20 -21q0 -2 -7.5 -9t-11.5 -9l-15 -8q-10 -7 -17 -13l-13 -14q-19 -22 -19 -49v-13q0 -6 3 -10l12 -9
q6 -5 11 -11l31 -35q6 -6 12 -20t6 -27q0 -21 -16 -43q-9 -12 -24 -26h-1q-13 -12 -34 -28q-22 -13 -45 -23l-39 -20q-5 -2 -31 -11l-5 -2l7 -9l6 -6q14 -16 29 -16q23 0 60 26l25 17q6 5 42 32q5 2 11 7q7 5 19 13l5 3h5l7 2q4 0 7 -2l5 -4v-222l-1 -1l-14 -16q-3 -4 -7 -8
l-2 -1h-10v205q-12 -4 -48 -29q-12 -8 -32 -23q-10 -5 -27 -17q-35 -21 -53 -21q-20 0 -54 33q-19 18 -27 30.5t-15 29.5v11l5 6q4 4 5 4zM424 175q-7 -10 -7 -25q0 -8 4 -21q1 -3 3 -6v52z" />
    <glyph glyph-name="ruuthai.loy1" unicode="&#xe24;&#xe45;" horiz-adv-x="516" 
d="M164 -34l-12 -11h-3q-1 0 4 5t6 5zM169 -33h1h21h97q18 0 39 14q7 5 11 9q5 5 10 13q7 11 8 14q4 7 6 12q0 1 5 6l5 4h21v-264l-5 -6l-5 -4h-21l-2 212q-7 -6 -12 -9l-4 -2q-13 -17 -34 -25q-18 -8 -28 -8l-106 -2q-3 0 -27 3q-21 3 -35 15q-15 14 -15 36q0 5 1 10
q1 8 8.5 19t18.5 18q9 7 19 7q2 0 4.5 -1t4.5 -1q14 -5 22 -19q4 -11 4 -21q0 -14 -5 -22q-2 -3 -7 -8zM129 4q0 -1 -1 -2v-7q0 -4 3 -11q3 -6 10 -9h4q4 0 7 1q0 3 1 5l1 2q1 1 1 2q0 5 -3 10q-4 8 -11 10q-2 1 -5 1t-7 -2zM417 39h22v-264l-5 -6l-5 -4h-22v264l5 6z
M479 182q0 -25 -7 -44t-27 -39q-29 -30 -70.5 -41.5t-105.5 -11.5q-72 0 -110 9q-67 16 -90 64v1l95 118l-95 39q-33 12 -50 21q22 30 31 45l37 63q1 2 6 7q4 4 4 3q43 -33 80 -49q28 -13 48 -13q-21 -29 -48 -29q-8 0 -18 3q-11 3 -18 7l-41 23l-21 -34l45 -19l57 -23
q33 -13 47 -16v-1l-110 -134q21 -20 50.5 -30t57.5 -10l58 -1q67 -1 110 17q18 8 29 18q15 17 16 44v7q2 28 -23 53q-16 17 -51 36q-45 25 -49 28l13 20l30 48q18 28 31 46q2 3 7 7q3 4 3 3l40 -42q25 -24 54 -24q1 0 -5 -5q-20 -20 -38 -20q-27 0 -53 29l-26 -37l50 -31
q25 -15 41 -40q16 -28 16 -65z" />
    <glyph glyph-name="kokaithai.sub1" unicode="&#xe3a;&#xe01;" horiz-adv-x="0" 
d="M-350 -32q0 2 -2 6l-9 12l-4 1q-5 2 -10 2h-7q-3 -1 -6 -3q-3 -5 -3 -12v-7q0 -10 10 -18q6 -3 10 -3t8 1l5 2l2 4l5 8q1 3 1 7zM-382 -91q-3 0 -5 1l-7 3l-4 2q-3 2 -5 3q-4 3 -9 8q-13 18 -13 35l1 8q1 8 6 18q6 13 17 23q6 7 11.5 10t7.5 3h8l14 2q10 -2 14 -4
q15 -6 20 -12l41 25l23 9q25 8 37 8q15 0 58 -14q40 -14 73 -28l36 -16v-198l-5 -6q-3 -3 -5 -4l-25 -18q-15 0 -26.5 15t-11.5 33q0 16 9 28q14 16 28 22v97q-31 17 -81 34q-43 13 -60 13q-12 0 -39 -10q-15 -5 -24 -11q0 -1 -1 -4v-171q0 -11 -4 -18q-3 -5 -11.5 -14
t-14.5 -12h-35q-1 0 4 5t6 5q4 2 7 4l4 6q3 5 6 14v130l-6 -6l-2 -2q-10 -9 -19 -13q-1 -1 -9 -2l-6 -1h-3zM-94 -145q-6 -9 -6 -22q0 -14 6 -20v42z" />
    <glyph glyph-name="khokhaithai.sub1" unicode="&#xe3a;&#xe02;" horiz-adv-x="0" 
d="M-263 -86q0 10 -4 14l-10 5q-4 2 -11 3q-5 0 -10 -2q-3 -1 -6 -3l-3 -2q-1 -2 -1 -3q1 -5 4 -8q2 -3 7 -7l6 -3l8 -3h6q7 0 13 2q1 3 1 7zM-35 -112q0 -12 -33 -45q-1 -1 -1 -2q-24 -23 -60 -52q-46 -36 -75 -45q-19 -7 -35 -7q-17 0 -26 1h-18q-10 0 -15 5q-13 9 -22 18
q-15 12 -20 20q-1 0 5 5q4 5 5 5q17 4 37 16q14 7 42 24l47 30q15 10 52 36l44 34l-6 12q-23 23 -72 54q-23 15 -28 16q-9 0 -26 -10l-20 -9l-24 -17l-5 -1q-2 -1 -7 -9l-1 -3l9 4q2 1 7 2q2 1 4 1l2 -1q8 0 20 -4q5 -3 13 -10q5 -5 8 -12q2 -5 4 -13l1 -8q0 -8 -5 -19
q-1 -4 -8 -12t-13 -12q-14 -11 -33 -11q-6 0 -15 3l-11 5q-10 4 -14 8q-12 11 -15 25q-2 12 -2 22t6 23q4 10 15 21q21 24 63 50q43 28 60 28q10 0 32 -14q13 -9 47 -35q2 -2 6 -5q5 -5 17 -16q26 -24 42 -45q22 -30 22 -51zM-85 -86l-19 -16h-1q-27 -21 -47 -36
q-28 -21 -49 -34l-58 -35q-7 -5 -15 -10l6 -4l15 -4q2 -1 10 -3q4 -1 9 -1q7 0 22 7l17 6q28 11 90 63q23 20 29 27q0 1 1 1q5 6 5 13t-4 16q-4 4 -11 10z" />
    <glyph glyph-name="khokhwaithai.sub1" unicode="&#xe3a;&#xe04;" horiz-adv-x="0" 
d="M-314 -169q0 31 -28 31q-7 0 -13 -2q-2 -1 -5 -3v-5l-1 -5q-1 -12 8 -24q7 -8 16 -11l5 -1q6 0 12 3q3 7 6 17zM-85 -138q-9 -12 -9 -27q0 -10 9 -18v45zM-85 -128l1 81l-70 24q-6 3 -31 9q-17 5 -26 7q-14 3 -41 3q-49 0 -67 -9q-4 -2 -8 -6q-10 -11 -20 -31
q-16 -32 -19 -56l13 6q7 2 14 2q14 0 31 -7q8 -4 14 -8l4 -6q9 -16 9 -34v-9q0 -3 -2 -11q-5 -21 -18 -35q-8 -7 -13 -11q-12 -8 -31 -8q-26 0 -44 28q-15 23 -15 44q0 59 17 100q15 36 55 75q3 3 4 3l37 16q10 1 31 1q7 0 19 -0.5t18 -0.5q10 0 27 -4q23 -4 53 -15
q33 -11 55 -20l41 -17v-176q-3 -8 -5 -12q-17 -22 -31 -22q-17 0 -29 13t-12 32q0 21 15 37q12 12 24 17z" />
    <glyph glyph-name="khorakhangthai.sub1" unicode="&#xe3a;&#xe06;" horiz-adv-x="140" 
d="M-167 -27l3 -4q14 -18 19 -25l-1 -1q-11 -14 -27 -31q-14 -15 -21 -20l-1 -1q-3 -1 -6 -4q-11 -12 -20 -18q-15 -12 -17 -12q-4 -3 -8 -7q7 -7 14 -15q4 -4 13 -12q22 -20 31 -20q5 0 14 8q27 21 42 38t37 35q14 14 25 23q-14 13 -42 33q-8 5 -37 21zM-170 -23l2 2l14 15
l13 16h1q8 10 21 21q18 17 20 18l16 -14q20 -19 35 -31q22 -17 35 -26l-1.5 -1.5l-3.5 -3.5q-14 -14 -21 -14q-2 0 -4 1l-6 3q-10 3 -30 18q-17 12 -28 24q-5 -6 -13 -14l24 -20l34 -24q15 -11 38 -31q-2 -5 -12.5 -14t-18.5 -13q-3 -1 -5 -3l-1 -1l-1 -1q-8 -10 -32 -30h1
q-3 -2 -7 -6q25 -31 54 -48q20 -12 36 -12q26 0 58 16q14 7 23 14q10 12 10 27v401q0 32 -43 50q-8 3 -49 17q1 1 1 2l74 82q4 4 8 7l1 1l78 -50q1 0 -5 -5q-4 -5 -5 -5l-7 -4q-3 -2 -9 -3q-3 -1 -8 -2q-7 3 -20 9q-21 10 -28 16q-5 -6 -11 -13q-1 0 -1 -1l-12 -13
q3 0 17 -7q21 -8 35 -21q17 -18 17 -38v-418q0 -22 -17 -41q-7 -8 -15 -16h-1q-22 -19 -55 -28q-27 -9 -50 -9q-10 0 -31 10q-19 7 -38 20q-15 10 -25 19l-9 12q-11 -11 -30 -27q0 -1 -1 -1l-22 -16q-4 -4 -8 -6l-11 -1l-8 1l-9 2q-10 4 -26 20q-7 8 -27 30q-17 17 -25 24
q-1 0 5 5q10 10 19 17q4 4 12 9q6 5 15 9q6 4 11 7q2 3 6 7q2 2 3 2q2 1 6 4l16 16q10 10 13 15l-19 25l-17 18l-23 27q-15 15 -25 15q-9 0 -18 -6l-13 -21q4 1 10 1h8l5 -3q13 -5 25 -23q3 -8 4 -13l1 -11v-6q2 -13 -6 -26q-6 -8 -17 -19q-13 -12 -28 -12l-9 1q-2 0 -9 1
q-18 7 -24 22q-6 9 -11 34q0 34 26 71q15 22 33.5 34.5t32.5 12.5q16 0 33 -15q20 -16 40 -42zM-281 -68q0 15 -12 23q-4 4 -7 4l-7 1l-6 1q-3 0 -6 -1l-2 -5q-2 -4 -2 -12q0 -7 3 -10q2 -5 7 -10l10 -6l4 -2h6q4 0 8 2q4 7 4 15z" />
    <glyph glyph-name="ngonguthai.sub1" unicode="&#xe3a;&#xe07;" horiz-adv-x="0" 
d="M-44 -18l36 20l-39 -66q-9 -16 -46 -35q-25 -14 -46 -22q-7 -3 -24 -4q-15 -2 -30 -2q-42 0 -81 6l-35 7q-14 4 -24 10q-12 6 -20 18q-6 10 -12 26q-3 13 -3 21q0 13 3 21.5t14 20.5q15 15 31 19q6 2 11 2q7 0 12 -2q3 -1 5 -3q24 -14 26 -38l1 -10q0 -15 -6 -27l-1 -2
l-9 -10q-4 -4 -8 -7q-1 -1 -5 -4q13 -6 53 -6q17 0 36 -1l39 -3q21 0 51 12q24 11 37 21l17 17q3 5 7 11q1 1 6 7q3 3 4 3zM-323 -51q3 -3 7 -3l9 -1l4 2q4 7 4 14v4q0 10 -10 17l-5 3q-3 1 -7 2l-5 -1l-3 -1q-4 -8 -4 -14v-4q1 -9 10 -18z" />
    <glyph glyph-name="chochanthai.sub1" unicode="&#xe3a;&#xe08;" horiz-adv-x="0" 
d="M-55 11q-38 -55 -118 -83q-67 -24 -138 -24q-101 0 -123 64l5 6l5 4l15 -3h16q33 0 96 12q45 9 80 20l33 12q26 10 53 26q28 17 40 33l7 7l3 2l26 -20v-56zM-93 36q-50 -43 -132 -68q-75 -24 -138 -24h-4q6 -4 12 -6q13 -4 27 -4h7q3 1 4 1h9q74 0 166 40q32 14 47 27
q1 2 2 3l1 9v16q0 3 -1 6z" />
    <glyph glyph-name="chochingthai.sub1" unicode="&#xe3a;&#xe09;" horiz-adv-x="0" 
d="M-309 -70l-5 1q-8 0 -16 -5q-1 -3 -1 -5l-1 -14v-12q1 -8 4 -16l9 -7q6 -5 10 -5q1 4 2 9q3 13 3 27q0 12 -1 21q-2 5 -4 6zM-55 -138l7 17q7 18 7 37q0 7 -1 13q-1 1 -1 2q-2 -9 -7 -18q-7 -15 -20 -29q-17 -17 -33 -23q-17 -7 -34 -7q-29 0 -51 14l-28 29
q-13 14 -25 20q-4 4 -24 7h-2v-12q1 -15 -2 -33q-2 -18 -16 -32q-11 -11 -18 -13.5t-18 -2.5q-17 0 -27 10q-3 4 -7 11l-9 21q-4 16 -4 27q0 20 11 38q4 8 17 20l5 5q8 5 14 8l14 3l4 1v83l5 6l5 4h26v-98l15 -1q15 -1 29 -10q8 -5 22 -21q28 -31 36 -33l24 -9q9 -3 22 -3
h11q1 0 8 2q8 3 15 8q10 14 10 36q0 10 -2 20q-6 30 -20 42t-50 21q9 13 19.5 21t16.5 8l6 -2l12 -3q8 -6 10 -8q4 -3 10 -8q20 -18 28 -26q15 -16 21.5 -32.5t6.5 -33.5q0 -38 -22 -61q-8 -9 -16 -15z" />
    <glyph glyph-name="chochangthai.sub1" unicode="&#xe3a;&#xe0a;" horiz-adv-x="0" 
d="M-381 37q15 -2 54 -19q41 -17 69 -34q-12 -19 -34 -40q-2 -2 -6.5 -6t-10 -9t-6.5 -7l-24 -23q-1 -2 -2 -3l-7 -6q5 -2 25 -12q15 -8 21 -9l29 -4l15 -1q23 -1 60 6q29 4 45 15q23 16 54 42l51 41h1q-4 -23 -39 -61q-35 -39 -70 -63q-18 -12 -59 -18q-28 -3 -58 -3h-13
q-12 0 -17 2q-6 0 -25 7q-23 9 -42 18q-24 13 -37 23q-1 0 5 5q4 5 5 5q8 5 25 21q2 3 4 4q13 11 39 36q8 8 18 21q-15 8 -40 15l-46 13q-25 8 -36 15q-1 0 5 5q4 5 5 5z" />
    <glyph glyph-name="chochoethai.sub1" unicode="&#xe3a;&#xe0c;" horiz-adv-x="140" 
d="M-284 -199q0 7 -5 13q-4 3 -13 6l-5 1q-2 0 -4 -1q-1 -2 -2 -5q0 -8 6 -14t12 -6l5 -1q2 0 4 1q1 2 2 6zM5 -240q-32 2 -63 21q-17 9 -39 29q-9 -12 -23 -25q-24 -24 -35 -24h-5q-15 0 -44 28q-24 24 -36 44q-1 0 5 5q14 15 36 40h-1q24 30 31 41q-15 17 -54 52
q-30 26 -47 34q-4 0 -19 -14q-2 -3 -3 -3q-8 -5 -18 -14h-1q-8 -6 -24 -19q14 -6 38 -18l23 -14q10 -4 18 -9l-41 -63q5 2 12 2q25 0 30 -35q0 -15 -2.5 -24t-13.5 -20t-18 -13.5t-18 -2.5q-18 0 -30 15q-8 12 -12 37q4 22 30 46v1q6 6 12 16q7 10 10 20l-50 24q-4 2 -28 11
q-11 3 -20 8q-1 0 5 5q1 2 2 3q14 13 43 37q22 17 47 36q26 25 41 30q30 -20 58 -45q32 -30 70 -75l-1 -1q-9 -12 -25 -32q-1 0 -1 -1l-45 -50q5 -13 26 -28l29 -20q8 3 28 24q19 24 31 41q20 32 20 48q0 5 -2 9q-7 11 -30 24q-24 16 -36 16q20 34 36 57q10 13 20.5 22.5
t14.5 9.5q3 0 16 -11l26 -23q13 -13 28 -18q-6 -9 -15 -15.5t-13 -6.5l-4 1h-3q-10 4 -28 19q-3 2 -7 5l-9 10q-1 0 -5 -8q-6 -11 -11 -17q23 -14 34 -23q17 -15 23 -31q2 -7 -9 -29q-4 -6 -9 -17t-12 -20q-3 -4 -5 -7t-4.5 -6.5t-3.5 -5.5q20 -21 42 -31.5t53 -16.5l9 -1
q4 -1 7 -1q25 0 53 22l1 1q21 23 21 57v380q0 37 -45 52l-35 13l0.5 1t1.5 2q6 6 22 28l37 50q2 3 7 7q3 4 3 3q12 -11 30 -21l53 -27q1 0 -5 -5q-4 -5 -5 -5l-26 -14l-24 9q-22 9 -30 14q-7 -10 -13 -17l29 -19q16 -9 24 -21q9 -12 9 -28v-385q0 -43 -21 -73
q-23 -32 -57 -48q-29 -12 -49 -11z" />
    <glyph glyph-name="yoyingthai.sub1" unicode="&#xe3a;&#xe0d;" horiz-adv-x="0" 
d="M-340 61q24 -7 72 -47q56 39 78 44q65 -17 138 -48v-146l-5 -5q-22 -22 -31 -22q-20 4 -28 13q-5 7 -5 17v6q0 8 9 17q12 12 28 17v79q-40 20 -116 41q-32 -12 -49 -27q-3 -4 -7 -10q-2 -4 -2.5 -7t0 -4.5t0.5 -2.5v-109l-5 -6q-2 -2 -4 -3l-21 -18l-1 -1h-4
q-21 0 -32 24q-1 4 -1 7v6q0 10 9 20q11 11 20 14l8 2v57q0 37 -65 59q-4 0 -49 -25l-5 -1h-4q-4 0 -54 25q-13 -6 -20 -14q-7 -6 -14 -18q0 -1 -2 -2q-17 -19 -17 -37v-18q0 -18 10 -38q19 19 39 19h4q37 -4 37 -24q1 0 1 -6v-10q0 -12 -11 -23q-11 -12 -23 -16
q-6 -1 -10 -1h-5q-46 0 -63 43q-5 7 -12 44v3q0 41 29 73q33 44 70 56q47 -24 49 -24h4q8 1 51 24q5 3 9 3zM-299 -113v-4q2 -9 10 -13v32q-4 -3 -6 -5q-4 -5 -4 -10zM-92 -114v-3q0 -10 8 -15v29h-1q-2 -2 -4 -3q-3 -4 -3 -8zM-458 -123q0 15 -21 17q-7 -1 -12 -2
q0 -3 -2 -12q0 -11 23 -14h5q3 0 6 1q1 4 1 9v1zM-102 -174q33 0 50 -25v-14q0 -15 -16 -32q-14 -14 -29 -23q-21 -10 -69 -10h-11q-107 0 -247 32q-116 34 -163 61v2l5 6l5 4q2 0 21 -5q37 -10 143 -40q140 -34 200 -34q15 -2 54 -2q28 0 57 7q11 6 19 12q2 8 2 15
q0 14 -26 21h-11q-6 0 -10 -2q-2 -5 -4 -12q0 -6 21 -9v2l5 6l5 4h4q6 -3 6 -9q0 -7 -8 -16q-11 -10 -21 -13h-14q-27 0 -27 25q0 13 14 27q11 12 22 19q8 3 23 3z" />
    <glyph glyph-name="topatakthai.sub1" unicode="&#xe3a;&#xe0f;" horiz-adv-x="0" 
d="M-337 46q10 -7 37 -27l31 -23q15 -11 29 -17q1 0 -5 -5q-1 -2 -2 -3l-26 -24q-22 -21 -38 -34q-11 -9 -22 -16l59 -55q15 10 45 23q33 14 46 14q14 0 41 -8q29 -10 39 -20h2q6 0 20 18q26 31 41 64q0 1 6 6q4 5 4 4q5 -8 5 -20q0 -26 -26 -60t-59 -60h-1q-19 14 -44 24
q-26 12 -37 12q-6 0 -26 -9l-38 -20q-21 -9 -26 -9q-8 0 -25 15l-40 34q-26 23 -43 35q-1 0 5 5l5 5q12 8 25 20l31 29l2 2q11 8 24 18l-30 20q-20 13 -35 25q-21 16 -35 28q-1 0 5 5l5 5z" />
    <glyph glyph-name="thothanthai.sub1" unicode="&#xe3a;&#xe10;" horiz-adv-x="0" 
d="M-74 -242q-14 19 -30 34l-30 25q-17 15 -46 26l-20 6v-58l-1 -2q-22 -24 -56 -24h-5l-5 1q-26 0 -55 19q-37 26 -37 66q0 47 27 76q11 11 21 18q27 20 67 20q24 0 31 -6q12 -12 33 -19l23 -6q12 0 20 4l1 1q-5 2 -9 10q-3 8 -3 19q0 17 8 29q4 7 12.5 14t12.5 8q8 4 19 4
q9 0 21 -13l11 -13v-229l-5 -6q-5 -5 -5 -4zM-102 -155v76q-4 4 -9 4q-6 0 -16 -5l-26 -13l-5 -1q-11 0 -33 8q-17 7 -33 14q-14 6 -32 6t-31 -6l-23 -11q-8 -9 -11 -18q-5 -12 -5 -38q10 -43 40 -58q21 -10 40 -10q7 0 13 2v88l5 6l5 4h7l6 1q18 1 45 -11q19 -8 42 -24z
M-96 -28q0 24 -17 24q-4 0 -7 -1q-2 -5 -2 -12q0 -10 6 -17t15 -7q1 0 3 1q2 5 2 12z" />
    <glyph glyph-name="thonangmonthothai.sub1" unicode="&#xe3a;&#xe11;" horiz-adv-x="0" 
d="M-183 -26q1 2 2 5q0 10 -10 14l-5 1h-4q-2 0 -5 -1l-1 -3q0 -4 2 -6l4 -6q4 -5 13 -5q2 0 4 1zM-73 -32l6 -6q7 -7 8 -11v-11l1 -12v-16v-1q-1 -1 -1 -2v-14q-6 -69 -40 -119q-23 -32 -45.5 -48.5t-38.5 -14.5h-4q-1 0 4 5q4 3 5 5q15 12 31 32q23 28 39 62q16 38 16 73
v12l-1 6q-38 -42 -86 -75q-39 -28 -83 -45q-4 -2 -13 -6q-17 -5 -35 -6q-11 -1 -17 -1h-9l-11 2q-16 0 -33 16l-14 14q-1 0 5 5q4 5 5 5q93 42 158 82q51 30 81 53q16 12 22 19q1 1 3 2l12 12q1 2 2 3l8 7q3 7 3 14q0 16 -11 18q-7 0 -24 -11q-18 -11 -21 -11l-17 11
q-18 12 -23 12t-11 -3l-3 -2l-2 -2q-4 -6 -3 -8q1 -1 0 -1l10 6q6 5 10 5q5 -1 13 -4t10 -6q3 -2 6 -6q6 -9 6 -20q0 -14 -12 -27q-4 -5 -7 -8h-1q-11 -7 -22 -7q-12 0 -24 8q-12 11 -16 24q-3 9 -3 24q0 16 11 34q8 11 19.5 20.5t18.5 10.5q5 1 27 -10q21 -11 27 -11t21 11
q16 11 20 11l2 -1q35 -11 35 -43q0 -12 -5 -27q-20 -34 -85 -81q-47 -34 -109 -69q-40 -22 -66 -33q2 -1 3 -2h12q9 0 19 2q4 0 8 2q27 8 75 36q47 29 81 58t43 49q0 1 6 6q4 5 4 4z" />
    <glyph glyph-name="thophuthaothai.sub1" unicode="&#xe3a;&#xe12;" horiz-adv-x="140" 
d="M140 357l-16 -14q-3 -3 -5.5 -4t-5.5 0t-5 2t-7 4t-8 5l-23 12q-12 -13 -17 -19q15 0 39 -16q30 -20 30 -40v-460l-12 -17q-6 -10 -14.5 -18.5t-10.5 -6.5q-9 0 -26 19q-9 10 -32 40q-19 25 -29 35q-7 6 -16.5 8.5t-22.5 2.5q-6 0 -11 -1l1 -73l-1 -2l-22 -25
q-4 -4 -8 -7l-1 -1q-29 0 -45 21q-13 18 -13 42q0 15 14 36v1q19 23 42 37v34q0 13 -4 21q-4 5 -13 16q-14 18 -27 18q-4 0 -25 -16q-22 -17 -28 -17q-8 0 -29.5 17.5t-23.5 17.5q-13 0 -28 -11l-9 -6l-6 -12q-13 -35 -13 -39q0 -2 1 -6l2 -3q13 12 20 15t18 3h5l3 -1
q17 -4 21 -7l13 -12q5 -11 7 -21q2 -6 2 -14q0 -10 -2 -15l-5 -17q-11 -19 -27 -30q-10 -7 -22 -6l-15 1q-22 1 -37 28q-12 18 -16 48q-3 12 -3 22q0 16 4 31q1 4 5 10v-1q5 7 8 11q7 10 13.5 21t12.5 18t20 19v-1q19 16 37 16q8 0 27.5 -17t25.5 -17t28 16q22 15 28 15
q16 0 40 -24q12 -13 16 -18q9 -12 10 -30l1 -16v-28q0 -4 -1 -6q10 2 21 2q15 0 25 -2l12 -3q16 -11 34 -35l29 -35q11 -12 17 -15v5v422q0 42 -88 58q-1 0 1 2l64 72q4 4 8 7l1 1l33 -17q31 -16 42 -21q1 0 -5 -5q-2 -2 -3 -4zM-87 -176v57q0 1 -3.5 -1.5t-6.5 -4.5l-1 -1
l-11 -18q5 -29 22 -32zM-238 -133q3 7 3 14l1 12v3q-1 8 -10 14q-7 4 -19 4q-9 0 -17 -4q-1 -2 -2 -5t-3 -10q3 -13 8 -20l12 -8l7 -4q4 -1 9 -1t9 2q1 2 2 3z" />
    <glyph glyph-name="nonenthai.sub1" unicode="&#xe3a;&#xe13;" horiz-adv-x="0" 
d="M-81 -172q-1 -1 -2 -1q-4 -7 -4 -16t5 -19q0 -1 1 -2v37v1zM-81 -162v115q-9 8 -52.5 27t-77.5 30q-4 1 -34 -27q-9 -10 -19 -21l-19 -20q39 -28 60 -57q19 -24 19 -44.5t-18 -49.5q-11 -17 -24.5 -28t-22.5 -11q-7 0 -27.5 20t-34.5 20t-35 -19q-24 -21 -32 -21
q-15 0 -32 30.5t-17 48.5t31 52l2 2l43 44q-23 26 -53 53t-44 27q-3 0 -20 -17l-52 -50q6 -2 17 -5q2 -2 32 -12.5t38 -15.5v-1l-52 -64q12 0 20 -4q15 -10 15 -28t-5 -29q-3 -5 -12 -14l-2 -2q-2 -3 -7 -8q-2 -2 -3 -2q-6 -4 -12.5 -4t-14.5 3q-22 9 -22 44v4l1 4
q2 18 16 36l31 42q-6 3 -27 8l-44 12q-22 7 -23 9q7 11 39 44q30 35 60 63t37 28q9 0 39 -24q69 -56 87 -87q-13 -20 -38 -45l-32 -32q-11 -11 -11 -23t8 -27.5t19 -20.5l7 7q1 1 2 1q8 5 23 16q15 12 31 12t36 -18t26 -18q6 2 12 6q1 2 2 3q12 16 12 32.5t-26 45t-62 50.5
q44 59 79 91q32 29 41 29q8 0 46.5 -16.5t71.5 -34.5l36 -18v-195l-1 -1l-20 -23q-3 -4 -7 -8l-2 -1q-16 0 -26 12.5t-10 29.5v10t3 9t10 12q11 12 21 14zM-496 -195q-5 10 -15 10q-2 0 -5 -1l-1 -8q0 -18 8 -20l6 -1q3 0 5 1q2 4 2 10v9z" />
    <glyph glyph-name="totaothai.sub1" unicode="&#xe3a;&#xe15;" horiz-adv-x="0" 
d="M-271 -111q-3 10 -8 16q-5 4 -13 4l-7 -1q-8 -3 -15 -9l-1 -1q0 -19 11 -30q10 -9 21 -9l6 3q6 11 6 27zM-79 -121q-9 -12 -9 -25q0 -12 9 -19v44zM-79 -111v84q-14 4 -62 17q-30 8 -84 19l-16 2q-15 0 -36 -5q-19 -4 -32 -11q-9 -5 -16 -11q-10 -11 -18 -29l-9 -19
q-5 -11 -4 -24l1 -17q0 -3 4 -22q2 -14 12 -26q5 -5 10 -9q-5 5 -7 11q-5 6 -8 16q-2 11 -2 20t1 15t3 9q9 17 29 31q13 9 25 11l6 1q6 0 14 -3l10 -6q15 -12 20 -31q3 -10 3 -23q0 -24 -10 -46q-13 -30 -39 -45q-14 -8 -33 -8q-18 0 -35 8q-10 5 -21 21q-13 18 -17 35
q-3 12 -3 33q0 11 2 26q1 13 4 22q10 26 21 43q16 26 48 52h1l31 16l28 4q19 3 32 3h7l8 -2q23 -3 91 -23q28 -7 79 -25v-178q-4 -8 -6 -11q-17 -22 -31 -22q-17 0 -28.5 12.5t-11.5 31.5q0 20 15 36q12 12 24 17z" />
    <glyph glyph-name="thothungthai.sub1" unicode="&#xe3a;&#xe16;" horiz-adv-x="0" 
d="M39 26q2 0 2 -3q-7 -14 -20.5 -24.5t-23.5 -10.5h-295q-41 0 -79 -33v-1q-2 -1 -3 -2q-7 -7 -11 -17v-7q0 -25 40 -43q46 -14 87 -14h28q60 0 89 18q-25 1 -25 33q2 14 21 32q4 5 5 5q14 8 33 11q40 0 49 -34v-8q0 -16 -18 -34q-24 -25 -72 -43q-51 -16 -88 -16h-23
q-131 0 -156 68l-4 14v5q0 19 24 49q3 3 8 7l1 1q56 47 109 47h322zM-132 -70q0 -22 19 -22q8 1 13 3q1 3 1 7q-3 20 -15 20h-13q-2 0 -3 -1q-1 -3 -2 -7z" />
    <glyph glyph-name="thothahanthai.sub1" unicode="&#xe3a;&#xe17;" horiz-adv-x="0" 
d="M-40 4q-11 -73 -19 -108q-13 -55 -30 -85q-12 -21 -29 -33.5t-30 -11.5l-11 1q-1 0 4 5q4 3 6 5q18 15 36 52q14 31 23 77q5 19 11 71q-59 -67 -156 -111q-39 -18 -68 -25q-32 0 -59 7q-41 12 -76 41q-1 0 5 5q4 5 5 5l130 57q69 31 127 65q60 37 83 62q5 5 8 7l27 -18z
M-88 42q-31 -27 -90 -61q-55 -31 -116 -60q-42 -21 -72 -30q19 -9 42 -12l29 -3q23 10 61 28q51 25 93 54q27 19 41 33q9 8 15 18q2 4 2 10q0 8 -2 16q-2 5 -3 7z" />
    <glyph glyph-name="thothongthai.sub1" unicode="&#xe3a;&#xe18;" horiz-adv-x="0" 
d="M-38 -25q-4 -27 -31 -53q-2 -2 -3 -4q-21 -18 -44 -25q-2 -1 -10 -1q-6 -1 -12 -1l-16 1h-27q-10 1 -23 -1q-9 -2 -17 -6q-17 -8 -30 -21l-2 -2l-33 -33q-1 -2 -2 -3q-19 -17 -36 -21h-7q-20 -2 -42 21q-18 18 -34 50q-11 21 -22 49q-1 0 5 6l5 4q11 -2 24 -2q25 0 64 10
q32 8 66 23l52 21q18 8 33 15q29 15 52 33q24 20 40 42q1 2 7 7q3 4 3 3l26 -24zM-90 28q-38 -38 -99 -67l-67 -31q-33 -15 -65 -25q-33 -12 -51 -12q12 -20 19 -29q16 -18 35 -18q9 0 21 10l26 28v-1q25 27 45 36q13 6 29 9q12 3 31 3h39q6 0 15 3q12 3 22 12q3 4 5 5l2 2
q6 8 8 17l-4 25q-4 25 -11 33z" />
    <glyph glyph-name="nonuthai.sub1" unicode="&#xe3a;&#xe19;" horiz-adv-x="0" 
d="M-280 -99l-11 1q-11 -1 -16 -3q-1 -1 -1 -2q-1 -3 -1 -4l-2 -14q0 -9 2 -20q0 -4 4 -9l8 -4l11 -2q3 0 7 1q1 3 2 7q3 10 3 25q0 10 -2 18q-1 6 -4 6zM-109 -72q-2 9 -2 16q0 18 15 34q12 12 24 17q22 8 49 8l24 -8q15 -5 28 -25q10 -11 11 -19l2 -16l1 -14q0 -17 -9 -33
q-9 -17 -27.5 -31.5t-35.5 -19.5q-20 -5 -42 -5q-35 0 -62 13l-34 26q-16 13 -30 19q-4 3 -23 8q-6 0 -11 1l1 -14q0 -15 -4 -31q-2 -13 -15 -26.5t-26 -18.5t-26 -5q-25 0 -40 19q-15 21 -15 42q0 19 9 33q7 12 8 12q12 15 25 21q9 6 17 8l17 2l6 1l-1 75l5 6l5 4h33l1 -88
l18 -1q18 -2 35 -10q10 -5 28 -19q32 -26 43 -30l27 -9q5 0 13 -1q6 0 17 1q19 2 32 8q13 5 22 13q-21 -7 -41 -7q-60 0 -72 44zM2 -83l3 8q0 12 -14 28q-4 4 -13 8q-10 2 -22 2q-13 0 -21 -4q-2 -7 -2 -12q0 -14 17 -24q17 -8 38 -8q9 0 14 2z" />
    <glyph glyph-name="poplathai.sub1" unicode="&#xe3a;&#xe1b;" horiz-adv-x="161" 
d="M160 350q-7 -5 -21 -10l-7 -1q-8 2 -33 15l-23 13l-17 -19q69 -29 69 -60v-397q0 -14 -15 -30q-11 -12 -22 -19q-18 -11 -30 -11q-5 0 -10 2q-15 5 -33 20q-15 12 -29 26q-21 18 -40 18q-18 0 -49 -17l-58 -32q-13 -7 -33 -14q-14 -4 -28 -4q-26 0 -42 26q-14 23 -14 53
q0 24 23 55q24 32 50 49q15 11 23 14.5t22 3.5q15 0 31 -9q9 -4 11 -15q2 -8 4 -22q0 -19 -13 -33q-10 -10 -17 -13q-14 -8 -31 -7h-7q-3 0 -7 1q-9 3 -16 14l-12 16l-18 -16q-12 -15 -12 -33q4 -19 13 -32q11 -16 25 -15h5q4 1 16 5q21 7 41 17q13 7 27 15q23 15 27 16
q23 11 29 15q14 5 20 5q10 0 30 -12q12 -8 34 -25q4 -4 16 -14q12 -9 18 -16l5 -1q17 0 28 7q5 8 5 17v363q0 22 -20 36q-22 16 -77 28q-1 0 4 5q4 4 6 5q10 8 21 20q1 0 1 1l46 48q5 5 7 6l87 -48q1 0 -5 -5q-3 -4 -5 -5zM-190 -9q4 -11 14 -19q7 -8 18 -9h3q5 0 11 2
q2 5 3 13q-5 24 -22 24q-8 0 -15 -4l-12 -6v-1z" />
    <glyph glyph-name="phophungthai.sub1" unicode="&#xe3a;&#xe1c;" horiz-adv-x="0" 
d="M-96 -50q-35 1 -42 16l-1 7q0 10 3 16q4 2 8 2q21 0 32 -31v-4v-6zM-97 -54q-3 -13 -13 -30q-4 -7 -8 -12q-5 -3 -10 -5q-12 -2 -37 14l-61 38q-8 0 -25 -13l-35 -27q-17 -12 -23 -12q-14 2 -35 20q-17 15 -39 40q0 18 18 43q3 5 7 9q7 6 15 6q12 -3 22 -12
q11 -11 11 -23l-1 -6q-1 -2 -3 -5q-5 -3 -9 -3h-4q-16 5 -22 46q0 1 -5 -4q-4 -4 -5 -6q-5 -7 -7.5 -15t-2.5 -15q0 -17 12 -31t27 -14q17 0 35 21q16 18 18 35l1 8q0 13 -9 31q-5 11 -15 23q-6 3 -16 6q-9 3 -14 2h-9l-7 -2q-13 -3 -27 -17q-17 -16 -27 -36
q-15 -27 -19 -54q14 -29 40 -56q34 -33 62 -33q13 0 43 25q29 24 37 24q6 0 26 -13l37 -24q20 -13 35 -13q20 2 52 41q26 32 26 62q0 14 -3 24q-3 15 -11 27q-8 7 -19 13q-12 6 -23 5h-8q-3 0 -7 -3q-17 -5 -33 -28q-9 -14 -9 -30v-8q4 -14 15.5 -24.5t23.5 -10.5
q16 0 38 22z" />
    <glyph glyph-name="phophanthai.sub1" unicode="&#xe3a;&#xe1e;" horiz-adv-x="0" 
d="M-55 11q-38 -55 -118 -83q-67 -24 -138 -24q-101 0 -123 64l5 6l5 4l15 -3h16q33 0 96 12q45 9 80 20l33 12q26 10 53 26q28 17 40 33l7 7l3 2l26 -20v-56zM-93 36q-50 -43 -132 -68q-75 -24 -138 -24h-4q6 -4 12 -6q13 -4 27 -4h7q3 1 4 1h9q74 0 166 40q32 14 47 27
q1 2 2 3l1 9v16q0 3 -1 6z" />
    <glyph glyph-name="phosamphaothai.sub1" unicode="&#xe3a;&#xe20;" horiz-adv-x="0" 
d="M-348 -37q27 -3 62 -33q3 -5 3 -9v-87q0 -28 -31 -62q-3 -3 -6 -5q-13 -12 -22 -12h-9q-37 0 -47 36q-2 10 -2 20v2q0 15 32 43l1 1q11 6 22 6h6q10 0 18 -4v45q-10 14 -69 34q-15 3 -24 3h-5v2l5 6q2 2 4 3q105 91 119 91q11 1 19 1h7q56 0 148 -41q29 -18 52 -39v-172
q0 -1 -26 -30l-7 -7h-1h-5q-31 9 -31 36v11q0 15 14 30q9 10 18 14v94q-77 54 -120 54q-36 9 -63 9h-9q-35 -28 -53 -40zM-107 -182v-9q1 -5 4 -9v32q-4 -7 -4 -14zM-364 -182q0 -14 17 -24h12q2 1 3 1q2 5 2 11q-2 22 -15 22h-10q-4 -1 -8 -3q-1 -3 -1 -7z" />
    <glyph glyph-name="momathai.sub1" unicode="&#xe3a;&#xe21;" horiz-adv-x="0" 
d="M-35 -146q-19 -19 -34 -19q-7 0 -14 3q-16 7 -24 17.5t-8 24.5q0 13 7 33q4 8 9 16q-12 -5 -23 -14q-6 -7 -16 -20q-43 -55 -83 -53h-13q-3 1 -4 1q-15 3 -72 28q-65 28 -114 58q-63 37 -80 64q-1 0 5 5q5 6 5 5q46 -22 92 -47l64 -33q39 -20 57 -27l35 -11q24 -8 35 -8
q14 0 35 18q11 8 17 15q30 43 66 57v108l5 6l5 4h24v-114q12 -4 21 -10q23 -17 25 -43v-11q1 -14 -5 -28q-5 -14 -17 -25zM-71 -75q-1 0 -1 -1q-5 -9 -5 -21q0 -13 9 -20q7 -5 14 -5q2 0 3 1q4 8 4 18q0 9 -6 19q-7 10 -15 9h-3z" />
    <glyph glyph-name="yoyakthai.sub1" unicode="&#xe3a;&#xe22;" horiz-adv-x="154" 
d="M-115 -2q0 11 -11 20.5t-23 9.5q-3 0 -6 -1q-2 -5 -2 -10q0 -12 9 -22q9 -9 20 -9q6 0 10 3l1 1q2 3 2 8zM112 287l1 -363q0 -18 -16 -46q-14 -24 -35 -40q-18 -12 -45 -20q-41 -11 -94 -11q-32 0 -72 26q-34 24 -61 59q-29 39 -30 60l-1 9q-2 23 15 44q6 9 17 19
q32 29 83 29q15 0 27 -14q13 -14 12 -28l-1 -4q-1 -16 -13 -29q-6 -6 -10 -9.5t-8.5 -5.5t-5.5 -2.5t-6.5 -1.5t-6.5 -1h-3q-14 -1 -28 13q-15 14 -15 38l-10 -6q-2 -3 -5 -7q-10 -15 -10 -26q0 -9 14 -36q21 -36 48 -59q36 -32 83 -32t81 8q27 6 39 16q4 5 8 11
q15 22 15 37v354q0 20 -24 33q-20 11 -59 20l0.5 0.5l1.5 1.5l66 72q4 5 7 8h1l83 -42q1 0 -5 -5q-4 -5 -5 -5l-30 -15l-13 5l-37 18l-12 -12q26 -9 41 -22q18 -18 18 -39z" />
    <glyph glyph-name="roruathai.sub1" unicode="&#xe3a;&#xe23;" horiz-adv-x="140" 
d="M274 721q-5 -11 -49 -32q-35 -18 -50 -32q-1 -1 -2 -1q-21 -22 -30 -32l1 1l-14 -18q-1 -1 -2 -3q-13 -14 -23 -42q-9 -27 -9 -54v-578q14 -20 22 -26l16 -14q15 -12 22 -12q29 0 61 13q27 12 44 26q12 13 15 20q3 6 7 20q1 5 1 17v4q-1 5 -1 7l-7 14q-3 7 -10 7
q-4 0 -8 -2q-5 -8 -5 -17q0 -19 24 -33q1 0 -5 -5l-5 -5q-10 -6 -18 -6q-26 0 -26 42q0 12 2 21q2 7 14 19l14 13l5 5q8 5 17 5t23 -7q9 -7 14 -16.5t5 -23.5q0 -24 -1 -29q-2 -7 -8 -23q-5 -13 -24 -41q-1 -2 -5 -5q-35 -36 -61 -47q-37 -17 -55 -17q-8 0 -17 2
q-23 3 -54 29q-13 11 -24 30q-2 3 -5 8t-3 8v603q0 68 38 111q2 2 4 3q14 15 15 17q0 1 5 6q3 2 4 4q11 9 36 28q20 16 63 26q25 6 49 12z" />
    <glyph glyph-name="ruthai.sub1" unicode="&#xe3a;&#xe24;" horiz-adv-x="0" 
d="M-293 4l-12 -11h-2q-1 0 4 5t6 5zM-288 4h1l8 1h122q16 0 36 14q7 4 12 9t9 12l8 13q3 5 4 10q0 1 5 6l5 4h21v-253l-5 -6l-5 -4h-21v206q-7 -6 -13 -10l-2 -2q-9 -14 -32 -23q-11 -4 -16 -6q-7 -3 -12 -3h-119q-32 0 -46 7q-17 9 -22 20q-6 10 -6 23l1 10q2 8 10 18.5
t17 16.5q8 6 18 6h5l3 -1q14 -3 21 -19q5 -9 5 -18q0 -8 -2 -14t-4 -10q0 -1 -6 -7zM-326 40l-1 -2v-6q0 -5 2 -10q3 -7 10 -9l4 -1q3 0 7 2q0 1 1 3v4q0 15 -12 20l-5 1q-3 0 -6 -2z" />
    <glyph glyph-name="lolingthai.sub1" unicode="&#xe3a;&#xe25;" horiz-adv-x="0" 
d="M-1 85q1 -1 1 -3q0 -7 -6 -27q-9 -29 -16 -42q-17 -29 -59 -56q-38 -26 -66 -26q-16 0 -51 21l-60 37q-19 9 -41 12h-13q-15 0 -25 -3l-1 -1q15 0 22 -10q5 -5 7 -17l2 -8q0 -14 -13 -28q-16 -18 -32 -20q-2 -1 -7 -1q-16 0 -25 8q-14 9 -12 26v10q1 7 10 24q14 25 37 44
q22 17 47 17t64 -19q15 -8 64 -36q33 -19 41 -19q12 0 34 12q27 14 47 33q0 1 1 2q24 23 40 60q0 1 6 6q4 5 4 4zM-335 -45q2 3 2 9q0 8 -9 8q-7 0 -18 -6q-1 -1 -2 -1q0 -2 -1 -4q-1 -7 5 -12q6 -4 12 -4q4 0 7 2q2 3 4 8z" />
    <glyph glyph-name="wowaenthai.sub1" unicode="&#xe3a;&#xe27;" horiz-adv-x="0" 
d="M-55 11q-38 -55 -118 -83q-67 -24 -138 -24q-101 0 -123 64l5 6l5 4l15 -3h16q33 0 96 12q45 9 80 20l33 12q26 10 53 26q28 17 40 33l7 7l3 2l26 -20v-56zM-93 36q-50 -43 -132 -68q-75 -24 -138 -24h-4q6 -4 12 -6q13 -4 27 -4h7q3 1 4 1h9q74 0 166 40q32 14 47 27
q1 2 2 3l1 9v16q0 3 -1 6z" />
    <glyph glyph-name="sosalathai.sub1" unicode="&#xe3a;&#xe28;" horiz-adv-x="0" 
d="M-312 -147q0 32 -27 32q-10 0 -18 -5l-1 -5v-5q-1 -13 7 -24q7 -10 16 -12h5q7 0 12 3q4 6 6 16zM-83 -117q-9 -12 -9 -25q0 -12 9 -19v44zM-83 -106l1 81l-71 24q-35 12 -56 16q-14 2 -41 2q-48 0 -66 -8q-4 -2 -8 -5q-10 -12 -20 -33q-16 -32 -19 -56q13 9 26 9
q14 0 32 -8q7 -3 14 -7l3 -6q10 -16 9 -33v-11q0 -1 -2 -9q-5 -22 -17 -34q-7 -8 -13 -12q-12 -9 -31 -9q-26 0 -45 28q-14 22 -14 44q0 58 17 100q15 36 55 75q3 3 4 3l36 16q15 1 32 1l37 -1q5 -1 12 -1q2 0 13 -2q33 -7 64 -16q40 -11 63 -20l17 22l75 93q16 19 42 41
q16 14 22 14q1 -5 -9 -20q-10 -18 -26 -39v1l-98 -129v-176q-3 -8 -6 -12q-17 -22 -30 -22q-18 0 -30 13t-12 32q0 20 15 36q13 13 25 18z" />
    <glyph glyph-name="sorusithai.sub1" unicode="&#xe3a;&#xe29;" horiz-adv-x="183" 
d="M160 350l-27 -12l-55 27l-2 -2q-6 -9 -13 -16q29 -11 44 -25q22 -19 22 -41l1 -126l19 10l76 38q-4 -23 -35 -46q-2 -1 -21 -12l-39 -24l-1 -219q0 -40 -31 -71q-22 -23 -48 -34.5t-65 -19.5q-48 -9 -108 -9q-22 0 -50 5q-15 2 -47 11q-13 3 -41 24q-20 15 -44 35l-36 30
q-1 0 5 5q4 5 5 5l88 16q19 4 50 12q21 5 40 12q45 16 64 35q3 3 4 3q2 1 4 3q1 0 1 1q6 8 6 19q0 9 -7 19q-11 14 -26 14q-5 0 -9 -2q0 -1 -1 -2q-5 -7 -5 -15q0 -12 9 -20q8 -7 19 -7q7 0 18 5l-4 -4q-2 -3 -4 -4q-23 -21 -36 -21q-10 0 -19 10l-12 12q-7 6 -7 24q0 4 1 7
l2 6q3 9 13 21q17 19 23 19q4 0 12.5 2.5t13.5 2.5q8 0 13 -3l7 -2q3 -1 6 -3q15 -8 22 -32q4 -9 4 -20q0 -21 -20 -43q-14 -14 -29 -24q-33 -22 -91 -39q-39 -12 -83 -18l16 -20q17 -14 42 -28l61 -14q16 -3 34 -3q104 0 154 26q21 9 33 20q13 15 17 37l1 216l-61 -26
l11 34q0 1 5 6q4 4 5 4l40 21l-1 120q0 36 -45 51l-35 13l1 1t2 3q6 6 21 26v-1l36 49q2 3 7 7q3 4 3 3q12 -9 33 -21l36 -21l18 -10q1 0 -5 -5q-4 -5 -5 -5z" />
    <glyph glyph-name="sosuathai.sub1" unicode="&#xe3a;&#xe2a;" horiz-adv-x="140" 
d="M-2 323v-2q82 -20 82 -59v-374q0 -7 -2 -13q0 -6 -7 -14q-9 -8 -28 -21q-28 -18 -136 -18h-41q-33 0 -90 13q-30 0 -54 42q52 3 125 34q35 23 55 43q23 23 23 35v11q0 9 -10 30q0 15 -40 25h-5q-6 0 -27 -4q-18 -12 -29 -27.5t-11 -26.5q0 -12 4 -20q20 -27 37 -27
q13 0 34 20q5 4 7 7v2q-10 -4 -13 -4h-2q-29 4 -29 28q2 10 6 16q3 2 8 2h6q22 0 30 -32v-4q0 -10 -9 -19q-12 -12 -38 -26q-43 -21 -161 -44q-1 0 -6 -5l-4 -5q3 -9 14 -34q15 -22 43 -42q25 -18 120 -27h37q44 0 92 6q63 10 92 36q46 39 46 70v386q0 32 -69 65q9 9 15 17
l51 -21q23 4 29 10l7 8v2q-41 21 -80 50q0 1 -5 -5q-13 -12 -67 -84z" />
    <glyph glyph-name="hohipthai.sub1" unicode="&#xe3a;&#xe2b;" horiz-adv-x="0" 
d="M-95 -153q-2 -1 -4 -3q-6 -8 -6 -21q0 -19 10 -23v46v1zM-95 -143v74q0 8 -21 23q-17 14 -42 26q-23 12 -28 11q-14 -2 -25 -10q-18 -11 -45 -39q9 -8 24 -24q13 -14 19 -39q2 -7 2 -16q0 -10 -3 -19q-7 -19 -12 -26q-20 -28 -43 -41q-43 -26 -94 -26q-40 0 -66 9
q-20 7 -41 23l-42 32l1.5 1.5l3.5 3.5l68 69l-113 40q-1 0 2 2l84 92q4 5 7 8h1q3 0 9 -4q2 -1 14 -9l36 -24q21 -14 39 -17q1 0 -1 -2q-16 -18 -27 -21q-2 -1 -7 -1h-6q-13 4 -34 18q-4 3 -14 8q-8 5 -14 7l-36 -35l111 -40l-1 -1t-2 -3l-72 -75q28 -26 54 -37q23 -8 57 -8
q17 0 41 5q34 10 51 25q10 12 13 28q2 12 2 17q0 7 -5 15q-1 4 -8 12q-16 22 -54 42q-1 0 5 5q4 5 5 5q18 10 42 31l38 37q0 1 1 1q22 21 42 21q14 0 28 -8q9 -4 34 -23l56 -41l-2 -176l-2 -2l-20 -22q-4 -5 -7 -8h-1q-18 0 -30 16q-10 15 -10 37q0 21 15 37q12 13 23 16z
" />
    <glyph glyph-name="lochulathai.sub1" unicode="&#xe3a;&#xe2c;" horiz-adv-x="630" 
d="M362 263q-5 13 -25 13h-4q-6 0 -12 -3q-1 -3 -2 -7q2 -11 11 -15l15 -3l6 -1q5 0 8 2q3 5 3 14zM258 -124q17 6 50 36v1l59 52h1q13 11 30 21q12 7 21 7q10 0 30 -22q12 -12 37 -45q22 -31 36 -43l6 -1q11 0 20 7q7 9 7 20v313q0 24 -21 39q-25 17 -85 30q-1 0 4 5
q4 3 5 5q12 9 26 23v1l50 52q5 5 7 6l95 -49q1 0 -5 -5q-3 -3 -4 -5l-16 -13h-1q-5 -3 -11 -4l-3 1l-62 31l-19 -21q75 -32 75 -66v-349q0 -15 -16 -32q-12 -12 -24 -20q-22 -14 -32 -14h-3q-17 5 -38 32l-36 50q-19 25 -33 29h-4q-17 1 -46 -27l-59 -54q-34 -33 -51 -33
q-38 0 -83 30q-37 25 -52 47q-1 0 5 5l5 5q1 0 10 5q17 9 29 15q45 24 83 48q53 31 79 53q16 14 30 27q15 16 18 23q-6 5 -14 9q-11 4 -19 3l-24 -4q-20 -13 -73 -35q-56 -23 -73 -23q-12 0 -44 19q-26 16 -54 36l-26 20q-1 0 5 5q3 4 5 5l97 74l-123 55q-1 0 5 5q1 2 3 4
l51 46h1q39 34 82 62q48 31 70 31q20 0 53 -14q27 -11 55 -30q13 -7 30 -21q11 -16 15 -30q4 -10 6 -33q-3 -21 -15 -35q-17 -19 -37 -28l-8 -1h-8q-19 -2 -33 12q-9 11 -12 30q0 21 14 37q1 1 3 2q18 18 36 18h2q-15 11 -38 22q-51 25 -75 25q-18 0 -71 -37
q-42 -30 -60 -49l123 -60q1 0 -5 -5q-3 -4 -5 -5l-104 -76q8 -6 35 -23q31 -19 38 -20q6 0 41 13q33 13 65 27q35 15 44 22l1 1q17 0 44 -7q30 -8 40 -16q-3 -32 -15 -50q-1 -2 -5 -5.5t-25 -23.5v-1q-33 -31 -80 -63q-37 -26 -79 -49q-22 -12 -37 -19q15 -14 34 -23
q27 -14 44 -14h4z" />
    <glyph glyph-name="oangthai.sub1" unicode="&#xe3a;&#xe2d;" horiz-adv-x="0" 
d="M80 9q3 -5 1.5 -11t-10.5 -15q-11 -11 -19 -13.5t-23 -2.5l-27 -1q-29 -1 -51 15h-2q-34 -29 -110 -63q-72 -21 -118 -21h-28q-88 4 -110 63q-1 1 4 6.5t6 4.5q11 -2 27 -2h4q100 0 240 59q27 14 62 47l3 2q13 6 21 6h7q33 -8 33 -38v-5q0 -17 -12 -32q13 -7 47 -7h7
q21 0 42 8h6zM-58 42l1 -4q1 -7 6 -12l9 -6q1 4 1 9v6q-3 8 -10 8h-3q-2 0 -4 -1zM-349 -63q15 -9 28 -9h11q71 4 115 17q84 29 123 53q-11 9 -13 27l-5 -3q-111 -85 -259 -85z" />
    <glyph glyph-name="ruuthai.sub1" unicode="&#xe3a;&#xe24;&#xe45;" horiz-adv-x="0" 
d="M-323 -4l-12 -11h-3q-1 0 4 5t6 5zM-318 -4h1h20h99q17 0 38 15q7 5 11 9q5 5 10 13q6 10 8 14q4 6 5 10q0 1 5 6l5 4h21v-263l-5 -6l-5 -4h-21l-1 213q-6 -5 -12 -9l-4 -2q-12 -17 -34 -27q-18 -8 -28 -8h-107q-3 0 -27 3q-20 3 -34 14q-16 14 -16 36q0 6 1 11
q5 19 28 36q8 6 19 6q1 0 3.5 -0.5t4.5 -0.5q15 -4 22 -19q5 -11 5 -20q0 -16 -6 -24q-1 -2 -6 -7zM-358 33q-1 -1 -1 -2q-1 -4 -1 -7q0 -4 3 -10q4 -7 11 -10q2 -1 4 -1q4 0 7 2q0 2 1 4q1 3 1 5q0 5 -3 11q-4 7 -11 9q-2 1 -4 1q-3 0 -7 -2zM-71 67h22v-263l-5 -6l-5 -4
h-22v263l5 6z" />
    <glyph glyph-name="wowaenthai.alt2" unicode="&#xe27;&#xe34;" horiz-adv-x="378" 
d="M195 131q-1 10 -10 18t-18 8q-10 0 -18 -4q-3 -6 -3 -13q0 -11 11 -20t23 -10h6q3 0 5 1q4 8 4 20zM307 349l-43 29q-74 50 -100 48l-5 -1h-5l-68 -39q56 -8 127 -33q45 -15 80 -33q1 -1 4 1l1 1q12 14 12 21q0 4 -3 6zM335 236q0 -34 -20 -77q-11 -27 -28 -45
q-13 -13 -23 -19q-18 -9 -41 -16q-22 -6 -42 -6q-31 0 -49 11q-10 11 -14.5 23t-4.5 24q0 21 12 36q23 28 47 28l8 -2q22 0 37 -22q11 -15 11 -36q0 -14 -8 -24q16 1 32 13q4 3 7 6q10 11 20 31q17 37 17 91q0 23 -55 48q-47 20 -119 37q-56 14 -112 21q-1 0 4 5q4 4 6 5
l35 26l68 47q36 26 41 26l6 2q17 2 58 -20q23 -14 66 -42l52 -36q4 -3 4 -8q0 -13 -15 -37l-16 -23q16 -20 16 -49v-18z" />
    <glyph glyph-name="wowaenthai.alt3" unicode="&#xe27;&#xe35;" horiz-adv-x="420" 
d="M220 130q-1 11 -9.5 19t-17.5 8q-10 0 -18 -5q-3 -6 -3 -13q0 -11 11 -20q11 -8 24 -9h4q3 0 5 1q4 8 4 19zM332 347l-42 30q-75 48 -100 47l-5 -1l-5 -2l-66 -38q54 -7 125 -32q45 -15 79 -33q2 -1 6 3q1 1 2 1q10 11 10 19q0 4 -4 6zM359 235q0 -34 -18 -76
q-12 -27 -30 -46q-12 -12 -21 -18q-18 -9 -40 -16q-24 -6 -43 -6q-31 0 -48 11q-10 11 -14.5 23t-4.5 25q0 19 12 34q10 13 23 21t23 7l9 -1q21 -2 36 -22q10 -16 10 -36q0 -16 -7 -25q15 0 31 14q14 11 27 37q18 37 18 89q0 23 -55 47q-47 21 -119 39q-56 13 -111 21
q-1 0 4 5q4 4 6 5l35 25l67 47q37 26 41 26l7 1q14 1 47 -13q23 -11 55 -32q2 6 5 13q2 6 9 24q5 9 10 26l9 27q0 1 5 6l5 4q9 -1 12 -8q5 -6 5 -16q0 -18 -17 -58l-15 -36q-7 -18 0.5 -24t23.5 -6.5t20 -4.5q4 -1 4 -7q0 -14 -16 -37l-16 -22q18 -20 18 -50v-10z" />
    <glyph glyph-name="wowaenthai.alt4" unicode="&#xe27;&#xe36;" horiz-adv-x="423" 
d="M221 131q-1 10 -10 18.5t-18 8.5q-11 0 -19 -6q-3 -5 -3 -11q0 -12 12 -21q11 -9 24 -10h4q3 0 6 1q4 8 4 20zM334 350l-44 28q-75 51 -100 49l-10 -2l-68 -39q55 -8 127 -33q46 -15 80 -33q2 0 4 2l3 3q11 12 11 19q0 4 -3 6zM361 236q0 -34 -19 -77q-11 -25 -29 -44
q-13 -13 -23 -19q-17 -11 -40 -16q-23 -7 -43 -7q-31 0 -48 12q-11 11 -15.5 23t-4.5 24q0 20 12 35q23 28 48 28l8 -1q21 -1 37 -22q10 -16 10 -37q0 -15 -7 -24q14 1 32 13q13 11 26 37q18 38 18 91q0 24 -56 48q-47 20 -119 37q-56 14 -112 23q-1 0 4 5q4 4 6 5l35 25
l68 47q36 25 41 26l7 1q16 2 56 -20q24 -13 68 -42l52 -36q4 -2 4 -8q0 -13 -16 -36l-16 -24q18 -19 18 -48v-11zM387 497q0 -28 -17 -48q-24 -26 -49 -26q-24 0 -40 18t-16 46t17 47q23 26 49 26q25 0 40.5 -17.5t15.5 -45.5zM301 496q0 -17 9 -27t22 -10q8 0 15 4
q6 9 6 23q0 15 -9 25t-22 10q-9 0 -15 -4q-6 -9 -6 -21z" />
    <glyph glyph-name="wowaenthai.alt5" unicode="&#xe27;&#xe37;" horiz-adv-x="420" 
d="M220 130q-1 11 -9.5 19t-17.5 8q-10 0 -18 -5q-3 -6 -3 -13q0 -11 11 -20q11 -8 24 -9h4q3 0 5 1q4 8 4 19zM332 347l-42 30q-75 48 -100 47l-5 -1l-5 -2l-66 -38q54 -7 125 -32q45 -15 79 -33q2 -1 6 3q1 1 2 1q10 11 10 19q0 4 -4 6zM359 235q0 -34 -18 -76
q-12 -27 -30 -46q-12 -12 -21 -18q-18 -9 -40 -16q-24 -6 -43 -6q-31 0 -48 11q-10 11 -14.5 23t-4.5 25q0 19 12 34q10 13 23 21t23 7l9 -1q21 -2 36 -22q10 -16 10 -36q0 -16 -7 -25q15 0 31 14q14 11 27 37q18 37 18 89q0 23 -55 47q-47 21 -119 39q-56 13 -111 21
q-1 0 4 5q4 4 6 5l35 25l67 47q37 26 41 26l7 1q14 1 47 -13q23 -11 55 -32q2 6 5 13q2 6 9 24q5 9 10 26l9 27q0 1 5 6l5 4q9 -1 12 -8q5 -6 5 -16q0 -18 -17 -58l-15 -36q-7 -18 0.5 -24t23.5 -6.5t20 -4.5q4 -1 4 -7q0 -14 -16 -37l-16 -22q18 -20 18 -50v-10zM247 429
l46 101q0 1 6 6l4 4q16 -3 10.5 -31t-32.5 -82q0 -1 -6 -6l-4 -4z" />
    <glyph glyph-name="sosuathai.alt2" unicode="&#xe2a;&#xe34;" horiz-adv-x="560" 
d="M111 116q3 0 5 1q3 7 5 19l1 5q0 8 -5 17q-3 8 -11 13q-10 0 -16 -4q-5 -7 -5 -17q0 -14 7 -23q7 -11 19 -11zM287 269q-18 15 -62 42l-79 47q-32 19 -47 28l-7 1q-14 0 -33 -11l-5 -3q9 -4 31 -15l46 -23l116 -60q23 -11 41 -18q2 3 3 6q0 4 -4 6zM309 238l-23 -40
q-10 -19 -20 -33q-9 -12 -19 -23l13 -12q13 -9 33 -12l46 -7q6 -2 20 -3q9 -1 18 -1q45 0 73 25q7 9 13 26q4 11 7 22q2 11 2 18v5q-2 19 -8 32q-9 20 -28 37q-13 12 -34 21l-37 18v1l35 44h1q19 23 34 49q1 2 6 7q4 4 4 3l46 -38q17 -13 45 -25l-0.5 -0.5t-1.5 -2.5
q-19 -20 -31 -20q-20 0 -61 31l-4 -7q-7 -11 -15 -20l29 -19q15 -10 28 -24q25 -27 29 -72v-14q0 -59 -41 -102q-19 -19 -43.5 -25t-67.5 -6q-46 0 -81 9q-16 4 -24 7t-29 18q-13 8 -19 13.5t-5 9.5l1 1q11 14 31 40q16 23 32 48q-8 8 -21 14l-25 12l-48 20q-10 4 -29 13
l-3 -2l-8 -8q-17 -18 -28 -32v-1q-17 -21 -19 -36q10 9 17 12q8 4 16 4q20 -2 32 -22q4 -8 6 -13q3 -7 2 -14v-14l-1 -7q-2 -22 -5 -31q0 -1 -6 -8q-3 -4 -5 -7q-1 -1 -1 -2q-17 -18 -30 -20q-13 0 -24 6q-13 8 -18 16l-10 16q-3 7 -7 19q-1 7 -1 19v29l-1 10q1 19 23 49
q13 21 41 52q-9 6 -30 18l-91 49q30 40 69 60q27 13 51 13q13 -4 56 -31l165 -104q4 -2 4 -8q0 -8 -8 -22z" />
    <glyph glyph-name="sosuathai.alt3" unicode="&#xe2a;&#xe35;" horiz-adv-x="560" 
d="M112 116q3 0 5 1q3 7 5 20v4q2 9 -3 18q-4 9 -12 14q-9 0 -16 -4q-5 -8 -5 -18q0 -14 7 -24q8 -11 19 -11zM291 273q-18 14 -64 40l-79 49q-33 19 -48 28l-6 1q-15 0 -35 -11l-4 -3q8 -4 31 -16l23 -10q5 -4 23 -13l118 -60q23 -12 41 -19l4 6q0 4 -4 8zM314 240l-24 -41
q-11 -20 -20 -33q-8 -11 -20 -23l13 -13q13 -8 34 -11l46 -9q6 0 20 -2q10 -1 19 -1q23 0 43.5 8.5t31.5 18.5q5 6 13 25q3 12 5 22q3 12 2 19v5q-1 20 -7 32q-10 20 -29 37q-13 13 -34 22l-38 17v1l36 45h1q19 23 33 50q0 1 6 6q4 5 4 4l48 -38q17 -14 46 -26l-0.5 -0.5
t-1.5 -2.5q-19 -20 -32 -20q-19 0 -62 31l-4 -7q-3 -4 -7.5 -11t-6.5 -10l28 -17q16 -11 28 -26q26 -26 30 -73v-13q0 -60 -41 -103l-2 -2q-18 -19 -43 -24.5t-68 -5.5q-46 0 -82 8q-15 5 -24 9q-8 3 -30 17q-25 16 -24 24l2 3q12 12 31 38q17 23 32 48q-8 10 -21 15l-25 12
l-49 20q-9 4 -29 13l-1 -1q-6 -6 -11 -10q-17 -18 -28 -31q-16 -23 -19 -37q10 8 18 11q8 5 16 5q20 -3 32 -24q4 -7 7 -12q2 -7 2 -14l-1 -10v-4l-1 -7q-2 -23 -5 -31l1 1q0 -2 -5 -6q-4 -6 -7 -10l-2 -2q-17 -19 -30 -22q-13 0 -24 8q-13 7 -18 15l-10 16q-4 7 -7 20
q-2 7 -2 19v40q1 19 22 49q15 22 42 53q-9 6 -31 19l-91 48q31 42 70 61q28 13 51 13q9 -3 30 -15l52 -30l57 -36q4 7 9 18l27 58q9 24 17 32t9 7q8 -4 8 -18q0 -19 -12 -46l-18 -49q-10 -23 -8 -24l53 -33q4 -2 4 -8q0 -8 -7 -23z" />
    <glyph glyph-name="sosuathai.alt4" unicode="&#xe2a;&#xe36;" horiz-adv-x="560" 
d="M110 115q3 0 5 1q3 7 5 20v5q1 8 -3 16q-4 9 -12 14q-9 0 -15 -3q-5 -8 -5 -18q0 -15 6 -24q8 -11 19 -11zM285 269q-17 14 -62 40l-78 48q-32 19 -47 28h-6q-14 0 -34 -11l-4 -3q8 -3 31 -15l22 -10q6 -4 23 -13l25 -12l91 -47q22 -11 40 -19l3 6q0 4 -4 8zM308 237
l-23 -40q-10 -19 -20 -33q-8 -11 -20 -22l13 -13q13 -8 33 -11l46 -8q6 0 20 -2q8 -1 18 -1q43 0 73 26q7 8 13 24q4 12 6 22q3 11 2 18v6q-2 18 -7 30q-11 21 -29 37q-13 13 -33 22l-37 17v1l35 44q19 23 34 49q1 2 6 7q4 4 4 3l46 -38q17 -12 45 -25l-1 -1
q-18 -22 -32 -22q-20 0 -61 31l-4 -7q-8 -12 -14 -20l28 -18q16 -10 28 -24q25 -26 28 -72l1 -6v-8q0 -58 -41 -100q-18 -20 -43 -26t-68 -6q-45 0 -80 8q-15 4 -24 8q-7 4 -29 18q-25 16 -23 23l2 3q10 11 29 38q17 22 32 47q-8 9 -20 14l-26 12l-47 19q-10 4 -29 14
l-12 -12q-15 -16 -27 -31q-16 -20 -18 -36q10 8 17 11q8 6 16 6q19 -2 31 -23q5 -7 7 -13t2 -14l-1 -9v-4l-1 -7q-2 -23 -4 -31v0q-1 -1 -3 -4q-8 -9 -9 -11q0 -1 -1 -2q-17 -18 -30 -21q-13 0 -23 7q-13 7 -19 16l-9 16q-4 6 -7 19q-1 7 -1 18v30l-1 9q1 20 22 49
q15 22 42 52q-9 6 -31 18l-90 49v1q31 40 69 57q27 15 50 15q13 -5 56 -31l164 -104q4 -2 4 -8q0 -8 -7 -22zM349 422q0 -27 -17 -46q-22 -24 -47 -24q-24 0 -38.5 16.5t-14.5 43.5t15 45q23 26 48 26q24 0 39 -17t15 -44zM266 422q0 -16 10 -26q7 -9 21 -9q8 0 14 4
q5 8 5 21q0 14 -8.5 23.5t-20.5 9.5q-9 0 -16 -5q-5 -7 -5 -18z" />
    <glyph glyph-name="sosuathai.alt5" unicode="&#xe2a;&#xe37;" horiz-adv-x="560" 
d="M198 363l57 122q0 1 6 6q4 5 4 4q30 -18 -33 -135l-6 -6q-4 -5 -4 -4zM112 116q3 0 5 1q3 7 5 20v4q2 9 -3 18q-4 9 -12 14q-9 0 -16 -4q-5 -8 -5 -18q0 -14 7 -24q8 -11 19 -11zM291 273q-18 14 -64 40l-79 49q-33 19 -48 28l-6 1q-15 0 -35 -11l-4 -3q8 -4 31 -16
l23 -10q5 -4 23 -13l118 -60q23 -12 41 -19l4 6q0 4 -4 8zM314 240l-24 -41q-11 -20 -20 -33q-8 -11 -20 -23l13 -13q13 -8 34 -11l46 -9q6 0 20 -2q10 -1 19 -1q23 0 43.5 8.5t31.5 18.5q5 6 13 25q3 12 5 22q3 12 2 19v5q-1 20 -7 32q-10 20 -29 37q-13 13 -34 22l-38 17
v1l36 45h1q19 23 33 50q0 1 6 6q4 5 4 4l48 -38q17 -14 46 -26l-0.5 -0.5t-1.5 -2.5q-19 -20 -32 -20q-19 0 -62 31l-4 -7q-3 -4 -7.5 -11t-6.5 -10l28 -17q16 -11 28 -26q26 -26 30 -73v-13q0 -60 -41 -103l-2 -2q-18 -19 -43 -24.5t-68 -5.5q-46 0 -82 8q-15 5 -24 9
q-8 3 -30 17q-25 16 -24 24l2 3q12 12 31 38q17 23 32 48q-8 10 -21 15l-25 12l-49 20q-9 4 -29 13l-1 -1q-6 -6 -11 -10q-17 -18 -28 -31q-16 -23 -19 -37q10 8 18 11q8 5 16 5q20 -3 32 -24q4 -7 7 -12q2 -7 2 -14l-1 -10v-4l-1 -7q-2 -23 -5 -31l1 1q0 -2 -5 -6
q-4 -6 -7 -10l-2 -2q-17 -19 -30 -22q-13 0 -24 8q-13 7 -18 15l-10 16q-4 7 -7 20q-2 7 -2 19v40q1 19 22 49q15 22 42 53q-9 6 -31 19l-91 48q31 42 70 61q28 13 51 13q9 -3 30 -15l52 -30l57 -36q4 7 9 18l27 58q9 24 17 32t9 7q8 -4 8 -18q0 -19 -12 -46l-18 -49
q-10 -23 -8 -24l53 -33q4 -2 4 -8q0 -8 -7 -23z" />
    <glyph glyph-name="saraethai.tmp1" unicode="&#xe3a;&#xe40;" horiz-adv-x="457" 
d="M10 177l438 232v-35l-438 -242v45zM420 173q0 -84 -90 -97v-67h-23v65h-12q-25 0 -57 7v328q39 10 64 10h5v55h23v-56q78 -12 78 -85q0 -54 -45 -76q22 -9 38 -29q19 -24 19 -55zM395 172q0 36 -27 55q-24 16 -62 16h-41v-140q13 -4 36 -4q38 0 63 16q31 19 31 57z
M382 332q0 33 -26 49q-22 13 -54 13q-14 0 -37 -6v-118h49q32 0 50 18t18 44zM116 403h3q23 0 49 -65v-4l-13 -20h-2q-12 37 -34 54q-19 0 -57 -114q-2 -6 -2 -12v-3q0 -38 22 -74q12 18 24 18h14q10 0 29 -25q5 -8 8 -24q-7 -50 -32 -50h-9q-44 0 -67 86q-15 40 -15 72
q4 48 46 125q24 36 36 36zM96 146v-8q0 -17 22 -27h4q11 0 13 16q-3 30 -18 30h-4q-11 0 -17 -11z" />
    <glyph glyph-name="saraothai.tmp1" unicode="&#xe3a;&#xe42;" horiz-adv-x="455" 
d="M10 177l438 232v-35l-438 -242v45zM420 173q0 -84 -90 -97v-67h-23v65h-12q-25 0 -57 7v328q39 10 64 10h5v55h23v-56q78 -12 78 -85q0 -54 -45 -76q22 -9 38 -29q19 -24 19 -55zM395 172q0 36 -27 55q-24 16 -62 16h-41v-140q13 -4 36 -4q38 0 63 16q31 19 31 57z
M382 332q0 33 -26 49q-22 13 -54 13q-14 0 -37 -6v-118h49q32 0 50 18t18 44zM-35 681h15q28 0 82 -42l118 -86v-4l-25 -7q-14 0 -94 59q-69 53 -96 53h-13l-15 -5v-2q103 -76 227 -197q36 -32 44 -47q-6 -27 -8 -27h-2l-42 37q-20 -11 -43 -67q-30 -68 -30 -85
q0 -37 25 -90q18 21 33 21h13q20 0 39 -42q0 -1 5 -12q-8 -62 -39 -62h-11q-40 0 -59 54q-36 84 -36 135q10 69 77 177q-126 106 -234 210q23 29 69 29zM118 143q10 -35 28 -35h6q11 0 12 15v9q0 26 -21 29h-2q-18 0 -23 -18z" />
    <glyph glyph-name="roruathai.tmp1" unicode="&#xe3a;&#xe40;&#xe23;" horiz-adv-x="408" 
d="M10 177l438 232v-35l-438 -242v45zM319 237h3q24 0 49 -66v-3l-13 -21h-1q-13 38 -35 55q-18 0 -57 -115q-2 -5 -2 -11v-3q0 -39 23 -75q11 19 23 19h14q10 0 30 -25q4 -9 7 -24q-7 -50 -32 -50h-9q-43 0 -67 86q-14 40 -14 72q4 48 46 125q24 36 35 36zM300 -21v-7
q0 -18 22 -27h4q10 0 13 16q-4 29 -18 29h-5q-11 0 -16 -11zM202 299v-193l-10 -13q-9 -13 -19 -13q-22 0 -38 12q-12 8 -16 18l-1 7q-1 2 -2 10v9v14q1 6 5 13q13 27 54 27v88l-143 47l84 85l94 -37l57 37v-30l-54 -41q-3 0 -23 7q-7 3 -42 16l-27 11l-38 -34zM173 158h-5
q-9 0 -18 -4q-9 -7 -10 -16q0 -10 7 -18q8 -7 18 -7h5l3 1v44z" />
    <glyph glyph-name="roruathai.tmp2" unicode="&#xe3a;&#xe42;&#xe23;" horiz-adv-x="426" 
d="M10 177l438 232v-35l-438 -242v45zM139 576h16q28 0 81 -42l118 -86v-4l-24 -7q-15 0 -95 59q-69 53 -96 53h-13l-15 -5v-2q103 -76 228 -197q35 -31 43 -47q-5 -27 -8 -27h-2l-42 37q-20 -10 -43 -66q-29 -68 -29 -86q0 -37 24 -90q18 21 33 21h13q20 0 40 -41
q0 -2 4 -13q-8 -62 -39 -62h-10q-41 0 -60 54q-35 84 -35 135q9 69 76 177q-126 106 -234 210q23 29 69 29zM293 38q9 -35 28 -35h5q11 0 13 15v9q0 26 -22 29h-2q-17 0 -22 -18zM202 299v-193l-10 -13q-9 -13 -19 -13q-22 0 -38 12q-12 8 -16 18l-1 7q-1 2 -2 10v9v14
q1 6 5 13q13 27 54 27v88l-143 47l84 85l94 -37l57 37v-30l-54 -41q-3 0 -23 7q-7 3 -42 16l-27 11l-38 -34zM173 158h-5q-9 0 -18 -4q-9 -7 -10 -16q0 -10 7 -18q8 -7 18 -7h5l3 1v44z" />
    <glyph glyph-name=".notdef" horiz-adv-x="275" 
d="M16 406v-390h242v390h-242zM274 0h-274v423h274v-423z" />
    <glyph glyph-name=".null" horiz-adv-x="1000" 
 />
    <glyph glyph-name="nonmarkingreturn" horiz-adv-x="1000" 
 />
    <glyph glyph-name="space" unicode=" " horiz-adv-x="360" 
 />
    <glyph glyph-name="exclam" unicode="!" 
d="M218 368q0 -8 -5.5 -13.5t-13.5 -5.5t-13.5 5.5t-5.5 13.5t5.5 13.5t13.5 5.5t13.5 -5.5t5.5 -13.5zM218 41q0 -8 -5.5 -13.5t-13.5 -5.5t-13.5 5.5t-5.5 13.5t5.5 13.5t13.5 5.5t13.5 -5.5t5.5 -13.5zM54 205q0 -8 -5.5 -13t-13.5 -5t-13 5t-5 13t5 13.5t13 5.5
t13.5 -5.5t5.5 -13.5zM382 205q0 -8 -5.5 -13t-13.5 -5t-13 5t-5 13t5 13.5t13 5.5t13.5 -5.5t5.5 -13.5zM67 266q0 -8 -5.5 -13t-13.5 -5t-13 5t-5 13t5 13.5t13 5.5t13.5 -5.5t5.5 -13.5zM102 321q0 -8 -5.5 -13t-13.5 -5t-13 5t-5 13t5 13.5t13 5.5t13.5 -5.5t5.5 -13.5z
M155 356q0 -8 -5.5 -13t-13.5 -5t-13 5t-5 13t5 13.5t13 5.5t13.5 -5.5t5.5 -13.5zM368 266q0 -8 -5 -13t-13 -5t-13.5 5t-5.5 13t5.5 13.5t13.5 5.5t13 -5.5t5 -13.5zM333 321q0 -8 -5 -13t-13 -5t-13.5 5t-5.5 13t5.5 13.5t13.5 5.5t13 -5.5t5 -13.5zM280 356q0 -8 -5 -13
t-13 -5t-13.5 5t-5.5 13t5.5 13.5t13.5 5.5t13 -5.5t5 -13.5zM67 143q0 -8 -5.5 -13.5t-13.5 -5.5t-13 5.5t-5 13.5t5 13t13 5t13.5 -5t5.5 -13zM102 88q0 -8 -5.5 -13.5t-13.5 -5.5t-13 5.5t-5 13.5t5 13t13 5t13.5 -5t5.5 -13zM155 53q0 -8 -5.5 -13.5t-13.5 -5.5t-13 5.5
t-5 13.5t5 13t13 5t13.5 -5t5.5 -13zM369 143q0 -8 -5 -13.5t-13 -5.5t-13.5 5.5t-5.5 13.5t5.5 13t13.5 5t13 -5t5 -13zM334 88q0 -8 -5 -13.5t-13 -5.5t-13.5 5.5t-5.5 13.5t5.5 13t13.5 5t13 -5t5 -13zM281 53q0 -8 -5 -13.5t-13 -5.5t-13.5 5.5t-5.5 13.5t5.5 13t13.5 5
t13 -5t5 -13z" />
    <glyph glyph-name="quotedbl" unicode="&#x22;" 
d="M218 368q0 -8 -5.5 -13.5t-13.5 -5.5t-13.5 5.5t-5.5 13.5t5.5 13.5t13.5 5.5t13.5 -5.5t5.5 -13.5zM218 41q0 -8 -5.5 -13.5t-13.5 -5.5t-13.5 5.5t-5.5 13.5t5.5 13.5t13.5 5.5t13.5 -5.5t5.5 -13.5zM54 205q0 -8 -5.5 -13t-13.5 -5t-13 5t-5 13t5 13.5t13 5.5
t13.5 -5.5t5.5 -13.5zM382 205q0 -8 -5.5 -13t-13.5 -5t-13 5t-5 13t5 13.5t13 5.5t13.5 -5.5t5.5 -13.5zM67 266q0 -8 -5.5 -13t-13.5 -5t-13 5t-5 13t5 13.5t13 5.5t13.5 -5.5t5.5 -13.5zM102 321q0 -8 -5.5 -13t-13.5 -5t-13 5t-5 13t5 13.5t13 5.5t13.5 -5.5t5.5 -13.5z
M155 356q0 -8 -5.5 -13t-13.5 -5t-13 5t-5 13t5 13.5t13 5.5t13.5 -5.5t5.5 -13.5zM368 266q0 -8 -5 -13t-13 -5t-13.5 5t-5.5 13t5.5 13.5t13.5 5.5t13 -5.5t5 -13.5zM333 321q0 -8 -5 -13t-13 -5t-13.5 5t-5.5 13t5.5 13.5t13.5 5.5t13 -5.5t5 -13.5zM280 356q0 -8 -5 -13
t-13 -5t-13.5 5t-5.5 13t5.5 13.5t13.5 5.5t13 -5.5t5 -13.5zM67 143q0 -8 -5.5 -13.5t-13.5 -5.5t-13 5.5t-5 13.5t5 13t13 5t13.5 -5t5.5 -13zM102 88q0 -8 -5.5 -13.5t-13.5 -5.5t-13 5.5t-5 13.5t5 13t13 5t13.5 -5t5.5 -13zM155 53q0 -8 -5.5 -13.5t-13.5 -5.5t-13 5.5
t-5 13.5t5 13t13 5t13.5 -5t5.5 -13zM369 143q0 -8 -5 -13.5t-13 -5.5t-13.5 5.5t-5.5 13.5t5.5 13t13.5 5t13 -5t5 -13zM334 88q0 -8 -5 -13.5t-13 -5.5t-13.5 5.5t-5.5 13.5t5.5 13t13.5 5t13 -5t5 -13zM281 53q0 -8 -5 -13.5t-13 -5.5t-13.5 5.5t-5.5 13.5t5.5 13t13.5 5
t13 -5t5 -13z" />
    <glyph glyph-name="numbersign" unicode="#" 
d="M218 368q0 -8 -5.5 -13.5t-13.5 -5.5t-13.5 5.5t-5.5 13.5t5.5 13.5t13.5 5.5t13.5 -5.5t5.5 -13.5zM218 41q0 -8 -5.5 -13.5t-13.5 -5.5t-13.5 5.5t-5.5 13.5t5.5 13.5t13.5 5.5t13.5 -5.5t5.5 -13.5zM54 205q0 -8 -5.5 -13t-13.5 -5t-13 5t-5 13t5 13.5t13 5.5
t13.5 -5.5t5.5 -13.5zM382 205q0 -8 -5.5 -13t-13.5 -5t-13 5t-5 13t5 13.5t13 5.5t13.5 -5.5t5.5 -13.5zM67 266q0 -8 -5.5 -13t-13.5 -5t-13 5t-5 13t5 13.5t13 5.5t13.5 -5.5t5.5 -13.5zM102 321q0 -8 -5.5 -13t-13.5 -5t-13 5t-5 13t5 13.5t13 5.5t13.5 -5.5t5.5 -13.5z
M155 356q0 -8 -5.5 -13t-13.5 -5t-13 5t-5 13t5 13.5t13 5.5t13.5 -5.5t5.5 -13.5zM368 266q0 -8 -5 -13t-13 -5t-13.5 5t-5.5 13t5.5 13.5t13.5 5.5t13 -5.5t5 -13.5zM333 321q0 -8 -5 -13t-13 -5t-13.5 5t-5.5 13t5.5 13.5t13.5 5.5t13 -5.5t5 -13.5zM280 356q0 -8 -5 -13
t-13 -5t-13.5 5t-5.5 13t5.5 13.5t13.5 5.5t13 -5.5t5 -13.5zM67 143q0 -8 -5.5 -13.5t-13.5 -5.5t-13 5.5t-5 13.5t5 13t13 5t13.5 -5t5.5 -13zM102 88q0 -8 -5.5 -13.5t-13.5 -5.5t-13 5.5t-5 13.5t5 13t13 5t13.5 -5t5.5 -13zM155 53q0 -8 -5.5 -13.5t-13.5 -5.5t-13 5.5
t-5 13.5t5 13t13 5t13.5 -5t5.5 -13zM369 143q0 -8 -5 -13.5t-13 -5.5t-13.5 5.5t-5.5 13.5t5.5 13t13.5 5t13 -5t5 -13zM334 88q0 -8 -5 -13.5t-13 -5.5t-13.5 5.5t-5.5 13.5t5.5 13t13.5 5t13 -5t5 -13zM281 53q0 -8 -5 -13.5t-13 -5.5t-13.5 5.5t-5.5 13.5t5.5 13t13.5 5
t13 -5t5 -13z" />
    <glyph glyph-name="dollar" unicode="$" 
d="M218 368q0 -8 -5.5 -13.5t-13.5 -5.5t-13.5 5.5t-5.5 13.5t5.5 13.5t13.5 5.5t13.5 -5.5t5.5 -13.5zM218 41q0 -8 -5.5 -13.5t-13.5 -5.5t-13.5 5.5t-5.5 13.5t5.5 13.5t13.5 5.5t13.5 -5.5t5.5 -13.5zM54 205q0 -8 -5.5 -13t-13.5 -5t-13 5t-5 13t5 13.5t13 5.5
t13.5 -5.5t5.5 -13.5zM382 205q0 -8 -5.5 -13t-13.5 -5t-13 5t-5 13t5 13.5t13 5.5t13.5 -5.5t5.5 -13.5zM67 266q0 -8 -5.5 -13t-13.5 -5t-13 5t-5 13t5 13.5t13 5.5t13.5 -5.5t5.5 -13.5zM102 321q0 -8 -5.5 -13t-13.5 -5t-13 5t-5 13t5 13.5t13 5.5t13.5 -5.5t5.5 -13.5z
M155 356q0 -8 -5.5 -13t-13.5 -5t-13 5t-5 13t5 13.5t13 5.5t13.5 -5.5t5.5 -13.5zM368 266q0 -8 -5 -13t-13 -5t-13.5 5t-5.5 13t5.5 13.5t13.5 5.5t13 -5.5t5 -13.5zM333 321q0 -8 -5 -13t-13 -5t-13.5 5t-5.5 13t5.5 13.5t13.5 5.5t13 -5.5t5 -13.5zM280 356q0 -8 -5 -13
t-13 -5t-13.5 5t-5.5 13t5.5 13.5t13.5 5.5t13 -5.5t5 -13.5zM67 143q0 -8 -5.5 -13.5t-13.5 -5.5t-13 5.5t-5 13.5t5 13t13 5t13.5 -5t5.5 -13zM102 88q0 -8 -5.5 -13.5t-13.5 -5.5t-13 5.5t-5 13.5t5 13t13 5t13.5 -5t5.5 -13zM155 53q0 -8 -5.5 -13.5t-13.5 -5.5t-13 5.5
t-5 13.5t5 13t13 5t13.5 -5t5.5 -13zM369 143q0 -8 -5 -13.5t-13 -5.5t-13.5 5.5t-5.5 13.5t5.5 13t13.5 5t13 -5t5 -13zM334 88q0 -8 -5 -13.5t-13 -5.5t-13.5 5.5t-5.5 13.5t5.5 13t13.5 5t13 -5t5 -13zM281 53q0 -8 -5 -13.5t-13 -5.5t-13.5 5.5t-5.5 13.5t5.5 13t13.5 5
t13 -5t5 -13z" />
    <glyph glyph-name="percent" unicode="%" 
d="M218 368q0 -8 -5.5 -13.5t-13.5 -5.5t-13.5 5.5t-5.5 13.5t5.5 13.5t13.5 5.5t13.5 -5.5t5.5 -13.5zM218 41q0 -8 -5.5 -13.5t-13.5 -5.5t-13.5 5.5t-5.5 13.5t5.5 13.5t13.5 5.5t13.5 -5.5t5.5 -13.5zM54 205q0 -8 -5.5 -13t-13.5 -5t-13 5t-5 13t5 13.5t13 5.5
t13.5 -5.5t5.5 -13.5zM382 205q0 -8 -5.5 -13t-13.5 -5t-13 5t-5 13t5 13.5t13 5.5t13.5 -5.5t5.5 -13.5zM67 266q0 -8 -5.5 -13t-13.5 -5t-13 5t-5 13t5 13.5t13 5.5t13.5 -5.5t5.5 -13.5zM102 321q0 -8 -5.5 -13t-13.5 -5t-13 5t-5 13t5 13.5t13 5.5t13.5 -5.5t5.5 -13.5z
M155 356q0 -8 -5.5 -13t-13.5 -5t-13 5t-5 13t5 13.5t13 5.5t13.5 -5.5t5.5 -13.5zM368 266q0 -8 -5 -13t-13 -5t-13.5 5t-5.5 13t5.5 13.5t13.5 5.5t13 -5.5t5 -13.5zM333 321q0 -8 -5 -13t-13 -5t-13.5 5t-5.5 13t5.5 13.5t13.5 5.5t13 -5.5t5 -13.5zM280 356q0 -8 -5 -13
t-13 -5t-13.5 5t-5.5 13t5.5 13.5t13.5 5.5t13 -5.5t5 -13.5zM67 143q0 -8 -5.5 -13.5t-13.5 -5.5t-13 5.5t-5 13.5t5 13t13 5t13.5 -5t5.5 -13zM102 88q0 -8 -5.5 -13.5t-13.5 -5.5t-13 5.5t-5 13.5t5 13t13 5t13.5 -5t5.5 -13zM155 53q0 -8 -5.5 -13.5t-13.5 -5.5t-13 5.5
t-5 13.5t5 13t13 5t13.5 -5t5.5 -13zM369 143q0 -8 -5 -13.5t-13 -5.5t-13.5 5.5t-5.5 13.5t5.5 13t13.5 5t13 -5t5 -13zM334 88q0 -8 -5 -13.5t-13 -5.5t-13.5 5.5t-5.5 13.5t5.5 13t13.5 5t13 -5t5 -13zM281 53q0 -8 -5 -13.5t-13 -5.5t-13.5 5.5t-5.5 13.5t5.5 13t13.5 5
t13 -5t5 -13z" />
    <glyph glyph-name="ampersand" unicode="&#x26;" 
d="M218 368q0 -8 -5.5 -13.5t-13.5 -5.5t-13.5 5.5t-5.5 13.5t5.5 13.5t13.5 5.5t13.5 -5.5t5.5 -13.5zM218 41q0 -8 -5.5 -13.5t-13.5 -5.5t-13.5 5.5t-5.5 13.5t5.5 13.5t13.5 5.5t13.5 -5.5t5.5 -13.5zM54 205q0 -8 -5.5 -13t-13.5 -5t-13 5t-5 13t5 13.5t13 5.5
t13.5 -5.5t5.5 -13.5zM382 205q0 -8 -5.5 -13t-13.5 -5t-13 5t-5 13t5 13.5t13 5.5t13.5 -5.5t5.5 -13.5zM67 266q0 -8 -5.5 -13t-13.5 -5t-13 5t-5 13t5 13.5t13 5.5t13.5 -5.5t5.5 -13.5zM102 321q0 -8 -5.5 -13t-13.5 -5t-13 5t-5 13t5 13.5t13 5.5t13.5 -5.5t5.5 -13.5z
M155 356q0 -8 -5.5 -13t-13.5 -5t-13 5t-5 13t5 13.5t13 5.5t13.5 -5.5t5.5 -13.5zM368 266q0 -8 -5 -13t-13 -5t-13.5 5t-5.5 13t5.5 13.5t13.5 5.5t13 -5.5t5 -13.5zM333 321q0 -8 -5 -13t-13 -5t-13.5 5t-5.5 13t5.5 13.5t13.5 5.5t13 -5.5t5 -13.5zM280 356q0 -8 -5 -13
t-13 -5t-13.5 5t-5.5 13t5.5 13.5t13.5 5.5t13 -5.5t5 -13.5zM67 143q0 -8 -5.5 -13.5t-13.5 -5.5t-13 5.5t-5 13.5t5 13t13 5t13.5 -5t5.5 -13zM102 88q0 -8 -5.5 -13.5t-13.5 -5.5t-13 5.5t-5 13.5t5 13t13 5t13.5 -5t5.5 -13zM155 53q0 -8 -5.5 -13.5t-13.5 -5.5t-13 5.5
t-5 13.5t5 13t13 5t13.5 -5t5.5 -13zM369 143q0 -8 -5 -13.5t-13 -5.5t-13.5 5.5t-5.5 13.5t5.5 13t13.5 5t13 -5t5 -13zM334 88q0 -8 -5 -13.5t-13 -5.5t-13.5 5.5t-5.5 13.5t5.5 13t13.5 5t13 -5t5 -13zM281 53q0 -8 -5 -13.5t-13 -5.5t-13.5 5.5t-5.5 13.5t5.5 13t13.5 5
t13 -5t5 -13z" />
    <glyph glyph-name="quotesingle" unicode="'" 
d="M218 368q0 -8 -5.5 -13.5t-13.5 -5.5t-13.5 5.5t-5.5 13.5t5.5 13.5t13.5 5.5t13.5 -5.5t5.5 -13.5zM218 41q0 -8 -5.5 -13.5t-13.5 -5.5t-13.5 5.5t-5.5 13.5t5.5 13.5t13.5 5.5t13.5 -5.5t5.5 -13.5zM54 205q0 -8 -5.5 -13t-13.5 -5t-13 5t-5 13t5 13.5t13 5.5
t13.5 -5.5t5.5 -13.5zM382 205q0 -8 -5.5 -13t-13.5 -5t-13 5t-5 13t5 13.5t13 5.5t13.5 -5.5t5.5 -13.5zM67 266q0 -8 -5.5 -13t-13.5 -5t-13 5t-5 13t5 13.5t13 5.5t13.5 -5.5t5.5 -13.5zM102 321q0 -8 -5.5 -13t-13.5 -5t-13 5t-5 13t5 13.5t13 5.5t13.5 -5.5t5.5 -13.5z
M155 356q0 -8 -5.5 -13t-13.5 -5t-13 5t-5 13t5 13.5t13 5.5t13.5 -5.5t5.5 -13.5zM368 266q0 -8 -5 -13t-13 -5t-13.5 5t-5.5 13t5.5 13.5t13.5 5.5t13 -5.5t5 -13.5zM333 321q0 -8 -5 -13t-13 -5t-13.5 5t-5.5 13t5.5 13.5t13.5 5.5t13 -5.5t5 -13.5zM280 356q0 -8 -5 -13
t-13 -5t-13.5 5t-5.5 13t5.5 13.5t13.5 5.5t13 -5.5t5 -13.5zM67 143q0 -8 -5.5 -13.5t-13.5 -5.5t-13 5.5t-5 13.5t5 13t13 5t13.5 -5t5.5 -13zM102 88q0 -8 -5.5 -13.5t-13.5 -5.5t-13 5.5t-5 13.5t5 13t13 5t13.5 -5t5.5 -13zM155 53q0 -8 -5.5 -13.5t-13.5 -5.5t-13 5.5
t-5 13.5t5 13t13 5t13.5 -5t5.5 -13zM369 143q0 -8 -5 -13.5t-13 -5.5t-13.5 5.5t-5.5 13.5t5.5 13t13.5 5t13 -5t5 -13zM334 88q0 -8 -5 -13.5t-13 -5.5t-13.5 5.5t-5.5 13.5t5.5 13t13.5 5t13 -5t5 -13zM281 53q0 -8 -5 -13.5t-13 -5.5t-13.5 5.5t-5.5 13.5t5.5 13t13.5 5
t13 -5t5 -13z" />
    <glyph glyph-name="parenleft" unicode="(" 
d="M218 368q0 -8 -5.5 -13.5t-13.5 -5.5t-13.5 5.5t-5.5 13.5t5.5 13.5t13.5 5.5t13.5 -5.5t5.5 -13.5zM218 41q0 -8 -5.5 -13.5t-13.5 -5.5t-13.5 5.5t-5.5 13.5t5.5 13.5t13.5 5.5t13.5 -5.5t5.5 -13.5zM54 205q0 -8 -5.5 -13t-13.5 -5t-13 5t-5 13t5 13.5t13 5.5
t13.5 -5.5t5.5 -13.5zM382 205q0 -8 -5.5 -13t-13.5 -5t-13 5t-5 13t5 13.5t13 5.5t13.5 -5.5t5.5 -13.5zM67 266q0 -8 -5.5 -13t-13.5 -5t-13 5t-5 13t5 13.5t13 5.5t13.5 -5.5t5.5 -13.5zM102 321q0 -8 -5.5 -13t-13.5 -5t-13 5t-5 13t5 13.5t13 5.5t13.5 -5.5t5.5 -13.5z
M155 356q0 -8 -5.5 -13t-13.5 -5t-13 5t-5 13t5 13.5t13 5.5t13.5 -5.5t5.5 -13.5zM368 266q0 -8 -5 -13t-13 -5t-13.5 5t-5.5 13t5.5 13.5t13.5 5.5t13 -5.5t5 -13.5zM333 321q0 -8 -5 -13t-13 -5t-13.5 5t-5.5 13t5.5 13.5t13.5 5.5t13 -5.5t5 -13.5zM280 356q0 -8 -5 -13
t-13 -5t-13.5 5t-5.5 13t5.5 13.5t13.5 5.5t13 -5.5t5 -13.5zM67 143q0 -8 -5.5 -13.5t-13.5 -5.5t-13 5.5t-5 13.5t5 13t13 5t13.5 -5t5.5 -13zM102 88q0 -8 -5.5 -13.5t-13.5 -5.5t-13 5.5t-5 13.5t5 13t13 5t13.5 -5t5.5 -13zM155 53q0 -8 -5.5 -13.5t-13.5 -5.5t-13 5.5
t-5 13.5t5 13t13 5t13.5 -5t5.5 -13zM369 143q0 -8 -5 -13.5t-13 -5.5t-13.5 5.5t-5.5 13.5t5.5 13t13.5 5t13 -5t5 -13zM334 88q0 -8 -5 -13.5t-13 -5.5t-13.5 5.5t-5.5 13.5t5.5 13t13.5 5t13 -5t5 -13zM281 53q0 -8 -5 -13.5t-13 -5.5t-13.5 5.5t-5.5 13.5t5.5 13t13.5 5
t13 -5t5 -13z" />
    <glyph glyph-name="parenright" unicode=")" 
d="M218 368q0 -8 -5.5 -13.5t-13.5 -5.5t-13.5 5.5t-5.5 13.5t5.5 13.5t13.5 5.5t13.5 -5.5t5.5 -13.5zM218 41q0 -8 -5.5 -13.5t-13.5 -5.5t-13.5 5.5t-5.5 13.5t5.5 13.5t13.5 5.5t13.5 -5.5t5.5 -13.5zM54 205q0 -8 -5.5 -13t-13.5 -5t-13 5t-5 13t5 13.5t13 5.5
t13.5 -5.5t5.5 -13.5zM382 205q0 -8 -5.5 -13t-13.5 -5t-13 5t-5 13t5 13.5t13 5.5t13.5 -5.5t5.5 -13.5zM67 266q0 -8 -5.5 -13t-13.5 -5t-13 5t-5 13t5 13.5t13 5.5t13.5 -5.5t5.5 -13.5zM102 321q0 -8 -5.5 -13t-13.5 -5t-13 5t-5 13t5 13.5t13 5.5t13.5 -5.5t5.5 -13.5z
M155 356q0 -8 -5.5 -13t-13.5 -5t-13 5t-5 13t5 13.5t13 5.5t13.5 -5.5t5.5 -13.5zM368 266q0 -8 -5 -13t-13 -5t-13.5 5t-5.5 13t5.5 13.5t13.5 5.5t13 -5.5t5 -13.5zM333 321q0 -8 -5 -13t-13 -5t-13.5 5t-5.5 13t5.5 13.5t13.5 5.5t13 -5.5t5 -13.5zM280 356q0 -8 -5 -13
t-13 -5t-13.5 5t-5.5 13t5.5 13.5t13.5 5.5t13 -5.5t5 -13.5zM67 143q0 -8 -5.5 -13.5t-13.5 -5.5t-13 5.5t-5 13.5t5 13t13 5t13.5 -5t5.5 -13zM102 88q0 -8 -5.5 -13.5t-13.5 -5.5t-13 5.5t-5 13.5t5 13t13 5t13.5 -5t5.5 -13zM155 53q0 -8 -5.5 -13.5t-13.5 -5.5t-13 5.5
t-5 13.5t5 13t13 5t13.5 -5t5.5 -13zM369 143q0 -8 -5 -13.5t-13 -5.5t-13.5 5.5t-5.5 13.5t5.5 13t13.5 5t13 -5t5 -13zM334 88q0 -8 -5 -13.5t-13 -5.5t-13.5 5.5t-5.5 13.5t5.5 13t13.5 5t13 -5t5 -13zM281 53q0 -8 -5 -13.5t-13 -5.5t-13.5 5.5t-5.5 13.5t5.5 13t13.5 5
t13 -5t5 -13z" />
    <glyph glyph-name="asterisk" unicode="*" 
d="M218 368q0 -8 -5.5 -13.5t-13.5 -5.5t-13.5 5.5t-5.5 13.5t5.5 13.5t13.5 5.5t13.5 -5.5t5.5 -13.5zM218 41q0 -8 -5.5 -13.5t-13.5 -5.5t-13.5 5.5t-5.5 13.5t5.5 13.5t13.5 5.5t13.5 -5.5t5.5 -13.5zM54 205q0 -8 -5.5 -13t-13.5 -5t-13 5t-5 13t5 13.5t13 5.5
t13.5 -5.5t5.5 -13.5zM382 205q0 -8 -5.5 -13t-13.5 -5t-13 5t-5 13t5 13.5t13 5.5t13.5 -5.5t5.5 -13.5zM67 266q0 -8 -5.5 -13t-13.5 -5t-13 5t-5 13t5 13.5t13 5.5t13.5 -5.5t5.5 -13.5zM102 321q0 -8 -5.5 -13t-13.5 -5t-13 5t-5 13t5 13.5t13 5.5t13.5 -5.5t5.5 -13.5z
M155 356q0 -8 -5.5 -13t-13.5 -5t-13 5t-5 13t5 13.5t13 5.5t13.5 -5.5t5.5 -13.5zM368 266q0 -8 -5 -13t-13 -5t-13.5 5t-5.5 13t5.5 13.5t13.5 5.5t13 -5.5t5 -13.5zM333 321q0 -8 -5 -13t-13 -5t-13.5 5t-5.5 13t5.5 13.5t13.5 5.5t13 -5.5t5 -13.5zM280 356q0 -8 -5 -13
t-13 -5t-13.5 5t-5.5 13t5.5 13.5t13.5 5.5t13 -5.5t5 -13.5zM67 143q0 -8 -5.5 -13.5t-13.5 -5.5t-13 5.5t-5 13.5t5 13t13 5t13.5 -5t5.5 -13zM102 88q0 -8 -5.5 -13.5t-13.5 -5.5t-13 5.5t-5 13.5t5 13t13 5t13.5 -5t5.5 -13zM155 53q0 -8 -5.5 -13.5t-13.5 -5.5t-13 5.5
t-5 13.5t5 13t13 5t13.5 -5t5.5 -13zM369 143q0 -8 -5 -13.5t-13 -5.5t-13.5 5.5t-5.5 13.5t5.5 13t13.5 5t13 -5t5 -13zM334 88q0 -8 -5 -13.5t-13 -5.5t-13.5 5.5t-5.5 13.5t5.5 13t13.5 5t13 -5t5 -13zM281 53q0 -8 -5 -13.5t-13 -5.5t-13.5 5.5t-5.5 13.5t5.5 13t13.5 5
t13 -5t5 -13z" />
    <glyph glyph-name="plus" unicode="+" 
d="M218 368q0 -8 -5.5 -13.5t-13.5 -5.5t-13.5 5.5t-5.5 13.5t5.5 13.5t13.5 5.5t13.5 -5.5t5.5 -13.5zM218 41q0 -8 -5.5 -13.5t-13.5 -5.5t-13.5 5.5t-5.5 13.5t5.5 13.5t13.5 5.5t13.5 -5.5t5.5 -13.5zM54 205q0 -8 -5.5 -13t-13.5 -5t-13 5t-5 13t5 13.5t13 5.5
t13.5 -5.5t5.5 -13.5zM382 205q0 -8 -5.5 -13t-13.5 -5t-13 5t-5 13t5 13.5t13 5.5t13.5 -5.5t5.5 -13.5zM67 266q0 -8 -5.5 -13t-13.5 -5t-13 5t-5 13t5 13.5t13 5.5t13.5 -5.5t5.5 -13.5zM102 321q0 -8 -5.5 -13t-13.5 -5t-13 5t-5 13t5 13.5t13 5.5t13.5 -5.5t5.5 -13.5z
M155 356q0 -8 -5.5 -13t-13.5 -5t-13 5t-5 13t5 13.5t13 5.5t13.5 -5.5t5.5 -13.5zM368 266q0 -8 -5 -13t-13 -5t-13.5 5t-5.5 13t5.5 13.5t13.5 5.5t13 -5.5t5 -13.5zM333 321q0 -8 -5 -13t-13 -5t-13.5 5t-5.5 13t5.5 13.5t13.5 5.5t13 -5.5t5 -13.5zM280 356q0 -8 -5 -13
t-13 -5t-13.5 5t-5.5 13t5.5 13.5t13.5 5.5t13 -5.5t5 -13.5zM67 143q0 -8 -5.5 -13.5t-13.5 -5.5t-13 5.5t-5 13.5t5 13t13 5t13.5 -5t5.5 -13zM102 88q0 -8 -5.5 -13.5t-13.5 -5.5t-13 5.5t-5 13.5t5 13t13 5t13.5 -5t5.5 -13zM155 53q0 -8 -5.5 -13.5t-13.5 -5.5t-13 5.5
t-5 13.5t5 13t13 5t13.5 -5t5.5 -13zM369 143q0 -8 -5 -13.5t-13 -5.5t-13.5 5.5t-5.5 13.5t5.5 13t13.5 5t13 -5t5 -13zM334 88q0 -8 -5 -13.5t-13 -5.5t-13.5 5.5t-5.5 13.5t5.5 13t13.5 5t13 -5t5 -13zM281 53q0 -8 -5 -13.5t-13 -5.5t-13.5 5.5t-5.5 13.5t5.5 13t13.5 5
t13 -5t5 -13z" />
    <glyph glyph-name="comma" unicode="," 
d="M218 368q0 -8 -5.5 -13.5t-13.5 -5.5t-13.5 5.5t-5.5 13.5t5.5 13.5t13.5 5.5t13.5 -5.5t5.5 -13.5zM218 41q0 -8 -5.5 -13.5t-13.5 -5.5t-13.5 5.5t-5.5 13.5t5.5 13.5t13.5 5.5t13.5 -5.5t5.5 -13.5zM54 205q0 -8 -5.5 -13t-13.5 -5t-13 5t-5 13t5 13.5t13 5.5
t13.5 -5.5t5.5 -13.5zM382 205q0 -8 -5.5 -13t-13.5 -5t-13 5t-5 13t5 13.5t13 5.5t13.5 -5.5t5.5 -13.5zM67 266q0 -8 -5.5 -13t-13.5 -5t-13 5t-5 13t5 13.5t13 5.5t13.5 -5.5t5.5 -13.5zM102 321q0 -8 -5.5 -13t-13.5 -5t-13 5t-5 13t5 13.5t13 5.5t13.5 -5.5t5.5 -13.5z
M155 356q0 -8 -5.5 -13t-13.5 -5t-13 5t-5 13t5 13.5t13 5.5t13.5 -5.5t5.5 -13.5zM368 266q0 -8 -5 -13t-13 -5t-13.5 5t-5.5 13t5.5 13.5t13.5 5.5t13 -5.5t5 -13.5zM333 321q0 -8 -5 -13t-13 -5t-13.5 5t-5.5 13t5.5 13.5t13.5 5.5t13 -5.5t5 -13.5zM280 356q0 -8 -5 -13
t-13 -5t-13.5 5t-5.5 13t5.5 13.5t13.5 5.5t13 -5.5t5 -13.5zM67 143q0 -8 -5.5 -13.5t-13.5 -5.5t-13 5.5t-5 13.5t5 13t13 5t13.5 -5t5.5 -13zM102 88q0 -8 -5.5 -13.5t-13.5 -5.5t-13 5.5t-5 13.5t5 13t13 5t13.5 -5t5.5 -13zM155 53q0 -8 -5.5 -13.5t-13.5 -5.5t-13 5.5
t-5 13.5t5 13t13 5t13.5 -5t5.5 -13zM369 143q0 -8 -5 -13.5t-13 -5.5t-13.5 5.5t-5.5 13.5t5.5 13t13.5 5t13 -5t5 -13zM334 88q0 -8 -5 -13.5t-13 -5.5t-13.5 5.5t-5.5 13.5t5.5 13t13.5 5t13 -5t5 -13zM281 53q0 -8 -5 -13.5t-13 -5.5t-13.5 5.5t-5.5 13.5t5.5 13t13.5 5
t13 -5t5 -13z" />
    <glyph glyph-name="hyphen" unicode="-" 
d="M218 368q0 -8 -5.5 -13.5t-13.5 -5.5t-13.5 5.5t-5.5 13.5t5.5 13.5t13.5 5.5t13.5 -5.5t5.5 -13.5zM218 41q0 -8 -5.5 -13.5t-13.5 -5.5t-13.5 5.5t-5.5 13.5t5.5 13.5t13.5 5.5t13.5 -5.5t5.5 -13.5zM54 205q0 -8 -5.5 -13t-13.5 -5t-13 5t-5 13t5 13.5t13 5.5
t13.5 -5.5t5.5 -13.5zM382 205q0 -8 -5.5 -13t-13.5 -5t-13 5t-5 13t5 13.5t13 5.5t13.5 -5.5t5.5 -13.5zM67 266q0 -8 -5.5 -13t-13.5 -5t-13 5t-5 13t5 13.5t13 5.5t13.5 -5.5t5.5 -13.5zM102 321q0 -8 -5.5 -13t-13.5 -5t-13 5t-5 13t5 13.5t13 5.5t13.5 -5.5t5.5 -13.5z
M155 356q0 -8 -5.5 -13t-13.5 -5t-13 5t-5 13t5 13.5t13 5.5t13.5 -5.5t5.5 -13.5zM368 266q0 -8 -5 -13t-13 -5t-13.5 5t-5.5 13t5.5 13.5t13.5 5.5t13 -5.5t5 -13.5zM333 321q0 -8 -5 -13t-13 -5t-13.5 5t-5.5 13t5.5 13.5t13.5 5.5t13 -5.5t5 -13.5zM280 356q0 -8 -5 -13
t-13 -5t-13.5 5t-5.5 13t5.5 13.5t13.5 5.5t13 -5.5t5 -13.5zM67 143q0 -8 -5.5 -13.5t-13.5 -5.5t-13 5.5t-5 13.5t5 13t13 5t13.5 -5t5.5 -13zM102 88q0 -8 -5.5 -13.5t-13.5 -5.5t-13 5.5t-5 13.5t5 13t13 5t13.5 -5t5.5 -13zM155 53q0 -8 -5.5 -13.5t-13.5 -5.5t-13 5.5
t-5 13.5t5 13t13 5t13.5 -5t5.5 -13zM369 143q0 -8 -5 -13.5t-13 -5.5t-13.5 5.5t-5.5 13.5t5.5 13t13.5 5t13 -5t5 -13zM334 88q0 -8 -5 -13.5t-13 -5.5t-13.5 5.5t-5.5 13.5t5.5 13t13.5 5t13 -5t5 -13zM281 53q0 -8 -5 -13.5t-13 -5.5t-13.5 5.5t-5.5 13.5t5.5 13t13.5 5
t13 -5t5 -13z" />
    <glyph glyph-name="period" unicode="." 
d="M218 368q0 -8 -5.5 -13.5t-13.5 -5.5t-13.5 5.5t-5.5 13.5t5.5 13.5t13.5 5.5t13.5 -5.5t5.5 -13.5zM218 41q0 -8 -5.5 -13.5t-13.5 -5.5t-13.5 5.5t-5.5 13.5t5.5 13.5t13.5 5.5t13.5 -5.5t5.5 -13.5zM54 205q0 -8 -5.5 -13t-13.5 -5t-13 5t-5 13t5 13.5t13 5.5
t13.5 -5.5t5.5 -13.5zM382 205q0 -8 -5.5 -13t-13.5 -5t-13 5t-5 13t5 13.5t13 5.5t13.5 -5.5t5.5 -13.5zM67 266q0 -8 -5.5 -13t-13.5 -5t-13 5t-5 13t5 13.5t13 5.5t13.5 -5.5t5.5 -13.5zM102 321q0 -8 -5.5 -13t-13.5 -5t-13 5t-5 13t5 13.5t13 5.5t13.5 -5.5t5.5 -13.5z
M155 356q0 -8 -5.5 -13t-13.5 -5t-13 5t-5 13t5 13.5t13 5.5t13.5 -5.5t5.5 -13.5zM368 266q0 -8 -5 -13t-13 -5t-13.5 5t-5.5 13t5.5 13.5t13.5 5.5t13 -5.5t5 -13.5zM333 321q0 -8 -5 -13t-13 -5t-13.5 5t-5.5 13t5.5 13.5t13.5 5.5t13 -5.5t5 -13.5zM280 356q0 -8 -5 -13
t-13 -5t-13.5 5t-5.5 13t5.5 13.5t13.5 5.5t13 -5.5t5 -13.5zM67 143q0 -8 -5.5 -13.5t-13.5 -5.5t-13 5.5t-5 13.5t5 13t13 5t13.5 -5t5.5 -13zM102 88q0 -8 -5.5 -13.5t-13.5 -5.5t-13 5.5t-5 13.5t5 13t13 5t13.5 -5t5.5 -13zM155 53q0 -8 -5.5 -13.5t-13.5 -5.5t-13 5.5
t-5 13.5t5 13t13 5t13.5 -5t5.5 -13zM369 143q0 -8 -5 -13.5t-13 -5.5t-13.5 5.5t-5.5 13.5t5.5 13t13.5 5t13 -5t5 -13zM334 88q0 -8 -5 -13.5t-13 -5.5t-13.5 5.5t-5.5 13.5t5.5 13t13.5 5t13 -5t5 -13zM281 53q0 -8 -5 -13.5t-13 -5.5t-13.5 5.5t-5.5 13.5t5.5 13t13.5 5
t13 -5t5 -13z" />
    <glyph glyph-name="slash" unicode="/" 
d="M218 368q0 -8 -5.5 -13.5t-13.5 -5.5t-13.5 5.5t-5.5 13.5t5.5 13.5t13.5 5.5t13.5 -5.5t5.5 -13.5zM218 41q0 -8 -5.5 -13.5t-13.5 -5.5t-13.5 5.5t-5.5 13.5t5.5 13.5t13.5 5.5t13.5 -5.5t5.5 -13.5zM54 205q0 -8 -5.5 -13t-13.5 -5t-13 5t-5 13t5 13.5t13 5.5
t13.5 -5.5t5.5 -13.5zM382 205q0 -8 -5.5 -13t-13.5 -5t-13 5t-5 13t5 13.5t13 5.5t13.5 -5.5t5.5 -13.5zM67 266q0 -8 -5.5 -13t-13.5 -5t-13 5t-5 13t5 13.5t13 5.5t13.5 -5.5t5.5 -13.5zM102 321q0 -8 -5.5 -13t-13.5 -5t-13 5t-5 13t5 13.5t13 5.5t13.5 -5.5t5.5 -13.5z
M155 356q0 -8 -5.5 -13t-13.5 -5t-13 5t-5 13t5 13.5t13 5.5t13.5 -5.5t5.5 -13.5zM368 266q0 -8 -5 -13t-13 -5t-13.5 5t-5.5 13t5.5 13.5t13.5 5.5t13 -5.5t5 -13.5zM333 321q0 -8 -5 -13t-13 -5t-13.5 5t-5.5 13t5.5 13.5t13.5 5.5t13 -5.5t5 -13.5zM280 356q0 -8 -5 -13
t-13 -5t-13.5 5t-5.5 13t5.5 13.5t13.5 5.5t13 -5.5t5 -13.5zM67 143q0 -8 -5.5 -13.5t-13.5 -5.5t-13 5.5t-5 13.5t5 13t13 5t13.5 -5t5.5 -13zM102 88q0 -8 -5.5 -13.5t-13.5 -5.5t-13 5.5t-5 13.5t5 13t13 5t13.5 -5t5.5 -13zM155 53q0 -8 -5.5 -13.5t-13.5 -5.5t-13 5.5
t-5 13.5t5 13t13 5t13.5 -5t5.5 -13zM369 143q0 -8 -5 -13.5t-13 -5.5t-13.5 5.5t-5.5 13.5t5.5 13t13.5 5t13 -5t5 -13zM334 88q0 -8 -5 -13.5t-13 -5.5t-13.5 5.5t-5.5 13.5t5.5 13t13.5 5t13 -5t5 -13zM281 53q0 -8 -5 -13.5t-13 -5.5t-13.5 5.5t-5.5 13.5t5.5 13t13.5 5
t13 -5t5 -13z" />
    <glyph glyph-name="zero" unicode="0" 
d="M218 368q0 -8 -5.5 -13.5t-13.5 -5.5t-13.5 5.5t-5.5 13.5t5.5 13.5t13.5 5.5t13.5 -5.5t5.5 -13.5zM218 41q0 -8 -5.5 -13.5t-13.5 -5.5t-13.5 5.5t-5.5 13.5t5.5 13.5t13.5 5.5t13.5 -5.5t5.5 -13.5zM54 205q0 -8 -5.5 -13t-13.5 -5t-13 5t-5 13t5 13.5t13 5.5
t13.5 -5.5t5.5 -13.5zM382 205q0 -8 -5.5 -13t-13.5 -5t-13 5t-5 13t5 13.5t13 5.5t13.5 -5.5t5.5 -13.5zM67 266q0 -8 -5.5 -13t-13.5 -5t-13 5t-5 13t5 13.5t13 5.5t13.5 -5.5t5.5 -13.5zM102 321q0 -8 -5.5 -13t-13.5 -5t-13 5t-5 13t5 13.5t13 5.5t13.5 -5.5t5.5 -13.5z
M155 356q0 -8 -5.5 -13t-13.5 -5t-13 5t-5 13t5 13.5t13 5.5t13.5 -5.5t5.5 -13.5zM368 266q0 -8 -5 -13t-13 -5t-13.5 5t-5.5 13t5.5 13.5t13.5 5.5t13 -5.5t5 -13.5zM333 321q0 -8 -5 -13t-13 -5t-13.5 5t-5.5 13t5.5 13.5t13.5 5.5t13 -5.5t5 -13.5zM280 356q0 -8 -5 -13
t-13 -5t-13.5 5t-5.5 13t5.5 13.5t13.5 5.5t13 -5.5t5 -13.5zM67 143q0 -8 -5.5 -13.5t-13.5 -5.5t-13 5.5t-5 13.5t5 13t13 5t13.5 -5t5.5 -13zM102 88q0 -8 -5.5 -13.5t-13.5 -5.5t-13 5.5t-5 13.5t5 13t13 5t13.5 -5t5.5 -13zM155 53q0 -8 -5.5 -13.5t-13.5 -5.5t-13 5.5
t-5 13.5t5 13t13 5t13.5 -5t5.5 -13zM369 143q0 -8 -5 -13.5t-13 -5.5t-13.5 5.5t-5.5 13.5t5.5 13t13.5 5t13 -5t5 -13zM334 88q0 -8 -5 -13.5t-13 -5.5t-13.5 5.5t-5.5 13.5t5.5 13t13.5 5t13 -5t5 -13zM281 53q0 -8 -5 -13.5t-13 -5.5t-13.5 5.5t-5.5 13.5t5.5 13t13.5 5
t13 -5t5 -13z" />
    <glyph glyph-name="one" unicode="1" 
d="M218 368q0 -8 -5.5 -13.5t-13.5 -5.5t-13.5 5.5t-5.5 13.5t5.5 13.5t13.5 5.5t13.5 -5.5t5.5 -13.5zM218 41q0 -8 -5.5 -13.5t-13.5 -5.5t-13.5 5.5t-5.5 13.5t5.5 13.5t13.5 5.5t13.5 -5.5t5.5 -13.5zM54 205q0 -8 -5.5 -13t-13.5 -5t-13 5t-5 13t5 13.5t13 5.5
t13.5 -5.5t5.5 -13.5zM382 205q0 -8 -5.5 -13t-13.5 -5t-13 5t-5 13t5 13.5t13 5.5t13.5 -5.5t5.5 -13.5zM67 266q0 -8 -5.5 -13t-13.5 -5t-13 5t-5 13t5 13.5t13 5.5t13.5 -5.5t5.5 -13.5zM102 321q0 -8 -5.5 -13t-13.5 -5t-13 5t-5 13t5 13.5t13 5.5t13.5 -5.5t5.5 -13.5z
M155 356q0 -8 -5.5 -13t-13.5 -5t-13 5t-5 13t5 13.5t13 5.5t13.5 -5.5t5.5 -13.5zM368 266q0 -8 -5 -13t-13 -5t-13.5 5t-5.5 13t5.5 13.5t13.5 5.5t13 -5.5t5 -13.5zM333 321q0 -8 -5 -13t-13 -5t-13.5 5t-5.5 13t5.5 13.5t13.5 5.5t13 -5.5t5 -13.5zM280 356q0 -8 -5 -13
t-13 -5t-13.5 5t-5.5 13t5.5 13.5t13.5 5.5t13 -5.5t5 -13.5zM67 143q0 -8 -5.5 -13.5t-13.5 -5.5t-13 5.5t-5 13.5t5 13t13 5t13.5 -5t5.5 -13zM102 88q0 -8 -5.5 -13.5t-13.5 -5.5t-13 5.5t-5 13.5t5 13t13 5t13.5 -5t5.5 -13zM155 53q0 -8 -5.5 -13.5t-13.5 -5.5t-13 5.5
t-5 13.5t5 13t13 5t13.5 -5t5.5 -13zM369 143q0 -8 -5 -13.5t-13 -5.5t-13.5 5.5t-5.5 13.5t5.5 13t13.5 5t13 -5t5 -13zM334 88q0 -8 -5 -13.5t-13 -5.5t-13.5 5.5t-5.5 13.5t5.5 13t13.5 5t13 -5t5 -13zM281 53q0 -8 -5 -13.5t-13 -5.5t-13.5 5.5t-5.5 13.5t5.5 13t13.5 5
t13 -5t5 -13z" />
    <glyph glyph-name="two" unicode="2" 
d="M218 368q0 -8 -5.5 -13.5t-13.5 -5.5t-13.5 5.5t-5.5 13.5t5.5 13.5t13.5 5.5t13.5 -5.5t5.5 -13.5zM218 41q0 -8 -5.5 -13.5t-13.5 -5.5t-13.5 5.5t-5.5 13.5t5.5 13.5t13.5 5.5t13.5 -5.5t5.5 -13.5zM54 205q0 -8 -5.5 -13t-13.5 -5t-13 5t-5 13t5 13.5t13 5.5
t13.5 -5.5t5.5 -13.5zM382 205q0 -8 -5.5 -13t-13.5 -5t-13 5t-5 13t5 13.5t13 5.5t13.5 -5.5t5.5 -13.5zM67 266q0 -8 -5.5 -13t-13.5 -5t-13 5t-5 13t5 13.5t13 5.5t13.5 -5.5t5.5 -13.5zM102 321q0 -8 -5.5 -13t-13.5 -5t-13 5t-5 13t5 13.5t13 5.5t13.5 -5.5t5.5 -13.5z
M155 356q0 -8 -5.5 -13t-13.5 -5t-13 5t-5 13t5 13.5t13 5.5t13.5 -5.5t5.5 -13.5zM368 266q0 -8 -5 -13t-13 -5t-13.5 5t-5.5 13t5.5 13.5t13.5 5.5t13 -5.5t5 -13.5zM333 321q0 -8 -5 -13t-13 -5t-13.5 5t-5.5 13t5.5 13.5t13.5 5.5t13 -5.5t5 -13.5zM280 356q0 -8 -5 -13
t-13 -5t-13.5 5t-5.5 13t5.5 13.5t13.5 5.5t13 -5.5t5 -13.5zM67 143q0 -8 -5.5 -13.5t-13.5 -5.5t-13 5.5t-5 13.5t5 13t13 5t13.5 -5t5.5 -13zM102 88q0 -8 -5.5 -13.5t-13.5 -5.5t-13 5.5t-5 13.5t5 13t13 5t13.5 -5t5.5 -13zM155 53q0 -8 -5.5 -13.5t-13.5 -5.5t-13 5.5
t-5 13.5t5 13t13 5t13.5 -5t5.5 -13zM369 143q0 -8 -5 -13.5t-13 -5.5t-13.5 5.5t-5.5 13.5t5.5 13t13.5 5t13 -5t5 -13zM334 88q0 -8 -5 -13.5t-13 -5.5t-13.5 5.5t-5.5 13.5t5.5 13t13.5 5t13 -5t5 -13zM281 53q0 -8 -5 -13.5t-13 -5.5t-13.5 5.5t-5.5 13.5t5.5 13t13.5 5
t13 -5t5 -13z" />
    <glyph glyph-name="three" unicode="3" 
d="M218 368q0 -8 -5.5 -13.5t-13.5 -5.5t-13.5 5.5t-5.5 13.5t5.5 13.5t13.5 5.5t13.5 -5.5t5.5 -13.5zM218 41q0 -8 -5.5 -13.5t-13.5 -5.5t-13.5 5.5t-5.5 13.5t5.5 13.5t13.5 5.5t13.5 -5.5t5.5 -13.5zM54 205q0 -8 -5.5 -13t-13.5 -5t-13 5t-5 13t5 13.5t13 5.5
t13.5 -5.5t5.5 -13.5zM382 205q0 -8 -5.5 -13t-13.5 -5t-13 5t-5 13t5 13.5t13 5.5t13.5 -5.5t5.5 -13.5zM67 266q0 -8 -5.5 -13t-13.5 -5t-13 5t-5 13t5 13.5t13 5.5t13.5 -5.5t5.5 -13.5zM102 321q0 -8 -5.5 -13t-13.5 -5t-13 5t-5 13t5 13.5t13 5.5t13.5 -5.5t5.5 -13.5z
M155 356q0 -8 -5.5 -13t-13.5 -5t-13 5t-5 13t5 13.5t13 5.5t13.5 -5.5t5.5 -13.5zM368 266q0 -8 -5 -13t-13 -5t-13.5 5t-5.5 13t5.5 13.5t13.5 5.5t13 -5.5t5 -13.5zM333 321q0 -8 -5 -13t-13 -5t-13.5 5t-5.5 13t5.5 13.5t13.5 5.5t13 -5.5t5 -13.5zM280 356q0 -8 -5 -13
t-13 -5t-13.5 5t-5.5 13t5.5 13.5t13.5 5.5t13 -5.5t5 -13.5zM67 143q0 -8 -5.5 -13.5t-13.5 -5.5t-13 5.5t-5 13.5t5 13t13 5t13.5 -5t5.5 -13zM102 88q0 -8 -5.5 -13.5t-13.5 -5.5t-13 5.5t-5 13.5t5 13t13 5t13.5 -5t5.5 -13zM155 53q0 -8 -5.5 -13.5t-13.5 -5.5t-13 5.5
t-5 13.5t5 13t13 5t13.5 -5t5.5 -13zM369 143q0 -8 -5 -13.5t-13 -5.5t-13.5 5.5t-5.5 13.5t5.5 13t13.5 5t13 -5t5 -13zM334 88q0 -8 -5 -13.5t-13 -5.5t-13.5 5.5t-5.5 13.5t5.5 13t13.5 5t13 -5t5 -13zM281 53q0 -8 -5 -13.5t-13 -5.5t-13.5 5.5t-5.5 13.5t5.5 13t13.5 5
t13 -5t5 -13z" />
    <glyph glyph-name="four" unicode="4" 
d="M218 368q0 -8 -5.5 -13.5t-13.5 -5.5t-13.5 5.5t-5.5 13.5t5.5 13.5t13.5 5.5t13.5 -5.5t5.5 -13.5zM218 41q0 -8 -5.5 -13.5t-13.5 -5.5t-13.5 5.5t-5.5 13.5t5.5 13.5t13.5 5.5t13.5 -5.5t5.5 -13.5zM54 205q0 -8 -5.5 -13t-13.5 -5t-13 5t-5 13t5 13.5t13 5.5
t13.5 -5.5t5.5 -13.5zM382 205q0 -8 -5.5 -13t-13.5 -5t-13 5t-5 13t5 13.5t13 5.5t13.5 -5.5t5.5 -13.5zM67 266q0 -8 -5.5 -13t-13.5 -5t-13 5t-5 13t5 13.5t13 5.5t13.5 -5.5t5.5 -13.5zM102 321q0 -8 -5.5 -13t-13.5 -5t-13 5t-5 13t5 13.5t13 5.5t13.5 -5.5t5.5 -13.5z
M155 356q0 -8 -5.5 -13t-13.5 -5t-13 5t-5 13t5 13.5t13 5.5t13.5 -5.5t5.5 -13.5zM368 266q0 -8 -5 -13t-13 -5t-13.5 5t-5.5 13t5.5 13.5t13.5 5.5t13 -5.5t5 -13.5zM333 321q0 -8 -5 -13t-13 -5t-13.5 5t-5.5 13t5.5 13.5t13.5 5.5t13 -5.5t5 -13.5zM280 356q0 -8 -5 -13
t-13 -5t-13.5 5t-5.5 13t5.5 13.5t13.5 5.5t13 -5.5t5 -13.5zM67 143q0 -8 -5.5 -13.5t-13.5 -5.5t-13 5.5t-5 13.5t5 13t13 5t13.5 -5t5.5 -13zM102 88q0 -8 -5.5 -13.5t-13.5 -5.5t-13 5.5t-5 13.5t5 13t13 5t13.5 -5t5.5 -13zM155 53q0 -8 -5.5 -13.5t-13.5 -5.5t-13 5.5
t-5 13.5t5 13t13 5t13.5 -5t5.5 -13zM369 143q0 -8 -5 -13.5t-13 -5.5t-13.5 5.5t-5.5 13.5t5.5 13t13.5 5t13 -5t5 -13zM334 88q0 -8 -5 -13.5t-13 -5.5t-13.5 5.5t-5.5 13.5t5.5 13t13.5 5t13 -5t5 -13zM281 53q0 -8 -5 -13.5t-13 -5.5t-13.5 5.5t-5.5 13.5t5.5 13t13.5 5
t13 -5t5 -13z" />
    <glyph glyph-name="five" unicode="5" 
d="M218 368q0 -8 -5.5 -13.5t-13.5 -5.5t-13.5 5.5t-5.5 13.5t5.5 13.5t13.5 5.5t13.5 -5.5t5.5 -13.5zM218 41q0 -8 -5.5 -13.5t-13.5 -5.5t-13.5 5.5t-5.5 13.5t5.5 13.5t13.5 5.5t13.5 -5.5t5.5 -13.5zM54 205q0 -8 -5.5 -13t-13.5 -5t-13 5t-5 13t5 13.5t13 5.5
t13.5 -5.5t5.5 -13.5zM382 205q0 -8 -5.5 -13t-13.5 -5t-13 5t-5 13t5 13.5t13 5.5t13.5 -5.5t5.5 -13.5zM67 266q0 -8 -5.5 -13t-13.5 -5t-13 5t-5 13t5 13.5t13 5.5t13.5 -5.5t5.5 -13.5zM102 321q0 -8 -5.5 -13t-13.5 -5t-13 5t-5 13t5 13.5t13 5.5t13.5 -5.5t5.5 -13.5z
M155 356q0 -8 -5.5 -13t-13.5 -5t-13 5t-5 13t5 13.5t13 5.5t13.5 -5.5t5.5 -13.5zM368 266q0 -8 -5 -13t-13 -5t-13.5 5t-5.5 13t5.5 13.5t13.5 5.5t13 -5.5t5 -13.5zM333 321q0 -8 -5 -13t-13 -5t-13.5 5t-5.5 13t5.5 13.5t13.5 5.5t13 -5.5t5 -13.5zM280 356q0 -8 -5 -13
t-13 -5t-13.5 5t-5.5 13t5.5 13.5t13.5 5.5t13 -5.5t5 -13.5zM67 143q0 -8 -5.5 -13.5t-13.5 -5.5t-13 5.5t-5 13.5t5 13t13 5t13.5 -5t5.5 -13zM102 88q0 -8 -5.5 -13.5t-13.5 -5.5t-13 5.5t-5 13.5t5 13t13 5t13.5 -5t5.5 -13zM155 53q0 -8 -5.5 -13.5t-13.5 -5.5t-13 5.5
t-5 13.5t5 13t13 5t13.5 -5t5.5 -13zM369 143q0 -8 -5 -13.5t-13 -5.5t-13.5 5.5t-5.5 13.5t5.5 13t13.5 5t13 -5t5 -13zM334 88q0 -8 -5 -13.5t-13 -5.5t-13.5 5.5t-5.5 13.5t5.5 13t13.5 5t13 -5t5 -13zM281 53q0 -8 -5 -13.5t-13 -5.5t-13.5 5.5t-5.5 13.5t5.5 13t13.5 5
t13 -5t5 -13z" />
    <glyph glyph-name="six" unicode="6" 
d="M218 368q0 -8 -5.5 -13.5t-13.5 -5.5t-13.5 5.5t-5.5 13.5t5.5 13.5t13.5 5.5t13.5 -5.5t5.5 -13.5zM218 41q0 -8 -5.5 -13.5t-13.5 -5.5t-13.5 5.5t-5.5 13.5t5.5 13.5t13.5 5.5t13.5 -5.5t5.5 -13.5zM54 205q0 -8 -5.5 -13t-13.5 -5t-13 5t-5 13t5 13.5t13 5.5
t13.5 -5.5t5.5 -13.5zM382 205q0 -8 -5.5 -13t-13.5 -5t-13 5t-5 13t5 13.5t13 5.5t13.5 -5.5t5.5 -13.5zM67 266q0 -8 -5.5 -13t-13.5 -5t-13 5t-5 13t5 13.5t13 5.5t13.5 -5.5t5.5 -13.5zM102 321q0 -8 -5.5 -13t-13.5 -5t-13 5t-5 13t5 13.5t13 5.5t13.5 -5.5t5.5 -13.5z
M155 356q0 -8 -5.5 -13t-13.5 -5t-13 5t-5 13t5 13.5t13 5.5t13.5 -5.5t5.5 -13.5zM368 266q0 -8 -5 -13t-13 -5t-13.5 5t-5.5 13t5.5 13.5t13.5 5.5t13 -5.5t5 -13.5zM333 321q0 -8 -5 -13t-13 -5t-13.5 5t-5.5 13t5.5 13.5t13.5 5.5t13 -5.5t5 -13.5zM280 356q0 -8 -5 -13
t-13 -5t-13.5 5t-5.5 13t5.5 13.5t13.5 5.5t13 -5.5t5 -13.5zM67 143q0 -8 -5.5 -13.5t-13.5 -5.5t-13 5.5t-5 13.5t5 13t13 5t13.5 -5t5.5 -13zM102 88q0 -8 -5.5 -13.5t-13.5 -5.5t-13 5.5t-5 13.5t5 13t13 5t13.5 -5t5.5 -13zM155 53q0 -8 -5.5 -13.5t-13.5 -5.5t-13 5.5
t-5 13.5t5 13t13 5t13.5 -5t5.5 -13zM369 143q0 -8 -5 -13.5t-13 -5.5t-13.5 5.5t-5.5 13.5t5.5 13t13.5 5t13 -5t5 -13zM334 88q0 -8 -5 -13.5t-13 -5.5t-13.5 5.5t-5.5 13.5t5.5 13t13.5 5t13 -5t5 -13zM281 53q0 -8 -5 -13.5t-13 -5.5t-13.5 5.5t-5.5 13.5t5.5 13t13.5 5
t13 -5t5 -13z" />
    <glyph glyph-name="seven" unicode="7" 
d="M218 368q0 -8 -5.5 -13.5t-13.5 -5.5t-13.5 5.5t-5.5 13.5t5.5 13.5t13.5 5.5t13.5 -5.5t5.5 -13.5zM218 41q0 -8 -5.5 -13.5t-13.5 -5.5t-13.5 5.5t-5.5 13.5t5.5 13.5t13.5 5.5t13.5 -5.5t5.5 -13.5zM54 205q0 -8 -5.5 -13t-13.5 -5t-13 5t-5 13t5 13.5t13 5.5
t13.5 -5.5t5.5 -13.5zM382 205q0 -8 -5.5 -13t-13.5 -5t-13 5t-5 13t5 13.5t13 5.5t13.5 -5.5t5.5 -13.5zM67 266q0 -8 -5.5 -13t-13.5 -5t-13 5t-5 13t5 13.5t13 5.5t13.5 -5.5t5.5 -13.5zM102 321q0 -8 -5.5 -13t-13.5 -5t-13 5t-5 13t5 13.5t13 5.5t13.5 -5.5t5.5 -13.5z
M155 356q0 -8 -5.5 -13t-13.5 -5t-13 5t-5 13t5 13.5t13 5.5t13.5 -5.5t5.5 -13.5zM368 266q0 -8 -5 -13t-13 -5t-13.5 5t-5.5 13t5.5 13.5t13.5 5.5t13 -5.5t5 -13.5zM333 321q0 -8 -5 -13t-13 -5t-13.5 5t-5.5 13t5.5 13.5t13.5 5.5t13 -5.5t5 -13.5zM280 356q0 -8 -5 -13
t-13 -5t-13.5 5t-5.5 13t5.5 13.5t13.5 5.5t13 -5.5t5 -13.5zM67 143q0 -8 -5.5 -13.5t-13.5 -5.5t-13 5.5t-5 13.5t5 13t13 5t13.5 -5t5.5 -13zM102 88q0 -8 -5.5 -13.5t-13.5 -5.5t-13 5.5t-5 13.5t5 13t13 5t13.5 -5t5.5 -13zM155 53q0 -8 -5.5 -13.5t-13.5 -5.5t-13 5.5
t-5 13.5t5 13t13 5t13.5 -5t5.5 -13zM369 143q0 -8 -5 -13.5t-13 -5.5t-13.5 5.5t-5.5 13.5t5.5 13t13.5 5t13 -5t5 -13zM334 88q0 -8 -5 -13.5t-13 -5.5t-13.5 5.5t-5.5 13.5t5.5 13t13.5 5t13 -5t5 -13zM281 53q0 -8 -5 -13.5t-13 -5.5t-13.5 5.5t-5.5 13.5t5.5 13t13.5 5
t13 -5t5 -13z" />
    <glyph glyph-name="eight" unicode="8" 
d="M218 368q0 -8 -5.5 -13.5t-13.5 -5.5t-13.5 5.5t-5.5 13.5t5.5 13.5t13.5 5.5t13.5 -5.5t5.5 -13.5zM218 41q0 -8 -5.5 -13.5t-13.5 -5.5t-13.5 5.5t-5.5 13.5t5.5 13.5t13.5 5.5t13.5 -5.5t5.5 -13.5zM54 205q0 -8 -5.5 -13t-13.5 -5t-13 5t-5 13t5 13.5t13 5.5
t13.5 -5.5t5.5 -13.5zM382 205q0 -8 -5.5 -13t-13.5 -5t-13 5t-5 13t5 13.5t13 5.5t13.5 -5.5t5.5 -13.5zM67 266q0 -8 -5.5 -13t-13.5 -5t-13 5t-5 13t5 13.5t13 5.5t13.5 -5.5t5.5 -13.5zM102 321q0 -8 -5.5 -13t-13.5 -5t-13 5t-5 13t5 13.5t13 5.5t13.5 -5.5t5.5 -13.5z
M155 356q0 -8 -5.5 -13t-13.5 -5t-13 5t-5 13t5 13.5t13 5.5t13.5 -5.5t5.5 -13.5zM368 266q0 -8 -5 -13t-13 -5t-13.5 5t-5.5 13t5.5 13.5t13.5 5.5t13 -5.5t5 -13.5zM333 321q0 -8 -5 -13t-13 -5t-13.5 5t-5.5 13t5.5 13.5t13.5 5.5t13 -5.5t5 -13.5zM280 356q0 -8 -5 -13
t-13 -5t-13.5 5t-5.5 13t5.5 13.5t13.5 5.5t13 -5.5t5 -13.5zM67 143q0 -8 -5.5 -13.5t-13.5 -5.5t-13 5.5t-5 13.5t5 13t13 5t13.5 -5t5.5 -13zM102 88q0 -8 -5.5 -13.5t-13.5 -5.5t-13 5.5t-5 13.5t5 13t13 5t13.5 -5t5.5 -13zM155 53q0 -8 -5.5 -13.5t-13.5 -5.5t-13 5.5
t-5 13.5t5 13t13 5t13.5 -5t5.5 -13zM369 143q0 -8 -5 -13.5t-13 -5.5t-13.5 5.5t-5.5 13.5t5.5 13t13.5 5t13 -5t5 -13zM334 88q0 -8 -5 -13.5t-13 -5.5t-13.5 5.5t-5.5 13.5t5.5 13t13.5 5t13 -5t5 -13zM281 53q0 -8 -5 -13.5t-13 -5.5t-13.5 5.5t-5.5 13.5t5.5 13t13.5 5
t13 -5t5 -13z" />
    <glyph glyph-name="nine" unicode="9" 
d="M218 368q0 -8 -5.5 -13.5t-13.5 -5.5t-13.5 5.5t-5.5 13.5t5.5 13.5t13.5 5.5t13.5 -5.5t5.5 -13.5zM218 41q0 -8 -5.5 -13.5t-13.5 -5.5t-13.5 5.5t-5.5 13.5t5.5 13.5t13.5 5.5t13.5 -5.5t5.5 -13.5zM54 205q0 -8 -5.5 -13t-13.5 -5t-13 5t-5 13t5 13.5t13 5.5
t13.5 -5.5t5.5 -13.5zM382 205q0 -8 -5.5 -13t-13.5 -5t-13 5t-5 13t5 13.5t13 5.5t13.5 -5.5t5.5 -13.5zM67 266q0 -8 -5.5 -13t-13.5 -5t-13 5t-5 13t5 13.5t13 5.5t13.5 -5.5t5.5 -13.5zM102 321q0 -8 -5.5 -13t-13.5 -5t-13 5t-5 13t5 13.5t13 5.5t13.5 -5.5t5.5 -13.5z
M155 356q0 -8 -5.5 -13t-13.5 -5t-13 5t-5 13t5 13.5t13 5.5t13.5 -5.5t5.5 -13.5zM368 266q0 -8 -5 -13t-13 -5t-13.5 5t-5.5 13t5.5 13.5t13.5 5.5t13 -5.5t5 -13.5zM333 321q0 -8 -5 -13t-13 -5t-13.5 5t-5.5 13t5.5 13.5t13.5 5.5t13 -5.5t5 -13.5zM280 356q0 -8 -5 -13
t-13 -5t-13.5 5t-5.5 13t5.5 13.5t13.5 5.5t13 -5.5t5 -13.5zM67 143q0 -8 -5.5 -13.5t-13.5 -5.5t-13 5.5t-5 13.5t5 13t13 5t13.5 -5t5.5 -13zM102 88q0 -8 -5.5 -13.5t-13.5 -5.5t-13 5.5t-5 13.5t5 13t13 5t13.5 -5t5.5 -13zM155 53q0 -8 -5.5 -13.5t-13.5 -5.5t-13 5.5
t-5 13.5t5 13t13 5t13.5 -5t5.5 -13zM369 143q0 -8 -5 -13.5t-13 -5.5t-13.5 5.5t-5.5 13.5t5.5 13t13.5 5t13 -5t5 -13zM334 88q0 -8 -5 -13.5t-13 -5.5t-13.5 5.5t-5.5 13.5t5.5 13t13.5 5t13 -5t5 -13zM281 53q0 -8 -5 -13.5t-13 -5.5t-13.5 5.5t-5.5 13.5t5.5 13t13.5 5
t13 -5t5 -13z" />
    <glyph glyph-name="colon" unicode=":" 
d="M218 368q0 -8 -5.5 -13.5t-13.5 -5.5t-13.5 5.5t-5.5 13.5t5.5 13.5t13.5 5.5t13.5 -5.5t5.5 -13.5zM218 41q0 -8 -5.5 -13.5t-13.5 -5.5t-13.5 5.5t-5.5 13.5t5.5 13.5t13.5 5.5t13.5 -5.5t5.5 -13.5zM54 205q0 -8 -5.5 -13t-13.5 -5t-13 5t-5 13t5 13.5t13 5.5
t13.5 -5.5t5.5 -13.5zM382 205q0 -8 -5.5 -13t-13.5 -5t-13 5t-5 13t5 13.5t13 5.5t13.5 -5.5t5.5 -13.5zM67 266q0 -8 -5.5 -13t-13.5 -5t-13 5t-5 13t5 13.5t13 5.5t13.5 -5.5t5.5 -13.5zM102 321q0 -8 -5.5 -13t-13.5 -5t-13 5t-5 13t5 13.5t13 5.5t13.5 -5.5t5.5 -13.5z
M155 356q0 -8 -5.5 -13t-13.5 -5t-13 5t-5 13t5 13.5t13 5.5t13.5 -5.5t5.5 -13.5zM368 266q0 -8 -5 -13t-13 -5t-13.5 5t-5.5 13t5.5 13.5t13.5 5.5t13 -5.5t5 -13.5zM333 321q0 -8 -5 -13t-13 -5t-13.5 5t-5.5 13t5.5 13.5t13.5 5.5t13 -5.5t5 -13.5zM280 356q0 -8 -5 -13
t-13 -5t-13.5 5t-5.5 13t5.5 13.5t13.5 5.5t13 -5.5t5 -13.5zM67 143q0 -8 -5.5 -13.5t-13.5 -5.5t-13 5.5t-5 13.5t5 13t13 5t13.5 -5t5.5 -13zM102 88q0 -8 -5.5 -13.5t-13.5 -5.5t-13 5.5t-5 13.5t5 13t13 5t13.5 -5t5.5 -13zM155 53q0 -8 -5.5 -13.5t-13.5 -5.5t-13 5.5
t-5 13.5t5 13t13 5t13.5 -5t5.5 -13zM369 143q0 -8 -5 -13.5t-13 -5.5t-13.5 5.5t-5.5 13.5t5.5 13t13.5 5t13 -5t5 -13zM334 88q0 -8 -5 -13.5t-13 -5.5t-13.5 5.5t-5.5 13.5t5.5 13t13.5 5t13 -5t5 -13zM281 53q0 -8 -5 -13.5t-13 -5.5t-13.5 5.5t-5.5 13.5t5.5 13t13.5 5
t13 -5t5 -13z" />
    <glyph glyph-name="semicolon" unicode=";" 
d="M218 368q0 -8 -5.5 -13.5t-13.5 -5.5t-13.5 5.5t-5.5 13.5t5.5 13.5t13.5 5.5t13.5 -5.5t5.5 -13.5zM218 41q0 -8 -5.5 -13.5t-13.5 -5.5t-13.5 5.5t-5.5 13.5t5.5 13.5t13.5 5.5t13.5 -5.5t5.5 -13.5zM54 205q0 -8 -5.5 -13t-13.5 -5t-13 5t-5 13t5 13.5t13 5.5
t13.5 -5.5t5.5 -13.5zM382 205q0 -8 -5.5 -13t-13.5 -5t-13 5t-5 13t5 13.5t13 5.5t13.5 -5.5t5.5 -13.5zM67 266q0 -8 -5.5 -13t-13.5 -5t-13 5t-5 13t5 13.5t13 5.5t13.5 -5.5t5.5 -13.5zM102 321q0 -8 -5.5 -13t-13.5 -5t-13 5t-5 13t5 13.5t13 5.5t13.5 -5.5t5.5 -13.5z
M155 356q0 -8 -5.5 -13t-13.5 -5t-13 5t-5 13t5 13.5t13 5.5t13.5 -5.5t5.5 -13.5zM368 266q0 -8 -5 -13t-13 -5t-13.5 5t-5.5 13t5.5 13.5t13.5 5.5t13 -5.5t5 -13.5zM333 321q0 -8 -5 -13t-13 -5t-13.5 5t-5.5 13t5.5 13.5t13.5 5.5t13 -5.5t5 -13.5zM280 356q0 -8 -5 -13
t-13 -5t-13.5 5t-5.5 13t5.5 13.5t13.5 5.5t13 -5.5t5 -13.5zM67 143q0 -8 -5.5 -13.5t-13.5 -5.5t-13 5.5t-5 13.5t5 13t13 5t13.5 -5t5.5 -13zM102 88q0 -8 -5.5 -13.5t-13.5 -5.5t-13 5.5t-5 13.5t5 13t13 5t13.5 -5t5.5 -13zM155 53q0 -8 -5.5 -13.5t-13.5 -5.5t-13 5.5
t-5 13.5t5 13t13 5t13.5 -5t5.5 -13zM369 143q0 -8 -5 -13.5t-13 -5.5t-13.5 5.5t-5.5 13.5t5.5 13t13.5 5t13 -5t5 -13zM334 88q0 -8 -5 -13.5t-13 -5.5t-13.5 5.5t-5.5 13.5t5.5 13t13.5 5t13 -5t5 -13zM281 53q0 -8 -5 -13.5t-13 -5.5t-13.5 5.5t-5.5 13.5t5.5 13t13.5 5
t13 -5t5 -13z" />
    <glyph glyph-name="less" unicode="&#x3c;" 
d="M218 368q0 -8 -5.5 -13.5t-13.5 -5.5t-13.5 5.5t-5.5 13.5t5.5 13.5t13.5 5.5t13.5 -5.5t5.5 -13.5zM218 41q0 -8 -5.5 -13.5t-13.5 -5.5t-13.5 5.5t-5.5 13.5t5.5 13.5t13.5 5.5t13.5 -5.5t5.5 -13.5zM54 205q0 -8 -5.5 -13t-13.5 -5t-13 5t-5 13t5 13.5t13 5.5
t13.5 -5.5t5.5 -13.5zM382 205q0 -8 -5.5 -13t-13.5 -5t-13 5t-5 13t5 13.5t13 5.5t13.5 -5.5t5.5 -13.5zM67 266q0 -8 -5.5 -13t-13.5 -5t-13 5t-5 13t5 13.5t13 5.5t13.5 -5.5t5.5 -13.5zM102 321q0 -8 -5.5 -13t-13.5 -5t-13 5t-5 13t5 13.5t13 5.5t13.5 -5.5t5.5 -13.5z
M155 356q0 -8 -5.5 -13t-13.5 -5t-13 5t-5 13t5 13.5t13 5.5t13.5 -5.5t5.5 -13.5zM368 266q0 -8 -5 -13t-13 -5t-13.5 5t-5.5 13t5.5 13.5t13.5 5.5t13 -5.5t5 -13.5zM333 321q0 -8 -5 -13t-13 -5t-13.5 5t-5.5 13t5.5 13.5t13.5 5.5t13 -5.5t5 -13.5zM280 356q0 -8 -5 -13
t-13 -5t-13.5 5t-5.5 13t5.5 13.5t13.5 5.5t13 -5.5t5 -13.5zM67 143q0 -8 -5.5 -13.5t-13.5 -5.5t-13 5.5t-5 13.5t5 13t13 5t13.5 -5t5.5 -13zM102 88q0 -8 -5.5 -13.5t-13.5 -5.5t-13 5.5t-5 13.5t5 13t13 5t13.5 -5t5.5 -13zM155 53q0 -8 -5.5 -13.5t-13.5 -5.5t-13 5.5
t-5 13.5t5 13t13 5t13.5 -5t5.5 -13zM369 143q0 -8 -5 -13.5t-13 -5.5t-13.5 5.5t-5.5 13.5t5.5 13t13.5 5t13 -5t5 -13zM334 88q0 -8 -5 -13.5t-13 -5.5t-13.5 5.5t-5.5 13.5t5.5 13t13.5 5t13 -5t5 -13zM281 53q0 -8 -5 -13.5t-13 -5.5t-13.5 5.5t-5.5 13.5t5.5 13t13.5 5
t13 -5t5 -13z" />
    <glyph glyph-name="equal" unicode="=" 
d="M218 368q0 -8 -5.5 -13.5t-13.5 -5.5t-13.5 5.5t-5.5 13.5t5.5 13.5t13.5 5.5t13.5 -5.5t5.5 -13.5zM218 41q0 -8 -5.5 -13.5t-13.5 -5.5t-13.5 5.5t-5.5 13.5t5.5 13.5t13.5 5.5t13.5 -5.5t5.5 -13.5zM54 205q0 -8 -5.5 -13t-13.5 -5t-13 5t-5 13t5 13.5t13 5.5
t13.5 -5.5t5.5 -13.5zM382 205q0 -8 -5.5 -13t-13.5 -5t-13 5t-5 13t5 13.5t13 5.5t13.5 -5.5t5.5 -13.5zM67 266q0 -8 -5.5 -13t-13.5 -5t-13 5t-5 13t5 13.5t13 5.5t13.5 -5.5t5.5 -13.5zM102 321q0 -8 -5.5 -13t-13.5 -5t-13 5t-5 13t5 13.5t13 5.5t13.5 -5.5t5.5 -13.5z
M155 356q0 -8 -5.5 -13t-13.5 -5t-13 5t-5 13t5 13.5t13 5.5t13.5 -5.5t5.5 -13.5zM368 266q0 -8 -5 -13t-13 -5t-13.5 5t-5.5 13t5.5 13.5t13.5 5.5t13 -5.5t5 -13.5zM333 321q0 -8 -5 -13t-13 -5t-13.5 5t-5.5 13t5.5 13.5t13.5 5.5t13 -5.5t5 -13.5zM280 356q0 -8 -5 -13
t-13 -5t-13.5 5t-5.5 13t5.5 13.5t13.5 5.5t13 -5.5t5 -13.5zM67 143q0 -8 -5.5 -13.5t-13.5 -5.5t-13 5.5t-5 13.5t5 13t13 5t13.5 -5t5.5 -13zM102 88q0 -8 -5.5 -13.5t-13.5 -5.5t-13 5.5t-5 13.5t5 13t13 5t13.5 -5t5.5 -13zM155 53q0 -8 -5.5 -13.5t-13.5 -5.5t-13 5.5
t-5 13.5t5 13t13 5t13.5 -5t5.5 -13zM369 143q0 -8 -5 -13.5t-13 -5.5t-13.5 5.5t-5.5 13.5t5.5 13t13.5 5t13 -5t5 -13zM334 88q0 -8 -5 -13.5t-13 -5.5t-13.5 5.5t-5.5 13.5t5.5 13t13.5 5t13 -5t5 -13zM281 53q0 -8 -5 -13.5t-13 -5.5t-13.5 5.5t-5.5 13.5t5.5 13t13.5 5
t13 -5t5 -13z" />
    <glyph glyph-name="greater" unicode="&#x3e;" 
d="M218 368q0 -8 -5.5 -13.5t-13.5 -5.5t-13.5 5.5t-5.5 13.5t5.5 13.5t13.5 5.5t13.5 -5.5t5.5 -13.5zM218 41q0 -8 -5.5 -13.5t-13.5 -5.5t-13.5 5.5t-5.5 13.5t5.5 13.5t13.5 5.5t13.5 -5.5t5.5 -13.5zM54 205q0 -8 -5.5 -13t-13.5 -5t-13 5t-5 13t5 13.5t13 5.5
t13.5 -5.5t5.5 -13.5zM382 205q0 -8 -5.5 -13t-13.5 -5t-13 5t-5 13t5 13.5t13 5.5t13.5 -5.5t5.5 -13.5zM67 266q0 -8 -5.5 -13t-13.5 -5t-13 5t-5 13t5 13.5t13 5.5t13.5 -5.5t5.5 -13.5zM102 321q0 -8 -5.5 -13t-13.5 -5t-13 5t-5 13t5 13.5t13 5.5t13.5 -5.5t5.5 -13.5z
M155 356q0 -8 -5.5 -13t-13.5 -5t-13 5t-5 13t5 13.5t13 5.5t13.5 -5.5t5.5 -13.5zM368 266q0 -8 -5 -13t-13 -5t-13.5 5t-5.5 13t5.5 13.5t13.5 5.5t13 -5.5t5 -13.5zM333 321q0 -8 -5 -13t-13 -5t-13.5 5t-5.5 13t5.5 13.5t13.5 5.5t13 -5.5t5 -13.5zM280 356q0 -8 -5 -13
t-13 -5t-13.5 5t-5.5 13t5.5 13.5t13.5 5.5t13 -5.5t5 -13.5zM67 143q0 -8 -5.5 -13.5t-13.5 -5.5t-13 5.5t-5 13.5t5 13t13 5t13.5 -5t5.5 -13zM102 88q0 -8 -5.5 -13.5t-13.5 -5.5t-13 5.5t-5 13.5t5 13t13 5t13.5 -5t5.5 -13zM155 53q0 -8 -5.5 -13.5t-13.5 -5.5t-13 5.5
t-5 13.5t5 13t13 5t13.5 -5t5.5 -13zM369 143q0 -8 -5 -13.5t-13 -5.5t-13.5 5.5t-5.5 13.5t5.5 13t13.5 5t13 -5t5 -13zM334 88q0 -8 -5 -13.5t-13 -5.5t-13.5 5.5t-5.5 13.5t5.5 13t13.5 5t13 -5t5 -13zM281 53q0 -8 -5 -13.5t-13 -5.5t-13.5 5.5t-5.5 13.5t5.5 13t13.5 5
t13 -5t5 -13z" />
    <glyph glyph-name="question" unicode="?" 
d="M218 368q0 -8 -5.5 -13.5t-13.5 -5.5t-13.5 5.5t-5.5 13.5t5.5 13.5t13.5 5.5t13.5 -5.5t5.5 -13.5zM218 41q0 -8 -5.5 -13.5t-13.5 -5.5t-13.5 5.5t-5.5 13.5t5.5 13.5t13.5 5.5t13.5 -5.5t5.5 -13.5zM54 205q0 -8 -5.5 -13t-13.5 -5t-13 5t-5 13t5 13.5t13 5.5
t13.5 -5.5t5.5 -13.5zM382 205q0 -8 -5.5 -13t-13.5 -5t-13 5t-5 13t5 13.5t13 5.5t13.5 -5.5t5.5 -13.5zM67 266q0 -8 -5.5 -13t-13.5 -5t-13 5t-5 13t5 13.5t13 5.5t13.5 -5.5t5.5 -13.5zM102 321q0 -8 -5.5 -13t-13.5 -5t-13 5t-5 13t5 13.5t13 5.5t13.5 -5.5t5.5 -13.5z
M155 356q0 -8 -5.5 -13t-13.5 -5t-13 5t-5 13t5 13.5t13 5.5t13.5 -5.5t5.5 -13.5zM368 266q0 -8 -5 -13t-13 -5t-13.5 5t-5.5 13t5.5 13.5t13.5 5.5t13 -5.5t5 -13.5zM333 321q0 -8 -5 -13t-13 -5t-13.5 5t-5.5 13t5.5 13.5t13.5 5.5t13 -5.5t5 -13.5zM280 356q0 -8 -5 -13
t-13 -5t-13.5 5t-5.5 13t5.5 13.5t13.5 5.5t13 -5.5t5 -13.5zM67 143q0 -8 -5.5 -13.5t-13.5 -5.5t-13 5.5t-5 13.5t5 13t13 5t13.5 -5t5.5 -13zM102 88q0 -8 -5.5 -13.5t-13.5 -5.5t-13 5.5t-5 13.5t5 13t13 5t13.5 -5t5.5 -13zM155 53q0 -8 -5.5 -13.5t-13.5 -5.5t-13 5.5
t-5 13.5t5 13t13 5t13.5 -5t5.5 -13zM369 143q0 -8 -5 -13.5t-13 -5.5t-13.5 5.5t-5.5 13.5t5.5 13t13.5 5t13 -5t5 -13zM334 88q0 -8 -5 -13.5t-13 -5.5t-13.5 5.5t-5.5 13.5t5.5 13t13.5 5t13 -5t5 -13zM281 53q0 -8 -5 -13.5t-13 -5.5t-13.5 5.5t-5.5 13.5t5.5 13t13.5 5
t13 -5t5 -13z" />
    <glyph glyph-name="at" unicode="@" 
d="M218 368q0 -8 -5.5 -13.5t-13.5 -5.5t-13.5 5.5t-5.5 13.5t5.5 13.5t13.5 5.5t13.5 -5.5t5.5 -13.5zM218 41q0 -8 -5.5 -13.5t-13.5 -5.5t-13.5 5.5t-5.5 13.5t5.5 13.5t13.5 5.5t13.5 -5.5t5.5 -13.5zM54 205q0 -8 -5.5 -13t-13.5 -5t-13 5t-5 13t5 13.5t13 5.5
t13.5 -5.5t5.5 -13.5zM382 205q0 -8 -5.5 -13t-13.5 -5t-13 5t-5 13t5 13.5t13 5.5t13.5 -5.5t5.5 -13.5zM67 266q0 -8 -5.5 -13t-13.5 -5t-13 5t-5 13t5 13.5t13 5.5t13.5 -5.5t5.5 -13.5zM102 321q0 -8 -5.5 -13t-13.5 -5t-13 5t-5 13t5 13.5t13 5.5t13.5 -5.5t5.5 -13.5z
M155 356q0 -8 -5.5 -13t-13.5 -5t-13 5t-5 13t5 13.5t13 5.5t13.5 -5.5t5.5 -13.5zM368 266q0 -8 -5 -13t-13 -5t-13.5 5t-5.5 13t5.5 13.5t13.5 5.5t13 -5.5t5 -13.5zM333 321q0 -8 -5 -13t-13 -5t-13.5 5t-5.5 13t5.5 13.5t13.5 5.5t13 -5.5t5 -13.5zM280 356q0 -8 -5 -13
t-13 -5t-13.5 5t-5.5 13t5.5 13.5t13.5 5.5t13 -5.5t5 -13.5zM67 143q0 -8 -5.5 -13.5t-13.5 -5.5t-13 5.5t-5 13.5t5 13t13 5t13.5 -5t5.5 -13zM102 88q0 -8 -5.5 -13.5t-13.5 -5.5t-13 5.5t-5 13.5t5 13t13 5t13.5 -5t5.5 -13zM155 53q0 -8 -5.5 -13.5t-13.5 -5.5t-13 5.5
t-5 13.5t5 13t13 5t13.5 -5t5.5 -13zM369 143q0 -8 -5 -13.5t-13 -5.5t-13.5 5.5t-5.5 13.5t5.5 13t13.5 5t13 -5t5 -13zM334 88q0 -8 -5 -13.5t-13 -5.5t-13.5 5.5t-5.5 13.5t5.5 13t13.5 5t13 -5t5 -13zM281 53q0 -8 -5 -13.5t-13 -5.5t-13.5 5.5t-5.5 13.5t5.5 13t13.5 5
t13 -5t5 -13z" />
    <glyph glyph-name="A" unicode="A" horiz-adv-x="240" 
d="M107 400h-2q-3 0 -9 -2q-9 -3 -36 -17q-20 -11 -35 -22q-39 -30 -58 -53q-6 -7 -6 -10q-2 -9 3 -11q5 -4 11 2q35 36 57 51q20 14 32 20q7 4 11 5t5 1q32 -12 79 -42q10 -6 31 -23q2 -2 5 -4t3.5 -2.5t1.5 -2.5t0 -4q-11 -49 -21.5 -117t-15.5 -111l-5 -44q-2 -9 2 -11
q8 -5 21 4q5 4 6 10q33 158 49 276q2 14 4 26q2 3 0.5 5t-3 1.5t-9 3.5t-17.5 12q-2 1 -10 7.5t-13 9.5q-56 34 -73 40q-4 2 -8 2z" />
    <glyph glyph-name="B" unicode="B" horiz-adv-x="360" 
d="M346 421q-6 0 -10.5 -3.5t-4.5 -9.5l-48 -363q-103 1 -154 -7q-3 0 -7 -1q2 36 6 70q11 102 27 149q5 14 29 50q18 26 22 35q5 12 5 22q0 13 -8 23q-11 13 -32 14q-5 0 -11 -1q-22 -3 -38 -16q-15 -12 -22 -30q-8 -24 4 -41q12 -16 38 -15q-10 -16 -15 -31
q-18 -51 -29 -156q-5 -43 -7 -86q-7 -4 -14 -9q0 -1 -3 -3t-4 -3l-4 -3l-2 -4l-2 -4l-2 -3l1 -4q3 -7 15 -3q14 5 47 11q23 3 66 4t75 1l32 -1q6 0 10 3.5t5 9.5l49 388q1 7 -3 12t-11 5zM153 370h5q12 0 13 -7q5 -28 -12 -29q-14 -1 -19 6q-3 5 -3 10q-1 11 4 16q7 4 12 4z
" />
    <glyph glyph-name="C" unicode="C" 
d="M218 368q0 -8 -5.5 -13.5t-13.5 -5.5t-13.5 5.5t-5.5 13.5t5.5 13.5t13.5 5.5t13.5 -5.5t5.5 -13.5zM218 41q0 -8 -5.5 -13.5t-13.5 -5.5t-13.5 5.5t-5.5 13.5t5.5 13.5t13.5 5.5t13.5 -5.5t5.5 -13.5zM54 205q0 -8 -5.5 -13t-13.5 -5t-13 5t-5 13t5 13.5t13 5.5
t13.5 -5.5t5.5 -13.5zM382 205q0 -8 -5.5 -13t-13.5 -5t-13 5t-5 13t5 13.5t13 5.5t13.5 -5.5t5.5 -13.5zM67 266q0 -8 -5.5 -13t-13.5 -5t-13 5t-5 13t5 13.5t13 5.5t13.5 -5.5t5.5 -13.5zM102 321q0 -8 -5.5 -13t-13.5 -5t-13 5t-5 13t5 13.5t13 5.5t13.5 -5.5t5.5 -13.5z
M155 356q0 -8 -5.5 -13t-13.5 -5t-13 5t-5 13t5 13.5t13 5.5t13.5 -5.5t5.5 -13.5zM368 266q0 -8 -5 -13t-13 -5t-13.5 5t-5.5 13t5.5 13.5t13.5 5.5t13 -5.5t5 -13.5zM333 321q0 -8 -5 -13t-13 -5t-13.5 5t-5.5 13t5.5 13.5t13.5 5.5t13 -5.5t5 -13.5zM280 356q0 -8 -5 -13
t-13 -5t-13.5 5t-5.5 13t5.5 13.5t13.5 5.5t13 -5.5t5 -13.5zM67 143q0 -8 -5.5 -13.5t-13.5 -5.5t-13 5.5t-5 13.5t5 13t13 5t13.5 -5t5.5 -13zM102 88q0 -8 -5.5 -13.5t-13.5 -5.5t-13 5.5t-5 13.5t5 13t13 5t13.5 -5t5.5 -13zM155 53q0 -8 -5.5 -13.5t-13.5 -5.5t-13 5.5
t-5 13.5t5 13t13 5t13.5 -5t5.5 -13zM369 143q0 -8 -5 -13.5t-13 -5.5t-13.5 5.5t-5.5 13.5t5.5 13t13.5 5t13 -5t5 -13zM334 88q0 -8 -5 -13.5t-13 -5.5t-13.5 5.5t-5.5 13.5t5.5 13t13.5 5t13 -5t5 -13zM281 53q0 -8 -5 -13.5t-13 -5.5t-13.5 5.5t-5.5 13.5t5.5 13t13.5 5
t13 -5t5 -13z" />
    <glyph glyph-name="D" unicode="D" 
d="M218 368q0 -8 -5.5 -13.5t-13.5 -5.5t-13.5 5.5t-5.5 13.5t5.5 13.5t13.5 5.5t13.5 -5.5t5.5 -13.5zM218 41q0 -8 -5.5 -13.5t-13.5 -5.5t-13.5 5.5t-5.5 13.5t5.5 13.5t13.5 5.5t13.5 -5.5t5.5 -13.5zM54 205q0 -8 -5.5 -13t-13.5 -5t-13 5t-5 13t5 13.5t13 5.5
t13.5 -5.5t5.5 -13.5zM382 205q0 -8 -5.5 -13t-13.5 -5t-13 5t-5 13t5 13.5t13 5.5t13.5 -5.5t5.5 -13.5zM67 266q0 -8 -5.5 -13t-13.5 -5t-13 5t-5 13t5 13.5t13 5.5t13.5 -5.5t5.5 -13.5zM102 321q0 -8 -5.5 -13t-13.5 -5t-13 5t-5 13t5 13.5t13 5.5t13.5 -5.5t5.5 -13.5z
M155 356q0 -8 -5.5 -13t-13.5 -5t-13 5t-5 13t5 13.5t13 5.5t13.5 -5.5t5.5 -13.5zM368 266q0 -8 -5 -13t-13 -5t-13.5 5t-5.5 13t5.5 13.5t13.5 5.5t13 -5.5t5 -13.5zM333 321q0 -8 -5 -13t-13 -5t-13.5 5t-5.5 13t5.5 13.5t13.5 5.5t13 -5.5t5 -13.5zM280 356q0 -8 -5 -13
t-13 -5t-13.5 5t-5.5 13t5.5 13.5t13.5 5.5t13 -5.5t5 -13.5zM67 143q0 -8 -5.5 -13.5t-13.5 -5.5t-13 5.5t-5 13.5t5 13t13 5t13.5 -5t5.5 -13zM102 88q0 -8 -5.5 -13.5t-13.5 -5.5t-13 5.5t-5 13.5t5 13t13 5t13.5 -5t5.5 -13zM155 53q0 -8 -5.5 -13.5t-13.5 -5.5t-13 5.5
t-5 13.5t5 13t13 5t13.5 -5t5.5 -13zM369 143q0 -8 -5 -13.5t-13 -5.5t-13.5 5.5t-5.5 13.5t5.5 13t13.5 5t13 -5t5 -13zM334 88q0 -8 -5 -13.5t-13 -5.5t-13.5 5.5t-5.5 13.5t5.5 13t13.5 5t13 -5t5 -13zM281 53q0 -8 -5 -13.5t-13 -5.5t-13.5 5.5t-5.5 13.5t5.5 13t13.5 5
t13 -5t5 -13z" />
    <glyph glyph-name="E" unicode="E" 
d="M218 368q0 -8 -5.5 -13.5t-13.5 -5.5t-13.5 5.5t-5.5 13.5t5.5 13.5t13.5 5.5t13.5 -5.5t5.5 -13.5zM218 41q0 -8 -5.5 -13.5t-13.5 -5.5t-13.5 5.5t-5.5 13.5t5.5 13.5t13.5 5.5t13.5 -5.5t5.5 -13.5zM54 205q0 -8 -5.5 -13t-13.5 -5t-13 5t-5 13t5 13.5t13 5.5
t13.5 -5.5t5.5 -13.5zM382 205q0 -8 -5.5 -13t-13.5 -5t-13 5t-5 13t5 13.5t13 5.5t13.5 -5.5t5.5 -13.5zM67 266q0 -8 -5.5 -13t-13.5 -5t-13 5t-5 13t5 13.5t13 5.5t13.5 -5.5t5.5 -13.5zM102 321q0 -8 -5.5 -13t-13.5 -5t-13 5t-5 13t5 13.5t13 5.5t13.5 -5.5t5.5 -13.5z
M155 356q0 -8 -5.5 -13t-13.5 -5t-13 5t-5 13t5 13.5t13 5.5t13.5 -5.5t5.5 -13.5zM368 266q0 -8 -5 -13t-13 -5t-13.5 5t-5.5 13t5.5 13.5t13.5 5.5t13 -5.5t5 -13.5zM333 321q0 -8 -5 -13t-13 -5t-13.5 5t-5.5 13t5.5 13.5t13.5 5.5t13 -5.5t5 -13.5zM280 356q0 -8 -5 -13
t-13 -5t-13.5 5t-5.5 13t5.5 13.5t13.5 5.5t13 -5.5t5 -13.5zM67 143q0 -8 -5.5 -13.5t-13.5 -5.5t-13 5.5t-5 13.5t5 13t13 5t13.5 -5t5.5 -13zM102 88q0 -8 -5.5 -13.5t-13.5 -5.5t-13 5.5t-5 13.5t5 13t13 5t13.5 -5t5.5 -13zM155 53q0 -8 -5.5 -13.5t-13.5 -5.5t-13 5.5
t-5 13.5t5 13t13 5t13.5 -5t5.5 -13zM369 143q0 -8 -5 -13.5t-13 -5.5t-13.5 5.5t-5.5 13.5t5.5 13t13.5 5t13 -5t5 -13zM334 88q0 -8 -5 -13.5t-13 -5.5t-13.5 5.5t-5.5 13.5t5.5 13t13.5 5t13 -5t5 -13zM281 53q0 -8 -5 -13.5t-13 -5.5t-13.5 5.5t-5.5 13.5t5.5 13t13.5 5
t13 -5t5 -13z" />
    <glyph glyph-name="F" unicode="F" 
d="M218 368q0 -8 -5.5 -13.5t-13.5 -5.5t-13.5 5.5t-5.5 13.5t5.5 13.5t13.5 5.5t13.5 -5.5t5.5 -13.5zM218 41q0 -8 -5.5 -13.5t-13.5 -5.5t-13.5 5.5t-5.5 13.5t5.5 13.5t13.5 5.5t13.5 -5.5t5.5 -13.5zM54 205q0 -8 -5.5 -13t-13.5 -5t-13 5t-5 13t5 13.5t13 5.5
t13.5 -5.5t5.5 -13.5zM382 205q0 -8 -5.5 -13t-13.5 -5t-13 5t-5 13t5 13.5t13 5.5t13.5 -5.5t5.5 -13.5zM67 266q0 -8 -5.5 -13t-13.5 -5t-13 5t-5 13t5 13.5t13 5.5t13.5 -5.5t5.5 -13.5zM102 321q0 -8 -5.5 -13t-13.5 -5t-13 5t-5 13t5 13.5t13 5.5t13.5 -5.5t5.5 -13.5z
M155 356q0 -8 -5.5 -13t-13.5 -5t-13 5t-5 13t5 13.5t13 5.5t13.5 -5.5t5.5 -13.5zM368 266q0 -8 -5 -13t-13 -5t-13.5 5t-5.5 13t5.5 13.5t13.5 5.5t13 -5.5t5 -13.5zM333 321q0 -8 -5 -13t-13 -5t-13.5 5t-5.5 13t5.5 13.5t13.5 5.5t13 -5.5t5 -13.5zM280 356q0 -8 -5 -13
t-13 -5t-13.5 5t-5.5 13t5.5 13.5t13.5 5.5t13 -5.5t5 -13.5zM67 143q0 -8 -5.5 -13.5t-13.5 -5.5t-13 5.5t-5 13.5t5 13t13 5t13.5 -5t5.5 -13zM102 88q0 -8 -5.5 -13.5t-13.5 -5.5t-13 5.5t-5 13.5t5 13t13 5t13.5 -5t5.5 -13zM155 53q0 -8 -5.5 -13.5t-13.5 -5.5t-13 5.5
t-5 13.5t5 13t13 5t13.5 -5t5.5 -13zM369 143q0 -8 -5 -13.5t-13 -5.5t-13.5 5.5t-5.5 13.5t5.5 13t13.5 5t13 -5t5 -13zM334 88q0 -8 -5 -13.5t-13 -5.5t-13.5 5.5t-5.5 13.5t5.5 13t13.5 5t13 -5t5 -13zM281 53q0 -8 -5 -13.5t-13 -5.5t-13.5 5.5t-5.5 13.5t5.5 13t13.5 5
t13 -5t5 -13z" />
    <glyph glyph-name="G" unicode="G" 
d="M218 368q0 -8 -5.5 -13.5t-13.5 -5.5t-13.5 5.5t-5.5 13.5t5.5 13.5t13.5 5.5t13.5 -5.5t5.5 -13.5zM218 41q0 -8 -5.5 -13.5t-13.5 -5.5t-13.5 5.5t-5.5 13.5t5.5 13.5t13.5 5.5t13.5 -5.5t5.5 -13.5zM54 205q0 -8 -5.5 -13t-13.5 -5t-13 5t-5 13t5 13.5t13 5.5
t13.5 -5.5t5.5 -13.5zM382 205q0 -8 -5.5 -13t-13.5 -5t-13 5t-5 13t5 13.5t13 5.5t13.5 -5.5t5.5 -13.5zM67 266q0 -8 -5.5 -13t-13.5 -5t-13 5t-5 13t5 13.5t13 5.5t13.5 -5.5t5.5 -13.5zM102 321q0 -8 -5.5 -13t-13.5 -5t-13 5t-5 13t5 13.5t13 5.5t13.5 -5.5t5.5 -13.5z
M155 356q0 -8 -5.5 -13t-13.5 -5t-13 5t-5 13t5 13.5t13 5.5t13.5 -5.5t5.5 -13.5zM368 266q0 -8 -5 -13t-13 -5t-13.5 5t-5.5 13t5.5 13.5t13.5 5.5t13 -5.5t5 -13.5zM333 321q0 -8 -5 -13t-13 -5t-13.5 5t-5.5 13t5.5 13.5t13.5 5.5t13 -5.5t5 -13.5zM280 356q0 -8 -5 -13
t-13 -5t-13.5 5t-5.5 13t5.5 13.5t13.5 5.5t13 -5.5t5 -13.5zM67 143q0 -8 -5.5 -13.5t-13.5 -5.5t-13 5.5t-5 13.5t5 13t13 5t13.5 -5t5.5 -13zM102 88q0 -8 -5.5 -13.5t-13.5 -5.5t-13 5.5t-5 13.5t5 13t13 5t13.5 -5t5.5 -13zM155 53q0 -8 -5.5 -13.5t-13.5 -5.5t-13 5.5
t-5 13.5t5 13t13 5t13.5 -5t5.5 -13zM369 143q0 -8 -5 -13.5t-13 -5.5t-13.5 5.5t-5.5 13.5t5.5 13t13.5 5t13 -5t5 -13zM334 88q0 -8 -5 -13.5t-13 -5.5t-13.5 5.5t-5.5 13.5t5.5 13t13.5 5t13 -5t5 -13zM281 53q0 -8 -5 -13.5t-13 -5.5t-13.5 5.5t-5.5 13.5t5.5 13t13.5 5
t13 -5t5 -13z" />
    <glyph glyph-name="H" unicode="H" 
d="M218 368q0 -8 -5.5 -13.5t-13.5 -5.5t-13.5 5.5t-5.5 13.5t5.5 13.5t13.5 5.5t13.5 -5.5t5.5 -13.5zM218 41q0 -8 -5.5 -13.5t-13.5 -5.5t-13.5 5.5t-5.5 13.5t5.5 13.5t13.5 5.5t13.5 -5.5t5.5 -13.5zM54 205q0 -8 -5.5 -13t-13.5 -5t-13 5t-5 13t5 13.5t13 5.5
t13.5 -5.5t5.5 -13.5zM382 205q0 -8 -5.5 -13t-13.5 -5t-13 5t-5 13t5 13.5t13 5.5t13.5 -5.5t5.5 -13.5zM67 266q0 -8 -5.5 -13t-13.5 -5t-13 5t-5 13t5 13.5t13 5.5t13.5 -5.5t5.5 -13.5zM102 321q0 -8 -5.5 -13t-13.5 -5t-13 5t-5 13t5 13.5t13 5.5t13.5 -5.5t5.5 -13.5z
M155 356q0 -8 -5.5 -13t-13.5 -5t-13 5t-5 13t5 13.5t13 5.5t13.5 -5.5t5.5 -13.5zM368 266q0 -8 -5 -13t-13 -5t-13.5 5t-5.5 13t5.5 13.5t13.5 5.5t13 -5.5t5 -13.5zM333 321q0 -8 -5 -13t-13 -5t-13.5 5t-5.5 13t5.5 13.5t13.5 5.5t13 -5.5t5 -13.5zM280 356q0 -8 -5 -13
t-13 -5t-13.5 5t-5.5 13t5.5 13.5t13.5 5.5t13 -5.5t5 -13.5zM67 143q0 -8 -5.5 -13.5t-13.5 -5.5t-13 5.5t-5 13.5t5 13t13 5t13.5 -5t5.5 -13zM102 88q0 -8 -5.5 -13.5t-13.5 -5.5t-13 5.5t-5 13.5t5 13t13 5t13.5 -5t5.5 -13zM155 53q0 -8 -5.5 -13.5t-13.5 -5.5t-13 5.5
t-5 13.5t5 13t13 5t13.5 -5t5.5 -13zM369 143q0 -8 -5 -13.5t-13 -5.5t-13.5 5.5t-5.5 13.5t5.5 13t13.5 5t13 -5t5 -13zM334 88q0 -8 -5 -13.5t-13 -5.5t-13.5 5.5t-5.5 13.5t5.5 13t13.5 5t13 -5t5 -13zM281 53q0 -8 -5 -13.5t-13 -5.5t-13.5 5.5t-5.5 13.5t5.5 13t13.5 5
t13 -5t5 -13z" />
    <glyph glyph-name="I" unicode="I" horiz-adv-x="0" 
d="M21 800h-5q-5 0 -9 -3.5t-5 -9.5l-34 -216v1l-1 1q-48 52 -162 52q-69 1 -145 -37q-8 -4 -20 -13.5t-20 -16.5l-8 -8q4 1 10.5 3t21 5t22.5 2q47 -4 105.5 -25.5t94.5 -42.5q54 -33 86 -77q25 -35 25 -60q20 30 27 50q24 73 -13 135l49 245q1 7 -4 12q-3 3 -15 3z
M-205 596q4 0 9 -1q8 0 15 -1q55 -6 108 -51q22 -17 30.5 -38.5t7.5 -54.5q-12 27 -34 46t-58 40q-61 35 -146 48q35 12 68 12z" />
    <glyph glyph-name="J" unicode="J" horiz-adv-x="280" 
d="M164 400q-20 0 -40 -10q-41 -21 -74 -52q-46 -44 -73 -95q-13 -18 -3 -25q5 -3 13 7q56 75 82 96q37 28 67 34q12 4 27.5 3.5t28.5 -9.5q33 -22 46 -44q-1 -28 -4 -46q-12 -67 -14 -80q-1 30 -2 44q0 9 1.5 24.5t1.5 19.5q1 28 -11 46q-9 12 -22 19q-11 5 -21 4
q-8 0 -17 -10q-22 -23 -23 -44q-2 -33 21 -54q4 -4 8.5 -5t7 0l7.5 3l7 4q1 1 3 3.5t3 2.5q5 -150 1 -225q-1 -7 4 -11q5 -7 10 -6q9 3 15 15.5t7 19.5v1q10 33 32 143q10 50 16 85q2 9 5 23.5t4.5 24t1.5 14.5q0 4 -2 7q-32 42 -53 54q-27 17 -59 19h-2zM169 297
q6 0 11.5 -4.5t7.5 -9.5q1 -4 -1.5 -9t-6.5 -6q-6 -1 -12 4t-7 11q-4 10 4 13q2 1 4 1z" />
    <glyph glyph-name="K" unicode="K" horiz-adv-x="360" 
d="M205 400h-5q-38 -3 -70 -25t-55 -50l-15 -25q22 4 37 -9q10 -8 16 -14q-1 -4 -2 -15.5t-2 -19.5q-4 -36 -9 -93.5t-8 -95.5t-3 -40q0 -6 4 -11q2 -3 10 1q22 12 22 28q10 128 20 207q5 43 6 45l1 3l2 4l2 4l4 5l9 8q13 11 10 19q-2 4 -15 3q-5 0 -9 -4q-5 -5 -13 -10
q-2 2 -6 4t-5 3q-3 2 -8.5 4.5t-7.5 3.5q5 5 9 8.5t7 5.5t8.5 5.5t10.5 6.5q14 10 26 10.5t22 -3.5q13 -2 26.5 -9.5t28.5 -18.5t22 -15l20 -10q2 -1 5 -2t3.5 -3t-0.5 -11v-3q-5 -48 -10.5 -117.5t-8.5 -113t-3 -44.5q-1 -7 3 -11q3 -4 10 0q7 3 14.5 12.5t8.5 12.5
q18 162 28 273q0 3 1 7.5t1.5 7t0.5 5t-2 3.5t-6 1q-5 0 -13 5.5t-18 13.5t-16 12t-21.5 14.5t-27 16.5t-23.5 9q-8 2 -16 2z" />
    <glyph glyph-name="L" unicode="L" horiz-adv-x="360" 
d="M185 402q-4 1 -7 0q-15 -1 -25 -7q-50 -29 -88.5 -69.5t-84.5 -103.5q-5 -6 -9.5 -18.5t-0.5 -16.5q4 0 5 -0.5t4.5 2.5t4.5 4t4.5 5t3.5 5q88 120 174 160q10 5 36 2q33 -4 63 -18q10 -4 25.5 -15.5t22.5 -15.5q3 -1 9 -4l7 -3q3 -1 2 -5q-7 -63 -18 -131q-3 16 -7 30.5
t-11 35t-10 28.5q-11 36 -40 71q-12 16 -26 20q-4 2 -8 2q-11 0 -30 -16t-39 -65q-17 -43 -29 -98q-12 -49 -15 -90l-1 -16q-2 -44 11 -62q13 -16 36 -14q19 2 32 14q19 18 22 49q3 36 -18 52q-20 15 -38 9v-1h-2q0 42 2 53q7 51 23 92q19 47 29 56q2 2 4 1q5 -2 12 -11
q22 -26 35 -56q31 -65 41 -114.5t0 -137.5q-2 -5 1 -10q2 -5 8 -7t12 1q1 0 2 1q3 2 4 5q11 13 12 17q20 137 40 298q1 3 1.5 8t1 8t0 6.5t-2.5 4.5q-2 3 -8.5 3.5t-10.5 2.5q-45 33 -61 39q-29 13 -77 19q-14 1 -23 1zM146 87q7 1 12.5 -7.5t6.5 -17.5q1 -6 -2 -12.5
t-8 -7.5q-6 -1 -12 6t-8 14q-1 8 1.5 16t8.5 9h1z" />
    <glyph glyph-name="M" unicode="M" 
d="M218 368q0 -8 -5.5 -13.5t-13.5 -5.5t-13.5 5.5t-5.5 13.5t5.5 13.5t13.5 5.5t13.5 -5.5t5.5 -13.5zM218 41q0 -8 -5.5 -13.5t-13.5 -5.5t-13.5 5.5t-5.5 13.5t5.5 13.5t13.5 5.5t13.5 -5.5t5.5 -13.5zM54 205q0 -8 -5.5 -13t-13.5 -5t-13 5t-5 13t5 13.5t13 5.5
t13.5 -5.5t5.5 -13.5zM382 205q0 -8 -5.5 -13t-13.5 -5t-13 5t-5 13t5 13.5t13 5.5t13.5 -5.5t5.5 -13.5zM67 266q0 -8 -5.5 -13t-13.5 -5t-13 5t-5 13t5 13.5t13 5.5t13.5 -5.5t5.5 -13.5zM102 321q0 -8 -5.5 -13t-13.5 -5t-13 5t-5 13t5 13.5t13 5.5t13.5 -5.5t5.5 -13.5z
M155 356q0 -8 -5.5 -13t-13.5 -5t-13 5t-5 13t5 13.5t13 5.5t13.5 -5.5t5.5 -13.5zM368 266q0 -8 -5 -13t-13 -5t-13.5 5t-5.5 13t5.5 13.5t13.5 5.5t13 -5.5t5 -13.5zM333 321q0 -8 -5 -13t-13 -5t-13.5 5t-5.5 13t5.5 13.5t13.5 5.5t13 -5.5t5 -13.5zM280 356q0 -8 -5 -13
t-13 -5t-13.5 5t-5.5 13t5.5 13.5t13.5 5.5t13 -5.5t5 -13.5zM67 143q0 -8 -5.5 -13.5t-13.5 -5.5t-13 5.5t-5 13.5t5 13t13 5t13.5 -5t5.5 -13zM102 88q0 -8 -5.5 -13.5t-13.5 -5.5t-13 5.5t-5 13.5t5 13t13 5t13.5 -5t5.5 -13zM155 53q0 -8 -5.5 -13.5t-13.5 -5.5t-13 5.5
t-5 13.5t5 13t13 5t13.5 -5t5.5 -13zM369 143q0 -8 -5 -13.5t-13 -5.5t-13.5 5.5t-5.5 13.5t5.5 13t13.5 5t13 -5t5 -13zM334 88q0 -8 -5 -13.5t-13 -5.5t-13.5 5.5t-5.5 13.5t5.5 13t13.5 5t13 -5t5 -13zM281 53q0 -8 -5 -13.5t-13 -5.5t-13.5 5.5t-5.5 13.5t5.5 13t13.5 5
t13 -5t5 -13z" />
    <glyph glyph-name="N" unicode="N" 
d="M218 368q0 -8 -5.5 -13.5t-13.5 -5.5t-13.5 5.5t-5.5 13.5t5.5 13.5t13.5 5.5t13.5 -5.5t5.5 -13.5zM218 41q0 -8 -5.5 -13.5t-13.5 -5.5t-13.5 5.5t-5.5 13.5t5.5 13.5t13.5 5.5t13.5 -5.5t5.5 -13.5zM54 205q0 -8 -5.5 -13t-13.5 -5t-13 5t-5 13t5 13.5t13 5.5
t13.5 -5.5t5.5 -13.5zM382 205q0 -8 -5.5 -13t-13.5 -5t-13 5t-5 13t5 13.5t13 5.5t13.5 -5.5t5.5 -13.5zM67 266q0 -8 -5.5 -13t-13.5 -5t-13 5t-5 13t5 13.5t13 5.5t13.5 -5.5t5.5 -13.5zM102 321q0 -8 -5.5 -13t-13.5 -5t-13 5t-5 13t5 13.5t13 5.5t13.5 -5.5t5.5 -13.5z
M155 356q0 -8 -5.5 -13t-13.5 -5t-13 5t-5 13t5 13.5t13 5.5t13.5 -5.5t5.5 -13.5zM368 266q0 -8 -5 -13t-13 -5t-13.5 5t-5.5 13t5.5 13.5t13.5 5.5t13 -5.5t5 -13.5zM333 321q0 -8 -5 -13t-13 -5t-13.5 5t-5.5 13t5.5 13.5t13.5 5.5t13 -5.5t5 -13.5zM280 356q0 -8 -5 -13
t-13 -5t-13.5 5t-5.5 13t5.5 13.5t13.5 5.5t13 -5.5t5 -13.5zM67 143q0 -8 -5.5 -13.5t-13.5 -5.5t-13 5.5t-5 13.5t5 13t13 5t13.5 -5t5.5 -13zM102 88q0 -8 -5.5 -13.5t-13.5 -5.5t-13 5.5t-5 13.5t5 13t13 5t13.5 -5t5.5 -13zM155 53q0 -8 -5.5 -13.5t-13.5 -5.5t-13 5.5
t-5 13.5t5 13t13 5t13.5 -5t5.5 -13zM369 143q0 -8 -5 -13.5t-13 -5.5t-13.5 5.5t-5.5 13.5t5.5 13t13.5 5t13 -5t5 -13zM334 88q0 -8 -5 -13.5t-13 -5.5t-13.5 5.5t-5.5 13.5t5.5 13t13.5 5t13 -5t5 -13zM281 53q0 -8 -5 -13.5t-13 -5.5t-13.5 5.5t-5.5 13.5t5.5 13t13.5 5
t13 -5t5 -13z" />
    <glyph glyph-name="O" unicode="O" horiz-adv-x="280" 
d="M173 400q-34 0 -48 -18q-19 -27 -42.5 -66t-30.5 -49q-4 -5 -3 -14t6 -11q4 -1 7 1.5t7 8.5l4 7q66 87 69 92q18 13 52 -6q23 -13 32 -23q4 -4 8.5 -8t4.5 -4.5t1.5 -5t-1.5 -8.5q-2 -5 -3.5 -9t-2.5 -8.5t-2 -7.5t-2 -9.5t-1.5 -10t-1.5 -12t-1 -13.5t-1 -17t-2 -19
q-2 -21 -7.5 -67.5t-6.5 -69.5q-2 -6 -12 -10q-13 -5 -31 -5q-31 4 -38 12q-3 93 4 134q11 -4 21 1q38 20 45 57q6 34 -5 58q-7 14 -21 18q-13 4 -25 -4q-7 -4 -14 -14q-8 -11 -19 -49q-10 0 -14 -8q-4 -7 0 -35q1 -9 3 -11q-8 -65 -5 -172q1 -20 25 -31q18 -8 41 -10
q25 -1 44 7q25 10 30 31q1 4 3 19q1 8 12 145q5 65 16 103q6 19 5.5 23.5t-11.5 23.5q-44 61 -86 64h-3zM160 270q5 0 6 -6q3 -14 -1.5 -23t-14.5 -10q-4 0 -11 3q3 18 6 24q7 12 15 12z" />
    <glyph glyph-name="P" unicode="P" 
d="M218 368q0 -8 -5.5 -13.5t-13.5 -5.5t-13.5 5.5t-5.5 13.5t5.5 13.5t13.5 5.5t13.5 -5.5t5.5 -13.5zM218 41q0 -8 -5.5 -13.5t-13.5 -5.5t-13.5 5.5t-5.5 13.5t5.5 13.5t13.5 5.5t13.5 -5.5t5.5 -13.5zM54 205q0 -8 -5.5 -13t-13.5 -5t-13 5t-5 13t5 13.5t13 5.5
t13.5 -5.5t5.5 -13.5zM382 205q0 -8 -5.5 -13t-13.5 -5t-13 5t-5 13t5 13.5t13 5.5t13.5 -5.5t5.5 -13.5zM67 266q0 -8 -5.5 -13t-13.5 -5t-13 5t-5 13t5 13.5t13 5.5t13.5 -5.5t5.5 -13.5zM102 321q0 -8 -5.5 -13t-13.5 -5t-13 5t-5 13t5 13.5t13 5.5t13.5 -5.5t5.5 -13.5z
M155 356q0 -8 -5.5 -13t-13.5 -5t-13 5t-5 13t5 13.5t13 5.5t13.5 -5.5t5.5 -13.5zM368 266q0 -8 -5 -13t-13 -5t-13.5 5t-5.5 13t5.5 13.5t13.5 5.5t13 -5.5t5 -13.5zM333 321q0 -8 -5 -13t-13 -5t-13.5 5t-5.5 13t5.5 13.5t13.5 5.5t13 -5.5t5 -13.5zM280 356q0 -8 -5 -13
t-13 -5t-13.5 5t-5.5 13t5.5 13.5t13.5 5.5t13 -5.5t5 -13.5zM67 143q0 -8 -5.5 -13.5t-13.5 -5.5t-13 5.5t-5 13.5t5 13t13 5t13.5 -5t5.5 -13zM102 88q0 -8 -5.5 -13.5t-13.5 -5.5t-13 5.5t-5 13.5t5 13t13 5t13.5 -5t5.5 -13zM155 53q0 -8 -5.5 -13.5t-13.5 -5.5t-13 5.5
t-5 13.5t5 13t13 5t13.5 -5t5.5 -13zM369 143q0 -8 -5 -13.5t-13 -5.5t-13.5 5.5t-5.5 13.5t5.5 13t13.5 5t13 -5t5 -13zM334 88q0 -8 -5 -13.5t-13 -5.5t-13.5 5.5t-5.5 13.5t5.5 13t13.5 5t13 -5t5 -13zM281 53q0 -8 -5 -13.5t-13 -5.5t-13.5 5.5t-5.5 13.5t5.5 13t13.5 5
t13 -5t5 -13z" />
    <glyph glyph-name="Q" unicode="Q" 
d="M218 368q0 -8 -5.5 -13.5t-13.5 -5.5t-13.5 5.5t-5.5 13.5t5.5 13.5t13.5 5.5t13.5 -5.5t5.5 -13.5zM218 41q0 -8 -5.5 -13.5t-13.5 -5.5t-13.5 5.5t-5.5 13.5t5.5 13.5t13.5 5.5t13.5 -5.5t5.5 -13.5zM54 205q0 -8 -5.5 -13t-13.5 -5t-13 5t-5 13t5 13.5t13 5.5
t13.5 -5.5t5.5 -13.5zM382 205q0 -8 -5.5 -13t-13.5 -5t-13 5t-5 13t5 13.5t13 5.5t13.5 -5.5t5.5 -13.5zM67 266q0 -8 -5.5 -13t-13.5 -5t-13 5t-5 13t5 13.5t13 5.5t13.5 -5.5t5.5 -13.5zM102 321q0 -8 -5.5 -13t-13.5 -5t-13 5t-5 13t5 13.5t13 5.5t13.5 -5.5t5.5 -13.5z
M155 356q0 -8 -5.5 -13t-13.5 -5t-13 5t-5 13t5 13.5t13 5.5t13.5 -5.5t5.5 -13.5zM368 266q0 -8 -5 -13t-13 -5t-13.5 5t-5.5 13t5.5 13.5t13.5 5.5t13 -5.5t5 -13.5zM333 321q0 -8 -5 -13t-13 -5t-13.5 5t-5.5 13t5.5 13.5t13.5 5.5t13 -5.5t5 -13.5zM280 356q0 -8 -5 -13
t-13 -5t-13.5 5t-5.5 13t5.5 13.5t13.5 5.5t13 -5.5t5 -13.5zM67 143q0 -8 -5.5 -13.5t-13.5 -5.5t-13 5.5t-5 13.5t5 13t13 5t13.5 -5t5.5 -13zM102 88q0 -8 -5.5 -13.5t-13.5 -5.5t-13 5.5t-5 13.5t5 13t13 5t13.5 -5t5.5 -13zM155 53q0 -8 -5.5 -13.5t-13.5 -5.5t-13 5.5
t-5 13.5t5 13t13 5t13.5 -5t5.5 -13zM369 143q0 -8 -5 -13.5t-13 -5.5t-13.5 5.5t-5.5 13.5t5.5 13t13.5 5t13 -5t5 -13zM334 88q0 -8 -5 -13.5t-13 -5.5t-13.5 5.5t-5.5 13.5t5.5 13t13.5 5t13 -5t5 -13zM281 53q0 -8 -5 -13.5t-13 -5.5t-13.5 5.5t-5.5 13.5t5.5 13t13.5 5
t13 -5t5 -13z" />
    <glyph glyph-name="R" unicode="R" horiz-adv-x="280" 
d="M214 405h-2q-10 0 -26 -6q-28 -9 -45.5 -22.5t-37.5 -35.5q-5 -7 -1 -15q3 -7 23 -7q34 0 50 -9q24 -14 25 -29q0 -9 -2 -23t-6.5 -39t-7.5 -44q-1 -10 -7 -34t-7 -31q-14 7 -30 0q-25 -10 -35 -36q-9 -23 -2 -42q6 -19 25 -27q18 -9 35 -3t30 31q4 7 5.5 15.5t3 20
t2.5 19.5q3 14 6 42t4 38q3 20 8.5 52.5t8.5 53t3 30.5q0 6 -1 9q-7 3 -19.5 16t-20.5 16q-7 4 -24 6q10 7 17 9q19 3 27 -3q31 -24 37 -27q7 -3 23 7q4 2 10.5 8.5t6.5 9.5q2 10 -5 10q-9 0 -15 3t-16 12l-12 13q-15 12 -28 12zM149 80h1q7 -1 12 -8.5t3 -16.5
q-3 -15 -10 -15q-8 0 -14 8.5t-6 16.5q0 5 4.5 10t9.5 5z" />
    <glyph glyph-name="S" unicode="S" horiz-adv-x="280" 
d="M214 405h-2q-10 0 -26 -6q-28 -9 -45.5 -22.5t-37.5 -35.5q-5 -7 -1 -15q3 -7 23 -7q34 0 50 -9q24 -14 25 -29q0 -9 -2 -23t-6.5 -39t-7.5 -44q-1 -10 -7 -34t-7 -31q-14 7 -30 0q-25 -10 -35 -36q-9 -23 -2 -42q6 -19 25 -27q18 -9 35 -3t30 31q4 7 5.5 15.5t3 20
t2.5 19.5q3 14 6 42t4 38q3 20 8.5 52.5t8.5 53t3 30.5q0 6 -1 9q-7 3 -19.5 16t-20.5 16q-7 4 -24 6q10 7 17 9q19 3 27 -3q31 -24 37 -27q7 -3 23 7q4 2 10.5 8.5t6.5 9.5q2 10 -5 10q-9 0 -15 3t-16 12l-12 13q-15 12 -28 12zM149 80h1q7 -1 12 -8.5t3 -16.5
q-3 -15 -10 -15q-8 0 -14 8.5t-6 16.5q0 5 4.5 10t9.5 5z" />
    <glyph glyph-name="T" unicode="T" 
d="M218 368q0 -8 -5.5 -13.5t-13.5 -5.5t-13.5 5.5t-5.5 13.5t5.5 13.5t13.5 5.5t13.5 -5.5t5.5 -13.5zM218 41q0 -8 -5.5 -13.5t-13.5 -5.5t-13.5 5.5t-5.5 13.5t5.5 13.5t13.5 5.5t13.5 -5.5t5.5 -13.5zM54 205q0 -8 -5.5 -13t-13.5 -5t-13 5t-5 13t5 13.5t13 5.5
t13.5 -5.5t5.5 -13.5zM382 205q0 -8 -5.5 -13t-13.5 -5t-13 5t-5 13t5 13.5t13 5.5t13.5 -5.5t5.5 -13.5zM67 266q0 -8 -5.5 -13t-13.5 -5t-13 5t-5 13t5 13.5t13 5.5t13.5 -5.5t5.5 -13.5zM102 321q0 -8 -5.5 -13t-13.5 -5t-13 5t-5 13t5 13.5t13 5.5t13.5 -5.5t5.5 -13.5z
M155 356q0 -8 -5.5 -13t-13.5 -5t-13 5t-5 13t5 13.5t13 5.5t13.5 -5.5t5.5 -13.5zM368 266q0 -8 -5 -13t-13 -5t-13.5 5t-5.5 13t5.5 13.5t13.5 5.5t13 -5.5t5 -13.5zM333 321q0 -8 -5 -13t-13 -5t-13.5 5t-5.5 13t5.5 13.5t13.5 5.5t13 -5.5t5 -13.5zM280 356q0 -8 -5 -13
t-13 -5t-13.5 5t-5.5 13t5.5 13.5t13.5 5.5t13 -5.5t5 -13.5zM67 143q0 -8 -5.5 -13.5t-13.5 -5.5t-13 5.5t-5 13.5t5 13t13 5t13.5 -5t5.5 -13zM102 88q0 -8 -5.5 -13.5t-13.5 -5.5t-13 5.5t-5 13.5t5 13t13 5t13.5 -5t5.5 -13zM155 53q0 -8 -5.5 -13.5t-13.5 -5.5t-13 5.5
t-5 13.5t5 13t13 5t13.5 -5t5.5 -13zM369 143q0 -8 -5 -13.5t-13 -5.5t-13.5 5.5t-5.5 13.5t5.5 13t13.5 5t13 -5t5 -13zM334 88q0 -8 -5 -13.5t-13 -5.5t-13.5 5.5t-5.5 13.5t5.5 13t13.5 5t13 -5t5 -13zM281 53q0 -8 -5 -13.5t-13 -5.5t-13.5 5.5t-5.5 13.5t5.5 13t13.5 5
t13 -5t5 -13z" />
    <glyph glyph-name="U" unicode="U" horiz-adv-x="0" 
d="M-29 769h-2q-26 -1 -46 -26q-19 -24 -18 -50q1 -18 19 -37q18 -18 37 -17q26 1 46 26q19 24 18 50q-1 16 -19.5 35t-34.5 19zM-44 725h5q10 -3 19 -12.5t7 -19.5q-1 -5 -7.5 -7t-12.5 -1q-10 3 -19 12.5t-7 19.5q2 8 15 8zM-195 625q-69 1 -145 -37q-8 -4 -20 -13.5
t-20 -16.5l-8 -8q4 1 10.5 3t21 5t22.5 2q47 -4 105.5 -25.5t94.5 -42.5q54 -33 86 -77q25 -35 25 -60q20 30 27 50q30 93 -37 168q-48 52 -162 52zM-205 596q4 0 9 -1q8 0 15 -1q55 -6 108 -51q22 -17 30.5 -38.5t7.5 -54.5q-12 27 -34 46t-58 40q-61 35 -146 48
q35 12 68 12z" />
    <glyph glyph-name="V" unicode="V" horiz-adv-x="260" 
d="M214 400q-4 0 -9 -1q-24 -3 -39 -18q-16 -16 -18 -43q-3 -29 12 -47q12 -13 34 -16l-2 -6q-12 -57 -27 -161q-17 45 -51 102.5t-51 81.5t-51 69q-2 3 -10.5 7.5t-11.5 4.5q-3 -2 -2 -22.5t5 -36.5q3 -11 7 -16q34 -48 50 -72t43 -68t39.5 -80.5t14.5 -68.5q1 -4 7 -8
q1 -1 2 -1v-1q3 0 9.5 5t10.5 15q7 14 10 38q16 117 36 206q1 5 17 29q15 23 20 45q6 31 -11 49q-12 12 -31 13q-2 0 -3 1zM202 361h3q7 0 11 -3q10 -11 8 -25q-2 -7 -9 -11q-5 -3 -13 -2q-12 1 -15 6q-11 15 0 30q4 5 15 5z" />
    <glyph glyph-name="W" unicode="W" 
d="M218 368q0 -8 -5.5 -13.5t-13.5 -5.5t-13.5 5.5t-5.5 13.5t5.5 13.5t13.5 5.5t13.5 -5.5t5.5 -13.5zM218 41q0 -8 -5.5 -13.5t-13.5 -5.5t-13.5 5.5t-5.5 13.5t5.5 13.5t13.5 5.5t13.5 -5.5t5.5 -13.5zM54 205q0 -8 -5.5 -13t-13.5 -5t-13 5t-5 13t5 13.5t13 5.5
t13.5 -5.5t5.5 -13.5zM382 205q0 -8 -5.5 -13t-13.5 -5t-13 5t-5 13t5 13.5t13 5.5t13.5 -5.5t5.5 -13.5zM67 266q0 -8 -5.5 -13t-13.5 -5t-13 5t-5 13t5 13.5t13 5.5t13.5 -5.5t5.5 -13.5zM102 321q0 -8 -5.5 -13t-13.5 -5t-13 5t-5 13t5 13.5t13 5.5t13.5 -5.5t5.5 -13.5z
M155 356q0 -8 -5.5 -13t-13.5 -5t-13 5t-5 13t5 13.5t13 5.5t13.5 -5.5t5.5 -13.5zM368 266q0 -8 -5 -13t-13 -5t-13.5 5t-5.5 13t5.5 13.5t13.5 5.5t13 -5.5t5 -13.5zM333 321q0 -8 -5 -13t-13 -5t-13.5 5t-5.5 13t5.5 13.5t13.5 5.5t13 -5.5t5 -13.5zM280 356q0 -8 -5 -13
t-13 -5t-13.5 5t-5.5 13t5.5 13.5t13.5 5.5t13 -5.5t5 -13.5zM67 143q0 -8 -5.5 -13.5t-13.5 -5.5t-13 5.5t-5 13.5t5 13t13 5t13.5 -5t5.5 -13zM102 88q0 -8 -5.5 -13.5t-13.5 -5.5t-13 5.5t-5 13.5t5 13t13 5t13.5 -5t5.5 -13zM155 53q0 -8 -5.5 -13.5t-13.5 -5.5t-13 5.5
t-5 13.5t5 13t13 5t13.5 -5t5.5 -13zM369 143q0 -8 -5 -13.5t-13 -5.5t-13.5 5.5t-5.5 13.5t5.5 13t13.5 5t13 -5t5 -13zM334 88q0 -8 -5 -13.5t-13 -5.5t-13.5 5.5t-5.5 13.5t5.5 13t13.5 5t13 -5t5 -13zM281 53q0 -8 -5 -13.5t-13 -5.5t-13.5 5.5t-5.5 13.5t5.5 13t13.5 5
t13 -5t5 -13z" />
    <glyph glyph-name="X" unicode="X" 
d="M218 368q0 -8 -5.5 -13.5t-13.5 -5.5t-13.5 5.5t-5.5 13.5t5.5 13.5t13.5 5.5t13.5 -5.5t5.5 -13.5zM218 41q0 -8 -5.5 -13.5t-13.5 -5.5t-13.5 5.5t-5.5 13.5t5.5 13.5t13.5 5.5t13.5 -5.5t5.5 -13.5zM54 205q0 -8 -5.5 -13t-13.5 -5t-13 5t-5 13t5 13.5t13 5.5
t13.5 -5.5t5.5 -13.5zM382 205q0 -8 -5.5 -13t-13.5 -5t-13 5t-5 13t5 13.5t13 5.5t13.5 -5.5t5.5 -13.5zM67 266q0 -8 -5.5 -13t-13.5 -5t-13 5t-5 13t5 13.5t13 5.5t13.5 -5.5t5.5 -13.5zM102 321q0 -8 -5.5 -13t-13.5 -5t-13 5t-5 13t5 13.5t13 5.5t13.5 -5.5t5.5 -13.5z
M155 356q0 -8 -5.5 -13t-13.5 -5t-13 5t-5 13t5 13.5t13 5.5t13.5 -5.5t5.5 -13.5zM368 266q0 -8 -5 -13t-13 -5t-13.5 5t-5.5 13t5.5 13.5t13.5 5.5t13 -5.5t5 -13.5zM333 321q0 -8 -5 -13t-13 -5t-13.5 5t-5.5 13t5.5 13.5t13.5 5.5t13 -5.5t5 -13.5zM280 356q0 -8 -5 -13
t-13 -5t-13.5 5t-5.5 13t5.5 13.5t13.5 5.5t13 -5.5t5 -13.5zM67 143q0 -8 -5.5 -13.5t-13.5 -5.5t-13 5.5t-5 13.5t5 13t13 5t13.5 -5t5.5 -13zM102 88q0 -8 -5.5 -13.5t-13.5 -5.5t-13 5.5t-5 13.5t5 13t13 5t13.5 -5t5.5 -13zM155 53q0 -8 -5.5 -13.5t-13.5 -5.5t-13 5.5
t-5 13.5t5 13t13 5t13.5 -5t5.5 -13zM369 143q0 -8 -5 -13.5t-13 -5.5t-13.5 5.5t-5.5 13.5t5.5 13t13.5 5t13 -5t5 -13zM334 88q0 -8 -5 -13.5t-13 -5.5t-13.5 5.5t-5.5 13.5t5.5 13t13.5 5t13 -5t5 -13zM281 53q0 -8 -5 -13.5t-13 -5.5t-13.5 5.5t-5.5 13.5t5.5 13t13.5 5
t13 -5t5 -13z" />
    <glyph glyph-name="Y" unicode="Y" 
d="M218 368q0 -8 -5.5 -13.5t-13.5 -5.5t-13.5 5.5t-5.5 13.5t5.5 13.5t13.5 5.5t13.5 -5.5t5.5 -13.5zM218 41q0 -8 -5.5 -13.5t-13.5 -5.5t-13.5 5.5t-5.5 13.5t5.5 13.5t13.5 5.5t13.5 -5.5t5.5 -13.5zM54 205q0 -8 -5.5 -13t-13.5 -5t-13 5t-5 13t5 13.5t13 5.5
t13.5 -5.5t5.5 -13.5zM382 205q0 -8 -5.5 -13t-13.5 -5t-13 5t-5 13t5 13.5t13 5.5t13.5 -5.5t5.5 -13.5zM67 266q0 -8 -5.5 -13t-13.5 -5t-13 5t-5 13t5 13.5t13 5.5t13.5 -5.5t5.5 -13.5zM102 321q0 -8 -5.5 -13t-13.5 -5t-13 5t-5 13t5 13.5t13 5.5t13.5 -5.5t5.5 -13.5z
M155 356q0 -8 -5.5 -13t-13.5 -5t-13 5t-5 13t5 13.5t13 5.5t13.5 -5.5t5.5 -13.5zM368 266q0 -8 -5 -13t-13 -5t-13.5 5t-5.5 13t5.5 13.5t13.5 5.5t13 -5.5t5 -13.5zM333 321q0 -8 -5 -13t-13 -5t-13.5 5t-5.5 13t5.5 13.5t13.5 5.5t13 -5.5t5 -13.5zM280 356q0 -8 -5 -13
t-13 -5t-13.5 5t-5.5 13t5.5 13.5t13.5 5.5t13 -5.5t5 -13.5zM67 143q0 -8 -5.5 -13.5t-13.5 -5.5t-13 5.5t-5 13.5t5 13t13 5t13.5 -5t5.5 -13zM102 88q0 -8 -5.5 -13.5t-13.5 -5.5t-13 5.5t-5 13.5t5 13t13 5t13.5 -5t5.5 -13zM155 53q0 -8 -5.5 -13.5t-13.5 -5.5t-13 5.5
t-5 13.5t5 13t13 5t13.5 -5t5.5 -13zM369 143q0 -8 -5 -13.5t-13 -5.5t-13.5 5.5t-5.5 13.5t5.5 13t13.5 5t13 -5t5 -13zM334 88q0 -8 -5 -13.5t-13 -5.5t-13.5 5.5t-5.5 13.5t5.5 13t13.5 5t13 -5t5 -13zM281 53q0 -8 -5 -13.5t-13 -5.5t-13.5 5.5t-5.5 13.5t5.5 13t13.5 5
t13 -5t5 -13z" />
    <glyph glyph-name="Z" unicode="Z" 
d="M218 368q0 -8 -5.5 -13.5t-13.5 -5.5t-13.5 5.5t-5.5 13.5t5.5 13.5t13.5 5.5t13.5 -5.5t5.5 -13.5zM218 41q0 -8 -5.5 -13.5t-13.5 -5.5t-13.5 5.5t-5.5 13.5t5.5 13.5t13.5 5.5t13.5 -5.5t5.5 -13.5zM54 205q0 -8 -5.5 -13t-13.5 -5t-13 5t-5 13t5 13.5t13 5.5
t13.5 -5.5t5.5 -13.5zM382 205q0 -8 -5.5 -13t-13.5 -5t-13 5t-5 13t5 13.5t13 5.5t13.5 -5.5t5.5 -13.5zM67 266q0 -8 -5.5 -13t-13.5 -5t-13 5t-5 13t5 13.5t13 5.5t13.5 -5.5t5.5 -13.5zM102 321q0 -8 -5.5 -13t-13.5 -5t-13 5t-5 13t5 13.5t13 5.5t13.5 -5.5t5.5 -13.5z
M155 356q0 -8 -5.5 -13t-13.5 -5t-13 5t-5 13t5 13.5t13 5.5t13.5 -5.5t5.5 -13.5zM368 266q0 -8 -5 -13t-13 -5t-13.5 5t-5.5 13t5.5 13.5t13.5 5.5t13 -5.5t5 -13.5zM333 321q0 -8 -5 -13t-13 -5t-13.5 5t-5.5 13t5.5 13.5t13.5 5.5t13 -5.5t5 -13.5zM280 356q0 -8 -5 -13
t-13 -5t-13.5 5t-5.5 13t5.5 13.5t13.5 5.5t13 -5.5t5 -13.5zM67 143q0 -8 -5.5 -13.5t-13.5 -5.5t-13 5.5t-5 13.5t5 13t13 5t13.5 -5t5.5 -13zM102 88q0 -8 -5.5 -13.5t-13.5 -5.5t-13 5.5t-5 13.5t5 13t13 5t13.5 -5t5.5 -13zM155 53q0 -8 -5.5 -13.5t-13.5 -5.5t-13 5.5
t-5 13.5t5 13t13 5t13.5 -5t5.5 -13zM369 143q0 -8 -5 -13.5t-13 -5.5t-13.5 5.5t-5.5 13.5t5.5 13t13.5 5t13 -5t5 -13zM334 88q0 -8 -5 -13.5t-13 -5.5t-13.5 5.5t-5.5 13.5t5.5 13t13.5 5t13 -5t5 -13zM281 53q0 -8 -5 -13.5t-13 -5.5t-13.5 5.5t-5.5 13.5t5.5 13t13.5 5
t13 -5t5 -13z" />
    <glyph glyph-name="bracketleft" unicode="[" 
d="M218 368q0 -8 -5.5 -13.5t-13.5 -5.5t-13.5 5.5t-5.5 13.5t5.5 13.5t13.5 5.5t13.5 -5.5t5.5 -13.5zM218 41q0 -8 -5.5 -13.5t-13.5 -5.5t-13.5 5.5t-5.5 13.5t5.5 13.5t13.5 5.5t13.5 -5.5t5.5 -13.5zM54 205q0 -8 -5.5 -13t-13.5 -5t-13 5t-5 13t5 13.5t13 5.5
t13.5 -5.5t5.5 -13.5zM382 205q0 -8 -5.5 -13t-13.5 -5t-13 5t-5 13t5 13.5t13 5.5t13.5 -5.5t5.5 -13.5zM67 266q0 -8 -5.5 -13t-13.5 -5t-13 5t-5 13t5 13.5t13 5.5t13.5 -5.5t5.5 -13.5zM102 321q0 -8 -5.5 -13t-13.5 -5t-13 5t-5 13t5 13.5t13 5.5t13.5 -5.5t5.5 -13.5z
M155 356q0 -8 -5.5 -13t-13.5 -5t-13 5t-5 13t5 13.5t13 5.5t13.5 -5.5t5.5 -13.5zM368 266q0 -8 -5 -13t-13 -5t-13.5 5t-5.5 13t5.5 13.5t13.5 5.5t13 -5.5t5 -13.5zM333 321q0 -8 -5 -13t-13 -5t-13.5 5t-5.5 13t5.5 13.5t13.5 5.5t13 -5.5t5 -13.5zM280 356q0 -8 -5 -13
t-13 -5t-13.5 5t-5.5 13t5.5 13.5t13.5 5.5t13 -5.5t5 -13.5zM67 143q0 -8 -5.5 -13.5t-13.5 -5.5t-13 5.5t-5 13.5t5 13t13 5t13.5 -5t5.5 -13zM102 88q0 -8 -5.5 -13.5t-13.5 -5.5t-13 5.5t-5 13.5t5 13t13 5t13.5 -5t5.5 -13zM155 53q0 -8 -5.5 -13.5t-13.5 -5.5t-13 5.5
t-5 13.5t5 13t13 5t13.5 -5t5.5 -13zM369 143q0 -8 -5 -13.5t-13 -5.5t-13.5 5.5t-5.5 13.5t5.5 13t13.5 5t13 -5t5 -13zM334 88q0 -8 -5 -13.5t-13 -5.5t-13.5 5.5t-5.5 13.5t5.5 13t13.5 5t13 -5t5 -13zM281 53q0 -8 -5 -13.5t-13 -5.5t-13.5 5.5t-5.5 13.5t5.5 13t13.5 5
t13 -5t5 -13z" />
    <glyph glyph-name="backslash" unicode="\" 
d="M218 368q0 -8 -5.5 -13.5t-13.5 -5.5t-13.5 5.5t-5.5 13.5t5.5 13.5t13.5 5.5t13.5 -5.5t5.5 -13.5zM218 41q0 -8 -5.5 -13.5t-13.5 -5.5t-13.5 5.5t-5.5 13.5t5.5 13.5t13.5 5.5t13.5 -5.5t5.5 -13.5zM54 205q0 -8 -5.5 -13t-13.5 -5t-13 5t-5 13t5 13.5t13 5.5
t13.5 -5.5t5.5 -13.5zM382 205q0 -8 -5.5 -13t-13.5 -5t-13 5t-5 13t5 13.5t13 5.5t13.5 -5.5t5.5 -13.5zM67 266q0 -8 -5.5 -13t-13.5 -5t-13 5t-5 13t5 13.5t13 5.5t13.5 -5.5t5.5 -13.5zM102 321q0 -8 -5.5 -13t-13.5 -5t-13 5t-5 13t5 13.5t13 5.5t13.5 -5.5t5.5 -13.5z
M155 356q0 -8 -5.5 -13t-13.5 -5t-13 5t-5 13t5 13.5t13 5.5t13.5 -5.5t5.5 -13.5zM368 266q0 -8 -5 -13t-13 -5t-13.5 5t-5.5 13t5.5 13.5t13.5 5.5t13 -5.5t5 -13.5zM333 321q0 -8 -5 -13t-13 -5t-13.5 5t-5.5 13t5.5 13.5t13.5 5.5t13 -5.5t5 -13.5zM280 356q0 -8 -5 -13
t-13 -5t-13.5 5t-5.5 13t5.5 13.5t13.5 5.5t13 -5.5t5 -13.5zM67 143q0 -8 -5.5 -13.5t-13.5 -5.5t-13 5.5t-5 13.5t5 13t13 5t13.5 -5t5.5 -13zM102 88q0 -8 -5.5 -13.5t-13.5 -5.5t-13 5.5t-5 13.5t5 13t13 5t13.5 -5t5.5 -13zM155 53q0 -8 -5.5 -13.5t-13.5 -5.5t-13 5.5
t-5 13.5t5 13t13 5t13.5 -5t5.5 -13zM369 143q0 -8 -5 -13.5t-13 -5.5t-13.5 5.5t-5.5 13.5t5.5 13t13.5 5t13 -5t5 -13zM334 88q0 -8 -5 -13.5t-13 -5.5t-13.5 5.5t-5.5 13.5t5.5 13t13.5 5t13 -5t5 -13zM281 53q0 -8 -5 -13.5t-13 -5.5t-13.5 5.5t-5.5 13.5t5.5 13t13.5 5
t13 -5t5 -13z" />
    <glyph glyph-name="bracketright" unicode="]" 
d="M218 368q0 -8 -5.5 -13.5t-13.5 -5.5t-13.5 5.5t-5.5 13.5t5.5 13.5t13.5 5.5t13.5 -5.5t5.5 -13.5zM218 41q0 -8 -5.5 -13.5t-13.5 -5.5t-13.5 5.5t-5.5 13.5t5.5 13.5t13.5 5.5t13.5 -5.5t5.5 -13.5zM54 205q0 -8 -5.5 -13t-13.5 -5t-13 5t-5 13t5 13.5t13 5.5
t13.5 -5.5t5.5 -13.5zM382 205q0 -8 -5.5 -13t-13.5 -5t-13 5t-5 13t5 13.5t13 5.5t13.5 -5.5t5.5 -13.5zM67 266q0 -8 -5.5 -13t-13.5 -5t-13 5t-5 13t5 13.5t13 5.5t13.5 -5.5t5.5 -13.5zM102 321q0 -8 -5.5 -13t-13.5 -5t-13 5t-5 13t5 13.5t13 5.5t13.5 -5.5t5.5 -13.5z
M155 356q0 -8 -5.5 -13t-13.5 -5t-13 5t-5 13t5 13.5t13 5.5t13.5 -5.5t5.5 -13.5zM368 266q0 -8 -5 -13t-13 -5t-13.5 5t-5.5 13t5.5 13.5t13.5 5.5t13 -5.5t5 -13.5zM333 321q0 -8 -5 -13t-13 -5t-13.5 5t-5.5 13t5.5 13.5t13.5 5.5t13 -5.5t5 -13.5zM280 356q0 -8 -5 -13
t-13 -5t-13.5 5t-5.5 13t5.5 13.5t13.5 5.5t13 -5.5t5 -13.5zM67 143q0 -8 -5.5 -13.5t-13.5 -5.5t-13 5.5t-5 13.5t5 13t13 5t13.5 -5t5.5 -13zM102 88q0 -8 -5.5 -13.5t-13.5 -5.5t-13 5.5t-5 13.5t5 13t13 5t13.5 -5t5.5 -13zM155 53q0 -8 -5.5 -13.5t-13.5 -5.5t-13 5.5
t-5 13.5t5 13t13 5t13.5 -5t5.5 -13zM369 143q0 -8 -5 -13.5t-13 -5.5t-13.5 5.5t-5.5 13.5t5.5 13t13.5 5t13 -5t5 -13zM334 88q0 -8 -5 -13.5t-13 -5.5t-13.5 5.5t-5.5 13.5t5.5 13t13.5 5t13 -5t5 -13zM281 53q0 -8 -5 -13.5t-13 -5.5t-13.5 5.5t-5.5 13.5t5.5 13t13.5 5
t13 -5t5 -13z" />
    <glyph glyph-name="asciicircum" unicode="^" 
d="M218 368q0 -8 -5.5 -13.5t-13.5 -5.5t-13.5 5.5t-5.5 13.5t5.5 13.5t13.5 5.5t13.5 -5.5t5.5 -13.5zM218 41q0 -8 -5.5 -13.5t-13.5 -5.5t-13.5 5.5t-5.5 13.5t5.5 13.5t13.5 5.5t13.5 -5.5t5.5 -13.5zM54 205q0 -8 -5.5 -13t-13.5 -5t-13 5t-5 13t5 13.5t13 5.5
t13.5 -5.5t5.5 -13.5zM382 205q0 -8 -5.5 -13t-13.5 -5t-13 5t-5 13t5 13.5t13 5.5t13.5 -5.5t5.5 -13.5zM67 266q0 -8 -5.5 -13t-13.5 -5t-13 5t-5 13t5 13.5t13 5.5t13.5 -5.5t5.5 -13.5zM102 321q0 -8 -5.5 -13t-13.5 -5t-13 5t-5 13t5 13.5t13 5.5t13.5 -5.5t5.5 -13.5z
M155 356q0 -8 -5.5 -13t-13.5 -5t-13 5t-5 13t5 13.5t13 5.5t13.5 -5.5t5.5 -13.5zM368 266q0 -8 -5 -13t-13 -5t-13.5 5t-5.5 13t5.5 13.5t13.5 5.5t13 -5.5t5 -13.5zM333 321q0 -8 -5 -13t-13 -5t-13.5 5t-5.5 13t5.5 13.5t13.5 5.5t13 -5.5t5 -13.5zM280 356q0 -8 -5 -13
t-13 -5t-13.5 5t-5.5 13t5.5 13.5t13.5 5.5t13 -5.5t5 -13.5zM67 143q0 -8 -5.5 -13.5t-13.5 -5.5t-13 5.5t-5 13.5t5 13t13 5t13.5 -5t5.5 -13zM102 88q0 -8 -5.5 -13.5t-13.5 -5.5t-13 5.5t-5 13.5t5 13t13 5t13.5 -5t5.5 -13zM155 53q0 -8 -5.5 -13.5t-13.5 -5.5t-13 5.5
t-5 13.5t5 13t13 5t13.5 -5t5.5 -13zM369 143q0 -8 -5 -13.5t-13 -5.5t-13.5 5.5t-5.5 13.5t5.5 13t13.5 5t13 -5t5 -13zM334 88q0 -8 -5 -13.5t-13 -5.5t-13.5 5.5t-5.5 13.5t5.5 13t13.5 5t13 -5t5 -13zM281 53q0 -8 -5 -13.5t-13 -5.5t-13.5 5.5t-5.5 13.5t5.5 13t13.5 5
t13 -5t5 -13z" />
    <glyph glyph-name="underscore" unicode="_" horiz-adv-x="360" 
d="M-80 -25q-8 -1 -15.5 -11t-9.5 -18q-1 -8 6 -14q10 -8 21 -15.5t24 -15.5t21.5 -13t25.5 -14l23 -11l26 -13l25 -11q61 -28 188.5 5.5t204.5 94.5q21 16 15 20q-9 4 -18.5 1.5t-14.5 -7.5q-50 -35 -109.5 -57.5t-125.5 -28t-124 17.5q-86 32 -154 87q-4 3 -9 3z" />
    <glyph glyph-name="grave" unicode="`" 
d="M218 368q0 -8 -5.5 -13.5t-13.5 -5.5t-13.5 5.5t-5.5 13.5t5.5 13.5t13.5 5.5t13.5 -5.5t5.5 -13.5zM218 41q0 -8 -5.5 -13.5t-13.5 -5.5t-13.5 5.5t-5.5 13.5t5.5 13.5t13.5 5.5t13.5 -5.5t5.5 -13.5zM54 205q0 -8 -5.5 -13t-13.5 -5t-13 5t-5 13t5 13.5t13 5.5
t13.5 -5.5t5.5 -13.5zM382 205q0 -8 -5.5 -13t-13.5 -5t-13 5t-5 13t5 13.5t13 5.5t13.5 -5.5t5.5 -13.5zM67 266q0 -8 -5.5 -13t-13.5 -5t-13 5t-5 13t5 13.5t13 5.5t13.5 -5.5t5.5 -13.5zM102 321q0 -8 -5.5 -13t-13.5 -5t-13 5t-5 13t5 13.5t13 5.5t13.5 -5.5t5.5 -13.5z
M155 356q0 -8 -5.5 -13t-13.5 -5t-13 5t-5 13t5 13.5t13 5.5t13.5 -5.5t5.5 -13.5zM368 266q0 -8 -5 -13t-13 -5t-13.5 5t-5.5 13t5.5 13.5t13.5 5.5t13 -5.5t5 -13.5zM333 321q0 -8 -5 -13t-13 -5t-13.5 5t-5.5 13t5.5 13.5t13.5 5.5t13 -5.5t5 -13.5zM280 356q0 -8 -5 -13
t-13 -5t-13.5 5t-5.5 13t5.5 13.5t13.5 5.5t13 -5.5t5 -13.5zM67 143q0 -8 -5.5 -13.5t-13.5 -5.5t-13 5.5t-5 13.5t5 13t13 5t13.5 -5t5.5 -13zM102 88q0 -8 -5.5 -13.5t-13.5 -5.5t-13 5.5t-5 13.5t5 13t13 5t13.5 -5t5.5 -13zM155 53q0 -8 -5.5 -13.5t-13.5 -5.5t-13 5.5
t-5 13.5t5 13t13 5t13.5 -5t5.5 -13zM369 143q0 -8 -5 -13.5t-13 -5.5t-13.5 5.5t-5.5 13.5t5.5 13t13.5 5t13 -5t5 -13zM334 88q0 -8 -5 -13.5t-13 -5.5t-13.5 5.5t-5.5 13.5t5.5 13t13.5 5t13 -5t5 -13zM281 53q0 -8 -5 -13.5t-13 -5.5t-13.5 5.5t-5.5 13.5t5.5 13t13.5 5
t13 -5t5 -13z" />
    <glyph glyph-name="a" unicode="a" horiz-adv-x="240" 
d="M107 400h-2q-3 0 -9 -2q-9 -3 -36 -17q-20 -11 -35 -22q-39 -30 -58 -53q-6 -7 -6 -10q-2 -9 3 -11q5 -4 11 2q35 36 57 51q20 14 32 20q7 4 11 5t5 1q32 -12 79 -42q10 -6 31 -23q2 -2 5 -4t3.5 -2.5t1.5 -2.5t0 -4q-11 -49 -21.5 -117t-15.5 -111l-5 -44q-2 -9 2 -11
q8 -5 21 4q5 4 6 10q33 158 49 276q2 14 4 26q2 3 0.5 5t-3 1.5t-9 3.5t-17.5 12q-2 1 -10 7.5t-13 9.5q-56 34 -73 40q-4 2 -8 2z" />
    <glyph glyph-name="b" unicode="b" horiz-adv-x="360" 
d="M346 421q-6 0 -10.5 -3.5t-4.5 -9.5l-48 -363q-103 1 -154 -7q-3 0 -7 -1q2 36 6 70q11 102 27 149q5 14 29 50q18 26 22 35q5 12 5 22q0 13 -8 23q-11 13 -32 14q-5 0 -11 -1q-22 -3 -38 -16q-15 -12 -22 -30q-8 -24 4 -41q12 -16 38 -15q-10 -16 -15 -31
q-18 -51 -29 -156q-5 -43 -7 -86q-7 -4 -14 -9q0 -1 -3 -3t-4 -3l-4 -3l-2 -4l-2 -4l-2 -3l1 -4q3 -7 15 -3q14 5 47 11q23 3 66 4t75 1l32 -1q6 0 10 3.5t5 9.5l49 388q1 7 -3 12t-11 5zM153 370h5q12 0 13 -7q5 -28 -12 -29q-14 -1 -19 6q-3 5 -3 10q-1 11 4 16q7 4 12 4z
" />
    <glyph glyph-name="c" unicode="c" 
d="M218 368q0 -8 -5.5 -13.5t-13.5 -5.5t-13.5 5.5t-5.5 13.5t5.5 13.5t13.5 5.5t13.5 -5.5t5.5 -13.5zM218 41q0 -8 -5.5 -13.5t-13.5 -5.5t-13.5 5.5t-5.5 13.5t5.5 13.5t13.5 5.5t13.5 -5.5t5.5 -13.5zM54 205q0 -8 -5.5 -13t-13.5 -5t-13 5t-5 13t5 13.5t13 5.5
t13.5 -5.5t5.5 -13.5zM382 205q0 -8 -5.5 -13t-13.5 -5t-13 5t-5 13t5 13.5t13 5.5t13.5 -5.5t5.5 -13.5zM67 266q0 -8 -5.5 -13t-13.5 -5t-13 5t-5 13t5 13.5t13 5.5t13.5 -5.5t5.5 -13.5zM102 321q0 -8 -5.5 -13t-13.5 -5t-13 5t-5 13t5 13.5t13 5.5t13.5 -5.5t5.5 -13.5z
M155 356q0 -8 -5.5 -13t-13.5 -5t-13 5t-5 13t5 13.5t13 5.5t13.5 -5.5t5.5 -13.5zM368 266q0 -8 -5 -13t-13 -5t-13.5 5t-5.5 13t5.5 13.5t13.5 5.5t13 -5.5t5 -13.5zM333 321q0 -8 -5 -13t-13 -5t-13.5 5t-5.5 13t5.5 13.5t13.5 5.5t13 -5.5t5 -13.5zM280 356q0 -8 -5 -13
t-13 -5t-13.5 5t-5.5 13t5.5 13.5t13.5 5.5t13 -5.5t5 -13.5zM67 143q0 -8 -5.5 -13.5t-13.5 -5.5t-13 5.5t-5 13.5t5 13t13 5t13.5 -5t5.5 -13zM102 88q0 -8 -5.5 -13.5t-13.5 -5.5t-13 5.5t-5 13.5t5 13t13 5t13.5 -5t5.5 -13zM155 53q0 -8 -5.5 -13.5t-13.5 -5.5t-13 5.5
t-5 13.5t5 13t13 5t13.5 -5t5.5 -13zM369 143q0 -8 -5 -13.5t-13 -5.5t-13.5 5.5t-5.5 13.5t5.5 13t13.5 5t13 -5t5 -13zM334 88q0 -8 -5 -13.5t-13 -5.5t-13.5 5.5t-5.5 13.5t5.5 13t13.5 5t13 -5t5 -13zM281 53q0 -8 -5 -13.5t-13 -5.5t-13.5 5.5t-5.5 13.5t5.5 13t13.5 5
t13 -5t5 -13z" />
    <glyph glyph-name="d" unicode="d" 
d="M218 368q0 -8 -5.5 -13.5t-13.5 -5.5t-13.5 5.5t-5.5 13.5t5.5 13.5t13.5 5.5t13.5 -5.5t5.5 -13.5zM218 41q0 -8 -5.5 -13.5t-13.5 -5.5t-13.5 5.5t-5.5 13.5t5.5 13.5t13.5 5.5t13.5 -5.5t5.5 -13.5zM54 205q0 -8 -5.5 -13t-13.5 -5t-13 5t-5 13t5 13.5t13 5.5
t13.5 -5.5t5.5 -13.5zM382 205q0 -8 -5.5 -13t-13.5 -5t-13 5t-5 13t5 13.5t13 5.5t13.5 -5.5t5.5 -13.5zM67 266q0 -8 -5.5 -13t-13.5 -5t-13 5t-5 13t5 13.5t13 5.5t13.5 -5.5t5.5 -13.5zM102 321q0 -8 -5.5 -13t-13.5 -5t-13 5t-5 13t5 13.5t13 5.5t13.5 -5.5t5.5 -13.5z
M155 356q0 -8 -5.5 -13t-13.5 -5t-13 5t-5 13t5 13.5t13 5.5t13.5 -5.5t5.5 -13.5zM368 266q0 -8 -5 -13t-13 -5t-13.5 5t-5.5 13t5.5 13.5t13.5 5.5t13 -5.5t5 -13.5zM333 321q0 -8 -5 -13t-13 -5t-13.5 5t-5.5 13t5.5 13.5t13.5 5.5t13 -5.5t5 -13.5zM280 356q0 -8 -5 -13
t-13 -5t-13.5 5t-5.5 13t5.5 13.5t13.5 5.5t13 -5.5t5 -13.5zM67 143q0 -8 -5.5 -13.5t-13.5 -5.5t-13 5.5t-5 13.5t5 13t13 5t13.5 -5t5.5 -13zM102 88q0 -8 -5.5 -13.5t-13.5 -5.5t-13 5.5t-5 13.5t5 13t13 5t13.5 -5t5.5 -13zM155 53q0 -8 -5.5 -13.5t-13.5 -5.5t-13 5.5
t-5 13.5t5 13t13 5t13.5 -5t5.5 -13zM369 143q0 -8 -5 -13.5t-13 -5.5t-13.5 5.5t-5.5 13.5t5.5 13t13.5 5t13 -5t5 -13zM334 88q0 -8 -5 -13.5t-13 -5.5t-13.5 5.5t-5.5 13.5t5.5 13t13.5 5t13 -5t5 -13zM281 53q0 -8 -5 -13.5t-13 -5.5t-13.5 5.5t-5.5 13.5t5.5 13t13.5 5
t13 -5t5 -13z" />
    <glyph glyph-name="e" unicode="e" 
d="M218 368q0 -8 -5.5 -13.5t-13.5 -5.5t-13.5 5.5t-5.5 13.5t5.5 13.5t13.5 5.5t13.5 -5.5t5.5 -13.5zM218 41q0 -8 -5.5 -13.5t-13.5 -5.5t-13.5 5.5t-5.5 13.5t5.5 13.5t13.5 5.5t13.5 -5.5t5.5 -13.5zM54 205q0 -8 -5.5 -13t-13.5 -5t-13 5t-5 13t5 13.5t13 5.5
t13.5 -5.5t5.5 -13.5zM382 205q0 -8 -5.5 -13t-13.5 -5t-13 5t-5 13t5 13.5t13 5.5t13.5 -5.5t5.5 -13.5zM67 266q0 -8 -5.5 -13t-13.5 -5t-13 5t-5 13t5 13.5t13 5.5t13.5 -5.5t5.5 -13.5zM102 321q0 -8 -5.5 -13t-13.5 -5t-13 5t-5 13t5 13.5t13 5.5t13.5 -5.5t5.5 -13.5z
M155 356q0 -8 -5.5 -13t-13.5 -5t-13 5t-5 13t5 13.5t13 5.5t13.5 -5.5t5.5 -13.5zM368 266q0 -8 -5 -13t-13 -5t-13.5 5t-5.5 13t5.5 13.5t13.5 5.5t13 -5.5t5 -13.5zM333 321q0 -8 -5 -13t-13 -5t-13.5 5t-5.5 13t5.5 13.5t13.5 5.5t13 -5.5t5 -13.5zM280 356q0 -8 -5 -13
t-13 -5t-13.5 5t-5.5 13t5.5 13.5t13.5 5.5t13 -5.5t5 -13.5zM67 143q0 -8 -5.5 -13.5t-13.5 -5.5t-13 5.5t-5 13.5t5 13t13 5t13.5 -5t5.5 -13zM102 88q0 -8 -5.5 -13.5t-13.5 -5.5t-13 5.5t-5 13.5t5 13t13 5t13.5 -5t5.5 -13zM155 53q0 -8 -5.5 -13.5t-13.5 -5.5t-13 5.5
t-5 13.5t5 13t13 5t13.5 -5t5.5 -13zM369 143q0 -8 -5 -13.5t-13 -5.5t-13.5 5.5t-5.5 13.5t5.5 13t13.5 5t13 -5t5 -13zM334 88q0 -8 -5 -13.5t-13 -5.5t-13.5 5.5t-5.5 13.5t5.5 13t13.5 5t13 -5t5 -13zM281 53q0 -8 -5 -13.5t-13 -5.5t-13.5 5.5t-5.5 13.5t5.5 13t13.5 5
t13 -5t5 -13z" />
    <glyph glyph-name="f" unicode="f" 
d="M218 368q0 -8 -5.5 -13.5t-13.5 -5.5t-13.5 5.5t-5.5 13.5t5.5 13.5t13.5 5.5t13.5 -5.5t5.5 -13.5zM218 41q0 -8 -5.5 -13.5t-13.5 -5.5t-13.5 5.5t-5.5 13.5t5.5 13.5t13.5 5.5t13.5 -5.5t5.5 -13.5zM54 205q0 -8 -5.5 -13t-13.5 -5t-13 5t-5 13t5 13.5t13 5.5
t13.5 -5.5t5.5 -13.5zM382 205q0 -8 -5.5 -13t-13.5 -5t-13 5t-5 13t5 13.5t13 5.5t13.5 -5.5t5.5 -13.5zM67 266q0 -8 -5.5 -13t-13.5 -5t-13 5t-5 13t5 13.5t13 5.5t13.5 -5.5t5.5 -13.5zM102 321q0 -8 -5.5 -13t-13.5 -5t-13 5t-5 13t5 13.5t13 5.5t13.5 -5.5t5.5 -13.5z
M155 356q0 -8 -5.5 -13t-13.5 -5t-13 5t-5 13t5 13.5t13 5.5t13.5 -5.5t5.5 -13.5zM368 266q0 -8 -5 -13t-13 -5t-13.5 5t-5.5 13t5.5 13.5t13.5 5.5t13 -5.5t5 -13.5zM333 321q0 -8 -5 -13t-13 -5t-13.5 5t-5.5 13t5.5 13.5t13.5 5.5t13 -5.5t5 -13.5zM280 356q0 -8 -5 -13
t-13 -5t-13.5 5t-5.5 13t5.5 13.5t13.5 5.5t13 -5.5t5 -13.5zM67 143q0 -8 -5.5 -13.5t-13.5 -5.5t-13 5.5t-5 13.5t5 13t13 5t13.5 -5t5.5 -13zM102 88q0 -8 -5.5 -13.5t-13.5 -5.5t-13 5.5t-5 13.5t5 13t13 5t13.5 -5t5.5 -13zM155 53q0 -8 -5.5 -13.5t-13.5 -5.5t-13 5.5
t-5 13.5t5 13t13 5t13.5 -5t5.5 -13zM369 143q0 -8 -5 -13.5t-13 -5.5t-13.5 5.5t-5.5 13.5t5.5 13t13.5 5t13 -5t5 -13zM334 88q0 -8 -5 -13.5t-13 -5.5t-13.5 5.5t-5.5 13.5t5.5 13t13.5 5t13 -5t5 -13zM281 53q0 -8 -5 -13.5t-13 -5.5t-13.5 5.5t-5.5 13.5t5.5 13t13.5 5
t13 -5t5 -13z" />
    <glyph glyph-name="g" unicode="g" 
d="M218 368q0 -8 -5.5 -13.5t-13.5 -5.5t-13.5 5.5t-5.5 13.5t5.5 13.5t13.5 5.5t13.5 -5.5t5.5 -13.5zM218 41q0 -8 -5.5 -13.5t-13.5 -5.5t-13.5 5.5t-5.5 13.5t5.5 13.5t13.5 5.5t13.5 -5.5t5.5 -13.5zM54 205q0 -8 -5.5 -13t-13.5 -5t-13 5t-5 13t5 13.5t13 5.5
t13.5 -5.5t5.5 -13.5zM382 205q0 -8 -5.5 -13t-13.5 -5t-13 5t-5 13t5 13.5t13 5.5t13.5 -5.5t5.5 -13.5zM67 266q0 -8 -5.5 -13t-13.5 -5t-13 5t-5 13t5 13.5t13 5.5t13.5 -5.5t5.5 -13.5zM102 321q0 -8 -5.5 -13t-13.5 -5t-13 5t-5 13t5 13.5t13 5.5t13.5 -5.5t5.5 -13.5z
M155 356q0 -8 -5.5 -13t-13.5 -5t-13 5t-5 13t5 13.5t13 5.5t13.5 -5.5t5.5 -13.5zM368 266q0 -8 -5 -13t-13 -5t-13.5 5t-5.5 13t5.5 13.5t13.5 5.5t13 -5.5t5 -13.5zM333 321q0 -8 -5 -13t-13 -5t-13.5 5t-5.5 13t5.5 13.5t13.5 5.5t13 -5.5t5 -13.5zM280 356q0 -8 -5 -13
t-13 -5t-13.5 5t-5.5 13t5.5 13.5t13.5 5.5t13 -5.5t5 -13.5zM67 143q0 -8 -5.5 -13.5t-13.5 -5.5t-13 5.5t-5 13.5t5 13t13 5t13.5 -5t5.5 -13zM102 88q0 -8 -5.5 -13.5t-13.5 -5.5t-13 5.5t-5 13.5t5 13t13 5t13.5 -5t5.5 -13zM155 53q0 -8 -5.5 -13.5t-13.5 -5.5t-13 5.5
t-5 13.5t5 13t13 5t13.5 -5t5.5 -13zM369 143q0 -8 -5 -13.5t-13 -5.5t-13.5 5.5t-5.5 13.5t5.5 13t13.5 5t13 -5t5 -13zM334 88q0 -8 -5 -13.5t-13 -5.5t-13.5 5.5t-5.5 13.5t5.5 13t13.5 5t13 -5t5 -13zM281 53q0 -8 -5 -13.5t-13 -5.5t-13.5 5.5t-5.5 13.5t5.5 13t13.5 5
t13 -5t5 -13z" />
    <glyph glyph-name="h" unicode="h" 
d="M218 368q0 -8 -5.5 -13.5t-13.5 -5.5t-13.5 5.5t-5.5 13.5t5.5 13.5t13.5 5.5t13.5 -5.5t5.5 -13.5zM218 41q0 -8 -5.5 -13.5t-13.5 -5.5t-13.5 5.5t-5.5 13.5t5.5 13.5t13.5 5.5t13.5 -5.5t5.5 -13.5zM54 205q0 -8 -5.5 -13t-13.5 -5t-13 5t-5 13t5 13.5t13 5.5
t13.5 -5.5t5.5 -13.5zM382 205q0 -8 -5.5 -13t-13.5 -5t-13 5t-5 13t5 13.5t13 5.5t13.5 -5.5t5.5 -13.5zM67 266q0 -8 -5.5 -13t-13.5 -5t-13 5t-5 13t5 13.5t13 5.5t13.5 -5.5t5.5 -13.5zM102 321q0 -8 -5.5 -13t-13.5 -5t-13 5t-5 13t5 13.5t13 5.5t13.5 -5.5t5.5 -13.5z
M155 356q0 -8 -5.5 -13t-13.5 -5t-13 5t-5 13t5 13.5t13 5.5t13.5 -5.5t5.5 -13.5zM368 266q0 -8 -5 -13t-13 -5t-13.5 5t-5.5 13t5.5 13.5t13.5 5.5t13 -5.5t5 -13.5zM333 321q0 -8 -5 -13t-13 -5t-13.5 5t-5.5 13t5.5 13.5t13.5 5.5t13 -5.5t5 -13.5zM280 356q0 -8 -5 -13
t-13 -5t-13.5 5t-5.5 13t5.5 13.5t13.5 5.5t13 -5.5t5 -13.5zM67 143q0 -8 -5.5 -13.5t-13.5 -5.5t-13 5.5t-5 13.5t5 13t13 5t13.5 -5t5.5 -13zM102 88q0 -8 -5.5 -13.5t-13.5 -5.5t-13 5.5t-5 13.5t5 13t13 5t13.5 -5t5.5 -13zM155 53q0 -8 -5.5 -13.5t-13.5 -5.5t-13 5.5
t-5 13.5t5 13t13 5t13.5 -5t5.5 -13zM369 143q0 -8 -5 -13.5t-13 -5.5t-13.5 5.5t-5.5 13.5t5.5 13t13.5 5t13 -5t5 -13zM334 88q0 -8 -5 -13.5t-13 -5.5t-13.5 5.5t-5.5 13.5t5.5 13t13.5 5t13 -5t5 -13zM281 53q0 -8 -5 -13.5t-13 -5.5t-13.5 5.5t-5.5 13.5t5.5 13t13.5 5
t13 -5t5 -13z" />
    <glyph glyph-name="i" unicode="i" horiz-adv-x="0" 
d="M21 800h-5q-5 0 -9 -3.5t-5 -9.5l-34 -216v1l-1 1q-48 52 -162 52q-69 1 -145 -37q-8 -4 -20 -13.5t-20 -16.5l-8 -8q4 1 10.5 3t21 5t22.5 2q47 -4 105.5 -25.5t94.5 -42.5q54 -33 86 -77q25 -35 25 -60q20 30 27 50q24 73 -13 135l49 245q1 7 -4 12q-3 3 -15 3z
M-205 596q4 0 9 -1q8 0 15 -1q55 -6 108 -51q22 -17 30.5 -38.5t7.5 -54.5q-12 27 -34 46t-58 40q-61 35 -146 48q35 12 68 12z" />
    <glyph glyph-name="j" unicode="j" horiz-adv-x="280" 
d="M164 400q-20 0 -40 -10q-41 -21 -74 -52q-46 -44 -73 -95q-13 -18 -3 -25q5 -3 13 7q56 75 82 96q37 28 67 34q12 4 27.5 3.5t28.5 -9.5q33 -22 46 -44q-1 -28 -4 -46q-12 -67 -14 -80q-1 30 -2 44q0 9 1.5 24.5t1.5 19.5q1 28 -11 46q-9 12 -22 19q-11 5 -21 4
q-8 0 -17 -10q-22 -23 -23 -44q-2 -33 21 -54q4 -4 8.5 -5t7 0l7.5 3l7 4q1 1 3 3.5t3 2.5q5 -150 1 -225q-1 -7 4 -11q5 -7 10 -6q9 3 15 15.5t7 19.5v1q10 33 32 143q10 50 16 85q2 9 5 23.5t4.5 24t1.5 14.5q0 4 -2 7q-32 42 -53 54q-27 17 -59 19h-2zM169 297
q6 0 11.5 -4.5t7.5 -9.5q1 -4 -1.5 -9t-6.5 -6q-6 -1 -12 4t-7 11q-4 10 4 13q2 1 4 1z" />
    <glyph glyph-name="k" unicode="k" horiz-adv-x="360" 
d="M205 400h-5q-38 -3 -70 -25t-55 -50l-15 -25q22 4 37 -9q10 -8 16 -14q-1 -4 -2 -15.5t-2 -19.5q-4 -36 -9 -93.5t-8 -95.5t-3 -40q0 -6 4 -11q2 -3 10 1q22 12 22 28q10 128 20 207q5 43 6 45l1 3l2 4l2 4l4 5l9 8q13 11 10 19q-2 4 -15 3q-5 0 -9 -4q-5 -5 -13 -10
q-2 2 -6 4t-5 3q-3 2 -8.5 4.5t-7.5 3.5q5 5 9 8.5t7 5.5t8.5 5.5t10.5 6.5q14 10 26 10.5t22 -3.5q13 -2 26.5 -9.5t28.5 -18.5t22 -15l20 -10q2 -1 5 -2t3.5 -3t-0.5 -11v-3q-5 -48 -10.5 -117.5t-8.5 -113t-3 -44.5q-1 -7 3 -11q3 -4 10 0q7 3 14.5 12.5t8.5 12.5
q18 162 28 273q0 3 1 7.5t1.5 7t0.5 5t-2 3.5t-6 1q-5 0 -13 5.5t-18 13.5t-16 12t-21.5 14.5t-27 16.5t-23.5 9q-8 2 -16 2z" />
    <glyph glyph-name="l" unicode="l" horiz-adv-x="360" 
d="M185 402q-4 1 -7 0q-15 -1 -25 -7q-50 -29 -88.5 -69.5t-84.5 -103.5q-5 -6 -9.5 -18.5t-0.5 -16.5q4 0 5 -0.5t4.5 2.5t4.5 4t4.5 5t3.5 5q88 120 174 160q10 5 36 2q33 -4 63 -18q10 -4 25.5 -15.5t22.5 -15.5q3 -1 9 -4l7 -3q3 -1 2 -5q-7 -63 -18 -131q-3 16 -7 30.5
t-11 35t-10 28.5q-11 36 -40 71q-12 16 -26 20q-4 2 -8 2q-11 0 -30 -16t-39 -65q-17 -43 -29 -98q-12 -49 -15 -90l-1 -16q-2 -44 11 -62q13 -16 36 -14q19 2 32 14q19 18 22 49q3 36 -18 52q-20 15 -38 9v-1h-2q0 42 2 53q7 51 23 92q19 47 29 56q2 2 4 1q5 -2 12 -11
q22 -26 35 -56q31 -65 41 -114.5t0 -137.5q-2 -5 1 -10q2 -5 8 -7t12 1q1 0 2 1q3 2 4 5q11 13 12 17q20 137 40 298q1 3 1.5 8t1 8t0 6.5t-2.5 4.5q-2 3 -8.5 3.5t-10.5 2.5q-45 33 -61 39q-29 13 -77 19q-14 1 -23 1zM146 87q7 1 12.5 -7.5t6.5 -17.5q1 -6 -2 -12.5
t-8 -7.5q-6 -1 -12 6t-8 14q-1 8 1.5 16t8.5 9h1z" />
    <glyph glyph-name="m" unicode="m" 
d="M218 368q0 -8 -5.5 -13.5t-13.5 -5.5t-13.5 5.5t-5.5 13.5t5.5 13.5t13.5 5.5t13.5 -5.5t5.5 -13.5zM218 41q0 -8 -5.5 -13.5t-13.5 -5.5t-13.5 5.5t-5.5 13.5t5.5 13.5t13.5 5.5t13.5 -5.5t5.5 -13.5zM54 205q0 -8 -5.5 -13t-13.5 -5t-13 5t-5 13t5 13.5t13 5.5
t13.5 -5.5t5.5 -13.5zM382 205q0 -8 -5.5 -13t-13.5 -5t-13 5t-5 13t5 13.5t13 5.5t13.5 -5.5t5.5 -13.5zM67 266q0 -8 -5.5 -13t-13.5 -5t-13 5t-5 13t5 13.5t13 5.5t13.5 -5.5t5.5 -13.5zM102 321q0 -8 -5.5 -13t-13.5 -5t-13 5t-5 13t5 13.5t13 5.5t13.5 -5.5t5.5 -13.5z
M155 356q0 -8 -5.5 -13t-13.5 -5t-13 5t-5 13t5 13.5t13 5.5t13.5 -5.5t5.5 -13.5zM368 266q0 -8 -5 -13t-13 -5t-13.5 5t-5.5 13t5.5 13.5t13.5 5.5t13 -5.5t5 -13.5zM333 321q0 -8 -5 -13t-13 -5t-13.5 5t-5.5 13t5.5 13.5t13.5 5.5t13 -5.5t5 -13.5zM280 356q0 -8 -5 -13
t-13 -5t-13.5 5t-5.5 13t5.5 13.5t13.5 5.5t13 -5.5t5 -13.5zM67 143q0 -8 -5.5 -13.5t-13.5 -5.5t-13 5.5t-5 13.5t5 13t13 5t13.5 -5t5.5 -13zM102 88q0 -8 -5.5 -13.5t-13.5 -5.5t-13 5.5t-5 13.5t5 13t13 5t13.5 -5t5.5 -13zM155 53q0 -8 -5.5 -13.5t-13.5 -5.5t-13 5.5
t-5 13.5t5 13t13 5t13.5 -5t5.5 -13zM369 143q0 -8 -5 -13.5t-13 -5.5t-13.5 5.5t-5.5 13.5t5.5 13t13.5 5t13 -5t5 -13zM334 88q0 -8 -5 -13.5t-13 -5.5t-13.5 5.5t-5.5 13.5t5.5 13t13.5 5t13 -5t5 -13zM281 53q0 -8 -5 -13.5t-13 -5.5t-13.5 5.5t-5.5 13.5t5.5 13t13.5 5
t13 -5t5 -13z" />
    <glyph glyph-name="n" unicode="n" 
d="M218 368q0 -8 -5.5 -13.5t-13.5 -5.5t-13.5 5.5t-5.5 13.5t5.5 13.5t13.5 5.5t13.5 -5.5t5.5 -13.5zM218 41q0 -8 -5.5 -13.5t-13.5 -5.5t-13.5 5.5t-5.5 13.5t5.5 13.5t13.5 5.5t13.5 -5.5t5.5 -13.5zM54 205q0 -8 -5.5 -13t-13.5 -5t-13 5t-5 13t5 13.5t13 5.5
t13.5 -5.5t5.5 -13.5zM382 205q0 -8 -5.5 -13t-13.5 -5t-13 5t-5 13t5 13.5t13 5.5t13.5 -5.5t5.5 -13.5zM67 266q0 -8 -5.5 -13t-13.5 -5t-13 5t-5 13t5 13.5t13 5.5t13.5 -5.5t5.5 -13.5zM102 321q0 -8 -5.5 -13t-13.5 -5t-13 5t-5 13t5 13.5t13 5.5t13.5 -5.5t5.5 -13.5z
M155 356q0 -8 -5.5 -13t-13.5 -5t-13 5t-5 13t5 13.5t13 5.5t13.5 -5.5t5.5 -13.5zM368 266q0 -8 -5 -13t-13 -5t-13.5 5t-5.5 13t5.5 13.5t13.5 5.5t13 -5.5t5 -13.5zM333 321q0 -8 -5 -13t-13 -5t-13.5 5t-5.5 13t5.5 13.5t13.5 5.5t13 -5.5t5 -13.5zM280 356q0 -8 -5 -13
t-13 -5t-13.5 5t-5.5 13t5.5 13.5t13.5 5.5t13 -5.5t5 -13.5zM67 143q0 -8 -5.5 -13.5t-13.5 -5.5t-13 5.5t-5 13.5t5 13t13 5t13.5 -5t5.5 -13zM102 88q0 -8 -5.5 -13.5t-13.5 -5.5t-13 5.5t-5 13.5t5 13t13 5t13.5 -5t5.5 -13zM155 53q0 -8 -5.5 -13.5t-13.5 -5.5t-13 5.5
t-5 13.5t5 13t13 5t13.5 -5t5.5 -13zM369 143q0 -8 -5 -13.5t-13 -5.5t-13.5 5.5t-5.5 13.5t5.5 13t13.5 5t13 -5t5 -13zM334 88q0 -8 -5 -13.5t-13 -5.5t-13.5 5.5t-5.5 13.5t5.5 13t13.5 5t13 -5t5 -13zM281 53q0 -8 -5 -13.5t-13 -5.5t-13.5 5.5t-5.5 13.5t5.5 13t13.5 5
t13 -5t5 -13z" />
    <glyph glyph-name="o" unicode="o" horiz-adv-x="280" 
d="M173 400q-34 0 -48 -18q-19 -27 -42.5 -66t-30.5 -49q-4 -5 -3 -14t6 -11q4 -1 7 1.5t7 8.5l4 7q66 87 69 92q18 13 52 -6q23 -13 32 -23q4 -4 8.5 -8t4.5 -4.5t1.5 -5t-1.5 -8.5q-2 -5 -3.5 -9t-2.5 -8.5t-2 -7.5t-2 -9.5t-1.5 -10t-1.5 -12t-1 -13.5t-1 -17t-2 -19
q-2 -21 -7.5 -67.5t-6.5 -69.5q-2 -6 -12 -10q-13 -5 -31 -5q-31 4 -38 12q-3 93 4 134q11 -4 21 1q38 20 45 57q6 34 -5 58q-7 14 -21 18q-13 4 -25 -4q-7 -4 -14 -14q-8 -11 -19 -49q-10 0 -14 -8q-4 -7 0 -35q1 -9 3 -11q-8 -65 -5 -172q1 -20 25 -31q18 -8 41 -10
q25 -1 44 7q25 10 30 31q1 4 3 19q1 8 12 145q5 65 16 103q6 19 5.5 23.5t-11.5 23.5q-44 61 -86 64h-3zM160 270q5 0 6 -6q3 -14 -1.5 -23t-14.5 -10q-4 0 -11 3q3 18 6 24q7 12 15 12z" />
    <glyph glyph-name="p" unicode="p" 
d="M218 368q0 -8 -5.5 -13.5t-13.5 -5.5t-13.5 5.5t-5.5 13.5t5.5 13.5t13.5 5.5t13.5 -5.5t5.5 -13.5zM218 41q0 -8 -5.5 -13.5t-13.5 -5.5t-13.5 5.5t-5.5 13.5t5.5 13.5t13.5 5.5t13.5 -5.5t5.5 -13.5zM54 205q0 -8 -5.5 -13t-13.5 -5t-13 5t-5 13t5 13.5t13 5.5
t13.5 -5.5t5.5 -13.5zM382 205q0 -8 -5.5 -13t-13.5 -5t-13 5t-5 13t5 13.5t13 5.5t13.5 -5.5t5.5 -13.5zM67 266q0 -8 -5.5 -13t-13.5 -5t-13 5t-5 13t5 13.5t13 5.5t13.5 -5.5t5.5 -13.5zM102 321q0 -8 -5.5 -13t-13.5 -5t-13 5t-5 13t5 13.5t13 5.5t13.5 -5.5t5.5 -13.5z
M155 356q0 -8 -5.5 -13t-13.5 -5t-13 5t-5 13t5 13.5t13 5.5t13.5 -5.5t5.5 -13.5zM368 266q0 -8 -5 -13t-13 -5t-13.5 5t-5.5 13t5.5 13.5t13.5 5.5t13 -5.5t5 -13.5zM333 321q0 -8 -5 -13t-13 -5t-13.5 5t-5.5 13t5.5 13.5t13.5 5.5t13 -5.5t5 -13.5zM280 356q0 -8 -5 -13
t-13 -5t-13.5 5t-5.5 13t5.5 13.5t13.5 5.5t13 -5.5t5 -13.5zM67 143q0 -8 -5.5 -13.5t-13.5 -5.5t-13 5.5t-5 13.5t5 13t13 5t13.5 -5t5.5 -13zM102 88q0 -8 -5.5 -13.5t-13.5 -5.5t-13 5.5t-5 13.5t5 13t13 5t13.5 -5t5.5 -13zM155 53q0 -8 -5.5 -13.5t-13.5 -5.5t-13 5.5
t-5 13.5t5 13t13 5t13.5 -5t5.5 -13zM369 143q0 -8 -5 -13.5t-13 -5.5t-13.5 5.5t-5.5 13.5t5.5 13t13.5 5t13 -5t5 -13zM334 88q0 -8 -5 -13.5t-13 -5.5t-13.5 5.5t-5.5 13.5t5.5 13t13.5 5t13 -5t5 -13zM281 53q0 -8 -5 -13.5t-13 -5.5t-13.5 5.5t-5.5 13.5t5.5 13t13.5 5
t13 -5t5 -13z" />
    <glyph glyph-name="q" unicode="q" 
d="M218 368q0 -8 -5.5 -13.5t-13.5 -5.5t-13.5 5.5t-5.5 13.5t5.5 13.5t13.5 5.5t13.5 -5.5t5.5 -13.5zM218 41q0 -8 -5.5 -13.5t-13.5 -5.5t-13.5 5.5t-5.5 13.5t5.5 13.5t13.5 5.5t13.5 -5.5t5.5 -13.5zM54 205q0 -8 -5.5 -13t-13.5 -5t-13 5t-5 13t5 13.5t13 5.5
t13.5 -5.5t5.5 -13.5zM382 205q0 -8 -5.5 -13t-13.5 -5t-13 5t-5 13t5 13.5t13 5.5t13.5 -5.5t5.5 -13.5zM67 266q0 -8 -5.5 -13t-13.5 -5t-13 5t-5 13t5 13.5t13 5.5t13.5 -5.5t5.5 -13.5zM102 321q0 -8 -5.5 -13t-13.5 -5t-13 5t-5 13t5 13.5t13 5.5t13.5 -5.5t5.5 -13.5z
M155 356q0 -8 -5.5 -13t-13.5 -5t-13 5t-5 13t5 13.5t13 5.5t13.5 -5.5t5.5 -13.5zM368 266q0 -8 -5 -13t-13 -5t-13.5 5t-5.5 13t5.5 13.5t13.5 5.5t13 -5.5t5 -13.5zM333 321q0 -8 -5 -13t-13 -5t-13.5 5t-5.5 13t5.5 13.5t13.5 5.5t13 -5.5t5 -13.5zM280 356q0 -8 -5 -13
t-13 -5t-13.5 5t-5.5 13t5.5 13.5t13.5 5.5t13 -5.5t5 -13.5zM67 143q0 -8 -5.5 -13.5t-13.5 -5.5t-13 5.5t-5 13.5t5 13t13 5t13.5 -5t5.5 -13zM102 88q0 -8 -5.5 -13.5t-13.5 -5.5t-13 5.5t-5 13.5t5 13t13 5t13.5 -5t5.5 -13zM155 53q0 -8 -5.5 -13.5t-13.5 -5.5t-13 5.5
t-5 13.5t5 13t13 5t13.5 -5t5.5 -13zM369 143q0 -8 -5 -13.5t-13 -5.5t-13.5 5.5t-5.5 13.5t5.5 13t13.5 5t13 -5t5 -13zM334 88q0 -8 -5 -13.5t-13 -5.5t-13.5 5.5t-5.5 13.5t5.5 13t13.5 5t13 -5t5 -13zM281 53q0 -8 -5 -13.5t-13 -5.5t-13.5 5.5t-5.5 13.5t5.5 13t13.5 5
t13 -5t5 -13z" />
    <glyph glyph-name="r" unicode="r" horiz-adv-x="280" 
d="M214 405h-2q-10 0 -26 -6q-28 -9 -45.5 -22.5t-37.5 -35.5q-5 -7 -1 -15q3 -7 23 -7q34 0 50 -9q24 -14 25 -29q0 -9 -2 -23t-6.5 -39t-7.5 -44q-1 -10 -7 -34t-7 -31q-14 7 -30 0q-25 -10 -35 -36q-9 -23 -2 -42q6 -19 25 -27q18 -9 35 -3t30 31q4 7 5.5 15.5t3 20
t2.5 19.5q3 14 6 42t4 38q3 20 8.5 52.5t8.5 53t3 30.5q0 6 -1 9q-7 3 -19.5 16t-20.5 16q-7 4 -24 6q10 7 17 9q19 3 27 -3q31 -24 37 -27q7 -3 23 7q4 2 10.5 8.5t6.5 9.5q2 10 -5 10q-9 0 -15 3t-16 12l-12 13q-15 12 -28 12zM149 80h1q7 -1 12 -8.5t3 -16.5
q-3 -15 -10 -15q-8 0 -14 8.5t-6 16.5q0 5 4.5 10t9.5 5z" />
    <glyph glyph-name="s" unicode="s" horiz-adv-x="280" 
d="M214 405h-2q-10 0 -26 -6q-28 -9 -45.5 -22.5t-37.5 -35.5q-5 -7 -1 -15q3 -7 23 -7q34 0 50 -9q24 -14 25 -29q0 -9 -2 -23t-6.5 -39t-7.5 -44q-1 -10 -7 -34t-7 -31q-14 7 -30 0q-25 -10 -35 -36q-9 -23 -2 -42q6 -19 25 -27q18 -9 35 -3t30 31q4 7 5.5 15.5t3 20
t2.5 19.5q3 14 6 42t4 38q3 20 8.5 52.5t8.5 53t3 30.5q0 6 -1 9q-7 3 -19.5 16t-20.5 16q-7 4 -24 6q10 7 17 9q19 3 27 -3q31 -24 37 -27q7 -3 23 7q4 2 10.5 8.5t6.5 9.5q2 10 -5 10q-9 0 -15 3t-16 12l-12 13q-15 12 -28 12zM149 80h1q7 -1 12 -8.5t3 -16.5
q-3 -15 -10 -15q-8 0 -14 8.5t-6 16.5q0 5 4.5 10t9.5 5z" />
    <glyph glyph-name="t" unicode="t" 
d="M218 368q0 -8 -5.5 -13.5t-13.5 -5.5t-13.5 5.5t-5.5 13.5t5.5 13.5t13.5 5.5t13.5 -5.5t5.5 -13.5zM218 41q0 -8 -5.5 -13.5t-13.5 -5.5t-13.5 5.5t-5.5 13.5t5.5 13.5t13.5 5.5t13.5 -5.5t5.5 -13.5zM54 205q0 -8 -5.5 -13t-13.5 -5t-13 5t-5 13t5 13.5t13 5.5
t13.5 -5.5t5.5 -13.5zM382 205q0 -8 -5.5 -13t-13.5 -5t-13 5t-5 13t5 13.5t13 5.5t13.5 -5.5t5.5 -13.5zM67 266q0 -8 -5.5 -13t-13.5 -5t-13 5t-5 13t5 13.5t13 5.5t13.5 -5.5t5.5 -13.5zM102 321q0 -8 -5.5 -13t-13.5 -5t-13 5t-5 13t5 13.5t13 5.5t13.5 -5.5t5.5 -13.5z
M155 356q0 -8 -5.5 -13t-13.5 -5t-13 5t-5 13t5 13.5t13 5.5t13.5 -5.5t5.5 -13.5zM368 266q0 -8 -5 -13t-13 -5t-13.5 5t-5.5 13t5.5 13.5t13.5 5.5t13 -5.5t5 -13.5zM333 321q0 -8 -5 -13t-13 -5t-13.5 5t-5.5 13t5.5 13.5t13.5 5.5t13 -5.5t5 -13.5zM280 356q0 -8 -5 -13
t-13 -5t-13.5 5t-5.5 13t5.5 13.5t13.5 5.5t13 -5.5t5 -13.5zM67 143q0 -8 -5.5 -13.5t-13.5 -5.5t-13 5.5t-5 13.5t5 13t13 5t13.5 -5t5.5 -13zM102 88q0 -8 -5.5 -13.5t-13.5 -5.5t-13 5.5t-5 13.5t5 13t13 5t13.5 -5t5.5 -13zM155 53q0 -8 -5.5 -13.5t-13.5 -5.5t-13 5.5
t-5 13.5t5 13t13 5t13.5 -5t5.5 -13zM369 143q0 -8 -5 -13.5t-13 -5.5t-13.5 5.5t-5.5 13.5t5.5 13t13.5 5t13 -5t5 -13zM334 88q0 -8 -5 -13.5t-13 -5.5t-13.5 5.5t-5.5 13.5t5.5 13t13.5 5t13 -5t5 -13zM281 53q0 -8 -5 -13.5t-13 -5.5t-13.5 5.5t-5.5 13.5t5.5 13t13.5 5
t13 -5t5 -13z" />
    <glyph glyph-name="u" unicode="u" horiz-adv-x="0" 
d="M-29 769h-2q-26 -1 -46 -26q-19 -24 -18 -50q1 -18 19 -37q18 -18 37 -17q26 1 46 26q19 24 18 50q-1 16 -19.5 35t-34.5 19zM-44 725h5q10 -3 19 -12.5t7 -19.5q-1 -5 -7.5 -7t-12.5 -1q-10 3 -19 12.5t-7 19.5q2 8 15 8zM-195 625q-69 1 -145 -37q-8 -4 -20 -13.5
t-20 -16.5l-8 -8q4 1 10.5 3t21 5t22.5 2q47 -4 105.5 -25.5t94.5 -42.5q54 -33 86 -77q25 -35 25 -60q20 30 27 50q30 93 -37 168q-48 52 -162 52zM-205 596q4 0 9 -1q8 0 15 -1q55 -6 108 -51q22 -17 30.5 -38.5t7.5 -54.5q-12 27 -34 46t-58 40q-61 35 -146 48
q35 12 68 12z" />
    <glyph glyph-name="v" unicode="v" horiz-adv-x="260" 
d="M214 400q-4 0 -9 -1q-24 -3 -39 -18q-16 -16 -18 -43q-3 -29 12 -47q12 -13 34 -16l-2 -6q-12 -57 -27 -161q-17 45 -51 102.5t-51 81.5t-51 69q-2 3 -10.5 7.5t-11.5 4.5q-3 -2 -2 -22.5t5 -36.5q3 -11 7 -16q34 -48 50 -72t43 -68t39.5 -80.5t14.5 -68.5q1 -4 7 -8
q1 -1 2 -1v-1q3 0 9.5 5t10.5 15q7 14 10 38q16 117 36 206q1 5 17 29q15 23 20 45q6 31 -11 49q-12 12 -31 13q-2 0 -3 1zM202 361h3q7 0 11 -3q10 -11 8 -25q-2 -7 -9 -11q-5 -3 -13 -2q-12 1 -15 6q-11 15 0 30q4 5 15 5z" />
    <glyph glyph-name="w" unicode="w" 
d="M218 368q0 -8 -5.5 -13.5t-13.5 -5.5t-13.5 5.5t-5.5 13.5t5.5 13.5t13.5 5.5t13.5 -5.5t5.5 -13.5zM218 41q0 -8 -5.5 -13.5t-13.5 -5.5t-13.5 5.5t-5.5 13.5t5.5 13.5t13.5 5.5t13.5 -5.5t5.5 -13.5zM54 205q0 -8 -5.5 -13t-13.5 -5t-13 5t-5 13t5 13.5t13 5.5
t13.5 -5.5t5.5 -13.5zM382 205q0 -8 -5.5 -13t-13.5 -5t-13 5t-5 13t5 13.5t13 5.5t13.5 -5.5t5.5 -13.5zM67 266q0 -8 -5.5 -13t-13.5 -5t-13 5t-5 13t5 13.5t13 5.5t13.5 -5.5t5.5 -13.5zM102 321q0 -8 -5.5 -13t-13.5 -5t-13 5t-5 13t5 13.5t13 5.5t13.5 -5.5t5.5 -13.5z
M155 356q0 -8 -5.5 -13t-13.5 -5t-13 5t-5 13t5 13.5t13 5.5t13.5 -5.5t5.5 -13.5zM368 266q0 -8 -5 -13t-13 -5t-13.5 5t-5.5 13t5.5 13.5t13.5 5.5t13 -5.5t5 -13.5zM333 321q0 -8 -5 -13t-13 -5t-13.5 5t-5.5 13t5.5 13.5t13.5 5.5t13 -5.5t5 -13.5zM280 356q0 -8 -5 -13
t-13 -5t-13.5 5t-5.5 13t5.5 13.5t13.5 5.5t13 -5.5t5 -13.5zM67 143q0 -8 -5.5 -13.5t-13.5 -5.5t-13 5.5t-5 13.5t5 13t13 5t13.5 -5t5.5 -13zM102 88q0 -8 -5.5 -13.5t-13.5 -5.5t-13 5.5t-5 13.5t5 13t13 5t13.5 -5t5.5 -13zM155 53q0 -8 -5.5 -13.5t-13.5 -5.5t-13 5.5
t-5 13.5t5 13t13 5t13.5 -5t5.5 -13zM369 143q0 -8 -5 -13.5t-13 -5.5t-13.5 5.5t-5.5 13.5t5.5 13t13.5 5t13 -5t5 -13zM334 88q0 -8 -5 -13.5t-13 -5.5t-13.5 5.5t-5.5 13.5t5.5 13t13.5 5t13 -5t5 -13zM281 53q0 -8 -5 -13.5t-13 -5.5t-13.5 5.5t-5.5 13.5t5.5 13t13.5 5
t13 -5t5 -13z" />
    <glyph glyph-name="x" unicode="x" 
d="M218 368q0 -8 -5.5 -13.5t-13.5 -5.5t-13.5 5.5t-5.5 13.5t5.5 13.5t13.5 5.5t13.5 -5.5t5.5 -13.5zM218 41q0 -8 -5.5 -13.5t-13.5 -5.5t-13.5 5.5t-5.5 13.5t5.5 13.5t13.5 5.5t13.5 -5.5t5.5 -13.5zM54 205q0 -8 -5.5 -13t-13.5 -5t-13 5t-5 13t5 13.5t13 5.5
t13.5 -5.5t5.5 -13.5zM382 205q0 -8 -5.5 -13t-13.5 -5t-13 5t-5 13t5 13.5t13 5.5t13.5 -5.5t5.5 -13.5zM67 266q0 -8 -5.5 -13t-13.5 -5t-13 5t-5 13t5 13.5t13 5.5t13.5 -5.5t5.5 -13.5zM102 321q0 -8 -5.5 -13t-13.5 -5t-13 5t-5 13t5 13.5t13 5.5t13.5 -5.5t5.5 -13.5z
M155 356q0 -8 -5.5 -13t-13.5 -5t-13 5t-5 13t5 13.5t13 5.5t13.5 -5.5t5.5 -13.5zM368 266q0 -8 -5 -13t-13 -5t-13.5 5t-5.5 13t5.5 13.5t13.5 5.5t13 -5.5t5 -13.5zM333 321q0 -8 -5 -13t-13 -5t-13.5 5t-5.5 13t5.5 13.5t13.5 5.5t13 -5.5t5 -13.5zM280 356q0 -8 -5 -13
t-13 -5t-13.5 5t-5.5 13t5.5 13.5t13.5 5.5t13 -5.5t5 -13.5zM67 143q0 -8 -5.5 -13.5t-13.5 -5.5t-13 5.5t-5 13.5t5 13t13 5t13.5 -5t5.5 -13zM102 88q0 -8 -5.5 -13.5t-13.5 -5.5t-13 5.5t-5 13.5t5 13t13 5t13.5 -5t5.5 -13zM155 53q0 -8 -5.5 -13.5t-13.5 -5.5t-13 5.5
t-5 13.5t5 13t13 5t13.5 -5t5.5 -13zM369 143q0 -8 -5 -13.5t-13 -5.5t-13.5 5.5t-5.5 13.5t5.5 13t13.5 5t13 -5t5 -13zM334 88q0 -8 -5 -13.5t-13 -5.5t-13.5 5.5t-5.5 13.5t5.5 13t13.5 5t13 -5t5 -13zM281 53q0 -8 -5 -13.5t-13 -5.5t-13.5 5.5t-5.5 13.5t5.5 13t13.5 5
t13 -5t5 -13z" />
    <glyph glyph-name="y" unicode="y" 
d="M218 368q0 -8 -5.5 -13.5t-13.5 -5.5t-13.5 5.5t-5.5 13.5t5.5 13.5t13.5 5.5t13.5 -5.5t5.5 -13.5zM218 41q0 -8 -5.5 -13.5t-13.5 -5.5t-13.5 5.5t-5.5 13.5t5.5 13.5t13.5 5.5t13.5 -5.5t5.5 -13.5zM54 205q0 -8 -5.5 -13t-13.5 -5t-13 5t-5 13t5 13.5t13 5.5
t13.5 -5.5t5.5 -13.5zM382 205q0 -8 -5.5 -13t-13.5 -5t-13 5t-5 13t5 13.5t13 5.5t13.5 -5.5t5.5 -13.5zM67 266q0 -8 -5.5 -13t-13.5 -5t-13 5t-5 13t5 13.5t13 5.5t13.5 -5.5t5.5 -13.5zM102 321q0 -8 -5.5 -13t-13.5 -5t-13 5t-5 13t5 13.5t13 5.5t13.5 -5.5t5.5 -13.5z
M155 356q0 -8 -5.5 -13t-13.5 -5t-13 5t-5 13t5 13.5t13 5.5t13.5 -5.5t5.5 -13.5zM368 266q0 -8 -5 -13t-13 -5t-13.5 5t-5.5 13t5.5 13.5t13.5 5.5t13 -5.5t5 -13.5zM333 321q0 -8 -5 -13t-13 -5t-13.5 5t-5.5 13t5.5 13.5t13.5 5.5t13 -5.5t5 -13.5zM280 356q0 -8 -5 -13
t-13 -5t-13.5 5t-5.5 13t5.5 13.5t13.5 5.5t13 -5.5t5 -13.5zM67 143q0 -8 -5.5 -13.5t-13.5 -5.5t-13 5.5t-5 13.5t5 13t13 5t13.5 -5t5.5 -13zM102 88q0 -8 -5.5 -13.5t-13.5 -5.5t-13 5.5t-5 13.5t5 13t13 5t13.5 -5t5.5 -13zM155 53q0 -8 -5.5 -13.5t-13.5 -5.5t-13 5.5
t-5 13.5t5 13t13 5t13.5 -5t5.5 -13zM369 143q0 -8 -5 -13.5t-13 -5.5t-13.5 5.5t-5.5 13.5t5.5 13t13.5 5t13 -5t5 -13zM334 88q0 -8 -5 -13.5t-13 -5.5t-13.5 5.5t-5.5 13.5t5.5 13t13.5 5t13 -5t5 -13zM281 53q0 -8 -5 -13.5t-13 -5.5t-13.5 5.5t-5.5 13.5t5.5 13t13.5 5
t13 -5t5 -13z" />
    <glyph glyph-name="z" unicode="z" 
d="M218 368q0 -8 -5.5 -13.5t-13.5 -5.5t-13.5 5.5t-5.5 13.5t5.5 13.5t13.5 5.5t13.5 -5.5t5.5 -13.5zM218 41q0 -8 -5.5 -13.5t-13.5 -5.5t-13.5 5.5t-5.5 13.5t5.5 13.5t13.5 5.5t13.5 -5.5t5.5 -13.5zM54 205q0 -8 -5.5 -13t-13.5 -5t-13 5t-5 13t5 13.5t13 5.5
t13.5 -5.5t5.5 -13.5zM382 205q0 -8 -5.5 -13t-13.5 -5t-13 5t-5 13t5 13.5t13 5.5t13.5 -5.5t5.5 -13.5zM67 266q0 -8 -5.5 -13t-13.5 -5t-13 5t-5 13t5 13.5t13 5.5t13.5 -5.5t5.5 -13.5zM102 321q0 -8 -5.5 -13t-13.5 -5t-13 5t-5 13t5 13.5t13 5.5t13.5 -5.5t5.5 -13.5z
M155 356q0 -8 -5.5 -13t-13.5 -5t-13 5t-5 13t5 13.5t13 5.5t13.5 -5.5t5.5 -13.5zM368 266q0 -8 -5 -13t-13 -5t-13.5 5t-5.5 13t5.5 13.5t13.5 5.5t13 -5.5t5 -13.5zM333 321q0 -8 -5 -13t-13 -5t-13.5 5t-5.5 13t5.5 13.5t13.5 5.5t13 -5.5t5 -13.5zM280 356q0 -8 -5 -13
t-13 -5t-13.5 5t-5.5 13t5.5 13.5t13.5 5.5t13 -5.5t5 -13.5zM67 143q0 -8 -5.5 -13.5t-13.5 -5.5t-13 5.5t-5 13.5t5 13t13 5t13.5 -5t5.5 -13zM102 88q0 -8 -5.5 -13.5t-13.5 -5.5t-13 5.5t-5 13.5t5 13t13 5t13.5 -5t5.5 -13zM155 53q0 -8 -5.5 -13.5t-13.5 -5.5t-13 5.5
t-5 13.5t5 13t13 5t13.5 -5t5.5 -13zM369 143q0 -8 -5 -13.5t-13 -5.5t-13.5 5.5t-5.5 13.5t5.5 13t13.5 5t13 -5t5 -13zM334 88q0 -8 -5 -13.5t-13 -5.5t-13.5 5.5t-5.5 13.5t5.5 13t13.5 5t13 -5t5 -13zM281 53q0 -8 -5 -13.5t-13 -5.5t-13.5 5.5t-5.5 13.5t5.5 13t13.5 5
t13 -5t5 -13z" />
    <glyph glyph-name="braceleft" unicode="{" 
d="M218 368q0 -8 -5.5 -13.5t-13.5 -5.5t-13.5 5.5t-5.5 13.5t5.5 13.5t13.5 5.5t13.5 -5.5t5.5 -13.5zM218 41q0 -8 -5.5 -13.5t-13.5 -5.5t-13.5 5.5t-5.5 13.5t5.5 13.5t13.5 5.5t13.5 -5.5t5.5 -13.5zM54 205q0 -8 -5.5 -13t-13.5 -5t-13 5t-5 13t5 13.5t13 5.5
t13.5 -5.5t5.5 -13.5zM382 205q0 -8 -5.5 -13t-13.5 -5t-13 5t-5 13t5 13.5t13 5.5t13.5 -5.5t5.5 -13.5zM67 266q0 -8 -5.5 -13t-13.5 -5t-13 5t-5 13t5 13.5t13 5.5t13.5 -5.5t5.5 -13.5zM102 321q0 -8 -5.5 -13t-13.5 -5t-13 5t-5 13t5 13.5t13 5.5t13.5 -5.5t5.5 -13.5z
M155 356q0 -8 -5.5 -13t-13.5 -5t-13 5t-5 13t5 13.5t13 5.5t13.5 -5.5t5.5 -13.5zM368 266q0 -8 -5 -13t-13 -5t-13.5 5t-5.5 13t5.5 13.5t13.5 5.5t13 -5.5t5 -13.5zM333 321q0 -8 -5 -13t-13 -5t-13.5 5t-5.5 13t5.5 13.5t13.5 5.5t13 -5.5t5 -13.5zM280 356q0 -8 -5 -13
t-13 -5t-13.5 5t-5.5 13t5.5 13.5t13.5 5.5t13 -5.5t5 -13.5zM67 143q0 -8 -5.5 -13.5t-13.5 -5.5t-13 5.5t-5 13.5t5 13t13 5t13.5 -5t5.5 -13zM102 88q0 -8 -5.5 -13.5t-13.5 -5.5t-13 5.5t-5 13.5t5 13t13 5t13.5 -5t5.5 -13zM155 53q0 -8 -5.5 -13.5t-13.5 -5.5t-13 5.5
t-5 13.5t5 13t13 5t13.5 -5t5.5 -13zM369 143q0 -8 -5 -13.5t-13 -5.5t-13.5 5.5t-5.5 13.5t5.5 13t13.5 5t13 -5t5 -13zM334 88q0 -8 -5 -13.5t-13 -5.5t-13.5 5.5t-5.5 13.5t5.5 13t13.5 5t13 -5t5 -13zM281 53q0 -8 -5 -13.5t-13 -5.5t-13.5 5.5t-5.5 13.5t5.5 13t13.5 5
t13 -5t5 -13z" />
    <glyph glyph-name="bar" unicode="|" 
d="M218 368q0 -8 -5.5 -13.5t-13.5 -5.5t-13.5 5.5t-5.5 13.5t5.5 13.5t13.5 5.5t13.5 -5.5t5.5 -13.5zM218 41q0 -8 -5.5 -13.5t-13.5 -5.5t-13.5 5.5t-5.5 13.5t5.5 13.5t13.5 5.5t13.5 -5.5t5.5 -13.5zM54 205q0 -8 -5.5 -13t-13.5 -5t-13 5t-5 13t5 13.5t13 5.5
t13.5 -5.5t5.5 -13.5zM382 205q0 -8 -5.5 -13t-13.5 -5t-13 5t-5 13t5 13.5t13 5.5t13.5 -5.5t5.5 -13.5zM67 266q0 -8 -5.5 -13t-13.5 -5t-13 5t-5 13t5 13.5t13 5.5t13.5 -5.5t5.5 -13.5zM102 321q0 -8 -5.5 -13t-13.5 -5t-13 5t-5 13t5 13.5t13 5.5t13.5 -5.5t5.5 -13.5z
M155 356q0 -8 -5.5 -13t-13.5 -5t-13 5t-5 13t5 13.5t13 5.5t13.5 -5.5t5.5 -13.5zM368 266q0 -8 -5 -13t-13 -5t-13.5 5t-5.5 13t5.5 13.5t13.5 5.5t13 -5.5t5 -13.5zM333 321q0 -8 -5 -13t-13 -5t-13.5 5t-5.5 13t5.5 13.5t13.5 5.5t13 -5.5t5 -13.5zM280 356q0 -8 -5 -13
t-13 -5t-13.5 5t-5.5 13t5.5 13.5t13.5 5.5t13 -5.5t5 -13.5zM67 143q0 -8 -5.5 -13.5t-13.5 -5.5t-13 5.5t-5 13.5t5 13t13 5t13.5 -5t5.5 -13zM102 88q0 -8 -5.5 -13.5t-13.5 -5.5t-13 5.5t-5 13.5t5 13t13 5t13.5 -5t5.5 -13zM155 53q0 -8 -5.5 -13.5t-13.5 -5.5t-13 5.5
t-5 13.5t5 13t13 5t13.5 -5t5.5 -13zM369 143q0 -8 -5 -13.5t-13 -5.5t-13.5 5.5t-5.5 13.5t5.5 13t13.5 5t13 -5t5 -13zM334 88q0 -8 -5 -13.5t-13 -5.5t-13.5 5.5t-5.5 13.5t5.5 13t13.5 5t13 -5t5 -13zM281 53q0 -8 -5 -13.5t-13 -5.5t-13.5 5.5t-5.5 13.5t5.5 13t13.5 5
t13 -5t5 -13z" />
    <glyph glyph-name="braceright" unicode="}" 
d="M218 368q0 -8 -5.5 -13.5t-13.5 -5.5t-13.5 5.5t-5.5 13.5t5.5 13.5t13.5 5.5t13.5 -5.5t5.5 -13.5zM218 41q0 -8 -5.5 -13.5t-13.5 -5.5t-13.5 5.5t-5.5 13.5t5.5 13.5t13.5 5.5t13.5 -5.5t5.5 -13.5zM54 205q0 -8 -5.5 -13t-13.5 -5t-13 5t-5 13t5 13.5t13 5.5
t13.5 -5.5t5.5 -13.5zM382 205q0 -8 -5.5 -13t-13.5 -5t-13 5t-5 13t5 13.5t13 5.5t13.5 -5.5t5.5 -13.5zM67 266q0 -8 -5.5 -13t-13.5 -5t-13 5t-5 13t5 13.5t13 5.5t13.5 -5.5t5.5 -13.5zM102 321q0 -8 -5.5 -13t-13.5 -5t-13 5t-5 13t5 13.5t13 5.5t13.5 -5.5t5.5 -13.5z
M155 356q0 -8 -5.5 -13t-13.5 -5t-13 5t-5 13t5 13.5t13 5.5t13.5 -5.5t5.5 -13.5zM368 266q0 -8 -5 -13t-13 -5t-13.5 5t-5.5 13t5.5 13.5t13.5 5.5t13 -5.5t5 -13.5zM333 321q0 -8 -5 -13t-13 -5t-13.5 5t-5.5 13t5.5 13.5t13.5 5.5t13 -5.5t5 -13.5zM280 356q0 -8 -5 -13
t-13 -5t-13.5 5t-5.5 13t5.5 13.5t13.5 5.5t13 -5.5t5 -13.5zM67 143q0 -8 -5.5 -13.5t-13.5 -5.5t-13 5.5t-5 13.5t5 13t13 5t13.5 -5t5.5 -13zM102 88q0 -8 -5.5 -13.5t-13.5 -5.5t-13 5.5t-5 13.5t5 13t13 5t13.5 -5t5.5 -13zM155 53q0 -8 -5.5 -13.5t-13.5 -5.5t-13 5.5
t-5 13.5t5 13t13 5t13.5 -5t5.5 -13zM369 143q0 -8 -5 -13.5t-13 -5.5t-13.5 5.5t-5.5 13.5t5.5 13t13.5 5t13 -5t5 -13zM334 88q0 -8 -5 -13.5t-13 -5.5t-13.5 5.5t-5.5 13.5t5.5 13t13.5 5t13 -5t5 -13zM281 53q0 -8 -5 -13.5t-13 -5.5t-13.5 5.5t-5.5 13.5t5.5 13t13.5 5
t13 -5t5 -13z" />
    <glyph glyph-name="asciitilde" unicode="~" 
d="M218 368q0 -8 -5.5 -13.5t-13.5 -5.5t-13.5 5.5t-5.5 13.5t5.5 13.5t13.5 5.5t13.5 -5.5t5.5 -13.5zM218 41q0 -8 -5.5 -13.5t-13.5 -5.5t-13.5 5.5t-5.5 13.5t5.5 13.5t13.5 5.5t13.5 -5.5t5.5 -13.5zM54 205q0 -8 -5.5 -13t-13.5 -5t-13 5t-5 13t5 13.5t13 5.5
t13.5 -5.5t5.5 -13.5zM382 205q0 -8 -5.5 -13t-13.5 -5t-13 5t-5 13t5 13.5t13 5.5t13.5 -5.5t5.5 -13.5zM67 266q0 -8 -5.5 -13t-13.5 -5t-13 5t-5 13t5 13.5t13 5.5t13.5 -5.5t5.5 -13.5zM102 321q0 -8 -5.5 -13t-13.5 -5t-13 5t-5 13t5 13.5t13 5.5t13.5 -5.5t5.5 -13.5z
M155 356q0 -8 -5.5 -13t-13.5 -5t-13 5t-5 13t5 13.5t13 5.5t13.5 -5.5t5.5 -13.5zM368 266q0 -8 -5 -13t-13 -5t-13.5 5t-5.5 13t5.5 13.5t13.5 5.5t13 -5.5t5 -13.5zM333 321q0 -8 -5 -13t-13 -5t-13.5 5t-5.5 13t5.5 13.5t13.5 5.5t13 -5.5t5 -13.5zM280 356q0 -8 -5 -13
t-13 -5t-13.5 5t-5.5 13t5.5 13.5t13.5 5.5t13 -5.5t5 -13.5zM67 143q0 -8 -5.5 -13.5t-13.5 -5.5t-13 5.5t-5 13.5t5 13t13 5t13.5 -5t5.5 -13zM102 88q0 -8 -5.5 -13.5t-13.5 -5.5t-13 5.5t-5 13.5t5 13t13 5t13.5 -5t5.5 -13zM155 53q0 -8 -5.5 -13.5t-13.5 -5.5t-13 5.5
t-5 13.5t5 13t13 5t13.5 -5t5.5 -13zM369 143q0 -8 -5 -13.5t-13 -5.5t-13.5 5.5t-5.5 13.5t5.5 13t13.5 5t13 -5t5 -13zM334 88q0 -8 -5 -13.5t-13 -5.5t-13.5 5.5t-5.5 13.5t5.5 13t13.5 5t13 -5t5 -13zM281 53q0 -8 -5 -13.5t-13 -5.5t-13.5 5.5t-5.5 13.5t5.5 13t13.5 5
t13 -5t5 -13z" />
    <glyph glyph-name="uni007F" 
d="M218 368q0 -8 -5.5 -13.5t-13.5 -5.5t-13.5 5.5t-5.5 13.5t5.5 13.5t13.5 5.5t13.5 -5.5t5.5 -13.5zM218 41q0 -8 -5.5 -13.5t-13.5 -5.5t-13.5 5.5t-5.5 13.5t5.5 13.5t13.5 5.5t13.5 -5.5t5.5 -13.5zM54 205q0 -8 -5.5 -13t-13.5 -5t-13 5t-5 13t5 13.5t13 5.5
t13.5 -5.5t5.5 -13.5zM382 205q0 -8 -5.5 -13t-13.5 -5t-13 5t-5 13t5 13.5t13 5.5t13.5 -5.5t5.5 -13.5zM67 266q0 -8 -5.5 -13t-13.5 -5t-13 5t-5 13t5 13.5t13 5.5t13.5 -5.5t5.5 -13.5zM102 321q0 -8 -5.5 -13t-13.5 -5t-13 5t-5 13t5 13.5t13 5.5t13.5 -5.5t5.5 -13.5z
M155 356q0 -8 -5.5 -13t-13.5 -5t-13 5t-5 13t5 13.5t13 5.5t13.5 -5.5t5.5 -13.5zM368 266q0 -8 -5 -13t-13 -5t-13.5 5t-5.5 13t5.5 13.5t13.5 5.5t13 -5.5t5 -13.5zM333 321q0 -8 -5 -13t-13 -5t-13.5 5t-5.5 13t5.5 13.5t13.5 5.5t13 -5.5t5 -13.5zM280 356q0 -8 -5 -13
t-13 -5t-13.5 5t-5.5 13t5.5 13.5t13.5 5.5t13 -5.5t5 -13.5zM67 143q0 -8 -5.5 -13.5t-13.5 -5.5t-13 5.5t-5 13.5t5 13t13 5t13.5 -5t5.5 -13zM102 88q0 -8 -5.5 -13.5t-13.5 -5.5t-13 5.5t-5 13.5t5 13t13 5t13.5 -5t5.5 -13zM155 53q0 -8 -5.5 -13.5t-13.5 -5.5t-13 5.5
t-5 13.5t5 13t13 5t13.5 -5t5.5 -13zM369 143q0 -8 -5 -13.5t-13 -5.5t-13.5 5.5t-5.5 13.5t5.5 13t13.5 5t13 -5t5 -13zM334 88q0 -8 -5 -13.5t-13 -5.5t-13.5 5.5t-5.5 13.5t5.5 13t13.5 5t13 -5t5 -13zM281 53q0 -8 -5 -13.5t-13 -5.5t-13.5 5.5t-5.5 13.5t5.5 13t13.5 5
t13 -5t5 -13z" />
    <glyph glyph-name="clearthai" unicode="&#xe00;" horiz-adv-x="0" 
 />
    <glyph glyph-name="kokaithai" unicode="&#xe01;" horiz-adv-x="447" 
d="M367 161q-5 -10 -5 -22q0 -14 5 -20v42zM96 330l-63 35q-1 0 4 6q4 3 5 4l21 16q18 15 44 30q22 14 35 14q15 0 49.5 -15.5t47.5 -15.5q6 0 46 14.5t53 14.5q20 0 38 -15l34 -28q17 -13 28 -13v-1q-5 -9 -15.5 -17.5t-17.5 -8.5q-8 0 -15 5l-33 24q-16 13 -29 13
t-51.5 -13.5t-50.5 -13.5t-46 14q-35 13 -48 14q-14 0 -30 -9q-1 -2 -4 -4l68 -38l29 8q30 7 42 7q15 0 58 -15q41 -14 73 -28l36 -15v-198l-5 -6q-3 -3 -5 -4l-26 -18v-1q-13 0 -25.5 15.5t-12.5 33.5q0 15 10 27q13 16 27 23l1 96q-30 16 -81 32q-42 12 -61 12
q-12 0 -37 -8q-16 -5 -25 -10v-4l-1 -9v-161q0 -11 -4 -18q-3 -6 -11.5 -14.5t-14.5 -12.5h-36q-1 0 5 5q4 5 5 5q5 3 9 6q2 2 3 5q3 5 7 13v134q-12 -18 -29 -25l-8 -2h-7h-3h-4l-7 4q-4 1 -10 4q-4 4 -7 9q-14 18 -14 34l1 8q1 7 6 19q6 14 19 25q12 10 26 11zM112 274
q0 2 -3 5l-8 12l-4 2q-5 2 -10 2l-7 -2q-4 -1 -7 -2q-2 -5 -2 -11v-8q0 -10 11 -17q5 -3 9.5 -3t7.5 1v-1l5 3l6 11q2 5 2 8z" />
    <glyph glyph-name="khokhaithai" unicode="&#xe02;" horiz-adv-x="390" 
d="M135 270q0 9 -5 13l-10 6q-5 2 -13 2q-4 0 -11 -1q-3 -1 -8 -3q-2 -3 -2 -6q1 -5 4 -8l8 -7l6 -5l9 -2h6q8 -2 15 2q1 4 1 9zM397 247q0 -15 -41 -54q-28 -27 -70 -61q-33 -25 -50 -34q-37 -23 -74 -23h-24h-25q-9 0 -16 5q-12 8 -25 19q-16 14 -21 22q0 1 5 6q5 4 6 5
q17 4 40 18q16 8 46 27l51 32q32 20 64 44q17 12 21 16q1 1 2 1l32 23l-7 14q-16 17 -40 34q-34 24 -81 36q-10 0 -30 -10l-20 -11l-27 -17l-5 -3l-6 -4q-2 -2 -4 -5l-1 -5l10 6q2 0 7 2q3 1 5 1l2 -1q11 0 22 -5q7 -3 14 -11q12 -14 14 -27l1 -10q0 -18 -14 -33
q-7 -8 -14 -13q-14 -12 -37 -12q-6 0 -16 3l-12 5q-10 4 -16 9l-4 4q-2 4 -6 8q-4 8 -5.5 18t-1.5 22q0 11 5 25q6 11 16 23q22 26 70 55q47 30 65 30q15 0 42 -12q17 -7 29.5 -15t27.5 -20q3 -2 7 -5q6 -4 18 -16q29 -26 47 -51q24 -33 24 -55zM343 275l-25 -19l-57 -43
q-30 -23 -57 -40l-63 -37q-9 -6 -18 -11l6 -4l17 -7q8 -2 20 -2q9 0 25 5l19 8q13 6 43 27v-1q32 24 64 49q29 22 36 32l2 2q4 6 4 14q0 14 -16 27z" />
    <glyph glyph-name="uni0E03" unicode="&#xe03;" 
d="M218 368q0 -8 -5.5 -13.5t-13.5 -5.5t-13.5 5.5t-5.5 13.5t5.5 13.5t13.5 5.5t13.5 -5.5t5.5 -13.5zM218 41q0 -8 -5.5 -13.5t-13.5 -5.5t-13.5 5.5t-5.5 13.5t5.5 13.5t13.5 5.5t13.5 -5.5t5.5 -13.5zM54 205q0 -8 -5.5 -13t-13.5 -5t-13 5t-5 13t5 13.5t13 5.5
t13.5 -5.5t5.5 -13.5zM382 205q0 -8 -5.5 -13t-13.5 -5t-13 5t-5 13t5 13.5t13 5.5t13.5 -5.5t5.5 -13.5zM67 266q0 -8 -5.5 -13t-13.5 -5t-13 5t-5 13t5 13.5t13 5.5t13.5 -5.5t5.5 -13.5zM102 321q0 -8 -5.5 -13t-13.5 -5t-13 5t-5 13t5 13.5t13 5.5t13.5 -5.5t5.5 -13.5z
M155 356q0 -8 -5.5 -13t-13.5 -5t-13 5t-5 13t5 13.5t13 5.5t13.5 -5.5t5.5 -13.5zM368 266q0 -8 -5 -13t-13 -5t-13.5 5t-5.5 13t5.5 13.5t13.5 5.5t13 -5.5t5 -13.5zM333 321q0 -8 -5 -13t-13 -5t-13.5 5t-5.5 13t5.5 13.5t13.5 5.5t13 -5.5t5 -13.5zM280 356q0 -8 -5 -13
t-13 -5t-13.5 5t-5.5 13t5.5 13.5t13.5 5.5t13 -5.5t5 -13.5zM67 143q0 -8 -5.5 -13.5t-13.5 -5.5t-13 5.5t-5 13.5t5 13t13 5t13.5 -5t5.5 -13zM102 88q0 -8 -5.5 -13.5t-13.5 -5.5t-13 5.5t-5 13.5t5 13t13 5t13.5 -5t5.5 -13zM155 53q0 -8 -5.5 -13.5t-13.5 -5.5t-13 5.5
t-5 13.5t5 13t13 5t13.5 -5t5.5 -13zM369 143q0 -8 -5 -13.5t-13 -5.5t-13.5 5.5t-5.5 13.5t5.5 13t13.5 5t13 -5t5 -13zM334 88q0 -8 -5 -13.5t-13 -5.5t-13.5 5.5t-5.5 13.5t5.5 13t13.5 5t13 -5t5 -13zM281 53q0 -8 -5 -13.5t-13 -5.5t-13.5 5.5t-5.5 13.5t5.5 13t13.5 5
t13 -5t5 -13z" />
    <glyph glyph-name="khokhwaithai" unicode="&#xe04;" horiz-adv-x="447" 
d="M134 129q0 30 -27 30q-8 0 -16 -4v-4l-1 -5q-1 -13 8 -24q6 -8 15 -10h5q6 -1 11 2q3 6 5 15zM357 159q-8 -12 -8 -25q0 -11 8 -18v43zM357 169v79v-1l-68 24q-37 12 -56 15q-13 2 -38 2q-48 0 -64 -8q-5 -2 -8 -5q-10 -11 -20 -31q-15 -30 -18 -54q13 9 26 9q14 0 31 -8
q7 -2 13 -7l4 -5q9 -16 9 -33v-10q0 -2 -3 -10q-5 -20 -17 -33q-7 -8 -13 -12q-12 -8 -31 -8q-25 0 -42 27q-15 22 -15 43q0 57 17 97q13 32 47 66l-89 49q0 1 5 6l5 5l26 15q30 18 54 29q30 14 42 14q11 0 45 -15.5t44 -15.5q5 0 31 15q27 14 38.5 14t33.5 -14l39 -29
q22 -15 28 -17q-3 -9 -14 -17t-19 -8q-10 0 -19 6l-32 25q-18 13 -30 13q-6 0 -31 -13t-37 -13t-43 12q-32 15 -45 16q-13 0 -42 -12q-6 -2 -13 -6l69 -33q15 1 32 1l35 -1q14 -1 26 -3q23 -6 51 -16q33 -11 54 -19l39 -17h1v-170q-3 -8 -6 -13q-16 -21 -31 -21
q-16 0 -28 12t-12 31q0 21 16 36q11 12 23 17z" />
    <glyph glyph-name="uni0E05" unicode="&#xe05;" 
d="M218 368q0 -8 -5.5 -13.5t-13.5 -5.5t-13.5 5.5t-5.5 13.5t5.5 13.5t13.5 5.5t13.5 -5.5t5.5 -13.5zM218 41q0 -8 -5.5 -13.5t-13.5 -5.5t-13.5 5.5t-5.5 13.5t5.5 13.5t13.5 5.5t13.5 -5.5t5.5 -13.5zM54 205q0 -8 -5.5 -13t-13.5 -5t-13 5t-5 13t5 13.5t13 5.5
t13.5 -5.5t5.5 -13.5zM382 205q0 -8 -5.5 -13t-13.5 -5t-13 5t-5 13t5 13.5t13 5.5t13.5 -5.5t5.5 -13.5zM67 266q0 -8 -5.5 -13t-13.5 -5t-13 5t-5 13t5 13.5t13 5.5t13.5 -5.5t5.5 -13.5zM102 321q0 -8 -5.5 -13t-13.5 -5t-13 5t-5 13t5 13.5t13 5.5t13.5 -5.5t5.5 -13.5z
M155 356q0 -8 -5.5 -13t-13.5 -5t-13 5t-5 13t5 13.5t13 5.5t13.5 -5.5t5.5 -13.5zM368 266q0 -8 -5 -13t-13 -5t-13.5 5t-5.5 13t5.5 13.5t13.5 5.5t13 -5.5t5 -13.5zM333 321q0 -8 -5 -13t-13 -5t-13.5 5t-5.5 13t5.5 13.5t13.5 5.5t13 -5.5t5 -13.5zM280 356q0 -8 -5 -13
t-13 -5t-13.5 5t-5.5 13t5.5 13.5t13.5 5.5t13 -5.5t5 -13.5zM67 143q0 -8 -5.5 -13.5t-13.5 -5.5t-13 5.5t-5 13.5t5 13t13 5t13.5 -5t5.5 -13zM102 88q0 -8 -5.5 -13.5t-13.5 -5.5t-13 5.5t-5 13.5t5 13t13 5t13.5 -5t5.5 -13zM155 53q0 -8 -5.5 -13.5t-13.5 -5.5t-13 5.5
t-5 13.5t5 13t13 5t13.5 -5t5.5 -13zM369 143q0 -8 -5 -13.5t-13 -5.5t-13.5 5.5t-5.5 13.5t5.5 13t13.5 5t13 -5t5 -13zM334 88q0 -8 -5 -13.5t-13 -5.5t-13.5 5.5t-5.5 13.5t5.5 13t13.5 5t13 -5t5 -13zM281 53q0 -8 -5 -13.5t-13 -5.5t-13.5 5.5t-5.5 13.5t5.5 13t13.5 5
t13 -5t5 -13z" />
    <glyph glyph-name="khorakhangthai" unicode="&#xe06;" horiz-adv-x="630" 
d="M584 346l-8 -6q-4 -3 -12 -4q-9 0 -30 11q-18 9 -26 12l-20 -30q10 -3 28 -12q20 -8 24 -12q37 -44 41 -66v-8q1 -7 0 -23q-2 -11 -5 -24q-9 -33 -26 -56h-1q-18 -24 -54 -37q-28 -9 -63 -15q-28 -3 -53 -3q-11 0 -40 14q-25 13 -46 28l-18 18l-19 -20q-14 -16 -35 -33
q-5 -5 -10 -5l-10 -2l-9 1l-9 2q-11 3 -27 21q-28 31 -51 51v1q10 14 28 36q21 27 34 40l29 31q5 6 11 13q4 5 5 6q-5 7 -19 24q-9 12 -17 20l-25 29q-16 19 -25 19q-4 0 -10 -5q-1 -2 -3 -4q-1 0 -2 -2q-7 -7 -15 -22q4 2 9 2t7 -1q10 -1 23 -14q5 -5 8.5 -12.5t4.5 -12.5
l2 -12v-5q1 -21 -24 -46q-15 -14 -29 -14h-4h-4l-11 4q-17 5 -25 21q-4 9 -9 36q0 32 32 75q39 50 60 50q12 0 32 -17q25 -21 44 -46l24 -30q14 -19 19 -27l-1 -1l-18 -22l-1 -1l-33 -36l-33 -40l-17 -21q14 -17 28 -31q23 -19 35 -19q2 0 13 9v1q15 12 36 36q34 38 74 93
q-15 14 -44 33l-58 38q-1 0 2 3l13 15l15 18q1 1 3 2q7 8 14 15l1 1q21 21 25 23l16 -16q18 -18 35 -31q21 -17 36 -27l-5 -6q-3 -2 -4 -4q-12 -10 -18 -10q-3 0 -5 1l-5 3q-11 4 -30 19q-18 13 -29 25q-5 -6 -14 -15q16 -13 44 -32l55 -38q-10 -20 -27 -38q-4 -6 -9 -12
t-11 -13t-9 -10v-1q-11 -12 -27 -32q20 -20 58 -40q34 -17 45 -16q10 1 28 2q15 2 36 7q36 7 51 18q27 35 27 73v10q-1 23 -18 39q-6 7 -29 23q-4 2 -28 13q-28 11 -38 14q1 0 1 1q15 19 35 46l23 32l8 12q2 3 7 7l3 4l83 -52q0 -1 -5 -6zM116 272q0 16 -11 24q-4 3 -7 4
l-7 2l-6 1q-3 0 -5 -1l-2 -6q-2 -6 -2 -12q0 -12 9 -19l11 -7l4 -2h5q4 0 8 1q3 7 3 15z" />
    <glyph glyph-name="ngonguthai" unicode="&#xe07;" horiz-adv-x="420" 
d="M399 208v-5q1 -29 -27 -61q-11 -14 -27 -28q-47 -41 -91 -41q-142 0 -198 58l5 5l5 5l84 66l-118 57q-1 0 3 4q13 14 58 50q40 30 57 43q32 24 59 39q14 9 18 9q13 0 46 -12q41 -14 68 -34q36 -27 36 -55q0 -18 -15 -36q-23 -26 -40 -26h-5q-17 0 -28 6q-16 9 -21 36
q4 16 16 28q15 15 30 15h7q-8 6 -19 12q-22 12 -51 19q-21 5 -33 5q-13 0 -94 -60q-21 -16 -35 -27l119 -57l-5 -6q-3 -2 -5 -4l-86 -73q39 -24 107 -29q19 -2 40 -2q33 0 73 30q31 24 56 59q2 3 7 7q4 4 4 3zM336 284q0 12 -19 17h-5q-5 1 -9 0q0 -10 7 -16q6 -4 17 -4h9v3
z" />
    <glyph glyph-name="chochanthai" unicode="&#xe08;" horiz-adv-x="490" 
d="M414 202q0 -36 -29 -66q-18 -19 -40 -31q-53 -29 -131 -29q-56 0 -90 15q-25 11 -40 33l-21 36q0 1 5 6q3 3 5 4l80 62l-57 21q-12 5 -26 11q-35 15 -42 19v1q17 32 55 77q54 62 76 62q8 0 39 -18q15 -11 25 -16q13 -4 20 -4h4q12 1 55 24q19 10 27 10q13 0 36 -11
l46 -21q25 -12 35 -12q-5 -11 -16.5 -20.5t-21.5 -9.5q-15 0 -46 14q-32 16 -43 16q-13 0 -42 -15q-30 -16 -46 -16q-14 0 -36 12l-48 27q-6 0 -30 -26q-27 -30 -37 -45q12 -8 45 -22l90 -39q1 0 -5 -6l-3 -3l-20 -18l-1 -1l-43 -38q-10 -9 -25 -21q-3 -2 -7 -5
q20 -27 52 -35q21 -6 65 -6q54 0 102 17q23 9 36 20q12 13 12 31t-24 38q-23 18 -51 24l5 6q4 4 6 5q5 3 12 5q8 1 15 1q26 0 50 -22q23 -22 23 -41z" />
    <glyph glyph-name="chochingthai" unicode="&#xe09;" horiz-adv-x="462" 
d="M147 182l64 -22q17 -6 35 -14q27 -10 53 -10q12 0 20 1q18 6 29 14q7 10 7 23q0 31 -23 51q-15 14 -41 14q-1 0 3 4q25 26 41 37l17 9q17 -8 26 -18l9 -10q1 0 8 -12q4 -8 4 -10q15 -32 14 -54l-2 -13q0 -7 -2 -15l-6 -6t-5 -4l-6 32q-2 13 -8 26l4 -19v-7q0 -11 -7 -25
q-8 -16 -21 -30q-16 -16 -31 -21q-17 -6 -37 -6q-18 0 -42 5q-14 2 -19 4q-3 1 -13 4l-37 13q-18 6 -37 15q1 -13 -2 -24q-3 -9 -11 -17q-23 -26 -45 -26q-20 0 -31 19q-12 21 -12 39q0 13 6 26q4 9 22 25q15 14 23 15h1.5t4.5 -0.5t6 -0.5h2v56q-21 21 -41 34q-11 8 -53 29
q-1 0 4 6q2 1 3 2q27 25 51 43l44 34q17 13 24 20l6 5l9 -9q4 -3 10 -9l21 -14q3 -2 13 -6q9 -5 14 -7q13 -5 24 -5q8 0 21 5q12 4 22 10q4 3 15 14l21 20l4 3l56 -31q26 -13 56 -21h-1q-9 -13 -20 -20q-3 -1 -12 -3l-7 -1q-14 -2 -40 14l-36 20q-10 -11 -19 -18h-1l-18 -14
q-4 -3 -12 -8q-2 -2 -9 -5q-12 -5 -27 -8q-15 0 -34 8q-5 2 -19 9l-24 12q-10 4 -17 10q-12 -11 -31 -21l-29 -18q35 -23 71 -51v-97zM105 151q-5 5 -11 5q-5 0 -11 -4q-2 -1 -2 -7q0 -26 6 -28l9 -5l6 -1q2 0 4 1q1 1 1 2q3 7 3 17q0 13 -5 20z" />
    <glyph glyph-name="chochangthai" unicode="&#xe0a;" horiz-adv-x="447" 
d="M525 604q1 -4 1 -11q0 -24 -14 -62q-12 -33 -25 -59q-12 -21 -23 -36q-12 -17 -27 -35q-22 -26 -38 -44q0 -1 -2 -2q-27 -28 -43 -38q-17 -17 -36 -22q-15 -5 -33 -5q-13 0 -15 1v1l14 25q10 15 10 24l-1 4q-4 4 -42 13t-43 9q-8 0 -37 -15l-39 -18q-11 -8 -36 -26
q-7 -7 -17 -15q64 -23 126 -55l-1 -1q-12 -16 -28 -37l-1 -1q-18 -21 -34 -36l-24 -22q-1 -1 -2 -1l-5 -5q5 -2 25 -11q17 -7 24 -7l30 -4h16q25 -2 64 4q32 4 49 15q25 15 58 39l54 40q-3 -23 -42 -62l-3 -3q-36 -33 -70 -54q-21 -12 -64 -17q-29 -3 -62 -3h-13
q-14 0 -19 2q-7 0 -27 6q-25 9 -45 18q-25 11 -41 21q0 1 5 6q5 4 6 5q10 5 29 20q10 10 16 14q5 3 9 7q6 4 15 15l1 1l26 29q-20 9 -44 18l-23 9q-9 4 -26 12q-31 12 -41 18l1 1t2 3q21 22 43 40v1l63 49q25 21 60 35q20 12 31 12q2 0 3 -1q4 0 72 -17q42 -23 47 -27v-1
l-5 -12q-2 -6 -6 -15l-6 -10h4q7 0 14 6l19 19l65 75q1 1 3 2q3 5 9 13v-1q2 4 10 14q18 26 41 72q22 43 27 62q0 1 6 6z" />
    <glyph glyph-name="uni0E0B" unicode="&#xe0b;" 
d="M218 368q0 -8 -5.5 -13.5t-13.5 -5.5t-13.5 5.5t-5.5 13.5t5.5 13.5t13.5 5.5t13.5 -5.5t5.5 -13.5zM218 41q0 -8 -5.5 -13.5t-13.5 -5.5t-13.5 5.5t-5.5 13.5t5.5 13.5t13.5 5.5t13.5 -5.5t5.5 -13.5zM54 205q0 -8 -5.5 -13t-13.5 -5t-13 5t-5 13t5 13.5t13 5.5
t13.5 -5.5t5.5 -13.5zM382 205q0 -8 -5.5 -13t-13.5 -5t-13 5t-5 13t5 13.5t13 5.5t13.5 -5.5t5.5 -13.5zM67 266q0 -8 -5.5 -13t-13.5 -5t-13 5t-5 13t5 13.5t13 5.5t13.5 -5.5t5.5 -13.5zM102 321q0 -8 -5.5 -13t-13.5 -5t-13 5t-5 13t5 13.5t13 5.5t13.5 -5.5t5.5 -13.5z
M155 356q0 -8 -5.5 -13t-13.5 -5t-13 5t-5 13t5 13.5t13 5.5t13.5 -5.5t5.5 -13.5zM368 266q0 -8 -5 -13t-13 -5t-13.5 5t-5.5 13t5.5 13.5t13.5 5.5t13 -5.5t5 -13.5zM333 321q0 -8 -5 -13t-13 -5t-13.5 5t-5.5 13t5.5 13.5t13.5 5.5t13 -5.5t5 -13.5zM280 356q0 -8 -5 -13
t-13 -5t-13.5 5t-5.5 13t5.5 13.5t13.5 5.5t13 -5.5t5 -13.5zM67 143q0 -8 -5.5 -13.5t-13.5 -5.5t-13 5.5t-5 13.5t5 13t13 5t13.5 -5t5.5 -13zM102 88q0 -8 -5.5 -13.5t-13.5 -5.5t-13 5.5t-5 13.5t5 13t13 5t13.5 -5t5.5 -13zM155 53q0 -8 -5.5 -13.5t-13.5 -5.5t-13 5.5
t-5 13.5t5 13t13 5t13.5 -5t5.5 -13zM369 143q0 -8 -5 -13.5t-13 -5.5t-13.5 5.5t-5.5 13.5t5.5 13t13.5 5t13 -5t5 -13zM334 88q0 -8 -5 -13.5t-13 -5.5t-13.5 5.5t-5.5 13.5t5.5 13t13.5 5t13 -5t5 -13zM281 53q0 -8 -5 -13.5t-13 -5.5t-13.5 5.5t-5.5 13.5t5.5 13t13.5 5
t13 -5t5 -13z" />
    <glyph glyph-name="chochoethai" unicode="&#xe0c;" horiz-adv-x="660" 
d="M121 119q0 18 -26 21h-5q-1 -3 -2 -7q2 -17 21 -21h4q3 -1 5 0q2 3 3 7zM369 372q-2 -2 -4 -5q-7 -14 -14 -21q26 -15 42 -27q20 -16 24 -35q0 -11 -10 -34l-30 -61q-8 -14 -13 -25q41 -39 112 -52q10 -2 22 -2q37 0 68 28q11 13 19 36q10 29 10 48q0 48 -38 75
q-26 18 -63 18v1l63 87q2 3 7 7l3 3l17 -9q46 -28 73 -39q0 -1 -2 -3l-4 -4q-16 -16 -24 -16h-6q-24 9 -36 17l-18 8l-13 -22q25 -14 39 -25q38 -30 38 -90q0 -30 -14 -63q-14 -35 -39 -60l-2 -2q-35 -32 -95 -32h-12l-8 2q-46 7 -70 20q-24 14 -49 34q-11 -14 -29 -31
q-24 -23 -38 -23h-4q-18 0 -49 28.5t-45 48.5q-1 1 5 6l2 2q24 26 75 119q-17 18 -56 51t-59 41q-5 -1 -25 -19h-1q-6 -4 -36 -32l-1 -1l-18 -15q20 -13 48 -27l27 -14q12 -6 21 -10h-1l-55 -78q5 2 16 2t25 -11.5t16 -29.5q0 -15 -3 -24t-14 -21q-12 -12 -20.5 -15
t-22.5 -3q-20 0 -31 14.5t-16 40.5q3 12 17 38l39 65l-68 32q-21 9 -41 21q-1 1 4 6q5 4 6 5q13 7 43 35l1 1l53 49l1 1q29 27 50 35q33 -21 68.5 -51t77.5 -77v-1q-6 -8 -27 -38l-33 -51q-17 -27 -22 -34q5 -14 30 -31l33 -21q4 1 8 5q8 9 21 27q27 38 41 61v-1
q21 43 21 55.5t-5 21.5t-30.5 22t-41.5 16q24 36 42 60q26 34 39 34q3 0 17 -11l30 -24q16 -13 33 -20q-1 0 -1 -1q-18 -24 -30 -22h-4q-23 11 -44 28l-10 9h-2z" />
    <glyph glyph-name="yoyingthai" unicode="&#xe0d;" horiz-adv-x="630" 
d="M272 416q28 -11 81 -73q63 60 89 68q72 -25 153 -74v-1v-224v-1q-9 -14 -21 -26t-17 -12q-24 5 -31 20q-6 11 -6 27v8q0 16 14 30q12 13 26 18v128q-44 32 -130 63q-26 -14 -41 -28q-13 -13 -23 -34h1q-3 -13 -3 -21v-168v-1l-23 -29l-7 -7l-3 -3h-5q-23 0 -36 38
q-1 6 -1 11v8q0 21 14 35q10 10 17 13q5 2 11 4v93q0 58 -74 92q-3 0 -53 -38l-1 -1l-6 -1h-3q-6 0 -62 37q-6 -4 -10 -7q-15 -16 -29 -47q-20 -33 -20 -60v-29q0 -27 10 -56q23 28 43 28h5q42 -6 42 -39q2 0 2 -8v-17q0 -22 -17 -40q-11 -11 -20 -16h-12h-7q-52 0 -69 68
q-6 11 -14 68v4q0 66 30 113q17 29 39 51q22 23 42 32v1q51 -39 54 -39h5q8 2 56 38q6 4 10 4zM318 145v-7q3 -14 13 -19v55q-13 -16 -13 -29zM551 144v-4q0 -17 9 -25v50l1 1q-1 -1 -2 -1q-8 -10 -8 -21zM102 136q0 -17 24 -23h7q3 0 6 1q3 7 3 19v3q0 23 -25 26
q-8 -1 -13 -3q-1 -3 -1 -5t-1 -18zM544 52q34 0 51 -38l2 -15v-4q0 -29 -24 -55q-10 -12 -22 -22l-1 -1q-24 -13 -72 -13h-13q-111 0 -257 47q-122 48 -171 88v1l-3 3q3 3 8 6q3 3 5 4q1 0 14 -5q35 -13 158 -60q145 -49 208 -49q16 -4 57 -4q30 0 60 10q5 3 8 6q6 7 11 17
q2 10 2 20q0 21 -27 29h-12q-4 0 -7 -1q-4 -8 -7 -21v-2q0 -8 22 -12q1 3 1 7q0 1 5 6t6 5h2q7 -5 7 -11v-2q0 -12 -12 -24q-9 -10 -18 -14v-1h-14q-19 0 -29 35v2q0 21 17 41q7 9 18 19l2 2q9 6 24 6h1z" />
    <glyph glyph-name="dochadathai" unicode="&#xe0e;" 
d="M218 368q0 -8 -5.5 -13.5t-13.5 -5.5t-13.5 5.5t-5.5 13.5t5.5 13.5t13.5 5.5t13.5 -5.5t5.5 -13.5zM218 41q0 -8 -5.5 -13.5t-13.5 -5.5t-13.5 5.5t-5.5 13.5t5.5 13.5t13.5 5.5t13.5 -5.5t5.5 -13.5zM54 205q0 -8 -5.5 -13t-13.5 -5t-13 5t-5 13t5 13.5t13 5.5
t13.5 -5.5t5.5 -13.5zM382 205q0 -8 -5.5 -13t-13.5 -5t-13 5t-5 13t5 13.5t13 5.5t13.5 -5.5t5.5 -13.5zM67 266q0 -8 -5.5 -13t-13.5 -5t-13 5t-5 13t5 13.5t13 5.5t13.5 -5.5t5.5 -13.5zM102 321q0 -8 -5.5 -13t-13.5 -5t-13 5t-5 13t5 13.5t13 5.5t13.5 -5.5t5.5 -13.5z
M155 356q0 -8 -5.5 -13t-13.5 -5t-13 5t-5 13t5 13.5t13 5.5t13.5 -5.5t5.5 -13.5zM368 266q0 -8 -5 -13t-13 -5t-13.5 5t-5.5 13t5.5 13.5t13.5 5.5t13 -5.5t5 -13.5zM333 321q0 -8 -5 -13t-13 -5t-13.5 5t-5.5 13t5.5 13.5t13.5 5.5t13 -5.5t5 -13.5zM280 356q0 -8 -5 -13
t-13 -5t-13.5 5t-5.5 13t5.5 13.5t13.5 5.5t13 -5.5t5 -13.5zM67 143q0 -8 -5.5 -13.5t-13.5 -5.5t-13 5.5t-5 13.5t5 13t13 5t13.5 -5t5.5 -13zM102 88q0 -8 -5.5 -13.5t-13.5 -5.5t-13 5.5t-5 13.5t5 13t13 5t13.5 -5t5.5 -13zM155 53q0 -8 -5.5 -13.5t-13.5 -5.5t-13 5.5
t-5 13.5t5 13t13 5t13.5 -5t5.5 -13zM369 143q0 -8 -5 -13.5t-13 -5.5t-13.5 5.5t-5.5 13.5t5.5 13t13.5 5t13 -5t5 -13zM334 88q0 -8 -5 -13.5t-13 -5.5t-13.5 5.5t-5.5 13.5t5.5 13t13.5 5t13 -5t5 -13zM281 53q0 -8 -5 -13.5t-13 -5.5t-13.5 5.5t-5.5 13.5t5.5 13t13.5 5
t13 -5t5 -13z" />
    <glyph glyph-name="topatakthai" unicode="&#xe0f;" horiz-adv-x="420" 
d="M534 594q3 -6 3 -14q0 -31 -45 -96q-34 -50 -89 -111q-52 -57 -73 -73q-5 -4 -38 11q-33 13 -63 28q-34 16 -36 16q-4 0 -27 -12l-45 -27l-22 -11q52 -35 87 -54l-5 -6l-2 -2l-25 -24q-1 0 -2 -1q-23 -21 -37 -33l-1 -1q-11 -9 -22 -16l60 -53q16 11 47 24q32 14 44 14
q15 0 42 -10q28 -10 38 -19q1 -1 3 -1q5 0 20 17q24 31 40 65q1 2 6 7q4 4 5 4q5 -9 5 -21q0 -26 -27 -60q-25 -33 -59 -60l-1 -1q-18 13 -44 24q-26 13 -37 13q-6 0 -26 -10l-39 -20q-19 -9 -26 -9t-25 15l-39 35q-27 22 -44 34q0 1 5 6q4 4 6 5q11 7 25 20l2 2l31 27
q10 10 23 20l-48 29q-28 18 -52 45l5 6q5 4 5 5q37 7 70 27l57 37q29 18 42 18q2 0 34 -14l30 -14q9 -3 31 -14l32 -15q11 8 27 23q21 21 34 37l38 43q63 73 91 135l6 6z" />
    <glyph glyph-name="thothanthai" unicode="&#xe10;" horiz-adv-x="420" 
d="M74 312q-3 -10 -3 -19q0 -22 21 -22q6 0 10 1q1 4 1 9q0 16 -8 22q-4 4 -11 5q-4 2 -10 4zM81 331q11 11 22 11q14 0 26 -15q12 -17 11 -36l-1 -9q-1 -6 -3 -13q-4 -12 -15 -23q-12 -12 -19 -15t-18 -3h-5l-7 1q-20 4 -28 19q-9 14 -9 49q2 25 10 37l14 22l1 1
q20 24 46 39q17 11 28 13q27 -13 43 -28q15 -12 29 -30l30 -38q0 -34 -26 -75q-21 -31 -59 -69q-14 -13 -37 -34q27 -24 92 -24q12 0 31 2q29 4 47 14q25 21 35 38q5 18 15 44q4 7 5 16t1 18q0 25 -10.5 38.5t-37.5 25.5l-73 29v1l20 35q4 7 10 15q1 0 1 1q18 20 41 20
q42 0 59 -35q15 13 44 46q45 54 77 110q43 75 61 147l5 6q5 5 5 4q0 -69 -42 -154q-34 -71 -85 -133v-1q-53 -63 -76 -70q-5 10 -21 21q-19 14 -35 14q-6 0 -12 -2l-2 -4q43 -20 61 -32q43 -25 48 -50q2 -12 2 -23q0 -17 -4 -35q-5 -19 -12 -34q-16 -34 -33 -55
q-9 -10 -19 -20q-1 -1 -2 -1q-30 -19 -46 -32l-1 -1q-8 -2 -26 -3h-65l-11 -1l-9 -1q-14 -2 -34 10q-26 12 -61 44q0 1 5 6l5 5q25 18 52 43l-1 -1q31 29 51 58q27 36 27 61q-15 22 -26 34q-19 21 -39 34q-15 0 -45 -23q-3 -3 -5 -9z" />
    <glyph glyph-name="thonangmonthothai" unicode="&#xe11;" horiz-adv-x="381" 
d="M344 332l1 -5q1 -21 -45 -70q-43 -44 -77 -62l-101 -58q-13 -7 -24 -12q4 -3 9 -7q8 -5 17 -8l19 -4l24 -1q7 0 14 4q9 4 13 8q1 1 2 1l20 16v1l27 20v-1q29 22 43 41q6 9 12 29l7 22l6 6l5 5l27 -3v-224q0 -1 -6 -6q-4 -4 -5 -4l-26 -15h-1l-2 167q-12 -14 -29 -30
q-1 0 -1 -1q-8 -6 -15 -12q0 -1 -1 -2q-7 -6 -20 -16v-1l-24 -17q-16 -13 -28 -18q-20 -10 -38 -10q-74 0 -123 63l5 5t6 5l45 16q21 7 48 21q23 10 46 25q36 23 52 34q6 5 18 14l21 18q25 23 36 40l5 10q-2 14 -16.5 27.5t-28.5 13.5q-9 0 -31 -14q-24 -15 -31 -16l-71 36
q-3 2 -7 2q-12 0 -24 -10q0 -1 -1 -1q-1 -2 -3 -4l-9 -9q-4 -5 -5 -9l11 8q8 6 16 6l15 -4q9 -1 14 -6q8 -5 12 -20l2 -8q1 -4 1 -8q0 -12 -7 -23q-4 -7 -9 -12q-3 -4 -7 -7l-2 -2q-13 -8 -25 -8q-16 0 -34 13q-24 22 -24 51v4v5q3 17 21 37q12 13 26 24l31 26l1 1
q10 -1 31 -11l55 -25q8 0 25 11l42 25l46 -38q23 -21 24 -39zM84 310v-4q-1 -4 1 -8l6 -6q7 -8 16 -8q5 0 8 1q2 5 3 10q0 12 -12 17l-6 2l-13 -2h-3v-2z" />
    <glyph glyph-name="thophuthaothai" unicode="&#xe12;" horiz-adv-x="588" 
d="M542 335l-52 26q-13 -15 -18 -20q15 -1 42 -19q28 -19 28 -41v-159q-7 -19 -21 -33q-16 -16 -31 -15l-9 1l-12 4q-10 4 -28 24l-61 65q-12 15 -45 15h-3v-76l-2 -2l-23 -26l-7 -7l-1 -1q-30 0 -45.5 20t-15.5 40.5t17 42.5q18 24 42 39v81q0 30 -15.5 48.5t-32.5 18.5
q-4 0 -24 -16q-21 -18 -29.5 -18t-29.5 16.5t-25 17.5q-17 0 -30 -10q-8 -10 -14 -26q-13 -37 -13 -65q0 -25 3 -34q14 13 23 16t23 2q16 -2 23 -7l14 -13q8 -20 8 -32.5t-1 -19.5l-5 -16q-10 -17 -25 -28t-26 -10l-15 1q-42 2 -57 79q-3 12 -3 30q0 69 17 102q19 36 48 59
q21 17 34.5 17t33.5 -17.5t26.5 -17.5t29.5 16q23 18 29 18q16 0 42 -27.5t26 -59.5l1 -34v-49q0 -13 -1 -15q9 2 23.5 2t32.5 -8q16 -9 33 -29l30 -36q25 -29 44 -29q6 0 10 1q2 5 2 13v124q0 39 -91 60q1 1 1 2l66 76q3 3 8 7l1 2l84 -40q0 -1 -5 -6l-5 -5l-13 -9z
M295 115v58q-9 -4 -15 -9q-5 -7 -5 -15q1 -26 20 -34zM110 160q10 -6 20 -6q3 0 6 1q6 12 6 19v15q-3 19 -27 19q-12 0 -21 -5q-1 -2 -2 -3l-2 -12q2 -13 8 -19z" />
    <glyph glyph-name="nonenthai" unicode="&#xe13;" horiz-adv-x="657" 
d="M118 81q-8 -6 -16 -6q-6 0 -15 3q-24 9 -24 50v8q2 21 18 42l35 45q-5 3 -32 10l-48 13q-23 6 -25 9v1q30 42 107 116q1 0 1 1q36 32 43 32t35 -21q18 -13 30 -23l28 -26q34 -31 48 -54q-14 -22 -43 -50q-11 -12 -17 -18q-8 -7 -18 -17q-12 -13 -12 -21q0 -19 8 -35
t22 -24q13 12 22 20h1q28 21 47 21q17 0 40 -20t29 -19q8 1 15 7l2 2q13 17 13 34q0 22 -32 54q-27 30 -67 55l1 1q18 22 43 51l1 1q33 35 58 58q29 26 37 26q11 0 53 -21q21 -10 37 -18q12 -7 37 -21l38 -21v-217l-2 -2l-23 -26q-4 -4 -8 -7l-1 -1q-17 0 -28 13.5t-11 33.5
q0 8 0.5 11.5t3.5 9.5t10 13q12 13 24 15v128q-13 10 -56 33q-40 21 -81 38q-5 2 -47 -39q-25 -24 -43 -44q46 -32 69 -63q20 -27 20 -49q0 -24 -20 -55q-12 -19 -27 -31.5t-25 -12.5q-7 0 -29.5 22.5t-39.5 22.5q-15 0 -38 -21q-27 -24 -36 -24q-18 0 -37 35q-18 33 -18 51
q0 23 36 61l1 1l48 49q-26 29 -55 56q-38 33 -53 33q-3 0 -23 -18v-1l-59 -56q7 -2 19 -6q3 -1 24 -9q46 -16 54 -21l-57 -72q24 -1 35 -22q5 -11 5 -23q0 -5 -1.5 -12t-5.5 -13q0 -1 -1 -2q-5 -6 -14 -14zM583 159q-2 -1 -3 -2q-5 -8 -5 -18q0 -13 6 -23q1 -2 2 -3v46z
M120 132q-6 11 -18 11h-4l-1 -10q-1 -9 2 -16q3 -6 6 -6l7 -1q4 0 7 1q2 5 2 12z" />
    <glyph glyph-name="uni0E14" unicode="&#xe14;" 
d="M218 368q0 -8 -5.5 -13.5t-13.5 -5.5t-13.5 5.5t-5.5 13.5t5.5 13.5t13.5 5.5t13.5 -5.5t5.5 -13.5zM218 41q0 -8 -5.5 -13.5t-13.5 -5.5t-13.5 5.5t-5.5 13.5t5.5 13.5t13.5 5.5t13.5 -5.5t5.5 -13.5zM54 205q0 -8 -5.5 -13t-13.5 -5t-13 5t-5 13t5 13.5t13 5.5
t13.5 -5.5t5.5 -13.5zM382 205q0 -8 -5.5 -13t-13.5 -5t-13 5t-5 13t5 13.5t13 5.5t13.5 -5.5t5.5 -13.5zM67 266q0 -8 -5.5 -13t-13.5 -5t-13 5t-5 13t5 13.5t13 5.5t13.5 -5.5t5.5 -13.5zM102 321q0 -8 -5.5 -13t-13.5 -5t-13 5t-5 13t5 13.5t13 5.5t13.5 -5.5t5.5 -13.5z
M155 356q0 -8 -5.5 -13t-13.5 -5t-13 5t-5 13t5 13.5t13 5.5t13.5 -5.5t5.5 -13.5zM368 266q0 -8 -5 -13t-13 -5t-13.5 5t-5.5 13t5.5 13.5t13.5 5.5t13 -5.5t5 -13.5zM333 321q0 -8 -5 -13t-13 -5t-13.5 5t-5.5 13t5.5 13.5t13.5 5.5t13 -5.5t5 -13.5zM280 356q0 -8 -5 -13
t-13 -5t-13.5 5t-5.5 13t5.5 13.5t13.5 5.5t13 -5.5t5 -13.5zM67 143q0 -8 -5.5 -13.5t-13.5 -5.5t-13 5.5t-5 13.5t5 13t13 5t13.5 -5t5.5 -13zM102 88q0 -8 -5.5 -13.5t-13.5 -5.5t-13 5.5t-5 13.5t5 13t13 5t13.5 -5t5.5 -13zM155 53q0 -8 -5.5 -13.5t-13.5 -5.5t-13 5.5
t-5 13.5t5 13t13 5t13.5 -5t5.5 -13zM369 143q0 -8 -5 -13.5t-13 -5.5t-13.5 5.5t-5.5 13.5t5.5 13t13.5 5t13 -5t5 -13zM334 88q0 -8 -5 -13.5t-13 -5.5t-13.5 5.5t-5.5 13.5t5.5 13t13.5 5t13 -5t5 -13zM281 53q0 -8 -5 -13.5t-13 -5.5t-13.5 5.5t-5.5 13.5t5.5 13t13.5 5
t13 -5t5 -13z" />
    <glyph glyph-name="totaothai" unicode="&#xe15;" horiz-adv-x="420" 
d="M163 166q-5 19 -21 19h-7h1q-7 -3 -13 -7q-1 -1 -1 -2q0 -19 10 -29q9 -9 20 -9l4 2q7 10 7 26zM346 155q-7 -10 -7 -22q0 -10 7 -17v39zM346 166l1 81q-13 4 -60 16q-28 8 -81 18l-7 2h-8q-14 0 -35 -4q-18 -4 -30 -11q-9 -4 -15 -10q-10 -11 -17 -27l-9 -19
q-4 -10 -4 -23l1 -16q2 -8 5 -23q2 -12 11 -23q3 -4 6 -7q-3 4 -4 8q-5 6 -8 15q-1 12 -1 19q0 17 3 23q8 16 29 30q12 10 24 12l5 1q7 0 14 -3l9 -6q7 -6 12 -12q12 -17 12 -39q0 -24 -11 -46q-5 -11 -16 -24t-22 -19q-13 -8 -31 -8t-35 8q-9 4 -20 20q-12 17 -17 33
q-3 12 -3 32q0 15 2 28q2 9 5 19q11 32 33 57q10 13 23 24l-88 54q-1 0 4 5q4 5 6 5l25 16q30 16 53 28q29 14 41 14q11 0 40 -15t39 -15q5 0 33.5 14t40.5 14h2q10 -2 34 -15l62 -36q-5 -8 -15.5 -15t-17.5 -7q-11 0 -18 4l-30 19q-15 9 -26 9q-10 0 -39 -12.5t-38 -12.5
q-10 0 -37 12q-29 14 -40 15q-14 0 -42 -12q-5 -2 -12 -5l65 -38l26 4q19 3 32 3h6l9 -2q20 -3 87 -22q27 -8 74 -24v-1v-170q-3 -8 -5 -11v-1q-16 -21 -30 -21q-16 0 -27.5 11.5t-11.5 31t15 34.5q11 12 22 16z" />
    <glyph glyph-name="thothungthai" unicode="&#xe16;" horiz-adv-x="420" 
d="M333 190q-4 17 -26 17h-4q-4 -1 -8 -3q-2 -5 -2 -10v-7q4 -10 13 -12q3 -2 16 -2q5 1 9 4q2 4 2 8v5zM350 164q-10 -13 -21 -18q-10 -6 -26 -6q-29 0 -38 20l-5 12q-1 8 -1 15q0 15 8 25q21 26 51 33l25 -7q13 -4 19 -10q12 -12 15 -20q9 -14 9 -32q0 -32 -22 -55
q-11 -12 -20 -18q-7 -5 -24 -13q-22 -11 -59 -15q-26 -3 -78 -3q-29 0 -56 9q-24 7 -44 20l-39 26q-1 1 5 6q3 4 5 5q34 23 65 54q13 12 27 28l-130 62q-1 0 5 5q1 2 2 3q28 25 74 54q96 62 115 62q8 0 37 -14l54 -29q30 -16 38 -16q3 0 8 4q5 5 14 17q19 23 44 58l30 44
q18 26 41 72q21 42 26 61q0 1 5 6t5 4q2 -3 2 -10q0 -22 -14 -59q-11 -33 -24 -57q-22 -38 -44 -72q-31 -43 -53 -69v-1q-35 -40 -50 -42l-31 16l-61 29q-34 17 -40 17q-4 0 -33 -17l-56 -34q-11 -6 -30 -17l36 -15l41 -19l41 -21q-18 -26 -44 -53l-2 -2q-17 -17 -41 -37
l-12 -10q27 -13 47 -21q31 -10 52 -10h33q42 0 71 11q17 0 35 12q3 1 5 3q8 11 8 26v3z" />
    <glyph glyph-name="thothahanthai" unicode="&#xe17;" horiz-adv-x="420" 
d="M353 179q9 -8 18 -27q7 -16 7 -25q-5 -12 -16 -26l-11 -14q-2 -3 -7 -7q-2 -3 -3 -3l-8 -3q-2 0 -10 -1q-5 -1 -9 -1q-7 0 -11 2l5 5l5 5q9 7 12 11q9 11 11 25q0 11 -14 11q-18 0 -52 -15l-64 -28q-35 -15 -50 -15q-11 0 -40 17q-24 14 -49 33l-23 18q-1 0 5 6q3 3 5 4
l87 67l-113 50q0 1 5 6q2 2 4 3l47 42q35 31 76 57q43 29 64 29q17 0 48 -13q24 -11 50 -27q12 -7 28 -19q10 -14 13 -28q4 -10 6 -30q-3 -19 -14 -32q-15 -19 -35 -27l-7 -2h-8q-17 -1 -30 12q-9 10 -11 27q0 20 14 34q17 19 34 20q-12 9 -33 19q-46 22 -68 22
q-16 0 -64 -34q-36 -25 -54 -43l112 -55q1 0 -4 -5q-4 -4 -6 -5l-94 -68q7 -7 32 -21q28 -17 35 -18q8 0 49 17l77 32q42 18 59 18zM332 275q-4 12 -22 12h-4q-5 0 -10 -3q-1 -3 -2 -5q3 -10 10 -14l14 -3l6 -1q4 0 6 1q2 5 2 13z" />
    <glyph glyph-name="thothongthai" unicode="&#xe18;" horiz-adv-x="447" 
d="M226 155q9 10 18 18h1l50 -40q18 -15 24 -21q4 -4 18.5 4t22.5 15q2 1 3 2q10 12 10 27q0 27 -9 42q-15 21 -56 29q-1 0 4 5q4 4 6 5q8 6 14 8q8 3 16 3q27 0 46 -27q17 -25 17 -56q0 -25 -22 -49q-12 -13 -23 -22q-33 -25 -65 -25l-21 15q-21 16 -44 37q-49 -54 -76 -54
q-7 0 -20 8l-34 25q-17 13 -57 35q-1 0 4 5q3 3 5 4q30 26 43 38q22 21 33 36l5 8l-31 11l-57 22q-30 13 -32 17v1q33 47 71 85q45 47 63 47q9 0 39 -21t52 -21q17 0 40 21q29 28 42 28l94 -59h-1q-13 -19 -28 -19q-13 0 -43 17q-29 17 -35 17l-40 -31q-20 -17 -41 -17
q-18 0 -49 20t-40.5 20t-31.5 -22q-23 -24 -36 -45l123 -52q1 0 0 -1l-3 -3l-86 -90l65 -42q27 20 50 41z" />
    <glyph glyph-name="nonuthai" unicode="&#xe19;" horiz-adv-x="420" 
d="M446 230q-3 -45 -50 -92q-41 -42 -74 -48l1 9l1 16q0 12 -3.5 16t-10.5 6l-4 1l-150 -1v-37l-6 -6l-25 -25q-4 -4 -5 -4q-38 8 -48 22l-14 19q-7 10 -10 30l-2 8v8v5q0 5 2 12q0 1 5 6l5 5h59v89q-13 4 -45 23l-33 20q-1 1 5 6l4 4q8 6 55 30q34 16 86 40q48 21 54 24
q17 0 63 -19q44 -17 60 -29q7 -6 11 -13q7 -11 7 -27q0 -6 -1 -14l-3 -14q-1 -4 -13 -16q-1 -2 -3 -3q-16 -16 -24 -20q-7 -3 -21 -3q-18 0 -30 13q-10 10 -10 25q2 20 15 34q7 7 13 10.5t8.5 4t9.5 0.5q-7 4 -16 8q-22 10 -54 18q-22 7 -28 7q-9 0 -29 -9.5t-48.5 -25.5
t-40.5 -21l46 -25v-1v-118l171 1q7 -2 13 -4q10 -3 14 -17q4 -12 3 -18v-4q0 -5 23 16l57 69q3 3 8 7zM339 296q2 8 -5 13.5t-16 5.5q-2 0 -5 -2q-2 -3 -2 -5q0 -17 18 -17q5 0 10 1v4zM119 109v33h-34l2 -6q4 -10 11 -17q5 -6 13 -8z" />
    <glyph glyph-name="uni0E1A" unicode="&#xe1a;" 
d="M218 368q0 -8 -5.5 -13.5t-13.5 -5.5t-13.5 5.5t-5.5 13.5t5.5 13.5t13.5 5.5t13.5 -5.5t5.5 -13.5zM218 41q0 -8 -5.5 -13.5t-13.5 -5.5t-13.5 5.5t-5.5 13.5t5.5 13.5t13.5 5.5t13.5 -5.5t5.5 -13.5zM54 205q0 -8 -5.5 -13t-13.5 -5t-13 5t-5 13t5 13.5t13 5.5
t13.5 -5.5t5.5 -13.5zM382 205q0 -8 -5.5 -13t-13.5 -5t-13 5t-5 13t5 13.5t13 5.5t13.5 -5.5t5.5 -13.5zM67 266q0 -8 -5.5 -13t-13.5 -5t-13 5t-5 13t5 13.5t13 5.5t13.5 -5.5t5.5 -13.5zM102 321q0 -8 -5.5 -13t-13.5 -5t-13 5t-5 13t5 13.5t13 5.5t13.5 -5.5t5.5 -13.5z
M155 356q0 -8 -5.5 -13t-13.5 -5t-13 5t-5 13t5 13.5t13 5.5t13.5 -5.5t5.5 -13.5zM368 266q0 -8 -5 -13t-13 -5t-13.5 5t-5.5 13t5.5 13.5t13.5 5.5t13 -5.5t5 -13.5zM333 321q0 -8 -5 -13t-13 -5t-13.5 5t-5.5 13t5.5 13.5t13.5 5.5t13 -5.5t5 -13.5zM280 356q0 -8 -5 -13
t-13 -5t-13.5 5t-5.5 13t5.5 13.5t13.5 5.5t13 -5.5t5 -13.5zM67 143q0 -8 -5.5 -13.5t-13.5 -5.5t-13 5.5t-5 13.5t5 13t13 5t13.5 -5t5.5 -13zM102 88q0 -8 -5.5 -13.5t-13.5 -5.5t-13 5.5t-5 13.5t5 13t13 5t13.5 -5t5.5 -13zM155 53q0 -8 -5.5 -13.5t-13.5 -5.5t-13 5.5
t-5 13.5t5 13t13 5t13.5 -5t5.5 -13zM369 143q0 -8 -5 -13.5t-13 -5.5t-13.5 5.5t-5.5 13.5t5.5 13t13.5 5t13 -5t5 -13zM334 88q0 -8 -5 -13.5t-13 -5.5t-13.5 5.5t-5.5 13.5t5.5 13t13.5 5t13 -5t5 -13zM281 53q0 -8 -5 -13.5t-13 -5.5t-13.5 5.5t-5.5 13.5t5.5 13t13.5 5
t13 -5t5 -13z" />
    <glyph glyph-name="poplathai" unicode="&#xe1b;" horiz-adv-x="490" 
d="M439 197q0 -24 -6.5 -41t-25.5 -36q-27 -27 -64.5 -38t-95.5 -11q-67 0 -101 8q-61 15 -81 58v1l86 108l-87 35q-29 11 -45 19v1q20 27 28 41l33 57q1 2 6 7q4 4 5 3q40 -30 73 -44q25 -12 44 -12q-20 -27 -45 -27q-8 0 -16 1q-12 3 -18 7l-37 21l-17 -29l93 -39
q29 -11 42 -14q0 -1 -0.5 -1h-0.5l-98 -122q19 -19 45.5 -28t51.5 -9h53q61 -1 100 15q16 7 26 16q14 16 14 39v6q2 26 -21 48q-15 16 -46 34q-42 22 -45 24v1l12 18l26 42q15 25 26 41l7 7q3 3 4 3q5 -2 12 -6q13 -8 20 -13l57 -39l-5 -5q-4 -4 -6 -5q-8 -6 -20 -6t-30 6
q-6 3 -27 14l-24 -33l46 -27q23 -15 37 -38q15 -24 15 -58z" />
    <glyph glyph-name="phophungthai" unicode="&#xe1c;" horiz-adv-x="420" 
d="M357 164v4v4q-3 11 -12 20q-9 10 -19 10q-2 0 -4 -1v-1q-4 -7 -4 -14q0 -5 1 -7q3 -8 13 -12q9 -3 25 -3zM357 160q-13 -14 -22 -19q-6 -4 -14 -4q-29 0 -38 35l-1 8q0 14 10 28q16 21 32 28l7 1l7 1q9 1 23 -5q9 -4 17 -13q8 -11 11 -24q2 -9 2 -24q0 -28 -24 -59
q-30 -38 -51 -40q-14 0 -34 13l-35 23q-19 12 -26 12q-6 0 -32 -22q-29 -24 -42 -24q-33 0 -73 41q-9 9 -30 34l4 4l75 78l-100 46l5 5q4 4 6 5q36 25 72 60l1 1l45 41q18 16 39 16q17 -3 44 -19l42 -26q22 -13 39 -13q11 0 30 17q26 25 77 94l33 46q18 24 34 52q1 1 7 6
q4 5 4 4q-10 -41 -41 -92q-7 -13 -21 -33q-18 -29 -35 -50t-37 -42l-2 -2q-40 -40 -56 -42h-5q-17 -2 -38 13l-41 26q-24 15 -45 20q-10 -2 -27 -16q-4 -3 -10 -8.5t-14 -12.5t-11 -9q-12 -11 -27 -24l85 -43l-4 -5l-82 -84q37 -43 66 -48q5 -1 20 11v1l33 24q18 14 25 13
l58 -35q23 -13 35 -13q5 0 10 3q3 5 7 11q11 18 13 30z" />
    <glyph glyph-name="uni0E1D" unicode="&#xe1d;" 
d="M218 368q0 -8 -5.5 -13.5t-13.5 -5.5t-13.5 5.5t-5.5 13.5t5.5 13.5t13.5 5.5t13.5 -5.5t5.5 -13.5zM218 41q0 -8 -5.5 -13.5t-13.5 -5.5t-13.5 5.5t-5.5 13.5t5.5 13.5t13.5 5.5t13.5 -5.5t5.5 -13.5zM54 205q0 -8 -5.5 -13t-13.5 -5t-13 5t-5 13t5 13.5t13 5.5
t13.5 -5.5t5.5 -13.5zM382 205q0 -8 -5.5 -13t-13.5 -5t-13 5t-5 13t5 13.5t13 5.5t13.5 -5.5t5.5 -13.5zM67 266q0 -8 -5.5 -13t-13.5 -5t-13 5t-5 13t5 13.5t13 5.5t13.5 -5.5t5.5 -13.5zM102 321q0 -8 -5.5 -13t-13.5 -5t-13 5t-5 13t5 13.5t13 5.5t13.5 -5.5t5.5 -13.5z
M155 356q0 -8 -5.5 -13t-13.5 -5t-13 5t-5 13t5 13.5t13 5.5t13.5 -5.5t5.5 -13.5zM368 266q0 -8 -5 -13t-13 -5t-13.5 5t-5.5 13t5.5 13.5t13.5 5.5t13 -5.5t5 -13.5zM333 321q0 -8 -5 -13t-13 -5t-13.5 5t-5.5 13t5.5 13.5t13.5 5.5t13 -5.5t5 -13.5zM280 356q0 -8 -5 -13
t-13 -5t-13.5 5t-5.5 13t5.5 13.5t13.5 5.5t13 -5.5t5 -13.5zM67 143q0 -8 -5.5 -13.5t-13.5 -5.5t-13 5.5t-5 13.5t5 13t13 5t13.5 -5t5.5 -13zM102 88q0 -8 -5.5 -13.5t-13.5 -5.5t-13 5.5t-5 13.5t5 13t13 5t13.5 -5t5.5 -13zM155 53q0 -8 -5.5 -13.5t-13.5 -5.5t-13 5.5
t-5 13.5t5 13t13 5t13.5 -5t5.5 -13zM369 143q0 -8 -5 -13.5t-13 -5.5t-13.5 5.5t-5.5 13.5t5.5 13t13.5 5t13 -5t5 -13zM334 88q0 -8 -5 -13.5t-13 -5.5t-13.5 5.5t-5.5 13.5t5.5 13t13.5 5t13 -5t5 -13zM281 53q0 -8 -5 -13.5t-13 -5.5t-13.5 5.5t-5.5 13.5t5.5 13t13.5 5
t13 -5t5 -13z" />
    <glyph glyph-name="phophanthai" unicode="&#xe1e;" horiz-adv-x="450" 
d="M147 117q2 7 2 14q0 22 -15 28q-6 4 -10 4q-7 0 -13 -4l-1 -3q-2 -8 -2 -16v-8l2 -5q3 -6 11 -11q7 -4 15 -4q5 0 9 1zM374 162q-1 0 -2 -1q-2 -3 -4 -7q-6 -10 -6 -21q0 -16 12 -20v49zM374 171v137q0 19 -50 42q-14 6 -42 16q-8 -2 -31 -16q-22 -14 -27 -14l-32 18
q-15 8 -28 8q-16 -2 -44 -32q-28 -29 -36 -46q-6 -12 -6 -45q0 -47 10 -71q22 29 47 29q12 0 24 -8q15 -7 17 -18l4 -15l1 -10l-1 -12v-9q0 -18 -19 -35q-16 -15 -31 -15q-16 0 -33 7q-18 9 -24 22q-2 3 -8 14l-5 13q-7 15 -9 29l-7 35q0 5 -1 17q-1 7 -1 16q0 20 4 40
q9 43 56 90v-1q37 37 67 52q11 -2 47 -22q13 -8 19 -9q5 0 17 8q31 21 42 23q19 -6 44 -18q32 -17 49 -29q24 -16 24 -28v-230q-10 -12 -16 -16q-16 -16 -23 -16q-17 0 -28.5 13.5t-11.5 32.5q0 20 15 35q13 13 27 18z" />
    <glyph glyph-name="uni0E1F" unicode="&#xe1f;" 
d="M218 368q0 -8 -5.5 -13.5t-13.5 -5.5t-13.5 5.5t-5.5 13.5t5.5 13.5t13.5 5.5t13.5 -5.5t5.5 -13.5zM218 41q0 -8 -5.5 -13.5t-13.5 -5.5t-13.5 5.5t-5.5 13.5t5.5 13.5t13.5 5.5t13.5 -5.5t5.5 -13.5zM54 205q0 -8 -5.5 -13t-13.5 -5t-13 5t-5 13t5 13.5t13 5.5
t13.5 -5.5t5.5 -13.5zM382 205q0 -8 -5.5 -13t-13.5 -5t-13 5t-5 13t5 13.5t13 5.5t13.5 -5.5t5.5 -13.5zM67 266q0 -8 -5.5 -13t-13.5 -5t-13 5t-5 13t5 13.5t13 5.5t13.5 -5.5t5.5 -13.5zM102 321q0 -8 -5.5 -13t-13.5 -5t-13 5t-5 13t5 13.5t13 5.5t13.5 -5.5t5.5 -13.5z
M155 356q0 -8 -5.5 -13t-13.5 -5t-13 5t-5 13t5 13.5t13 5.5t13.5 -5.5t5.5 -13.5zM368 266q0 -8 -5 -13t-13 -5t-13.5 5t-5.5 13t5.5 13.5t13.5 5.5t13 -5.5t5 -13.5zM333 321q0 -8 -5 -13t-13 -5t-13.5 5t-5.5 13t5.5 13.5t13.5 5.5t13 -5.5t5 -13.5zM280 356q0 -8 -5 -13
t-13 -5t-13.5 5t-5.5 13t5.5 13.5t13.5 5.5t13 -5.5t5 -13.5zM67 143q0 -8 -5.5 -13.5t-13.5 -5.5t-13 5.5t-5 13.5t5 13t13 5t13.5 -5t5.5 -13zM102 88q0 -8 -5.5 -13.5t-13.5 -5.5t-13 5.5t-5 13.5t5 13t13 5t13.5 -5t5.5 -13zM155 53q0 -8 -5.5 -13.5t-13.5 -5.5t-13 5.5
t-5 13.5t5 13t13 5t13.5 -5t5.5 -13zM369 143q0 -8 -5 -13.5t-13 -5.5t-13.5 5.5t-5.5 13.5t5.5 13t13.5 5t13 -5t5 -13zM334 88q0 -8 -5 -13.5t-13 -5.5t-13.5 5.5t-5.5 13.5t5.5 13t13.5 5t13 -5t5 -13zM281 53q0 -8 -5 -13.5t-13 -5.5t-13.5 5.5t-5.5 13.5t5.5 13t13.5 5
t13 -5t5 -13z" />
    </font>
</defs>
</svg>
