<?xml version="1.0" standalone="no"?>
<!DOCTYPE svg PUBLIC "-//W3C//DTD SVG 1.1//EN" "http://www.w3.org/Graphics/SVG/1.1/DTD/svg11.dtd" >
<svg xmlns="http://www.w3.org/2000/svg" xmlns:xlink="http://www.w3.org/1999/xlink" version="1.1">
<metadata>
Created by FontForge 20170805 at Mon Apr 24 13:08:15 2017
 By Manatsawin
Copyright (C) 2016, Worawut Thanawatanawanich. All rights reserved.
</metadata>
<defs>
<font id="SOV_monospace" horiz-adv-x="500" >
  <font-face 
    font-family="SOV_monospace"
    font-weight="400"
    font-stretch="normal"
    units-per-em="1000"
    panose-1="2 7 5 6 6 0 0 2 0 4"
    ascent="800"
    descent="-200"
    x-height="400"
    cap-height="600"
    bbox="-503 -346 1286 907"
    underline-thickness="30"
    underline-position="-50"
    unicode-range="U+0020-F756"
  />
<missing-glyph 
d="M16 406v-390h242v390h-242zM274 0h-274v423h274v-423z" />
    <glyph glyph-name="nine_in_heart" unicode="&#xe2f;&#xe23;&#xe2f;" 
d="M170 400q-54 0 -92 -38t-38 -92q0 -2 1 -5l39 -170q2 -7 9 -12l150 -100q5 -3 11 -3t11 3l150 100q7 5 8 12l40 170q1 3 1 5q0 54 -38 92t-92 38q-43 0 -80 -29q-37 29 -80 29zM170 360q37 0 66 -29q6 -6 14 -6t14 6q29 29 66 29q38 0 63.5 -25t26.5 -63l-38 -160
l-132 -88l-132 88l-38 160q1 38 26.5 63t63.5 25zM361 330h-1q-5 0 -10 -3l-50 -30q-5 -3 -8 -8l-22 -44l-22 44q-6 11 -18 11q-41 0 -70.5 -29.5t-29.5 -70.5t29.5 -70.5t70.5 -29.5q8 0 14 6t6 14t-6 14t-14 6q-25 0 -42.5 17.5t-17.5 42.5q0 22 13.5 38.5t34.5 20.5
l33 -66v0q1 -2 2 -5l39 -77q5 -12 18 -12q9 0 14.5 6t5.5 14q0 5 -2 10l-36 71l33 66l45 27q10 6 10 17q0 8 -5.5 14t-13.5 6z" />
    <glyph glyph-name="uvSOV" unicode="&#xe2f;&#xe23;&#xe2d;&#xe07;&#xe2f;" horiz-adv-x="1310" 
d="M743 543q0 1 6 -3q8 -7 29 -3q20 5 30 -4q5 -6 8 -6t11 6q8 5 12.5 4.5t12.5 -8.5q6 -6 8 -7t6 0q5 0 5 -1q-3 -2 -9.5 -2t-14 8t-11.5 6.5t-9 -6.5t-10.5 -5.5t-12 5t-9.5 2.5q-5 -5 -19 -61q-7 -28 -2 -34q3 -4 9.5 -3t9.5 -1.5t1 -3.5q0 -1 -2 1q-3 2 -7 -1
q-8 -4 -16 5t-28 44q-26 44 -34 48q-4 1 -6.5 4.5t-7.5 5.5l2 1q7 -1 10.5 -3t17.5 -1l13 1l6 -7q5 -6 7 -5.5t2 -1t-2.5 -1.5t-5.5 2l-5 2q-4 4 -7 3q-3 -2 -1.5 -6t14.5 -25q14 -23 15 -21q1 3 6 28.5t5 27.5q-1 2 -9 3t-13 6.5t-5 6.5zM614 568q2 7 3 7q1 -1 1 -6
q0 -10 9 -3q5 3 12 2t10 -6q6 -9 -1 -34q-5 -16 -5 -21t5 -9q4 -5 14 -4t17 1h8v6q-1 7 -13 29q-6 11 -4.5 21.5t9.5 15.5q6 3 14.5 1t11.5 -7q1 -3 0 -11v-8l4 -2q8 -2 -2 -3q-3 -1 -7 -1q-8 0 -10 4q-6 9 2 12q3 2 2.5 3.5t-4.5 2t-6 -3.5q-6 -8 8 -25q14 -16 14 -30
q0 -9 -5.5 -15t-5.5 -11q0 -4 1 -5t6 -2l6 -2h-7q-9 0 -13 10l-3 5h-22q-19 1 -24.5 3t-10.5 10q-6 9 1 37q7 25 3 25q-2 0 -6 -2t-8 -1q-8 4 -4 17zM682 585q40 9 47 -4q3 -6 -2 -2q-9 6 -34 -1q-22 -6 -33 -2q-4 2 -8.5 5t-8.5 3l-2 2q2 3 17 -1q9 -2 24 0zM579 -63
q15 -3 39 -3q21 -1 40 1q1 -1 64 14q31 7 52 17q13 7 30.5 22t29.5 29q36 44 50.5 92.5t6.5 93.5q-17 98 -92 147q-59 39 -141 55q-16 3 -45 3t-40 -3l-11 -3l9 10q29 35 29 68q0 24 -12.5 44.5t-30.5 27.5q-11 4 -51 3q-21 0 -28 1q-38 11 -36 53q1 13 5 22q10 21 45 43
q21 14 28 21.5t7 18.5t-6.5 20t-26.5 26q-31 27 -31 46q0 12 15 28t17 38q2 23 -4 35l1 -7q3 -22 -3 -38t-27 -29q-19 -13 -21.5 -26.5t10.5 -35.5q15 -25 16 -39q1 -9 -3 -17q-5 -12 -22 -26q-37 -29 -48 -70q-4 -14 -4 -36t4 -34q10 -32 31 -44.5t64 -10.5l24 1l8 -6
q14 -11 14 -28q0 -22 -41 -61q-58 -54 -74 -95q-20 -50 3 -80q2 -3 5 -5q16 -18 17 -13q1 2 5 18q27 101 123 113q37 4 74 -1q72 -9 118 -56q53 -55 53 -119q0 -34 -8 -57t-27 -47q-11 -13 -31 -27.5t-38 -21.5q-30 -13 -52 -18q-18 -4 -55 -2t-59 7q-67 17 -66 88
q0 34 19 54q14 13 40 20q42 10 53 -24q6 -15 0 -20q-4 -2 -7 1q-11 10 -25.5 6.5t-20.5 -17.5q-4 -10 -3.5 -24.5t6.5 -24.5q9 -17 23 -24q20 -11 52 -9.5t59 13.5l9 4h-16q-43 1 -53 11q-4 4 -4 13q2 17 15 36q16 24 2 57q-8 20 -19.5 30.5t-31.5 15.5q-11 3 -36 3t-35 -3
q-30 -8 -54 -32t-31 -52q-6 -24 -4 -51q3 -28 16 -52.5t32 -37.5q17 -13 51 -25t60 -15zM22 221l7 -6q7 -6 22.5 -13.5t26 -10.5t59 -3t53.5 -2.5t7.5 -6.5t-1.5 -16q-8 -24 -1 -44q3 -10 2 -10q-8 -3 -11 -12q-1 -5 0 -14q2 -11 9 -17t29 -14q33 -12 23 -41
q-5 -14 -24.5 -26.5t-36.5 -12.5q-9 0 -34 5q-46 9 -73 2q-11 -3 -12 -4l2 -1q18 4 37 4q20 0 52 -8q27 -8 52 -3q18 4 33 15q11 9 17 24t3 31q-2 10 -4 15q-6 12 -23 18q-9 4 -13.5 7t-3.5 5q3 5 18 0q12 -4 46.5 -4t52.5 4q25 5 42 18q34 25 31 84q-1 24 -16 40
q-13 14 -55 29q-63 23 -83 37q-23 15 -27 27q-8 20 12 35q25 18 57 18q30 0 52 -9q11 -4 20 -13t12 -19q3 -11 1.5 -24t-6.5 -13q-2 0 -8.5 4t-16.5 4.5t-11.5 2t0.5 9.5t-1 13q-4 9 -17 15h-2q12 -10 13.5 -14.5t-6.5 -16.5q-11 -16 -3 -31q4 -8 12 -11q24 -10 45 9
q10 10 12.5 17.5t2.5 25.5q0 28 -7.5 40t-32.5 23l-18 9q-21 13 -7 37q5 9 4 9q-1 1 -2.5 -1t-3 -5t-3.5 -6t-3.5 -6.5t-1.5 -4.5q-3 -16 6 -27l4 -4h-4q-3 0 -16 3q-27 6 -55 -3t-46 -30q-19 -23 -17 -55q1 -24 17.5 -37t83.5 -42q42 -19 55.5 -28t19.5 -20q5 -11 3 -25.5
t-9 -22.5q-8 -8 -30.5 -17t-38.5 -10q-21 -2 -42 7t-27 22q-4 11 0 28l2 8l5 -3q8 -5 19 0q12 5 12 20q0 12 -8 23t-19 14q-26 6 -94 -5q-60 -10 -87 -2q-26 7 -33 13zM1286 321h-7q-14 -3 -27 4q-11 6 -21 21q-12 20 -31 27q-22 9 -85 1q-58 -7 -73 -2q-6 3 -15 10t-17 7
t-14 -2t-11 -1q-11 3 -21 23l-4 10l1 -9q2 -18 14 -29t25 -8q7 1 9 0.5t6 -7.5q6 -13 26 -14q12 -1 14 -5q4 -7 -2 -24.5t-39 -93.5q-41 -96 -42 -96l-38 91l-42 102q-1 1 -0.5 1.5t2 0.5t4 0.5t6.5 0.5q20 1 25 11t16 4q25 -15 2 -45q-15 -18 -15 -41q0 -17 11 -26
q14 -13 17 -11l-4 4q-22 14 -18 36q4 17 18 36q13 18 13 30q0 17 -17 35q-11 11 -36 14q-12 2 -17 0.5t-13 -9.5q-8 -9 -11 -8t-8 10q-7 13 -13 16t-17 -1t-13.5 -2.5t-8.5 12.5q-9 18 -26 18l-7 -1l8 -1q15 -3 19 -21q2 -10 5 -13t22 0q7 1 11 -2q8 -5 56 -137
q41 -114 57 -146q24 -50 44 -60q15 -8 14 -23l1 -7q2 2 2.5 12t-1.5 13t-13 8t-13 8q-7 7 0 29q4 14 50.5 123t57.5 129q11 22 40 36q23 12 41 10q28 -5 47 -31q21 -30 44 -21z" />
    <glyph glyph-name=".notdef" 
d="M16 406v-390h242v390h-242zM274 0h-274v423h274v-423z" />
    <glyph glyph-name=".null" 
 />
    <glyph glyph-name="nonmarkingreturn" 
 />
    <glyph glyph-name="space" unicode=" " 
 />
    <glyph glyph-name="exclam" unicode="!" 
d="M210 500q-9 0 -14.5 -6t-5.5 -14t5.5 -14t14.5 -6h20v-440q0 -9 6 -14.5t14 -5.5t14 5.5t6 14.5v460q0 8 -6 14t-14 6h-40zM250 -40q-21 0 -35.5 -14.5t-14.5 -35.5t14.5 -35.5t35.5 -14.5t35.5 14.5t14.5 35.5t-14.5 35.5t-35.5 14.5z" />
    <glyph glyph-name="quotedbl" unicode="&#x22;" 
d="M230 500q-8 0 -14 -6t-6 -14v-140v-1q0 -8 6 -14t14.5 -6t14.5 6t6 14l-1 1v140h1q0 8 -6 14t-15 6zM290 500q-8 0 -14 -6t-6 -14v-140v-1q0 -8 6 -14t14.5 -6t14.5 6t6 14l-1 1v140h1q0 8 -6 14t-15 6z" />
    <glyph glyph-name="numbersign" unicode="#" 
d="M200 400q-8 0 -14 -6t-6 -14v-90h-100q-9 0 -14.5 -6t-5.5 -14t5.5 -14t14.5 -6h100v-80h-100q-9 0 -14.5 -6t-5.5 -14t5.5 -14t14.5 -6h100v-90q0 -9 6 -14.5t14 -5.5t14 5.5t6 14.5v90h60v-90q0 -9 6 -14.5t14 -5.5t14 5.5t6 14.5v90h100q9 0 14.5 6t5.5 14t-5.5 14
t-14.5 6h-100v80h100q9 0 14.5 6t5.5 14t-5.5 14t-14.5 6h-100v90q0 9 -6 14.5t-14 5.5t-14 -6t-6 -14v-90h-60v90q0 9 -6 14.5t-14 5.5zM220 250h60v-80h-60v80z" />
    <glyph glyph-name="dollar" unicode="$" 
d="M220 460q-8 0 -14 -6t-6 -14v-25q-38 -7 -66 -24q-54 -32 -54 -81q0 -25 17 -45q13 -17 39 -30q35 -18 110 -35q70 -15 102 -36.5t32 -53.5q0 -35 -36 -62q-38 -28 -94 -28t-94 28q-36 27 -36 62q0 8 -6 14t-14 6t-14 -6t-6 -14v-90q0 -9 6 -14.5t14 -5.5t14 5.5t6 14.5
v6q6 -6 12 -10q29 -21 68 -30v-26q0 -9 6 -14.5t14 -5.5t14 5.5t6 14.5v20h10h10v-20q0 -9 6 -14.5t14 -5.5t14 5.5t6 14.5v26q39 9 68 30q52 38 52 94q0 54 -50 87q-39 25 -116 43q-69 15 -100 31q-18 9 -27 19q-7 9 -7 20q0 26 34 46q39 24 96 24t96 -24q34 -20 34 -46
q0 -8 6 -14t14 -6t14 6t6 14v70q0 9 -6 14.5t-14 5.5t-14 -5.5t-6 -13.5q-7 6 -14 10q-28 17 -66 24v25q0 9 -6 14.5t-14 5.5t-14 -6t-6 -14v-20h-10h-10v20q0 9 -6 14.5t-14 5.5z" />
    <glyph glyph-name="percent" unicode="%" 
d="M401 420h-1q-10 0 -16 -8l-300 -400q-4 -5 -4 -12q0 -9 6 -14.5t14 -5.5q10 0 16 8l300 400q4 5 4 12q0 8 -5.5 14t-13.5 6zM170 400q-29 0 -49.5 -20.5t-20.5 -49.5t20.5 -49.5t49.5 -20.5t49.5 20.5t20.5 49.5t-20.5 49.5t-49.5 20.5zM170 360q13 0 21.5 -8.5
t8.5 -21.5t-8.5 -21.5t-21.5 -8.5t-21.5 8.5t-8.5 21.5t8.5 21.5t21.5 8.5zM330 140q-29 0 -49.5 -20.5t-20.5 -49.5t20.5 -49.5t49.5 -20.5t49.5 20.5t20.5 49.5t-20.5 49.5t-49.5 20.5zM330 100q13 0 21.5 -8.5t8.5 -21.5t-8.5 -21.5t-21.5 -8.5t-21.5 8.5t-8.5 21.5
t8.5 21.5t21.5 8.5z" />
    <glyph glyph-name="ampersand" unicode="&#x26;" 
d="M200 400q-41 0 -70.5 -29.5t-29.5 -70.5q0 -46 36 -76q-1 -1 -1 -2q-25 -17 -40 -44t-15 -58q0 -50 34 -85t82 -35h224l1 -1q8 0 14 6t6 14.5t-6 14.5t-14 6h-1h-40v120h20l1 -1q8 0 14 6t6 14.5t-6 14.5t-14 6h-1h-80q-8 0 -14 -6t-6 -14.5t6 -14.5t14 -6v1h20v-120
h-144q-32 0 -54 23t-22 56.5t22 57t54 23.5h4h56v-1q8 0 14 6t6 14.5t-6 14.5t-14 6h-56q-25 0 -42.5 17t-17.5 42.5t17.5 43t42.5 17.5h80l1 -1q8 0 14 6t6 14.5t-6 14.5t-14 6h-1h-80z" />
    <glyph glyph-name="quotesingle" unicode="'" 
d="M270 500q-8 0 -14 -6t-6 -14v-140q0 -9 6 -14.5t14 -5.5t14 5.5t6 14.5v140q0 9 -6 14.5t-14 5.5z" />
    <glyph glyph-name="parenleft" unicode="(" 
d="M350 600q-87 0 -148.5 -61.5t-61.5 -148.5v-300q0 -87 61.5 -148.5t148.5 -61.5q9 0 14.5 6t5.5 14t-5.5 14t-14.5 6q-70 0 -120 50t-50 120v300q0 70 50 120t120 50q9 0 14.5 6t5.5 14t-5.5 14t-14.5 6z" />
    <glyph glyph-name="parenright" unicode=")" 
d="M160 600q-9 0 -14.5 -6t-5.5 -14t5.5 -14t14.5 -6q70 0 120 -50t50 -120v-300q0 -70 -50 -120t-120 -50q-9 0 -14.5 -6t-5.5 -14t5.5 -14t14.5 -6q87 0 148.5 61.5t61.5 148.5v300q0 87 -61.5 148.5t-148.5 61.5z" />
    <glyph glyph-name="asterisk" unicode="*" 
d="M326 370q-12 0 -18 -11l-58 -100l-57 100q-6 11 -18 11q-8 -1 -14 -6.5t-6 -13.5q0 -6 3 -11l58 -99h-116q-8 0 -14 -6t-6 -14.5t6 -14.5t14 -6v1h116l-58 -100q-3 -5 -3 -11q0 -8 6 -14t14 -6q12 0 18 11l57 100l58 -100q6 -11 18 -11q8 0 14 6t6 14q0 6 -3 11l-58 100
h115l1 -1q8 0 14 6t6 14.5t-6 14.5t-14 6h-1h-115l58 99q3 5 3 11q0 8 -6 14t-14 6z" />
    <glyph glyph-name="plus" unicode="+" 
d="M250 390q-8 0 -14 -6t-6 -14v-130h-130q-9 0 -14.5 -6t-5.5 -14t5.5 -14t14.5 -6h130v-130q0 -9 6 -14.5t14 -5.5t14 5.5t6 14.5v130h130q9 0 14.5 6t5.5 14t-5.5 14t-14.5 6h-130v130q0 9 -6 14.5t-14 5.5z" />
    <glyph glyph-name="comma" unicode="," 
d="M269 60q-14 0 -18 -14l-40 -140q-1 -4 -1 -7q0 -8 6 -14t14 -6q6 0 12 4.5t7 10.5l40 140q1 3 1 6q0 9 -6 14.5t-14 5.5h-1z" />
    <glyph glyph-name="hyphen" unicode="-" 
d="M100 240q-9 0 -14.5 -6t-5.5 -14t5.5 -14t14.5 -6h300q9 0 14.5 6t5.5 14t-5.5 14t-14.5 6h-300z" />
    <glyph glyph-name="period" unicode="." 
d="M250.5 100q-20.5 0 -35.5 -15t-15 -35.5t15 -35.5t35.5 -14.5t35 15t14.5 35t-14.5 35.5t-35 15z" />
    <glyph glyph-name="slash" unicode="/" 
d="M401 420h-1q-10 0 -16 -8l-300 -400q-4 -5 -4 -12q0 -9 6 -14.5t14 -5.5q10 0 16 8l300 400q4 5 4 12q0 8 -5.5 14t-13.5 6z" />
    <glyph glyph-name="zero" unicode="0" 
d="M195 400q-48 0 -81.5 -35.5t-33.5 -84.5v-160q0 -49 33.5 -84.5t81.5 -35.5h110q48 0 81.5 35.5t33.5 84.5v160q0 49 -33.5 84.5t-81.5 35.5h-110zM195 360h110q20 0 37 -10l-212 -270q-10 18 -10 40v160q0 34 22 57t53 23zM370 320q10 -18 10 -40v-160q0 -34 -22 -57
t-53 -23h-110q-20 0 -37 10z" />
    <glyph glyph-name="one" unicode="1" 
d="M140 400q-8 0 -14 -6t-6 -14.5t6 -14.5t14 -6v1h100v-320h-140q-8 0 -14 -6t-6 -14.5t6 -14.5t14 -6v1h300l1 -1q8 0 14 6t6 14.5t-6 14.5t-14 6h-1h-120v340q0 8 -5.5 13.5t-14.5 6.5h-120z" />
    <glyph glyph-name="two" unicode="2" 
d="M195 400q-48 0 -81.5 -35.5t-33.5 -84.5t33 -84q6 -7 15 -7q8 0 14 6t6 14t-6 14q-22 24 -22 57q0 34 22 57t53 23h110q31 0 53 -23t22 -57q0 -30 -24 -55l-248 -189q-8 -6 -8 -16q0 -8 6 -14t14 -6h280q8 0 14 6t6 14v40q0 9 -6 14.5t-14 5.5t-14 -5.5t-6 -14.5v-20
h-201l203 154l2 2q36 38 36 84q0 49 -33.5 84.5t-81.5 35.5h-110z" />
    <glyph glyph-name="three" unicode="3" 
d="M100 400q-8 0 -14 -6t-6 -14v-40q0 -9 6 -14.5t14 -5.5t14 5.5t6 14.5v20h220l-96 -128q-4 -5 -4 -12q0 -8 6 -14t14 -6h45q31 0 53 -23t22 -57t-22 -57t-53 -23h-205q-9 0 -14.5 -6t-5.5 -14t5.5 -14t14.5 -6h205q48 0 81.5 35.5t33.5 84.5t-33.5 84.5t-81.5 35.5h-5
l96 128q4 5 4 12q0 8 -6 14t-14 6h-280z" />
    <glyph glyph-name="four" unicode="4" 
d="M359 400q-8 0 -14 -7l-260 -300q-5 -6 -5 -13q0 -8 6 -14t14 -6h240v-20h-20q-9 0 -14.5 -6t-5.5 -14t5.5 -14t14.5 -6h80q9 0 14.5 6t5.5 14t-5.5 14t-14.5 6h-20v20h20q9 0 14.5 6t5.5 14t-5.5 14t-14.5 6h-20v280q0 8 -6 14t-14 6h-1zM340 326v-226h-196z" />
    <glyph glyph-name="five" unicode="5" 
d="M100 400q-8 -1 -13.5 -6.5t-6.5 -13.5v-160q1 -9 6.5 -14.5t13.5 -5.5h206q31 0 52.5 -23.5t21.5 -57t-21.5 -57t-52.5 -22.5h-206q-8 0 -14 -6t-6 -14.5t6 -14.5t14 -6v1h206q47 0 80.5 35t33.5 84.5t-33.5 85t-80.5 35.5h-186v120h260v-20v-1q0 -8 6 -14t14.5 -6
t14.5 6t6 14l-1 1v40q0 8 -5.5 13.5t-14.5 6.5h-300z" />
    <glyph glyph-name="six" unicode="6" 
d="M195 400q-48 0 -81.5 -35.5t-33.5 -84.5v-160q0 -49 33.5 -84.5t81.5 -35.5h110q48 0 81.5 35.5t33.5 84.5t-33.5 84.5t-81.5 35.5h-110q-43 0 -75 -29v69q0 34 22 57t53 23h165q9 0 14.5 6t5.5 14t-5.5 14t-14.5 6h-165zM195 200h110q31 0 53 -23t22 -57t-22 -57
t-53 -23h-110q-31 0 -53 23t-22 57t22 57t53 23z" />
    <glyph glyph-name="seven" unicode="7" 
d="M120 400q-8 0 -14 -6t-6 -14v-40q0 -8 6 -14t14 -6t14 6t6 14v20h248l-151 -320h-17q-8 0 -14 -6t-6 -14t6 -14t14 -6h80q8 0 14 6t6 14t-6 14t-14 6h-18l156 331q5 10 -1 19.5t-17 9.5h-300z" />
    <glyph glyph-name="eight" unicode="8" 
d="M200 400h-2q-41 -1 -69.5 -30t-28.5 -70q0 -47 36 -77q-25 -16 -40.5 -43.5t-15.5 -59.5q0 -49 33.5 -84.5t81.5 -35.5h110q48 0 81.5 35.5t33.5 84.5q0 32 -15.5 59.5t-40.5 43.5q36 30 36 77q0 41 -29.5 70.5t-70.5 29.5h-100zM200 360h100q25 0 42.5 -17.5t17.5 -42.5
t-17.5 -42.5t-42.5 -17.5h-100q-25 0 -42.5 17.5t-17.5 42.5t17.5 42.5t42.5 17.5zM305 200q31 0 53 -23t22 -57t-22 -57t-53 -23h-110q-31 0 -53 23t-22 57t22 57t53 23h110z" />
    <glyph glyph-name="nine" unicode="9" 
d="M196 400q-48 0 -82 -35.5t-34 -85t34 -84.5t82 -35h110q42 0 74 29v-149h-20q-8 0 -14 -6t-6 -14.5t6 -14.5t14 -6v1h80l1 -1q8 0 14 6t6 14.5t-6 14.5t-14 6h-1h-20v240q0 49 -33.5 84.5t-80.5 35.5h-110zM196 360h110q31 0 52.5 -23.5t21.5 -57t-21.5 -56.5t-52.5 -23
h-110q-32 0 -54 23t-22 56.5t22 57t54 23.5z" />
    <glyph glyph-name="colon" unicode=":" 
d="M250 360q-21 0 -35.5 -14.5t-14.5 -35.5t14.5 -35.5t35.5 -14.5t35.5 14.5t14.5 35.5t-14.5 35.5t-35.5 14.5zM250 140q-21 0 -35.5 -14.5t-14.5 -35.5t14.5 -35.5t35.5 -14.5t35.5 14.5t14.5 35.5t-14.5 35.5t-35.5 14.5z" />
    <glyph glyph-name="semicolon" unicode=";" 
d="M250 360q-21 0 -35.5 -14.5t-14.5 -35.5t14.5 -35.5t35.5 -14.5t35.5 14.5t14.5 35.5t-14.5 35.5t-35.5 14.5zM269 60q-14 0 -18 -14l-40 -140q-1 -4 -1 -7q0 -8 6 -14t14 -6q6 0 12 4.5t7 10.5l40 140q1 3 1 6q0 9 -6 14.5t-14 5.5h-1z" />
    <glyph glyph-name="less" unicode="&#x3c;" 
d="M400 420q-6 0 -11 -3l-300 -200q-9 -6 -9 -17t9 -17l300 -200q5 -3 11 -3q8 0 14 6t6 14q0 11 -9 17l-275 183l275 183q9 6 9 17q0 8 -5.5 14t-14.5 6z" />
    <glyph glyph-name="equal" unicode="=" 
d="M80 270q-8 0 -14 -6t-6 -14.5t6 -14.5t14 -6v1h340l1 -1q8 0 14 6t6 14.5t-6 14.5t-14 6h-1h-340zM80 190q-8 0 -14 -6t-6 -14.5t6 -14.5t14 -6v1h340l1 -1q8 0 14 6t6 14.5t-6 14.5t-14 6h-1h-340z" />
    <glyph glyph-name="greater" unicode="&#x3e;" 
d="M100 420q-9 0 -14.5 -6t-5.5 -14q0 -11 9 -17l275 -183l-275 -183q-9 -6 -9 -17q0 -8 6 -14t14 -6q6 0 11 3l300 200q9 6 9 17t-9 17l-300 200q-5 3 -11 3z" />
    <glyph glyph-name="question" unicode="?" 
d="M100 500q-8 0 -14 -6t-6 -14v-40q0 -9 6 -14.5t14 -5.5t14 5.5t6 14.5v20h130q52 0 89.5 -36t40.5 -87l-146 -185q-4 -5 -4 -12v-120q0 -9 6 -14.5t14 -5.5t14 5.5t6 14.5v113l146 185q4 5 4 12q0 70 -50 120t-120 50h-150zM250 -40q-21 0 -35.5 -14.5t-14.5 -35.5
t14.5 -35.5t35.5 -14.5t35.5 14.5t14.5 35.5t-14.5 35.5t-35.5 14.5z" />
    <glyph glyph-name="at" unicode="@" 
d="M250 500q-87 0 -148.5 -61.5t-61.5 -148.5v-40q0 -87 61.5 -148.5t148.5 -61.5q43 0 82 17q12 5 12 18q0 8 -5.5 14t-14.5 6q-4 0 -8 -2q-32 -13 -66 -13q-70 0 -120 50t-50 120v40q0 70 50 120t120 50t120 -50t50 -120v-40q0 -34 -13 -66q-4 -9 -13 -24h-14v145
q0 48 -35.5 81.5t-84.5 33.5q-47 0 -82 -31q-5 11 -18 11q-8 0 -14 -5.5t-6 -14.5v-75q0 -8 6 -14t14 -6t14 6t6 14q0 31 23 53t57 22t57 -22t23 -53v-25h-120q-33 0 -56.5 -23.5t-23.5 -56.5t23.5 -56.5t56.5 -23.5h137h3h3h42q11 0 17 9q13 20 21 39q17 39 17 82v40
q0 87 -61.5 148.5t-148.5 61.5zM220 240h120v-80h-120q-17 0 -28.5 11.5t-11.5 28.5t11.5 28.5t28.5 11.5z" />
    <glyph glyph-name="A" unicode="A" 
d="M160 600q-8 0 -14 -6t-6 -14t6 -14t14 -6h53l-168 -520h-25q-8 0 -14 -6t-6 -14t6 -14t14 -6h80q8 0 14 6t6 14t-6 14t-14 6h-13l52 160h215l58 -160h-12q-8 0 -14 -6t-6 -14t6 -14t14 -6h80q8 0 14 6t6 14t-6 14t-14 6h-26l-194 544q-5 13 -15 16h-5h-80zM241 518
l99 -278h-188z" />
    <glyph glyph-name="B" unicode="B" 
d="M80 600q-9 0 -14.5 -6t-5.5 -14t5.5 -14t14.5 -6h40v-520h-60q-9 0 -14.5 -6t-5.5 -14t5.5 -14t14.5 -6h80h150q70 0 120 45.5t50 114.5v40q0 48 -25 85.5t-67 57.5q29 19 45.5 50t16.5 67q0 58 -39.5 99t-95.5 41h-155h-60zM160 560h135q39 0 67 -29t28 -71t-28 -71
t-67 -29h-2h-1h-2h-130v200zM160 320h130q56 0 93 -33.5t37 -86.5v-40q0 -53 -37 -86.5t-93 -33.5h-130v280z" />
    <glyph glyph-name="C" unicode="C" 
d="M250 620q-87 0 -148.5 -61.5t-61.5 -148.5v-220q0 -87 61.5 -148.5t148.5 -61.5t148.5 61.5t61.5 148.5q0 8 -6 14t-14 6t-14 -6t-6 -14q0 -70 -50 -120t-120 -50t-120 50t-50 120v220q0 70 50 120t120 50t120 -50t50 -120q0 -8 6 -14t14 -6t14 6t6 14v170q0 8 -6 14
t-14 6t-14 -6t-6 -14v-47q-29 40 -74 63.5t-96 23.5z" />
    <glyph glyph-name="D" unicode="D" 
d="M80 600q-9 0 -14.5 -6t-5.5 -14t5.5 -14t14.5 -6h40v-520h-60q-9 0 -14.5 -6t-5.5 -14t5.5 -14t14.5 -6h80h150q70 0 120 45.5t50 114.5v230q0 87 -61.5 148.5t-148.5 61.5h-110h-60zM160 560h90q70 0 120 -50t50 -120v-230q0 -53 -37 -86.5t-93 -33.5h-130v520z" />
    <glyph glyph-name="E" unicode="E" 
d="M80 600q-9 0 -14.5 -6t-5.5 -14t5.5 -14t14.5 -6h40v-520h-60q-9 0 -14.5 -6t-5.5 -14t5.5 -14t14.5 -6h80h300q8 0 14 6t6 14v80q0 9 -6 14.5t-14 5.5t-14 -6t-6 -14v-60h-260v240h140v-20q0 -9 6 -14.5t14 -5.5t14 5.5t6 14.5v80q0 9 -6 14.5t-14 5.5t-14 -6t-6 -14
v-20h-140v240h260v-60q0 -9 6 -14.5t14 -5.5t14 5.5t6 14.5v80q0 8 -6 14t-14 6h-300h-60z" />
    <glyph glyph-name="F" unicode="F" 
d="M60 600q-9 0 -14.5 -6t-5.5 -14t5.5 -14t14.5 -6h60v-520h-40q-9 0 -14.5 -6t-5.5 -14t5.5 -14t14.5 -6h170q9 0 14.5 6t5.5 14t-5.5 14t-14.5 6h-90v240h140v-20q0 -9 6 -14.5t14 -5.5t14 5.5t6 14.5v80q0 9 -6 14.5t-14 5.5t-14 -6t-6 -14v-20h-140v240h260v-60
q0 -9 6 -14.5t14 -5.5t14 5.5t6 14.5v80q0 8 -6 14t-14 6h-300h-80z" />
    <glyph glyph-name="G" unicode="G" 
d="M250 620q-87 0 -148.5 -61.5t-61.5 -148.5v-220q0 -87 61.5 -148.5t148.5 -61.5t148.5 61.5t61.5 148.5v110q0 8 -6 14t-14 6h-190q-9 0 -14.5 -6t-5.5 -14t5.5 -14t14.5 -6h170v-90q0 -70 -50 -120t-120 -50t-120 50t-50 120v220q0 70 50 120t120 50t120 -50t50 -120
q0 -8 6 -14t14 -6t14 6t6 14v170q0 9 -6 14.5t-14 5.5t-14 -5.5t-6 -14.5v-47q-29 40 -74 63.5t-96 23.5z" />
    <glyph glyph-name="H" unicode="H" 
d="M60 600q-9 0 -14.5 -6t-5.5 -14t5.5 -14t14.5 -6h20v-520h-20q-9 0 -14.5 -6t-5.5 -14t5.5 -14t14.5 -6h80q9 0 14.5 6t5.5 14t-5.5 14t-14.5 6h-20v240h260v-240h-20q-9 0 -14.5 -6t-5.5 -14t5.5 -14t14.5 -6h80q9 0 14.5 6t5.5 14t-5.5 14t-14.5 6h-20v520h20
q9 0 14.5 6t5.5 14t-5.5 14t-14.5 6h-80q-9 0 -14.5 -6t-5.5 -14t5.5 -14t14.5 -6h20v-240h-260v240h20q9 0 14.5 6t5.5 14t-5.5 14t-14.5 6h-80z" />
    <glyph glyph-name="I" unicode="I" 
d="M100 600q-9 0 -14.5 -6t-5.5 -14t5.5 -14t14.5 -6h130v-520h-130q-9 0 -14.5 -6t-5.5 -14t5.5 -14t14.5 -6h300q9 0 14.5 6t5.5 14t-5.5 14t-14.5 6h-130v520h130q9 0 14.5 6t5.5 14t-5.5 14t-14.5 6h-300z" />
    <glyph glyph-name="J" unicode="J" 
d="M250 600q-9 0 -14.5 -6t-5.5 -14t5.5 -14t14.5 -6h130v-410q0 -54 -38 -92t-92 -38t-92 38t-38 92q0 9 -6 14.5t-14 5.5t-14 -5.5t-6 -14.5q0 -70 50 -120t120 -50t120 50t50 120v410h20q9 0 14.5 6t5.5 14t-5.5 14t-14.5 6h-190z" />
    <glyph glyph-name="K" unicode="K" 
d="M60 600q-9 0 -14.5 -6t-5.5 -14t5.5 -14t14.5 -6h20v-520h-20q-9 0 -14.5 -6t-5.5 -14t5.5 -14t14.5 -6h80q9 0 14.5 6t5.5 14t-5.5 14t-14.5 6h-20v251l50 47l211 -326q6 -12 19 -12h80q9 0 14.5 6t5.5 14t-5.5 14t-14.5 6h-69l-211 326l208 194h32q9 0 14.5 6t5.5 14
t-5.5 14t-14.5 6h-80q-9 0 -14.5 -6t-5.5 -14q0 -13 11 -18l-231 -216v214h20q9 0 14.5 6t5.5 14t-5.5 14t-14.5 6h-80z" />
    <glyph glyph-name="L" unicode="L" 
d="M80 600q-9 0 -14.5 -6t-5.5 -14t5.5 -14t14.5 -6h40v-520h-60q-9 0 -14.5 -6t-5.5 -14t5.5 -14t14.5 -6h80h300q9 0 14.5 6t5.5 14v80q0 9 -6 14.5t-14 5.5q-9 0 -14.5 -6t-5.5 -14v-60h-260v520h90q9 0 14.5 6t5.5 14t-5.5 14t-14.5 6h-170z" />
    <glyph glyph-name="M" unicode="M" 
d="M60 600q-9 0 -14.5 -6t-5.5 -14t5.5 -14t14.5 -6h20v-520h-20q-9 0 -14.5 -6t-5.5 -14t5.5 -14t14.5 -6h80q9 0 14.5 6t5.5 14t-5.5 14t-14.5 6h-20v440l112 -268q5 -12 18 -12t18 12l112 268v-440h-20q-9 0 -14.5 -6t-5.5 -14t5.5 -14t14.5 -6h80q9 0 14.5 6t5.5 14
t-5.5 14t-14.5 6h-20v520h20q9 0 14.5 6t5.5 14t-5.5 14t-14.5 6h-40q-13 0 -18 -12l-132 -316l-132 316q-5 12 -18 12h-40z" />
    <glyph glyph-name="N" unicode="N" 
d="M60 600q-9 0 -14.5 -6t-5.5 -14t5.5 -14t14.5 -6h20v-520h-20q-9 0 -14.5 -6t-5.5 -14t5.5 -14t14.5 -6h80q9 0 14.5 6t5.5 14t-5.5 14t-14.5 6h-20v460l262 -489q6 -11 18 -11h40q9 0 14.5 6t5.5 14t-5.5 14t-14.5 6h-20v520h20q9 0 14.5 6t5.5 14t-5.5 14t-14.5 6h-80
q-9 0 -14.5 -6t-5.5 -14t5.5 -14t14.5 -6h20v-460l-262 489q-6 11 -18 11h-40z" />
    <glyph glyph-name="O" unicode="O" 
d="M250 620q-87 0 -148.5 -61.5t-61.5 -148.5v-220q0 -87 61.5 -148.5t148.5 -61.5t148.5 61.5t61.5 148.5v220q0 87 -61.5 148.5t-148.5 61.5zM250 580q70 0 120 -50t50 -120v-220q0 -70 -50 -120t-120 -50t-120 50t-50 120v220q0 70 50 120t120 50z" />
    <glyph glyph-name="P" unicode="P" 
d="M60 600q-9 0 -14.5 -6t-5.5 -14t5.5 -14t14.5 -6h60v-520h-40q-9 0 -14.5 -6t-5.5 -14t5.5 -14t14.5 -6h120q9 0 14.5 6t5.5 14t-5.5 14t-14.5 6h-40v200h130q70 0 120 45.5t50 114.5v40q0 69 -50 114.5t-120 45.5h-150h-80zM160 560h130q56 0 93 -33.5t37 -86.5v-40
q0 -53 -37 -86.5t-93 -33.5h-130v280z" />
    <glyph glyph-name="Q" unicode="Q" 
d="M250 620q-87 0 -148.5 -61.5t-61.5 -148.5v-220q0 -87 61.5 -148.5t148.5 -61.5q69 0 124 41l10 -13q6 -8 16 -8h80q9 0 14.5 6t5.5 14t-5.5 14t-14.5 6h-70l-6 8q56 60 56 142v220q0 87 -61.5 148.5t-148.5 61.5zM250 580q70 0 120 -50t50 -120v-220q0 -62 -40 -110
l-24 32q-6 8 -15 8h-1q-8 0 -14 -5.5t-6 -14.5q0 -7 4 -12l26 -35q-44 -33 -100 -33q-70 0 -120 50t-50 120v220q0 70 50 120t120 50z" />
    <glyph glyph-name="R" unicode="R" 
d="M60 600q-9 0 -14.5 -6t-5.5 -14t5.5 -14t14.5 -6h60v-520h-40q-9 0 -14.5 -6t-5.5 -14t5.5 -14t14.5 -6h120q9 0 14.5 6t5.5 14t-5.5 14t-14.5 6h-40v200h108l113 -226q4 -14 19 -14h80q9 0 14.5 6t5.5 14t-5.5 14t-14.5 6h-68l-100 201q63 8 105.5 52t42.5 107v40
q0 69 -50 114.5t-120 45.5h-150h-80zM160 560h130q56 0 93 -33.5t37 -86.5v-40q0 -53 -37 -86.5t-93 -33.5h-130v280z" />
    <glyph glyph-name="S" unicode="S" 
d="M250 620q-86 0 -146 -40q-64 -44 -64 -110q0 -33 20 -59q17 -21 49 -38q17 -9 37 -17t53 -19.5t44 -15.5q95 -34 131 -62q46 -35 46 -89q0 -62 -49.5 -106t-120.5 -44t-120.5 44t-49.5 106q0 8 -6 14t-14 6t-14 -6t-6 -14v-150q0 -9 6 -14.5t14 -5.5t14 5.5t6 14.5v39
q29 -37 74 -58t96 -21q86 0 148 55.5t62 134.5q0 74 -62 121q-40 31 -141 68q-12 4 -45 15.5t-51.5 18.5t-33.5 15q-24 13 -35 28q-12 14 -12 34q0 45 47 76q50 34 123 34t123 -34q47 -31 47 -76q0 -8 6 -14t14 -6t14 6t6 14v110q0 9 -6 14.5t-14 5.5t-14 -5.5t-6 -14.5v-21
q-11 12 -24 21q-60 40 -146 40z" />
    <glyph glyph-name="T" unicode="T" 
d="M60 600q-8 0 -14 -6t-6 -14v-80q0 -9 6 -14.5t14 -5.5t14 5.5t6 14.5v60h150v-520h-70q-9 0 -14.5 -6t-5.5 -14t5.5 -14t14.5 -6h180q9 0 14.5 6t5.5 14t-5.5 14t-14.5 6h-70v520h150v-60q0 -9 6 -14.5t14 -5.5t14 5.5t6 14.5v80q0 8 -6 14t-14 6h-380z" />
    <glyph glyph-name="U" unicode="U" 
d="M60 600q-9 0 -14.5 -6t-5.5 -14t5.5 -14t14.5 -6h20v-410q0 -70 50 -120t120 -50t120 50t50 120v410h20q9 0 14.5 6t5.5 14t-5.5 14t-14.5 6h-80q-9 0 -14.5 -6t-5.5 -14t5.5 -14t14.5 -6h20v-410q0 -54 -38 -92t-92 -38t-92 38t-38 92v410h20q9 0 14.5 6t5.5 14t-5.5 14
t-14.5 6h-80z" />
    <glyph glyph-name="V" unicode="V" 
d="M60 600q-9 0 -14.5 -6t-5.5 -14t5.5 -14t14.5 -6h25l146 -545q1 -6 7 -10.5t12 -4.5t12 4.5t7 10.5l146 545h25q9 0 14.5 6t5.5 14t-5.5 14t-14.5 6h-80q-9 0 -14.5 -6t-5.5 -14t5.5 -14t14.5 -6h14l-124 -463l-124 463h14q9 0 14.5 6t5.5 14t-5.5 14t-14.5 6h-80z" />
    <glyph glyph-name="W" unicode="W" 
d="M20 600q-9 0 -14.5 -6t-5.5 -14t5.5 -14t14.5 -6h23l97 -542q1 -7 6.5 -12.5t13.5 -5.5q7 0 12.5 4.5t7.5 11.5l70 360l70 -360q2 -7 7.5 -11.5t12.5 -4.5q8 0 14 5.5t6 12.5l97 542h23q9 0 14.5 6t5.5 14t-5.5 14t-14.5 6h-80q-9 0 -14.5 -6t-5.5 -14t5.5 -14t14.5 -6
h16l-77 -431l-69 355q-2 7 -7.5 11.5t-12.5 4.5t-12.5 -5t-7.5 -11l-69 -355l-77 431h16q9 0 14.5 6t5.5 14t-5.5 14t-14.5 6h-80z" />
    <glyph glyph-name="X" unicode="X" 
d="M60 600q-9 0 -14.5 -6t-5.5 -14t5.5 -14t14.5 -6h28l139 -260l-139 -260h-28q-9 0 -14.5 -6t-5.5 -14t5.5 -14t14.5 -6h80q9 0 14.5 6t5.5 14t-5.5 14t-14.5 6h-7l117 218l117 -218h-7q-9 0 -14.5 -6t-5.5 -14t5.5 -14t14.5 -6h80q9 0 14.5 6t5.5 14t-5.5 14t-14.5 6h-28
l-139 260l139 260h28q9 0 14.5 6t5.5 14t-5.5 14t-14.5 6h-80q-9 0 -14.5 -6t-5.5 -14t5.5 -14t14.5 -6h7l-117 -218l-117 218h7q9 0 14.5 6t5.5 14t-5.5 14t-14.5 6h-80z" />
    <glyph glyph-name="Y" unicode="Y" 
d="M60 600q-9 0 -14.5 -6t-5.5 -14t5.5 -14t14.5 -6h28l142 -245v-275h-70q-9 0 -14.5 -6t-5.5 -14t5.5 -14t14.5 -6h180q9 0 14.5 6t5.5 14t-5.5 14t-14.5 6h-70v275l142 245h28q9 0 14.5 6t5.5 14t-5.5 14t-14.5 6h-80q-9 0 -14.5 -6t-5.5 -14t5.5 -14t14.5 -6h5
l-115 -200l-115 200h5q9 0 14.5 6t5.5 14t-5.5 14t-14.5 6h-80z" />
    <glyph glyph-name="Z" unicode="Z" 
d="M60 600q-8 0 -14 -6t-6 -14v-80q0 -9 6 -14.5t14 -5.5t14 5.5t6 14.5v60h322l-359 -529q-3 -5 -3 -11q0 -8 6 -14t14 -6h380q8 0 14 6t6 14v80q0 9 -6 14.5t-14 5.5t-14 -5.5t-6 -14.5v-60h-322l359 529q3 5 3 11q0 8 -6 14t-14 6h-380z" />
    <glyph glyph-name="bracketleft" unicode="[" 
d="M160 600q-8 -1 -13.5 -6.5t-6.5 -13.5v-680q1 -9 6.5 -14.5t13.5 -5.5h186v-1q8 0 14 6t6 14.5t-6 14.5t-14 6h-166v640h166v-1q8 0 14 6t6 14.5t-6 14.5t-14 6h-186z" />
    <glyph glyph-name="backslash" unicode="\" 
d="M100 500q-8 0 -14 -6t-6 -14q0 -5 2 -9l300 -560q6 -12 18 -12q9 0 14.5 6t5.5 14q0 6 -2 10l-300 560q-6 11 -18 11z" />
    <glyph glyph-name="bracketright" unicode="]" 
d="M160 600q-9 0 -14.5 -6t-5.5 -14t5.5 -14t14.5 -6h165v-640h-165q-9 0 -14.5 -6t-5.5 -14t5.5 -14t14.5 -6h185q8 0 14 6t6 14v680q0 8 -6 14t-14 6h-185z" />
    <glyph glyph-name="asciicircum" unicode="^" 
d="M250 600q-10 0 -15 -7l-150 -180q-5 -6 -5 -13q0 -8 6 -14t14 -6q9 0 15 7l135 162l135 -162q6 -7 15 -7q8 0 14 6t6 14q0 7 -5 13l-150 180q-6 7 -15 7z" />
    <glyph glyph-name="underscore" unicode="_" 
d="M65 -38h-1q-9 0 -15.5 -6.5t-6.5 -16t6.5 -16t15.5 -6.5h1h371h1q9 0 15.5 6.5t6.5 16t-6.5 16t-15.5 6.5h-1h-371z" />
    <glyph glyph-name="grave" unicode="`" 
d="M230 500q-8 0 -14 -6t-6 -14q0 -4 2 -8l60 -140q5 -13 19 -13q8 0 14 6t6 14q0 4 -2 8l-60 140q-5 13 -19 13z" />
    <glyph glyph-name="a" unicode="a" 
d="M250 420q-78 0 -130 -61v21q1 8 -5 14t-14.5 6t-14.5 -6t-6 -14v-130q1 -9 6.5 -14.5t14 -5.5t14 5.5t5.5 14.5q0 54 38 92t92.5 38t92 -38t37.5 -92v-10h-184q-48 0 -82 -35.5t-34 -85t34 -84.5t82 -35h244q9 -1 15 5t6 14.5t-6 14.5t-15 6h-20v210q0 70 -49.5 120
t-120.5 50zM196 200h184v-160h-184q-32 0 -54 23t-22 56.5t22 57t54 23.5z" />
    <glyph glyph-name="b" unicode="b" 
d="M60 600q-8 0 -14 -6t-6 -14t6 -14t14 -6h20v-520h-20q-8 0 -14 -6t-6 -14t6 -14t14 -6h190q71 0 120.5 45.5t49.5 114.5v80q0 69 -49.5 114.5t-120.5 45.5h-130v180q0 8 -5.5 14t-14.5 6h-40zM120 360h130q56 0 93 -33.5t37 -86.5v-80q0 -53 -37 -86.5t-93 -33.5h-130
v320z" />
    <glyph glyph-name="c" unicode="c" 
d="M250 420q-70 0 -120 -50t-50 -120v-100q0 -71 50 -120.5t120.5 -49.5t120 49.5t49.5 120.5h1q0 8 -6 14t-14.5 6t-14.5 -6t-6 -14q0 -55 -37.5 -92.5t-92 -37.5t-92.5 37.5t-38 92.5v100q0 54 38 92t92.5 38t92 -38t37.5 -92q1 -9 6.5 -14.5t14 -5.5t14 5.5t5.5 14.5v130
h1q0 8 -6 14t-14.5 6t-14.5 -6t-6 -14v-21q-51 61 -130 61z" />
    <glyph glyph-name="d" unicode="d" 
d="M360 600q-9 0 -14.5 -6t-5.5 -14t5.5 -14t14.5 -6h20v-160h-130q-70 0 -120 -45.5t-50 -114.5v-80q0 -69 50 -114.5t120 -45.5h150h40q9 0 14.5 6t5.5 14t-5.5 14t-14.5 6h-20v540q0 8 -6 14t-14 6h-40zM250 360h130v-320h-130q-56 0 -93 33.5t-37 86.5v80q0 53 37 86.5
t93 33.5z" />
    <glyph glyph-name="e" unicode="e" 
d="M250.5 420q-70.5 0 -120.5 -50t-50 -120v-80q0 -71 50 -120.5t120 -49.5h120l1 -1q8 0 14 6t6 14.5t-6 14.5t-14 6h-1h-120q-54 0 -92 37.5t-38 92.5v30h280q9 0 14.5 5.5t5.5 14.5v30q0 70 -49.5 120t-120 50zM250.5 380q54.5 0 92 -38t37.5 -92v-10h-260v10q0 54 38 92
t92.5 38z" />
    <glyph glyph-name="f" unicode="f" 
d="M350 600q-70 0 -120 -50t-50 -120v-30h-40q-9 0 -14.5 -6t-5.5 -14t5.5 -14t14.5 -6h40v-320h-80q-9 0 -14.5 -6t-5.5 -14t5.5 -14t14.5 -6h300q9 0 14.5 6t5.5 14t-5.5 14t-14.5 6h-180v320h100q9 0 14.5 6t5.5 14t-5.5 14t-14.5 6h-100v30q0 54 38 92t92 38q9 0 14.5 6
t5.5 14t-5.5 14t-14.5 6z" />
    <glyph glyph-name="g" unicode="g" 
d="M250 400q-69 0 -119 -46t-51 -114v-80q0 -69 50 -114.5t120 -45.5h130v-30q0 -55 -37.5 -92.5t-92.5 -37.5h-150q-8 0 -14 -6t-6 -14.5t6 -14.5t14 -5h150q70 0 120 50t50 120q1 15 0 390h20q9 -1 15 5t6 14.5t-6 14.5t-15 6h-190zM250 360h130v-320h-130q-56 0 -93 33
t-37 87v80q0 53 37 86.5t93 33.5z" />
    <glyph glyph-name="h" unicode="h" 
d="M60 600q-9 0 -14.5 -6t-5.5 -14t5.5 -14t14.5 -6h20v-520h-20q-9 0 -14.5 -6t-5.5 -14t5.5 -14t14.5 -6h80q9 0 14.5 6t5.5 14t-5.5 14t-14.5 6h-20v210q0 54 38 92t92 38t92 -38t38 -92v-210h-20q-9 0 -14.5 -6t-5.5 -14t5.5 -14t14.5 -6h80q9 0 14.5 6t5.5 14t-5.5 14
t-14.5 6h-20v210q0 70 -50 120t-120 50q-79 0 -130 -61v221q0 8 -6 14t-14 6h-40z" />
    <glyph glyph-name="i" unicode="i" 
d="M230.5 540q-18.5 0 -32.5 -10q-18 -12 -18 -30.5t18 -30.5q14 -9 32.5 -9t32.5 9q17 12 17 30.5t-17 30.5q-14 10 -32.5 10zM180 400q-8 0 -14 -6t-6 -14.5t6 -14.5t14 -6v1h60v-320h-140q-8 0 -14 -6t-6 -14.5t6 -14.5t14 -6v1h300l1 -1q8 0 14 6t6 14.5t-6 14.5t-14 6
h-1h-120v340q0 8 -5.5 13.5t-14.5 6.5h-80z" />
    <glyph glyph-name="j" unicode="j" 
d="M330 540q-18 0 -32 -9q-18 -12 -18 -31t18 -31q14 -9 32 -9t32 9q18 12 18 31t-18 31q-14 9 -32 9zM250 400q-9 0 -14.5 -6t-5.5 -14t5.5 -14t14.5 -6h70v-390q0 -54 -38 -92t-92 -38h-80q-9 0 -14.5 -6t-5.5 -14t5.5 -14t14.5 -6h80q70 0 120 50t50 120v390h40
q9 0 14.5 6t5.5 14t-5.5 14t-14.5 6h-150z" />
    <glyph glyph-name="k" unicode="k" 
d="M60 600q-8 0 -14 -6t-6 -14.5t6 -14.5t14 -6v1h20v-520h-20q-8 0 -14 -6t-6 -14.5t6 -14.5t14 -6v1h80l1 -1q8 0 14 6t6 14.5t-6 14.5t-14 6h-1h-20v91l47 46l219 -172q6 -6 14 -6v1h40l1 -1q8 0 14 6t6 14.5t-6 14.5t-14 6h-1h-33l-212 166l154 154h31l1 -1q8 0 14 6
t6 14.5t-6 14.5t-14 6h-1h-80q-8 0 -14 -6t-6 -15q0 -13 13 -18l-173 -173v392q0 8 -5.5 13.5t-14.5 6.5h-40z" />
    <glyph glyph-name="l" unicode="l" 
d="M180 600q-9 0 -14.5 -6t-5.5 -14t5.5 -14t14.5 -6h60v-520h-140q-9 0 -14.5 -6t-5.5 -14t5.5 -14t14.5 -6h300q9 0 14.5 6t5.5 14t-5.5 14t-14.5 6h-120v540q0 8 -6 14t-14 6h-80z" />
    <glyph glyph-name="m" unicode="m" 
d="M186 420q-40 0 -70 -27q-6 6 -16 7h-80q-8 0 -14 -6t-6 -14.5t6 -14.5t14 -6v1h60v-46v-274h-20q-8 0 -14 -6t-6 -14.5t6 -14.5t14 -6v1h80l1 -1q8 0 14 6t6 14.5t-6 14.5t-14 6h-1h-20v274q0 28 19 47t46.5 19t46 -19t18.5 -47v-274h-20q-8 0 -14 -6t-6 -14.5t6 -14.5
t14 -6v1h80l1 -1q8 0 14 6t6 14.5t-6 14.5t-14 6h-1h-20v274q0 28 19 47t46.5 19t46 -19t18.5 -47v-274h-20q-8 0 -14 -6t-6 -14.5t6 -14.5t14 -6v1h80l1 -1q8 0 14 6t6 14.5t-6 14.5t-14 6h-1h-20v274q0 44 -30.5 75t-73.5 31q-54 0 -86 -44q-31 44 -84 44z" />
    <glyph glyph-name="n" unicode="n" 
d="M250 420q-79 0 -130 -61v21q0 8 -6 14t-14 6h-80q-9 0 -14.5 -6t-5.5 -14t5.5 -14t14.5 -6h60v-320h-20q-9 0 -14.5 -6t-5.5 -14t5.5 -14t14.5 -6h80q9 0 14.5 6t5.5 14t-5.5 14t-14.5 6h-20v210q0 54 38 92t92 38t92 -38t38 -92v-210h-20q-9 0 -14.5 -6t-5.5 -14
t5.5 -14t14.5 -6h80q9 0 14.5 6t5.5 14t-5.5 14t-14.5 6h-20v210q0 70 -50 120t-120 50z" />
    <glyph glyph-name="o" unicode="o" 
d="M250.5 420q-70.5 0 -120.5 -50t-50 -120v-100q0 -71 50 -120.5t120.5 -49.5t120 49.5t49.5 120.5v100q0 70 -49.5 120t-120 50zM250.5 380q54.5 0 92 -38t37.5 -92v-100q0 -55 -37.5 -92.5t-92 -37.5t-92.5 37.5t-38 92.5v100q0 54 38 92t92.5 38z" />
    <glyph glyph-name="p" unicode="p" 
d="M60 400q-9 0 -14.5 -6t-5.5 -14t5.5 -14t14.5 -6h20v-520h-20q-9 0 -14.5 -6t-5.5 -14t5.5 -14t14.5 -6h80q9 0 14.5 6t5.5 14t-5.5 14t-14.5 6h-20v160h130q70 0 120 45.5t50 114.5v80q0 69 -50 114.5t-120 45.5h-150h-40zM120 360h130q56 0 93 -33.5t37 -86.5v-80
q0 -53 -37 -86.5t-93 -33.5h-130v320z" />
    <glyph glyph-name="q" unicode="q" 
d="M250 400q-70 0 -120 -45.5t-50 -114.5v-80q0 -70 50 -115t120 -45h130v-180q0 -9 6 -14.5t14 -5.5h80q9 -1 15 5t6 14.5t-6 14.5t-15 6h-60v520h20q9 -1 15 5t6 14.5t-6 14.5t-15 6h-190zM250 360h130v-320h-130q-56 0 -93 33t-37 87v80q0 53 37 86.5t93 33.5z" />
    <glyph glyph-name="r" unicode="r" 
d="M120 400q-9 0 -14.5 -6t-5.5 -14t5.5 -14t14.5 -6h60v-320h-80q-9 0 -14.5 -6t-5.5 -14t5.5 -14t14.5 -6h220q9 0 14.5 6t5.5 14t-5.5 14t-14.5 6h-100v190q0 54 38 92t92 38h30v-30q0 -9 6 -14.5t14 -5.5t14 5.5t6 14.5v50q0 8 -6 14t-14 6h-50q-79 0 -130 -61v41
q0 8 -6 14t-14 6h-80z" />
    <glyph glyph-name="s" unicode="s" 
d="M250.5 420q-67.5 0 -116.5 -30q-54 -32 -54 -80q0 -26 17 -46q14 -16 39 -29q36 -19 110 -35q70 -16 102 -37t32 -53q0 -36 -35 -62q-39 -28 -94.5 -28t-94.5 28q-36 26 -36 62q0 8 -5.5 13.5t-14 5.5t-14 -5.5t-6.5 -13.5v-90v-1q0 -8 6 -14t14.5 -6t14.5 6t6 14l-1 1v6
q7 -6 13 -10q49 -36 117.5 -36t117.5 36q52 38 52 94q0 53 -50 86q-38 26 -115 43q-70 15 -101 31q-18 10 -26 20q-8 9 -8 20q0 25 35 46q39 24 95.5 24t95.5 -24q34 -21 34 -46q1 -9 6.5 -14.5t14 -5.5t14 5.5t5.5 14.5v70h1q0 8 -6 14t-15 6q-7 0 -13 -5.5t-6 -13.5
q-7 5 -14 9q-49 30 -116.5 30z" />
    <glyph glyph-name="t" unicode="t" 
d="M140 600q-9 0 -14.5 -6t-5.5 -14t5.5 -14t14.5 -6h20v-160h-60q-9 0 -14.5 -6t-5.5 -14t5.5 -14t14.5 -6h60v-190q0 -70 50 -120t120 -50h70q9 0 14.5 6t5.5 14t-5.5 14t-14.5 6h-70q-54 0 -92 38t-38 92v190h80q9 0 14.5 6t5.5 14t-5.5 14t-14.5 6h-80v180q0 8 -6 14
t-14 6h-40z" />
    <glyph glyph-name="u" unicode="u" 
d="M60 400q-8 0 -14 -6t-6 -14.5t6 -14.5t14 -6v1h20v-210q0 -71 50 -120.5t120 -49.5q79 0 130 60v-20q1 -9 6.5 -14.5t13.5 -5.5h80l1 -1q8 0 14 6t6 14.5t-6 14.5t-14 6h-1h-60v110v230q0 8 -5.5 13.5t-14.5 6.5h-40q-8 0 -14 -6t-6 -14.5t6 -14.5t14 -6v1h20v-210
q0 -55 -37.5 -92.5t-92 -37.5t-92.5 37.5t-38 92.5v230q0 8 -5.5 13.5t-14.5 6.5h-40z" />
    <glyph glyph-name="v" unicode="v" 
d="M340 400q-8 0 -14 -6t-6 -14t6 -14t14 -6h12l-102 -281l-111 308q-2 6 -7.5 9.5t-11.5 3.5h-40q-8 0 -14 -6t-6 -14t6 -14t14 -6h26l125 -347q2 -6 7.5 -9.5t11.5 -3.5t11.5 3.5t7.5 9.5l125 347h26q8 0 14 6t6 14t-6 14t-14 6h-80z" />
    <glyph glyph-name="w" unicode="w" 
d="M60 400q-8 0 -14 -6t-6 -14.5t6 -14.5t14 -6v1h24l77 -345q1 -6 7 -10.5t12.5 -4.5t12.5 4.5t7 11.5l50 259l51 -259q1 -7 7 -12t13 -5t13 5.5t7 13.5l76 342h23l1 -1q8 0 14 6t6 14.5t-6 14.5t-14 6h-1h-80q-8 0 -14 -6t-6 -14.5t6 -14.5t14 -6v1h16l-54 -242l-52 265
q-1 7 -7 11.5t-12.5 4.5t-12.5 -4.5t-7 -11.5l-52 -265l-59 266q-1 6 -7 11t-12 5h-1h-40z" />
    <glyph glyph-name="x" unicode="x" 
d="M100 400q-9 0 -14.5 -6t-5.5 -14t5.5 -14t14.5 -6h29l98 -160l-98 -160h-29q-9 0 -14.5 -6t-5.5 -14t5.5 -14t14.5 -6h80q9 0 14.5 6t5.5 14t-5.5 14t-14.5 6h-4l74 122l74 -122h-4q-9 0 -14.5 -6t-5.5 -14t5.5 -14t14.5 -6h80q9 0 14.5 6t5.5 14t-5.5 14t-14.5 6h-29
l-98 160l98 160h29q9 0 14.5 6t5.5 14t-5.5 14t-14.5 6h-80q-9 0 -14.5 -6t-5.5 -14t5.5 -14t14.5 -6h4l-74 -122l-74 122h4q9 0 14.5 6t5.5 14t-5.5 14t-14.5 6h-80z" />
    <glyph glyph-name="y" unicode="y" 
d="M60 400q-8 0 -14 -6t-6 -14.5t6 -14.5t14 -6v1h27l143 -343l-73 -177h-57q-8 0 -14 -6t-6 -14.5t6 -14.5t14 -6v1h120l1 -1q8 0 14 6t6 14.5t-6 14.5t-14 6h-1h-20l214 520h26l1 -1q8 0 14 6t6 14.5t-6 14.5t-14 6h-1h-80q-8 0 -14 -6t-6 -14.5t6 -14.5t14 -6v1h11
l-120 -291l-132 318q-5 13 -18 13h-1h-40z" />
    <glyph glyph-name="z" unicode="z" 
d="M100 400q-8 0 -14 -6t-6 -14v-50q0 -9 6 -14.5t14 -5.5t14 5.5t6 14.5v30h237l-272 -327q-5 -6 -5 -13q0 -8 6 -14t14 -6h300q8 0 14 6t6 14v50q0 9 -6 14.5t-14 5.5t-14 -5.5t-6 -14.5v-30h-237l272 327q5 6 5 13q0 8 -6 14t-14 6h-300z" />
    <glyph glyph-name="braceleft" unicode="{" 
d="M350 600q-87 0 -148.5 -61.5t-61.5 -148.5v-99l-51 -34q-9 -6 -9 -17t9 -17l51 -34v-99q0 -87 61.5 -148.5t148.5 -61.5q9 0 14.5 6t5.5 14t-5.5 14t-14.5 6q-70 0 -120 50t-50 120v110q0 11 -9 17l-35 23l35 23q9 6 9 17v110q0 70 50 120t120 50q9 0 14.5 6t5.5 14
t-5.5 14t-14.5 6z" />
    <glyph glyph-name="bar" unicode="|" 
d="M260 600q-8 0 -14 -6t-6 -14v-680q0 -9 6 -14.5t14 -5.5t14 5.5t6 14.5v680q0 9 -6 14.5t-14 5.5z" />
    <glyph glyph-name="braceright" unicode="}" 
d="M160 600q87 0 148.5 -61.5t61.5 -148.5v-99l51 -34q9 -6 9 -17t-9 -17l-51 -34v-99q0 -87 -61.5 -148.5t-148.5 -61.5q-8 0 -14 6t-6 14t6 14t14 6q71 0 120.5 50t49.5 120v110q0 11 9 17l35 23l-35 23q-9 6 -9 17v110q0 70 -49.5 120t-120.5 50q-8 0 -14 6t-6 14t6 14
t14 6z" />
    <glyph glyph-name="asciitilde" unicode="~" 
d="M156 320q-48 0 -81.5 -34t-33.5 -81v-1q0 -8 5.5 -14t14 -6t14.5 6t6 14v1q0 31 21.5 53t53.5 22q25 0 45 -22q12 -13 32 -50q23 -43 38 -60q31 -33 75 -33q47 0 81 33.5t34 81.5q0 8 -6 14t-14.5 6t-14 -6t-5.5 -14q0 -32 -22 -53.5t-53 -21.5q-26 0 -45 20
q-12 13 -33 51q-22 42 -38 59q-31 35 -74 35z" />
    <glyph glyph-name="copyright" unicode="&#xa9;" 
d="M250 500q-87 0 -148.5 -61.5t-61.5 -148.5v-40q0 -87 61.5 -148.5t148.5 -61.5t148.5 61.5t61.5 148.5v40q0 87 -61.5 148.5t-148.5 61.5zM250 460q70 0 120 -50t50 -120v-40q0 -70 -50 -120t-120 -50t-120 50t-50 120v40q0 70 50 120t120 50zM250 420q-49 0 -84.5 -33.5
t-35.5 -81.5v-65q0 -48 35.5 -81.5t84.5 -33.5t84.5 33.5t35.5 81.5q0 9 -6 14.5t-14 5.5t-14 -5.5t-6 -14.5q0 -31 -23 -53t-57 -22t-57 22t-23 53v65q0 31 23 53t57 22t57 -22t23 -53q0 -8 6 -14t14 -6t14 6t6 14v75q0 9 -6 14.5t-14 5.5q-13 0 -18 -11q-35 31 -82 31z
" />
    <glyph glyph-name="registered" unicode="&#xae;" 
d="M250 500q-87 0 -148.5 -61.5t-61.5 -148.5v-40q0 -87 61.5 -148.5t148.5 -61.5t148.5 61.5t61.5 148.5v40q0 87 -61.5 148.5t-148.5 61.5zM250 460q70 0 120 -50t50 -120v-40q0 -70 -50 -120t-120 -50t-120 50t-50 120v40q0 70 50 120t120 50zM160 400q-9 0 -14.5 -6
t-5.5 -14t5.5 -14t14.5 -6v-117v-3v-3v-72q-9 0 -14.5 -6t-5.5 -14t5.5 -14t14.5 -6h40q9 0 14.5 6t5.5 14t-5.5 14t-14.5 6v55h49l38 -60q-7 -6 -7 -15q0 -8 5.5 -14t14.5 -6h40q9 0 14.5 6t5.5 14t-5.5 14t-14.5 6h-9l-35 55q35 3 59.5 29t24.5 61q0 37 -26.5 63.5
t-63.5 26.5h-130zM200 360h90q21 0 35.5 -14.5t14.5 -35.5t-14.5 -35.5t-35.5 -14.5h-90v100z" />
    <glyph glyph-name="kokaithai" unicode="&#xe01;" 
d="M60 400q-8 0 -14 -6t-6 -14t6 -14t14 -6h20v-320h-20q-8 0 -14 -6t-6 -14t6 -14t14 -6h80q8 0 14 6t6 14t-6 14t-14 6h-20v320h130q54 0 92 -38t38 -92v-190h-20q-8 0 -14 -6t-6 -14t6 -14t14 -6h80q8 0 14 6t6 14t-6 14t-14 6h-20v190q0 70 -50 120t-120 50h-190z" />
    <glyph glyph-name="khokhaithai" unicode="&#xe02;" 
d="M40 400q-9 0 -14.5 -6t-5.5 -14t5.5 -14t14.5 -6h86l125 -347q5 -13 19 -13q7 0 13 4.5t7 11.5l124 344h26q9 0 14.5 6t5.5 14t-5.5 14t-14.5 6h-80q-9 0 -14.5 -6t-5.5 -14t5.5 -14t14.5 -6h12l-102 -281l-111 308q-5 13 -19 13h-100z" />
    <glyph glyph-name="khokhuatthai" unicode="&#xe03;" 
d="M40 401q-8 0 -14 -6t-6 -14q0 -7 4 -12l40 -60q5 -9 16 -9q8 0 14 6l38 38l119 -330q5 -14 19 -14q7 0 13 5t7 11l124 344h26q9 0 14.5 6t5.5 14.5t-5.5 14t-14.5 5.5h-80q-8 0 -14 -5.5t-6 -14t6 -14.5t14 -6h12l-102 -281l-111 308q-5 13 -19 13q-8 0 -14 -5l-43 -43
l-26 39q-6 10 -17 10z" />
    <glyph glyph-name="khokhwaithai" unicode="&#xe04;" 
d="M250 400q-70 0 -120 -50t-50 -120v-190h-20q-9 0 -14.5 -6t-5.5 -14t5.5 -14t14.5 -6h80q9 0 14.5 6t5.5 14t-5.5 14t-14.5 6h-20v120h120q9 0 14.5 6t5.5 14t-5.5 14t-14.5 6h-120v30q0 54 38 92t92 38t92 -38t38 -92v-190h-20q-9 0 -14.5 -6t-5.5 -14t5.5 -14t14.5 -6
h80q9 0 14.5 6t5.5 14t-5.5 14t-14.5 6h-20v190q0 70 -50 120t-120 50z" />
    <glyph glyph-name="khokhonthai" unicode="&#xe05;" 
d="M60 400q-9 0 -14.5 -6t-5.5 -14t5.5 -14t14.5 -6h20v-320h-20q-9 0 -14.5 -6t-5.5 -14t5.5 -14t14.5 -6h80q9 0 14.5 6t5.5 14t-5.5 14t-14.5 6h-20v120h120q9 0 14.5 6t5.5 14t-5.5 14t-14.5 6h-120v143l119 -80q5 -3 11 -3t11 3l119 80v-303h-20q-9 0 -14.5 -6
t-5.5 -14t5.5 -14t14.5 -6h80q9 0 14.5 6t5.5 14t-5.5 14t-14.5 6h-20v320h20q9 0 14.5 6t5.5 14t-5.5 14t-14.5 6h-40q-6 0 -11 -3l-139 -93l-139 93q-5 3 -11 3h-40z" />
    <glyph glyph-name="khorakhangthai" unicode="&#xe06;" 
d="M20 400q-8 0 -14 -5.5t-6 -14.5q0 -6 3 -11l40 -60q6 -9 17 -9q8 0 14 6l26 26v-162v-130h-60q-9 0 -14.5 -6t-5.5 -14t5.5 -14t14.5 -6h80q8 0 14 6t6 14v41q51 -61 130 -61q70 0 120 50t50 120v190h20q9 0 14.5 6t5.5 14t-5.5 14t-14.5 6h-80q-9 0 -14.5 -6t-5.5 -14
t5.5 -14t14.5 -6h20v-190q0 -54 -38 -92t-92 -38t-92 38t-38 92v210q0 8 -6 14t-14 6t-14 -6l-43 -43l-26 40q-6 9 -17 9z" />
    <glyph glyph-name="ngonguthai" unicode="&#xe07;" 
d="M320 400q-8 0 -14 -6t-6 -14t6 -14t14 -6h50l-123 -295l-130 225q-4 7 -12 9.5t-15.5 -1.5t-9.5 -12.5t3 -15.5l150 -260q6 -11 18.5 -10t16.5 12l145 348h7q8 0 14 6t6 14t-6 14t-14 6h-100z" />
    <glyph glyph-name="chochanthai" unicode="&#xe08;" 
d="M100 400q-8 0 -14 -6t-6 -14v-40q0 -9 6 -14.5t14 -5.5t14 5.5t6 14.5v20h250l-50 -120h-80q-9 0 -14.5 -6t-5.5 -14t5.5 -14t14.5 -6h63l-71 -172q-2 -4 -2 -8q0 -8 6 -14t14 -6q13 0 18 12l150 360q2 4 2 8q0 8 -6 14t-14 6h-300z" />
    <glyph glyph-name="chochingthai" unicode="&#xe09;" 
d="M60 400q-8 0 -14 -6t-6 -14v-40q0 -9 6 -14.5t14 -5.5t14 5.5t6 14.5v20h130q54 0 92 -38t38 -92v-115q0 -31 -23 -53t-57 -22t-57 22t-23 53v105q0 8 -6 14t-14 6h-60q-9 0 -14.5 -6t-5.5 -14t5.5 -14t14.5 -6h40v-85q0 -48 35.5 -81.5t84.5 -33.5q46 0 80 29v-9
q0 -8 6 -14t14 -6h80q9 0 14.5 6t5.5 14t-5.5 14t-14.5 6h-60v75v115q0 70 -50 120t-120 50h-150z" />
    <glyph glyph-name="chochangthai" unicode="&#xe0a;" 
d="M60 400q-9 0 -14.5 -6t-5.5 -14t5.5 -14t14.5 -6h80v-320h-20q-9 0 -14.5 -6t-5.5 -14t5.5 -14t14.5 -6h150q62 0 106 44t44 106q0 51 -31 91t-79 53l59 66h31q9 0 14.5 6t5.5 14t-5.5 14t-14.5 6h-40q-9 0 -15 -7l-90 -100q-5 -5 -5 -13t6 -14t14 -6q46 0 78 -32t32 -78
t-32 -78t-78 -32h-90v340q0 8 -6 14t-14 6h-100z" />
    <glyph glyph-name="sosothai" unicode="&#xe0b;" 
d="M60 400q-8 0 -14 -5.5t-6 -14.5q0 -6 3 -11l40 -60q6 -9 17 -9q8 0 14 6l26 26v-292h-20q-9 0 -14.5 -6t-5.5 -14t5.5 -14t14.5 -6h150q62 0 106 44t44 106q0 51 -31 91t-79 53l59 66h31q9 0 14.5 6t5.5 14t-5.5 14t-14.5 6h-40q-9 0 -15 -7l-90 -100q-5 -5 -5 -13t6 -14
t14 -6q46 0 78 -32t32 -78t-32 -78t-78 -32h-90v340q0 8 -6 14t-14 6t-14 -6l-43 -43l-26 40q-6 9 -17 9z" />
    <glyph glyph-name="chochoethai" unicode="&#xe0c;" 
d="M20 400q-8 0 -14 -6t-6 -14t6 -14t14 -6h20v-340q0 -8 6 -14t14 -6h80h1q8 0 14 6t6 14t-6 14t-14 6h-1h-60v320h85q36 0 60.5 -25t24.5 -60v-235h-40q-8 0 -14 -6t-6 -14t6 -14t14 -6h60q9 0 14.5 6t5.5 14v3q29 -23 65 -23q44 0 74.5 31t30.5 74v255h20h1q8 0 14 6
t6 14t-6 14t-14 6h-1h-80q-8 0 -14 -6t-6 -14t6 -14t14 -6h20v-255q0 -27 -19 -46t-46 -19t-46 19t-19 46v170q0 52 -36.5 88.5t-88.5 36.5h-145z" />
    <glyph glyph-name="yoyingthai" unicode="&#xe0d;" 
d="M20 400q-9 0 -14.5 -6t-5.5 -14t5.5 -14t14.5 -6h20v-340q0 -8 6 -14t14 -6h80q9 0 14.5 6t5.5 14t-5.5 14t-14.5 6h-60v320h85q35 0 60 -25t25 -60v-255q0 -8 6 -14t14 -6h80q45 0 77.5 32.5t32.5 77.5v250h20q9 0 14.5 6t5.5 14t-5.5 14t-14.5 6h-80q-9 0 -14.5 -6
t-5.5 -14t5.5 -14t14.5 -6h20v-250q0 -29 -20.5 -49.5t-49.5 -20.5h-60v235q0 52 -36.5 88.5t-88.5 36.5h-145zM270 -60q-8 0 -14 -6t-6 -14v-100q0 -8 6 -14t14 -6h210q9 0 14.5 6t5.5 14t-5.5 14t-14.5 6h-190v80q0 9 -6 14.5t-14 5.5z" />
    <glyph glyph-name="dochadathai" unicode="&#xe0e;" 
d="M59 391h92.5h92.5h2q68 -1 116 -49.5t48 -116.5v-400v-2q0 -12 -11.5 -17t-20.5 4l-101 67l-55 -63q-3 -5 -8 -7q-6 -3 -12 -2h-143q-9 0 -14.5 5.5t-5.5 14t5.5 14t14.5 5.5h137l61 69q4 7 13 9h4q7 0 13 -5l84 -56v364q0 53 -37 90t-90 37h-127v-329q2 -10 -5 -17
t-18 -6h-74q-9 0 -14.5 6t-5.5 14t5.5 13.5t14.5 5.5h58v313h-19q-9 0 -14.5 5.5t-5.5 13.5t5.5 14t14.5 6z" />
    <glyph glyph-name="topatakthai" unicode="&#xe0f;" 
d="M59 391h92.5h92.5h2q68 -1 116 -49.5t48 -116.5v-400v-4q-2 -12 -14.5 -15.5t-20.5 6.5l-62 62l-53 -62h-1l-1 -1v-1h-1q-7 -6 -15.5 -5t-13.5 8l-61 61l-53 -60q-3 -5 -7 -7q-6 -3 -13 -2h-35q-9 0 -14.5 5.5t-5.5 14t5.5 14t14.5 5.5h30l60 69q5 7 13 9h2h2q10 0 16 -8
l61 -61l53 60q5 8 15 9h2q10 0 15 -8l43 -42v353q0 53 -37 90t-90 37h-127v-329q2 -10 -5 -17t-18 -6h-74q-9 0 -14.5 6t-5.5 14t5.5 13.5t14.5 5.5h58v313h-19q-9 0 -14.5 5.5t-5.5 13.5t5.5 14t14.5 6z" />
    <glyph glyph-name="thothanthai" unicode="&#xe10;" 
d="M400 400h-3h-297q-8 0 -14 -6t-6 -14v-40q0 -9 6 -14.5t14 -5.5t14 5.5t6 14.5v20h250l-50 -120h-80q-9 0 -14.5 -6t-5.5 -14t5.5 -14t14.5 -6h63l-71 -172q-2 -4 -2 -8q0 -8 6 -14t14 -6q13 0 18 12l145 348h27q9 0 14.5 6t5.5 14t-5.5 14t-14.5 6h-37h-3zM320 0
q-9 0 -14.5 -6t-5.5 -14t5.5 -14t14.5 -6h60v-92l-46 46q-6 6 -14 6q-9 0 -15 -7l-56 -64l-65 65q-6 6 -14 6q-9 0 -15 -7l-64 -73h-31q-9 0 -14.5 -6t-5.5 -14t5.5 -14t14.5 -6h40q9 0 15 7l56 64l65 -65q6 -6 14 -6q9 0 15 7l56 64l65 -65q6 -6 14 -6t14 6t6 14v160
q0 8 -6 14t-14 6h-80z" />
    <glyph glyph-name="thonangmonthothai" unicode="&#xe11;" 
d="M20 400q-8 0 -14 -5.5t-6 -14.5q0 -6 3 -11l40 -60q6 -9 17 -9q8 0 14 6l26 26v-292h-20q-9 0 -14.5 -6t-5.5 -14t5.5 -14t14.5 -6h80q9 0 14.5 6t5.5 14t-5.5 14t-14.5 6h-20v190q0 54 38 92t92 38t92 -38t38 -92v-190h-20q-9 0 -14.5 -6t-5.5 -14t5.5 -14t14.5 -6h80
q9 0 14.5 6t5.5 14t-5.5 14t-14.5 6h-20v190q0 70 -50 120t-120 50q-79 0 -130 -61v41q0 8 -6 14t-14 6t-14 -6l-43 -43l-26 40q-6 9 -17 9z" />
    <glyph glyph-name="thophuthaothai" unicode="&#xe12;" 
d="M260 400q-10 0 -16 -8l-84 -84l-86 86q-6 6 -14 6h-40q-9 0 -14.5 -6t-5.5 -14t5.5 -14t14.5 -6h20v-320h-20q-9 0 -14.5 -6t-5.5 -14t5.5 -14t14.5 -6h120q8 0 14 6t6 14v80q0 9 -6 14.5t-14 5.5t-14 -6t-6 -14v-60h-40v292l66 -66q6 -6 14 -6t14 6l66 66v-292h-40
q-9 0 -14.5 -6t-5.5 -14t5.5 -14t14.5 -6h60q8 0 14 6t6 14v5q31 -25 70 -25q45 0 77.5 32.5t32.5 77.5v250h20q9 0 14.5 6t5.5 14t-5.5 14t-14.5 6h-80q-9 0 -14.5 -6t-5.5 -14t5.5 -14t14.5 -6h20v-250q0 -29 -20.5 -49.5t-49.5 -20.5t-49.5 20.5t-20.5 49.5v250h20
q9 0 14.5 6t5.5 14t-5.5 14t-14.5 6h-37h-3z" />
    <glyph glyph-name="nonenthai" unicode="&#xe13;" 
d="M20 400q-9 0 -14.5 -6t-5.5 -14t5.5 -14t14.5 -6h20v-340v-20h20h80q9 0 14.5 6t5.5 14t-5.5 14t-14.5 6h-60v320h85q35 0 60 -25t25 -60v-170q0 -43 31 -74t74 -31q36 0 65 23v-3q0 -8 6 -14t14 -6h40q9 0 14.5 6t5.5 14t-5.5 14t-14.5 6h-20v65v255h20q9 0 14.5 6
t5.5 14t-5.5 14t-14.5 6h-80q-9 0 -14.5 -6t-5.5 -14t5.5 -14t14.5 -6h20v-255q0 -27 -19 -46t-46 -19t-46 19t-19 46v170q0 52 -36.5 88.5t-88.5 36.5h-145z" />
    <glyph glyph-name="dodekthai" unicode="&#xe14;" 
d="M250 400q-70 0 -120 -50t-50 -120v-190h-20q-9 0 -14.5 -6t-5.5 -14t5.5 -14t14.5 -6h157h3q9 0 14 6h1q5 6 5 14v3v77q0 9 -6 14.5t-14 5.5t-14 -6t-6 -14v-60h-80v190q0 54 38 92t92 38t92 -38t38 -92v-190h-20q-9 0 -14.5 -6t-5.5 -14t5.5 -14t14.5 -6h80q9 0 14.5 6
t5.5 14t-5.5 14t-14.5 6h-20v190q0 70 -50 120t-120 50z" />
    <glyph glyph-name="totaothai" unicode="&#xe15;" 
d="M60 400q-9 0 -14.5 -6t-5.5 -14t5.5 -14t14.5 -6h20v-320h-20q-9 0 -14.5 -6t-5.5 -14t5.5 -14t14.5 -6h160q8 0 14 6t6 14v80q0 9 -6 14.5t-14 5.5t-14 -6t-6 -14v-60h-80v303l119 -80q5 -3 11 -3t11 3l119 80v-303h-20q-9 0 -14.5 -6t-5.5 -14t5.5 -14t14.5 -6h80
q9 0 14.5 6t5.5 14t-5.5 14t-14.5 6h-20v320h20q9 0 14.5 6t5.5 14t-5.5 14t-14.5 6h-40q-6 0 -11 -3l-139 -93l-139 93q-5 3 -11 3h-40z" />
    <glyph glyph-name="thothungthai" unicode="&#xe16;" 
d="M60 400q-9 0 -14.5 -6t-5.5 -14t5.5 -14t14.5 -6h20v-340q0 -8 6 -14t14 -6h80q9 0 14.5 6t5.5 14t-5.5 14t-14.5 6h-60v320h130q54 0 92 -38t38 -92v-190h-20q-9 0 -14.5 -6t-5.5 -14t5.5 -14t14.5 -6h80q9 0 14.5 6t5.5 14t-5.5 14t-14.5 6h-20v190q0 70 -50 120
t-120 50h-190z" />
    <glyph glyph-name="thothahanthai" unicode="&#xe17;" 
d="M20 400q-9 0 -14.5 -6t-5.5 -14t5.5 -14t14.5 -6h60v-320h-20q-9 0 -14.5 -6t-5.5 -14t5.5 -14t14.5 -6h80q9 0 14.5 6t5.5 14t-5.5 14t-14.5 6h-20v190q0 54 38 92t92 38t92 -38t38 -92v-190h-20q-9 0 -14.5 -6t-5.5 -14t5.5 -14t14.5 -6h80q9 0 14.5 6t5.5 14t-5.5 14
t-14.5 6h-20v190q0 70 -50 120t-120 50q-79 0 -130 -61v41q0 8 -6 14t-14 6h-80z" />
    <glyph glyph-name="thothongthai" unicode="&#xe18;" 
d="M400 400h-220q-41 0 -70.5 -29.5t-29.5 -70.5t29.5 -70.5t70.5 -29.5h125q31 0 53 -23t22 -57t-22 -57t-53 -23h-145v120q0 9 -6 14.5t-14 5.5t-14 -5.5t-6 -14.5v-140q0 -8 6 -14t14 -6h165q48 0 81.5 35.5t33.5 84.5t-33.5 84.5t-81.5 35.5h-125q-25 0 -42.5 17.5
t-17.5 42.5t17.5 42.5t42.5 17.5h200v-20q0 -9 6 -14.5t14 -5.5t14 5.5t6 14.5v40q0 8 -6 14t-14 6z" />
    <glyph glyph-name="nonuthai" unicode="&#xe19;" 
d="M20 400q-9 0 -14.5 -6t-5.5 -14t5.5 -14t14.5 -6h60v-190q0 -70 50 -120t120 -50q79 0 130 61v-41q0 -8 6 -14t14 -6h80q9 0 14.5 6t5.5 14t-5.5 14t-14.5 6h-60v130v190h20q9 0 14.5 6t5.5 14t-5.5 14t-14.5 6h-80q-9 0 -14.5 -6t-5.5 -14t5.5 -14t14.5 -6h20v-190
q0 -54 -38 -92t-92 -38t-92 38t-38 92v210q0 8 -6 14t-14 6h-80z" />
    <glyph glyph-name="bobaimaithai" unicode="&#xe1a;" 
d="M20 400q-9 0 -14.5 -6t-5.5 -14t5.5 -14t14.5 -6h60v-320h-20q-9 0 -14.5 -6t-5.5 -14t5.5 -14t14.5 -6h37h3h3h147q70 0 120 45.5t50 114.5v200h20q9 0 14.5 6t5.5 14t-5.5 14t-14.5 6h-80q-9 0 -14.5 -6t-5.5 -14t5.5 -14t14.5 -6h20v-200q0 -53 -37 -86.5t-93 -33.5
h-130v340q0 8 -6 14t-14 6h-80z" />
    <glyph glyph-name="poplathai" unicode="&#xe1b;" 
d="M400 600q-8 0 -14 -6t-6 -14v-420q0 -53 -37 -86.5t-93 -33.5h-130v340q0 8 -6 14t-14 6h-80q-9 0 -14.5 -6t-5.5 -14t5.5 -14t14.5 -6h60v-320h-20q-9 0 -14.5 -6t-5.5 -14t5.5 -14t14.5 -6h40h150q70 0 120 45.5t50 114.5v400h20q9 0 14.5 6t5.5 14t-5.5 14t-14.5 6
h-40z" />
    <glyph glyph-name="phophungthai" unicode="&#xe1c;" 
d="M100 400q-8 0 -14 -6t-6 -14v-340h-20q-9 0 -14.5 -6t-5.5 -14t5.5 -14t14.5 -6h40q10 0 16 8l134 179l134 -179q6 -8 16 -8h40q9 0 14.5 6t5.5 14t-5.5 14t-14.5 6h-20v320h20q9 0 14.5 6t5.5 14t-5.5 14t-14.5 6h-80q-9 0 -14.5 -6t-5.5 -14t5.5 -14t14.5 -6h20v-280
l-114 152q-6 8 -15 8h-1q-10 0 -16 -8l-114 -152v280h60q9 0 14.5 6t5.5 14t-5.5 14t-14.5 6h-80z" />
    <glyph glyph-name="fofathai" unicode="&#xe1d;" 
d="M400 600q-8 0 -14 -6t-6 -14v-500l-114 152q-6 8 -15 8h-1q-10 0 -16 -8l-114 -152v280h60q9 0 14.5 6t5.5 14t-5.5 14t-14.5 6h-80q-8 0 -14 -6t-6 -14v-340h-20q-9 0 -14.5 -6t-5.5 -14t5.5 -14t14.5 -6h40q10 0 16 8l134 179l134 -179q6 -8 16 -8h40q9 0 14.5 6
t5.5 14t-5.5 14t-14.5 6h-20v520h20q9 0 14.5 6t5.5 14t-5.5 14t-14.5 6h-40z" />
    <glyph glyph-name="phophanthai" unicode="&#xe1e;" 
d="M20 400q-9 0 -14.5 -6t-5.5 -14t5.5 -14t14.5 -6h60v-320h-20q-9 0 -14.5 -6t-5.5 -14t5.5 -14t14.5 -6h40q12 0 18 11l132 264l132 -264q6 -11 18 -11h40q9 0 14.5 6t5.5 14t-5.5 14t-14.5 6h-20v320h20q9 0 14.5 6t5.5 14t-5.5 14t-14.5 6h-80q-9 0 -14.5 -6t-5.5 -14
t5.5 -14t14.5 -6h20v-255l-112 224q-6 11 -18 11t-18 -11l-112 -224v275q0 8 -6 14t-14 6h-80z" />
    <glyph glyph-name="fofanthai" unicode="&#xe1f;" 
d="M400 600q-8 0 -14 -6t-6 -14v-475l-112 224q-6 11 -18 11t-18 -11l-112 -224v275q0 8 -6 14t-14 6h-80q-9 0 -14.5 -6t-5.5 -14t5.5 -14t14.5 -6h60v-320h-20q-9 0 -14.5 -6t-5.5 -14t5.5 -14t14.5 -6h40q12 0 18 11l132 264l132 -264q6 -11 18 -11h40q9 0 14.5 6t5.5 14
t-5.5 14t-14.5 6h-20v520h20q9 0 14.5 6t5.5 14t-5.5 14t-14.5 6h-40z" />
    <glyph glyph-name="phosamphaothai" unicode="&#xe20;" 
d="M60 400q-9 0 -14.5 -6t-5.5 -14t5.5 -14t14.5 -6h20v-320h-60q-9 0 -14.5 -6t-5.5 -14t5.5 -14t14.5 -6h80q8 0 14 6t6 14v340h130q54 0 92 -38t38 -92v-190h-20q-9 0 -14.5 -6t-5.5 -14t5.5 -14t14.5 -6h80q9 0 14.5 6t5.5 14t-5.5 14t-14.5 6h-20v190q0 70 -50 120
t-120 50h-190z" />
    <glyph glyph-name="momathai" unicode="&#xe21;" 
d="M40 400q-9 0 -14.5 -6t-5.5 -14t5.5 -14t14.5 -6h60v-320h-60q-9 0 -14.5 -6t-5.5 -14t5.5 -14t14.5 -6h80q8 0 14 6t6 14v41q51 -61 130 -61q70 0 120 50t50 120v190h20q9 0 14.5 6t5.5 14t-5.5 14t-14.5 6h-80q-9 0 -14.5 -6t-5.5 -14t5.5 -14t14.5 -6h20v-190
q0 -54 -38 -92t-92 -38t-92 38t-38 92v210q0 8 -6 14t-14 6h-80z" />
    <glyph glyph-name="yoyakthai" unicode="&#xe22;" 
d="M180 400q-41 0 -70.5 -29.5t-29.5 -70.5q0 -54 46 -84q-46 -36 -46 -96q0 -49 33.5 -84.5t81.5 -35.5h235q9 0 14.5 6t5.5 14t-5.5 14t-14.5 6h-10v320h20q9 0 14.5 6t5.5 14t-5.5 14t-14.5 6h-80q-9 0 -14.5 -6t-5.5 -14t5.5 -14t14.5 -6h20v-320h-185q-31 0 -53 23
t-22 57t22 57t53 23q8 0 14 6t6 14t-6 14t-14 6h-15q-25 0 -42.5 17.5t-17.5 42.5t17.5 42.5t42.5 17.5h40q9 0 14.5 6t5.5 14t-5.5 14t-14.5 6h-40z" />
    <glyph glyph-name="roruathai" unicode="&#xe23;" 
d="M400 400h-220q-41 0 -70.5 -29.5t-29.5 -70.5t29.5 -70.5t70.5 -29.5h125q31 0 53 -23t22 -57t-22 -57t-53 -23h-75q-9 0 -14.5 -6t-5.5 -14t5.5 -14t14.5 -6h75q48 0 81.5 35.5t33.5 84.5t-33.5 84.5t-81.5 35.5h-125q-25 0 -42.5 17.5t-17.5 42.5t17.5 42.5t42.5 17.5
h200v-20q0 -9 6 -14.5t14 -5.5t14 5.5t6 14.5v40q0 8 -6 14t-14 6z" />
    <glyph glyph-name="ruthai" unicode="&#xe24;" 
d="M60 400q-9 0 -14.5 -6t-5.5 -14t5.5 -14t14.5 -6h20v-340q0 -8 6 -14t14 -6h80q9 0 14.5 6t5.5 14t-5.5 14t-14.5 6h-60v320h130q54 0 92 -38t38 -92v-390h-20q-9 0 -14.5 -6t-5.5 -14t5.5 -14t14.5 -6h80q9 0 14.5 6t5.5 14t-5.5 14t-14.5 6h-20v390q0 70 -50 120
t-120 50h-190z" />
    <glyph glyph-name="lolingthai" unicode="&#xe25;" 
d="M100 400q-8 0 -14 -6t-6 -14v-40q0 -9 6 -14.5t14 -5.5t14 5.5t6 14.5v20h130q56 0 93 -33.5t37 -86.5h-185q-48 0 -81.5 -35.5t-33.5 -84.5t33.5 -84.5t81.5 -35.5h55q9 0 14.5 6t5.5 14t-5.5 14t-14.5 6h-55q-31 0 -53 23t-22 57t22 57t53 23h185v-180q0 -8 6 -14
t14 -6h40q9 0 14.5 6t5.5 14t-5.5 14t-14.5 6h-20v200q0 69 -50 114.5t-120 45.5h-150z" />
    <glyph glyph-name="luthai" unicode="&#xe26;" 
d="M60 400q-9 0 -14.5 -6t-5.5 -14t5.5 -14t14.5 -6h20v-320h-60q-9 0 -14.5 -6t-5.5 -14t5.5 -14t14.5 -6h80q8 0 14 6t6 14v340h130q54 0 92 -38t38 -92v-390h-20q-9 0 -14.5 -6t-5.5 -14t5.5 -14t14.5 -6h80q9 0 14.5 6t5.5 14t-5.5 14t-14.5 6h-20v390q0 70 -50 120
t-120 50h-190z" />
    <glyph glyph-name="wowaenthai" unicode="&#xe27;" 
d="M250 400q-70 0 -120 -50t-50 -120q0 -9 6 -14.5t14 -5.5t14 5.5t6 14.5q0 54 38 92t92 38t92 -38t38 -92v-60q0 -54 -38 -92t-92 -38h-60q-9 0 -14.5 -6t-5.5 -14t5.5 -14t14.5 -6h60q70 0 120 50t50 120v60q0 70 -50 120t-120 50z" />
    <glyph glyph-name="sosalathai" unicode="&#xe28;" 
d="M250 400q-70 0 -120 -50t-50 -120v-190h-20q-9 0 -14.5 -6t-5.5 -14t5.5 -14t14.5 -6h80q9 0 14.5 6t5.5 14t-5.5 14t-14.5 6h-20v120h120q9 0 14.5 6t5.5 14t-5.5 14t-14.5 6h-120v30q0 54 38 92t92 38q45 0 80 -28l-35 -39q-5 -5 -5 -13t6 -14t14 -6q9 0 15 7l33 36
q22 -33 22 -73v-190h-20q-9 0 -14.5 -6t-5.5 -14t5.5 -14t14.5 -6h80q9 0 14.5 6t5.5 14t-5.5 14t-14.5 6h-20v190q0 58 -35 103l24 27h31q9 0 14.5 6t5.5 14t-5.5 14t-14.5 6h-40q-9 0 -15 -7l-28 -31q-47 38 -107 38z" />
    <glyph glyph-name="sorusithai" unicode="&#xe29;" 
d="M20 400q-9 0 -14.5 -6t-5.5 -14t5.5 -14t14.5 -6h60v-320h-20q-9 0 -14.5 -6t-5.5 -14t5.5 -14t14.5 -6h40h150q70 0 120 45.5t50 114.5v40h60q9 0 14.5 6t5.5 14t-5.5 14t-14.5 6h-60v120h20q9 0 14.5 6t5.5 14t-5.5 14t-14.5 6h-40q-8 0 -14 -6t-6 -14v-140h-80v80
q0 9 -6 14.5t-14 5.5t-14 -6t-6 -14v-100q0 -8 6 -14t14 -6h100v-40q0 -53 -37 -86.5t-93 -33.5h-130v340q0 8 -6 14t-14 6h-80z" />
    <glyph glyph-name="sosuathai" unicode="&#xe2a;" 
d="M100 400q-8 0 -14 -6t-6 -14v-40q0 -9 6 -14.5t14 -5.5t14 5.5t6 14.5v20h130q48 0 83 -25l-38 -42q-5 -5 -5 -13t6 -14t14 -6q9 0 15 7l36 39q19 -29 19 -66h-185q-48 0 -81.5 -35.5t-33.5 -84.5t33.5 -84.5t81.5 -35.5h55q9 0 14.5 6t5.5 14t-5.5 14t-14.5 6h-55
q-31 0 -53 23t-22 57t22 57t53 23h185v-180q0 -8 6 -14t14 -6h40q9 0 14.5 6t5.5 14t-5.5 14t-14.5 6h-20v200q0 54 -33 96l22 24h31q9 0 14.5 6t5.5 14t-5.5 14t-14.5 6h-40q-9 0 -15 -7l-26 -29q-47 36 -109 36h-150z" />
    <glyph glyph-name="hohipthai" unicode="&#xe2b;" 
d="M20 400q-9 0 -14.5 -6t-5.5 -14t5.5 -14t14.5 -6h60v-320h-20q-9 0 -14.5 -6t-5.5 -14t5.5 -14t14.5 -6h80q9 0 14.5 6t5.5 14t-5.5 14t-14.5 6h-20v73l150 177l100 -250h-10q-9 0 -14.5 -6t-5.5 -14t5.5 -14t14.5 -6h80q9 0 14.5 6t5.5 14t-5.5 14t-14.5 6h-26l-114 285
l29 35h71q9 0 14.5 6t5.5 14t-5.5 14t-14.5 6h-80q-9 0 -15 -7l-185 -218v205q0 8 -6 14t-14 6h-80z" />
    <glyph glyph-name="lochulathai" unicode="&#xe2c;" 
d="M20 400q-9 0 -14.5 -6t-5.5 -14t5.5 -14t14.5 -6h60v-320h-20q-9 0 -14.5 -6t-5.5 -14t5.5 -14t14.5 -6h40q10 0 16 8l134 179l134 -179q6 -8 16 -8h40q9 0 14.5 6t5.5 14t-5.5 14t-14.5 6h-20v240q0 8 -6 14t-14 6h-45l54 60h31q9 0 14.5 6t5.5 14t-5.5 14t-14.5 6h-40
q-9 0 -15 -7l-90 -100q-5 -5 -5 -13t6 -14t14 -6h70v-180l-114 152q-6 8 -15 8h-1q-10 0 -16 -8l-114 -152v300q0 8 -6 14t-14 6h-80z" />
    <glyph glyph-name="oangthai" unicode="&#xe2d;" 
d="M250 400q-70 0 -120 -50t-50 -120q0 -9 6 -14.5t14 -5.5t14 5.5t6 14.5q0 54 38 92t92 38t92 -38t38 -92v-60q0 -54 -38 -92t-92 -38q-49 0 -85 31.5t-43 78.5h78q9 0 14.5 6t5.5 14t-5.5 14t-14.5 6h-100q-8 0 -14 -6t-6 -14q0 -70 50 -120t120 -50t120 50t50 120v60
q0 70 -50 120t-120 50z" />
    <glyph glyph-name="honokhukthai" unicode="&#xe2e;" 
d="M250 400q-70 0 -120 -50t-50 -120q0 -9 6 -14.5t14 -5.5t14 5.5t6 14.5q0 54 38 92t92 38q45 0 80 -28l-35 -39q-5 -5 -5 -13t6 -14t14 -6q9 0 15 7l33 36q22 -33 22 -73v-60q0 -54 -38 -92t-92 -38q-49 0 -85 31.5t-43 78.5h78q9 0 14.5 6t5.5 14t-5.5 14t-14.5 6h-100
q-8 0 -14 -6t-6 -14q0 -70 50 -120t120 -50t120 50t50 120v60q0 58 -35 103l24 27h31q9 0 14.5 6t5.5 14t-5.5 14t-14.5 6h-40q-9 0 -15 -7l-28 -31q-47 38 -107 38z" />
    <glyph glyph-name="paiyannoithai" unicode="&#xe2f;" 
d="M360 400q-9 0 -14.5 -6t-5.5 -14q0 -54 -38 -92t-92 -38h-50v110h20q8 0 14 6t6 14t-6 14t-14 6h-80q-8 0 -14 -6t-6 -14t6 -14t14 -6h20v-130q0 -8 6 -14t14 -6h70q79 0 130 61v-231h-100q-8 0 -14 -6t-6 -14t6 -14t14 -6h200q8 0 14 6t6 14t-6 14t-14 6h-60v320h20
q8 0 14 6t6 14t-6 14t-14 6h-21h-19z" />
    <glyph glyph-name="saraathai" unicode="&#xe30;" 
d="M100 360q-8 0 -14 -6t-6 -14v-100q0 -8 6 -14t14 -6h300q9 0 14.5 6t5.5 14t-5.5 14t-14.5 6h-280v80q0 9 -6 14.5t-14 5.5zM100 200q-8 0 -14 -6t-6 -14v-100q0 -8 6 -14t14 -6h300q9 0 14.5 6t5.5 14t-5.5 14t-14.5 6h-280v80q0 9 -6 14.5t-14 5.5z" />
    <glyph glyph-name="maihanakatthai" unicode="&#xe31;" horiz-adv-x="0" 
d="M-360 600q-8 0 -14 -6t-6 -14v-100q0 -8 6 -14t14 -6h200q9 0 14.5 6t5.5 14t-5.5 14t-14.5 6h-180v80q0 9 -6 14.5t-14 5.5z" />
    <glyph glyph-name="saraaathai" unicode="&#xe32;" 
d="M100 400q-8 0 -14 -6t-6 -14v-40q0 -9 6 -14.5t14 -5.5t14 5.5t6 14.5v20h130q54 0 92 -38t38 -92v-190h-20q-9 0 -14.5 -6t-5.5 -14t5.5 -14t14.5 -6h80q9 0 14.5 6t5.5 14t-5.5 14t-14.5 6h-20v190q0 70 -50 120t-120 50h-150z" />
    <glyph glyph-name="saraamthai" unicode="&#xe33;" 
d="M70 600q-29 0 -49.5 -20.5t-20.5 -49.5t20.5 -49.5t49.5 -20.5t49.5 20.5t20.5 49.5t-20.5 49.5t-49.5 20.5zM70 560q13 0 21.5 -8.5t8.5 -21.5t-8.5 -21.5t-21.5 -8.5t-21.5 8.5t-8.5 21.5t8.5 21.5t21.5 8.5zM140 400q-8 0 -14 -6t-6 -14v-40q0 -9 6 -14.5t14 -5.5
t14 5.5t6 14.5v20h130q54 0 92 -38t38 -92v-190h-20q-9 0 -14.5 -6t-5.5 -14t5.5 -14t14.5 -6h80q9 0 14.5 6t5.5 14t-5.5 14t-14.5 6h-20v190q0 70 -50 120t-120 50h-150z" />
    <glyph glyph-name="saraithai" unicode="&#xe34;" horiz-adv-x="0" 
d="M-360 500q-9 0 -14.5 -6t-5.5 -14t5.5 -14t14.5 -6h200q9 0 14.5 6t5.5 14t-5.5 14t-14.5 6h-200z" />
    <glyph glyph-name="saraiithai" unicode="&#xe35;" horiz-adv-x="0" 
d="M-160 600q-8 0 -14 -6t-6 -14v-80h-180q-9 0 -14.5 -6t-5.5 -14t5.5 -14t14.5 -6h200q8 0 14 6t6 14v100q0 9 -6 14.5t-14 5.5z" />
    <glyph glyph-name="sarauethai" unicode="&#xe36;" horiz-adv-x="0" 
d="M-210 600q-29 0 -49.5 -20.5t-20.5 -49.5q0 -16 7 -30h-87q-9 0 -14.5 -6t-5.5 -14t5.5 -14t14.5 -6h150h50q9 0 14.5 6t5.5 14q0 11 -9 17q9 15 9 33q0 29 -20.5 49.5t-49.5 20.5zM-210 560q13 0 21.5 -8.5t8.5 -21.5t-8.5 -21.5t-21.5 -8.5t-21.5 8.5t-8.5 21.5
t8.5 21.5t21.5 8.5z" />
    <glyph glyph-name="saraueethai" unicode="&#xe37;" horiz-adv-x="0" 
d="M-220 600q-8 0 -14 -6t-6 -14v-80h-120q-9 0 -14.5 -6t-5.5 -14t5.5 -14t14.5 -6h137h3h3h54h3q9 0 14 6h1q5 6 5 14v3v97q0 9 -6 14.5t-14 5.5t-14 -6t-6 -14v-80h-20v80q0 9 -6 14.5t-14 5.5z" />
    <glyph glyph-name="sarauthai" unicode="&#xe38;" horiz-adv-x="0" 
d="M-250 -60q-9 0 -14.5 -6t-5.5 -14t5.5 -14t14.5 -6h20v-80q0 -9 6 -14.5t14 -5.5t14 5.5t6 14.5v100q0 8 -6 14t-14 6h-40z" />
    <glyph glyph-name="sarauuthai" unicode="&#xe39;" horiz-adv-x="0" 
d="M-171 -60q-13 0 -18 -13l-21 -53l-21 53q-5 13 -19 13h-40q-9 0 -14.5 -6t-5.5 -14t5.5 -14t14.5 -6h26l35 -87q5 -13 19 -13t19 13l40 100q1 3 1 7q0 9 -6 14.5t-14 5.5h-1z" />
    <glyph glyph-name="phinthuthai" unicode="&#xe3a;" horiz-adv-x="0" 
d="M-220 -60q-29 0 -49.5 -20.5t-20.5 -49.5t20.5 -49.5t49.5 -20.5t49.5 20.5t20.5 49.5t-20.5 49.5t-49.5 20.5z" />
    <glyph glyph-name="bahtthai" unicode="&#xe3f;" 
d="M200 460q-8 0 -14 -6t-6 -14v-40h-80h-40q-9 0 -14.5 -6t-5.5 -14t5.5 -14t14.5 -6h20v-320h-20q-9 0 -14.5 -6t-5.5 -14t5.5 -14t14.5 -6h40h80v-40q0 -9 6 -14.5t14 -5.5t14 5.5t6 14.5v40h20v-40q0 -9 6 -14.5t14 -5.5t14 5.5t6 14.5v40h25q48 0 81.5 35.5t33.5 84.5
q0 32 -15.5 59.5t-40.5 43.5q36 30 36 77q0 41 -29.5 70.5t-70.5 29.5h-20v40q0 9 -6 14.5t-14 5.5t-14 -6t-6 -14v-40h-20v40q0 9 -6 14.5t-14 5.5zM120 360h180q25 0 42.5 -17.5t17.5 -42.5t-17.5 -42.5t-42.5 -17.5h-120q-9 0 -14.5 -6t-5.5 -14t5.5 -14t14.5 -6h120h5
q31 0 53 -23t22 -57t-22 -57t-53 -23h-185v320z" />
    <glyph glyph-name="saraethai" unicode="&#xe40;" 
d="M160 400q-9 0 -14.5 -6t-5.5 -14t5.5 -14t14.5 -6h60v-320h-100q-9 0 -14.5 -6t-5.5 -14t5.5 -14t14.5 -6h260q9 0 14.5 6t5.5 14t-5.5 14t-14.5 6h-120v340q0 8 -6 14t-14 6h-80z" />
    <glyph glyph-name="saraaethai" unicode="&#xe41;" 
d="M120 400q-9 0 -14.5 -6t-5.5 -14t5.5 -14t14.5 -6h40v-320h-60q-9 0 -14.5 -6t-5.5 -14t5.5 -14t14.5 -6h300q9 0 14.5 6t5.5 14t-5.5 14t-14.5 6h-80v340q0 8 -6 14t-14 6h-60q-9 0 -14.5 -6t-5.5 -14t5.5 -14t14.5 -6h40v-320h-80v340q0 8 -6 14t-14 6h-60z" />
    <glyph glyph-name="saraothai" unicode="&#xe42;" 
d="M100 600q-9 0 -14.5 -6t-5.5 -14t5.5 -14t14.5 -6h20q66 0 113 -47t47 -113v-360h-30q-9 0 -14.5 -6t-5.5 -14t5.5 -14t14.5 -6h150q9 0 14.5 6t5.5 14t-5.5 14t-14.5 6h-80v360q0 48 -21.5 90t-58.5 70h100q9 0 14.5 6t5.5 14t-5.5 14t-14.5 6h-240z" />
    <glyph glyph-name="saraaimaimuanthai" unicode="&#xe43;" 
d="M180 600q-58 0 -99 -41t-41 -99q0 -9 6 -14.5t14 -5.5t14 5.5t6 14.5q0 42 29 71t71 29t71 -29t29 -71v-420h-30q-9 0 -14.5 -6t-5.5 -14t5.5 -14t14.5 -6h150q9 0 14.5 6t5.5 14t-5.5 14t-14.5 6h-80v420q0 58 -41 99t-99 41z" />
    <glyph glyph-name="saraaimaimalaithai" unicode="&#xe44;" 
d="M60 600q-9 0 -14.5 -6t-5.5 -14t5.5 -14t14.5 -6h70l74 -92q6 -8 16 -8t16 8l44 55v-483h-30q-9 0 -14.5 -6t-5.5 -14t5.5 -14t14.5 -6h150q9 0 14.5 6t5.5 14t-5.5 14t-14.5 6h-80v540q0 8 -6 14t-14 6q-10 0 -16 -8l-64 -80l-64 80q-6 8 -16 8h-80z" />
    <glyph glyph-name="lakkhangyaothai" unicode="&#xe45;" 
d="M100 400q-8 0 -14 -6t-6 -14v-40q0 -9 6 -14.5t14 -5.5t14 5.5t6 14.5v20h130q54 0 92 -38t38 -92v-390h-20q-9 0 -14.5 -6t-5.5 -14t5.5 -14t14.5 -6h80q9 0 14.5 6t5.5 14t-5.5 14t-14.5 6h-20v390q0 70 -50 120t-120 50h-150z" />
    <glyph glyph-name="maiyamokthai" unicode="&#xe46;" 
d="M100 400h-40q-8 0 -14 -6t-6 -14t6 -14t14 -6h20v-140q0 -8 6 -14t14 -6h80q8 0 14 6t6 14t-6 14t-14 6h-60v103l119 -80q11 -7 22 0l119 80v-503h-20q-8 0 -14 -6t-6 -14t6 -14t14 -6h80q8 0 14 6t6 14t-6 14t-14 6h-20v520h20q8 0 14 6t6 14t-6 14t-14 6h-20.5h-19.5
t-11 -3l-139 -93l-137 91q-5 5 -13 5z" />
    <glyph glyph-name="maitaikhuthai" unicode="&#xe47;" horiz-adv-x="0" 
d="M-360 600q-8 0 -14 -6t-6 -14v-100q0 -8 6 -14t14 -6q5 0 10 3l60 34l60 -34q5 -3 10 -3q8 0 14 6t6 14v40q0 9 -6 14.5t-14 5.5t-14 -5.5t-6 -14.5v-6l-40 23q-5 3 -10 3t-10 -3l-40 -23v46h180q9 0 14.5 6t5.5 14t-5.5 14t-14.5 6h-200z" />
    <glyph glyph-name="maiekthai" unicode="&#xe48;" horiz-adv-x="0" 
d="M-250 780q-8 0 -14 -6t-6 -14v-100q0 -9 6 -14.5t14 -5.5t14 5.5t6 14.5v100q0 9 -6 14.5t-14 5.5z" />
    <glyph glyph-name="maithothai" unicode="&#xe49;" horiz-adv-x="0" 
d="M-360 780q-9 0 -14.5 -6t-5.5 -14t5.5 -14t14.5 -6h20v-80q0 -8 6 -14t14 -6h160q9 0 14.5 6t5.5 14t-5.5 14t-14.5 6h-140v80q0 8 -6 14t-14 6h-40z" />
    <glyph glyph-name="maitrithai" unicode="&#xe4a;" horiz-adv-x="0" 
d="M-360 780q-8 0 -14 -6t-6 -14v-100q0 -9 6 -14.5t14 -5.5t14 5.5t6 14.5v52l26 -26q6 -6 14 -6t14 6l26 26v-52q0 -8 6 -14t14 -6h80q9 0 14.5 6t5.5 14t-5.5 14t-14.5 6h-60v80q0 8 -6 14t-14 6t-14 -6l-46 -46l-46 46q-6 6 -14 6z" />
    <glyph glyph-name="maichattawathai" unicode="&#xe4b;" horiz-adv-x="0" 
d="M-250 780q-8 0 -14 -6t-6 -14v-30h-30q-9 0 -14.5 -6t-5.5 -14t5.5 -14t14.5 -6h30v-30q0 -9 6 -14.5t14 -5.5t14 5.5t6 14.5v30h30q9 0 14.5 6t5.5 14t-5.5 14t-14.5 6h-30v30q0 9 -6 14.5t-14 5.5z" />
    <glyph glyph-name="thanthakhatthai" unicode="&#xe4c;" horiz-adv-x="0" 
d="M-240 780q-8 0 -14 -6t-6 -14v-100q0 -8 6 -14t14 -6h40q9 0 14.5 6t5.5 14t-5.5 14t-14.5 6h-20v80q0 9 -6 14.5t-14 5.5z" />
    <glyph glyph-name="nikhahitthai" unicode="&#xe4d;" horiz-adv-x="0" 
d="M-250 600q-29 0 -49.5 -20.5t-20.5 -49.5t20.5 -49.5t49.5 -20.5t49.5 20.5t20.5 49.5t-20.5 49.5t-49.5 20.5zM-250 560q13 0 21.5 -8.5t8.5 -21.5t-8.5 -21.5t-21.5 -8.5t-21.5 8.5t-8.5 21.5t8.5 21.5t21.5 8.5z" />
    <glyph glyph-name="yamakkanthai" unicode="&#xe4e;" horiz-adv-x="0" 
d="M-360 600q-8 0 -14 -6t-6 -14v-100q0 -8 6 -14t14 -6h40q9 0 14.5 6t5.5 14t-5.5 14t-14.5 6h-20v32l66 -66q6 -6 14 -6t14 6t6 14v80h80q9 0 14.5 6t5.5 14t-5.5 14t-14.5 6h-100q-8 0 -14 -6t-6 -14v-52l-66 66q-6 6 -14 6z" />
    <glyph glyph-name="fongmanthai" unicode="&#xe4f;" 
d="M250 380q-70 0 -120 -50t-50 -120t50 -120t120 -50t120 50t50 120t-50 120t-120 50zM250 340q54 0 92 -38t38 -92t-38 -92t-92 -38t-92 38t-38 92t38 92t92 38zM250 280q-29 0 -49.5 -20.5t-20.5 -49.5t20.5 -49.5t49.5 -20.5t49.5 20.5t20.5 49.5t-20.5 49.5t-49.5 20.5
z" />
    <glyph glyph-name="zerothai" unicode="&#xe50;" 
d="M250 400q-70 0 -120 -50t-50 -120v-60v-2q1 -70 50.5 -119t119.5 -49t120 50t50 120v60q0 70 -50 120t-120 50zM250 360q54 0 92 -38t38 -92v-60q0 -54 -38 -92t-92 -38t-92 38t-38 92v60q0 54 38 92t92 38z" />
    <glyph glyph-name="onethai" unicode="&#xe51;" 
d="M250 400q-70 0 -120 -50t-50 -120v-60q0 -8 6 -14t14 -6h140q9 0 14.5 6t5.5 14t-5.5 14t-14.5 6h-120v40q0 54 38 92t92 38t92 -38t38 -92v-60q0 -54 -38 -92t-92 -38t-92 38q-6 6 -14 6q-9 0 -14.5 -6t-5.5 -14t6 -14q50 -50 120 -50t120 50t50 120v60q0 70 -50 120
t-120 50z" />
    <glyph glyph-name="twothai" unicode="&#xe52;" 
d="M399 400q-8 0 -13 -6l-86 -86l-86 86q-6 6 -14 6t-14 -6t-6 -14v-160q0 -8 6 -14t14 -6h80q8 0 14 6t6 14t-6 14t-14 6h-60v92l66 -66q6 -6 14 -6t14 6l66 66v-292h-222l-38 342q-1 8 -6.5 13t-13.5 5h-40q-8 0 -14 -6t-6 -14t6 -14t14 -6h22l36 -320h-18q-8 0 -14 -6
t-6 -14t6 -14t14 -6h340q8 0 14 6t6 14t-6 14t-14 6h-20v340q0 8 -6 14t-15 6z" />
    <glyph glyph-name="threethai" unicode="&#xe53;" 
d="M101 400h-1q-8 0 -14 -6t-6 -14v-360q0 -8 6 -14t14 -6h80q9 0 14.5 6t5.5 14t-5.5 14t-14.5 6h-60v280l114 -152q6 -8 16 -8t16 8l114 152v-280h-20q-9 0 -14.5 -6t-5.5 -14t5.5 -14t14.5 -6h80q9 0 14.5 6t5.5 14t-5.5 14t-14.5 6h-20v340q0 8 -6 14t-14 6
q-10 0 -16 -8l-134 -179l-134 179q-6 8 -15 8z" />
    <glyph glyph-name="fourthai" unicode="&#xe54;" 
d="M250 400q-70 0 -120 -50t-50 -120v-210q0 -8 6 -14t14 -6h300q9 0 14.5 6t5.5 14t-5.5 14t-14.5 6h-60v110h20q9 0 14.5 6t5.5 14t-5.5 14t-14.5 6h-40q-8 0 -14 -6t-6 -14v-130h-180v190q0 54 38 92t92 38q50 0 101 -38q5 -4 12 -4q9 0 15 7l31 35h31q9 0 14.5 6t5.5 14
t-5.5 14t-14.5 6h-40q-9 0 -15 -7l-25 -28q-55 35 -110 35z" />
    <glyph glyph-name="fivethai" unicode="&#xe55;" 
d="M300 440q-16 0 -28 -12t-12 -28h-10q-70 0 -120 -50t-50 -120v-210q0 -8 6 -14t14 -6h300q9 0 14.5 6t5.5 14t-5.5 14t-14.5 6h-60v110h20q9 0 14.5 6t5.5 14t-5.5 14t-14.5 6h-40q-8 0 -14 -6t-6 -14v-130h-180v190q0 54 38 92t92 38q50 0 101 -38q5 -4 12 -4q9 0 15 7
l31 35h31q9 0 14.5 6t5.5 14t-5.5 14t-14.5 6h-40q-9 0 -15 -7l-25 -28q-13 8 -26 14q6 10 6 21q0 16 -12 28t-28 12z" />
    <glyph glyph-name="sixthai" unicode="&#xe56;" 
d="M60 400q-9 0 -14.5 -6t-5.5 -14t5.5 -14t14.5 -6h31l31 -35q6 -7 15 -7q7 0 12 4q51 38 101 38q54 0 92 -38t38 -92v-60q0 -54 -38 -92t-92 -38q-49 0 -85 31.5t-43 78.5h58q9 0 14.5 6t5.5 14t-5.5 14t-14.5 6h-80q-8 0 -14 -6t-6 -14q0 -70 50 -120t120 -50t120 50
t50 120v60q0 70 -50 120t-120 50q-55 0 -110 -35l-25 28q-6 7 -15 7h-40z" />
    <glyph glyph-name="seventhai" unicode="&#xe57;" 
d="M100 400q-8 0 -14 -6t-6 -14v-360q0 -8 6 -14t14 -6h80q9 0 14.5 6t5.5 14t-5.5 14t-14.5 6h-60v255l62 -124q6 -11 18 -11t18 11l62 124v-255q-9 0 -14.5 -6t-5.5 -14t5.5 -14t14.5 -6h80q7 0 13 5t7 13l38 342h22q9 0 14.5 6t5.5 14t-5.5 14t-14.5 6h-40q-7 0 -13 -5
t-7 -13l-38 -342h-22v340q0 8 -6 14t-14 6q-12 0 -18 -11l-82 -164l-82 164q-6 11 -18 11z" />
    <glyph glyph-name="eightthai" unicode="&#xe58;" 
d="M250 400q-70 0 -120 -50t-50 -120v-210q0 -8 6 -14t14 -6t14 5l116 108l116 -108q6 -5 14 -5h40q8 0 14 6t6 14v150q0 8 -6 14t-14 6h-40q-9 0 -14.5 -6t-5.5 -14t5.5 -14t14.5 -6h20v-110h-12l-124 115q-6 5 -14 5t-14 -5l-96 -89v164q0 54 38 92t92 38q50 0 101 -38
q5 -4 12 -4q9 0 15 7l31 35h31q9 0 14.5 6t5.5 14t-5.5 14t-14.5 6h-40q-9 0 -15 -7l-25 -28q-55 35 -110 35z" />
    <glyph glyph-name="ninethai" unicode="&#xe59;" 
d="M250 400q-70 0 -120 -50t-50 -120v-60q0 -70 50 -120t120 -50q8 0 14 6t6 14v80q0 8 -6 14t-14 6t-14 -6t-6 -14v-58q-47 7 -78.5 43t-31.5 85v60q0 50 33.5 87t82.5 42l116 -321q-7 -2 -10 -8.5t-1.5 -13.5t7 -11.5t12.5 -4.5h40q8 0 14 6t6 14t-6 14t-14 6h-6l-78 217
l93 103h31q8 0 14 6t6 14t-6 14t-14 6h-40q-9 0 -15 -7l-85 -93l-31 87q-2 6 -7.5 9.5t-11.5 3.5z" />
    <glyph glyph-name="angkhankhuthai" unicode="&#xe5a;" 
d="M300 400q-9 0 -14 -6h-1q-5 -6 -5 -17q-1 -53 -39 -90t-91 -37h-10v110h20q8 0 14 6t6 14t-6 14t-14 6h-80q-8 0 -14 -6t-6 -14t6 -14t14 -6h20v-130q0 -8 6 -14t14 -6h30q79 0 130 61v-231h-40q-8 0 -14 -6t-6 -14t6 -14t14 -6h200q8 0 14 6t6 14t-6 14t-14 6h-40v320
h20q8 0 14 6t6 14t-6 14t-14 6h-61.5h-58.5zM320 360h40v-320h-40v320z" />
    <glyph glyph-name="khomutthai" unicode="&#xe5b;" 
d="M140 300q-41 0 -70.5 -29.5t-29.5 -70.5t29.5 -70.5t70.5 -29.5t72 30q18 17 37 55q1 1 1.5 2l0.5 1l9 -47q2 -7 7.5 -11.5t12.5 -4.5q13 0 18 12l16 33l2 -7q5 -13 19 -13q9 0 15 7l19 23h71q9 0 14.5 6t5.5 14t-5.5 14t-14.5 6h-80q-9 0 -15 -7l-4 -4l-7 18
q-5 13 -19 13q-13 0 -18 -12l-9 -19l-8 40q-2 7 -7.5 11.5t-12.5 4.5q-10 0 -16 -8q-9 -11 -30 -54q-17 -32 -29 -44q-20 -19 -45 -19t-42.5 17.5t-17.5 42.5t17.5 42.5t42.5 17.5t42 -18q6 -6 15 -6q8 0 14 6t6 14q0 9 -6 15q-30 29 -71 29z" />
    <glyph glyph-name="enspace" unicode="&#x2002;" 
 />
    <glyph glyph-name="emspace" unicode="&#x2003;" 
 />
    <glyph glyph-name="zerowidthspace" unicode="&#x200b;" 
 />
    <glyph glyph-name="afii61664" unicode="&#x200c;" 
 />
    <glyph glyph-name="afii301" unicode="&#x200d;" 
 />
    <glyph glyph-name="afii299" unicode="&#x200e;" 
 />
    <glyph glyph-name="afii300" unicode="&#x200f;" 
 />
    <glyph glyph-name="quoteleft" unicode="&#x2018;" 
d="M230 500q-8 0 -14 -5.5t-6 -14.5q0 -3 1 -6l40 -140q1 -6 7 -10.5t12 -4.5q8 0 14 6t6 14q0 4 -1 7l-40 140q-1 6 -7 10t-12 4z" />
    <glyph glyph-name="quoteright" unicode="&#x2019;" 
d="M269 500q-14 0 -18 -14l-40 -140q-1 -3 -1 -7q0 -8 6 -14t14 -6q6 0 12 4.5t7 10.5l40 140q1 3 1 6q0 9 -6 14.5t-14 5.5h-1z" />
    <glyph glyph-name="quotedblleft" unicode="&#x201c;" 
d="M190 500q-8 0 -14 -5.5t-6 -14.5q0 -3 1 -6l40 -140q1 -6 7 -10.5t12 -4.5q8 0 14 6t6 14q0 4 -1 7l-40 140q-1 6 -7 10t-12 4zM250 500q-8 0 -14 -5.5t-6 -14.5q0 -3 1 -6l40 -140q1 -6 7 -10.5t12 -4.5q8 0 14 6t6 14q0 4 -1 7l-40 140q-1 6 -7 10t-12 4z" />
    <glyph glyph-name="quotedblright" unicode="&#x201d;" 
d="M270 500q-15 -1 -19 -15l-40 -140q-1 -3 -1 -6q0 -8 6 -14t14 -6q7 0 12.5 4.5t7.5 10.5l40 140q1 3 1 6q0 8 -6 14t-14 6h-1zM330 500q-15 -1 -19 -15l-40 -140q-1 -3 -1 -6q0 -8 6 -14t14 -6q7 0 12.5 4.5t7.5 10.5l40 140q1 3 1 6q0 8 -6 14t-14 6h-1z" />
    <glyph glyph-name="blank" unicode="&#x2423;" 
d="M77 176v-99q0 -17 5 -28t14 -15t14.5 -5t14.5 -1h293q58 0 58 53v95h27v-176h-453v176h27z" />
    <glyph glyph-name="dottedcircle" unicode="&#x25cc;" 
d="M57 326q5 0 9 -4.5t4 -9.5q0 -6 -4 -10t-9 -4t-9 4t-4 10q0 5 4 9.5t9 4.5zM130 390q14 0 14 -14q0 -4 -4.5 -8t-10 -4t-9.5 4t-4 8q0 6 4 10t10 4zM123 57q5 0 9 -4t4 -9q0 -6 -4 -10t-9 -4q-6 0 -10 4t-4 10q0 5 4.5 9t9.5 4zM52 122q12 0 12 -13.5t-12 -13.5
q-6 0 -10 4.5t-4 9.5t4 9t10 4zM322 64q6 0 9.5 -4t3.5 -10q0 -4 -4 -8t-9.5 -4t-9 4t-3.5 8q0 6 3.5 10t9.5 4zM381 130q13 0 13 -12q0 -14 -13 -14t-13 14q0 12 13 12zM381 321q13 0 13 -13t-13 -13t-13 13t13 13zM313 386q6 0 10.5 -4.5t4.5 -10.5q0 -5 -4.5 -9t-10.5 -4
q-5 0 -9 4t-4 9t4 10t9 5zM406 224q6 0 10.5 -4t4.5 -9t-4.5 -9t-10.5 -4q-5 0 -9 4t-4 9t4 9t9 4zM26 229q12 0 12 -14q0 -5 -3.5 -9t-8.5 -4q-14 0 -14 13q0 14 14 14zM230 30q6 0 9.5 -4t3.5 -10t-3.5 -9.5t-9.5 -3.5t-9.5 4t-3.5 9.5t3.5 9.5t9.5 4zM229 416q5 0 9 -4.5
t4 -9.5q0 -13 -13 -13q-5 0 -9.5 4t-4.5 9t4.5 9.5t9.5 4.5z" />
    <glyph glyph-name="uni0E10.descless" unicode="&#xf700;" 
d="M400 400h-3h-297q-8 0 -14 -6t-6 -14v-40q0 -9 6 -14.5t14 -5.5t14 5.5t6 14.5v20h250l-50 -120h-80q-9 0 -14.5 -6t-5.5 -14t5.5 -14t14.5 -6h63l-71 -172q-2 -4 -2 -8q0 -8 6 -14t14 -6q13 0 18 12l145 348h27q9 0 14.5 6t5.5 14t-5.5 14t-14.5 6h-37h-3z" />
    <glyph glyph-name="uni0E34.left" unicode="&#xf701;" horiz-adv-x="0" 
d="M-422 500q-9 0 -14.5 -6t-5.5 -14t5.5 -14t14.5 -6h200q9 0 14.5 6t5.5 14t-5.5 14t-14.5 6h-200z" />
    <glyph glyph-name="uni0E35.left" unicode="&#xf702;" horiz-adv-x="0" 
d="M-222 600q-8 0 -14 -6t-6 -14v-80h-180q-9 0 -14.5 -6t-5.5 -14t5.5 -14t14.5 -6h200q8 0 14 6t6 14v100q0 9 -6 14.5t-14 5.5z" />
    <glyph glyph-name="uni0E36.left" unicode="&#xf703;" horiz-adv-x="0" 
d="M-272 600q-29 0 -49.5 -20.5t-20.5 -49.5q0 -16 7 -30h-87q-9 0 -14.5 -6t-5.5 -14t5.5 -14t14.5 -6h150h50q9 0 14.5 6t5.5 14q0 11 -9 17q9 15 9 33q0 29 -20.5 49.5t-49.5 20.5zM-272 560q13 0 21.5 -8.5t8.5 -21.5t-8.5 -21.5t-21.5 -8.5t-21.5 8.5t-8.5 21.5
t8.5 21.5t21.5 8.5z" />
    <glyph glyph-name="uni0E37.left" unicode="&#xf704;" horiz-adv-x="0" 
d="M-282 600q-8 0 -14 -6t-6 -14v-80h-120q-9 0 -14.5 -6t-5.5 -14t5.5 -14t14.5 -6h137h3h3h54h3q9 0 14 6h1q5 6 5 14v3v97q0 9 -6 14.5t-14 5.5t-14 -6t-6 -14v-80h-20v80q0 9 -6 14.5t-14 5.5z" />
    <glyph glyph-name="uni0E48.low_left" unicode="&#xf705;" 
d="M-338 600q-8 0 -14 -6t-6 -14v-100q0 -9 6 -14.5t14 -5.5t14 5.5t6 14.5v100q0 9 -6 14.5t-14 5.5z" />
    <glyph glyph-name="uni0E49.low_left" unicode="&#xf706;" 
d="M-478 599q-9 0 -14.5 -6t-5.5 -14t5.5 -14t14.5 -6h20v-80q0 -8 6 -14t14 -6h160q9 0 14.5 6t5.5 14t-5.5 14t-14.5 6h-140v80q0 8 -6 14t-14 6h-40z" />
    <glyph glyph-name="uni0E4A.low_left" unicode="&#xf707;" 
d="M-483 600q-8 0 -14 -6t-6 -14v-100q0 -9 6 -14.5t14 -5.5t14 5.5t6 14.5v52l26 -26q6 -6 14 -6t14 6l26 26v-52q0 -8 6 -14t14 -6h80q9 0 14.5 6t5.5 14t-5.5 14t-14.5 6h-60v80q0 8 -6 14t-14 6t-14 -6l-46 -46l-46 46q-6 6 -14 6z" />
    <glyph glyph-name="uni0E4B.low_left" unicode="&#xf708;" 
d="M-362 556q-8 0 -14 -6t-6 -14v-30h-30q-9 0 -14.5 -6t-5.5 -14t5.5 -14t14.5 -6h30v-30q0 -9 6 -14.5t14 -5.5t14 5.5t6 14.5v30h30q9 0 14.5 6t5.5 14t-5.5 14t-14.5 6h-30v30q0 9 -6 14.5t-14 5.5z" />
    <glyph glyph-name="uni0E4C.low_left" unicode="&#xf709;" 
d="M-279 600q-8 0 -14 -6t-6 -14v-100q0 -8 6 -14t14 -6h40q9 0 14.5 6t5.5 14t-5.5 14t-14.5 6h-20v80q0 9 -6 14.5t-14 5.5z" />
    <glyph glyph-name="uni0E48.low" unicode="&#xf70a;" horiz-adv-x="0" 
d="M-250 600q-8 0 -14 -6t-6 -14v-100q0 -9 6 -14.5t14 -5.5t14 5.5t6 14.5v100q0 9 -6 14.5t-14 5.5z" />
    <glyph glyph-name="uni0E49.low" unicode="&#xf70b;" horiz-adv-x="0" 
d="M-360 600q-9 0 -14.5 -6t-5.5 -14t5.5 -14t14.5 -6h20v-80q0 -8 6 -14t14 -6h160q9 0 14.5 6t5.5 14t-5.5 14t-14.5 6h-140v80q0 8 -6 14t-14 6h-40z" />
    <glyph glyph-name="uni0E4A.low" unicode="&#xf70c;" horiz-adv-x="0" 
d="M-360 600q-8 0 -14 -6t-6 -14v-100q0 -9 6 -14.5t14 -5.5t14 5.5t6 14.5v52l26 -26q6 -6 14 -6t14 6l26 26v-52q0 -8 6 -14t14 -6h80q9 0 14.5 6t5.5 14t-5.5 14t-14.5 6h-60v80q0 8 -6 14t-14 6t-14 -6l-46 -46l-46 46q-6 6 -14 6z" />
    <glyph glyph-name="uni0E4B.low" unicode="&#xf70d;" horiz-adv-x="0" 
d="M-250 600q-8 0 -14 -6t-6 -14v-30h-30q-9 0 -14.5 -6t-5.5 -14t5.5 -14t14.5 -6h30v-30q0 -9 6 -14.5t14 -5.5t14 5.5t6 14.5v30h30q9 0 14.5 6t5.5 14t-5.5 14t-14.5 6h-30v30q0 9 -6 14.5t-14 5.5z" />
    <glyph glyph-name="uni0E4C.low" unicode="&#xf70e;" horiz-adv-x="0" 
d="M-240 600q-8 0 -14 -6t-6 -14v-100q0 -8 6 -14t14 -6h40q9 0 14.5 6t5.5 14t-5.5 14t-14.5 6h-20v80q0 9 -6 14.5t-14 5.5z" />
    <glyph glyph-name="uni0E0D.descless" unicode="&#xf70f;" 
d="M20 400q-9 0 -14.5 -6t-5.5 -14t5.5 -14t14.5 -6h20v-340q0 -8 6 -14t14 -6h80q9 0 14.5 6t5.5 14t-5.5 14t-14.5 6h-60v320h85q35 0 60 -25t25 -60v-255q0 -8 6 -14t14 -6h80q45 0 77.5 32.5t32.5 77.5v250h20q9 0 14.5 6t5.5 14t-5.5 14t-14.5 6h-80q-9 0 -14.5 -6
t-5.5 -14t5.5 -14t14.5 -6h20v-250q0 -29 -20.5 -49.5t-49.5 -20.5h-60v235q0 52 -36.5 88.5t-88.5 36.5h-145z" />
    <glyph glyph-name="uni0E31.left" unicode="&#xf710;" horiz-adv-x="0" 
d="M-422 600q-8 0 -14 -6t-6 -14v-100q0 -8 6 -14t14 -6h200q9 0 14.5 6t5.5 14t-5.5 14t-14.5 6h-180v80q0 9 -6 14.5t-14 5.5z" />
    <glyph glyph-name="uni0E4D.left" unicode="&#xf711;" horiz-adv-x="0" 
d="M-350 597q-29 0 -49.5 -20.5t-20.5 -49.5t20.5 -49.5t49.5 -20.5t49.5 20.5t20.5 49.5t-20.5 49.5t-49.5 20.5zM-350 557q13 0 21.5 -8.5t8.5 -21.5t-8.5 -21.5t-21.5 -8.5t-21.5 8.5t-8.5 21.5t8.5 21.5t21.5 8.5z" />
    <glyph glyph-name="uni0E47.left" unicode="&#xf712;" 
d="M-411 599q-8 0 -14 -6t-6 -14v-100q0 -8 6 -14t14 -6q5 0 10 3l60 34l60 -34q5 -3 10 -3q8 0 14 6t6 14v40q0 9 -6 14.5t-14 5.5t-14 -5.5t-6 -14.5v-6l-40 23q-5 3 -10 3t-10 -3l-40 -23v46h180q9 0 14.5 6t5.5 14t-5.5 14t-14.5 6h-200z" />
    <glyph glyph-name="uni0E48.left" unicode="&#xf713;" 
d="M-311 779q-8 0 -14 -6t-6 -14v-100q0 -9 6 -14.5t14 -5.5t14 5.5t6 14.5v100q0 9 -6 14.5t-14 5.5z" />
    <glyph glyph-name="uni0E49.left" unicode="&#xf714;" 
d="M-370 769q-9 0 -14.5 -6t-5.5 -14t5.5 -14t14.5 -6h20v-80q0 -8 6 -14t14 -6h160q9 0 14.5 6t5.5 14t-5.5 14t-14.5 6h-140v80q0 8 -6 14t-14 6h-40z" />
    <glyph glyph-name="uni0E4A.left" unicode="&#xf715;" 
d="M-356 769q-8 0 -14 -6t-6 -14v-100q0 -9 6 -14.5t14 -5.5t14 5.5t6 14.5v52l26 -26q6 -6 14 -6t14 6l26 26v-52q0 -8 6 -14t14 -6h80q9 0 14.5 6t5.5 14t-5.5 14t-14.5 6h-60v80q0 8 -6 14t-14 6t-14 -6l-46 -46l-46 46q-6 6 -14 6z" />
    <glyph glyph-name="uni0E4B.left" unicode="&#xf716;" 
d="M-314 769q-8 0 -14 -6t-6 -14v-30h-30q-9 0 -14.5 -6t-5.5 -14t5.5 -14t14.5 -6h30v-30q0 -9 6 -14.5t14 -5.5t14 5.5t6 14.5v30h30q9 0 14.5 6t5.5 14t-5.5 14t-14.5 6h-30v30q0 9 -6 14.5t-14 5.5z" />
    <glyph glyph-name="uni0E4C.left" unicode="&#xf717;" 
d="M-221 782q-8 0 -14 -6t-6 -14v-100q0 -8 6 -14t14 -6h40q9 0 14.5 6t5.5 14t-5.5 14t-14.5 6h-20v80q0 9 -6 14.5t-14 5.5z" />
    <glyph glyph-name="uni0E38.low" unicode="&#xf718;" horiz-adv-x="0" 
d="M-248 -206q-9 0 -14.5 -6t-5.5 -14t5.5 -14t14.5 -6h20v-80q0 -9 6 -14.5t14 -5.5t14 5.5t6 14.5v100q0 8 -6 14t-14 6h-40z" />
    <glyph glyph-name="uni0E39.low" unicode="&#xf719;" horiz-adv-x="0" 
d="M-169 -206q-13 0 -18 -13l-21 -53l-21 53q-5 13 -19 13h-40q-9 0 -14.5 -6t-5.5 -14t5.5 -14t14.5 -6h26l35 -87q5 -13 19 -13t19 13l40 100q1 3 1 7q0 9 -6 14.5t-14 5.5h-1z" />
    <glyph glyph-name="uni0E3A.low" unicode="&#xf71a;" horiz-adv-x="0" 
d="M-218 -206q-29 0 -49.5 -20.5t-20.5 -49.5t20.5 -49.5t49.5 -20.5t49.5 20.5t20.5 49.5t-20.5 49.5t-49.5 20.5z" />
    <glyph glyph-name="uniF71B" unicode="&#xf71b;" 
d="M16 406v-390h242v390h-242zM274 0h-274v423h274v-423z" />
    <glyph glyph-name="uni0E4D.high" unicode="&#xf71e;" horiz-adv-x="0" 
d="M-250 840q-29 0 -49.5 -20.5t-20.5 -49.5t20.5 -49.5t49.5 -20.5t49.5 20.5t20.5 49.5t-20.5 49.5t-49.5 20.5zM-250 800q13 0 21.5 -8.5t8.5 -21.5t-8.5 -21.5t-21.5 -8.5t-21.5 8.5t-8.5 21.5t8.5 21.5t21.5 8.5z" />
    <glyph glyph-name="uni0E47.high" unicode="&#xf71f;" 
d="M-347.414 829.691q-7.27637 0 -12.7334 -5.45703t-5.45703 -12.7334v-90.9482q0 -7.27539 5.45703 -12.7324t12.7334 -5.45703q4.54688 0 9.09473 2.72852l54.5684 30.9219l54.5693 -30.9219q4.54785 -2.72852 9.09473 -2.72852q7.27637 0 12.7334 5.45703
t5.45703 12.7324v36.3789q0 8.18555 -5.45703 13.1885q-5.45703 5.00195 -12.7334 5.00195q-7.27539 0 -12.7324 -5.00195q-5.45703 -5.00293 -5.45703 -13.1885v-5.45605l-36.3799 20.918q-4.54688 2.72852 -9.09473 2.72852q-4.54688 0 -9.09473 -2.72852
l-36.3789 -20.918v41.8359h163.707q8.18555 0 13.1875 5.45703t5.00195 12.7324q0 7.27637 -5.00195 12.7334t-13.1875 5.45703h-181.896z" />
    <glyph glyph-name="uni0E52.alt1" unicode="&#xf752;" 
d="M399 400q-8 0 -13 -6l-86 -86l-86 86q-6 6 -14 6t-14 -6t-6 -14v-160q0 -8 6 -14t14 -6h80q8 0 14 6t6 14t-6 14t-14 6h-60v92l66 -66q6 -6 14 -6t14 6l66 66v-292h-222l-38 342q-1 8 -6.5 13t-13.5 5h-40q-8 0 -14 -6t-6 -14t6 -14t14 -6h22l36 -320h-18q-8 0 -14 -6
t-6 -14t6 -14t14 -6h340q8 0 14 6t6 14t-6 14t-14 6h-20v340q0 8 -6 14t-15 6z" />
    <glyph glyph-name="uni0E56.alt1" unicode="&#xf753;" 
d="M60 400q-9 0 -14.5 -6t-5.5 -14t5.5 -14t14.5 -6h31l31 -35q6 -7 15 -7q7 0 12 4q51 38 101 38q54 0 92 -38t38 -92v-60q0 -54 -38 -92t-92 -38q-49 0 -85 31.5t-43 78.5h58q9 0 14.5 6t5.5 14t-5.5 14t-14.5 6h-80q-8 0 -14 -6t-6 -14q0 -70 50 -120t120 -50t120 50
t50 120v60q0 70 -50 120t-120 50q-55 0 -110 -35l-25 28q-6 7 -15 7h-40z" />
    <glyph glyph-name="uni0E42.alt1" unicode="&#xf754;" 
d="M100 600q-9 0 -14.5 -6t-5.5 -14t5.5 -14t14.5 -6h20q66 0 113 -47t47 -113v-360h-30q-9 0 -14.5 -6t-5.5 -14t5.5 -14t14.5 -6h150q9 0 14.5 6t5.5 14t-5.5 14t-14.5 6h-80v360q0 48 -21.5 90t-58.5 70h100q9 0 14.5 6t5.5 14t-5.5 14t-14.5 6h-240z" />
    <glyph glyph-name="uni0E43.alt1" unicode="&#xf755;" 
d="M180 600q-58 0 -99 -41t-41 -99q0 -9 6 -14.5t14 -5.5t14 5.5t6 14.5q0 42 29 71t71 29t71 -29t29 -71v-420h-30q-9 0 -14.5 -6t-5.5 -14t5.5 -14t14.5 -6h150q9 0 14.5 6t5.5 14t-5.5 14t-14.5 6h-80v420q0 58 -41 99t-99 41z" />
    <glyph glyph-name="uni0E44.alt1" unicode="&#xf756;" 
d="M60 600q-9 0 -14.5 -6t-5.5 -14t5.5 -14t14.5 -6h70l74 -92q6 -8 16 -8t16 8l44 55v-483h-30q-9 0 -14.5 -6t-5.5 -14t5.5 -14t14.5 -6h150q9 0 14.5 6t5.5 14t-5.5 14t-14.5 6h-80v540q0 8 -6 14t-14 6q-10 0 -16 -8l-64 -80l-64 80q-6 8 -16 8h-80z" />
    <glyph glyph-name="joker" 
d="M502 549l-20 -34q-7 11 -15 19l17 35q7 -4 18 -20zM463 586l-14 -36q-1 1 -8 6.5t-11 8.5l10 36q2 -2 23 -15zM532 506l-26 -30q-2 3 -4 7.5t-3.5 7.5l-2.5 5l22 33q8 -9 14 -23zM554 464l-32 -26q0 1 -3 8.5t-4 10.5l30 30q1 -4 9 -23zM413 613l-7 -36q-14 5 -24 7l4 37
q21 -4 27 -8zM569 421l-37 -20q0 3 -3 17l33 24q2 -11 7 -21zM359 623l-1 -37q-2 0 -11 -1t-13 -1l-3 37q5 0 14 1t13 1h1zM578 380l-37 -13l-4 16l37 17l1 -7q2 -7 3 -13zM584 340l-40 -7v9q-1 1 -1 8l38 9q3 -13 3 -19zM310 576q-10 -4 -24 -11l-8 36q7 4 25 12zM584 300
h-39v16l39 4v-20zM584 280q0 -6 -3 -20l-38 8q0 6 1 8v8zM267 549q-1 -1 -4 -3.5t-6.5 -6t-6.5 -7.5l-16 36q2 1 8.5 7t11.5 11zM579 241q0 -3 -1 -9.5t-1 -11.5l-39 14q0 4 1.5 9.5t1.5 6.5zM572 200q0 -2 -2.5 -10t-2.5 -10l-35 20q0 2 2 9t2 9zM234 515l-14 -19l-21 31
q7 8 16 21zM560 158q0 -2 -9 -21l-31 27q2 3 6 18zM210 476q0 -1 -3 -7l-6 -12l-26 27q3 9 11 22zM542 116q-2 -2 -5.5 -9t-6.5 -12l-27 31q0 1 10 19zM194 438q-3 -4 -6 -18l-32 20q4 7 9 23zM516 74l-16 -20l-20 35q8 9 12 19zM182 401l-3 -18l-34 16q1 1 1.5 5t1.5 8t3 8
zM176 366q0 -4 -1.5 -9.5t-1.5 -6.5l-36 9l3 20zM482 34q-9 -6 -22 -17l-13 38q1 1 18 16zM172 333v-17l-38 4q0 6 2 20zM172 284l-37 -4q-1 1 -1 20h38v-16zM437 3q-3 -1 -11 -3.5t-14 -4.5l-6 35q16 7 22 10zM175 250l-36 -9q0 2 -1 8.5t-2 12.5l36 5q0 -5 3 -17zM180 218
l-34 -16q-4 15 -4 18l35 14zM386 -12q-18 -2 -27 -2h-1v35q10 0 24 2zM189 182l-31 -22l-6 20l32 20q5 -11 5 -18zM334 23l-3 -34q-15 2 -27 7l7 34q11 -6 23 -7zM203 145l-26 -27q-9 16 -10 22l29 23q0 -3 3 -9t4 -9zM223 106l-21 -30q-1 1 -4 6.5t-6 9.5t-4 6l24 28
q9 -11 11 -20zM289 40l-10 -35l-23 15l13 35q3 -2 5.5 -3.5t7 -5t7.5 -6.5zM251 70l-15 -32q-10 8 -18 18l18 32q3 -5 8.5 -11t6.5 -7z" />
  </font>
</defs>
</svg>
