<?xml version="1.0" standalone="no"?>
<!DOCTYPE svg PUBLIC "-//W3C//DTD SVG 1.1//EN" "http://www.w3.org/Graphics/SVG/1.1/DTD/svg11.dtd" >
<svg xmlns="http://www.w3.org/2000/svg" xmlns:xlink="http://www.w3.org/1999/xlink" version="1.1">
<metadata>
Created by FontForge 20170805 at Sun Apr  9 13:53:34 2017
 By Manatsawin
Copyright (C) April 2017, Worawut Thanawatanawanich. All rights reserved.
</metadata>
<defs>
<font id="SOV_waree" horiz-adv-x="400" >
  <font-face 
    font-family="SOV_waree"
    font-weight="700"
    font-stretch="normal"
    units-per-em="1000"
    panose-1="2 7 5 6 6 0 0 2 0 4"
    ascent="800"
    descent="-200"
    x-height="310"
    cap-height="520"
    bbox="-372.893 -401.5 1286 907"
    underline-thickness="30"
    underline-position="-50"
    unicode-range="U+0020-FB04"
  />
<missing-glyph horiz-adv-x="274" 
d="M16 406v-390h242v390h-242zM274 0h-274v423h274v-423z" />
    <glyph glyph-name="nine_in_heart" unicode="&#xe2f;&#xe23;&#xe2f;" horiz-adv-x="680" 
d="M500 480q-38 0 -75 -21q-17 -10 -42 -38q-6 -6 -13 -15q-7 8 -13 15q-25 28 -42 38q-39 23 -76 21q-47 -2 -105 -42q-52 -35 -83 -114q-16 -39 -11 -85q6 -56 41 -124q47 -89 122 -162q19 -19 54.5 -44.5t61.5 -41.5l26 -16q5 -3 10 0q62 37 91 61q43 37 85 83l0.5 0.5
l0.5 0.5q22 25 41 50q1 2 2 3v1q2 2 3 4q14 20 32 55.5t28 61.5l11 25q2 4 0.5 8t-5.5 5.5t-8 0t-5 -5.5q-41 -97 -69 -138q-1 -1 -3 -4t-2 -4h-1q-16 -23 -42 -51q-23 -25 -51 -49q-27 -24 -93 -66q-96 59 -133 95q-73 71 -118 158q-34 64 -39 116q-4 40 9 76q21 54 57 85
q38 32 94 38q31 2 65 -19q14 -8 37 -33l20 -24q3 -4 8 -4t8 4q9 11 20 24q23 25 37 33q38 22 74 19q33 -3 65 -28q20 -16 26 -35q18 -54 -13 -112q-15 -27 -42 -56q-19 70 -37 97q-3 4 -8 4q-12 0 -24 -8q-16 -11 -20 -13h-1v-1q-10 -5 -14 -20q0 -2 -1 -4q-2 -12 -1 -31
q1 -4 1 -9q-3 5 -4 7q-28 47 -57 74q-34 29 -61 25q-77 -13 -107 -65q-2 -4 -4 -9q-4 -6 -6 -12q-1 -1 -1 -3q-27 -68 -8 -150q-15 -14 -21 -27q-2 -3 -0.5 -7t5 -6t7.5 -0.5t6 5.5q2 5 9 13q6 -18 13 -33q13 -28 30 -46q25 -25 51 -20q15 3 23 22q5 13 5 28q-1 32 -14 59
q-16 34 -43 41q-24 6 -53 -14q-15 80 14 140q2 4 5 7q6 7 11 7q18 0 43.5 -25.5t49.5 -67t38.5 -87t12.5 -78.5q-1 -12 5 -19q5 -7 15 -9q14 -2 35 6q17 6 35 16q15 9 22 16q5 3 6 10q1 5 1 12q-1 11 -5 30q-1 3 -2 8.5t-2 7.5q-3 18 -10 40q-5 20 -7 29q-14 56 -16 84
q-2 19 -1 29q1 0 1 0.5v0.5q0 2 1 4q2 -2 3 -4q5 -8 9 -22q7 -21 16 -73q1 -3 3 -5q7 -8 19 -4q7 1 16 7q8 6 19 17l1 1q38 38 56 72q36 65 16 127q-9 25 -34 45q-37 29 -75 32h-11zM251 121h2q3 0 4 -1q19 -4 31 -30q11 -23 12 -50q0 -11 -4 -21q-3 -8 -8 -9q-15 -3 -32 14
q-16 16 -27 40q-9 19 -14 40q0 1 1.5 2l1.5 1q18 14 33 14z" />
    <glyph glyph-name="uvSOV" unicode="&#xe2f;&#xe23;&#xe2d;&#xe07;&#xe2f;" horiz-adv-x="1310" 
d="M743 543q0 1 6 -3q8 -7 29 -3q20 5 30 -4q5 -6 8 -6t11 6q8 5 12.5 4.5t12.5 -8.5q6 -6 8 -7t6 0q5 0 5 -1q-3 -2 -9.5 -2t-14 8t-11.5 6.5t-9 -6.5t-10.5 -5.5t-12 5t-9.5 2.5q-5 -5 -19 -61q-7 -28 -2 -34q3 -4 9.5 -3t9.5 -1.5t1 -3.5q0 -1 -2 1q-3 2 -7 -1
q-8 -4 -16 5t-28 44q-26 44 -34 48q-4 1 -6.5 4.5t-7.5 5.5l2 1q7 -1 10.5 -3t17.5 -1l13 1l6 -7q5 -6 7 -5.5t2 -1t-2.5 -1.5t-5.5 2l-5 2q-4 4 -7 3q-3 -2 -1.5 -6t14.5 -25q14 -23 15 -21q1 3 6 28.5t5 27.5q-1 2 -9 3t-13 6.5t-5 6.5zM614 568q2 7 3 7q1 -1 1 -6
q0 -10 9 -3q5 3 12 2t10 -6q6 -9 -1 -34q-5 -16 -5 -21t5 -9q4 -5 14 -4t17 1h8v6q-1 7 -13 29q-6 11 -4.5 21.5t9.5 15.5q6 3 14.5 1t11.5 -7q1 -3 0 -11v-8l4 -2q8 -2 -2 -3q-3 -1 -7 -1q-8 0 -10 4q-6 9 2 12q3 2 2.5 3.5t-4.5 2t-6 -3.5q-6 -8 8 -25q14 -16 14 -30
q0 -9 -5.5 -15t-5.5 -11q0 -4 1 -5t6 -2l6 -2h-7q-9 0 -13 10l-3 5h-22q-19 1 -24.5 3t-10.5 10q-6 9 1 37q7 25 3 25q-2 0 -6 -2t-8 -1q-8 4 -4 17zM682 585q40 9 47 -4q3 -6 -2 -2q-9 6 -34 -1q-22 -6 -33 -2q-4 2 -8.5 5t-8.5 3l-2 2q2 3 17 -1q9 -2 24 0zM579 -63
q15 -3 39 -3q21 -1 40 1q1 -1 64 14q31 7 52 17q13 7 30.5 22t29.5 29q36 44 50.5 92.5t6.5 93.5q-17 98 -92 147q-59 39 -141 55q-16 3 -45 3t-40 -3l-11 -3l9 10q29 35 29 68q0 24 -12.5 44.5t-30.5 27.5q-11 4 -51 3q-21 0 -28 1q-38 11 -36 53q1 13 5 22q10 21 45 43
q21 14 28 21.5t7 18.5t-6.5 20t-26.5 26q-31 27 -31 46q0 12 15 28t17 38q2 23 -4 35l1 -7q3 -22 -3 -38t-27 -29q-19 -13 -21.5 -26.5t10.5 -35.5q15 -25 16 -39q1 -9 -3 -17q-5 -12 -22 -26q-37 -29 -48 -70q-4 -14 -4 -36t4 -34q10 -32 31 -44.5t64 -10.5l24 1l8 -6
q14 -11 14 -28q0 -22 -41 -61q-58 -54 -74 -95q-20 -50 3 -80q2 -3 5 -5q16 -18 17 -13q1 2 5 18q27 101 123 113q37 4 74 -1q72 -9 118 -56q53 -55 53 -119q0 -34 -8 -57t-27 -47q-11 -13 -31 -27.5t-38 -21.5q-30 -13 -52 -18q-18 -4 -55 -2t-59 7q-67 17 -66 88
q0 34 19 54q14 13 40 20q42 10 53 -24q6 -15 0 -20q-4 -2 -7 1q-11 10 -25.5 6.5t-20.5 -17.5q-4 -10 -3.5 -24.5t6.5 -24.5q9 -17 23 -24q20 -11 52 -9.5t59 13.5l9 4h-16q-43 1 -53 11q-4 4 -4 13q2 17 15 36q16 24 2 57q-8 20 -19.5 30.5t-31.5 15.5q-11 3 -36 3t-35 -3
q-30 -8 -54 -32t-31 -52q-6 -24 -4 -51q3 -28 16 -52.5t32 -37.5q17 -13 51 -25t60 -15zM22 221l7 -6q7 -6 22.5 -13.5t26 -10.5t59 -3t53.5 -2.5t7.5 -6.5t-1.5 -16q-8 -24 -1 -44q3 -10 2 -10q-8 -3 -11 -12q-1 -5 0 -14q2 -11 9 -17t29 -14q33 -12 23 -41
q-5 -14 -24.5 -26.5t-36.5 -12.5q-9 0 -34 5q-46 9 -73 2q-11 -3 -12 -4l2 -1q18 4 37 4q20 0 52 -8q27 -8 52 -3q18 4 33 15q11 9 17 24t3 31q-2 10 -4 15q-6 12 -23 18q-9 4 -13.5 7t-3.5 5q3 5 18 0q12 -4 46.5 -4t52.5 4q25 5 42 18q34 25 31 84q-1 24 -16 40
q-13 14 -55 29q-63 23 -83 37q-23 15 -27 27q-8 20 12 35q25 18 57 18q30 0 52 -9q11 -4 20 -13t12 -19q3 -11 1.5 -24t-6.5 -13q-2 0 -8.5 4t-16.5 4.5t-11.5 2t0.5 9.5t-1 13q-4 9 -17 15h-2q12 -10 13.5 -14.5t-6.5 -16.5q-11 -16 -3 -31q4 -8 12 -11q24 -10 45 9
q10 10 12.5 17.5t2.5 25.5q0 28 -7.5 40t-32.5 23l-18 9q-21 13 -7 37q5 9 4 9q-1 1 -2.5 -1t-3 -5t-3.5 -6t-3.5 -6.5t-1.5 -4.5q-3 -16 6 -27l4 -4h-4q-3 0 -16 3q-27 6 -55 -3t-46 -30q-19 -23 -17 -55q1 -24 17.5 -37t83.5 -42q42 -19 55.5 -28t19.5 -20q5 -11 3 -25.5
t-9 -22.5q-8 -8 -30.5 -17t-38.5 -10q-21 -2 -42 7t-27 22q-4 11 0 28l2 8l5 -3q8 -5 19 0q12 5 12 20q0 12 -8 23t-19 14q-26 6 -94 -5q-60 -10 -87 -2q-26 7 -33 13zM1286 321h-7q-14 -3 -27 4q-11 6 -21 21q-12 20 -31 27q-22 9 -85 1q-58 -7 -73 -2q-6 3 -15 10t-17 7
t-14 -2t-11 -1q-11 3 -21 23l-4 10l1 -9q2 -18 14 -29t25 -8q7 1 9 0.5t6 -7.5q6 -13 26 -14q12 -1 14 -5q4 -7 -2 -24.5t-39 -93.5q-41 -96 -42 -96l-38 91l-42 102q-1 1 -0.5 1.5t2 0.5t4 0.5t6.5 0.5q20 1 25 11t16 4q25 -15 2 -45q-15 -18 -15 -41q0 -17 11 -26
q14 -13 17 -11l-4 4q-22 14 -18 36q4 17 18 36q13 18 13 30q0 17 -17 35q-11 11 -36 14q-12 2 -17 0.5t-13 -9.5q-8 -9 -11 -8t-8 10q-7 13 -13 16t-17 -1t-13.5 -2.5t-8.5 12.5q-9 18 -26 18l-7 -1l8 -1q15 -3 19 -21q2 -10 5 -13t22 0q7 1 11 -2q8 -5 56 -137
q41 -114 57 -146q24 -50 44 -60q15 -8 14 -23l1 -7q2 2 2.5 12t-1.5 13t-13 8t-13 8q-7 7 0 29q4 14 50.5 123t57.5 129q11 22 40 36q23 12 41 10q28 -5 47 -31q21 -30 44 -21z" />
    <glyph glyph-name=".notdef" horiz-adv-x="274" 
d="M16 406v-390h242v390h-242zM274 0h-274v423h274v-423z" />
    <glyph glyph-name=".null" horiz-adv-x="0" 
 />
    <glyph glyph-name="nonmarkingreturn" horiz-adv-x="249" 
 />
    <glyph glyph-name="space" unicode=" " horiz-adv-x="300" 
 />
    <glyph glyph-name="exclam" unicode="!" horiz-adv-x="280" 
d="M220 510h-2l-100 -20q-9 -2 -8 -11q7 -95 13.5 -249t6.5 -230q0 -4 3 -7q24 -10 69 -3q8 2 8 10q0 31 10 226.5t10 273.5q0 4 -3 7t-7 3zM186 -31q-18 0 -39 -9q-19 -7 -33 -22q-18 -20 -13 -40q6 -19 32 -25q19 -5 39 -2q17 3 30 12q18 11 19 27q0 4 -1 6q9 15 5.5 28
t-14.5 20q-9 5 -22 5h-3z" />
    <glyph glyph-name="quotedbl" unicode="&#x22;" horiz-adv-x="360" 
d="M146 545q-13 0 -29 -5q-7 -3 -7 -10v-170q0 -8 8 -10q9 -2 28 0q16 2 22 0q4 -1 8 2t4 7q2 29 5 85t5 84q1 4 -1 7l-1 1v0v1h-1v1h-1q-2 2 -6 2q-28 5 -34 5zM220 540q-4 0 -7 -3t-3 -7q0 -26 -3.5 -54t-9 -61.5t-7.5 -53.5q0 -4 2.5 -7t5.5 -4q12 -2 34 -5t32 -5
q4 0 7.5 2t4.5 6q3 17 11.5 52t14 63t8.5 54q1 4 -1 7v1v0l-1 1q-2 3 -6 4q-22 10 -82 10z" />
    <glyph glyph-name="numbersign" unicode="#" 
d="M300 350h-2q-8 -2 -23 -5.5t-23 -4.5q-9 -2 -8 -11q4 -36 3 -88q-3 0 -10 -1q-15 -1 -19 -2q-3 46 -8 83q-1 9 -10 9q-2 0 -3 -1q-13 -4 -30 -4q-20 0 -36 -6q-8 -2 -7 -10q3 -33 3 -77q-28 -2 -47 -2q-4 0 -7 -3t-3 -7t3 -7t7 -3q20 0 47 2v-34v-26q-36 -2 -57 -2
q-4 0 -7 -3t-3 -7t3 -7t7 -3q22 0 56 2q0 -54 4 -93q0 -4 4 -7t8 -2q17 4 40 10.5t39 9.5q3 0 6 3q1 0 1 1v0q0 1 0.5 1t0.5 1q2 3 1 7q-5 34 -8 76q4 0 11 1q6 1 13 1q1 -47 4 -82q1 -9 10 -9h58q5 -1 8 2l1 1q1 0 1 1v0q3 4 2 9q-5 35 -8 84q40 3 58 3q4 0 7 3t3 7t-3 7
t-7 3q-19 0 -59 -3q0 11 -1 31t-1 29q41 3 61 3q4 0 7 3t3 7t-3 7t-7 3q-20 0 -62 -3q-2 55 -8 94q-1 9 -10 9zM247 221v-27l-1 -33q-2 0 -7 -0.5t-7 -0.5t-5.5 -0.5t-5.5 -0.5q0 10 -1 30t-1 29q6 1 19 2q2 0 5 0.5t4 0.5z" />
    <glyph glyph-name="dollar" unicode="$" 
d="M240 490q-4 0 -7 -3q-9 -9 -15 -37q-3 -16 -6 -38q-24 -8 -47 -23q0 -1 -1 -1q-45 -31 -64 -85q-8 -24 11 -48q11 -13 44 -38q32 -23 47 -37q-2 -108 -3 -136q-1 -20 -1 -36q-60 -4 -89 37l-1 1v0q-16 24 -15 38q0 22 33 48q3 3 3.5 7t-2 7t-6.5 3.5t-7 -1.5
q-40 -32 -41 -63q-1 -21 18 -50l1 -1q23 -38 68 -46q19 -3 36 -2v-4v-2q-2 -27 -6 -37q-1 -4 1 -7.5t6 -5t7.5 0.5t5.5 6q3 12 6 41v4l1 5q27 5 47 14q57 26 89 70q42 56 16 113q-11 25 -31.5 44t-36.5 27.5t-43 20.5q-24 10 -34 15q2 57 6 95q0 4 1 10q27 6 44 -5
q14 -8 20 -22q7 -13 -2 -22q-3 -3 -3 -7t3 -7t7 -3t7 3q19 19 6 45q-9 19 -28 31q-17 9 -39 9q-6 0 -13 -1q2 17 4 29q5 22 10 27t2.5 11t-9.5 6zM210 390v-2v0q-3 -35 -5 -87q-2 1 -3 2q-28 19 -33 40q-3 17 9 30q5 6 32 17zM221 161q19 -22 30 -45q21 -46 10 -68
q-5 -11 -36 -29q-3 -2 -7 -4q1 15 1 29q1 31 2 117z" />
    <glyph glyph-name="percent" unicode="%" 
d="M280 510q-8 0 -10 -8q-26 -137 -66 -256t-113 -302q-2 -4 -0.5 -8t5.5 -5q34 -14 80 -21q4 -1 7.5 0.5t5.5 4.5v1v0l1 1q4 11 28 70.5t29 72.5t24 62t25 68t20 61t21 69t16.5 64.5t16.5 73.5v1v1q0 7 -6 9q-4 3 -17.5 13t-21.5 14q-23 14 -45 14zM145 327q-11 0 -22 -6
q-17 -9 -32 -28q-13 -16 -18 -36q-6 -27 8 -41q15 -14 41 -7q18 6 35 19q13 10 20 24q10 19 3 34l-4 4q1 17 -8.5 27t-22.5 10zM144 307q5 0 9 -4t3 -14q-2 -9 -7 -22q-2 -4 -0.5 -8t5.5 -5q-5 -7 -10 -11q-13 -10 -27.5 -14t-21.5 2q-6 6 -3 21q4 16 14 28q13 16 26 23
q7 4 12 4zM345 147q-11 0 -22 -6q-17 -9 -32 -28q-13 -16 -18 -36q-6 -27 8 -41q15 -14 41 -7q18 6 35 19q13 10 20 24q10 19 3 34q-2 3 -4 4q1 17 -8.5 27t-22.5 10zM344 127q5 0 9 -4t3 -14q-2 -9 -7 -22q-2 -4 -0.5 -8t5.5 -5q-5 -7 -10 -11q-13 -10 -27.5 -14t-21.5 2
q-6 6 -3 21q4 16 14 28q13 16 26 23q7 4 12 4z" />
    <glyph glyph-name="ampersand" unicode="&#x26;" 
d="M220 410q-21 0 -43.5 -16.5t-35.5 -36.5q-28 -45 -31 -96q-2 -34 6 -73q-34 -32 -45 -65q-12 -31 -13 -55q-3 -34 14 -54q21 -25 62 -31q36 -4 69 8q12 4 26 12q18 -14 37 -22q6 -3 11 2t23 13l34 15q6 3 6 8.5t-4 8.5q-12 8 -33 31q-2 2 -7 9q11 13 20 26q14 19 27 39
t20 31l6 11q2 4 1 8t-5 6t-8 1t-6 -5q-21 -38 -51 -79q-7 -11 -17 -22q-14 17 -26 34q-42 60 -59 111q33 27 51.5 52t20.5 57q0 6 -1 14v1q-2 19 -11 34q-15 23 -38 23zM221 390q11 -1 20 -16q6 -11 8 -24q1 -5 1 -10q-2 -42 -58 -89q-2 8 -2 10q-6 45 1 83q4 21 11 33
q8 11 19 13zM122 165q11 -36 28 -68q26 -48 62 -80q-9 -5 -15 -8q-29 -10 -60 -6q-33 4 -49 23q-12 14 -10 41q1 21 11 50q9 23 33 48z" />
    <glyph glyph-name="quotesingle" unicode="'" horiz-adv-x="360" 
d="M159 540q-4 0 -6.5 -3t-2.5 -7q0 -26 -3.5 -54t-9 -61.5t-7.5 -53.5q0 -4 2.5 -7t5.5 -4q12 -2 44 -5t42 -5q4 0 7.5 2t4.5 6q3 17 11.5 52t14 63t8.5 54q1 3 0 6l-1 1v0q-1 4 -5 5q-14 10 -47 9q-38 -2 -55 2h-3z" />
    <glyph glyph-name="parenleft" unicode="(" horiz-adv-x="360" 
d="M224 514q-14 0 -26 -4q-48 -29 -90 -148q-38 -109 -27 -195q9 -77 58 -151t115 -124q2 -2 6 -2t7 2.5t3 6.5t-2 7l-1 1v0v1q-29 28 -48 56t-29 49.5t-14.5 52t-5 49t-0.5 55.5q1 88 32 175t84 127q4 3 4 7.5t-3 7.5q-27 27 -63 27z" />
    <glyph glyph-name="parenright" unicode=")" horiz-adv-x="360" 
d="M81 487q-3 -3 -2.5 -7.5t3.5 -7.5q54 -40 85 -127t31 -175q1 -37 0.5 -55.5t-5.5 -49t-14.5 -52t-29 -49.5t-47.5 -57v0l-1 -1h-1v-1l-1 -1v-1q-2 -7 3.5 -11t11.5 0v0h1q66 50 114.5 124t58.5 151q10 86 -28 195q-36 104 -85 145q-23 10 -50 3t-44 -23z" />
    <glyph glyph-name="asterisk" unicode="*" 
d="M235 355q-10 0 -10 -10q0 -27 -9 -131q-65 56 -91 83q-3 3 -8 3q-10 0 -10 -10q0 -4 3 -7q28 -28 95 -86q-87 -7 -125 -7q-10 0 -10 -10t10 -10q36 0 109 6q-61 -51 -87 -77q-3 -3 -3 -7q0 -10 10 -10q4 0 7 3q27 27 97 85q-8 -95 -8 -135q0 -10 10 -10t10 10q0 40 8 138
q84 -71 102 -90q3 -3 8 -3q10 0 10 10q0 4 -3 7q-20 21 -95 84q98 9 125 9q10 0 10 10t-10 10q-29 0 -130 -9q81 67 101 87q3 3 3 8q0 10 -10 10q-4 -1 -7 -4q-20 -19 -100 -86q8 101 8 129q0 10 -10 10z" />
    <glyph glyph-name="plus" unicode="+" 
d="M250 350h-2q-7 -2 -27.5 -5t-28.5 -5q-9 -2 -8 -11q4 -44 3 -133q-73 -6 -107 -6q-4 0 -7 -3t-3 -7t3 -7t7 -3q36 0 107 6q-1 -73 3 -117q1 -9 10 -9h58q5 -1 8 2l1 1q1 0 1 1v0q3 4 2 9q-6 43 -5 119q89 8 115 8q4 0 7 3t3 7t-3 7t-7 3q-28 0 -115 -8q2 91 -5 139
q-1 9 -10 9z" />
    <glyph glyph-name="comma" unicode="," horiz-adv-x="300" 
d="M130 110q-15 0 -31 -12q-19 -14 -28 -34q-9 -19 -7 -41q3 -27 21 -37q27 -14 58 2q13 6 24 17q-18 -72 -109 -95q-5 -1 -7 -4.5t-1 -8t4.5 -6.5t7.5 -1q113 28 128 129q1 10 0 22v1q-2 16 -9 30q-14 30 -39 37q-6 1 -12 1z" />
    <glyph glyph-name="hyphen" unicode="-" 
d="M357 223h-1q-44 -4 -134 -3t-136 -3q-9 -1 -9 -10v-58q-1 -5 2 -8q0 -1 1 -1q0 -1 1 -1q4 -3 9 -2q44 6 137.5 4.5t140.5 5.5q5 1 7.5 4.5t1.5 7.5q-2 7 -5 27.5t-5 28.5t-10 8z" />
    <glyph glyph-name="period" unicode="." horiz-adv-x="300" 
d="M130 110q-15 0 -31 -12q-19 -14 -28 -34q-9 -19 -7 -41q3 -27 21 -37q27 -14 58 2q17 8 31 24q4 -4 9.5 -1.5t6.5 8.5q1 10 0 22v1q-2 16 -9 30q-14 30 -39 37q-6 1 -12 1z" />
    <glyph glyph-name="slash" unicode="/" horiz-adv-x="380" 
d="M260 570q-8 0 -10 -8q-27 -141 -47 -239t-58 -243t-74 -236q-2 -4 -0.5 -8t5.5 -5q16 -7 33 -3q14 4 28 2q8 -2 12 5v1v0l1 1q86 216 180 701v1v1q0 7 -6 9q-22 15 -31 18t-33 3z" />
    <glyph glyph-name="zero" unicode="0" 
d="M204 414h-2q-12 0 -24 -4l-4 -2v0v0h-1q-53 -45 -89 -123q-42 -91 -23 -159q15 -54 71 -96q55 -42 108 -40v0q62 0 109 82q41 73 41 148q0 55 -29 108q-33 62 -81 62q-9 0 -10 -9q0 4 -3 6q-27 27 -63 27zM270 379q1 -9 10 -9q36 0 64 -51q26 -49 26 -99q0 -69 -39 -138
q-41 -72 -91 -72v0q-35 0 -61 40q-24 37 -29 81q-7 65 25 131t91 110q3 3 4 7z" />
    <glyph glyph-name="one" unicode="1" horiz-adv-x="280" 
d="M219 410h-1l-99 -20q-2 0 -4 -1l-1 -1v0l-1 -1l-40 -40q-3 -3 -3 -7t3 -7t7 -3t7 3l23 23q0 -227 -9 -344l-22 -2q-4 -1 -6.5 -4t-2 -7t3.5 -6.5t7 -2.5q33 5 83 1.5t77 -1.5q4 0 6.5 3.5t2.5 7.5t-3.5 6.5t-7.5 2.5q-9 -1 -19 -1q0 27 6 172t4 219q0 4 -3 7t-8 3z" />
    <glyph glyph-name="two" unicode="2" 
d="M174 405q-22 -11 -32.5 -18.5t-18.5 -19.5q-22 -32 -23 -55q-1 -21 13 -42q14 -22 34 -27q19 -6 41 5q21 10 31 27q1 3 3 7q2 -10 2 -18q6 -59 -7 -118h-1l-1 1q-32 27 -66 25q-31 -2 -59 -30q-27 -27 -30 -59q-2 -21 12 -42q14 -20 33 -28q43 -27 99 -2q35 15 64 44
q18 -22 31 -35q30 -29 61 -30q4 0 7 2.5t3 7t-2.5 7.5t-7.5 3q-22 1 -47 25q-13 12 -31 35q35 40 48 87q9 40 10 81t-13 82t-40 67q-27 27 -59 29q-26 2 -54 -11zM192 364q15 -11 18 -35q3 -23 -9 -44q-7 -13 -21 -19q-16 -7 -27 -4q-13 3 -23 19q-10 15 -10 31
q0 17 13.5 35t29.5 24q15 4 29 -7zM154 152h4q22 -1 44 -20q3 -2 9 -8q0 -1 -1 -1q-17 -57 -36 -73q-14 -11 -31 -17t-29 -2l-1 1q-14 5 -24 20t-9 29q2 25 24 47.5t47 23.5h3z" />
    <glyph glyph-name="three" unicode="3" 
d="M217 411h-11l-13 -1q-1 0 -2 -1q-68 -10 -100 -64q-2 -3 -1 -7.5t4.5 -6.5t8 -1t6.5 5q30 51 97 56q16 0 28 -9q18 -13 21 -43q4 -39 -12 -62q-11 -17 -32 -25q-3 -1 -7 -2h-3h-1h-8v0h-2q-3 -1 -6 -1q-2 -1 -4 -1l-4 -4q-3 -5 0 -10q2 -4 7 -5q1 -1 3 -1q7 -1 17 1
q5 -1 11 -5q11 -7 23 -18q27 -25 33 -49q12 -43 -11 -83q-25 -44 -79 -44q-29 0 -46 9q-19 10 -36 36q0 2 -2 3q-16 33 -7 59q2 3 0.5 7t-5.5 5.5t-8 -0.5t-5 -6q-18 -47 24 -99q42 -54 105 -54q71 0 130 44q65 46 60 107q-2 28 -27 51q-21 19 -54 33q-18 7 -39 13
q43 11 65 32q32 30 16 77q-8 25 -42 43q-32 17 -72 21q-10 1 -20 0z" />
    <glyph glyph-name="four" unicode="4" 
d="M140 410q-7 0 -10 -7q-3 -11 -21.5 -53t-27.5 -68q-13 -40 -12 -69q1 -38 24 -60q20 -19 57 -21q30 -1 67 9q12 4 23 8q0 -88 -9 -125q-2 -4 0 -8q0 -1 0.5 -1t0.5 -1l1 -1q2 -3 6 -3q20 -5 44 -10q51 -10 77 -10q4 0 7 3t3 7q0 63 -5 171q-3 59 5 168q0 6 -5 9
q-13 9 -33 10q-9 0 -21 -1q-50 -7 -51 -7q-8 0 -10 -8q-10 -51 -10 -170v-2q-14 -5 -28 -9q-34 -10 -61 -9q-30 1 -44 15q-17 17 -18 46q-1 26 11 63q8 24 26.5 65.5t22.5 55.5q2 5 -1 9t-8 4z" />
    <glyph glyph-name="five" unicode="5" 
d="M232 416h-9q-42 0 -83 -6q-5 0 -7 -3l-1 -1l-1 -1v0v-1q-13 -25 -26 -52q-11 -25 -17 -41q-9 -23 -8 -32q2 -24 30 -44q12 -8 56 -30q39 -19 65 -38.5t40 -50.5q23 -52 18 -86q-5 -26 -28 -46q-13 -9 -25 -15q-20 -9 -47 -3.5t-42 21.5q-20 20 -26 53t8 55q2 3 1 7.5
t-4.5 6.5t-7.5 1t-7 -5q-17 -28 -9 -69q7 -38 31 -63q20 -21 52 -27.5t59 5.5q9 4 17 9q3 0 5 2q3 2 7 5q46 32 77 83q46 75 19 134q-16 36 -45 53.5t-72 30.5q-47 14 -62 21q-29 14 -41 36q-7 12 -4 43q1 11 3 23q51 6 93 5q41 -1 59 -9q9 -4 11.5 -9.5t-0.5 -13.5
q-2 -4 -0.5 -8t5.5 -5.5t8 0t5 5.5q7 17 1 30q-6 12 -21 19q-23 10 -67 11h-10z" />
    <glyph glyph-name="six" unicode="6" 
d="M196 389q-41 -16 -75 -50t-50 -75q-18 -43 -15.5 -96t25.5 -93q23 -38 59 -62q42 -28 81 -23q53 6 98 51q14 14 25 30v1q14 18 21 43q4 12 5 23v1v0v1q4 36 -19 72q-24 39 -59 48q-34 9 -68.5 -8t-51.5 -55q1 30 8 61q21 90 65 113q35 19 55 20q37 -2 63 -28q2 -2 4 -3
q4 -1 9 1q2 2 4 5q2 6 -3 11q-34 34 -77 34q-45 1 -104 -22zM267 243q11 0 21 -3q27 -7 46 -38t16 -61q-1 -9 -4 -18q-6 -21 -19 -41q-5 -6 -10 -10q-23 -21 -57 -22q-20 -1 -40 20q-17 17 -31 44q-15 30 -16 69q3 -4 8.5 -3t7.5 6q11 27 32.5 41.5t45.5 15.5z" />
    <glyph glyph-name="seven" unicode="7" 
d="M255 402q-31 0 -73 -8q-70 -14 -102 -14q-4 0 -7 -3t-3 -7t3 -7t7 -3q34 0 106 14q52 10 90 7q-16 -41 -41 -109t-37 -93q-38 -74 -95 -122q-2 -2 -3 -5q-1 -5 1 -7q7 -7 15 -13.5t22 -16t16 -11.5q34 -24 56 -24q3 0 6 2q23 15 39.5 48t36.5 92q5 14 22 67.5t32 98
t33 88.5q2 4 0.5 7.5t-5.5 5.5q-14 7 -43 10q-30 -1 -76 3z" />
    <glyph glyph-name="eight" unicode="8" 
d="M246 417q-41 0 -80 -28q-22 -15 -39.5 -39t-26.5 -47q-8 -24 11 -48q11 -13 42 -36q-43 -44 -61 -83q-27 -56 -1 -100v-1q1 -2 2 -3l2 -2q24 -36 65 -42q57 -8 104 13q57 25 89 70q42 56 16 113q-11 25 -31.5 44t-36.5 27.5t-43 20.5q-2 0 -4.5 1.5t-3.5 1.5q23 18 56 43
t40 30q3 3 3.5 7t-2 7t-6.5 3.5t-7 -1.5q-5 -4 -42 -31.5t-63 -48.5q-17 8 -27 15q-28 19 -33 40q-3 20 9 30q20 17 48.5 22.5t49.5 -4.5q3 -2 7 -0.5t6 5t0.5 7.5t-5.5 6q-20 8 -38 8zM169 207q62 -47 82 -91q22 -49 10 -68t-39 -31t-48 -9q-45 6 -64 35q-1 1 -1 2
q-21 35 1 83q17 36 59 79z" />
    <glyph glyph-name="nine" unicode="9" 
d="M252 397h-4q-11 -1 -23 -3q-37 -8 -80 -35v-1h-1l-1 -1q-26 -17 -44 -46.5t-19 -60.5q-1 -26 10 -51q13 -29 36 -38q32 -13 81 8q38 16 60 38q3 3 3 7t-3 7t-7 3t-7 -3q-19 -19 -54 -34q-41 -18 -65 -8q-16 7 -26 28q-9 21 -8 43q1 26 16.5 52.5t38.5 38.5q33 17 68 12
q13 -1 19 -9q54 -70 22 -174q-11 -36 -40.5 -97.5t-32.5 -68.5q-3 -6 2 -11q17 -17 53 -30q45 -17 70 -1q3 2 4 6q6 40 25.5 118t24.5 114q9 60 0 100q-13 50 -54 78q-28 19 -64 19z" />
    <glyph glyph-name="colon" unicode=":" horiz-adv-x="360" 
d="M190 370q-15 0 -31 -12q-19 -14 -28 -34q-9 -19 -7 -41q3 -27 21 -37q27 -14 58 2q17 8 31 24q4 -4 9.5 -1.5t6.5 8.5q1 10 0 22v1q-2 16 -9 30q-14 30 -39 37q-6 1 -12 1zM190 170q-15 0 -31 -12q-19 -14 -28 -34q-9 -19 -7 -41q3 -27 21 -37q27 -14 58 2q17 8 31 24
q4 -4 9.5 -1.5t6.5 8.5q1 10 0 22v1q-2 16 -9 30q-14 30 -39 37q-6 1 -12 1z" />
    <glyph glyph-name="semicolon" unicode=";" horiz-adv-x="360" 
d="M190 370q-15 0 -31 -12q-19 -14 -28 -34q-9 -19 -7 -41q3 -27 21 -37q27 -14 58 2q17 8 31 24q4 -4 9.5 -1.5t6.5 8.5q1 10 0 22v1q-2 16 -9 30q-14 30 -39 37q-6 1 -12 1zM190 110q-15 0 -31 -12q-19 -14 -28 -34q-9 -19 -7 -41q3 -27 21 -37q27 -14 58 2q13 6 24 17
q-18 -72 -109 -95q-5 -1 -7 -4.5t-1 -8t4.5 -6.5t7.5 -1q113 28 128 129q1 10 0 22v1q-2 16 -9 30q-14 30 -39 37q-6 1 -12 1z" />
    <glyph glyph-name="less" unicode="&#x3c;" horiz-adv-x="360" 
d="M310 470q-3 0 -5 -1q-71 -41 -172 -141q-25 -20 -44 -48.5t-19 -59.5v-2q10 -47 38 -97t80 -119.5t64 -87.5q2 -3 6 -4t7 1q16 10 26.5 20.5t20 23t15.5 17.5v1v0q4 3 3.5 7.5t-4.5 7.5q-17 26 -52.5 70.5t-61.5 77.5t-50 78t-32 84q14 12 57 51t72 62.5t56 39.5
q7 4 5 12t-10 7z" />
    <glyph glyph-name="equal" unicode="=" 
d="M357 303h-1q-44 -4 -134 -3t-136 -3q-9 -1 -9 -10v-58q-1 -5 2 -8q0 -1 1 -1q0 -1 1 -1q4 -3 9 -2q44 6 137.5 4.5t140.5 5.5q5 1 7.5 4.5t1.5 7.5q-2 7 -5 27.5t-5 28.5t-10 8zM357 203h-1q-44 -4 -134 -3t-136 -3q-9 -1 -9 -10v-58q-1 -5 2 -8l1 -1q0 -1 1 -1
q4 -3 9 -2q44 6 137.5 4.5t140.5 5.5q5 1 7.5 4.5t1.5 7.5q-2 7 -5 27.5t-5 28.5t-10 8z" />
    <glyph glyph-name="greater" unicode="&#x3e;" horiz-adv-x="360" 
d="M140 470q-3 0 -5 -1q-16 -10 -26.5 -20t-20 -22.5t-14.5 -18.5q-2 -1 -3 -3v0q-2 -4 -1 -7.5t4 -5.5q17 -26 52.5 -70.5t61.5 -77.5t50 -78t32 -84q-101 -104 -185 -153q-4 -2 -5 -6t1 -8t6 -5t8 1q71 41 172 141q25 20 44 48.5t19 59.5v2q-10 47 -38 97t-80 119.5
t-64 87.5q-3 4 -8 4z" />
    <glyph glyph-name="question" unicode="?" 
d="M206 409q-53 -13 -82 -45.5t-29 -74.5q0 -38 32 -74q34 -38 71 -33q5 0 7.5 3.5t2 7.5t-4 6.5t-7.5 2.5q-27 -4 -54 26t-27 61q0 36 24 63t73 38q2 0 7 0.5t14.5 -3t19.5 -8t20.5 -16t17.5 -27.5q14 -30 -5 -76q-12 -30 -52 -93q-42 -65 -55 -96q-23 -55 -8 -95
q1 -4 6 -5q5 -4 13.5 -2.5t13 2.5t12.5 4.5t12 4.5q6 1 15.5 3.5t15 4.5t8.5 5q4 4 3 10q-13 36 7 85q11 28 50 91q37 61 47 93q18 53 -5 93q-23 39 -56 50q-18 5 -32 5q-41 -2 -75 -11zM275 -52q-18 -1 -39 -9q-19 -7 -33 -22q-18 -20 -13 -40q6 -19 32 -26q19 -4 40 -1
q16 3 29 11q18 12 19 28q0 3 -1 6q9 14 5.5 27.5t-14.5 19.5q-9 6 -22 6h-3z" />
    <glyph glyph-name="at" unicode="@" 
d="M248 371q-43 0 -87 -29q-48 -31 -70 -78q-19 -39 -13 -88.5t34 -82.5q29 -32 76 -42t94 -1q16 3 33 14.5t26.5 21t25.5 27.5q4 3 3.5 7.5t-3.5 7.5t-7.5 2.5t-6.5 -3.5q-14 -17 -23.5 -26.5t-23.5 -18.5t-28 -12q-40 -9 -83.5 0.5t-66.5 36.5q-24 27 -29.5 71.5
t10.5 77.5q20 41 63 70q45 29 87 24q31 -4 59 -31.5t32 -59.5t-9 -69q-5 -14 -17.5 -27t-23.5 -8q-18 7 -10 63q0 4 2 16t2.5 16.5t1.5 14.5t0 15.5t-2.5 12.5t-5 12.5t-8.5 9.5q-4 3 -9.5 4.5t-10 1.5t-12 -1.5t-11 -2.5t-11.5 -4t-9 -3q-48 -17 -74.5 -64t-11.5 -89
q10 -31 44 -46q36 -16 69 0q7 3 6 10q12 -9 29 -11q23 -2 43 14q17 14 30 40q24 50 18 97q-5 39 -38 72q-32 33 -71 37q-6 1 -13 1zM213 286q12 5 13.5 -13.5t-1 -49.5t-1.5 -42q4 -31 14 -47q2 -2 3 -4q-3 0 -5 -1q-25 -12 -52 0t-35 34q-12 37 11 74q24 38 53 49z" />
    <glyph glyph-name="A" unicode="A" horiz-adv-x="480" 
d="M320 530h-3q-76 -11 -100 -20q-1 -1 -2 -1l-1 -1l-1 -1q-30 -30 -67 -106q-33 -69 -56 -138q-23 -73 -39 -215t-21 -166q-1 -4 1.5 -7.5t6.5 -4.5t7.5 1.5t4.5 6.5q5 26 9 59t9 79.5t8 71.5q7 -2 15 -3t14.5 -1.5t16.5 -0.5h16l18 1l16 2l19 2l17 2l18 2l17 3q59 8 84 8
h14q4 -30 9 -77.5t10 -84t10 -63.5q1 -5 5 -7t9 0q12 5 31 15.5t34 17t31 6.5h1v0q5 1 7.5 5t1.5 8q-6 26 -22.5 167t-38 213t-43.5 125q-30 69 -57 97q-3 4 -7 5h-2zM218 482q66 -138 92 -225q17 -54 28 -134h-11q-27 0 -86 -8q-123 -17 -162 -7q12 91 31 149q21 68 54 136
q29 59 54 89z" />
    <glyph glyph-name="B" unicode="B" horiz-adv-x="480" 
d="M200 530q-73 0 -106 -22q-6 -4 -4 -11q13 -46 5 -157q-7 -89 -25 -198q-11 -64 -6 -117q7 -81 50 -113q35 -26 82 -17q13 3 28.5 8t39.5 13.5t39 13.5v1h1q90 30 130 104.5t16 147.5q-7 21 -26.5 40t-43.5 31q-8 4 -18 7q74 83 48 162q-18 52 -54 74q-45 27 -118 13
q-4 -1 -6.5 -4.5t-1.5 -7.5t4.5 -6.5t7.5 -1.5q66 13 103 -10q31 -18 45 -63q13 -38 -2.5 -77t-44.5 -71q-1 0 -2 -1.5t-2 -1.5h-7q-27 0 -40 -20q-5 -7 -6 -12q-3 -7 -1 -13q2 -4 7 -6q3 -1 6 -1q5 0 10 3q17 7 38 28q13 -3 25 -9q20 -10 37.5 -27t21.5 -32
q22 -65 -14 -132.5t-119 -94.5q-19 -5 -42 -5q-46 0 -68 22q-13 13 -12 57q0 46 15 114q16 73 28 218q6 72 4 115q0 24 -3 38q-3 10 -5 13q-7 8 -14 8z" />
    <glyph glyph-name="C" unicode="C" horiz-adv-x="480" 
d="M360 537q-22 0 -43 -8q-59 -20 -108.5 -57t-77.5 -87q-50 -91 -62.5 -196t22.5 -203q13 -35 42.5 -62.5t64.5 -33.5q109 -17 229 103q28 30 61 82q3 3 2 7t-4.5 6.5t-7.5 1.5t-6 -5q-35 -56 -59 -78q-26 -23 -65 -41q-51 -22 -86 -16q-16 3 -31 15.5t-22 28.5
q-60 143 30 382q34 89 85 115q13 7 27 7q15 1 23 -6q13 -11 16 -36v-56q0 -6 4.5 -8.5t9.5 -0.5q9 5 53 16q15 3 22 9q11 9 11 24q0 31 -30 57q-21 18 -56 32q-20 8 -44 8z" />
    <glyph glyph-name="D" unicode="D" horiz-adv-x="480" 
d="M258 523q-30 0 -55 -11l-3 3q-4 5 -10 5q-72 0 -105 -22q-7 -4 -5 -11q15 -50 20 -187q3 -68 -3.5 -195.5t-6.5 -164.5q0 -4 3 -7q14 -14 51 -30q17 -7 31 -12q4 -2 8 -1l1 1v0q4 1 5 5q15 23 23 73q8 44 10 110q4 79 1 239q-2 69 -6 121q-3 34 -7 52v1l-1 1
q54 24 125 -7q34 -14 60 -38t37 -52q22 -60 14 -139t-40 -155q-33 -77 -81 -123q-51 -49 -104 -49q-4 0 -7 -3t-3 -7t3 -7t7 -3q61 0 118 55q50 49 85 130q34 79 42 160t-16 149q-12 32 -41 58t-66 42q-43 19 -84 19z" />
    <glyph glyph-name="E" unicode="E" horiz-adv-x="480" 
d="M440 550h-2q-26 -7 -105.5 -11.5t-125.5 -26.5l-3 3q-4 5 -10 5q-72 0 -105 -22q-7 -4 -5 -11q15 -50 20 -187q3 -68 -3.5 -195.5t-6.5 -164.5q0 -4 3 -7q9 -9 28 -14q14 -4 33 -6q21 -3 39 -3h5v0q2 1 3 1v1q38 18 150 18q54 0 77 3q39 4 55 20q5 5 2.5 11t-9.5 6
q-4 0 -7 -3q-11 -11 -44 -15q-21 -2 -74 -2q-101 0 -140 -13q9 47 13 154q2 70 1 149q57 10 151 10q4 0 7 3t3 7t-3 7t-7 3q-94 0 -152 -10q0 31 -1 58q-3 82 -7 121q-3 34 -6 52q0 1 -1 2q42 20 120.5 25t108.5 12q9 2 8 11t-10 9z" />
    <glyph glyph-name="F" unicode="F" horiz-adv-x="480" 
d="M440 550h-2q-39 -10 -113.5 -10t-125.5 -10q-62 0 -110 -32q-7 -4 -5 -11q7 -22 12 -82q4 -41 8 -106q6 -98 6 -379q0 -4 3 -7t7 -3q53 3 121 20q4 0 7 3v0v1v1q3 3 2 7q0 29 -8 155q-3 50 -8 116q19 2 70 9.5t76 7.5q4 0 7 3t3 7t-3 7t-7 3q-28 0 -80.5 -8t-66.5 -9
q-4 49 -6 86q-2 19 -3 66.5t-2 59.5q-1 36 -4 54q-1 8 -2 14q41 7 113 7t113 10q9 2 8 11t-10 9z" />
    <glyph glyph-name="G" unicode="G" horiz-adv-x="480" 
d="M340 537q-22 0 -43 -8q-59 -20 -108.5 -57t-77.5 -87q-46 -82 -58.5 -176t18.5 -183q13 -36 42.5 -63.5t65.5 -32.5q45 -6 85 16q34 18 83 67l1 1q7 7 15 17q4 -28 5.5 -65.5t3.5 -53.5q1 -4 9 -5q4 0 11 2q6 2 25 9q3 2 12.5 5t13.5 5q2 2 11 2t10 1h1q6 3 5 10
q8 73 -2 149t-39 134q-3 6 -9 6q-54 0 -82 -20q-5 -1 -7 -5q-8 -7 -12 -14q-5 -10 -9 -29q-1 -4 1.5 -7.5t6.5 -4.5t7.5 1.5t4.5 6.5q2 13 5 20q16 -65 25 -119q-17 -22 -27 -32q-19 -18 -44.5 -29.5t-46.5 -7.5q-16 2 -31 15t-22 29q-52 126 30 342q34 89 85 115
q27 13 51 0q6 -3 11.5 -10t8.5 -12t8.5 -17.5t7.5 -15.5q3 -6 9 -6q4 0 8.5 -0.5t10.5 -1.5t10 -2q21 -2 35 5q6 3 6 9q0 31 -30 57q-21 18 -56 32q-20 8 -44 8z" />
    <glyph glyph-name="H" unicode="H" horiz-adv-x="480" 
d="M349 518q-7 -4 -5 -11q7 -22 12 -82q4 -41 8 -106q2 -32 3 -69q-25 -1 -75.5 -9t-78.5 -10q-3 48 -6 88q-2 19 -3 66.5t-2 59.5q-1 36 -4 54q-1 12 -4 19q-1 4 -4 7q-4 5 -10 5q-63 0 -111 -32q-7 -4 -5 -11q7 -22 12 -82q4 -41 8 -106q6 -98 6 -379q0 -4 3 -7t7 -3
q26 0 77 10q23 5 44 10q4 0 7 3v0v1v1q3 3 2 7q0 29 -8 155q-4 53 -8 114q30 2 80.5 10t73.5 9q2 -71 2 -290q0 -4 3 -7t7 -3h78q5 -1 8 2h1q0 1 0.5 1t0.5 1v0q3 3 2 8q0 29 -8 155q-7 107 -15 222q-2 19 -3 66.5t-2 59.5q-1 36 -4 54q-1 12 -4 19q-1 4 -4 7q-4 5 -10 5
q-14 0 -22.5 -1t-25.5 -5t-23 -6z" />
    <glyph glyph-name="I" unicode="I" horiz-adv-x="320" 
d="M100 520q-4 0 -7 -3t-3 -7t3 -7t7 -3q23 0 44 -1q-3 -16 -8 -74q-2 -26 -9 -106q-9 -117 -17 -234q-9 -122 -10 -157q-10 1 -19 2q-4 0 -7 -2t-3.5 -6.5t1.5 -7.5t7 -4q77 -11 203 10q4 1 6.5 4t2 7t-3.5 6.5t-7 2.5h-2q-21 -4 -38 -6q0 222 10 365q10 144 20 178v2
q14 -4 27 -9q4 -1 7.5 1t5 6t-0.5 7.5t-6 5.5q-91 30 -203 30z" />
    <glyph glyph-name="J" unicode="J" 
d="M360 510q-112 0 -203 -30q-4 -2 -6 -5.5t-0.5 -7.5t5 -6t7.5 -1q13 5 25 8q-1 -17 1 -47q3 -35 10 -85q12 -86 28 -158q21 -93 21 -128q1 -60 -36 -81q-29 -18 -68 -2q-28 12 -45 36q-6 10 -9 20h-1v1q-7 20 -4 40q3 22 18 26q4 2 6 5.5t0.5 7.5t-5 6t-7.5 1
q-27 -9 -32 -43q-4 -24 5 -49v-1l1 -1q4 -12 11 -23q21 -35 57 -61q52 -36 102 -32q53 4 82 42q24 32 31 84q9 61 -7 156q-37 218 -37 307q24 1 50 1q4 0 7 3t3 7t-3 7t-7 3z" />
    <glyph glyph-name="K" unicode="K" horiz-adv-x="480" 
d="M420 530q-3 0 -6 -2q-13 -9 -25 -23t-26.5 -35t-23 -34.5t-26.5 -43.5t-24 -39q-36 -61 -60 -88q-11 -13 -21 -21q-3 40 -5 75q-2 19 -3 66.5t-2 59.5q-1 36 -4 54q-1 12 -4 19q-1 4 -4 7q-4 5 -10 5q-63 0 -111 -32q-7 -4 -5 -11q7 -22 12 -82q4 -41 8 -106
q6 -98 6 -379q0 -4 3 -7t7 -3q26 0 77 10q23 5 44 10q4 0 7 3v0v1v1q3 3 2 7q0 29 -8 155q-4 55 -8 124q14 9 31 27q40 -23 103 -111q3 -4 22 -31t26 -36.5t23 -30.5t29.5 -36t28.5 -30q3 -3 7 -3t7 3t3 7t-3 7q-12 12 -24.5 26t-21.5 25.5t-22 28.5t-19.5 26.5t-20.5 29
t-18 25.5q-32 45 -56.5 72.5t-50.5 43.5q21 26 53 78q5 9 17 29.5t18 30t17 27t18 27.5t16 22t17 20t16 14q6 4 3.5 11t-9.5 7z" />
    <glyph glyph-name="L" unicode="L" horiz-adv-x="480" 
d="M96 520q-4 0 -7 -3t-3 -7t3 -7t7 -3q23 0 44 -1q-3 -16 -8 -74q-2 -26 -9 -106q-9 -117 -17 -234q-9 -121 -10 -156q-11 0 -19 1q-4 0 -7 -2t-3.5 -6.5t1.5 -7.5t7 -4q24 -3 83 2q19 1 117 12q160 17 203 6q4 -1 7.5 1t4.5 6.5t-1 8t-7 4.5q-23 5 -64 5q-44 -1 -145 -11
q-10 -1 -37 -4q0 218 10 359q10 144 20 178v2q14 -4 27 -9q4 -1 7.5 1t5 6t-0.5 7.5t-6 5.5q-91 30 -203 30z" />
    <glyph glyph-name="M" unicode="M" horiz-adv-x="560" 
d="M506 540q-11 0 -37 -5l-12 -3l-17 -2q-4 0 -7 -3q-1 -1 -2 -3q-41 -82 -83 -231q-17 -59 -27 -108q-3 -12 -5 -21q-25 78 -35.5 109.5t-36.5 94.5t-55 117l-4 4q-11 5 -21 6q-4 0 -8 -1q-11 -1 -27 -8q-38 -16 -49 -16q-8 0 -10 -8q-10 -51 -10 -280q0 -111 -1 -158
q-2 -74 -9 -101q-1 -5 2 -9v0q0 -1 0.5 -1t0.5 -1q5 -4 11 -1q18 4 43 9q49 10 73 10q4 0 7 3t3 7q0 66 -2.5 172t-3.5 163.5t4 168.5q16 -34 30.5 -66.5t27.5 -69t21.5 -60.5t22.5 -67.5t20 -63.5q3 -8 11.5 -7t8.5 10q0 14 10 60q11 49 27 107q34 120 68 199
q9 -63 12.5 -142t4 -131.5t-0.5 -150.5t-1 -132q0 -4 3 -7t7 -3q40 0 81 10q4 0 6 3h1v1v1q3 3 2 7q0 130 -10 327q-4 105 -10 171q-4 37 -7 60q-4 26 -8 34q-4 6 -9 6z" />
    <glyph glyph-name="N" unicode="N" horiz-adv-x="480" 
d="M460 530h-2h-78q-4 0 -7 -3t-3 -7q0 -264 -4 -350q-8 24 -22.5 72.5t-16.5 55.5q-25 82 -44 126q-28 62 -57 84v0l-1 1h-1q-33 21 -104 21q-8 0 -10 -8q-10 -50 -20 -299q-5 -122 -8 -172q-5 -81 -11 -107q-2 -5 0 -8v-1l1 -1l1 -1q2 -3 6 -3q20 -5 44 -10q51 -10 77 -10
q4 0 7 3t3 7q1 300 18 558q19 -22 36 -62q19 -43 44 -124q47 -154 55 -175q-6 -89 -19 -165q-1 -5 2 -8.5t8 -3.5q7 0 29 -5q26 -5 37 -5q6 0 9 6q4 8 8 35q2 23 5 62q3 52 8 174q10 262 20 310q1 5 -2 9v1h-1v0q-3 3 -7 3z" />
    <glyph glyph-name="O" unicode="O" horiz-adv-x="480" 
d="M256 529q-53 -20 -98 -58t-67 -87q-38 -83 -39 -179.5t39 -178.5q18 -37 53 -63.5t75 -32.5q47 -7 85.5 6t82.5 57l1 1q25 25 50.5 65.5t31.5 78.5q14 94 -11 207q-25 115 -72 162q-2 2 -4 3q-3 2 -7.5 8.5t-8.5 8.5q-19 11 -57 11q-30 0 -54 -9zM320 472q55 -2 83 -29
q2 -2 4 -2q20 -44 33 -100q24 -110 10 -199q-5 -33 -30 -73t-47 -62q-16 -16 -49 -20q-32 -5 -61 3q-17 4 -31.5 16.5t-22.5 27.5q-37 77 -40 170.5t30 171.5q14 33 42.5 60t60.5 34q9 2 18 2z" />
    <glyph glyph-name="P" unicode="P" horiz-adv-x="480" 
d="M268 537q-2 0 -6 -1q-31 0 -63 -6q-41 0 -102 -20q-6 -2 -7 -8q-10 -51 -10 -300q0 -121 -1 -171q-2 -81 -9 -108q-1 -5 2 -9v0q0 -1 0.5 -1t0.5 -1q5 -4 11 -1q18 4 43 9q49 10 73 10q4 0 7 3t3 7q0 66 -3 191t-3 191t5 189q83 14 146 -6q72 -22 85 -77q9 -36 0 -80.5
t-34 -79.5q-60 -84 -164 -58q-4 1 -7.5 -1t-4.5 -6.5t1 -8t7 -4.5q59 -15 106.5 4.5t77.5 61.5q28 39 38 88t0 88q-17 67 -99 92q-41 13 -93 13z" />
    <glyph glyph-name="Q" unicode="Q" horiz-adv-x="480" 
d="M289 512q-72 0 -136 -65l-1 -1q-25 -25 -50.5 -65.5t-31.5 -79.5q-11 -75 3.5 -149t59.5 -119q3 -3 7 -3t7 3t3 7t-3 7q-40 40 -53.5 110.5t-3.5 141.5q5 32 30 72t47 62q20 20 51 32q35 13 59 5q22 -7 38 -32t25 -56q15 -56 20 -110t-6 -111t-42 -95q-11 -14 -23 -27
q-26 11 -49 11q-26 0 -49 -11q-14 -6 -21.5 -15t-9.5 -21v-6q2 -12 10 -21q7 -9 21 -15q21 -9 48 -11q58 -3 108 28q7 -6 9 -7q43 -35 55 -43q30 -20 50 -18q4 0 7 3.5t2.5 7.5t-4 7t-7.5 2q-13 -1 -37 15q-11 7 -53 41q-1 1 -2.5 2t-2.5 2q14 11 24 24q65 84 83.5 198
t-22.5 212q-15 35 -51.5 58t-76.5 28q-17 2 -32 2zM240 30q15 0 34 -7q-28 -30 -47 -36q-11 -4 -28.5 2t-17.5 15q-1 8 18 17t41 9z" />
    <glyph glyph-name="R" unicode="R" horiz-adv-x="480" 
d="M303 501h-7q-45 -1 -97 -11q-42 0 -102 -20q-6 -2 -7 -8q-10 -51 -10 -280q0 -111 -1 -158q-2 -74 -9 -101q-1 -5 2 -9v0q0 -1 0.5 -1t0.5 -1q5 -4 11 -1q18 4 43 9q49 10 73 10q4 0 7 3t3 7q0 67 -3 181t-3 172t5 179q83 15 139 6q34 -6 54 -20q22 -15 28 -40
q7 -26 -22 -62q-25 -32 -70 -65q-40 -28 -73 -42q-1 0 -2 -1h-1l-5 5q-4 3 -7 4q-5 1 -10 -1q-6 -3 -10 -13q-3 -9 3 -15q5 -5 13 -5q3 0 7 1q4 -6 4 -7q6 -10 22 -43t27 -54q38 -70 73 -106q50 -51 102 -44q5 1 7 4t1.5 7.5t-3.5 6.5t-7 2q-43 -6 -86 38q-33 34 -69 102
q-11 19 -27 52.5t-22 44.5l-1 1l-1 3q34 14 76 44q48 34 75 69q34 44 26 78q-8 33 -36 52q-24 17 -62 23q-23 4 -49 4z" />
    <glyph glyph-name="S" unicode="S" horiz-adv-x="480" 
d="M310 486q-68 -1 -124 -37q-38 -24 -59.5 -58.5t-26.5 -69.5q-4 -24 28 -62q20 -24 70 -72q37 -35 56 -53.5t43 -47.5t34 -50q24 -54 19 -96q-5 -39 -36 -62q-16 -12 -42 -11q-13 0 -26 3q-2 1 -5 1q-40 11 -75 37q-43 37 -65 85q-12 26 -11 46q1 21 16 33q3 3 3.5 7t-2 7
t-6.5 3.5t-7 -1.5q-23 -18 -24 -48q-1 -25 13 -55q23 -52 70 -92v-1h1q39 -33 92 -43t99 12q60 33 94 106q37 78 10 137q-5 11 -12 21.5t-18 21t-19 17.5t-24.5 17.5t-23.5 15.5t-27 16.5t-25 15.5q-29 17 -46 29t-37.5 29t-32 36t-14.5 39q-3 14 6.5 36.5t20.5 33.5
q22 23 80.5 30.5t97.5 -11.5q24 -13 34 -27q13 -18 2 -40q-2 -3 -0.5 -7t5 -6t7.5 -0.5t6 5.5q16 32 -3 59q-13 18 -41 34q-33 18 -75 17z" />
    <glyph glyph-name="T" unicode="T" horiz-adv-x="480" 
d="M451 520h-6q-34 0 -163 -13q-161 -15 -204 -8q-4 0 -7.5 -2.5t-4.5 -6.5t1.5 -7.5t6.5 -3.5q41 -7 146 2q0 -211 -10 -352q-10 -144 -20 -178v-1q-13 4 -27 8q-2 1 -4 1q-8 -1 -9 -9t7 -11q91 -30 203 -30q4 0 7 2.5t3 7t-3 7.5t-7 3q-23 0 -44 1q3 15 8 74q2 21 9 106
q10 122 17 228q9 123 10 156q92 9 119 5q4 -1 7 1.5t3.5 6.5t-1.5 7.5t-7 4.5q-12 1 -30 1z" />
    <glyph glyph-name="U" unicode="U" horiz-adv-x="480" 
d="M180 530q-73 0 -106 -22q-4 -3 -4 -8v-420q0 -59 37 -107q48 -63 133 -63q28 0 53.5 11t41 24.5t29.5 31t18 25.5t7 13v0q20 38 34 83t20 82t8.5 89t2 82.5t-2.5 85t-3 73.5q0 4 -3 7t-7 3t-7 -3t-3 -7q1 -19 2.5 -74.5t2 -84.5t-1.5 -80.5t-8 -87.5t-19 -79.5t-33 -78.5
v0v0q-17 -32 -47.5 -53.5t-63.5 -21.5q-36 0 -54 34q-16 33 -16 96q0 15 2 54t5 95.5t5 97.5q3 88 1 135q-1 29 -4 44q-2 9 -5 15q-5 9 -14 9z" />
    <glyph glyph-name="V" unicode="V" horiz-adv-x="480" 
d="M460 530q-9 0 -10 -9q-2 -26 -8 -111t-13 -149t-19 -119q-2 -11 -8 -42t-10 -47t-11.5 -38t-17.5 -36q-69 174 -108.5 291.5t-64.5 251.5q-2 8 -10 8q-43 0 -104 -41q-6 -3 -6 -9v-2v0q85 -339 181 -543q4 -7 12 -5q75 11 98 20q3 0 6 3v0l1 1q15 15 26 40.5t15.5 43.5
t11.5 54t9 46q12 56 19 121t13 150t8 110q0 5 -3 8t-7 3z" />
    <glyph glyph-name="W" unicode="W" horiz-adv-x="560" 
d="M460 560q-4 0 -7 -3t-3 -7q0 -36 1 -124.5t1 -140t-3 -125.5t-10 -134q-46 38 -75 106q-3 7 -7 18v2v3q8 82 6 127q0 11 -1 19q-1 9 -4 13q-3 6 -8 7h-4q-4 -1 -7 -4q-4 -4 -8 -13q-27 -66 5 -157q-7 -79 -18 -137q-6 -34 -13 -56l-4 -10q-51 132 -73 246t-38 291
q-1 9 -10 9q-61 0 -103 -20q-2 -1 -4 -3q-5 -5 -3 -11q18 -178 42 -300.5t79 -259.5v0l1 -1q4 -7 11 -5q75 11 98 20q3 0 6 3v0l1 1q8 9 16 34q7 23 14 58q8 44 15 103q34 -71 83 -106q-3 -22 -6 -41q-1 -5 2 -8.5t8 -3.5q7 0 29 -5q26 -5 37 -5q6 0 9 6q4 8 8 34q3 23 7 60
q6 66 10 171q10 197 10 327q1 4 -2 8v0v1l-1 1q-3 2 -6 2q-41 10 -81 10zM343 277q1 -25 -1 -65q-5 36 1 65z" />
    <glyph glyph-name="X" unicode="X" horiz-adv-x="480" 
d="M460 530q-5 0 -8 -4q-42 -56 -136 -210q-39 82 -70 133q-37 64 -60 79q-3 2 -6 2q-22 0 -56 -24q-8 -6 -24.5 -19t-23.5 -18q-5 -2 -6 -7t2 -9q1 0 1 -0.5t1 -0.5q65 -52 155 -231q5 -11 12 -26q-15 -24 -43 -72t-37 -63q-65 -110 -88 -133q-3 -3 -3 -7t3 -7t7 -3t7 3
q25 25 91 137l35 60l38 64q53 -112 119 -275q1 -9 9 -9q4 0 7 2q41 20 81 61q5 5 2 11q-74 184 -143 331q102 165 142 219q4 5 1 10q-4 6 -9 6z" />
    <glyph glyph-name="Y" unicode="Y" horiz-adv-x="480" 
d="M360 530q-3 0 -6 -2q-23 -15 -60 -79q-29 -49 -67 -127q-28 58 -65 107.5t-76 78.5q-3 2 -7 2q-7 0 -9 -7t4 -11q38 -29 76.5 -82t65.5 -112q-17 -55 -23 -190q-3 -78 -3 -208q0 -6 6 -9q10 -5 31 1q14 5 37 15q3 1 16.5 7.5t19.5 8.5q2 2 14 5t15 7q2 4 1 8
q-4 27 -13 79t-12 75q-7 60 7 125q8 16 36 74t43 86q44 85 75 110q7 5 4 7q-18 14 -41.5 21.5t-34 8t-34.5 1.5z" />
    <glyph glyph-name="Z" unicode="Z" horiz-adv-x="480" 
d="M360 510q-2 0 -4 -1q-98 -24 -152 -32q-45 -6 -74 -4q-32 3 -43 14q-3 3 -7 3t-7 -3t-3 -7t3 -7q17 -17 56 -20q31 -2 77 5q54 7 137 28q-75 -187 -134 -307q-90 -179 -155 -231q-1 -1 -2 -3q-1 -1 -2 -3v-2l1 -4q0 -1 1 -2t3 -2q7 -5 24 -18.5t25 -19.5q33 -23 54 -24h4
h1q91 23 173 33q53 6 88 4q38 -3 49 -14q3 -3 7 -3t7 3t3 7t-3 7q-17 17 -62 20h-21q-30 0 -70 -5q-66 -7 -144 -25q2 4 4 7q15 21 33 55q31 60 75 162q22 53 147 365q2 4 0.5 7.5t-5.5 5.5q-14 7 -43 10q-15 1 -39 1h-2z" />
    <glyph glyph-name="bracketleft" unicode="[" horiz-adv-x="360" 
d="M102 570h-2q-3 0 -6 -2v0v0l-1 -1q-3 -3 -3 -7q-19 -104 -14 -354q2 -88 1.5 -189.5t-7.5 -163.5q-2 -9 6 -12v0q1 0 1 -1h1h1q36 -5 54.5 -7.5t48 -5t53.5 -2t47 4.5q4 1 6.5 4.5t1.5 7.5t-4.5 6.5t-7.5 1.5q-43 -7 -108 -1q0 9 -1 152.5t0 210t6 173.5t15 168v3
q71 6 107 -6q4 -1 7.5 1t5 6t-0.5 7.5t-6 5.5q-27 8 -59 9q-27 0 -76 -4.5t-66 -4.5z" />
    <glyph glyph-name="backslash" unicode="\" horiz-adv-x="360" 
d="M160 570q-2 0 -4 -1q-9 -4 -28.5 -9t-30.5 -10q-2 -1 -4 -3v0q-6 -5 -2 -12q93 -481 179 -696q1 -9 9 -9q4 0 7 2h1q7 4 22 15q12 9 25 14q4 1 5.5 5t-0.5 8q-34 86 -67.5 214t-50.5 211.5t-44 223.5q-5 26 -7 39q-2 8 -10 8z" />
    <glyph glyph-name="bracketright" unicode="]" horiz-adv-x="360" 
d="M176 570h-9q-26 -1 -49 -4q-4 -1 -6.5 -4.5t-1.5 -7.5t4.5 -6.5t7.5 -1.5q43 7 108 1q0 -9 1 -152.5t0 -210t-6 -173.5t-15 -169q-70 -5 -107 8h-4q-8 0 -9 -8.5t7 -11.5q28 -9 59 -10t75 2.5t69 3.5h1q4 0 6.5 3t2.5 7q18 134 14 354q-2 87 -2 188t8 164q1 3 -0.5 7
t-4.5 6h-1q-2 1 -4 1q-98 14 -144 14z" />
    <glyph glyph-name="asciicircum" unicode="^" 
d="M218.5 590q-6.5 -1 -8.5 -7q-32 -64 -49 -90.5t-59 -76.5q-2 -3 -2 -7t3.5 -7t7.5 -2.5t7 4.5q52 61 79 109q13 -27 47.5 -65.5t37.5 -43.5q4 -6 11 -4q2 1 25 8.5t35 11.5q7 3 7 10q0 3 -2 6q-12 15 -59 62t-70 86q-4 7 -10.5 6z" />
    <glyph glyph-name="underscore" unicode="_" 
d="M397 -77h-1q-43 -4 -173 -3t-177 -3q-9 -1 -9 -10v-58q-1 -5 2 -8q0 -1 1 -1q0 -1 1 -1q4 -3 9 -2q46 7 174 7q130 -1 177 6q5 1 7.5 4.5t1.5 7.5q-2 7 -2 24q1 20 -1 29q-2 8 -10 8z" />
    <glyph glyph-name="grave" unicode="`" horiz-adv-x="360" 
d="M240 540h-2q-17 -4 -55 -2q-33 1 -47 -9q-4 -2 -5 -4v-1v-1q-2 -3 -1 -6q3 -26 8.5 -54t14 -63t11.5 -52q1 -4 4.5 -6t7.5 -2q10 2 42 5t44 5q3 1 5.5 4t2.5 7q-2 20 -7.5 53.5t-9 61.5t-3.5 54q0 4 -3 7t-7 3z" />
    <glyph glyph-name="a" unicode="a" 
d="M340 410q-73 0 -106 -22q-6 -4 -4 -11q15 -52 15 -88.5t-15 -126.5q-9 -57 6 -105q-10 -7 -22 -13q-42 -21 -72 -14q-24 5 -43.5 29.5t-28.5 53.5q-11 34 -5.5 72.5t24.5 69.5q17 30 68 61q35 22 67 35q8 3 6 11t-10 8q-2 0 -4 -1q-33 -13 -70 -36q-54 -34 -75 -68
q-20 -35 -26 -77t5 -81q11 -35 34 -62.5t54 -34.5q37 -8 85 16q12 6 21 12q9 -17 22 -28q22 -20 54 -20q21 0 44 22q16 15 33 43h1q2 4 6 10q2 5 25 51q1 1 1 2v3q0 3 -3 6q-1 2 -3 2q-1 1 -3 1h-3l-4 -2l-3 -5q-15 -32 -30 -57q-10 -15 -19 -23q-12 -13 -22 -13q-5 0 -6 4
q-4 6 -3 22q2 24 19 102q15 67 18 148q1 43 -3 68q-2 15 -6 23q-7 13 -19 13z" />
    <glyph glyph-name="b" unicode="b" 
d="M120 516h-3q-12 -1 -23 -8q-2 -2 -4 -5q-16 -50 -28 -133.5t-12 -169.5q0 -104 10 -173q9 -59 25 -92q9 -21 22 -32q15 -13 33 -13q43 0 68.5 9.5t56.5 31.5q0 1 1 1l1 1q74 52 83 105q4 28 1 58q56 16 78 60q2 3 0.5 7t-5 6t-7.5 0.5t-6 -5.5q-16 -32 -63 -48
q-2 12 -5 21q-17 59 -60 73q-22 7 -47 -10t-26 -40q-1 -28 32 -50q26 -17 57 -20q16 -1 33 1q2 -26 -2 -49q-7 -46 -75 -93q-15 -9 -35 -16q-37 -13 -56 -4q-10 5 -16 27q-6 21 -7 57q-1 54 9 146q4 37 32 184q12 59 16 85q3 19 3 29v10q0 7 -4 10q-18 19 -42 30
q-19 9 -35 9zM271 191q3 0 6 -1q32 -10 47 -58q3 -10 5 -21q-15 -2 -28 -1q-26 2 -48 17q-23 15 -23 33q0 12 17 23q12 8 24 8z" />
    <glyph glyph-name="c" unicode="c" horiz-adv-x="360" 
d="M250 390q-24 -4 -55 -15q-38 -14 -70.5 -43.5t-53.5 -66.5q-20 -38 -26.5 -77.5t6.5 -80.5q13 -38 42.5 -66.5t65.5 -30.5t82.5 16t78.5 43q21 16 46 42q14 13 22 22q2 3 2 7t-3 7t-7 3t-7 -3v0h-1q-2 -3 -8.5 -10t-8.5 -9q-32 -29 -67 -53q-27 -18 -40 -23
q-11 -5 -26 -2q-17 2 -32 22q-12 16 -20 41q-20 59 9 144q20 55 66 94q14 13 39 19q5 1 11 -1q10 -3 15 -12q2 -4 4 -5q1 -1 4 -2q2 -1 6 0l2 2q2 1 3 4q1 1 1 3q0 3 -2 8q-9 15 -22 21q-18 8 -56 2z" />
    <glyph glyph-name="d" unicode="d" 
d="M340 610q-72 0 -105 -22q-7 -4 -5 -11q18 -61 20 -88q6 -71 -2 -168.5t-18 -158.5q-9 -57 6 -105q-10 -7 -22 -13q-42 -21 -72 -14q-24 5 -43.5 29.5t-28.5 53.5q-11 34 -6 73t24 69q26 39 69 67t83 28q4 0 7 3t3 7t-3 7t-7 3q-47 0 -93.5 -30.5t-74.5 -74.5
q-22 -33 -27.5 -76.5t5.5 -81.5q11 -35 34 -62.5t54 -34.5q37 -8 85 16q12 6 21 12q9 -17 22 -28q22 -20 54 -20q21 0 44 22q16 15 33 43h1q2 4 6 10q2 5 25 51q1 1 1 2v2v1q0 3 -2 5q-1 2 -3 3q-1 0 -3 1h-3l-4 -2q-2 0 -3 -2q-1 -1 -1 -3q-14 -30 -30 -57q-10 -15 -19 -23
q-12 -13 -22 -13q-5 0 -6 4q-4 6 -3 22q2 24 19 102q9 42 18 145q12 129 5 206q-4 42 -7 59q-3 16 -7 26q-3 6 -6 10q-6 6 -13 6z" />
    <glyph glyph-name="e" unicode="e" horiz-adv-x="360" 
d="M279 412q-6 0 -14 -1q-25 -4 -69 -22q-40 -16 -72 -49.5t-53 -75.5q-45 -91 -20 -157q13 -38 42.5 -66.5t65.5 -30.5q40 -2 84 16t79 45q11 9 22 19t18.5 17.5t15 15.5t9.5 10t2 3q2 4 1 7q-1 5 -6 7h-4q-2 0 -4 -1q-2 0 -3 -2q-41 -41 -85 -70l-9 -6l-9 -6l-10 -5l-9 -5
l-9 -3l-10 -2h-10q-17 2 -32 22q-12 16 -20 41q-15 42 -1 106q10 3 28 9q26 9 41.5 15.5t36 20t33.5 30.5q17 22 24 43q10 30 -4 48q-9 17 -27 24q-8 2 -18 3h-4zM286 383q18 1 26 -9l1 -1q7 -10 0 -30q-6 -18 -21 -37q-16 -20 -40 -33t-62 -26q-2 -1 -7 -2.5t-8 -2.5
q3 8 5 15q8 29 15 46.5t20 38t30 29.5q18 11 38 12h3z" />
    <glyph glyph-name="f" unicode="f" horiz-adv-x="360" 
d="M120 550q-7 0 -10 -7q-17 -51 -30.5 -164t-9.5 -199q1 -18 2.5 -71.5t3.5 -98.5t6 -82q8 -71 23 -108q10 -23 22 -35q14 -15 33 -15q47 0 84 53q23 32 45 93h1v1v1q28 76 12 170q16 1 29 5q42 11 58 43q2 3 0.5 7t-5 6t-7.5 0.5t-6 -5.5q-12 -23 -45 -32q-12 -3 -28 -4
q-4 20 -8 35q-8 27 -15 39q-13 24 -33 28q-22 4 -46 -11q-15 -9 -21 -21v10v12q0 15 2 34q35 48 53 78q51 87 40 150q-5 27 -17 41q-14 16 -41 24q-6 6 -19 9q-8 1 -25 4q-36 5 -44 9q-2 1 -4 1zM216 505q14 -6 21 -15q9 -10 13 -32q10 -56 -37 -136q-13 -21 -32 -48
q5 45 18 121q12 68 14 84t3 26zM233 191q3 0 5 -1q11 -2 19 -18q6 -10 13 -35q4 -13 8 -29q-9 1 -16 2q-28 4 -49 18q-23 15 -23 32q0 12 17 22q11 8 24 9h2zM174 140q8 -16 28 -29q25 -16 56 -21q10 -2 24 -2q15 -91 -11 -164q-11 -24 -26 -45q-12 -18 -23 -26
q-11 -7 -18 -4q-4 2 -8 11q-5 11 -9 30q-7 34 -10 93q-3 60 -3 157z" />
    <glyph glyph-name="g" unicode="g" 
d="M341 456q-3 0 -6 -1q-12 -1 -29 -8q-39 -17 -46 -17q-9 0 -14 -8q-3 -5 -5 -14q-3 -14 -4 -40q-1 -45 4 -122q4 -57 10 -116q-15 -15 -37 -26q-42 -21 -72 -14q-23 5 -43 29.5t-29 53.5q-14 38 -9.5 84.5t27.5 76.5q20 26 70 46q20 8 38 11q15 2 20 0q3 -2 7 -0.5t6 5
t0.5 7.5t-5.5 6q-6 3 -14 3q-7 0 -18 -2q-19 -3 -42 -12q-55 -21 -78 -52q-26 -35 -31 -86.5t9 -92.5q11 -35 34 -62.5t54 -34.5q37 -8 85 16q18 9 31 19q7 -60 13 -87q1 -1 1 -3.5t1 -3.5q-23 -24 -37 -46q-2 -1 -8.5 -11.5t-8 -13.5t-7.5 -12.5t-8 -14.5t-6 -13.5t-5 -15
t-2.5 -14.5t-1 -16t1.5 -15v-1v0v0q9 -41 21 -58q22 -30 69 -30q48 0 77 36q23 30 32 81q14 74 1 155q-4 24 -7 60q33 29 48 52q3 4 2 8t-4.5 6.5t-7.5 1.5t-6 -4q-12 -18 -35 -39q-7 101 -7 333q0 5 -4 8q-11 7 -23 8h-2zM274 -13q14 -69 14 -111q0 -33 -8 -50
q-7 -16 -23 -16q-27 0 -41 17q-7 8 -9 15v0q-4 17 3 39t14.5 35t23.5 39q10 15 26 32z" />
    <glyph glyph-name="h" unicode="h" 
d="M186 570q-14 0 -51 -10q-35 -10 -49 -10q-7 0 -13 -5q-4 -4 -6 -10q-4 -10 -7 -28q-3 -30 -1 -81q4 -101 19 -168q5 -23 17 -63q-11 -28 -17 -52v-1v0q-8 -25 -10 -51v-14q0 -14 1 -26q4 -27 16 -42q15 -19 42 -19q49 0 71 38q18 29 19 81q0 21 -2.5 46t-5.5 42t-7 38.5
t-5 26.5q-4 22 -6 47q22 22 42 32q33 17 65 9q49 -12 65 -72q17 -62 -12 -134q-13 -32 -15 -51q-1 -14 2 -24q5 -13 18 -18q14 -6 30 6q11 8 22 23l21 36q2 3 0.5 7t-5 6t-7.5 0.5t-6 -5.5q-8 -17 -19 -32q-10 -13 -18 -19q-6 -5 -10 -4q-5 2 -7 7q-2 6 -1 15q2 16 13 45
q32 79 13 147q-9 33 -29.5 56t-50.5 31q-38 10 -78 -11q-17 -9 -35 -24q-3 54 2 135.5t5 89.5q0 4 -3 7t-7 3zM105 163q10 -32 14 -49q8 -34 5 -50q-2 -8 -5.5 -11t-11.5 -3q-11 0 -15 10q-3 6 -4 17q1 29 9 60v1q3 11 8 25z" />
    <glyph glyph-name="i" unicode="i" horiz-adv-x="260" 
d="M161 552q-18 -1 -39 -9q-19 -7 -33 -22q-18 -20 -13 -40q6 -19 32 -26q19 -4 40 -1q16 3 29 11q18 12 19 28q0 3 -1 6q9 14 5.5 27.5t-14.5 19.5q-9 6 -22 6h-3zM200 410q-61 0 -105 -21q-2 -1 -3 -3q-8 -10 -12 -28q-6 -25 -9 -34q-2 -4 -0.5 -8t5.5 -5.5t8 0t5 5.5
q5 12 9 31q8 -39 6.5 -73.5t-14.5 -111.5q-9 -58 7 -106q10 -30 29 -46q22 -20 54 -20q25 0 49 21q18 16 33 44q2 2 5 9l1 1v1l1 1v1l1 1q10 20 17 41l2 6q0 1 1 1v3l-1 4l-3 4q-1 1 -3 1.5t-5 0.5h-1q-3 -1 -5 -4q-1 -1 -2 -5l-1 -3q-1 -1 -1 -2q-8 -22 -19 -44
q-11 -19 -22 -29q-14 -13 -27 -13q-5 0 -6 4q-4 6 -3 22q2 24 19 102q15 67 18 148q1 43 -3 68q-2 15 -6 23q-7 13 -19 13z" />
    <glyph glyph-name="j" unicode="j" horiz-adv-x="300" 
d="M201 592q-18 -1 -39 -9q-19 -7 -33 -22q-18 -20 -13 -40q6 -19 32 -26q19 -4 40 -1q16 3 29 11q18 12 19 28q0 3 -1 6q9 14 5.5 27.5t-14.5 19.5q-9 6 -22 6h-3zM218 456q-3 0 -7 -1q-15 -1 -36 -8q-32 -11 -42 -20q-3 -2 -6 -9q-2 -5 -5 -13q-5 -13 -12 -35
q-2 -8 -9.5 -33.5t-10.5 -33.5q-1 -4 1 -7.5t6 -5t7.5 0.5t5.5 6q3 9 10 34.5t10 33.5q0 2 2 8q5 -94 15.5 -214t19.5 -161q1 -1 1 -3.5t1 -3.5q-23 -24 -37 -46q-2 -1 -8.5 -11.5t-8 -13.5t-7.5 -12.5t-8 -14.5t-6 -13.5t-5 -15t-2.5 -14.5t-1 -16t1.5 -15v-1v0v0
q9 -41 21 -58q22 -30 69 -30q48 0 77 36q23 30 32 81q14 74 1 155q-4 23 -8 59q34 30 49 53q3 4 2 8t-4.5 6.5t-7.5 1.5t-6 -4q-12 -19 -36 -41q-10 91 -18 203.5t-8 151.5q0 5 -4 8q-11 7 -26 8h-2zM174 -33q14 -69 14 -111q0 -33 -8 -50q-7 -16 -23 -16q-27 0 -41 17
q-8 8 -9 15v0q-4 17 3 39t14.5 35t23.5 39q10 15 26 32z" />
    <glyph glyph-name="k" unicode="k" 
d="M186 550q-14 0 -51 -10q-35 -10 -49 -10q-7 0 -13 -5q-4 -4 -6 -10q-4 -10 -7 -28q-3 -30 -1 -81q4 -101 19 -168q5 -23 18 -66q-12 -25 -18 -48v-1v0v-1q-8 -25 -10 -51v-6q-1 -19 1 -34q3 -27 16 -42q15 -19 42 -19q49 0 71 38q18 29 19 81q0 21 -2.5 46t-5.5 42
t-7 38.5t-5 26.5q-3 16 -5 36q72 72 148 72q6 0 13 -6.5t7 -13.5q3 -21 -16 -44q-12 -14 -46 -43q-36 -29 -49 -45q-23 -30 -19 -59q6 -44 47 -78q42 -36 84 -31q15 2 30 17q10 11 20 30l18 40q2 4 0 7.5t-6 5t-7.5 -0.5t-4.5 -6q-7 -18 -17 -37q-9 -16 -18 -25
q-9 -10 -17 -11q-34 -4 -69 26t-40 65q-3 22 15 44q12 15 46 43q36 29 49 46q24 29 20 58q-1 15 -13 26q-13 12 -27 12q-77 0 -150 -66q-4 57 1 144t5 92q0 4 -3 7t-7 3zM105 142q10 -31 14 -48q8 -34 5 -50q-2 -8 -5.5 -11t-11.5 -3q-11 0 -15 10q-4 7 -4 21q1 29 9 56
q3 11 8 25z" />
    <glyph glyph-name="l" unicode="l" horiz-adv-x="260" 
d="M220 610q-73 0 -106 -22q-6 -4 -4 -11q13 -46 5 -157q-7 -89 -25 -198q-12 -73 -1 -135q8 -43 27 -67q24 -30 64 -30q25 0 49 21q18 16 33 44q17 31 25 55q2 6 3 7v4q0 1 -1 3q0 1 -1 2l-3 3q-3 1 -5 1t-5 -1q-2 -1 -3 -4h-1q0 -1 -1 -4l-1 -2l-1 -3q-8 -23 -19 -44
q-11 -20 -22 -29q-7 -6 -11 -9t-9 -5t-8 1t-5 11q-4 15 -3 45q2 57 19 132q16 73 28 218q6 72 4 115q0 24 -3 38q-2 8 -5 13q-6 8 -14 8z" />
    <glyph glyph-name="m" unicode="m" horiz-adv-x="480" 
d="M149 390q-60 0 -84 -21q-2 -1 -3 -3q-11 -11 -16 -30q-1 -6 -3 -17.5t-3 -16.5q-1 -4 1.5 -7.5t6.5 -4.5t7.5 1.5t4.5 6.5q1 6 3 17.5t3 16.5l1 2q2 -7 15 -54t16.5 -60.5t11.5 -52.5t8.5 -60.5t-0.5 -53.5t-8 -61q-1 -6 3 -11q3 -3 8 -4q5 0 12 2q8 2 28 9q22 8 31 10
q7 2 11 3q1 0 6 -0.5t5 0.5h1q5 2 5 10q6 76 -12 189q-2 10 -4 23q5 18 7 25q9 29 18 45q3 -9 5 -24q4 -25 8 -84q5 -64 7 -83t5 -28q2 -6 5 -9.5t6 -4.5q5 -1 9 1q1 0 25 6q23 5 29 18h1v1q1 1 1 2q8 24 30 158q9 54 15 78q1 3 2 10q3 -14 5 -30q4 -27 9 -85
q11 -130 19 -162q8 -29 24 -34q9 -3 18 1q7 4 14 11q25 26 44 82q1 4 -1 7.5t-6 5t-7.5 -0.5t-5.5 -6q-17 -52 -38 -74q-5 -5 -8 -6t-4 -1q-5 2 -10 20q-8 30 -19 159q-5 58 -9 86q-6 42 -13 57q-3 6 -9 6q-7 0 -12 -6q-2 -3 -5 -9q-4 -9 -8 -26q-6 -26 -15 -80
q-13 -81 -15 -92q-2 49 -3 59q-2 48 -6 75q-3 17 -7 28q-5 14 -13 19q-10 7 -25 4q-10 -2 -22.5 -8.5t-23.5 -14.5q-1 -1 -3 -2q-14 -14 -26 -52q-17 78 -38 119q-3 6 -9 6z" />
    <glyph glyph-name="n" unicode="n" 
d="M169 370q-60 0 -84 -21q-2 -1 -3 -3q-11 -11 -16 -30q-1 -6 -3 -17.5t-3 -16.5q-1 -4 1.5 -7.5t6.5 -4.5t7.5 1.5t4.5 6.5q1 6 3 17.5t3 16.5v1q12 -50 17.5 -103.5t6 -86.5t0.5 -113q0 -5 3 -8.5t8 -4.5q5 0 12 2q8 2 28 9l17 6l14 4q7 3 17 2h5q5 3 6 11q9 98 -5 197
q13 26 26 45q17 26 32 36q7 5 12 6q5 0 9 -3q9 -7 15 -36q5 -25 8 -71q1 -12 2 -39.5t2 -42t3.5 -34t5.5 -31.5q8 -30 24 -35q9 -3 18 1q7 4 14 11q25 26 44 82q1 4 -1 7.5t-6 5t-7.5 -0.5t-5.5 -6q-17 -52 -38 -74q-5 -5 -8 -6t-4 -1q-5 2 -10 20q-3 11 -5 29.5t-3 32.5
t-2.5 42.5t-2.5 39.5q-3 48 -8 74q-8 37 -23 48q-10 8 -23 7q-10 -1 -21 -9q-18 -12 -38 -42q-7 -10 -14 -23q-12 64 -32 103q-3 6 -9 6z" />
    <glyph glyph-name="o" unicode="o" 
d="M168 311h-3q-4 0 -7 -1q-2 -1 -5 -2v-1q-1 0 -1 -1v0q-56 -75 -78 -126q-31 -73 -13 -135q17 -58 71 -95q28 -19 58 -30.5t63.5 -11.5t57.5 18q32 23 54 71q13 26 19 55q0 1 1 1q24 23 44 63q2 3 0.5 7t-5 6t-7.5 0.5t-6 -5.5q-9 -18 -22 -35q4 56 -20 96q-14 24 -45 32
q-33 8 -51 -10q-33 -33 -17 -97t61 -79q20 -7 41 3q-5 -15 -11 -29q-20 -42 -48 -63q-32 -24 -56 -12q-37 17 -63 51.5t-30 69.5q-5 53 17 95.5t79 85.5q4 3 4 7.5t-3 7.5q-4 4 -16 18.5t-20 22.5q-13 13 -24 19q-10 4 -19 4zM306 199h3q5 0 10 -2q23 -6 32 -22
q27 -45 14 -113q-22 -19 -42 -13q-15 6 -28 24t-19 41t-3 45.5t14 33.5q6 6 19 6z" />
    <glyph glyph-name="p" unicode="p" 
d="M168 430q-72 0 -105 -22q-6 -4 -4 -11q11 -40 19 -89q10 -58 11 -127t-4 -121t-10 -111t-5 -89q0 -4 3 -7q22 -22 61 -41q3 -3 7 -2h1h1q4 2 6 6q17 36 27 84q12 57 19 136q16 167 6 293l-3 33q19 13 41 23q64 27 95 7q48 -31 54 -92q6 -64 -37 -135q-21 -36 -26.5 -51.5
t-4.5 -27.5q2 -15 14 -24q24 -17 54 3q24 16 41 51q2 3 0.5 7t-5 6t-7.5 0.5t-6 -5.5q-15 -29 -35 -43q-17 -12 -30 -3q-5 4 -6 10q-1 8 3 19q5 14 26 48q46 76 39 147q-7 70 -62 106q-17 11 -40 12q-32 1 -74 -17q-20 -8 -37 -19v4q-4 16 -8 26q-2 6 -6 10q-6 6 -13 6z" />
    <glyph glyph-name="q" unicode="q" 
d="M340 490q-73 0 -106 -22q-6 -4 -4 -11q14 -47 17 -88.5t3 -128.5q0 -6 -1 -19.5t-2.5 -37t-2.5 -39.5q-13 -12 -30 -20q-42 -21 -72 -14q-23 5 -43 29.5t-29 53.5q-14 38 -9.5 84.5t27.5 76.5q28 37 63 58q20 11 35 11q16 1 27 -10q3 -3 7 -3t7 3t3 7t-3 7q-17 17 -42 16
q-20 -1 -44 -14q-39 -22 -69 -63q-26 -35 -31 -86.5t9 -92.5q11 -35 34 -62.5t54 -34.5q37 -8 85 16q11 5 20 11q-2 -52 -2 -93q0 -79 10 -125q6 -28 16 -45q13 -20 31 -24q38 -7 68 12q24 15 40 46q11 19 18 44q1 4 2 7q3 11 4 20v3l-3 5q-1 1 -2.5 2t-3.5 1h-4
q-2 -1 -3 -2q-2 -1 -3 -3t-1 -4v-3l-1 -3q-1 -5 -3 -12v-2l-1 -3q-3 -8 -5 -14q-7 -16 -16 -24q-12 -11 -24 -10t-15.5 34.5t2.5 99.5q3 30 9 77t10 82.5t4 56.5q0 19 1 75t1 83q-1 40 -6 61q-3 13 -8 20q-7 11 -18 11z" />
    <glyph glyph-name="r" unicode="r" horiz-adv-x="360" 
d="M160 550h-1q-45 0 -79 -53q-31 -48 -30 -97q1 -20 19 -34q12 -10 36 -20q4 -2 16.5 -7t19.5 -8q-11 -16 -35.5 -52.5t-34.5 -53.5q-2 -4 -1 -8t5 -6t8 -1t6 5q9 16 33.5 52.5t36.5 55.5q9 -5 14 -10q13 -13 17 -26.5t3 -35.5q-2 -13 -5 -31t-8.5 -46.5t-9.5 -51.5
q-8 -48 18 -98q29 -55 72 -54q28 1 52 25q35 35 52 66q10 17 25 55q1 1 1 2q0 3 -1 6q0 1 -2 3q0 1 -2 2t-4 1t-4 -0.5t-4 -2.5q-1 -1 -2 -3q-15 -35 -36 -68q-19 -30 -32 -26q-13 3 -20 14q-6 11 -8 29q-2 34 15 84q24 73 25 114q2 68 -50 98q-6 3 -14.5 6t-14.5 4l-18 3
l-16 3q-1 0 -10 2q21 50 18 93v1q0 26 -12 46q-15 23 -37 23h-1v0zM160 530q11 0 20 -16t10 -35v0q3 -39 -17 -87q-17 6 -26 15q-19 19 -17 52q2 29 9 48q4 11 10 17q5 5 11 6z" />
    <glyph glyph-name="s" unicode="s" 
d="M200 430q-5 0 -8 -4q-1 -1 -1 -2v0q-65 -120 -119 -198q-3 -4 -2 -8t4.5 -6.5t7.5 -1.5t6 4q24 35 52 82q5 -36 52 -117q64 -110 79 -143q5 -12 9 -23q-14 -7 -45 -19t-40 -16q-34 -14 -49 -30q-21 -21 -16 -49q1 -21 18 -32q15 -9 37 -10q39 -2 76 20q50 30 89 93
q31 50 28 97l49 46q3 3 3.5 7t-2.5 7t-7.5 3t-7.5 -3q-18 -17 -39 -37q-2 8 -5 14q-10 24 -27.5 49.5t-26.5 36.5t-33 39q-58 67 -72 114q-5 14 -3 46q1 16 3 29q1 5 -2 8.5t-8 3.5zM285 -7q6 -25 1 -45q-6 -24 -17.5 -36.5t-32.5 -22.5q-24 -11 -54 -7q-14 2 -22 7t-10 13
v1q-4 17 10 31q13 13 43 26q9 4 38 15t44 18z" />
    <glyph glyph-name="t" unicode="t" horiz-adv-x="260" 
d="M220 530q-73 0 -106 -22q-6 -4 -4 -11q10 -35 7 -88q-30 -8 -44 -22q-3 -3 -3 -7t3 -7t7 -3t7 3q8 8 29 14q-3 -30 -26 -165q-12 -73 -1 -135q8 -43 27 -67q24 -30 64 -30q25 0 49 21q18 16 33 44q2 2 5 9l1 1v1l1 1v1l1 1q10 20 17 41l2 6q0 1 1 1v2v3q-1 3 -2 5l-4 2
l-5 1q-1 0 -3 -0.5t-3 -2.5q-2 -1 -2 -3q0 -1 -1 -3l-1 -3q-1 -1 -1 -2q-8 -22 -19 -44q-12 -21 -22 -29q-23 -19 -29 -12q-2 3 -4 10q-4 16 -3 45q2 57 19 132q17 79 28 178v7q7 1 20.5 1.5t19.5 0.5q18 1 27 2q13 1 19 4q8 3 6 11t-10 8q-2 0 -4 -1q-3 -1 -13 -2
q-9 -1 -26 -2q-6 0 -18.5 -0.5t-18.5 -1.5q3 37 2 61q0 18 -4 29q-2 7 -5 11q-6 6 -13 6z" />
    <glyph glyph-name="u" unicode="u" 
d="M160 310q-73 0 -106 -22q-4 -3 -4 -8v-220q0 -59 37 -107q48 -63 133 -63q28 0 54 11t41.5 24.5t29 31.5t18 25.5t6.5 12.5v1q27 50 25 141q19 2 33 16q3 3 3 7t-3 7t-7 3t-7 -3q-10 -9 -20 -10q-2 37 -9 66q-3 16 -7 26q-4 13 -10 18q-17 18 -38 16q-21 -1 -28 -19
q-8 -21 2 -50q10 -26 29.5 -47t41.5 -28q2 -88 -23 -134v0q-17 -32 -47.5 -53.5t-63.5 -21.5q-36 0 -54 34q-16 33 -16 96q0 15 2 39.5t5 56.5t5 51q3 44 1 67q-1 14 -5 23q-6 13 -18 13zM332 263q10 0 21 -10q2 -2 5 -11q4 -9 7 -23q5 -25 8 -58q-14 6 -26 20
q-17 18 -25 40t-3 35q3 7 11 7h2z" />
    <glyph glyph-name="v" unicode="v" 
d="M160 350q-73 0 -106 -22q-4 -3 -4 -8q0 -28 5 -56.5t13.5 -61.5t11.5 -54q18 -104 39 -158q17 -42 37 -59q14 -10 28 -10q16 0 32 11q20 14 39 34.5t31.5 37.5t23 35t14.5 25l5 11v1q16 30 26 56q8 -3 16 -4q19 -2 33 3q16 7 25 25q2 3 0.5 7t-5 6t-7.5 0.5t-6 -5.5
q-5 -10 -15 -14q-9 -4 -22 -2q-6 1 -13 3q7 18 10 34q7 32 2 56q-5 30 -27 47q-16 13 -42 4q-24 -9 -33 -28q-13 -27 3 -63q14 -32 40 -49q10 -7 22 -13q-10 -25 -25 -54v0v-1q-22 -43 -43 -69q-13 -15 -22 -18q-1 -1 -2 0q-3 1 -5 7q-22 56 -39 158l-11 112q-4 32 -8 49
q-2 11 -6 17q-6 10 -15 10zM323 275h1q6 0 10 -3q15 -12 19 -34q4 -21 -2 -49q-3 -14 -8 -31q-10 6 -17 10q-22 15 -34 41q-12 28 -3 47q5 11 22 17q6 2 12 2z" />
    <glyph glyph-name="w" unicode="w" horiz-adv-x="480" 
d="M180 330q-73 0 -106 -22q-3 -2 -4 -6q-1 -5 -5 -28t-5 -30.5t-3.5 -29t-3.5 -37.5t-2 -42t-1 -55q0 -25 11.5 -62t30.5 -67q22 -36 48 -48q33 -16 66 9q15 11 27 41q8 21 17 57q17 70 19 79q6 -34 10 -53q10 -44 23 -71q18 -38 46 -45q23 -5 41 10q17 19 30 45
q36 77 46 135q4 23 3 44q21 6 38 18q3 2 4 6.5t-1.5 7.5t-7 4t-7.5 -2q-12 -9 -27 -14q-1 7 -2 12q-10 39 -41 53q-10 5 -22 0q-10 -4 -18 -12.5t-12 -17.5q-5 -12 -1 -22q12 -34 59 -37q9 -1 18 0q0 -18 -3 -37q-12 -78 -43 -127q-6 -9 -16 -9q-5 0 -12 8q-13 16 -28 65
q-3 11 -11 39.5t-12 40.5q-7 19 -13 28q-4 7 -9 10q-7 4 -15 1q-9 -3 -17 -17q-6 -10 -12 -27q-8 -24 -21 -74q-14 -58 -18 -71q-5 -16 -8 -24q-1 -2 -2.5 -4l-1.5 -2l-1 -1q-6 -2 -11 2q-7 8 -13 26q-11 38 -11 103q0 28 17 146q7 46 8 66q1 15 0 22q-1 6 -4 10q-4 6 -11 6
zM413 221h3q22 -10 29 -39q1 -5 2 -12q-8 -1 -16 0q-34 2 -42 23q-1 3 1 8q3 6 8.5 11.5t10.5 7.5q3 1 4 1z" />
    <glyph glyph-name="x" unicode="x" 
d="M137 402q-5 0 -9 -3q-19 -12 -29 -19t-25.5 -23t-22.5 -33q-2 -5 1 -10q20 -26 28.5 -39t26 -46.5t40.5 -86.5q1 -4 5 -13q-17 -24 -30 -41q-41 -53 -64 -58q-5 -1 -7 -4.5t-1 -8t4.5 -6.5t7.5 -1q30 8 75 65q11 14 24 33q24 -54 46 -86q25 -35 51 -47q34 -15 67 7
q35 22 73 80l2 2v1q14 21 29 50q0 1 1 2v4l-1 4q-1 1 -2 3q-1 0 -3 1q-1 1 -4 1q-2 0 -4 -1q-3 -1 -5 -5q-10 -20 -29 -49q0 -1 -0.5 -1.5t-0.5 -1.5q-16 -22 -30 -33q-16 -12 -29 -9q-6 1 -14 14t-18 39q-5 15 -18.5 56t-22.5 64q-3 10 -8 23q35 50 57 77q20 24 35.5 35.5
t26.5 11.5q4 0 7 3t3 7t-3 7t-7 3q-18 0 -39 -16q-17 -13 -38 -38t-51 -68q-19 50 -36 84q-17 35 -31 52q-8 11 -16 15q-5 3 -10 3h-2z" />
    <glyph glyph-name="y" unicode="y" 
d="M341 456q-3 0 -6 -1q-12 -1 -29 -8q-39 -17 -46 -17q-9 0 -14 -8q-3 -5 -5 -14q-3 -14 -4 -40q-1 -45 4 -122q4 -57 10 -117l-6 -6q-14 -13 -32 -23q-43 -22 -69 -11q-32 14 -51 56q-16 34 -24 91q-4 27 -9 96q-5 54 -10 71q-3 7 -10 7q-5 0 -8 -4t-2 -9q6 -16 10 -67
q5 -69 9 -97q9 -59 26 -96q22 -49 61 -66q35 -16 86 12q18 9 32 21q7 -60 13 -86q1 -1 1 -3.5t1 -3.5q-23 -24 -37 -46q-15 -26 -21.5 -38t-15 -35t-9 -38t4.5 -35t17 -39q22 -30 69 -30q48 0 77 36q23 30 32 81q14 74 1 155q-4 24 -7 60q33 29 48 52q3 4 2 8t-4.5 6.5
t-7.5 1.5t-6 -4q-12 -18 -35 -39q-7 101 -7 333q0 5 -4 8q-11 7 -23 8h-2zM274 -13q14 -69 14 -111q0 -33 -8 -50q-7 -16 -23 -16q-27 0 -41 17q-7 8 -9 15v0q-4 17 3 39t14.5 35t23.5 39q10 15 26 32z" />
    <glyph glyph-name="z" unicode="z" 
d="M305 398q-41 0 -87 -8q-50 -9 -87 -23q-31 -13 -47 -28q-8 -6 -12 -13q-1 -1 -1 -2q-1 -1 -1 -2q-3 -9 0 -18q3 -8 9 -16l15 -16q3 -3 7 -2.5t7 4t2.5 7.5t-4.5 7q-6 5 -11 12q-4 5 -6 10t5.5 11.5t22.5 12.5q20 7 52 11q16 2 34 3.5t27 1.5h10q26 0 37 -7q7 -5 7 -15
q-2 -24 -42 -72q-8 -9 -39 -40t-49 -51q-64 -72 -64 -125q0 -17 12 -28q9 -9 27 -12q29 -5 77 5q55 12 108 38q14 5 25 11q44 24 89 80q2 3 1.5 7t-3.5 6.5t-7 2t-7 -3.5q-31 -39 -58 -58q-20 -14 -54 -30l-15 -5q-61 -22 -90 -4q-8 5 -11 10q-2 5 0 11q4 13 28 35
q17 15 59 45.5t55 41.5q70 56 72 122q1 27 -8.5 47t-25.5 28q-17 9 -59 9z" />
    <glyph glyph-name="braceleft" unicode="{" horiz-adv-x="360" 
d="M216 566q-56 -8 -83 -39q-20 -22 -20 -58q0 -25 3.5 -79t2.5 -84q-2 -41 -33 -57q-10 -5 -13 -7q-8 -5 -8 -13q0 -6 6 -14l12 -12q28 -28 35 -98q2 -38 1.5 -56.5t-3.5 -56.5t-3 -54q-2 -40 19 -65q29 -33 86 -40q20 -3 102 -3q4 0 7 3t3 7t-3 7t-7 3q-1 0 -24 -1.5
t-24 1.5q-60 14 -65 63q-4 36 2 101t7 79q1 74 -29 104q-12 12 -16 17q-2 3 -3 5l2 2l15 10q43 29 39 78q-1 9 -4 36.5t-4 40t-2 34.5t0.5 39.5t5.5 34.5q5 24 18 37q15 16 43 19h16h13q4 0 7 3t3 7t-3 7t-7 3q-66 0 -94 -4z" />
    <glyph glyph-name="bar" unicode="|" horiz-adv-x="360" 
d="M180 570q-8 0 -10 -8q-19 -105 -14 -356q2 -88 1.5 -190t-7.5 -165q0 -4 2.5 -7.5t6.5 -3.5l80 -5q5 0 8 3t3 7q0 14 -0.5 153t0 209.5t5.5 177t15 168.5q1 5 -2 8.5t-7 3.5l-80 5h-1z" />
    <glyph glyph-name="braceright" unicode="}" horiz-adv-x="360" 
d="M93 567q-3 -3 -3 -7t3 -7t7 -3h15q27 -4 41 -17.5t19 -38.5q5 -22 5.5 -48.5t-1 -45t-4.5 -48t-4 -43.5q-3 -50 39 -78l15 -10l2 -2q-1 -2 -3 -5q-4 -5 -16 -17q-28 -28 -29 -104q0 -21 7 -85t2 -95q-4 -23 -18 -39t-46 -24h-29q-4 0 -7 -3t-3 -7t3 -7t7 -3h16h15
q40 0 64 5q46 8 73 39q20 24 19 64q-8 128 -5 167q6 69 35 98l12 12q6 8 6 14q0 8 -8 13q-3 2 -13 7q-30 15 -33 57q1 28 3.5 81.5t2.5 81.5q0 35 -19 58q-26 29 -74 38q-27 5 -73 5q-2 0 -7.5 0.5t-9.5 -0.5t-6 -3z" />
    <glyph glyph-name="asciitilde" unicode="~" 
d="M180 252q-42 -2 -104 -33q-6 -3 -6 -9q0 -12 3.5 -33t3.5 -29q-1 -6 4 -9l1 -1q6 -3 11 1q2 1 12 6.5t12 6.5l10 5l11 5l8 3l10 3l8 2l11 3l11 1q24 2 87 -17t95 -10q5 1 7.5 4.5t1.5 7.5q-2 7 -5 27.5t-5 28.5q-1 4 -4.5 6.5t-7.5 1.5q-36 -7 -57.5 -1t-54 17.5
t-52.5 12.5h-11z" />
    <glyph glyph-name="nonbreakingspace" unicode="&#xa0;" horiz-adv-x="200" 
 />
    <glyph glyph-name="exclamdown" unicode="&#xa1;" horiz-adv-x="166" 
d="M120 -141h-72l7 337h56zM132 296q0 -20 -14 -34t-34 -14t-34 14t-14 34t14 34t34 14t34 -14t14 -34z" />
    <glyph glyph-name="cent" unicode="&#xa2;" horiz-adv-x="479" 
d="M418 52q-53 -29 -133 -31v-77h-55v80q-78 14 -123.5 68.5t-45.5 136.5t45.5 136.5t123.5 68.5v80h55v-77q80 -2 133 -31l-21 -48q-25 11 -52 17t-56 6q-79 0 -123.5 -40t-44.5 -112t44.5 -112t123.5 -40q29 0 56 6t52 17z" />
    <glyph glyph-name="sterling" unicode="&#xa3;" horiz-adv-x="479" 
d="M391 0h-302v37q82 51 82 124q0 8 -1 21t-3 27h-77v46h71q-2 21 -3.5 38.5t-1.5 34.5q0 140 131 140q40 0 91 -23l-18 -42q-44 18 -75 18q-80 0 -80 -93q0 -38 7 -73h111v-46h-103q1 -8 1.5 -19.5t0.5 -21.5q0 -73 -42 -121h211v-47z" />
    <glyph glyph-name="currency" unicode="&#xa4;" horiz-adv-x="479" 
d="M427 226q0 -59 -34 -106l37 -39l-43 -46l-39 41q-44 -35 -109 -35q-63 0 -107 35l-39 -41l-43 46l37 39q-34 47 -34 106t34 106l-37 39l43 46l39 -41q44 35 107 35q65 0 109 -35l39 41l43 -46l-37 -39q34 -47 34 -106zM365 226q0 51 -37 88t-88 37q-53 0 -89 -37t-36 -88
q0 -53 36 -89t89 -36q51 0 88 36t37 89z" />
    <glyph glyph-name="yen" unicode="&#xa5;" horiz-adv-x="479" 
d="M384 91h-115v-73h-58v73h-115v50h115v32h-115v50h105l-145 238h70l113 -190l114 190h71l-146 -237h106v-51h-115v-32h115v-50z" />
    <glyph glyph-name="brokenbar" unicode="&#xa6;" horiz-adv-x="160" 
d="M104 220h-48v256h48v-256zM104 -119h-48v257h48v-257z" />
    <glyph glyph-name="section" unicode="&#xa7;" horiz-adv-x="379" 
d="M307 71q0 -51 -36.5 -80t-92.5 -29q-63 0 -110 38l23 42q20 -19 42 -27t47 -8q36 0 57.5 16.5t21.5 42.5q0 35 -48 59q-25 10 -52 20.5t-52 21.5q-53 26 -53 82q0 43 39 78q-18 23 -18 52q0 45 34 73t90 28q26 0 52.5 -8t52.5 -22l-25 -43q-40 29 -85 29q-29 0 -49 -14.5
t-20 -36.5q0 -11 6.5 -20t17.5 -17q8 -5 26 -12.5t42 -15.5q51 -18 79.5 -45.5t28.5 -62.5q0 -23 -10 -43.5t-27 -39.5q19 -23 19 -58zM274 207q0 17 -19.5 34.5t-49.5 28.5q-26 9 -45.5 17t-32.5 14q-25 -22 -25 -50q0 -12 8 -21.5t22 -19.5q10 -5 26.5 -12.5t42.5 -16.5
q19 -7 32 -12.5t22 -11.5q11 13 15 25t4 25z" />
    <glyph glyph-name="dieresis" unicode="&#xa8;" horiz-adv-x="340" 
d="M140 425q0 -19 -13 -31.5t-30 -12.5q-18 0 -31 12.5t-13 31.5q0 18 13 31t31 13q17 0 30 -13t13 -31zM288 425q0 -19 -13 -31.5t-30 -12.5t-30.5 12.5t-13.5 31.5q0 18 13.5 31t30.5 13t30 -13t13 -31z" />
    <glyph glyph-name="copyright" unicode="&#xa9;" 
d="M248 371q-43 0 -87 -29q-48 -31 -70 -78q-19 -39 -13 -88.5t34 -82.5q29 -32 76.5 -42t93.5 -1q29 6 54 24t34 43q1 4 -1 7.5t-6 5t-7.5 -0.5t-5.5 -6q-5 -18 -27 -33.5t-45 -19.5q-41 -8 -84 1t-66 36q-24 27 -29.5 71.5t10.5 77.5q20 41 63 70q45 29 87 24
q29 -3 56 -32q25 -27 35 -61q6 -17 2 -37t-15 -34q-12 -16 -26 -26q-15 -11 -36 -20q-22 -8 -35 -4q-14 4 -22 27q-13 36 5 86q6 20 11 28q6 9 10.5 12t13.5 1q14 -4 19 -14q2 -5 7 -5q5 -1 8 2q2 2 3 5q1 4 -1 7q-8 18 -22 23q-19 8 -46 3q-41 -8 -65 -54q-29 -53 -10 -101
q7 -18 22 -32t34 -17q39 -6 79.5 13.5t66.5 53.5q14 18 18.5 42.5t-1.5 46.5q-12 39 -40 69q-32 34 -69 38q-6 1 -13 1z" />
    <glyph glyph-name="ordfeminine" unicode="&#xaa;" horiz-adv-x="250" 
d="M225 248h-43q-2 5 -3 11.5t-3 14.5q-28 -29 -70 -29q-80 0 -80 72q0 80 147 83q-2 25 -17.5 35.5t-35.5 10.5q-17 0 -34.5 -4t-34.5 -16l-14 34q21 14 44 20t46 6q90 0 90 -110v-84q0 -5 1.5 -16.5t6.5 -27.5zM173 324v39q-54 0 -78.5 -11.5t-24.5 -34.5q0 -35 42 -35
q9 0 19.5 3t20 8.5t15.5 13t6 17.5z" />
    <glyph glyph-name="guillemotleft" unicode="&#xab;" horiz-adv-x="355" 
d="M326 47h-60l-114 132l114 135h59l-113 -134zM204 47h-61l-113 132l111 136h62l-114 -136z" />
    <glyph glyph-name="logicalnot" unicode="&#xac;" horiz-adv-x="446" 
d="M403 88h-48v146h-321v45h369v-191z" />
    <glyph glyph-name="sfthyphen" unicode="&#xad;" horiz-adv-x="422" 
d="M43.5 167q-5.5 15 1.5 29t23 19l17 5q23 8 47 10q19 2 37 1q18 0 46 -1q27 -1 63 0q43 1 62 -3l13 -5q15 -4 23 -18t4 -30t-18 -24t-30 -3l-13 4q-8 2 -40 1q-39 -2 -67 0h-44h-32q-12 -1 -25 -4l-18 -5q-15 -5 -29.5 2t-20 22z" />
    <glyph glyph-name="registered" unicode="&#xae;" 
d="M232 370q-29 1 -58 -18q-32 -21 -47 -52q-13 -27 -9 -60t24 -55q19 -22 50.5 -28.5t62.5 -0.5q20 4 36.5 16t22.5 29q2 4 0 8t-6 5t-7.5 -0.5t-5.5 -5.5q-3 -11 -16.5 -20.5t-27.5 -12.5q-26 -5 -53 1t-41 22q-15 17 -18.5 45t6.5 48q13 26 40 44q28 18 54 15
q18 -2 35 -19q17 -18 21 -38q3 -16 -3 -33q-5 -17 -16 -20t-21 2q-8 4 -15 15q-3 4 -7 11q4 2 8 5q10 7 16 15q9 11 6 22q-2 9 -10 14q-6 5 -15 6q-13 2 -31 -1q-9 -1 -22 -5q-5 -1 -6 -7q-2 -11 -2 -55q0 -21 -1 -30q0 -12 -1 -17t2 -9v0v-1h1v-1q5 -4 11 -1q3 0 6 1
q9 2 13 2t7 3t3 7q0 12 -1 39l6 -10q11 -14 23 -21q16 -9 36 -3t29 32q8 23 4 44q-6 26 -26 47q-22 23 -48 26h-9zM226 311q5 0 9 -1q4 0 7 -2q1 -1 2 -3q-1 -3 -3 -5q-4 -5 -12 -11q-4 -3 -9 -5h-4q0 14 1 26q5 1 9 1z" />
    <glyph glyph-name="macron" unicode="&#xaf;" horiz-adv-x="375" 
d="M376 528h-376v53h376v-53z" />
    <glyph glyph-name="degree" unicode="&#xb0;" horiz-adv-x="275" 
d="M227 397q0 -37 -26 -63t-63 -26t-63 26t-26 63t26 63t63 26t63 -26t26 -63zM195 397q0 23 -17 40t-40 17t-40 -17t-17 -40t17 -40t40 -17t40 17t17 40z" />
    <glyph glyph-name="plusminus" unicode="&#xb1;" horiz-adv-x="439" 
d="M405 0h-369v55h369v-55zM400 217h-148v-139h-63v139h-148v55h148v151h63v-151h148v-55z" />
    <glyph glyph-name="twosuperior" unicode="&#xb2;" horiz-adv-x="259" 
d="M217 190h-190q0 31 22.5 59.5t49 54.5t49 50.5t22.5 47.5q0 17 -9.5 26t-24.5 9q-19 0 -34 -14t-17 -41l-42 8q5 45 29 68.5t61 23.5q38 0 61.5 -21.5t23.5 -58.5q0 -21 -13 -46t-41 -54l-65 -67h124z" />
    <glyph glyph-name="threesuperior" unicode="&#xb3;" horiz-adv-x="259" 
d="M228 294q0 -48 -31.5 -77t-85.5 -30q-41 0 -75 25l20 42q14 -12 28 -16t28 -4q32 0 50.5 16.5t18.5 42.5q0 17 -10.5 26t-24.5 9q-12 0 -24 -4.5t-20 -10.5l-16 30q39 18 58.5 37.5t19.5 35.5q0 22 -28 22q-17 0 -33 -11.5t-24 -34.5l-37 19q31 72 97 72q69 0 69 -59
q0 -34 -32 -62q52 -15 52 -68z" />
    <glyph glyph-name="acute" unicode="&#xb4;" horiz-adv-x="201" 
d="M116.5 472q-10.5 -1 -17 -8.5t-4.5 -15.5l1 -15q3 -9 -4 -22q-11 -22 -17 -23l-7 -3q-10 -3 -14.5 -12t0.5 -17t15.5 -11t20.5 0l8 4q13 5 25 17q10 11 20 32t7 42l-2 14q-2 8 -11.5 13.5t-20 4.5z" />
    <glyph glyph-name="mu" unicode="&#xb5;" horiz-adv-x="412" 
d="M386 4l-61 -12q-5 11 -8.5 22.5t-6.5 25.5q-28 -22 -57.5 -35.5t-64.5 -13.5q-23 0 -43.5 8t-34.5 25v-165h-63v483h63v-182q0 -113 86 -113q37 0 71.5 25.5t34.5 66.5v203h63v-251q0 -18 5.5 -40t15.5 -47z" />
    <glyph glyph-name="paragraph" unicode="&#xb6;" horiz-adv-x="379" 
d="M324 -63h-34v506h-48v-506h-35v243h-4q-60 0 -107.5 37.5t-47.5 103.5q0 154 198 154q53 0 78 -5v-533z" />
    <glyph glyph-name="periodcentered" unicode="&#xb7;" horiz-adv-x="170" 
d="M134 182q0 -20 -14 -34t-34 -14t-34 14t-14 34t14 34t34 14t34 -14t14 -34z" />
    <glyph glyph-name="cedilla" unicode="&#xb8;" horiz-adv-x="247" 
d="M196 -90q0 -32 -21 -50.5t-59 -18.5q-14 0 -31 4.5t-32 13.5l14 32q14 -7 28.5 -11t22.5 -4q32 0 32 30q0 28 -64 39l43 66h43l-28 -39q27 -8 39.5 -23.5t12.5 -38.5z" />
    <glyph glyph-name="onesuperior" unicode="&#xb9;" horiz-adv-x="259" 
d="M210 195h-134v39h43v180l-40 -38l-25 34l83 74q15 0 23 -9.5t8 -24.5v-216h42v-39z" />
    <glyph glyph-name="ordmasculine" unicode="&#xba;" horiz-adv-x="292" 
d="M274 359q0 -54 -37.5 -90.5t-90.5 -36.5q-54 0 -90.5 36.5t-36.5 90.5q0 53 36.5 90.5t90.5 37.5q53 0 90.5 -37.5t37.5 -90.5zM230 359q0 34 -25 59t-59 25t-58.5 -25t-24.5 -59t24.5 -58.5t58.5 -24.5t59 24.5t25 58.5z" />
    <glyph glyph-name="guillemotright" unicode="&#xbb;" horiz-adv-x="355" 
d="M90 47h-60l114 133l-113 134h59l114 -135zM213 47h-61l115 132l-114 136h62l111 -136z" />
    <glyph glyph-name="onequarter" unicode="&#xbc;" horiz-adv-x="541" 
d="M180 176h-134v39h43v174l-38 -33l-28 36l84 74q31 -2 31 -35v-216h42v-39zM158 -9h-50l287 483h50zM415 108v118q-23 -20 -39.5 -53.5t-20.5 -64.5h60zM464 0h-49v60h-112q0 32 10 72t30 75.5t51.5 60t69.5 25.5v-185h42l-2 -48h-40v-60z" />
    <glyph glyph-name="onehalf" unicode="&#xbd;" horiz-adv-x="541" 
d="M520 0h-190q3 38 25.5 67t47.5 52q12 12 24.5 23.5t22.5 23.5t16.5 23.5t6.5 22.5q0 14 -8.5 24t-25.5 10q-41 0 -48 -54l-45 8q4 45 28.5 68.5t61.5 23.5q38 0 62 -21t24 -59q0 -25 -14.5 -47t-34 -42.5t-39.5 -39.5t-32 -37h124zM158 -9h-50l287 483h50zM180 176h-134
v39h43v174l-38 -33l-28 36l84 74q31 -2 31 -35v-216h42v-39z" />
    <glyph glyph-name="threequarters" unicode="&#xbe;" horiz-adv-x="541" 
d="M158 -9h-50l287 483h50zM223 285q0 -26 -10 -46t-26 -33.5t-37.5 -20.5t-43.5 -7q-41 0 -75 25l20 43q14 -11 28 -16.5t28 -5.5q32 0 50.5 17t18.5 43q0 35 -33 35q-25 0 -46 -18l-16 30q44 23 59.5 41t15.5 38q0 8 -6 13.5t-19 5.5q-40 0 -57 -49l-37 19q30 72 97 72
q35 0 51.5 -16t16.5 -38q0 -34 -31 -62q27 -4 39.5 -23t12.5 -47zM415 108v118q-23 -20 -39.5 -53.5t-20.5 -64.5h60zM464 0h-49v60h-112q0 32 10 72t30 75.5t51.5 60t69.5 25.5v-185h42l-2 -48h-40v-60z" />
    <glyph glyph-name="questiondown" unicode="&#xbf;" horiz-adv-x="287" 
d="M265 -114q-59 -37 -115 -37q-57 0 -91.5 30.5t-34.5 81.5q0 53 66 121q23 23 34 46.5t12 44.5q0 17 -7 42h57q5 -14 7.5 -25.5t2.5 -19.5q0 -55 -58 -116q-51 -54 -51 -91q0 -57 70 -57q43 0 83 29zM201 293q0 -20 -14 -34t-33 -14t-33 14t-14 34t14 34t33 14t33 -14
t14 -34z" />
    <glyph glyph-name="Agrave" unicode="&#xc0;" horiz-adv-x="480" 
d="M435 752h-2q-17 -4 -55 -2q-33 1 -47 -9q-4 -2 -5 -4v-1v-1q-2 -3 -1 -6q3 -26 8.5 -54t14 -63t11.5 -52q1 -4 4.5 -6t7.5 -2q10 2 42 5t44 5q3 1 5.5 4t2.5 7q-2 20 -7.5 53.5t-9 61.5t-3.5 54q0 4 -3 7t-7 3zM320 530h-3q-76 -11 -100 -20q-1 -1 -2 -1l-1 -1l-1 -1
q-30 -30 -67 -106q-33 -69 -56 -138q-23 -73 -39 -215t-21 -166q-1 -4 1.5 -7.5t6.5 -4.5t7.5 1.5t4.5 6.5q5 26 9 59t9 79.5t8 71.5q7 -2 15 -3t14.5 -1.5t16.5 -0.5h16l18 1l16 2l19 2l17 2l18 2l17 3q59 8 84 8h14q4 -30 9 -77.5t10 -84t10 -63.5q1 -5 5 -7t9 0
q12 5 31 15.5t34 17t31 6.5h1v0q5 1 7.5 5t1.5 8q-6 26 -22.5 167t-38 213t-43.5 125q-30 69 -57 97q-3 4 -7 5h-2zM218 482q66 -138 92 -225q17 -54 28 -134h-11q-27 0 -86 -8q-123 -17 -162 -7q12 91 31 149q21 68 54 136q29 59 54 89z" />
    <glyph glyph-name="Aacute" unicode="&#xc1;" horiz-adv-x="480" 
d="M307.5 684q-10.5 -1 -17 -8.5t-4.5 -15.5l1 -15q3 -9 -4 -22q-11 -22 -17 -23l-7 -3q-10 -3 -14.5 -12t0.5 -17t15.5 -11t20.5 0l8 4q13 5 25 17q10 11 20 32t7 42l-2 14q-2 8 -11.5 13.5t-20 4.5zM320 530h-3q-76 -11 -100 -20q-1 -1 -2 -1l-1 -1l-1 -1
q-30 -30 -67 -106q-33 -69 -56 -138q-23 -73 -39 -215t-21 -166q-1 -4 1.5 -7.5t6.5 -4.5t7.5 1.5t4.5 6.5q5 26 9 59t9 79.5t8 71.5q7 -2 15 -3t14.5 -1.5t16.5 -0.5h16l18 1l16 2l19 2l17 2l18 2l17 3q59 8 84 8h14q4 -30 9 -77.5t10 -84t10 -63.5q1 -5 5 -7t9 0
q12 5 31 15.5t34 17t31 6.5h1v0q5 1 7.5 5t1.5 8q-6 26 -22.5 167t-38 213t-43.5 125q-30 69 -57 97q-3 4 -7 5h-2zM218 482q66 -138 92 -225q17 -54 28 -134h-11q-27 0 -86 -8q-123 -17 -162 -7q12 91 31 149q21 68 54 136q29 59 54 89z" />
    <glyph glyph-name="Acircumflex" unicode="&#xc2;" horiz-adv-x="480" 
d="M394 597h-54l-41 71l-40 -71h-55l78 115h35zM320 530h-3q-76 -11 -100 -20q-1 -1 -2 -1l-1 -1l-1 -1q-30 -30 -67 -106q-33 -69 -56 -138q-23 -73 -39 -215t-21 -166q-1 -4 1.5 -7.5t6.5 -4.5t7.5 1.5t4.5 6.5q5 26 9 59t9 79.5t8 71.5q7 -2 15 -3t14.5 -1.5t16.5 -0.5
h16l18 1l16 2l19 2l17 2l18 2l17 3q59 8 84 8h14q4 -30 9 -77.5t10 -84t10 -63.5q1 -5 5 -7t9 0q12 5 31 15.5t34 17t31 6.5h1v0q5 1 7.5 5t1.5 8q-6 26 -22.5 167t-38 213t-43.5 125q-30 69 -57 97q-3 4 -7 5h-2zM218 482q66 -138 92 -225q17 -54 28 -134h-11q-27 0 -86 -8
q-123 -17 -162 -7q12 91 31 149q21 68 54 136q29 59 54 89z" />
    <glyph glyph-name="Atilde" unicode="&#xc3;" horiz-adv-x="480" 
d="M423 655q-1 -35 -15.5 -55.5t-43.5 -20.5q-8 0 -19.5 4.5t-24 10t-23.5 10t-18 4.5q-8 0 -10 -7.5t-2 -16.5h-44q0 30 14.5 50.5t41.5 20.5q9 0 20.5 -4t22.5 -9.5t21.5 -9.5t17.5 -4q19 0 19 27h43zM320 530h-3q-76 -11 -100 -20q-1 -1 -2 -1l-1 -1l-1 -1
q-30 -30 -67 -106q-33 -69 -56 -138q-23 -73 -39 -215t-21 -166q-1 -4 1.5 -7.5t6.5 -4.5t7.5 1.5t4.5 6.5q5 26 9 59t9 79.5t8 71.5q7 -2 15 -3t14.5 -1.5t16.5 -0.5h16l18 1l16 2l19 2l17 2l18 2l17 3q59 8 84 8h14q4 -30 9 -77.5t10 -84t10 -63.5q1 -5 5 -7t9 0
q12 5 31 15.5t34 17t31 6.5h1v0q5 1 7.5 5t1.5 8q-6 26 -22.5 167t-38 213t-43.5 125q-30 69 -57 97q-3 4 -7 5h-2zM218 482q66 -138 92 -225q17 -54 28 -134h-11q-27 0 -86 -8q-123 -17 -162 -7q12 91 31 149q21 68 54 136q29 59 54 89z" />
    <glyph glyph-name="Adieresis" unicode="&#xc4;" horiz-adv-x="480" 
d="M327 635q0 -19 -13 -31.5t-30 -12.5q-18 0 -31 12.5t-13 31.5q0 18 13 31t31 13q17 0 30 -13t13 -31zM475 635q0 -19 -13 -31.5t-30 -12.5t-30.5 12.5t-13.5 31.5q0 18 13.5 31t30.5 13t30 -13t13 -31zM320 530h-3q-76 -11 -100 -20q-1 -1 -2 -1l-1 -1l-1 -1
q-30 -30 -67 -106q-33 -69 -56 -138q-23 -73 -39 -215t-21 -166q-1 -4 1.5 -7.5t6.5 -4.5t7.5 1.5t4.5 6.5q5 26 9 59t9 79.5t8 71.5q7 -2 15 -3t14.5 -1.5t16.5 -0.5h16l18 1l16 2l19 2l17 2l18 2l17 3q59 8 84 8h14q4 -30 9 -77.5t10 -84t10 -63.5q1 -5 5 -7t9 0
q12 5 31 15.5t34 17t31 6.5h1v0q5 1 7.5 5t1.5 8q-6 26 -22.5 167t-38 213t-43.5 125q-30 69 -57 97q-3 4 -7 5h-2zM218 482q66 -138 92 -225q17 -54 28 -134h-11q-27 0 -86 -8q-123 -17 -162 -7q12 91 31 149q21 68 54 136q29 59 54 89z" />
    <glyph glyph-name="Aring" unicode="&#xc5;" horiz-adv-x="480" 
d="M407 670q0 -33 -23.5 -56.5t-56.5 -23.5t-56.5 23.5t-23.5 56.5t23.5 56.5t56.5 23.5t56.5 -23.5t23.5 -56.5zM365 670q0 16 -11 27t-27 11t-27.5 -11t-11.5 -27t11.5 -27.5t27.5 -11.5t27 11.5t11 27.5zM320 530h-3q-76 -11 -100 -20q-1 -1 -2 -1l-1 -1l-1 -1
q-30 -30 -67 -106q-33 -69 -56 -138q-23 -73 -39 -215t-21 -166q-1 -4 1.5 -7.5t6.5 -4.5t7.5 1.5t4.5 6.5q5 26 9 59t9 79.5t8 71.5q7 -2 15 -3t14.5 -1.5t16.5 -0.5h16l18 1l16 2l19 2l17 2l18 2l17 3q59 8 84 8h14q4 -30 9 -77.5t10 -84t10 -63.5q1 -5 5 -7t9 0
q12 5 31 15.5t34 17t31 6.5h1v0q5 1 7.5 5t1.5 8q-6 26 -22.5 167t-38 213t-43.5 125q-30 69 -57 97q-3 4 -7 5h-2zM218 482q66 -138 92 -225q17 -54 28 -134h-11q-27 0 -86 -8q-123 -17 -162 -7q12 91 31 149q21 68 54 136q29 59 54 89z" />
    <glyph glyph-name="AE" unicode="&#xc6;" horiz-adv-x="581" 
d="M555 0h-229l-27 190h-140l-101 -190h-68l259 483h294v-55h-218l19 -147h189v-55h-180l26 -171h176v-55zM291 244l-19 161l-86 -161h105z" />
    <glyph glyph-name="Ccedilla" unicode="&#xc7;" horiz-adv-x="480" 
d="M403 -90q0 -32 -21 -50.5t-59 -18.5q-14 0 -31 4.5t-32 13.5l14 32q14 -7 28.5 -11t22.5 -4q32 0 32 30q0 28 -64 39l43 66h43l-28 -39q27 -8 39.5 -23.5t12.5 -38.5zM360 537q-22 0 -43 -8q-59 -20 -108.5 -57t-77.5 -87q-50 -91 -62.5 -196t22.5 -203
q13 -35 42.5 -62.5t64.5 -33.5q109 -17 229 103q28 30 61 82q3 3 2 7t-4.5 6.5t-7.5 1.5t-6 -5q-35 -56 -59 -78q-26 -23 -65 -41q-51 -22 -86 -16q-16 3 -31 15.5t-22 28.5q-60 143 30 382q34 89 85 115q13 7 27 7q15 1 23 -6q13 -11 16 -36v-56q0 -6 4.5 -8.5t9.5 -0.5
q9 5 53 16q15 3 22 9q11 9 11 24q0 31 -30 57q-21 18 -56 32q-20 8 -44 8z" />
    <glyph glyph-name="Egrave" unicode="&#xc8;" horiz-adv-x="480" 
d="M419 752h-2q-17 -4 -55 -2q-33 1 -47 -9q-4 -2 -5 -4v-1v-1q-2 -3 -1 -6q3 -26 8.5 -54t14 -63t11.5 -52q1 -4 4.5 -6t7.5 -2q10 2 42 5t44 5q3 1 5.5 4t2.5 7q-2 20 -7.5 53.5t-9 61.5t-3.5 54q0 4 -3 7t-7 3zM440 550h-2q-26 -7 -105.5 -11.5t-125.5 -26.5l-3 3
q-4 5 -10 5q-72 0 -105 -22q-7 -4 -5 -11q15 -50 20 -187q3 -68 -3.5 -195.5t-6.5 -164.5q0 -4 3 -7q9 -9 28 -14q14 -4 33 -6q21 -3 39 -3h5v0q2 1 3 1v1q38 18 150 18q54 0 77 3q39 4 55 20q5 5 2.5 11t-9.5 6q-4 0 -7 -3q-11 -11 -44 -15q-21 -2 -74 -2q-101 0 -140 -13
q9 47 13 154q2 70 1 149q57 10 151 10q4 0 7 3t3 7t-3 7t-7 3q-94 0 -152 -10q0 31 -1 58q-3 82 -7 121q-3 34 -6 52q0 1 -1 2q42 20 120.5 25t108.5 12q9 2 8 11t-10 9z" />
    <glyph glyph-name="Eacute" unicode="&#xc9;" horiz-adv-x="480" 
d="M297.5 684q-10.5 -1 -17 -8.5t-4.5 -15.5l1 -15q3 -9 -4 -22q-11 -22 -17 -23l-7 -3q-10 -3 -14.5 -12t0.5 -17t15.5 -11t20.5 0l8 4q13 5 25 17q10 11 20 32t7 42l-2 14q-2 8 -11.5 13.5t-20 4.5zM440 550h-2q-26 -7 -105.5 -11.5t-125.5 -26.5l-3 3q-4 5 -10 5
q-72 0 -105 -22q-7 -4 -5 -11q15 -50 20 -187q3 -68 -3.5 -195.5t-6.5 -164.5q0 -4 3 -7q9 -9 28 -14q14 -4 33 -6q21 -3 39 -3h5v0q2 1 3 1v1q38 18 150 18q54 0 77 3q39 4 55 20q5 5 2.5 11t-9.5 6q-4 0 -7 -3q-11 -11 -44 -15q-21 -2 -74 -2q-101 0 -140 -13q9 47 13 154
q2 70 1 149q57 10 151 10q4 0 7 3t3 7t-3 7t-7 3q-94 0 -152 -10q0 31 -1 58q-3 82 -7 121q-3 34 -6 52q0 1 -1 2q42 20 120.5 25t108.5 12q9 2 8 11t-10 9z" />
    <glyph glyph-name="Ecircumflex" unicode="&#xca;" horiz-adv-x="480" 
d="M384 597h-54l-41 71l-40 -71h-55l78 115h35zM440 550h-2q-26 -7 -105.5 -11.5t-125.5 -26.5l-3 3q-4 5 -10 5q-72 0 -105 -22q-7 -4 -5 -11q15 -50 20 -187q3 -68 -3.5 -195.5t-6.5 -164.5q0 -4 3 -7q9 -9 28 -14q14 -4 33 -6q21 -3 39 -3h5v0q2 1 3 1v1q38 18 150 18
q54 0 77 3q39 4 55 20q5 5 2.5 11t-9.5 6q-4 0 -7 -3q-11 -11 -44 -15q-21 -2 -74 -2q-101 0 -140 -13q9 47 13 154q2 70 1 149q57 10 151 10q4 0 7 3t3 7t-3 7t-7 3q-94 0 -152 -10q0 31 -1 58q-3 82 -7 121q-3 34 -6 52q0 1 -1 2q42 20 120.5 25t108.5 12q9 2 8 11t-10 9z
" />
    <glyph glyph-name="Edieresis" unicode="&#xcb;" horiz-adv-x="480" 
d="M319 635q0 -19 -13 -31.5t-30 -12.5q-18 0 -31 12.5t-13 31.5q0 18 13 31t31 13q17 0 30 -13t13 -31zM467 635q0 -19 -13 -31.5t-30 -12.5t-30.5 12.5t-13.5 31.5q0 18 13.5 31t30.5 13t30 -13t13 -31zM440 550h-2q-26 -7 -105.5 -11.5t-125.5 -26.5l-3 3q-4 5 -10 5
q-72 0 -105 -22q-7 -4 -5 -11q15 -50 20 -187q3 -68 -3.5 -195.5t-6.5 -164.5q0 -4 3 -7q9 -9 28 -14q14 -4 33 -6q21 -3 39 -3h5v0q2 1 3 1v1q38 18 150 18q54 0 77 3q39 4 55 20q5 5 2.5 11t-9.5 6q-4 0 -7 -3q-11 -11 -44 -15q-21 -2 -74 -2q-101 0 -140 -13q9 47 13 154
q2 70 1 149q57 10 151 10q4 0 7 3t3 7t-3 7t-7 3q-94 0 -152 -10q0 31 -1 58q-3 82 -7 121q-3 34 -6 52q0 1 -1 2q42 20 120.5 25t108.5 12q9 2 8 11t-10 9z" />
    <glyph glyph-name="Igrave" unicode="&#xcc;" horiz-adv-x="320" 
d="M290 752h-2q-17 -4 -55 -2q-33 1 -47 -9q-4 -2 -5 -4v-1v-1q-2 -3 -1 -6q3 -26 8.5 -54t14 -63t11.5 -52q1 -4 4.5 -6t7.5 -2q10 2 42 5t44 5q3 1 5.5 4t2.5 7q-2 20 -7.5 53.5t-9 61.5t-3.5 54q0 4 -3 7t-7 3zM100 520q-4 0 -7 -3t-3 -7t3 -7t7 -3q23 0 44 -1
q-3 -16 -8 -74q-2 -26 -9 -106q-9 -117 -17 -234q-9 -122 -10 -157q-10 1 -19 2q-4 0 -7 -2t-3.5 -6.5t1.5 -7.5t7 -4q77 -11 203 10q4 1 6.5 4t2 7t-3.5 6.5t-7 2.5h-2q-21 -4 -38 -6q0 222 10 365q10 144 20 178v2q14 -4 27 -9q4 -1 7.5 1t5 6t-0.5 7.5t-6 5.5
q-91 30 -203 30z" />
    <glyph glyph-name="Iacute" unicode="&#xcd;" horiz-adv-x="320" 
d="M166.5 684q-10.5 -1 -17 -8.5t-4.5 -15.5l1 -15q3 -9 -4 -22q-11 -22 -17 -23l-7 -3q-10 -3 -14.5 -12t0.5 -17t15.5 -11t20.5 0l8 4q13 5 25 17q10 11 20 32t7 42l-2 14q-2 8 -11.5 13.5t-20 4.5zM100 520q-4 0 -7 -3t-3 -7t3 -7t7 -3q23 0 44 -1q-3 -16 -8 -74
q-2 -26 -9 -106q-9 -117 -17 -234q-9 -122 -10 -157q-10 1 -19 2q-4 0 -7 -2t-3.5 -6.5t1.5 -7.5t7 -4q77 -11 203 10q4 1 6.5 4t2 7t-3.5 6.5t-7 2.5h-2q-21 -4 -38 -6q0 222 10 365q10 144 20 178v2q14 -4 27 -9q4 -1 7.5 1t5 6t-0.5 7.5t-6 5.5q-91 30 -203 30z" />
    <glyph glyph-name="Icircumflex" unicode="&#xce;" horiz-adv-x="320" 
d="M254 597h-54l-41 71l-40 -71h-55l78 115h35zM100 520q-4 0 -7 -3t-3 -7t3 -7t7 -3q23 0 44 -1q-3 -16 -8 -74q-2 -26 -9 -106q-9 -117 -17 -234q-9 -122 -10 -157q-10 1 -19 2q-4 0 -7 -2t-3.5 -6.5t1.5 -7.5t7 -4q77 -11 203 10q4 1 6.5 4t2 7t-3.5 6.5t-7 2.5h-2
q-21 -4 -38 -6q0 222 10 365q10 144 20 178v2q14 -4 27 -9q4 -1 7.5 1t5 6t-0.5 7.5t-6 5.5q-91 30 -203 30z" />
    <glyph glyph-name="Idieresis" unicode="&#xcf;" horiz-adv-x="320" 
d="M190 635q0 -19 -13 -31.5t-30 -12.5q-18 0 -31 12.5t-13 31.5q0 18 13 31t31 13q17 0 30 -13t13 -31zM338 635q0 -19 -13 -31.5t-30 -12.5t-30.5 12.5t-13.5 31.5q0 18 13.5 31t30.5 13t30 -13t13 -31zM100 520q-4 0 -7 -3t-3 -7t3 -7t7 -3q23 0 44 -1q-3 -16 -8 -74
q-2 -26 -9 -106q-9 -117 -17 -234q-9 -122 -10 -157q-10 1 -19 2q-4 0 -7 -2t-3.5 -6.5t1.5 -7.5t7 -4q77 -11 203 10q4 1 6.5 4t2 7t-3.5 6.5t-7 2.5h-2q-21 -4 -38 -6q0 222 10 365q10 144 20 178v2q14 -4 27 -9q4 -1 7.5 1t5 6t-0.5 7.5t-6 5.5q-91 30 -203 30z" />
    <glyph glyph-name="Eth" unicode="&#xd0;" horiz-adv-x="458" 
d="M433 248q0 -108 -52 -173q-64 -79 -197 -79q-41 0 -134 10v200h-41v54h41v208q114 13 154 13q122 0 181 -73q48 -59 48 -160zM369 248q0 179 -168 179q-28 0 -88 -6v-161h160v-54h-160v-153q33 -3 83 -3q97 0 141 69q32 51 32 129z" />
    <glyph glyph-name="Ntilde" unicode="&#xd1;" horiz-adv-x="480" 
d="M463 655q-1 -35 -15.5 -55.5t-43.5 -20.5q-8 0 -19.5 4.5t-24 10t-23.5 10t-18 4.5q-8 0 -10 -7.5t-2 -16.5h-44q0 30 14.5 50.5t41.5 20.5q9 0 20.5 -4t22.5 -9.5t21.5 -9.5t17.5 -4q19 0 19 27h43zM460 530h-2h-78q-4 0 -7 -3t-3 -7q0 -264 -4 -350q-8 24 -22.5 72.5
t-16.5 55.5q-25 82 -44 126q-28 62 -57 84v0l-1 1h-1q-33 21 -104 21q-8 0 -10 -8q-10 -50 -20 -299q-5 -122 -8 -172q-5 -81 -11 -107q-2 -5 0 -8v-1l1 -1l1 -1q2 -3 6 -3q20 -5 44 -10q51 -10 77 -10q4 0 7 3t3 7q1 300 18 558q19 -22 36 -62q19 -43 44 -124
q47 -154 55 -175q-6 -89 -19 -165q-1 -5 2 -8.5t8 -3.5q7 0 29 -5q26 -5 37 -5q6 0 9 6q4 8 8 35q2 23 5 62q3 52 8 174q10 262 20 310q1 5 -2 9v1h-1v0q-3 3 -7 3z" />
    <glyph glyph-name="Ograve" unicode="&#xd2;" horiz-adv-x="480" 
d="M475 752h-2q-17 -4 -55 -2q-33 1 -47 -9q-4 -2 -5 -4v-1v-1q-2 -3 -1 -6q3 -26 8.5 -54t14 -63t11.5 -52q1 -4 4.5 -6t7.5 -2q10 2 42 5t44 5q3 1 5.5 4t2.5 7q-2 20 -7.5 53.5t-9 61.5t-3.5 54q0 4 -3 7t-7 3zM256 529q-53 -20 -98 -58t-67 -87q-38 -83 -39 -179.5
t39 -178.5q18 -37 53 -63.5t75 -32.5q47 -7 85.5 6t82.5 57l1 1q25 25 50.5 65.5t31.5 78.5q14 94 -11 207q-25 115 -72 162q-2 2 -4 3q-3 2 -7.5 8.5t-8.5 8.5q-19 11 -57 11q-30 0 -54 -9zM320 472q55 -2 83 -29q2 -2 4 -2q20 -44 33 -100q24 -110 10 -199q-5 -33 -30 -73
t-47 -62q-16 -16 -49 -20q-32 -5 -61 3q-17 4 -31.5 16.5t-22.5 27.5q-37 77 -40 170.5t30 171.5q14 33 42.5 60t60.5 34q9 2 18 2z" />
    <glyph glyph-name="Oacute" unicode="&#xd3;" horiz-adv-x="480" 
d="M353.5 684q-10.5 -1 -17 -8.5t-4.5 -15.5l1 -15q3 -9 -4 -22q-11 -22 -17 -23l-7 -3q-10 -3 -14.5 -12t0.5 -17t15.5 -11t20.5 0l8 4q13 5 25 17q10 11 20 32t7 42l-2 14q-2 8 -11.5 13.5t-20 4.5zM256 529q-53 -20 -98 -58t-67 -87q-38 -83 -39 -179.5t39 -178.5
q18 -37 53 -63.5t75 -32.5q47 -7 85.5 6t82.5 57l1 1q25 25 50.5 65.5t31.5 78.5q14 94 -11 207q-25 115 -72 162q-2 2 -4 3q-3 2 -7.5 8.5t-8.5 8.5q-19 11 -57 11q-30 0 -54 -9zM320 472q55 -2 83 -29q2 -2 4 -2q20 -44 33 -100q24 -110 10 -199q-5 -33 -30 -73t-47 -62
q-16 -16 -49 -20q-32 -5 -61 3q-17 4 -31.5 16.5t-22.5 27.5q-37 77 -40 170.5t30 171.5q14 33 42.5 60t60.5 34q9 2 18 2z" />
    <glyph glyph-name="Ocircumflex" unicode="&#xd4;" horiz-adv-x="480" 
d="M439 597h-54l-41 71l-40 -71h-55l78 115h35zM256 529q-53 -20 -98 -58t-67 -87q-38 -83 -39 -179.5t39 -178.5q18 -37 53 -63.5t75 -32.5q47 -7 85.5 6t82.5 57l1 1q25 25 50.5 65.5t31.5 78.5q14 94 -11 207q-25 115 -72 162q-2 2 -4 3q-3 2 -7.5 8.5t-8.5 8.5
q-19 11 -57 11q-30 0 -54 -9zM320 472q55 -2 83 -29q2 -2 4 -2q20 -44 33 -100q24 -110 10 -199q-5 -33 -30 -73t-47 -62q-16 -16 -49 -20q-32 -5 -61 3q-17 4 -31.5 16.5t-22.5 27.5q-37 77 -40 170.5t30 171.5q14 33 42.5 60t60.5 34q9 2 18 2z" />
    <glyph glyph-name="Otilde" unicode="&#xd5;" horiz-adv-x="480" 
d="M463 655q-1 -35 -15.5 -55.5t-43.5 -20.5q-8 0 -19.5 4.5t-24 10t-23.5 10t-18 4.5q-8 0 -10 -7.5t-2 -16.5h-44q0 30 14.5 50.5t41.5 20.5q9 0 20.5 -4t22.5 -9.5t21.5 -9.5t17.5 -4q19 0 19 27h43zM256 529q-53 -20 -98 -58t-67 -87q-38 -83 -39 -179.5t39 -178.5
q18 -37 53 -63.5t75 -32.5q47 -7 85.5 6t82.5 57l1 1q25 25 50.5 65.5t31.5 78.5q14 94 -11 207q-25 115 -72 162q-2 2 -4 3q-3 2 -7.5 8.5t-8.5 8.5q-19 11 -57 11q-30 0 -54 -9zM320 472q55 -2 83 -29q2 -2 4 -2q20 -44 33 -100q24 -110 10 -199q-5 -33 -30 -73t-47 -62
q-16 -16 -49 -20q-32 -5 -61 3q-17 4 -31.5 16.5t-22.5 27.5q-37 77 -40 170.5t30 171.5q14 33 42.5 60t60.5 34q9 2 18 2z" />
    <glyph glyph-name="Odieresis" unicode="&#xd6;" horiz-adv-x="480" 
d="M375 635q0 -19 -13 -31.5t-30 -12.5q-18 0 -31 12.5t-13 31.5q0 18 13 31t31 13q17 0 30 -13t13 -31zM523 635q0 -19 -13 -31.5t-30 -12.5t-30.5 12.5t-13.5 31.5q0 18 13.5 31t30.5 13t30 -13t13 -31zM256 529q-53 -20 -98 -58t-67 -87q-38 -83 -39 -179.5t39 -178.5
q18 -37 53 -63.5t75 -32.5q47 -7 85.5 6t82.5 57l1 1q25 25 50.5 65.5t31.5 78.5q14 94 -11 207q-25 115 -72 162q-2 2 -4 3q-3 2 -7.5 8.5t-8.5 8.5q-19 11 -57 11q-30 0 -54 -9zM320 472q55 -2 83 -29q2 -2 4 -2q20 -44 33 -100q24 -110 10 -199q-5 -33 -30 -73t-47 -62
q-16 -16 -49 -20q-32 -5 -61 3q-17 4 -31.5 16.5t-22.5 27.5q-37 77 -40 170.5t30 171.5q14 33 42.5 60t60.5 34q9 2 18 2z" />
    <glyph glyph-name="multiply" unicode="&#xd7;" horiz-adv-x="416" 
d="M390 34l-40 -39l-142 148q-35 -35 -71 -74t-70 -74l-40 39l142 148q-35 37 -71 75.5t-71 75.5l40 39l142 -148q34 36 71 74.5t70 73.5l40 -39l-143 -150z" />
    <glyph glyph-name="Oslash" unicode="&#xd8;" horiz-adv-x="516" 
d="M492 237q0 -105 -65 -176t-168 -71q-47 0 -86 14l-16 -32h-64l30 59q-17 13 -32 30q-65 71 -65 176t65 176.5t168 71.5q49 0 89 -16l12 23h64l-27 -52q16 -12 30 -27q65 -71 65 -176zM323 419q-29 12 -64 12q-77 0 -124 -55.5t-47 -137.5t47 -138q7 -9 15 -16zM430 238
q0 82 -47 137q-6 7 -12 13l-172 -333q27 -10 60 -10q77 0 124 55.5t47 137.5z" />
    <glyph glyph-name="Ugrave" unicode="&#xd9;" horiz-adv-x="480" 
d="M492 752h-2q-17 -4 -55 -2q-33 1 -47 -9q-4 -2 -5 -4v-1v-1q-2 -3 -1 -6q3 -26 8.5 -54t14 -63t11.5 -52q1 -4 4.5 -6t7.5 -2q10 2 42 5t44 5q3 1 5.5 4t2.5 7q-2 20 -7.5 53.5t-9 61.5t-3.5 54q0 4 -3 7t-7 3zM180 530q-73 0 -106 -22q-4 -3 -4 -8v-420q0 -59 37 -107
q48 -63 133 -63q28 0 53.5 11t41 24.5t29.5 31t18 25.5t7 13v0q20 38 34 83t20 82t8.5 89t2 82.5t-2.5 85t-3 73.5q0 4 -3 7t-7 3t-7 -3t-3 -7q1 -19 2.5 -74.5t2 -84.5t-1.5 -80.5t-8 -87.5t-19 -79.5t-33 -78.5v0v0q-17 -32 -47.5 -53.5t-63.5 -21.5q-36 0 -54 34
q-16 33 -16 96q0 15 2 54t5 95.5t5 97.5q3 88 1 135q-1 29 -4 44q-2 9 -5 15q-5 9 -14 9z" />
    <glyph glyph-name="Uacute" unicode="&#xda;" horiz-adv-x="480" 
d="M377.5 684q-10.5 -1 -17 -8.5t-4.5 -15.5l1 -15q3 -9 -4 -22q-11 -22 -17 -23l-7 -3q-10 -3 -14.5 -12t0.5 -17t15.5 -11t20.5 0l8 4q13 5 25 17q10 11 20 32t7 42l-2 14q-2 8 -11.5 13.5t-20 4.5zM180 530q-73 0 -106 -22q-4 -3 -4 -8v-420q0 -59 37 -107
q48 -63 133 -63q28 0 53.5 11t41 24.5t29.5 31t18 25.5t7 13v0q20 38 34 83t20 82t8.5 89t2 82.5t-2.5 85t-3 73.5q0 4 -3 7t-7 3t-7 -3t-3 -7q1 -19 2.5 -74.5t2 -84.5t-1.5 -80.5t-8 -87.5t-19 -79.5t-33 -78.5v0v0q-17 -32 -47.5 -53.5t-63.5 -21.5q-36 0 -54 34
q-16 33 -16 96q0 15 2 54t5 95.5t5 97.5q3 88 1 135q-1 29 -4 44q-2 9 -5 15q-5 9 -14 9z" />
    <glyph glyph-name="Ucircumflex" unicode="&#xdb;" horiz-adv-x="480" 
d="M458 597h-54l-41 71l-40 -71h-55l78 115h35zM180 530q-73 0 -106 -22q-4 -3 -4 -8v-420q0 -59 37 -107q48 -63 133 -63q28 0 53.5 11t41 24.5t29.5 31t18 25.5t7 13v0q20 38 34 83t20 82t8.5 89t2 82.5t-2.5 85t-3 73.5q0 4 -3 7t-7 3t-7 -3t-3 -7q1 -19 2.5 -74.5
t2 -84.5t-1.5 -80.5t-8 -87.5t-19 -79.5t-33 -78.5v0v0q-17 -32 -47.5 -53.5t-63.5 -21.5q-36 0 -54 34q-16 33 -16 96q0 15 2 54t5 95.5t5 97.5q3 88 1 135q-1 29 -4 44q-2 9 -5 15q-5 9 -14 9z" />
    <glyph glyph-name="Udieresis" unicode="&#xdc;" horiz-adv-x="480" 
d="M392 635q0 -19 -13 -31.5t-30 -12.5q-18 0 -31 12.5t-13 31.5q0 18 13 31t31 13q17 0 30 -13t13 -31zM540 635q0 -19 -13 -31.5t-30 -12.5t-30.5 12.5t-13.5 31.5q0 18 13.5 31t30.5 13t30 -13t13 -31zM180 530q-73 0 -106 -22q-4 -3 -4 -8v-420q0 -59 37 -107
q48 -63 133 -63q28 0 53.5 11t41 24.5t29.5 31t18 25.5t7 13v0q20 38 34 83t20 82t8.5 89t2 82.5t-2.5 85t-3 73.5q0 4 -3 7t-7 3t-7 -3t-3 -7q1 -19 2.5 -74.5t2 -84.5t-1.5 -80.5t-8 -87.5t-19 -79.5t-33 -78.5v0v0q-17 -32 -47.5 -53.5t-63.5 -21.5q-36 0 -54 34
q-16 33 -16 96q0 15 2 54t5 95.5t5 97.5q3 88 1 135q-1 29 -4 44q-2 9 -5 15q-5 9 -14 9z" />
    <glyph glyph-name="Yacute" unicode="&#xdd;" horiz-adv-x="480" 
d="M383.5 684q-10.5 -1 -17 -8.5t-4.5 -15.5l1 -15q3 -9 -4 -22q-11 -22 -17 -23l-7 -3q-10 -3 -14.5 -12t0.5 -17t15.5 -11t20.5 0l8 4q13 5 25 17q10 11 20 32t7 42l-2 14q-2 8 -11.5 13.5t-20 4.5zM360 530q-3 0 -6 -2q-23 -15 -60 -79q-29 -49 -67 -127
q-28 58 -65 107.5t-76 78.5q-3 2 -7 2q-7 0 -9 -7t4 -11q38 -29 76.5 -82t65.5 -112q-17 -55 -23 -190q-3 -78 -3 -208q0 -6 6 -9q10 -5 31 1q14 5 37 15q3 1 16.5 7.5t19.5 8.5q2 2 14 5t15 7q2 4 1 8q-4 27 -13 79t-12 75q-7 60 7 125q8 16 36 74t43 86q44 85 75 110
q7 5 4 7q-18 14 -41.5 21.5t-34 8t-34.5 1.5z" />
    <glyph glyph-name="Thorn" unicode="&#xde;" horiz-adv-x="392" 
d="M357 249q0 -77 -51 -117.5t-142 -40.5q-32 0 -52 4v-95h-59v476h59v-73q20 4 52 4q91 0 142 -40.5t51 -117.5zM299 249q0 106 -133 106q-31 0 -54 -8v-196q23 -8 54 -8q133 0 133 106z" />
    <glyph glyph-name="germandbls" unicode="&#xdf;" horiz-adv-x="425" 
d="M376 109q0 -55 -34.5 -86.5t-92.5 -31.5q-26 0 -49.5 6.5t-46.5 18.5l20 54q45 -24 77 -24t50 16.5t18 40.5q0 22 -15 39t-33.5 33.5t-33.5 34.5t-15 42q0 13 10 28.5t22.5 31t22.5 30t10 26.5q0 67 -72 67q-84 0 -84 -154v-321q0 -26 -6.5 -52t-20.5 -51l-57 15
q13 25 18.5 46.5t5.5 41.5v337q0 195 151 195q54 0 88.5 -32.5t34.5 -89.5q0 -23 -10 -41.5t-21.5 -33.5t-21.5 -26t-10 -20q0 -10 15 -23.5t32.5 -31.5t32.5 -39t15 -46z" />
    <glyph glyph-name="agrave" unicode="&#xe0;" 
d="M325 540h-2q-17 -4 -55 -2q-33 1 -47 -9q-4 -2 -5 -4v-1v-1q-2 -3 -1 -6q3 -26 8.5 -54t14 -63t11.5 -52q1 -4 4.5 -6t7.5 -2q10 2 42 5t44 5q3 1 5.5 4t2.5 7q-2 20 -7.5 53.5t-9 61.5t-3.5 54q0 4 -3 7t-7 3zM340 410q-73 0 -106 -22q-6 -4 -4 -11q15 -52 15 -88.5
t-15 -126.5q-9 -57 6 -105q-10 -7 -22 -13q-42 -21 -72 -14q-24 5 -43.5 29.5t-28.5 53.5q-11 34 -5.5 72.5t24.5 69.5q17 30 68 61q35 22 67 35q8 3 6 11t-10 8q-2 0 -4 -1q-33 -13 -70 -36q-54 -34 -75 -68q-20 -35 -26 -77t5 -81q11 -35 34 -62.5t54 -34.5q37 -8 85 16
q12 6 21 12q9 -17 22 -28q22 -20 54 -20q21 0 44 22q16 15 33 43h1q2 4 6 10q2 5 25 51q1 1 1 2v3q0 3 -3 6q-1 2 -3 2q-1 1 -3 1h-3l-4 -2l-3 -5q-15 -32 -30 -57q-10 -15 -19 -23q-12 -13 -22 -13q-5 0 -6 4q-4 6 -3 22q2 24 19 102q15 67 18 148q1 43 -3 68q-2 15 -6 23
q-7 13 -19 13z" />
    <glyph glyph-name="aacute" unicode="&#xe1;" 
d="M203.5 472q-10.5 -1 -17 -8.5t-4.5 -15.5l1 -15q3 -9 -4 -22q-11 -22 -17 -23l-7 -3q-10 -3 -14.5 -12t0.5 -17t15.5 -11t20.5 0l8 4q13 5 25 17q10 11 20 32t7 42l-2 14q-2 8 -11.5 13.5t-20 4.5zM340 410q-73 0 -106 -22q-6 -4 -4 -11q15 -52 15 -88.5t-15 -126.5
q-9 -57 6 -105q-10 -7 -22 -13q-42 -21 -72 -14q-24 5 -43.5 29.5t-28.5 53.5q-11 34 -5.5 72.5t24.5 69.5q17 30 68 61q35 22 67 35q8 3 6 11t-10 8q-2 0 -4 -1q-33 -13 -70 -36q-54 -34 -75 -68q-20 -35 -26 -77t5 -81q11 -35 34 -62.5t54 -34.5q37 -8 85 16q12 6 21 12
q9 -17 22 -28q22 -20 54 -20q21 0 44 22q16 15 33 43h1q2 4 6 10q2 5 25 51q1 1 1 2v3q0 3 -3 6q-1 2 -3 2q-1 1 -3 1h-3l-4 -2l-3 -5q-15 -32 -30 -57q-10 -15 -19 -23q-12 -13 -22 -13q-5 0 -6 4q-4 6 -3 22q2 24 19 102q15 67 18 148q1 43 -3 68q-2 15 -6 23
q-7 13 -19 13z" />
    <glyph glyph-name="acircumflex" unicode="&#xe2;" 
d="M289 385h-54l-41 71l-40 -71h-55l78 115h35zM340 410q-73 0 -106 -22q-6 -4 -4 -11q15 -52 15 -88.5t-15 -126.5q-9 -57 6 -105q-10 -7 -22 -13q-42 -21 -72 -14q-24 5 -43.5 29.5t-28.5 53.5q-11 34 -5.5 72.5t24.5 69.5q17 30 68 61q35 22 67 35q8 3 6 11t-10 8
q-2 0 -4 -1q-33 -13 -70 -36q-54 -34 -75 -68q-20 -35 -26 -77t5 -81q11 -35 34 -62.5t54 -34.5q37 -8 85 16q12 6 21 12q9 -17 22 -28q22 -20 54 -20q21 0 44 22q16 15 33 43h1q2 4 6 10q2 5 25 51q1 1 1 2v3q0 3 -3 6q-1 2 -3 2q-1 1 -3 1h-3l-4 -2l-3 -5q-15 -32 -30 -57
q-10 -15 -19 -23q-12 -13 -22 -13q-5 0 -6 4q-4 6 -3 22q2 24 19 102q15 67 18 148q1 43 -3 68q-2 15 -6 23q-7 13 -19 13z" />
    <glyph glyph-name="atilde" unicode="&#xe3;" 
d="M314 443q-1 -35 -15.5 -55.5t-43.5 -20.5q-8 0 -19.5 4.5t-24 10t-23.5 10t-18 4.5q-8 0 -10 -7.5t-2 -16.5h-44q0 30 14.5 50.5t41.5 20.5q9 0 20.5 -4t22.5 -9.5t21.5 -9.5t17.5 -4q19 0 19 27h43zM340 410q-73 0 -106 -22q-6 -4 -4 -11q15 -52 15 -88.5t-15 -126.5
q-9 -57 6 -105q-10 -7 -22 -13q-42 -21 -72 -14q-24 5 -43.5 29.5t-28.5 53.5q-11 34 -5.5 72.5t24.5 69.5q17 30 68 61q35 22 67 35q8 3 6 11t-10 8q-2 0 -4 -1q-33 -13 -70 -36q-54 -34 -75 -68q-20 -35 -26 -77t5 -81q11 -35 34 -62.5t54 -34.5q37 -8 85 16q12 6 21 12
q9 -17 22 -28q22 -20 54 -20q21 0 44 22q16 15 33 43h1q2 4 6 10q2 5 25 51q1 1 1 2v3q0 3 -3 6q-1 2 -3 2q-1 1 -3 1h-3l-4 -2l-3 -5q-15 -32 -30 -57q-10 -15 -19 -23q-12 -13 -22 -13q-5 0 -6 4q-4 6 -3 22q2 24 19 102q15 67 18 148q1 43 -3 68q-2 15 -6 23
q-7 13 -19 13z" />
    <glyph glyph-name="adieresis" unicode="&#xe4;" 
d="M226 425q0 -19 -13 -31.5t-30 -12.5q-18 0 -31 12.5t-13 31.5q0 18 13 31t31 13q17 0 30 -13t13 -31zM374 425q0 -19 -13 -31.5t-30 -12.5t-30.5 12.5t-13.5 31.5q0 18 13.5 31t30.5 13t30 -13t13 -31zM340 410q-73 0 -106 -22q-6 -4 -4 -11q15 -52 15 -88.5t-15 -126.5
q-9 -57 6 -105q-10 -7 -22 -13q-42 -21 -72 -14q-24 5 -43.5 29.5t-28.5 53.5q-11 34 -5.5 72.5t24.5 69.5q17 30 68 61q35 22 67 35q8 3 6 11t-10 8q-2 0 -4 -1q-33 -13 -70 -36q-54 -34 -75 -68q-20 -35 -26 -77t5 -81q11 -35 34 -62.5t54 -34.5q37 -8 85 16q12 6 21 12
q9 -17 22 -28q22 -20 54 -20q21 0 44 22q16 15 33 43h1q2 4 6 10q2 5 25 51q1 1 1 2v3q0 3 -3 6q-1 2 -3 2q-1 1 -3 1h-3l-4 -2l-3 -5q-15 -32 -30 -57q-10 -15 -19 -23q-12 -13 -22 -13q-5 0 -6 4q-4 6 -3 22q2 24 19 102q15 67 18 148q1 43 -3 68q-2 15 -6 23
q-7 13 -19 13z" />
    <glyph glyph-name="aring" unicode="&#xe5;" 
d="M298 464q0 -33 -23.5 -56.5t-56.5 -23.5t-56.5 23.5t-23.5 56.5t23.5 56.5t56.5 23.5t56.5 -23.5t23.5 -56.5zM256 464q0 16 -11 27t-27 11t-27.5 -11t-11.5 -27t11.5 -27.5t27.5 -11.5t27 11.5t11 27.5zM340 410q-73 0 -106 -22q-6 -4 -4 -11q15 -52 15 -88.5
t-15 -126.5q-9 -57 6 -105q-10 -7 -22 -13q-42 -21 -72 -14q-24 5 -43.5 29.5t-28.5 53.5q-11 34 -5.5 72.5t24.5 69.5q17 30 68 61q35 22 67 35q8 3 6 11t-10 8q-2 0 -4 -1q-33 -13 -70 -36q-54 -34 -75 -68q-20 -35 -26 -77t5 -81q11 -35 34 -62.5t54 -34.5q37 -8 85 16
q12 6 21 12q9 -17 22 -28q22 -20 54 -20q21 0 44 22q16 15 33 43h1q2 4 6 10q2 5 25 51q1 1 1 2v3q0 3 -3 6q-1 2 -3 2q-1 1 -3 1h-3l-4 -2l-3 -5q-15 -32 -30 -57q-10 -15 -19 -23q-12 -13 -22 -13q-5 0 -6 4q-4 6 -3 22q2 24 19 102q15 67 18 148q1 43 -3 68q-2 15 -6 23
q-7 13 -19 13z" />
    <glyph glyph-name="ae" unicode="&#xe6;" horiz-adv-x="620" 
d="M580 18q-68 -27 -140 -27q-98 0 -150 70q-37 -70 -143 -70q-25 0 -47 7t-38.5 20t-26 32t-9.5 43q0 130 228 132q-2 34 -23 55.5t-59 21.5q-32 0 -118 -26l-8 57q70 21 130 21q45 0 74.5 -13.5t46.5 -47.5q48 61 139 61q154 0 159 -194h-279q5 -55 39.5 -84t88.5 -29
q58 0 131 26zM254 170q-85 -1 -123.5 -18.5t-38.5 -52.5q0 -26 16.5 -39.5t40.5 -13.5q48 0 76.5 27t28.5 75v22zM533 213q-7 37 -33 63t-68 26q-44 0 -72.5 -23.5t-37.5 -65.5h211z" />
    <glyph glyph-name="ccedilla" unicode="&#xe7;" horiz-adv-x="360" 
d="M291 -90q0 -32 -21 -50.5t-59 -18.5q-14 0 -31 4.5t-32 13.5l14 32q14 -7 28.5 -11t22.5 -4q32 0 32 30q0 28 -64 39l43 66h43l-28 -39q27 -8 39.5 -23.5t12.5 -38.5zM250 390q-24 -4 -55 -15q-38 -14 -70.5 -43.5t-53.5 -66.5q-20 -38 -26.5 -77.5t6.5 -80.5
q13 -38 42.5 -66.5t65.5 -30.5t82.5 16t78.5 43q21 16 46 42q14 13 22 22q2 3 2 7t-3 7t-7 3t-7 -3v0h-1q-2 -3 -8.5 -10t-8.5 -9q-32 -29 -67 -53q-27 -18 -40 -23q-11 -5 -26 -2q-17 2 -32 22q-12 16 -20 41q-20 59 9 144q20 55 66 94q14 13 39 19q5 1 11 -1q10 -3 15 -12
q2 -4 4 -5q1 -1 4 -2q2 -1 6 0l2 2q2 1 3 4q1 1 1 3q0 3 -2 8q-9 15 -22 21q-18 8 -56 2z" />
    <glyph glyph-name="egrave" unicode="&#xe8;" horiz-adv-x="360" 
d="M325 540h-2q-17 -4 -55 -2q-33 1 -47 -9q-4 -2 -5 -4v-1v-1q-2 -3 -1 -6q3 -26 8.5 -54t14 -63t11.5 -52q1 -4 4.5 -6t7.5 -2q10 2 42 5t44 5q3 1 5.5 4t2.5 7q-2 20 -7.5 53.5t-9 61.5t-3.5 54q0 4 -3 7t-7 3zM279 412q-6 0 -14 -1q-25 -4 -69 -22q-40 -16 -72 -49.5
t-53 -75.5q-45 -91 -20 -157q13 -38 42.5 -66.5t65.5 -30.5q40 -2 84 16t79 45q11 9 22 19t18.5 17.5t15 15.5t9.5 10t2 3q2 4 1 7q-1 5 -6 7h-4q-2 0 -4 -1q-2 0 -3 -2q-41 -41 -85 -70l-9 -6l-9 -6l-10 -5l-9 -5l-9 -3l-10 -2h-10q-17 2 -32 22q-12 16 -20 41
q-15 42 -1 106q10 3 28 9q26 9 41.5 15.5t36 20t33.5 30.5q17 22 24 43q10 30 -4 48q-9 17 -27 24q-8 2 -18 3h-4zM286 383q18 1 26 -9l1 -1q7 -10 0 -30q-6 -18 -21 -37q-16 -20 -40 -33t-62 -26q-2 -1 -7 -2.5t-8 -2.5q3 8 5 15q8 29 15 46.5t20 38t30 29.5q18 11 38 12h3
z" />
    <glyph glyph-name="eacute" unicode="&#xe9;" horiz-adv-x="360" 
d="M203.5 472q-10.5 -1 -17 -8.5t-4.5 -15.5l1 -15q3 -9 -4 -22q-11 -22 -17 -23l-7 -3q-10 -3 -14.5 -12t0.5 -17t15.5 -11t20.5 0l8 4q13 5 25 17q10 11 20 32t7 42l-2 14q-2 8 -11.5 13.5t-20 4.5zM279 412q-6 0 -14 -1q-25 -4 -69 -22q-40 -16 -72 -49.5t-53 -75.5
q-45 -91 -20 -157q13 -38 42.5 -66.5t65.5 -30.5q40 -2 84 16t79 45q11 9 22 19t18.5 17.5t15 15.5t9.5 10t2 3q2 4 1 7q-1 5 -6 7h-4q-2 0 -4 -1q-2 0 -3 -2q-41 -41 -85 -70l-9 -6l-9 -6l-10 -5l-9 -5l-9 -3l-10 -2h-10q-17 2 -32 22q-12 16 -20 41q-15 42 -1 106
q10 3 28 9q26 9 41.5 15.5t36 20t33.5 30.5q17 22 24 43q10 30 -4 48q-9 17 -27 24q-8 2 -18 3h-4zM286 383q18 1 26 -9l1 -1q7 -10 0 -30q-6 -18 -21 -37q-16 -20 -40 -33t-62 -26q-2 -1 -7 -2.5t-8 -2.5q3 8 5 15q8 29 15 46.5t20 38t30 29.5q18 11 38 12h3z" />
    <glyph glyph-name="ecircumflex" unicode="&#xea;" horiz-adv-x="360" 
d="M290 385h-54l-41 71l-40 -71h-55l78 115h35zM279 412q-6 0 -14 -1q-25 -4 -69 -22q-40 -16 -72 -49.5t-53 -75.5q-45 -91 -20 -157q13 -38 42.5 -66.5t65.5 -30.5q40 -2 84 16t79 45q11 9 22 19t18.5 17.5t15 15.5t9.5 10t2 3q2 4 1 7q-1 5 -6 7h-4q-2 0 -4 -1
q-2 0 -3 -2q-41 -41 -85 -70l-9 -6l-9 -6l-10 -5l-9 -5l-9 -3l-10 -2h-10q-17 2 -32 22q-12 16 -20 41q-15 42 -1 106q10 3 28 9q26 9 41.5 15.5t36 20t33.5 30.5q17 22 24 43q10 30 -4 48q-9 17 -27 24q-8 2 -18 3h-4zM286 383q18 1 26 -9l1 -1q7 -10 0 -30q-6 -18 -21 -37
q-16 -20 -40 -33t-62 -26q-2 -1 -7 -2.5t-8 -2.5q3 8 5 15q8 29 15 46.5t20 38t30 29.5q18 11 38 12h3z" />
    <glyph glyph-name="edieresis" unicode="&#xeb;" horiz-adv-x="360" 
d="M225 425q0 -19 -13 -31.5t-30 -12.5q-18 0 -31 12.5t-13 31.5q0 18 13 31t31 13q17 0 30 -13t13 -31zM373 425q0 -19 -13 -31.5t-30 -12.5t-30.5 12.5t-13.5 31.5q0 18 13.5 31t30.5 13t30 -13t13 -31zM279 412q-6 0 -14 -1q-25 -4 -69 -22q-40 -16 -72 -49.5t-53 -75.5
q-45 -91 -20 -157q13 -38 42.5 -66.5t65.5 -30.5q40 -2 84 16t79 45q11 9 22 19t18.5 17.5t15 15.5t9.5 10t2 3q2 4 1 7q-1 5 -6 7h-4q-2 0 -4 -1q-2 0 -3 -2q-41 -41 -85 -70l-9 -6l-9 -6l-10 -5l-9 -5l-9 -3l-10 -2h-10q-17 2 -32 22q-12 16 -20 41q-15 42 -1 106
q10 3 28 9q26 9 41.5 15.5t36 20t33.5 30.5q17 22 24 43q10 30 -4 48q-9 17 -27 24q-8 2 -18 3h-4zM286 383q18 1 26 -9l1 -1q7 -10 0 -30q-6 -18 -21 -37q-16 -20 -40 -33t-62 -26q-2 -1 -7 -2.5t-8 -2.5q3 8 5 15q8 29 15 46.5t20 38t30 29.5q18 11 38 12h3z" />
    <glyph glyph-name="igrave" unicode="&#xec;" horiz-adv-x="260" 
d="M213 540h-2q-17 -4 -55 -2q-33 1 -47 -9q-4 -2 -5 -4v-1v-1q-2 -3 -1 -6q3 -26 8.5 -54t14 -63t11.5 -52q1 -4 4.5 -6t7.5 -2q10 2 42 5t44 5q3 1 5.5 4t2.5 7q-2 20 -7.5 53.5t-9 61.5t-3.5 54q0 4 -3 7t-7 3zM200 410q-61 0 -105 -21q-2 -1 -3 -3q-8 -10 -12 -28
q-6 -25 -9 -34q-2 -4 -0.5 -8t5.5 -5.5t8 0t5 5.5q5 12 9 31q8 -39 6.5 -73.5t-14.5 -111.5q-9 -58 7 -106q10 -30 29 -46q22 -20 54 -20q25 0 49 21q18 16 33 44q2 2 5 9l1 1v1l1 1v1l1 1q10 20 17 41l2 6q0 1 1 1v3l-1 4l-3 4q-1 1 -3 1.5t-5 0.5h-1q-3 -1 -5 -4
q-1 -1 -2 -5l-1 -3q-1 -1 -1 -2q-8 -22 -19 -44q-11 -19 -22 -29q-14 -13 -27 -13q-5 0 -6 4q-4 6 -3 22q2 24 19 102q15 67 18 148q1 43 -3 68q-2 15 -6 23q-7 13 -19 13z" />
    <glyph glyph-name="iacute" unicode="&#xed;" horiz-adv-x="260" 
d="M90.5 472q-10.5 -1 -17 -8.5t-4.5 -15.5l1 -15q3 -9 -4 -22q-11 -22 -17 -23l-7 -3q-10 -3 -14.5 -12t0.5 -17t15.5 -11t20.5 0l8 4q13 5 25 17q10 11 20 32t7 42l-2 14q-2 8 -11.5 13.5t-20 4.5zM200 410q-61 0 -105 -21q-2 -1 -3 -3q-8 -10 -12 -28q-6 -25 -9 -34
q-2 -4 -0.5 -8t5.5 -5.5t8 0t5 5.5q5 12 9 31q8 -39 6.5 -73.5t-14.5 -111.5q-9 -58 7 -106q10 -30 29 -46q22 -20 54 -20q25 0 49 21q18 16 33 44q2 2 5 9l1 1v1l1 1v1l1 1q10 20 17 41l2 6q0 1 1 1v3l-1 4l-3 4q-1 1 -3 1.5t-5 0.5h-1q-3 -1 -5 -4q-1 -1 -2 -5l-1 -3
q-1 -1 -1 -2q-8 -22 -19 -44q-11 -19 -22 -29q-14 -13 -27 -13q-5 0 -6 4q-4 6 -3 22q2 24 19 102q15 67 18 148q1 43 -3 68q-2 15 -6 23q-7 13 -19 13z" />
    <glyph glyph-name="icircumflex" unicode="&#xee;" horiz-adv-x="260" 
d="M177 385h-54l-41 71l-40 -71h-55l78 115h35zM200 410q-61 0 -105 -21q-2 -1 -3 -3q-8 -10 -12 -28q-6 -25 -9 -34q-2 -4 -0.5 -8t5.5 -5.5t8 0t5 5.5q5 12 9 31q8 -39 6.5 -73.5t-14.5 -111.5q-9 -58 7 -106q10 -30 29 -46q22 -20 54 -20q25 0 49 21q18 16 33 44q2 2 5 9
l1 1v1l1 1v1l1 1q10 20 17 41l2 6q0 1 1 1v3l-1 4l-3 4q-1 1 -3 1.5t-5 0.5h-1q-3 -1 -5 -4q-1 -1 -2 -5l-1 -3q-1 -1 -1 -2q-8 -22 -19 -44q-11 -19 -22 -29q-14 -13 -27 -13q-5 0 -6 4q-4 6 -3 22q2 24 19 102q15 67 18 148q1 43 -3 68q-2 15 -6 23q-7 13 -19 13z" />
    <glyph glyph-name="idieresis" unicode="&#xef;" horiz-adv-x="260" 
d="M191 545q0 -19 -13 -31.5t-30 -12.5t-30.5 12.5t-13.5 31.5q0 18 13.5 31t30.5 13t30 -13t13 -31zM33 545q0 -19 -13 -31.5t-30 -12.5t-30.5 12.5t-13.5 31.5q0 18 13.5 31t30.5 13t30 -13t13 -31zM200 410q-61 0 -105 -21q-2 -1 -3 -3q-8 -10 -12 -28q-6 -25 -9 -34
q-2 -4 -0.5 -8t5.5 -5.5t8 0t5 5.5q5 12 9 31q8 -39 6.5 -73.5t-14.5 -111.5q-9 -58 7 -106q10 -30 29 -46q22 -20 54 -20q25 0 49 21q18 16 33 44q2 2 5 9l1 1v1l1 1v1l1 1q10 20 17 41l2 6q0 1 1 1v3l-1 4l-3 4q-1 1 -3 1.5t-5 0.5h-1q-3 -1 -5 -4q-1 -1 -2 -5l-1 -3
q-1 -1 -1 -2q-8 -22 -19 -44q-11 -19 -22 -29q-14 -13 -27 -13q-5 0 -6 4q-4 6 -3 22q2 24 19 102q15 67 18 148q1 43 -3 68q-2 15 -6 23q-7 13 -19 13z" />
    <glyph glyph-name="eth" unicode="&#xf0;" horiz-adv-x="376" 
d="M341 163q0 -81 -45.5 -130t-115.5 -49q-63 0 -103.5 45.5t-40.5 112.5q0 66 41 111t101 45t89 -32q-24 50 -85 98q-1 1 -2 1l-101 -52l-27 44l80 41q-36 20 -71 30l6 50q70 -14 125 -49l91 47l22 -46l-68 -35q104 -100 104 -232zM273 142q0 43 -26.5 72.5t-64.5 29.5
q-36 0 -62 -31t-26 -71t26 -71t62 -31q38 0 64.5 30t26.5 72z" />
    <glyph glyph-name="ntilde" unicode="&#xf1;" 
d="M342 443q-1 -35 -15.5 -55.5t-43.5 -20.5q-8 0 -19.5 4.5t-24 10t-23.5 10t-18 4.5q-8 0 -10 -7.5t-2 -16.5h-44q0 30 14.5 50.5t41.5 20.5q9 0 20.5 -4t22.5 -9.5t21.5 -9.5t17.5 -4q19 0 19 27h43zM169 370q-60 0 -84 -21q-2 -1 -3 -3q-11 -11 -16 -30q-1 -6 -3 -17.5
t-3 -16.5q-1 -4 1.5 -7.5t6.5 -4.5t7.5 1.5t4.5 6.5q1 6 3 17.5t3 16.5v1q12 -50 17.5 -103.5t6 -86.5t0.5 -113q0 -5 3 -8.5t8 -4.5q5 0 12 2q8 2 28 9l17 6l14 4q7 3 17 2h5q5 3 6 11q9 98 -5 197q13 26 26 45q17 26 32 36q7 5 12 6q5 0 9 -3q9 -7 15 -36q5 -25 8 -71
q1 -12 2 -39.5t2 -42t3.5 -34t5.5 -31.5q8 -30 24 -35q9 -3 18 1q7 4 14 11q25 26 44 82q1 4 -1 7.5t-6 5t-7.5 -0.5t-5.5 -6q-17 -52 -38 -74q-5 -5 -8 -6t-4 -1q-5 2 -10 20q-3 11 -5 29.5t-3 32.5t-2.5 42.5t-2.5 39.5q-3 48 -8 74q-8 37 -23 48q-10 8 -23 7
q-10 -1 -21 -9q-18 -12 -38 -42q-7 -10 -14 -23q-12 64 -32 103q-3 6 -9 6z" />
    <glyph glyph-name="ograve" unicode="&#xf2;" 
d="M363 540h-2q-17 -4 -55 -2q-33 1 -47 -9q-4 -2 -5 -4v-1v-1q-2 -3 -1 -6q3 -26 8.5 -54t14 -63t11.5 -52q1 -4 4.5 -6t7.5 -2q10 2 42 5t44 5q3 1 5.5 4t2.5 7q-2 20 -7.5 53.5t-9 61.5t-3.5 54q0 4 -3 7t-7 3zM168 311h-3q-4 0 -7 -1q-2 -1 -5 -2v-1q-1 0 -1 -1v0
q-56 -75 -78 -126q-31 -73 -13 -135q17 -58 71 -95q28 -19 58 -30.5t63.5 -11.5t57.5 18q32 23 54 71q13 26 19 55q0 1 1 1q24 23 44 63q2 3 0.5 7t-5 6t-7.5 0.5t-6 -5.5q-9 -18 -22 -35q4 56 -20 96q-14 24 -45 32q-33 8 -51 -10q-33 -33 -17 -97t61 -79q20 -7 41 3
q-5 -15 -11 -29q-20 -42 -48 -63q-32 -24 -56 -12q-37 17 -63 51.5t-30 69.5q-5 53 17 95.5t79 85.5q4 3 4 7.5t-3 7.5q-4 4 -16 18.5t-20 22.5q-13 13 -24 19q-10 4 -19 4zM306 199h3q5 0 10 -2q23 -6 32 -22q27 -45 14 -113q-22 -19 -42 -13q-15 6 -28 24t-19 41t-3 45.5
t14 33.5q6 6 19 6z" />
    <glyph glyph-name="oacute" unicode="&#xf3;" 
d="M241.5 472q-10.5 -1 -17 -8.5t-4.5 -15.5l1 -15q3 -9 -4 -22q-11 -22 -17 -23l-7 -3q-10 -3 -14.5 -12t0.5 -17t15.5 -11t20.5 0l8 4q13 5 25 17q10 11 20 32t7 42l-2 14q-2 8 -11.5 13.5t-20 4.5zM168 311h-3q-4 0 -7 -1q-2 -1 -5 -2v-1q-1 0 -1 -1v0q-56 -75 -78 -126
q-31 -73 -13 -135q17 -58 71 -95q28 -19 58 -30.5t63.5 -11.5t57.5 18q32 23 54 71q13 26 19 55q0 1 1 1q24 23 44 63q2 3 0.5 7t-5 6t-7.5 0.5t-6 -5.5q-9 -18 -22 -35q4 56 -20 96q-14 24 -45 32q-33 8 -51 -10q-33 -33 -17 -97t61 -79q20 -7 41 3q-5 -15 -11 -29
q-20 -42 -48 -63q-32 -24 -56 -12q-37 17 -63 51.5t-30 69.5q-5 53 17 95.5t79 85.5q4 3 4 7.5t-3 7.5q-4 4 -16 18.5t-20 22.5q-13 13 -24 19q-10 4 -19 4zM306 199h3q5 0 10 -2q23 -6 32 -22q27 -45 14 -113q-22 -19 -42 -13q-15 6 -28 24t-19 41t-3 45.5t14 33.5
q6 6 19 6z" />
    <glyph glyph-name="ocircumflex" unicode="&#xf4;" 
d="M328 385h-54l-41 71l-40 -71h-55l78 115h35zM168 311h-3q-4 0 -7 -1q-2 -1 -5 -2v-1q-1 0 -1 -1v0q-56 -75 -78 -126q-31 -73 -13 -135q17 -58 71 -95q28 -19 58 -30.5t63.5 -11.5t57.5 18q32 23 54 71q13 26 19 55q0 1 1 1q24 23 44 63q2 3 0.5 7t-5 6t-7.5 0.5t-6 -5.5
q-9 -18 -22 -35q4 56 -20 96q-14 24 -45 32q-33 8 -51 -10q-33 -33 -17 -97t61 -79q20 -7 41 3q-5 -15 -11 -29q-20 -42 -48 -63q-32 -24 -56 -12q-37 17 -63 51.5t-30 69.5q-5 53 17 95.5t79 85.5q4 3 4 7.5t-3 7.5q-4 4 -16 18.5t-20 22.5q-13 13 -24 19q-10 4 -19 4z
M306 199h3q5 0 10 -2q23 -6 32 -22q27 -45 14 -113q-22 -19 -42 -13q-15 6 -28 24t-19 41t-3 45.5t14 33.5q6 6 19 6z" />
    <glyph glyph-name="otilde" unicode="&#xf5;" 
d="M352 443q-1 -35 -15.5 -55.5t-43.5 -20.5q-8 0 -19.5 4.5t-24 10t-23.5 10t-18 4.5q-8 0 -10 -7.5t-2 -16.5h-44q0 30 14.5 50.5t41.5 20.5q9 0 20.5 -4t22.5 -9.5t21.5 -9.5t17.5 -4q19 0 19 27h43zM168 311h-3q-4 0 -7 -1q-2 -1 -5 -2v-1q-1 0 -1 -1v0
q-56 -75 -78 -126q-31 -73 -13 -135q17 -58 71 -95q28 -19 58 -30.5t63.5 -11.5t57.5 18q32 23 54 71q13 26 19 55q0 1 1 1q24 23 44 63q2 3 0.5 7t-5 6t-7.5 0.5t-6 -5.5q-9 -18 -22 -35q4 56 -20 96q-14 24 -45 32q-33 8 -51 -10q-33 -33 -17 -97t61 -79q20 -7 41 3
q-5 -15 -11 -29q-20 -42 -48 -63q-32 -24 -56 -12q-37 17 -63 51.5t-30 69.5q-5 53 17 95.5t79 85.5q4 3 4 7.5t-3 7.5q-4 4 -16 18.5t-20 22.5q-13 13 -24 19q-10 4 -19 4zM306 199h3q5 0 10 -2q23 -6 32 -22q27 -45 14 -113q-22 -19 -42 -13q-15 6 -28 24t-19 41t-3 45.5
t14 33.5q6 6 19 6z" />
    <glyph glyph-name="odieresis" unicode="&#xf6;" 
d="M263 425q0 -19 -13 -31.5t-30 -12.5q-18 0 -31 12.5t-13 31.5q0 18 13 31t31 13q17 0 30 -13t13 -31zM411 425q0 -19 -13 -31.5t-30 -12.5t-30.5 12.5t-13.5 31.5q0 18 13.5 31t30.5 13t30 -13t13 -31zM168 311h-3q-4 0 -7 -1q-2 -1 -5 -2v-1q-1 0 -1 -1v0
q-56 -75 -78 -126q-31 -73 -13 -135q17 -58 71 -95q28 -19 58 -30.5t63.5 -11.5t57.5 18q32 23 54 71q13 26 19 55q0 1 1 1q24 23 44 63q2 3 0.5 7t-5 6t-7.5 0.5t-6 -5.5q-9 -18 -22 -35q4 56 -20 96q-14 24 -45 32q-33 8 -51 -10q-33 -33 -17 -97t61 -79q20 -7 41 3
q-5 -15 -11 -29q-20 -42 -48 -63q-32 -24 -56 -12q-37 17 -63 51.5t-30 69.5q-5 53 17 95.5t79 85.5q4 3 4 7.5t-3 7.5q-4 4 -16 18.5t-20 22.5q-13 13 -24 19q-10 4 -19 4zM306 199h3q5 0 10 -2q23 -6 32 -22q27 -45 14 -113q-22 -19 -42 -13q-15 6 -28 24t-19 41t-3 45.5
t14 33.5q6 6 19 6z" />
    <glyph glyph-name="divide" unicode="&#xf7;" horiz-adv-x="416" 
d="M391 157h-365v54h365v-54zM257 56q0 -20 -14 -34t-33 -14t-33 14t-14 34t14 34t33 14t33 -14t14 -34zM257 313q0 -20 -14 -34t-33 -14t-33 14t-14 34t14 34t33 14t33 -14t14 -34z" />
    <glyph glyph-name="oslash" unicode="&#xf8;" horiz-adv-x="410" 
d="M386 172q0 -76 -51 -128t-129 -52q-33 0 -61 9l-15 -29h-64l29 56q-10 7 -18 16q-51 52 -51 128t51 128.5t129 52.5q28 0 53 -7l17 32h64l-29 -57q12 -9 24 -21q51 -52 51 -128zM324 172q0 54 -33 90l-7 7l-114 -219q17 -5 36 -5q52 0 85 36.5t33 90.5zM233 296
q-13 3 -27 3q-52 0 -85 -36.5t-33 -90.5t33 -91l1 -1z" />
    <glyph glyph-name="ugrave" unicode="&#xf9;" 
d="M343 540h-2q-17 -4 -55 -2q-33 1 -47 -9q-4 -2 -5 -4v-1v-1q-2 -3 -1 -6q3 -26 8.5 -54t14 -63t11.5 -52q1 -4 4.5 -6t7.5 -2q10 2 42 5t44 5q3 1 5.5 4t2.5 7q-2 20 -7.5 53.5t-9 61.5t-3.5 54q0 4 -3 7t-7 3zM160 310q-73 0 -106 -22q-4 -3 -4 -8v-220q0 -59 37 -107
q48 -63 133 -63q28 0 54 11t41.5 24.5t29 31.5t18 25.5t6.5 12.5v1q27 50 25 141q19 2 33 16q3 3 3 7t-3 7t-7 3t-7 -3q-10 -9 -20 -10q-2 37 -9 66q-3 16 -7 26q-4 13 -10 18q-17 18 -38 16q-21 -1 -28 -19q-8 -21 2 -50q10 -26 29.5 -47t41.5 -28q2 -88 -23 -134v0
q-17 -32 -47.5 -53.5t-63.5 -21.5q-36 0 -54 34q-16 33 -16 96q0 15 2 39.5t5 56.5t5 51q3 44 1 67q-1 14 -5 23q-6 13 -18 13zM332 263q10 0 21 -10q2 -2 5 -11q4 -9 7 -23q5 -25 8 -58q-14 6 -26 20q-17 18 -25 40t-3 35q3 7 11 7h2z" />
    <glyph glyph-name="uacute" unicode="&#xfa;" 
d="M241.5 472q-10.5 -1 -17 -8.5t-4.5 -15.5l1 -15q3 -9 -4 -22q-11 -22 -17 -23l-7 -3q-10 -3 -14.5 -12t0.5 -17t15.5 -11t20.5 0l8 4q13 5 25 17q10 11 20 32t7 42l-2 14q-2 8 -11.5 13.5t-20 4.5zM160 310q-73 0 -106 -22q-4 -3 -4 -8v-220q0 -59 37 -107
q48 -63 133 -63q28 0 54 11t41.5 24.5t29 31.5t18 25.5t6.5 12.5v1q27 50 25 141q19 2 33 16q3 3 3 7t-3 7t-7 3t-7 -3q-10 -9 -20 -10q-2 37 -9 66q-3 16 -7 26q-4 13 -10 18q-17 18 -38 16q-21 -1 -28 -19q-8 -21 2 -50q10 -26 29.5 -47t41.5 -28q2 -88 -23 -134v0
q-17 -32 -47.5 -53.5t-63.5 -21.5q-36 0 -54 34q-16 33 -16 96q0 15 2 39.5t5 56.5t5 51q3 44 1 67q-1 14 -5 23q-6 13 -18 13zM332 263q10 0 21 -10q2 -2 5 -11q4 -9 7 -23q5 -25 8 -58q-14 6 -26 20q-17 18 -25 40t-3 35q3 7 11 7h2z" />
    <glyph glyph-name="ucircumflex" unicode="&#xfb;" 
d="M315 385h-54l-41 71l-40 -71h-55l78 115h35zM160 310q-73 0 -106 -22q-4 -3 -4 -8v-220q0 -59 37 -107q48 -63 133 -63q28 0 54 11t41.5 24.5t29 31.5t18 25.5t6.5 12.5v1q27 50 25 141q19 2 33 16q3 3 3 7t-3 7t-7 3t-7 -3q-10 -9 -20 -10q-2 37 -9 66q-3 16 -7 26
q-4 13 -10 18q-17 18 -38 16q-21 -1 -28 -19q-8 -21 2 -50q10 -26 29.5 -47t41.5 -28q2 -88 -23 -134v0q-17 -32 -47.5 -53.5t-63.5 -21.5q-36 0 -54 34q-16 33 -16 96q0 15 2 39.5t5 56.5t5 51q3 44 1 67q-1 14 -5 23q-6 13 -18 13zM332 263q10 0 21 -10q2 -2 5 -11
q4 -9 7 -23q5 -25 8 -58q-14 6 -26 20q-17 18 -25 40t-3 35q3 7 11 7h2z" />
    <glyph glyph-name="udieresis" unicode="&#xfc;" 
d="M245 425q0 -19 -13 -31.5t-30 -12.5q-18 0 -31 12.5t-13 31.5q0 18 13 31t31 13q17 0 30 -13t13 -31zM393 425q0 -19 -13 -31.5t-30 -12.5t-30.5 12.5t-13.5 31.5q0 18 13.5 31t30.5 13t30 -13t13 -31zM160 310q-73 0 -106 -22q-4 -3 -4 -8v-220q0 -59 37 -107
q48 -63 133 -63q28 0 54 11t41.5 24.5t29 31.5t18 25.5t6.5 12.5v1q27 50 25 141q19 2 33 16q3 3 3 7t-3 7t-7 3t-7 -3q-10 -9 -20 -10q-2 37 -9 66q-3 16 -7 26q-4 13 -10 18q-17 18 -38 16q-21 -1 -28 -19q-8 -21 2 -50q10 -26 29.5 -47t41.5 -28q2 -88 -23 -134v0
q-17 -32 -47.5 -53.5t-63.5 -21.5q-36 0 -54 34q-16 33 -16 96q0 15 2 39.5t5 56.5t5 51q3 44 1 67q-1 14 -5 23q-6 13 -18 13zM332 263q10 0 21 -10q2 -2 5 -11q4 -9 7 -23q5 -25 8 -58q-14 6 -26 20q-17 18 -25 40t-3 35q3 7 11 7h2z" />
    <glyph glyph-name="yacute" unicode="&#xfd;" 
d="M241.5 472q-10.5 -1 -17 -8.5t-4.5 -15.5l1 -15q3 -9 -4 -22q-11 -22 -17 -23l-7 -3q-10 -3 -14.5 -12t0.5 -17t15.5 -11t20.5 0l8 4q13 5 25 17q10 11 20 32t7 42l-2 14q-2 8 -11.5 13.5t-20 4.5zM341 456q-3 0 -6 -1q-12 -1 -29 -8q-39 -17 -46 -17q-9 0 -14 -8
q-3 -5 -5 -14q-3 -14 -4 -40q-1 -45 4 -122q4 -57 10 -117l-6 -6q-14 -13 -32 -23q-43 -22 -69 -11q-32 14 -51 56q-16 34 -24 91q-4 27 -9 96q-5 54 -10 71q-3 7 -10 7q-5 0 -8 -4t-2 -9q6 -16 10 -67q5 -69 9 -97q9 -59 26 -96q22 -49 61 -66q35 -16 86 12q18 9 32 21
q7 -60 13 -86q1 -1 1 -3.5t1 -3.5q-23 -24 -37 -46q-15 -26 -21.5 -38t-15 -35t-9 -38t4.5 -35t17 -39q22 -30 69 -30q48 0 77 36q23 30 32 81q14 74 1 155q-4 24 -7 60q33 29 48 52q3 4 2 8t-4.5 6.5t-7.5 1.5t-6 -4q-12 -18 -35 -39q-7 101 -7 333q0 5 -4 8q-11 7 -23 8
h-2zM274 -13q14 -69 14 -111q0 -33 -8 -50q-7 -16 -23 -16q-27 0 -41 17q-7 8 -9 15v0q-4 17 3 39t14.5 35t23.5 39q10 15 26 32z" />
    <glyph glyph-name="thorn" unicode="&#xfe;" horiz-adv-x="437" 
d="M402 179q0 -84 -49.5 -136t-127.5 -52q-67 0 -111 41v-166h-59v610h59v-169q50 47 121 47q73 0 120 -49.5t47 -125.5zM344 178q0 54 -32 89t-83 35q-47 0 -81 -29.5t-34 -76.5v-57q0 -38 34.5 -65.5t79.5 -27.5q52 0 84 35t32 97z" />
    <glyph glyph-name="ydieresis" unicode="&#xff;" 
d="M278 425q0 -19 -13 -31.5t-30 -12.5q-18 0 -31 12.5t-13 31.5q0 18 13 31t31 13q17 0 30 -13t13 -31zM426 425q0 -19 -13 -31.5t-30 -12.5t-30.5 12.5t-13.5 31.5q0 18 13.5 31t30.5 13t30 -13t13 -31zM341 456q-3 0 -6 -1q-12 -1 -29 -8q-39 -17 -46 -17q-9 0 -14 -8
q-3 -5 -5 -14q-3 -14 -4 -40q-1 -45 4 -122q4 -57 10 -117l-6 -6q-14 -13 -32 -23q-43 -22 -69 -11q-32 14 -51 56q-16 34 -24 91q-4 27 -9 96q-5 54 -10 71q-3 7 -10 7q-5 0 -8 -4t-2 -9q6 -16 10 -67q5 -69 9 -97q9 -59 26 -96q22 -49 61 -66q35 -16 86 12q18 9 32 21
q7 -60 13 -86q1 -1 1 -3.5t1 -3.5q-23 -24 -37 -46q-15 -26 -21.5 -38t-15 -35t-9 -38t4.5 -35t17 -39q22 -30 69 -30q48 0 77 36q23 30 32 81q14 74 1 155q-4 24 -7 60q33 29 48 52q3 4 2 8t-4.5 6.5t-7.5 1.5t-6 -4q-12 -18 -35 -39q-7 101 -7 333q0 5 -4 8q-11 7 -23 8
h-2zM274 -13q14 -69 14 -111q0 -33 -8 -50q-7 -16 -23 -16q-27 0 -41 17q-7 8 -9 15v0q-4 17 3 39t14.5 35t23.5 39q10 15 26 32z" />
    <glyph glyph-name="dotlessi" unicode="&#x131;" horiz-adv-x="260" 
d="M200 410q-61 0 -105 -21q-2 -1 -3 -3q-8 -10 -12 -28q-6 -25 -9 -34q-2 -4 -0.5 -8t5.5 -5.5t8 0t5 5.5q5 12 9 31q8 -39 6.5 -73.5t-14.5 -111.5q-9 -58 7 -106q10 -30 29 -46q22 -20 54 -20q25 0 49 21q18 16 33 44q2 2 5 9l1 1v1l1 1v1l1 1q10 20 17 41l2 6q0 1 1 1v3
l-1 4l-3 4q-1 1 -3 1.5t-5 0.5h-1q-3 -1 -5 -4q-1 -1 -2 -5l-1 -3q-1 -1 -1 -2q-8 -22 -19 -44q-11 -19 -22 -29q-14 -13 -27 -13q-5 0 -6 4q-4 6 -3 22q2 24 19 102q15 67 18 148q1 43 -3 68q-2 15 -6 23q-7 13 -19 13z" />
    <glyph glyph-name="Lslash" unicode="&#x141;" horiz-adv-x="358" 
d="M346 0h-296v149l-29 -7v62l29 7v265h63v-250l225 53v-62l-225 -53v-110h233v-54z" />
    <glyph glyph-name="lslash" unicode="&#x142;" horiz-adv-x="216" 
d="M207 49l-7 -57q-149 8 -149 183v61l-43 -12v54l43 12v214h63v-195l93 28v-54l-93 -28v-66q0 -77 24 -109q21 -27 69 -31z" />
    <glyph glyph-name="OE" unicode="&#x152;" horiz-adv-x="721" 
d="M698 0h-283v27q-60 -37 -136 -37q-111 0 -182 71t-71 177q0 105 71 176.5t182 71.5q76 0 136 -38v28h283v-54h-220v-144h196v-54h-196v-170h220v-54zM415 104v265q-51 62 -136 62q-76 0 -133 -58.5t-57 -134.5q0 -78 56.5 -136t133.5 -58q85 0 136 60z" />
    <glyph glyph-name="oe" unicode="&#x153;" horiz-adv-x="687" 
d="M642 73l7 -55q-73 -27 -139 -27q-101 0 -157 74q-53 -73 -147 -73q-78 0 -129 52t-51 128t51 128.5t129 52.5q97 0 148 -77q60 77 152 77q154 0 157 -193h-277q4 -53 38.5 -83t89.5 -30t128 26zM324 172q0 54 -33 90.5t-85 36.5t-85 -36.5t-33 -90.5t33 -90.5t85 -36.5
t85 36.5t33 90.5zM390 213h211q-5 40 -32.5 64t-68.5 24q-40 0 -71.5 -24.5t-38.5 -63.5z" />
    <glyph glyph-name="Scaron" unicode="&#x160;" horiz-adv-x="480" 
d="M294 544h-35l-77 115h54l41 -71l40 71h55zM310 486q-68 -1 -124 -37q-38 -24 -59.5 -58.5t-26.5 -69.5q-4 -24 28 -62q20 -24 70 -72q37 -35 56 -53.5t43 -47.5t34 -50q24 -54 19 -96q-5 -39 -36 -62q-16 -12 -42 -11q-13 0 -26 3q-2 1 -5 1q-40 11 -75 37q-43 37 -65 85
q-12 26 -11 46q1 21 16 33q3 3 3.5 7t-2 7t-6.5 3.5t-7 -1.5q-23 -18 -24 -48q-1 -25 13 -55q23 -52 70 -92v-1h1q39 -33 92 -43t99 12q60 33 94 106q37 78 10 137q-5 11 -12 21.5t-18 21t-19 17.5t-24.5 17.5t-23.5 15.5t-27 16.5t-25 15.5q-29 17 -46 29t-37.5 29t-32 36
t-14.5 39q-3 14 6.5 36.5t20.5 33.5q22 23 80.5 30.5t97.5 -11.5q24 -13 34 -27q13 -18 2 -40q-2 -3 -0.5 -7t5 -6t7.5 -0.5t6 5.5q16 32 -3 59q-13 18 -41 34q-33 18 -75 17z" />
    <glyph glyph-name="scaron" unicode="&#x161;" 
d="M232 385h-35l-77 115h54l41 -71l40 71h55zM200 430q-5 0 -8 -4q-1 -1 -1 -2v0q-65 -120 -119 -198q-3 -4 -2 -8t4.5 -6.5t7.5 -1.5t6 4q24 35 52 82q5 -36 52 -117q64 -110 79 -143q5 -12 9 -23q-14 -7 -45 -19t-40 -16q-34 -14 -49 -30q-21 -21 -16 -49q1 -21 18 -32
q15 -9 37 -10q39 -2 76 20q50 30 89 93q31 50 28 97l49 46q3 3 3.5 7t-2.5 7t-7.5 3t-7.5 -3q-18 -17 -39 -37q-2 8 -5 14q-10 24 -27.5 49.5t-26.5 36.5t-33 39q-58 67 -72 114q-5 14 -3 46q1 16 3 29q1 5 -2 8.5t-8 3.5zM285 -7q6 -25 1 -45q-6 -24 -17.5 -36.5
t-32.5 -22.5q-24 -11 -54 -7q-14 2 -22 7t-10 13v1q-4 17 10 31q13 13 43 26q9 4 38 15t44 18z" />
    <glyph glyph-name="Ydieresis" unicode="&#x178;" horiz-adv-x="480" 
d="M338 583q0 -19 -13 -31.5t-30 -12.5q-18 0 -31 12.5t-13 31.5q0 18 13 31t31 13q17 0 30 -13t13 -31zM486 583q0 -19 -13 -31.5t-30 -12.5t-30.5 12.5t-13.5 31.5q0 18 13.5 31t30.5 13t30 -13t13 -31zM360 530q-3 0 -6 -2q-23 -15 -60 -79q-29 -49 -67 -127
q-28 58 -65 107.5t-76 78.5q-3 2 -7 2q-7 0 -9 -7t4 -11q38 -29 76.5 -82t65.5 -112q-17 -55 -23 -190q-3 -78 -3 -208q0 -6 6 -9q10 -5 31 1q14 5 37 15q3 1 16.5 7.5t19.5 8.5q2 2 14 5t15 7q2 4 1 8q-4 27 -13 79t-12 75q-7 60 7 125q8 16 36 74t43 86q44 85 75 110
q7 5 4 7q-18 14 -41.5 21.5t-34 8t-34.5 1.5z" />
    <glyph glyph-name="florin" unicode="&#x192;" horiz-adv-x="402" 
d="M327 254h-94l-35 -161q-35 -162 -160 -162q-39 0 -65 25l26 44q24 -14 49 -14q65 0 90 112l34 156h-54l10 52h56l3 16q20 78 60 120t100 42q39 0 65 -25l-26 -44q-24 14 -49 14q-66 0 -90 -112l-3 -11h93z" />
    <glyph glyph-name="circumflex" unicode="&#x2c6;" horiz-adv-x="216" 
d="M204 385h-54l-41 71l-40 -71h-55l78 115h35z" />
    <glyph glyph-name="caron" unicode="&#x2c7;" horiz-adv-x="306" 
d="M171 385h-35l-77 115h54l41 -71l40 71h55z" />
    <glyph glyph-name="breve" unicode="&#x2d8;" horiz-adv-x="341" 
d="M289 491q-10 -57 -40 -84.5t-78 -27.5t-78 27.5t-40 84.5h54q5 -25 20.5 -44.5t43.5 -19.5t44 19.5t21 44.5h53z" />
    <glyph glyph-name="dotaccent" unicode="&#x2d9;" horiz-adv-x="191" 
d="M140 545q0 -19 -13 -31.5t-30 -12.5t-30.5 12.5t-13.5 31.5q0 18 13.5 31t30.5 13t30 -13t13 -31z" />
    <glyph glyph-name="ring" unicode="&#x2da;" horiz-adv-x="265" 
d="M213 464q0 -33 -23.5 -56.5t-56.5 -23.5t-56.5 23.5t-23.5 56.5t23.5 56.5t56.5 23.5t56.5 -23.5t23.5 -56.5zM171 464q0 16 -11 27t-27 11t-27.5 -11t-11.5 -27t11.5 -27.5t27.5 -11.5t27 11.5t11 27.5z" />
    <glyph glyph-name="ogonek" unicode="&#x2db;" horiz-adv-x="254" 
d="M202 -136q-41 -17 -73 -17q-39 0 -57.5 23t-18.5 54q0 19 5.5 43t13.5 52h59q-21 -53 -21 -81q0 -32 28 -35q11 0 28.5 5.5t35.5 13.5v-58z" />
    <glyph glyph-name="tilde" unicode="&#x2dc;" horiz-adv-x="258" 
d="M228 443q-1 -35 -15.5 -55.5t-43.5 -20.5q-8 0 -19.5 4.5t-24 10t-23.5 10t-18 4.5q-8 0 -10 -7.5t-2 -16.5h-44q0 30 14.5 50.5t41.5 20.5q9 0 20.5 -4t22.5 -9.5t21.5 -9.5t17.5 -4q19 0 19 27h43z" />
    <glyph glyph-name="hungarumlaut" unicode="&#x2dd;" horiz-adv-x="358" 
d="M221 320h-42l63 171h64zM95 320h-42l63 171h63z" />
    <glyph glyph-name="kokaithai" unicode="&#xe01;" 
d="M80 370q-8 0 -10 -7.5t5 -11.5q22 -17 21 -72q-1 -47 -20 -119q-11 -42 -33 -110q-8 -26 -11 -34q-2 -8 -2 -11q-1 -3 -1 -6q1 -3 3 -5q3 -4 9 -4q5 0 7.5 4t1.5 9q0 3 1 7q3 8 11 34q23 68 34 111q19 74 20 123q1 44 -13 69h3q36 -5 56 -13q32 -12 50 -40q26 -40 22 -93
q-1 -16 -4.5 -36.5t-9.5 -50.5t-10 -52q-9 -58 7 -106q10 -30 29 -46q22 -20 54 -20q26 0 50 29q7 8 13 18q13 19 25 49q13 34 21 70q1 1 1 2v0v1q1 4 -1.5 7t-6.5 4t-7.5 -1t-4.5 -6v-1q-9 -39 -26 -78q-8 -20 -17 -35l-1 -1q-14 -18 -26 -18q-5 0 -6 4q-4 6 -3 22
q2 24 19 102q2 8 6.5 27t7 32t6 31.5t4.5 33.5q8 80 -26 124t-127 55l-95 6q-11 2 -24 3h-2z" />
    <glyph glyph-name="khokhaithai" unicode="&#xe02;" horiz-adv-x="340" 
d="M111 395q-13 -10 -21 -23v-1q-11 0 -21 -5q-14 -6 -26 -19q-14 -15 -25 -52l-8 -33q-1 -4 1.5 -7.5t6.5 -4.5t7.5 1.5t4.5 6.5q2 15 7 32q9 32 20 43q8 8 18 13q-3 -7 -5 -14q-8 -34 -5 -63q1 -18 8 -30q9 -16 25 -19q5 -1 11 0q21 2 36 25q15 22 15 45q0 29 -18 57
q-9 15 -21 21q-1 1 -2 1q2 1 3 1q6 2 14 -3t17 -14q23 -23 37 -76q4 -13 4.5 -29.5t-2 -38t-5.5 -37t-8 -42t-8 -38.5q-10 -59 -4 -89q9 -43 51 -53q34 -7 61 25q20 23 37 68q5 11 10 28q7 23 24 107q1 4 -1 7.5t-6 4.5t-7.5 -1t-4.5 -6h-1v-1v0l-6 -30t-11.5 -51t-14.5 -49
q-5 -10 -10 -16q-7 -10 -14 -7q-4 2 -5 9q-2 8 0 23q2 19 16 76q8 31 11.5 47t8 43t3 48t-8.5 39q-12 34 -37.5 60.5t-59.5 35.5q-16 4 -29 4q-36 1 -62 -19zM99 350q13 -6 22 -23q10 -18 9 -37t-10 -36q-4 -8 -10 -12q-3 -3 -8 -2q-7 1 -11.5 9t-6.5 22q-2 25 6 57
q3 11 9 22z" />
    <glyph glyph-name="khokhuatthai" unicode="&#xe03;" horiz-adv-x="340" 
d="M142 405q-3 -1 -7 -2q-12 -3 -25 -13q-5 -3 -10 -8v-1q-5 -4 -10 -10q-11 0 -21 -5q-14 -6 -26 -19q-14 -15 -25 -52l-8 -33q-1 -4 1.5 -7.5t6.5 -4.5t7.5 1.5t4.5 6.5q2 15 7 32q9 32 20 43q8 8 18 13q-3 -7 -5 -14q-8 -34 -5 -63q1 -18 8 -30q9 -16 25 -19q5 -1 11 0
q21 2 36 25q15 22 15 45q0 29 -18 57q-9 15 -21 21q-1 1 -2 1q2 1 3 1q6 2 14 -3t17 -14q3 -3 6 -8.5t6 -14.5t6 -14q3 -6 9 -9q4 -1 10 -1q5 1 15 5q2 1 6 2q4 -27 -8 -81q-4 -18 -14 -56t-14 -57q-16 -68 -11 -104q7 -53 54 -65q34 -8 61 24q20 23 37 70v0q5 11 10 27
q7 23 24 107q1 4 -1 7.5t-6 4.5t-7.5 -1t-4.5 -6h-1v-1v0l-6 -30t-11.5 -50.5t-14.5 -48.5q-5 -11 -10 -17q-7 -10 -14 -7q-3 2 -4 10q-2 11 1 31q3 26 22 96q20 76 26 112q10 62 1 95q-2 6 -8 8q-3 2 -8 2q-6 0 -15 -3q-10 -4 -36 -15t-36 -14q-6 -2 -10 -3q-25 39 -41 50
q-13 7 -24 7zM99 350q13 -6 22 -23q10 -18 9 -37t-10 -36q-4 -8 -10 -12q-3 -3 -8 -2q-7 1 -11.5 9t-6.5 22q-2 25 6 57q3 11 9 22z" />
    <glyph glyph-name="khokhwaithai" unicode="&#xe04;" horiz-adv-x="460" 
d="M259 436h-5q-19 -1 -37 -6q-31 -11 -71 -49q-8 -6 -15 -14q-10 -10 -19 -21v0q-28 -35 -48 -83q-18 -6 -30 -15q-3 -3 -3.5 -7t2 -7t6.5 -3.5t7 1.5t7 5q-28 -78 -23 -138q2 -22 16 -44q8 -13 18 -20q13 -8 27 -5q41 4 58 36q11 21 17 70q7 67 14 94q11 0 28 9
q18 9 33 21q18 14 26 29q11 19 2 36q-5 9 -17 11q-8 1 -18 -2q-15 -5 -29 -16h-1.5t-0.5 -1q-26 -21 -42 -63q-7 2 -17 6q-28 11 -44 10q-5 0 -11 -1q17 38 38 64q1 0 1 0.5v0.5q6 7 14 16q39 39 78 40q20 1 41 -9t30 -26q30 -51 15 -131q-3 -21 -16.5 -75t-19.5 -87
q-9 -53 6 -103q8 -28 22 -45q17 -20 41 -24q27 -4 55 24q16 17 32 44q7 11 15 27q19 39 28 70q2 6 -1 11q-1 2 -3 3t-5 1t-5.5 -2t-4.5 -7q-14 -43 -34 -80q-3 -6 -7 -12q-7 -11 -13 -18q-7 -8 -13 -11q-5 -2 -10 0q-10 3 -13 12q-4 10 -2 26q2 18 22 79q32 103 38 159
q9 91 -30 150q-20 30 -55.5 50t-73.5 20zM248 316h1q2 0 2 -1q4 -7 -2 -17q-6 -11 -21 -23q-13 -11 -29 -18q-5 -3 -11 -5q11 28 29 51q11 8 23 12q4 1 8 1zM102 250q12 0 35 -9q11 -4 17 -6q-8 -25 -18 -75q-12 -56 -20 -76q-12 -30 -28 -34q-7 -2 -13 2t-12 14
q-12 18 -13 35q-5 61 29 145q13 4 21 4h2z" />
    <glyph glyph-name="khokhonthai" unicode="&#xe05;" horiz-adv-x="460" 
d="M218 430q-33 -8 -73 -47q-23 -24 -33 -37q-25 -33 -45 -82q-20 -6 -33 -16q-3 -3 -3.5 -7t2 -7t6.5 -3.5t7 1.5q5 3 12 7q-34 -101 -28 -180q2 -22 16 -44q8 -13 18 -20q13 -8 27 -5q42 4 59 43q10 25 16 84q7 80 16 113q10 1 26 9q18 9 33 21q18 14 26 29q11 19 2 36
q-5 9 -17 11q-8 2 -18 -2q-47 -16 -73 -80q-8 2 -17 6q-35 11 -52 9q22 49 40 70l1 1q37 43 88 50q3 0 7 -4q3 -4 12 -18q8 -14 15 -20q13 -11 27 -8q35 9 44 9q3 0 3 -1q2 -1 1 -7q-5 -59 -28 -143t-32 -136.5t6 -102.5q8 -28 22 -45q17 -20 41 -24q27 -4 55 24
q16 17 32 44q7 11 15 27q15 32 28 70q1 2 1 3v4q-1 5 -5 7q-2 1 -5 1t-5 -1.5t-4 -3.5q0 -1 -1 -4q-14 -42 -34 -80q-3 -6 -7 -12q-7 -11 -13 -18q-7 -8 -13 -11q-7 -3 -14 1.5t-9 10.5q-4 9 -2 26.5t22 78.5q31 101 48 188q10 53 11 86q2 42 -12 56q-13 13 -32 12
q-12 -1 -32 -10q-45 -20 -62 -19q-13 1 -22 9q-5 6 -14 21q-9 17 -16 23q-16 11 -31 7zM251 315q4 -7 -2 -17q-6 -11 -21 -23q-13 -11 -29 -18q-5 -3 -10 -5q15 39 28 51q8 7 20 11.5t14 0.5zM137 241q12 -4 17 -6q-10 -32 -21 -99q-12 -67 -18 -88q-6 -18 -13 -27
q-13 -18 -27 -9q-6 4 -12 14q-12 18 -13 35q-3 33 6 85t27 101q21 7 54 -6z" />
    <glyph glyph-name="khorakhangthai" unicode="&#xe06;" 
d="M136 406q-14 -3 -27 -14q-8 -7 -15 -15q-2 -3 -5 -6q-10 0 -20 -5q-14 -6 -26 -19q-14 -15 -25 -52l-8 -33q-1 -4 1.5 -7.5t6.5 -4.5t7.5 1.5t4.5 6.5q2 15 7 32q9 32 20 43q8 8 18 13q-3 -7 -5 -14q-8 -34 -5 -63q1 -18 8 -30q9 -16 25 -19q5 -1 11 0q21 2 36 25
q15 22 15 45q0 29 -18 57q-9 15 -21 21q-1 1 -2 1q1 1 3 1q5 1 11.5 -3t13.5 -13q3 -4 7.5 -16t8.5 -18q4 -7 13 -6q4 0 9 3q1 0 14 9l6 3q7 -55 5 -109q-1 -37 -7 -75q-30 27 -63 25h-1q-30 -1 -56 -30q-21 -24 -32 -57q-20 -56 -20 -106q1 -31 10 -52q11 -24 34 -34h1h1
l4 -2q51 -14 95 23q48 40 82 104l5 -5q25 -25 53 -22q3 0 6 1h1q26 6 43 33q14 20 24 55q6 23 12.5 59t7.5 41q1 4 -1 7.5t-6.5 4.5t-8 -1t-4.5 -7q-2 -7 -7.5 -42.5t-11.5 -56.5q-9 -31 -21 -49q-14 -20 -32 -24v0q-3 -1 -4 -1h-1q-2 0 -6 2q-7 4 -16 15q-6 8 -17 23
q47 104 46 211q0 31 -3 68q-3 39 -7 54q-2 6 -6 9t-9 3q-6 1 -15 -2q-12 -4 -35 -16q-29 -15 -34 -18q-7 -2 -11 -3q-2 3 -9 17q-10 20 -20 26q-18 11 -35 8zM98 350q14 -6 23 -23q10 -18 9 -37t-10 -36q-4 -7 -10 -12q-2 -1 -7 -2h-1q-7 1 -12 9q-4 8 -6 22q-2 25 6 57
q4 13 8 22zM142 150q21 0 42 -23q5 -7 13 -18q-17 -83 -55 -144q-22 -33 -30 -42.5t-16 -12.5q-11 -5 -21 3.5t-15 20.5q-8 17 -9 43q0 47 18 100q11 29 29 49q20 23 42 24h1h1z" />
    <glyph glyph-name="ngonguthai" unicode="&#xe07;" horiz-adv-x="380" 
d="M246 371q-4 0 -8 -1q-36 -6 -56 -52q-18 -40 -12 -79v0v-1q5 -30 26 -53t54 -33q-14 -49 -31 -82q-17 -32 -29 -36q-15 -6 -30 27q-12 28 -22 83q-13 69 -17 84q-13 45 -35 60q-16 11 -29 9q-12 -1 -19 -12q-4 -5 -5.5 -11l-2.5 -10v-3q0 -5 2.5 -8t7 -3.5t7.5 2.5t3 7
q1 10 4 15q3 3 5 3q6 1 15 -5q17 -11 28 -49q4 -14 17 -83q10 -57 23 -87q20 -45 54 -62q21 -10 49 -3q25 8 42 25q35 35 53.5 86.5t17.5 104.5q4 8 7 16.5t4 13.5l1 4q1 7 -5 10.5t-12 -0.5q-1 7 -3 15q-12 42 -40 73q-29 34 -61 35h-3zM242 319q8 -13 14 -37q12 -51 4 -90
q-2 -9 -4 -20q-57 17 -66 69v0v1q-4 28 7 57q7 16 15 23q19 16 30 -3z" />
    <glyph glyph-name="chochanthai" unicode="&#xe08;" horiz-adv-x="360" 
d="M190 417q-39 -1 -74 -18q-26 -12 -47.5 -33.5t-33.5 -44.5t-17 -35.5t-7 -21.5v-1h-1v-1q-1 -4 1 -7.5t6 -4.5t7.5 1t4.5 5l1 1q9 29 26 58q7 12 14 21q8 10 17 19q17 15 33 15q32 0 65 -22t46 -52q21 -48 6 -113q-16 17 -31 25q5 32 4 53q0 4 -3.5 7t-7.5 2.5t-6.5 -3.5
t-2.5 -8q1 -14 -4 -44q-21 6 -44 2q-40 -6 -51 -33q-9 -22 8 -49q18 -27 42 -25q22 2 38 24q12 17 20 45q1 2 2 9q14 -10 30 -29q-13 -40 -40 -95q-24 -47 -25 -96q0 -34 15 -54q19 -24 59 -24q22 0 38 15q12 13 20 35q13 34 12 80v1q-1 22 -8 46q4 9 9.5 22t7.5 17
q29 68 36 126q9 79 -27 124q-67 63 -138 61zM158 199q13 0 25 -3q-2 -6 -3 -11q-7 -25 -17 -39q-11 -15 -24 -16q-12 -1 -23 16q-12 18 -7 30q7 17 36 22q6 1 13 1zM289 36q1 -9 1 -16q-3 -42 -8 -57q-4 -15 -10 -21q-5 -5 -9 -2q-2 1 0 16q3 19 15 52q4 13 11 28z" />
    <glyph glyph-name="chochingthai" unicode="&#xe09;" 
d="M97 391q-28 -19 -56 -65q-18 -32 -30 -62q-2 -4 -0.5 -8t5.5 -5.5t8 0t5 5.5q12 29 30 59q0 1 11 17t16.5 22t16 15t19.5 11q44 10 95 -17q48 -26 75 -68q27 -52 25.5 -114.5t-26.5 -116.5q-5 -12 -11 -25q-8 -2 -27 -5q-32 -7 -42 -5h-3q0 3 1 7q5 12 14.5 32.5t14 32
t8.5 33t4 46.5q0 23 -8 43q14 22 18 45q1 4 -1.5 7.5t-6.5 4.5t-7.5 -1.5t-4.5 -6.5q-2 -14 -9 -28h-1q-21 29 -60 27q-32 -1 -47 -15q-17 -14 -23 -33q-7 -24 -5 -39q2 -13 10 -21q8 -10 23 -13h1q29 -4 64 21q-1 -18 -7 -38q-1 -4 -35 -89q-9 -21 -6 -34q3 -15 18 -21
q17 -6 60 2q4 1 19 4t24 5q-27 -80 -29 -145q-1 -28 2 -44q5 -20 17 -28q5 -3 11 -4q14 -1 29 9q17 10 31 25q19 20 31 51q13 35 17 53q14 68 -17 109q-11 14 -35 16q4 9 6 14q36 78 47 150q18 107 -28 161q-43 49 -124 58q-31 4 -66 -6t-61 -28zM158 250h1q11 -2 20 -17
q8 -15 11 -35l0.5 -1.5l0.5 -1.5q-35 -28 -59 -25q-9 2 -13 6q-3 4 -4 10q-1 11 5 31q4 14 16 24q14 10 22 9zM304 4h1h1q7 -1 12 -2q10 -2 14 -8q23 -32 16 -87q-3 -22 -9 -37q-12 -27 -27 -43q-12 -14 -28 -23q-18 -11 -24 7q-2 6 -3 14q-1 15 0 33q3 55 47 146z" />
    <glyph glyph-name="chochangthai" unicode="&#xe0a;" 
d="M400 490q-4 0 -7 -3q-24 -21 -46 -50q-47 -60 -37 -99q6 -37 31.5 -89.5t30.5 -78.5q8 -37 5 -67q-5 -34 -29 -56q-17 -15 -40.5 -20t-33.5 2q-8 5 -5 32q2 19 16 76q8 31 11.5 47t8 43t3 48t-8.5 39q-12 34 -37.5 60.5t-59.5 35.5q-15 4 -29 4q-36 1 -62 -19
q-13 -10 -21 -23v-1q-11 0 -21 -5q-14 -6 -26 -19q-14 -15 -25 -52l-8 -33q-1 -4 1.5 -7.5t6.5 -4.5t7.5 1.5t4.5 6.5q2 15 7 32q9 32 20 43q8 8 18 13q-3 -7 -5 -14q-8 -34 -5 -63q1 -18 8 -30q9 -16 25 -19q5 -1 11 0q21 2 36 25q15 22 15 45q0 29 -18 57q-9 15 -21 21
q-1 1 -2 1q2 1 3 1q6 2 14 -3t17 -14q23 -23 37 -76q4 -13 4.5 -29.5t-2 -37.5t-5 -36.5t-8 -41t-7.5 -38.5q-10 -57 -4 -88q8 -44 49 -56q62 -17 119 32t62 129q2 26 -6 61q-7 32 -31 88.5t-31 81.5q-8 30 33 83q9 12 20 24t17 18l7 6q5 4 2.5 10.5t-9.5 6.5zM99 350
q13 -6 22 -23q10 -18 9 -37t-10 -36q-5 -8 -10 -12q-2 -1 -3 -2h-1h-1h-2h-1q-7 1 -12 9q-4 8 -6 22q-2 25 6 57q3 11 9 22z" />
    <glyph glyph-name="sosothai" unicode="&#xe0b;" 
d="M400 490q-4 0 -7 -3q-24 -21 -46 -50q-47 -60 -37 -99q7 -37 25.5 -75.5t31 -72.5t11.5 -71q-1 -35 -30 -64q-20 -21 -41 -26q-13 -4 -24.5 -2.5t-13.5 13.5q-3 11 -1 31q2 27 15 96l3 15q7 34 10 53t7 48t3 51t-6 39q-2 5 -6 7q-4 3 -8 3q-5 0 -12 -3.5t-23 -15.5
q-15 -11 -22 -14q-1 -1 -3 -1q-8 9 -26 24q-22 18 -34 25q-15 9 -31 5q-12 -3 -25 -13q-5 -3 -10 -8v-1q-5 -4 -10 -10q-11 0 -21 -5q-14 -6 -26 -19q-14 -15 -25 -52l-8 -33q-1 -4 1.5 -7.5t6.5 -4.5t7.5 1.5t4.5 6.5q2 15 7 32q9 32 20 43q8 8 18 13q-3 -7 -5 -14
q-8 -34 -5 -63q1 -18 8 -30q9 -16 25 -19q5 -1 11 0q21 2 36 25q15 22 15 45q0 29 -18 57q-9 15 -21 21q-1 1 -2 1q2 1 3 1q6 2 14 -3t17 -14q4 -4 12 -11t10 -8q13 -12 16 -18q2 -5 6 -8q5 -3 11 -1q2 0 4 1q2 -27 -9 -75q-4 -18 -13.5 -55t-14.5 -56q-15 -67 -10 -104
q7 -53 52 -68q41 -13 83 6.5t70 64.5t28 101q0 36 -9 62q-7 20 -27.5 67t-31.5 91q-8 30 33 83q9 12 20 24t17 18l7 6q5 4 2.5 10.5t-9.5 6.5zM99 350q13 -6 22 -23q10 -18 9 -37t-10 -36q-4 -7 -10 -12q-3 -3 -7 -2q-8 1 -13 9q-4 8 -6 22q-2 25 6 57q3 11 9 22z" />
    <glyph glyph-name="chochoethai" unicode="&#xe0c;" horiz-adv-x="480" 
d="M120 450h-1q-7 -1 -9 -8t5 -11q23 -17 22 -56q0 -33 -19 -89q-7 -21 -22 -61t-19 -51q-12 0 -21 -5q-17 -8 -33 -38l-12 -27q-2 -4 0 -8t5.5 -5.5t7.5 0.5t5 5q5 12 12 25q13 25 23 30q2 1 5 2q-14 -42 -19 -71q-4 -27 -2 -51q2 -16 8 -26q8 -14 23 -15h1v0q22 0 38 19
q12 16 18 42q13 55 -7 94q-10 17 -32 25q2 5 17.5 46.5t22.5 62.5q20 60 20 96q0 24 -7 43q33 -19 62 -64q43 -65 48 -174q1 -24 0 -48q-10 0 -21 -2q-30 -3 -56 -31q-22 -24 -33 -56q-14 -43 -11 -82q3 -52 35 -69h1q0 -1 1 -1q19 -9 39.5 -10t40.5 11q57 39 90 117
q2 -2 5 -4q23 -20 47 -16h0.5t0.5 1h3h1q25 7 43 34q14 21 24 54q6 23 12.5 59t7.5 40.5t-1 8t-6.5 4.5t-8 -1t-4.5 -7q-1 -7 -7.5 -42t-12.5 -56q-8 -31 -20 -49q-14 -20 -32 -25h-1q-1 -1 -3 -1q-3 0 -7 2q-5 2 -12 11q-6 7 -16 24q21 71 21 154q0 42 -17 84t-46 73
q-37 40 -93 66.5t-104 26.5zM89 147q3 -2 7 -6q6 -10 9 -23q8 -36 1 -71q-3 -18 -10 -28q-7 -9 -15 -9h-1q-4 0 -7 5q-3 6 -5 19q-2 20 2 44q4 28 19 69zM243 110h3q6 0 12 -3q-7 -79 -37 -143q-9 -19 -24 -39q-18 -28 -33 12q-4 13 -5 25q-3 36 11 75q9 28 28 49
q20 22 42 24h1h2z" />
    <glyph glyph-name="yoyingthai" unicode="&#xe0d;" horiz-adv-x="480" 
d="M80 410q-8 0 -10 -7.5t5 -11.5q24 -18 29 -51q4 -29 -6 -75q-5 -23 -25 -91q-10 -1 -17 -5q-17 -8 -33 -38l-12 -27q-2 -4 0 -8t5.5 -5.5t7.5 0.5t5 5q5 12 12 25q13 25 23 30q1 0 1.5 0.5l0.5 0.5q-11 -41 -16 -70q-4 -27 -2 -51q2 -16 8 -26q8 -14 23 -15h1v0
q22 0 38 19q12 16 18 42q13 55 -7 94q-10 17 -32 25q-1 0 -2.5 0.5l-1.5 0.5q19 65 24 89q11 50 6 83q-3 25 -16 44q39 -6 63 -17.5t42 -35.5q22 -28 28 -71.5t-5 -80.5q-18 -72 -44 -138q-6 -15 3 -27q8 -9 23 -16q27 -11 74 -14q45 -2 87 3q43 7 65 20h1l2 2q13 9 22 38
q8 22 13 56l9 73q0 5 -2.5 8t-6.5 3.5t-7.5 -2.5t-3.5 -7q-2 -35 -9 -72q-5 -32 -12 -52q-7 -25 -15 -29q-13 -7 -35 -12q-27 -6 -52 -5q-28 1 -40 10t-7 26q4 15 20 55.5t25 75.5q11 45 10 84q-2 55 -27 85q-36 41 -128 53q-1 0 -94 7q-12 2 -24 3h-2zM87 149q4 -3 9 -8
q6 -10 9 -23q8 -36 1 -71q-3 -18 -10 -28q-7 -9 -15 -9h-1q-4 0 -7 5q-3 6 -5 19q-2 21 2 44q4 27 17 71zM263 -28q-17 0 -35 -9q-29 -15 -38 -40q-7 -24 6 -52q-8 2 -16 7l-14 10q-3 2 -7 2t-6.5 -3.5t-2.5 -7.5t4 -7q6 -5 15 -11q19 -11 31 -11q1 0 9 1q12 -15 28 -20
q52 -17 119 14q18 7 37 18q38 23 72 62q14 15 23 29q5 6 0 13q-4 4 -10 3q-4 -1 -6 -4q-37 -53 -100 -90q-12 -7 -24 -13q-35 -12 -65 -3q-9 2 -16 9q33 18 42 47q1 2 2 5q2 14 -5 28q-8 17 -23 21q-13 3 -20 2zM277 -50q5 0 11 -11q3 -6 3 -13q0 -1 -1 -4q-7 -22 -34 -37
q-8 17 -6 34q2 12 11 22t16 9z" />
    <glyph glyph-name="dochadathai" unicode="&#xe0e;" 
d="M273 419q-31 -5 -77 -26q-5 -2 -14 -6q-11 -5 -30 -14q-27 -13 -31 -15q-21 -8 -42 -8q-5 0 -8 -5q-2 -8 2 -13q39 -38 66.5 -106t20.5 -125q-4 -35 -20 -62q-9 -15 -19 -22q-9 -7 -19 -7l-4 2q15 5 27 19q17 20 24.5 46t3.5 52q-3 16 -9 25q-8 12 -21 16h-0.5h-1.5
q-15 3 -29 -7q-12 -7 -22 -23q-14 -23 -19 -51q-1 14 -1 31q0 4 -3 7t-7 3t-7 -3t-3 -7q0 -40 7 -65q8 -28 27 -39q13 -24 34 -26h1v0q21 1 34 11t24 28q18 31 23 70q7 57 -16.5 121.5t-61.5 110.5q11 2 33 12q8 3 52 24q31 11 49 4q21 -9 36 -37q12 -23 18 -56
q11 -59 14 -141t-4 -160q-8 -82 -28 -121q-10 -20 -22 -27q-12 -6 -26 0v0q-23 10 -51 58q34 54 56 109v0q0 1 1 1q1 4 -1 7.5t-5.5 5t-7 0t-5.5 -5.5v0q0 -1 -0.5 -1t-0.5 -0.5v-0.5v-1q-18 -41 -42 -82q-1 -3 -7 -12l-0.5 0.5t-0.5 1.5q-20 34 -32 45q-37 29 -75 7
q-35 -20 -56 -61q-32 -63 -5 -105q12 -21 45 -18q10 1 21 4q27 5 55 30q13 12 26 28q11 13 22 29q26 -44 54 -57q35 -23 66 -21q35 2 61 43q21 33 37 91q24 90 31 215q6 104 0 148q-11 88 -65 121q-19 12 -44 13q-13 1 -28 -2zM119 150q5 -1 8 -7q4 -6 6 -17q3 -21 -3 -43
t-20 -39q-13 -15 -26 -14l-2 6q-5 18 -2 43q3 27 14 48q11 22 25 23zM114 -61q12 -11 29 -40q2 -4 6 -11q-41 -63 -74 -79q-32 -16 -43 -4q-5 5 -8 15q-6 18 -4 39q3 32 20 60q9 15 21 23q30 18 53 -3z" />
    <glyph glyph-name="topatakthai" unicode="&#xe0f;" 
d="M80 410q-8 0 -10 -7.5t5 -11.5q53 -40 75.5 -125t9.5 -164q-6 -37 -21 -63q-8 -15 -18 -22q-9 -7 -19 -7l-4 2q15 5 27 19q17 20 24.5 46t3.5 52q-3 16 -9 25q-8 12 -21 16h-1h-1q-15 3 -29 -7q-12 -7 -22 -23q-14 -23 -19 -51q-1 14 -1 31q0 4 -3 7t-7 3t-7 -3t-3 -7
q0 -40 7 -65q8 -28 27 -39q13 -24 34 -26h1h1q18 -1 33 11q13 10 23 28q17 30 24 69q12 77 -5.5 158t-65.5 131q48 -4 74.5 -10.5t50.5 -24.5q45 -33 56 -94q10 -56 13 -136t-5 -155q-8 -79 -28 -116q-10 -20 -21 -24q-21 -7 -28 7q6 5 10 12q6 10 8 22q3 14 0 24
q-4 14 -16 18q-11 3 -19 -6q-4 -5 -6 -15q-3 -11 -3 -29v-7q-6 5 -13 15q-4 6 -8 13.5t-8 16t-6 10.5v1q4 3 6 5q36 39 62 80v1q1 0 1 1v0q0 1 1 1q1 5 -2 9t-8 4q-3 0 -6 -2l-1 -1q-1 0 -1 -1q-20 -29 -47 -60q-5 -6 -16 -18q-12 19 -21 26q-42 33 -93 1q-21 -14 -32 -28
q-29 -37 -12 -71q6 -13 20 -17q10 -3 25 -2q10 1 21 4q41 8 89 53q12 -26 20 -37q9 -14 19 -21q7 -5 16 -6q8 -20 37 -35q18 -9 43 -5q35 5 61 46q22 34 38 91q26 94 30 213q6 166 -63 227q-43 38 -143 41q-21 1 -56 0.5t-47 -0.5q-11 1 -20 2h-1zM119 150q5 -1 8 -7
q4 -6 6 -17q3 -21 -3 -43t-20 -39q-13 -15 -26 -14l-2 6q-5 18 -2 43q3 27 14 48q11 22 25 23zM114 -61q10 -9 21 -26q-33 -32 -60 -44q-10 -4 -19 -7q-13 -3 -25 -2q-5 1 -8 3.5t-4 8.5q-3 11 1 26q6 26 22 37q23 16 38 17.5t34 -13.5zM219 -111q0 -1 1 -2q1 -6 0 -15
q-1 -7 -5 -13v1q0 15 2 24q1 3 2 5z" />
    <glyph glyph-name="thothanthai" unicode="&#xe10;" 
d="M360 490q-5 0 -8 -4q-28 -37 -67 -80q-13 4 -27 7q-30 7 -59 7q-47 1 -88 -16q-57 -23 -81 -55q-21 -30 -9 -62q9 -26 45 -31q27 -3 56 4q51 13 116 72q42 -30 53 -56q19 -44 2 -97q-2 -6 -5 -14q-22 19 -44 33q1 5 2 7q5 23 4 36q0 4 -3.5 7t-7.5 2.5t-6.5 -3.5t-2.5 -8
q1 -9 -4 -30v-1l-0.5 0.5t-1.5 0.5q-27 14 -61 8q-39 -6 -52 -33q-12 -25 4 -58q17 -35 45 -36q23 -1 43 21q15 16 27 45q4 9 8 22q22 -15 42 -32q-4 -8 -14 -29t-15 -33q-25 -57 -13 -110q6 -26 22 -43.5t39 -20.5q20 -2 37 13q13 12 22 35q17 43 12 83q-3 24 -17 49
q3 9 6 16q34 80 43 115q16 71 -14 115q-27 40 -83 63q17 18 32.5 37t23.5 28l7 10q4 5 1 10.5t-9 5.5zM127 373h4q41 -1 87 -28l1 -0.5t2 -0.5q-61 -54 -103 -64q-26 -7 -49 -4q-25 4 -30 17q-8 23 7 44q18 24 56 33q12 3 25 3zM179 198q22 1 37 -7l2 -1t3 -2q-4 -13 -9 -24
q-11 -26 -24 -40q-14 -14 -28 -14q-16 0 -27 25q-12 24 -4 41t37 21q6 1 13 1zM343 64q6 -15 7 -25q2 -29 -9 -54q-4 -9 -8 -13q-7 -7 -9 8q-1 14 5 40q5 20 14 44zM216.5 -51q-2.5 -1 -4.5 -3l-2.5 -4t-7 -9.5t-9.5 -12.5t-12.5 -16t-15.5 -18q-5 -6 -16 -18q-11 16 -21 26
q-22 20 -49 16q-25 -2 -44 -15q-19 -12 -32 -28q-29 -37 -12 -71q6 -13 20 -17q10 -3 25 -2q10 1 21 4q41 8 89 53q12 -27 20 -37q9 -14 19 -21q7 -5 17 -6q13 -23 36 -35q18 -9 43 -5q37 5 65 25q32 22 34 54q0 8 -2 17l29 27q3 3 3 7.5t-3 7t-7.5 2.5t-6.5 -3
q-10 -10 -22 -21q-7 13 -17 23q-13 14 -26 20q-8 3 -16 4q-9 0 -16 -4h-1q-11 -6 -15 -20q-3 -12 -1 -26q6 -32 27 -42q14 -7 35 1q1 1 2 1q-2 -11 -6.5 -18t-18 -16t-29.5 -14q-30 -8 -49 3q-13 7 -18 17q5 5 9 11q6 10 8 22q3 14 0 24q-4 14 -16 18q-11 3 -19 -6
q-4 -5 -6 -15q-3 -11 -3 -29v-7q-6 5 -13 15q-4 6 -8 13.5t-8 16t-6 11.5q4 3 6 5q36 39 62 80q2 3 2 5.5t-1 4.5t-3 4t-5 2q-2 0 -4.5 -1zM114 -121q10 -9 21 -26q-33 -32 -60 -44q-10 -4 -19 -7q-13 -3 -25 -2q-5 1 -8 3.5t-4 8.5q-3 11 1 26q6 23 22 37q13 11 40 15v0
q18 1 32 -11zM310 -129q10 0 17 -5q10 -7 15 -22q2 -8 3 -17q-7 -4 -12 -6q-12 -5 -19 -2q-11 6 -15 28q-2 9 0 16q2 6 4 7q4 1 7 1zM219 -171q0 -1 1 -2q1 -6 0 -15q-1 -7 -5 -13v1q0 15 2 24q1 3 2 5z" />
    <glyph glyph-name="thonangmonthothai" unicode="&#xe11;" horiz-adv-x="480" 
d="M371 424q-23 0 -47 -16q-9 -6 -17 -14q-3 -2 -5 -4q-1 8 -2 12q-2 6 -6 9t-10 2q-6 0 -14 -5q-9 -5 -30 -21q-22 -18 -28 -22q-4 -3 -8 -5q-1 2 -7.5 11t-12.5 15.5t-13 11.5q-17 11 -35 8q-14 -3 -27 -14q-8 -7 -15 -15q-2 -3 -5 -6q-10 0 -20 -5q-14 -6 -26 -19
q-14 -15 -25 -52l-8 -33q-1 -4 1.5 -7.5t6.5 -4.5t7.5 1.5t4.5 6.5q2 15 7 32q9 32 20 43q8 8 18 13q-3 -7 -5 -14q-8 -34 -5 -63q1 -18 8 -30q9 -16 25 -19q5 -1 11 0q21 2 36 25q15 22 15 45q0 29 -18 57q-9 15 -21 21q-1 1 -2 1q1 1 3 1q5 1 11.5 -3t13.5 -13
q3 -4 7.5 -16t8.5 -18q4 -7 13 -6q4 0 8 3q3 2 11 9q6 -50 -5 -104q-3 -18 -9 -38t-11 -35t-14 -38t-13.5 -34t-16 -37t-15.5 -35q-1 -2 -1 -5q0 -5 4 -8t8 -2q29 0 50 1q20 1 32 3q7 2 12 3q7 2 10 5l1 1l1 1v0v1h1v1v1h1q3 11 17 48.5t22 63t17.5 65.5t13.5 75q3 28 3 76
v24q8 11 18 20q9 7 18 6q14 -1 26 -18t15 -39q6 -32 -13 -108q-31 -121 -37 -158q-10 -59 -4 -101q4 -28 15 -46q14 -21 37 -25q27 -4 51 24q17 20 32 54q4 9 7 18q13 33 21 70q2 6 -1 10.5t-8 4t-8 -4.5q-1 -1 -2 -5q-10 -42 -26 -81l-0.5 -1.5l-0.5 -1.5q-11 -22 -17 -29
q-26 -28 -30 -12q-3 10 -1 32q1 5 15 90q5 31 13.5 67.5t14 59.5t11 54.5t5.5 51.5t-4 51q-10 47 -40 70q-17 12 -39 12zM98 350q14 -6 23 -23q10 -18 9 -37t-10 -36q-5 -8 -10 -12q-2 -2 -8 -2q-7 1 -12 9q-4 8 -6 22q-2 25 6 57q3 11 8 22z" />
    <glyph glyph-name="thophuthaothai" unicode="&#xe12;" horiz-adv-x="480" 
d="M180 410q-25 0 -59 -33q-21 -19 -38 -44q-11 -14 -20 -31q-10 -17 -17 -35q-1 -1 -4.5 -5.5t-5.5 -7.5t-4 -7.5t-1.5 -8t3.5 -6.5l1 -1q-1 -3 -2 -7q-2 -10 -4 -21q-3 -27 -2 -56q4 -52 19 -84q7 -15 17 -23q12 -11 27 -10h1q27 1 49 23q19 18 32 49q23 58 18 119
q-3 29 -20 55q-21 30 -49 34q-17 2 -35 -8q9 14 16 24q1 2 7.5 9.5t8.5 10t7 7.5t9 8t9 5q11 5 21 6t15 -6q2 -3 4 -14q3 -12 5 -17q3 -6 7 -8q6 -4 13 -2q6 2 16.5 7t18.5 8h1q3 -2 7 -9q9 -15 18 -43q19 -60 21 -108q1 -35 -5 -73q-13 5 -26 3q-28 -1 -52.5 -20t-35.5 -46
q-14 -36 -11 -74q2 -21 10 -36q9 -17 26 -23h0.5t0.5 -1q36 -14 69 12q46 35 77 92q7 -7 14 -13q27 -16 46 -11q28 11 43 34q14 21 24 55q6 23 12.5 58.5t7.5 40.5q1 4 -1 7.5t-6.5 4.5t-8 -1t-4.5 -7q-1 -6 -7.5 -41.5t-12.5 -56.5q-8 -30 -20 -49q-10 -12 -18 -18.5
t-19 -7.5t-21 9q-7 6 -17 19q38 80 35 163q-2 53 -40 126q-17 31 -33 48q-8 10 -16 14q-12 6 -21 1q-48 -29 -60 -29q-3 0 -6 4t-6 14q-5 14 -8 19q-8 13 -20 13zM97 260q19 -5 31 -30q11 -23 12 -50q2 -47 -10 -84q-6 -21 -16 -33q-11 -12 -24 -13q-8 0 -14 5q-6 6 -12 17
q-15 33 -17 78q-1 16 0 32q2 35 14 68l9 6q17 8 27 4zM279 84q-15 -62 -48 -119q-11 -20 -17 -27q-9 -10 -14.5 -8.5t-12.5 14.5q-6 10 -7 28q-4 42 9 64q17 29 42 45.5t48 2.5z" />
    <glyph glyph-name="nonenthai" unicode="&#xe13;" horiz-adv-x="480" 
d="M80 410q-8 0 -10 -7.5t5 -11.5q24 -18 29 -51q4 -29 -6 -75q-5 -23 -25 -91q-10 -1 -17 -5q-17 -8 -33 -38l-12 -27q-2 -4 0 -8t5.5 -5.5t7.5 0.5t5 5q5 12 12 25q13 25 23 30q1 0 1.5 0.5l0.5 0.5q-11 -41 -16 -70q-4 -27 -2 -51q2 -16 8 -26q8 -14 23 -15h1v0
q22 0 38 19q12 16 18 42q13 55 -7 94q-10 17 -32 25q-1 0 -2.5 0.5l-1.5 0.5q19 65 24 89q11 50 6 83q-3 24 -15 42h1h1q75 -17 116 -65q52 -61 25 -137q-1 -1 -11.5 -29.5t-15 -41t-9.5 -34.5t-5 -38q0 -23 11 -36q10 -12 29 -14q23 -2 75 14q60 18 79 21q6 1 12 1
q-12 -38 -20 -67q-27 -93 -27 -132q0 -13 3 -21q4 -11 14 -14q9 -2 20 4q9 5 20 16q1 0 1 1l2 2q48 49 66 102q21 61 -6 108q-12 20 -44 24q10 31 21 63t17 48.5t6 15.5q2 4 0 8t-5.5 5.5t-7.5 -0.5t-5 -5q-23 -61 -47 -133q-10 0 -35 -2q-34 -2 -46 0q-7 2 -11 4q-2 3 -2 7
q0 38 29 96q21 41 13 88q-9 61 -66 104q-37 27 -116 44q-25 5 -74 12q-16 4 -34 6h-2zM87 149q4 -3 9 -8q6 -10 9 -23q8 -36 1 -71q-3 -18 -10 -28q-7 -9 -15 -9h-1q-4 0 -7 5q-3 6 -5 19q-2 21 2 44q4 27 17 71zM437 24q10 -3 15 -10q25 -34 8 -97q-14 -56 -45 -88l-2 -2
l-1 -1q-9 -9 -16 -13q-3 -1 -4 -2h-1v2q-2 4 -2 14q0 36 26 126q9 31 22 71z" />
    <glyph glyph-name="dodekthai" unicode="&#xe14;" horiz-adv-x="460" 
d="M259 436h-5q-19 -1 -37 -6q-64 -22 -105 -84v0l-1 -1q-19 -29 -33 -58l-1 -0.5t-2 -1.5q-34 -20 -44 -41q-2 -3 -0.5 -7t5 -6t7.5 -0.5t6 5.5q3 5 14 15q-27 -73 -13 -133q8 -34 27 -59q11 -15 23 -23q16 -9 31 -6q54 5 89 71q30 57 30 119q0 34 -17 66q-20 36 -50 44
q-9 2 -18 2q-21 -1 -46 -13q17 26 47 47.5t54 23.5q20 1 41 -9t30 -26q30 -51 15 -131q-3 -21 -16.5 -75t-19.5 -87q-9 -53 6 -103q8 -28 22 -45q17 -20 41 -24q27 -4 55 24q16 17 32 44q7 11 15 27q1 2 1 3q8 17 14.5 34t10 26l3.5 9q1 4 -1 7.5t-6 5t-7.5 -0.5t-5.5 -6
q-13 -42 -34 -82q-3 -6 -7 -12q-7 -11 -13 -18q-7 -8 -13 -11q-5 -2 -10 0q-10 3 -13 12q-4 10 -2 26q2 18 22 79q32 103 38 159q9 91 -30 150q-20 30 -55.5 50t-73.5 20zM128 282q5 0 9 -2q18 -5 30 -30q11 -23 13 -51q4 -53 -7 -94q-6 -24 -17 -38q-12 -14 -28 -17
q-9 -2 -17.5 3.5t-17.5 17.5q-16 22 -23 51q-15 65 24 150q18 9 32 10h2z" />
    <glyph glyph-name="totaothai" unicode="&#xe15;" horiz-adv-x="460" 
d="M227 431q-5 0 -9 -1q-33 -8 -73 -47q-14 -14 -28 -30q-13 -17 -22 -31q-9 -13 -17 -26l-3 -6q-13 -10 -23 -20q-13 -13 -15 -16q-7 -11 -7 -14q0 -6 6 -9q4 -2 8 0q1 0 2 1l1 1q-1 -2 -2 -5q-13 -36 -18 -72q-2 -18 -2 -34q1 -23 5 -44q7 -33 27 -59q24 -33 54 -29
q64 6 105 87q34 68 34 143q0 34 -17 66q-20 36 -50 44q-29 7 -67 -13q8 12 17 23q37 43 88 50q3 0 7 -4q3 -4 12 -18q8 -14 15 -20q13 -11 27 -8q35 9 44 9q3 0 3 -1q2 -1 1 -7q-5 -59 -28 -143t-32 -136.5t6 -102.5q8 -28 22 -45q17 -20 41 -24q27 -4 55 24q16 17 32 44
q7 11 15 27q14 30 28 70q1 3 1 5q0 3 -1 5t-4 3q-2 2 -5.5 2t-5.5 -2q-3 -2 -4 -7q-14 -43 -34 -80q-10 -19 -20 -30q-7 -8 -13 -11q-7 -3 -14 1.5t-9 10.5q-4 9 -2 26.5t22 78.5q31 101 48 188q10 53 11 86q2 42 -12 56q-13 13 -32 12q-12 -1 -32 -10q-45 -20 -62 -19
q-13 1 -22 9q-5 6 -14 21q-9 17 -16 23q-9 8 -22 8zM128 282q5 0 9 -2q18 -5 30 -30q11 -23 13 -51q4 -66 -11 -119q-9 -30 -24 -47q-15 -19 -36 -23q-19 -2 -36 22q-19 28 -23 50q-4 21 -4 40q-1 17 2 35v1q8 54 37 110q23 13 41 14h2z" />
    <glyph glyph-name="thothungthai" unicode="&#xe16;" 
d="M80 410q-8 0 -10 -7.5t5 -11.5q24 -18 29 -51q4 -29 -6 -75q-5 -23 -25 -91q-10 -1 -17 -5q-17 -8 -33 -38l-12 -27q-2 -4 0 -8t5.5 -5.5t7.5 0.5t5 5q5 12 12 25q13 25 23 30q1 0 1.5 0.5l0.5 0.5q-11 -41 -16 -70q-4 -27 -2 -51q2 -16 8 -26q13 -15 24 -15q22 0 38 19
q12 16 18 42q13 55 -7 94q-10 17 -32 25q-1 0 -2.5 0.5l-1.5 0.5q19 65 24 89q11 50 6 83q-3 25 -16 44q35 -5 55 -13q32 -12 50 -40q31 -47 25 -117q-2 -26 -13 -83t-14 -72q-9 -58 7 -106q10 -30 29 -46q22 -20 54 -20q26 0 50 29q24 30 38 67q13 34 21 70q2 6 -1 10
q-2 3 -6 4t-7.5 -1t-4.5 -6v-1q-9 -39 -26 -78q-1 -3 -7.5 -16.5t-10.5 -19.5q-13 -18 -25.5 -18t-12.5 19q-1 27 22 108q26 99 31 148q7 90 -33 141q-34 44 -127 55l-95 6q-11 2 -24 3h-2zM87 149q4 -3 9 -8q6 -10 9 -23q8 -36 1 -71q-3 -18 -10 -28q-15 -17 -23 -4
q-3 6 -5 19q-2 21 2 44q4 27 17 71z" />
    <glyph glyph-name="thothahanthai" unicode="&#xe17;" horiz-adv-x="420" 
d="M311 424q-23 0 -47 -16q-9 -6 -17 -14q-6 -4 -11 -9q-12 -13 -21 -32l-6 12q-17 28 -50 43q-17 8 -33 9q-16 0 -29 -7q-10 -2 -18 -10q-9 -2 -17 -8q-10 -8 -20 -21q-15 -20 -25 -67l-7 -43q-1 -4 2 -7.5t7 -4t7.5 2.5t3.5 7q2 19 7 41q9 43 21 59l1 1t1 2q-8 -35 -5 -63
q1 -18 8 -30q8 -15 23 -18q1 -1 2 -1h2q10 -1 18 4q15 6 26 20q1 1 2 3l1 2q-2 -18 -6 -39t-8 -35.5t-13 -40t-12.5 -34t-14.5 -36.5t-12 -30q-2 -5 1 -9.5t8 -4.5l1.5 -0.5t5 -2t6.5 -2.5q1 0 24 -13q16 -8 25 -11q7 -2 12 -3q8 0 13 5q2 1 2 3q42 104 54 161q18 82 2 139
l4 10q12 24 32 43q9 7 18 6q14 -1 26 -18t15 -39q6 -32 -13 -108q-31 -121 -37 -158q-10 -59 -4 -101q4 -28 15 -46q14 -21 37 -25q27 -4 51 24q17 20 32 54q4 9 7 18q1 2 1 3q6 16 11 33.5t7.5 26t2.5 9.5q1 4 -1.5 7.5t-6.5 4.5t-7.5 -1.5t-4.5 -6.5q-9 -42 -26 -82
l-0.5 -1.5l-0.5 -1.5q-9 -18 -17 -29q-14 -18 -26 -18q-1 0 -2 1t-2 5q-3 11 -1 32q1 5 15 90q5 31 13.5 67.5t14 59.5t11 54.5t5.5 51.5t-4 51q-10 47 -40 70q-17 12 -39 12zM88 380q14 -4 23 -22q10 -18 9 -38q-1 -19 -10 -36q-5 -8 -10 -12q-1 0 -1 -1q-4 -1 -8 -1
q-7 2 -11 9q-4 8 -5 22q-3 25 5 57q3 13 8 22z" />
    <glyph glyph-name="thothongthai" unicode="&#xe18;" horiz-adv-x="360" 
d="M169 451h-3q-4 0 -8 -1q-36 -6 -80 -43q-19 -17 -32 -33q-15 -19 -16 -33q-2 -23 27 -50q16 -14 62 -47q29 -20 47 -34t37.5 -35t27.5 -39q17 -41 17.5 -86.5t-17.5 -85.5q-14 -29 -39.5 -51t-51.5 -23q-5 0 -15 3q-27 13 -38 36t-9.5 47.5t2.5 52.5q1 23 5 45t13.5 58.5
t11.5 45.5q4 18 4 33q-1 17 -7 26q-9 14 -25 10q-13 -3 -29 -20q-3 -3 -3 -7t3 -7t7 -3t7 3q20 19 23 13q4 -4 4 -16t-4 -28q-2 -8 -11 -44.5t-13.5 -60t-5.5 -46.5q-3 -23 -2 -57t13 -58q11 -23 27 -33q6 -4 13 -7q12 -6 29 -6q57 -2 117.5 27t90.5 78q25 44 23.5 94
t-22.5 95q-16 34 -43 59t-67 51q-7 4 -33 20t-37 23.5t-29.5 21.5t-32.5 28q-4 4 -2 12q2 9 12 20q21 24 45 31q1 0 1 1h1q7 2 17 -3q8 -3 23 -13q1 -1 6 -4.5t6.5 -4.5l6 -4t7 -4t7 -3t8 -3t7.5 -1.5t8 -0.5q12 0 31 12l15 10q3 3 3.5 7t-2 7t-6.5 3.5t-7 -1.5
q-6 -5 -14 -9q-14 -9 -20 -9q-14 -1 -45 21q-16 12 -26 16t-20 4z" />
    <glyph glyph-name="nonuthai" unicode="&#xe19;" horiz-adv-x="360" 
d="M132 417q-37 -1 -53 -17q-9 -2 -17 -8q-10 -8 -20 -21q-15 -20 -25 -67l-7 -43q-1 -4 2 -7.5t7 -4t7.5 2.5t3.5 7q2 19 7 41q9 43 21 59l1 1t1 2q-8 -35 -5 -63q1 -18 8 -30q8 -15 24 -19h1h1q10 -2 19 4q15 6 26 20q5 7 8 15q5 -105 -51 -245q-9 -22 -3 -35t25 -15
q20 -2 76 13q64 17 89 19q10 1 19 1q-13 -39 -21 -68q-27 -93 -27 -132q0 -13 3 -21q3 -9 10 -12q3 -4 8 -4q9 0 20 8q9 6 20 17q22 25 39 59q45 93 10 170q-5 12 -18 18q-5 2 -11 4l39 110q2 4 0 8t-5.5 5.5t-7.5 -0.5t-5 -5q-19 -52 -41 -116q-13 0 -48 -3q-32 -3 -43 0
q-6 1 -8 4t-1 9q3 22 16.5 70.5t18.5 72.5q18 93 -17 145q-20 30 -58 44q-22 8 -38 7zM88 380q14 -4 23 -22q10 -18 9 -38q-1 -19 -10 -36q-5 -8 -10 -12h-1q-4 -2 -8 -2q-7 2 -11 9q-4 8 -5 22q-3 25 5 57q3 13 8 22zM317 24q10 -3 15 -10q25 -34 8 -97q-15 -58 -47 -90
q-10 -10 -17 -14q-3 -1 -4 -2h-1v2q-2 4 -2 14q0 36 26 126q9 31 22 71z" />
    <glyph glyph-name="bobaimaithai" unicode="&#xe1a;" horiz-adv-x="360" 
d="M79 400q-9 -2 -17 -8q-10 -8 -20 -21q-15 -20 -25 -67l-7 -43q-1 -4 2 -7.5t7 -4t7.5 2.5t3.5 7q2 19 7 41q9 43 21 59l1 1t1 2q-8 -35 -5 -63q1 -18 8 -30q8 -15 24 -19h1h1q10 -2 19 4q15 6 26 20q5 7 8 15q5 -105 -51 -245q-6 -14 2 -26q6 -10 21 -16q24 -12 67 -15
q93 -6 141 22l1 1q2 1 3 2q13 9 22 38q8 22 13 56l9 73q0 5 -2.5 8t-6.5 3.5t-7.5 -2.5t-3.5 -7q-2 -35 -9 -72q-5 -32 -12 -52q-7 -24 -15 -29h-1q-10 -6 -31.5 -10t-38.5 -2q-21 3 -30 12q-9 10 -3 29q1 6 12 41t17.5 60.5t10.5 50.5q16 100 -22 157q-20 30 -58 44
q-23 8 -38 7q-38 -3 -53 -17zM88 380q14 -4 23 -22q10 -18 9 -38q-1 -19 -10 -36q-5 -8 -10 -12h-1q-4 -2 -8 -2q-7 2 -11 9q-4 8 -5 22q-3 25 5 57q3 13 8 22z" />
    <glyph glyph-name="poplathai" unicode="&#xe1b;" 
d="M400 610h-1q-7 0 -9 -8q-11 -47 -20.5 -117t-12.5 -110t-9 -126q-8 -107 -14 -150q-4 -32 -10 -49q-5 -18 -12.5 -23t-26.5 -6q-21 -1 -41 5q-21 6 -30 18q-10 14 -4 33q2 9 12 40.5t16 56t10 46.5q16 92 -20 146q-19 29 -62 44q-21 7 -38 7q-18 0 -31 -7q-10 -2 -18 -10
q-9 -2 -17 -8q-10 -8 -20 -21q-15 -20 -25 -67l-7 -43q-1 -4 2 -7.5t7 -4t7.5 2.5t3.5 7q2 19 7 41q9 43 21 59l1 1t1 2q-8 -35 -5 -63q1 -18 8 -30q8 -15 24 -19h1h1q10 -2 19 4q15 6 26 20q4 5 7 11q-1 -79 -50 -201q-6 -14 2 -27q6 -11 20 -21q25 -18 68 -29
q43 -12 81 -12q44 1 64 17v0q11 9 18 32q5 19 10 52q6 43 14 152q18 255 42 350q1 4 -2 8t-8 4zM88 380q14 -4 23 -22q10 -18 9 -38q-1 -19 -10 -36q-5 -8 -10 -12h-1q-4 -2 -8 -2q-7 2 -11 9q-4 8 -5 22q-3 25 5 57q3 13 8 22z" />
    <glyph glyph-name="phophungthai" unicode="&#xe1c;" 
d="M210 410h-2h-2q-24 -2 -58 -23q-35 -23 -56 -51q-13 -17 -22 -38q-13 -2 -23 -6q-28 -11 -37 -32q-1 -4 0.5 -7.5t5.5 -5.5t8 0t5 6q5 13 25 20q3 1 7 2q-18 -51 -16 -110q1 -43 18 -91t39 -74q4 -4 9 -3q3 -1 9 -1q10 1 27 6q16 4 29 10q15 6 20 10h1v1l1 1q3 3 7 11
q3 8 7 20q9 23 18 57q6 21 13 49q7 -26 17 -54q16 -46 34 -78q9 -17 16 -26q5 -5 8 -9q6 -4 12 -4q17 0 25 6q6 4 14 19q0 1 1 2q7 16 20 66q12 50 20 95q1 4 -1.5 7.5t-6.5 4.5t-7.5 -1.5t-4.5 -6.5q-7 -45 -20 -95q-7 -27 -13 -47q-3 6 -6 13q-14 32 -29 78q-17 49 -25 88
q-10 44 -7 59q1 4 -1 8q-2 3 -6 4q-1 1 -3 1h-2q-3 -1 -6.5 -3.5t-8.5 -7.5q-10 -10 -21 -24v0v0v-1q-11 -14 -8 -42q-9 -47 -23 -96q-9 -33 -17 -55q-3 -8 -5 -13q-31 49 -41 131q-6 56 2 107h1.5h2.5q29 3 41 11q27 18 40 50q6 16 5 30q-2 17 -14 26q-6 5 -13 6h-1h-2z
M211 390q1 0 3 -2q5 -4 6 -12q1 -9 -4 -21q-10 -26 -32 -40q-7 -5 -30 -8q6 26 15 45q8 18 24 30q7 6 13 8h1h3h1z" />
    <glyph glyph-name="fofathai" unicode="&#xe1d;" horiz-adv-x="420" 
d="M399 610q-4 0 -7 -4t-2 -8q7 -28 8 -108q0 -77 -5 -167q-7 -95 -17 -163q-8 -55 -19 -83q-3 5 -7 11q-13 24 -31 64q-42 93 -49 130q-1 4 -4.5 6.5t-7.5 2.5q-4 -1 -7 -3t-9 -8q-7 -8 -19 -23q-3 -3 -3 -7v-2v0q10 -62 0 -138q-4 -29 -9 -51l-3 -9q-33 50 -49 130
q-11 57 -6 107h1q29 3 41 11q27 18 40 50q6 16 5 30q-2 17 -14 26q-6 5 -14 6h-2h-2h-3h-1q-23 -3 -56 -23q-35 -23 -56 -51q-13 -17 -23 -38q-12 -3 -22 -6q-28 -11 -37 -32q-1 -4 0.5 -7.5t5.5 -5.5t8 0t5 6q5 13 25 20q2 1 6 2q-20 -54 -15 -110q3 -42 27 -88t50 -77
q4 -4 9 -3q3 -1 9 -1q10 1 27 6q16 4 29 10q15 6 20 10l1 1q1 0 1 1q3 3 6 11q3 7 6 19q6 23 10 54t5 64q10 -28 20 -50q17 -38 32 -61q8 -14 15 -21q9 -10 18 -10q18 0 25 7q13 12 22 37.5t11.5 39t7.5 43.5q10 68 16 165q6 91 6 168q-1 82 -8 112q-2 9 -11 8zM210 390
q2 0 4 -2q5 -4 6 -12q1 -9 -4 -21q-10 -26 -32 -40q-7 -5 -28 -8q4 26 13 45q7 18 23 30q8 6 14 8h4z" />
    <glyph glyph-name="phophanthai" unicode="&#xe1e;" horiz-adv-x="420" 
d="M79 400q-9 -2 -17 -8q-10 -8 -20 -21q-15 -20 -25 -67l-7 -43q-1 -4 2 -7.5t7 -4t7.5 2.5t3.5 7q2 19 7 41q9 43 21 59l1 1t1 2q-8 -35 -5 -63q1 -18 8 -30q8 -15 24 -19h1h1q10 -2 19 4q15 6 26 20q5 7 8 15q5 -105 -51 -245q-3 -8 2 -15q3 -4 9 -7q7 -4 22 -9
q7 -2 17 -4.5t16.5 -4.5t8.5 -3q5 -2 10 0q2 1 5 4t6 9q5 9 13 28q6 17 31 86q22 60 34 86q8 19 14 27q0 1 0.5 1.5l0.5 0.5v0q4 -10 6 -28q4 -24 10 -88t10 -89q3 -20 6 -30q3 -7 6 -11q5 -7 12 -7q19 0 33 5q18 6 25 19v1q1 1 1 2q4 7 11 34q6 22 14 54l16 73
q1 4 -1.5 7.5t-6.5 4.5t-7.5 -1.5t-4.5 -6.5q-7 -35 -16 -72q-8 -34 -13 -54l-2 -6q-2 8 -4 17q-3 14 -11.5 49.5t-12.5 54.5q-16 69 -28 101q-7 22 -14 31q-5 7 -11 9q-9 3 -16 -6q-20 -25 -48 -94q10 96 -26 153q-17 28 -50 43q-18 9 -32 9q-11 -1 -25.5 -6t-21.5 -11z
M88 380q14 -4 23 -22q10 -18 9 -38q-1 -19 -10 -36q-5 -8 -10 -12h-1q-4 -2 -8 -2q-7 2 -11 9q-4 8 -5 22q-3 25 5 57q3 13 8 22z" />
    <glyph glyph-name="fofanthai" unicode="&#xe1f;" horiz-adv-x="440" 
d="M440 610q-9 0 -10 -9q-12 -140 -26 -283q-12 -126 -20 -198q-4 -36 -7 -59l-1 2t-1 4q-3 14 -11.5 49.5t-12.5 54.5q-16 69 -28 101q-7 22 -14 31q-5 7 -11 9q-9 3 -16 -6q-20 -25 -48 -94q10 96 -26 153q-17 28 -50 43q-18 9 -32 9q-30 -1 -47 -17q-9 -2 -17 -8
q-10 -8 -20 -21q-15 -20 -25 -67l-7 -43q-1 -4 2 -7.5t7 -4t7.5 2.5t3.5 7q2 19 7 41q9 43 21 59l1 1t1 2q-8 -35 -5 -63q1 -18 8 -30q8 -15 24 -19h1h1q10 -2 19 4q15 6 26 20q5 7 8 15q5 -105 -51 -245q-3 -8 2 -15q3 -4 9 -7q7 -4 22 -9q7 -2 17 -4.5t16.5 -4.5t8.5 -3
q5 -2 10 0q2 1 5 4t6 9q5 9 13 28q6 17 31 86q22 60 34 86q8 19 14 27q0 1 0.5 1.5l0.5 0.5v0q4 -10 6 -28q4 -24 10 -88t10 -89q3 -20 6 -30q3 -7 6 -11q5 -7 12 -7q19 0 33 5q18 6 25 19v1l2 2q1 2 2 11q2 9 3 21q4 24 9 69q8 75 20 199l26 282q0 5 -3 8t-7 3zM88 380
q14 -4 23 -22q10 -18 9 -38q-1 -19 -10 -36q-5 -8 -10 -12h-1q-4 -2 -8 -2q-7 2 -11 9q-4 8 -5 22q-3 25 5 57q3 13 8 22z" />
    <glyph glyph-name="phosamphaothai" unicode="&#xe20;" 
d="M271 445h-8q-29 -3 -69 -19q-21 -9 -61.5 -30.5t-55.5 -25.5v-1h-1h-0.5t-0.5 -1h-1h-1v-1h-0.5t-0.5 -1l-0.5 -0.5t-0.5 -1.5v-1q-1 0 -1 -1v-1v-1.5v-1v-0.5v-0.5v-0.5q1 0 1 -1v0q0 -1 0.5 -1t0.5 -1t1 -1l0.5 -0.5l0.5 -0.5q54 -41 75 -110t11 -141q-5 -35 -21 -62
q-8 -15 -18 -22q-9 -7 -19 -7l-4 2q15 5 27 19q17 20 24.5 46t3.5 52q-3 16 -9 25q-8 12 -21 16h-0.5h-1.5q-15 3 -29 -7q-12 -7 -22 -23q-14 -23 -19 -51q-1 14 -1 31q0 4 -3 7t-7 3t-7 -3t-3 -7q0 -40 7 -65q8 -28 27 -39q13 -24 34 -26h1h1q18 -1 33 11q13 10 24 28
q17 30 23 70q10 71 -9.5 141.5t-70.5 115.5q13 5 24.5 11t24.5 13t17 10q17 8 26 9q12 1 22 -7q29 -22 37 -59q8 -33 1 -82q-5 -32 -21 -96.5t-21 -92.5q-9 -55 4 -106q8 -29 22 -45q18 -21 44 -21q32 0 60 28q21 21 39 58q20 41 31 82q1 4 -1 7.5t-6.5 4.5t-7.5 -1t-5 -7
q-1 -2 -5.5 -17.5t-6 -19t-6 -15.5t-7.5 -18t-8.5 -15t-10.5 -16q-14 -19 -28 -21q-13 -3 -9 30q3 21 21 87q3 11 12 43t14 51t11.5 48t9.5 53q15 125 -51 176q-22 18 -55 17zM119 150q5 -1 8 -7q4 -6 6 -17q3 -21 -3 -43t-20 -39q-13 -15 -26 -14l-2 6q-5 18 -2 43
q3 27 14 48q11 22 25 23z" />
    <glyph glyph-name="momathai" unicode="&#xe21;" 
d="M146 393h-7l-16 -2q-4 0 -7 -2q-14 -3 -26 -18q-11 0 -21 -5q-14 -6 -26 -19q-14 -15 -25 -52l-8 -33q-1 -4 1.5 -7.5t6.5 -4.5t7.5 1.5t4.5 6.5q2 15 7 32q9 32 20 43q8 8 18 13q-3 -7 -5 -14q-8 -34 -5 -63q1 -18 8 -30q9 -16 25 -19q4 -1 11 0q21 3 36 25t15 45
q0 29 -18 57q-9 15 -21 21l-1 1q2 1 4 1q6 1 13 -3q9 -5 15 -13q23 -29 32 -102q6 -43 7 -96q-21 14 -51 14q-29 0 -57 -30q-21 -24 -32 -57q-19 -53 -17 -102q2 -63 40 -89q1 -1 2 -1q23 -15 44 -13q15 1 35 13q65 39 105 123q2 -1 3 -3q13 -9 19.5 -13t19 -8t20.5 0
q29 10 44 33q14 20 24 55q6 23 12.5 59t7.5 41q1 4 -1 7.5t-6.5 4.5t-8 -1t-4.5 -7q-2 -7 -7.5 -42.5t-11.5 -56.5q-10 -34 -21 -49q-7 -10 -19.5 -17.5t-23.5 -4.5q-8 1 -13.5 7t-12 18t-7.5 13q19 52 26 109q6 54 -6.5 106.5t-46.5 87.5q-38 40 -101 40zM99 350
q13 -6 22 -23q10 -18 9 -37t-10 -36q-4 -8 -10 -12q-3 -3 -8 -2q-7 1 -11.5 9t-6.5 22q-2 25 6 57q4 13 9 22zM184 127q1 -2 6 -8q-2 -41 -3 -55.5t-5 -47t-14 -53t-25 -36.5q-13 -13 -30 -19q-18 -6 -27 0q-30 20 -32 74q-2 45 15 95q11 29 29 49q20 22 43 22t43 -21z" />
    <glyph glyph-name="yoyakthai" unicode="&#xe22;" horiz-adv-x="360" 
d="M206 410q-24 -2 -58 -24t-56 -50q-15 -18 -25 -38q-11 -3 -20 -6q-28 -11 -37 -32q-1 -4 0.5 -7.5t5.5 -5.5t8 0t5 6q5 13 25 20q1 0 3 1q-10 -29 -7 -55q3 -29 29 -54q5 -5 47 -38q29 -22 41 -41q16 -28 13 -65q-1 -12 5 -19t16 -9q12 -3 39 -1q59 6 73 0q5 -4 10 -2
q6 2 7 8q4 9 9 28q5 18 11 47q11 53 20 105q1 5 -2.5 8.5t-7.5 3.5q-9 0 -10 -8q-9 -53 -20 -105q-6 -28 -11 -46q-1 -6 -2 -10q-9 2 -16 5q-11 7 -11 14q6 98 -37 141q-12 12 -41.5 32t-44.5 34q-16 16 -16 40h1h2q29 3 41 11q27 18 40 50q6 16 5 30q-2 17 -14 26
q-6 4 -13 6h-7zM214 388q5 -4 6 -12q1 -9 -4 -21q-10 -26 -32 -40q-7 -5 -31 -8q4 20 16 45q8 18 24 30q7 6 13 8q5 1 8 -2z" />
    <glyph glyph-name="roruathai" unicode="&#xe23;" horiz-adv-x="360" 
d="M189 479q-5 0 -15 -3q-13 -4 -22 -9q-33 -18 -73 -55q-20 -20 -33 -37q-15 -20 -16 -34q-2 -23 24 -50q15 -15 56 -47q26 -21 42 -35t34 -34.5t25 -38.5q29 -76 6 -153l-1 1q-14 5 -23 8q2 19 -4 32q-7 16 -29 20q-20 3 -35 -5q-30 -16 -47 -52q-17 -37 -8 -69v-1
q1 -2 2 -5q7 -18 26 -30q18 -12 42 -12q54 0 110 46q15 13 29 28q20 -1 36 7q23 13 42 62q13 36 13 45q1 4 -1.5 7.5t-6.5 4.5t-7.5 -1.5t-4.5 -6.5q-4 -20 -12 -42q-16 -42 -33 -51q-3 -2 -7 -3q19 24 31 50q16 34 16 73.5t-16 74.5q-10 23 -30.5 44.5t-37 33.5t-46.5 30
l-45 30t-34 28t-27 34q-9 19 11 48q18 25 42 38q12 6 18 7q6 0 -7 -10q-3 -3 -3 -7t3 -7t7 -3t7 3q16 16 19 25q3 8 -1 14q-3 5 -11 7h-5zM151 24h6q11 -2 14 -8q3 -7 2 -18q-6 2 -10 2q-30 5 -50 -13q-15 -13 -16 -40q0 -12 4 -21q5 -12 16 -16q18 -5 36 8q15 10 26 30
q6 12 10 24q12 -4 19 -7l1 -0.5t2 -0.5q-12 -29 -30 -49q-35 -38 -72 -15q-12 8 -17 18h-1q0 2 -1 3v2q-8 25 6.5 55.5t38.5 42.5q6 3 16 3zM151 -19h9q4 -1 10 -2q-3 -12 -9 -21q-9 -16 -19 -24q-11 -7 -19 -4q-3 0 -4 4q-2 5 -2 13q1 18 10 26q10 8 24 8z" />
    <glyph glyph-name="ruthai" unicode="&#xe24;" 
d="M80 410q-8 0 -10 -7.5t5 -11.5q24 -18 29 -51q4 -29 -6 -75q-5 -23 -25 -91q-10 -1 -17 -5q-17 -8 -33 -38l-12 -27q-2 -4 0 -8t5.5 -5.5t7.5 0.5t5 5q5 12 12 25q13 25 23 30q1 0 1.5 0.5l0.5 0.5q-11 -41 -16 -70q-4 -27 -2 -51q2 -16 8 -26q8 -14 23 -15h1v0
q22 0 38 19q12 16 18 42q13 55 -7 94q-10 17 -32 25q-1 0 -2.5 0.5l-1.5 0.5q19 65 24 89q11 50 6 83q-3 25 -16 44q5 -1 6 -1q37 -4 59 -11q40 -12 60 -41q63 -90 44 -273q-6 -61 -26 -159.5t-20 -99.5q-9 -58 7 -106q10 -30 29 -46q22 -20 54 -20q26 0 46 29q15 22 26 58
q14 46 18 82q0 3 -1 5q-2 4 -6 6q-4 1 -8 -1t-5 -8q-6 -37 -15 -68q-8 -30 -17 -46q-6 -9 -11 -13q-4 -4 -7 -4q-9 0 -14 4q-6 5 -9 17q-7 33 13 106q40 148 51 252q20 203 -53 297q-34 44 -127 55q-13 1 -90 6q-11 1 -30 3h-1zM87 149q4 -3 9 -8q6 -10 9 -23q8 -36 1 -71
q-3 -18 -10 -28q-7 -9 -15 -9h-1q-4 0 -7 5q-3 6 -5 19q-2 21 2 44q4 27 17 71z" />
    <glyph glyph-name="lolingthai" unicode="&#xe25;" horiz-adv-x="360" 
d="M212 429q-50 -3 -79 -13.5t-61 -31.5q-46 -33 -62 -81q-1 -4 1 -7.5t6 -5t7.5 0.5t5.5 6q13 42 54 71q40 28 74 22q38 -6 53 -20q10 -8 20 -34q9 -24 7 -53q-26 9 -59 3q-49 -9 -85 -38q-26 -21 -36.5 -56.5t-7.5 -72.5q2 -33 10 -54q6 -15 14 -24q11 -12 26 -11
q20 1 36 17q14 14 22 35q18 48 1 82q-9 17 -23.5 25t-30.5 5q-10 -3 -19 -9q8 20 19 34q25 30 76 42q31 7 54 1q-2 -10 -5 -19q-5 -18 -19.5 -55t-20.5 -55q-28 -84 -6 -138q11 -25 32 -37.5t46 -7.5q64 15 75 110q8 61 -13 119q16 46 21 79q10 68 -17 108q-32 46 -80 59
q-21 5 -36 4zM141 156q9 -18 3 -48q-7 -31 -22 -46q-11 -11 -21 -4q-28 21 -26 75q1 11 13 24.5t22 16.5t18.5 -3.5t12.5 -14.5zM309 137q5 -23 6 -46q2 -50 -12 -82q-11 -25 -24 -28q-18 -4 -17 15q0 12 7 35q2 6 40 105v1z" />
    <glyph glyph-name="luthai" unicode="&#xe26;" 
d="M80 410q-8 0 -10 -7.5t5 -11.5q53 -40 75.5 -125t9.5 -164q-6 -37 -21 -63q-8 -15 -18 -22q-9 -7 -19 -7l-4 2q15 5 27 19q17 20 24.5 46t3.5 52q-3 16 -9 25q-8 12 -21 16h-1h-1q-15 3 -29 -7q-12 -7 -22 -23q-14 -23 -19 -51q-1 14 -1 31q0 4 -3 7t-7 3t-7 -3t-3 -7
q0 -40 7 -65q8 -28 27 -39q13 -24 34 -26h1h1q18 -1 33 11q13 10 23 28q17 30 24 69q12 77 -5.5 158t-64.5 131l1 -0.5l1 -0.5q38 -4 60 -11q40 -12 60 -41q63 -90 44 -273q-6 -61 -26 -159.5t-20 -99.5q-9 -58 7 -106q10 -30 29 -46q22 -20 54 -20q26 0 46 29q15 22 26 58
q12 40 18 82q0 4 -3 8q-2 2 -6 3q-3 0 -6 -1q-4 -2 -5 -8q-6 -37 -15 -68q-8 -30 -17 -46q-6 -9 -11 -13q-4 -4 -7 -4q-12 0 -18 6q-7 6 -9 20q-5 33 17 101q43 138 54 260q18 194 -56 289q-34 44 -127 55q-13 1 -90 6q-11 1 -30 3h-1zM119 150q5 -1 8 -7q4 -6 6 -17
q3 -21 -3 -43t-20 -39q-13 -15 -26 -14l-2 6q-5 18 -2 43q3 27 14 48q11 22 25 23z" />
    <glyph glyph-name="wowaenthai" unicode="&#xe27;" 
d="M195 416q-43 0 -79 -17q-26 -12 -47.5 -33.5t-33.5 -44.5t-17 -35.5t-7 -21.5v-1h-1v-1q-1 -4 1 -7.5t6 -4.5t7.5 1t4.5 5l1 1q9 29 26 58q7 12 14 21q8 10 17 19q17 15 33 15q30 0 62 -22.5t49 -52.5q32 -54 38.5 -124t-13.5 -130q-10 7 -18 11q-27 14 -51 8
q-24 -7 -41 -31q-16 -22 -16 -49t30 -54q30 -26 60 -26q38 0 73 36q16 15 28 36q23 -9 43 -1q12 4 22 21q8 11 14 29l10 37q1 4 -1.5 8t-6.5 4.5t-7.5 -2t-4.5 -6.5q-3 -17 -9 -35q-5 -15 -11 -25q-7 -10 -14 -13q-11 -4 -25 0q5 9 8 17q38 90 40 180q2 107 -51 170
q-24 29 -59 45t-74 15zM229 34q9 -4 21 -13q-12 -29 -28 -48q-21 -23 -42 -23q-10 0 -19 10q-10 10 -11 21q-1 16 12 36q13 18 31 23q15 5 36 -6z" />
    <glyph glyph-name="sosalathai" unicode="&#xe28;" 
d="M400 490q-6 0 -9 -5q-21 -38 -47 -94q-18 26 -41 37q-17 8 -37 8q-22 1 -49 -6q-25 -8 -52 -29q-27 -19 -53 -55q-24 -33 -43 -81q-21 -6 -35 -17q-3 -3 -3.5 -7t2 -7t6.5 -3.5t7 1.5q5 4 14 8q-36 -104 -30 -181q2 -22 16 -44q8 -13 18 -20q12 -7 27 -5q42 5 59 43
q10 25 16 84q7 80 16 113q10 1 26 9q18 9 33 21q18 14 26 29q11 19 2 36q-5 9 -17 11q-8 1 -18 -2q-16 -5 -30 -16q-26 -23 -43 -64q-8 2 -17 6q-28 11 -44 10h-7q16 38 35 64l0.5 0.5l0.5 0.5q11 16 28 32q31 32 63 33q25 0 52 -36q21 -28 30 -70q-58 -150 -52 -235
q2 -28 22 -45v-1q1 -1 2 -1q9 -7 18 -5q12 -1 23 5q16 8 32 27q28 34 42 78q21 60 13 127t-45 128q13 27 25.5 52.5t19.5 38.5l7 12q3 5 0 10t-9 5zM251 315q5 -4 -2 -17q-6 -11 -21 -23q-13 -11 -29 -18q-5 -3 -10 -5q15 39 28 51q24 20 34 12zM309 253q1 -9 1 -14
q5 -76 -4 -147q-4 -41 -12 -57q-9 -19 -20 11q-4 9 -4 15q-5 69 39 192zM137 241q12 -4 17 -6q-10 -32 -21 -99q-12 -67 -18 -88q-6 -18 -13 -27q-13 -18 -27 -9q-6 4 -12 14q-12 18 -13 35q-3 32 6.5 84.5t28.5 102.5q20 5 52 -7z" />
    <glyph glyph-name="sorusithai" unicode="&#xe29;" 
d="M79 400q-9 -2 -17 -8q-10 -8 -20 -21q-15 -20 -25 -67l-7 -43q-1 -4 2 -7.5t7 -4t7.5 2.5t3.5 7q2 19 7 41q9 43 21 59l1 1t1 2q-8 -35 -5 -63q1 -18 8 -30q8 -15 24 -19h1h1q10 -2 19 4q15 6 26 20q5 7 8 15q5 -105 -51 -245q-6 -14 2 -26q6 -10 21 -16q24 -12 67 -15
q93 -6 141 22l1 1q2 1 3 2q24 16 37 57q11 37 7 72q-1 8 -3 18q7 5 10 7q22 19 31 37q2 5 2 8q0 5 -4 7q-4 3 -9 2q-3 -1 -7 -8q-12 -21 -28 -31q-5 16 -10 27q-19 41 -51 42q-20 1 -34 -22q-11 -18 -12 -38q0 -15 8 -29q10 -17 24 -21q28 -7 62 9q1 -8 1 -10q3 -31 -7 -64
q-10 -34 -29 -47h-1q-10 -6 -31.5 -10t-38.5 -2q-21 3 -30 12q-9 10 -3 29q1 6 12 41t17.5 60.5t10.5 50.5q16 100 -22 157q-20 30 -58 44q-23 8 -38 7q-38 -3 -53 -17zM88 380q14 -4 23 -22q10 -18 9 -38q-1 -19 -10 -36q-5 -8 -10 -12h-1q-4 -2 -8 -2q-7 2 -11 9
q-4 8 -5 22q-3 25 5 57q3 13 8 22zM300 230q20 -1 34 -30q6 -12 10 -29q-17 -7 -34 -6q-8 0 -15.5 5.5t-9.5 12.5q-5 15 0 32q3 7 7 11q3 4 8 4z" />
    <glyph glyph-name="sosuathai" unicode="&#xe2a;" 
d="M400 490q-4 0 -7 -3q-36 -40 -85 -83q-40 25 -98 26q-78 0 -130 -53q-39 -39 -30 -79q5 -20 32 -27q18 -4 40 -1q48 7 114 53q18 -47 15 -111q-23 18 -56.5 19t-58.5 -12q-30 -15 -51 -46q-17 2 -29 -4q-17 -8 -33 -38l-12 -27q-2 -4 0 -8t5.5 -5.5t7.5 0.5t5 5
q5 12 12 25q13 25 23 30q4 2 9 2q-17 -33 -23 -71q-5 -31 -2 -53q2 -16 8 -26q8 -12 23 -13q32 -4 53 14q18 16 23 44q8 49 -10 84q-14 28 -39 36q17 23 38 33q22 11 52 9t47 -17v0v-1q1 -1 3.5 -3l2.5 -2q-6 -58 -29 -134q-23 -80 8 -121q13 -18 34.5 -23.5t40.5 2.5
q37 12 47 55q7 35 -6 84q-4 19 -12 38q7 23 10 30q25 82 29 133q7 75 -23 115q-11 14 -24 26q21 19 42 39.5t31 31.5l10 10q5 5 2.5 11t-9.5 6zM150 391q15 -1 33 -6.5t27 -14.5q8 -7 18 -28q-66 -46 -110 -52q-17 -3 -31.5 0.5t-16.5 11.5q-7 30 24 61q27 29 56 28zM94 150
q13 -6 17 -15q7 -13 9 -35.5t-3 -43.5q-5 -22 -15 -34q-9 -12 -22 -12q-4 0 -7 4q-4 6 -5 17q-2 20 2 47q6 39 24 72zM321 55q4 -13 6 -23q8 -44 0 -63q-5 -13 -15.5 -12.5t-11 12.5t5.5 36q5 17 15 50z" />
    <glyph glyph-name="hohipthai" unicode="&#xe2b;" horiz-adv-x="420" 
d="M119 413q-11 0 -21 -3q-10 -2 -19 -10q-9 -2 -17 -8q-10 -8 -20 -21q-15 -20 -25 -67l-7 -43q-1 -4 2 -7.5t7 -4t7.5 2.5t3.5 7q2 19 7 41q9 43 21 59l1 1t1 2q-8 -35 -5 -63q1 -18 8 -30q8 -15 23 -18q1 -1 2 -1h2q10 -1 18 4q15 6 26 20q1 1 2 3l1 2q-2 -18 -6 -39
t-8 -35.5t-13 -40t-12.5 -34t-14.5 -36.5t-12 -30q-2 -5 1 -9.5t8 -4.5l1.5 -0.5t5 -2t6.5 -2.5q1 0 24 -13q16 -8 25 -11q7 -2 12 -3q8 0 13 5q2 1 2 3q42 104 54 161q5 25 8 47q13 10 28 17q4 2 11 6q27 -43 31 -51q11 -29 -1 -68q-3 -11 -8 -23t-11.5 -27.5t-9.5 -23.5
q-20 -48 -18 -98q1 -28 10 -47q12 -23 35 -29q32 -8 61 19q31 29 49 77q14 35 22 72v0v4q-1 7 -8 8.5t-11 -5.5q0 -1 -1 -5q-11 -44 -29 -83q-13 -27 -20 -35q-21 -23 -27 -3q-3 12 -2 34q2 48 17 83q27 63 32 104q7 56 -24 87q-29 30 -38 42q20 16 38 34q27 27 16 57
q-9 25 -40 29q-1 1 -3 1h-1h-4q-25 0 -49 -31q-22 -29 -26 -58q-3 -22 10 -47q-6 -4 -9 -5q-10 -4 -19 -10q2 63 -23 106q-16 26 -51 40q-21 8 -39 8zM400 400v-20v20zM330 390q19 -2 24 -17q7 -18 -11 -36q-16 -16 -35 -31q-10 23 -4 50t26 34zM88 380q14 -4 23 -22
q10 -18 9 -38q-1 -19 -10 -36q-5 -8 -10 -12q-1 0 -1 -1q-4 -1 -8 -1q-7 2 -11 9q-4 8 -5 22q-3 25 5 57q3 13 8 22z" />
    <glyph glyph-name="lochulathai" unicode="&#xe2c;" horiz-adv-x="440" 
d="M439 490h-2t-1 -1l-4 -2q-1 -1 -1 -3q-1 -1 -1 -2q0 -2 -1 -5v-1q0 -3 -1 -6q-1 -5 -2 -9q-9 -45 -23 -78l-10 -18v-1l-1 -2q-18 38 -48 47h-1q0 1 -0.5 1h-0.5q-18 5 -38 -7q-21 -13 -24 -31q-4 -24 16 -49t45 -23q24 2 44 21q3 -11 8 -32.5t7 -31.5q12 -45 15 -118
q1 -31 0 -52q-3 7 -7 15q-5 12 -17.5 43t-20.5 48q-25 60 -41 87q-11 19 -20 26q-6 6 -12 7q-9 1 -15 -7q-20 -25 -48 -94q10 96 -25 153q-18 28 -51 43q-17 8 -32 9q-17 0 -29 -7q-10 -2 -18 -10q-9 -2 -17 -8q-10 -8 -20 -21q-15 -20 -25 -67l-7 -43q-1 -4 2 -7.5t7 -4
t7.5 2.5t3.5 7q2 19 7 41q9 43 21 59l1 1t1 2q-8 -35 -5 -63q1 -18 8 -30q8 -15 24 -19h1h1q10 -2 19 4q15 6 26 20q5 7 8 15q5 -105 -51 -245q-3 -8 2 -15q3 -4 9 -7q7 -4 22 -9q7 -2 17 -4.5t16.5 -4.5t8.5 -3q5 -2 10 0q2 1 5 4t6 9q5 9 13 28q6 17 31 86q22 60 34 86
q8 19 14 27q0 1 2 4q2 -2 2 -3q4 -7 10 -23q8 -20 23 -74q16 -54 24 -75q6 -17 11 -26q4 -6 7 -9q6 -5 12 -5q19 0 33 5q18 6 25 19q3 4 5 13q1 7 2 19q1 22 0 54q-3 75 -15 123q-2 5 -8 33t-11 43q4 7 9 15v0q1 1 1 2h1q4 9 9 18q16 37 26 89q0 1 0.5 1.5l0.5 0.5q0 4 1 8
v1q1 3 1 4v1v4l-1 1q0 1 -1 2l-1 1q0 1 -1 1l-0.5 0.5t-1 0.5t-1.5 1h-2h-2zM331 391q3 0 7 -1q25 -7 40 -46l-3 -3q-15 -14 -33 -11q-13 2 -23.5 14.5t-8.5 24.5q1 10 8 17q4 3 8 4q2 1 4 1h1zM88 380q14 -4 23 -22q10 -18 9 -38q-1 -19 -10 -36q-5 -8 -10 -12h-1
q-4 -2 -8 -2q-7 2 -11 9q-4 8 -5 22q-3 25 5 57q3 13 8 22z" />
    <glyph glyph-name="oangthai" unicode="&#xe2d;" 
d="M198 417q-45 -1 -82 -18q-70 -32 -102 -124l-4 -12q-1 -5 1 -8.5t6 -4.5t8 1t5 6q6 27 24 55q16 26 36 41q22 17 40 17q44 0 75 -22q23 -17 47 -53q21 -33 26.5 -74.5t-7.5 -76.5q-12 -30 -37 -51q-27 -23 -54 -23q-28 0 -55 22q-28 28 -36 52q-7 23 1.5 51.5t26.5 47.5
q12 12 29 18q1 0 2 0.5t2 0.5q-17 -21 -20 -41q-3 -21 7 -42q11 -25 31 -29q19 -3 35 15q13 15 17 33q4 23 -5 46q-8 19 -22 30q7 5 11 7t5.5 6t-0.5 7.5t-6 5t-7 -0.5q-12 -6 -25 -16q-14 2 -31 -3q-22 -7 -37 -23q-22 -22 -32 -55t-3 -64q7 -33 36 -67q36 -44 74 -51
q56 -10 116 23q59 31 85 82q27 53 18 121t-50 111q-27 29 -67 45t-82 15zM176 261q13 -7 20 -24q7 -19 4 -35q-2 -13 -12 -23q-9 -10 -16 -9q-10 2 -17 17q-7 16 -5 32q2 17 21 37q1 0 5 5z" />
    <glyph glyph-name="honokhukthai" unicode="&#xe2e;" 
d="M400 490q-5 0 -8 -4q-35 -47 -84 -97q-42 25 -94 28t-98 -18q-3 -1 -11 -5.5t-11.5 -6.5l-10.5 -6t-11.5 -7t-10 -7t-9.5 -8l-8 -8q-17 -20 -14 -42q0 -18 15 -30q12 -10 33 -16q36 -9 74 -3q41 8 92 46q4 -6 7 -11q25 -46 24.5 -104t-24.5 -107q-15 -31 -39 -52
q-26 -23 -51 -22q-23 1 -44 24q-23 29 -28 50q-6 30 6 63q14 3 25 3q29 0 43 3q23 5 35 21q8 11 9 27q1 19 -11 27q-21 15 -52 0q-23 -11 -41 -31q-13 -14 -22 -34q-7 -2 -13 -5q-29 -13 -37 -34q-2 -4 -0.5 -8t5.5 -5.5t8 0t5 5.5q5 12 22 21q-6 -23 -1 -58t32 -69
q36 -46 77 -50q51 -5 102.5 26t77.5 79q37 67 36 149q-1 89 -47 143q-10 11 -23 21q21 22 42 46t31 37l10 13q4 5 1 10.5t-9 5.5zM128 370q26 1 54 -12.5t49 -36.5q-48 -35 -83 -41q-33 -6 -65 2q-16 5 -25 12q-8 7 -8 16q2 24 21 39q24 18 50 21h7zM184 212q4 -2 3 -10
q0 -10 -5 -16q-8 -10 -23 -14q-12 -2 -39 -2q-6 0 -13 -1q5 9 10 14q16 18 36 27q21 9 31 2z" />
    <glyph glyph-name="paiyannoithai" unicode="&#xe2f;" 
d="M339 415h-7q-14 -3 -31 -11t-30 -19q-15 -11 -20 -20v-1q-3 -5 -11.5 -22.5t-16 -29.5t-16.5 -22q-14 -17 -37.5 -25t-46.5 -5q-11 1 -16 11q5 3 8 6q13 8 20.5 13.5t16 16t11.5 22.5q5 19 1 32q-7 23 -21 28q-9 4 -20 4q-17 0 -35 -9q-31 -15 -38 -41q-8 -31 15 -64
q3 -4 7 -9q-14 -12 -21 -26q-2 -3 -0.5 -7t5 -6t7.5 -0.5t6 5.5q5 10 17 20q15 -13 32 -16v0q64 -10 104 36q17 19 36 58q10 -45 2 -122q-6 -51 -30 -170q-15 -74 -14 -101q1 -31 15 -49q16 -22 49 -22q39 0 68 31q23 24 39 65q18 46 23 92v1v0.5v1.5q0 9 -9 9.5t-11 -8.5
v-1q-5 -34 -16 -68q-9 -29 -20 -45q-12 -18 -24 -18q-8 0 -12 9q-5 12 -4 34q1 41 15 84q35 104 41 223q2 35 -1 68q-2 41 -10 56q-4 8 -13 10q-3 1 -7 1zM133 371q8 0 11 -14q3 -11 0 -23q-5 -18 -40 -41q-7 -4 -11 -7q-16 22 -6 48q6 16 19 26.5t27 10.5z" />
    <glyph glyph-name="saraathai" unicode="&#xe30;" horiz-adv-x="320" 
d="M143 372q-17 0 -35 -9q-29 -15 -38 -40q-7 -24 6 -52q-8 2 -16 7l-14 10q-3 2 -7 2t-6.5 -3.5t-2.5 -7.5t4 -7q6 -5 15 -11q19 -11 31 -11h3t3 0.5l2 0.5q13 -15 29 -20q32 -9 77 6q19 6 45 24q52 37 89 93q3 4 2 8t-4.5 6.5t-7.5 1.5t-6 -4q-36 -54 -85 -88
q-1 -1 -9.5 -6.5t-11 -7t-9.5 -4.5t-11 -3.5t-10 0t-12 2.5q-8 4 -15 11q32 18 40 46q1 2 1 5h1q2 14 -5 28q-8 18 -23 21q-11 3 -20 2zM157.5 350q5.5 -1 10.5 -11q3 -6 3 -13q-1 -11 -12.5 -22.5t-21.5 -17.5q-9 17 -7 33q2 12 11 22q11 10 16.5 9zM143 212q-17 0 -35 -9
q-29 -15 -38 -40q-7 -24 6 -52q-8 2 -16 7l-14 10q-3 2 -7 2t-6.5 -3.5t-2.5 -7.5t4 -7q6 -5 15 -11q19 -11 31 -11h3t3 0.5l2 0.5q13 -15 29 -20q32 -9 77 6q19 6 45 24q52 37 89 93q3 4 2 8t-4.5 6.5t-7.5 1.5t-6 -4q-36 -54 -85 -88q-2 -2 -11.5 -8.5t-13 -8t-11 -4.5
t-14 -2t-13.5 4q-8 4 -15 11q32 18 40 46q1 2 1 5h1q2 14 -5 28q-8 18 -23 21q-11 3 -20 2zM157.5 190q5.5 -1 10.5 -11q3 -6 3 -13q-1 -11 -12.5 -22.5t-21.5 -17.5q-9 17 -7 33q2 12 11 22q11 10 16.5 9z" />
    <glyph glyph-name="maihanakatthai" unicode="&#xe31;" horiz-adv-x="0" 
d="M-137 612q-17 0 -35 -9q-29 -15 -38 -40q-7 -24 6 -52q-8 2 -16 7l-14 10q-3 2 -7 2t-6.5 -3.5t-2.5 -7.5t4 -7q6 -5 15 -11q19 -11 31 -11q1 0 9 1q12 -15 28 -20q52 -17 119 14q18 7 37 18q38 23 72 62q13 14 23 29q1 1 1 2v0q3 6 -1 10.5t-10 3.5q-4 -1 -6 -4
q-9 -13 -19 -25h-1q-34 -39 -80 -65q-12 -7 -24 -13q-35 -12 -65 -3q-9 2 -16 9q33 18 42 47q5 15 -3 32.5t-23 21.5q-13 3 -20 2zM-123 590q7 1 11 -10t2 -18q-6 -22 -34 -37q-8 17 -6 34q2 12 11 22q8 9 16 9z" />
    <glyph glyph-name="saraaathai" unicode="&#xe32;" horiz-adv-x="360" 
d="M116 439q-21 -9 -39.5 -26.5t-29.5 -33.5t-20.5 -36.5t-12 -27t-4.5 -12.5v-6q2 -5 6.5 -6.5t8.5 0.5q3 2 5 8q6 16 13 30q20 42 45 67q16 14 32 14q27 0 45 -23q13 -16 26 -51q9 -25 12.5 -52.5t0 -62t-7 -56t-13.5 -65t-13 -58.5q-9 -47 -2 -77q5 -25 21 -39
q19 -16 51 -16q39 0 68 31q23 24 39 65q8 21 13.5 43.5t7.5 34.5t2 14q0 4 -3 8t-6 4q-10 0 -11 -9q-4 -31 -16 -68q-9 -29 -20 -45q-13 -19 -24 -18q-14 1 -8 40q2 16 9.5 44t8.5 34q24 121 26 160q5 95 -38.5 148.5t-109.5 54.5q-32 1 -62 -12z" />
    <glyph glyph-name="saraamthai" unicode="&#xe33;" horiz-adv-x="360" 
d="M-100 616q-18 -1 -35 -14q-31 -23 -35 -61q-3 -29 10 -51q16 -26 49 -30q48 2 74 34q34 49 -4 87q-14 14 -29 18q1 6 -4 9q-11 7 -23 8h-3zM-70 577q8 -4 15 -10q14 -14 15 -27v-4q-5 -22 -22 -39h-1q-9 -7 -17 -7q-10 0 -19 10q-10 10 -11 21q-2 15 10 33q11 16 20 16
q8 0 10 7zM174 411q-30 0 -58 -12q-21 -9 -39.5 -26.5t-29.5 -34t-20.5 -36t-12 -27t-4.5 -12.5q-1 -3 1 -7q1 -3 4 -5h1q4 -2 8 0t6 8q7 18 13 30q20 42 45 67q16 14 32 14q27 0 45 -23q13 -16 26 -51q9 -25 12.5 -52.5t0 -62t-7 -56t-13.5 -65t-13 -58.5q-9 -47 -2 -77
q5 -25 21 -39q19 -16 51 -16q39 0 68 31q23 24 39 65q20 58 23 94q0 3 -3 6.5t-6 3.5q-10 0 -11 -9q-5 -34 -16 -68q-9 -29 -20 -45q-12 -18 -24 -18q-7 0 -9 8q-3 10 1 32q2 16 9.5 44t8.5 34q24 121 26 160q5 95 -38 148t-110 55h-4z" />
    <glyph glyph-name="saraithai" unicode="&#xe34;" horiz-adv-x="0" 
d="M-230 611q-6 0 -12 -1q-29 -7 -50 -34q-23 -29 -18 -58q4 -20 28 -34q16 -9 39 -14q4 -1 7.5 0.5t5 5t0.5 7.5t-5 5v1h-1v0q-7 4 -6 11q1 8 6 11q10 5 34 -1q6 -2 54 -17q36 -13 59 -14q34 -3 55 13q2 2 3 4.5t1 5.5q0 2 -2 4q-2 3 -6 4h-5q-1 -1 -2 -1q-16 -10 -37 2
q-16 9 -47 39q-35 33 -52 45q-24 15 -45 16h-4z" />
    <glyph glyph-name="saraiithai" unicode="&#xe35;" horiz-adv-x="0" 
d="M-31 630q-5 -1 -8 -5q-2 -3 -1 -8q5 -22 6 -41t-2 -31q-3 -13 -9 -16q-16 -10 -38 0q-16 7 -48 32q-36 29 -52 38q-33 18 -60 11q-28 -8 -49 -35q-23 -28 -18 -57q4 -20 28 -34q16 -9 39 -14q4 -1 7.5 0.5t5 5t0.5 7.5t-5 5v1h-1v0q-7 4 -6 11q1 8 6 11q10 5 33 -4
q7 -3 54 -24q36 -17 59 -21q34 -7 56 10q16 12 21 40q4 21 2 49q-2 23 -9 61q-1 3 -3 5q-3 4 -8 3z" />
    <glyph glyph-name="sarauethai" unicode="&#xe36;" horiz-adv-x="0" 
d="M-228 611q-7 0 -14 -1q-29 -6 -50 -34q-23 -29 -18 -58q4 -20 28 -34q16 -9 39 -14q4 -1 7.5 0.5t5 5t0.5 7.5t-5 5v1h-1v0q-7 4 -6 11q1 8 6 11q10 5 30 -2q11 -3 46 -20q32 -15 51 -20q31 -8 53 2q20 9 34 36q11 21 12 40v4q0 20 -14 38q-16 21 -36 21t-36 -21
q-14 -19 -14 -39q0 -10 4 -21q-13 10 -38 34q-27 26 -44 36q-20 12 -40 12zM-60 590q10 0 20 -13q10 -14 10 -26q0 -14 -10 -28q-10 -13 -20 -13t-20 13q-10 14 -10 27q0 14 10 27t20 13z" />
    <glyph glyph-name="saraueethai" unicode="&#xe37;" horiz-adv-x="0" 
d="M-72 630q-4 -1 -7 -5q-2 -3 -1 -7v-1q5 -20 6 -41q1 -19 -2 -31q-3 -13 -9 -16q-12 -7 -29 2q-12 7 -37 31q-28 27 -41 36q-27 17 -50 12q-29 -7 -50 -34q-23 -29 -18 -58q4 -20 28 -34q16 -9 39 -14q4 -1 7.5 0.5t5 5t0.5 7.5t-5 6v0h-1v0q-7 4 -6 11q1 8 6 11
q10 5 28 -3q10 -4 41 -21q29 -17 46 -21q28 -8 47 6q16 12 21 40q4 20 2 49q-2 33 -9 61q-1 4 -3 6q-4 3 -9 2zM-31 630q-4 0 -7 -4t-2 -8q7 -28 9 -58q2 -27 -1 -45q-4 -20 -14 -27q-3 -2 -4 -6.5t1.5 -7.5t7 -4t7.5 2q16 12 21 40q4 20 2 49q-1 14 -3.5 29.5t-3.5 23.5
l-2 8q-2 9 -11 8z" />
    <glyph glyph-name="sarauthai" unicode="&#xe38;" horiz-adv-x="0" 
d="M-172 -29h-3q-3 -1 -6 -1h-1q-10 -1 -20 -10q-8 -2 -16 -8q-10 -8 -20 -21q-3 -3 -2 -7.5t4 -7t7.5 -1.5t6.5 4l1 1t1 2q-3 -21 1 -40q7 -27 27 -32q19 -4 36 15q6 6 10 14q-1 -11 -6 -25q-4 -12 -17 -42t-20 -48q-2 -5 1 -9.5t8 -4.5t14 3q8 2 18 5q19 6 31 12q2 1 3 2
h1q3 3 3 7q22 56 20 86q-1 22 -21 60q-12 21 -26 33q-16 12 -35 13zM-192 -60q16 -4 24.5 -15.5t7.5 -23.5t-11 -23q-9 -10 -17 -8t-11 16q-4 15 -1 32q2 12 8 22z" />
    <glyph glyph-name="sarauuthai" unicode="&#xe39;" horiz-adv-x="0" 
d="M-172 -29q-5 0 -9 -1h-1q-10 -1 -20 -10q-8 -2 -16 -8q-10 -8 -20 -21q-3 -3 -2 -7.5t4 -7t7.5 -1.5t6.5 4l1 1t1 2q-3 -21 1 -40q7 -27 27 -32q19 -4 36 15q2 2 5 6q0 -1 -0.5 -2.5t-1.5 -2.5q-2 -6 -14.5 -32.5t-21.5 -49.5q-1 -2 -1 -4q0 -13 15 -23q11 -7 27 -11
q18 -3 32 0q18 5 25 20q8 16 14.5 45.5t6.5 48.5q0 4 -3 7t-7 3t-7 -3t-3 -7q0 -13 -6.5 -43.5t-12.5 -42.5q-3 -6 -12 -8q-7 -2 -17 -1l3 6q34 95 25 151q-3 20 -20 34t-39 15h-3zM-192 -60q16 -4 24.5 -15.5t7.5 -23.5t-11 -23q-9 -10 -17 -8t-11 16q-4 15 -1 32
q2 12 8 22z" />
    <glyph glyph-name="phinthuthai" unicode="&#xe3a;" horiz-adv-x="0" 
d="M-112 -44h-2q-9 0 -19 -6q-2 1 -5 1q-17 -1 -28 -19q-9 -13 -12 -30q-3 -20 2 -39q6 -26 25 -32q20 -5 40 13q15 14 23 33q8 23 8 42q0 13 -5 22q-7 11 -20 15h-7z" />
    <glyph glyph-name="bahtthai" unicode="&#xe3f;" 
d="M260 490q-4 0 -7 -3q-9 -9 -15 -37q-4 -18 -7 -45q-25 5 -51 5h-60q-5 0 -8 -4t-2 -9q9 -33 9.5 -104t-9.5 -131q-7 -45 -6 -75q3 -52 29 -75q25 -21 57 -19q12 0 27 3q-1 -9 -1 -16q-2 -27 -6 -37q-1 -4 1 -7.5t6 -5t7.5 0.5t5.5 6q3 12 6 41q1 10 1 24q11 3 26 8v1h1
q59 21 82 73t3 100q-13 32 -60 46q-10 3 -20 5q30 21 46 44q23 32 15 63q-8 33 -58 52q-10 4 -21 7q3 28 6 45q5 22 10 27t2.5 11t-9.5 6zM197 389q17 -1 32 -4q-4 -54 -6 -153q-4 -2 -7 -3q-4 -2 -7 -3l-2 -2q-2 -2 -3 -5q-1 -5 2 -9q2 -3 5 -4h4q1 0 2 0.5t2.5 1t2.5 0.5
q-3 -156 -3 -164q0 -9 -1 -21q-21 0 -32 11q-3 3 -5 16q-2 14 -2 36q1 46 11 92q9 45 12 130q1 41 -2 65q-1 9 -3 16zM249 381q9 -3 16 -6q40 -15 45 -37q6 -23 -11 -48q-14 -20 -42 -39q-7 -5 -14 -9q2 87 6 139zM251 216q16 0 32 -5q38 -11 48 -35q16 -40 -3 -84.5
t-71 -61.5v-1q-8 -2 -19 -4q1 8 1 19q1 22 1.5 50t1 64t0.5 57q5 1 9 1z" />
    <glyph glyph-name="saraethai" unicode="&#xe40;" horiz-adv-x="280" 
d="M214 468q-16 -13 -52 -23.5t-46 -15.5q-3 -1 -5 -5q-1 -1 -2 -3q-2 -4 -4 -10q-5 -12 -10 -31q-12 -45 -22 -99q-28 -152 -13 -233q7 -38 16 -57q15 -36 42 -41q41 -7 83 28q8 -5 19 -4q13 1 25 7q30 18 45 77q1 4 -1 7.5t-6.5 4.5t-8 -1t-4.5 -7q-12 -50 -35 -63
q-7 -5 -16 -5h-1h-1q28 31 33 65q3 23 -11 48q-8 12 -17 18q-12 8 -25 5q-19 -6 -28 -27q-7 -18 -6 -42q2 -37 19 -64h-7q-6 2 -10 12q-10 20 -10 61q0 70 34 230q13 62 25 109q6 22 10 34q0 2 3.5 9.5t2.5 10.5q-2 6 -8 7q-5 1 -8 -2zM205 111q2 0 6 -2q5 -4 10 -13
q11 -19 9 -35q-4 -28 -29 -56q-16 25 -18 57q-1 20 4 33q6 12 16 15q1 1 2 1z" />
    <glyph glyph-name="saraaethai" unicode="&#xe41;" horiz-adv-x="420" 
d="M337 430q-61 -21 -101 -41q-3 -1 -5 -5q-1 -1 -2 -3q-2 -4 -4 -9q-3 -11 -7 -28q-9 -40 -15 -89q-18 -134 -3 -207q9 -41 16 -57q0 -1 1 -4q-6 -5 -12 -8q-7 -4 -15 -5q0 4 -2 7q10 19 12 38q2 15 -5 32q-3 9 -9 14q-8 7 -18 5q-16 -4 -22 -20q-6 -13 -5 -30
q1 -23 10 -41q-3 3 -6 10q-10 20 -10 61q0 64 27 197l28 121q1 4 -2 8t-8 4h-3v-1q-61 -20 -81 -30q-4 -2 -7 -8q-2 -3 -4 -8q-3 -10 -7 -27q-8 -37 -15 -83q-17 -126 -3 -195q9 -42 16 -58q6 -16 16 -26q11 -12 27 -14q29 -3 53 27q8 -3 18 -3q13 1 25 7q6 4 13 9
q12 -17 30 -20q41 -7 83 28q8 -5 19 -4q13 1 25 7q30 18 45 77q1 4 -1 7.5t-6.5 4.5t-8 -1t-4.5 -7q-12 -50 -35 -63q-7 -5 -16 -5h-1h-1q28 31 33 65q3 23 -11 48q-8 12 -17 18q-12 8 -25 5q-19 -6 -28 -27q-7 -18 -6 -42q2 -37 19 -64h-7q-6 2 -10 12q-10 20 -10 61
q0 71 24 211q9 55 18 95q4 18 8 29q0 2 3 8.5t2 9.5q-2 6 -8 7h-5zM345 111q2 0 6 -2q5 -4 10 -13q11 -19 9 -35q-4 -28 -29 -56q-16 25 -18 57q-1 20 4 33q6 12 16 15q1 1 2 1zM172 50h1q2 -2 4 -7q4 -11 3 -22q-2 -14 -11 -32q-7 16 -8 32q-1 13 3 21q3 7 8 8z" />
    <glyph glyph-name="saraothai" unicode="&#xe42;" horiz-adv-x="340" 
d="M117 610q-25 -8 -44 -25t-22 -37q-1 -4 -1 -8v-1q0 -34 39 -63q11 -9 33.5 -23t30.5 -21q46 -46 27 -115q-6 -23 -25.5 -63.5t-23.5 -49.5q-24 -47 -31 -107.5t11 -119.5q9 -26 24 -44q21 -24 45 -23q44 1 81 44q1 0 2 1.5t2 2.5q22 -5 39 3q23 11 35 49q3 11 7 29t4 19
q1 4 -1 7.5t-6.5 4.5t-8 -1t-4.5 -7q0 -2 -3.5 -19t-6.5 -27q-9 -30 -24 -37q-6 -3 -15 -3q2 4 5 8q14 27 14 56q1 23 -12 46q-7 12 -16 18q-11 8 -24 6q-17 -4 -28 -21q-8 -13 -11 -34q-5 -42 13 -70q2 -5 6 -9q-5 4 -10 11q-13 17 -18 36q-6 19 -6.5 41t4 46.5t9.5 43.5
t12.5 45.5t10.5 38.5q5 20 15 51.5t13 44.5q11 47 -9 81q-12 19 -44 36q-9 5 -60 28q-36 16 -53 29q-23 22 -22 34v0q1 12 18 25q18 13 32 13q13 0 29 -12q8 -6 33 -31q51 -51 97 -57h1q11 0 21 9q9 8 15 20q13 24 14 49q2 6 -3.5 10t-11.5 1q-3 -2 -9.5 -7t-8.5 -5.5
t-10 -3t-13 0.5q-18 3 -47 20q-45 26 -53 29q-34 13 -57 7zM254 90q3 0 7 -2q5 -4 10 -12q10 -18 9 -35v-1q-2 -29 -23 -59q-13 5 -19 14q-14 23 -9 58q2 16 8 26q6 9 15 11h2z" />
    <glyph glyph-name="saraaimaimuanthai" unicode="&#xe43;" horiz-adv-x="340" 
d="M159 612q-21 0 -41 -7q-37 -13 -47 -41q-10 -27 -1 -62q-12 -17 -20 -39q-1 -4 1 -7.5t6 -5t7.5 0.5t5.5 6q3 11 9 21q10 -22 24 -35q18 -15 38 -13q14 2 25 15q8 12 12 28t2 30q-3 17 -14 25q-29 22 -65 2q-7 -4 -14 -10q-3 23 2 36q8 20 36 30q35 9 53 4
q29 -7 47.5 -27t24.5 -45q4 -15 4 -31t-2 -31t-7.5 -32.5t-11 -32t-14 -32t-15.5 -30.5t-17.5 -30t-17.5 -27.5l-17 -25.5q-34 -51 -47.5 -125.5t5.5 -143.5q9 -25 25 -44q21 -24 45 -23q44 1 81 44q1 0 2 1.5t2 2.5q22 -5 39 3q23 11 35 49q3 11 7 29t4 19q1 4 -1 7.5
t-6.5 4.5t-8 -1t-4.5 -7q0 -2 -3.5 -19t-6.5 -27q-9 -30 -24 -37q-7 -3 -18 -3q7 12 12 24q10 20 10 39v1q1 23 -12 46q-7 12 -16 18q-11 8 -24 6q-17 -4 -28 -21q-8 -13 -11 -34q-5 -42 12 -70q5 -8 14 -14q-3 -1 -5 -1q-3 0 -7 4q-5 4 -10 12q-9 16 -13 36q-16 72 29 194
q5 12 21 51t24.5 64t18 61.5t8.5 69t-12 61.5q-26 73 -107 87q-14 2 -23 2zM132 519h2q11 0 20 -7q5 -3 6 -13q2 -10 -1 -22t-9 -19t-11 -8q-12 -1 -23 8q-11 10 -20 29q-2 4 -4 10q9 10 19 15q11 7 21 7zM254 90q3 0 7 -2q5 -4 10 -12q10 -18 9 -35v-1q-1 -15 -8 -32
q-4 -8 -8 -14q-5 -7 -10 -12q-11 6 -15 13q-15 23 -10 58q2 16 8 26q6 9 15 11h2z" />
    <glyph glyph-name="saraaimaimalaithai" unicode="&#xe44;" horiz-adv-x="340" 
d="M77 606q-12 -12 -18 -20q-6 -7 -8 -13q-4 -10 0 -17q3 -6 9 -6q28 0 48 -18q7 -5 13.5 -13.5t13.5 -20t13 -18.5q17 -23 43 -36q-22 -37 -40 -80q-25 -59 -39 -118.5t-16 -125t14 -123.5q9 -33 22 -54q20 -32 48 -33q43 -2 81 42l5 5q21 -4 38 4q23 11 35 49q3 11 7 29
t4 19q1 4 -1 7.5t-6.5 4.5t-8 -1t-4.5 -7q0 -2 -3.5 -19t-6.5 -27q-9 -30 -24 -37q-7 -3 -18 -3l1 1q16 23 20 54q1 4 1 8v0q2 23 -12 47q-7 12 -16 18q-11 8 -24 6q-17 -4 -28 -21q-8 -13 -11 -34q-5 -42 12 -70q6 -9 15 -16q-4 1 -9 4q-15 9 -28 41q-18 45 -9 167
q9 126 39 216q5 13 13 32q18 -1 38 10q18 10 31 25q1 2 2 3q2 3 4 5q1 1 1 3q3 4 5 8q6 12 8 24q4 16 1 26q-2 8 -8 12q-7 5 -14 5q-45 0 -94 -67q-5 -6 -10 -14q-8 12 -18 37q-2 3 -6 14t-6 15.5t-6 14t-8 15t-9.5 12t-11.5 11.5q-27 21 -54 22q-6 1 -10 -4zM311 509
q-4 -17 -12 -28q-11 -15 -29 -24q-9 -6 -19 -7q10 20 18 35q13 22 24 34q10 10 17 11t1 -21zM261 88q5 -4 10 -12q10 -18 9 -35q0 -3 -1 -8q-2 -14 -8 -28q-7 -14 -15 -24q-12 6 -17 14q-15 23 -10 58q2 16 8 26q6 9 15 11q4 1 9 -2z" />
    <glyph glyph-name="lakkhangyaothai" unicode="&#xe45;" horiz-adv-x="360" 
d="M116 399q-21 -9 -39.5 -26.5t-29.5 -33.5t-20.5 -36.5t-12 -27t-4.5 -12.5q-1 -4 0.5 -7t4.5 -4.5t7 -1.5l4 2q2 2 4 7q6 17 13 30q20 42 45 67q16 14 32 14q29 0 54 -23q23 -20 37 -51q43 -94 23 -264q-5 -42 -13 -84.5t-18.5 -89.5t-12.5 -56q-10 -51 -2 -97
q5 -32 20 -51q19 -24 52 -24q39 0 65 28q20 22 32 59q13 41 13 83v0v1q-1 9 -9.5 9t-10.5 -8v-1q-5 -35 -16 -68q-9 -29 -20 -45q-12 -18 -24 -18q-6 0 -9 13q-3 17 1 48q2 17 18 97q2 9 9.5 44t12.5 61.5t11.5 67t9.5 75.5q16 191 -55 280q-42 53 -110 55q-33 0 -62 -12z
" />
    <glyph glyph-name="maiyamokthai" unicode="&#xe46;" 
d="M344 413h-3q-7 -1 -18 -5q-14 -5 -43 -21q-36 -19 -41 -22q-9 -4 -14 -5q-2 2 -8 10.5t-12.5 15.5t-13.5 12q-18 12 -38 8q-15 -3 -34.5 -13.5t-28.5 -21.5q-11 0 -21 -5q-14 -6 -26 -19q-14 -15 -25 -52l-8 -33q-1 -4 1.5 -7.5t6.5 -4.5t7.5 1.5t4.5 6.5q2 15 7 32
q9 32 20 43q8 8 18 14q-3 -8 -5 -15q-8 -34 -5 -63q1 -18 8 -30q9 -16 25 -19q5 -1 11 0q21 2 36 25q15 22 15 45q0 29 -18 57q-9 15 -21 21l-1 1l2 1h1q11 2 24 -2.5t20 -13.5q3 -4 7.5 -16t8.5 -18q2 -4 7 -6q3 -1 6 -1q4 1 11 3q3 1 7 2t8.5 3t7.5 3q14 5 20 5q4 1 5 0
q19 -43 7 -130q-4 -23 -9 -49.5t-12 -58.5t-11 -49q-15 -74 -14 -101q1 -31 15 -49q16 -22 49 -22q39 0 68 31q23 24 39 65q18 46 23 92v1v0.5v1.5q0 9 -9 9.5t-11 -8.5v-1q-5 -34 -16 -68q-9 -29 -20 -45q-12 -18 -24 -18q-8 0 -12 9q-12 45 12 118q34 104 40 223
q2 35 -1 68q-2 41 -10 56q-3 6 -9 8q-3 1 -6 1zM99 349q13 -6 22 -22q10 -18 9 -37t-10 -36q-5 -8 -10 -12q-2 -1 -3 -2h-1h-1h-2h-1q-7 1 -12 9q-4 8 -6 22q-2 25 6 57q2 11 9 21z" />
    <glyph glyph-name="maitaikhuthai" unicode="&#xe47;" horiz-adv-x="0" 
d="M-30 650q-6 0 -9 -6q-8 -16 -25 -32q-2 -1 -8 -5.5t-9 -7t-8 -5t-9.5 -4t-9.5 -1.5q-9 1 -24 10q-13 7 -25 11q-40 11 -67 -15q-20 -20 -26 -53q-3 -22 12 -44q14 -21 35 -27q22 -7 43 -1h2q16 1 24 17q3 -2 7 -4q24 -16 39 -13q18 4 31 21l7 -1q8 -1 10 8q1 4 -1 7t-6 4
q3 9 2 17q-2 17 -18.5 29.5t-33.5 9.5q-13 -2 -22 -16q-10 -14 -6 -27q4 -12 18 -19q10 -5 25 -9q-5 -3 -10 -4q-7 -2 -24 9q-9 6 -16 12v1q-5 5 -10 3q-7 -2 -8 -10t-4 -10q-2 -3 -7 -5q-9 1 -18 13q-10 13 -11 28q-3 37 30 55q6 1 8.5 0.5t9.5 -4.5t8 -5q12 -6 19 -7
q10 -1 18 0q22 5 46 27q20 19 30 39q3 5 -1 10q-4 4 -8 4zM-76 539q10 -7 11 -15q1 -5 -2 -12q-6 1 -11 2q-12 3 -19 7q-13 6 -6 17q5 7 10 7q8 1 17 -6z" />
    <glyph glyph-name="maiekthai" unicode="&#xe48;" horiz-adv-x="0" 
d="M-153 760q-5 -2 -7 -8q-10 -41 -10 -122q0 -4 3 -7t7 -3q9 0 30.5 -0.5t30.5 0.5q4 1 6.5 4t2.5 7q5 57 19 115q2 4 0 8q-3 6 -10 6q-1 0 -30 4q-21 2 -42 -4z" />
    <glyph glyph-name="maithothai" unicode="&#xe49;" horiz-adv-x="0" 
d="M-269 742q-11 -16 -11 -32t11 -31t27 -19q13 -3 28 6q-3 -9 -15 -32q-2 -5 0.5 -9.5t8.5 -4.5q83 0 124 21q1 0 2 1q33 17 60 44.5t43 59.5q2 3 0.5 7t-5 6t-7.5 0.5t-6 -5.5q-14 -28 -39.5 -53.5t-55.5 -41.5q-21 -5 -37 -3q-3 1 -9.5 2t-9.5 1q3 8 3 9q12 30 7 45
q-3 8 -8 15q4 9 8 19q1 5 -2 9t-8 4q-7 0 -10 -7q-1 -5 -3 -9q-7 6 -15 10q-17 8 -34 9q-33 -1 -47 -21zM-238 740q7 0 16 -9q9 -11 12 -24q2 -5 2 -10q-11 -10 -16 -13q-8 -6 -14 -4q-8 2 -15 11.5t-7 18.5q0 10 7 20q7 9 14 10v0h1z" />
    <glyph glyph-name="maitrithai" unicode="&#xe4a;" horiz-adv-x="0" 
d="M-143 761q-14 -4 -24 -14q-2 -2 -3 -5q-2 -3 -6 -10q-1 -3 -4 -7l-3 4.5l-5 7.5q-6 10 -12 16q-11 9 -22 7q-20 -3 -31 -29q-7 -19 -7 -41q0 -5 1 -12q-6 -6 -10 -13.5t2.5 -12.5t12.5 0q0 -1 0.5 -2.5l0.5 -1.5q5 -12 12 -19q9 -10 21 -9q11 0 20 9q6 7 10.5 17.5
t4.5 20.5q-1 12 -8 20q-15 16 -42 6q-1 -1 -3 -1.5t-2 -1.5q0 19 6 33q6 16 16 17q1 0 4 -2q4 -4 10 -12q1 -2 4 -7t5 -7q2 -4 4 -7q5 -4 9 -5q6 -1 12 4l5 5l7 14q2 3 5 7q1 -1 2 -4q0 -1 1 -17q1 -8 -1 -18t-4 -16.5t-7 -20.5t-8 -21q-1 -5 2 -9t8 -4q22 0 58 10
q45 13 68 32h1v1h1q42 38 42 87q0 4 -3 7t-7 3t-7 -3t-3 -7q0 -25 -8.5 -40.5t-27.5 -31.5q-24 -15 -51 -16q2 5 3 10q3 13 2 29q-1 43 -22 57q-7 5 -15 5q-7 0 -14 -2zM-217 676h2q5 0 8 -3q2 -2 2 -6q0 -6 -3 -13t-7 -11q-3 -3 -5 -3q-4 0 -7 3q-4 4 -7 12q-2 5 -4 14
q5 3 10 5q6 2 11 2z" />
    <glyph glyph-name="maichattawathai" unicode="&#xe4b;" horiz-adv-x="0" 
d="M-137 764q-12 0 -26 -4q-5 -2 -7 -8q-6 -27 -9 -60q-34 -4 -53 -9q-4 -1 -6.5 -4.5t-1.5 -7.5t4.5 -6t7.5 -1q17 4 48 8v-42q0 -4 3 -7t7 -3q7 1 26 0t26 0q9 2 8 11q2 23 6 47q27 2 44 2q4 0 7 3t3 7t-3 7t-7 3q-17 0 -41 -1q4 23 10 47q2 4 0 8q-1 3 -2 3q-3 2 -33 7
h-8h-3z" />
    <glyph glyph-name="thanthakhatthai" unicode="&#xe4c;" horiz-adv-x="0" 
d="M-30 800q-5 0 -8 -4q-11 -16 -47 -37l-1 -1q-4 -2 -22 -7t-28 -13q-34 -26 -34 -68q0 -14 6 -27q7 -16 20 -22q21 -8 47 0q27 9 36 30v0q7 16 -1 34q-8 19 -25 25q-16 5 -28 -6q-9 -8 -12 -23q-2 10 0 19q4 20 20 26l32 15q40 24 53 43q4 5 1 11q-4 5 -9 5zM-93 690
q8 -2 12 -13q5 -10 2 -17q-9 -14 -22 -10q-1 0 -3 1q-2 2 -4 7q-2 8 0 17q2 10 6 14q4 3 9 1z" />
    <glyph glyph-name="nikhahitthai" unicode="&#xe4d;" horiz-adv-x="0" 
d="M-110 616q-18 -1 -35 -14q-31 -23 -35 -61q-3 -29 10 -51q16 -26 49 -30q39 -5 69 29l5 5q16 21 17 39q0 12 -6.5 26t-14.5 22q-14 14 -29 18q1 6 -4 9q-11 7 -23 8h-3zM-80 577q8 -4 15 -10q15 -19 15 -31q0 -18 -22 -39h-1q-9 -7 -17 -7q-10 0 -19 10q-10 10 -11 21
q-2 15 10 33q11 16 20 16q8 0 10 7z" />
    <glyph glyph-name="yamakkanthai" unicode="&#xe4e;" horiz-adv-x="0" 
d="M-80 650q-15 0 -27 -10q-13 -11 -13 -30q0 -6 5 -30q-14 9 -25 11q-27 4 -48 -25q-20 -29 -10 -57q9 -24 33 -37q18 -10 41 -2q22 7 32 23q2 5 2 9q-1 4 -5 7q-4 2 -8 1q-3 -1 -4 -3q-1 -1 -2.5 -3.5t-2.5 -3.5v-1q-5 -4 -12 -5q-11 -1 -21 5q-11 6 -16 21q-6 15 0 25
q5 10 20 14q16 4 25 -2q6 -4 12 -3q4 0 7 4q2 2 3 5q1 6 -1 17q0 4 -1.5 11.5t-2.5 12t-1 6.5q0 9 6 15q6 5 14 5q9 0 18 -9q9 -10 12 -23q1 -5 4.5 -7t8 -1t6.5 4.5t1 7.5q-5 19 -18 32q-14 16 -32 16z" />
    <glyph glyph-name="fongmanthai" unicode="&#xe4f;" 
d="M230 320q-63 0 -105 -54q-39 -50 -35 -107q4 -46 49 -85q40 -34 92 -34q45 0 92 54q36 43 37 90q1 9 0 17q-4 35 -31 66h-1v1q-33 37 -77 41q-5 1 -11 1q-3 10 -10 10zM244 290q9 -1 19 -3l0.5 -0.5t1 -0.5h0.5q1 -1 2 -1q28 -9 49 -35t24 -56v-8v-1q-2 -35 -25 -68
q-29 -43 -66 -47q-26 -3 -53 22q-26 25 -31 55q-8 45 7 81q19 42 66 58q5 1 6 4zM250 240q-26 0 -48 -22t-22 -48q0 -22 19 -41t41 -19t41 19q20 19 19 41v1q-1 23 -27 42q-6 4 -14 8q2 11 -1 15t-8 4zM232 210q6 -1 14 -4q0 -1 2 -1q7 -4 13 -8q18 -14 19 -27
q0 -11 -12 -21q-11 -10 -22 -9q-10 1 -18 14q-9 13 -8 25q1 16 7 25q2 3 5 6z" />
    <glyph glyph-name="zerothai" unicode="&#xe50;" horiz-adv-x="460" 
d="M260 350h-2q-42 -1 -79 -22t-64 -57q-26 -34 -38 -74.5t-7 -77.5q9 -57 72 -96q59 -37 119 -33q66 5 129 57q52 44 59 91q3 12 1 24v0q-15 86 -74 126q-39 27 -95 31l-11 24q-1 3 -4 5h-1v1q-2 1 -5 1zM292 298q42 -6 73 -26q52 -36 65 -114q2 -23 -15.5 -46.5
t-49.5 -44.5q-30 -19 -62 -29q-30 -9 -45 -5q-35 11 -52 35q-14 21 -16 53q-3 48 18 84q22 39 80 82q5 4 4 11z" />
    <glyph glyph-name="onethai" unicode="&#xe51;" horiz-adv-x="460" 
d="M288 347q-70 3 -122 -22q-65 -30 -85 -71q-16 -32 -16.5 -69.5t16.5 -69.5q12 -20 34 -32.5t45 -12.5q34 0 66 17q36 20 44 50t-10 63q-19 36 -49 40q-25 4 -49 -20q-22 -23 -22 -50q0 -4 3 -7t7 -3t7 3t3 7q0 19 17 36q16 16 32 14q19 -3 33 -29.5t8 -47.5
q-6 -23 -34 -38q-27 -15 -56 -15q-17 0 -35 10t-26 25q-15 26 -14.5 59.5t14.5 61.5q9 18 30 35t45 26q37 14 73 3q62 -18 81 -81q15 -49 2 -117q-15 -83 -97 -102q-28 -7 -65 5q-37 11 -50 31q-2 3 -6 4t-7.5 -1.5t-4.5 -6.5t2 -8q17 -25 60 -39q44 -14 93 -10q55 4 99 26
q46 23 72 74.5t24 104.5q-1 41 -25 80t-60 59q-31 17 -77 18z" />
    <glyph glyph-name="twothai" unicode="&#xe52;" horiz-adv-x="460" 
d="M40 410q-7 0 -9.5 -6.5t3.5 -11.5q30 -24 41 -74q6 -33 7 -104q0 -40 1 -58t5.5 -49.5t15.5 -54t29 -39.5q17 -17 40.5 -22t57.5 -6h11h11.5t10 -0.5t10 -1t9 -1t9 -1t7.5 -2t7 -3t6 -2.5q12 -10 39 -2q15 5 35 15l20 12t15 9.5l5 3.5q3 2 4 6q25 125 20 203q-4 57 -7 71
q-9 45 -39 57q-16 7 -37 -3q-14 -6 -33 -21q-4 -4 -13 -11.5t-12 -9.5q-2 -1 -5 -3q-2 2 -7 9t-9 11q-17 20 -31 24q-10 2 -24 -3q-18 -8 -58 -34q-31 -19 -41 -66q-13 -6 -21 -15q-3 -3 -3 -7t3 -7t7 -3t7 3l3 3v-3v-3q-1 -38 7 -65q5 -18 14 -29q11 -14 28 -16q12 -1 23 7
q9 6 15 18q12 21 13 45q1 23 -11 46q-14 25 -35 33q-12 5 -27 2q10 29 28 41q10 6 24.5 5.5t25.5 -6.5q14 -7 25 -23q10 -16 10 -28q0 -5 3 -8t7 -4q2 0 5 1t7 5l6 6l6 6q4 5 8 7q15 -33 18 -93q2 -49 -3 -106q-3 -28 -7 -46q-1 -7 -4 -14q-7 3 -14 5.5t-18 3.5t-15.5 1.5
t-20 0.5h-16.5q-64 2 -85 22q-20 20 -30.5 53.5t-12 59.5t-2.5 74q-1 74 -8 108q-11 57 -48 86q-3 2 -6 2zM169 232h2q3 0 5 -1q15 -6 25 -24t9 -36.5t-10 -35.5q-5 -8 -10 -12q-4 -4 -9 -3q-8 1 -15 8q-6 8 -10 23q-7 23 -6 59q0 8 2 19q9 3 17 3z" />
    <glyph glyph-name="threethai" unicode="&#xe53;" horiz-adv-x="460" 
d="M205 350h-7q-32 -6 -61 -22.5t-45 -42.5q-37 -57 -34 -136q0 -15 3 -30q-9 -7 -16 -15q-2 -3 -4 -4v-1l-4 -5t-6 -8.5t-1 -6.5q0 -6 5.5 -9t9.5 1t10.5 13t9.5 12q12 -47 33 -76q18 -25 37 -29q16 -3 25 2q12 6 17 26q7 24 -3 58q-6 21 -16 36q-4 6 -9 11q-9 9 -21 14
q-11 4 -23 3q-12 -2 -26 -9q-1 9 -1 18v1q-1 56 21 105q5 11 10 17q6 7 11 7q16 0 32.5 -24t29.5 -66q27 -88 22 -168q-1 -11 4 -18q4 -8 14 -9q11 -3 30 6q38 17 49 33q9 12 15 37q2 11 5 31q1 13 3.5 43t4.5 44q1 14 3 29q3 18 6 31q5 23 14 37q4 -6 7 -14q6 -18 9 -48
q6 -55 2 -113q-2 -35 -13 -72.5t-23 -50.5q-2 -1 -2 -2l-1 -1q-3 -6 1 -11.5t11 -3.5q45 2 77 62q26 50 30 107q5 78 -10 134q-8 27 -15 41q-7 16 -17.5 21.5t-24.5 2.5q-7 -1 -26 -9h-1q-12 -3 -21 -17q-7 -12 -12 -33q-6 -23 -11 -59q-2 -17 -5 -41q-1 -6 -3 -25
q-7 60 -22 105q-14 44 -33 68q-20 23 -44 23zM129 115q10 -8 18 -22q4 -8 7 -18q4 -13 5 -26q2 -18 -3 -30q-3 -8 -7 -9q-5 -1 -12 1q-12 5 -23 21q-23 34 -31 78q13 9 25 11q10 1 21 -6z" />
    <glyph glyph-name="fourthai" unicode="&#xe54;" horiz-adv-x="460" 
d="M460 410q-7 0 -10 -7q-12 -38 -44 -60q-27 -18 -43 -13q-3 0 -19.5 3.5t-21 4.5t-22.5 3.5t-23 1.5t-22 -1q-96 -12 -142 -55q-29 -26 -45 -65.5t-18 -81.5q-4 -93 44 -128q42 -31 115 -28q68 3 109 21q7 3 12.5 4t9 0t10 -3.5t11.5 -3.5q16 -4 31 -2q20 4 38 23
q9 10 12 20q4 13 -4 23q-5 7 -13 9q-7 2 -15 0q-9 -3 -24 -14q-34 -25 -43 -26q-1 -1 -2.5 -1h-2.5q-3 3 -4 3q-25 18 -46 49q-7 11 -14 24q6 1 11 2q61 13 83 42q12 15 13 37q1 26 -15 37q-26 18 -65 0q-34 -15 -50 -43q-13 -24 -4 -58h-2.5h-2.5q-8 -1 -13 0q-1 0 -2 1h-1
q-3 3 -7 2.5t-7 -3.5t-2.5 -7t3.5 -7q4 -4 13 -6q7 -1 16 0h12q7 -17 18 -33q15 -23 35 -40q-51 3 -83 15q-37 15 -42 61q-4 31 8 88q10 53 30 87q12 19 26 30q13 10 34 10q34 -1 77 -15q25 -7 60 16q38 26 53 71q1 5 -2 9t-8 4zM337 217q10 -1 17 -5.5t7 -19.5
q-1 -15 -9 -26q-17 -23 -71 -34q-4 -1 -14 -3v1.5t-1 1.5q-6 26 3 43q12 22 40 35q14 6 25 7h3zM418 56h1q2 0 3 -2q2 -2 0 -6q-1 -5 -7 -11q-13 -15 -27 -17q-11 -2 -23 1q4 2 33 24q12 9 18 11h2z" />
    <glyph glyph-name="fivethai" unicode="&#xe55;" horiz-adv-x="460" 
d="M280 411h-4q-4 0 -8 -1q-18 -4 -33 -17q-19 -17 -15 -35q3 -11 15 -19q-81 -14 -122 -52q-29 -27 -45.5 -66.5t-17.5 -80.5q-2 -83 44 -118q42 -32 114 -33q61 -2 110 16q7 3 13 3.5t9 -0.5t10 -3t11 -3q16 -4 31 -2q20 4 38 23q9 10 12 20q4 13 -4 23q-5 7 -13 9
q-7 2 -15 0q-9 -3 -24 -14q-34 -25 -43 -26q-1 -1 -2.5 -1h-2.5q-3 3 -4 3q-25 18 -46 49q-7 11 -14 24q6 1 11 2q61 13 83 42q12 15 13 37q1 26 -15 37q-26 18 -65 0q-34 -15 -50 -43q-13 -24 -4 -58h-2.5h-2.5q-8 -1 -13 0q-1 0 -2 1h-1q-3 3 -7 2.5t-7 -3.5t-2.5 -7
t3.5 -7q4 -4 13 -6q7 -1 16 0h12q7 -17 18 -33q15 -23 35 -40q-51 3 -83 15q-37 15 -42 61q-4 31 8 88q10 53 30 87q12 20 26 30q6 5 13 7q11 2 21 3q45 -4 77 -15q25 -7 60 16q38 26 53 71q1 5 -2 9t-8 4q-7 0 -10 -7q-12 -38 -44 -60q-27 -18 -43 -13q-22 7 -56 12h1
q10 9 16 17q8 12 6 23q-4 18 -27 25q-11 4 -23 4zM280 391q9 0 17 -3q12 -4 13 -10q1 -3 -3 -8t-12 -12q-7 -6 -15 -12q-8 1 -14 3q-12 2 -19 6t-7 7q-2 7 8 16q11 10 24 12q2 1 6 1h2zM337 217q10 -1 17 -5.5t7 -19.5q-1 -15 -9 -26q-17 -23 -71 -34q-4 -1 -14 -3v1.5
t-1 1.5q-6 26 3 43q12 22 40 35q14 6 25 7h3zM418 56h1q2 0 3 -2q2 -2 0 -6q-1 -5 -7 -11q-13 -15 -27 -17q-11 -2 -23 1q4 2 33 24q12 9 18 11h2z" />
    <glyph glyph-name="sixthai" unicode="&#xe56;" horiz-adv-x="460" 
d="M40 410q-8 0 -10 -7.5t5 -10.5q40 -26 57 -76q9 -25 12 -30q6 -8 14 -10q7 -1 16 2h1h1q79 32 138 -26q50 -48 67 -96q21 -62 -18 -113q-21 -28 -65 -35q-57 -10 -93 14q-38 26 -38 65q-1 18 7 36.5t22 28.5q16 12 37 15t33 -6q17 -14 21 -44t-10 -43q-12 -11 -35 -7
t-34 19q-2 3 -6 4t-7.5 -1.5t-4.5 -6.5t2 -8q16 -22 47 -27q33 -6 52 12q22 21 16 61q-5 37 -29 56q-18 15 -48 11q-25 -4 -46 -19q-18 -13 -28 -35.5t-9 -46.5q0 -48 48 -80q32 -23 110 -21q48 1 96.5 36.5t67.5 75.5q18 37 14.5 82t-26.5 80q-25 38 -68 64t-88 27
q-13 0 -26 -2t-27.5 -8t-22 -9.5t-30 -17t-28.5 -16.5q-3 -2 -5 -1l-1 1q-3 4 -10 26q-20 57 -66 85q-2 2 -5 2z" />
    <glyph glyph-name="seventhai" unicode="&#xe57;" horiz-adv-x="460" 
d="M419 410q-5 0 -7.5 -4.5t-0.5 -9.5q13 -28 18.5 -77.5t-0.5 -103.5q-10 -100 -56 -164q24 88 22 149q-1 37 -12 80t-24 65q-3 5 -9 5q-22 0 -64 -21q-4 -2 -6 -6v0q-6 -22 -18 -159v-2v-1q-6 35 -17 70q-16 49 -37 82q-11 16 -22 26q-13 11 -26 11h-3q-14 -5 -35 -25
q-17 -17 -27 -33l-1 -2q-2 -3 -3 -6v0q-39 -83 -30 -165q-21 -17 -30 -35q-2 -3 -0.5 -7t5 -6t7.5 -0.5t6 5.5q4 8 16 20q3 -11 5 -19q12 -35 28 -57q24 -34 53 -30q16 2 24 21q5 14 5 29q-1 32 -14 59q-16 34 -43 41q-20 5 -43 -8q-5 73 29 144v0l2 4l1 1q2 4 5 7q1 0 4 2
q2 -1 6 -5q6 -6 12 -19q12 -24 24 -71q9 -33 23.5 -97t17.5 -79q2 -5 6 -7q14 -6 31 4q12 7 21 19q1 1 1 2q6 15 12 56q4 30 9 84q11 107 14 128l0.5 -0.5t0.5 -1.5q7 -10 13 -29q11 -37 13 -65q4 -63 -5 -121q-4 -25 -9 -42q-4 -15 -8 -19t-3 -9q1 -4 4 -6q17 -11 24 -14
q18 -5 29 5q77 71 92 210q6 59 0.5 109.5t-20.5 81.5q-3 6 -10 6zM112 121h1q3 0 5 -1q18 -4 30 -30q11 -23 12 -50q0 -12 -4 -21q-3 -9 -7 -9q-18 -2 -35 22q-14 19 -24 51q-5 13 -7 27q16 11 29 11z" />
    <glyph glyph-name="eightthai" unicode="&#xe58;" horiz-adv-x="460" 
d="M460 410q-6 0 -8 -5q-32 -50 -74 -65q-29 -10 -69 -5v1q-44 7 -66 9q-24 2 -39 2q-21 0 -34 -5q-47 -15 -83 -72q-32 -53 -37 -109q-4 -42 13.5 -84t51.5 -65q47 -34 137 -12q13 3 24 11q9 4 24 21q11 12 13 14q4 3 6 4q2 -1 4.5 -6t6.5 -18q5 -15 8 -22q8 -13 22 -14
q36 -2 65 37q27 36 25 74q-2 34 -29 67q7 17 9 31q1 4 -1.5 7t-7 3.5t-7.5 -1.5t-4 -7q-1 -6 -4 -17q-33 29 -67 26q-22 -2 -38 -27q-16 -23 -11 -45q5 -19 25 -31q20 -11 39 -8q29 6 53 42l4 7q18 -25 19 -49q2 -29 -21 -59.5t-49 -29.5q-2 0 -4 4q-3 5 -7 17q-4 16 -7 22
q-7 13 -19 16q0 1 -1 1h-1q-13 2 -24 -8q-5 -5 -15 -19l-4 -4.5t-7.5 -7t-6.5 -2.5q-12 1 -42 35.5t-37 62.5q-16 61 7 122q13 35 41.5 53.5t72.5 13.5q45 -6 78 5q49 17 84 74q4 5 1 10t-9 5zM344.5 190h3.5q25 -1 49 -25q-3 -7 -7 -13q-19 -29 -40 -33q-11 -2 -24.5 5.5
t-15.5 17.5q-3 14 7.5 30.5t23.5 17.5h3.5z" />
    <glyph glyph-name="ninethai" unicode="&#xe59;" horiz-adv-x="460" 
d="M460 410q-4 0 -7 -3t-3 -7q0 -42 -20 -105q-12 -36 -26 -62q-18 65 -36 93q-3 4 -8 4q-8 0 -15.5 -3.5t-17 -10t-12.5 -8.5q-10 -5 -14 -20q0 -2 -1 -4q-2 -12 -1 -31q1 -4 1 -9q-3 5 -4 7q-28 47 -57 73q-34 30 -61 26q-77 -13 -107 -65q-2 -4 -4 -9q-4 -6 -6 -12
q-1 -1 -1 -3q-27 -68 -8 -150q-15 -14 -21 -27q-2 -3 -0.5 -7t5 -6t7.5 -0.5t6 5.5q2 5 9 13q6 -18 13 -33q13 -28 30 -46q25 -25 51 -20q15 3 23 22q5 13 5 28q-1 32 -14 59q-16 34 -43 41q-24 6 -53 -14q-15 80 14 140q2 4 5 7q6 7 11 7q18 0 43.5 -25.5t49.5 -67
t38.5 -87t12.5 -78.5q-1 -12 5 -19q5 -7 15 -9q14 -2 35 6q17 6 35 16q1 1 9.5 6.5t13 9.5t5.5 10q1 5 1 12q-1 11 -5 30q-1 3 -2 8.5t-2 7.5q-3 18 -10 40q-5 20 -7 29q-14 56 -16 84q-2 19 -1 29q1 0 1 0.5v0.5q0 2 1 4q2 -2 3 -4q5 -8 9 -22q7 -21 16 -73q1 -3 3 -5
q7 -8 19 -4q7 1 16 7q8 6 19 17q1 0 1 1q20 21 41 85q21 65 21 111q0 4 -3 7t-7 3zM111 121h2q3 0 5 -1q18 -4 30 -30q11 -23 12 -50q0 -11 -4 -21q-3 -8 -8 -9q-15 -3 -32 14q-16 16 -27 40q-9 19 -14 40q0 1 1.5 2l1.5 1q18 14 33 14z" />
    <glyph glyph-name="angkhankhuthai" unicode="&#xe5a;" horiz-adv-x="420" 
d="M360 410q-14 0 -23 -3q-13 -6 -28.5 -22.5t-21.5 -21.5q-2 20 -8 31q-6 12 -22 14h-6q-9 0 -19 -4q-31 -10 -41 -29v-1v0l-1 -1q-3 -9 -12.5 -37t-15.5 -40q-9 -18 -19 -27q-11 -10 -21 -9q-13 1 -22 12q6 5 8 7q30 27 35 51q4 16 1 32q-4 19 -18 26v0q-6 3 -14 4
q-17 0 -34 -12q-23 -16 -28 -38q-6 -31 15 -66q2 -2 4 -6q-11 -12 -18 -26q-2 -3 -0.5 -7t5 -6t7.5 -0.5t6 5.5q5 9 14 19q17 -14 35 -15h4q20 1 35 14q12 12 23 33q7 15 21 56q13 -39 8 -100q-2 -27 -9.5 -78t-9.5 -64q-8 -62 -40 -158q-1 -6 3 -10q13 -13 37 -20
q28 -8 35 -12h1q5 -2 9.5 0.5t4.5 7.5q7 22 12.5 44.5t7 32.5t5.5 39t5 34q20 138 20 221q0 40 -1 60q13 9 27 22q13 -45 4 -130q-6 -51 -30 -170q-15 -74 -14 -101q1 -31 15 -49q16 -22 49 -22q26 0 46 29q15 22 26 58q13 41 18 82v0.5v1.5v2l-0.5 0.5t-0.5 1t-0.5 1
t-0.5 1t-1 0.5q0 1 -1 1l-1 1q-1 0 -2 1h-0.5h-1.5h-2h-1h-1q-1 -1 -2 -1l-1 -1q-1 0 -1 -0.5v-0.5l-1 -1q0 -1 -0.5 -1t-0.5 -1l-1 -1v-1v0v-1v-1v-1q-6 -35 -16 -66q-9 -29 -20 -45q-12 -18 -24 -18q-8 0 -12 9q-5 12 -4 34q1 41 16 84q39 119 40 223q0 55 -2 76
q-2 22 -6 34q-3 9 -7 13q-7 7 -15 7zM124 358q2 -12 0 -24q-4 -18 -29 -40q-1 0 -4 -3l-5 -5q-13 19 -9 42q4 19 16 32q26 20 31 -2z" />
    <glyph glyph-name="khomutthai" unicode="&#xe5b;" horiz-adv-x="680" 
d="M207 315h-2q-53 -2 -87 -35q-41 -40 -33 -106q8 -61 57 -96q43 -31 98 -33q28 -1 57 23q27 24 40 44.5t20 51.5q3 16 10 58q4 29 7 39q18 -26 14 -93q-1 -6 -2.5 -21.5t-1.5 -22.5q0 -10 2 -16q2 -5 7 -7.5t11 0.5q20 9 29 44q5 20 7 59q2 29 4 38q16 -23 19 -68
q1 0 1 -0.5v-0.5v-10q1 -22 4 -29q1 -4 5 -7t10 -3q18 5 28 29.5t11 45.5l5 -10t5 -9q13 -17 20 -19q10 -3 18 3q2 1 15 13q7 6 13 7q7 2 18 -3q3 -2 7 -0.5t6 5t0.5 7.5t-5.5 6q-16 8 -31 5q-10 -3 -21 -12q-11 -10 -15 -10q-3 1 -5.5 4.5t-4.5 8.5l-2 5q-7 13 -11 19
q-6 9 -11 13q-1 1 -3.5 2.5t-4.5 1.5q-4 1 -7 -1q-5 -3 -6 -8v-10v-12q0 -35 -16 -55q-1 6 -2 21q-1 8 -1 13q-2 24 -6 39q-8 27 -24 39q-2 1 -3 2q-6 4 -11.5 3t-9.5 -7q-2 -3 -4 -9q-2 -8 -5 -46q-2 -37 -7 -55v-2q1 11 2 21q5 74 -27 107v1q-4 4 -8 6q-6 3 -12 1
q-7 -2 -12 -14q-4 -11 -9 -45q-7 -45 -10 -57q-7 -32 -18 -46q-35 -46 -77 -37q-27 5 -49.5 33t-27.5 59q-7 42 1 74q4 18 14 28q9 10 25 11q29 1 56 -25q26 -26 29 -56v0q2 -32 -6 -46q-14 -25 -33 -27q-21 -2 -40 22q-15 19 -11 39q3 16 20 25q5 3 9 1q6 -3 12 -17
q1 -4 5 -5.5t8 0t5.5 5.5t-0.5 8q-8 21 -22 27q-13 7 -27 -1q-25 -14 -30 -37q-6 -31 17 -59q25 -31 56 -28q28 2 48 36q13 22 9 61q-5 37 -35 69q-32 33 -68 33z" />
    <glyph glyph-name="enspace" unicode="&#x2002;" horiz-adv-x="375" 
 />
    <glyph glyph-name="emspace" unicode="&#x2003;" horiz-adv-x="750" 
 />
    <glyph glyph-name="zerowidthspace" unicode="&#x200b;" horiz-adv-x="0" 
 />
    <glyph glyph-name="afii61664" unicode="&#x200c;" horiz-adv-x="0" 
 />
    <glyph glyph-name="afii301" unicode="&#x200d;" horiz-adv-x="0" 
 />
    <glyph glyph-name="afii299" unicode="&#x200e;" horiz-adv-x="0" 
 />
    <glyph glyph-name="afii300" unicode="&#x200f;" horiz-adv-x="0" 
 />
    <glyph glyph-name="endash" unicode="&#x2013;" horiz-adv-x="412" 
d="M408 133h-340v49h340v-49z" />
    <glyph glyph-name="emdash" unicode="&#x2014;" horiz-adv-x="734" 
d="M730 133h-673v51h673v-51z" />
    <glyph glyph-name="quoteleft" unicode="&#x2018;" horiz-adv-x="360" 
d="M190 570q-5 0 -8 -3q-75 -88 -30 -179q12 -24 38 -39q29 -17 53 -8q22 7 33 34q9 25 4 47q-5 20 -23 35q-19 17 -39 13q-27 -6 -40 -31q-9 -16 -9 -38q-19 32 -13.5 71t42.5 81q4 5 1.5 11t-9.5 6z" />
    <glyph glyph-name="quoteright" unicode="&#x2019;" horiz-adv-x="360" 
d="M210 550q-15 0 -31 -12q-19 -14 -28 -34q-9 -19 -7 -41q3 -27 21 -37q27 -14 58 2q13 6 24 17q-18 -72 -109 -95q-5 -1 -7 -4.5t-1 -8t4.5 -6.5t7.5 -1q113 28 128 129q1 10 0 22v1q-2 16 -9 30q-14 30 -39 37q-6 1 -12 1z" />
    <glyph glyph-name="quotesinglbase" unicode="&#x201a;" horiz-adv-x="219" 
d="M61 -116v14q71 31 71 95q0 11 -7 10q-2 0 -6 -2q-9 -6 -23 -5q-20 0 -33.5 15t-13.5 34q0 22 16.5 38t38.5 16q32 0 50 -25q17 -22 17 -55q0 -101 -110 -135z" />
    <glyph glyph-name="quotedblleft" unicode="&#x201c;" horiz-adv-x="360" 
d="M140 550q-5 0 -8 -4q-33 -40 -39 -77q-6 -28 5 -63q2 -7 6 -15q-2 -8 6 -11q6 -11 14 -19q22 -23 47 -21q16 1 28 19q11 14 11 31q1 22 -12 44q-15 25 -38 26q-24 1 -38 -17q-4 -6 -9 -16q-4 21 -1 39q6 31 36 68q4 5 1 10.5t-9 5.5zM230 540q-7 0 -9 -7q-25 -68 5 -132
q0 -1 1 -2q11 -22 31 -29.5t37 1.5t19 35q3 19 -5 38q-6 15 -19 26q-17 14 -33 10q-21 -7 -27 -25v-1q-5 33 9 73q2 4 -1 8.5t-8 4.5z" />
    <glyph glyph-name="quotedblright" unicode="&#x201d;" horiz-adv-x="360" 
d="M256 550q-17 -2 -29 -16t-17 -32q-4 -19 1 -40q7 -25 26 -31q22 -8 39 3q6 3 13 11q-8 -52 -75 -97q-3 -2 -4 -6t1.5 -7.5t6.5 -4.5t8 2q84 56 84 128q0 7 -1 16q3 6 -2 11q-2 14 -7 26q-14 32 -39 36q-3 1 -5 1zM140 530q-18 0 -33 -16q-13 -14 -16 -32q-3 -14 4 -30
q7 -17 22 -22q23 -6 39 4q7 4 13 11q-4 -46 -36 -78q-3 -3 -3 -7t3 -7t7 -3t7 3q20 20 30 44t11.5 40t1.5 42v3q-1 24 -17 37q-16 11 -33 11z" />
    <glyph glyph-name="quotedblbase" unicode="&#x201e;" horiz-adv-x="330" 
d="M38 -116v16q71 27 71 93q0 6 -2 9q-1 2 -3 2t-5 -2q-10 -7 -26 -7q-30 0 -42 31q-4 9 -4 19q0 23 16.5 39t39.5 16q31 0 49 -27q17 -23 17 -55q0 -93 -111 -134zM193 -116v16q30 11 50 36q21 26 21 57q0 5 -2 9q-2 2 -3 2q-2 -1 -5 -2q-11 -7 -25 -7q-20 0 -33.5 15
t-13.5 35q0 23 16 39t39 16q31 0 50 -27q16 -23 17 -55q0 -93 -111 -134z" />
    <glyph glyph-name="dagger" unicode="&#x2020;" horiz-adv-x="330" 
d="M172 -129h-16v29q0 125 -11 200q-8 52 -23 93q16 13 24 30q10 22 10 44q-7 -1 -22 -4q-4 -1 -31 -16q-20 -10 -32 -10q-39 0 -39 37t37 38q13 0 42 -14q31 -15 45 -17q0 24 -17 61q-15 33 -15 49q0 18 10 32q11 14 30 14q42 0 41 -46q0 -11 -2 -20q-2 -7 -13 -28
q-8 -16 -13 -34q-2 -8 -4 -12q-1 -8 -1 -16q8 0 24 5q5 2 29 15l18 9q6 2 15 2q40 0 40 -38q0 -15 -11.5 -26t-26.5 -11t-50 19q-18 10 -38 11q4 -48 35 -74q-19 -57 -26 -108q-9 -67 -9 -185v-29z" />
    <glyph glyph-name="daggerdbl" unicode="&#x2021;" horiz-adv-x="330" 
d="M208 239q-34 -31 -34 -81q0 -41 10 -64q6 -15 24 -28q-30 -29 -35 -56q15 2 35 10q28 12 35 14t15 2q36 0 36 -32q0 -33 -35 -33q-15 0 -40 12q-17 8 -27 11q-9 2 -19 3q2 -15 4 -22q5 -15 13 -31q13 -26 13 -39q0 -36 -36 -36t-37 35q0 15 13 45q14 33 16 48
q-7 -1 -17 -3q-6 -1 -27 -11q-27 -12 -44 -12q-35 0 -35 32q0 14 10 24t23 10q9 0 15 -2q23 -11 75 -25q-6 31 -35 56q19 15 25 29q9 19 10 52q0 38 -8 57q-7 17 -27 35q30 22 35 55q-18 0 -47 -14q-26 -13 -42 -12q-34 0 -34 33q0 13 10 22.5t24 9.5q12 0 31 -8q3 -2 15 -7
q21 -10 43 -11q-3 15 -12 37q-11 26 -15 36q-4 11 -4 19q0 15 11 26.5t26 11.5t25.5 -10.5t10.5 -26.5q0 -14 -14 -46q-10 -24 -14 -47q8 1 22 4q8 3 15 6q4 2 15 7q22 10 33 10q15 0 27 -11q9 -9 9 -23q0 -32 -35 -31q-9 0 -16 2q-3 0 -18 7q-20 9 -29 12q-3 1 -10 2
q-9 2 -13 2q0 -16 9 -29q7 -11 26 -26z" />
    <glyph glyph-name="bullet" unicode="&#x2022;" horiz-adv-x="230" 
d="M62 220q0 23 16 39t39 16t39 -16t16 -39t-16 -39t-39 -16t-39 16t-16 39z" />
    <glyph glyph-name="ellipsis" unicode="&#x2026;" horiz-adv-x="523" 
d="M87 52q12 0 21 -8.5t9 -21.5q0 -11 -9 -19.5t-20.5 -8.5t-20.5 8.5t-9 19.5q0 13 8.5 21.5t20.5 8.5zM262 52q12 0 20.5 -8.5t8.5 -21.5q0 -11 -8.5 -19.5t-20.5 -8.5q-11 0 -20 8.5t-9 19.5q0 13 8.5 21.5t20.5 8.5zM437 52q12 0 20.5 -8.5t8.5 -21.5q0 -11 -9 -19.5
t-21 -8.5q-10 0 -18.5 8.5t-8.5 19.5q0 13 8.5 21.5t19.5 8.5z" />
    <glyph glyph-name="perthousand" unicode="&#x2030;" horiz-adv-x="523" 
d="M106 356q9 0 17.5 -6t15.5 -13t20 -12t29 -5q23 0 37.5 8.5t48.5 42.5h24l-225 -381h-26l206 346q-14 -17 -28 -23.5t-35 -6.5q-18 0 -40 8q3 -13 3 -23q0 -27 -10.5 -53.5t-29.5 -44.5q-20 -21 -47 -21t-44.5 20.5t-17.5 50.5q0 45 30.5 79t71.5 34zM104 341
q-7 -4 -13 -7q-20 -12 -35 -45t-15 -67q0 -16 8 -26t22 -10q28 0 48.5 33.5t20.5 80.5q0 9 -2 14t-5.5 6.5t-12 6.5t-16.5 14zM281 174q24 0 37.5 -16.5t13.5 -46.5q0 -47 -26 -84t-60 -37q-27 0 -45.5 21t-18.5 51q0 42 30.5 77t68.5 35zM288 158q-16 0 -27 -12
q-17 -19 -29 -49.5t-12 -55.5q0 -16 8.5 -26.5t20.5 -10.5q27 0 49 33.5t22 74.5q0 20 -9.5 33t-22.5 13zM472 174q24 0 37 -16.5t13 -46.5q0 -47 -26 -84t-60 -37q-27 0 -45.5 21t-18.5 52q0 41 31 76t69 35zM477 158q-19 0 -35 -22.5t-24 -49t-8 -45.5q0 -15 8.5 -26
t20.5 -11q27 0 49 33.5t22 74.5q0 21 -9 33.5t-24 12.5z" />
    <glyph glyph-name="guilsinglleft" unicode="&#x2039;" horiz-adv-x="174" 
d="M83 118q2 -5 20.5 -28.5t32 -42.5t13.5 -25q0 -4 -5 -4q-3 0 -5 3q-44 42 -90 81l-16 15l33 31q3 1 5.5 3t4.5 3l1 2q33 27 44 41q6 8 13.5 14.5t9.5 6.5q6 0 6 -5q0 -11 -29 -47q-26 -30 -38 -48z" />
    <glyph glyph-name="guilsinglright" unicode="&#x203a;" horiz-adv-x="174" 
d="M25 22q-5 4 68 96l-39 48q-29 34 -29 47q0 5 5.5 5t23.5 -21q2 -5 54 -49l33 -31l-16 -15q-56 -48 -85 -78q-6 -6 -9 -6q-6 0 -6 4z" />
    <glyph glyph-name="fraction" unicode="&#x2044;" horiz-adv-x="86" 
d="M174 356l-236 -364h-26l238 364h24z" />
    <glyph glyph-name="Euro" unicode="&#x20ac;" horiz-adv-x="374" 
d="M222 505q22 0 42.5 -8t33 -16.5t16.5 -8.5q12 0 18 34h14l12 -168h-13q-7 49 -22 79q-15 31 -41.5 49t-54.5 18q-32 0 -58 -24t-40 -68q-11 -36 -17 -100h165l-21 -30h-146v-25v-23h116l-19 -30h-95q9 -79 43.5 -125t86.5 -46q33 0 65 19.5t51 53.5v-26
q-22 -33 -58.5 -51.5t-77.5 -18.5q-67 0 -115.5 52t-62.5 142h-56l20 30h32v28v20h-52l20 30h36q12 94 62 153.5t116 59.5z" />
    <glyph glyph-name="trademark" unicode="&#x2122;" horiz-adv-x="330" 
d="M301 450q-4 0 -12 -2l-3.5 -0.5t-5.5 -0.5q-1 0 -2 -1h-1q-13 -22 -25 -61q-6 -16 -9 -29q-1 -2 -1 -5q-8 20 -11.5 28.5t-11.5 25t-17 30.5q0 1 -1 1q-4 2 -7 2h-2q-3 -1 -9 -2q-11 -5 -15 -5q-2 0 -3 -2q-3 -13 -3 -73v-41q-1 -20 -3 -27q0 -1 1 -2v-0.5v-0.5v0
q2 -1 3 0l14 2q15 3 22 3q1 0 2 0.5t1 1.5q0 18 -0.5 46t-1 43t1.5 43q5 -8 9.5 -16.5t8.5 -18.5t6.5 -16t7 -17.5t6.5 -16.5q1 -2 3.5 -2t2.5 3q0 4 3 15q3 13 9 29q10 31 20 52q3 -17 4.5 -38t1.5 -34.5t-0.5 -39t-0.5 -34.5q0 -1 1 -2t2 -1q13 0 25 3q1 0 2 1v0v0v0
q1 1 1 2q0 34 -3 86q-1 27 -3 44q-1 10 -2 16q-2 7 -3 9t-2 2zM140 445h-1q-11 -1 -51 -4q-50 -4 -64 -2q-1 0 -2 -0.5t-1 -1.5t0.5 -2t1.5 -1q13 -2 46 1q-1 -56 -4 -93t-6 -47v0l-8 2q-1 1 -1 0q-3 0 -3.5 -2t2.5 -3q28 -8 63 -8q1 0 2 1t1 2t-1 2t-2 1h-14q1 4 3 19
q0 6 2 28q3 32 6 60q3 32 3 41q28 2 36 1q2 0 3 0.5t1 1.5t-0.5 2t-2.5 1q-3 1 -9 1z" />
    <glyph glyph-name="minus" unicode="&#x2212;" horiz-adv-x="422" 
d="M401 165h-379v49h379v-49z" />
    <glyph glyph-name="blank" unicode="&#x2423;" horiz-adv-x="549" 
d="M77 176v-99q0 -17 5 -28t14 -15t14.5 -5t14.5 -1h293q58 0 58 53v95h27v-176h-453v176h27z" />
    <glyph glyph-name="dottedcircle" unicode="&#x25cc;" horiz-adv-x="453" 
d="M57 326q5 0 9 -4.5t4 -9.5q0 -6 -4 -10t-9 -4t-9 4t-4 10q0 5 4 9.5t9 4.5zM130 390q14 0 14 -14q0 -4 -4.5 -8t-10 -4t-9.5 4t-4 8q0 6 4 10t10 4zM123 57q5 0 9 -4t4 -9q0 -6 -4 -10t-9 -4q-6 0 -10 4t-4 10q0 5 4.5 9t9.5 4zM52 122q12 0 12 -13.5t-12 -13.5
q-6 0 -10 4.5t-4 9.5t4 9t10 4zM322 64q6 0 9.5 -4t3.5 -10q0 -4 -4 -8t-9.5 -4t-9 4t-3.5 8q0 6 3.5 10t9.5 4zM381 130q13 0 13 -12q0 -14 -13 -14t-13 14q0 12 13 12zM381 321q13 0 13 -13t-13 -13t-13 13t13 13zM313 386q6 0 10.5 -4.5t4.5 -10.5q0 -5 -4.5 -9t-10.5 -4
q-5 0 -9 4t-4 9t4 10t9 5zM406 224q6 0 10.5 -4t4.5 -9t-4.5 -9t-10.5 -4q-5 0 -9 4t-4 9t4 9t9 4zM26 229q12 0 12 -14q0 -5 -3.5 -9t-8.5 -4q-14 0 -14 13q0 14 14 14zM230 30q6 0 9.5 -4t3.5 -10t-3.5 -9.5t-9.5 -3.5t-9.5 4t-3.5 9.5t3.5 9.5t9.5 4zM229 416q5 0 9 -4.5
t4 -9.5q0 -13 -13 -13q-5 0 -9.5 4t-4.5 9t4.5 9.5t9.5 4.5z" />
    <glyph glyph-name="dotlessj" unicode="&#xf6be;" horiz-adv-x="300" 
d="M218 456q-3 0 -7 -1q-15 -1 -36 -8q-32 -11 -42 -20q-3 -2 -6 -9q-2 -5 -5 -13q-5 -13 -12 -35q-2 -8 -9.5 -33.5t-10.5 -33.5q-1 -4 1 -7.5t6 -5t7.5 0.5t5.5 6q3 9 10 34.5t10 33.5q0 2 2 8q5 -94 15.5 -214t19.5 -161q1 -1 1 -3.5t1 -3.5q-23 -24 -37 -46
q-2 -1 -8.5 -11.5t-8 -13.5t-7.5 -12.5t-8 -14.5t-6 -13.5t-5 -15t-2.5 -14.5t-1 -16t1.5 -15v-1v0v0q9 -41 21 -58q22 -30 69 -30q48 0 77 36q23 30 32 81q14 74 1 155q-4 23 -8 59q34 30 49 53q3 4 2 8t-4.5 6.5t-7.5 1.5t-6 -4q-12 -19 -36 -41q-10 91 -18 203.5
t-8 151.5q0 5 -4 8q-11 7 -26 8h-2zM174 -33q14 -69 14 -111q0 -33 -8 -50q-7 -16 -23 -16q-27 0 -41 17q-8 8 -9 15v0q-4 17 3 39t14.5 35t23.5 39q10 15 26 32z" />
    <glyph glyph-name="uni0E10.descless" unicode="&#xf700;" 
d="M360 490q-5 0 -8 -4q-28 -37 -67 -80q-13 4 -27 7q-30 7 -59 7q-47 1 -88 -16q-57 -23 -81 -55q-21 -30 -9 -62q9 -26 45 -31q27 -3 56 4q51 13 116 72q42 -30 53 -56q19 -44 2 -97q-2 -6 -5 -14q-22 19 -44 33q1 5 2 7q5 23 4 36q0 4 -3.5 7t-7.5 2.5t-6.5 -3.5t-2.5 -8
q1 -9 -4 -30v-1l-0.5 0.5t-1.5 0.5q-27 14 -61 8q-39 -6 -52 -33q-12 -25 4 -58q17 -35 45 -36q23 -1 43 21q15 16 27 45q4 9 8 22q22 -15 42 -32q-4 -8 -14 -29t-15 -33q-25 -57 -13 -110q6 -26 22 -43.5t39 -20.5q20 -2 37 13q13 12 22 35q17 43 12 83q-3 24 -17 49
q3 9 6 16q34 80 43 115q16 71 -14 115q-27 40 -83 63q17 18 32.5 37t23.5 28l7 10q4 5 1 10.5t-9 5.5zM127 373h4q41 -1 87 -28l1 -0.5t2 -0.5q-61 -54 -103 -64q-26 -7 -49 -4q-25 4 -30 17q-8 23 7 44q18 24 56 33q12 3 25 3zM179 198q22 1 37 -7l2 -1t3 -2q-4 -13 -9 -24
q-11 -26 -24 -40q-14 -14 -28 -14q-16 0 -27 25q-12 24 -4 41t37 21q6 1 13 1zM343 64q6 -15 7 -25q2 -29 -9 -54q-4 -9 -8 -13q-7 -7 -9 8q-1 14 5 40q5 20 14 44z" />
    </font>
</defs>
</svg>
