<?xml version="1.0" standalone="no"?>
<!DOCTYPE svg PUBLIC "-//W3C//DTD SVG 1.1//EN" "http://www.w3.org/Graphics/SVG/1.1/DTD/svg11.dtd" >
<svg xmlns="http://www.w3.org/2000/svg" xmlns:xlink="http://www.w3.org/1999/xlink" version="1.1">
<metadata>
Created by FontForge 20170805 at Sun Jun  5 08:45:46 2016
 By Manatsawin
Copyright (C) 1999, The National Font Project (v.beta). Yannis Haralambous, Virach Sornlertlamvanich and Anutara Tantraporn. All rights reserved.

Modified under GNU General Public License, with creators' permission, by Thai Linux Working Group (TLWG).

SOV_nanga Modify by : June 2016 Worawut Thanawatanawanich. 
</metadata>
<defs>
<font id="SOV_naga_extra" horiz-adv-x="380" >
  <font-face 
    font-family="SOV_naga_extra"
    font-weight="700"
    font-stretch="normal"
    units-per-em="1000"
    panose-1="2 7 5 6 6 0 0 2 0 4"
    ascent="800"
    descent="-200"
    x-height="450"
    cap-height="540"
    bbox="-462 -387.286 1286 929.734"
    underline-thickness="30"
    underline-position="-50"
    unicode-range="U+0020-FB04"
  />
<missing-glyph horiz-adv-x="274" 
d="M16 406v-390h242v390h-242zM274 0h-274v423h274v-423z" />
    <glyph glyph-name="trademark" unicode="TM" horiz-adv-x="590" 
d="M357 452q-28 0 -46 -19q-14 -15 -20 -41q-9 -41 3 -89q4 -16 6 -38q10 -4 14 -9q18 -15 15 -30q-1 -6 -4 -13q5 13 3 22q-3 11 -17 23l-1.5 1.5t-1.5 0.5v0v0q-1 1 -1.5 1h-0.5v0l-1 1l-0.5 0.5t-1.5 0.5v0q-1 0 -2 1h-1q-12 5 -16 8q-3 1 -5.5 7.5t-2.5 10.5
q-3 -3 -6 -16q-2 -18 1 -28q4 -9 11 -13q-1 3 2 3.5t7 -1.5q4 -3 2 -8l-3 -7q-4 -7 -5 -14q-2 -11 -1 -20q0 -7 1.5 -12t5.5 -8q6 -6 14 -6q13 0 20 11q4 6 7 15q4 14 4 37q2 46 -8 87q-10 42 -3 75q4 18 12 26t20 8q3 0 7 -4q7 -6 13 -19q8 -20 15 -50q-2 -10 -3 -16
q-6 -42 -5 -77q0 -17 3 -28q1 -7 4 -11q7 -11 18.5 -11t18.5 11q3 4 4 11q3 11 3 28q1 35 -5 77q-1 6 -3 16q6 30 15 50q6 13 13 19q4 4 7 4q12 0 19 -8q7 -9 11 -27q5 -29 -1 -76q-2 -22 -3 -38t-0.5 -36t5 -33.5t12 -26t22 -19t33.5 -6.5q-16 14 -25.5 31.5t-12 39.5
t-1.5 40t5 44q6 52 0 86q-5 26 -18 42q-18 20 -46 20q-18 0 -33 -15q-10 -10 -19 -29v-0.5t-1 -0.5v0.5v0.5q-9 19 -19 29q-15 15 -33 15zM34 464q-2 -1 -3 -14.5t0 -23.5q3 -19 13 -32q5 -8 11 -10q-3 5 -1 10t9 6q14 1 17 1h9q26 -4 50 -6q-3 -12 -6 -29q-6 -38 -4 -76v0
q1 -11 5.5 -42t2.5 -46q-4 -28 -28 -48q23 0 39 14t20 28q2 12 2.5 25.5t-0.5 23.5t-3 24t-2 22v1q-2 35 4 70q2 18 6 28l0.5 0.5l0.5 0.5q16 -1 28 -1q36 -1 51 6q10 4 15 9q5 7 3 15q-2 6 -10 10q-6 3 -16 3q-6 1 -15 1q-42 -2 -70 -11h-1q-9 0 -14 1q-16 2 -33 4
q-24 4 -32 6t-15 2.5t-10 1.5t-7 3q0 1 -2.5 2.5t-3.5 2t-3 2t-2.5 2.5t-2 2.5t-2 3.5t-0.5 4v4z" />
    <glyph glyph-name="uvSOV" unicode="&#xe2f;&#xe23;&#xe2d;&#xe07;&#xe2f;" horiz-adv-x="1310" 
d="M743 543q0 1 6 -3q8 -7 29 -3q20 5 30 -4q5 -6 8 -6t11 6q8 5 12.5 4.5t12.5 -8.5q6 -6 8 -7t6 0q5 0 5 -1q-3 -2 -9.5 -2t-14 8t-11.5 6.5t-9 -6.5t-10.5 -5.5t-12 5t-9.5 2.5q-5 -5 -19 -61q-7 -28 -2 -34q3 -4 9.5 -3t9.5 -1.5t1 -3.5q0 -1 -2 1q-3 2 -7 -1
q-8 -4 -16 5t-28 44q-26 44 -34 48q-4 1 -6.5 4.5t-7.5 5.5l2 1q7 -1 10.5 -3t17.5 -1l13 1l6 -7q5 -6 7 -5.5t2 -1t-2.5 -1.5t-5.5 2l-5 2q-4 4 -7 3q-3 -2 -1.5 -6t14.5 -25q14 -23 15 -21q1 3 6 28.5t5 27.5q-1 2 -9 3t-13 6.5t-5 6.5zM614 568q2 7 3 7q1 -1 1 -6
q0 -10 9 -3q5 3 12 2t10 -6q6 -9 -1 -34q-5 -16 -5 -21t5 -9q4 -5 14 -4t17 1h8v6q-1 7 -13 29q-6 11 -4.5 21.5t9.5 15.5q6 3 14.5 1t11.5 -7q1 -3 0 -11v-8l4 -2q8 -2 -2 -3q-3 -1 -7 -1q-8 0 -10 4q-6 9 2 12q3 2 2.5 3.5t-4.5 2t-6 -3.5q-6 -8 8 -25q14 -16 14 -30
q0 -9 -5.5 -15t-5.5 -11q0 -4 1 -5t6 -2l6 -2h-7q-9 0 -13 10l-3 5h-22q-19 1 -24.5 3t-10.5 10q-6 9 1 37q7 25 3 25q-2 0 -6 -2t-8 -1q-8 4 -4 17zM682 585q40 9 47 -4q3 -6 -2 -2q-9 6 -34 -1q-22 -6 -33 -2q-4 2 -8.5 5t-8.5 3l-2 2q2 3 17 -1q9 -2 24 0zM579 -63
q15 -3 39 -3q21 -1 40 1q1 -1 64 14q31 7 52 17q13 7 30.5 22t29.5 29q36 44 50.5 92.5t6.5 93.5q-17 98 -92 147q-59 39 -141 55q-16 3 -45 3t-40 -3l-11 -3l9 10q29 35 29 68q0 24 -12.5 44.5t-30.5 27.5q-11 4 -51 3q-21 0 -28 1q-38 11 -36 53q1 13 5 22q10 21 45 43
q21 14 28 21.5t7 18.5t-6.5 20t-26.5 26q-31 27 -31 46q0 12 15 28t17 38q2 23 -4 35l1 -7q3 -22 -3 -38t-27 -29q-19 -13 -21.5 -26.5t10.5 -35.5q15 -25 16 -39q1 -9 -3 -17q-5 -12 -22 -26q-37 -29 -48 -70q-4 -14 -4 -36t4 -34q10 -32 31 -44.5t64 -10.5l24 1l8 -6
q14 -11 14 -28q0 -22 -41 -61q-58 -54 -74 -95q-20 -50 3 -80q2 -3 5 -5q16 -18 17 -13q1 2 5 18q27 101 123 113q37 4 74 -1q72 -9 118 -56q53 -55 53 -119q0 -34 -8 -57t-27 -47q-11 -13 -31 -27.5t-38 -21.5q-30 -13 -52 -18q-18 -4 -55 -2t-59 7q-67 17 -66 88
q0 34 19 54q14 13 40 20q42 10 53 -24q6 -15 0 -20q-4 -2 -7 1q-11 10 -25.5 6.5t-20.5 -17.5q-4 -10 -3.5 -24.5t6.5 -24.5q9 -17 23 -24q20 -11 52 -9.5t59 13.5l9 4h-16q-43 1 -53 11q-4 4 -4 13q2 17 15 36q16 24 2 57q-8 20 -19.5 30.5t-31.5 15.5q-11 3 -36 3t-35 -3
q-30 -8 -54 -32t-31 -52q-6 -24 -4 -51q3 -28 16 -52.5t32 -37.5q17 -13 51 -25t60 -15zM22 221l7 -6q7 -6 22.5 -13.5t26 -10.5t59 -3t53.5 -2.5t7.5 -6.5t-1.5 -16q-8 -24 -1 -44q3 -10 2 -10q-8 -3 -11 -12q-1 -5 0 -14q2 -11 9 -17t29 -14q33 -12 23 -41
q-5 -14 -24.5 -26.5t-36.5 -12.5q-9 0 -34 5q-46 9 -73 2q-11 -3 -12 -4l2 -1q18 4 37 4q20 0 52 -8q27 -8 52 -3q18 4 33 15q11 9 17 24t3 31q-2 10 -4 15q-6 12 -23 18q-9 4 -13.5 7t-3.5 5q3 5 18 0q12 -4 46.5 -4t52.5 4q25 5 42 18q34 25 31 84q-1 24 -16 40
q-13 14 -55 29q-63 23 -83 37q-23 15 -27 27q-8 20 12 35q25 18 57 18q30 0 52 -9q11 -4 20 -13t12 -19q3 -11 1.5 -24t-6.5 -13q-2 0 -8.5 4t-16.5 4.5t-11.5 2t0.5 9.5t-1 13q-4 9 -17 15h-2q12 -10 13.5 -14.5t-6.5 -16.5q-11 -16 -3 -31q4 -8 12 -11q24 -10 45 9
q10 10 12.5 17.5t2.5 25.5q0 28 -7.5 40t-32.5 23l-18 9q-21 13 -7 37q5 9 4 9q-1 1 -2.5 -1t-3 -5t-3.5 -6t-3.5 -6.5t-1.5 -4.5q-3 -16 6 -27l4 -4h-4q-3 0 -16 3q-27 6 -55 -3t-46 -30q-19 -23 -17 -55q1 -24 17.5 -37t83.5 -42q42 -19 55.5 -28t19.5 -20q5 -11 3 -25.5
t-9 -22.5q-8 -8 -30.5 -17t-38.5 -10q-21 -2 -42 7t-27 22q-4 11 0 28l2 8l5 -3q8 -5 19 0q12 5 12 20q0 12 -8 23t-19 14q-26 6 -94 -5q-60 -10 -87 -2q-26 7 -33 13zM1286 321h-7q-14 -3 -27 4q-11 6 -21 21q-12 20 -31 27q-22 9 -85 1q-58 -7 -73 -2q-6 3 -15 10t-17 7
t-14 -2t-11 -1q-11 3 -21 23l-4 10l1 -9q2 -18 14 -29t25 -8q7 1 9 0.5t6 -7.5q6 -13 26 -14q12 -1 14 -5q4 -7 -2 -24.5t-39 -93.5q-41 -96 -42 -96l-38 91l-42 102q-1 1 -0.5 1.5t2 0.5t4 0.5t6.5 0.5q20 1 25 11t16 4q25 -15 2 -45q-15 -18 -15 -41q0 -17 11 -26
q14 -13 17 -11l-4 4q-22 14 -18 36q4 17 18 36q13 18 13 30q0 17 -17 35q-11 11 -36 14q-12 2 -17 0.5t-13 -9.5q-8 -9 -11 -8t-8 10q-7 13 -13 16t-17 -1t-13.5 -2.5t-8.5 12.5q-9 18 -26 18l-7 -1l8 -1q15 -3 19 -21q2 -10 5 -13t22 0q7 1 11 -2q8 -5 56 -137
q41 -114 57 -146q24 -50 44 -60q15 -8 14 -23l1 -7q2 2 2.5 12t-1.5 13t-13 8t-13 8q-7 7 0 29q4 14 50.5 123t57.5 129q11 22 40 36q23 12 41 10q28 -5 47 -31q21 -30 44 -21z" />
    <glyph glyph-name="ff" unicode="ff" horiz-adv-x="414" 
d="M104 321q23 69 38 95q47 78 142 78q25 0 42.5 -11.5t20.5 -29.5q24 29 46 42t51 13q27 0 45.5 -14t18.5 -35q0 -12 -9 -20.5t-22 -8.5q-12 0 -20 8t-8 21q0 3 3.5 12t3.5 13q0 8 -16 8q-32 0 -53.5 -41t-38.5 -130h82l-5 -25h-82l-54 -239q-23 -103 -61.5 -157.5
t-87.5 -54.5q-25 0 -42.5 13.5t-17.5 31.5q0 13 8 22t20 9q11 0 20 -8.5t9 -20.5q0 -3 -3.5 -9.5t-3.5 -10.5q0 -5 4.5 -8.5t10.5 -3.5q47 0 73 123l66 313h-127l-53 -239q-24 -103 -62.5 -157.5t-87.5 -54.5q-24 0 -42 13.5t-18 31.5q0 13 8 22t20 9t21 -8.5t9 -20.5
q0 -3 -4 -9.5t-4 -10.5q0 -12 16 -12q48 0 72 123l66 313h-67l5 25h68zM326 416h-9q-12 0 -19.5 8t-7.5 21q0 3 3 12t3 12q0 9 -16 9q-49 0 -73.5 -36t-45.5 -121h129q18 58 36 95z" />
    <glyph glyph-name="fi" unicode="fi" horiz-adv-x="374" 
d="M-48 -108q0 -4 -4 -11t-4 -9q0 -9 16 -9q18 0 30 11t22.5 42t16 53.5t15.5 76.5q2 12 4 18q45 218 51 232h-65l6 25h64q13 41 24.5 68.5t32.5 58t51.5 47t71.5 16.5q33 0 54.5 -14.5t21.5 -38.5q0 -14 -8 -23t-23 -9q-13 0 -22 9t-9 23q0 10 5.5 17l5.5 7q0 12 -27 12
q-20 0 -35.5 -8t-26.5 -20t-22 -37t-18.5 -46.5t-18.5 -61.5h113q21 0 61 5q5 0 8.5 1t4.5 1l4 -2q0 -7 -37 -145t-37 -145.5t8 -7.5q18 0 58 51l12 -6q-31 -42 -53.5 -60t-45.5 -18q-16 0 -26.5 9.5t-10.5 26.5q0 26 48 189q18 69 18 70q0 6 -12 6h-117l-53 -239
q-24 -103 -62.5 -157.5t-88.5 -54.5q-26 0 -42.5 12.5t-16.5 33.5q0 13 8 21.5t20 8.5t21 -8.5t9 -20.5z" />
    <glyph glyph-name="fl" unicode="fl" horiz-adv-x="374" 
d="M220 31q0 25 29.5 139.5t31.5 125.5h-124l-51 -232q-24 -105 -63.5 -161t-89.5 -56q-26 0 -42.5 12.5t-16.5 34.5q0 12 8 20.5t19 8.5q13 0 22 -8t9 -19q0 -6 -4 -12.5t-4 -7.5q0 -10 16 -10q11 0 20 5t12.5 9.5t9.5 15.5l7 10q16 44 31.5 111t32.5 155.5t25 123.5h-67
l4 25h69q16 55 30.5 84t38.5 56q47 51 113 51q18 0 40.5 -4.5t29.5 -4.5q4 0 15 4.5t14 4.5q4 0 4 -8l-111 -461v-8q0 -7 8 -7q16 0 58 51l12 -6q-33 -46 -54 -63t-45 -17q-16 0 -26.5 10.5t-10.5 27.5zM308 456q0 5 4 13.5t4 9.5q0 6 -10 11.5t-22 5.5q-80 0 -118 -160
l-5 -15h125l28 109l1 2q0 4 -3.5 11.5t-3.5 12.5z" />
    <glyph glyph-name="ffi" unicode="ffi" horiz-adv-x="414" 
d="M104 321q23 69 38 95q47 78 142 78q26 0 44 -12t20 -32q2 2 5 6t14 15t24 18.5t34 14.5t44 7q34 0 55.5 -14.5t21.5 -38.5q0 -14 -8 -23t-22.5 -9t-23 9t-8.5 23q0 12 5 17.5t5 6.5q0 12 -26 12q-33 0 -56 -24.5t-33 -51t-29 -90.5l-3 -7h113q22 0 48 3l26 4l4 -2
q0 -6 -37 -144.5t-37 -146t7 -7.5q8 0 26 16.5t33 34.5l12 -6q-32 -43 -54.5 -60.5t-45.5 -17.5q-16 0 -26 9.5t-10 26.5q0 26 48 189q17 66 17 70q0 6 -12 6h-116l-54 -239q-23 -103 -61.5 -157.5t-88.5 -54.5q-27 0 -43 12.5t-16 33.5q0 13 8 21.5t20 8.5q11 0 20 -8.5
t9 -20.5q0 -4 -3.5 -10t-3.5 -10q0 -9 15 -9q37 0 58 65q11 33 31 136q44 216 50 232h-127l-53 -239q-24 -103 -62.5 -157.5t-87.5 -54.5q-24 0 -42 13.5t-18 31.5q0 13 8 22t20 9t21 -8.5t9 -20.5q0 -3 -4 -9.5t-4 -10.5q0 -12 16 -12q48 0 72 123l66 313h-67l5 25h68z
M326 416h-9q-12 0 -19.5 8t-7.5 21q0 3 3 12t3 12q0 9 -16 9q-49 0 -73.5 -36t-45.5 -121h129q19 64 36 95z" />
    <glyph glyph-name="ffl" unicode="ffl" horiz-adv-x="414" 
d="M494 456q0 4 4 12.5t4 10.5q0 6 -10 11.5t-22 5.5q-80 0 -118 -160l-5 -15h125l28 109l1 2q0 2 -3.5 9.5t-3.5 14.5zM104 321q23 69 38 95q47 78 142 78q26 0 44 -12.5t20 -33.5q53 64 124 64q16 0 40 -4.5t29.5 -4.5t16.5 4.5t12 4.5q4 0 4 -8l-110 -461v-8q0 -7 7 -7
q15 0 59 51l12 -6q-33 -46 -54.5 -63t-45.5 -17q-16 0 -26 10.5t-10 27.5q0 19 12 71t28.5 112.5t20.5 81.5h-124l-52 -232q-23 -105 -62.5 -161t-89.5 -56q-27 0 -43 12.5t-16 34.5q0 12 8 20.5t18 8.5q13 0 22 -8t9 -19q0 -6 -3.5 -12t-3.5 -8q0 -10 16 -10q14 0 25 8.5
t23 31.5q15 40 29 100.5t31.5 151t29.5 138.5h-127l-53 -239q-24 -103 -62.5 -157.5t-87.5 -54.5q-24 0 -42 13.5t-18 31.5q0 13 8 22t20 9t21 -8.5t9 -20.5q0 -3 -4 -9.5t-4 -10.5q0 -12 16 -12q48 0 72 123l66 313h-67l5 25h68zM326 416h-9q-12 0 -19.5 8t-7.5 21
q0 3 3 12t3 12q0 9 -16 9q-49 0 -73.5 -36t-45.5 -121h128q19 62 37 95z" />
    <glyph glyph-name=".notdef" horiz-adv-x="274" 
d="M16 406v-390h242v390h-242zM274 0h-274v423h274v-423z" />
    <glyph glyph-name=".null" horiz-adv-x="0" 
 />
    <glyph glyph-name="nonmarkingreturn" horiz-adv-x="249" 
 />
    <glyph glyph-name="space" unicode=" " horiz-adv-x="300" 
 />
    <glyph glyph-name="exclam" unicode="!" horiz-adv-x="220" 
d="M49 460q-8 -6 -13 -36q-6 -34 0 -61q3 -12 9.5 -26t11.5 -17q-5 13 1 19t12 6q13 0 15 -17q1 -16 0 -28.5t-4.5 -34t-5.5 -35.5q-7 -59 12 -95t56 -35q-20 20 -21 49t10 91q2 9 6.5 33t6 37.5t1 32t-7 31.5t-19.5 21h-1q-7 5 -26.5 11t-27.5 13q-6 4 -10.5 17.5
t-4.5 23.5zM52 109q9 -6 13 -17q3 -7 2 -13q-23 -18 -23 -46q0 -8 2 -17q2 -16 15 -30q13 -15 41 -21q13 -4 28 2t24 17q9 9 15 24q5 10 6 21q2 15 -4 26q-13 25 -41 34q-20 6 -38 2q23 -20 24 -49q0 -4 -0.5 -5t-2.5 2q-6 3 -13 0t-8 -10q-2 -6 2.5 -11.5t12.5 -7.5
q18 -5 31 16q-8 -14 -21 -17t-15 1q-13 6 -13 14q0 9 5.5 14t11 4.5t8.5 -2.5q2 13 -7 30q-6 11 -18 20q0 1 -1 1l-2 2t-3 2q-15 11 -31 14zM180 40v-40h20v40h-20z" />
    <glyph glyph-name="quotedbl" unicode="&#x22;" horiz-adv-x="220" 
d="M123 505q-9 -14 -12 -31q-3 -20 2 -35q5 -19 15 -26q0 4 0.5 6t4 4t10.5 2q15 0 7 -40q-10 -49 -37 -73q19 0 45 30q18 21 26.5 38.5t8.5 44.5q0 12 -8 23t-22 15q-3 1 -12.5 2t-15 5t-9.5 14t-3 21zM43 485q-9 -14 -12 -31q-3 -20 2 -35q5 -19 15 -26q0 4 0.5 6t4 4
t10.5 2q15 0 15 -30q1 -31 -35 -63q10 0 24.5 9t22.5 19q24 28 23 65q0 12 -8 23t-22 15q-3 1 -12.5 2t-15 5t-9.5 14t-3 21z" />
    <glyph glyph-name="numbersign" unicode="#" 
d="M115 396q-11 -17 -14 -38q-4 -23 2 -42q6 -22 18 -31q0 5 3.5 7.5t7.5 -0.5q7 -7 9 -18v-2v-1q-9 2 -20 5q-11 4 -19 5.5t-11 2t-8 2t-11 5.5q-28 13 -26 45q-3 -4 -5.5 -28t0.5 -42q4 -23 21 -51q11 -16 17 -19q-9 25 12 25q1 0 37 -3q9 0 13 -1q-1 -12 -3 -30
q-1 -7 -1 -15l-16 4q-11 4 -19 5.5t-11 2t-8 2t-11 5.5q-28 13 -26 45q-3 -4 -5.5 -28t0.5 -42q4 -23 21 -51q11 -16 17 -19q-9 25 12 25q1 0 37 -3h3h3q1 -36 12.5 -55.5t38.5 -22.5q-14 17 -6 77q27 1 55 3q1 -36 12 -56.5t39 -23.5q-14 18 -5 86q55 8 67 19q7 7 9 16v0
q0 5 -0.5 8.5t-3.5 6t-4 3.5t-6 3.5t-6 2.5q18 7 20 20q0 5 -7 11q-2 -15 -22 -19.5t-24 -7.5q-10 -11 -5 -20l3 -3h-7h-8q1 9 2 15v1q2 28 3 46q46 7 56 17q7 7 9 16v0q0 5 -0.5 8.5t-3.5 6t-4 3.5t-6 3.5t-6 2.5q18 7 20 20q0 5 -7 11q-2 -15 -22 -19.5t-24 -7.5
q-10 -11 -5 -20l3 -3h-10v3q0 8 -1 17q-2 25 -5 35t-13 17q-2 2 -24.5 9.5t-28.5 23.5q-5 12 -4 25q-11 -17 -14 -38q-4 -23 2 -42q6 -22 18 -31q0 5 3.5 7.5t7.5 -0.5q7 -7 9 -18v-8q-4 0 -22 -0.5t-28 -0.5v4q0 8 -1 17q-2 25 -5 35t-13 17q-2 2 -24.5 9.5t-28.5 23.5
q-5 12 -4 25zM241 221q-1 -14 -3 -34q-1 -12 -2 -21q-27 -1 -47 -1q-1 1 -3 1q1 9 2 15v1q2 20 3 35z" />
    <glyph glyph-name="dollar" unicode="$" horiz-adv-x="340" 
d="M195 480q-38 -13 -49 -84q-26 -5 -47 -18t-35 -36.5t-14 -51.5q0 -44 44 -76q24 -17 56 -27q1 -15 1 -23q0 -54 -3 -95q-12 4 -22 7q-24 8 -40 7q-12 -1 -25 -10t-19 -21q-10 -24 2 -50q8 -21 27 -37q44 -40 89 -23h1q2 1 3 1v0q19 9 30 37q3 10 6 21q36 5 66 24
q24 15 39 39.5t15 55.5q0 57 -50 89q-28 18 -75 28q-1 11 -3.5 32t-4 38.5t-3.5 32.5q16 3 41 -12q17 -10 25 -18q15 -15 0 -30q10 0 25 10q33 23 45 50q7 14 9 39t0 31q-6 -16 -8 -21t-6 -10t-11 -8q-11 -5 -20 -3.5t-31 14.5q-23 14 -53 17q-9 1 -19 1q-1 62 14 80z
M141 332q0 -33 3 -78q-9 4 -15 9q-19 14 -19 27q0 24 21 37q4 3 10 5zM201 174q23 -7 36 -15t18 -16.5t5 -22.5q0 -27 -26 -44q-12 -7 -28 -12q0 13 -2.5 47t-2.5 53v10zM101 21q6 -1 7 -2q5 -1 15.5 -5.5t15.5 -5.5q-1 -9 -3 -10q-9 -3 -25 12q-6 5 -10 11z" />
    <glyph glyph-name="percent" unicode="%" 
d="M319 440q0 -9 -5 -23t-10.5 -18t-13 -7.5t-18 -7t-14.5 -5.5q-6 -1 -10 -4q-7 -4 -11 -8q-14 -14 -28 -47q-1 -1 -2 -3l-4 -12q-8 -16 -14 -30l-27 -63l-45 -105q-21 -43 -35 -70.5t-34.5 -57t-35.5 -39.5q50 0 91 39.5t68 100.5l1 1v1.5v0.5h1l45 105l45 105q5 14 8 18
l3 3v1q4 3 7 7q2 2 4 3q7 7 17.5 1t8.5 -26q4 3 11 17t10 26q6 27 0 61q-6 30 -13 36zM81 401q28 -14 44 -26q-7 0 -22 4.5t-21 3.5q-24 -2 -37 -21q-14 -21 -14 -48q0 -13 5 -26q4 -10 11 -18q16 -19 45 -23q28 -4 55 18q25 22 28 50q0 31 -20 53q5 14 5 28q-5 -9 -13 -16
l-4 -2q-23 16 -62 23zM146 349q2 -6 4 -22q2 -18 -13.5 -31t-38.5 -10q-8 1 -15 5q-13 9 -9 28v0v3q1 1 1 2v1q3 13 11 15q8 3 14.5 -1t7 -10t-0.5 -9q13 2 27 14q7 6 12 15zM261 161q28 -14 44 -26q-7 0 -22 4.5t-21 3.5q-24 -2 -37 -21q-14 -21 -14 -48q0 -13 5 -26
q4 -10 11 -18q16 -19 45 -23q28 -4 55 18q25 22 28 50q0 31 -20 53q5 14 5 28q-5 -9 -13 -16l-4 -2q-23 16 -62 23zM326 109q2 -6 4 -22q2 -18 -13.5 -31t-38.5 -10q-8 1 -15 5q-13 9 -9 28v0v3q1 1 1 2v1q3 13 11 15q8 3 14.5 -1t7 -10t-0.5 -9q13 2 27 14q7 6 12 15z" />
    <glyph glyph-name="ampersand" unicode="&#x26;" 
d="M187 404h-6q-32 -3 -47 -28v0q0 -1 -1 -2q-8 -17 -6 -45q3 -22 11 -51l4 -14q-56 -38 -87 -102q-17 -35 -19 -66q-2 -39 21 -66q17 -20 43.5 -27.5t49.5 -2.5q59 13 102 53q64 -73 138 -73q-49 29 -102 115q2 3 5.5 8.5t4.5 8.5q8 12 15 22h1q5 7 11 11q7 7 17.5 1
t8.5 -26q4 3 11 17t10 26q6 27 0 61q-6 30 -13 36q0 -9 -5 -23t-11 -18q-8 -7 -32 -15t-34 -17q-11 -10 -20 -29q-1 -1 -1.5 -2l-0.5 -1q-8 14 -15 28q-13 26 -24 52q15 6 24 12q23 12 35 27q19 23 15 50q-7 45 -63 70q-21 10 -40 10zM195 346q11 1 23 -9.5t12 -20.5
q0 -5 -4 -9t-8.5 -6.5t-12 -5t-9.5 -3.5q-1 4 -4 11t-5 12.5t-3.5 11t-0.5 10t4 7.5q3 2 8 2zM164 205q10 -25 22 -49q14 -29 30 -55q-43 -43 -82 -46q-18 -2 -28.5 9.5t-9.5 28.5q1 19 13 42q19 40 55 70z" />
    <glyph glyph-name="quotesingle" unicode="'" horiz-adv-x="200" 
d="M40 500q-9 -7 -4 -45t23 -65q10 -16 24 -23q-2 3 -2 7q0 3 4.5 7t11.5 4q20 0 21 -19v-1q1 -21 -26.5 -41t-56.5 -24q34 -9 70 7t53 45q18 32 6 68q-5 16 -25 29q-19 12 -43 6t-32 -1q-7 4 -15.5 20.5t-8.5 25.5z" />
    <glyph glyph-name="parenleft" unicode="(" horiz-adv-x="300" 
d="M165 527q-6 -3 -13 -23q-8 -23 -7 -42q2 -26 10 -33q1 15 10.5 18t15.5 -4q3 -3 5 -7v-2q6 -15 0 -27q-5 -9 -24 -24q-31 -25 -41 -35q-57 -57 -57 -148t57 -148q10 -10 41 -35q19 -15 23 -23l1 -1q1 -3 2 -7q-1 -8 -12 -23l-12.5 -12.5t-15 -20t-2.5 -23.5q4 -31 25 -42
q-6 10 -2 22t9.5 18.5t16 19.5t16.5 25q16 34 1 58q-7 13 -31 32q-30 24 -39 33q-48 48 -48 127t48 127q9 9 39 33q24 19 31 33q4 7 5 14q1 1 1 3v3q2 14 -2 28q-4 17 -16 32q-4 5 -14 11.5t-15 12.5q-4 3 -5.5 13t-0.5 17z" />
    <glyph glyph-name="parenright" unicode=")" horiz-adv-x="300" 
d="M118 527q1 -7 -0.5 -17t-5.5 -13q-5 -6 -15 -12.5t-14 -11.5q-12 -15 -16 -32q-4 -13 -3 -27h1q0 -4 1 -7q1 -7 5 -14q7 -14 31 -33q30 -24 39 -33q48 -48 48 -127t-48 -127q-9 -9 -39 -33q-24 -19 -31 -32q-15 -24 1 -58q6 -12 16.5 -25t16 -19.5t9.5 -18.5t-2 -22
q21 11 25 42q2 14 -2.5 23.5t-15 20l-12.5 12.5q-11 15 -12 23q1 3 2 7l1 1q4 8 23 23q31 25 41 35q57 57 57 148t-57 148q-10 11 -41 35q-19 15 -24 24q-6 12 0 27v2q2 4 6 7q5 7 14.5 4t10.5 -18q8 7 10 33q1 19 -7 42q-7 20 -13 23z" />
    <glyph glyph-name="asterisk" unicode="*" horiz-adv-x="310" 
d="M137 320q-4 -7 -6 -25q-2 -17 1 -28q3 -17 9 -21q0 4 2.5 5.5t4.5 -0.5q2 -3 -1 -32q-24 18 -24 21t3 4t5 -2q1 7 -9 21q-7 10 -20 20q-15 11 -22 12q6 -5 10 -13q3 -10 3.5 -13t-3.5 -8.5t-5 -8.5q-5 -16 11 -32q7 -7 22 -17q-17 -2 -19 0t-0.5 4.5t5.5 2.5q-4 5 -21 9
q-8 2 -17 2q-5 0 -11 -1q-18 -2 -25 -6q9 1 17 -2t11 -7t3.5 -10t1.5 -9q7 -15 31 -16q10 0 33 3q-14 -19 -18 -19q-3 0 -3.5 2.5t1.5 5.5q-6 0 -20 -9q-10 -7 -20 -20q-12 -15 -13 -23q5 7 13 11q11 3 13.5 3.5t8 -3.5t8.5 -5q16 -6 33 11q6 6 16 21q-1 -9 -2 -16
q-3 -27 4 -44t25 -22.5t41 5.5q-24 3 -33 20t-7 37q0 5 2 16q9 -12 14 -17q16 -17 32 -11q3 1 8.5 5t8.5 3.5t13 -3.5q8 -4 13 -11q-1 8 -12 23q-10 13 -20 20q-14 9 -21 9q3 -3 2 -5.5t-4 -2.5t-17 18q22 -3 33 -3q24 1 31 16q1 3 1.5 9t3.5 10t11 7t17 2q-7 4 -25 6
q-8 1 -14 1q-8 0 -14 -2q-17 -3 -21 -9q4 0 5.5 -2.5t-0.5 -4.5t-21 0q16 11 23 18q17 16 11 32q-1 3 -5 8.5t-3.5 8.5t3.5 13q4 8 11 13q-8 -1 -23 -12q-13 -10 -20 -20q-9 -14 -9 -21q3 3 5.5 2t2.5 -4t-18 -17q3 23 3 33q-1 24 -16 31q-3 1 -9 1.5t-10 3.5t-7 11t-2 17z
" />
    <glyph glyph-name="plus" unicode="+" horiz-adv-x="300" 
d="M111 345q-11 -17 -14 -38q-4 -23 1 -42q7 -22 19 -31q-1 6 3 8t8 -1q4 -4 3 -16v-10q-21 -2 -31 -2h-6t-5 1q-8 1 -14 1q-11 1 -17.5 -3t-9.5 -10q-5 -10 -2 -19q4 -11 13 -15q8 -4 22 -5h8q12 -3 22 -7q13 -6 20 -15q1 -17 2 -27q1 -17 7 -25t14 -9q13 -2 24 7q4 4 6 12
q7 31 -4 56v0.5v1.5v14q65 8 85 -16q0 62 -84 63q0 11 1 20q4 16 3 28.5t-14 20.5q-4 4 -17 6.5t-24 8.5t-15.5 18t-3.5 25z" />
    <glyph glyph-name="comma" unicode="," horiz-adv-x="200" 
d="M43 132q-7 -6 -3 -36q4 -31 18 -53q8 -12 19 -18q-1 3 -1 6q0 2 2 5t7.5 6.5t12.5 3.5q26 0 27 -23v-1v0q-1 -29 -28.5 -51t-56.5 -26q34 -10 70 6t53 45q10 17 10 39v1v3q0 13 -0.5 20t-6 16t-16.5 16q-15 9 -48 4.5t-40 -0.5q-5 3 -12 16t-7 21z" />
    <glyph glyph-name="hyphen" unicode="-" horiz-adv-x="300" 
d="M50 280q-3 -4 -5.5 -28t0.5 -42q4 -23 21 -51q10 -16 17 -19q-9 25 12 25q1 0 37 -3q24 -2 48 -2q65 3 91 29q7 6 9 15v1q0 5 -1 9l-1 1q-1 5 -7 8l-4 2l-1 1q-1 0 -2.5 1t-3.5 2q18 7 20 20q0 5 -7 11q-2 -15 -35 -19.5t-37 -8.5q-11 -10 -5 -19q0 -1 1 -1q-27 -5 -72 8
q-11 3 -19 5t-11 2.5t-8 2t-11 4.5q-28 14 -26 46z" />
    <glyph glyph-name="period" unicode="." horiz-adv-x="200" 
d="M91 162q4 -9 4 -20q-1 -8 -4 -13q-30 -6 -42 -30q-4 -8 -6 -17q-6 -15 -1 -33q6 -19 27 -38q10 -9 26.5 -10.5t29.5 3.5q12 5 24 15q9 7 15 16q8 13 8 25q0 28 -21 49q-15 15 -33 19q12 -29 -1 -54q-4 -8 -4 -2q-4 6 -11.5 6.5t-11.5 -5.5q-10 -10 4 -23q14 -14 35 -1
q-9 -6 -18.5 -6t-14 3t-6.5 6q-9 10 -5 18t11 10t12.5 -1t5.5 -6q8 10 7 29q0 13 -6 27l-0.5 1t-0.5 2l-2 4q-8 16 -21 26z" />
    <glyph glyph-name="slash" unicode="/" horiz-adv-x="300" 
d="M284 520q0 -9 -5 -23t-10 -18q-8 -6 -30 -16t-31 -20q-10 -14 -24 -62l-18 -57l-35 -115l-35 -115q-11 -37 -18.5 -58.5t-25 -52t-37.5 -43.5q54 11 92 55t51 95q4 17 16 54t15 47l35 115l16 54q3 6 6 17t6.5 18.5t7.5 9.5q5 2 9.5 2.5t6.5 -6.5t0 -21q5 3 11.5 17
t9.5 26q6 27 0 61q-5 30 -13 36z" />
    <glyph glyph-name="zero" unicode="0" 
d="M203 594q-3 -2 -9.5 -18.5t-9.5 -33.5q-72 -30 -113.5 -97.5t-40.5 -154.5v0v-3q7 -124 51 -202q48 -85 119 -85q36 0 67.5 21.5t51.5 59.5q40 74 41 199q0 55 -6 89.5t-23 73.5q-19 43 -53 71q-8 6 -26 13t-24 10q23 12 52 23q-34 0 -65 -8q-11 17 -12 42zM183 507
q2 -19 13 -47q6 -18 13 -25q-9 22 11 27q29 8 57 -46q24 -45 23 -136q-1 -110 -34 -171q-26 -49 -66 -49q-36 0 -67 55q-37 66 -43 176q0 142 93 216z" />
    <glyph glyph-name="one" unicode="1" horiz-adv-x="260" 
d="M85 590q-9 -18 -12 -40q-6 -36 0 -61q3 -12 9.5 -26t11.5 -17q-6 12 -1 17.5t8.5 6.5t8.5 1q12 0 14 -32q8 -204 -3 -357q-5 2 -11 3q-30 4 -47 -14q0 -1 -0.5 -1.5l-1 -1l-0.5 -0.5l-4 -6v-1q-6 -13 -3 -26q4 -13 16 -23q16 -12 39 -13q26 -1 45 13l2 2q15 -8 25 -10.5
t26 4t33 27.5q-32 -7 -63 12q2 8 3 16q11 137 7 307v19q0 60 -5 95q-1 7 -3 14v2h-1v1v1q-6 16 -18 28q-11 11 -22.5 10.5t-18.5 -4.5t-18 3q-10 6 -16 51z" />
    <glyph glyph-name="two" unicode="2" horiz-adv-x="340" 
d="M23 560q-3 -6 4.5 -29.5t17.5 -43.5q29 -61 61 -86q16 -14 37 -17q-2 2 -9 16q-5 12 -1 25t12 21q11 11 26.5 17t35.5 2t35 -21q24 -27 18 -76q-2 -20 -9.5 -34.5t-28.5 -42.5q-25 -35 -93 -109q-63 -70 -80 -96q-5 -9 -6.5 -11t-5.5 -11t-2.5 -13t0.5 -15q4 -19 21 -29
q11 -6 26 -7h2q29 -1 57 9.5t38 10.5q13 -1 39 -12q29 -18 63.5 3.5t38.5 68.5q-17 -21 -37 -26t-34.5 1t-34.5 13t-34 6q-39 -2 -72 -9q17 23 66 77q69 76 97 113q47 65 49 117q1 35 -10.5 70.5t-33.5 60.5q-34 37 -85 37h-10q-9 1 -16 0q-20 -2 -50.5 -16t-43.5 -8
q-10 5 -27 19.5t-21 24.5z" />
    <glyph glyph-name="three" unicode="3" horiz-adv-x="340" 
d="M46 600q-3 -3 -5 -30t0 -46q5 -38 21 -65q9 -15 19 -19q-5 10 -2 20t15 11q19 2 36 1q21 -2 42 -2h8q21 0 68 9q2 1 2.5 -1t-0.5 -4q-4 -27 -56 -104h-10q-19 -2 -33 -12q-18 -13 -21 -34q-2 -8 -1.5 -19.5t9.5 -22.5q11 -14 30 -13q10 1 20 7q15 8 30 27q1 0 2.5 -1
l1.5 -1q54 -34 38 -126q-7 -45 -29 -76q-28 -39 -71 -39q-38 0 -65 15q-15 8 -17 22.5t3 28t3.5 29t-14.5 25.5q0 -24 -17.5 -50t-18.5 -30q-14 -40 30 -72q37 -27 94 -28h2h2q73 1 118 65q30 42 40 100q11 66 -8.5 114.5t-57.5 72.5q18 27 26 39.5t17.5 34t12.5 40.5
q5 36 -9 55q-15 22 -47 20q-13 -1 -37.5 -6t-36.5 -5q-18 0 -35 1l-20 4q-9 3 -19.5 5.5t-14 3.5t-8.5 3.5t-10 6.5q-1 1 -6.5 5.5t-7 6t-5.5 6t-5 8t-2.5 9t-0.5 11.5z" />
    <glyph glyph-name="four" unicode="4" horiz-adv-x="340" 
d="M108 580q-6 -5 -8 -31q-1 -33 7 -50q7 -16 20 -23q-1 5 4 7.5t11 -1.5q4 -3 5 -10q3 -41 -24 -92q-10 -19 -34 -61.5t-36 -65.5q-12 -24 -1 -46q9 -18 30 -28q30 -14 79 -15q25 0 48 4q7 -28 5.5 -102.5t-14.5 -85.5q26 3 42 28t20.5 59.5t4.5 64.5t-4 50q38 16 53 44
q17 32 -8 70q-10 16 -24 25q-19 12 -38 9q-1 0 -3 -1h-1q-23 -6 -35 -25q-9 -15 -11 -37q-1 -18 2 -40q-18 -3 -36 -3h-13.5h-13.5t-11 0.5t-9.5 2.5t-4.5 5.5t10 23.5t28.5 48t23.5 42q41 79 35 132v1v0q-1 8 -3 15q-1 4 -4 8q-5 10 -27 25q-8 5 -24 10.5t-25 10.5
q-5 3 -10.5 13.5t-5.5 18.5zM255 266q1 0 3 -2q6 -10 5 -13q0 -2 -8 -7q-1 2 -2 12t2 10z" />
    <glyph glyph-name="five" unicode="5" horiz-adv-x="340" 
d="M312 610q0 -6 -1 -11.5t-2 -9t-5 -8t-6 -6t-7 -6t-7 -5.5q-5 -4 -9.5 -6.5t-8 -3.5t-14 -3.5t-19.5 -5.5q-1 0 -3 -1q-65 -8 -84 -5q-25 5 -44 -5q-15 -9 -27 -28q-4 -6 -8 -22q-2 -6 -4 -24q-3 -24 -7 -62q-6 -75 -6 -108q0 -19 10 -30q13 -14 33 -12q10 0 38 12
q48 19 82 11h1q7 -2 19.5 -16t18.5 -26q21 -50 8 -89q-11 -32 -33 -58.5t-47 -27.5q-48 -1 -83 16.5t-87 69.5q8 -23 21 -45t33 -44.5t50.5 -36.5t65.5 -14q46 0 89 36q38 32 51 102q11 63 -12 111q-34 70 -81 80h-0.5h-0.5q-13 4 -30.5 2t-31 -6t-27 -7.5t-19 -4.5t-7.5 3
q1 26 5 77q3 36 6 59q2 12 4 20q0 2 1 4q3 5 7 5q26 -6 67 -1q6 0 15.5 1t11.5 1q17 1 35 -1q12 -1 15 -11t-1 -20q9 4 18 19q17 27 21 65q3 19 1 46t-5 30z" />
    <glyph glyph-name="six" unicode="6" horiz-adv-x="340" 
d="M307 590q-11 -28 -36 -42q-9 -5 -27 -6t-35 -5q-16 -5 -44 -30q-47 -33 -78 -92q-46 -86 -47 -175q0 -74 23 -138q14 -40 36 -65q29 -32 67 -37q37 -4 67 13.5t49 48.5q29 46 38 113v1q5 42 -11 81q-20 51 -63 62q-12 3 -26 3q-32 -1 -70 -30q-19 -17 -28.5 -47t-2.5 -65
q12 42 46.5 70t66.5 17q16 -6 23.5 -33.5t4.5 -49.5q-6 -55 -29 -91q-12 -20 -25 -28t-32 -5q-16 2 -30 17q-14 16 -25 46q-19 54 -19 117q0 29 10.5 70.5t29.5 76.5q33 62 80 83q17 6 25 2q7 -3 8.5 -9.5t-7.5 -19.5q9 4 22 18q28 32 35 57q6 16 7 42.5t-3 29.5z" />
    <glyph glyph-name="seven" unicode="7" horiz-adv-x="340" 
d="M44 590q-3 -3 -5 -30t0 -46q5 -38 21 -65q9 -15 19 -19q-5 10 -2 20t15 11q19 2 36 1q21 -2 42 -2h8q12 0 25.5 2.5t21 4t21 6t14.5 5.5q-2 -27 -29 -103q-45 -130 -51 -147q-2 -9 -7 -26q-8 -28 -12 -43t-9 -41.5t-5 -42t4 -35.5t14 -31t28.5 -19.5t45.5 -9.5
q-17 12 -25.5 33.5t-9 42t5 51t10.5 47t13 44.5q3 8 4 12q6 17 51 145q29 82 32 116q2 17 0 30q-3 18 -15 29q-15 12 -34 11q-7 -1 -18 -3q-10 -2 -26 -7t-28 -8t-21 -3q-18 0 -35 1l-20 4q-9 3 -19.5 5.5t-14 3.5t-8 3.5t-10.5 6.5q-1 1 -6.5 5.5t-7 6t-5.5 6t-5 8t-2.5 9
t-0.5 11.5z" />
    <glyph glyph-name="eight" unicode="8" horiz-adv-x="340" 
d="M294 570q-6 -16 -8 -21t-6.5 -10t-11.5 -8q-9 -4 -28.5 3t-24.5 8q-68 7 -109 -26q-36 -30 -36 -86q0 -39 29 -82q14 -21 32 -39q-27 -17 -45 -38q-47 -55 -46 -114v-5q2 -52 42 -99q43 -51 97 -53q51 -2 95 44q41 43 46 93q6 57 -39 120q-20 26 -45 49q30 19 51 48.5
t26 60t-14 55.5q0 -73 -111 -130q-23 17 -39 41q-19 28 -19 49q0 28 14 39q13 11 36 11h2h1q4 0 7 -1q12 -2 25 -15q17 -17 -1 -34q11 0 25 10q34 23 46 50q7 16 9 47t0 33zM180 274q31 -23 52 -53q32 -43 28 -78q-3 -30 -29 -57t-50 -26q-27 1 -53 32q-27 31 -28 64
q-1 37 31 76q20 22 49 42z" />
    <glyph glyph-name="nine" unicode="9" horiz-adv-x="360" 
d="M210 540q-64 0 -116 -49q-51 -49 -54 -109v-1q-2 -36 12.5 -66.5t40.5 -50.5q54 -40 124 -23q3 0 5 1q9 3 21 8q21 10 30 27q10 20 6 52q-1 9 -9 24.5t-10 24.5q-1 6 3 17.5t9 17.5q-8 0 -27 -17q-25 -21 -32 -39q-7 -17 -2 -30q2 4 7.5 2t6.5 -9q1 -9 -8 -15l-9 -5
q-3 0 -5 -1q-42 -10 -74 14q-31 23 -29 65v1q2 36 35 68q35 33 75 33q32 0 50 -21q18 -22 25 -66q8 -106 -14 -207q-10 -43 -25 -77t-35.5 -58.5t-38 -39t-42.5 -31.5q45 1 81.5 19t59 48t36 59.5t21.5 63.5q1 4 2 5q28 136 14 227q-9 61 -38 95q-36 43 -96 43z" />
    <glyph glyph-name="colon" unicode=":" horiz-adv-x="200" 
d="M89 382q4 -9 4 -20q-1 -8 -4 -13q-30 -6 -42 -30q-4 -8 -6 -17q-6 -15 -1 -33q6 -19 27 -38q10 -9 26.5 -10.5t29.5 3.5q12 5 24 15q9 7 15 16q8 13 8 25q0 28 -21 49q-15 15 -33 19q12 -29 -1 -54q-4 -8 -4 -2q-4 6 -11.5 6.5t-11.5 -5.5q-10 -10 4 -23q14 -14 35 -1
q-9 -6 -18.5 -6t-14 3t-6.5 6q-9 10 -5 18t11 10t12.5 -1t5.5 -6q8 10 7 29q0 13 -6 27l-0.5 1t-0.5 2l-2 4q-8 16 -21 26zM89 202q4 -9 4 -20q-1 -8 -4 -13q-30 -6 -42 -30q-4 -8 -6 -17q-6 -15 -1 -33q6 -19 27 -38q10 -9 26.5 -10.5t29.5 3.5q12 5 24 15q9 7 15 16
q8 13 8 25q0 28 -21 49q-15 15 -33 19q12 -29 -1 -54q-4 -8 -4 -2q-4 6 -11.5 6.5t-11.5 -5.5q-10 -10 4 -23q14 -14 35 -1q-9 -6 -18.5 -6t-14 3t-6.5 6q-9 10 -5 18t11 10t12.5 -1t5.5 -6q8 10 7 29q0 13 -6 27l-0.5 1t-0.5 2l-2 4q-8 16 -21 26z" />
    <glyph glyph-name="semicolon" unicode=";" horiz-adv-x="200" 
d="M89 382q4 -9 4 -20q-1 -8 -4 -13q-30 -6 -42 -30q-4 -8 -6 -17q-6 -15 -1 -33q6 -19 27 -38q10 -9 26.5 -10.5t29.5 3.5q12 5 24 15q9 7 15 16q8 13 8 25q0 28 -21 49q-15 15 -33 19q12 -29 -1 -54q-4 -8 -4 -2q-4 6 -11.5 6.5t-11.5 -5.5q-10 -10 4 -23q14 -14 35 -1
q-9 -6 -18.5 -6t-14 3t-6.5 6q-9 10 -5 18t11 10t12.5 -1t5.5 -6q8 10 7 29q0 13 -6 27l-0.5 1t-0.5 2l-2 4q-8 16 -21 26zM43 132q-7 -6 -3 -36q4 -31 18 -53q8 -12 19 -18q-1 3 -1 6q0 2 2 5t7.5 6.5t12.5 3.5q26 0 27 -23v-1v0q-1 -29 -28.5 -51t-56.5 -26q34 -10 70 6
t53 45q10 17 10 39v1v3q0 13 -0.5 20t-6 16t-16.5 16q-15 9 -48 4.5t-40 -0.5q-5 3 -12 16t-7 21z" />
    <glyph glyph-name="less" unicode="&#x3c;" horiz-adv-x="300" 
d="M185 527q-6 -3 -13 -23q-8 -23 -7 -42q2 -26 10 -33q1 15 10.5 18t15.5 -4q3 -3 5 -7v-2q6 -15 0 -27q-4 -7 -13.5 -20.5t-26.5 -35t-27 -35.5q-26 -36 -40.5 -63t-14.5 -53t14.5 -53t40.5 -63q10 -14 26.5 -35.5t26.5 -34.5t13 -20l1 -1q1 -3 2 -7q-1 -8 -12 -23
l-12.5 -12.5t-15 -20t-2.5 -23.5q4 -31 25 -42q-6 10 -2 22t9.5 18.5t16 19.5t16.5 25q16 34 1 57q-5 11 -15.5 25.5t-27 35.5t-25.5 33q-50 68 -50 99t50 99q9 12 25.5 33t27 35.5t15.5 25.5q4 7 5 14q1 2 1 3.5v2.5q2 14 -2 28q-4 17 -16 32q-4 5 -14 11.5t-15 12.5
q-4 3 -5.5 13t-0.5 17z" />
    <glyph glyph-name="equal" unicode="=" 
d="M66 316q-3 -4 -5.5 -28t0.5 -42q4 -23 21 -51q11 -16 17 -19q-9 25 12 25q72 -5 85 -5q33 1 75.5 8.5t55.5 20.5q12 14 7 26q-1 5 -7 8q-2 2 -6 4t-5 2q18 7 20 20q0 5 -7 11q-2 -15 -35 -19t-37 -8q-10 -11 -5 -20h1q-35 -4 -47 -3q-34 2 -65 10q-11 4 -19 5.5t-11 2
t-8 2t-11 5.5q-28 13 -26 45zM66 216q-3 -4 -5.5 -28t0.5 -42q4 -23 21 -51q11 -16 17 -19q-9 25 12 25q72 -5 85 -5q33 1 75.5 8.5t55.5 20.5q12 14 7 26q-1 5 -7 8q-2 2 -6 4t-5 2q18 7 20 20q0 5 -7 11q-2 -15 -35 -19t-37 -8q-10 -11 -5 -20h1q-34 -3 -47 -3
q-32 1 -65 10q-11 4 -19 5.5t-11 2t-8 2t-11 5.5q-28 13 -26 45z" />
    <glyph glyph-name="greater" unicode="&#x3e;" horiz-adv-x="300" 
d="M138 527q1 -7 -0.5 -17t-5.5 -13q-5 -6 -15 -12.5t-14 -11.5q-12 -15 -16 -32q-4 -13 -3 -27h1q0 -3 1 -7q1 -7 5 -14q5 -11 15.5 -25.5t27 -35.5t25.5 -33q50 -68 50 -99t-50 -99q-9 -12 -25.5 -33t-26.5 -35.5t-16 -25.5q-15 -23 1 -57q6 -12 16.5 -25t16 -19.5
t9.5 -18.5t-2 -22q21 11 25 42q2 14 -2.5 23.5t-15 20l-12.5 12.5q-11 15 -12 23q1 4 2 7v0l1 1q3 7 13 20t26.5 34.5t26.5 35.5q26 36 40.5 63t14.5 53t-14.5 53t-40.5 63q-10 14 -27 35.5t-26.5 35t-13.5 20.5q-6 12 0 27v2q2 4 6 7q5 7 14.5 4t10.5 -18q8 7 10 33
q1 19 -7 42q-7 20 -13 23z" />
    <glyph glyph-name="question" unicode="?" horiz-adv-x="300" 
d="M11 420q-6 -11 21 -73q23 -50 41 -66q16 -14 38 -17q-5 4 -11 16q-5 11 13 35q16 22 51.5 23t53.5 -30q3 -7 2 -14q-1 -11 -5.5 -18.5t-17.5 -19t-18 -17.5q-82 -75 -29 -139q0 14 9 30t18 25.5t26 24.5t21 19q35 35 46.5 54t8.5 49q-1 13 -4 23q-14 42 -48 60.5
t-72 14.5q-20 -2 -51.5 -16t-45.5 -8q-9 5 -26 19.5t-21 24.5zM207 100q-4 -10 -13 -17q-6 -4 -12 -5q-24 18 -50 11q-29 -9 -42 -29q-11 -17 -10 -45q0 -14 9.5 -27t22.5 -19q12 -6 27 -8q11 -2 22 0q15 2 24 10q21 19 22 49q1 20 -7 37q-14 -28 -41 -36q-4 -1 -5 -1t1 4
q2 6 -3 12t-12 5q-7 1 -11 -5t-4 -14q0 -9 7 -16t16 -10q-15 4 -20 14t-4 17q2 13 10 15q9 3 15 -1t7 -9.5t0 -8.5q13 1 27 14q9 9 15 22q1 1 1 1.5v0.5q1 1 1 2q1 3 2 4q6 16 5 33z" />
    <glyph glyph-name="at" unicode="@" horiz-adv-x="420" 
d="M240 400q-72 0 -131 -53.5t-64 -138.5v-2q-3 -74 37 -132q23 -33 61 -53.5t87 -20.5q60 0 106.5 47.5t53.5 132.5q-42 -67 -75.5 -96t-84.5 -30q-62 0 -99 54q-29 42 -26 96q3 62 44.5 99t90.5 37q32 0 48 -20q16 -21 15 -54q-3 -49 -39 -82q4 27 -12 52q-9 13 -29 15
t-22 7q-8 17 5 42q-21 -11 -42 -42q-15 -23 -16 -40q-1 -20 10 -38q0 5 3 9q6 9 20 10t21 -7t0 -23q-10 -25 -2 -46.5t29 -22.5q5 0 10 1q56 18 88.5 63.5t34.5 99.5q3 55 -27 93q-34 43 -95 43z" />
    <glyph glyph-name="A" unicode="A" horiz-adv-x="800" 
d="M660 540q-16 0 -31 -12q-9 -7 -19 -20q-16 -21 -36 -59q-33 -61 -78 -167q0 -1 -1 -3l-1 -2q-90 24 -96 53q-25 -59 79 -95q-8 -21 -23.5 -60t-23.5 -58q-28 -62 -76.5 -106t-95.5 -62t-91 -18q-28 -1 -47.5 7t-23.5 18q-8 22 12.5 56.5t45.5 36.5q11 1 18 -2.5t8 -8.5
t-1 -9q12 9 24 31q15 31 16 55q0 16 -3 33.5t-9 21.5q1 -10 -6 -22t-16 -19q-11 -9 -44.5 -16.5t-46.5 -17.5q-31 -24 -49 -70q-6 -14 -7 -26q-11 -39 5 -70q30 -59 125 -58q56 0 114 22.5t114 74.5t89 125q1 0 1 1q8 20 24 61t25 63q33 -9 38 -10q35 -11 81 -36v-68
q2 -38 6 -59q2 -14 7 -23q4 -8 10 -14q10 -8 23 -8q44 0 69 49q22 43 9 80q-15 46 -64 77q0 12 0.5 34t0.5 30q2 116 -2 167q-3 39 -9 61q-4 15 -11 24q-13 18 -33 18zM649 462q2 0 4 -29q3 -49 2 -163q0 -12 -1 -37q-32 12 -101 29q43 101 73 159q4 5 7.5 12l6.5 13t8 14z
M714 125q16 -23 2 -48q-6 -10 -3 35q0 7 1 13z" />
    <glyph glyph-name="B" unicode="B" horiz-adv-x="780" 
d="M340 555q-10 -38 10 -81q12 -27 46 -50q14 -10 25 -10q-9 9 -10 17.5t9 16.5q20 12 25 14q13 5 25 9q58 12 104 7q42 -5 62 -23q19 -17 14 -51q-4 -28 -41 -60q-11 3 -21 3q-42 2 -69 -26q-18 -17 -20 -33q-3 -18 9 -31q9 -9 23 -10q12 -2 23.5 0.5t18.5 5.5t23 10
q10 6 24 14q5 -3 6 -4q23 -13 41 -35.5t24 -44.5q10 -42 -4 -82q-13 -39 -50 -56.5t-88.5 -16t-116.5 11.5q57 -30 87.5 -40t60.5 -10q53 0 91.5 23t58.5 58q34 62 19 125v1v1v1q-17 65 -79 108q34 36 40 79q9 65 -34 103q-34 31 -95 38q-25 3 -53 2q-37 -1 -73 -9
q-18 -2 -35 -4q-8 -1 -18 -2.5t-14 -2t-9 -1t-8 0t-6 2.5q-20 10 -25 32zM528 430q-26 1 -47.5 -15t-35 -42.5t-21 -48t-11.5 -42.5q-3 -13 -8.5 -45.5t-9 -49t-9.5 -38t-13 -34.5q-1 -1 -1 -2l-0.5 -1l-0.5 -1q-28 -62 -72.5 -105.5t-85 -60.5t-75.5 -17q-47 0 -49 23
q-3 24 18 59.5t47 38.5q11 1 18 -2.5t8 -8.5t-1 -9q12 9 24 31q15 31 16 55q0 16 -3 33.5t-9 21.5q1 -10 -6 -22t-16 -19q-11 -9 -44.5 -16.5t-46.5 -17.5q-32 -30 -52.5 -77.5t-9.5 -84.5q9 -31 38.5 -48t67.5 -17q77 0 158 56t130 163q7 13 12.5 29.5t9 28t7 33.5
t4.5 29.5t3.5 34t3.5 29.5q6 147 82 157q-10 2 -20 2z" />
    <glyph glyph-name="C" unicode="C" horiz-adv-x="440" 
d="M443 600q3 -34 -16 -50q-9 -8 -20 -9.5t-23.5 0t-31.5 -1.5q-21 -4 -34 -8q-8 -1 -51 -12q-81 -20 -145 -109q-55 -77 -72 -164q-14 -80 -5.5 -141.5t38 -109t65.5 -77.5t79 -45q1 -1 2 -1q135 -49 256 3q61 32 103 41t71 0t62 -36q-12 20 -24 35.5t-23 26.5t-25.5 16
t-25.5 8.5t-28.5 1t-29 -4.5t-32.5 -10t-34 -13t-38 -16q-30 -13 -56 -18t-66 -0.5t-90 22.5q-27 10 -50.5 25.5t-46 41t-35 59t-17 79.5t7.5 101q15 75 63 141q51 71 110 86l12 3l12 3q25 4 59 -2q15 -2 35 -15q11 -7 11.5 -21.5t-7.5 -22.5q15 7 27 23q24 33 28 68
q3 23 -3.5 60.5t-11.5 42.5z" />
    <glyph glyph-name="D" unicode="D" horiz-adv-x="560" 
d="M100 555q-10 -38 10 -81q12 -27 46 -50q14 -10 25 -10q-9 9 -10 17.5t9 16.5q20 12 25 14q24 10 43 14h3t2 0.5l1 0.5h1q3 1 7 1v0q4 1 5 1h1h1q2 0 4 1h1h5h0.5h0.5q1 1 2 1h2h1h4h4h4q3 1 4 1h4q1 0 3 -1h1h1h3h4h1h1.5h2.5q3 -1 5 -1h1h1h3q3 -1 7 -1l3 -1h1l6 -2h3
q4 -1 7 -2v0q1 0 3 -1q1 0 3 -1t3 -1l6 -2l3 -1.5l3 -1.5q57 -26 83 -91q3 -7 5 -14q2 -4 3 -9v-1q11 -39 -6 -96.5t-45 -104.5q-14 -22 -33 -43.5t-47 -44t-65.5 -35.5t-76.5 -11q29 -13 59 -14.5t57 8.5t50 22.5t43.5 31t32.5 30.5t22 24q45 55 64.5 122t2.5 127v1v0v0.5
t-1 0.5q0 3 -1 5v1t-0.5 1h-0.5q0 3 -1 5q-34 100 -120 140q-5 2 -11 4q-8 4 -17 6q-9 3 -18 5t-18 3q-3 0 -7 1h-6q-4 1 -7 1h-13h-6.5h-7.5h-3h-3h-1h-0.5h-1.5h-3q-4 -1 -6 -1h-5q-3 -1 -5 -1h-1t-4 -1h-1.5h-1.5h-1h-0.5t-1.5 -0.5l-1 -0.5h-1h-4q-1 0 -1 -0.5v-0.5h-5
t-5 -1q-1 0 -1.5 -0.5t-1 -0.5h-2t-1.5 -1h-1h-1.5h-1.5q-1 -1 -2 -1q-3 -1 -6 -1q-20 -2 -40 -5q-8 -1 -18 -2.5t-14 -2t-9 -1t-8 0t-6 2.5q-20 10 -25 32zM277 445q-31 -2 -53.5 -23t-33.5 -50.5t-16 -52.5t-5 -39q0 -110 -10 -175q-4 -29 -15 -38q-5 -3 -5 4q-1 5 0 13
q0 6 4 14q9 24 5 40q-5 21 -29 43q-7 6 -23 13t-23 12q-5 4 -9.5 15t-4.5 19q-6 -5 -10 -30q-5 -33 2 -51q6 -17 18 -24q-1 5 4 6.5t11 -2.5q8 -7 4 -16q-12 -30 -9 -48q6 -29 9 -38q6 -15 17 -25q14 -12 34 -12q35 0 59 39q27 69 27 241q0 138 52 165z" />
    <glyph glyph-name="E" unicode="E" horiz-adv-x="410" 
d="M418 555q-6 -22 -25 -32q-3 -2 -6 -2.5t-8 0t-9 1t-14.5 2l-17.5 2.5q-14 1 -48 7.5t-50 6.5q-70 0 -120 -43t-50 -107q0 -58 40 -97q15 -14 34 -25q-58 -38 -84 -91v-1q-36 -77 -24 -155.5t67 -133.5q55 -56 142 -64.5t196 38.5q52 27 91.5 42t82.5 22t83.5 -4.5
t80.5 -40.5q-24 28 -51.5 46.5t-51 28t-53.5 10t-50.5 -2t-52 -13t-48 -17.5t-47.5 -21q-6 -2 -8 -4q-61 -27 -115 -30.5t-91.5 10.5t-65.5 42q-41 41 -50 100.5t20 121.5q14 30 44 54t65 38q25 -4 46 -3q18 1 30 5q9 3 16 7q14 11 14 28q0 16 -12 26q-7 7 -17 10
q-12 3 -30 1q-24 -2 -53 -12q-8 1 -10 2q-36 10 -56 29q-22 21 -22 54q0 40 30 65t80 25q33 -2 73 -18q5 -2 25 -14q10 -8 9 -16.5t-10 -17.5q11 0 25 10q33 23 46 50q8 18 11 42t-1 39z" />
    <glyph glyph-name="F" unicode="F" horiz-adv-x="440" 
d="M352 536h-4q-15 0 -39 -4q-123 -19 -190 -40q-4 -1 -11 -3.5t-9.5 -3t-7 -2t-6.5 -1.5h-5t-5 0.5t-4.5 1.5t-5.5 2q-9 5 -14 11t-11 23q-2 -2 0 -33t9 -47q12 -27 46 -50q14 -10 25 -10q-1 1 -6 5.5t-6 6t-2 5.5t2.5 8t10.5 9q20 12 25 14q17 7 46 16q152 46 164 35
q2 -1 0 -4q-8 -17 -31 -64q-22 -47 -38 -85q-7 2 -15 4q-10 3 -18.5 5t-11.5 2.5t-7.5 2t-11.5 4.5q-28 14 -26 46q-3 -4 -5 -28t0 -42q4 -23 22 -51q10 -16 17 -19q-10 25 11 25q8 0 24 -2q-33 -82 -42.5 -150t7.5 -107.5t60 -35.5q-21 18 -22 57t12.5 88.5t41.5 128.5
l6 16q63 3 90 29q6 6 8 15v1q0 5 -0.5 8t-2.5 5.5t-2.5 3.5t-4.5 3.5t-5 3.5q14 7 15 20q1 5 -5 11q-1 -15 -26.5 -19.5t-29.5 -8.5q-7 -9 -4 -17q-4 -1 -7 -1q-2 -1 -4 -1q13 29 28 62q7 16 21 45t20 41q9 21 -4 40q-10 16 -32 22q-13 3 -30 3z" />
    <glyph glyph-name="G" unicode="G" horiz-adv-x="560" 
d="M324 534q-5 0 -10 -1q-17 -4 -35 -17q-27 -20 -54 -62q-50 -78 -62 -162q-12 -2 -15 -2q-37 4 -37 20q0 3 2 4q7 2 11 -1t2 -7q14 3 25 17q11 16 16 48q4 26 0 32q-2 -7 -9.5 -18t-13.5 -12q-8 -3 -26 -3.5t-26 -5.5q-34 -18 -40 -42q-5 -18 0 -37t17 -31
q16 -15 42.5 -21t47.5 -2q4 -86 45 -147q29 -43 75 -66t102 -18q28 0 54 17q19 12 36 30q3 3 6 7q1 -14 2 -26q1 -7 5 -52t4 -68q-50 9 -100 -9.5t-78 -52.5q-18 -21 -24 -46q-8 -29 6 -54h1q0 -1 1 -2q16 -27 50 -35q25 -6 57 0q61 12 99 50q40 40 47 112q15 -4 32 -11
q-14 14 -31 25v14q0 22 -1.5 46t-4 50t-3.5 37q-2 32 -13 112v1q7 21 10 40q9 48 -10 73q-6 8 -12 13t-12 7t-13 2q-24 -2 -30 -25q-2 -11 -3 -14q-1 -19 5 -69q1 -4 3 -18l-2 -4q-14 -41 -46 -71q-8 -8 -16 -13q-10 -5 -22 -6q-7 0 -14 -1q-70 -1 -110 58q-35 53 -35 130
q56 24 104 72q52 51 67 103q9 31 2 56q-8 31 -36 48q-14 8 -32 8zM325 473q6 0 9 -10t-2 -24q-11 -37 -52 -78q-22 -22 -49 -40q16 56 44 100q21 33 40 47q6 5 10 5zM487 -119q-4 -55 -29 -80q-10 -10 -30 -19.5t-38 -13.5q-19 -4 -32 0q-10 2 -13 8q-3 4 -1 10q3 10 13 23
q58 72 130 72z" />
    <glyph glyph-name="H" unicode="H" horiz-adv-x="740" 
d="M566 590q-8 -6 -13 -36q-6 -34 0 -61q3 -12 9.5 -26t11.5 -17q-3 24 9 24q5 -1 9 -6q16 -23 15 -71q-1 -19 -5.5 -60t-5.5 -59q-37 12 -86 11q-37 -1 -66 1q4 55 8.5 92t13.5 74t23.5 55.5t34.5 18.5q-14 11 -28.5 9t-25.5 -8.5t-21 -19.5t-16 -23t-9 -19
q-17 -45 -29 -120q-4 -25 -7 -54q-48 8 -68 25q19 -40 64 -62q-2 -17 -7.5 -74.5t-8.5 -79.5q-11 -87 -75 -135q-55 -42 -122 -41q-27 0 -47 8.5t-26 19.5q-10 22 10 56t45 37q11 1 18 -2.5t8 -8.5t-1 -9q12 9 24 31q15 31 16 55q0 16 -3 33.5t-9 21.5q1 -10 -6 -22t-16 -19
q-11 -9 -44.5 -16.5t-46.5 -17.5q-31 -24 -49 -70q-8 -21 -8 -35q-6 -35 10 -63q33 -58 125 -59q87 -1 158 53q83 63 99 174v1q5 43 12 144q30 -5 65 -5q56 -5 84 -17q-13 -77 -15 -95q-6 -47 0 -73q5 -21 17 -34q15 -16 39 -16q37 0 60 33q16 24 21 61q10 77 -27 124l-1 1
q-13 16 -29 29q1 9 1 18q1 15 6.5 68.5t6.5 82.5q2 46 -5 71q-6 20 -18 30q-2 3 -4 4q-9 7 -30 14t-30 13q-5 4 -10 18t-5 23zM642 171q14 -33 10 -70q-3 -22 -12 -34q-6 -8 -7 -4q-4 16 0 53q3 19 9 55z" />
    <glyph glyph-name="I" unicode="I" horiz-adv-x="300" 
d="M185.5 540h-4.5q-28 -2 -57 -27q-23 -20 -45 -54q-3 1 -15.5 6.5t-19.5 10.5q-5 4 -9.5 15t-4.5 19q-6 -5 -10 -30q-5 -33 2 -51q6 -17 18 -24q0 4 3.5 6t7.5 0q-16 -32 -18 -39q-7 -14 -1 -28.5t25 -17.5q9 -1 15 2q16 9 31.5 27t16.5 33q1 12 -1 20v1q25 42 45 59
q17 13 24 11t16 -15q13 -21 11 -84q-4 -109 -30.5 -244t-54.5 -156q32 0 59.5 43t45 107t28 129.5t12.5 119.5q2 80 -20 115q0 2 -2 4q-26 39 -62 42h-5.5z" />
    <glyph glyph-name="J" unicode="J" horiz-adv-x="500" 
d="M487 542q-11 0 -21 -5q-8 -4 -16 -9q-114 9 -168 -53q56 20 122 7q-9 -13 -15 -28q-18 -43 -20 -111q0 -29 1.5 -76.5t1.5 -88.5t-5 -74q-11 -87 -75 -135q-55 -42 -122 -41q-27 0 -47 8.5t-26 19.5q-10 22 10 56.5t45 36.5q11 1 18 -2.5t8 -8.5t-1 -9q12 9 24 31
q15 31 16 55q1 16 -2.5 33.5t-9.5 21.5q1 -10 -6 -22t-16 -19q-11 -9 -44.5 -16.5t-46.5 -17.5q-31 -24 -49 -70q-8 -21 -8 -35q-6 -35 10 -63q33 -58 125 -59q87 -1 158 53q84 64 99 175q5 38 5 82t-1.5 91t-1.5 72q2 58 15 90q10 23 25 36q21 -4 39 -8q6 -1 12 0
q10 1 16 6q10 6 15 17q7 16 -2 32q-8 12 -26 20q-12 5 -25 7q-6 1 -11 1z" />
    <glyph glyph-name="K" unicode="K" horiz-adv-x="460" 
d="M56 590q-8 -6 -13 -36q-6 -34 0 -61q3 -12 9.5 -26t11.5 -17q-1 16 0 18.5t6 6.5q13 10 25 -11.5t15 -39.5q1 -7 3 -24q3 -24 3 -51q-45 -24 -46 -67v-2q0 -36 25 -58q6 -5 15 -9q-15 -168 -60 -213q25 0 45.5 19.5t34 52.5t22 66.5t14.5 72.5q34 8 68 33q57 -75 97 -194
q37 -111 108 -181.5t156 -97.5q77 -24 147 -10q65 12 103 64q17 23 13 50q-2 21 -25 45q-6 7 -21.5 15t-22.5 14q-5 4 -8.5 15.5t-2.5 19.5q-7 -5 -13 -30q-7 -32 -2 -50q5 -17 17 -26q-1 5 4.5 6.5t10.5 -3.5q7 -7 2 -17q-7 -17 -27.5 -29t-39.5 -16q-54 -10 -117 10
q-72 22 -132 81.5t-94 159.5q-44 133 -108 216q15 18 27 38q0 2 1 3q13 24 31 66t30.5 69t36.5 55.5t54 42.5q-29 0 -53.5 -10t-41.5 -24t-34 -37.5t-27 -42.5t-24.5 -47t-24.5 -43q-7 -12 -17 -25q-8 7 -14 12v0q-20 17 -47 19q-1 40 -7 72q-10 60 -34 83q-9 13 -33 20
t-31 12q-5 4 -10 18t-5 23zM176 301q6 -1 17 -11q-10 -7 -19 -12q1 13 2 23z" />
    <glyph glyph-name="L" unicode="L" horiz-adv-x="440" 
d="M428 580q0 -10 -7 -22t-15 -19q-12 -10 -40 -16.5t-39 -14.5q-29 -19 -40 -44q-13 -21 -25.5 -53.5t-17.5 -50t-17.5 -69.5t-13.5 -59q-21 -81 -37 -120v-1q-14 5 -26 8q-34 8 -54 7q-8 0 -17 -1q-23 -4 -34 -21q-12 -17 -5 -41v0q0 -1 1 -3v-1q12 -33 48 -52
q39 -19 72 -4q25 11 43 36q37 -14 62 -26q13 -6 39 -20q60 -30 92 -45.5t89 -39t98 -35t94.5 -19t102.5 -4.5q112 16 148 110q-23 -23 -52.5 -37.5t-58 -21.5t-66.5 -5t-67 6t-71.5 18t-69 23.5t-71 30t-64.5 30.5t-62.5 31.5t-54.5 27.5q-31 15 -60 28q18 42 39 126
q3 15 10.5 45.5t12 48t11 41t13 40t14.5 29.5q20 35 43 38q11 1 18 -2.5t8 -8.5t-1 -9q12 9 23 31q16 31 17 55q0 16 -3.5 33.5t-8.5 21.5zM110 65q9 -1 26 -5q1 0 2.5 -0.5l1.5 -0.5q-2 -1 -3 -2q-8 -1 -21 4z" />
    <glyph glyph-name="M" unicode="M" horiz-adv-x="860" 
d="M769 540q-12 0 -22.5 -5t-16 -11t-14.5 -16q-11 -13 -23 -34q0 1 -0.5 3l-0.5 2q-1 2 -2.5 8.5t-2 8.5t-2.5 6.5t-4 7.5t-5.5 6.5t-8.5 7.5q-28 22 -59 13q-24 -8 -44 -35q-27 -35 -58 -120q-10 -30 -30.5 -93.5t-36 -105t-28.5 -63.5q-1 -1 -1 -3q-28 -62 -75.5 -106
t-92.5 -62t-86 -18q-26 -1 -43.5 6.5t-19.5 17.5q-6 22 14.5 56.5t45.5 37.5q11 1 18 -2.5t8 -8.5t-1 -9q12 9 24 31q15 31 16 55q0 16 -3 33.5t-9 21.5q1 -10 -6 -22t-16 -19q-11 -9 -44.5 -16.5t-46.5 -17.5q-31 -24 -49 -70q-4 -11 -6 -20q-15 -41 0 -75q14 -30 46 -45
t73 -14q54 0 109.5 22.5t110 74t87.5 124.5q17 29 33.5 73.5t36 106.5t29.5 90q27 76 48 104q9 12 14 11t9 -15q6 -20 11 -53q2 -10 4 -28q-20 -50 -37 -102q-31 -99 -41 -170q-6 -39 -2 -63q2 -17 10 -28q12 -18 34 -18q34 0 57 31q17 22 28 60q17 63 18 162q0 59 -6 119
q13 30 23 49q16 33 30 49q1 1 2 1t2.5 -2.5t2 -4t1.5 -6t1.5 -7t1 -6.5t1 -6t0.5 -5t1 -3q6 -56 -1 -111v-1.5v-1.5l-1 -2v-3l-4 -38q-4 -41 -5.5 -70.5t-0.5 -66.5t8.5 -62.5t21 -48.5t38 -34.5t58.5 -11.5q-29 25 -45 57.5t-20 73.5t-2.5 74t7.5 81q3 23 4 44q9 62 1 128
q-5 38 -15 62q-7 16 -17 26q-15 14 -34 14zM654 210q-3 -63 -14 -103q-5 -18 -12 -32q0 13 2 26q6 44 24 109z" />
    <glyph glyph-name="N" unicode="N" horiz-adv-x="780" 
d="M799 560q-72 -70 -122 -199q-5 32 -10 58q-7 38 -15 61q0 2 -2 8t-2.5 8t-3 7t-4.5 7.5t-5 6t-8 7.5q-20 15 -43 15q-8 0 -15 -3q-23 -8 -41 -36q-21 -35 -42 -120q-5 -20 -17.5 -71.5t-19 -78.5t-17.5 -60t-21 -50q-1 -1 -1 -3q-28 -62 -75.5 -106t-92.5 -62t-86 -18
q-26 -1 -43.5 6.5t-19.5 17.5q-6 22 14.5 56.5t45.5 37.5q11 1 18 -2.5t8 -8.5t-1 -9q12 9 24 31q15 31 16 55q0 16 -3 33.5t-9 21.5q1 -10 -6 -22t-16 -19q-11 -9 -44.5 -16.5t-46.5 -17.5q-31 -24 -49 -70q-4 -11 -6 -20q-15 -41 0 -75q14 -30 46 -45t73 -14
q54 0 109.5 22.5t110 74t87.5 124.5q14 24 26.5 60.5t19.5 66t17.5 77t16.5 69.5q19 77 35 104q8 9 10 8t4 -10q2 -3 2 -5q7 -20 13 -54q13 -67 21 -157q2 -19 3 -36q-13 -54 -20 -106q-5 -39 -4 -61q2 -16 7 -26q6 -11 19 -18q11 -6 24 -3v0q15 5 23 19q6 9 9 23q4 20 5 55
q2 49 -3 118q43 215 107 344z" />
    <glyph glyph-name="O" unicode="O" horiz-adv-x="440" 
d="M231 610q-1 -31 -20 -51q-6 -8 -23.5 -13t-31.5 -16q-7 -5 -22.5 -22.5t-24.5 -30.5q0 -1 -1 -1q-48 -69 -59 -183q-12 -134 36 -212q24 -39 62 -60t82 -21t80 24.5t60 64.5q41 73 50 189q10 136 -54 202q-37 39 -87 30q-15 -3 -30 -10q-2 -8 -5 -17q-11 -29 -22 -37
q0 1 2.5 8.5t2 9t-2.5 8.5q-4 4 -10 4q-16 -13 -32 -32q-74 -87 -62 -217q5 -52 17 -83q9 -26 24 -41q20 -22 48 -23q38 -2 70 25q24 20 43 57q31 60 38 135q1 8 1 17q0 -17 -1 -32q-7 -102 -42 -163q-34 -59 -88 -59q-61 0 -93 52q-37 62 -27 175q7 80 35 132q20 31 40 47
q15 13 29 12q3 0 6 -1q3 -2 5 -4q3 -4 3 -11q0 -5 -3 -11q3 3 7.5 10.5t6.5 14.5q1 2 3 8q12 33 11 57q-1 18 -9 42.5t-12 26.5zM296 452h2q12 -1 24 -14q19 -19 30 -66q-6 22 -18 36q-18 21 -43 22q-29 0 -55.5 -35t-39.5 -82t-8 -81v-1q3 -31 25 -50q33 -24 58 31
q24 55 16 111q-3 17 -9 27q-4 -55 -25 -104q-13 -23 -14 5q-1 45 16 85q8 19 18 28q15 13 22 -10t4 -51q-6 -64 -31 -114q-13 -26 -29 -38q-26 -18 -36 -7q-6 6 -11 20q-9 25 -13 69q-10 105 48 173q34 40 62 45q4 1 7 1z" />
    <glyph glyph-name="P" unicode="P" horiz-adv-x="760" 
d="M339 555q-4 -14 -1 -38.5t11 -42.5q12 -27 46 -50q14 -10 25 -10q-9 9 -10 17.5t9 16.5q20 12 25 14q22 9 39 13q41 7 77 3q91 -10 122 -80q20 -46 7 -81q-7 -14 -16.5 -25t-18 -18.5t-23 -11t-23.5 -6t-27 -1.5t-26 1.5t-28 5t-26 6t-27.5 7.5t-24.5 7q28 -30 61 -48
t62.5 -23.5t54.5 -4t44 10.5q54 26 74 79q21 58 -8 126q-24 53 -69.5 81.5t-101.5 34.5q-12 1 -25 1q-46 2 -91 -9q-18 -2 -31 -4l-17.5 -2.5t-14.5 -2t-9 -1t-8 0t-6 2.5q-19 10 -25 32zM522 427q-21 0 -39 -7t-31.5 -17.5t-24.5 -28.5t-18.5 -34.5t-14 -40.5t-10 -42
t-6.5 -44t-4.5 -41t-3 -38.5t-2.5 -30.5v-2q-8 -85 -69 -133q-54 -41 -122 -41q-28 1 -49 9.5t-28 20.5t-3 28q6 20 23 41t33 23q11 1 18 -2.5t8 -8.5t-1 -9q12 9 24 31q15 31 16 55q0 16 -3 33.5t-9 21.5q1 -10 -6 -22t-16 -19q-11 -9 -44.5 -16.5t-46.5 -17.5
q-31 -24 -49 -70q-9 -24 -8 -39q-4 -33 12 -60q35 -58 128 -59q89 -1 160 54q82 63 92 175v2q2 18 4 56.5t3.5 70.5t7.5 70t15 65t27.5 46t43.5 21h-7z" />
    <glyph glyph-name="Q" unicode="Q" horiz-adv-x="460" 
d="M241 540q-45 0 -81.5 -26.5t-60.5 -70.5q-48 -84 -48 -193q0 -129 47 -200q30 -45 74 -52q40 -6 84 24q20 10 28 25q0 1 1 3q0 -11 7 -21q0 -1 1 -2q12 -15 33 -17t33 14q38 -14 128 -82q31 -24 50 -36.5t48.5 -29t58.5 -22.5t59 -4q28 2 59 31.5t48 78.5
q-16 -23 -33.5 -39t-35.5 -22t-33.5 -9t-35.5 3t-33.5 11t-34.5 19t-32.5 22.5t-33.5 24.5q-10 8 -15 11q-10 8 -41 33.5t-53 40t-44 23.5q7 19 12 41q25 92 24 161q-1 88 -36 159q-21 41 -54 69t-77 32h-13zM241 480h7q52 -5 83 -68q29 -58 30 -132q1 -62 -22 -146
q-6 -24 -13 -44q-9 -1 -17 -4q-12 -7 -19 -17q2 13 0 30q-1 9 -9 24.5t-10 24.5q-1 6 3 17.5t9 17.5q-8 0 -27 -17q-25 -21 -32 -39q-7 -17 -2 -30q2 3 8 0t6 -7q1 -15 -19 -25t-37 -7q-17 2 -32 25q-17 25 -27 71t-10 96q0 93 40 164q37 67 90 66z" />
    <glyph glyph-name="R" unicode="R" horiz-adv-x="440" 
d="M220 540q-97 0 -138 -46q-42 -46 -42 -154q0 -36 10 -93.5t10 -96.5q0 -113 -40 -170q38 6 62 39.5t31 66.5t7 64q0 47 -10 104.5t-10 85.5v2q0 83 26 112q24 26 94 26q15 0 41 -7.5t46 -21.5q49 -33 42 -87q-5 -43 -36 -66q-24 -17 -60 -22q-13 13 -26 22q-14 10 -28 13
q-20 5 -37 -6q-10 -7 -16 -17q-9 -13 -6 -28q4 -22 29 -34q24 -11 58 -12l1 -1t1 -2q50 -66 82 -161q37 -111 108 -181.5t156 -97.5q77 -24 147 -10q73 14 103 64q2 3 3 7q2 2 2 3q11 21 8 40q-3 22 -25 45q-6 7 -21.5 15t-22.5 14q-5 4 -8.5 15.5t-2.5 19.5q-7 -5 -13 -30
q-7 -32 -2 -50q5 -17 17 -26q-1 5 4.5 6.5t10.5 -3.5q6 -6 2 -17q0 -1 -2.5 -5t-3.5 -7q-17 -24 -61 -33q-54 -10 -117 10q-72 22 -132 81.5t-94 159.5q-28 85 -73 153q31 10 55 27q51 39 60 106q6 47 -14 84.5t-55 60.5q-58 39 -120 39z" />
    <glyph glyph-name="S" unicode="S" horiz-adv-x="600" 
d="M419 541h-4q-58 -2 -103.5 -32t-62.5 -79q-22 -59 30 -117q33 -37 104 -79q65 -39 99 -102.5t26 -117.5q-10 -76 -75 -101q-26 -10 -58.5 -10.5t-47.5 5.5q-64 22 -94 70q-13 21 -19 46q16 -3 31 -1q16 2 32.5 13.5t25.5 26.5q13 28 5.5 60t-29.5 50q-21 16 -41 17
q-39 2 -67 -40q-19 -28 -22 -59q-32 9 -60 2q-24 -7 -37 -21.5t-35 -52.5q19 15 35.5 22t25 8t29.5 2q19 1 43 -7q6 -54 32 -97q41 -67 127 -95q71 -24 146 5q43 17 74 55t39 94q10 76 -31.5 154t-123.5 126q-63 37 -89 67q-28 31 -19 57q13 36 50 57t85 13h3q10 -2 19 -4
l1 -1q21 -7 42 -25t29 -30q7 -12 2.5 -23.5t-14.5 -16.5q17 0 34 10q36 20 54 50q12 20 21.5 57t7.5 43q-7 -18 -15 -26.5t-21 -12.5q-6 -3 -16.5 -1.5t-16.5 4.5t-18 8t-22 8q-5 1 -19.5 4.5t-20.5 5.5q-5 1 -9 2q-32 9 -62 9zM234 130h1q9 -2 14.5 -14t2.5 -21
q-9 -26 -44 -22q0 24 13 44q8 13 13 13z" />
    <glyph glyph-name="T" unicode="T" horiz-adv-x="420" 
d="M46 582q-4 -4 -6 -28.5t1 -41.5q4 -23 21 -51q10 -16 17 -19q-9 25 12 25q1 0 37 -3q22 -2 46 -2h4q5 0 23.5 -1t34.5 -1h40q107 4 119 6q35 8 52 24q7 7 9 16v1q1 6 -1 13q-2 5 -5 8t-9.5 5t-9.5 4q19 9 23 16q3 6 2 13q-2 7 -7 11q-2 -14 -35 -18.5t-37 -8.5
q-11 -11 -5 -19q3 -5 16 -15q-2 0 -5 -1q-33 -7 -109 -5q-22 1 -96 10q-19 2 -59 8q-14 3 -25 3q-4 1 -8 1q-6 0 -14 4q-29 13 -26 46zM308 455q-35 -1 -56.5 -42.5t-21.5 -132.5q0 -67 -2 -103q9 -10 16 -22q16 -25 0 -57q9 21 5 40q-4 18 -21 36h-1l-3 3l-2 2l-2 2l-2 2
t-2 1q-6 5 -20.5 11t-21.5 11q-5 4 -9.5 15t-4.5 19q-6 -5 -10 -30q0 -3 -1 -6v-1v-3t-1 -3v-2v-4v-1v-1v-1v-1v-2v-1v-1v-1v-1v-1v-2.5v-0.5q0 -2 1 -4v-1v-2q1 -6 3 -11q6 -17 18 -24q-1 5 4 6.5t11 -2.5q8 -7 4 -16q-13 -32 -8 -79q2 -13 6 -21q4 -9 10 -14q10 -9 23 -9
t24 9q5 5 9 12q6 9 12 23q11 26 14 50q1 1 1 2v1q3 25 5 52.5t2 44.5t-0.5 46t-0.5 40v28t1.5 33t4.5 37.5t8.5 31.5t15 27t22.5 12q-16 6 -30 6z" />
    <glyph glyph-name="U" unicode="U" horiz-adv-x="640" 
d="M564 543q-8 0 -14 -3q-10 -5 -16 -16q-5 -9 -9 -26v-1q-24 -100 -9 -267q-7 -37 -16 -66q-17 -56 -41 -82q-23 -25 -56 -22q-42 5 -61 34q-18 27 -21 79q-3 35 3 107.5t5 100.5q-2 55 -28 95q-29 46 -77 54q-58 9 -109 -30t-65 -104q-18 -77 19 -118q20 -21 51 -23
q32 -4 73 23q18 13 24 33q6 21 -5 51q-3 9 -13.5 23t-14.5 22q-3 6 -1 17.5t5 18.5q-8 -1 -23 -21q-20 -27 -23 -46q-3 -17 4 -30q2 5 7.5 4t7.5 -7q4 -8 -4 -17q-13 -14 -34 -12q-5 0 -9 5q-16 17 -6 65q9 40 42 65.5t64 20.5q22 -3 37 -27q17 -26 18 -64q1 -19 -5 -93
t-3 -117q4 -68 31 -108q35 -52 104 -61h1q62 -6 106 42q19 21 34 52q32 -123 102 -134q-18 19 -30 46t-19 66.5t-9.5 59t-6.5 64.5q-1 7 -1 11q6 29 10.5 60t9.5 69.5t7 49.5q5 38 1 98q-1 14 -3 23q0 1 -0.5 4.5t-1 5.5t-2.5 6t-6 9q-7 7 -16 10q-2 0 -6 1h-2z" />
    <glyph glyph-name="V" unicode="V" horiz-adv-x="580" 
d="M449 560q33 -57 42.5 -140.5t-2.5 -145.5q-15 -101 -30 -147q-13 -38 -24 -54q-6 -8 -10 -11q-2 -2 -5 -2q-5 0 -14 12q-12 17 -23 53q-6 21 -11.5 45t-13 60.5t-9.5 45.5q-1 6 -9.5 58.5t-17.5 81.5q-12 43 -31 70q-26 35 -66 43q-14 3 -29 3q-51 -2 -92.5 -40.5
t-53.5 -95.5q-18 -77 19 -118q20 -21 51 -23q32 -4 73 23q18 13 24 33q6 21 -5 51q-3 9 -13.5 23t-14.5 22q-3 6 -1 17.5t5 18.5q-8 -1 -23 -21q-20 -27 -23 -46q-3 -17 4 -30q2 5 7.5 4t7.5 -7q4 -8 -4 -17q-13 -14 -34 -12q-5 0 -9 5q-16 17 -6 65q9 41 42.5 67t62.5 20
q17 -4 29 -21q13 -17 23 -50q7 -24 15 -74t11 -62q1 -7 8.5 -44t13.5 -63t13 -50q14 -44 31 -69q26 -37 61 -38h1q17 0 32 8q22 14 35 34q25 38 42 107q12 51 21 117q3 33 3.5 68t-4 76t-15 72.5t-32.5 53.5t-52 24z" />
    <glyph glyph-name="W" unicode="W" horiz-adv-x="750" 
d="M609 560q24 -21 39.5 -113.5t15.5 -176.5q0 -72 -4 -109q-1 -11 -2 -20q-10 -55 -18 -70q-11 -22 -22 28q-1 4 -1 5q-13 44 -28 139q-19 118 -24 140q-6 33 -14 49q-6 14 -15 21q-7 5 -19.5 6.5t-21.5 -3.5q-21 -12 -36 -33t-34 -59q-11 -21 -25 -51q-19 73 -53 127
q-54 85 -126 90h-14q-54 -1 -99 -38t-58 -96q-18 -77 19 -118q20 -21 51 -23q32 -4 73 23q18 13 24 33q6 21 -5 51q-3 9 -13.5 23t-14.5 22q-3 6 -1 17.5t5 18.5q-8 -1 -23 -21q-20 -27 -23 -46q-3 -17 4 -30q2 5 7.5 4t7.5 -7q4 -8 -4 -17q-13 -14 -34 -12q-5 0 -9 5
q-16 17 -6 65q9 40 42 64t67 22q41 -3 79 -62q38 -60 54 -143q5 -29 10 -61q-21 -67 -28 -113q-5 -31 -3 -49q2 -15 9 -25q12 -17 32 -17q21 0 36 14q11 10 17 28q9 25 8 68q-1 36 -9 90q0 1 0.5 2.5t0.5 2.5q26 75 55 132q12 22 26 43q1 -1 1.5 -4t1.5 -5q4 -22 23 -137
q15 -100 29 -147q10 -35 22 -54q19 -32 47 -33h2q10 0 20 4q13 4 22 12q14 13 24 34q23 53 27 148q1 21 1 72q0 36 -5.5 81.5t-17.5 94.5t-36 81.5t-56 32.5z" />
    <glyph glyph-name="X" unicode="X" horiz-adv-x="780" 
d="M388 590q-8 -6 -13 -36q-6 -34 0 -61q3 -12 9.5 -26t11.5 -17q-2 20 8 26t18 -1q11 -7 26.5 -25t23.5 -30q30 -49 64 -140q-14 -35 -37 -93.5t-27 -69.5h-1q-27 -61 -78.5 -105t-103.5 -62.5t-101 -18.5q-32 -1 -55.5 8t-30.5 20t-3 27q5 18 23 40t33 23q11 1 18 -2.5
t8 -8.5t-1 -9q12 9 24 31q15 31 16 55q0 16 -3.5 33.5t-8.5 21.5q1 -10 -6 -22t-16 -19q-11 -9 -44.5 -16.5t-46.5 -17.5q-31 -24 -49 -70q-9 -24 -8 -39q-3 -34 14 -60q36 -56 137 -55q61 0 123 22.5t121.5 74t92.5 125.5q1 0 1 1q8 19 21 53.5t18 45.5q18 -57 31 -85
q15 -34 30 -56.5t35 -39.5t45.5 -13t54.5 31q-25 -3 -43.5 3t-31 22t-18.5 27.5t-14 31.5q-2 6 -3 8q-9 21 -25.5 75t-25.5 80q46 95 85.5 164.5t84.5 118.5q-113 -44 -198 -205q-46 117 -103 162q-5 4 -10 7l-10 5q-4 2 -21.5 8t-25.5 12q-5 4 -10 18t-5 23z" />
    <glyph glyph-name="Y" unicode="Y" horiz-adv-x="560" 
d="M202 533q-52 -1 -95.5 -39t-56.5 -96q-18 -78 19 -118q20 -22 50 -24q33 -4 74 24q18 12 24 32q6 21 -5 52q-3 9 -13.5 22.5t-14.5 21.5q-3 6 -1.5 18t5.5 18q-8 -1 -23 -21q-20 -26 -23 -45q-3 -18 4 -30q2 4 7.5 3t7.5 -7q4 -9 -4 -16q-9 -8 -21.5 -11t-21.5 3
q-12 10 -12.5 23t6.5 42q9 41 42 66.5t64 20.5q22 -4 37 -27q17 -27 18 -65q1 -23 -12.5 -96t-15.5 -110q-6 -68 15 -109q29 -55 100 -63h1q58 -6 98 21q15 10 28 25q12 -67 14 -106q1 -19 0 -36q-52 12 -104.5 -6t-82.5 -54q-18 -21 -24 -46q-8 -30 7 -56q1 0 1 -1
q17 -26 50 -34q25 -6 57 0q63 11 100 51q41 44 52 109q13 -4 26 -9q-11 11 -24 20q4 30 2 65q-1 30 -5.5 60.5t-14.5 81t-12 61.5q5 22 10 60t5 39q6 42 -2 99q-2 14 -6 24q-5 18 -17 26q-13 8 -28 4q-11 -2 -19 -11t-16 -28q-16 -39 -6 -115q3 -21 18 -96q-5 -21 -11 -35
q-12 -30 -31 -43q-22 -14 -58 -11q-41 5 -54 32q-13 25 -9 77q1 25 15 100.5t13 111.5q-2 55 -28 95q-29 46 -77 54q-8 1 -15 1q-3 1 -7 1zM487 -119q3 0 8 -1q-8 -47 -38 -80q-9 -9 -28.5 -19t-37.5 -13q-20 -4 -33 -1q-10 3 -13 9q-3 4 -1 10q2 10 13 23q58 72 130 72z
" />
    <glyph glyph-name="Z" unicode="Z" horiz-adv-x="460" 
d="M110 610q-4 -3 -10.5 -27t-8.5 -42q-3 -39 6 -68q5 -17 13 -23q-1 12 4 20.5t17 6.5h5q76 -25 143 -36q39 -7 70 -8q-33 -59 -57 -122q-50 -133 -103 -203v0q-25 3 -51 2q-94 -8 -96 -52v-2q2 -32 41.5 -47.5t65.5 -8.5q33 10 64 42q44 -11 100 -40h1q29 -15 80 -44
q58 -33 76 -43q39 -20 63 -30q37 -15 69 -21q27 -6 55 -6q42 2 77 13q2 0 5 1q33 11 56 35q14 15 24 32q5 10 10 21q-6 -7 -13 -13q-20 -19 -45 -29q-41 -16 -88 -13q-43 3 -91 19q-56 19 -124 56q-19 10 -44 24q-86 50 -105 59q-36 19 -67 29q50 75 96 197q31 84 76 153
q15 5 26 14q25 18 30 50q1 9 -1 18q-2 6 -10 13.5t-17 9.5h-6h-2q-6 -1 -14 -5q-5 -3 -11 -8q-14 -12 -32 -39q-37 -5 -98 5q-31 5 -68 15h-1q-34 14 -42 18q-37 21 -49 30q-7 5 -9.5 7.5t-6 13t-3.5 26.5z" />
    <glyph glyph-name="bracketleft" unicode="[" horiz-adv-x="300" 
d="M146 560q-6 -4 -10 -25q-4 -24 0 -43q6 -24 15 -30q-2 14 7.5 19t15.5 -1q4 -3 6 -7q3 -3 4 -7h1q1 -4 2 -7q1 -7 -1 -12q-3 -6 -20 -28.5t-28 -42.5q-34 -66 -34 -176q0 -116 34 -180q11 -19 28 -40t20 -27v-1q2 -9 -15 -26q-2 -2 -14 -10.5t-17.5 -17.5t-5.5 -23
q0 -32 20 -45q-4 16 2.5 26.5t23 25t24.5 27.5q20 31 9 56v0.5v0.5q0 1 -1 1q-6 12 -22.5 32t-24.5 36q-31 57 -31 165q0 102 31 162q8 16 25 38t22 33q12 23 -3 51q-7 16 -20 28q-5 4 -15.5 9t-17.5 10q-4 3 -7.5 12.5t-2.5 16.5z" />
    <glyph glyph-name="backslash" unicode="\" horiz-adv-x="320" 
d="M51 520q-8 -6 -13 -36q-6 -34 0 -61q3 -12 9.5 -26t11.5 -17q-2 14 0 21t6 6.5t10 -2.5q4 -2 7.5 -9.5t6.5 -18.5t6 -17l16 -54l35 -115q3 -10 15 -47t16 -54q13 -51 51 -95t92 -55q-20 13 -37.5 43.5t-25 52t-19.5 58.5l-34 115l-36 115l-17 57q-15 48 -24 62
q-9 10 -31.5 20t-29.5 16q-6 4 -10.5 18t-4.5 23z" />
    <glyph glyph-name="bracketright" unicode="]" horiz-adv-x="300" 
d="M176 560q0 -7 -3.5 -16.5t-7.5 -12.5q-6 -5 -17 -10t-16 -9q-13 -12 -19 -28q-16 -28 -4 -51q6 -11 22.5 -33t24.5 -38q31 -60 31 -162q0 -108 -30 -165q-9 -16 -25.5 -36t-22.5 -32q-1 -1 -1 -2q-11 -25 9 -56q9 -13 25 -27.5t23 -25t2 -26.5q20 13 20 45q0 14 -5.5 23
t-17.5 17.5t-14 10.5q-17 17 -15 26l1 1q3 6 19.5 27t27.5 40q34 64 34 180q0 110 -34 176q-10 20 -27 42.5t-20 28.5q-3 5 -1 12q1 4 2 7v0q2 4 4 7v1q3 4 6 6q6 6 15.5 1t7.5 -19q9 6 15 30q4 19 0 43q-4 21 -9 25z" />
    <glyph glyph-name="asciicircum" unicode="^" horiz-adv-x="320" 
d="M141 487q-5 -3 -11 -28.5t-5 -42.5v-1v-4v-1q0 -1 0.5 -3.5t0.5 -3.5l2 -8q0 -3 0.5 -4.5t1 -3.5t1.5 -4v0q0 -1 1 -4q1 -2 1 -4q1 -3 2 -3v-1v0q1 -1 2 -3.5l3 -7.5v-1q2 -4 3 -7q1 -2 2 -3q0 -1 2 -3q7 -13 12 -18q-5 15 -2 21t11 7q10 1 30 -10q8 -4 13 -17.5t7.5 -27
t13 -26t29.5 -14.5q12 -2 17 -1q13 3 19 14.5t2 23.5q-9 32 -26 66q-16 30 -34 48q-26 27 -57 28h-2q-8 0 -15 -2q8 -7 27 -14t24 -11q22 -15 41 -49q-3 5 -7 10q-7 10 -14 18q-1 1 -1 2v0l-2.5 2.5t-1.5 2.5q-6 5 -11 9q0 1 -1 1q-2 2 -4 3q-1 1 -3 2h-2q-3 2 -7 4
q-2 0 -4 1t-5.5 2t-5.5 2q-5 2 -8 3l-2 1q-1 1 -3 1q-1 1 -2 1l-3 3q-1 0 -1.5 0.5l-1.5 1.5q-2 1 -3 3l-0.5 0.5l-0.5 0.5q-19 20 -22 49zM123 413q-1 0 -1 -1q-12 -12 -27 -57q-16 -49 -29 -52q-8 -2 -1 22q-12 -15 -15.5 -30.5t2 -25.5t18.5 -9q8 1 14.5 3t11 3.5t10 7
l8 8t7.5 11.5t6.5 12t7 15.5t7.5 16.5q1 3 3 7q-9 16 -18 45q-4 11 -4 24z" />
    <glyph glyph-name="underscore" unicode="_" horiz-adv-x="440" 
d="M60 -10q-3 -4 -5.5 -28t0.5 -42q4 -23 21 -51q10 -16 17 -19q-9 25 12 25q116 -8 185 -6q35 1 59 6q35 7 52 24q13 13 8 29q-2 5 -5 8t-9.5 5t-9.5 4q19 10 23 17q3 5 2 13q-2 6 -7 11q-2 -15 -35 -19.5t-37 -8.5q-11 -10 -5 -19q3 -4 16 -14q-2 -1 -5 -1q-24 -5 -49 -5
q-35 -1 -96 9t-83 12q-13 0 -23 4q-28 14 -26 46z" />
    <glyph glyph-name="grave" unicode="`" horiz-adv-x="200" 
d="M164 500q-1 -9 -9.5 -25.5t-14.5 -20.5q-9 -5 -33 1t-42 -6q-22 -16 -26 -29q-12 -36 6 -68q17 -29 53 -45t70 -7q-28 4 -56 24t-27 41v1q2 19 21 19q7 0 11.5 -4t4.5 -7q0 -4 -2 -7q14 7 24 23q18 27 23 65t-3 45z" />
    <glyph glyph-name="a" unicode="a" horiz-adv-x="420" 
d="M402 400q8 12 17 20q-48 0 -82 -67q-27 47 -72 47h-8q-76 -5 -139 -74q-60 -66 -69 -143q-7 -62 15 -112q13 -30 40.5 -50.5t63.5 -20.5h1q46 0 87 37q8 -15 21 -24q19 -13 39 -13h7q14 -1 39 10q21 10 30 27q10 20 6 52q-1 9 -9 24.5t-10 24.5q-1 6 3 17.5t9 17.5
q-8 0 -27 -17q-25 -21 -32 -39q-7 -17 -2 -30q2 4 7.5 2t6.5 -9q1 -9 -8 -15q-6 -5 -16 -5t-12 7q-3 16 7 42q2 5 7.5 17.5t10 24t7.5 22.5l14 70q2 10 10 43t11.5 45.5t11.5 34t15 34.5zM261 340q6 0 15.5 -8t13.5 -21q6 -21 3 -56.5t-11 -66.5q-1 -4 -4 -10
q-15 -41 -40 -73q-36 -45 -69 -45q-20 0 -31 8.5t-19 26.5q-15 35 -10 82q6 57 53 108q47 52 99 55z" />
    <glyph glyph-name="b" unicode="b" horiz-adv-x="377" 
d="M147 599q-13 0 -22 -8q-7 -5 -11 -14q-9 -16 -15 -54q-3 -24 -6.5 -67.5t-4.5 -51.5q-2 -17 -7.5 -50.5t-6.5 -43.5q-25 -58 -47 -70q21 1 40 13q-8 -98 23 -165q15 -34 39 -57q32 -31 69 -31q51 1 95 44q39 38 53 88q21 72 9 117q-22 80 -73 107q-8 5 -23 9t-21 11
q-19 20 -21 51q-5 -3 -12 -28t-8 -42q0 -25 16 -65q8 -17 15 -24q-6 13 -0.5 19t13.5 6q12 1 28 -8q21 -11 27 -47q7 -40 -7 -90q-10 -34 -38 -61q-27 -27 -54 -27q-12 0 -26 14q-16 15 -26 38q-14 31 -16.5 75.5t0.5 73t12 89.5q9 19 19 45q22 54 29 97q6 21 5.5 43.5
t-11.5 39.5q-13 22 -32 24h-4z" />
    <glyph glyph-name="c" unicode="c" 
d="M369 420q-6 -16 -8 -21t-6.5 -10t-11.5 -8q-8 -4 -25 3v1q-17 9 -46 14q-16 2 -32 3q-16 0 -30 -2q-50 -7 -104 -70q-57 -67 -67 -145v-2q-7 -67 16 -117q28 -59 71 -77q25 -13 87 -4.5t71 5.5q17 -4 44.5 -23.5t53.5 -35.5t58.5 -26.5t71 0t77.5 45.5q-47 -25 -88 -26
t-71 16t-55 37.5t-52 38.5t-49 20q-14 0 -42 -1.5t-49.5 0.5t-38.5 11q-21 11 -36 48q-8 21 -10 35.5t1 47.5q7 61 53 114q16 19 36 32.5t29 16.5q3 0 11 0.5t11.5 0.5t10.5 -2t15 -5q5 -2 25 -14q10 -8 9 -20t-10 -20q11 0 25 10q34 23 46 50q7 16 9 47t0 33z" />
    <glyph glyph-name="d" unicode="d" 
d="M303 599h-2l-8 -2t-7 -2.5t-5 -3t-3.5 -4t-2.5 -3.5t-2.5 -4t-2.5 -4v-1q-1 0 -1 -1q-1 -3 -2 -5q-31 -80 6 -206q5 -16 17 -36q7 -55 4 -114.5t-25 -97.5q-13 -25 -34 -41q-20 -15 -37 -14q-30 2 -58.5 28.5t-34.5 57.5q-9 47 16 95q0 -1 1 -1l4 6.5t5.5 8t5.5 7
t7.5 8.5t8.5 7.5t11 7.5q16 9 28 8q9 0 14 -6t-1 -19q7 7 15 24q16 40 16 65q-1 17 -8 42t-12 28q-2 -31 -21 -51q-6 -7 -20.5 -11t-22.5 -8q-8 -5 -15 -9q-53 -36 -77.5 -95.5t-13.5 -118.5q10 -50 53 -90q44 -41 95 -44q39 -3 78 27q30 23 50 58q37 66 34 168
q19 -13 33 -13q-18 14 -35 47q-1 11 -4.5 52t-3.5 62q-1 10 0 53t0 65q-1 39 -7 54q-3 9 -9 15q-10 11 -25 11h-2z" />
    <glyph glyph-name="e" unicode="e" 
d="M272 405q-26 -1 -44 -7q-51 -17 -87.5 -58t-50.5 -92q-18 -63 -10 -124q1 -5 2 -11q-29 -17 -53 -23q27 -5 58 1q16 -54 57 -77q36 -20 78 -17t78 28q5 3 22 15q17 13 30 37q3 7 5 13l2 4q2 9 -1 35q-1 9 -9 24.5t-10 24.5q-1 6 3 17.5t9 17.5q-8 0 -27 -17
q-25 -21 -32 -39q-7 -17 -2 -30q2 3 7 2t6 -6q1 -6 -6 -17q-24 -36 -61.5 -46t-61.5 6q-21 12 -30 44q49 23 94 60t73 70h1q8 10 14 20q15 23 21 43q6 25 0 46q-4 18 -16 31q-22 25 -59 25zM270 345q5 0 9 -1q9 -2 10 -11q2 -24 -23 -53q-71 -80 -128 -127q-1 40 10 79
q10 37 37 67.5t63 42.5q14 3 22 3z" />
    <glyph glyph-name="f" unicode="f" horiz-adv-x="300" 
d="M229 600q-1 0 -2 -1q-10 0 -18 -6q-8 -5 -13 -13q-10 -16 -17 -54q-9 -58 -9 -126q0 -27 -1 -58q-32 -87 -59 -102q29 2 55 24q-1 -12 -2 -22q-76 -61 -110 -129q-31 -62 -13 -144q7 -31 18 -54q6 -12 12 -19l2.5 -3t3 -4t3.5 -3t5.5 -3t6.5 -2t9 -1h5q23 4 40 28
q13 16 24 44q19 47 33 126q11 59 18 130q9 7 19 14q18 11 26 16q8 7 18 1t8 -26q5 3 11.5 17t9.5 26q6 25 0 61q-5 33 -12 38q0 -9 -4.5 -23t-10.5 -18q-9 -6 -29 -13t-30 -13q3 38 4 75q6 15 13 32q21 54 29 97q5 21 4.5 43.5t-10.5 39.5q-13 21 -32 24q-2 1 -5 1zM152 148
q-3 -22 -9 -59q-5 -27 -8 -44.5t-9 -47t-11.5 -40.5t-8.5 0q-5 14 -7 24q-14 62 8 106q14 28 45 61z" />
    <glyph glyph-name="g" unicode="g" 
d="M275 448q1 -13 -3.5 -22.5t-9 -13t-14.5 -10.5q-7 -5 -12.5 -6t-16.5 -1.5t-25 -4.5q-3 -2 -21 -9.5t-24 -11.5q-109 -67 -109 -179q0 -96 47 -146q42 -44 113 -44q40 0 78 35q9 9 18 21h1q1 -16 2 -28q1 -7 5 -52t4 -68q-50 9 -100 -9.5t-78 -52.5q-18 -21 -24 -46
q-8 -29 6 -54h1q0 -1 1 -2q16 -27 50 -35q25 -6 57 0q61 12 99 50q40 40 47 112q15 -4 32 -11q-14 14 -31 25v14q0 22 -1.5 46t-4 50t-3.5 37q-2 32 -13 112v1q7 21 10 40q9 48 -10 73q-17 22 -37 22q-10 0 -17 -5q-14 -11 -16 -34q-1 -19 5 -69q0 -3 0.5 -6t1.5 -7.5
t1 -6.5q-4 -10 -8 -18q-18 -35 -40 -55q-20 -19 -36 -19q-45 0 -70 26q-30 32 -30 104q0 64 47 106h1q1 0 5.5 4t6.5 5t7 4t8.5 5t9.5 4t13 3q17 4 29 -1q6 -3 11 -13.5t2 -19.5q10 5 19 20q16 27 21 64q2 19 0 46t-5 31zM307 -119q-4 -55 -29 -80q-10 -10 -30 -19.5
t-38 -13.5q-19 -4 -32 0q-10 2 -13 8q-3 4 -1 10q3 10 13 23q58 72 130 72z" />
    <glyph glyph-name="h" unicode="h" horiz-adv-x="400" 
d="M149 599q-13 0 -23 -8q-6 -5 -11 -14q-9 -16 -14 -54q-3 -23 -6.5 -66t-5.5 -53q-4 -31 -4 -70q-30 -80 -56 -94q31 2 59 28q1 -13 2.5 -37t2.5 -34q1 -18 2 -38q-7 -23 -10 -40q-14 -65 -5 -97q3 -9 10 -15t16 -7t17.5 3.5t12.5 13.5q23 47 20 136q9 33 21 62
q23 59 47 95q12 18 21 26q6 7 12 0q7 -7 12 -24q9 -29 14 -94v-1v-1q3 -89 2 -104q-2 -37 -2 -52q0 -17 2 -27q2 -9 6 -15q10 -18 29 -18q18 0 29.5 12.5t15.5 30.5q4 24 -6 57q-1 9 -6 19q-2 4 -3 8q-2 6 5 12q6 4 11 2.5t4 -6.5q12 7 18 24q7 18 2 51q-4 25 -10 30
q0 -8 -4.5 -19t-9.5 -15q-7 -5 -21 -11t-20 -10q-2 -2 -5 -4q-24 -22 -29 -43q-4 -16 5 -40q-1 3 -7 23q-5 28 25 57q8 9 31 19q-1 10 -2 23v1q-5 74 -17 109q-9 30 -25 47q-21 23 -52 23q-22 0 -44 -19q-15 -14 -31 -38q-14 -21 -27 -48q-2 35 -1 62q7 16 16 38
q21 54 29 97q5 21 4.5 43.5t-10.5 39.5q-13 22 -32 24h-4z" />
    <glyph glyph-name="i" unicode="i" horiz-adv-x="180" 
d="M170 580q-5 -10 -13 -17q-6 -4 -12 -5q-24 18 -51 11q-8 -3 -16 -7q-15 -6 -25 -22q-11 -17 -10 -45q0 -14 9 -27t23 -19q11 -6 26 -8q12 -2 22 0q15 2 25 10q20 19 22 49q1 20 -8 37q-13 -28 -41 -36q-4 -1 -5 -1t1 4q2 6 -3 12t-11 5q-7 1 -11 -5t-4 -14q0 -9 6.5 -16
t16.5 -10q-15 4 -20.5 14t-4.5 17q3 13 11 15q8 3 14.5 -1t7.5 -9.5t0 -8.5q12 1 26 14q10 9 16 22q0 1 0.5 1.5l0.5 0.5v0.5t1 1.5q1 2 1 4q7 16 6 33zM47 450q-8 -6 -13 -36q-6 -34 0 -61q3 -12 9.5 -26t11.5 -17q-2 14 2 20t9 5t9 -5q12 -14 14 -46q1 -25 -8 -119
q-4 -31 -10 -56q-23 -118 -51 -129q25 0 44.5 12.5t32 32.5t19 37t10.5 34q20 93 24 173q3 56 -17 98q-3 6 -6 10q-8 10 -32.5 18t-32.5 14q-5 4 -10 18t-5 23z" />
    <glyph glyph-name="j" unicode="j" horiz-adv-x="240" 
d="M230 580q-5 -10 -13 -17q-6 -4 -12 -5q-24 18 -51 11q-8 -3 -16 -7q-15 -6 -25 -22q-11 -17 -10 -45q0 -14 9 -27t23 -19q11 -6 26 -8q12 -2 22 0q15 2 25 10q20 19 22 49q1 20 -8 37q-13 -28 -41 -36q-4 -1 -5 -1t1 4q2 6 -3 12t-11 5q-7 1 -11 -5t-4 -14q0 -9 6.5 -16
t16.5 -10q-15 4 -20.5 14t-4.5 17q3 13 11 15q8 3 14.5 -1t7.5 -9.5t0 -8.5q12 1 26 14q10 9 16 22q0 1 0.5 1.5l0.5 0.5q0 1 1 2q1 3 1 4q7 16 6 33zM107 450q-8 -6 -13 -36q-6 -34 0 -61q3 -12 9.5 -26t11.5 -17q-2 14 4 19.5t13.5 4t10.5 -5.5q13 -16 18 -44q6 -50 6 -73
q1 -47 -7 -159q-6 -80 -19 -133q-2 -6 -4 -13q-52 12 -104.5 -6t-82.5 -54q-18 -21 -24 -46q-8 -30 7 -56q1 0 1 -1q17 -26 47 -33q24 -5 53 2q45 12 84 45q46 38 71 113q14 -4 30 -10q-12 12 -26 22q3 10 6 22q15 58 21 144q8 115 7 164q0 46 -5 76q-2 20 -6 36
q-10 34 -29 53q-9 9 -32.5 17t-32.5 15q-5 4 -10 18t-5 23zM127 -119h2q-20 -54 -49 -78t-61 -32q-15 -4 -25 -2q-6 1 -9 7q-3 4 -1 10q2 10 13 23q58 72 130 72z" />
    <glyph glyph-name="k" unicode="k" 
d="M148 600q-1 0 -2 -1q-10 0 -18 -6q-8 -5 -13 -13q-10 -16 -17 -54q-9 -58 -9 -126q0 -11 1 -53q-33 -91 -61 -107q32 2 61 30v-24q-18 -40 -26 -81q-7 -39 -8 -84q-1 -25 1 -40q2 -12 5 -20q4 -7 9 -12q10 -9 23 -9q17 0 29 14q6 7 10 19q6 15 9 41q6 41 8 114v44
q16 31 37 54q32 37 61 47q4 1 -1 -4q-4 -5 -22 -22q-25 -24 -32 -32q-33 -42 -33 -75q0 -16 12 -48q13 -32 31 -62q22 -37 47 -59q34 -31 70 -31q19 0 31 10q14 11 16 30q1 18 -10 43q-11 23 -27 44q-2 6 5 12q6 4 11 2.5t4 -6.5q12 7 18 24q7 18 2 51q-4 25 -10 30
q0 -8 -4.5 -19t-9.5 -15q-7 -5 -23 -12t-23 -13q-24 -22 -29 -43q-5 -20 5 -40q2 -4 10 -13q9 -12 6 -11l-2 1q-18 17 -36 46q-15 25 -26 53q-2 5 -4 12t-3 11l-1 4q2 13 20 36q12 15 50 53q3 3 10 9.5t10 10t8 9t8 11t6 12.5q4 12 3 22q-2 16 -15 25q-13 11 -40 11
q-68 0 -130 -66q0 5 -0.5 15.5t-0.5 15.5q6 14 13 30q21 54 29 97q5 21 4.5 43.5t-10.5 39.5q-13 21 -32 24q-2 1 -5 1z" />
    <glyph glyph-name="l" unicode="l" horiz-adv-x="260" 
d="M149 599q-13 0 -23 -7q-6 -6 -11 -14q-9 -16 -15 -55q-2 -18 -4.5 -41.5t-4 -47.5t-2.5 -31q-2 -21 -10 -84q-27 -66 -50 -79q22 1 42 15q-5 -47 -6 -81q-4 -68 6 -107q7 -26 21 -42q17 -21 43 -25q28 -3 53 16q18 14 28 37q10 20 4 45q-4 16 -10 26q-3 9 5 15
q6 4 11 2.5t4 -6.5q12 7 18 24q7 18 2 51q-4 25 -10 30q0 -8 -4.5 -19t-9.5 -15q-7 -5 -23 -12t-23 -13q-24 -22 -29 -43q-3 -14 5 -40q4 -12 6 -21q2 -14 -8.5 -18t-15.5 4q-5 6 -8 19q-8 30 -5 89q1 39 19 182q8 18 18 42q21 54 29 97q10 56 -6 83v0q-13 22 -32 24h-4z
" />
    <glyph glyph-name="m" unicode="m" horiz-adv-x="480" 
d="M46 450q-8 -6 -13 -36q-6 -34 0 -61q3 -12 9.5 -26t11.5 -17q-2 20 8 26t18 -1q5 -4 9 -10.5t5.5 -11.5t4 -15.5t3.5 -13.5q3 -14 5 -44q-13 -49 -17 -87q-5 -49 -6 -81q0 -21 1 -34q1 -9 4 -16t8 -12q9 -10 23 -10q20 0 33 17q8 9 12 24q6 20 8 55q2 47 -3 116
q-1 7 -1 25q3 13 7 23q9 27 22.5 50t21.5 31q7 -8 11 -19q16 -39 25 -112l2 -16q-14 -64 -17 -114q-2 -26 0 -41q2 -12 6 -20q9 -19 30 -20t32 19q5 8 8 20q4 18 5 48q2 46 -3 105q14 61 31 101q6 14 13.5 26.5t12.5 18t6 5.5q5 3 10 -4t7 -16q1 -3 2 -7q3 -29 -1 -73
q0 -4 -2 -23t-4 -42.5t-4 -45.5q-6 -81 4 -127q9 -41 44 -72t78 -42.5t88.5 -2t74.5 42.5q-79 -46 -147.5 -22.5t-87.5 104.5q-2 10 6 115q2 21 4 44t3.5 42t2.5 25q1 16 2 24q2 36 -1 57q-2 17 -8 32q-9 22 -30 37q-17 13 -38 14q-14 1 -27 -4q-22 -10 -35.5 -29t-26.5 -50
q-5 14 -9 26q-13 31 -31 45q-11 9 -28 11.5t-31 -4.5q-30 -15 -50 -50v0q-8 19 -19 30q-5 4 -11 8q-5 3 -10 5t-15 5t-17.5 6.5t-13 7.5t-10.5 18t-5 23z" />
    <glyph glyph-name="n" unicode="n" 
d="M46 450q-8 -6 -13 -36q-6 -34 0 -61q3 -12 9.5 -26t11.5 -17q-2 20 8 26t18 -1q5 -4 9 -10.5t5.5 -11.5t4 -15.5t3.5 -13.5q3 -14 5 -46q-13 -47 -17 -85q-5 -49 -6 -81q0 -21 1 -34q1 -9 4 -16t8 -12q9 -10 23 -10q20 0 33 17q8 9 12 24q6 20 8 55q2 47 -3 116
q-1 6 -1 23q0 1 1 4t1 5q8 24 19.5 45.5t18.5 27.5q31 26 64 22q23 -4 26 -17q1 -3 2 -7q3 -17 1 -49q-1 -8 -1 -15q0 -3 -1 -9q0 -4 -2 -23t-4 -42.5t-4 -45.5q-6 -81 4 -127q9 -41 44 -72t78 -42.5t88.5 -2t74.5 42.5q-79 -46 -147.5 -22.5t-87.5 104.5q-2 10 6 115
q2 21 4 44t3.5 42t2.5 25q1 16 2 24q2 36 -1 57q-2 17 -8 32q-16 41 -73 47q-7 1 -13 1q-52 1 -96 -36q-11 -9 -21 -23q-1 4 -4 8q-7 18 -18 29q-5 4 -11 8q-5 3 -10 5t-15 5t-17.5 6.5t-13 7.5t-10.5 18t-5 23z" />
    <glyph glyph-name="o" unicode="o" 
d="M209 470q-2 -31 -21 -51q-7 -8 -24 -12.5t-32 -14.5q-17 -12 -33 -30q-1 -2 -2 -3q-53 -57 -62 -136t46 -150q56 -73 128 -73q68 0 111 55q41 52 49 142q5 58 -20 111q-30 66 -87 72q-17 2 -34 -3q0 -3 -1 -6q-11 -40 -26 -60q-5 -5 -6 -4q6 18 0 23q-10 8 -31 -1
q-2 -2 -2 -3q-35 -47 -43 -102q-5 -42 10 -82q21 -55 66 -62q41 -6 73 37q21 28 30 66q9 34 5 65q-2 21 -11 36q-13 20 -36 25h-1q-1 1 -1.5 1h-1.5h-5q-20 0 -34 -18t-15.5 -44.5t15.5 -46.5q-6 46 12 59q10 8 16 -8v-1l2 -6v-1v-3q3 -20 -3 -44q-7 -25 -20 -44
q-11 -14 -17 -13q-10 1 -18 23q-10 26 -6 53q5 40 31 74q24 33 46 30q23 -2 39 -37q18 -39 14 -80q-6 -73 -36 -111q-25 -32 -64 -32q-18 0 -40.5 13.5t-39.5 36.5q-40 52 -34 107q4 40 24 73q17 25 38 38q11 6 23 8q13 0 18 -5v-1q4 -5 2 -12q0 -4 -2 -7l1 1q6 6 12 19
q6 15 10 28l4 12q4 15 3 29q0 17 -7 42t-12 28z" />
    <glyph glyph-name="p" unicode="p" 
d="M201 397h-4q-24 0 -48 -9q-49 -18 -84 -65t-35 -123v-1q-2 -83 14 -203q2 -9 6.5 -40t6.5 -47q-48 6 -94.5 -12t-73.5 -51q-18 -21 -24 -46q-8 -30 7 -56q1 0 1 -1q17 -26 50 -34q25 -6 57 0q63 11 100 50q38 41 39 114q18 -5 39 -13q-18 18 -39 30q-1 18 -3.5 37.5
t-6.5 43.5t-5 33q-16 115 -14 195v1q0 61 22 89.5t59 42.5q49 18 94 -15.5t45 -106.5q0 -62 -36 -109q-15 -20 -33 -30.5t-31 -10.5h-5q-41 3 -43 19q-1 4 2 5q7 2 11 -1t2 -7q14 3 25 17q11 16 16 48q4 26 0 32q-2 -7 -9.5 -18t-13.5 -12q-8 -3 -26 -3.5t-26 -5.5
q-34 -18 -40 -42q-5 -18 0 -37t17 -31q26 -25 88 -24h2q62 0 111 64t49 146t-50.5 134.5t-118.5 52.5zM59 -120q1 -54 -23 -79q-9 -10 -28.5 -20t-38.5 -13q-19 -4 -32 -1q-10 3 -13 9q-3 4 -1 10q3 10 13 23q55 69 123 71z" />
    <glyph glyph-name="q" unicode="q" 
d="M276 448q1 -13 -4 -22.5t-9 -13t-14 -10.5q-7 -5 -12.5 -6t-16.5 -1.5t-25 -4.5q-4 -1 -39 -17q-2 -1 -4 -3q-31 -16 -55 -43q-56 -59 -56 -137q0 -97 47 -148q46 -51 117 -42q41 5 76 42v-42v-1q0 -104 13 -164q10 -53 31 -81q14 -18 35.5 -28t44.5 -6q30 10 44 33
t11.5 45.5t-19 41t-41.5 20.5q27 -26 25.5 -55t-31.5 -29q-26 -1 -42 71q-11 54 -11 152q0 86 2 145v1q11 28 17 53q10 46 -1 73q-5 11 -11 17q-10 8 -22 8t-22 -9q-6 -5 -8 -10q-3 -5 -4 -14q-1 -3 -2 -7q-3 -21 -6 -67v0v-8q0 -11 -1 -22v-1v-1q-4 -8 -6 -14
q-17 -33 -40.5 -57t-39.5 -26q-40 -5 -65 22q-31 34 -31 108q0 54 39 96q12 13 27 23q13 8 32 12q17 4 29 -1q6 -3 11 -13.5t2 -19.5q10 5 19 20q16 27 21 64q2 19 0 46t-5 31z" />
    <glyph glyph-name="r" unicode="r" horiz-adv-x="300" 
d="M204 460q1 -12 -7.5 -26.5t-18.5 -22.5q-14 -12 -47.5 -14t-47.5 -11q-44 -30 -44 -88q0 -16 9.5 -35.5t24.5 -27.5q16 -13 36 -16q24 -4 62 1q1 0 3 0.5t3 0.5q-27 -59 -35 -103q-9 -48 4 -77q9 -19 31 -32t43 -9q36 7 55 38.5t24 66.5q-28 -42 -46 -53.5t-34 -6.5
q-27 9 -18 61q7 42 45 120v1q0 1 1 2q3 7 4 15q2 14 -6 25q-11 16 -34 16q-8 0 -49 -5q-3 -1 -10 -2t-10.5 -1t-9 0.5t-9 2.5t-6.5 6q-11 18 -1.5 30t25.5 11q29 -2 31 -13q1 -7 -1 -11q13 9 28 37q18 34 20 54q1 18 -3.5 39.5t-11.5 26.5z" />
    <glyph glyph-name="s" unicode="s" horiz-adv-x="360" 
d="M150 441h-1q-24 -1 -42.5 -16.5t-24.5 -38.5q-11 -48 27 -86q9 -9 23 -22q-7 -37 -16 -64q-2 -7 -12 -38.5t-15 -45.5t-15.5 -43t-19.5 -45.5t-21 -36t-25.5 -30t-27.5 -14.5q25 2 47 13.5t40 32.5t31.5 40t27 49.5t20 47t16.5 46.5q4 11 6 16q6 15 11 32q25 -21 40 -35
q31 -29 47 -50q15 -21 15 -32q0 -33 -16 -48q-9 -9 -25 -11q-8 -1 -11.5 4t-1.5 9q3 6 8.5 6t6.5 -5q9 12 8 30q0 19 -17 47q-12 23 -20 25q3 -7 4 -20t-2 -18q-5 -7 -18.5 -19t-17.5 -20q-15 -35 -5 -59q7 -16 23 -28t33 -14q11 -1 24 3q31 6 53 27q34 33 34 91
q0 31 -27 67q-19 26 -54 59q-20 18 -64 55q5 25 7 46q3 34 -4 56q-6 16 -17 25q-12 11 -29 12h-3zM144 379q1 0 1 -9.5t-2 -16.5q-6 17 0 26h1z" />
    <glyph glyph-name="t" unicode="t" horiz-adv-x="300" 
d="M79 560q19 -21 22 -73t-6 -107h-1q-11 3 -19 5t-11 2.5t-8 2t-11 4.5q-28 14 -26 46q-3 -4 -5.5 -28t0.5 -42q4 -23 21 -51q10 -16 17 -19q-9 25 12 25q7 0 25 -2q-8 -69 -9 -102v-14q3 -90 34 -145q34 -62 86 -62h4q11 -1 25 5q7 2 19 8q4 2 7 5q12 8 18 19q10 20 6 52
q-1 9 -9 24.5t-10 24.5q-1 6 3 17.5t9 17.5q-8 0 -27 -17q-25 -21 -32 -39q-7 -17 -2 -30q2 4 7.5 2t6.5 -9q0 -20 -25 -20q-17 0 -34 31q-25 44 -26 121q1 28 8 108h1q65 3 91 29q7 6 9 15v1q0 5 -0.5 8t-2.5 5.5t-3 3.5t-5 3.5t-4 3.5q14 7 15 20q0 5 -6 11
q-1 -15 -26.5 -19.5t-28.5 -8.5q-7 -9 -5 -17q-3 -1 -7 -1q-10 -3 -24 -4q3 33 1 64t-8.5 56t-23 43.5t-42.5 26.5z" />
    <glyph glyph-name="u" unicode="u" 
d="M47 450q-8 -6 -13 -36q-6 -34 0 -61q3 -12 9.5 -26t11.5 -17q-2 20 8 26t18 -1q13 -9 15 -39q0 -20 -24 -80q-31 -79 -9 -132l2 -4q25 -42 63.5 -65t80.5 -14q43 8 76 63q18 -72 53 -117.5t76 -59t85 -2.5t81 45q-37 -23 -70.5 -28.5t-57.5 2.5t-45 27t-33.5 39t-23.5 44
q-17 40 -21 133q6 13 15 51q9 40 14 87q6 48 4 75v6.5t-0.5 8t-3 7.5t-7.5 11q-8 10 -27 11q-6 0 -10 -1q-10 -4 -18 -15q-16 -21 -23 -71q-7 -45 -6 -101q0 -27 2 -52q-7 -11 -17.5 -33.5t-15.5 -31.5q-21 -36 -38 -40q-20 -3 -41.5 10t-38.5 39q-11 31 9 84q17 34 23 61
q11 46 6 71q-7 33 -27 53q-5 5 -13 9l-4 2q-4 2 -23 8.5t-27 12.5q-5 4 -10 18t-5 23zM344 352z" />
    <glyph glyph-name="v" unicode="v" 
d="M26 450q-8 -6 -13 -36q-6 -34 0 -61q3 -12 9.5 -26t11.5 -17q-2 20 8 26t18 -1q9 -6 20 -23q10 -18 18 -44q8 -28 24 -106q15 -71 27 -102q10 -25 24 -39q20 -21 46 -21q63 0 104 75q32 57 36 123q4 62 -19 124l-1 3q20 38 30 95q-8 -10 -47 -61q-7 9 -14 17
q-24 24 -54 23q-5 0 -13 -1q-29 -6 -46 -41q-17 -32 -5 -55q10 -20 31 -33.5t40 -9.5q17 4 31 13q9 -39 7 -70q-4 -55 -28 -98q-9 -15 -27.5 -33t-27.5 -9q-5 6 -11 21q-11 25 -24 91q-16 81 -26 112q-14 48 -33 73q-7 11 -14 18q-10 9 -34 17t-33 15q-5 4 -10 18t-5 23z
M256 340q3 0 9 -6q7 -7 14 -21q-12 -7 -22 -4q-12 4 -11.5 15t8.5 16h2z" />
    <glyph glyph-name="w" unicode="w" horiz-adv-x="440" 
d="M6 450q-8 -6 -13 -36q-6 -34 0 -61q3 -12 9.5 -26t11.5 -17q-2 20 8 25.5t18 -0.5q3 -1 5 -4t4.5 -7.5t4.5 -9t5.5 -12.5t6.5 -15q21 -58 22 -153q0 -63 3 -81q5 -22 17 -36q16 -17 41 -17q37 0 69 34q7 7 15 19q9 -21 22 -33q19 -20 44 -20q35 0 63 26q21 20 36 54
q25 60 21 122l-1.5 24t-2.5 34.5t-5 30.5t-11 35q20 38 30 94q-9 -11 -47 -61q-8 14 -18 23q-21 19 -52 18q-5 -1 -8 -1q-34 -6 -49 -41.5t-5 -55.5t31 -33.5t40 -9.5q17 4 31 13q3 -20 7 -74q3 -47 -17 -94q-9 -23 -21 -34q-19 -13 -24 -8t-10 18q-9 21 -15 55q6 20 9 38
q6 42 -4 68q-5 12 -12 18q-10 9 -24 7q-13 -1 -21 -11q-6 -7 -9 -18q-1 -6 -2 -14q-4 -32 1 -78q1 0 1 -1.5v-2.5q-4 -10 -7 -18q-13 -30 -30 -48l-4 -4t-6 -5t-6 -3.5t-5 -1t-3 3.5q-2 12 -2 69q-1 130 -41 210q-8 22 -19 33q-10 9 -34 17t-33 15q-5 4 -10 18t-5 23z
M317 340q4 0 7 -2q5 -5 15 -25q-12 -7 -22 -4q-12 4 -11.5 15t8.5 16h3z" />
    <glyph glyph-name="x" unicode="x" 
d="M46 450q-7 -6 -13 -36q-6 -34 0 -61q3 -12 9.5 -26t11.5 -17q-2 20 8 25.5t18 -0.5q14 -6 28.5 -23.5t21.5 -31.5q9 -18 22 -47t18 -37q-17 -30 -34 -63q-17 -31 -28.5 -50.5t-32.5 -45.5t-41 -38q37 0 71.5 22.5t55 49t36.5 59.5q1 1 1.5 2.5t1.5 2.5q9 -19 38 -75.5
t47 -92.5q13 -28 40.5 -48.5t60 -27.5t69 2.5t65.5 36.5q-34 -17 -63 -19.5t-50.5 7.5t-37 25.5t-29.5 38.5q-24 39 -49 91.5t-33 66.5q-11 21 -25 55q38 66 86 130q8 10 14 -1q4 -8 2 -24q5 3 11.5 17t9.5 26q6 27 0 61q-5 30 -13 36q0 -10 -4.5 -23.5t-10.5 -17.5
q-10 -7 -23 -10.5t-21.5 -8.5t-16.5 -18q-44 -74 -61 -103q-36 85 -78 117q-5 5 -10 8l-10 5q-3 1 -21 7.5t-26 12.5q-5 4 -10 17.5t-5 23.5z" />
    <glyph glyph-name="y" unicode="y" 
d="M27 450q-8 -6 -13 -36q-6 -34 0 -61q3 -12 9.5 -26t11.5 -17q-2 14 4 19.5t13.5 4t10.5 -5.5q26 -36 13 -117q-10 -56 -5 -95q6 -49 39 -81q36 -35 91 -35q59 0 99 54q13 -76 16 -112q1 -20 0 -36q-52 12 -104 -6t-82 -54q-18 -21 -24 -46q-8 -30 7 -56q1 0 1 -1
q17 -26 50 -34q25 -6 57 0q63 11 100 51q41 44 51 109q13 -4 27 -9q-12 12 -25 21q4 29 1 64q-2 40 -15 115.5t-15 88.5l-2 6q4 15 6 30q16 90 12 152q-1 15 -3 25q-4 15 -10 24q-8 10 -21 13q-3 1 -7 0q-11 0 -19 -6q-10 -7 -17 -22q-29 -63 -18 -153q4 -32 14 -68
q-11 -38 -28 -60q-22 -30 -51 -30q-31 0 -49 18q-18 17 -21 46q-1 10 -1.5 19t0.5 19.5t1.5 15.5t3 19.5t3.5 17.5q8 46 0 83q-1 14 -4 26q-10 36 -27 53q-9 9 -32.5 17t-32.5 15q-5 4 -10 18t-5 23zM307 -119q3 0 7 -1q-7 -47 -37 -80q-9 -9 -28.5 -19t-37.5 -13
q-20 -4 -33 -1q-10 3 -13 9q-3 4 -1 10q2 10 13 23q58 72 130 72z" />
    <glyph glyph-name="z" unicode="z" 
d="M203 460q1 -12 -7.5 -26.5t-18.5 -22.5q-14 -12 -47.5 -14t-47.5 -11q-44 -30 -44 -88q0 -16 9.5 -35.5t24.5 -27.5q16 -13 36 -16q24 -4 62 1q5 1 6 1q-27 -59 -35 -103q-9 -48 4 -77q9 -19 29.5 -30.5t44.5 -10.5h1q18 1 45 14q12 5 25 13q23 -66 24.5 -85.5t0.5 -35.5
q-52 12 -104 -6t-82 -54q-18 -21 -24 -46q-8 -30 7 -56q1 0 1 -1q17 -26 50 -34q25 -6 57 0q63 11 100 51q41 44 51 109q13 -4 27 -9q-12 12 -25 21q4 29 1 64q0 14 -4 31t-7.5 27.5t-10.5 29.5t-8 24q-1 1 -1.5 3.5t-0.5 3.5q3 4 4 5q13 16 9 34q-3 14 -16 21q-7 5 -17 6
q-23 3 -36 -13q-11 -11 -11 -29q-17 -11 -35 -19q-35 -16 -40 -3q-6 12 0 40q9 46 45 121q4 9 5 17q2 14 -6 25q-11 16 -34 16q-8 0 -49 -5q-3 -1 -10 -2t-10.5 -1t-9 0.5t-9 2.5t-6.5 6q-11 18 -1.5 30t25.5 11q29 -2 31 -13q1 -6 -1 -11q13 9 28 37q18 34 20 54
q1 18 -3.5 39.5t-11.5 26.5zM208 225h-1h1zM306 -119q3 0 7 -1q-7 -47 -37 -80q-9 -9 -28.5 -19t-37.5 -13q-20 -4 -33 -1q-10 3 -13 9q-3 4 -1 10q3 10 13 23q58 72 130 72z" />
    <glyph glyph-name="braceleft" unicode="{" horiz-adv-x="600" 
d="M225 527q-6 -3 -13 -23q-8 -23 -7 -42q2 -26 10 -33q1 15 10.5 18t15.5 -4q3 -3 5 -7v-2q6 -15 0 -27q-5 -9 -24 -24q-31 -24 -41 -35q-55 -55 -57 -141h-31q-14 0 -18 1h1l1 1l2 2q3 5 4 8q4 15 -10 23q-3 1 -11.5 2t-12.5 4q-7 5 -6 12q-5 -3 -4 -16q0 -6 5 -14
q4 -7 7 -9q-1 1 0 2q0 3 7 4q4 0 6.5 -3t0.5 -7q-2 -2 -3 -4q-3 -3 -3 -7v-2q1 -5 5 -7q3 -2 6 -3q6 -1 23 -1h31q2 -86 57 -141q10 -11 41 -35q19 -15 24 -24q1 -3 2 -7q-1 -8 -12 -23l-12.5 -12.5t-15 -20t-2.5 -23.5q4 -31 25 -42q-6 10 -2 22t9.5 18.5t16 19.5t16.5 25
q16 34 1 58l249 185q8 1 13 5q7 4 7 12q0 5 -4 8q-2 2 -4 3h1q9 1 10.5 7.5t-5.5 8.5q1 -5 -3.5 -6.5t-11 -0.5t-12.5 0t-9 -6v-1q-1 -1 -1 -2l-230 171v1q4 7 5 14q1 3 1 6q2 14 -2 28q-4 17 -16 32q-4 5 -14 11.5t-15 12.5q-4 3 -5.5 13t-0.5 17zM271 390l231 -171
q0 -3 1 -5q2 -3 6 -4q3 -1 7 -1l2 -2h-364q2 74 48 120q9 9 39 33q22 17 30 30zM519 208h1h4q-1 -1 -3 -1zM154 193h364l-247 -183q-8 13 -30 30q-30 24 -39 33q-46 46 -48 120z" />
    <glyph glyph-name="bar" unicode="|" horiz-adv-x="160" 
d="M41 510q-8 -6 -13 -36q-6 -34 0 -61q3 -12 9.5 -26t11.5 -17q-3 24 11 26q7 0 9 -6q1 -4 2 -11q1 -4 1 -8q1 -27 -0.5 -60t-6 -83t-5.5 -69q-5 -72 -3 -122t19.5 -77.5t53.5 -29.5q-10 13 -15.5 24.5t-8 22t-2 30t2.5 35t6 52t7 67.5q18 189 10 231v0.5v0.5q-3 15 -9 24
q-8 10 -18.5 19t-26 19t-20.5 14t-10 18t-5 23z" />
    <glyph glyph-name="braceright" unicode="}" horiz-adv-x="600" 
d="M359 527q1 -7 -1 -17t-5 -13q-6 -6 -16 -12.5t-14 -11.5q-11 -15 -15 -32q-4 -13 -3 -27q0 -3 1 -7q2 -7 5 -14l1 -1l-230 -171q-1 1 -1 2t-1 1q-2 5 -8 6q-7 1 -13.5 0t-10.5 0.5t-3 6.5q-7 -2 -5.5 -8.5t10.5 -7.5h1q-3 -1 -5 -3q-3 -3 -3 -8q0 -8 6 -12q5 -4 13 -5
l250 -185q-15 -24 1 -58q6 -12 16 -25t16 -19.5t10 -18.5t-3 -22q22 11 26 42q2 14 -2.5 23.5t-15.5 20t-12 12.5q-12 15 -12 23q0 4 2 7q4 9 23 24q31 24 42 35q54 55 57 141h31q17 0 22 1q4 1 6 3q5 2 6 7v2q0 4 -3 7q-1 2 -3 4q-3 4 -0.5 7t6.5 3q8 -1 8 -4v-2q3 2 7 9
q4 8 5 14q0 13 -4 16q0 -7 -7 -12q-3 -3 -11.5 -4t-11.5 -2q-14 -8 -10 -23q0 -3 4 -8l2 -2q0 -1 1 -1q-4 -1 -17 -1h-31q-3 86 -57 141q-11 11 -42 35q-19 15 -23 24q-6 12 -1 27q1 1 1 2q2 4 5 7q5 7 15 4t11 -18q8 7 9 33q2 19 -6 42q-7 20 -13 23zM313 390q7 -13 29 -30
q30 -24 40 -33q46 -46 48 -120h-364l2 2q4 0 6 1q4 1 6 4q2 2 2 5zM64 208l-1 -1q-2 0 -4 1h5zM66 193h364q-2 -74 -48 -120q-10 -9 -40 -33q-22 -17 -29 -30z" />
    <glyph glyph-name="asciitilde" unicode="~" 
d="M56 280q-3 -4 -5 -28t0 -42q4 -23 22 -51q10 -16 17 -19q-5 9 -4.5 14t9.5 11q26 17 66 21q18 2 63.5 -11t68.5 -4q27 11 43 27.5t24 51.5q-18 -21 -35.5 -29.5t-40.5 -11.5q-24 -2 -67.5 17t-63.5 20q-11 1 -36 -7.5t-35 -4.5q-28 14 -26 46z" />
    <glyph glyph-name="nonbreakingspace" unicode="&#xa0;" horiz-adv-x="200" 
 />
    <glyph glyph-name="exclamdown" unicode="&#xa1;" horiz-adv-x="166" 
d="M120 -141h-72l7 337h56zM132 296q0 -20 -14 -34t-34 -14t-34 14t-14 34t14 34t34 14t34 -14t14 -34z" />
    <glyph glyph-name="cent" unicode="&#xa2;" horiz-adv-x="479" 
d="M418 52q-53 -29 -133 -31v-77h-55v80q-78 14 -123.5 68.5t-45.5 136.5t45.5 136.5t123.5 68.5v80h55v-77q80 -2 133 -31l-21 -48q-25 11 -52 17t-56 6q-79 0 -123.5 -40t-44.5 -112t44.5 -112t123.5 -40q29 0 56 6t52 17z" />
    <glyph glyph-name="sterling" unicode="&#xa3;" horiz-adv-x="479" 
d="M391 0h-302v37q82 51 82 124q0 8 -1 21t-3 27h-77v46h71q-2 21 -3.5 38.5t-1.5 34.5q0 140 131 140q40 0 91 -23l-18 -42q-44 18 -75 18q-80 0 -80 -93q0 -38 7 -73h111v-46h-103q1 -8 1.5 -19.5t0.5 -21.5q0 -73 -42 -121h211v-47z" />
    <glyph glyph-name="currency" unicode="&#xa4;" horiz-adv-x="479" 
d="M427 226q0 -59 -34 -106l37 -39l-43 -46l-39 41q-44 -35 -109 -35q-63 0 -107 35l-39 -41l-43 46l37 39q-34 47 -34 106t34 106l-37 39l43 46l39 -41q44 35 107 35q65 0 109 -35l39 41l43 -46l-37 -39q34 -47 34 -106zM365 226q0 51 -37 88t-88 37q-53 0 -89 -37t-36 -88
q0 -53 36 -89t89 -36q51 0 88 36t37 89z" />
    <glyph glyph-name="yen" unicode="&#xa5;" horiz-adv-x="479" 
d="M384 91h-115v-73h-58v73h-115v50h115v32h-115v50h105l-145 238h70l113 -190l114 190h71l-146 -237h106v-51h-115v-32h115v-50z" />
    <glyph glyph-name="brokenbar" unicode="&#xa6;" horiz-adv-x="160" 
d="M104 220h-48v256h48v-256zM104 -119h-48v257h48v-257z" />
    <glyph glyph-name="section" unicode="&#xa7;" horiz-adv-x="379" 
d="M307 71q0 -51 -36.5 -80t-92.5 -29q-63 0 -110 38l23 42q20 -19 42 -27t47 -8q36 0 57.5 16.5t21.5 42.5q0 35 -48 59q-25 10 -52 20.5t-52 21.5q-53 26 -53 82q0 43 39 78q-18 23 -18 52q0 45 34 73t90 28q26 0 52.5 -8t52.5 -22l-25 -43q-40 29 -85 29q-29 0 -49 -14.5
t-20 -36.5q0 -11 6.5 -20t17.5 -17q8 -5 26 -12.5t42 -15.5q51 -18 79.5 -45.5t28.5 -62.5q0 -23 -10 -43.5t-27 -39.5q19 -23 19 -58zM274 207q0 17 -19.5 34.5t-49.5 28.5q-26 9 -45.5 17t-32.5 14q-25 -22 -25 -50q0 -12 8 -21.5t22 -19.5q10 -5 26.5 -12.5t42.5 -16.5
q19 -7 32 -12.5t22 -11.5q11 13 15 25t4 25z" />
    <glyph glyph-name="dieresis" unicode="&#xa8;" horiz-adv-x="340" 
d="M140 425q0 -19 -13 -31.5t-30 -12.5q-18 0 -31 12.5t-13 31.5q0 18 13 31t31 13q17 0 30 -13t13 -31zM288 425q0 -19 -13 -31.5t-30 -12.5t-30.5 12.5t-13.5 31.5q0 18 13.5 31t30.5 13t30 -13t13 -31z" />
    <glyph glyph-name="copyright" unicode="&#xa9;" horiz-adv-x="430" 
d="M125 377q5 -11 5 -25q-1 -10 -7 -20q-34 -3 -83 12q44 -17 74 -24q-2 -4 -10.5 -13t-15 -17.5t-12.5 -17.5q-18 -30 -18 -57v-4q1 -43 19 -89q15 -41 42 -66q34 -33 82 -36q71 -3 126 35q66 46 67 132v1q0 62 -41 115q-18 24 -46.5 40t-57.5 16q-12 0 -23 -3
q-13 -3 -40.5 -10.5t-38.5 -9.5q-13 34 -22 41zM226 320q59 0 89 -39q14 -18 22.5 -45.5t8.5 -47.5v-1q0 -61 -47 -93q-41 -29 -96 -26q-30 2 -51 22q-18 18 -30 49q-8 21 -12 45q-11 64 14 76q23 12 29 -14q9 12 9 35q-1 14 -7 32q29 -1 71 7zM242 278h-9q-32 -7 -58 -29
q-32 -27 -33 -60q-1 -34 23.5 -59.5t60.5 -25.5q41 1 55.5 27.5t2.5 56.5q-4 -8 -9 -14.5t-10 -10.5t-9 -6.5t-9.5 -3.5t-7.5 -1h-7h-6q-13 0 -24.5 12.5t-11.5 23.5t16 24q14 12 24 15q9 2 17 -1q12 -4 15 -12q7 -13 0 -20q6 0 15 6q20 14 27 30q4 10 5.5 28.5t-0.5 19.5
q0 -2 -1.5 -5t-2 -4.5t-1 -4t-1.5 -3t-2 -2t-2 -2.5t-2 -1.5t-3 -0.5q-4 -1 -8 0.5t-6.5 3t-7.5 6t-6 5.5q-11 9 -24 8z" />
    <glyph glyph-name="ordfeminine" unicode="&#xaa;" horiz-adv-x="250" 
d="M225 248h-43q-2 5 -3 11.5t-3 14.5q-28 -29 -70 -29q-80 0 -80 72q0 80 147 83q-2 25 -17.5 35.5t-35.5 10.5q-17 0 -34.5 -4t-34.5 -16l-14 34q21 14 44 20t46 6q90 0 90 -110v-84q0 -5 1.5 -16.5t6.5 -27.5zM173 324v39q-54 0 -78.5 -11.5t-24.5 -34.5q0 -35 42 -35
q9 0 19.5 3t20 8.5t15.5 13t6 17.5z" />
    <glyph glyph-name="guillemotleft" unicode="&#xab;" horiz-adv-x="355" 
d="M326 47h-60l-114 132l114 135h59l-113 -134zM204 47h-61l-113 132l111 136h62l-114 -136z" />
    <glyph glyph-name="logicalnot" unicode="&#xac;" horiz-adv-x="446" 
d="M403 88h-48v146h-321v45h369v-191z" />
    <glyph glyph-name="softhyphen" unicode="&#xad;" horiz-adv-x="422" 
d="M43.5 167q-5.5 15 1.5 29t23 19l17 5q23 8 47 10q19 2 37 1q18 0 46 -1q27 -1 63 0q43 1 62 -3l13 -5q15 -4 23 -18t4 -30t-18 -24t-30 -3l-13 4q-8 2 -40 1q-39 -2 -67 0h-44h-32q-12 -1 -25 -4l-18 -5q-15 -5 -29.5 2t-20 22z" />
    <glyph glyph-name="registered" unicode="&#xae;" 
d="M116 418q4 -10 4 -21q-1 -9 -6 -17q-28 -2 -69 10q37 -14 62 -20q-2 -3 -9 -10.5t-12.5 -14.5t-10.5 -15q-15 -25 -15 -48v-2q1 -37 16 -75q13 -34 34 -55q29 -28 69 -30q59 -3 105 29q55 38 56 110v1q0 51 -34 96q-15 20 -39 33.5t-48 13.5q-10 0 -19 -3
q-11 -3 -33.5 -9t-32.5 -8q-11 29 -18 35zM191 371q5 0 9 -1q56 -9 74 -32q12 -16 19 -38.5t7 -39.5v-1q0 -50 -39 -77q-34 -24 -80 -22q-25 2 -43 19q-15 14 -25 40q-6 17 -10 37q-9 54 12 64q19 10 24 -12q8 11 7 30q0 11 -5 26q9 0 25.5 3.5t24.5 3.5zM245 355
q-2 -7 -6.5 -10.5t-9.5 -3.5t-13 0.5t-11 -0.5q-32 -2 -48 -16q-15 -13 -17 -38q-2 -10 1 -38q0 -5 6 -27t3 -37q10 0 26 5q9 3 12.5 10.5t0.5 15.5q-6 18 -9 38q-2 17 -1 29q1 9 4 12q13 12 29 6q10 -4 8 -11q-3 -9 -15 -13t-20 3q0 -15 5 -30q10 -29 20 -40q7 -12 27 -10
t38 20q-19 0 -36 18q-12 13 -14 17q13 0 19 4q24 16 25 49q0 25 -24 47z" />
    <glyph glyph-name="macron" unicode="&#xaf;" horiz-adv-x="375" 
d="M376 528h-376v53h376v-53z" />
    <glyph glyph-name="degree" unicode="&#xb0;" horiz-adv-x="275" 
d="M227 397q0 -37 -26 -63t-63 -26t-63 26t-26 63t26 63t63 26t63 -26t26 -63zM195 397q0 23 -17 40t-40 17t-40 -17t-17 -40t17 -40t40 -17t40 17t17 40z" />
    <glyph glyph-name="plusminus" unicode="&#xb1;" horiz-adv-x="439" 
d="M405 0h-369v55h369v-55zM400 217h-148v-139h-63v139h-148v55h148v151h63v-151h148v-55z" />
    <glyph glyph-name="twosuperior" unicode="&#xb2;" horiz-adv-x="259" 
d="M217 190h-190q0 31 22.5 59.5t49 54.5t49 50.5t22.5 47.5q0 17 -9.5 26t-24.5 9q-19 0 -34 -14t-17 -41l-42 8q5 45 29 68.5t61 23.5q38 0 61.5 -21.5t23.5 -58.5q0 -21 -13 -46t-41 -54l-65 -67h124z" />
    <glyph glyph-name="threesuperior" unicode="&#xb3;" horiz-adv-x="259" 
d="M228 294q0 -48 -31.5 -77t-85.5 -30q-41 0 -75 25l20 42q14 -12 28 -16t28 -4q32 0 50.5 16.5t18.5 42.5q0 17 -10.5 26t-24.5 9q-12 0 -24 -4.5t-20 -10.5l-16 30q39 18 58.5 37.5t19.5 35.5q0 22 -28 22q-17 0 -33 -11.5t-24 -34.5l-37 19q31 72 97 72q69 0 69 -59
q0 -34 -32 -62q52 -15 52 -68z" />
    <glyph glyph-name="acute" unicode="&#xb4;" horiz-adv-x="201" 
d="M116.5 472q-10.5 -1 -17 -8.5t-4.5 -15.5l1 -15q3 -9 -4 -22q-11 -22 -17 -23l-7 -3q-10 -3 -14.5 -12t0.5 -17t15.5 -11t20.5 0l8 4q13 5 25 17q10 11 20 32t7 42l-2 14q-2 8 -11.5 13.5t-20 4.5z" />
    <glyph glyph-name="mu" unicode="&#xb5;" horiz-adv-x="412" 
d="M386 4l-61 -12q-5 11 -8.5 22.5t-6.5 25.5q-28 -22 -57.5 -35.5t-64.5 -13.5q-23 0 -43.5 8t-34.5 25v-165h-63v483h63v-182q0 -113 86 -113q37 0 71.5 25.5t34.5 66.5v203h63v-251q0 -18 5.5 -40t15.5 -47z" />
    <glyph glyph-name="paragraph" unicode="&#xb6;" horiz-adv-x="379" 
d="M324 -63h-34v506h-48v-506h-35v243h-4q-60 0 -107.5 37.5t-47.5 103.5q0 154 198 154q53 0 78 -5v-533z" />
    <glyph glyph-name="periodcentered" unicode="&#xb7;" horiz-adv-x="170" 
d="M134 182q0 -20 -14 -34t-34 -14t-34 14t-14 34t14 34t34 14t34 -14t14 -34z" />
    <glyph glyph-name="cedilla" unicode="&#xb8;" horiz-adv-x="247" 
d="M196 -90q0 -32 -21 -50.5t-59 -18.5q-14 0 -31 4.5t-32 13.5l14 32q14 -7 28.5 -11t22.5 -4q32 0 32 30q0 28 -64 39l43 66h43l-28 -39q27 -8 39.5 -23.5t12.5 -38.5z" />
    <glyph glyph-name="onesuperior" unicode="&#xb9;" horiz-adv-x="259" 
d="M210 195h-134v39h43v180l-40 -38l-25 34l83 74q15 0 23 -9.5t8 -24.5v-216h42v-39z" />
    <glyph glyph-name="ordmasculine" unicode="&#xba;" horiz-adv-x="292" 
d="M274 359q0 -54 -37.5 -90.5t-90.5 -36.5q-54 0 -90.5 36.5t-36.5 90.5q0 53 36.5 90.5t90.5 37.5q53 0 90.5 -37.5t37.5 -90.5zM230 359q0 34 -25 59t-59 25t-58.5 -25t-24.5 -59t24.5 -58.5t58.5 -24.5t59 24.5t25 58.5z" />
    <glyph glyph-name="guillemotright" unicode="&#xbb;" horiz-adv-x="355" 
d="M90 47h-60l114 133l-113 134h59l114 -135zM213 47h-61l115 132l-114 136h62l111 -136z" />
    <glyph glyph-name="onequarter" unicode="&#xbc;" horiz-adv-x="541" 
d="M180 176h-134v39h43v174l-38 -33l-28 36l84 74q31 -2 31 -35v-216h42v-39zM158 -9h-50l287 483h50zM415 108v118q-23 -20 -39.5 -53.5t-20.5 -64.5h60zM464 0h-49v60h-112q0 32 10 72t30 75.5t51.5 60t69.5 25.5v-185h42l-2 -48h-40v-60z" />
    <glyph glyph-name="onehalf" unicode="&#xbd;" horiz-adv-x="541" 
d="M520 0h-190q3 38 25.5 67t47.5 52q12 12 24.5 23.5t22.5 23.5t16.5 23.5t6.5 22.5q0 14 -8.5 24t-25.5 10q-41 0 -48 -54l-45 8q4 45 28.5 68.5t61.5 23.5q38 0 62 -21t24 -59q0 -25 -14.5 -47t-34 -42.5t-39.5 -39.5t-32 -37h124zM158 -9h-50l287 483h50zM180 176h-134
v39h43v174l-38 -33l-28 36l84 74q31 -2 31 -35v-216h42v-39z" />
    <glyph glyph-name="threequarters" unicode="&#xbe;" horiz-adv-x="541" 
d="M158 -9h-50l287 483h50zM223 285q0 -26 -10 -46t-26 -33.5t-37.5 -20.5t-43.5 -7q-41 0 -75 25l20 43q14 -11 28 -16.5t28 -5.5q32 0 50.5 17t18.5 43q0 35 -33 35q-25 0 -46 -18l-16 30q44 23 59.5 41t15.5 38q0 8 -6 13.5t-19 5.5q-40 0 -57 -49l-37 19q30 72 97 72
q35 0 51.5 -16t16.5 -38q0 -34 -31 -62q27 -4 39.5 -23t12.5 -47zM415 108v118q-23 -20 -39.5 -53.5t-20.5 -64.5h60zM464 0h-49v60h-112q0 32 10 72t30 75.5t51.5 60t69.5 25.5v-185h42l-2 -48h-40v-60z" />
    <glyph glyph-name="questiondown" unicode="&#xbf;" horiz-adv-x="287" 
d="M265 -114q-59 -37 -115 -37q-57 0 -91.5 30.5t-34.5 81.5q0 53 66 121q23 23 34 46.5t12 44.5q0 17 -7 42h57q5 -14 7.5 -25.5t2.5 -19.5q0 -55 -58 -116q-51 -54 -51 -91q0 -57 70 -57q43 0 83 29zM201 293q0 -20 -14 -34t-33 -14t-33 14t-14 34t14 34t33 14t33 -14
t14 -34z" />
    <glyph glyph-name="Agrave" unicode="&#xc0;" horiz-adv-x="800" 
d="M319 712q-1 -9 -9.5 -25.5t-14.5 -20.5q-9 -5 -33 1t-42 -6q-22 -16 -26 -29q-12 -36 6 -68q17 -29 53 -45t70 -7q-28 4 -56 24t-27 41v1q2 19 21 19q7 0 11.5 -4t4.5 -7q0 -4 -2 -7q14 7 24 23q18 27 23 65t-3 45zM660 540q-16 0 -31 -12q-9 -7 -19 -20q-16 -21 -36 -59
q-33 -61 -78 -167q0 -1 -1 -3l-1 -2q-90 24 -96 53q-25 -59 79 -95q-8 -21 -23.5 -60t-23.5 -58q-28 -62 -76.5 -106t-95.5 -62t-91 -18q-28 -1 -47.5 7t-23.5 18q-8 22 12.5 56.5t45.5 36.5q11 1 18 -2.5t8 -8.5t-1 -9q12 9 24 31q15 31 16 55q0 16 -3 33.5t-9 21.5
q1 -10 -6 -22t-16 -19q-11 -9 -44.5 -16.5t-46.5 -17.5q-31 -24 -49 -70q-6 -14 -7 -26q-11 -39 5 -70q30 -59 125 -58q56 0 114 22.5t114 74.5t89 125q1 0 1 1q8 20 24 61t25 63q33 -9 38 -10q35 -11 81 -36v-68q2 -38 6 -59q2 -14 7 -23q4 -8 10 -14q10 -8 23 -8
q44 0 69 49q22 43 9 80q-15 46 -64 77q0 12 0.5 34t0.5 30q2 116 -2 167q-3 39 -9 61q-4 15 -11 24q-13 18 -33 18zM649 462q2 0 4 -29q3 -49 2 -163q0 -12 -1 -37q-32 12 -101 29q43 101 73 159q4 5 7.5 12l6.5 13t8 14zM714 125q16 -23 2 -48q-6 -10 -3 35q0 7 1 13z" />
    <glyph glyph-name="Aacute" unicode="&#xc1;" horiz-adv-x="800" 
d="M267.5 684q-10.5 -1 -17 -8.5t-4.5 -15.5l1 -15q3 -9 -4 -22q-11 -22 -17 -23l-7 -3q-10 -3 -14.5 -12t0.5 -17t15.5 -11t20.5 0l8 4q13 5 25 17q10 11 20 32t7 42l-2 14q-2 8 -11.5 13.5t-20 4.5zM660 540q-16 0 -31 -12q-9 -7 -19 -20q-16 -21 -36 -59
q-33 -61 -78 -167q0 -1 -1 -3l-1 -2q-90 24 -96 53q-25 -59 79 -95q-8 -21 -23.5 -60t-23.5 -58q-28 -62 -76.5 -106t-95.5 -62t-91 -18q-28 -1 -47.5 7t-23.5 18q-8 22 12.5 56.5t45.5 36.5q11 1 18 -2.5t8 -8.5t-1 -9q12 9 24 31q15 31 16 55q0 16 -3 33.5t-9 21.5
q1 -10 -6 -22t-16 -19q-11 -9 -44.5 -16.5t-46.5 -17.5q-31 -24 -49 -70q-6 -14 -7 -26q-11 -39 5 -70q30 -59 125 -58q56 0 114 22.5t114 74.5t89 125q1 0 1 1q8 20 24 61t25 63q33 -9 38 -10q35 -11 81 -36v-68q2 -38 6 -59q2 -14 7 -23q4 -8 10 -14q10 -8 23 -8
q44 0 69 49q22 43 9 80q-15 46 -64 77q0 12 0.5 34t0.5 30q2 116 -2 167q-3 39 -9 61q-4 15 -11 24q-13 18 -33 18zM649 462q2 0 4 -29q3 -49 2 -163q0 -12 -1 -37q-32 12 -101 29q43 101 73 159q4 5 7.5 12l6.5 13t8 14zM714 125q16 -23 2 -48q-6 -10 -3 35q0 7 1 13z" />
    <glyph glyph-name="Acircumflex" unicode="&#xc2;" horiz-adv-x="800" 
d="M354 597h-54l-41 71l-40 -71h-55l78 115h35zM660 540q-16 0 -31 -12q-9 -7 -19 -20q-16 -21 -36 -59q-33 -61 -78 -167q0 -1 -1 -3l-1 -2q-90 24 -96 53q-25 -59 79 -95q-8 -21 -23.5 -60t-23.5 -58q-28 -62 -76.5 -106t-95.5 -62t-91 -18q-28 -1 -47.5 7t-23.5 18
q-8 22 12.5 56.5t45.5 36.5q11 1 18 -2.5t8 -8.5t-1 -9q12 9 24 31q15 31 16 55q0 16 -3 33.5t-9 21.5q1 -10 -6 -22t-16 -19q-11 -9 -44.5 -16.5t-46.5 -17.5q-31 -24 -49 -70q-6 -14 -7 -26q-11 -39 5 -70q30 -59 125 -58q56 0 114 22.5t114 74.5t89 125q1 0 1 1
q8 20 24 61t25 63q33 -9 38 -10q35 -11 81 -36v-68q2 -38 6 -59q2 -14 7 -23q4 -8 10 -14q10 -8 23 -8q44 0 69 49q22 43 9 80q-15 46 -64 77q0 12 0.5 34t0.5 30q2 116 -2 167q-3 39 -9 61q-4 15 -11 24q-13 18 -33 18zM649 462q2 0 4 -29q3 -49 2 -163q0 -12 -1 -37
q-32 12 -101 29q43 101 73 159q4 5 7.5 12l6.5 13t8 14zM714 125q16 -23 2 -48q-6 -10 -3 35q0 7 1 13z" />
    <glyph glyph-name="Atilde" unicode="&#xc3;" horiz-adv-x="800" 
d="M383 655q-1 -35 -15.5 -55.5t-43.5 -20.5q-8 0 -19.5 4.5t-24 10t-23.5 10t-18 4.5q-8 0 -10 -7.5t-2 -16.5h-44q0 30 14.5 50.5t41.5 20.5q9 0 20.5 -4t22.5 -9.5t21.5 -9.5t17.5 -4q19 0 19 27h43zM660 540q-16 0 -31 -12q-9 -7 -19 -20q-16 -21 -36 -59
q-33 -61 -78 -167q0 -1 -1 -3l-1 -2q-90 24 -96 53q-25 -59 79 -95q-8 -21 -23.5 -60t-23.5 -58q-28 -62 -76.5 -106t-95.5 -62t-91 -18q-28 -1 -47.5 7t-23.5 18q-8 22 12.5 56.5t45.5 36.5q11 1 18 -2.5t8 -8.5t-1 -9q12 9 24 31q15 31 16 55q0 16 -3 33.5t-9 21.5
q1 -10 -6 -22t-16 -19q-11 -9 -44.5 -16.5t-46.5 -17.5q-31 -24 -49 -70q-6 -14 -7 -26q-11 -39 5 -70q30 -59 125 -58q56 0 114 22.5t114 74.5t89 125q1 0 1 1q8 20 24 61t25 63q33 -9 38 -10q35 -11 81 -36v-68q2 -38 6 -59q2 -14 7 -23q4 -8 10 -14q10 -8 23 -8
q44 0 69 49q22 43 9 80q-15 46 -64 77q0 12 0.5 34t0.5 30q2 116 -2 167q-3 39 -9 61q-4 15 -11 24q-13 18 -33 18zM649 462q2 0 4 -29q3 -49 2 -163q0 -12 -1 -37q-32 12 -101 29q43 101 73 159q4 5 7.5 12l6.5 13t8 14zM714 125q16 -23 2 -48q-6 -10 -3 35q0 7 1 13z" />
    <glyph glyph-name="Adieresis" unicode="&#xc4;" horiz-adv-x="800" 
d="M287 635q0 -19 -13 -31.5t-30 -12.5q-18 0 -31 12.5t-13 31.5q0 18 13 31t31 13q17 0 30 -13t13 -31zM435 635q0 -19 -13 -31.5t-30 -12.5t-30.5 12.5t-13.5 31.5q0 18 13.5 31t30.5 13t30 -13t13 -31zM660 540q-16 0 -31 -12q-9 -7 -19 -20q-16 -21 -36 -59
q-33 -61 -78 -167q0 -1 -1 -3l-1 -2q-90 24 -96 53q-25 -59 79 -95q-8 -21 -23.5 -60t-23.5 -58q-28 -62 -76.5 -106t-95.5 -62t-91 -18q-28 -1 -47.5 7t-23.5 18q-8 22 12.5 56.5t45.5 36.5q11 1 18 -2.5t8 -8.5t-1 -9q12 9 24 31q15 31 16 55q0 16 -3 33.5t-9 21.5
q1 -10 -6 -22t-16 -19q-11 -9 -44.5 -16.5t-46.5 -17.5q-31 -24 -49 -70q-6 -14 -7 -26q-11 -39 5 -70q30 -59 125 -58q56 0 114 22.5t114 74.5t89 125q1 0 1 1q8 20 24 61t25 63q33 -9 38 -10q35 -11 81 -36v-68q2 -38 6 -59q2 -14 7 -23q4 -8 10 -14q10 -8 23 -8
q44 0 69 49q22 43 9 80q-15 46 -64 77q0 12 0.5 34t0.5 30q2 116 -2 167q-3 39 -9 61q-4 15 -11 24q-13 18 -33 18zM649 462q2 0 4 -29q3 -49 2 -163q0 -12 -1 -37q-32 12 -101 29q43 101 73 159q4 5 7.5 12l6.5 13t8 14zM714 125q16 -23 2 -48q-6 -10 -3 35q0 7 1 13z" />
    <glyph glyph-name="Aring" unicode="&#xc5;" horiz-adv-x="800" 
d="M367 670q0 -33 -23.5 -56.5t-56.5 -23.5t-56.5 23.5t-23.5 56.5t23.5 56.5t56.5 23.5t56.5 -23.5t23.5 -56.5zM325 670q0 16 -11 27t-27 11t-27.5 -11t-11.5 -27t11.5 -27.5t27.5 -11.5t27 11.5t11 27.5zM660 540q-16 0 -31 -12q-9 -7 -19 -20q-16 -21 -36 -59
q-33 -61 -78 -167q0 -1 -1 -3l-1 -2q-90 24 -96 53q-25 -59 79 -95q-8 -21 -23.5 -60t-23.5 -58q-28 -62 -76.5 -106t-95.5 -62t-91 -18q-28 -1 -47.5 7t-23.5 18q-8 22 12.5 56.5t45.5 36.5q11 1 18 -2.5t8 -8.5t-1 -9q12 9 24 31q15 31 16 55q0 16 -3 33.5t-9 21.5
q1 -10 -6 -22t-16 -19q-11 -9 -44.5 -16.5t-46.5 -17.5q-31 -24 -49 -70q-6 -14 -7 -26q-11 -39 5 -70q30 -59 125 -58q56 0 114 22.5t114 74.5t89 125q1 0 1 1q8 20 24 61t25 63q33 -9 38 -10q35 -11 81 -36v-68q2 -38 6 -59q2 -14 7 -23q4 -8 10 -14q10 -8 23 -8
q44 0 69 49q22 43 9 80q-15 46 -64 77q0 12 0.5 34t0.5 30q2 116 -2 167q-3 39 -9 61q-4 15 -11 24q-13 18 -33 18zM649 462q2 0 4 -29q3 -49 2 -163q0 -12 -1 -37q-32 12 -101 29q43 101 73 159q4 5 7.5 12l6.5 13t8 14zM714 125q16 -23 2 -48q-6 -10 -3 35q0 7 1 13z" />
    <glyph glyph-name="AE" unicode="&#xc6;" horiz-adv-x="581" 
d="M555 0h-229l-27 190h-140l-101 -190h-68l259 483h294v-55h-218l19 -147h189v-55h-180l26 -171h176v-55zM291 244l-19 161l-86 -161h105z" />
    <glyph glyph-name="Ccedilla" unicode="&#xc7;" horiz-adv-x="440" 
d="M363 -90q0 -32 -21 -50.5t-59 -18.5q-14 0 -31 4.5t-32 13.5l14 32q14 -7 28.5 -11t22.5 -4q32 0 32 30q0 28 -64 39l43 66h43l-28 -39q27 -8 39.5 -23.5t12.5 -38.5zM443 600q3 -34 -16 -50q-9 -8 -20 -9.5t-23.5 0t-31.5 -1.5q-21 -4 -34 -8q-8 -1 -51 -12
q-81 -20 -145 -109q-55 -77 -72 -164q-14 -80 -5.5 -141.5t38 -109t65.5 -77.5t79 -45q1 -1 2 -1q135 -49 256 3q61 32 103 41t71 0t62 -36q-12 20 -24 35.5t-23 26.5t-25.5 16t-25.5 8.5t-28.5 1t-29 -4.5t-32.5 -10t-34 -13t-38 -16q-30 -13 -56 -18t-66 -0.5t-90 22.5
q-27 10 -50.5 25.5t-46 41t-35 59t-17 79.5t7.5 101q15 75 63 141q51 71 110 86l12 3l12 3q25 4 59 -2q15 -2 35 -15q11 -7 11.5 -21.5t-7.5 -22.5q15 7 27 23q24 33 28 68q3 23 -3.5 60.5t-11.5 42.5z" />
    <glyph glyph-name="Egrave" unicode="&#xc8;" horiz-adv-x="410" 
d="M303 712q-1 -9 -9.5 -25.5t-14.5 -20.5q-9 -5 -33 1t-42 -6q-22 -16 -26 -29q-12 -36 6 -68q17 -29 53 -45t70 -7q-28 4 -56 24t-27 41v1q2 19 21 19q7 0 11.5 -4t4.5 -7q0 -4 -2 -7q14 7 24 23q18 27 23 65t-3 45zM418 555q-6 -22 -25 -32q-3 -2 -6 -2.5t-8 0t-9 1
t-14.5 2l-17.5 2.5q-14 1 -48 7.5t-50 6.5q-70 0 -120 -43t-50 -107q0 -58 40 -97q15 -14 34 -25q-58 -38 -84 -91v-1q-36 -77 -24 -155.5t67 -133.5q55 -56 142 -64.5t196 38.5q52 27 91.5 42t82.5 22t83.5 -4.5t80.5 -40.5q-24 28 -51.5 46.5t-51 28t-53.5 10t-50.5 -2
t-52 -13t-48 -17.5t-47.5 -21q-6 -2 -8 -4q-61 -27 -115 -30.5t-91.5 10.5t-65.5 42q-41 41 -50 100.5t20 121.5q14 30 44 54t65 38q25 -4 46 -3q18 1 30 5q9 3 16 7q14 11 14 28q0 16 -12 26q-7 7 -17 10q-12 3 -30 1q-24 -2 -53 -12q-8 1 -10 2q-36 10 -56 29
q-22 21 -22 54q0 40 30 65t80 25q33 -2 73 -18q5 -2 25 -14q10 -8 9 -16.5t-10 -17.5q11 0 25 10q33 23 46 50q8 18 11 42t-1 39z" />
    <glyph glyph-name="Eacute" unicode="&#xc9;" horiz-adv-x="410" 
d="M257.5 684q-10.5 -1 -17 -8.5t-4.5 -15.5l1 -15q3 -9 -4 -22q-11 -22 -17 -23l-7 -3q-10 -3 -14.5 -12t0.5 -17t15.5 -11t20.5 0l8 4q13 5 25 17q10 11 20 32t7 42l-2 14q-2 8 -11.5 13.5t-20 4.5zM418 555q-6 -22 -25 -32q-3 -2 -6 -2.5t-8 0t-9 1t-14.5 2l-17.5 2.5
q-14 1 -48 7.5t-50 6.5q-70 0 -120 -43t-50 -107q0 -58 40 -97q15 -14 34 -25q-58 -38 -84 -91v-1q-36 -77 -24 -155.5t67 -133.5q55 -56 142 -64.5t196 38.5q52 27 91.5 42t82.5 22t83.5 -4.5t80.5 -40.5q-24 28 -51.5 46.5t-51 28t-53.5 10t-50.5 -2t-52 -13t-48 -17.5
t-47.5 -21q-6 -2 -8 -4q-61 -27 -115 -30.5t-91.5 10.5t-65.5 42q-41 41 -50 100.5t20 121.5q14 30 44 54t65 38q25 -4 46 -3q18 1 30 5q9 3 16 7q14 11 14 28q0 16 -12 26q-7 7 -17 10q-12 3 -30 1q-24 -2 -53 -12q-8 1 -10 2q-36 10 -56 29q-22 21 -22 54q0 40 30 65
t80 25q33 -2 73 -18q5 -2 25 -14q10 -8 9 -16.5t-10 -17.5q11 0 25 10q33 23 46 50q8 18 11 42t-1 39z" />
    <glyph glyph-name="Ecircumflex" unicode="&#xca;" horiz-adv-x="410" 
d="M344 597h-54l-41 71l-40 -71h-55l78 115h35zM418 555q-6 -22 -25 -32q-3 -2 -6 -2.5t-8 0t-9 1t-14.5 2l-17.5 2.5q-14 1 -48 7.5t-50 6.5q-70 0 -120 -43t-50 -107q0 -58 40 -97q15 -14 34 -25q-58 -38 -84 -91v-1q-36 -77 -24 -155.5t67 -133.5q55 -56 142 -64.5
t196 38.5q52 27 91.5 42t82.5 22t83.5 -4.5t80.5 -40.5q-24 28 -51.5 46.5t-51 28t-53.5 10t-50.5 -2t-52 -13t-48 -17.5t-47.5 -21q-6 -2 -8 -4q-61 -27 -115 -30.5t-91.5 10.5t-65.5 42q-41 41 -50 100.5t20 121.5q14 30 44 54t65 38q25 -4 46 -3q18 1 30 5q9 3 16 7
q14 11 14 28q0 16 -12 26q-7 7 -17 10q-12 3 -30 1q-24 -2 -53 -12q-8 1 -10 2q-36 10 -56 29q-22 21 -22 54q0 40 30 65t80 25q33 -2 73 -18q5 -2 25 -14q10 -8 9 -16.5t-10 -17.5q11 0 25 10q33 23 46 50q8 18 11 42t-1 39z" />
    <glyph glyph-name="Edieresis" unicode="&#xcb;" horiz-adv-x="410" 
d="M279 635q0 -19 -13 -31.5t-30 -12.5q-18 0 -31 12.5t-13 31.5q0 18 13 31t31 13q17 0 30 -13t13 -31zM427 635q0 -19 -13 -31.5t-30 -12.5t-30.5 12.5t-13.5 31.5q0 18 13.5 31t30.5 13t30 -13t13 -31zM418 555q-6 -22 -25 -32q-3 -2 -6 -2.5t-8 0t-9 1t-14.5 2
l-17.5 2.5q-14 1 -48 7.5t-50 6.5q-70 0 -120 -43t-50 -107q0 -58 40 -97q15 -14 34 -25q-58 -38 -84 -91v-1q-36 -77 -24 -155.5t67 -133.5q55 -56 142 -64.5t196 38.5q52 27 91.5 42t82.5 22t83.5 -4.5t80.5 -40.5q-24 28 -51.5 46.5t-51 28t-53.5 10t-50.5 -2t-52 -13
t-48 -17.5t-47.5 -21q-6 -2 -8 -4q-61 -27 -115 -30.5t-91.5 10.5t-65.5 42q-41 41 -50 100.5t20 121.5q14 30 44 54t65 38q25 -4 46 -3q18 1 30 5q9 3 16 7q14 11 14 28q0 16 -12 26q-7 7 -17 10q-12 3 -30 1q-24 -2 -53 -12q-8 1 -10 2q-36 10 -56 29q-22 21 -22 54
q0 40 30 65t80 25q33 -2 73 -18q5 -2 25 -14q10 -8 9 -16.5t-10 -17.5q11 0 25 10q33 23 46 50q8 18 11 42t-1 39z" />
    <glyph glyph-name="Igrave" unicode="&#xcc;" horiz-adv-x="300" 
d="M174 712q-1 -9 -9.5 -25.5t-14.5 -20.5q-9 -5 -33 1t-42 -6q-22 -16 -26 -29q-12 -36 6 -68q17 -29 53 -45t70 -7q-28 4 -56 24t-27 41v1q2 19 21 19q7 0 11.5 -4t4.5 -7q0 -4 -2 -7q14 7 24 23q18 27 23 65t-3 45zM185.5 540h-4.5q-28 -2 -57 -27q-23 -20 -45 -54
q-3 1 -15.5 6.5t-19.5 10.5q-5 4 -9.5 15t-4.5 19q-6 -5 -10 -30q-5 -33 2 -51q6 -17 18 -24q0 4 3.5 6t7.5 0q-16 -32 -18 -39q-7 -14 -1 -28.5t25 -17.5q9 -1 15 2q16 9 31.5 27t16.5 33q1 12 -1 20v1q25 42 45 59q17 13 24 11t16 -15q13 -21 11 -84q-4 -109 -30.5 -244
t-54.5 -156q32 0 59.5 43t45 107t28 129.5t12.5 119.5q2 80 -20 115q0 2 -2 4q-26 39 -62 42h-5.5z" />
    <glyph glyph-name="Iacute" unicode="&#xcd;" horiz-adv-x="300" 
d="M126.5 684q-10.5 -1 -17 -8.5t-4.5 -15.5l1 -15q3 -9 -4 -22q-11 -22 -17 -23l-7 -3q-10 -3 -14.5 -12t0.5 -17t15.5 -11t20.5 0l8 4q13 5 25 17q10 11 20 32t7 42l-2 14q-2 8 -11.5 13.5t-20 4.5zM185.5 540h-4.5q-28 -2 -57 -27q-23 -20 -45 -54q-3 1 -15.5 6.5
t-19.5 10.5q-5 4 -9.5 15t-4.5 19q-6 -5 -10 -30q-5 -33 2 -51q6 -17 18 -24q0 4 3.5 6t7.5 0q-16 -32 -18 -39q-7 -14 -1 -28.5t25 -17.5q9 -1 15 2q16 9 31.5 27t16.5 33q1 12 -1 20v1q25 42 45 59q17 13 24 11t16 -15q13 -21 11 -84q-4 -109 -30.5 -244t-54.5 -156
q32 0 59.5 43t45 107t28 129.5t12.5 119.5q2 80 -20 115q0 2 -2 4q-26 39 -62 42h-5.5z" />
    <glyph glyph-name="Icircumflex" unicode="&#xce;" horiz-adv-x="300" 
d="M214 597h-54l-41 71l-40 -71h-55l78 115h35zM185.5 540h-4.5q-28 -2 -57 -27q-23 -20 -45 -54q-3 1 -15.5 6.5t-19.5 10.5q-5 4 -9.5 15t-4.5 19q-6 -5 -10 -30q-5 -33 2 -51q6 -17 18 -24q0 4 3.5 6t7.5 0q-16 -32 -18 -39q-7 -14 -1 -28.5t25 -17.5q9 -1 15 2
q16 9 31.5 27t16.5 33q1 12 -1 20v1q25 42 45 59q17 13 24 11t16 -15q13 -21 11 -84q-4 -109 -30.5 -244t-54.5 -156q32 0 59.5 43t45 107t28 129.5t12.5 119.5q2 80 -20 115q0 2 -2 4q-26 39 -62 42h-5.5z" />
    <glyph glyph-name="Idieresis" unicode="&#xcf;" horiz-adv-x="300" 
d="M150 635q0 -19 -13 -31.5t-30 -12.5q-18 0 -31 12.5t-13 31.5q0 18 13 31t31 13q17 0 30 -13t13 -31zM298 635q0 -19 -13 -31.5t-30 -12.5t-30.5 12.5t-13.5 31.5q0 18 13.5 31t30.5 13t30 -13t13 -31zM185.5 540h-4.5q-28 -2 -57 -27q-23 -20 -45 -54q-3 1 -15.5 6.5
t-19.5 10.5q-5 4 -9.5 15t-4.5 19q-6 -5 -10 -30q-5 -33 2 -51q6 -17 18 -24q0 4 3.5 6t7.5 0q-16 -32 -18 -39q-7 -14 -1 -28.5t25 -17.5q9 -1 15 2q16 9 31.5 27t16.5 33q1 12 -1 20v1q25 42 45 59q17 13 24 11t16 -15q13 -21 11 -84q-4 -109 -30.5 -244t-54.5 -156
q32 0 59.5 43t45 107t28 129.5t12.5 119.5q2 80 -20 115q0 2 -2 4q-26 39 -62 42h-5.5z" />
    <glyph glyph-name="Eth" unicode="&#xd0;" horiz-adv-x="458" 
d="M433 248q0 -108 -52 -173q-64 -79 -197 -79q-41 0 -134 10v200h-41v54h41v208q114 13 154 13q122 0 181 -73q48 -59 48 -160zM369 248q0 179 -168 179q-28 0 -88 -6v-161h160v-54h-160v-153q33 -3 83 -3q97 0 141 69q32 51 32 129z" />
    <glyph glyph-name="Ntilde" unicode="&#xd1;" horiz-adv-x="780" 
d="M423 655q-1 -35 -15.5 -55.5t-43.5 -20.5q-8 0 -19.5 4.5t-24 10t-23.5 10t-18 4.5q-8 0 -10 -7.5t-2 -16.5h-44q0 30 14.5 50.5t41.5 20.5q9 0 20.5 -4t22.5 -9.5t21.5 -9.5t17.5 -4q19 0 19 27h43zM799 560q-72 -70 -122 -199q-5 32 -10 58q-7 38 -15 61q0 2 -2 8
t-2.5 8t-3 7t-4.5 7.5t-5 6t-8 7.5q-20 15 -43 15q-8 0 -15 -3q-23 -8 -41 -36q-21 -35 -42 -120q-5 -20 -17.5 -71.5t-19 -78.5t-17.5 -60t-21 -50q-1 -1 -1 -3q-28 -62 -75.5 -106t-92.5 -62t-86 -18q-26 -1 -43.5 6.5t-19.5 17.5q-6 22 14.5 56.5t45.5 37.5q11 1 18 -2.5
t8 -8.5t-1 -9q12 9 24 31q15 31 16 55q0 16 -3 33.5t-9 21.5q1 -10 -6 -22t-16 -19q-11 -9 -44.5 -16.5t-46.5 -17.5q-31 -24 -49 -70q-4 -11 -6 -20q-15 -41 0 -75q14 -30 46 -45t73 -14q54 0 109.5 22.5t110 74t87.5 124.5q14 24 26.5 60.5t19.5 66t17.5 77t16.5 69.5
q19 77 35 104q8 9 10 8t4 -10q2 -3 2 -5q7 -20 13 -54q13 -67 21 -157q2 -19 3 -36q-13 -54 -20 -106q-5 -39 -4 -61q2 -16 7 -26q6 -11 19 -18q11 -6 24 -3v0q15 5 23 19q6 9 9 23q4 20 5 55q2 49 -3 118q43 215 107 344z" />
    <glyph glyph-name="Ograve" unicode="&#xd2;" horiz-adv-x="440" 
d="M359 712q-1 -9 -9.5 -25.5t-14.5 -20.5q-9 -5 -33 1t-42 -6q-22 -16 -26 -29q-12 -36 6 -68q17 -29 53 -45t70 -7q-28 4 -56 24t-27 41v1q2 19 21 19q7 0 11.5 -4t4.5 -7q0 -4 -2 -7q14 7 24 23q18 27 23 65t-3 45zM231 610q-1 -31 -20 -51q-6 -8 -23.5 -13t-31.5 -16
q-7 -5 -22.5 -22.5t-24.5 -30.5q0 -1 -1 -1q-48 -69 -59 -183q-12 -134 36 -212q24 -39 62 -60t82 -21t80 24.5t60 64.5q41 73 50 189q10 136 -54 202q-37 39 -87 30q-15 -3 -30 -10q-2 -8 -5 -17q-11 -29 -22 -37q0 1 2.5 8.5t2 9t-2.5 8.5q-4 4 -10 4q-16 -13 -32 -32
q-74 -87 -62 -217q5 -52 17 -83q9 -26 24 -41q20 -22 48 -23q38 -2 70 25q24 20 43 57q31 60 38 135q1 8 1 17q0 -17 -1 -32q-7 -102 -42 -163q-34 -59 -88 -59q-61 0 -93 52q-37 62 -27 175q7 80 35 132q20 31 40 47q15 13 29 12q3 0 6 -1q3 -2 5 -4q3 -4 3 -11
q0 -5 -3 -11q3 3 7.5 10.5t6.5 14.5q1 2 3 8q12 33 11 57q-1 18 -9 42.5t-12 26.5zM296 452h2q12 -1 24 -14q19 -19 30 -66q-6 22 -18 36q-18 21 -43 22q-29 0 -55.5 -35t-39.5 -82t-8 -81v-1q3 -31 25 -50q33 -24 58 31q24 55 16 111q-3 17 -9 27q-4 -55 -25 -104
q-13 -23 -14 5q-1 45 16 85q8 19 18 28q15 13 22 -10t4 -51q-6 -64 -31 -114q-13 -26 -29 -38q-26 -18 -36 -7q-6 6 -11 20q-9 25 -13 69q-10 105 48 173q34 40 62 45q4 1 7 1z" />
    <glyph glyph-name="Oacute" unicode="&#xd3;" horiz-adv-x="440" 
d="M313.5 684q-10.5 -1 -17 -8.5t-4.5 -15.5l1 -15q3 -9 -4 -22q-11 -22 -17 -23l-7 -3q-10 -3 -14.5 -12t0.5 -17t15.5 -11t20.5 0l8 4q13 5 25 17q10 11 20 32t7 42l-2 14q-2 8 -11.5 13.5t-20 4.5zM231 610q-1 -31 -20 -51q-6 -8 -23.5 -13t-31.5 -16q-7 -5 -22.5 -22.5
t-24.5 -30.5q0 -1 -1 -1q-48 -69 -59 -183q-12 -134 36 -212q24 -39 62 -60t82 -21t80 24.5t60 64.5q41 73 50 189q10 136 -54 202q-37 39 -87 30q-15 -3 -30 -10q-2 -8 -5 -17q-11 -29 -22 -37q0 1 2.5 8.5t2 9t-2.5 8.5q-4 4 -10 4q-16 -13 -32 -32q-74 -87 -62 -217
q5 -52 17 -83q9 -26 24 -41q20 -22 48 -23q38 -2 70 25q24 20 43 57q31 60 38 135q1 8 1 17q0 -17 -1 -32q-7 -102 -42 -163q-34 -59 -88 -59q-61 0 -93 52q-37 62 -27 175q7 80 35 132q20 31 40 47q15 13 29 12q3 0 6 -1q3 -2 5 -4q3 -4 3 -11q0 -5 -3 -11q3 3 7.5 10.5
t6.5 14.5q1 2 3 8q12 33 11 57q-1 18 -9 42.5t-12 26.5zM296 452h2q12 -1 24 -14q19 -19 30 -66q-6 22 -18 36q-18 21 -43 22q-29 0 -55.5 -35t-39.5 -82t-8 -81v-1q3 -31 25 -50q33 -24 58 31q24 55 16 111q-3 17 -9 27q-4 -55 -25 -104q-13 -23 -14 5q-1 45 16 85
q8 19 18 28q15 13 22 -10t4 -51q-6 -64 -31 -114q-13 -26 -29 -38q-26 -18 -36 -7q-6 6 -11 20q-9 25 -13 69q-10 105 48 173q34 40 62 45q4 1 7 1z" />
    <glyph glyph-name="Ocircumflex" unicode="&#xd4;" horiz-adv-x="440" 
d="M399 597h-54l-41 71l-40 -71h-55l78 115h35zM231 610q-1 -31 -20 -51q-6 -8 -23.5 -13t-31.5 -16q-7 -5 -22.5 -22.5t-24.5 -30.5q0 -1 -1 -1q-48 -69 -59 -183q-12 -134 36 -212q24 -39 62 -60t82 -21t80 24.5t60 64.5q41 73 50 189q10 136 -54 202q-37 39 -87 30
q-15 -3 -30 -10q-2 -8 -5 -17q-11 -29 -22 -37q0 1 2.5 8.5t2 9t-2.5 8.5q-4 4 -10 4q-16 -13 -32 -32q-74 -87 -62 -217q5 -52 17 -83q9 -26 24 -41q20 -22 48 -23q38 -2 70 25q24 20 43 57q31 60 38 135q1 8 1 17q0 -17 -1 -32q-7 -102 -42 -163q-34 -59 -88 -59
q-61 0 -93 52q-37 62 -27 175q7 80 35 132q20 31 40 47q15 13 29 12q3 0 6 -1q3 -2 5 -4q3 -4 3 -11q0 -5 -3 -11q3 3 7.5 10.5t6.5 14.5q1 2 3 8q12 33 11 57q-1 18 -9 42.5t-12 26.5zM296 452h2q12 -1 24 -14q19 -19 30 -66q-6 22 -18 36q-18 21 -43 22q-29 0 -55.5 -35
t-39.5 -82t-8 -81v-1q3 -31 25 -50q33 -24 58 31q24 55 16 111q-3 17 -9 27q-4 -55 -25 -104q-13 -23 -14 5q-1 45 16 85q8 19 18 28q15 13 22 -10t4 -51q-6 -64 -31 -114q-13 -26 -29 -38q-26 -18 -36 -7q-6 6 -11 20q-9 25 -13 69q-10 105 48 173q34 40 62 45q4 1 7 1z
" />
    <glyph glyph-name="Otilde" unicode="&#xd5;" horiz-adv-x="440" 
d="M423 655q-1 -35 -15.5 -55.5t-43.5 -20.5q-8 0 -19.5 4.5t-24 10t-23.5 10t-18 4.5q-8 0 -10 -7.5t-2 -16.5h-44q0 30 14.5 50.5t41.5 20.5q9 0 20.5 -4t22.5 -9.5t21.5 -9.5t17.5 -4q19 0 19 27h43zM231 610q-1 -31 -20 -51q-6 -8 -23.5 -13t-31.5 -16
q-7 -5 -22.5 -22.5t-24.5 -30.5q0 -1 -1 -1q-48 -69 -59 -183q-12 -134 36 -212q24 -39 62 -60t82 -21t80 24.5t60 64.5q41 73 50 189q10 136 -54 202q-37 39 -87 30q-15 -3 -30 -10q-2 -8 -5 -17q-11 -29 -22 -37q0 1 2.5 8.5t2 9t-2.5 8.5q-4 4 -10 4q-16 -13 -32 -32
q-74 -87 -62 -217q5 -52 17 -83q9 -26 24 -41q20 -22 48 -23q38 -2 70 25q24 20 43 57q31 60 38 135q1 8 1 17q0 -17 -1 -32q-7 -102 -42 -163q-34 -59 -88 -59q-61 0 -93 52q-37 62 -27 175q7 80 35 132q20 31 40 47q15 13 29 12q3 0 6 -1q3 -2 5 -4q3 -4 3 -11
q0 -5 -3 -11q3 3 7.5 10.5t6.5 14.5q1 2 3 8q12 33 11 57q-1 18 -9 42.5t-12 26.5zM296 452h2q12 -1 24 -14q19 -19 30 -66q-6 22 -18 36q-18 21 -43 22q-29 0 -55.5 -35t-39.5 -82t-8 -81v-1q3 -31 25 -50q33 -24 58 31q24 55 16 111q-3 17 -9 27q-4 -55 -25 -104
q-13 -23 -14 5q-1 45 16 85q8 19 18 28q15 13 22 -10t4 -51q-6 -64 -31 -114q-13 -26 -29 -38q-26 -18 -36 -7q-6 6 -11 20q-9 25 -13 69q-10 105 48 173q34 40 62 45q4 1 7 1z" />
    <glyph glyph-name="Odieresis" unicode="&#xd6;" horiz-adv-x="440" 
d="M335 635q0 -19 -13 -31.5t-30 -12.5q-18 0 -31 12.5t-13 31.5q0 18 13 31t31 13q17 0 30 -13t13 -31zM483 635q0 -19 -13 -31.5t-30 -12.5t-30.5 12.5t-13.5 31.5q0 18 13.5 31t30.5 13t30 -13t13 -31zM231 610q-1 -31 -20 -51q-6 -8 -23.5 -13t-31.5 -16
q-7 -5 -22.5 -22.5t-24.5 -30.5q0 -1 -1 -1q-48 -69 -59 -183q-12 -134 36 -212q24 -39 62 -60t82 -21t80 24.5t60 64.5q41 73 50 189q10 136 -54 202q-37 39 -87 30q-15 -3 -30 -10q-2 -8 -5 -17q-11 -29 -22 -37q0 1 2.5 8.5t2 9t-2.5 8.5q-4 4 -10 4q-16 -13 -32 -32
q-74 -87 -62 -217q5 -52 17 -83q9 -26 24 -41q20 -22 48 -23q38 -2 70 25q24 20 43 57q31 60 38 135q1 8 1 17q0 -17 -1 -32q-7 -102 -42 -163q-34 -59 -88 -59q-61 0 -93 52q-37 62 -27 175q7 80 35 132q20 31 40 47q15 13 29 12q3 0 6 -1q3 -2 5 -4q3 -4 3 -11
q0 -5 -3 -11q3 3 7.5 10.5t6.5 14.5q1 2 3 8q12 33 11 57q-1 18 -9 42.5t-12 26.5zM296 452h2q12 -1 24 -14q19 -19 30 -66q-6 22 -18 36q-18 21 -43 22q-29 0 -55.5 -35t-39.5 -82t-8 -81v-1q3 -31 25 -50q33 -24 58 31q24 55 16 111q-3 17 -9 27q-4 -55 -25 -104
q-13 -23 -14 5q-1 45 16 85q8 19 18 28q15 13 22 -10t4 -51q-6 -64 -31 -114q-13 -26 -29 -38q-26 -18 -36 -7q-6 6 -11 20q-9 25 -13 69q-10 105 48 173q34 40 62 45q4 1 7 1z" />
    <glyph glyph-name="multiply" unicode="&#xd7;" horiz-adv-x="416" 
d="M390 34l-40 -39l-142 148q-35 -35 -71 -74t-70 -74l-40 39l142 148q-35 37 -71 75.5t-71 75.5l40 39l142 -148q34 36 71 74.5t70 73.5l40 -39l-143 -150z" />
    <glyph glyph-name="Oslash" unicode="&#xd8;" horiz-adv-x="516" 
d="M492 237q0 -105 -65 -176t-168 -71q-47 0 -86 14l-16 -32h-64l30 59q-17 13 -32 30q-65 71 -65 176t65 176.5t168 71.5q49 0 89 -16l12 23h64l-27 -52q16 -12 30 -27q65 -71 65 -176zM323 419q-29 12 -64 12q-77 0 -124 -55.5t-47 -137.5t47 -138q7 -9 15 -16zM430 238
q0 82 -47 137q-6 7 -12 13l-172 -333q27 -10 60 -10q77 0 124 55.5t47 137.5z" />
    <glyph glyph-name="Ugrave" unicode="&#xd9;" horiz-adv-x="640" 
d="M376 712q-1 -9 -9.5 -25.5t-14.5 -20.5q-9 -5 -33 1t-42 -6q-22 -16 -26 -29q-12 -36 6 -68q17 -29 53 -45t70 -7q-28 4 -56 24t-27 41v1q2 19 21 19q7 0 11.5 -4t4.5 -7q0 -4 -2 -7q14 7 24 23q18 27 23 65t-3 45zM564 543q-8 0 -14 -3q-10 -5 -16 -16q-5 -9 -9 -26v-1
q-24 -100 -9 -267q-7 -37 -16 -66q-17 -56 -41 -82q-23 -25 -56 -22q-42 5 -61 34q-18 27 -21 79q-3 35 3 107.5t5 100.5q-2 55 -28 95q-29 46 -77 54q-58 9 -109 -30t-65 -104q-18 -77 19 -118q20 -21 51 -23q32 -4 73 23q18 13 24 33q6 21 -5 51q-3 9 -13.5 23t-14.5 22
q-3 6 -1 17.5t5 18.5q-8 -1 -23 -21q-20 -27 -23 -46q-3 -17 4 -30q2 5 7.5 4t7.5 -7q4 -8 -4 -17q-13 -14 -34 -12q-5 0 -9 5q-16 17 -6 65q9 40 42 65.5t64 20.5q22 -3 37 -27q17 -26 18 -64q1 -19 -5 -93t-3 -117q4 -68 31 -108q35 -52 104 -61h1q62 -6 106 42
q19 21 34 52q32 -123 102 -134q-18 19 -30 46t-19 66.5t-9.5 59t-6.5 64.5q-1 7 -1 11q6 29 10.5 60t9.5 69.5t7 49.5q5 38 1 98q-1 14 -3 23q0 1 -0.5 4.5t-1 5.5t-2.5 6t-6 9q-7 7 -16 10q-2 0 -6 1h-2z" />
    <glyph glyph-name="Uacute" unicode="&#xda;" horiz-adv-x="640" 
d="M337.5 684q-10.5 -1 -17 -8.5t-4.5 -15.5l1 -15q3 -9 -4 -22q-11 -22 -17 -23l-7 -3q-10 -3 -14.5 -12t0.5 -17t15.5 -11t20.5 0l8 4q13 5 25 17q10 11 20 32t7 42l-2 14q-2 8 -11.5 13.5t-20 4.5zM564 543q-8 0 -14 -3q-10 -5 -16 -16q-5 -9 -9 -26v-1q-24 -100 -9 -267
q-7 -37 -16 -66q-17 -56 -41 -82q-23 -25 -56 -22q-42 5 -61 34q-18 27 -21 79q-3 35 3 107.5t5 100.5q-2 55 -28 95q-29 46 -77 54q-58 9 -109 -30t-65 -104q-18 -77 19 -118q20 -21 51 -23q32 -4 73 23q18 13 24 33q6 21 -5 51q-3 9 -13.5 23t-14.5 22q-3 6 -1 17.5
t5 18.5q-8 -1 -23 -21q-20 -27 -23 -46q-3 -17 4 -30q2 5 7.5 4t7.5 -7q4 -8 -4 -17q-13 -14 -34 -12q-5 0 -9 5q-16 17 -6 65q9 40 42 65.5t64 20.5q22 -3 37 -27q17 -26 18 -64q1 -19 -5 -93t-3 -117q4 -68 31 -108q35 -52 104 -61h1q62 -6 106 42q19 21 34 52
q32 -123 102 -134q-18 19 -30 46t-19 66.5t-9.5 59t-6.5 64.5q-1 7 -1 11q6 29 10.5 60t9.5 69.5t7 49.5q5 38 1 98q-1 14 -3 23q0 1 -0.5 4.5t-1 5.5t-2.5 6t-6 9q-7 7 -16 10q-2 0 -6 1h-2z" />
    <glyph glyph-name="Ucircumflex" unicode="&#xdb;" horiz-adv-x="640" 
d="M418 597h-54l-41 71l-40 -71h-55l78 115h35zM564 543q-8 0 -14 -3q-10 -5 -16 -16q-5 -9 -9 -26v-1q-24 -100 -9 -267q-7 -37 -16 -66q-17 -56 -41 -82q-23 -25 -56 -22q-42 5 -61 34q-18 27 -21 79q-3 35 3 107.5t5 100.5q-2 55 -28 95q-29 46 -77 54q-58 9 -109 -30
t-65 -104q-18 -77 19 -118q20 -21 51 -23q32 -4 73 23q18 13 24 33q6 21 -5 51q-3 9 -13.5 23t-14.5 22q-3 6 -1 17.5t5 18.5q-8 -1 -23 -21q-20 -27 -23 -46q-3 -17 4 -30q2 5 7.5 4t7.5 -7q4 -8 -4 -17q-13 -14 -34 -12q-5 0 -9 5q-16 17 -6 65q9 40 42 65.5t64 20.5
q22 -3 37 -27q17 -26 18 -64q1 -19 -5 -93t-3 -117q4 -68 31 -108q35 -52 104 -61h1q62 -6 106 42q19 21 34 52q32 -123 102 -134q-18 19 -30 46t-19 66.5t-9.5 59t-6.5 64.5q-1 7 -1 11q6 29 10.5 60t9.5 69.5t7 49.5q5 38 1 98q-1 14 -3 23q0 1 -0.5 4.5t-1 5.5t-2.5 6
t-6 9q-7 7 -16 10q-2 0 -6 1h-2z" />
    <glyph glyph-name="Udieresis" unicode="&#xdc;" horiz-adv-x="640" 
d="M352 635q0 -19 -13 -31.5t-30 -12.5q-18 0 -31 12.5t-13 31.5q0 18 13 31t31 13q17 0 30 -13t13 -31zM500 635q0 -19 -13 -31.5t-30 -12.5t-30.5 12.5t-13.5 31.5q0 18 13.5 31t30.5 13t30 -13t13 -31zM564 543q-8 0 -14 -3q-10 -5 -16 -16q-5 -9 -9 -26v-1
q-24 -100 -9 -267q-7 -37 -16 -66q-17 -56 -41 -82q-23 -25 -56 -22q-42 5 -61 34q-18 27 -21 79q-3 35 3 107.5t5 100.5q-2 55 -28 95q-29 46 -77 54q-58 9 -109 -30t-65 -104q-18 -77 19 -118q20 -21 51 -23q32 -4 73 23q18 13 24 33q6 21 -5 51q-3 9 -13.5 23t-14.5 22
q-3 6 -1 17.5t5 18.5q-8 -1 -23 -21q-20 -27 -23 -46q-3 -17 4 -30q2 5 7.5 4t7.5 -7q4 -8 -4 -17q-13 -14 -34 -12q-5 0 -9 5q-16 17 -6 65q9 40 42 65.5t64 20.5q22 -3 37 -27q17 -26 18 -64q1 -19 -5 -93t-3 -117q4 -68 31 -108q35 -52 104 -61h1q62 -6 106 42
q19 21 34 52q32 -123 102 -134q-18 19 -30 46t-19 66.5t-9.5 59t-6.5 64.5q-1 7 -1 11q6 29 10.5 60t9.5 69.5t7 49.5q5 38 1 98q-1 14 -3 23q0 1 -0.5 4.5t-1 5.5t-2.5 6t-6 9q-7 7 -16 10q-2 0 -6 1h-2z" />
    <glyph glyph-name="Yacute" unicode="&#xdd;" horiz-adv-x="560" 
d="M343.5 684q-10.5 -1 -17 -8.5t-4.5 -15.5l1 -15q3 -9 -4 -22q-11 -22 -17 -23l-7 -3q-10 -3 -14.5 -12t0.5 -17t15.5 -11t20.5 0l8 4q13 5 25 17q10 11 20 32t7 42l-2 14q-2 8 -11.5 13.5t-20 4.5zM202 533q-52 -1 -95.5 -39t-56.5 -96q-18 -78 19 -118q20 -22 50 -24
q33 -4 74 24q18 12 24 32q6 21 -5 52q-3 9 -13.5 22.5t-14.5 21.5q-3 6 -1.5 18t5.5 18q-8 -1 -23 -21q-20 -26 -23 -45q-3 -18 4 -30q2 4 7.5 3t7.5 -7q4 -9 -4 -16q-9 -8 -21.5 -11t-21.5 3q-12 10 -12.5 23t6.5 42q9 41 42 66.5t64 20.5q22 -4 37 -27q17 -27 18 -65
q1 -23 -12.5 -96t-15.5 -110q-6 -68 15 -109q29 -55 100 -63h1q58 -6 98 21q15 10 28 25q12 -67 14 -106q1 -19 0 -36q-52 12 -104.5 -6t-82.5 -54q-18 -21 -24 -46q-8 -30 7 -56q1 0 1 -1q17 -26 50 -34q25 -6 57 0q63 11 100 51q41 44 52 109q13 -4 26 -9q-11 11 -24 20
q4 30 2 65q-1 30 -5.5 60.5t-14.5 81t-12 61.5q5 22 10 60t5 39q6 42 -2 99q-2 14 -6 24q-5 18 -17 26q-13 8 -28 4q-11 -2 -19 -11t-16 -28q-16 -39 -6 -115q3 -21 18 -96q-5 -21 -11 -35q-12 -30 -31 -43q-22 -14 -58 -11q-41 5 -54 32q-13 25 -9 77q1 25 15 100.5
t13 111.5q-2 55 -28 95q-29 46 -77 54q-8 1 -15 1q-3 1 -7 1zM487 -119q3 0 8 -1q-8 -47 -38 -80q-9 -9 -28.5 -19t-37.5 -13q-20 -4 -33 -1q-10 3 -13 9q-3 4 -1 10q2 10 13 23q58 72 130 72z" />
    <glyph glyph-name="Thorn" unicode="&#xde;" horiz-adv-x="392" 
d="M357 249q0 -77 -51 -117.5t-142 -40.5q-32 0 -52 4v-95h-59v476h59v-73q20 4 52 4q91 0 142 -40.5t51 -117.5zM299 249q0 106 -133 106q-31 0 -54 -8v-196q23 -8 54 -8q133 0 133 106z" />
    <glyph glyph-name="germandbls" unicode="&#xdf;" horiz-adv-x="425" 
d="M376 109q0 -55 -34.5 -86.5t-92.5 -31.5q-26 0 -49.5 6.5t-46.5 18.5l20 54q45 -24 77 -24t50 16.5t18 40.5q0 22 -15 39t-33.5 33.5t-33.5 34.5t-15 42q0 13 10 28.5t22.5 31t22.5 30t10 26.5q0 67 -72 67q-84 0 -84 -154v-321q0 -26 -6.5 -52t-20.5 -51l-57 15
q13 25 18.5 46.5t5.5 41.5v337q0 195 151 195q54 0 88.5 -32.5t34.5 -89.5q0 -23 -10 -41.5t-21.5 -33.5t-21.5 -26t-10 -20q0 -10 15 -23.5t32.5 -31.5t32.5 -39t15 -46z" />
    <glyph glyph-name="agrave" unicode="&#xe0;" horiz-adv-x="420" 
d="M209 500q-1 -9 -9.5 -25.5t-14.5 -20.5q-9 -5 -33 1t-42 -6q-22 -16 -26 -29q-12 -36 6 -68q17 -29 53 -45t70 -7q-28 4 -56 24t-27 41v1q2 19 21 19q7 0 11.5 -4t4.5 -7q0 -4 -2 -7q14 7 24 23q18 27 23 65t-3 45zM402 400q8 12 17 20q-48 0 -82 -67q-27 47 -72 47h-8
q-76 -5 -139 -74q-60 -66 -69 -143q-7 -62 15 -112q13 -30 40.5 -50.5t63.5 -20.5h1q46 0 87 37q8 -15 21 -24q19 -13 39 -13h7q14 -1 39 10q21 10 30 27q10 20 6 52q-1 9 -9 24.5t-10 24.5q-1 6 3 17.5t9 17.5q-8 0 -27 -17q-25 -21 -32 -39q-7 -17 -2 -30q2 4 7.5 2
t6.5 -9q1 -9 -8 -15q-6 -5 -16 -5t-12 7q-3 16 7 42q2 5 7.5 17.5t10 24t7.5 22.5l14 70q2 10 10 43t11.5 45.5t11.5 34t15 34.5zM261 340q6 0 15.5 -8t13.5 -21q6 -21 3 -56.5t-11 -66.5q-1 -4 -4 -10q-15 -41 -40 -73q-36 -45 -69 -45q-20 0 -31 8.5t-19 26.5
q-15 35 -10 82q6 57 53 108q47 52 99 55z" />
    <glyph glyph-name="aacute" unicode="&#xe1;" horiz-adv-x="420" 
d="M163.5 472q-10.5 -1 -17 -8.5t-4.5 -15.5l1 -15q3 -9 -4 -22q-11 -22 -17 -23l-7 -3q-10 -3 -14.5 -12t0.5 -17t15.5 -11t20.5 0l8 4q13 5 25 17q10 11 20 32t7 42l-2 14q-2 8 -11.5 13.5t-20 4.5zM402 400q8 12 17 20q-48 0 -82 -67q-27 47 -72 47h-8q-76 -5 -139 -74
q-60 -66 -69 -143q-7 -62 15 -112q13 -30 40.5 -50.5t63.5 -20.5h1q46 0 87 37q8 -15 21 -24q19 -13 39 -13h7q14 -1 39 10q21 10 30 27q10 20 6 52q-1 9 -9 24.5t-10 24.5q-1 6 3 17.5t9 17.5q-8 0 -27 -17q-25 -21 -32 -39q-7 -17 -2 -30q2 4 7.5 2t6.5 -9q1 -9 -8 -15
q-6 -5 -16 -5t-12 7q-3 16 7 42q2 5 7.5 17.5t10 24t7.5 22.5l14 70q2 10 10 43t11.5 45.5t11.5 34t15 34.5zM261 340q6 0 15.5 -8t13.5 -21q6 -21 3 -56.5t-11 -66.5q-1 -4 -4 -10q-15 -41 -40 -73q-36 -45 -69 -45q-20 0 -31 8.5t-19 26.5q-15 35 -10 82q6 57 53 108
q47 52 99 55z" />
    <glyph glyph-name="acircumflex" unicode="&#xe2;" horiz-adv-x="420" 
d="M249 385h-54l-41 71l-40 -71h-55l78 115h35zM402 400q8 12 17 20q-48 0 -82 -67q-27 47 -72 47h-8q-76 -5 -139 -74q-60 -66 -69 -143q-7 -62 15 -112q13 -30 40.5 -50.5t63.5 -20.5h1q46 0 87 37q8 -15 21 -24q19 -13 39 -13h7q14 -1 39 10q21 10 30 27q10 20 6 52
q-1 9 -9 24.5t-10 24.5q-1 6 3 17.5t9 17.5q-8 0 -27 -17q-25 -21 -32 -39q-7 -17 -2 -30q2 4 7.5 2t6.5 -9q1 -9 -8 -15q-6 -5 -16 -5t-12 7q-3 16 7 42q2 5 7.5 17.5t10 24t7.5 22.5l14 70q2 10 10 43t11.5 45.5t11.5 34t15 34.5zM261 340q6 0 15.5 -8t13.5 -21
q6 -21 3 -56.5t-11 -66.5q-1 -4 -4 -10q-15 -41 -40 -73q-36 -45 -69 -45q-20 0 -31 8.5t-19 26.5q-15 35 -10 82q6 57 53 108q47 52 99 55z" />
    <glyph glyph-name="atilde" unicode="&#xe3;" horiz-adv-x="420" 
d="M274 443q-1 -35 -15.5 -55.5t-43.5 -20.5q-8 0 -19.5 4.5t-24 10t-23.5 10t-18 4.5q-8 0 -10 -7.5t-2 -16.5h-44q0 30 14.5 50.5t41.5 20.5q9 0 20.5 -4t22.5 -9.5t21.5 -9.5t17.5 -4q19 0 19 27h43zM402 400q8 12 17 20q-48 0 -82 -67q-27 47 -72 47h-8q-76 -5 -139 -74
q-60 -66 -69 -143q-7 -62 15 -112q13 -30 40.5 -50.5t63.5 -20.5h1q46 0 87 37q8 -15 21 -24q19 -13 39 -13h7q14 -1 39 10q21 10 30 27q10 20 6 52q-1 9 -9 24.5t-10 24.5q-1 6 3 17.5t9 17.5q-8 0 -27 -17q-25 -21 -32 -39q-7 -17 -2 -30q2 4 7.5 2t6.5 -9q1 -9 -8 -15
q-6 -5 -16 -5t-12 7q-3 16 7 42q2 5 7.5 17.5t10 24t7.5 22.5l14 70q2 10 10 43t11.5 45.5t11.5 34t15 34.5zM261 340q6 0 15.5 -8t13.5 -21q6 -21 3 -56.5t-11 -66.5q-1 -4 -4 -10q-15 -41 -40 -73q-36 -45 -69 -45q-20 0 -31 8.5t-19 26.5q-15 35 -10 82q6 57 53 108
q47 52 99 55z" />
    <glyph glyph-name="adieresis" unicode="&#xe4;" horiz-adv-x="420" 
d="M186 425q0 -19 -13 -31.5t-30 -12.5q-18 0 -31 12.5t-13 31.5q0 18 13 31t31 13q17 0 30 -13t13 -31zM334 425q0 -19 -13 -31.5t-30 -12.5t-30.5 12.5t-13.5 31.5q0 18 13.5 31t30.5 13t30 -13t13 -31zM402 400q8 12 17 20q-48 0 -82 -67q-27 47 -72 47h-8
q-76 -5 -139 -74q-60 -66 -69 -143q-7 -62 15 -112q13 -30 40.5 -50.5t63.5 -20.5h1q46 0 87 37q8 -15 21 -24q19 -13 39 -13h7q14 -1 39 10q21 10 30 27q10 20 6 52q-1 9 -9 24.5t-10 24.5q-1 6 3 17.5t9 17.5q-8 0 -27 -17q-25 -21 -32 -39q-7 -17 -2 -30q2 4 7.5 2
t6.5 -9q1 -9 -8 -15q-6 -5 -16 -5t-12 7q-3 16 7 42q2 5 7.5 17.5t10 24t7.5 22.5l14 70q2 10 10 43t11.5 45.5t11.5 34t15 34.5zM261 340q6 0 15.5 -8t13.5 -21q6 -21 3 -56.5t-11 -66.5q-1 -4 -4 -10q-15 -41 -40 -73q-36 -45 -69 -45q-20 0 -31 8.5t-19 26.5
q-15 35 -10 82q6 57 53 108q47 52 99 55z" />
    <glyph glyph-name="aring" unicode="&#xe5;" horiz-adv-x="420" 
d="M258 464q0 -33 -23.5 -56.5t-56.5 -23.5t-56.5 23.5t-23.5 56.5t23.5 56.5t56.5 23.5t56.5 -23.5t23.5 -56.5zM216 464q0 16 -11 27t-27 11t-27.5 -11t-11.5 -27t11.5 -27.5t27.5 -11.5t27 11.5t11 27.5zM402 400q8 12 17 20q-48 0 -82 -67q-27 47 -72 47h-8
q-76 -5 -139 -74q-60 -66 -69 -143q-7 -62 15 -112q13 -30 40.5 -50.5t63.5 -20.5h1q46 0 87 37q8 -15 21 -24q19 -13 39 -13h7q14 -1 39 10q21 10 30 27q10 20 6 52q-1 9 -9 24.5t-10 24.5q-1 6 3 17.5t9 17.5q-8 0 -27 -17q-25 -21 -32 -39q-7 -17 -2 -30q2 4 7.5 2
t6.5 -9q1 -9 -8 -15q-6 -5 -16 -5t-12 7q-3 16 7 42q2 5 7.5 17.5t10 24t7.5 22.5l14 70q2 10 10 43t11.5 45.5t11.5 34t15 34.5zM261 340q6 0 15.5 -8t13.5 -21q6 -21 3 -56.5t-11 -66.5q-1 -4 -4 -10q-15 -41 -40 -73q-36 -45 -69 -45q-20 0 -31 8.5t-19 26.5
q-15 35 -10 82q6 57 53 108q47 52 99 55z" />
    <glyph glyph-name="ae" unicode="&#xe6;" horiz-adv-x="620" 
d="M580 18q-68 -27 -140 -27q-98 0 -150 70q-37 -70 -143 -70q-25 0 -47 7t-38.5 20t-26 32t-9.5 43q0 130 228 132q-2 34 -23 55.5t-59 21.5q-32 0 -118 -26l-8 57q70 21 130 21q45 0 74.5 -13.5t46.5 -47.5q48 61 139 61q154 0 159 -194h-279q5 -55 39.5 -84t88.5 -29
q58 0 131 26zM254 170q-85 -1 -123.5 -18.5t-38.5 -52.5q0 -26 16.5 -39.5t40.5 -13.5q48 0 76.5 27t28.5 75v22zM533 213q-7 37 -33 63t-68 26q-44 0 -72.5 -23.5t-37.5 -65.5h211z" />
    <glyph glyph-name="ccedilla" unicode="&#xe7;" 
d="M241 -90q0 -32 -21 -50.5t-59 -18.5q-14 0 -31 4.5t-32 13.5l14 32q14 -7 28.5 -11t22.5 -4q32 0 32 30q0 28 -64 39l43 66h43l-28 -39q27 -8 39.5 -23.5t12.5 -38.5zM369 420q-6 -16 -8 -21t-6.5 -10t-11.5 -8q-8 -4 -25 3v1q-17 9 -46 14q-16 2 -32 3q-16 0 -30 -2
q-50 -7 -104 -70q-57 -67 -67 -145v-2q-7 -67 16 -117q28 -59 71 -77q25 -13 87 -4.5t71 5.5q17 -4 44.5 -23.5t53.5 -35.5t58.5 -26.5t71 0t77.5 45.5q-47 -25 -88 -26t-71 16t-55 37.5t-52 38.5t-49 20q-14 0 -42 -1.5t-49.5 0.5t-38.5 11q-21 11 -36 48q-8 21 -10 35.5
t1 47.5q7 61 53 114q16 19 36 32.5t29 16.5q3 0 11 0.5t11.5 0.5t10.5 -2t15 -5q5 -2 25 -14q10 -8 9 -20t-10 -20q11 0 25 10q34 23 46 50q7 16 9 47t0 33z" />
    <glyph glyph-name="egrave" unicode="&#xe8;" 
d="M209 500q-1 -9 -9.5 -25.5t-14.5 -20.5q-9 -5 -33 1t-42 -6q-22 -16 -26 -29q-12 -36 6 -68q17 -29 53 -45t70 -7q-28 4 -56 24t-27 41v1q2 19 21 19q7 0 11.5 -4t4.5 -7q0 -4 -2 -7q14 7 24 23q18 27 23 65t-3 45zM272 405q-26 -1 -44 -7q-51 -17 -87.5 -58t-50.5 -92
q-18 -63 -10 -124q1 -5 2 -11q-29 -17 -53 -23q27 -5 58 1q16 -54 57 -77q36 -20 78 -17t78 28q5 3 22 15q17 13 30 37q3 7 5 13l2 4q2 9 -1 35q-1 9 -9 24.5t-10 24.5q-1 6 3 17.5t9 17.5q-8 0 -27 -17q-25 -21 -32 -39q-7 -17 -2 -30q2 3 7 2t6 -6q1 -6 -6 -17
q-24 -36 -61.5 -46t-61.5 6q-21 12 -30 44q49 23 94 60t73 70h1q8 10 14 20q15 23 21 43q6 25 0 46q-4 18 -16 31q-22 25 -59 25zM270 345q5 0 9 -1q9 -2 10 -11q2 -24 -23 -53q-71 -80 -128 -127q-1 40 10 79q10 37 37 67.5t63 42.5q14 3 22 3z" />
    <glyph glyph-name="eacute" unicode="&#xe9;" 
d="M163.5 472q-10.5 -1 -17 -8.5t-4.5 -15.5l1 -15q3 -9 -4 -22q-11 -22 -17 -23l-7 -3q-10 -3 -14.5 -12t0.5 -17t15.5 -11t20.5 0l8 4q13 5 25 17q10 11 20 32t7 42l-2 14q-2 8 -11.5 13.5t-20 4.5zM272 405q-26 -1 -44 -7q-51 -17 -87.5 -58t-50.5 -92q-18 -63 -10 -124
q1 -5 2 -11q-29 -17 -53 -23q27 -5 58 1q16 -54 57 -77q36 -20 78 -17t78 28q5 3 22 15q17 13 30 37q3 7 5 13l2 4q2 9 -1 35q-1 9 -9 24.5t-10 24.5q-1 6 3 17.5t9 17.5q-8 0 -27 -17q-25 -21 -32 -39q-7 -17 -2 -30q2 3 7 2t6 -6q1 -6 -6 -17q-24 -36 -61.5 -46t-61.5 6
q-21 12 -30 44q49 23 94 60t73 70h1q8 10 14 20q15 23 21 43q6 25 0 46q-4 18 -16 31q-22 25 -59 25zM270 345q5 0 9 -1q9 -2 10 -11q2 -24 -23 -53q-71 -80 -128 -127q-1 40 10 79q10 37 37 67.5t63 42.5q14 3 22 3z" />
    <glyph glyph-name="ecircumflex" unicode="&#xea;" 
d="M250 385h-54l-41 71l-40 -71h-55l78 115h35zM272 405q-26 -1 -44 -7q-51 -17 -87.5 -58t-50.5 -92q-18 -63 -10 -124q1 -5 2 -11q-29 -17 -53 -23q27 -5 58 1q16 -54 57 -77q36 -20 78 -17t78 28q5 3 22 15q17 13 30 37q3 7 5 13l2 4q2 9 -1 35q-1 9 -9 24.5t-10 24.5
q-1 6 3 17.5t9 17.5q-8 0 -27 -17q-25 -21 -32 -39q-7 -17 -2 -30q2 3 7 2t6 -6q1 -6 -6 -17q-24 -36 -61.5 -46t-61.5 6q-21 12 -30 44q49 23 94 60t73 70h1q8 10 14 20q15 23 21 43q6 25 0 46q-4 18 -16 31q-22 25 -59 25zM270 345q5 0 9 -1q9 -2 10 -11q2 -24 -23 -53
q-71 -80 -128 -127q-1 40 10 79q10 37 37 67.5t63 42.5q14 3 22 3z" />
    <glyph glyph-name="edieresis" unicode="&#xeb;" 
d="M185 425q0 -19 -13 -31.5t-30 -12.5q-18 0 -31 12.5t-13 31.5q0 18 13 31t31 13q17 0 30 -13t13 -31zM333 425q0 -19 -13 -31.5t-30 -12.5t-30.5 12.5t-13.5 31.5q0 18 13.5 31t30.5 13t30 -13t13 -31zM272 405q-26 -1 -44 -7q-51 -17 -87.5 -58t-50.5 -92
q-18 -63 -10 -124q1 -5 2 -11q-29 -17 -53 -23q27 -5 58 1q16 -54 57 -77q36 -20 78 -17t78 28q5 3 22 15q17 13 30 37q3 7 5 13l2 4q2 9 -1 35q-1 9 -9 24.5t-10 24.5q-1 6 3 17.5t9 17.5q-8 0 -27 -17q-25 -21 -32 -39q-7 -17 -2 -30q2 3 7 2t6 -6q1 -6 -6 -17
q-24 -36 -61.5 -46t-61.5 6q-21 12 -30 44q49 23 94 60t73 70h1q8 10 14 20q15 23 21 43q6 25 0 46q-4 18 -16 31q-22 25 -59 25zM270 345q5 0 9 -1q9 -2 10 -11q2 -24 -23 -53q-71 -80 -128 -127q-1 40 10 79q10 37 37 67.5t63 42.5q14 3 22 3z" />
    <glyph glyph-name="igrave" unicode="&#xec;" horiz-adv-x="180" 
d="M137 500q-1 -9 -9.5 -25.5t-14.5 -20.5q-9 -5 -33 1t-42 -6q-22 -16 -26 -29q-12 -36 6 -68q17 -29 53 -45t70 -7q-28 4 -56 24t-27 41v1q2 19 21 19q7 0 11.5 -4t4.5 -7q0 -4 -2 -7q14 7 24 23q18 27 23 65t-3 45zM26 450q-8 -6 -13 -36q-6 -34 0 -61q3 -12 9.5 -26
t11.5 -17q-2 14 1.5 19.5t8.5 4t8 -5.5q9 -11 12 -28q0 -24 -7 -68q-13 -81 -7 -122q8 -42 42 -86.5t68 -43.5q-22 23 -36 59.5t-14 80.5q-1 61 6 103q13 80 3 123q-2 9 -6 17q-3 8 -7 14q-4 5 -10 9h-1q-7 4 -26.5 10.5t-27.5 12.5q-5 4 -10 18t-5 23zM120 400v-40h20v40
h-20z" />
    <glyph glyph-name="iacute" unicode="&#xed;" horiz-adv-x="180" 
d="M90.5 472q-10.5 -1 -17 -8.5t-4.5 -15.5l1 -15q3 -9 -4 -22q-11 -22 -17 -23l-7 -3q-10 -3 -14.5 -12t0.5 -17t15.5 -11t20.5 0l8 4q13 5 25 17q10 11 20 32t7 42l-2 14q-2 8 -11.5 13.5t-20 4.5zM26 450q-8 -6 -13 -36q-6 -34 0 -61q3 -12 9.5 -26t11.5 -17
q-2 14 1.5 19.5t8.5 4t8 -5.5q9 -11 12 -28q0 -24 -7 -68q-13 -81 -7 -122q8 -42 42 -86.5t68 -43.5q-22 23 -36 59.5t-14 80.5q-1 61 6 103q13 80 3 123q-2 9 -6 17q-3 8 -7 14q-4 5 -10 9h-1q-7 4 -26.5 10.5t-27.5 12.5q-5 4 -10 18t-5 23zM120 400v-40h20v40h-20z" />
    <glyph glyph-name="icircumflex" unicode="&#xee;" horiz-adv-x="180" 
d="M177 385h-54l-41 71l-40 -71h-55l78 115h35zM26 450q-8 -6 -13 -36q-6 -34 0 -61q3 -12 9.5 -26t11.5 -17q-2 14 1.5 19.5t8.5 4t8 -5.5q9 -11 12 -28q0 -24 -7 -68q-13 -81 -7 -122q8 -42 42 -86.5t68 -43.5q-22 23 -36 59.5t-14 80.5q-1 61 6 103q13 80 3 123
q-2 9 -6 17q-3 8 -7 14q-4 5 -10 9h-1q-7 4 -26.5 10.5t-27.5 12.5q-5 4 -10 18t-5 23zM120 400v-40h20v40h-20z" />
    <glyph glyph-name="idieresis" unicode="&#xef;" horiz-adv-x="180" 
d="M191 545q0 -19 -13 -31.5t-30 -12.5t-30.5 12.5t-13.5 31.5q0 18 13.5 31t30.5 13t30 -13t13 -31zM33 545q0 -19 -13 -31.5t-30 -12.5t-30.5 12.5t-13.5 31.5q0 18 13.5 31t30.5 13t30 -13t13 -31zM26 450q-8 -6 -13 -36q-6 -34 0 -61q3 -12 9.5 -26t11.5 -17
q-2 14 1.5 19.5t8.5 4t8 -5.5q9 -11 12 -28q0 -24 -7 -68q-13 -81 -7 -122q8 -42 42 -86.5t68 -43.5q-22 23 -36 59.5t-14 80.5q-1 61 6 103q13 80 3 123q-2 9 -6 17q-3 8 -7 14q-4 5 -10 9h-1q-7 4 -26.5 10.5t-27.5 12.5q-5 4 -10 18t-5 23zM120 400v-40h20v40h-20z" />
    <glyph glyph-name="eth" unicode="&#xf0;" horiz-adv-x="376" 
d="M341 163q0 -81 -45.5 -130t-115.5 -49q-63 0 -103.5 45.5t-40.5 112.5q0 66 41 111t101 45t89 -32q-24 50 -85 98q-1 1 -2 1l-101 -52l-27 44l80 41q-36 20 -71 30l6 50q70 -14 125 -49l91 47l22 -46l-68 -35q104 -100 104 -232zM273 142q0 43 -26.5 72.5t-64.5 29.5
q-36 0 -62 -31t-26 -71t26 -71t62 -31q38 0 64.5 30t26.5 72z" />
    <glyph glyph-name="ntilde" unicode="&#xf1;" 
d="M302 443q-1 -35 -15.5 -55.5t-43.5 -20.5q-8 0 -19.5 4.5t-24 10t-23.5 10t-18 4.5q-8 0 -10 -7.5t-2 -16.5h-44q0 30 14.5 50.5t41.5 20.5q9 0 20.5 -4t22.5 -9.5t21.5 -9.5t17.5 -4q19 0 19 27h43zM46 450q-8 -6 -13 -36q-6 -34 0 -61q3 -12 9.5 -26t11.5 -17
q-2 20 8 26t18 -1q5 -4 9 -10.5t5.5 -11.5t4 -15.5t3.5 -13.5q3 -14 5 -46q-13 -47 -17 -85q-5 -49 -6 -81q0 -21 1 -34q1 -9 4 -16t8 -12q9 -10 23 -10q20 0 33 17q8 9 12 24q6 20 8 55q2 47 -3 116q-1 6 -1 23q0 1 1 4t1 5q8 24 19.5 45.5t18.5 27.5q31 26 64 22
q23 -4 26 -17q1 -3 2 -7q3 -17 1 -49q-1 -8 -1 -15q0 -3 -1 -9q0 -4 -2 -23t-4 -42.5t-4 -45.5q-6 -81 4 -127q9 -41 44 -72t78 -42.5t88.5 -2t74.5 42.5q-79 -46 -147.5 -22.5t-87.5 104.5q-2 10 6 115q2 21 4 44t3.5 42t2.5 25q1 16 2 24q2 36 -1 57q-2 17 -8 32
q-16 41 -73 47q-7 1 -13 1q-52 1 -96 -36q-11 -9 -21 -23q-1 4 -4 8q-7 18 -18 29q-5 4 -11 8q-5 3 -10 5t-15 5t-17.5 6.5t-13 7.5t-10.5 18t-5 23z" />
    <glyph glyph-name="ograve" unicode="&#xf2;" 
d="M247 500q-1 -9 -9.5 -25.5t-14.5 -20.5q-9 -5 -33 1t-42 -6q-22 -16 -26 -29q-12 -36 6 -68q17 -29 53 -45t70 -7q-28 4 -56 24t-27 41v1q2 19 21 19q7 0 11.5 -4t4.5 -7q0 -4 -2 -7q14 7 24 23q18 27 23 65t-3 45zM209 470q-2 -31 -21 -51q-7 -8 -24 -12.5t-32 -14.5
q-17 -12 -33 -30q-1 -2 -2 -3q-53 -57 -62 -136t46 -150q56 -73 128 -73q68 0 111 55q41 52 49 142q5 58 -20 111q-30 66 -87 72q-17 2 -34 -3q0 -3 -1 -6q-11 -40 -26 -60q-5 -5 -6 -4q6 18 0 23q-10 8 -31 -1q-2 -2 -2 -3q-35 -47 -43 -102q-5 -42 10 -82q21 -55 66 -62
q41 -6 73 37q21 28 30 66q9 34 5 65q-2 21 -11 36q-13 20 -36 25h-1q-1 1 -1.5 1h-1.5h-5q-20 0 -34 -18t-15.5 -44.5t15.5 -46.5q-6 46 12 59q10 8 16 -8v-1l2 -6v-1v-3q3 -20 -3 -44q-7 -25 -20 -44q-11 -14 -17 -13q-10 1 -18 23q-10 26 -6 53q5 40 31 74q24 33 46 30
q23 -2 39 -37q18 -39 14 -80q-6 -73 -36 -111q-25 -32 -64 -32q-18 0 -40.5 13.5t-39.5 36.5q-40 52 -34 107q4 40 24 73q17 25 38 38q11 6 23 8q13 0 18 -5v-1q4 -5 2 -12q0 -4 -2 -7l1 1q6 6 12 19q6 15 10 28l4 12q4 15 3 29q0 17 -7 42t-12 28z" />
    <glyph glyph-name="oacute" unicode="&#xf3;" 
d="M201.5 472q-10.5 -1 -17 -8.5t-4.5 -15.5l1 -15q3 -9 -4 -22q-11 -22 -17 -23l-7 -3q-10 -3 -14.5 -12t0.5 -17t15.5 -11t20.5 0l8 4q13 5 25 17q10 11 20 32t7 42l-2 14q-2 8 -11.5 13.5t-20 4.5zM209 470q-2 -31 -21 -51q-7 -8 -24 -12.5t-32 -14.5q-17 -12 -33 -30
q-1 -2 -2 -3q-53 -57 -62 -136t46 -150q56 -73 128 -73q68 0 111 55q41 52 49 142q5 58 -20 111q-30 66 -87 72q-17 2 -34 -3q0 -3 -1 -6q-11 -40 -26 -60q-5 -5 -6 -4q6 18 0 23q-10 8 -31 -1q-2 -2 -2 -3q-35 -47 -43 -102q-5 -42 10 -82q21 -55 66 -62q41 -6 73 37
q21 28 30 66q9 34 5 65q-2 21 -11 36q-13 20 -36 25h-1q-1 1 -1.5 1h-1.5h-5q-20 0 -34 -18t-15.5 -44.5t15.5 -46.5q-6 46 12 59q10 8 16 -8v-1l2 -6v-1v-3q3 -20 -3 -44q-7 -25 -20 -44q-11 -14 -17 -13q-10 1 -18 23q-10 26 -6 53q5 40 31 74q24 33 46 30q23 -2 39 -37
q18 -39 14 -80q-6 -73 -36 -111q-25 -32 -64 -32q-18 0 -40.5 13.5t-39.5 36.5q-40 52 -34 107q4 40 24 73q17 25 38 38q11 6 23 8q13 0 18 -5v-1q4 -5 2 -12q0 -4 -2 -7l1 1q6 6 12 19q6 15 10 28l4 12q4 15 3 29q0 17 -7 42t-12 28z" />
    <glyph glyph-name="ocircumflex" unicode="&#xf4;" 
d="M288 385h-54l-41 71l-40 -71h-55l78 115h35zM209 470q-2 -31 -21 -51q-7 -8 -24 -12.5t-32 -14.5q-17 -12 -33 -30q-1 -2 -2 -3q-53 -57 -62 -136t46 -150q56 -73 128 -73q68 0 111 55q41 52 49 142q5 58 -20 111q-30 66 -87 72q-17 2 -34 -3q0 -3 -1 -6q-11 -40 -26 -60
q-5 -5 -6 -4q6 18 0 23q-10 8 -31 -1q-2 -2 -2 -3q-35 -47 -43 -102q-5 -42 10 -82q21 -55 66 -62q41 -6 73 37q21 28 30 66q9 34 5 65q-2 21 -11 36q-13 20 -36 25h-1q-1 1 -1.5 1h-1.5h-5q-20 0 -34 -18t-15.5 -44.5t15.5 -46.5q-6 46 12 59q10 8 16 -8v-1l2 -6v-1v-3
q3 -20 -3 -44q-7 -25 -20 -44q-11 -14 -17 -13q-10 1 -18 23q-10 26 -6 53q5 40 31 74q24 33 46 30q23 -2 39 -37q18 -39 14 -80q-6 -73 -36 -111q-25 -32 -64 -32q-18 0 -40.5 13.5t-39.5 36.5q-40 52 -34 107q4 40 24 73q17 25 38 38q11 6 23 8q13 0 18 -5v-1q4 -5 2 -12
q0 -4 -2 -7l1 1q6 6 12 19q6 15 10 28l4 12q4 15 3 29q0 17 -7 42t-12 28z" />
    <glyph glyph-name="otilde" unicode="&#xf5;" 
d="M312 443q-1 -35 -15.5 -55.5t-43.5 -20.5q-8 0 -19.5 4.5t-24 10t-23.5 10t-18 4.5q-8 0 -10 -7.5t-2 -16.5h-44q0 30 14.5 50.5t41.5 20.5q9 0 20.5 -4t22.5 -9.5t21.5 -9.5t17.5 -4q19 0 19 27h43zM209 470q-2 -31 -21 -51q-7 -8 -24 -12.5t-32 -14.5q-17 -12 -33 -30
q-1 -2 -2 -3q-53 -57 -62 -136t46 -150q56 -73 128 -73q68 0 111 55q41 52 49 142q5 58 -20 111q-30 66 -87 72q-17 2 -34 -3q0 -3 -1 -6q-11 -40 -26 -60q-5 -5 -6 -4q6 18 0 23q-10 8 -31 -1q-2 -2 -2 -3q-35 -47 -43 -102q-5 -42 10 -82q21 -55 66 -62q41 -6 73 37
q21 28 30 66q9 34 5 65q-2 21 -11 36q-13 20 -36 25h-1q-1 1 -1.5 1h-1.5h-5q-20 0 -34 -18t-15.5 -44.5t15.5 -46.5q-6 46 12 59q10 8 16 -8v-1l2 -6v-1v-3q3 -20 -3 -44q-7 -25 -20 -44q-11 -14 -17 -13q-10 1 -18 23q-10 26 -6 53q5 40 31 74q24 33 46 30q23 -2 39 -37
q18 -39 14 -80q-6 -73 -36 -111q-25 -32 -64 -32q-18 0 -40.5 13.5t-39.5 36.5q-40 52 -34 107q4 40 24 73q17 25 38 38q11 6 23 8q13 0 18 -5v-1q4 -5 2 -12q0 -4 -2 -7l1 1q6 6 12 19q6 15 10 28l4 12q4 15 3 29q0 17 -7 42t-12 28z" />
    <glyph glyph-name="odieresis" unicode="&#xf6;" 
d="M223 425q0 -19 -13 -31.5t-30 -12.5q-18 0 -31 12.5t-13 31.5q0 18 13 31t31 13q17 0 30 -13t13 -31zM371 425q0 -19 -13 -31.5t-30 -12.5t-30.5 12.5t-13.5 31.5q0 18 13.5 31t30.5 13t30 -13t13 -31zM209 470q-2 -31 -21 -51q-7 -8 -24 -12.5t-32 -14.5
q-17 -12 -33 -30q-1 -2 -2 -3q-53 -57 -62 -136t46 -150q56 -73 128 -73q68 0 111 55q41 52 49 142q5 58 -20 111q-30 66 -87 72q-17 2 -34 -3q0 -3 -1 -6q-11 -40 -26 -60q-5 -5 -6 -4q6 18 0 23q-10 8 -31 -1q-2 -2 -2 -3q-35 -47 -43 -102q-5 -42 10 -82q21 -55 66 -62
q41 -6 73 37q21 28 30 66q9 34 5 65q-2 21 -11 36q-13 20 -36 25h-1q-1 1 -1.5 1h-1.5h-5q-20 0 -34 -18t-15.5 -44.5t15.5 -46.5q-6 46 12 59q10 8 16 -8v-1l2 -6v-1v-3q3 -20 -3 -44q-7 -25 -20 -44q-11 -14 -17 -13q-10 1 -18 23q-10 26 -6 53q5 40 31 74q24 33 46 30
q23 -2 39 -37q18 -39 14 -80q-6 -73 -36 -111q-25 -32 -64 -32q-18 0 -40.5 13.5t-39.5 36.5q-40 52 -34 107q4 40 24 73q17 25 38 38q11 6 23 8q13 0 18 -5v-1q4 -5 2 -12q0 -4 -2 -7l1 1q6 6 12 19q6 15 10 28l4 12q4 15 3 29q0 17 -7 42t-12 28z" />
    <glyph glyph-name="divide" unicode="&#xf7;" horiz-adv-x="416" 
d="M391 157h-365v54h365v-54zM257 56q0 -20 -14 -34t-33 -14t-33 14t-14 34t14 34t33 14t33 -14t14 -34zM257 313q0 -20 -14 -34t-33 -14t-33 14t-14 34t14 34t33 14t33 -14t14 -34z" />
    <glyph glyph-name="oslash" unicode="&#xf8;" horiz-adv-x="410" 
d="M386 172q0 -76 -51 -128t-129 -52q-33 0 -61 9l-15 -29h-64l29 56q-10 7 -18 16q-51 52 -51 128t51 128.5t129 52.5q28 0 53 -7l17 32h64l-29 -57q12 -9 24 -21q51 -52 51 -128zM324 172q0 54 -33 90l-7 7l-114 -219q17 -5 36 -5q52 0 85 36.5t33 90.5zM233 296
q-13 3 -27 3q-52 0 -85 -36.5t-33 -90.5t33 -91l1 -1z" />
    <glyph glyph-name="ugrave" unicode="&#xf9;" 
d="M227 500q-1 -9 -9.5 -25.5t-14.5 -20.5q-9 -5 -33 1t-42 -6q-22 -16 -26 -29q-12 -36 6 -68q17 -29 53 -45t70 -7q-28 4 -56 24t-27 41v1q2 19 21 19q7 0 11.5 -4t4.5 -7q0 -4 -2 -7q14 7 24 23q18 27 23 65t-3 45zM47 450q-8 -6 -13 -36q-6 -34 0 -61q3 -12 9.5 -26
t11.5 -17q-2 20 8 26t18 -1q13 -9 15 -39q0 -20 -24 -80q-31 -79 -9 -132l2 -4q25 -42 63.5 -65t80.5 -14q43 8 76 63q18 -72 53 -117.5t76 -59t85 -2.5t81 45q-37 -23 -70.5 -28.5t-57.5 2.5t-45 27t-33.5 39t-23.5 44q-17 40 -21 133q6 13 15 51q9 40 14 87q6 48 4 75v6.5
t-0.5 8t-3 7.5t-7.5 11q-8 10 -27 11q-6 0 -10 -1q-10 -4 -18 -15q-16 -21 -23 -71q-7 -45 -6 -101q0 -27 2 -52q-7 -11 -17.5 -33.5t-15.5 -31.5q-21 -36 -38 -40q-20 -3 -41.5 10t-38.5 39q-11 31 9 84q17 34 23 61q11 46 6 71q-7 33 -27 53q-5 5 -13 9l-4 2q-4 2 -23 8.5
t-27 12.5q-5 4 -10 18t-5 23zM344 352z" />
    <glyph glyph-name="uacute" unicode="&#xfa;" 
d="M201.5 472q-10.5 -1 -17 -8.5t-4.5 -15.5l1 -15q3 -9 -4 -22q-11 -22 -17 -23l-7 -3q-10 -3 -14.5 -12t0.5 -17t15.5 -11t20.5 0l8 4q13 5 25 17q10 11 20 32t7 42l-2 14q-2 8 -11.5 13.5t-20 4.5zM47 450q-8 -6 -13 -36q-6 -34 0 -61q3 -12 9.5 -26t11.5 -17q-2 20 8 26
t18 -1q13 -9 15 -39q0 -20 -24 -80q-31 -79 -9 -132l2 -4q25 -42 63.5 -65t80.5 -14q43 8 76 63q18 -72 53 -117.5t76 -59t85 -2.5t81 45q-37 -23 -70.5 -28.5t-57.5 2.5t-45 27t-33.5 39t-23.5 44q-17 40 -21 133q6 13 15 51q9 40 14 87q6 48 4 75v6.5t-0.5 8t-3 7.5
t-7.5 11q-8 10 -27 11q-6 0 -10 -1q-10 -4 -18 -15q-16 -21 -23 -71q-7 -45 -6 -101q0 -27 2 -52q-7 -11 -17.5 -33.5t-15.5 -31.5q-21 -36 -38 -40q-20 -3 -41.5 10t-38.5 39q-11 31 9 84q17 34 23 61q11 46 6 71q-7 33 -27 53q-5 5 -13 9l-4 2q-4 2 -23 8.5t-27 12.5
q-5 4 -10 18t-5 23zM344 352z" />
    <glyph glyph-name="ucircumflex" unicode="&#xfb;" 
d="M275 385h-54l-41 71l-40 -71h-55l78 115h35zM47 450q-8 -6 -13 -36q-6 -34 0 -61q3 -12 9.5 -26t11.5 -17q-2 20 8 26t18 -1q13 -9 15 -39q0 -20 -24 -80q-31 -79 -9 -132l2 -4q25 -42 63.5 -65t80.5 -14q43 8 76 63q18 -72 53 -117.5t76 -59t85 -2.5t81 45
q-37 -23 -70.5 -28.5t-57.5 2.5t-45 27t-33.5 39t-23.5 44q-17 40 -21 133q6 13 15 51q9 40 14 87q6 48 4 75v6.5t-0.5 8t-3 7.5t-7.5 11q-8 10 -27 11q-6 0 -10 -1q-10 -4 -18 -15q-16 -21 -23 -71q-7 -45 -6 -101q0 -27 2 -52q-7 -11 -17.5 -33.5t-15.5 -31.5
q-21 -36 -38 -40q-20 -3 -41.5 10t-38.5 39q-11 31 9 84q17 34 23 61q11 46 6 71q-7 33 -27 53q-5 5 -13 9l-4 2q-4 2 -23 8.5t-27 12.5q-5 4 -10 18t-5 23zM344 352z" />
    <glyph glyph-name="udieresis" unicode="&#xfc;" 
d="M205 425q0 -19 -13 -31.5t-30 -12.5q-18 0 -31 12.5t-13 31.5q0 18 13 31t31 13q17 0 30 -13t13 -31zM353 425q0 -19 -13 -31.5t-30 -12.5t-30.5 12.5t-13.5 31.5q0 18 13.5 31t30.5 13t30 -13t13 -31zM47 450q-8 -6 -13 -36q-6 -34 0 -61q3 -12 9.5 -26t11.5 -17
q-2 20 8 26t18 -1q13 -9 15 -39q0 -20 -24 -80q-31 -79 -9 -132l2 -4q25 -42 63.5 -65t80.5 -14q43 8 76 63q18 -72 53 -117.5t76 -59t85 -2.5t81 45q-37 -23 -70.5 -28.5t-57.5 2.5t-45 27t-33.5 39t-23.5 44q-17 40 -21 133q6 13 15 51q9 40 14 87q6 48 4 75v6.5t-0.5 8
t-3 7.5t-7.5 11q-8 10 -27 11q-6 0 -10 -1q-10 -4 -18 -15q-16 -21 -23 -71q-7 -45 -6 -101q0 -27 2 -52q-7 -11 -17.5 -33.5t-15.5 -31.5q-21 -36 -38 -40q-20 -3 -41.5 10t-38.5 39q-11 31 9 84q17 34 23 61q11 46 6 71q-7 33 -27 53q-5 5 -13 9l-4 2q-4 2 -23 8.5
t-27 12.5q-5 4 -10 18t-5 23zM344 352z" />
    <glyph glyph-name="yacute" unicode="&#xfd;" 
d="M201.5 472q-10.5 -1 -17 -8.5t-4.5 -15.5l1 -15q3 -9 -4 -22q-11 -22 -17 -23l-7 -3q-10 -3 -14.5 -12t0.5 -17t15.5 -11t20.5 0l8 4q13 5 25 17q10 11 20 32t7 42l-2 14q-2 8 -11.5 13.5t-20 4.5zM27 450q-8 -6 -13 -36q-6 -34 0 -61q3 -12 9.5 -26t11.5 -17
q-2 14 4 19.5t13.5 4t10.5 -5.5q26 -36 13 -117q-10 -56 -5 -95q6 -49 39 -81q36 -35 91 -35q59 0 99 54q13 -76 16 -112q1 -20 0 -36q-52 12 -104 -6t-82 -54q-18 -21 -24 -46q-8 -30 7 -56q1 0 1 -1q17 -26 50 -34q25 -6 57 0q63 11 100 51q41 44 51 109q13 -4 27 -9
q-12 12 -25 21q4 29 1 64q-2 40 -15 115.5t-15 88.5l-2 6q4 15 6 30q16 90 12 152q-1 15 -3 25q-4 15 -10 24q-8 10 -21 13q-3 1 -7 0q-11 0 -19 -6q-10 -7 -17 -22q-29 -63 -18 -153q4 -32 14 -68q-11 -38 -28 -60q-22 -30 -51 -30q-31 0 -49 18q-18 17 -21 46
q-1 10 -1.5 19t0.5 19.5t1.5 15.5t3 19.5t3.5 17.5q8 46 0 83q-1 14 -4 26q-10 36 -27 53q-9 9 -32.5 17t-32.5 15q-5 4 -10 18t-5 23zM307 -119q3 0 7 -1q-7 -47 -37 -80q-9 -9 -28.5 -19t-37.5 -13q-20 -4 -33 -1q-10 3 -13 9q-3 4 -1 10q2 10 13 23q58 72 130 72z" />
    <glyph glyph-name="thorn" unicode="&#xfe;" horiz-adv-x="437" 
d="M402 179q0 -84 -49.5 -136t-127.5 -52q-67 0 -111 41v-166h-59v610h59v-169q50 47 121 47q73 0 120 -49.5t47 -125.5zM344 178q0 54 -32 89t-83 35q-47 0 -81 -29.5t-34 -76.5v-57q0 -38 34.5 -65.5t79.5 -27.5q52 0 84 35t32 97z" />
    <glyph glyph-name="ydieresis" unicode="&#xff;" 
d="M238 425q0 -19 -13 -31.5t-30 -12.5q-18 0 -31 12.5t-13 31.5q0 18 13 31t31 13q17 0 30 -13t13 -31zM386 425q0 -19 -13 -31.5t-30 -12.5t-30.5 12.5t-13.5 31.5q0 18 13.5 31t30.5 13t30 -13t13 -31zM27 450q-8 -6 -13 -36q-6 -34 0 -61q3 -12 9.5 -26t11.5 -17
q-2 14 4 19.5t13.5 4t10.5 -5.5q26 -36 13 -117q-10 -56 -5 -95q6 -49 39 -81q36 -35 91 -35q59 0 99 54q13 -76 16 -112q1 -20 0 -36q-52 12 -104 -6t-82 -54q-18 -21 -24 -46q-8 -30 7 -56q1 0 1 -1q17 -26 50 -34q25 -6 57 0q63 11 100 51q41 44 51 109q13 -4 27 -9
q-12 12 -25 21q4 29 1 64q-2 40 -15 115.5t-15 88.5l-2 6q4 15 6 30q16 90 12 152q-1 15 -3 25q-4 15 -10 24q-8 10 -21 13q-3 1 -7 0q-11 0 -19 -6q-10 -7 -17 -22q-29 -63 -18 -153q4 -32 14 -68q-11 -38 -28 -60q-22 -30 -51 -30q-31 0 -49 18q-18 17 -21 46
q-1 10 -1.5 19t0.5 19.5t1.5 15.5t3 19.5t3.5 17.5q8 46 0 83q-1 14 -4 26q-10 36 -27 53q-9 9 -32.5 17t-32.5 15q-5 4 -10 18t-5 23zM307 -119q3 0 7 -1q-7 -47 -37 -80q-9 -9 -28.5 -19t-37.5 -13q-20 -4 -33 -1q-10 3 -13 9q-3 4 -1 10q2 10 13 23q58 72 130 72z" />
    <glyph glyph-name="dotlessi" unicode="&#x131;" horiz-adv-x="180" 
d="M26 450q-8 -6 -13 -36q-6 -34 0 -61q3 -12 9.5 -26t11.5 -17q-2 14 1.5 19.5t8.5 4t8 -5.5q9 -11 12 -28q0 -24 -7 -68q-13 -81 -7 -122q8 -42 42 -86.5t68 -43.5q-22 23 -36 59.5t-14 80.5q-1 61 6 103q13 80 3 123q-2 9 -6 17q-3 8 -7 14q-4 5 -10 9h-1
q-7 4 -26.5 10.5t-27.5 12.5q-5 4 -10 18t-5 23zM120 400v-40h20v40h-20z" />
    <glyph glyph-name="Lslash" unicode="&#x141;" horiz-adv-x="358" 
d="M346 0h-296v149l-29 -7v62l29 7v265h63v-250l225 53v-62l-225 -53v-110h233v-54z" />
    <glyph glyph-name="lslash" unicode="&#x142;" horiz-adv-x="216" 
d="M207 49l-7 -57q-149 8 -149 183v61l-43 -12v54l43 12v214h63v-195l93 28v-54l-93 -28v-66q0 -77 24 -109q21 -27 69 -31z" />
    <glyph glyph-name="OE" unicode="&#x152;" horiz-adv-x="721" 
d="M698 0h-283v27q-60 -37 -136 -37q-111 0 -182 71t-71 177q0 105 71 176.5t182 71.5q76 0 136 -38v28h283v-54h-220v-144h196v-54h-196v-170h220v-54zM415 104v265q-51 62 -136 62q-76 0 -133 -58.5t-57 -134.5q0 -78 56.5 -136t133.5 -58q85 0 136 60z" />
    <glyph glyph-name="oe" unicode="&#x153;" horiz-adv-x="687" 
d="M642 73l7 -55q-73 -27 -139 -27q-101 0 -157 74q-53 -73 -147 -73q-78 0 -129 52t-51 128t51 128.5t129 52.5q97 0 148 -77q60 77 152 77q154 0 157 -193h-277q4 -53 38.5 -83t89.5 -30t128 26zM324 172q0 54 -33 90.5t-85 36.5t-85 -36.5t-33 -90.5t33 -90.5t85 -36.5
t85 36.5t33 90.5zM390 213h211q-5 40 -32.5 64t-68.5 24q-40 0 -71.5 -24.5t-38.5 -63.5z" />
    <glyph glyph-name="Scaron" unicode="&#x160;" horiz-adv-x="600" 
d="M254 544h-35l-77 115h54l41 -71l40 71h55zM419 541h-4q-58 -2 -103.5 -32t-62.5 -79q-22 -59 30 -117q33 -37 104 -79q65 -39 99 -102.5t26 -117.5q-10 -76 -75 -101q-26 -10 -58.5 -10.5t-47.5 5.5q-64 22 -94 70q-13 21 -19 46q16 -3 31 -1q16 2 32.5 13.5t25.5 26.5
q13 28 5.5 60t-29.5 50q-21 16 -41 17q-39 2 -67 -40q-19 -28 -22 -59q-32 9 -60 2q-24 -7 -37 -21.5t-35 -52.5q19 15 35.5 22t25 8t29.5 2q19 1 43 -7q6 -54 32 -97q41 -67 127 -95q71 -24 146 5q43 17 74 55t39 94q10 76 -31.5 154t-123.5 126q-63 37 -89 67
q-28 31 -19 57q13 36 50 57t85 13h3q10 -2 19 -4l1 -1q21 -7 42 -25t29 -30q7 -12 2.5 -23.5t-14.5 -16.5q17 0 34 10q36 20 54 50q12 20 21.5 57t7.5 43q-7 -18 -15 -26.5t-21 -12.5q-6 -3 -16.5 -1.5t-16.5 4.5t-18 8t-22 8q-5 1 -19.5 4.5t-20.5 5.5q-5 1 -9 2
q-32 9 -62 9zM234 130h1q9 -2 14.5 -14t2.5 -21q-9 -26 -44 -22q0 24 13 44q8 13 13 13z" />
    <glyph glyph-name="scaron" unicode="&#x161;" horiz-adv-x="360" 
d="M152 385h-35l-77 115h54l41 -71l40 71h55zM150 441h-1q-24 -1 -42.5 -16.5t-24.5 -38.5q-11 -48 27 -86q9 -9 23 -22q-7 -37 -16 -64q-2 -7 -12 -38.5t-15 -45.5t-15.5 -43t-19.5 -45.5t-21 -36t-25.5 -30t-27.5 -14.5q25 2 47 13.5t40 32.5t31.5 40t27 49.5t20 47
t16.5 46.5q4 11 6 16q6 15 11 32q25 -21 40 -35q31 -29 47 -50q15 -21 15 -32q0 -33 -16 -48q-9 -9 -25 -11q-8 -1 -11.5 4t-1.5 9q3 6 8.5 6t6.5 -5q9 12 8 30q0 19 -17 47q-12 23 -20 25q3 -7 4 -20t-2 -18q-5 -7 -18.5 -19t-17.5 -20q-15 -35 -5 -59q7 -16 23 -28t33 -14
q11 -1 24 3q31 6 53 27q34 33 34 91q0 31 -27 67q-19 26 -54 59q-20 18 -64 55q5 25 7 46q3 34 -4 56q-6 16 -17 25q-12 11 -29 12h-3zM144 379q1 0 1 -9.5t-2 -16.5q-6 17 0 26h1z" />
    <glyph glyph-name="Ydieresis" unicode="&#x178;" horiz-adv-x="560" 
d="M298 583q0 -19 -13 -31.5t-30 -12.5q-18 0 -31 12.5t-13 31.5q0 18 13 31t31 13q17 0 30 -13t13 -31zM446 583q0 -19 -13 -31.5t-30 -12.5t-30.5 12.5t-13.5 31.5q0 18 13.5 31t30.5 13t30 -13t13 -31zM202 533q-52 -1 -95.5 -39t-56.5 -96q-18 -78 19 -118
q20 -22 50 -24q33 -4 74 24q18 12 24 32q6 21 -5 52q-3 9 -13.5 22.5t-14.5 21.5q-3 6 -1.5 18t5.5 18q-8 -1 -23 -21q-20 -26 -23 -45q-3 -18 4 -30q2 4 7.5 3t7.5 -7q4 -9 -4 -16q-9 -8 -21.5 -11t-21.5 3q-12 10 -12.5 23t6.5 42q9 41 42 66.5t64 20.5q22 -4 37 -27
q17 -27 18 -65q1 -23 -12.5 -96t-15.5 -110q-6 -68 15 -109q29 -55 100 -63h1q58 -6 98 21q15 10 28 25q12 -67 14 -106q1 -19 0 -36q-52 12 -104.5 -6t-82.5 -54q-18 -21 -24 -46q-8 -30 7 -56q1 0 1 -1q17 -26 50 -34q25 -6 57 0q63 11 100 51q41 44 52 109q13 -4 26 -9
q-11 11 -24 20q4 30 2 65q-1 30 -5.5 60.5t-14.5 81t-12 61.5q5 22 10 60t5 39q6 42 -2 99q-2 14 -6 24q-5 18 -17 26q-13 8 -28 4q-11 -2 -19 -11t-16 -28q-16 -39 -6 -115q3 -21 18 -96q-5 -21 -11 -35q-12 -30 -31 -43q-22 -14 -58 -11q-41 5 -54 32q-13 25 -9 77
q1 25 15 100.5t13 111.5q-2 55 -28 95q-29 46 -77 54q-8 1 -15 1q-3 1 -7 1zM487 -119q3 0 8 -1q-8 -47 -38 -80q-9 -9 -28.5 -19t-37.5 -13q-20 -4 -33 -1q-10 3 -13 9q-3 4 -1 10q2 10 13 23q58 72 130 72z" />
    <glyph glyph-name="florin" unicode="&#x192;" horiz-adv-x="402" 
d="M327 254h-94l-35 -161q-35 -162 -160 -162q-39 0 -65 25l26 44q24 -14 49 -14q65 0 90 112l34 156h-54l10 52h56l3 16q20 78 60 120t100 42q39 0 65 -25l-26 -44q-24 14 -49 14q-66 0 -90 -112l-3 -11h93z" />
    <glyph glyph-name="circumflex" unicode="&#x2c6;" horiz-adv-x="216" 
d="M204 385h-54l-41 71l-40 -71h-55l78 115h35z" />
    <glyph glyph-name="caron" unicode="&#x2c7;" horiz-adv-x="306" 
d="M171 385h-35l-77 115h54l41 -71l40 71h55z" />
    <glyph glyph-name="breve" unicode="&#x2d8;" horiz-adv-x="341" 
d="M289 491q-10 -57 -40 -84.5t-78 -27.5t-78 27.5t-40 84.5h54q5 -25 20.5 -44.5t43.5 -19.5t44 19.5t21 44.5h53z" />
    <glyph glyph-name="dotaccent" unicode="&#x2d9;" horiz-adv-x="191" 
d="M140 545q0 -19 -13 -31.5t-30 -12.5t-30.5 12.5t-13.5 31.5q0 18 13.5 31t30.5 13t30 -13t13 -31z" />
    <glyph glyph-name="ring" unicode="&#x2da;" horiz-adv-x="265" 
d="M213 464q0 -33 -23.5 -56.5t-56.5 -23.5t-56.5 23.5t-23.5 56.5t23.5 56.5t56.5 23.5t56.5 -23.5t23.5 -56.5zM171 464q0 16 -11 27t-27 11t-27.5 -11t-11.5 -27t11.5 -27.5t27.5 -11.5t27 11.5t11 27.5z" />
    <glyph glyph-name="ogonek" unicode="&#x2db;" horiz-adv-x="254" 
d="M202 -136q-41 -17 -73 -17q-39 0 -57.5 23t-18.5 54q0 19 5.5 43t13.5 52h59q-21 -53 -21 -81q0 -32 28 -35q11 0 28.5 5.5t35.5 13.5v-58z" />
    <glyph glyph-name="tilde" unicode="&#x2dc;" horiz-adv-x="258" 
d="M228 443q-1 -35 -15.5 -55.5t-43.5 -20.5q-8 0 -19.5 4.5t-24 10t-23.5 10t-18 4.5q-8 0 -10 -7.5t-2 -16.5h-44q0 30 14.5 50.5t41.5 20.5q9 0 20.5 -4t22.5 -9.5t21.5 -9.5t17.5 -4q19 0 19 27h43z" />
    <glyph glyph-name="hungarumlaut" unicode="&#x2dd;" horiz-adv-x="358" 
d="M221 320h-42l63 171h64zM95 320h-42l63 171h63z" />
    <glyph glyph-name="uni0E01" unicode="&#xe01;" horiz-adv-x="381" 
d="M225 400h-3q-50 -1 -90 -15q-55 -20 -76 -61q-23 -44 5 -113q3 -8 9 -22t9 -21.5t6.5 -19t5.5 -21.5q7 -41 0 -72q-8 -26 -18.5 -41t-32.5 -34q62 0 78 12q24 19 31 50q10 37 1 92q-4 27 -34 100q-17 43 -7 62q11 20 43 32q31 11 71 12q16 0 32.5 -5.5t25.5 -15.5
q21 -23 21 -79q0 -12 -1 -36l-4 2q-5 4 -9.5 15t-4.5 19q-6 -5 -10 -30q-4 -30 2 -51q6 -18 15 -24q-1 5 6 7q7 1 12 -3q32 -26 28 -74q0 42 -18 61q0 1 -2 2q-12 13 -20 12q-3 -37 -5 -58q-1 -20 1 -38q2 -13 7 -22q11 -22 33 -22q19 0 32 15q7 8 11 21q5 17 5 39
q0 44 -8 63q-6 14 -14 26q4 53 4 76q0 80 -38 120q-37 40 -99 40z" />
    <glyph glyph-name="uni0E02" unicode="&#xe02;" horiz-adv-x="300" 
d="M26 460q-5 -4 -6 -30.5t2 -45.5q7 -67 28 -102q12 -18 30 -28q0 1 -3 18q-3 20 13 28q8 4 21.5 -1t23.5 -19q11 -15 18 -32q-33 -89 -33 -158q0 -36 19 -61q21 -29 54 -29h2q28 1 47 20q23 23 23 70q0 49 -12 90t-38 93q31 88 75 147q-57 -21 -102 -97q-8 21 -13.5 31.5
t-17 23t-27.5 18.5q-8 4 -32.5 -1.5t-41.5 8.5q-8 5 -18.5 25.5t-11.5 31.5zM190 182q15 -43 15 -92q0 -22 -6 -28q-2 -2 -6 -2q-2 0 -4 2q-1 1 -1 1.5t-1 1.5q-4 5 -6 13q0 2 -0.5 3.5t-0.5 4.5v2v2q0 43 10 92z" />
    <glyph glyph-name="uni0E03" unicode="&#xe03;" horiz-adv-x="300" 
d="M289 420q-49 -18 -90 -78q-7 21 -11 36q-3 9 -11 15.5t-18 6.5q-7 0 -13 -2q-10 -4 -25 -14.5t-26 -13.5q-1 0 -8.5 -2.5t-12.5 -4t-15 -2t-18.5 2t-20 9t-22.5 17.5q-13 12 -13 27q-5 -5 -5 -27q0 -39 24 -65q11 -12 28 -13q-9 2 -6 10q2 11 14 3q17 -12 50.5 0t35.5 11
q9 -3 20 -27q4 -10 14 -42q-41 -98 -41 -177q0 -36 19 -61q21 -29 54 -29h1.5h0.5q28 1 47 20q23 23 23 70v0q-1 65 -46 196q30 80 71 134zM188 178q16 -57 16 -88q0 -22 -6 -28q-2 -2 -6 -2q-2 0 -4 2q-1 1 -1 1.5t-1 1.5q-4 5 -6 13q0 2 -0.5 3.5t-0.5 4.5v2v2q0 41 9 88z
" />
    <glyph glyph-name="uni0E04" unicode="&#xe04;" horiz-adv-x="440" 
d="M280 402q-13 0 -26 -2q-54 -9 -102 -43t-77 -82q-27 -46 -33.5 -101.5t11.5 -107.5v-1v0q18 -56 68 -65q53 -9 93 41q16 20 18 51q8 33 28 33q19 0 21 -12q1 -5 -1 -9q11 8 24 31q14 27 16 45q2 20 -2 45.5t-10 29.5q0 -10 -6.5 -22t-15.5 -19q-13 -10 -41.5 -22.5
t-37.5 -18.5q-32 -20 -35 -65q-1 -7 -1 -13.5t-0.5 -9.5t-2.5 -6q-17 -23 -37 -19q-14 2 -21 24l-1 1q-12 37 -7 81.5t25 78.5q21 35 59.5 62t77.5 33q19 3 41.5 -3t33.5 -18q19 -21 22 -84v-9.5v-10.5q5 -65 -10.5 -139t-50.5 -116q33 9 58.5 40t38 72t18.5 78t6 68v3v15
t-0.5 18t-1.5 17t-2.5 19.5t-4.5 17.5t-6.5 19t-9 16.5t-13.5 16.5l-0.5 0.5l-0.5 0.5v1q-36 37 -94 40h-8z" />
    <glyph glyph-name="uni0E05" unicode="&#xe05;" horiz-adv-x="440" 
d="M372 411q-10 0 -18 -5q-16 -8 -21 -27q-4 -10 -4 -22q0 -9 1 -22q-4 -4 -7 -6q-14 -12 -24 -10q-15 4 -30 42q-6 16 -20.5 27.5t-30.5 12.5q-24 2 -52 -15q-44 -27 -70 -69v-1q-1 0 -1 -1q-35 -53 -47.5 -117.5t4.5 -131.5q18 -57 69 -66q53 -9 93 41q16 20 18 51
q8 33 28 33q19 0 21 -12q1 -5 -1 -9q11 8 23 31q15 27 17 45q1 20 -3 45.5t-9 29.5q0 -10 -7 -22t-15 -19q-13 -10 -41.5 -22.5t-37.5 -18.5q-32 -20 -35 -65q-1 -7 -1 -13.5t-0.5 -9.5t-2.5 -6q-17 -23 -37 -19q-15 2 -21 24q-13 51 -2 104.5t38 94.5q0 1 1 2
q6 10 21.5 25.5t28.5 23.5l5 3t6.5 3t4.5 -1q26 -66 70 -78q28 -7 58 8q8 -43 9 -53q24 -184 -30 -256q29 17 49.5 45t29 56t12 61t3 55.5t-3.5 43.5q-1 9 -4 25q-2 10 -6.5 35t-6.5 37q7 11 11 19q8 17 10 30q1 11 -2 20q-3 7 -10 14q-5 5 -12 7q-6 2 -13 3h-2.5h-2.5z" />
    <glyph glyph-name="uni0E06" unicode="&#xe06;" 
d="M369 420q-33 -20 -54.5 -44t-30.5 -44t-11 -45.5t0 -41t6 -37.5v0q2 -13 11 -44t11 -46q-2 -31 -14 -49.5t-34 -12.5q-14 3 -52 20q3 38 5.5 93t3.5 65q9 106 -4 146q-3 9 -11 14.5t-19 5.5h-3q-14 -4 -30.5 -15.5t-27.5 -14.5q-1 0 -8.5 -2.5t-12.5 -4t-15 -2t-18.5 2
t-20 9t-22.5 17.5q-13 12 -13 27q-5 -5 -5 -27q0 -39 24 -65q11 -12 28 -13q-9 2 -6 10q2 11 14 3q17 -12 50.5 0t35.5 11q4 -6 6 -15.5t2 -21t-0.5 -20t-2 -21t-1.5 -16.5q-1 -9 -3 -59.5t-4 -83.5q-9 2 -10 3q-44 10 -76 -5q-40 -19 -57 -46q-22 -34 -21 -92q1 -53 33 -88
q18 -19 45 -25t55 7q39 19 61 80q12 34 20 81q27 -12 44 -16q43 -12 71 8q57 42 53 116q-2 17 -5.5 33.5t-10.5 39t-7 23.5q-2 9 -6.5 32.5t-6 33t-2 29.5t4 34t14.5 33.5t27 39.5zM101 46q6 0 18 -3q5 -1 17 -5q-9 -60 -20 -84q0 -2 -3.5 -11t-5 -12t-5.5 -9t-8 -9.5
t-8 -5.5q-16 -7 -30 4q-14 12 -17 49q-3 36 11 58q9 14 33 25q6 3 15 3h3z" />
    <glyph glyph-name="uni0E07" unicode="&#xe07;" horiz-adv-x="379" 
d="M-91 516q-35 0 -62 -14t-38 -40q19 23 57 24t75.5 -18.5t54.5 -50.5q21 -47 49.5 -131t37.5 -109q31 -77 58 -117q40 -59 86 -60h2h0.5h1.5q48 1 82 41q43 52 47 158q0 25 -1 43v1v1q-2 36 -8 63q-17 71 -62 89q-10 4 -36.5 1t-37.5 6q-8 5 -18.5 25.5t-11.5 31.5
q-11 -9 -4 -56q6 -48 28 -82q12 -19 30 -28q-2 4 -2 9q0 3 5.5 8t14.5 5q19 0 29 -18q6 -14 9 -27q2 -10 5 -29q1 -13 0 -41q-3 -85 -33 -122q-7 -8 -18 -13.5t-19 -5.5q-16 0 -39 34q-24 34 -52 105q-8 21 -41.5 113t-52 127.5t-57 56t-79.5 20.5z" />
    <glyph glyph-name="uni0E08" unicode="&#xe08;" horiz-adv-x="460" 
d="M288 400q-63 0 -126 -51q-3 -3 -7 -6l-3 -3q-52 -46 -80 -107q-42 -90 -42 -186q-1 -119 71 -171q24 -15 49 -16.5t45.5 6.5t41 24.5t35 33.5t28.5 37q-98 -70 -155.5 -48.5t-58.5 134.5q0 74 40 160q26 57 74 96q51 41 97 37q33 -3 56.5 -26.5t26.5 -65.5
q4 -56 -14 -124q-10 -34 -22 -52q-7 -11 -18 -10.5t-18 8.5q-7 14 -0.5 22.5t15 25t5.5 30.5q-7 31 -35 50q-1 1 -2 1v1q-6 4 -14 5q-7 2 -20.5 2.5t-24 3t-18.5 8.5q-8 7 -15 19t-7 22q-5 -4 -9 -22t-3 -33q1 -17 17 -45q12 -23 23 -31q-2 4 -1 9q2 9 26 11q9 1 17 -5
t8 -14v-1q-1 -3 -3.5 -8t-7 -13.5t-7.5 -14.5q-12 -23 0 -47q7 -15 25 -27q28 -19 55 -19q37 0 62 39q18 26 30 69q21 78 16 144q-5 62 -44.5 102.5t-92.5 45.5h-10h-5z" />
    <glyph glyph-name="uni0E09" unicode="&#xe09;" horiz-adv-x="480" 
d="M327 406q-27 0 -53 -7h-1h-1q-32 -9 -62 -24q-3 -2 -4 -2q-96 -51 -135 -141q-40 -93 -40 -185q-1 -119 70 -171q101 -61 199 85q-51 -40 -92.5 -52.5t-67.5 2t-39.5 49t-13.5 87.5q0 70 40 161q28 61 91 101q35 21 63 30q21 6 46.5 6t44.5 -6q28 -11 28 -29
q0 -40 -26 -115q-24 -68 -28 -105q-8 -3 -22 -9q-53 -22 -57 -23q-5 0 -4 3q2 5 4.5 8t7.5 7.5t9 8.5q29 33 26 63q-1 6 -2 13q-3 15 -12 29q-7 11 -30 28.5t-30 31.5q-14 26 -4 46q-7 -1 -17 -16t-16 -30q-9 -22 -7 -57q1 -25 9 -38q0 5 3 9q3 5 11 6t17 -6q5 -5 8 -16
t2 -19q-2 -11 -17.5 -26t-18.5 -23q-10 -22 -9 -41q1 -18 14 -29q11 -10 28 -10h1q44 -1 103 24q-1 -33 0 -54q3 -31 13 -51q15 -30 46 -38q20 -5 39 5q14 7 25 21q20 25 24 54q5 39 -13.5 74t-53.5 52q-7 4 -16 6q4 27 23 82q29 84 30 135q0 29 -19.5 51.5t-48.5 33.5
q-27 10 -58 11h-7zM404 28q11 -10 19 -26.5t7 -32.5q-1 -28 -15 -29q-2 0 -5 6q-5 9 -7 29q-1 13 1 53z" />
    <glyph glyph-name="uni0E0A" unicode="&#xe0a;" horiz-adv-x="320" 
d="M419 500q-82 -23 -135.5 -69t-81.5 -95q-9 23 -20.5 37.5t-32.5 22.5q-8 4 -32.5 -1.5t-41.5 8.5q-8 5 -18.5 25.5t-11.5 31.5q-5 -4 -6 -30.5t2 -45.5q7 -67 28 -102q12 -18 30 -28q0 1 -3 18q-3 20 13 28q8 4 21.5 -1t23.5 -19q8 -12 15 -25q-29 -92 -30 -163v-1v-1v-2
q0 -35 19 -59q21 -29 54 -29q30 0 49 20q23 23 23 70q0 82 -47 175q5 14 10 26q13 35 34 72t58.5 78t79.5 59zM212 173q12 -38 12 -83q0 -22 -6 -28q-2 -2 -6 -2q-3 0 -6 5q-7 9 -7 25q0 26 13 83z" />
    <glyph glyph-name="uni0E0B" unicode="&#xe0b;" horiz-adv-x="320" 
d="M419 500q-78 -22 -130.5 -65.5t-81.5 -90.5q-10 20 -22 40q-8 16 -26 16h-1q-6 0 -12 -2v-1q-10 -3 -25 -13.5t-26 -13.5q-1 0 -8.5 -2.5t-12.5 -4t-15 -2t-18.5 2t-20 9t-22.5 17.5q-13 12 -13 27q-5 -5 -5 -27q0 -39 24 -65q11 -12 28 -13q-9 2 -6 10q2 11 14 3
q18 -9 33 -6t32.5 10t20.5 7q16 -1 44 -57q4 -7 4 -9q-34 -99 -35 -178v-1v-1v-2q0 -35 19 -59q21 -29 54 -29q30 0 49 20q23 23 23 70q0 76 -44 182q3 10 7 19q13 35 34 72t58.5 78t79.5 59zM211 170q13 -47 13 -80q0 -22 -6 -28q-2 -2 -6 -2q-3 0 -6 5q-7 9 -7 25
q0 25 12 80z" />
    <glyph glyph-name="uni0E0C" unicode="&#xe0c;" horiz-adv-x="540" 
d="M528 420q-33 -20 -54 -44t-30.5 -43.5t-11.5 -45t0 -40.5t6 -38q2 -10 12 -42.5t10 -48.5q0 -25 -11.5 -47t-29.5 -17q-10 3 -33 17q-2 1 -5 3t-5 3q-2 35 -9.5 97.5t-7.5 68.5q0 1 -1.5 17t-2 21t-3.5 19t-6.5 22t-9.5 19t-14 19q-38 41 -103 40q-51 -1 -90 -15
q-56 -20 -76 -62q-10 -21 -4 -44q3 -14 13 -32q18 -33 18 -39q1 -14 -15 -66q-19 -59 -2 -95q11 -22 27 -33q17 -12 43 -14q12 -1 19 2q9 3 21 8q21 10 30 27q10 20 6 52q-1 9 -9 24.5t-10 24.5q-1 6 3 17.5t9 17.5q-8 0 -27 -17q-25 -21 -32 -39q-7 -17 -2 -30q2 4 7.5 2
t6.5 -9q1 -9 -8 -15q-11 -8 -23 -2q-5 2 -7 10q-5 20 5 51q1 3 5 14.5t5.5 17.5t4 16.5t3.5 20t0 19.5t-4 20.5t-6 16t-8.5 15.5t-6.5 11q-6 12 -8 18v4q9 20 42 31q30 11 72 12q16 0 32.5 -5.5t24.5 -14.5q15 -16 21 -83q2 -16 7 -62t8 -72q-20 2 -37 -5q-40 -18 -59 -47
q-21 -33 -20 -91q1 -54 20 -85q15 -24 39 -30q25 -6 54 8q40 20 56 75q9 32 11 79q13 -7 25 -11q36 -10 64 10q57 42 53 116q-2 17 -5.5 34t-10.5 39t-7 23q-2 9 -6.5 32.5t-6 33.5t-2 29.5t4 33.5t14.5 33.5t27 39.5zM305 43q6 0 13 -3v-4v-6q1 -59 -9 -85q-10 -31 -24 -38
q-12 -6 -16 0q-14 22 -13 57t13 55q12 18 32 24h4z" />
    <glyph glyph-name="uni0E0D" unicode="&#xe0d;" horiz-adv-x="560" 
d="M550 420q-28 -10 -47 -34t-26 -48q-13 -55 -7 -102q9 -71 10 -91q3 -45 -6 -60q-8 -13 -21 -19q-16 -6 -51 -6q-20 0 -29 5.5t-17 19.5q-11 19 -4 63q0 3 3.5 21.5t4 23.5t2 25t-1.5 26q-1 2 -3.5 25.5t-4.5 33t-10 27.5t-20 30q-38 41 -103 40q-51 -1 -90 -15
q-56 -20 -76 -62q-10 -21 -4 -44q3 -14 13 -32q18 -33 18 -39q1 -14 -15 -66q-19 -59 -2 -95q11 -22 27 -33q17 -12 43 -14q14 0 19 2q9 3 21 8q21 10 30 27q10 20 6 52q-1 9 -9 24.5t-10 24.5q-1 6 3 17.5t9 17.5q-8 0 -27 -17q-25 -21 -32 -39q-7 -17 -2 -30q2 4 7.5 2
t6.5 -9q1 -9 -8 -15q-11 -8 -23 -2q-5 2 -7 10q-5 20 5 51q1 3 5 14.5t5.5 17.5t4 16.5t3.5 20t0 19.5t-4 20.5t-6 16t-8.5 15.5t-6.5 11q-6 12 -8 18v4q9 20 42 31q30 11 72 12q16 0 32.5 -5.5t24.5 -14.5l4 -6t3.5 -7t3 -7t2.5 -9t2 -9.5t2 -11t1.5 -11t2 -12t1.5 -11.5
q3 -16 -7 -79q-11 -65 11 -102q14 -24 40 -39.5t58 -15.5q46 0 73 11q33 13 51 44q17 30 14 94q0 18 -10 95q-2 10 -5 32.5t-4.5 35.5t-0.5 22q2 25 7.5 41.5t22.5 44.5zM534 66q-26 -58 -116 -132q-52 22 -83 28q-24 5 -52.5 0t-48.5 -16q-28 -16 -34.5 -48t11 -61
t50.5 -36q54 -12 123 39q15 10 35 29q18 -8 38 -17q18 -7 49.5 -21l49.5 -22t41.5 -16.5t42.5 -12.5q47 -11 80 0q21 7 39 25q7 6 13 17q18 25 15 49q-4 22 -26 46q-6 6 -21.5 14.5t-22.5 13.5q-5 4 -8.5 15.5t-2.5 19.5q-7 -4 -12 -29q-8 -32 -2 -51q4 -17 16 -25
q-1 4 4.5 5.5t10.5 -3.5q8 -10 -1 -23t-21 -17q-17 -6 -47 1q-15 3 -36 11t-38 15.5t-49.5 21.5t-49.5 22q-10 4 -19 8q68 83 72 150zM300 -94q9 0 23 -3t38 -11q-7 -5 -13 -8q-17 -10 -41 -18.5t-33 -6.5q-15 4 -17 16.5t7 18.5q14 12 36 12z" />
    <glyph glyph-name="uni0E0E" unicode="&#xe0e;" 
d="M223 400h-4q-51 -1 -90 -15q-56 -20 -76 -62q-17 -36 -2 -78q8 -24 33 -64q15 -24 21.5 -35.5t11 -27t4.5 -31.5q0 -10 -10 -21t-23 -1q-9 7 -8 15q1 7 6.5 9t7.5 -2q5 13 -2 30q-7 18 -32 39q-19 17 -27 17q5 -6 9 -17.5t3 -17.5q-2 -9 -10 -24.5t-9 -24.5q-4 -32 6 -52
q9 -17 30 -27q23 -10 37 -10h1q34 0 57 27q15 18 22 46q3 10 3 20.5t-0.5 18.5t-4.5 19.5t-5.5 17.5t-8.5 18t-9 15t-10 16t-9 15q-21 34 -27 51q-7 20 -1 33q9 20 42 31q30 11 72 12q16 0 32.5 -5.5t24.5 -14.5q14 -16 22 -83q7 -56 -5.5 -165t-14.5 -147q-11 6 -24 12h-1
q-38 16 -75 20q-44 5 -80 -9q-21 -7 -40 -18t-40.5 -26t-28.5 -19q-43 -27 -81 -33q-56 -9 -65 18q-8 21 15 35q20 13 49 5q-24 22 -49.5 21t-44 -20.5t-16.5 -43.5q4 -38 49 -56q27 -10 60 -11q51 -1 114 38q6 3 23.5 14t25.5 16t22.5 12t26.5 12q11 4 26 5h4q39 2 79 -14
q7 -3 15 -7q20 -10 35 -24q2 -18 10 -30q10 -15 30 -21q10 -3 20 0q12 3 18 14t2 23q-3 11 -8 20.5t-12 18.5q1 17 1 23q0 42 14 158.5t6 184.5q-1 4 -2 18t-2 20t-4 19t-6.5 21.5t-9.5 19.5t-14 19q-37 40 -99 40z" />
    <glyph glyph-name="uni0E0F" unicode="&#xe0f;" 
d="M223 400h-4q-51 -1 -90 -15q-56 -20 -76 -62q-17 -36 -2 -78q8 -24 33 -64q43 -69 37 -94q-4 -14 -10 -21q-9 -10 -23 -1q-9 6 -8 15q1 7 6.5 9t7.5 -2q5 13 -2 30q-7 18 -32 39q-19 17 -27 17q5 -6 9 -17.5t3 -17.5q-2 -9 -10 -24.5t-9 -24.5q-4 -32 6 -52q9 -17 30 -27
q23 -10 37 -10h1q34 0 57 27q15 18 22 46q3 10 3 20.5t-0.5 18.5t-4.5 19.5t-5.5 17.5t-8.5 18t-9 15t-10 16t-9 15q-21 34 -27 51q-7 20 -1 33q9 20 42 31q30 11 72 12q16 0 32.5 -5.5t24.5 -14.5q14 -16 22 -83q7 -56 -5.5 -164.5t-13.5 -142.5h-1q-20 1 -46 -11
q-2 -1 -7 -4q-39 40 -88 40q-20 0 -40 -7q-20 -8 -39 -19t-40 -25.5t-29 -18.5q-40 -25 -81 -33q-48 -9 -58 18q-7 22 14 36q17 11 43 4q-14 21 -34.5 24.5t-37 -6.5t-28 -27.5t-10.5 -33.5q4 -38 49 -56q27 -10 60 -11q51 -1 114 37q7 4 23.5 14.5t25.5 16t23 12.5t27 12
q30 11 58 -14q-6 -8 -9 -19q-8 -22 8 -38q11 -11 31 -11q22 0 35 14t12 35q0 1 -0.5 2l-0.5 1q3 2 5 3q4 2 8.5 3t6 1.5l1.5 0.5h2q0 -8 1 -15q2 -20 10 -33q12 -18 35 -22q9 -1 17 2q11 4 16 15l0.5 0.5l0.5 0.5v2q1 1 1 3q1 0 1 1v1q9 28 -14 63q-3 4 -6 9v3
q0 42 14 158.5t6 184.5q-1 4 -2 18t-2 20t-4 19t-6.5 21.5t-9.5 19.5t-14 19q-37 40 -99 40z" />
    <glyph glyph-name="uni0E10" unicode="&#xe10;" horiz-adv-x="340" 
d="M320 430q1 -17 -4.5 -28.5t-18 -16.5t-26 -6.5t-32.5 1.5t-34.5 6t-36.5 7.5t-32 5.5q-1 1 -1.5 1h-1.5q-5 1 -10 1q-30 0 -64 -28q-15 -13 -25 -27q-14 -19 -14 -36q0 -29 22 -45q14 -11 40 -15q12 -2 40 -4t43 -4q45 -8 70 -33q25 -27 25 -69q0 -1 -2.5 -9t-7 -20.5
t-10.5 -21.5q-9 -16 -18 -25q-8 -6 -6 3q2 4 7.5 16.5t5.5 15.5q1 3 1 6v1q4 44 -29 66q-4 4 -8 6q-11 8 -39 9.5t-40 11.5q-8 7 -15 19t-6 22q-6 -4 -10 -22t-3 -33q1 -17 17 -45q12 -23 23 -31q-2 4 -1 9q2 9 26 11q10 1 18.5 -6t6.5 -17q-2 -4 -5 -9q-19 -28 -2 -61
q7 -16 22.5 -26t34.5 -10q23 0 45 22q14 14 27 37q28 48 28 81q0 67 -42 110q-39 41 -103 51q-20 3 -49 5t-35 3q-15 7 12 23q15 9 22 8q4 0 59 -11q41 -9 56 -9q59 1 83.5 31t-3.5 79zM266 7q-7 -3 -18 -26q-15 -29 -14 -48q0 -18 10 -29q0 5 6 4.5t9.5 -5.5t-1.5 -19
q-5 -13 -8 -12.5t-9 10.5q-12 19 -19 28q-13 15 -30 19q-3 1 -6 1q-20 2 -45 -12q-7 -3 -15 -8q-37 40 -85 40q-19 0 -38 -7q-20 -7 -38 -17t-40.5 -25l-28.5 -19q-53 -32 -84 -31q-55 -3 -64 25q-6 21 17 32q17 9 41 2q-15 17 -37 18.5t-36 -10.5q-30 -21 -27 -51
q4 -35 46 -51q26 -10 59 -11q49 -1 111 36q6 4 23 14.5t25.5 16t23 13t27.5 11.5q35 14 67 -18q-7 -9 -11 -19q-6 -19 6 -33q10 -11 28 -11q20 0 32 13q11 12 10 30q0 4 -1 9q6 4 11 7q10 3 14 -4q4 -4 12 -18q12 -20 19 -28q17 -20 38 -24q8 -1 15 2q20 7 37 30
q14 20 20 40v1q0 1 1 3v2v1q1 3 1 7q0 20 -14 46q-5 9 -18 20t-19 19q-3 4 -4 16.5t1 19.5z" />
    <glyph glyph-name="uni0E11" unicode="&#xe11;" horiz-adv-x="420" 
d="M7 415q-5 -5 -5 -27q0 -39 24 -65q11 -12 28 -13q-9 2 -7 11q3 10 15 2q17 -9 33 -5t32.5 11t20.5 5q15 -6 -4 -65q-12 -35 -48 -93q-43 -68 -22 -122q10 -25 31 -39.5t46 -14.5q32 0 54 22q7 8 22 33q7 11 14 29t10 27.5t11.5 39t9.5 34.5q29 98 54 139q10 14 14 9
t3.5 -18t-3.5 -39q-9 -75 -9 -96q-1 -37 3.5 -70t17 -63.5t37.5 -48.5t61 -18q-60 57 -59 200q0 17 9 89q3 29 4 44q1 25 -5 38q0 1 -1 2q-10 21 -24 32q-17 15 -37 14q-35 0 -61 -43q-30 -48 -61 -154q-29 -99 -40 -116q-1 -3 -5 -9.5t-6 -8.5t-5.5 -5t-7.5 -3
q-14 -1 -21 16q-10 26 16 68q26 41 37 62q3 5 5 11q10 22 17 43v0.5v0.5q21 66 3 117q-3 9 -11.5 15t-18.5 5h-3q-14 -4 -31 -15.5t-27 -14.5q-1 0 -8.5 -2.5t-12.5 -4t-15 -1.5t-18.5 2t-20 8.5t-22.5 17.5q-13 13 -13 27z" />
    <glyph glyph-name="uni0E12" unicode="&#xe12;" horiz-adv-x="580" 
d="M569 420q-33 -20 -54.5 -44t-30.5 -44t-11 -45.5t0 -40.5t6 -38q2 -11 11 -42.5t11 -47.5q1 -22 -4.5 -36t-24.5 -27q-4 -3 -14 -1q-9 3 -29 13q-1 73 -21 160q-13 59 -18 88q8 12 13 22q8 17 10 30q1 11 -3 20q-5 16 -21 21q-9 3 -18 3q-10 0 -18 -5q-15 -7 -22 -26
q-6 -18 -4 -46l-5 -5q-14 -12 -24 -10q-15 4 -30 42q-6 16 -20.5 27.5t-30.5 12.5q-24 2 -52 -15q-44 -27 -70 -69v-1q-1 0 -1 -1q-35 -53 -47.5 -117.5t4.5 -131.5q18 -57 69 -66q53 -9 93 41q25 31 30 68q6 34 -7 63q-2 5 -8 16.5t-8 17.5q-14 32 9 65l4 6l1 1l2 2
q-2 0 -6 -1q-15 -5 -33 -21t-28 -30q-10 -16 -17 -34q-1 -5 -2 -11q-3 -11 -3 -21v-5v-4q2 4 6 7q2 1 6 1h1q4 -1 7 -2q14 -9 16 -36v-1q-2 -27 -16 -43q-20 -22 -37 -19q-15 2 -21 24q-13 51 -2 104.5t38 94.5q0 1 1 2q6 10 21.5 25.5t28.5 23.5l5 3t6.5 3t4.5 -1
q26 -66 70 -78q27 -7 56 7q3 -16 12 -55q14 -59 18 -116q-1 0 -2 0.5t-2 0.5q-37 13 -66 -1q-40 -18 -59 -46q-21 -34 -20 -92q1 -49 28 -82q15 -18 37 -25.5t46 0.5q80 32 96 150q8 -3 16 -5q38 -11 66 9q57 42 53 116q-2 17 -5.5 33.5t-10.5 39t-7 23.5q-2 9 -6.5 32.5
t-6 33t-2 29.5t4 34t14.5 33.5t27 39.5zM330 44q5 0 16 -3q5 -1 22 -10v-4v-7q-5 -47 -18.5 -75t-41.5 -37q-7 -2 -14 7q-13 14 -15 45q-2 37 11 59q11 17 32 24q4 1 8 1z" />
    <glyph glyph-name="uni0E13" unicode="&#xe13;" horiz-adv-x="560" 
d="M555 420q-56 -15 -72 -44.5t-13 -105.5v-2q1 -12 8 -61q4 -23 1 -43q-5 -43 -48 -75q-17 -13 -38 -21t-33 -8q-10 0 -12.5 1.5t-5.5 6.5q-7 11 -5 39q0 17 4 39.5t10 49t9 39.5q6 33 -4 66.5t-33 58.5q-38 41 -103 40q-51 -1 -90 -15q-56 -20 -76 -62q-10 -21 -4 -44
q3 -14 13 -32q18 -33 18 -39q1 -14 -15 -66q-19 -59 -2 -95q11 -22 27 -33q17 -12 43 -14q12 -1 19 2q9 3 21 8q21 10 30 27q10 20 6 52q-1 9 -9 24.5t-10 24.5q-1 6 3 17.5t9 17.5q-8 0 -27 -17q-25 -21 -32 -39q-7 -17 -2 -30q2 4 7.5 2t6.5 -9q1 -9 -8 -15l-9 -5
q-10 0 -14 3q-3 2 -7 10q-7 14 5 51q1 3 5 14.5t5.5 17.5t4 16.5t3.5 20t0 19.5t-4 20.5t-6 16t-8.5 15.5t-6.5 11q-6 12 -8 18v4q9 20 42 31q30 11 72 12q16 0 32.5 -5.5t24.5 -14.5q12 -13 18.5 -35t2.5 -40q-1 -9 -7 -35.5t-10.5 -52t-5.5 -47.5q-3 -45 12 -72
q10 -17 29.5 -27.5t41.5 -10.5q53 0 107 41q63 48 72 115q3 28 -1 60q-7 46 -8 56q0 3 -1 6q-10 51 -5.5 88t31.5 54zM557 105q-25 -8 -51.5 -33t-44.5 -54q-13 -6 -30 -13q-29 -13 -99 -48t-105 -49q-124 -54 -238 -70q-60 -8 -95 0q-15 1 -27 15t-2 24q6 5 11 3.5t4 -5.5
q12 8 17 25q5 19 -2 51q-6 25 -13 29q1 -8 -2.5 -19.5t-8.5 -15.5q-7 -5 -22.5 -13.5t-21.5 -14.5q-22 -24 -25 -46q-4 -32 22.5 -58.5t57.5 -33.5q45 -10 116 0q121 17 253 73q36 16 103 49t84 41q0 -17 3 -32q10 -42 45 -57q1 -1 2 -1h1q27 -11 61 3q29 11 51 36
q24 28 27 60q3 39 -28 70q-18 18 -48 19q-13 0 -31 -3q-4 -1 -7 -2q17 34 43 70zM549 -19q5 0 9 -2q14 -9 10 -23q-4 -20 -22 -36.5t-36 -11.5q-23 6 -19 57q25 9 42 13l6.5 1.5t9.5 1.5z" />
    <glyph glyph-name="uni0E14" unicode="&#xe14;" horiz-adv-x="440" 
d="M279 402q-13 0 -26 -2q-55 -9 -102.5 -43t-76.5 -82q-28 -46 -34 -102t12 -108q19 -56 68 -65q53 -9 93 41q25 31 30 68q4 19 -1 45q-2 11 -14 35t-14 40q0 10 7 27t15 24q-7 1 -22 -8.5t-26 -21.5q-23 -23 -36 -56q-8 -23 -5 -41q2 4 6 7q1 2 9 0.5t13 -9.5q7 -9 8 -29
q-2 -27 -16 -43q-20 -23 -37 -19q-15 2 -22 25q-12 38 -7 82t25 78q21 35 59 62t78 33q19 3 41.5 -3t33.5 -18q18 -21 21 -84q1 -3 1 -9.5v-10.5q5 -65 -10.5 -139t-50.5 -116q33 9 58 40t38 72t19 78t6 68v3l-0.5 15t-0.5 18t-1 17t-2.5 19.5t-4.5 17.5t-6.5 19t-9.5 16.5
t-13 16.5v1h-1v1q-37 37 -94 40h-8z" />
    <glyph glyph-name="uni0E15" unicode="&#xe15;" horiz-adv-x="440" 
d="M371 411q-10 0 -19 -5q-15 -8 -20 -27q-4 -10 -4 -22q0 -9 1 -22q-4 -4 -7 -6q-14 -12 -24 -10q-15 4 -30 42q-6 16 -20.5 27.5t-30.5 12.5q-24 2 -52 -15q-44 -27 -70 -69v-1q-1 0 -1 -1q-35 -53 -47.5 -117.5t4.5 -131.5q18 -57 69 -66q53 -9 93 41q25 31 30 68
q4 19 -1 45q-2 11 -14 35t-14 40q0 10 7 27t15 24q-7 1 -22 -8.5t-26 -21.5q-23 -23 -36 -56q-8 -23 -5 -41q2 4 6 7q1 2 9 0.5t13 -9.5q7 -9 8 -29q-2 -27 -16 -43q-20 -22 -37 -19q-15 2 -21 24q-13 51 -2 104.5t38 94.5q0 1 1 2q6 10 21.5 25.5t28.5 23.5l5 3t6.5 3
t4.5 -1q26 -66 70 -78q28 -7 58 8q8 -41 9 -53q24 -184 -30 -256q29 17 49.5 45t29 56t12 61t3 55.5t-3.5 43.5q-1 9 -4 25q-2 10 -6.5 35t-6.5 37q7 11 11 19q8 17 10 30q1 11 -3 20q-2 7 -9 14q-5 5 -12 7q-6 2 -13 3h-2.5h-2.5z" />
    <glyph glyph-name="uni0E16" unicode="&#xe16;" 
d="M222 400h-4q-51 -1 -90 -15q-56 -20 -76 -62q-10 -21 -4 -44q3 -14 13 -32q18 -33 18 -39q1 -14 -15 -66q-19 -59 -2 -95q11 -22 27 -33q17 -12 43 -14q12 -1 19 2q9 3 21 8q21 10 30 27q10 20 6 52q-1 9 -9 24.5t-10 24.5q-1 6 3 17.5t9 17.5q-8 0 -27 -17
q-25 -21 -32 -39q-7 -17 -2 -30q2 4 7.5 2t6.5 -9q0 -14 -17 -20q-6 -2 -14 3q-5 4 -7 10q-5 20 5 51q1 3 5 14.5t5.5 17.5t4 16.5t3.5 20t0 19.5t-4 20.5t-6 16t-8.5 15.5t-6.5 11q-6 12 -8 18v4q9 20 42 31q30 11 72 12q16 0 32.5 -5.5t24.5 -14.5q16 -17 22 -80
q0 -4 1 -7q5 -67 -14 -152t-48 -125q31 10 54.5 38t36 60.5t19.5 72.5t9 66t2 47q0 57 -18 92l-2 4q-2 4 -5 7q-6 10 -13 17q-1 1 -1 2q-37 38 -98 38z" />
    <glyph glyph-name="uni0E17" unicode="&#xe17;" horiz-adv-x="420" 
d="M26 458q-10 -9 -4 -56q6 -48 28 -82q13 -19 30 -28q-2 4 -2 9q0 3 5.5 8t14.5 5q26 -4 38.5 -24.5t3.5 -46.5q-3 -10 -20 -32.5t-24 -34.5q-43 -68 -22 -122q10 -25 31 -39.5t46 -14.5q32 0 54 22q7 8 22 33q7 11 14 29t10 27.5t11.5 39t9.5 34.5q29 98 54 139
q10 14 14 9t3.5 -18t-3.5 -39q-9 -75 -9 -96q-1 -37 3.5 -70t17 -63.5t37.5 -48.5t61 -18q-60 57 -59 200q0 17 9 89q3 29 4 44q1 25 -5 38q0 1 -1 2q-10 21 -24 32q-17 15 -37 14q-35 0 -61 -43q-30 -48 -61 -154q-29 -99 -40 -116q-1 -3 -5 -9.5t-6 -8.5t-5.5 -5t-7.5 -3
q-14 -1 -21 16q-10 26 16 68q5 7 16 20.5t20 28t15 30.5q11 42 8 82q-4 40 -20.5 59t-54.5 31q-11 3 -39 1.5t-35 4.5q-8 5 -18.5 25.5t-11.5 31.5z" />
    <glyph glyph-name="uni0E18" unicode="&#xe18;" horiz-adv-x="360" 
d="M356 460q-14 -34 -32 -45q-8 -5 -21 -3.5t-45 -4.5q-3 -1 -11.5 -4t-22 -8t-21.5 -8q-18 -5 -33 -10q-38 -13 -62 -31q-32 -25 -40 -60q-9 -50 30 -88q10 -10 22 -19t31.5 -22.5t29.5 -20.5q52 -38 74 -68q31 -44 16 -88q-4 -11 -17.5 -24t-32.5 -24q-42 -22 -82 -22
q-18 0 -27 9q-11 11 -13 34q-5 25 6.5 58t24.5 57.5t12.5 53t-24.5 48.5q3 -16 -9.5 -45.5t-29.5 -57.5t-30 -62t-10 -58q5 -45 31 -70q26 -26 67 -27h1h1q55 0 110 29q62 33 78 81q26 74 -23 143q-28 38 -87 81q-12 9 -31.5 22.5t-29.5 21t-16 13.5q-11 10 -13 15t0 18
q3 13 18 25q15 11 43 21q10 3 19 6q12 4 33 9q9 2 24 5q23 5 30 2t8.5 -9.5t-7.5 -19.5q9 4 22 18q28 32 35 57q6 16 7 42.5t-3 29.5z" />
    <glyph glyph-name="uni0E19" unicode="&#xe19;" 
d="M32 460q-11 -9 -4 -56q6 -48 28 -82q12 -19 30 -28q-2 4 -2 9q0 3 5.5 8t14.5 5t16.5 -6t9.5 -20q-1 -9 -0.5 -12.5t-2.5 -14t-4.5 -15l-5 -15t-5.5 -14.5q0 -2 -4 -9.5t-5 -10l-4 -10t-4.5 -11t-4 -10.5t-3.5 -11t-2.5 -11t-2.5 -12t-1.5 -11.5t-0.5 -12.5q0 -35 21 -66
q29 -44 79 -44q53 0 107 41q63 48 72 115q3 12 1 32t-3.5 30.5t-6 30.5t-5.5 30q-10 51 -4 87.5t34 53.5q-55 -15 -71.5 -44.5t-13.5 -103.5q1 -11 6 -50t3 -58q-5 -43 -48 -75q-18 -13 -38.5 -21t-32.5 -8q-18 0 -29 17q-11 16 -11 33q0 22 31 94q21 46 23 76q3 14 4 27
q1 35 -7 56.5t-35 33.5q-10 3 -46.5 0.5t-47.5 5.5q-8 5 -18.5 25.5t-11.5 31.5zM377 105q-25 -8 -51.5 -33t-44.5 -54q-14 -6 -30 -13q-29 -13 -99 -48t-105 -49q-124 -54 -238 -70q-60 -8 -95 0q-15 1 -27 15t-2 24q6 5 11 3.5t4 -5.5q12 8 17 25q5 19 -2 51q-6 25 -13 29
q1 -8 -2.5 -19.5t-8.5 -15.5q-7 -5 -22.5 -13.5t-21.5 -14.5q-22 -24 -25 -46q-2 -12 3 -27v-2q7 -25 28 -41t49 -22q45 -10 116 0q121 17 253 73q36 16 103 49t84 41q0 -17 3 -32q9 -41 44 -57q1 0 3 -1h1l1 -1q27 -9 60 4q29 11 51 36q24 28 27 60q3 39 -28 70
q-18 18 -48 19q-13 0 -31 -3q-4 -1 -7 -2q17 34 43 70zM372.5 -20h1.5q2 0 4 -1q10 -8 10 -23q0 -13 -12 -26q-29 -29 -46 -22q-23 9 -19 57q25 9 42 13q9 2 16 2h2h1.5z" />
    <glyph glyph-name="uni0E1A" unicode="&#xe1a;" 
d="M25 460q-10 -9 -4 -56t28 -81q13 -20 30 -29q-2 4 -2 9q0 4 5.5 8.5t14.5 4.5q21 0 26 -24q1 -26 -25 -91q-9 -21 -13 -33t-9 -32.5t-3 -39.5t9 -37l2 -4q24 -40 68 -50q18 -5 70 -5q13 0 27 1.5t31.5 4.5t22.5 4q1 -1 2 -3q14 -12 31 -8q12 4 18 13q1 1 1 2l1 1
q11 17 4 33q-4 9 -11 15q-1 6 -1 12q-4 53 -2 122q1 22 1.5 63t1 66t5.5 52.5t16 41.5q-25 -7 -42 -29t-25 -56.5t-11.5 -64t-5.5 -70.5q-3 -74 2 -130v-0.5v-1.5q-57 -8 -65 -8v0q-46 0 -57 3q-18 4 -29 21q-10 29 17 95q20 51 25 70q11 36 12 59q1 34 -6.5 56t-35.5 33
q-10 4 -46 1t-48 5q-8 5 -18.5 25.5t-11.5 31.5z" />
    <glyph glyph-name="uni0E1B" unicode="&#xe1b;" 
d="M370 560q-16 -9 -28 -24.5t-20 -38.5t-13 -42.5t-8.5 -52.5t-5 -52t-3.5 -56q0 -16 -1 -24q-3 -49 0 -177q0 -13 1 -25q-62 -8 -69 -8v0q-46 0 -57 3q-18 4 -29 20q-10 29 17 95q20 52 25 71q11 36 12 58q1 34 -6.5 56t-35.5 33q-10 4 -46 1t-48 6q-8 5 -18.5 25.5
t-11.5 31.5q-10 -9 -4 -56q6 -48 28 -82q13 -19 30 -28q-2 4 -2 9q0 3 5.5 8t14.5 5q21 0 26 -24q1 -26 -25 -91q-9 -21 -13 -33.5t-9 -32.5t-3 -39t9 -37l2 -4q24 -41 68 -51q18 -4 70 -4q13 0 27 1.5t31.5 4.5t22.5 3q0 1 1 1q6 -9 19 -11t23 5q4 2 6 5q1 1 2 3q1 0 1 1
q12 18 5 35q-3 7 -8 11q-1 16 -1 36q0 13 -2 49t-2.5 59t0.5 64q0 13 1.5 58t2.5 69.5t3 61t6 62t10 42.5z" />
    <glyph glyph-name="uni0E1C" unicode="&#xe1c;" horiz-adv-x="500" 
d="M235 460q-1 -11 -11.5 -31.5t-18.5 -25.5q-15 -9 -41.5 -16.5t-32.5 -10.5q-14 -5 -26 -17q-41 -32 -54 -121q-14 -91 11 -158q11 -30 38 -53q30 -27 60 -27q44 0 81 39q14 16 27 37q10 -20 21 -35q32 -41 71 -41q36 0 65 30q22 24 35 63q27 78 9 153q-11 70 -9 88
q2 25 7.5 41.5t22.5 44.5q-28 -10 -47 -34t-26 -48q-13 -55 -7 -102l1 -2v-1v0q13 -59 -8 -120q-9 -27 -22 -42q-11 -11 -21 -11t-23 18q-17 21 -29 57q-4 10 -8 24q4 16 6 28q2 18 0 30q-2 11 -8 19q-10 14 -27.5 14t-28.5 -14q-6 -8 -8 -18q-2 -12 0 -31q1 -11 4 -27
q-3 -13 -8 -24q-14 -35 -33 -56q-19 -20 -37 -20q-7 0 -21 12q-15 14 -21 28q-16 45 -10 111q3 30 22 79q11 26 33 26q9 0 14.5 -5t5.5 -8q0 -5 -2 -9q17 9 30 28q22 34 28 82q6 47 -4 56z" />
    <glyph glyph-name="uni0E1D" unicode="&#xe1d;" horiz-adv-x="500" 
d="M499 560q-28 -16 -48.5 -43t-29.5 -56.5t-13 -62t-3 -58t4 -45.5l1 -1q16 -103 -8 -174q-17 -53 -45 -60q-9 2 -21 18q-17 21 -29 57q-4 10 -8 24q4 16 6 28q2 18 0 30q-2 11 -8 19q-10 14 -27.5 14t-28.5 -14q-6 -8 -8 -18q-2 -12 0 -31q1 -11 4 -27q-3 -13 -8 -24
q-14 -35 -33 -56q-19 -20 -37 -20q-7 0 -21 12q-15 14 -21 28q-16 45 -10 111q3 30 22 79q11 26 33 26q9 0 14.5 -5t5.5 -8q0 -5 -2 -9q17 9 30 28q22 34 28 82q6 47 -4 56q-1 -11 -11.5 -31.5t-18.5 -25.5q-15 -9 -41.5 -16.5t-32.5 -10.5q-14 -5 -26 -17q-41 -32 -54 -121
q-14 -91 11 -158q11 -30 38 -53q30 -27 60 -27q44 0 81 39q14 16 27 37q10 -20 21 -35q32 -41 71 -41h4q34 5 58 32t38 69q28 85 10 202v2q-18 158 30 255z" />
    <glyph glyph-name="uni0E1E" unicode="&#xe1e;" horiz-adv-x="520" 
d="M5 460q-10 -9 -4 -56q6 -48 28 -82q13 -19 30 -28q-2 4 -2 9q0 3 5.5 8t14.5 5q21 0 26 -24q1 -26 -25 -91q-9 -21 -13 -33.5t-9 -32.5t-3 -39t9 -37q1 -3 3 -5q17 -28 36 -40q22 -14 59 -14q30 0 52 17q18 14 29 40q13 29 20 95q8 62 14 79q4 12 8 17q2 2 6 2q3 0 5 -2
q4 -4 7 -15q6 -19 9 -80q4 -65 14 -94q9 -26 26 -41q21 -18 50 -18q38 0 63 32q19 25 28 65q16 71 -1 149q-12 70 -10 88q2 25 7.5 41.5t22.5 44.5q-28 -10 -47 -34t-26 -48q-13 -54 -7 -101v-1l0.5 -1l0.5 -1v-1v0q15 -64 1 -123q-6 -27 -16 -41q-7 -9 -16 -9q-7 0 -10 3
q-5 5 -9 16q-7 21 -11 78q-4 67 -11 92q-8 26 -22 41q-19 20 -48 20q-28 0 -48 -19q-15 -15 -23 -41q-8 -23 -16 -91q-7 -57 -16 -78q-5 -12 -11 -17q-6 -4 -15 -4q-20 0 -28 5q-5 4 -15 18q-11 29 17 95q20 52 25 71q11 36 12 58q1 34 -6.5 56t-35.5 33q-10 4 -46 1t-48 6
q-8 5 -18.5 25.5t-11.5 31.5z" />
    <glyph glyph-name="uni0E1F" unicode="&#xe1f;" horiz-adv-x="520" 
d="M520 560q-32 -18 -53.5 -51.5t-29 -70t-10 -75.5t2.5 -67q15 -114 2 -182q-6 -30 -16 -45q-7 -9 -16 -9q-4 0 -6 2q-5 5 -9 16q-6 21 -11 79q-5 67 -13 93q-9 26 -23 40q-20 20 -48 20t-48 -19q-14 -15 -23 -41q-8 -23 -16 -91q-7 -56 -17 -78q-6 -13 -10.5 -17t-15.5 -4
q-20 0 -28 5q-5 4 -15 18q-11 29 17 95q20 52 25 71q11 36 12 58q1 34 -6.5 56t-35.5 33q-10 4 -46 1t-48 6q-8 5 -18.5 25.5t-11.5 31.5q-10 -9 -4 -56q6 -48 28 -82q13 -19 30 -28q-2 4 -2 9q0 3 5.5 8t14.5 5q21 0 26 -24q1 -26 -25 -91q-9 -21 -13 -33.5t-9 -32.5
t-3 -39t9 -37q1 -3 3 -5q17 -28 36 -40q22 -14 59 -14q27 0 49 16.5t32 40.5q13 29 21 94q8 63 14 80q4 13 8 17q2 2 5.5 2t5.5 -2q5 -4 8 -16q7 -20 11 -79q6 -66 14 -93q9 -26 24 -41q19 -19 48 -19q39 0 64 33q19 26 27 70q15 77 -1 199v2q-14 159 30 256z" />
    <glyph glyph-name="uni0E20" unicode="&#xe20;" horiz-adv-x="700" 
d="M543 400h-4q-51 -1 -90 -15q-56 -20 -76 -62q-17 -37 0 -75q7 -15 36 -53q9 -12 14 -19t10.5 -18t7.5 -20.5t2.5 -22t-3.5 -27.5q-18 -54 -50.5 -97t-70.5 -67.5t-76 -37.5t-74 -15q-32 -1 -55.5 7.5t-31.5 19.5q-7 11 -4 28q5 18 23 40t33 23q11 1 18 -2.5t8 -8.5t-1 -9
q12 9 24 31q15 31 16 55q0 16 -3.5 33.5t-8.5 21.5q1 -10 -6 -22t-16 -19q-11 -9 -44.5 -16.5t-46.5 -17.5q-31 -24 -49 -70q-9 -24 -7.5 -52t14.5 -48q39 -57 139 -54q46 2 92.5 18t92 46.5t83 81t58.5 113.5q1 2 1 3q20 78 -41 158q-25 33 -29 42q-6 13 -1 24q9 20 42 31
q30 11 72 12q16 0 32.5 -5.5t24.5 -14.5q22 -24 22 -80q0 -11 -2 -29q-8 -105 -8 -121v-1v-1q1 -95 120 -108q-21 15 -31.5 25.5t-19.5 31.5t-9 52v1q0 13 1.5 32.5t3.5 44.5t3 38q2 22 2 35q0 80 -38 120q-37 40 -99 40z" />
    <glyph glyph-name="uni0E21" unicode="&#xe21;" 
d="M25 460q-10 -9 -4 -56q6 -48 28 -82q13 -19 30 -28q-2 4 -2 9q0 3 5.5 8t14.5 5q23 0 33 -26q5 -14 12 -62v0q7 -63 3 -130q-8 3 -12 4q-44 10 -76 -5q-40 -19 -57 -46q-22 -34 -21 -92q1 -53 33 -88q18 -19 45 -25t55 7q39 20 63 81q13 33 21 79q25 -11 41 -15
q43 -12 71 8q57 42 53 116q-2 17 -5.5 33.5t-10.5 39t-7 23.5q-2 9 -6.5 32.5t-6 33t-2 29.5t4 34t14.5 33.5t27 39.5q-24 -15 -41.5 -31t-28.5 -29t-17 -32t-8.5 -29.5t-1 -32t2.5 -28.5t4 -30q3 -16 11.5 -46.5t10.5 -43.5q-2 -31 -14 -49.5t-34 -12.5q-14 3 -49 19
q8 100 -6 187q-3 27 -7 45q-17 71 -62 89q-10 4 -36 1t-38 6q-8 5 -18.5 25.5t-11.5 31.5zM101 46q6 0 18 -3q7 -1 20 -6q-8 -56 -20 -81q-1 -2 -5 -11t-5.5 -12.5t-5.5 -10t-8 -10t-9 -5.5q-16 -7 -30 4q-14 12 -17 49q-3 36 11 58q9 14 33 25q6 3 15 3h3z" />
    <glyph glyph-name="uni0E22" unicode="&#xe22;" 
d="M214 460q-1 -11 -11.5 -31.5t-18.5 -25.5q-15 -9 -41.5 -16.5t-32.5 -10.5q-53 -21 -70 -81v-1q-2 -8 -3 -16q-6 -40 15 -90q16 -36 73 -71q23 -14 96 -50q27 -13 45 -23q-5 -42 1 -64q4 -14 14 -21q15 -13 34 -6q9 3 15.5 8.5t8 7.5t9.5 13l2 2q15 24 8 49q-5 20 -26 38
q0 1 -0.5 1t-1.5 1q5 32 16 91.5t13 71.5q1 18 2.5 42t-5.5 50t-18 47.5t-34.5 35.5t-54.5 15q25 -9 38.5 -32t16 -52.5t1 -52t-5.5 -45.5q-21 -116 -24 -137l-28 14q-71 35 -91 47q-40 25 -48 44q-15 34 -12 58q3 21 21 38q12 8 25 8q9 0 14.5 -5t5.5 -8q0 -5 -2 -9
q17 9 30 28q22 34 28 82q6 47 -4 56z" />
    <glyph glyph-name="uni0E23" unicode="&#xe23;" horiz-adv-x="360" 
d="M357 460q-14 -34 -32 -45q-8 -5 -21 -3.5t-45 -4.5q-3 -1 -11.5 -4t-22 -8t-21.5 -8q-18 -5 -33 -10q-38 -13 -62 -31q-32 -25 -39 -60q-10 -50 29 -88q10 -10 22 -19t31.5 -22.5t29.5 -20.5q52 -38 74 -68q31 -44 16 -88q-10 -28 -38 -48.5t-55 -21.5q-37 -2 -75 18
q26 10 41 36l1 1q19 33 -2 77q-16 31 -40 42q-2 1 -3 1q-8 4 -18 5h-2q-40 3 -70 -39q-21 -30 -22 -59q-30 8 -58 1q-24 -7 -37 -21.5t-35 -52.5q19 15 35.5 22t25 8t29.5 2q20 1 54 -11q19 -35 63 -60q56 -32 115 -30q49 2 90 32.5t57 77.5q26 74 -23 143q-28 38 -87 81
q-12 9 -31.5 22.5t-29.5 21t-16 13.5q-11 10 -13 15t0 18q3 13 18 25q15 11 43 21q10 3 19 6q12 4 33 9q9 2 24 5q23 5 30 2t8.5 -9.5t-7.5 -19.5q9 4 22 18q28 32 35 57q6 16 7 42.5t-3 29.5zM76 30h1q9 0 13.5 -12t3.5 -23t-15 -18q-9 -5 -25 -4q-3 6 -4 13
q-4 17 4.5 30.5t21.5 13.5z" />
    <glyph glyph-name="uni0E24" unicode="&#xe24;" 
d="M223 400h-4q-51 -1 -90 -15q-56 -20 -76 -62q-10 -21 -4 -44q3 -14 13 -32q18 -33 18 -39q1 -14 -15 -66q-19 -59 -2 -95q11 -22 27 -33q17 -12 43 -14h5q8 0 14 2q9 3 21 8q21 10 30 27q10 20 6 52q-1 9 -9 24.5t-10 24.5q-1 6 3 17.5t9 17.5q-8 0 -27 -17
q-25 -21 -32 -39q-7 -17 -2 -30q2 4 7.5 2t6.5 -9t-8 -15q-4 -4 -9 -5q-8 -1 -14 3q-3 2 -7 10q-7 14 5 51q1 3 5 14.5t5.5 17.5t4 16.5t3.5 20t0 19.5t-4 20.5t-6 16t-8.5 15.5t-6.5 11q-6 12 -8 18v4q9 20 42 31q30 11 72 12q16 0 32.5 -5.5t24.5 -14.5q22 -24 22 -80
q0 -8 -0.5 -126.5t-0.5 -183.5q0 -53 -13.5 -82t-46.5 -48q63 0 91.5 36t28.5 94q0 64 0.5 183t0.5 127q0 80 -38 120q-37 40 -99 40z" />
    <glyph glyph-name="uni0E25" unicode="&#xe25;" horiz-adv-x="520" 
d="M326 402q-14 0 -28 -2h-2l-22 -4q-4 -1 -9 -3q-62 -17 -114 -60t-78 -100q-42 -90 -42 -185q-1 -119 71 -172q19 -11 38 -14.5t33.5 -2t32 11.5t28 17.5t26.5 24.5t21.5 24t19.5 24q-51 -44 -92.5 -57t-67.5 3t-40 52t-14 88q0 74 40 161q27 58 92 99q1 1 3 2
q35 21 70 29l3 1q5 1 10 1q30 5 64 -6t46 -30q13 -21 18.5 -66.5t0.5 -89.5t-18 -72q-10 -28 -14 45q-5 48 -15 72q-18 46 -60 56q-47 12 -97 -22q-46 -33 -59 -79q-12 -41 8 -89q9 -24 25 -39q21 -20 47 -20h3q15 -1 40 11q21 10 30 27q10 19 6 51q-1 9 -9 25t-10 24
q-1 6 3 17.5t9 17.5q-8 0 -27 -16q-25 -22 -32 -40q-7 -17 -2 -30q2 4 7.5 2t6.5 -9q1 -9 -8 -15q-13 -9 -23 -1q-12 9 -16.5 33t0.5 35q7 25 36 45q27 19 48 14q12 -3 19 -20q6 -17 11 -57q5 -49 11 -66q6 -20 18 -32q16 -16 39 -16q22 0 39 19q12 12 21 33q16 36 23 89
q15 127 -29 195q-21 33 -57 49.5t-78 16.5h-4z" />
    <glyph glyph-name="uni0E26" unicode="&#xe26;" 
d="M223 400h-4q-51 -1 -90 -15q-56 -20 -76 -62q-17 -36 -2 -78q8 -24 33 -64q43 -69 37 -94q-4 -14 -10 -21q-9 -10 -23 -1q-9 6 -8 15q1 7 6.5 9t7.5 -2q5 13 -2 30q-7 18 -32 39q-19 17 -27 17q5 -6 9 -17.5t3 -17.5q-2 -9 -10 -24.5t-9 -24.5q-4 -32 6 -52q9 -17 30 -27
q23 -10 37 -10h1q34 0 57 27q15 18 22 46q3 10 3 20.5t-0.5 18.5t-4.5 19.5t-5.5 17.5t-8.5 18t-9 15t-10 16t-9 15q-21 34 -27 51q-7 20 -1 33q9 20 42 31q30 11 72 12q16 0 32.5 -5.5t24.5 -14.5q22 -24 22 -80q0 -8 -0.5 -126.5t-0.5 -183.5q0 -53 -13.5 -82t-46.5 -48
q63 0 91 35.5t29 92.5v2q0 23 0.5 158t0.5 152q0 80 -38 120q-37 40 -99 40z" />
    <glyph glyph-name="uni0E27" unicode="&#xe27;" horiz-adv-x="440" 
d="M273 400q-63 0 -121 -54q-52 -47 -81 -114q-40 -92 -40 -185q-1 -119 70 -171q22 -16 47 -17.5t44.5 7t42 27.5t36 33.5t29.5 34.5q-59 -46 -106 -55.5t-76.5 25.5t-30.5 116q0 70 40 161q23 55 65 94q45 41 86 38q38 -3 54 -17q22 -19 28 -76q4 -56 -14 -123
q-11 -39 -22 -52q-9 -12 -18 -11t-14 14q-5 10 2 17q5 5 10 3.5t5 -5.5q11 9 15 26q4 19 -5 50q-6 25 -13 29q1 -8 -2 -19.5t-8 -15.5q-6 -6 -21 -15t-21 -16q-19 -21 -23 -41q-1 -3 -1 -7q-1 -32 23 -56.5t59 -24.5q37 0 62 39q18 26 30 69q21 78 16 144v1q-8 80 -49 116
q-31 26 -87 31h-1h-1h-9z" />
    <glyph glyph-name="uni0E28" unicode="&#xe28;" horiz-adv-x="440" 
d="M559 500q-141 -35 -189 -148q-4 5 -9 10q-41 39 -92 39q-7 0 -15 -1q-55 -7 -103 -41.5t-77 -83.5q-27 -46 -33.5 -101.5t10.5 -107.5l1 -1v0q18 -56 68 -65q53 -9 93 41q4 5 7 10.5t5 11.5t2.5 9.5l1.5 10.5t2 9q5 33 28 33q19 0 21 -12q1 -5 -1 -9q11 8 23 31
q15 27 17 45q1 20 -3 45.5t-10 29.5q1 -10 -6 -22t-15 -19q-13 -10 -41.5 -22.5t-37.5 -18.5q-32 -20 -35 -65q-1 -24 -10 -38t-31 -10q-14 2 -22 25q-12 37 -7 81.5t25 78.5q21 36 59.5 63t76.5 32q13 2 29.5 -4.5t27.5 -17.5q17 -16 28 -52q-3 -17 -4 -36q-6 -73 3 -147
q3 -28 8 -47q2 -9 5 -15q3 -7 7 -11q7 -8 17 -10h1h1q15 -2 25 9q1 1 2 1q6 7 10 22q2 8 3 20q2 22 2 53q1 73 -9 121l-10 50q4 38 11 64.5t23 55.5t44.5 54t72.5 50z" />
    <glyph glyph-name="uni0E29" unicode="&#xe29;" 
d="M24 460q-10 -9 -4 -56t28 -81q13 -20 30 -29q-2 4 -2 9q0 4 5.5 8.5t14.5 4.5q21 0 26 -24q1 -26 -25 -91q-9 -21 -13 -33t-9 -32.5t-3 -39.5t9 -37l2 -4q24 -40 68 -50q18 -5 70 -5q13 0 27 1.5t31.5 4.5t22.5 4q1 -1 2 -3q14 -12 31 -8q12 4 18 13q1 1 1 2l1 1
q11 17 4 33q-4 9 -11 15q-1 6 -1 12q-4 53 -2 122q1 9 1 20q13 17 23 26q11 10 28.5 15.5t31.5 1.5q-18 21 -42 21t-41 -14q0 40 1 62.5t6.5 49.5t15.5 41q-24 -7 -41 -28t-25.5 -54.5t-12 -62.5t-4.5 -69q-11 -6 -21 -6q-18 0 -28 10q-3 7 0 11.5t7.5 5t4.5 -3.5q8 9 7 23
q0 15 -13 39q-9 17 -15 19q2 -5 1.5 -15t-2.5 -14q-4 -6 -14.5 -15.5t-13.5 -16.5q-12 -24 -10 -40q2 -10 10 -20h1v-1q2 -2 5 -4q18 -15 36 -17q9 -1 18 -1q13 0 25 4q0 -53 3 -94v-0.5v-1.5q-57 -8 -65 -8v0q-46 0 -57 3q-18 4 -29 21q-10 29 17 95q20 51 25 70
q11 36 12 59q1 34 -6.5 56t-35.5 33q-10 4 -46 1t-48 5q-8 5 -18.5 25.5t-11.5 31.5z" />
    <glyph glyph-name="uni0E2A" unicode="&#xe2a;" horiz-adv-x="400" 
d="M499 500q-120 -80 -203 -121q-13 8 -30 13q-31 9 -64 9h-4q-11 0 -21 -1h-2q-17 -2 -36 -8l-14 -4q-10 -3 -19 -7q-18 -7 -33 -15q-14 -8 -23 -14l-2 -2q-5 -4 -8 -7q-5 -5 -9 -11q-11 -16 -9 -33q0 -5 3 -11q1 -3 2 -5q4 -9 12 -16q23 -20 62 -19q31 1 67 18
q65 30 108 55q12 -8 18 -17q13 -22 18.5 -67t0.5 -89q-5 -45 -18 -72q-10 -28 -14 45q-5 48 -15 72q-18 46 -60 56q-47 12 -97 -23q-46 -32 -59 -78q-12 -41 8 -89q9 -24 25 -39q21 -20 47 -20h3q15 -1 40 10q21 10 30 27q10 20 6 52q-1 9 -9 24.5t-10 24.5q-1 6 3 17.5
t9 17.5q-8 0 -27 -17q-25 -21 -32 -39q-7 -17 -2 -30q2 4 7.5 2t6.5 -9q1 -9 -8 -15q-13 -9 -23 -2q-12 10 -16.5 34t0.5 35q7 25 36 45q27 19 48 14q12 -3 19 -20q6 -17 11 -57q5 -50 11 -66q6 -20 17 -32q17 -16 40 -16q22 0 40 18q11 13 20 34q16 35 22 89
q16 126 -28 195q-6 10 -14 19q76 52 169 145zM199 341h11q-28 -11 -61 -22q-30 -10 -50 -11q-6 1 3 5q41 22 81 27q7 1 16 1z" />
    <glyph glyph-name="uni0E2B" unicode="&#xe2b;" horiz-adv-x="420" 
d="M26 458q-10 -9 -4 -56q6 -48 28 -82q13 -19 30 -28q-2 4 -2 9q0 3 5.5 8t14.5 5q29 0 39 -26l6 -15q2 -16 -3 -30q-3 -10 -20 -32.5t-24 -34.5q-43 -68 -22 -122q10 -25 31 -39.5t46 -14.5q32 0 54 22q7 8 22 33q7 11 14 29t10 27.5t11.5 39t9.5 34.5q0 1 1 3
q3 -6 50 -107q20 -52 50.5 -76.5t76.5 -24.5q-31 26 -51 65.5t-37.5 88.5t-31.5 74q10 6 20 14q26 20 40.5 51.5t10.5 69.5q-3 26 -18 42q-14 15 -36 16h-6q-39 -2 -65 -45q-20 -31 -36 -76q-7 -1 -12 -3q-14 -7 -19 -23q-7 -22 8 -43q0 -1 -1 -4t-1 -5q-24 -82 -40 -116
q-11 -25 -24 -26q-14 -1 -21 16q-10 26 16 68q5 7 16 20.5t20 28t15 30.5q5 13 6 28q5 25 2 54q-4 40 -20.5 59t-54.5 31q-11 3 -39 1.5t-35 4.5q-8 5 -18.5 25.5t-11.5 31.5zM340 338q1 0 1 -1q4 -43 -27 -67q-7 -6 -18 -11q15 41 30 65q12 14 14 14z" />
    <glyph glyph-name="uni0E2C" unicode="&#xe2c;" horiz-adv-x="520" 
d="M5 460q-10 -9 -4 -56q6 -48 28 -82q13 -19 30 -28q-2 4 -2 9q0 3 5.5 8t14.5 5q21 0 26 -24q1 -26 -25 -91q-9 -21 -13 -33.5t-9 -32.5t-3 -39t9 -37q1 -3 3 -5q17 -28 35 -40q23 -14 60 -14q23 0 42.5 13t30.5 32q14 22 26 73q11 46 18 59q4 8 8 11q2 2 5 2q1 0 2 -1
q3 -3 7 -11q7 -15 16 -59q11 -51 21 -72q9 -20 22 -32q18 -15 42 -15q36 0 61 28q19 21 29 56q15 52 10 118q-4 53 -23 103q12 12 28 34q1 0 7.5 9.5t9 13.5t8.5 14.5t9.5 18t8 18.5t7.5 23t5 24q-50 -60 -106 -108q-11 16 -24 28q-25 22 -56 21q-4 -1 -8 -1h-1
q-34 -6 -49 -42q-12 -27 -5 -55q5 -23 26 -38q21 -17 45 -15q23 2 45 14q11 -36 13 -66q4 -56 -8 -98q-6 -22 -15 -32q-8 -8 -17 -8q-1 0 -2 1q-4 3 -8 11q-7 15 -16 59q-11 51 -20 72q-9 20 -23 31q-17 16 -41 16t-43 -15q-14 -11 -24 -31q-9 -19 -22 -72q-10 -42 -19 -57
q-6 -10 -9.5 -12.5t-12.5 -2.5q-20 0 -27 5q-6 4 -16 18q-11 29 17 95q20 52 25 71q11 36 12 58q1 34 -6.5 56t-35.5 33q-10 4 -46 1t-48 6q-8 5 -18.5 25.5t-11.5 31.5zM378 341q5 0 12 -6t15 -18q-18 -10 -27 -7q-12 4 -11.5 15t8.5 16h3z" />
    <glyph glyph-name="uni0E2D" unicode="&#xe2d;" horiz-adv-x="460" 
d="M279 401h-3q-16 0 -32 -5q-40 -10 -78 -41v-1q-2 -1 -3 -2q-59 -49 -91 -119q-42 -90 -42 -186q-1 -119 71 -171q26 -16 52.5 -17t47.5 8.5t41.5 26.5t34 33.5t23.5 33.5q-55 -40 -97 -51.5t-67 4.5t-37.5 49.5t-12.5 83.5q0 74 40 160q27 59 75 99q37 31 71 35h6
q9 1 17 -1q33 -6 59 -49q26 -44 26 -91q0 -45 -22 -91q-24 -49 -58 -49q-31 0 -55.5 23t-24.5 47q0 15 14 28l8 6q4 1 8 1q7 0 11 -5t4 -8q-1 -5 -3 -9q25 9 33 17q19 18 28 47q4 15 5.5 32t-2.5 24q-3 -12 -13.5 -23.5t-21.5 -11.5q-7 0 -16 1.5t-17 1.5t-18 -3h-1
q-24 -6 -45 -26q-34 -30 -34 -72q0 -53 41.5 -91.5t98.5 -38.5q38 0 66.5 24t45.5 59q28 58 28 117q0 63 -34 121q-40 67 -99 78q-15 2 -28 2z" />
    <glyph glyph-name="uni0E2E" unicode="&#xe2e;" 
d="M446 505q-22 0 -47 -9.5t-40.5 -17.5t-44 -30t-34 -27t-32.5 -29q-23 8 -48 8q-50 0 -101 -27q-23 -13 -35 -26q-9 -9 -13 -19q-3 -9 -1 -19v0q0 -9 5 -15q18 -28 47 -29q63 -2 139 66q21 -10 36 -36q23 -40 23 -95q0 -45 -22 -91q-24 -49 -58 -49q-31 0 -55.5 23
t-24.5 47q0 15 14 28l8 6q4 1 8 1q7 0 11 -5t4 -8q-1 -5 -3 -9q25 9 33 17q19 18 28 47q4 15 5.5 32t-2.5 24q-3 -12 -13.5 -23.5t-21.5 -11.5q-7 0 -16 1.5t-17 1.5t-18 -3h-1q-24 -6 -45 -26q-34 -30 -34 -72q0 -53 41.5 -91.5t98.5 -38.5q38 0 66.5 24t45.5 59
q28 58 28 117q0 72 -32 126q-17 29 -44 48q33 33 49 48t42 35.5t50.5 30t53.5 12.5q-16 5 -33 5z" />
    <glyph glyph-name="uni0E2F" unicode="&#xe2f;" horiz-adv-x="320" 
d="M180 420q1 -10 -6 -22t-15 -19q-12 -10 -40 -16.5t-39 -14.5q-29 -19 -35 -52q-2 -4 -2 -8q-5 -55 37 -89q35 -29 83 -29q27 0 58 23q9 7 19 17q1 -12 6.5 -58.5t6.5 -63.5q4 -41 -1 -64t-29 -44q59 3 76 29t14 82v1v2q-2 20 -7.5 68.5t-7.5 66.5q-3 35 -3 53q5 8 7 13
q2 8 2 15q0 10 -6 18q-10 12 -25 12q-16 0 -26 -13q-6 -6 -8 -15q-2 -6 -3 -12q-9 -14 -19 -26q-17 -21 -33 -33q-29 -24 -65 3v1q-8 6 -12 16q-5 7 -3 13.5t2.5 10t6.5 7t8 4.5t7 3q10 4 17.5 -0.5t8.5 -10.5q1 -5 -1 -9q12 9 23 31q16 31 17 55q0 16 -3.5 33.5t-9.5 21.5z
" />
    <glyph glyph-name="uni0E30" unicode="&#xe30;" horiz-adv-x="280" 
d="M155 380q-5 -10 -13 -16q-7 -6 -16.5 -6.5t-16.5 1t-17.5 4.5t-14.5 4q-23 4 -45 -17q-10 -10 -12 -26v0v-2v-2v-2q1 -36 21 -55q25 -23 59 -23q25 0 42.5 11.5t38 37.5t29.5 34q11 10 28.5 15.5t31.5 1.5q-14 16 -32.5 19.5t-33.5 -3t-28 -18.5q-5 -5 -19 -22.5
t-26 -26.5t-25 -9q-23 0 -33 17q-5 9 -1 18q3 7 9 9q8 2 14.5 -2t7 -9.5t-0.5 -8.5q13 1 27 14q12 10 20 29q6 16 6 33zM155 240q-5 -10 -13 -16q-7 -6 -16.5 -6.5t-16.5 1t-17.5 4.5t-14.5 4q-23 4 -45 -17q-10 -10 -12 -26v0v-2v-2v-2q1 -36 21 -55q25 -23 59 -23
q25 0 42.5 11.5t38 37.5t29.5 34q11 10 28.5 15.5t31.5 1.5q-14 16 -32.5 19.5t-33.5 -3t-28 -18.5q-5 -5 -19 -22.5t-26 -26.5t-25 -9q-23 0 -33 17q-5 9 -1 18q3 7 9 9q8 2 14.5 -2t7 -9.5t-0.5 -8.5q13 1 27 14q12 10 20 29q6 16 6 33z" />
    <glyph glyph-name="uni0E31" unicode="&#xe31;" horiz-adv-x="0" 
d="M-110 610q-5 -10 -13 -16q-7 -6 -16.5 -6.5t-16.5 1t-17.5 4.5t-14.5 4q-23 4 -45 -17q-10 -10 -12 -26v0v-4v-2q1 -36 21 -55q12 -11 35.5 -19t43.5 -8q19 0 39.5 10t31.5 19t33 31.5t26 26.5q30 28 80 17q-14 16 -37 19.5t-43.5 -3t-33.5 -18.5q-59 -58 -90 -58
q-40 0 -53 17q-5 8 -2 18v0q3 7 10 9q8 2 14.5 -2t7 -9.5t-0.5 -8.5q13 1 27 14q12 10 20 29q6 16 6 33z" />
    <glyph glyph-name="uni0E32" unicode="&#xe32;" horiz-adv-x="300" 
d="M20 410q-1 -3 0 -23t5 -32q10 -29 30 -45q14 -11 25 -10q-7 7 -2.5 13.5t12.5 6.5q17 -1 25 0q11 3 37.5 12t44.5 10q6 -1 9 -2.5t6.5 -8t5.5 -19.5q2 -14 2 -72v-6v-7q-1 -3 -1 -8q0 -4 -1 -8q-8 -103 -8 -118v-1v-2v-1v-1q1 -95 120 -108q-21 15 -31.5 25.5t-19.5 31.5
t-9 52v1v2q0 14 1.5 32.5t3.5 43t3 37.5q1 4 1 9q0 6 1 9v17q0 62 -2 80v2q-7 34 -29 56t-49 24h-3h-1q-24 0 -91 -17q-33 -8 -55 0l-7 3.5t-4.5 3t-6.5 7t-12 11.5z" />
    <glyph glyph-name="uni0E33" unicode="&#xe33;" horiz-adv-x="300" 
d="M-84 584q28 -14 44 -26q-7 1 -22 5t-21 4q-24 -3 -37 -22q-14 -21 -14 -47q0 -13 5 -27q4 -10 11 -18q16 -19 45 -23q28 -4 55 18q25 22 28 50q0 32 -20 53q5 14 5 29q-5 -10 -13 -16q-2 -2 -4 -3q-23 16 -62 23zM-19 532q2 -6 4 -22q2 -18 -13.5 -31t-38.5 -9
q-11 1 -15 5q-13 11 -11.5 27.5t14.5 21.5q8 2 14.5 -2t7 -9.5t-0.5 -8.5q13 1 27 14q7 6 12 14zM20 410q-1 -3 0 -23t5 -32q10 -29 30 -45q14 -11 25 -10q-7 7 -2.5 13.5t12.5 6.5q17 -1 25 0q11 3 37.5 12t44.5 10q6 -1 9 -2.5t6.5 -8t5.5 -19.5q2 -14 2 -72v-6v-7
q-1 -3 -1 -8q0 -4 -1 -8q-8 -103 -8 -118v-1v-2v-1v-1q1 -95 120 -108q-21 15 -31.5 25.5t-19.5 31.5t-9 52v1v2q0 14 1.5 32.5t3.5 43t3 37.5q1 4 1 9q0 6 1 9v17q0 62 -2 80v2q-7 34 -29 56t-49 24h-3h-1q-24 0 -91 -17q-33 -8 -55 0l-7 3.5t-4.5 3t-6.5 7t-12 11.5z" />
    <glyph glyph-name="uni0E34" unicode="&#xe34;" horiz-adv-x="0" 
d="M-248 595h-7q-27 -1 -56 -17q-9 -6 -23 -21.5t-22 -22.5q-6 -4 -21 -5t-23 2q3 -9 31 -23q31 -15 58 -16q13 -1 28.5 1.5t19.5 6.5q-14 2 -18.5 7t-2 9t8.5 6q25 12 49 11q34 -2 52 -14q34 -24 55.5 -34t47 -6.5t51.5 26.5q-17 -8 -29.5 -9t-29.5 7t-31 17.5t-45 34.5
q-53 41 -93 40z" />
    <glyph glyph-name="uni0E35" unicode="&#xe35;" horiz-adv-x="0" 
d="M-35 600q-2 -13 -5.5 -23.5l-5.5 -16.5t-7.5 -13.5t-7 -9.5t-10.5 -10.5t-12 -11.5q-14 13 -32 25q-36 25 -71 40q-36 15 -61 15h-7h-1q-27 -1 -56 -17q-9 -6 -23 -21.5t-22 -22.5q-6 -4 -21 -5t-23 2q3 -9 31 -23q31 -15 58 -16q13 -1 28.5 1.5t19.5 6.5q-14 2 -18.5 7
t-2 9t8.5 6q23 11 49 11q43 -3 88 -25q6 -3 25 -20q-13 -14 -16 -27v0q-1 -1 -1 -3q-2 -13 7 -28q8 -12 20 -19q17 -9 33 -2q17 6 28 27q1 2 1 4q5 13 -2 28q-5 11 -16 24q27 23 31.5 52t-7.5 56zM-86 461q5 -6 7 -9v-1q0 -4 -4 -5q-6 0 -7 7q0 1 4 8z" />
    <glyph glyph-name="uni0E36" unicode="&#xe36;" horiz-adv-x="0" 
d="M-247 595h-7h-1q-27 -1 -56 -17q-9 -6 -23 -21.5t-22 -22.5q-6 -4 -21 -5t-23 2q3 -9 31 -23q31 -15 58 -16q13 -1 28.5 1.5t19.5 6.5q-14 2 -18.5 7t-2 9t8.5 6q25 12 49 11q32 -2 64 -20q8 -4 22 -14t21 -13q2 -2 5 -3q14 -14 29 -18q42 -11 65 35q-19 -19 -37 -16
q-5 1 -9 2q21 17 27 36q6 20 -4 38q-9 15 -24 22q-10 5 -30 2q-26 -5 -39 -40q0 1 -2 2t-3 2q-24 16 -34 22.5t-31.5 15.5t-40.5 9zM-85 546h1q7 -1 6 -12q0 -10 -11 -15q-3 -2 -8 0q-2 8 0 13q4 14 12 14z" />
    <glyph glyph-name="uni0E37" unicode="&#xe37;" horiz-adv-x="0" 
d="M-20 600q-38 -14 -45 -70q-1 -11 -2 -15.5t-3 -12.5t-5.5 -10.5t-8.5 -0.5q-7 1 -9 8q23 31 22 62q0 17 -9 25q-10 11 -24 6q-8 -3 -12 -10l-1 -1v0q0 -1 -1 -2q-12 -24 -14 -46q-5 4 -23 19.5t-28 21.5q-8 5 -17 9q-24 12 -47 12h-8q-27 -1 -56 -17q-9 -6 -23 -21.5
t-22 -22.5q-6 -4 -21 -5t-23 2q3 -9 31 -23q31 -15 58 -16q13 -1 28.5 1.5t19.5 6.5q-14 2 -18.5 7t-2 9t8.5 6q25 12 49 11q21 -1 48 -14q7 -4 18.5 -14t17.5 -13q11 -6 19 -7q7 -11 17 -18q16 -11 32 -6q21 7 30 27q3 6 6 51.5t18 60.5z" />
    <glyph glyph-name="uni0E38" unicode="&#xe38;" horiz-adv-x="0" 
d="M-134 -5q-7 -3 -18 -25q-15 -30 -14 -49q0 -18 10 -29q0 5 6 4.5t9 -5.5q10 -15 9 -41q-1 -27 -17 -55q-13 -23 -29 -33q17 -5 38 6q23 12 42 46q18 30 18 57q0 24 -15 49q-4 9 -17 20t-19 19q-3 4 -4 16.5t1 19.5z" />
    <glyph glyph-name="uni0E39" unicode="&#xe39;" horiz-adv-x="0" 
d="M-223 -23q-4 -16 -1 -34q4 -19 13 -32q11 -16 23 -20q-2 4 0 6.5t7 2.5q11 -2 21 -17q-2 -3 -4 -10q-2 -5 -3 -9q-2 -5 -3 -10q-1 -3 -1 -5q-1 -3 -1.5 -4t-0.5 -3l-1 -4q0 -1 -0.5 -1.5l-0.5 -0.5v-1q-1 -5 -2 -9v-1v-3q-1 -1 -1 -2v-2v-1q0 -4 -1 -8q-1 -22 6 -35
q7 -10 18 -14q10 -3 21 1q1 0 2 1q28 10 36 35q7 19 0 46q-6 20 -18 45q4 8 10.5 15.5t10.5 12t14 12.5t13 10l16.5 11t14.5 10q-53 1 -98 -38q-1 2 -2 3q-9 13 -21 20v0q-8 6 -16 6q-7 1 -13.5 0t-10 -2t-8 1.5t-9.5 8.5q-7 9 -10 19zM-134 -169q3 -14 1 -22q-2 -4 -6 -7v4
t0.5 2.5t0.5 3.5q1 8 4 19z" />
    <glyph glyph-name="uni0E3A" unicode="&#xe3a;" horiz-adv-x="0" 
d="M-141 -38q4 -9 4 -20q-1 -8 -4 -13q-30 -6 -42 -30q-4 -8 -6 -17q-6 -15 -1 -33q6 -19 27 -38q10 -9 26.5 -10.5t29.5 3.5q12 5 24 15q9 7 15 16q8 13 8 25q0 28 -21 49q-15 15 -33 19q12 -29 -1 -54q-4 -8 -4 -2q-4 6 -11.5 6.5t-11.5 -5.5q-10 -10 4 -23q14 -14 35 -1
q-9 -6 -18.5 -6t-14 3t-6.5 6q-9 10 -5 18t11 10t12.5 -1t5.5 -6q8 10 7 29q0 13 -6 27l-0.5 1t-0.5 2l-2 4q-8 16 -21 26z" />
    <glyph glyph-name="uni0E3F" unicode="&#xe3f;" 
d="M150 480q16 -35 0 -79q-19 -4 -44 -11q-6 -2 -9 -2q-36 -5 -55 5t-25 32q-4 -15 -1 -39t11 -42q13 -27 46 -50q14 -10 25 -10q-9 9 -10 17.5t9 16.5q19 11 23 13q-40 -94 -40 -189v-2v-2q0 -71 27 -105q25 -33 73 -33q3 0 4 -1q-2 -10 -2 -20q1 -8 2.5 -14t4.5 -11
q9 -14 26 -14t26 15q3 4 4 9q2 6 3 13q0 11 -1 22q0 1 1 1q66 0 99 48q28 40 23 95q-2 21 -15 38t-31 26q-8 4 -16 6q3 7 4 9q27 61 6 110q-14 31 -39 51t-57 23q-8 1 -16 1h-12q-2 27 -14 46.5t-30 26.5zM205 347q6 0 10 -1q19 -2 28.5 -9.5t18.5 -28.5q4 -5 3 -25.5
t-8 -36.5q-8 -18 -19 -27q-19 -1 -33 -5q-18 -5 -26 -15q-5 -8 -5 -17q-1 -12 7 -20q9 -12 29 -12q23 0 44 10h1.5h1.5q26 0 41 -7q7 -3 9.5 -6t2.5 -10q3 -33 -12 -54q-16 -23 -51 -23q-17 0 -32 -10q-16 10 -35 10q-18 0 -26 10q-14 18 -14 70q0 102 41 195q3 5 5 11
q10 1 19 1z" />
    <glyph glyph-name="uni0E40" unicode="&#xe40;" horiz-adv-x="220" 
d="M145 420q-45 -15 -65 -42t-21 -74q-1 -14 0 -36t1 -28q0 -13 -5.5 -47t-4.5 -65t12 -59q11 -26 24 -41q23 -28 54 -28h1q15 0 40 16q19 13 26 31q7 20 -2 52q-2 9 -12 23t-13 23q-2 5 0 17t6 19q-7 -1 -24 -20q-21 -25 -26 -44q-4 -18 2 -30q2 4 7.5 3t7.5 -8
q3 -10 -5 -16q-10 -7 -16 0q-7 9 -14 25q-7 26 -6.5 40.5t4.5 50t4 56.5v2q0 22 -7 65.5t-3 59.5q7 27 35 55z" />
    <glyph glyph-name="uni0E41" unicode="&#xe41;" horiz-adv-x="300" 
d="M125 420q-43 -14 -59 -40.5t-17 -75.5q-1 -14 0 -36t1 -28q0 -13 -5.5 -52.5t-4.5 -75t12 -63.5q20 -49 58 -49q17 1 41 16q8 5 14 12l2 2t2 3q1 1 1 2l2 2v0v1q1 0 1 1l1 1q0 1 1 2q0 1 0.5 2.5t1.5 2.5q7 20 -2 52q-2 9 -12 23t-13 23q-2 5 0 15v2q2 12 6 19
q-3 -1 -8 -5q-2 -1 -4 -3q-6 -5 -12 -12q0 -1 -0.5 -1h-0.5q-21 -25 -25 -43t2 -30q2 4 7.5 3t7.5 -8q2 -6 -3 -14t-11 -8q-3 0 -5.5 2t-4 6.5t-2.5 7t-2 8.5t-1 7q-5 31 -3.5 46.5t5.5 46.5t4 54v2q0 22 -7 65.5t-3 59.5q7 27 35 55zM225 420q-45 -15 -65 -42t-21 -74
q-1 -14 0 -36t1 -28q0 -13 -4 -41t-4 -36q0 1 4 5.5t5.5 5.5t5 4t7 4t6.5 1q-10 -16 -9 -35q2 -8 12 -22t12 -21q14 -41 0 -67q-4 -6 -8 -11q23 -27 53 -27h1q15 0 40 16q19 13 26 31q7 20 -2 52q-2 9 -12 23t-13 23q-2 5 0 17t6 19q-7 -1 -24 -20q-21 -25 -26 -44
q-4 -18 2 -30q2 4 7.5 3t7.5 -8q2 -6 -2.5 -14t-11.5 -8q-4 0 -8 4t-5.5 7.5t-4.5 11t-3 8.5q-7 26 -6.5 40.5t4.5 50t4 56.5v2q0 22 -7 65.5t-3 59.5q7 27 35 55z" />
    <glyph glyph-name="uni0E42" unicode="&#xe42;" horiz-adv-x="240" 
d="M240 730q1 -17 -4.5 -28.5t-17.5 -16t-25.5 -6.5t-33 1t-34.5 6t-36 7t-32 6q-4 1 -8 1q-41 -1 -63 -30q-9 -11 -24 -49q-6 -13 -4 -30.5t12 -27.5q15 -16 45 -19q23 -2 79 6q17 3 25 -1q5 -3 9 -9q9 -21 2 -70q-6 -37 -27 -107t-22 -76v-1q-9 -41 -13.5 -71t-2 -71.5
t16.5 -74.5q11 -26 24 -41q23 -28 54 -28h1q15 0 40 16q19 13 26 31q7 20 -2 52q-2 9 -12 23t-13 23q-2 5 0 17t6 19q-7 -1 -24 -20q-21 -25 -26 -44q-4 -18 2 -30q2 4 7.5 3t7.5 -8q3 -10 -5 -16q-10 -7 -16 0q-7 9 -14 25q-26 61 1 182q3 10 13.5 44.5t21 73t15.5 71.5
q10 66 -7 103q-12 27 -38 38q-24 12 -58 7q-5 -1 -14 -3t-16.5 -3.5t-15.5 -2.5t-13 -0.5t-6 3.5q-6 11 4 25.5t23 10.5q8 -2 29 -6t27 -5q41 -9 56 -9q59 1 83.5 31t-3.5 79z" />
    <glyph glyph-name="uni0E43" unicode="&#xe43;" horiz-adv-x="240" 
d="M97 702q-35 -1 -68 -14q-63 -24 -69 -75q-5 -45 42 -82q48 -38 91 -18q18 8 24 33t-6.5 48t-40.5 24q27 -16 27 -49q-1 -30 -24 -32q-8 -1 -19 3q-13 4 -34 26.5t-16 40.5q7 26 43.5 37t68.5 6q20 -3 40 -21.5t24 -43.5l1 -2v-7q-1 -35 -37 -117q-1 -2 -12 -26.5
t-14 -30.5t-11 -26.5t-11.5 -31.5t-8 -28t-7.5 -31q0 -5 -4 -28t-5 -31.5t-3.5 -29t-2 -33t1.5 -30.5t5 -33.5t10 -30.5q11 -26 24 -41q23 -28 54 -28h1q15 0 40 16q19 13 26 31q7 20 -2 52q-2 9 -12 23t-13 23q-2 5 0 17t6 19q-7 -1 -24 -20q-21 -25 -26 -44q-4 -18 2 -30
q2 4 7.5 3t7.5 -8q3 -10 -5 -16q-10 -7 -16 0q-7 9 -14 25q-10 24 -10.5 59t2 55.5t10.5 69.5q6 44 58 160q18 40 25 57t14 47.5t3 55.5l-0.5 0.5t-0.5 2.5q-9 40 -41.5 68t-73.5 34q-11 1 -23 2h-4z" />
    <glyph glyph-name="uni0E44" unicode="&#xe44;" horiz-adv-x="240" 
d="M185 700q-15 -1 -27 -5.5t-31 -22.5t-34.5 -29.5t-23.5 -6.5q-27 21 -36.5 27.5t-29 18t-29.5 13t-25 0t-30 -9.5q25 0 44.5 -10t32 -24t24 -28.5t25.5 -24.5t31 -11q43 -1 78 43q15 14 25 10q4 -2 1 -29q-6 -50 -44 -146q-47 -121 -56 -181q-1 -6 -5 -32t-5.5 -36.5
t-3 -34.5t-0.5 -39t5 -35.5t11 -37.5q11 -26 24 -41q23 -28 54 -28h1q15 0 40 16q19 13 26 31q7 20 -2 52q-2 9 -12 23t-13 23q-2 5 0 17t6 19q-7 -1 -24 -20q-21 -25 -26 -44q-4 -17 3 -30q1 4 6.5 3t7.5 -8q3 -10 -5 -16q-7 -5 -16 0q-3 2 -5.5 5t-3.5 6l-2.5 7.5
t-2.5 6.5q-4 9 -6 17.5t-3 19t-2 18t0 21.5t1 20t2 22.5t3 21t3.5 23t3.5 22.5q7 52 52 167q32 82 40 117q1 3 2 7v0.5t1 2.5q1 9 3 17q2 14 4 26q2 22 -1 38q-5 20 -18 33q-11 12 -27 15q-6 1 -11 1z" />
    <glyph glyph-name="uni0E45" unicode="&#xe45;" horiz-adv-x="300" 
d="M20 410q-1 -3 0 -23t5 -32q10 -29 30 -45q14 -11 25 -10q-7 7 -2.5 13.5t12.5 6.5q17 -1 25 0q11 3 37.5 12t44.5 10q6 -1 9 -2.5t6.5 -8t5.5 -19.5q2 -16 2 -70v-1q0 -16 -5 -151q0 -5 -0.5 -13.5t-0.5 -12.5v-1q-4 -110 -4 -133v-3v-16q0 -96 120 -110q-22 16 -32.5 26
t-19 31.5t-8.5 52.5q0 20 2 75t2 75q0 12 1 27q5 131 5 150v2v1q0 59 -2 79v2q-7 34 -29 56t-49 24h-3h-1q-24 0 -91 -17q-33 -8 -55 0l-7 3.5t-4.5 3t-6.5 7t-12 11.5z" />
    <glyph glyph-name="uni0E46" unicode="&#xe46;" horiz-adv-x="320" 
d="M50 364q-8 -8 -8 -42q0 -28 10 -65t28 -57q8 -8 21 -13.5t22 -6.5q-14 4 -10 25q3 21 20 17q1 -1 3 -2q20 -9 52 -4q25 2 50 17q0 -1 0.5 -4.5t0.5 -5.5q2 -20 7.5 -68.5t6.5 -66.5q4 -41 -1 -64t-29 -44q59 3 76 29t14 82v1.5v1.5q-2 20 -7.5 68.5t-7.5 66.5
q-3 38 -3 56q5 6 7 12q4 10 1 20q-3 12 -13 18q-8 5 -17 5q-16 0 -26 -13q-6 -6 -8 -15q0 -1 -0.5 -1.5l-0.5 -0.5q-5 -6 -10 -10q-15 -13 -33 -21q-28 -9 -61 2.5t-64 40.5q-20 19 -20 42z" />
    <glyph glyph-name="uni0E47" unicode="&#xe47;" horiz-adv-x="0" 
d="M-50 710q7 -31 -23.5 -62.5t-54.5 -28.5q-6 0 -20.5 5.5t-21.5 5.5q-34 0 -66 -27q-34 -28 -34 -63q0 -27 21.5 -48.5t48.5 -21.5q10 0 18 6q5 5 8 12q3 5 4 13q2 -1 4.5 -3t4.5 -4q1 0 4.5 -3t4.5 -4t4.5 -3.5t5.5 -3.5t5.5 -3t6 -3t6 -2t7 -1.5t7.5 -0.5v0h3h1q3 0 6 1
q25 4 39 16q19 17 18 43q0 17 -9 34.5t-2 29.5q5 9 14 15q-16 -2 -32 -11q-17 -9 -26 -23q-11 -15 -11 -28q3 1 9.5 1.5t11.5 -5t2 -15.5q-5 -13 -18.5 -15t-20.5 5h-1l-15 12t-14 10q-14 10 -25 10q-12 0 -19 -9q-4 -6 -5 -11q-1 -4 -1 -8.5t-0.5 -7.5t-2.5 -2q-7 2 -12 8
q-10 10 -10 20q0 16 20 33q19 17 34.5 18.5t41.5 -6.5q9 -2 23 3q21 8 38.5 25.5t25.5 34.5q7 14 8 30q1 7 -3 17.5t-8 14.5z" />
    <glyph glyph-name="uni0E48" unicode="&#xe48;" horiz-adv-x="0" 
d="M-145 781q-7 -11 -10 -25q-2 -16 2 -28q4 -15 12 -21q0 3 2.5 5t4.5 -1q5 -5 5 -17q1 -35 -16 -52q29 0 36 16q3 6 7.5 27t4.5 32q0 9 -0.5 12.5t-4.5 9.5t-11 8q-3 1 -11 2t-12 4t-7 11t-2 17z" />
    <glyph glyph-name="uni0E49" unicode="&#xe49;" horiz-adv-x="0" 
d="M-168 788q-4 -13 -2 -27q3 -16 9 -27q9 -12 18 -16q0 3 2 7.5t7 6.5t12 -2t7 -14v-10q-4 -10 -11 -19l-2 -2q-13 1 -19 0q-8 -2 -13 -6t-7 -9q0 -6 1 -12q4 -12 17 -15q9 -2 18 2q8 2 15 8q36 -2 53 3q26 7 46 23.5t29 35t12 37.5t-7 32q7 -29 -21.5 -63.5t-65.5 -38.5
q-8 0 -21 2v1q5 7 7 14v2q1 1 1 2q1 9 0 19q0 9 -3 16q-6 18 -25 24q-3 1 -23 1.5t-27 9.5q-6 6 -7 15z" />
    <glyph glyph-name="uni0E4A" unicode="&#xe4a;" horiz-adv-x="0" 
d="M-6 781q8 -35 -13.5 -58.5t-54.5 -26.5q11 25 8 46q-1 4 -3 7q-3 8 -10 10t-14 -3q-16 -17 -29.5 -24t-24.5 -5t-19 7t-20 16q-11 11 -11 22q-4 -4 -4 -22q0 -31 19 -52q9 -9 23 -10q-7 1 -6 9q3 8 12 1q6 -4 12 -4.5t11.5 1.5t10 4t9.5 6t8 4l-4 -8q-1 -3 -4 -7
q-6 0 -10 -1q-6 -3 -10 -8q-3 -6 -1 -12q1 -4 3 -8q3 -4 10 -8q10 -4 20 2q2 2 4 3q33 0 50 7q17 5 32 21t20.5 40t-14.5 51z" />
    <glyph glyph-name="uni0E4B" unicode="&#xe4b;" horiz-adv-x="0" 
d="M-146 781q-3 -5 -4 -21q-2 -12 0 -22q4 -13 8 -16q0 2 2 3.5t3 -0.5q3 -3 4 -11q-1 -2 -1 -5l-2 -1q-10 4 -25 7q-13 1 -19 -7q-3 -6 0 -12q2 -3 6 -4q14 -4 31 -2q1 -1 4 -2l2 -2q0 -1 -0.5 -2t-0.5 -2q-2 -13 -3 -17q-1 -5 0 -7q0 -2 1 -5q2 -5 9 -6h1v0h3q3 1 6 3
q7 6 8.5 18t-2.5 21q0 3 1 7q32 9 53 1q-13 17 -28 17q-9 1 -23 -2q2 12 2 18q0 7 -0.5 10t-4 7.5t-8.5 6.5q-2 1 -7.5 1.5t-8.5 2.5t-5 10q-2 6 -2 13z" />
    <glyph glyph-name="uni0E4C" unicode="&#xe4c;" horiz-adv-x="0" 
d="M28 846q7 -27 -27.5 -48t-78.5 -18q-23 2 -39 -9q-35 -24 -35 -65v-2q-1 -11 7 -22t18 -18q4 -3 11 -5q11 -5 24 -5h1h2q18 1 30 16q2 2 8 22t17 24q8 3 17 2q-12 7 -25 10q-16 2 -28 -2q-15 -4 -21 -12q2 0 5.5 -3.5t4 -9t-5.5 -10.5q-10 -7 -27 5q-6 4 -6 10
q-1 26 20 40q13 9 24 8q22 -2 46.5 6.5t40.5 22.5t23 31t-6 32z" />
    <glyph glyph-name="uni0E4D" unicode="&#xe4d;" horiz-adv-x="0" 
d="M-139 621q28 -14 44 -26q-7 0 -22 4.5t-21 3.5q-24 -2 -37 -21q-14 -21 -14 -48q0 -13 5 -26q4 -10 11 -18q16 -19 45 -23q28 -4 55 18q25 22 28 50q0 31 -20 53q5 14 5 28q-5 -9 -13 -16l-4 -2q-23 16 -62 23zM-74 569q2 -6 4 -22q2 -18 -13.5 -31t-38.5 -10
q-10 2 -15 5q-13 11 -11.5 28t14.5 21q8 3 14.5 -1t7 -10t-0.5 -9q13 2 27 14q7 6 12 15z" />
    <glyph glyph-name="uni0E4E" unicode="&#xe4e;" horiz-adv-x="0" 
d="M-47 661h-3q-4 0 -7 -1q-21 -3 -29.5 -17t-0.5 -34l5 -10q-20 5 -35 1q-19 -5 -30.5 -19t-12.5 -32q-1 -22 10 -43q9 -18 23 -26q18 -11 38 -9q18 1 30 16q2 3 7.5 22.5t16.5 23.5q8 4 16 3q-11 7 -25 9q-16 2 -28 -2q-14 -4 -20 -13q2 1 5.5 -3t4 -9t-4.5 -11
q-5 -4 -15 -1q-30 9 -28 41q2 19 20 24q12 3 41 -7l29 -12q5 -2 10.5 -0.5t8.5 6t2 10t-5 9.5q-12 11 -23 24q-9 11 -12 19q-7 13 0 19t24 6.5t29 -0.5t26 -3q-23 13 -46 17q-12 2 -21 2z" />
    <glyph glyph-name="uni0E4F" unicode="&#xe4f;" 
d="M116 337q4 -9 4 -20q-1 -9 -6 -17q-28 -3 -69 10q37 -15 62 -21q-2 -2 -9 -9.5t-12.5 -14.5t-10.5 -15q-15 -25 -15 -48v-3q1 -36 16 -74q13 -34 34 -55q29 -28 69 -30q59 -3 105 29q55 38 56 110v1q0 51 -34 96q-15 20 -39 33t-48 13q-10 0 -19 -2q-11 -3 -33.5 -9
t-32.5 -8q-11 29 -18 34zM211 291q37 0 63 -33q12 -16 19 -39t7 -39v-1q0 -51 -39 -78q-34 -23 -80 -21q-25 1 -43 18q-15 15 -25 41q-6 17 -10 37v1q-8 53 12 63q19 9 24 -12q8 10 7 29q0 12 -5 27q18 -1 59 6q6 1 11 1zM189 272q4 -10 4 -21q-1 -7 -4 -12q-30 -6 -42 -31
q-4 -7 -6 -16q-6 -16 -1 -34q6 -19 27 -37q10 -9 26.5 -11t29.5 4q12 4 24 14q9 8 15 16q8 13 8 26q0 27 -21 49q-15 14 -33 19q12 -29 -1 -55q-4 -7 -4 -1q-4 6 -11.5 6.5t-11.5 -5.5q-10 -10 4 -24q14 -13 35 0q-9 -6 -18.5 -6t-14 2.5t-6.5 5.5q-9 11 -5 18q4 9 11 10.5
t12.5 -1t5.5 -5.5q8 10 7 29q0 13 -6 26q0 1 -0.5 2t-0.5 2l-2 4q-8 16 -21 26z" />
    <glyph glyph-name="uni0E50" unicode="&#xe50;" horiz-adv-x="440" 
d="M249 420q1 -10 -6 -22t-16 -19q-11 -9 -39.5 -15.5t-39.5 -15.5q-47 -39 -61 -61q-37 -51 -37 -117q0 -97 56 -139q40 -31 114 -31q72 0 124 40q59 46 75 133q0 1 1 2q12 71 -23 116q-28 35 -79 35q-29 1 -48 -8q-13 -5 -24 -17.5t-18.5 -23.5t-25 -23.5t-42.5 -19.5
q44 -5 62 -1t38 19q20 19 46.5 19.5t43.5 -17.5q19 -23 10 -69v0q-12 -66 -53 -98q-35 -27 -87 -27q-53 0 -78 19q-32 24 -32 91q0 61 44 100q16 14 41 25q1 0 2 1q6 2 12 3q12 0 13 -11q1 -2 -2 -8q15 11 30 40q10 20 11 45q0 16 -3.5 33.5t-8.5 21.5z" />
    <glyph glyph-name="uni0E51" unicode="&#xe51;" horiz-adv-x="440" 
d="M230 350q-51 0 -107 -44q-63 -49 -63 -106q0 -45 34 -82q37 -38 86 -38h2q19 0 44 10q20 9 30 27q10 20 6 52q-1 9 -9 24.5t-10 24.5q-1 6 3 17.5t9 17.5q-8 0 -27 -17q-25 -21 -32 -39q-7 -17 -2 -30q2 4 7.5 2t6.5 -9q1 -9 -8 -15q-5 -4 -18 -5h-2q-23 0 -42 20
q-18 19 -18 40q0 12 11 28.5t29 30.5q17 13 38 22t32 9q53 0 91.5 -35t38.5 -75q0 -62 -39 -93t-86 -37q-18 -2 -53.5 2.5t-61 -2t-50.5 -35.5q35 9 94 -3t66 -12q77 0 129 40q61 49 61 140q0 68 -56 119t-134 51z" />
    <glyph glyph-name="uni0E52" unicode="&#xe52;" horiz-adv-x="440" 
d="M-20 460q39 -27 66 -72t35 -96q4 -13 1.5 -34.5t-5 -35t-8.5 -40t-9 -48.5q-5 -35 9.5 -67.5t44.5 -51.5q29 -19 78 -13q55 8 57 8q7 0 29.5 -4.5t37.5 -5t44 6.5q4 1 7 3q24 16 40 60q12 35 18 82q14 103 -6 167l-1 1q-5 16 -19 23q-18 8 -35 -4q-8 -6 -19 -22
q-6 -9 -10 -14q-4 4 -13 14q-14 16 -24 23q-21 14 -45 9q-43 -9 -70 -56q-23 -40 -23 -83q0 -40 19 -73q26 -47 71 -47q12 0 22 2h1l8 2q10 3 18 9q16 10 28 34q1 1 1 2v1q8 15 6 30q-1 21 -21 47q-6 7 -21 16t-21 16q-5 4 -7.5 15.5t-1.5 19.5q-7 -4 -14 -28
q-10 -31 -6 -50q3 -18 14 -27q0 5 5.5 6t9.5 -5q6 -6 2 -16q-3 -6 -12 -13q-4 -1 -11 -1q-10 0 -19 16q-11 20 -11 44q0 27 15 52q13 22 29 28q4 -3 13 -13q15 -16 23 -23q20 -15 42 -14q15 1 27 11q3 -46 -3 -91q-6 -41 -16 -70q-6 -17 -15 -28q-9 -1 -37.5 3.5t-46.5 4.5
q-12 0 -23.5 -1t-25.5 -3.5t-18 -3.5q-27 -4 -38 3q-11 8 -19.5 27.5t-6.5 33.5q1 12 5.5 38t6 39.5t3 33.5t0 37t-5.5 34q-15 57 -58.5 104.5t-90.5 47.5z" />
    </font>
</defs>
</svg>
