<?xml version="1.0" standalone="no"?>
<!DOCTYPE svg PUBLIC "-//W3C//DTD SVG 1.1//EN" "http://www.w3.org/Graphics/SVG/1.1/DTD/svg11.dtd" >
<svg xmlns="http://www.w3.org/2000/svg" xmlns:xlink="http://www.w3.org/1999/xlink" version="1.1">
<metadata>
Created by FontForge 20170805 at Mon Jul  4 19:34:03 2016
 By Manatsawin
Copyright (C) 1999, The National Font Project (v.beta). Yannis Haralambous, Virach Sornlertlamvanich and Anutara Tantraporn. All rights reserved.

Modified under GNU General Public License, with creators' permission, by Thai Linux Working Group (TLWG).

SOV_moton_overlay Modify by : July 2016 Worawut Thanawatanawanich. 
</metadata>
<defs>
<font id="SOV_moton_ovl" horiz-adv-x="420" >
  <font-face 
    font-family="SOV_moton_ovl"
    font-weight="700"
    font-stretch="normal"
    units-per-em="1200"
    panose-1="2 7 5 6 6 0 0 2 0 4"
    ascent="960"
    descent="-240"
    x-height="550"
    cap-height="550"
    bbox="-394 -310 1543 1224.11"
    underline-thickness="36"
    underline-position="-60"
    unicode-range="U+0020-FB04"
  />
<missing-glyph horiz-adv-x="328" 
d="M19 487v-468h291v468h-291zM329 0h-329v508h329v-508z" />
    <glyph glyph-name="trademark" unicode="TM" horiz-adv-x="708" 
d="M428 542q-34 0 -55 -22q-17 -18 -24 -50q-11 -49 4 -106q5 -18 7 -46q12 -5 17 -11q22 -18 18 -36q0 -7 -5 -15q6 16 4 26q-4 13 -21 28l-1.5 1.5t-1.5 0.5v0v0q-1 1 -2 1h-1v0l-1 1v1q-1 1 -2 1v0q-1 0 -3 1h-1q-14 6 -19 9q-4 1 -7 9t-3 13q-4 -4 -7 -19q-2 -22 1 -34
q5 -11 13 -15q-1 4 2 4q4 -1 9 -2q5 -4 3 -10l-4 -8q-4 -8 -6 -17q-2 -13 -1 -24q0 -8 1.5 -14t6.5 -10q8 -7 17 -7q16 0 24 13q5 7 8 18q5 17 5 45q2 55 -9 104q-11 50 -4 90q5 22 14 31q10 10 24 10q4 -1 9 -5q8 -7 15 -23q10 -24 18 -60q-2 -12 -3 -19q-7 -50 -6 -92
q0 -19 3 -34q1 -8 5 -13q8 -13 22 -13q13 0 23 13q5 6 4 13q3 13 4 34q1 42 -6 92q-1 7 -4 19q6 36 18 60q6 16 16 23q5 5 8 5q14 0 23 -10q9 -11 13 -32q6 -35 -1 -91l-3.5 -45.5t-0.5 -43.5t6 -40.5t14 -31.5t26.5 -22.5t40.5 -7.5q-19 17 -30.5 38t-14.5 47t-2 48t6 53
q7 62 0 103q-7 31 -21 50q-22 24 -56 24q-22 0 -39 -18q-12 -12 -23 -34v-1q0 -1 -1 -1v1v1q-11 23 -23 34q-18 18 -40 18zM41 557q-2 -1 -3.5 -17.5t-0.5 -28.5q4 -23 16 -38q6 -10 13 -12q-4 6 -1.5 12t11.5 7q17 1 20 1h11q31 -6 60 -7q-4 -14 -7 -35q-7 -46 -5 -91v0
q1 -13 7 -50q6 -38 2 -56q-5 -34 -33 -57q28 0 47 16.5t24 33.5q2 14 2.5 30.5t-0.5 28.5t-3.5 29t-2.5 26v1q-2 42 5 84q2 22 7 34v1h1q19 -1 34 -1q43 -1 61 7q12 5 18 11q6 8 4 18q-2 7 -12 12q-7 4 -20 4q-6 1 -18 1q-50 -2 -84 -13h-1q-11 0 -17 1q-19 2 -39 5
q-29 5 -38.5 7t-18 2.5t-12 2t-8.5 3.5q0 1 -3 3t-4 2.5t-3.5 2.5t-3 3t-2.5 3t-2.5 4.5t-0.5 5v4.5z" />
    <glyph glyph-name="uvSOV" unicode="&#xe2f;&#xe23;&#xe2d;&#xe07;&#xe2f;" horiz-adv-x="1572" 
d="M892 651.5q0 1.5 7 -3.5q10 -8 35 -4q24 6 36 -4q6 -7 9.5 -7.5t12.5 7.5q10 6 15.5 5t14.5 -10q7 -7 10 -9q2 -2 7 0q6 0 6 -1q-4 -2 -11.5 -2t-16.5 9.5t-14 7.5t-11 -8t-12.5 -6.5t-14 6t-11.5 3.5q-6 -6 -23 -73q-8 -34 -2 -41q4 -5 11.5 -4t11 -2t1.5 -4
q1 -1 -2.5 1t-8.5 -1q-10 -5 -19.5 6t-33.5 53q-31 53 -41 58q-5 1 -7.5 5t-8.5 7l2 1q8 -1 12.5 -3.5t21.5 -1.5l15 1l7 -8q6 -7 8.5 -6.5t2.5 -1.5t-3 -2t-6 3l-6 2q-5 5 -9 4q-4 -2 -2 -7t18 -31q17 -28 18 -25q1 4 7 34.5t6 32.5q-1 2 -10.5 3.5t-15.5 8t-6 8zM737 682
q2 8 3 8q1 -1 2 -7q0 -12 10 -4q6 4 14.5 2.5t12.5 -7.5q6 -11 -1 -40q-6 -19 -6 -26q0 -6 6 -10q5 -6 16.5 -5t20.5 1h9v7q-1 8 -15 35q-7 13 -5.5 25.5t11.5 18.5q7 4 17 1.5t14 -8.5q2 -4 0 -13v-10l5 -2q10 -2 -3 -4q-4 -1 -8 -1q-10 0 -12 5q-7 11 2 14q4 2 3.5 4
t-5.5 3t-7 -4q-6 -10 9 -30q17 -19 17 -36q0 -11 -6.5 -18t-6.5 -13q0 -5 1 -6q0 -2 7 -3l8 -2h-9q-12 0 -15 12l-4 6h-26q-23 1 -29.5 3.5t-12.5 11.5q-7 11 1 45q8 30 3 30q-2 0 -7 -2.5t-9 -1.5q-9 5 -5 21zM818 702q48 11 57 -5q4 -7 -3 -2q-11 7 -40 -1q-26 -7 -40 -3
q-5 2 -10.5 6t-9.5 4l-3 2q2 4 21 -1q10 -2 28 0zM695 -76q18 -4 47 -3q26 -1 48 1q0 -1 76 17q37 8 63 20q16 8 36.5 26.5t35.5 34.5q43 53 60.5 111.5t7.5 112.5q-20 118 -110 176q-71 47 -169 66q-19 4 -54 4t-48 -4l-14 -4l11 12q35 42 35 82q0 29 -15 53.5t-37 32.5
q-13 5 -61 4q-25 0 -33 1q-46 13 -44 64q1 16 6 26q13 25 54 52q25 17 33.5 26t8.5 22t-7.5 24t-31.5 31q-37 32 -37 55q0 14 18 34t20 45q2 28 -5 42l1 -8q4 -26 -3 -45q-8 -20 -33 -35q-23 -16 -25.5 -32t12.5 -43q18 -30 19 -47q1 -11 -3 -20q-6 -14 -27 -31
q-44 -35 -57 -84q-5 -17 -5 -43.5t5 -40.5q12 -38 37 -53.5t77 -12.5l29 1l9 -7q17 -13 17 -34q0 -26 -49 -73q-70 -64 -89 -114q-24 -59 4 -96q1 -4 6 -6q19 -22 20 -16q1 2 6 22q32 122 148 136q44 5 88 -2q86 -11 142 -67q64 -66 64 -143q0 -41 -10 -68.5t-32 -55.5
q-13 -16 -37.5 -33.5t-45.5 -25.5q-36 -16 -63 -22q-22 -5 -66 -3t-70 9q-80 20 -80 106q0 42 23 65q17 16 48 24q50 12 64 -29q7 -18 0 -24q-5 -2 -9 1q-13 12 -30.5 8t-24.5 -21q-5 -12 -4 -29.5t8 -29.5q11 -20 27 -29q24 -13 62 -11q38 1 72 16l10 5h-19q-51 1 -63 13
q-5 5 -5 16q2 20 18 43q19 29 2 68q-10 24 -23 37q-14 12 -38 18q-13 4 -43 4t-42 -4q-36 -10 -65 -38t-37 -62q-7 -29 -5 -62q4 -34 19.5 -63t38.5 -45q20 -16 61 -30t72 -18zM26 265l9 -7q8 -7 26.5 -16t31.5 -12.5t71 -3.5t64 -3t9 -8t-2 -19q-10 -29 -1 -53q4 -12 2 -12
q-10 -4 -13 -15q-1 -6 0 -16q2 -13 10.5 -20.5t35.5 -17.5q40 -14 27 -49q-6 -17 -29 -32t-44 -15q-10 0 -41 6q-55 11 -87 3q-13 -4 -15 -5l3 -1q22 6 44 5q25 0 63 -10q32 -10 62 -4q22 5 40 18q13 11 20 29t4 37q-2 12 -5 18q-7 14 -28 22q-11 5 -16 8.5t-4 5.5q4 6 21 0
q14 -5 56 -4.5t63 4.5q30 6 51 22q41 30 37 101q-1 29 -19 48q-16 17 -66 35q-77 28 -100 44q-29 18 -32 32q-10 25 14 42q30 22 68 22q36 0 63 -11q13 -5 24 -15.5t14 -22.5q4 -13 2 -29t-8 -16q-2 0 -10 5t-20 5.5t-13.5 2.5t0.5 11.5t-1 15.5q-6 11 -21 18h-2
q14 -12 16 -17.5t-8 -19.5q-13 -19 -3 -37q5 -10 14 -14q29 -12 54 11q12 12 15 21t3 31q0 34 -9 48t-39 27l-21 11q-25 16 -9 45q6 11 5 10q-1 1 -3 -1t-3.5 -5.5t-4 -7.5t-4.5 -8t-2 -5q-4 -19 7 -33l5 -4h-5q-4 0 -19 3q-32 7 -65.5 -3.5t-55.5 -35.5q-23 -27 -20 -66
q1 -29 20.5 -44.5t100.5 -50.5q50 -23 66.5 -34t23.5 -24q6 -13 3.5 -30.5t-10.5 -26.5q-10 -10 -37 -21t-46 -12q-25 -2 -50.5 8.5t-32.5 26.5q-5 13 0 34l2 9l6 -3q10 -6 23 0q14 6 15 24q0 14 -10 27t-23 17q-32 7 -113 -6q-72 -12 -104 -2q-32 8 -40 15zM1543 385h-8
q-17 -4 -33 5q-13 7 -25 25q-14 24 -37 33q-26 11 -102 1q-70 -7 -88 -3q-7 4 -17.5 12.5t-20.5 8.5t-17 -2q-6 -2 -13 -2q-13 4 -25 28l-5 12l1 -11q2 -22 16.5 -35t30.5 -9q8 1 10.5 0.5t7.5 -9.5q7 -15 31 -17q14 -1 17 -6q5 -8 -2.5 -29t-46.5 -112q-49 -115 -51 -115
l-45 109l-51 122q-1 1 -0.5 2t2.5 1t5 0.5t8 0.5q24 1 30 13q7 12 19 5q30 -18 2 -54q-18 -22 -18 -49q0 -19 14 -32q17 -16 20 -13l-5 5q-26 17 -21 43q5 20 21 43q16 22 16 36q0 19 -21 42q-13 13 -43 17q-14 2 -20 0.5t-16 -11.5q-10 -11 -13.5 -9.5t-9.5 12.5
q-8 16 -15 19.5t-20.5 -1.5t-16.5 -3q-4 2 -10 15q-11 23 -31 21l-9 -1l10 -1q18 -4 23 -25q2 -12 5.5 -15.5t26.5 -0.5q8 1 13 -2q10 -6 68 -165q49 -137 68 -175q29 -60 53 -72q18 -10 17 -27l1 -9q2 2 2.5 14.5t-1.5 16t-15 9.5q-14 5 -16 9q-8 8 0 35q5 17 60.5 148
t68.5 155q13 26 48 43q28 14 50 12q34 -6 56 -37q25 -36 53 -26z" />
    <glyph glyph-name="ff" unicode="ff" horiz-adv-x="496" 
d="M125 385q27 83 45 114q56 94 171 94q30 0 51 -14t24 -35q29 35 55.5 50.5t61.5 15.5q32 0 54.5 -17t22.5 -42q0 -14 -11 -24.5t-27 -10.5q-14 0 -23.5 9.5t-9.5 25.5q0 4 4 14.5t4 15.5q0 10 -19 9q-38 0 -64 -49t-46 -156h98l-6 -30h-98l-65 -287q-28 -124 -74 -189
t-105 -65q-30 0 -51 16t-21 38q0 16 9.5 26.5t24.5 10.5q13 0 23.5 -10t10.5 -25q0 -4 -4 -11.5t-4 -12.5q0 -6 6 -10t12 -4q56 0 88 148l79 375h-153l-63 -287q-29 -124 -75 -189t-105 -65q-29 0 -50.5 16t-21.5 38q0 16 9.5 26.5t24 10.5t25 -10t10.5 -25q0 -4 -4.5 -11.5
t-4.5 -12.5q0 -14 19 -14q58 0 86 148l80 375h-81l6 30h82zM391 499h-11q-14 0 -23 9.5t-9 25.5q0 4 3.5 14.5t3.5 14.5q0 11 -19 11q-59 0 -88.5 -43.5t-54.5 -145.5h155q21 70 43 114z" />
    <glyph glyph-name="fi" unicode="fi" horiz-adv-x="448" 
d="M-58 -130q0 -5 -4 -13q-5 -8 -5 -11q0 -11 19 -10q22 0 36 13t27 50t19.5 64t18.5 92q2 14 5 22q54 262 61 278h-78l7 30h77q16 49 29.5 82t38.5 70t62 56.5t86 19.5q40 0 65.5 -17.5t25.5 -45.5q0 -17 -9.5 -28t-27.5 -11q-16 0 -26.5 11t-10.5 28q0 11 7 20l6 8
q0 14 -33 15q-24 0 -42.5 -9.5t-31.5 -24t-26.5 -44.5t-22.5 -56t-22 -74h136q25 0 73 6q6 0 10 1.5t6 1.5l4 -3q0 -8 -44 -173.5t-44 -174.5t9 -9q22 0 70 61l14 -7q-37 -50 -64 -72t-55 -22q-19 0 -31.5 11.5t-12.5 31.5q0 31 58 227q22 83 21 84q0 7 -14 7h-141l-63 -287
q-29 -124 -75 -189t-106 -65q-31 0 -51 15t-20 40q0 16 9.5 26t24 10t25 -10.5t10.5 -24.5z" />
    <glyph glyph-name="fl" unicode="fl" horiz-adv-x="448" 
d="M264 37q0 30 35.5 167.5t37.5 150.5h-149l-61 -278q-29 -126 -76 -193.5t-107 -67.5q-31 0 -51 15t-20 42q0 14 9.5 24.5t22.5 10.5q16 0 26.5 -10t10.5 -23q0 -7 -4.5 -15t-4.5 -9q0 -12 19 -12q13 0 24 6t15 11.5t11 18.5l9 12q19 53 37.5 133.5t39.5 186.5t30 148h-81
l5 30h83q19 66 36.5 101t46.5 67q56 62 135 61q22 0 49 -5t35 -5q5 0 18 5t17.5 5t4.5 -9l-133 -553v-10q0 -8 9 -8q19 0 70 61l14 -7q-40 -55 -65 -75.5t-54 -20.5q-19 0 -31.5 12.5t-12.5 32.5zM370 547q0 6 4.5 16.5t4.5 11.5q0 7 -12 13.5t-26 6.5q-96 0 -142 -192
l-6 -18h150l34 131l1 2q0 5 -4 14t-4 15z" />
    <glyph glyph-name="ffi" unicode="ffi" horiz-adv-x="496" 
d="M125 385q27 83 45 114q56 94 171 94q31 0 53 -15q21 -14 24 -38q2 2 5.5 7t17 18t29 22t40.5 17.5t53 8.5q41 0 66.5 -17.5t25.5 -45.5q0 -17 -9.5 -28t-27 -11t-27.5 11t-10 28q0 14 6 21q6 5 6 7q-1 14 -31 15q-40 0 -67.5 -29.5t-39.5 -61.5t-35 -108l-4 -9h136
q26 0 58 4l31 5l5 -3q0 -7 -44.5 -173t-44.5 -175t8 -9q10 0 31.5 19.5t39.5 41.5l14 -7q-38 -52 -65 -73t-55 -21q-19 0 -31 11.5t-12 31.5q0 31 58 227q20 79 20 84q0 7 -14 7h-139l-65 -287q-28 -124 -74 -189t-106 -65q-32 0 -51.5 15t-19.5 40q0 16 9.5 26t24.5 10
q13 0 23.5 -10t10.5 -25q0 -5 -4 -12t-4 -12q1 -11 18 -10q44 -1 70 78q13 40 37 163q53 259 60 278h-153l-63 -287q-29 -124 -75 -189t-105 -65q-29 0 -50.5 16t-21.5 38q0 16 9.5 26.5t24 10.5t25 -10t10.5 -25q0 -4 -4.5 -11.5t-4.5 -12.5q0 -14 19 -14q58 0 86 148
l80 375h-81l6 30h82zM391 499h-11q-14 0 -23 9.5t-9 25.5q0 4 3.5 14.5t3.5 14.5q0 11 -19 11q-59 0 -88.5 -43.5t-54.5 -145.5h155q23 77 43 114z" />
    <glyph glyph-name="ffl" unicode="ffl" horiz-adv-x="496" 
d="M593 547q0 5 4.5 15t4.5 13q0 7 -12 13.5t-26 6.5q-95 0 -142 -192l-6 -18h150l34 131l1 2q0 2 -4 11.5t-4 17.5zM125 385q27 83 45 114q56 94 171 94q31 0 53 -15q21 -15 24 -40q64 77 148 76q19 0 48 -5t35.5 -5t20 5t14.5 5q5 0 5 -9l-132 -553v-10q0 -8 8 -8
q18 0 71 61l14 -7q-40 -55 -66 -76q-26 -20 -54 -20q-19 0 -31 12.5t-12 32.5q0 23 14.5 85.5t34.5 135t24 97.5h-148l-63 -278q-28 -126 -75 -193.5t-107 -67.5q-32 0 -51.5 15t-19.5 42q0 14 9.5 24.5t21.5 10.5q16 0 26.5 -10t10.5 -23q0 -7 -4 -14t-4 -10q0 -12 19 -12
q17 0 30 10.5t28 37.5q18 48 34.5 120.5t37.5 181.5t36 166h-153l-63 -287q-29 -124 -75 -189t-105 -65q-29 0 -50.5 16t-21.5 38q0 16 9.5 26.5t24 10.5t25 -10t10.5 -25q0 -4 -4.5 -11.5t-4.5 -12.5q0 -14 19 -14q58 0 86 148l80 375h-81l6 30h82zM391 499h-11
q-14 0 -23 9.5t-9 25.5q0 4 3.5 14.5t3.5 14.5q0 11 -19 11q-59 0 -88.5 -43.5t-54.5 -145.5h154q22 74 44 114z" />
    <glyph glyph-name=".notdef" horiz-adv-x="328" 
d="M19 487v-468h291v468h-291zM329 0h-329v508h329v-508z" />
    <glyph glyph-name=".null" horiz-adv-x="0" 
 />
    <glyph glyph-name="nonmarkingreturn" horiz-adv-x="297" 
 />
    <glyph glyph-name="space" unicode=" " horiz-adv-x="200" 
 />
    <glyph glyph-name="exclam" unicode="!" horiz-adv-x="380" 
d="M200 550q-23 0 -44.5 -9.5t-37 -26.5t-23 -39t-5.5 -45l20 -206v-1q2 -38 27 -66q25 -29 62 -36l8 -2q-41 -3 -72 -34q-35 -36 -35 -85t35.5 -84.5t84.5 -35.5t84.5 35.5t35.5 84.5t-35 85q-31 31 -72 34q40 5 68 35q27 30 29 70l20 206q2 23 -5.5 45t-23 39t-37 26.5
t-44.5 9.5h-40zM200 530h40q19 0 36.5 -7.5t30 -22t18.5 -32.5t5 -37l-20 -205v-1q-1 -33 -23.5 -57.5t-55.5 -28.5h-6h-4h-2v0h-7q-5 0 -9 1q-31 6 -51.5 29.5t-21.5 55.5l-20 206q-1 19 5 37t18.5 32.5t30 22t36.5 7.5zM220 100q41 0 70.5 -29.5t29.5 -70.5t-29.5 -70.5
t-70.5 -29.5t-70.5 29.5t-29.5 70.5t29.5 70.5t70.5 29.5z" />
    <glyph glyph-name="quotedbl" unicode="&#x22;" horiz-adv-x="442" 
d="M284 591q-11 0 -23 -3q-11 -2 -20 -6q0 -1 -1 -1q-15 7 -32 9q-10 1 -19 0v0q-30 -1 -60 -27q-29 -24 -37 -52v-1q-5 -17 -2 -35q6 -33 33 -52q-8 -25 1 -50q10 -29 37.5 -44t57.5 -7q10 2 19 8q10 -12 23 -20q28 -15 59.5 -7t47.5 36q14 21 25 48q1 2 5 11.5t5.5 14
t4.5 14.5t3.5 18t1 18.5t-2.5 22t-7 23.5q-16 39 -53 62q-31 20 -63 20h-3zM284 571h3q26 0 53 -17q31 -20 44 -52q5 -13 7 -24.5t2.5 -19.5t-2 -18.5t-4.5 -15.5t-6.5 -15.5t-6.5 -13.5q-4 -12 -10 -23.5t-9 -16.5l-4 -6q-12 -21 -35.5 -27t-44.5 6q-9 5 -16 13q6 7 12 15
v0q10 15 22 39q0 1 5 10.5t6.5 13.5t5 14.5t4 18.5t0.5 20t-3 25q-7 32 -30 57q-7 8 -15 14q2 0 3 1q10 2 19 2zM193 570h13q32 -4 56 -30q20 -20 25 -47q3 -14 4 -25t-2 -21l-4.5 -15t-7 -15.5t-6.5 -12.5l-21 -37q-13 -20 -35.5 -25.5t-43.5 5.5t-28.5 33t2.5 44q1 1 1 4
q0 6 -6 8q-25 14 -30 43q-3 13 1 26q6 22 31 43t48 22h3z" />
    <glyph glyph-name="numbersign" unicode="#" horiz-adv-x="540" 
d="M223 457q-26 -1 -47 -16q-18 -14 -27 -36q-21 -9 -35 -27q-16 -20 -16.5 -46t14.5 -47q12 -18 32 -27v-16q-20 -9 -32 -27q-15 -21 -14.5 -47t16.5 -46q14 -18 36 -27q8 -22 26 -35q21 -16 46.5 -16.5t47.5 14.5q17 12 27 32h15q9 -20 27 -32q21 -15 47 -14.5t47 16.5
q18 13 26 35q22 9 36 27q15 20 15.5 46t-13.5 47q-12 18 -33 27v16q21 9 33 27q14 21 13.5 47t-15.5 46q-14 18 -36 26q-8 23 -27 37q-22 16 -49 16q-25 -1 -45 -15q-17 -12 -26 -32h-15q-10 20 -27 32q-21 15 -47 15zM223.5 436.5q19.5 0.5 35 -10.5t22.5 -29l2 -7h7h28h7
l3 7q6 17 21.5 28t33.5 12q20 0 36.5 -12t22.5 -31l1 -5l5 -2q19 -5 30.5 -20.5t12 -35t-10.5 -35.5t-29 -23l-7 -2v-7v-28v-7l7 -2q18 -7 29 -23t10.5 -35.5t-12 -35t-30.5 -20.5l-5 -2l-1 -5q-6 -19 -21.5 -30.5t-35 -12t-35.5 10.5t-22 29l-3 7h-7h-28h-7l-2 -7
q-7 -18 -23 -29t-35.5 -10.5t-35 12t-20.5 30.5l-2 5l-5 2q-18 5 -30 20.5t-12.5 35t10.5 35.5t30 23l6 2v7v28v7l-6 2q-19 7 -30 23t-10.5 35.5t12.5 35t30 20.5l5 2l2 5q6 19 21.5 30.5t35 12zM304.5 274q-10.5 0 -17 -6.5t-6.5 -17.5t6.5 -17.5t17 -6.5t17 6.5t6.5 17.5
t-6.5 17.5t-17 6.5zM304.5 254q0.5 0 2.5 -1l1 -3l-1 -3q-2 -1 -2.5 -1t-3.5 1v3v3q3 1 3.5 1z" />
    <glyph glyph-name="dollar" unicode="$" horiz-adv-x="560" 
d="M308 611q-45 0 -77 -33q-20 -20 -27 -48q-9 -4 -17 -8q-35 -18 -62.5 -50t-33.5 -79q-7 -58 27 -107l3 -3q5 -8 11 -15q-29 -22 -38 -57q-12 -42 8 -80q42 -85 111 -119q8 -30 29 -51q32 -32 78 -32t78 32q26 26 31 62q7 4 13 8q85 56 88 145q1 31 -11 60.5t-30 49.5
q-1 1 -2 2.5t-2 1.5q32 24 42 62q6 21 2.5 43.5t-15.5 41.5q-34 56 -96 86q-2 10 -6 20q-8 20 -24 36t-36.5 24.5t-43.5 7.5zM309 591q18 1 35 -6t30 -20t19 -30q4 -9 6 -19v-2q1 -7 1 -14q0 -10 10 -10t10 10q49 -28 77 -74q10 -15 12.5 -33.5t-1.5 -36.5q-10 -37 -43 -56
h-1q-14 -8 -30 -10q-18 -3 -36 2q-36 9 -55 41v1q-12 19 -43 32q-28 11 -59 11h-10q-9 -1 -9 -10q0 -10 10 -10h1q32 2 60 -10q24 -10 33 -24q23 -39 68 -51q21 -5 43 -2q16 2 31 9q4 -3 6 -6q16 -17 26.5 -43.5t9.5 -52.5q-3 -79 -79 -129l-3 -2q-3 4 -8 4q-10 0 -10 -10
q1 -38 -25.5 -64.5t-64.5 -26.5t-64 26q-18 18 -24 44v3q-2 9 -2 18q0 10 -10 10t-10 -10v-4q-55 33 -90 104h-1q-16 31 -6 66q8 29 34 48q9 -9 24 -19q18 -13 56 -37q4 -3 57 -29q15 -7 22 -13q8 -5 8 -8q2 -8 10 -8q10 0 10 10v2q-2 11 -16 21q-9 6 -25 14q-52 26 -55 28
q-38 24 -55 36t-28 22v1q-10 9 -17 19q-2 3 -3 4q-13 18 -20 44t-4 50q9 74 85 113l4 2v-6q0 -10 10 -10t10 10q0 9 2 19v3q6 25 23 42q26 27 64 27z" />
    <glyph glyph-name="percent" unicode="%" horiz-adv-x="560" 
d="M410 511q-22 0 -41 -11.5t-29 -30.5l-200 -360q-17 -29 -8 -61.5t38.5 -48.5t61.5 -6.5t48 38.5l200 360v0q11 19 10.5 40.5t-11 40t-29.5 29t-40 10.5zM180 510q-37 0 -63.5 -26.5t-26.5 -63.5t26.5 -63.5t63.5 -26.5t63.5 26.5t26.5 63.5t-26.5 63.5t-63.5 26.5z
M410 491q16 0 30 -8t22 -22t8.5 -30t-7.5 -30h-1l-200 -360q-11 -22 -35.5 -29.5t-46.5 5t-28.5 36.5t5.5 46h1l200 360q7 15 21.5 23.5t30.5 8.5zM180 490q28 0 49 -21t21 -49t-21 -49t-49 -21t-49 21t-21 49t21 49t49 21zM440 170q-37 0 -63.5 -26.5t-26.5 -63.5
t26.5 -63.5t63.5 -26.5t63.5 26.5t26.5 63.5t-26.5 63.5t-63.5 26.5zM440 150q28 0 49 -21t21 -49t-21 -49t-49 -21t-49 21t-21 49t21 49t49 21z" />
    <glyph glyph-name="ampersand" unicode="&#x26;" horiz-adv-x="560" 
d="M307 553h-4q-37 -1 -72.5 -18.5t-57.5 -50.5q-39 -59 -9 -148v0v-1q2 -3 4 -9q2 -5 3 -8q-38 -36 -60 -79q-14 -27 -18 -59t4 -67t31 -63q26 -33 66.5 -47.5t78.5 -10.5q51 5 107 36q9 -10 12 -13q22 -24 55.5 -25t57.5 21.5t25 56t-22 57.5q-3 3 -15 17q20 35 33 73v0
q11 31 -3.5 61.5t-46.5 40.5q-24 8 -47 1q10 13 18 28q29 55 7 110q-30 76 -120 94q-13 3 -27 3zM303 533q14 0 27 -2q79 -16 106 -83q18 -46 -7 -93q-15 -29 -48 -57q-4 -4 -10 -8q-5 7 -9 13q-3 4 -8 4q-10 0 -10 -10q0 -3 2 -5q16 -24 37 -51q3 -4 7 -4q10 0 10 10
q0 3 -2 6t-5 7q8 23 30 35q22 11 46 3t35 -30.5t3 -46.5q-14 -40 -35 -75q-2 -3 -2 -6t3 -6q15 -17 21 -23q17 -18 16 -43t-19 -42t-43 -16t-42 19q-3 3 -9 10t-8 9q-3 3 -7 3q-3 0 -6 -1q0 -1 -2 -2t-3 -1q-53 -30 -100 -35q-33 -4 -69 9t-59 42q-29 36 -31 85.5t17 81.5
q18 37 51 68q6 -12 13 -25q2 -5 9 -5q10 0 10 10q0 2 -2 5q-10 18 -17 35l-1 1q-2 6 -4 11q-1 3 -2.5 6t-2.5 6q-27 80 7 131q19 29 50 44t63 16zM301 414q-9 0 -9 -10v-1v-2q1 -9 10 -9q4 0 7 3l2 2q3 2 3 6q0 8 -7 10h-1q-2 1 -4 1h-1zM257 200q-4 0 -7 -3q-9 -12 -14 -21
q-6 -12 -5 -25q1 -10 8 -16t19 -4v0h1q12 2 33 10q6 3 6 9q0 4 -2 7q-18 22 -30 39q-3 4 -8 4h-1zM258 174q7 -10 14 -19q-11 -4 -16 -4q-5 -1 -5 0v2q-1 7 3 14q1 2 4 7z" />
    <glyph glyph-name="quotesingle" unicode="'" horiz-adv-x="380" 
d="M220 610q-42 0 -76 -25q-44 -34 -44 -85q0 -34 15 -60q5 -9 14 -18q-18 -15 -26 -37q-10 -29 3 -57.5t41.5 -41t57.5 -2.5h1q5 2 15 6.5t35 21.5t44 37t34.5 55.5t15.5 75.5q0 54 -43 94q-40 36 -87 36zM220 590q24 0 40 -7.5t33 -23.5q37 -34 37 -79q0 -36 -14 -68
t-31.5 -50.5t-40 -33.5t-31.5 -19t-14 -6q-22 -8 -43.5 1.5t-31 31t-2 43.5t27.5 33q5 3 5 9q0 5 -4 8q-12 10 -19 21q-12 22 -12 50q0 41 36 69q29 21 64 21z" />
    <glyph glyph-name="parenleft" unicode="(" horiz-adv-x="400" 
d="M291 611h-3q-15 -1 -29 -7q-6 -2 -15.5 -7.5t-33.5 -24.5t-42 -42q-78 -97 -78 -250t78 -250q18 -22 41 -40.5t36 -25.5l14 -7q31 -14 62 -1.5t44 43.5t0 62t-44 43q-1 0 -1 1q-1 0 -6 3q-9 7 -22 22q-42 53 -42 150t42 150q13 16 22 23l6 3l1 1q27 10 40.5 36t7.5 54.5
t-29 46.5q-21 17 -49 17zM291 591q21 0 37 -13q17 -13 21.5 -34.5t-5.5 -41t-31 -27.5q-5 -2 -10 -6q-13 -9 -26 -26q-47 -59 -47 -163t47 -162q13 -17 26 -26q5 -4 10 -6q24 -10 33.5 -33t0 -46t-33 -32.5t-46.5 0.5q-46 21 -84 68q-73 91 -73 237t73 238q38 47 84 68
q10 4 22 5h2z" />
    <glyph glyph-name="parenright" unicode=")" horiz-adv-x="400" 
d="M170 611q-29 0 -51.5 -18t-28 -46.5t8.5 -54t40 -35.5l1 -1q1 0 6 -3q9 -7 22 -23q42 -53 42 -150t-42 -150q-13 -15 -22 -22l-6 -3q0 -1 -1 -1q-31 -12 -44 -43t0 -62t44 -43.5t62 1.5q6 2 15.5 7t33.5 24.5t42 41.5q78 97 78 250t-78 250q-18 23 -41 41.5t-36 25.5
l-14 7q-15 7 -31 7zM170 591q12 0 23 -5q46 -21 84 -68q73 -92 73 -238t-73 -237q-38 -47 -84 -68q-23 -10 -46.5 -0.5t-33 32.5t0 46t33.5 33q5 2 10 6q13 9 26 26q47 58 47 162t-47 163q-13 17 -26 26q-5 4 -10 6q-20 8 -30.5 27t-6.5 40.5t21 35t39 13.5z" />
    <glyph glyph-name="asterisk" unicode="*" horiz-adv-x="500" 
d="M279 441q-25 -1 -42 -18q-12 -13 -16 -31q-15 10 -33.5 10t-33.5 -10t-22 -27t-3 -35q2 -11 9 -21q-18 -4 -31 -16q-18 -18 -18 -43t18 -43q13 -12 31 -16q-10 -15 -10 -33q0 -25 17.5 -42.5t42.5 -17.5q18 0 33 10q4 -18 16 -31q18 -18 43 -18t43 18q12 13 16 31
q15 -10 33 -10q25 0 42.5 17.5t17.5 42.5q0 18 -10 33q18 4 31 16q18 18 18 43t-18 43q-13 12 -31 16q7 10 9 22q4 18 -3.5 35t-23 27t-33.5 9q-18 0 -32 -10q-4 18 -17 31q-18 18 -43 18zM279 421q17 0 29 -12t12 -29v0v-9q0 -10 10 -10q4 0 7 3l7 6q11 12 27 12v0
q13 1 23 -6t15 -18t2.5 -23.5t-11.5 -20.5l-6 -7q-3 -3 -3 -7q0 -10 10 -10h9v0q17 0 29 -11.5t12 -28.5t-12 -28.5t-29 -11.5v0h-9q-10 0 -10 -10q0 -4 3 -7l6 -7q12 -11 12 -27.5t-12 -28.5t-28.5 -12t-27.5 12l-7 6q-3 3 -7 3q-10 0 -10 -10v-9v0q0 -17 -11.5 -29
t-28.5 -12t-28.5 12t-11.5 29v0v9q0 10 -10 10q-4 0 -7 -3l-7 -6q-11 -12 -27.5 -12t-28.5 12t-12 28.5t12 27.5l6 7q3 3 3 7q0 10 -10 10h-9v0q-17 0 -29 11.5t-12 28.5t12 28.5t29 11.5v0h9q10 0 10 10q0 4 -3 7l-6 7q-9 8 -11.5 20t2 23.5t14.5 18t23 6.5q16 0 28 -12
l7 -6q3 -3 7 -3q10 0 10 10v9v0q0 17 11.5 28.5t27.5 12.5z" />
    <glyph glyph-name="plus" unicode="+" horiz-adv-x="501" 
d="M279 441q-33 -1 -56 -24.5t-23 -56.5v-30h-30q-33 0 -57 -23.5t-24 -56.5t24 -56.5t57 -23.5h30v-30q0 -33 23.5 -57t56.5 -24t56.5 24t23.5 57v30h30q33 0 57 23.5t24 56.5t-24 56.5t-57 23.5h-30v30q0 34 -23.5 58t-57.5 23zM279 421q25 0 43 -18t18 -43v0v-40
q0 -10 10 -10h40v0q25 0 43 -17.5t18 -42.5t-18 -42.5t-43 -17.5v0h-40q-10 0 -10 -10v-40v0q0 -25 -17.5 -43t-42.5 -18t-42.5 18t-17.5 43v0v40q0 10 -10 10h-40v0q-25 0 -43 17.5t-18 42.5t18 42.5t43 17.5v0h40q10 0 10 10v40v0q0 25 17 43t42 18z" />
    <glyph glyph-name="comma" unicode="," horiz-adv-x="220" 
d="M70 230q-45 0 -77 -28q-3 -3 -3 -7q0 -10 10 -10q4 0 7 2q26 23 63 23q35 -1 67 -29.5t33 -70.5q0 -15 -3 -27q-5 -25 -26 -63q-39 -68 -86 -115q-14 -15 -35 -15t-35.5 14.5t-14.5 35.5t15 35q11 12 31 38q2 3 2 6q0 5 -4 8q-7 5 -14 13q-6 5 -10 10q-3 4 -8 4
q-10 0 -10 -10q0 -4 3 -7q4 -5 10 -12q5 -4 9 -7q-17 -22 -24 -28q-20 -21 -20 -50t20.5 -49.5t49.5 -20.5t50 20q48 49 88 121q23 40 28 68v0q4 15 4 31v0q-1 51 -38.5 85t-81.5 35v0z" />
    <glyph glyph-name="hyphen" unicode="-" horiz-adv-x="501" 
d="M168 330q-32 0 -55 -23q-24 -24 -24 -57t24 -56.5t57 -23.5h220q33 0 57 23.5t24 56.5t-24 56.5t-57 23.5h-220h-2zM170 310v0h220v0q25 0 43 -17.5t18 -42.5t-18 -42.5t-43 -17.5v0h-220v0q-25 0 -43 17.5t-18 42.5t18 42.5t43 17.5z" />
    <glyph glyph-name="period" unicode="." horiz-adv-x="240" 
d="M90 230q-49 0 -85 -35q-7 -8 -13 -16q-2 -2 -2 -6q0 -10 10 -10q5 0 8 4q5 6 12 13q29 30 70 30t70.5 -29.5t29.5 -70.5t-29.5 -70.5t-70.5 -29.5t-70 30q-13 12 -20 25q-2 5 -9 5q-10 0 -10 -10q0 -3 2 -5q8 -15 22 -30q36 -35 85 -35t84.5 35.5t35.5 84.5t-35.5 84.5
t-84.5 35.5z" />
    <glyph glyph-name="slash" unicode="/" 
d="M309 571q-27 -1 -47.5 -17t-28.5 -41l-139 -460h-1q-10 -32 5.5 -61.5t47.5 -39t61.5 6.5t39.5 48l139 460h1q5 18 2 37t-14.5 34.5t-29 24t-36.5 8.5zM309 551q15 0 28 -6.5t21.5 -18t11 -25.5t-2.5 -28l-140 -460v-1q-7 -24 -29 -36t-46 -4.5t-35.5 29.5t-3.5 46
l140 460v1q5 19 20.5 31t35.5 12z" />
    <glyph glyph-name="zero" unicode="0" horiz-adv-x="380" 
d="M170 561q-57 0 -112 -11t-76 -32q-5 -5 -9 -11q-2 -2 -2 -6q0 -10 10 -10q5 0 8 4q4 5 7 9q17 16 66 26q53 11 108 11t108 -11q49 -10 66 -26q26 -27 26 -64v-340q0 -37 -26 -64q-17 -16 -66 -26q-120 -24 -226 0q-42 9 -57 26q-4 5 -7 10q-3 4 -8 4q-10 0 -10 -10
q0 -3 2 -6q4 -6 8 -11q19 -22 68 -33q110 -25 234 0q55 11 76 32q32 32 32 78v340q0 46 -32 78q-21 21 -76 32t-112 11zM170 354q-11 0 -17 -7q-28 -28 -28 -77t28 -77q6 -7 17 -7t17 7q28 28 28 77t-28 77q-6 7 -17 7zM170 334q2 0 3 -1q22 -22 22 -63t-22 -63q-1 -1 -3 -1
t-3 1q-22 22 -22 63t22 63q1 1 3 1z" />
    <glyph glyph-name="one" unicode="1" horiz-adv-x="260" 
d="M157 550q-35 -1 -63 -22l-80 -60q-12 -9 -22 -21q-2 -3 -2 -7q0 -10 10 -10q5 0 8 4q8 10 18 18l80 60q23 17 51 18q19 0 36 -6.5t30 -18.5q27 -27 27 -65v-340v0q1 -38 -25.5 -64.5t-64.5 -26.5t-64.5 26.5t-25.5 64.5v0v181q0 8 -8 10q-33 6 -54 33q-3 4 -8 4
q-10 0 -10 -10q0 -4 2 -6q22 -29 58 -39v-173q-1 -46 31.5 -78.5t78.5 -32.5t78.5 32.5t31.5 78.5v340q0 47 -33 79q-16 15 -37 23.5t-43 7.5z" />
    <glyph glyph-name="two" unicode="2" horiz-adv-x="381" 
d="M58 550q-55 -11 -76 -32q-5 -5 -9 -11q-2 -3 -1.5 -7t3.5 -6.5t7 -2t7 3.5q4 5 7 9q17 16 66 26q42 9 94 8q46 0 123 -8q27 -3 38 -8q18 -8 31 -23t18 -34q4 -12 3 -39q-3 -96 -30 -207v-1q-5 -21 -10 -31v-1q-1 -2 -3 -3v-1q-15 -23 -51 -43.5t-65 -26.5q-5 0 -7 -3.5
t-1.5 -8t4 -6.5t7.5 -1q34 6 71 26t57 49q18 -16 25 -39q10 -28 1 -56.5t-33 -45.5t-54 -17h-220q-30 0 -53 18q-11 7 -19 18q-2 4 -6.5 4.5t-7.5 -2t-4 -7t2 -7.5q10 -13 23 -23q29 -21 65 -21h220q36 0 65.5 21t40.5 55.5t-1 69.5q-10 29 -34 49q6 14 8 29q27 113 30 212
q1 30 -3 45q-7 23 -23 41t-37 28q-15 7 -45 10q-78 8 -125 8q-59 -1 -98 -8zM158 350q-8 0 -10 -8q-6 -34 -34 -55t-63 -17q-25 2 -45 17q-3 3 -7.5 2.5t-7 -4t-2 -7.5t4.5 -7q25 -18 55 -21q20 -2 40 3l-91 -62q-4 -3 -4.5 -7t2 -7.5t6.5 -4t7 1.5l154 105q4 3 4 7l8 53
q0 4 -3 7.5t-7 3.5h-7z" />
    <glyph glyph-name="three" unicode="3" horiz-adv-x="383" 
d="M57 550q-44 -1 -76 -32q-4 -4 -9 -10q-2 -3 -2 -7t3.5 -7t8 -2t6.5 4q3 4 7 8q26 26 63 26h2h220q22 0 41 -10t32 -27.5t16 -39t-4 -41.5l-24 -74l-16 -46q-1 -4 1 -8t6 -5t7.5 0.5t4.5 5.5l9 27l2 -2q12 -18 15 -51q8 -83 0 -158q-5 -43 -26 -65q-27 -26 -64 -26h-220
q-37 0 -64 26l-8 10q-2 3 -6.5 4t-7.5 -1.5t-4 -7t2 -7.5l10 -12q32 -32 78 -32h220q46 0 78 32q26 27 32 77q8 77 0 162q-4 38 -18 60l-11 15l2 5q3 10 10.5 32.5t11.5 33.5q9 27 4 50q-5 27 -20 47q-15 22 -38.5 34t-50.5 12h-220h-3zM-1 369q-7 0 -9 -7t4 -11
q30 -21 65 -21h1h80q-10 -14 -13 -29q-9 -34 16 -58q6 -6 27 -19v-21l-1 -1q-5 0 -8 4q-16 35 -50 53q-35 18 -73 10q-24 -5 -44 -20q-3 -2 -4 -6t1.5 -7.5t7 -4t7.5 1.5q16 12 36 16q31 7 59.5 -8t41.5 -45q1 -1 1 -2q9 -12 25 -12q8 0 13 4q8 5 8 14v30q0 5 -4 8
t-10.5 6.5t-11 6.5t-7.5 6q-16 17 -11 39q5 18 20 34h4q4 0 7 3t3 7t-3 7t-7 3h-8h-102q-30 0 -54 17q-3 2 -7 2z" />
    <glyph glyph-name="four" unicode="4" horiz-adv-x="380" 
d="M280 551q-25 0 -47 -10.5t-37 -29.5l-204 -241q-2 -2 -2 -6q0 -10 10 -10q5 0 8 3l203 241q13 16 31 24.5t38 8.5q26 0 48.5 -14t34 -38t7.5 -50.5t-21 -46.5l-1 -1l-6 -8q-33 20 -64 18q-47 -2 -77 -33q-32 -33 -31 -78v-45q0 -10 10 -10t10 10v45v0q-1 37 25 64
q25 26 64 27q29 2 60 -19q16 -13 22 -23q9 -18 9 -49v-100v-80v0q0 -35 -23 -61t-58 -29.5t-63 17t-34 55.5q-2 8 -10 8h-122q-26 0 -48 14q-3 2 -6 2q-10 0 -10 -10q0 -6 5 -9q27 -17 59 -17h114q10 -37 40 -59q34 -26 77 -21.5t71.5 36t27.5 74.5v80v100v0q0 36 -12 58
q-6 13 -19 24l5 7q21 25 26 57q4 32 -9.5 61.5t-41 47t-59.5 16.5z" />
    <glyph glyph-name="five" unicode="5" horiz-adv-x="381" 
d="M60 550q-26 0 -48.5 -11t-38.5 -32q-2 -2 -2 -6q0 -10 10 -10q5 0 8 4q13 17 31.5 26t39.5 9h220v0q29 0 53 -17t33.5 -44.5t0.5 -55.5q-8 -24 -27 -41q-27 18 -60 18h-120q-10 0 -10 -10t10 -10h120q30 0 54 -18v0q3 -2 5 -4q13 -12 22 -28q9 -19 9 -40v-180
q0 -37 -26.5 -63.5t-63.5 -26.5h-220v0q-21 0 -40.5 9t-32.5 26q-3 5 -8 5q-10 0 -10 -10q0 -4 3 -7q15 -20 38.5 -31.5t49.5 -11.5h220q46 0 78 32t32 78v180q0 26 -11 49q-8 15 -20 28q-1 0 -1 1q-1 1 -2 1q21 20 30 48q11 34 -0.5 68t-40.5 54.5t-65 20.5h-220zM57 210
q-34 0 -63 -21q-4 -3 -4 -8q0 -10 10 -10q3 0 6 2q23 17 52 17h2v0h120q10 0 10 10t-10 10h-120h-3z" />
    <glyph glyph-name="six" unicode="6" horiz-adv-x="381" 
d="M60 550q-26 0 -48.5 -11t-38.5 -32q-2 -3 -1.5 -7t3.5 -6.5t7 -2t7 3.5q13 17 31.5 26t39.5 9h220q29 0 53 -17t33.5 -44.5t0.5 -55.5q-8 -24 -27 -41q-27 18 -60 18h-220q-4 0 -7 -3t-3 -7t3 -7t7 -3h220q30 0 54 -18q2 -2 5 -4q13 -12 22 -28q9 -19 9 -40v-180
q0 -37 -26.5 -63.5t-63.5 -26.5h-220q-21 0 -40 9.5t-32 26.5q-2 4 -6.5 4.5t-7.5 -2t-4 -7t2 -7.5q16 -21 39 -32.5t49 -11.5h220q46 0 78 32t32 78v180q0 26 -11 49q-12 20 -23 31q21 19 30 47q11 34 -0.5 68t-40.5 54.5t-65 20.5h-220zM170 218q-18 0 -28 -10
q-7 -7 -7 -18t7 -18q10 -10 28 -10t28 10q7 7 7 18t-7 18q-10 10 -28 10zM170 198q9 0 14 -5q1 0 1 -3t-1 -3q-5 -5 -14 -5t-14 5q-1 0 -1 3t1 3q5 5 14 5z" />
    <glyph glyph-name="seven" unicode="7" horiz-adv-x="380" 
d="M60 550q-25 0 -48.5 -11t-39.5 -31q-2 -2 -2 -6q0 -10 10 -10q5 0 8 4q13 16 32 25t40 9v0h220q37 0 63.5 -26.5t26.5 -63.5v-340v0q1 -38 -25.5 -64.5t-64.5 -26.5t-64.5 26.5t-25.5 64.5v0v240q0 10 -10 10h-120v0q-30 0 -54 17q-3 2 -6 2q-10 0 -10 -10q0 -5 4 -8
q30 -21 66 -21h110v-230q-1 -46 31.5 -78.5t78.5 -32.5t78.5 32.5t31.5 78.5v340q0 46 -32 78t-78 32h-220z" />
    <glyph glyph-name="eight" unicode="8" horiz-adv-x="380" 
d="M170 561q-57 0 -112 -11t-76 -32q-5 -5 -9 -11q-2 -2 -2 -6q0 -10 10 -10q5 0 8 4q4 5 7 9q17 16 66 26q53 11 108 11t108 -11q49 -10 66 -26q26 -27 26 -64v-80q0 -21 -9.5 -40t-26.5 -32q-4 -3 -4 -8t4 -8q17 -13 26.5 -32t9.5 -40v-100q0 -37 -26 -64q-17 -16 -66 -26
q-108 -22 -216 0q-49 10 -66 26l-8 10q-3 4 -8 4q-10 0 -10 -10q0 -3 2 -6l10 -12q21 -21 76 -32q112 -22 224 0q55 11 76 32q32 32 32 78v100q0 26 -12 49q-8 18 -23 31q15 13 23 31q12 23 12 49v80q0 46 -32 78q-21 21 -76 32t-112 11zM170 423q-11 0 -20 -4q-6 -2 -10 -6
q-5 -5 -6 -12q-1 -14 14 -22q11 -6 22 -6t22 6q15 8 14 22q-1 7 -6 12q-4 4 -10 6q-9 4 -20 4zM170 403q7 0 13 -2q1 -1 3 -2q-1 -1 -4 -3q-6 -3 -12 -3t-12 3q-3 2 -4 3q2 1 3 2q6 2 13 2zM170 186q-13 0 -25 -8q-6 -4 -10 -9q-5 -8 -2 -16q3 -11 15 -16q10 -5 22 -5t22 5
q12 5 15 16q3 8 -2 16q-4 5 -10 9q-12 8 -25 8zM170 166q7 0 14 -5q3 -1 4 -3q-1 -2 -4 -3q-6 -3 -14 -3t-14 3q-3 1 -4 3q1 2 4 3q7 5 14 5z" />
    <glyph glyph-name="nine" unicode="9" horiz-adv-x="380" 
d="M60 550q-26 0 -48.5 -11t-38.5 -32q-2 -2 -2 -6q0 -10 10 -10q5 0 8 4q13 17 31.5 26t39.5 9h220q37 0 63.5 -26.5t26.5 -63.5v-340v0q1 -38 -25.5 -64.5t-64.5 -26.5t-64.5 26.5t-25.5 64.5v0v60q0 10 -10 10h-120q-30 0 -54 18q-3 2 -6 2q-10 0 -10 -10q0 -5 4 -8
q29 -22 66 -22v0h110v-50q-1 -46 31.5 -78.5t78.5 -32.5t78.5 32.5t31.5 78.5v340q0 46 -32 78t-78 32h-220zM170 378q-18 0 -28 -10q-7 -7 -7 -18t7 -18q10 -10 28 -10t28 10q7 7 7 18t-7 18q-10 10 -28 10zM169.5 358q9.5 0 14.5 -5q1 0 1 -3t-1 -3q-5 -5 -14.5 -5
t-13.5 5q-1 0 -1 3t1 3q4 5 13.5 5z" />
    <glyph glyph-name="colon" unicode=":" horiz-adv-x="380" 
d="M230 510q-49 0 -84.5 -35.5t-35.5 -84.5t35.5 -84.5t84.5 -35.5t84.5 35.5t35.5 84.5t-35.5 84.5t-84.5 35.5zM230 270q-49 0 -84.5 -35.5t-35.5 -84.5t35.5 -84.5t84.5 -35.5t84.5 35.5t35.5 84.5t-35.5 84.5t-84.5 35.5zM230 490q41 0 70.5 -29.5t29.5 -70.5
t-29.5 -70.5t-70.5 -29.5t-70.5 29.5t-29.5 70.5t29.5 70.5t70.5 29.5zM230 250q41 0 70.5 -29.5t29.5 -70.5t-29.5 -70.5t-70.5 -29.5t-70.5 29.5t-29.5 70.5t29.5 70.5t70.5 29.5z" />
    <glyph glyph-name="semicolon" unicode=";" horiz-adv-x="380" 
d="M230 510q-49 0 -84.5 -35.5t-35.5 -84.5t35.5 -84.5t84.5 -35.5t84.5 35.5t35.5 84.5t-35.5 84.5t-84.5 35.5zM230 490q41 0 70.5 -29.5t29.5 -70.5t-29.5 -70.5t-70.5 -29.5t-70.5 29.5t-29.5 70.5t29.5 70.5t70.5 29.5zM230 230q-49 0 -84.5 -35.5t-35.5 -84.5t35 -85
q5 -4 9 -7q-17 -22 -24 -28q-20 -21 -20 -50t20.5 -49.5t49.5 -20.5t50 20q48 49 88 121q23 40 28 68v0q4 15 4 31v0q-1 51 -38.5 85t-81.5 35v0zM230 210q35 -1 67 -29.5t33 -70.5q0 -15 -3 -27q-5 -25 -26 -63q-39 -69 -86 -115q-14 -15 -35 -15t-35.5 14.5t-14.5 35.5
t15 35q11 12 31 38q2 3 2 6q0 5 -4 8q-7 5 -14 13q-30 29 -30 70t29.5 70.5t70.5 29.5z" />
    <glyph glyph-name="less" unicode="&#x3c;" horiz-adv-x="400" 
d="M289 511q-32 -1 -55 -24v0q-32 -31 -65 -71q-30 -36 -49 -65q-10 -17 -14.5 -25.5t-10 -27t-5.5 -38.5q0 -42 30 -92q19 -30 49 -66q33 -40 66 -70v0q24 -23 57.5 -22t56 25t21.5 57t-25 56q-27 26 -54 57q-22 26 -34 46l-4 8q2 5 4 8q12 20 34 47q12 14 26 28.5t21 22.5
l8 8q18 17 23 41t-4.5 47t-30 36.5t-45.5 13.5zM290 491q18 0 33.5 -10t22.5 -27.5t3 -35.5t-17 -31q-28 -28 -56 -61q-23 -28 -36 -48q-4 -7 -7 -15q-1 -2 -1 -4t1 -3q3 -9 7 -16q13 -20 36 -48q12 -14 26 -28.5t21 -22.5l8 -7v0q18 -17 19 -42t-16 -43t-42 -19t-43 16v0
q-32 31 -65 69q-29 34 -47 63q-9 16 -13.5 24.5t-9 24.5t-4.5 33t4.5 33t8.5 23t15 24q17 29 46 63q14 18 30 35t25 26l9 9q17 17 42 18z" />
    <glyph glyph-name="equal" unicode="=" horiz-adv-x="501" 
d="M168 410q-32 0 -55 -23q-24 -24 -24 -57t24 -57q23 -23 55 -23q-32 0 -55 -23q-24 -24 -24 -57t24 -56.5t57 -23.5h220q33 0 57 23.5t24 56.5t-24 57q-23 23 -55 23q32 0 55 23q24 24 24 57t-24 56.5t-57 23.5h-220h-2zM170 390v0h220v0q25 0 43 -17.5t18 -42.5
t-18 -42.5t-43 -17.5v0h-220v0q-25 0 -43 17.5t-18 42.5t18 42.5t43 17.5zM170 230v0h220v0q25 0 43 -17.5t18 -42.5t-18 -42.5t-43 -17.5v0h-220v0q-25 0 -43 17.5t-18 42.5t18 42.5t43 17.5z" />
    <glyph glyph-name="greater" unicode="&#x3e;" horiz-adv-x="400" 
d="M168 511q-24 -1 -44 -14.5t-29 -36.5t-3.5 -47t22.5 -40q28 -27 55 -59q22 -27 34 -47q2 -3 4 -8l-4 -8q-12 -20 -34 -46q-12 -14 -25.5 -28t-20.5 -21l-8 -8q-24 -23 -25 -56t21.5 -57t56 -25t57.5 22q33 30 66 70q30 36 49 66q30 50 30 92q0 20 -5.5 38.5t-10 27
t-14.5 25.5q-19 29 -49 65q-33 40 -65 71v0q-24 24 -58 24zM168 491q26 0 44 -18q32 -31 64 -70q29 -34 46 -63q11 -17 15 -24t8.5 -23t4.5 -33t-4.5 -33t-9 -24.5t-13.5 -24.5q-18 -29 -47 -63q-15 -17 -31 -34t-25 -26l-9 -9v0q-18 -17 -43 -16t-42 19t-16 43t19 42v0
q28 26 55 58q23 28 36 48q4 7 7 16q1 1 1 3t-1 4q-3 8 -7 15q-13 20 -36 48q-12 15 -26 30t-22 23l-8 8q-13 13 -17 30.5t2.5 35t21.5 27.5t33 11z" />
    <glyph glyph-name="question" unicode="?" horiz-adv-x="490" 
d="M280 550q-83 0 -135 -56q-45 -48 -45 -114v0q0 -33 23 -57t56.5 -24t57 24t23.5 57q0 6 5 10q6 4 15 4.5t15 -3.5q4 -3 5 -10l-1 -1l-5 -10q-10 -16 -26 -36t-22.5 -29t-20 -31t-19.5 -45t-6 -49v0q0 -33 23.5 -57t56.5 -24t56.5 24t23.5 57q0 6 7 18q8 14 25 36
q2 2 11.5 13t13 16.5t12 17t12.5 21t9.5 22.5t7.5 27t2 29q0 69 -46 117q-51 53 -134 53zM280 530q75 0 119 -47q41 -42 41 -103q0 -15 -3.5 -30.5t-6.5 -25t-12.5 -24.5t-12.5 -19t-15.5 -19t-12.5 -16q-19 -23 -28 -38q-9 -17 -9 -28v0q0 -25 -17.5 -43t-42.5 -18
t-42.5 18t-17.5 43v0q0 30 12 60t21.5 43t29.5 38q17 21 28 39q4 6 6 11l2 4v2q1 1 1 3q0 18 -14 27q-11 8 -26 7q-16 0 -27 -8q-13 -10 -13 -26v0q0 -25 -17.5 -43t-42.5 -18t-42.5 18t-17.5 43v0q0 58 40 101q45 49 120 49zM280 90q-37 0 -63.5 -26.5t-26.5 -63.5
t26.5 -63.5t63.5 -26.5t63.5 26.5t26.5 63.5t-26.5 63.5t-63.5 26.5zM280 70q28 0 49 -21t21 -49t-21 -49t-49 -21t-49 21t-21 49t21 49t49 21z" />
    <glyph glyph-name="at" unicode="@" horiz-adv-x="539" 
d="M298 486q-55 0 -103 -27t-76 -77q-45 -77 -26 -156q20 -83 102 -131q18 -10 39 -5q13 3 23 14q3 -8 8 -14q10 -12 25 -16q3 -1 9.5 -2t26 -2t35.5 4q75 17 120 96q29 50 29.5 106.5t-27.5 106.5t-79 77q-47 25 -99 26h-7zM301 466h4q47 -1 90 -24q69 -37 89 -115.5
t-20 -146.5q-41 -71 -107 -86q-34 -8 -62 -1q-9 3 -15 10t-7 16q-3 27 4 67q16 2 29 8q6 3 6 9q0 10 -10 10q-2 0 -5 -1q-31 -15 -63 1q-1 0 -1 1q-11 6 -19 20.5t-8 25.5q0 22 16 44q30 45 80 55q10 2 19 -2q5 -2 9 -7q1 0 1 -1h1q5 -7 6 -15q1 -12 -6 -21.5t-19 -11.5v0
q-10 -3 -23 -12t-19 -18v-1q-2 -2 -2 -5q0 -10 10 -10q5 0 8 4l1 1q4 6 13 13q10 7 16 8q19 4 31 19q10 14 10 31q3 -2 5 -5q8 -12 7 -35q0 -2 -0.5 -6.5t-0.5 -5.5v-4.5t-0.5 -4.5t-1.5 -4.5t-2.5 -5.5t-3.5 -6.5t-4 -8.5t-6 -10q-22 -41 -14 -74q1 -8 9 -8q2 0 3 1
q36 11 63 56q28 48 15 101t-61 78q-49 27 -100 14t-78 -61q-29 -49 -17 -97q12 -50 64 -80h1q11 -7 14 -19t-3 -22.5t-18.5 -14t-22.5 3.5h-1q-74 43 -92 117q-18 72 23 142q26 46 70.5 70.5t94.5 23.5zM296 388q30 0 61 -16q40 -22 50.5 -66.5t-13.5 -85.5q-18 -32 -40 -43
q-1 19 15 48q14 25 17 36t4 28q2 31 -11 48q-11 17 -30 21q-3 6 -8 10q-1 1 -2 1q-5 4 -10 6q-15 7 -31 4q-58 -12 -93 -64q-13 -19 -17 -38q1 28 17 55q31 53 87 56h4zM228 194q14 -6 29 -8q-1 -8 -2 -12q-5 5 -10 8q-9 5 -17 12z" />
    <glyph glyph-name="A" unicode="A" horiz-adv-x="490" 
d="M359 551q-26 0 -51 -3q-26 -2 -40.5 -4.5t-41 -9.5t-49.5 -21t-44.5 -35.5t-38 -48t-25.5 -45t-17 -52t-10 -44.5t-8 -48q-12 -74 -14 -137q-2 -39 22.5 -71t63 -40.5t74.5 9.5q32 16 48 48q61 -3 84.5 -26.5t56 -30t63.5 6t49.5 40.5t18.5 61v340q0 43 -29.5 74.5
t-72.5 35.5v0q-11 1 -26 1h-7h-6zM359 531h6h6l26 -1v0q35 -3 59 -29t24 -61v-340q0 -27 -15 -50t-40.5 -33.5t-52 -5t-46.5 24.5q-30 30 -104 33q-7 0 -9 -6q-13 -30 -42 -44.5t-61 -7.5t-51.5 33t-18.5 59v0q2 62 14 134q6 36 7.5 47t9.5 43t16.5 49.5t23.5 42.5t35 45
q20 19 41 32t45.5 19.5t37.5 8.5t40 4q24 3 49 3zM290 340q-2 0 -3 -1q-5 -1 -7 -2h-1q-6 0 -8 -5q-4 -7 -10 -24q-10 -23 -17 -47v-3q0 -9 9 -10q18 -2 35 -4h2q10 0 10 10v76q0 10 -10 10zM280 302v-37q-6 1 -13 1q6 20 12 35z" />
    <glyph glyph-name="B" unicode="B" horiz-adv-x="520" 
d="M160 550h-1q-45 0 -77 -32t-32 -78v-323q-4 -26 4 -51t27 -43v-1l2 -2v0q19 -18 44 -26q24 -8 49 -4h244q46 0 78 32q21 21 32 76t0 128q-6 41 -18 64q12 23 18 64q7 50 0 88q-11 55 -32 76q-32 32 -78 32h-260zM160 530h260q37 0 64 -26q17 -17 26 -66q7 -35 0 -82
q-6 -41 -18 -61q-2 -2 -2 -5t2 -5q12 -20 18 -61q11 -70 0 -122q-9 -49 -26 -66q-27 -26 -64 -26h-244h-2q-21 -4 -41.5 2.5t-35.5 21.5v0q-1 2 -2 2v1q-15 15 -22 35.5t-3 42.5v1v324q0 37 26.5 63.5t63.5 26.5zM280 400q-8 0 -14 -7q-3 -4 -4 -11q-2 -6 -2 -11v-1v0v-1
q0 -6 2 -11q1 -7 4 -11q6 -7 14 -7q12 0 21 9t9 21t-9 21t-21 9zM282 380q3 -1 5 -3q3 -4 3 -7t-3 -7q-2 -2 -5 -3l-1 2l-1 8q0 4 1 8zM280 200q-6 0 -10 -4q-3 -2 -5 -6q-2 -5 -3.5 -13t-1.5 -16v-1v0v-1q0 -8 1 -16q2 -8 4 -13q2 -4 5 -6q4 -4 10 -4q19 0 30 13
q10 11 10 27t-10 27q-11 13 -30 13zM283 180q8 -1 12 -6q5 -6 5 -14t-5 -14q-4 -5 -12 -6q-1 3 -2 7l-1 13q0 7 1 13q1 4 2 7z" />
    <glyph glyph-name="C" unicode="C" horiz-adv-x="520" 
d="M290 563q-67 0 -132 -13q-55 -11 -76 -32q-32 -32 -32 -78v-340q0 -46 32 -78q21 -21 76 -32q65 -13 132 -13t132 13q55 11 76 32q32 32 32 78v100q0 32 -17 60q9 15 14 33q0 1 1 3v1v3q1 2 1 4q1 4 1 7v1v1v3v4v0v120q0 46 -32 78q-21 21 -76 32q-65 13 -132 13z
M290 543q65 0 128 -13q49 -9 66 -26q26 -26 26 -63v-1v-120v0v-3v-0.5v-0.5v-1q0 -3 -1 -6v-3q0 -3 -1 -4q0 -3 -1 -6q0 -1 -1 -2v-3q-1 0 -1 -1v-1t-0.5 -1t-0.5 -0.5v-0.5q0 -1 -1 -2v-2l-2 -4q-1 -1 -1 -2l-2 -4q-1 -1 -1 -1.5t-1 -0.5v-1l-1 -1v-1h-1q-1 -1 -1 -2
q-4 -6 -9 -11q-26 -26 -64 -26t-64 26q-5 5 -8 10l-1 1q-1 2 -2 3t-2 3q-1 1 -2 3q0 1 -1 3l-0.5 0.5t-1.5 2.5v1q-1 1 -1 2v1q-1 1 -1 2l-1 1v3h-1v1v1v1l-1 1q0 2 -1 3v1v1q-1 3 -1 6v3q-1 3 -1 6v1v0.5v0.5v3v0v0v20q0 8 -8 10q-6 1 -13 2q-8 1 -12 1q-7 -1 -13 -5
q-34 -22 -34 -78t34 -78q9 -6 25 -4l13 2q8 2 8 10q0 23 10 43l2 -2q32 -32 78 -32t78 32l2 2q10 -20 10 -43v0v-100q0 -37 -26 -64q-17 -17 -66 -26q-63 -13 -128 -13t-128 13q-49 9 -66 26q-26 27 -26 64v340q0 37 26 64q17 17 66 26q63 13 128 13zM302.5 332h4.5h3v-11
v-1v0v-4q0 -4 1 -8v-4q0 -4 1 -8q4 -19 15 -36q-15 -24 -17 -52h-1h-2h-5.5h-4.5t-1 0q-12 8 -19 26t-7 36t7 36t18 26h2h5.5z" />
    <glyph glyph-name="D" unicode="D" horiz-adv-x="525" 
d="M208 551q-24 0 -51 -1q-44 -1 -75.5 -33t-31.5 -77v-324q0 -36 7 -56q6 -21 25 -39l1 -1q25 -21 47 -27q2 -1 3 -1q182 -4 297 18q47 10 71 35q21 23 29 73q12 77 12 152t-12 152q-8 50 -29 73q-22 23 -71 34q-86 20 -205 22h-17zM206 531q130 0 219 -21q44 -10 61 -29
q17 -18 24 -63q12 -74 12 -148t-12 -148q-7 -45 -24 -63q-19 -21 -60 -29q-112 -22 -291 -18q-18 6 -39 23q-15 15 -20 31q-6 17 -6 50v324q0 37 25.5 63t62.5 27h33q6 1 15 1zM260 342q-10 0 -10 -10v-124q0 -10 10 -10h1q24 2 35 5q16 4 23 12q8 9 10 23q1 10 1 32
q0 38 -9 51q-15 19 -61 21zM270 321q28 -2 34 -12q6 -7 6 -39q0 -21 -1 -29q-1 -9 -5 -12q-3 -4 -13 -7q-6 -1 -21 -3v102z" />
    <glyph glyph-name="E" unicode="E" horiz-adv-x="520" 
d="M155 550q-23 0 -44.5 -10.5t-36.5 -29t-21 -41.5q-3 -9 -3 -45v-308q0 -36 4 -48q7 -24 24.5 -42.5t40.5 -27.5t48 -8h253q46 0 78 32.5t32 77.5v80q0 26 -11 50h-1q-1 3 -3 6q15 25 15 54.5t-14 55.5l4 8q10 22 10 46v40q0 46 -32 78t-78 32h-254q-6 1 -11 0zM166 530
h254q38 0 64 -26t26 -64v-40q0 -19 -8 -37q-7 -16 -22 -23t-31 -6q-23 2 -82.5 11.5t-106.5 9.5q-4 0 -7 -3t-3 -7t3 -7t7 -3q45 0 103.5 -9.5t83.5 -11.5q31 -2 54 16q9 -19 9 -39q0 -21 -9 -39q-30 27 -66 16q-21 -5 -58 -18t-62.5 -19t-54.5 -6q-4 0 -7 -3t-3 -7t3 -7
t7 -3q31 0 58.5 6.5t65 19.5t56.5 18q16 5 33 -2.5t28 -25.5q9 -19 9 -41v-80q0 -37 -26 -63.5t-64 -26.5h-253h-1q-20 -1 -39.5 6.5t-33.5 22.5t-20 35q-3 9 -3 42v308q0 33 2 40q5 18 17.5 33.5t30 24t36.5 8.5q5 1 10 0z" />
    <glyph glyph-name="F" unicode="F" 
d="M320 550h-3q-34 -1 -62 -21l-220 -160q-37 -27 -44 -72t20 -82l220 -300q27 -38 72 -45q22 -4 44 1t39 18q38 28 44 74q3 22 -2.5 43.5t-18.5 38.5l-12 16l1 1q32 32 32 78v40q0 26 -12 49q-8 17 -23 31q11 10 19 22q2 4 3 7h1v0.5t0.5 1t0.5 1.5l1 2q10 22 10 46v100
q0 47 -33 79q-16 15 -37 23q-20 8 -40 8zM320 530q17 0 33 -6q17 -7 30 -19q27 -27 27 -65v-99v-1q0 -20 -8 -38t-23 -30l-5 -5l-87 -74q-4 -3 -4 -8q0 -10 10 -10q4 0 7 3l80 69q13 -12 20 -27q10 -19 10 -40v-40q0 -37 -26 -64l-7 -7q-3 -3 -3 -7q0 -3 2 -6l17 -23
q11 -14 15.5 -32t2.5 -36q-6 -37 -36 -60q-15 -10 -32.5 -14.5t-35.5 -1.5q-38 6 -59 38h-1l-220 300q-22 30 -16 67t36 59l220 160q23 16 50 17h3z" />
    <glyph glyph-name="G" unicode="G" horiz-adv-x="520" 
d="M290 563q-67 0 -132 -13q-55 -11 -76 -32q-32 -32 -32 -78v-340q0 -46 32 -78q21 -21 76 -32q65 -13 132 -13t132 13q55 11 76 32q32 32 32 78v159v1v0q0 6 -1 12v4q-4 23 -16 43q17 28 17 61v60q0 46 -32 78q-21 21 -76 32q-65 13 -132 13zM290 543q65 0 128 -13
q49 -9 66 -26q26 -27 26 -64v-60v0q0 -23 -11 -44q0 1 -1 2q-32 32 -78 32h-100q-46 1 -78.5 -31.5t-32.5 -78.5t32 -78q29 -28 69 -32v-50q0 -10 10 -10t10 10v60q0 10 -10 10q-38 -1 -64.5 25.5t-26.5 64.5t26.5 64.5t64.5 25.5v0h100q37 0 64 -26l6 -8l2 -3q2 -2 4 -5v-1
q2 -2 3 -5l0.5 -0.5l0.5 -0.5q1 -2 1 -3q1 0 1 -1v-1l2 -4q0 -1 1 -2q0 -1 1 -4v-1q1 -1 1 -3v-1q1 -3 2 -7v-3q1 -2 1 -3.5v-4v-3.5v-160q0 -37 -26 -64q-17 -17 -66 -26q-63 -13 -128 -13t-128 13q-49 9 -66 26q-26 27 -26 64v340q0 37 26 64q17 17 66 26q63 13 128 13z
" />
    <glyph glyph-name="H" unicode="H" horiz-adv-x="520" 
d="M158 551q-45 0 -77 -33t-31 -78v-340q-1 -46 31.5 -78.5t78.5 -32.5t78.5 32.5t31.5 78.5v10q24 -3 39 -6v-1v-2v0v-1v0q1 -45 33 -77t77 -32t77 31.5t33 76.5v0v1v170v170q0 22 -8 42.5t-24 36.5t-36.5 24.5t-42.5 7.5q-46 0 -77.5 -33t-31.5 -78v-109q-18 2 -39 3v106
q0 22 -8 42.5t-24 36.5t-36.5 24.5t-43.5 7.5zM159 531q18 1 35 -6t30 -20t19.5 -30t6.5 -35v0v-105q-6 0 -8 1h-1q-9 -1 -9 -10q0 -10 9 -10q31 -3 56 -6q23 -2 41 -5q1 -1 2 -1q10 0 10 10q0 9 -9 10q-5 1 -12 2v114v0q0 37 26 64t63 27q18 1 35 -6t30 -20t19.5 -30
t6.5 -35v0v-170v-170v-1q-1 -37 -27 -62.5t-63 -25.5t-63 26t-27 63v1v1q17 -4 29 -6q1 -1 2 -1q10 0 10 10q0 9 -8 10q-4 1 -37 9q-20 4 -50 8q-21 2 -48 4h-1q-10 0 -10 -10q0 -9 10 -10q11 -1 24 -2v-14v0q1 -38 -25.5 -64.5t-64.5 -26.5t-64.5 26.5t-25.5 64.5v0v340v0
q-1 37 25 64t64 27z" />
    <glyph glyph-name="I" unicode="I" horiz-adv-x="300" 
d="M160 550q-46 0 -78 -32t-32 -78v-324q0 -37 4 -50q22 -55 73 -72q13 -4 23.5 -4.5t28 0t21.5 0.5q46 0 78 32t32 78v340q0 46 -32 78t-78 32h-40zM160 530h40q37 0 63.5 -26.5t26.5 -63.5v-340q0 -37 -26.5 -63.5t-63.5 -26.5q-7 0 -18 -0.5t-17 -0.5t-15 1t-17 3
q-42 14 -60 60q-3 9 -3 43v324q0 37 26.5 63.5t63.5 26.5z" />
    <glyph glyph-name="J" unicode="J" horiz-adv-x="480" 
d="M378 551q-45 0 -77 -33t-31 -78v-115q-1 39 -27 68q-30 35 -76 38t-80 -27.5t-37 -76.5v0q-3 -45 2 -99q0 -3 1 -20t2 -23t3.5 -22t5 -25t8.5 -24t13 -26t17.5 -24t23.5 -25q14 -13 28 -23t30 -15.5t26.5 -9t28 -5t23.5 -2t24.5 0t20.5 0.5q49 0 90 6q40 6 66.5 37
t26.5 72v340q0 22 -8 42.5t-24 36.5t-36.5 24.5t-43.5 7.5zM379 531q18 1 35 -6t30 -20t19.5 -30t6.5 -35v0v-340q0 -33 -21.5 -58.5t-54.5 -30.5v0q-40 -6 -87 -6q-5 0 -21 -0.5t-23 0t-22 1.5t-25 4t-24 8.5t-27 14.5t-26 21q-14 12 -24 24.5t-17 27.5t-11.5 24.5t-7.5 27
t-3.5 23.5t-2 26t-1.5 23q-2 23 -2.5 47t0.5 36v13q2 38 30 63t66 22.5t62.5 -31t21.5 -66.5v0q-2 -33 1 -69q1 -18 12 -48q1 -5 7 -6q3 -1 8 -2q1 -1 2 -1q10 0 10 10v242v0q-1 37 25 64t64 27zM270 321v-60q-2 31 0 52v8z" />
    <glyph glyph-name="K" unicode="K" horiz-adv-x="480" 
d="M367 552q-27 0 -48 -16q-18 -15 -33 -46q-3 -7 -16 -39q-2 16 -8 32q-8 20 -24 36t-36.5 24.5t-43.5 7.5q-45 0 -77 -33t-31 -78v-340q-1 -46 31.5 -78.5t78.5 -32.5t78.5 32.5t31.5 78.5v64q4 -15 5 -48q1 -23 1.5 -34t7 -29.5t18.5 -31.5q32 -32 78 -32t78.5 32.5
t31.5 78.5q0 1 1 20.5t1 35.5q-1 53 -14 98q-6 20 -16 40q4 6 7 10q20 41 24 89t-11 90q-8 20 -24 36t-37 24q-20 9 -42 8q-5 1 -8 1h-4zM366 532h11q1 -1 2 -1q18 1 35 -6t29.5 -20t19.5 -30q14 -35 10 -80.5t-22 -80.5q-3 -6 -9 -14q-2 -2 -2 -6q0 -2 2 -4q11 -21 17 -42
q12 -42 13 -92q0 -15 -1 -34t-1 -22v0q1 -38 -25.5 -64.5t-64.5 -26.5t-64 26q-9 10 -14 24.5t-6 25.5t-1 32q-1 22 -2 33.5t-7.5 28.5t-18.5 29q-3 2 -7 2q-10 0 -10 -10v-100v0q1 -38 -25.5 -64.5t-64.5 -26.5t-64.5 26.5t-25.5 64.5v0v340v0q-1 37 25 64t64 27
q18 1 35 -6t30 -20t19.5 -30t6.5 -35v0v-20q0 -10 10 -10h1q9 1 16 10q4 6 9 17q1 4 7.5 20t10.5 25q13 26 28 38q14 11 31 12h3z" />
    <glyph glyph-name="L" unicode="L" horiz-adv-x="330" 
d="M221 550h-5q-32 -1 -58 -19q-31 -21 -42 -56l-100 -300q-14 -42 4.5 -81.5t58.5 -55.5l100 -40q26 -10 53 -7t49.5 18t35.5 39q9 17 13 26q8 16 10 24q7 34 0 71q-4 26 -11 40t-25 18q-3 1 -7 2q8 14 11 29v1l20 98v1q10 45 -3 116l-1 1q-10 32 -37.5 52.5t-61.5 22.5h-4
zM221 530h3q28 -1 50 -18t31 -43q4 -22 5.5 -53t-2.5 -54l-20 -100q-4 -20 -16 -36q-2 -3 -2 -6q0 -10 10 -10h1q9 0 18 -2q10 -3 12 -7q6 -12 10 -35q5 -33 -1 -64q-1 -5 -8 -19q-4 -9 -12 -25q-11 -20 -29.5 -32.5t-41 -15t-42.5 5.5l-100 40q-34 14 -49 46.5t-3 65.5
l100 300q9 29 34 46q22 15 48 16h4z" />
    <glyph glyph-name="M" unicode="M" horiz-adv-x="560" 
d="M161 550q-46 0 -78.5 -32t-32.5 -78v-340q0 -39 24.5 -69.5t62.5 -39t73 9.5q29 15 46 43q25 -14 54 -14t54 14q17 -28 46 -43q35 -18 73 -10t62.5 39t24.5 70v340q0 38 -24 68t-61 39t-71.5 -7.5t-51.5 -50.5l-52 -103l-52 103v1q-14 27 -40 43q-26 17 -57 17zM158 530
h3q25 0 46.5 -13.5t32.5 -36.5l61 -121l15 -29q2 -6 9 -6q10 0 10 10q0 3 -2 5l-12 25l59 116q13 28 41.5 41.5t59 6t50 -32t19.5 -55.5v-340v0q0 -32 -20 -57t-51.5 -32t-59.5 8q-25 12 -38 37q17 15 27 35q2 2 2 5q0 10 -10 10q-7 0 -10 -6q-9 -20 -27 -32v-1h-1
q-23 -17 -52 -17t-52 17h-1q-18 13 -27 33q-3 5 -9 5q-10 0 -10 -10q0 -2 1 -4q10 -20 27 -35q-13 -25 -38 -37q-28 -15 -59.5 -8t-51.5 32t-20 57v0v340q0 37 27 64q25 25 61 26z" />
    <glyph glyph-name="N" unicode="N" horiz-adv-x="520" 
d="M418 551q-45 0 -77 -33t-31 -78v-15l-63 82q-21 28 -55 38.5t-67.5 -1t-54 -40.5t-20.5 -64v-340q-1 -46 31.5 -78.5t78.5 -32.5t78.5 32.5t31.5 78.5v15l63 -82q21 -28 55 -38.5t67.5 1t54 40.5t20.5 64v340q0 22 -8 42.5t-24 36.5t-36.5 24.5t-43.5 7.5zM419 531
q18 1 35 -6t30 -20t19.5 -30t6.5 -35v0v-340q0 -29 -17 -52.5t-44.5 -33t-55 -1t-45.5 31.5l-80 106q-3 4 -8 4q-10 0 -10 -10v-45v0q1 -38 -25.5 -64.5t-64.5 -26.5t-64.5 26.5t-25.5 64.5v0v340q0 29 17 52.5t44.5 33t55 1t45.5 -31.5l80 -106q3 -4 8 -4q10 0 10 10v45v0
q-1 37 25 64t64 27z" />
    <glyph glyph-name="O" unicode="O" horiz-adv-x="520" 
d="M290 563q-67 0 -132 -13q-55 -11 -76 -32q-32 -32 -32 -78v-324q0 -62 31 -94q7 -6 15 -10.5t14.5 -7.5t17 -5.5t15 -3.5t17 -2.5t14.5 -2.5q136 -22 248 0q55 11 76 32q32 32 32 78v340q0 46 -32 78q-21 21 -76 32q-65 13 -132 13zM290 543q65 0 128 -13q49 -9 66 -26
q26 -27 26 -64v-340q0 -37 -26 -64q-17 -17 -66 -26q-108 -22 -240 0q-3 0 -13.5 2t-13.5 2.5l-12 2t-13 3t-10.5 4t-11.5 6t-9 7.5q-25 25 -25 79v324q0 37 26 64q17 17 66 26q63 13 128 13zM290 350q-14 0 -23 -11q-7 -8 -11 -22q-6 -19 -6 -47t6 -47q4 -14 11 -22
q9 -11 23 -11t23 11q7 8 11 22q6 19 6 47t-6 47q-4 14 -11 22q-9 11 -23 11zM290 330q4 0 8 -4q4 -5 7 -14q5 -17 5 -42t-5 -42q-3 -9 -7 -14q-4 -4 -8 -4t-8 4q-4 5 -7 14q-5 17 -5 42t5 42q3 9 7 14q4 4 8 4z" />
    <glyph glyph-name="P" unicode="P" horiz-adv-x="460" 
d="M301 555q-83 -1 -150 -34q-54 -27 -94.5 -75.5t-60.5 -110.5q-9 -26 -4.5 -53t21.5 -49q38 -52 81 -108t96 -124.5t83 -107.5q27 -37 72.5 -43t82 22t42.5 73.5t-23 81.5l-19 26q8 8 10 9q23 24 30 56v2q11 170 0 340v2q-7 33 -31.5 57t-58.5 29q-37 7 -72 7h-5zM301 535
h5q33 0 69 -6q27 -5 47.5 -24.5t25.5 -46.5q11 -168 0 -336q-5 -27 -24 -46q-7 -6 -16 -14q-4 -3 -4 -8q0 -3 2 -6l26 -33q23 -30 18 -67.5t-35 -60t-67 -17.5t-59 35h-1q-29 39 -82 107.5t-96 124.5t-81 108h-1q-13 18 -16.5 40t3.5 43q19 59 57 104.5t88 70.5
q63 32 141 32zM273 352h-2q-17 -3 -31 -10q-19 -10 -31 -24q-2 -3 -2 -6q0 -4 2 -6l56 -73q3 -4 8 -4q4 0 6 2q37 32 32 68q-4 29 -32 51q-3 2 -6 2zM270 331q18 -16 21 -35q3 -21 -17 -42l-44 57q7 7 19 13q8 4 21 7z" />
    <glyph glyph-name="Q" unicode="Q" horiz-adv-x="520" 
d="M290 563q-67 0 -132 -13q-55 -11 -76 -32q-32 -32 -32 -78v-324q0 -62 33 -96q8 -7 17 -12t20 -8t17.5 -4.5t19.5 -3t17 -2.5q66 -10 128 0q40 7 58 18q27 -18 60 -18q46 0 78 32t32 78q0 26 -12 50q11 22 12 50q6 145 0 241q-3 48 -32 77q-21 21 -76 32q-65 13 -132 13z
M290 543q65 0 128 -13q49 -9 66 -26q24 -24 26 -65q6 -93 0 -239q-1 -16 -5 -30q-4 4 -7 8q-3 3 -8 3q-10 0 -10 -10q0 -4 4 -7q8 -9 14 -19v-1l2 -2q1 -2 1 -4q12 -25 8 -52q-6 -32 -29.5 -53t-55.5 -22.5t-58 17.5l-1 1q-5 3 -9 7l-100 100q-19 20 -25 46.5t5 52.5
q9 23 29 38l1 1q17 12 39 16h3q2 1 4 1h3h3h1v0h1q7 0 10 7q2 8 3 18q2 8 1 15q-1 10 -7 16q-13 14 -37 14t-37 -14l-2 -2q-6 -7 -7 -19q-1 -9 1 -22q1 -9 4 -19q-22 -17 -32 -43q-13 -31 -6 -63.5t31 -56.5l100 -100h1q-14 -7 -45 -12q-58 -10 -120 0q-5 1 -18 2.5
t-18.5 2.5t-15 3.5t-16.5 6.5t-13 9q-27 28 -27 82v324q0 37 26 64q17 17 66 26q63 13 128 13zM290 341q15 0 23 -8l1 -4v-11q-1 -2 -2 -7q-24 -2 -46 -13q-1 5 -1 9q-2 10 -1 17t3 9q8 8 23 8z" />
    <glyph glyph-name="R" unicode="R" horiz-adv-x="520" 
d="M160 550q-46 0 -78 -32t-32 -78v-340v0q0 -45 31.5 -76.5t76 -33t77.5 29.5q25 23 32 57l87 -65q33 -25 74.5 -22.5t70.5 32t32 70.5q2 36 -18 67q18 28 18 61q0 2 -1 4q7 111 0 223q-3 44 -35 73.5t-75 29.5h-260zM160 530h260q36 0 61.5 -24.5t28.5 -59.5
q8 -116 0 -232q-2 -26 -18 -48l-2 -4q-2 -3 -5 -6q-27 -27 -65 -26q-10 0 -10 -10t10 -10q46 -1 79 32l1 1q12 -24 11 -49q-2 -34 -26 -58t-58 -26.5t-61 18.5l-100 75q-3 2 -6 2q-10 0 -10 -9q-2 -37 -29 -61.5t-63.5 -24t-62 26.5t-25.5 63v340q0 37 26.5 63.5t63.5 26.5z
M291.5 361q-24.5 0 -38.5 -14q-7 -6 -7 -17t7 -17q14 -14 38.5 -14t39.5 14q6 6 6 17t-6 17q-15 14 -39.5 14zM291.5 341q16.5 0 24.5 -8h1v-3v-3h-1q-8 -8 -24.5 -8t-24.5 8q-1 2 -1 3t1 3q8 8 24.5 8z" />
    <glyph glyph-name="S" unicode="S" horiz-adv-x="520" 
d="M290 563q-67 0 -132 -13q-55 -11 -76 -32q-32 -32 -32 -78v-169q0 -9 2 -22q3 -13 8 -25q3 -7 9 -15q0 -1 2 -3q-21 -30 -21 -66v-40q0 -46 32 -78q21 -21 76 -32q65 -13 132 -13t132 13q55 11 76 32q28 29 32 77q5 67 0 171q-2 31 -14 54q14 26 14 55q5 37 0 63
q-11 55 -32 76t-76 32q-65 13 -132 13zM290 543q65 0 128 -13q49 -9 66 -26t26 -66q5 -23 0 -56v-1q-5 -34 -12 -48l-1 -1q-3 -5 -7 -10q-20 -25 -51.5 -31.5t-60.5 8.5q-13 7 -24 19q-16 18 -24 23q-15 8 -44 9h-42q-4 0 -7 -3t-3 -7t3 -7t7 -3h42q24 -1 34 -6q5 -4 19 -19
v-1q13 -14 30 -23q35 -18 73 -10q36 7 60 35q7 -17 8 -36q5 -104 0 -169q-3 -41 -26 -65q-17 -17 -66 -26q-63 -13 -128 -13t-128 13q-49 9 -66 26q-26 27 -26 64v40v0q0 27 14 50q32 -30 76 -30h80h40q15 0 23 -7q7 -7 7 -18v-35q0 -4 3 -7t7 -3t7 3t3 7v35q0 20 -14 32.5
t-36 12.5h-40h-80q-37 0 -64 26q-3 4 -6 7q-11 14 -16 31q-2 7 -3 14q-1 6 -1 12v170q0 37 26 64q17 17 66 26q63 13 128 13z" />
    <glyph glyph-name="T" unicode="T" 
d="M381 711q-30 0 -56 -16l-260 -150q-40 -22 -52 -66q-6 -22 -3 -43.5t14 -41.5q23 -39 67 -51q21 -5 43 -3v0q6 1 11 3q3 0 5 1q13 4 25 11l17 9l18 -272q3 -45 37.5 -75t80 -27t75.5 37.5t27 80.5l-26 379l31 18q32 18 47 52t6 70t-37.5 59t-65.5 25h-4zM381 691h3
q30 -1 54 -20.5t31 -49t-5 -57t-39 -42.5l-37 -21q-4 -3 -4 -9l26 -386q2 -37 -22.5 -65t-61.5 -30.5t-65 22t-31 61.5l-19 282l29 16q5 3 5 9q0 10 -10 10h-1q-2 0 -4 -1l-34 -20l-31 -18q-16 -9 -33.5 -11.5t-35.5 1.5q-36 10 -55 42q-9 16 -11.5 34t2.5 35q10 36 43 55
l260 150q21 13 46 13z" />
    <glyph glyph-name="U" unicode="U" horiz-adv-x="520" 
d="M420 551q-46 0 -78.5 -32.5t-31.5 -78.5v-240q-1 -1 -3 -2q-7 -3 -17 -3t-17 3q-2 1 -3 2v240q0 22 -8 42.5t-24 36.5t-36.5 24.5t-43.5 7.5q-45 0 -77 -33t-31 -78v-340q0 -46 32 -78q21 -21 76 -32q65 -13 132 -13t132 13q55 11 76 32q32 32 32 78v340q1 46 -31.5 78.5
t-78.5 32.5zM420 531q38 0 64.5 -26.5t25.5 -64.5v0v-340q0 -37 -26 -64q-17 -17 -66 -26q-63 -13 -128 -13t-128 13q-49 9 -66 26q-26 27 -26 64v340v0q-1 37 25 64t64 27q18 1 35 -6t30 -20t19.5 -30t6.5 -35v0v-240q0 -7 5 -13q4 -5 10 -7q11 -5 25 -5t25 5q6 2 10 7
q5 6 5 13v240v0q-1 38 25.5 64.5t64.5 26.5z" />
    <glyph glyph-name="V" unicode="V" horiz-adv-x="490" 
d="M390 551q-46 0 -78.5 -32.5t-31.5 -78.5v-139q-40 71 -40 139q0 22 -8 42.5t-24 36.5t-36.5 24.5t-43.5 7.5q-45 0 -77 -33t-31 -78q0 -160 99 -295q50 -69 119.5 -112t151.5 -43q46 0 78 32t32 78v340q1 46 -31.5 78.5t-78.5 32.5zM390 531q38 0 64.5 -26.5t25.5 -64.5
v0v-340q0 -37 -26.5 -63.5t-63.5 -26.5q-77 0 -142 40.5t-113 106.5q-95 130 -95 283v0q-1 37 25 64t64 27q18 1 35 -6t30 -20t19.5 -30t6.5 -35v0q0 -43 16.5 -91.5t43.5 -85.5l2 -2q3 -4 8 -4q10 0 10 10v173v0q-1 38 25.5 64.5t64.5 26.5z" />
    <glyph glyph-name="W" unicode="W" horiz-adv-x="560" 
d="M460 551q-46 0 -78.5 -32.5t-31.5 -78.5v-58q-21 8 -43 8q-19 0 -37 -8v58q0 22 -8 42.5t-24 36.5t-36.5 24.5t-43.5 7.5q-45 0 -77 -33t-31 -78v-340q0 -35 20 -63.5t52.5 -40t66 -2.5t55.5 36l66 78l66 -78q22 -27 55.5 -36t66 2.5t52.5 40t20 63.5v340
q1 46 -31.5 78.5t-78.5 32.5zM460 531q38 0 64.5 -26.5t25.5 -64.5v0v-340q0 -28 -16.5 -51.5t-43 -33t-54 -2t-45.5 28.5l-73 88q-3 4 -8 4t-8 -4l-73 -88q-18 -21 -45.5 -28.5t-54 2t-43 33t-16.5 51.5v340v0q-1 37 25 64t64 27q18 1 35 -6t30 -20t19.5 -30t6.5 -35v0v-68
q-15 -9 -25 -22q-13 -17 -26 -58l-11 -36v-2q0 -10 10 -10q8 0 10 8q4 15 10 34q12 37 23 52q8 11 23 19v1h1q2 1 3 1v1h1l0.5 0.5l0.5 0.5q2 0 3 1q2 1 2.5 1.5t2.5 0.5q2 1 3 1q14 5 29 5q24 0 45 -12q1 -1 2 -1q14 -8 22 -19q11 -15 23 -52l10 -34q2 -8 10 -8q10 0 10 10
v2q-4 17 -11 36q-13 41 -26 58q-10 13 -25 22v68v0q-1 38 25.5 64.5t64.5 26.5z" />
    <glyph glyph-name="X" unicode="X" horiz-adv-x="520" 
d="M420 551q-22 0 -42.5 -8.5t-36.5 -24.5q-31 -32 -31 -79v0q0 -11 -11 -30q0 1 -1.5 1.5t-1.5 1.5q-23 17 -24 27v1q0 44 -30 77q-32 33 -77 34q-23 1 -43.5 -7t-36.5 -23.5t-24.5 -36t-8.5 -43.5l-2 -121q0 -14 4 -29q1 -5 4 -12q-3 -6 -4 -11q-2 -6 -3 -24
q-1 -15 -1 -24v-120q-1 -46 31.5 -78.5t78.5 -32.5t78.5 32.5t31.5 78.5q0 19 11 37q30 -19 31 -37q-1 -46 31 -79q33 -32 79 -32t78 32.5t32 78.5v120q0 14 -4 28q-1 5 -4 12q3 6 4 12q2 6 3 24q1 15 1 24q-1 61 -2 121q0 46 -32 78t-78 32zM420 531q37 0 63.5 -26
t26.5 -64v0l2 -121q0 -8 -1 -22q-1 -7 -1 -14l-1 1.5t-2 1.5q-17 24 -34 32q-2 1 -5 1q-10 0 -10 -10q0 -7 6 -10q13 -5 27 -25q6 -7 10 -14q3 -5 4 -7q2 -5 4 -11q3 -11 3 -23v-120v0q0 -38 -26.5 -64.5t-64 -26.5t-64 26.5t-25.5 64.5v0q-2 30 -41 55q-9 5 -18 9.5
t-15 6.5l-5 2q-1 1 -3 1q-10 0 -10 -10q0 -7 7 -10q7 -2 17 -7q-14 -23 -14 -47v0q1 -38 -25.5 -64.5t-64.5 -26.5t-64.5 26.5t-25.5 64.5v0v120q0 9 1 22q0 7 1 15q1 0 2.5 -2.5t2.5 -3.5q19 -23 31 -30q3 -2 5 -2q10 0 10 10q0 6 -5 9q-9 5 -26 26q-6 7 -11 15q-2 2 -3 5
l-1 1q-3 5 -4 11q-3 12 -3 24q1 61 2 121v0q0 19 7 35.5t20 29.5t30 19.5t35 5.5q37 -1 63 -28t25 -64v-1q1 -20 32 -42q15 -12 41 -26q3 -1 5 -1q10 0 10 10q0 6 -5 9q-10 5 -19 10q14 23 14 41q0 39 26 65q12 13 29 20t35 7z" />
    <glyph glyph-name="Y" unicode="Y" 
d="M318 551q-39 0 -69 -25.5t-37 -63.5v-1l-8 -38l-43 29q-38 25 -82.5 16t-70 -47t-16.5 -82.5t47 -70.5l146 -97l29 -101q12 -44 52 -67q20 -11 41.5 -13.5t43.5 3.5q44 13 66 53q10 19 12.5 41t-3.5 43l-33 115l35 173q5 25 -1 49.5t-22 44t-38.5 30t-48.5 9.5zM319 531
q20 1 39 -7.5t32 -24.5t18 -36t0 -41l-35 -176v-2v-3l34 -116q5 -18 3 -36t-11 -33q-18 -33 -54 -44q-17 -5 -35 -2.5t-34 10.5q-33 19 -42 55h-1l-29 105q-1 3 -4 5l-150 100v0q-31 21 -38.5 57.5t13.5 67.5t57.5 38.5t67.5 -13.5l56 -37q2 -2 5 -2q8 0 10 8l11 54
q6 31 30.5 52t56.5 21z" />
    <glyph glyph-name="Z" unicode="Z" horiz-adv-x="520" 
d="M160 550q-46 0 -78 -32t-32 -78v-100v-11q1 -4 2 -11q2 -13 8 -25q3 -7 8 -15q6 -9 14 -17q4 -4 9 -8q-41 -71 -41 -153q0 -46 32 -78t78 -32h260q46 0 78 32t32 78v160q1 41 -27 73q14 28 21 57q4 16 5 32q1 8 1 18q0 22 -8 43q-1 2 -2 3q-9 18 -22 32q-33 32 -78 32
h-260zM160 530h260q37 0 63.5 -26.5t26.5 -63.5v-13q-2 -14 -4 -24q-3 -20 -11 -40q-5 -11 -10 -21v0q-19 -36 -48 -64q-44 -42 -111 -71h-1l-1.5 -0.5l-1.5 -0.5q-1 0 -1 -1q-16 -7 -26 -13h-1q-21 -13 -29 -29q-2 -2 -2 -5v-1q0 -5 4 -8t8 -2h53q5 -1 8 2h1q0 1 0.5 1
t0.5 1v0q3 3 2 8v33q66 29 111 72q24 23 41 51q18 -25 18 -55v0v-160q0 -37 -26.5 -63.5t-63.5 -26.5h-260q-37 0 -63.5 26.5t-26.5 63.5q0 76 38 142q24 -13 52 -13q46 0 78 32q28 29 32 69h70q4 0 7 3t3 7t-3 7t-7 3h-80q-4 0 -7 -3t-3 -7q1 -38 -25.5 -64.5t-64.5 -26.5
q-31 0 -56 19q-9 7 -15 16q-16 21 -19 47v9v100q0 37 26.5 63.5t63.5 26.5zM320 183v-16h-25q2 2 5 4q4 3 8 5q5 3 12 7z" />
    <glyph glyph-name="bracketleft" unicode="[" horiz-adv-x="401" 
d="M268 610q-39 0 -65.5 -6t-52 -25.5t-37.5 -45.5q-9 -19 -14.5 -38t-7.5 -45.5t-2 -44t0.5 -59t0.5 -66.5t-0.5 -66.5t-0.5 -59t2 -44t7.5 -45.5t14.5 -38q12 -26 37.5 -45.5t52.5 -25.5q25 -6 87 -6q33 0 57 23.5t24 56.5t-24 56.5t-57 23.5q-18 0 -34 1q-6 72 -6 169
t6 169q16 1 34 1q33 0 57 23.5t24 56.5t-24 56.5t-57 23.5h-11.5h-10.5zM268 590h10.5h11.5v0q25 0 43 -17.5t18 -42.5t-18 -42.5t-43 -17.5v0q-25 0 -43 -1q-9 -1 -10 -9q-7 -78 -7 -180t7 -180q1 -8 10 -9q18 -1 43 -1v0q25 0 43 -17.5t18 -42.5t-18 -42.5t-43 -17.5v0
q-59 0 -83 5q-21 5 -43.5 22.5t-32.5 37.5q-9 18 -13.5 35.5t-6.5 43t-2 42.5t0.5 58t0.5 66t-0.5 66t-0.5 58t2 42.5t6.5 43t13.5 35.5q10 20 32.5 37.5t43.5 22.5q24 5 61 5z" />
    <glyph glyph-name="backslash" unicode="\" 
d="M169 571q-19 0 -36 -9t-28 -24.5t-14 -34t2 -36.5h1l139 -460q10 -32 39.5 -48t61 -6t47 39.5t6.5 60.5h-1l-139 460q-8 26 -29.5 42t-48.5 16zM169 551q20 0 36.5 -12t21.5 -31l140 -460v-1q8 -23 -3.5 -45.5t-35.5 -29.5t-46 4.5t-29 35.5v1l-140 460q-5 13 -2.5 27
t10.5 26t21 18.5t27 6.5z" />
    <glyph glyph-name="bracketright" unicode="]" horiz-adv-x="401" 
d="M192 610h-10.5h-11.5q-33 0 -57 -23.5t-24 -56.5t24 -56.5t57 -23.5q18 0 34 -1q6 -72 6 -169t-6 -169q-16 -1 -34 -1q-33 0 -57 -23.5t-24 -56.5t24 -56.5t57 -23.5q62 0 87 6q27 6 52.5 25.5t37.5 45.5q9 19 14.5 38t7.5 45.5t2 44t-0.5 59t-0.5 66.5t0.5 66.5t0.5 59
t-2 44t-7.5 45.5t-14.5 38q-12 26 -37.5 45.5t-52 25.5t-65.5 6zM192 590q37 0 61 -5q21 -5 43.5 -22.5t32.5 -37.5q9 -18 13.5 -35.5t6.5 -43t2 -42.5t-0.5 -58t-0.5 -66t0.5 -66t0.5 -58t-2 -42.5t-6.5 -43t-13.5 -35.5q-10 -20 -32.5 -37.5t-43.5 -22.5q-24 -5 -83 -5v0
q-25 0 -43 17.5t-18 42.5t18 42.5t43 17.5v0q25 0 43 1q9 1 10 9q7 78 7 180t-7 180q-1 8 -10 9q-18 1 -43 1v0q-25 0 -43 17.5t-18 42.5t18 42.5t43 17.5v0h11.5h10.5z" />
    <glyph glyph-name="asciicircum" unicode="^" horiz-adv-x="460" 
d="M260 610q-52 0 -94 -43q-22 -23 -42 -59q-20 -38 -30 -74q-11 -32 4.5 -62t47.5 -39.5t61.5 6.5t38.5 48h1q5 16 14 35q7 -18 12 -33q8 -32 37 -49t61.5 -8t48.5 38.5t7 61.5q-10 36 -29 75q-20 37 -43 61q-42 42 -95 42zM260 590q45 0 81 -36q21 -22 39 -56
q8 -16 15 -34t10 -28l3 -10q7 -24 -5 -46t-36.5 -28.5t-46.5 6t-28 36.5v1q-7 25 -19 48q-1 2 -4 6q-2 5 -8 5t-9 -4q-2 -5 -4 -8q-5 -10 -10.5 -22.5t-7.5 -19.5l-3 -7q-7 -25 -29 -37t-46 -4.5t-35.5 30t-3.5 46.5q10 34 29 70q18 34 38 55q36 37 80 37z" />
    <glyph glyph-name="underscore" unicode="_" horiz-adv-x="601" 
d="M168 90q-32 0 -55 -23q-24 -24 -24 -57t24 -56.5t57 -23.5h320q33 0 57 23.5t24 56.5t-24 56.5t-57 23.5h-320h-2zM170 70v0h320v0q25 0 43 -17.5t18 -42.5t-18 -42.5t-43 -17.5v0h-320v0q-25 0 -43 17.5t-18 42.5t18 42.5t43 17.5z" />
    <glyph glyph-name="grave" unicode="`" horiz-adv-x="380" 
d="M240 610q-43 0 -85 -31q-55 -41 -55 -99q0 -39 13.5 -73t32.5 -55.5t39 -37t32.5 -22.5t13.5 -7h1q28 -11 56.5 0t43 38t6.5 56q-5 22 -22 39q12 10 19 22q15 26 15 60q0 43 -28 74q-32 36 -82 36zM240 590q41 0 67 -30q23 -25 23 -60q0 -28 -12 -50q-8 -13 -24 -24
q-4 -3 -4 -8.5t4 -8.5q19 -12 24.5 -34.5t-5 -42.5t-32 -28t-42.5 0q-5 2 -13.5 6.5t-29 20t-36 34t-28 49.5t-12.5 66q0 30 12.5 48.5t34.5 34.5q13 10 21 14.5t21.5 8.5t30.5 4z" />
    <glyph glyph-name="a" unicode="a" 
d="M238 548q-26 -2 -40.5 -4.5t-41 -9.5t-49.5 -21t-45 -35q-48 -48 -71 -117q-2 -4 0 -7.5t6 -5t7.5 0.5t4.5 6q23 64 67 109q20 19 41 32t45.5 19.5t37.5 8.5t40 4q53 4 87 2q35 -3 59 -29t24 -61v-340q0 -27 -15 -50t-40.5 -33.5t-52 -5t-46.5 24.5q-30 30 -104 33
q-7 1 -9 -6q-10 -22 -29 -36.5t-43 -17t-46 7t-37 28.5q-2 3 -6.5 3.5t-7.5 -2t-3.5 -6.5t1.5 -7q18 -24 45 -35.5t56 -8t53 21.5q20 15 32 38q61 -3 84.5 -26.5t56 -30t63.5 6t49.5 40.5t18.5 61v340q0 43 -29.5 74.5t-72.5 35.5q-43 3 -90 -2zM220 340q-15 0 -19 -8
q-3 -5 -10 -24q-10 -23 -17 -47q-1 -5 1.5 -9t7.5 -4q18 -2 35 -4q5 -1 8.5 2t3.5 8v76q0 4 -3 7t-7 3zM210 302v-37q-6 1 -13 1q6 20 12 35z" />
    <glyph glyph-name="b" unicode="b" 
d="M60 550q-46 0 -78 -32q-5 -5 -9 -11q-2 -2 -2 -6q0 -10 10 -10q5 0 8 4q4 5 7 9q27 26 64 26h260q37 0 64 -26q16 -17 26 -66q7 -35 0 -82q-6 -41 -18 -61q-2 -2 -2 -5t2 -5q12 -20 18 -61q11 -70 0 -122q-10 -49 -26 -66q-27 -26 -64 -26h-244h-2q-21 -4 -41.5 2.5
t-35.5 21.5v0q-1 2 -2 2v1l-8 8q-3 4 -8 4q-10 0 -10 -10q0 -3 2 -6l10 -10v-1l2 -2v0q19 -18 44 -26q24 -8 49 -4h244q46 0 78 32q21 21 32 76t0 128q-6 41 -18 64q12 23 18 64q7 50 0 88q-11 55 -32 76q-32 32 -78 32h-260zM180 400q-8 0 -14 -7q-3 -4 -4 -11
q-2 -6 -2 -11v-1v0v-1q0 -6 2 -11q1 -7 4 -11q6 -7 14 -7q12 0 21 9t9 21t-9 21t-21 9zM182 380q3 -1 5 -3q3 -4 3 -7t-3 -7q-2 -2 -5 -3l-1 2l-1 8q0 4 1 8zM180 200q-6 0 -10 -4q-3 -2 -5 -6q-2 -5 -3.5 -13t-1.5 -16v-1v0v-1q0 -8 1 -16q2 -8 4 -13q2 -4 5 -6q4 -4 10 -4
q19 0 30 13q10 11 10 27t-10 27q-11 13 -30 13zM183 180q8 -1 12 -6q5 -6 5 -14t-5 -14q-4 -5 -12 -6q-1 3 -2 7l-1 13q0 7 1 13q1 4 2 7z" />
    <glyph glyph-name="c" unicode="c" 
d="M190 563q-67 0 -132 -13q-55 -11 -76 -32l-10 -12q-3 -4 -2 -8t4 -6.5t7 -1.5t7 4l8 10q17 16 66 26q63 13 128 13t128 -13q49 -10 66 -26q26 -26 26 -63v-1v-120v0q0 -21 -9 -41q-7 -13 -17 -24q-26 -26 -64 -26t-64 26.5t-26 64.5v20q0 8 -8 10l-22 2q-10 0 -15 -4
q-35 -22 -35 -78t35 -78q8 -6 24 -4l13 2q8 2 8 10q0 23 10 43l2 -2q32 -32 78 -32t78 32l2 2q10 -20 10 -43v-100q0 -37 -26 -64q-17 -16 -66 -26q-128 -26 -256 0q-49 10 -66 26q-4 4 -7 9q-3 3 -7 3.5t-7 -2t-3.5 -6.5t1.5 -7q4 -6 9 -11q21 -21 76 -32q132 -26 264 0
q55 11 76 32q32 32 32 78v100q0 32 -17 60q9 15 14 33q3 13 3 27v120q0 46 -32 78q-21 21 -76 32q-65 13 -132 13zM201 332h9q0 -23 2 -36q4 -19 15 -36q-15 -24 -17 -52h-1h-2h-5.5h-4.5t-1 0q-12 8 -19 26t-7 36t7 36t18 26h1h5z" />
    <glyph glyph-name="d" unicode="d" horiz-adv-x="425" 
d="M108 551q-23 0 -51 -1q-44 -1 -76 -33q-5 -5 -9 -11q-2 -3 -2 -6q0 -10 10 -10q5 0 8 4q4 5 8 9q25 26 62 27q27 1 50 1q128 0 217 -21q44 -10 61 -29q17 -18 24 -63q12 -74 12 -148t-12 -148q-7 -45 -24 -63q-19 -21 -60 -29q-112 -22 -291 -18q-18 6 -39 23q-4 5 -8 9
q-3 4 -8 4q-10 0 -10 -10q0 -4 3 -7q4 -5 9 -10l1 -1q25 -21 47 -27q2 -1 3 -1q182 -4 297 18q47 10 71 35q21 23 29 73q12 77 12 152t-12 152q-8 50 -29 73q-22 23 -71 34q-92 22 -222 22zM160 342q-10 0 -10 -10v-124q0 -10 10 -10h1q24 2 35 5q16 4 23 12q8 9 10 23
q1 10 1 32q0 38 -9 51q-15 19 -61 21zM170 321q28 -2 34 -12q6 -7 6 -39q0 -21 -1 -29q-1 -9 -5 -12q-3 -4 -13 -7q-6 -1 -21 -3v102z" />
    <glyph glyph-name="e" unicode="e" 
d="M57 549q-24 -1 -46 -11q-9 -5 -17 -11q-4 -3 -4.5 -7t2 -7.5t7 -4t7.5 2.5q7 5 14 9q18 8 37 9h10h255q37 0 63.5 -26.5t26.5 -63.5v-40q0 -28 -17.5 -48t-44.5 -18q-23 2 -82.5 11.5t-105.5 9.5q-5 0 -8 -3t-3 -7t3 -7t8 -3q44 0 102.5 -9.5t83.5 -11.5q31 -3 55 16
q8 -19 8 -40q0 -20 -9 -39q-21 20 -49 19q-9 0 -17 -2q-21 -6 -58 -18.5t-62.5 -18.5t-53.5 -6q-5 0 -8 -3t-3 -7t3 -7t8 -3q30 0 57.5 6t65 19.5t56.5 18.5q17 4 34 -3t27 -26t10 -40v-80q0 -37 -26.5 -63.5t-63.5 -26.5h-254h-1q-20 -2 -39 6q-12 4 -22 12q-3 3 -7.5 2.5
t-7 -4t-2 -8t4.5 -6.5q12 -9 26 -15q23 -9 48 -7h254q45 0 77.5 32t32.5 78v80q-4 38 -16 55q15 26 15.5 55.5t-14.5 54.5q14 23 15 55v40q0 45 -32.5 77.5t-77.5 32.5h-255h-10z" />
    <glyph glyph-name="f" unicode="f" horiz-adv-x="380" 
d="M280 550h-3q-34 -1 -62 -21l-220 -160l-1 -1q-4 -3 -4.5 -7.5t2.5 -7.5t7 -3.5t7 2.5l1 1l220 160q23 16 50 17q19 0 36 -6.5t30 -18.5q27 -27 27 -65v-99v-1q0 -20 -8 -38t-23 -30l-1 -1l-91 -78q-3 -3 -3.5 -7t2 -7.5t7 -3.5t7.5 3l72 62q7 -2 14 -6q11 -7 14 -14
q10 -19 10 -40v-40q0 -37 -26 -64l-7 -7q-3 -2 -3.5 -6t2.5 -7l17 -23q11 -14 15.5 -32t2.5 -36q-6 -37 -36 -60q-15 -10 -32.5 -14.5t-35.5 -1.5q-38 6 -59 38h-1l-199 272q-2 3 -6.5 4t-8 -1.5t-4 -7t2.5 -7.5l199 -272q27 -38 72 -45q22 -4 44 1t39 18q38 28 44 74
q3 22 -2.5 43.5t-18.5 38.5l-12 16l1 1q32 32 32 78v40q0 26 -12 49q-6 12 -22 22q-4 2 -6 4q21 20 30 39q10 22 10 46v100q0 47 -33 79q-16 15 -37 23q-20 8 -40 8z" />
    <glyph glyph-name="g" unicode="g" 
d="M190 563q-67 0 -132 -13q-55 -11 -76 -32q-5 -5 -9 -11q-2 -3 -1.5 -7t3.5 -6.5t7 -2t7 3.5q4 5 7 9q17 16 66 26q63 13 128 13t128 -13q49 -10 66 -26q26 -27 26 -64v-60q0 -23 -11 -44q0 1 -1 2q-32 32 -78 32h-100q-46 1 -78.5 -31.5t-32.5 -78.5t32 -78
q29 -28 69 -32v-50q0 -4 3 -7t7 -3t7 3t3 7v60q0 4 -3 7t-7 3q-38 -1 -64.5 25.5t-26.5 64.5t26.5 64.5t64.5 25.5h100q37 0 64 -26q20 -21 25 -50q1 -7 1 -14v-160q0 -37 -26 -64q-17 -16 -66 -26q-128 -26 -256 0q-49 10 -66 26l-8 10q-2 3 -6.5 4t-7.5 -1.5t-4 -7t2 -7.5
l10 -12q21 -21 76 -32q132 -26 264 0q55 11 76 32q32 32 32 78v159q0 10 -1 17q-4 23 -16 43q17 28 17 61v60q0 46 -32 78q-21 21 -76 32q-65 13 -132 13z" />
    <glyph glyph-name="h" unicode="h" 
d="M58 551q-25 0 -47.5 -11.5t-38.5 -31.5q-2 -3 -2 -6q0 -10 10 -10q5 0 8 4q13 16 31.5 25.5t39.5 9.5q18 1 35 -6t30 -20t19.5 -30t6.5 -35v0v-105q-6 0 -8 1h-1q-9 -1 -9 -10q0 -10 9 -10q31 -3 56 -6q23 -2 41 -5q1 -1 2 -1q10 0 10 10q0 9 -9 10q-5 1 -12 2v114v0
q0 37 26 64t63 27q18 1 35 -6t30 -20t19.5 -30t6.5 -35v0v-170v-170v-1q-1 -37 -27 -62.5t-63 -25.5t-63 26t-27 63v1v1q17 -4 29 -6q1 -1 2 -1q10 0 10 10q0 9 -8 10q-4 1 -37 9q-20 4 -50 8q-21 2 -48 4h-1q-10 0 -10 -10q0 -9 10 -10q11 -1 24 -2v-14v0q0 -29 -17 -53
t-44.5 -33.5t-55.5 -0.5t-45 32q-3 4 -8 4q-11 0 -11 -10q0 -3 2 -6q22 -28 56 -39t68 0.5t54.5 40.5t20.5 65v10q24 -3 39 -6v-1v-2v0v-1v0q1 -45 33 -77t77 -32t77 31.5t33 76.5v0v1v170v170q0 22 -8 42.5t-24 36.5t-36.5 24.5t-42.5 7.5q-46 0 -77.5 -33t-31.5 -78v-109
q-18 2 -39 3v106q0 22 -8 42.5t-24 36.5t-36.5 24.5t-43.5 7.5z" />
    <glyph glyph-name="i" unicode="i" horiz-adv-x="200" 
d="M60 550q-26 0 -48.5 -11t-38.5 -32q-2 -2 -2 -6q0 -10 10 -10q5 0 8 4q13 17 31.5 26t39.5 9h40q37 0 63.5 -26.5t26.5 -63.5v-340q0 -37 -26.5 -63.5t-63.5 -26.5q-7 0 -18 -0.5t-17 -0.5t-15 1t-17 3q-29 9 -46 32q-3 4 -8 4q-10 0 -10 -10q0 -3 2 -6q21 -28 56 -39
q13 -4 23.5 -4.5t28 0t21.5 0.5q46 0 78 32t32 78v340q0 46 -32 78t-78 32h-40z" />
    <glyph glyph-name="j" unicode="j" horiz-adv-x="380" 
d="M278 551q-45 0 -77 -33t-31 -78v-116q-1 27 -13 50q-15 28 -43.5 44t-61 13.5t-58.5 -21.5q-3 -3 -4 -7t1.5 -7.5t7 -4t7.5 2.5q21 16 47.5 17.5t50 -11t36 -36t10.5 -50.5q-3 -33 1 -69q5 -44 19 -54q8 -7 16 -1q4 3 4 8v242q-1 37 25 64t64 27q18 1 35 -6t30 -20
t19.5 -30t6.5 -35v-340q0 -33 -21.5 -58.5t-54.5 -30.5q-40 -6 -87 -6q-5 0 -21 -0.5t-23 0t-22 1.5t-25 4t-24 8.5t-27 14.5t-26 21q-19 17 -32 36q-2 4 -6 5t-8 -1.5t-4.5 -6.5t2.5 -8q14 -21 35 -40q14 -13 28 -23t30 -15.5t26.5 -9t28 -5t23.5 -2t24.5 0t20.5 0.5
q49 0 90 6q40 6 66.5 37t26.5 72v340q0 22 -8 42.5t-24 36.5t-36.5 24.5t-43.5 7.5zM170 318v-57q-1 16 0 57z" />
    <glyph glyph-name="k" unicode="k" horiz-adv-x="380" 
d="M266 552q-30 0 -53 -22q-16 -15 -29 -44q-3 -6 -14 -35q-2 16 -8 32q-8 20 -24 36t-36.5 24.5t-43.5 7.5q-45 0 -77 -33q-4 -4 -9 -10q-2 -3 -1.5 -7.5t4 -7t7.5 -2t6 4.5q4 4 7 8q26 27 64 27q18 1 35 -6t30 -20t19.5 -30t6.5 -35v-20q0 -4 3 -7t8 -3q9 1 15 10
q5 5 9 16q2 5 8 19t9 22q12 26 25 39q17 16 39 16q33 -1 48 -7q17 -7 30 -20t19 -30q14 -35 10 -80.5t-22 -80.5q-3 -6 -9 -14q-3 -5 0 -10q11 -21 17 -42q12 -42 13 -92q0 -15 -1 -34t-1 -22q1 -38 -25.5 -64.5t-64.5 -26.5t-64 26q-9 10 -14 24.5t-6 25.5t-1 32
q-1 22 -2 33.5t-7.5 28.5t-18.5 29q-5 4 -11 1t-6 -9v-100q1 -38 -25.5 -64.5t-64.5 -26.5t-64 26q-5 5 -8 10q-3 4 -7 4.5t-7.5 -2t-4 -6.5t1.5 -8q5 -6 11 -12q32 -32 78 -32t78.5 32.5t31.5 78.5v64q4 -15 5 -48q1 -23 1.5 -34t7 -29.5t18.5 -31.5q32 -32 78 -32
t78.5 32.5t31.5 78.5q0 1 1 20.5t1 35.5q-1 53 -14 98q-6 20 -16 40q4 6 7 10q20 41 24 89t-11 90q-8 20 -24 36t-37 24q-28 9 -55 9z" />
    <glyph glyph-name="l" unicode="l" horiz-adv-x="290" 
d="M181 550q-35 0 -63 -19q-31 -21 -42 -56l-86 -256q-1 -4 1 -7.5t6 -5t7.5 0.5t5.5 6l85 255q9 29 34 46q23 16 52 16h3q28 -1 50 -18t31 -43q4 -22 5.5 -53t-2.5 -54l-20 -100q-4 -20 -16 -36q-3 -6 -0.5 -11.5t9.5 -4.5q9 0 18 -2q10 -3 12 -7q6 -12 10 -35
q5 -33 -1 -64q-4 -14 -20 -44q-11 -20 -29.5 -32.5t-41 -15t-42.5 5.5l-100 40q-25 10 -40 32q-3 4 -7 4.5t-7.5 -2t-4 -6.5t1.5 -7q19 -27 49 -39l100 -40q26 -10 53 -7t49.5 18t35.5 39q3 6 8.5 16t9 18t5.5 16q7 34 1 71q-5 26 -12 40t-25 18q-3 1 -7 2q8 14 11 29v1
l20 98v1q10 45 -3 116l-1 1q-10 32 -37.5 52.5t-61.5 22.5h-4z" />
    <glyph glyph-name="m" unicode="m" horiz-adv-x="460" 
d="M61 550q-26 0 -49 -11t-39 -32q-2 -2 -2 -6q0 -10 10 -10q5 0 8 4q13 17 32 26t40 9q25 0 46.5 -13.5t32.5 -36.5l61 -121l15 -29q2 -6 9 -6q10 0 10 10q0 3 -2 5l-12 25l59 116q13 28 41.5 41.5t59 6t50 -32t19.5 -55.5v-340v0q0 -32 -20 -57t-51.5 -32t-59.5 8
q-25 12 -38 37q17 15 27 35q2 2 2 5q0 10 -10 10q-7 0 -10 -6q-9 -20 -27 -32v-1h-1q-23 -17 -52 -17t-52 17h-1q-18 13 -27 33q-3 5 -9 5q-10 0 -10 -10q0 -2 1 -4q10 -20 27 -35q-10 -18 -26 -29q-19 -15 -43 -17.5t-46 7t-36 29.5q-3 4 -9 4q-10 0 -10 -10q0 -4 3 -6
q17 -24 44 -36t56.5 -8.5t52.5 20.5q19 14 30 35q26 -15 55 -15t54 14q17 -28 46 -43q35 -18 73 -10t62.5 39t24.5 70v340q0 38 -24 68t-61 39t-71.5 -7.5t-51.5 -50.5l-52 -103l-52 103v1q-14 27 -40 43q-26 17 -57 17z" />
    <glyph glyph-name="n" unicode="n" 
d="M319 553q-46 -1 -77.5 -33.5t-30.5 -78.5v-15l-63 82v0q-16 20 -39 31.5t-48.5 11.5t-48.5 -11t-38 -31q-2 -3 -2 -7q0 -10 10 -10q4 0 7 4q13 17 32 26t40 9t39.5 -9.5t31.5 -25.5l81 -105q3 -4 8 -4q9 0 10 10v44v0q-1 38 25 64.5t63 27.5q18 0 35 -7t30 -20t20 -29.5
t7 -35.5v0v-340q0 -29 -17 -52.5t-44.5 -32.5t-55 -0.5t-45.5 31.5l-81 105q-3 4 -7 4q-10 0 -10 -10v-45v0q0 -29 -17 -53t-45 -33.5t-56 -0.5t-45 33q-3 4 -8 4q-10 0 -10 -10q0 -4 2 -6q21 -29 55.5 -40t68 0.5t54.5 40.5t21 65v15l62 -82q22 -28 55.5 -38t67 1t54.5 40
t21 64v340q0 22 -8.5 43t-24.5 36.5t-36.5 24t-42.5 8.5z" />
    <glyph glyph-name="o" unicode="o" 
d="M190 563q-67 0 -132 -13q-55 -11 -76 -32q-5 -5 -9 -11q-2 -2 -2 -6q0 -10 10 -10q5 0 8 4q4 5 7 9q17 16 66 26q63 13 128 13t128 -13q49 -10 66 -26q26 -27 26 -64v-340q0 -37 -26 -64q-17 -16 -66 -26q-108 -22 -240 0q-3 0 -13.5 2t-13.5 2.5l-12 2t-13 3t-10.5 4
t-11.5 6t-9 7.5t-7 8q-3 5 -9 5q-10 0 -10 -10q0 -4 2 -7q5 -5 10 -11q7 -6 15 -10.5t14.5 -7.5t17 -5.5t15 -3.5t17 -2.5t14.5 -2.5q136 -22 248 0q55 11 76 32q32 32 32 78v340q0 46 -32 78q-21 21 -76 32q-65 13 -132 13zM190 350q-14 0 -23 -11q-7 -8 -11 -22
q-6 -19 -6 -47t6 -47q4 -14 11 -22q9 -11 23 -11t23 11q7 8 11 22q6 19 6 47t-6 47q-4 14 -11 22q-9 11 -23 11zM190 330q4 0 8 -4q4 -5 7 -14q5 -17 5 -42t-5 -42q-3 -9 -7 -14q-4 -4 -8 -4t-8 4q-4 5 -7 14q-5 17 -5 42t5 42q3 9 7 14q4 4 8 4z" />
    <glyph glyph-name="p" unicode="p" 
d="M261 555q-83 -1 -150 -34q-73 -36 -119 -110q-2 -3 -2 -6q0 -10 10 -10q6 0 8 5q44 69 112 103q63 32 141 32h5q33 0 69 -6q27 -5 47.5 -24.5t25.5 -46.5q5 -51 5 -151t-5 -185q-5 -27 -24 -46q-7 -6 -16 -14q-4 -3 -4 -8q0 -3 2 -6l26 -33q23 -30 18 -67.5t-34.5 -60
t-67 -17.5t-59.5 35h-1q-27 36 -76 99.5t-88.5 115.5t-75.5 100q-3 4 -8 4q-10 0 -10 -10q0 -3 2 -6q36 -48 75.5 -100t88.5 -115.5t77 -99.5q27 -37 72.5 -43t82 22t42.5 73.5t-23 81.5l-19 26q8 8 10 9q23 24 30 56v2q5 87 5 186.5t-5 154.5v1q-7 33 -31.5 57t-58.5 29
q-37 7 -72 7h-5zM233 352h-2q-17 -3 -31 -10q-19 -10 -31 -24q-2 -3 -2 -6q0 -4 2 -6l56 -73q3 -4 8 -4q4 0 6 2q37 32 32 68q-4 29 -32 51q-3 2 -6 2zM230 331q18 -16 21 -35q3 -21 -17 -42l-44 57q7 7 19 13q8 4 21 7z" />
    <glyph glyph-name="q" unicode="q" 
d="M190 563q-67 0 -132 -13q-55 -11 -76 -32q-4 -5 -9 -11q-3 -3 -2.5 -7t4 -7t8 -2t6.5 4q4 5 7 9q17 16 66 26q63 13 128 13t128 -13q49 -10 66 -26q24 -24 26 -65q6 -93 0 -239q-1 -16 -5 -30q-4 4 -7 8q-3 3 -7.5 3t-7.5 -3t-3 -7t4 -7q31 -34 25 -78q-6 -32 -30 -53
q-25 -22 -55 -23q-41 0 -68 26l-100 100q-19 20 -25 46.5t5 52.5q9 23 29 38l1 1q17 12 39 16q3 0 7 1q15 0 18 7q2 8 3 18q2 8 1 15q-1 10 -7 16q-13 14 -37 14q-1 0 -1 -1q-23 0 -36 -13q-7 -7 -9 -21q-1 -9 1 -22q1 -9 4 -19q-22 -17 -32 -43q-13 -31 -6 -63.5t31 -56.5
l100 -100h1q-14 -7 -45 -12q-58 -10 -120 0q-5 1 -18 2.5t-18.5 2.5t-15 3.5t-16.5 6.5t-13 9q-5 6 -9 11q-2 4 -6.5 4.5t-7.5 -1.5t-4 -6.5t2 -7.5q5 -7 11 -14q8 -7 17 -12t20 -8t17.5 -4.5t19.5 -3t17 -2.5q66 -10 128 0q40 7 58 18q27 -18 60 -18q46 0 78 32t32 78
q0 26 -12 50q11 22 12 50q6 145 0 241q-3 48 -32 77q-21 21 -76 32q-65 13 -132 13zM190 341q15 0 23 -8l1 -4v-11q-1 -2 -2 -7q-24 -2 -46 -13q-1 5 -1 9q-2 10 -1 17t3 9q8 8 23 8z" />
    <glyph glyph-name="r" unicode="r" 
d="M60 550q-46 0 -78 -32q-5 -5 -9 -11q-2 -3 -1.5 -7t3.5 -6.5t7 -2t7 3.5q4 5 7 9q27 26 64 26h260q36 0 61.5 -24.5t28.5 -59.5q6 -167 0 -232q-4 -36 -25 -58q-27 -27 -65 -26q-4 0 -7 -3t-3 -7t3 -7t7 -3q46 -1 79 32l1 1q12 -24 11 -49q-2 -34 -26 -58t-58 -26.5
t-61 18.5l-100 75q-5 4 -10.5 1.5t-5.5 -8.5q-2 -37 -29 -61.5t-63.5 -24t-61.5 26.5q-4 5 -8 9q-2 4 -6.5 4.5t-7.5 -2t-3.5 -6.5t1.5 -8q5 -6 9 -11q32 -31 76.5 -32.5t77.5 29.5q25 23 32 57l87 -65q33 -25 74.5 -22.5t70.5 32t32 70.5q2 36 -18 67q18 28 18 61
q3 161 -1 227q-3 44 -35 73.5t-75 29.5h-260zM191.5 361q-24.5 0 -38.5 -14q-7 -6 -7 -17t7 -17q14 -14 38.5 -14t39.5 14q6 6 6 17t-6 17q-15 14 -39.5 14zM191.5 341q16.5 0 24.5 -8h1v-3v-3h-1q-8 -8 -24.5 -8t-24.5 8q-1 2 -1 3t1 3q8 8 24.5 8z" />
    <glyph glyph-name="s" unicode="s" 
d="M190 563q-67 0 -132 -13q-55 -11 -76 -32q-5 -5 -9 -11q-2 -3 -1.5 -7t3.5 -6.5t7 -2t7 3.5q4 5 7 9q17 16 66 26q63 13 128 13t128 -13q49 -10 65.5 -26.5t26.5 -65.5q4 -30 -0.5 -63.5t-19.5 -52.5q-20 -25 -51.5 -31.5t-60.5 8.5q-11 5 -26.5 21.5t-21.5 20.5
q-15 8 -44 9h-42q-4 0 -7 -3t-3 -7t3 -7t7 -3h42q24 -1 34 -6l14.5 -14.5t17.5 -16.5t17 -12q35 -18 73 -10q36 7 60 35q7 -17 8 -36q5 -104 0 -169q-3 -42 -26 -65q-17 -16 -66 -26q-128 -26 -256 0q-49 10 -66 26l-8 10q-2 3 -6.5 4t-7.5 -1.5t-4 -7t2 -7.5l10 -12
q21 -21 76 -32q132 -26 264 0q55 11 76 32q28 29 32 77q5 67 0 171q-2 31 -14 54q11 25 15 59.5t-1 58.5q-11 55 -32 76t-76 32q-65 13 -132 13zM-1 200q-7 0 -9 -7t4 -11q30 -22 66 -22h120q15 0 23 -7q7 -7 7 -18v-35q0 -4 3 -7t7 -3t7 3t3 7v35q0 20 -14 32.5t-36 12.5
h-120q-30 0 -54 18q-3 2 -7 2z" />
    <glyph glyph-name="t" unicode="t" horiz-adv-x="380" 
d="M341 711q-30 0 -56 -16l-260 -150q-31 -18 -46 -51q-2 -3 -0.5 -7t5.5 -5.5t7.5 0t5.5 4.5q12 27 38 42l260 150q23 14 49 13q30 -1 54 -20.5t31 -49t-5 -57t-39 -42.5l-37 -21q-5 -3 -4 -9l26 -386q2 -37 -22.5 -65t-61.5 -30.5t-65 22t-31 61.5l-19 282l29 16
q7 4 4.5 12t-10.5 7q-2 0 -4 -1l-34 -20l-31 -18q-29 -17 -62.5 -10.5t-54.5 32.5q-3 4 -7 4.5t-7 -2t-3.5 -7t1.5 -7.5q26 -33 66 -41q23 -2 36 -1q15 2 30 9q5 2 28 15l18 -272q3 -45 37.5 -75t80 -27t75.5 37.5t27 80.5l-26 379l31 18q32 18 47 52t6 70t-37.5 59
t-65.5 25h-4z" />
    <glyph glyph-name="u" unicode="u" 
d="M320 551q-46 0 -78.5 -32.5t-31.5 -78.5v-240q-1 -1 -3 -2q-7 -3 -17 -3t-17 3q-2 1 -3 2v240q0 22 -8 42.5t-24 36.5t-36.5 24.5t-43.5 7.5q-45 0 -77 -33q-4 -4 -9 -10q-2 -3 -2 -6q0 -10 10 -10q5 0 8 4q4 4 7 8q26 27 64 27q18 1 35 -6t30 -20t19.5 -30t6.5 -35v0
v-240q0 -7 5 -13q4 -5 10 -7q11 -5 25 -5t25 5q6 2 10 7q5 6 5 13v240v0q-1 38 25.5 64.5t64.5 26.5t64.5 -26.5t25.5 -64.5v0v-340q0 -37 -26 -64q-17 -16 -66 -26q-128 -26 -256 0q-49 10 -66 26l-8 10q-3 4 -8 4q-10 0 -10 -10q0 -3 2 -6l10 -12q21 -21 76 -32
q132 -26 264 0q55 11 76 32q32 32 32 78v340q1 46 -31.5 78.5t-78.5 32.5z" />
    <glyph glyph-name="v" unicode="v" 
d="M320 551q-46 0 -78.5 -32.5t-31.5 -78.5v-139q-40 71 -40 139q0 22 -8.5 42.5t-24.5 36.5t-36.5 24.5t-42.5 7.5q-25 0 -48 -11.5t-38 -31.5q-2 -3 -2 -6q0 -10 10 -10q5 0 8 4q13 16 31.5 25.5t38.5 9.5q18 1 35 -6t30 -20t20 -30t7 -35v0q0 -43 16 -91.5t44 -85.5
q0 -1 1 -2h1q3 -4 8 -4q10 0 10 10v173v0q-1 38 25.5 64.5t64 26.5t64 -26.5t26.5 -64.5v0v-340q0 -37 -26.5 -63.5t-63.5 -26.5q-77 0 -142 40.5t-114 106.5q-33 45 -55 97q-3 6 -9 6q-10 0 -10 -10v-4q24 -53 58 -101q51 -69 120 -112t152 -43q45 0 77.5 32t32.5 78v340
q0 46 -32 78.5t-78 32.5z" />
    <glyph glyph-name="w" unicode="w" horiz-adv-x="460" 
d="M360 551q-46 0 -78.5 -32.5t-31.5 -78.5v-58q-21 8 -43 8q-19 0 -37 -8v58q0 22 -8 42.5t-24 36.5t-36.5 24.5t-43.5 7.5q-25 0 -47.5 -11.5t-38.5 -31.5q-2 -3 -1.5 -7t4 -6.5t7.5 -2t6 3.5q13 16 31.5 25.5t39.5 9.5q18 1 35 -6t30 -20t19.5 -30t6.5 -35v-68
q-15 -9 -24.5 -22t-16 -29t-12 -35t-8.5 -28q-2 -4 -0.5 -8t5.5 -5.5t8 0t6 5.5q4 11 9.5 30.5t11 33.5t12.5 24q27 32 69 32q44 0 69 -32q7 -10 12.5 -24t11 -33.5t9.5 -30.5q2 -4 6 -5.5t8 0t5.5 5.5t-0.5 8q-3 9 -8.5 28.5t-12 35t-16 28.5t-24.5 22v68q-1 38 25.5 64.5
t64.5 26.5t64.5 -26.5t25.5 -64.5v-340q0 -28 -16.5 -51.5t-43 -33t-54 -2t-45.5 28.5l-73 88q-3 4 -8 4t-8 -4l-73 -88q-13 -15 -32 -23.5t-39.5 -8t-39 10t-30.5 25.5q-2 4 -6.5 4.5t-7.5 -2t-4 -7t2 -7.5q15 -20 37.5 -31.5t47.5 -12.5t48 9.5t40 30.5l65 78l66 -78
q22 -27 55.5 -36t66 2.5t52.5 40t20 63.5v340q1 46 -31.5 78.5t-78.5 32.5z" />
    <glyph glyph-name="x" unicode="x" 
d="M320 551q-22 0 -42.5 -8.5t-36.5 -24.5q-31 -32 -31 -79q0 -11 -11 -30q0 1 -1.5 1.5t-1.5 1.5q-23 17 -24 27v1q0 44 -30 77q-32 33 -77 34q-23 1 -43.5 -7t-36.5 -24q-10 -9 -13 -14q-3 -4 -2.5 -8t4.5 -6.5t8 -1.5t6 4q3 4 11 12q13 13 30 19.5t35 5.5q37 -1 63 -28
t25 -64v-1q1 -20 32 -42q15 -12 41 -26q4 -2 8 -1t6 5t1 8t-5 6q-10 5 -19 10q14 23 14 41q0 39 26 65q12 13 29 20t35 7q37 0 63.5 -26t26.5 -64l2 -121q0 -8 -1 -22q-1 -7 -1 -14l-1 1.5t-2 1.5q-17 24 -34 32q-4 1 -8 -0.5t-5.5 -5t0 -7.5t4.5 -6q13 -5 27 -25
q14 -17 18 -32q3 -11 3 -23v-120q0 -38 -26.5 -64.5t-64 -26.5t-64 26.5t-25.5 64.5q-2 30 -41 55q-9 5 -18 9.5t-15 6.5l-5 2q-4 2 -7.5 0t-5 -6t0.5 -7.5t6 -5.5q7 -2 17 -7q-14 -23 -14 -47q1 -38 -25.5 -64.5t-64.5 -26.5t-64 26q-3 3 -7 3.5t-7 -2.5t-3 -7.5t3 -7.5
q32 -32 78 -32t78.5 32.5t31.5 78.5q0 19 11 37q30 -19 31 -37q-1 -46 31 -79q33 -32 79 -32t78 32.5t32 78.5v120q0 14 -4 28q-1 5 -4 12q3 6 4 12q2 6 3 24q1 15 1 24q-1 61 -2 121q0 46 -32 78t-78 32zM0 251q-7 0 -9.5 -6t2.5 -11q10 -10 15 -13q4 -3 8 -1.5t6 5t1 7.5
t-5 6q-3 2 -11 10q-3 3 -7 3z" />
    <glyph glyph-name="y" unicode="y" horiz-adv-x="380" 
d="M278 551q-39 0 -69 -25.5t-37 -63.5v-1l-8 -38l-43 29q-29 19 -64 18t-63 -22q-4 -3 -4 -8q0 -10 10 -10q3 0 6 2q23 17 51.5 18t52.5 -15l56 -37q2 -2 5 -2q8 0 10 8l11 54q6 31 30.5 52t56.5 21q20 1 39 -7.5t32 -24.5t18 -36v0q5 -20 0 -41l-35 -176v-2v-3l34 -116
q5 -18 3 -36t-11 -33q-18 -33 -54 -44q-17 -5 -35 -2.5t-34 10.5q-33 19 -42 55h-1l-29 105q-1 3 -4 5l-150 100q-2 1 -4 3q-3 2 -6 2q-10 0 -10 -10q0 -5 4 -8q2 -2 5 -3v-1l146 -97l29 -101q12 -44 52 -67q20 -11 41.5 -13.5t43.5 3.5q44 13 66 53q10 19 12.5 41t-3.5 43
l-33 115l35 173q5 25 -1 49.5t-22 44t-38.5 30t-48.5 9.5z" />
    <glyph glyph-name="z" unicode="z" 
d="M60 550q-36 0 -66 -22q-3 -3 -3.5 -7t2 -7.5t6.5 -4t7 2.5q24 18 54 18h260q38 0 64 -26q27 -27 26 -64q0 -29 -7 -55q-7 -23 -17 -43q-31 -47 -48 -63q-18 -21 -42 -35.5t-54.5 -28t-46.5 -23.5v0q-21 -13 -30 -29q-5 -8 2 -14q4 -3 9 -2h53q4 -1 8 2q0 1 0.5 1t0.5 1v0
q3 3 2 8v33q66 29 111 72q24 23 42 51q18 -25 17 -55v-160q0 -37 -26 -63.5t-64 -26.5h-260q-30 0 -54 18q-3 3 -7 2t-6.5 -4t-2 -7t3.5 -7q30 -22 66 -22h260q46 0 78 32t32 78v160q1 41 -27 73q15 28 22 57q5 24 5 50q0 21 -10 46q-7 17 -22 32q-32 32 -78 32h-260v0z
M160 350q-4 0 -7 -3t-3 -7q1 -38 -25.5 -64.5t-64.5 -26.5q-17 0 -34 7q-9 3 -16 8q-2 2 -4 3q-3 2 -7 1.5t-7 -4t-2 -7.5t4 -6t5 -4q9 -6 19 -10q21 -8 42 -8q46 0 79 32q28 29 31 69h70q5 0 7.5 3t2.5 7t-2.5 7t-7.5 3h-80zM220 183v-16h-25q9 7 25 16z" />
    <glyph glyph-name="braceleft" unicode="{" horiz-adv-x="461" 
d="M338 590q-29 0 -54 -7q-50 -14 -81 -57q-3 -4 -5 -7q-22 -38 -29 -99q-4 -29 -7 -40q-2 -1 -5 -4q-9 -10 -16 -16l-2 -2q-49 -45 -49 -98q0 -19 5 -35.5t15.5 -30.5t15 -19t15.5 -15q7 -6 16 -15q3 -4 4 -5q4 -13 8 -43q0 -1 1 -8t1 -9t1 -8.5t2 -10t2.5 -10t3 -11t4 -11
t5 -11.5t6 -11t7.5 -12l1 -1q31 -43 81 -57q25 -7 66 -7q33 0 57 23.5t24 56.5t-24 56.5t-57 23.5h-17q0 1 -1 2q-3 11 -4 25q0 2 -1.5 11.5t-2 14.5t-2.5 15t-4 17.5t-5.5 17.5t-7.5 19q-13 27 -35 48q22 21 35 48q15 31 22 92q3 19 6 29q8 1 17 1q33 0 57 23.5t24 56.5
t-24 56.5t-57 23.5h-5.5h-6.5zM338 570h6.5h5.5v0q25 0 43 -17.5t18 -42.5t-18 -42.5t-43 -17.5v0q-19 0 -26 -1q-5 -1 -7 -6q-6 -13 -9 -41q-8 -57 -21 -86q-13 -27 -39 -48q-3 -3 -3 -8t3 -8q26 -21 39 -48q5 -10 8 -19.5t5.5 -21t3.5 -16.5t2.5 -18.5t1.5 -14.5
q2 -14 5 -27q1 -3 2 -7v-1v1v-1q0 -1 1 -2v-1l1 -1l1 -1h1v-1q1 -1 3 -1q3 -1 10 -1q8 -1 18 -1v0q25 0 43 -17.5t18 -42.5t-18 -42.5t-43 -17.5v0q-38 0 -60 6q-44 12 -71 50l-0.5 0.5l-0.5 0.5v0q-4 5 -7 10.5t-5.5 12t-4.5 10.5t-3.5 11t-2.5 10t-2.5 10.5t-1.5 9t-1 10
l-1 8.5q-5 39 -10 51q-1 3 -4 4l-4 4q-9 10 -16 17q-15 13 -20.5 19t-15 25t-9.5 41t9.5 41t15 25t20.5 19q8 7 16 17l4 4q3 1 4 4q5 11 9 47q8 58 28 92v0q1 2 3 5q27 38 71 50q21 6 48 6z" />
    <glyph glyph-name="bar" unicode="|" horiz-adv-x="280" 
d="M169 591q-33 -1 -56 -24.5t-23 -56.5v-500q0 -33 23.5 -57t56.5 -24t56.5 24t23.5 57v500q0 34 -23.5 58t-57.5 23zM169 571q25 0 43 -18t18 -43v0v-500v0q0 -25 -17.5 -43t-42.5 -18t-42.5 18t-17.5 43v0v500v0q0 25 17 43t42 18z" />
    <glyph glyph-name="braceright" unicode="}" horiz-adv-x="460" 
d="M176 590h-2h-4q-33 0 -57 -23.5t-24 -56.5t24 -56.5t57 -23.5q10 0 17 -1q3 -10 6 -29q7 -61 22 -92q13 -27 35 -48q-22 -21 -35 -48q-4 -9 -7.5 -19t-5.5 -17.5t-4 -17.5t-2.5 -15t-2 -14.5t-1.5 -11.5q-1 -14 -4 -25q-1 -1 -1 -2h-17q-33 0 -57 -23.5t-24 -56.5
t24 -56.5t57 -23.5q41 0 66 7q50 14 81 57l1 1q12 18 20 40.5t9 30.5t4 31q4 30 8 43q1 1 4 5q9 9 16 15l2 2q49 45 49 98q0 19 -5 35.5t-15.5 30.5t-15 19t-15.5 15q-7 6 -16 16q-3 3 -5 4q-3 11 -7 40q-7 61 -29 99q-2 3 -5 7q-31 43 -81 57q-25 7 -54 7h-6zM176 570h6
q27 0 48 -6q44 -12 71 -50q2 -3 3 -5v0q20 -34 28 -92q4 -36 9 -47q1 -3 4 -4l4 -4q8 -10 16 -17q15 -13 20.5 -19t15 -25t9.5 -41t-9.5 -41t-15 -25t-20.5 -19q-7 -7 -16 -17l-4 -4q-3 -1 -4 -4q-5 -12 -10 -51q0 -1 -1 -7.5t-1 -8.5t-1 -8.5t-1.5 -9.5t-2 -9t-3 -9.5
t-3.5 -9.5t-4.5 -10.5t-5.5 -9.5l-6 -10l-0.5 -0.5l-0.5 -0.5q-27 -38 -71 -50q-22 -6 -60 -6v0q-25 0 -43 17.5t-18 42.5t18 42.5t43 17.5v0q10 0 18 1q7 0 10 1q2 0 3 2v0h1v1q1 0 2 1v1q1 1 1 2v1v-1v1q1 4 2 7q3 13 5 27q0 1 1.5 14.5t2.5 18.5t3.5 16.5t5.5 21t8 19.5
q13 27 39 48q3 3 3 8t-3 8q-26 21 -39 48q-13 29 -21 86q-3 28 -9 41q-2 5 -7 6q-7 1 -26 1v0q-25 0 -43 17.5t-18 42.5t18 42.5t43 17.5v0h6z" />
    <glyph glyph-name="asciitilde" unicode="~" horiz-adv-x="500" 
d="M220 390q-39 0 -79 -35q-11 -9 -21 -21l-6 -6q-1 -2 -2 -2v-1q-21 -22 -22 -53q-1 -32 20 -55.5t53 -26.5q25 -2 47 11q6 -12 12 -21q32 -44 82 -50q22 -2 40 2t33 14t21.5 15.5t18.5 17.5q10 11 23 26q2 2 8 9l0.5 0.5t0.5 1.5l1 1q20 23 20 53q1 33 -23 57t-57 23.5
t-57 -23.5v-1l-4 -4q-5 9 -10 17q-31 44 -80 50q-10 2 -19 1zM221 370q7 1 15 -1q40 -5 66 -42q9 -12 16 -27q3 -6 9 -6q5 0 8 4q6 8 13 14q17 18 42 18.5t43 -17.5t17.5 -43t-18.5 -42v0q-1 -2 -1 -3q-4 -4 -6 -7q-13 -15 -23 -25q-1 -1 -3 -4q-13 -13 -22 -20.5t-28.5 -14
t-42.5 -4.5q-21 3 -39 15t-28 27q-9 12 -16 27q-3 6 -9 6q-4 0 -7 -2q-18 -15 -42 -13t-40 20t-15 42t18 40v2h1v1q3 2 6 6q9 10 19 19q34 30 67 30zM114 327z" />
    <glyph glyph-name="nonbreakingspace" unicode="&#xa0;" horiz-adv-x="240" 
 />
    <glyph glyph-name="exclamdown" unicode="&#xa1;" horiz-adv-x="198" 
d="M144 -169h-86l8 404h67zM158 355q0 -24 -16.5 -40.5t-40.5 -16.5t-41 16.5t-17 40.5t17 41t41 17t40.5 -17t16.5 -41z" />
    <glyph glyph-name="cent" unicode="&#xa2;" horiz-adv-x="573" 
d="M502 62q-64 -35 -160 -37v-92h-66v96q-94 17 -148.5 82t-54.5 163.5t54.5 164t148.5 82.5v96h66v-93q96 -2 160 -37l-26 -57q-30 13 -62 20t-67 7q-95 0 -148.5 -48t-53.5 -134t53.5 -134.5t148.5 -48.5q35 0 67 7.5t62 20.5z" />
    <glyph glyph-name="sterling" unicode="&#xa3;" horiz-adv-x="573" 
d="M469 0h-362v44q98 61 98 149q0 10 -1 25.5t-4 32.5h-92v55h85q-2 25 -4 46t-2 42q0 168 157 168q48 0 110 -28l-22 -50q-53 22 -90 21q-96 -1 -96 -111q0 -46 8 -88h134v-55h-124q1 -10 1.5 -23.5t0.5 -25.5q0 -88 -50 -146h253v-56z" />
    <glyph glyph-name="currency" unicode="&#xa4;" horiz-adv-x="573" 
d="M512 271q0 -71 -40 -127l44 -47l-52 -55l-46 49q-53 -42 -131 -42q-76 0 -129 42l-46 -49l-52 55l44 47q-41 56 -40.5 127t40.5 127l-44 47l52 55l46 -49q53 42 129 42q78 0 131 -42l46 49l52 -55l-44 -47q40 -56 40 -127zM438 271q0 61 -44.5 105.5t-105.5 44.5
q-64 0 -107 -44.5t-43 -105.5q0 -64 43 -107t107 -43q61 0 105.5 43t44.5 107z" />
    <glyph glyph-name="yen" unicode="&#xa5;" horiz-adv-x="573" 
d="M461 109h-138v-87h-70v87h-138v60h138v39h-138v60h126l-174 285h84l136 -228l137 228h85l-175 -284h127v-61h-138v-39h138v-60z" />
    <glyph glyph-name="brokenbar" unicode="&#xa6;" horiz-adv-x="192" 
d="M125 264h-58v307h58v-307zM125 -143h-58v309h58v-309z" />
    <glyph glyph-name="section" unicode="&#xa7;" horiz-adv-x="453" 
d="M368 85q0 -61 -44 -96q-43 -35 -110 -35q-77 0 -132 46l27 50q24 -23 50.5 -32.5t56.5 -9.5q43 0 69 20t26 51q0 42 -58 71q-30 12 -62.5 24.5t-62.5 25.5q-64 31 -63 99q0 52 47 93q-22 28 -22 63q0 54 41 87.5t108 33.5q31 0 63 -9.5t63 -26.5l-30 -52q-48 35 -102 35
q-35 0 -59 -17.5t-24 -43.5q0 -13 8 -24t21 -20q10 -6 31.5 -15t49.5 -19q61 -22 95.5 -55t34.5 -75q0 -28 -12 -52t-32 -47q22 -28 22 -70zM329 248q0 20 -23.5 41.5t-59.5 34.5q-31 11 -54.5 20.5t-39.5 16.5q-30 -26 -30 -60q0 -14 10 -25.5t26 -23.5q12 -6 32 -15
t51 -20q23 -8 39 -15q15 -6 26 -14q13 16 18 30t5 30z" />
    <glyph glyph-name="dieresis" unicode="&#xa8;" horiz-adv-x="408" 
d="M168 510q0 -23 -15.5 -38t-36.5 -15q-22 0 -37 15q-15 16 -15 38.5t15.5 37.5t36.5 15q20 0 36 -15.5t16 -37.5zM346 510q0 -23 -16 -38t-36 -15t-36 15q-17 16 -17 38.5t16.5 37.5t36.5 15t36 -15.5t16 -37.5z" />
    <glyph glyph-name="copyright" unicode="&#xa9;" horiz-adv-x="540" 
d="M300 470q-87 0 -148.5 -61.5t-61.5 -148.5q0 -89 56 -148q59 -62 154 -62q96 0 153 57t57 153q0 95 -62 154q-59 56 -148 56zM300 450q81 0 134 -51q56 -53 56 -139q0 -87 -51.5 -138.5t-138.5 -51.5q-86 0 -139 56q-51 53 -51 134q0 79 55.5 134.5t134.5 55.5zM300 390
q-56 0 -93 -37t-37 -93q0 -57 34 -93q36 -37 96 -37q63 0 96.5 33.5t33.5 96.5q0 60 -37 96q-36 34 -93 34zM300 370q49 0 79 -29q31 -29 31 -81q0 -54 -28 -82t-82 -28q-52 0 -81 31q-29 30 -29 79q0 48 31 79t79 31zM305 351q-45 0 -70.5 -25.5t-25.5 -65.5t26 -65
q25 -25 63 -28q22 -1 43.5 8.5t33.5 32.5v0q7 15 4 31q-2 11 -9 21l2 2q0 1 1 2q7 12 7 26v0q0 22 -15 39q-10 10 -24 16q-16 6 -36 6zM305 331q17 0 29 -5q10 -4 16 -11q10 -11 10 -25v0q0 -11 -6 -19q-1 -1 -1.5 -1t-1.5 -1v-1l-1 -1q-3 -3 -8 -5q-8 -4 -17 -2.5t-15 8.5
q-2 1 -5 2h-2v0h-1h-2q-3 -1 -4 -1q-6 -3 -6 -10v-1v-1q1 -5 6 -8h1q2 -1 4 -1h1q9 -6 20 -8q14 -2 28 4l6 2q3 -5 4 -10q2 -10 -3 -19q-8 -17 -24.5 -24t-32.5 -6q-32 2 -51 22q-20 19 -20 51t20 51q13 14 24.5 17t31.5 3z" />
    <glyph glyph-name="ordfeminine" unicode="&#xaa;" horiz-adv-x="300" 
d="M270 298h-52q-2 6 -3 13.5t-4 17.5q-34 -34 -84 -35q-96 0 -96 86q0 96 177 100q-2 30 -21 42.5t-43 12.5q-20 0 -41 -4.5t-42 -19.5l-17 41q25 17 53 24t55 7q108 0 108 -132v-101q0 -6 2 -19.5t8 -32.5zM208 389v47q-65 0 -94.5 -14t-29.5 -42q1 -42 50 -42
q11 0 23.5 4t24 10.5t19 15.5t7.5 21z" />
    <glyph glyph-name="guillemotleft" unicode="&#xab;" horiz-adv-x="425" 
d="M391 56h-72l-137 159l137 162h71l-136 -161zM245 56h-73l-136 159l133 163h75l-137 -163z" />
    <glyph glyph-name="logicalnot" unicode="&#xac;" horiz-adv-x="534" 
d="M484 106h-58v175h-385v54h443v-229z" />
    <glyph glyph-name="softhyphen" unicode="&#xad;" horiz-adv-x="505" 
d="M52.5 200q-6.5 18 1.5 35q8 16 28 23l20 6q29 10 56 12q23 2 45 1q22 0 54.5 -1t76.5 0q52 1 74 -4l16 -6q18 -5 27.5 -21.5t4.5 -35.5t-21.5 -29t-36.5 -4l-15 5q-10 2 -48 1q-47 -2 -81 0h-53h-38q-14 -2 -30 -4l-21 -6q-18 -6 -35.5 2t-24 26z" />
    <glyph glyph-name="registered" unicode="&#xae;" horiz-adv-x="450" 
d="M260 540q-67 0 -113.5 -46.5t-46.5 -113.5t46.5 -113.5t113.5 -46.5t113.5 46.5t46.5 113.5t-46.5 113.5t-113.5 46.5zM260 520q59 0 99.5 -40.5t40.5 -99.5t-40.5 -99.5t-99.5 -40.5t-99.5 40.5t-40.5 99.5t40.5 99.5t99.5 40.5zM260 480q-46 0 -73 -27t-27 -73t27 -73
t73 -27t73 27t27 73t-27 73t-73 27zM287 457q19 -5 32 -18q21 -21 21 -59t-21 -59l-1 -1q11 12 11 28q0 13 -8 23q3 4 5 9q10 20 2 41q-9 23 -35 33q-3 2 -6 3zM210 446q-19 -16 -19 -39v-60q0 -10 4 -18q-15 20 -15 51q0 38 21 59q4 4 9 7zM255 441h3q15 0 28 -5
q18 -7 23 -22q5 -13 -1 -26q-3 -5 -7 -10q-3 -3 -3 -7t3 -7l2 -2q6 -6 6 -14t-6 -14t-14 -6t-14 6l-9 9q-3 3 -7 3q-7 0 -10 -7q-2 -7 -8.5 -10.5t-13.5 -2t-11.5 7t-4.5 12.5v1v60q0 9 6.5 17.5t12.5 11.5q11 5 25 5zM261 320q11 -12 28 -12q13 0 23 7q-20 -15 -52 -15
q-22 0 -38 7h1q15 -3 27 4q6 4 11 9z" />
    <glyph glyph-name="macron" unicode="&#xaf;" horiz-adv-x="449" 
d="M451 634h-451v63h451v-63z" />
    <glyph glyph-name="degree" unicode="&#xb0;" horiz-adv-x="329" 
d="M272 476q0 -44 -31 -75t-75 -31t-75.5 31t-31.5 75t31 75.5t75.5 31.5t75.5 -31.5t31 -75.5zM234 476q0 28 -20.5 48.5t-48 20.5t-48 -20.5t-20.5 -48.5t20.5 -48t48.5 -20t48 20t20 48z" />
    <glyph glyph-name="plusminus" unicode="&#xb1;" horiz-adv-x="525" 
d="M486 0h-443v66h443v-66zM480 260h-178v-166h-75v166h-178v66h178v182h75v-182h178v-66z" />
    <glyph glyph-name="twosuperior" unicode="&#xb2;" horiz-adv-x="309" 
d="M260 228h-228q0 37 27 71.5t59 65.5t59 61q27 29 27 56q0 20 -11.5 31t-29.5 11q-23 0 -41 -16.5t-20 -49.5l-50 10q6 54 34.5 82t73.5 28q46 0 74 -26t28 -70q0 -25 -16 -55t-49 -65l-78 -80h149z" />
    <glyph glyph-name="threesuperior" unicode="&#xb3;" horiz-adv-x="309" 
d="M274 353q0 -58 -38 -92.5t-103 -36.5q-49 0 -90 30l24 51q17 -14 34 -19t33 -5q38 0 60.5 19.5t22.5 51.5q0 20 -12.5 31t-29.5 11q-14 0 -29 -6q-15 -5 -24 -12l-19 36q47 22 70.5 45t23.5 42q0 26 -34 27q-20 0 -39.5 -14t-28.5 -42l-45 23q37 86 117 87q82 0 83 -71
q0 -42 -39 -75q63 -18 63 -81z" />
    <glyph glyph-name="acute" unicode="&#xb4;" horiz-adv-x="240" 
d="M139.5 566.5q-12.5 -1.5 -20 -10.5t-5.5 -18l1 -18q5 -11 -5 -27q-13 -26 -20 -27l-8 -4q-12 -4 -17.5 -14.5t0.5 -20t18.5 -13.5t24.5 0l10 5q16 6 30 20q12 13 24 38.5t8 50.5l-2 17q-2 10 -14 16.5t-24.5 5z" />
    <glyph glyph-name="mu" unicode="&#xb5;" horiz-adv-x="493" 
d="M463 5l-73 -15q-6 13 -10 27t-8 31q-34 -26 -69 -42q-36 -17 -77 -17q-28 0 -52.5 9.5t-41.5 30.5v-198h-76v579h76v-218q0 -136 103 -136q44 0 85.5 31t41.5 80v243h76v-301q0 -22 6.5 -48t18.5 -56z" />
    <glyph glyph-name="paragraph" unicode="&#xb6;" horiz-adv-x="453" 
d="M389 -76h-41v608h-58v-608h-42v292h-4q-72 0 -129 45t-57 124q0 185 237 185q64 0 94 -6v-640z" />
    <glyph glyph-name="periodcentered" unicode="&#xb7;" horiz-adv-x="204" 
d="M161 218q0 -24 -17 -40.5t-41 -16.5t-40.5 16.5t-16.5 40.5t16.5 41t40.5 17t41 -17t17 -41z" />
    <glyph glyph-name="cedilla" unicode="&#xb8;" horiz-adv-x="296" 
d="M235 -108q0 -38 -25 -60.5t-71 -22.5q-17 0 -37 5.5t-38 16.5l16 38q17 -8 34 -13q18 -5 28 -5q38 0 38 36q0 34 -77 47l52 79h51l-33 -47q32 -10 47 -28t15 -46z" />
    <glyph glyph-name="onesuperior" unicode="&#xb9;" horiz-adv-x="309" 
d="M252 234h-161v47h52v216l-48 -46l-30 41l99 89q18 0 28 -11.5t10 -29.5v-259h50v-47z" />
    <glyph glyph-name="ordmasculine" unicode="&#xba;" horiz-adv-x="349" 
d="M329 431q0 -65 -45 -109t-109 -44q-65 0 -108.5 44t-43.5 109q0 64 43.5 108.5t108.5 44.5q64 0 109 -44.5t45 -108.5zM276 431q0 41 -30 71t-71 30t-70 -30t-29 -71t29 -70.5t70 -29.5t71 29.5t30 70.5z" />
    <glyph glyph-name="guillemotright" unicode="&#xbb;" horiz-adv-x="425" 
d="M108 56h-72l137 160l-136 161h71l137 -162zM256 56h-74l138 159l-136 163h74l133 -163z" />
    <glyph glyph-name="onequarter" unicode="&#xbc;" horiz-adv-x="648" 
d="M216 211h-161v47h52v209l-46 -40l-33 43l100 89q37 -2 38 -42v-259h50v-47zM190 -11h-60l344 580h60zM498 130v141q-28 -24 -48 -64q-20 -41 -24 -77h72zM557 0h-59v72h-134q0 38 12 86t36 91t61.5 72t83.5 31v-222h50l-2 -58h-48v-72z" />
    <glyph glyph-name="onehalf" unicode="&#xbd;" horiz-adv-x="648" 
d="M624 0h-228q4 46 31 80.5t57 62.5q14 14 29 28t27 28.5t20 28.5t8 26q0 17 -10.5 29t-30.5 12q-49 1 -58 -65l-54 10q5 54 34.5 82t73.5 28q46 0 75 -25q28 -24 28 -71q0 -30 -17 -56t-40.5 -51t-47.5 -48q-25 -22 -39 -44h149zM190 -11h-60l344 580h60zM216 211h-161v47
h52v209l-46 -40l-33 43l100 89q37 -2 38 -42v-259h50v-47z" />
    <glyph glyph-name="threequarters" unicode="&#xbe;" horiz-adv-x="648" 
d="M190 -11h-60l344 580h60zM268 342q0 -31 -12 -55t-31.5 -40.5t-45 -24.5t-52.5 -8q-49 0 -90 30l24 51q17 -13 34 -19.5t33 -6.5q38 0 60.5 20.5t22.5 51.5q0 42 -39 42q-30 0 -56 -22l-19 36q53 28 71.5 49.5t18.5 45.5q0 10 -7 16.5t-23 6.5q-48 0 -68 -59l-45 23
q36 86 117 86q42 0 61.5 -19t19.5 -46q0 -41 -37 -74q32 -5 47.5 -27.5t15.5 -56.5zM498 130v141q-28 -24 -48 -64q-20 -41 -24 -77h72zM557 0h-59v72h-134q0 38 12 86t36 91t61.5 72t83.5 31v-222h50l-2 -58h-48v-72z" />
    <glyph glyph-name="questiondown" unicode="&#xbf;" horiz-adv-x="344" 
d="M318 -137q-71 -44 -138 -44q-68 0 -109.5 36.5t-41.5 97.5q0 63 79 145q28 28 41 56t14 54q0 19 -8 50h68q6 -17 9 -30.5t3 -23.5q0 -66 -69 -139q-61 -65 -62 -109q0 -68 84 -69q52 -1 100 35zM241 352q0 -24 -16.5 -41t-39.5 -17t-40 17t-17 41t17 40.5t40 16.5
t39.5 -16.5t16.5 -40.5z" />
    <glyph glyph-name="Agrave" unicode="&#xc0;" horiz-adv-x="490" 
d="M396 864q-43 0 -85 -31q-55 -41 -55 -99q0 -39 13.5 -73t32.5 -55.5t39 -37t32.5 -22.5t13.5 -7h1q28 -11 56.5 0t43 38t6.5 56q-5 22 -22 39q12 10 19 22q15 26 15 60q0 43 -28 74q-32 36 -82 36zM396 844q41 0 67 -30q23 -25 23 -60q0 -28 -12 -50q-8 -13 -24 -24
q-4 -3 -4 -8.5t4 -8.5q19 -12 24.5 -34.5t-5 -42.5t-32 -28t-42.5 0q-5 2 -13.5 6.5t-29 20t-36 34t-28 49.5t-12.5 66q0 30 12.5 48.5t34.5 34.5q13 10 21 14.5t21.5 8.5t30.5 4zM359 551q-26 0 -51 -3q-26 -2 -40.5 -4.5t-41 -9.5t-49.5 -21t-44.5 -35.5t-38 -48
t-25.5 -45t-17 -52t-10 -44.5t-8 -48q-12 -74 -14 -137q-2 -39 22.5 -71t63 -40.5t74.5 9.5q32 16 48 48q61 -3 84.5 -26.5t56 -30t63.5 6t49.5 40.5t18.5 61v340q0 43 -29.5 74.5t-72.5 35.5v0q-11 1 -26 1h-7h-6zM359 531h6h6l26 -1v0q35 -3 59 -29t24 -61v-340
q0 -27 -15 -50t-40.5 -33.5t-52 -5t-46.5 24.5q-30 30 -104 33q-7 0 -9 -6q-13 -30 -42 -44.5t-61 -7.5t-51.5 33t-18.5 59v0q2 62 14 134q6 36 7.5 47t9.5 43t16.5 49.5t23.5 42.5t35 45q20 19 41 32t45.5 19.5t37.5 8.5t40 4q24 3 49 3zM290 340q-2 0 -3 -1q-5 -1 -7 -2
h-1q-6 0 -8 -5q-4 -7 -10 -24q-10 -23 -17 -47v-3q0 -9 9 -10q18 -2 35 -4h2q10 0 10 10v76q0 10 -10 10zM280 302v-37q-6 1 -13 1q6 20 12 35z" />
    <glyph glyph-name="Aacute" unicode="&#xc1;" horiz-adv-x="490" 
d="M290.5 820.5q-12.5 -1.5 -20 -10.5t-5.5 -18l1 -18q5 -11 -5 -27q-13 -26 -20 -27l-8 -4q-12 -4 -17.5 -14.5t0.5 -20t18.5 -13.5t24.5 0l10 5q16 6 30 20q12 13 24 38.5t8 50.5l-2 17q-2 10 -14 16.5t-24.5 5zM359 551q-26 0 -51 -3q-26 -2 -40.5 -4.5t-41 -9.5
t-49.5 -21t-44.5 -35.5t-38 -48t-25.5 -45t-17 -52t-10 -44.5t-8 -48q-12 -74 -14 -137q-2 -39 22.5 -71t63 -40.5t74.5 9.5q32 16 48 48q61 -3 84.5 -26.5t56 -30t63.5 6t49.5 40.5t18.5 61v340q0 43 -29.5 74.5t-72.5 35.5v0q-11 1 -26 1h-7h-6zM359 531h6h6l26 -1v0
q35 -3 59 -29t24 -61v-340q0 -27 -15 -50t-40.5 -33.5t-52 -5t-46.5 24.5q-30 30 -104 33q-7 0 -9 -6q-13 -30 -42 -44.5t-61 -7.5t-51.5 33t-18.5 59v0q2 62 14 134q6 36 7.5 47t9.5 43t16.5 49.5t23.5 42.5t35 45q20 19 41 32t45.5 19.5t37.5 8.5t40 4q24 3 49 3zM290 340
q-2 0 -3 -1q-5 -1 -7 -2h-1q-6 0 -8 -5q-4 -7 -10 -24q-10 -23 -17 -47v-3q0 -9 9 -10q18 -2 35 -4h2q10 0 10 10v76q0 10 -10 10zM280 302v-37q-6 1 -13 1q6 20 12 35z" />
    <glyph glyph-name="Acircumflex" unicode="&#xc2;" horiz-adv-x="490" 
d="M395 716h-65l-49 85l-48 -85h-66l93 138h42zM359 551q-26 0 -51 -3q-26 -2 -40.5 -4.5t-41 -9.5t-49.5 -21t-44.5 -35.5t-38 -48t-25.5 -45t-17 -52t-10 -44.5t-8 -48q-12 -74 -14 -137q-2 -39 22.5 -71t63 -40.5t74.5 9.5q32 16 48 48q61 -3 84.5 -26.5t56 -30t63.5 6
t49.5 40.5t18.5 61v340q0 43 -29.5 74.5t-72.5 35.5v0q-11 1 -26 1h-7h-6zM359 531h6h6l26 -1v0q35 -3 59 -29t24 -61v-340q0 -27 -15 -50t-40.5 -33.5t-52 -5t-46.5 24.5q-30 30 -104 33q-7 0 -9 -6q-13 -30 -42 -44.5t-61 -7.5t-51.5 33t-18.5 59v0q2 62 14 134
q6 36 7.5 47t9.5 43t16.5 49.5t23.5 42.5t35 45q20 19 41 32t45.5 19.5t37.5 8.5t40 4q24 3 49 3zM290 340q-2 0 -3 -1q-5 -1 -7 -2h-1q-6 0 -8 -5q-4 -7 -10 -24q-10 -23 -17 -47v-3q0 -9 9 -10q18 -2 35 -4h2q10 0 10 10v76q0 10 -10 10zM280 302v-37q-6 1 -13 1
q6 20 12 35z" />
    <glyph glyph-name="Atilde" unicode="&#xc3;" horiz-adv-x="490" 
d="M430 786q-1 -42 -18.5 -67t-52.5 -25q-10 0 -23.5 5.5t-28.5 12t-28.5 12t-21.5 5.5q-10 0 -12 -9q-2 -8 -3 -20h-52q0 36 17 61t50 25q11 0 24.5 -5t27 -11.5t26 -11.5t20.5 -5q23 0 23 33h52zM359 551q-26 0 -51 -3q-26 -2 -40.5 -4.5t-41 -9.5t-49.5 -21t-44.5 -35.5
t-38 -48t-25.5 -45t-17 -52t-10 -44.5t-8 -48q-12 -74 -14 -137q-2 -39 22.5 -71t63 -40.5t74.5 9.5q32 16 48 48q61 -3 84.5 -26.5t56 -30t63.5 6t49.5 40.5t18.5 61v340q0 43 -29.5 74.5t-72.5 35.5v0q-11 1 -26 1h-7h-6zM359 531h6h6l26 -1v0q35 -3 59 -29t24 -61v-340
q0 -27 -15 -50t-40.5 -33.5t-52 -5t-46.5 24.5q-30 30 -104 33q-7 0 -9 -6q-13 -30 -42 -44.5t-61 -7.5t-51.5 33t-18.5 59v0q2 62 14 134q6 36 7.5 47t9.5 43t16.5 49.5t23.5 42.5t35 45q20 19 41 32t45.5 19.5t37.5 8.5t40 4q24 3 49 3zM290 340q-2 0 -3 -1q-5 -1 -7 -2
h-1q-6 0 -8 -5q-4 -7 -10 -24q-10 -23 -17 -47v-3q0 -9 9 -10q18 -2 35 -4h2q10 0 10 10v76q0 10 -10 10zM280 302v-37q-6 1 -13 1q6 20 12 35z" />
    <glyph glyph-name="Adieresis" unicode="&#xc4;" horiz-adv-x="490" 
d="M314 762q0 -23 -15.5 -38t-36.5 -15q-22 0 -37 15q-15 16 -15 38.5t15.5 37.5t36.5 15q20 0 36 -15.5t16 -37.5zM492 762q0 -23 -16 -38t-36 -15t-36 15q-17 16 -17 38.5t16.5 37.5t36.5 15t36 -15.5t16 -37.5zM359 551q-26 0 -51 -3q-26 -2 -40.5 -4.5t-41 -9.5
t-49.5 -21t-44.5 -35.5t-38 -48t-25.5 -45t-17 -52t-10 -44.5t-8 -48q-12 -74 -14 -137q-2 -39 22.5 -71t63 -40.5t74.5 9.5q32 16 48 48q61 -3 84.5 -26.5t56 -30t63.5 6t49.5 40.5t18.5 61v340q0 43 -29.5 74.5t-72.5 35.5v0q-11 1 -26 1h-7h-6zM359 531h6h6l26 -1v0
q35 -3 59 -29t24 -61v-340q0 -27 -15 -50t-40.5 -33.5t-52 -5t-46.5 24.5q-30 30 -104 33q-7 0 -9 -6q-13 -30 -42 -44.5t-61 -7.5t-51.5 33t-18.5 59v0q2 62 14 134q6 36 7.5 47t9.5 43t16.5 49.5t23.5 42.5t35 45q20 19 41 32t45.5 19.5t37.5 8.5t40 4q24 3 49 3zM290 340
q-2 0 -3 -1q-5 -1 -7 -2h-1q-6 0 -8 -5q-4 -7 -10 -24q-10 -23 -17 -47v-3q0 -9 9 -10q18 -2 35 -4h2q10 0 10 10v76q0 10 -10 10zM280 302v-37q-6 1 -13 1q6 20 12 35z" />
    <glyph glyph-name="Aring" unicode="&#xc5;" horiz-adv-x="490" 
d="M411 804q0 -40 -28.5 -68t-68 -28t-67.5 28t-28 68t28 68t68 28t68 -28t28 -68zM360 804q0 19 -13 32t-32 13t-33 -13t-14 -32t13.5 -33t33 -14t32.5 14t13 33zM359 551q-26 0 -51 -3q-26 -2 -40.5 -4.5t-41 -9.5t-49.5 -21t-44.5 -35.5t-38 -48t-25.5 -45t-17 -52
t-10 -44.5t-8 -48q-12 -74 -14 -137q-2 -39 22.5 -71t63 -40.5t74.5 9.5q32 16 48 48q61 -3 84.5 -26.5t56 -30t63.5 6t49.5 40.5t18.5 61v340q0 43 -29.5 74.5t-72.5 35.5v0q-11 1 -26 1h-7h-6zM359 531h6h6l26 -1v0q35 -3 59 -29t24 -61v-340q0 -27 -15 -50t-40.5 -33.5
t-52 -5t-46.5 24.5q-30 30 -104 33q-7 0 -9 -6q-13 -30 -42 -44.5t-61 -7.5t-51.5 33t-18.5 59v0q2 62 14 134q6 36 7.5 47t9.5 43t16.5 49.5t23.5 42.5t35 45q20 19 41 32t45.5 19.5t37.5 8.5t40 4q24 3 49 3zM290 340q-2 0 -3 -1q-5 -1 -7 -2h-1q-6 0 -8 -5q-4 -7 -10 -24
q-10 -23 -17 -47v-3q0 -9 9 -10q18 -2 35 -4h2q10 0 10 10v76q0 10 -10 10zM280 302v-37q-6 1 -13 1q6 20 12 35z" />
    <glyph glyph-name="AE" unicode="&#xc6;" horiz-adv-x="696" 
d="M666 0h-275l-32 228h-168l-121 -228h-82l311 580h353v-66h-262l23 -177h227v-66h-216l31 -205h211v-66zM349 293l-23 193l-103 -193h126z" />
    <glyph glyph-name="Ccedilla" unicode="&#xc7;" horiz-adv-x="520" 
d="M435 -108q0 -38 -25 -60.5t-71 -22.5q-17 0 -37 5.5t-38 16.5l16 38q17 -8 34 -13q18 -5 28 -5q38 0 38 36q0 34 -77 47l52 79h51l-33 -47q32 -10 47 -28t15 -46zM290 563q-67 0 -132 -13q-55 -11 -76 -32q-32 -32 -32 -78v-340q0 -46 32 -78q21 -21 76 -32
q65 -13 132 -13t132 13q55 11 76 32q32 32 32 78v100q0 32 -17 60q9 15 14 33q0 1 1 3v1v3q1 2 1 4q1 4 1 7v1v1v3v4v0v120q0 46 -32 78q-21 21 -76 32q-65 13 -132 13zM290 543q65 0 128 -13q49 -9 66 -26q26 -26 26 -63v-1v-120v0v-3v-0.5v-0.5v-1q0 -3 -1 -6v-3
q0 -3 -1 -4q0 -3 -1 -6q0 -1 -1 -2v-3q-1 0 -1 -1v-1t-0.5 -1t-0.5 -0.5v-0.5q0 -1 -1 -2v-2l-2 -4q-1 -1 -1 -2l-2 -4q-1 -1 -1 -1.5t-1 -0.5v-1l-1 -1v-1h-1q-1 -1 -1 -2q-4 -6 -9 -11q-26 -26 -64 -26t-64 26q-5 5 -8 10l-1 1q-1 2 -2 3t-2 3q-1 1 -2 3q0 1 -1 3
l-0.5 0.5t-1.5 2.5v1q-1 1 -1 2v1q-1 1 -1 2l-1 1v3h-1v1v1v1l-1 1q0 2 -1 3v1v1q-1 3 -1 6v3q-1 3 -1 6v1v0.5v0.5v3v0v0v20q0 8 -8 10q-6 1 -13 2q-8 1 -12 1q-7 -1 -13 -5q-34 -22 -34 -78t34 -78q9 -6 25 -4l13 2q8 2 8 10q0 23 10 43l2 -2q32 -32 78 -32t78 32l2 2
q10 -20 10 -43v0v-100q0 -37 -26 -64q-17 -17 -66 -26q-63 -13 -128 -13t-128 13q-49 9 -66 26q-26 27 -26 64v340q0 37 26 64q17 17 66 26q63 13 128 13zM302.5 332h4.5h3v-11v-1v0v-4q0 -4 1 -8v-4q0 -4 1 -8q4 -19 15 -36q-15 -24 -17 -52h-1h-2h-5.5h-4.5t-1 0
q-12 8 -19 26t-7 36t7 36t18 26h2h5.5z" />
    <glyph glyph-name="Egrave" unicode="&#xc8;" horiz-adv-x="520" 
d="M407 864q-43 0 -85 -31q-55 -41 -55 -99q0 -39 13.5 -73t32.5 -55.5t39 -37t32.5 -22.5t13.5 -7h1q28 -11 56.5 0t43 38t6.5 56q-5 22 -22 39q12 10 19 22q15 26 15 60q0 43 -28 74q-32 36 -82 36zM407 844q41 0 67 -30q23 -25 23 -60q0 -28 -12 -50q-8 -13 -24 -24
q-4 -3 -4 -8.5t4 -8.5q19 -12 24.5 -34.5t-5 -42.5t-32 -28t-42.5 0q-5 2 -13.5 6.5t-29 20t-36 34t-28 49.5t-12.5 66q0 30 12.5 48.5t34.5 34.5q13 10 21 14.5t21.5 8.5t30.5 4zM155 550q-23 0 -44.5 -10.5t-36.5 -29t-21 -41.5q-3 -9 -3 -45v-308q0 -36 4 -48
q7 -24 24.5 -42.5t40.5 -27.5t48 -8h253q46 0 78 32.5t32 77.5v80q0 26 -11 50h-1q-1 3 -3 6q15 25 15 54.5t-14 55.5l4 8q10 22 10 46v40q0 46 -32 78t-78 32h-254q-6 1 -11 0zM166 530h254q38 0 64 -26t26 -64v-40q0 -19 -8 -37q-7 -16 -22 -23t-31 -6q-23 2 -82.5 11.5
t-106.5 9.5q-4 0 -7 -3t-3 -7t3 -7t7 -3q45 0 103.5 -9.5t83.5 -11.5q31 -2 54 16q9 -19 9 -39q0 -21 -9 -39q-30 27 -66 16q-21 -5 -58 -18t-62.5 -19t-54.5 -6q-4 0 -7 -3t-3 -7t3 -7t7 -3q31 0 58.5 6.5t65 19.5t56.5 18q16 5 33 -2.5t28 -25.5q9 -19 9 -41v-80
q0 -37 -26 -63.5t-64 -26.5h-253h-1q-20 -1 -39.5 6.5t-33.5 22.5t-20 35q-3 9 -3 42v308q0 33 2 40q5 18 17.5 33.5t30 24t36.5 8.5q5 1 10 0z" />
    <glyph glyph-name="Eacute" unicode="&#xc9;" horiz-adv-x="520" 
d="M308.5 820.5q-12.5 -1.5 -20 -10.5t-5.5 -18l1 -18q5 -11 -5 -27q-13 -26 -20 -27l-8 -4q-12 -4 -17.5 -14.5t0.5 -20t18.5 -13.5t24.5 0l10 5q16 6 30 20q12 13 24 38.5t8 50.5l-2 17q-2 10 -14 16.5t-24.5 5zM155 550q-23 0 -44.5 -10.5t-36.5 -29t-21 -41.5
q-3 -9 -3 -45v-308q0 -36 4 -48q7 -24 24.5 -42.5t40.5 -27.5t48 -8h253q46 0 78 32.5t32 77.5v80q0 26 -11 50h-1q-1 3 -3 6q15 25 15 54.5t-14 55.5l4 8q10 22 10 46v40q0 46 -32 78t-78 32h-254q-6 1 -11 0zM166 530h254q38 0 64 -26t26 -64v-40q0 -19 -8 -37
q-7 -16 -22 -23t-31 -6q-23 2 -82.5 11.5t-106.5 9.5q-4 0 -7 -3t-3 -7t3 -7t7 -3q45 0 103.5 -9.5t83.5 -11.5q31 -2 54 16q9 -19 9 -39q0 -21 -9 -39q-30 27 -66 16q-21 -5 -58 -18t-62.5 -19t-54.5 -6q-4 0 -7 -3t-3 -7t3 -7t7 -3q31 0 58.5 6.5t65 19.5t56.5 18
q16 5 33 -2.5t28 -25.5q9 -19 9 -41v-80q0 -37 -26 -63.5t-64 -26.5h-253h-1q-20 -1 -39.5 6.5t-33.5 22.5t-20 35q-3 9 -3 42v308q0 33 2 40q5 18 17.5 33.5t30 24t36.5 8.5q5 1 10 0z" />
    <glyph glyph-name="Ecircumflex" unicode="&#xca;" horiz-adv-x="520" 
d="M413 716h-65l-49 85l-48 -85h-66l93 138h42zM155 550q-23 0 -44.5 -10.5t-36.5 -29t-21 -41.5q-3 -9 -3 -45v-308q0 -36 4 -48q7 -24 24.5 -42.5t40.5 -27.5t48 -8h253q46 0 78 32.5t32 77.5v80q0 26 -11 50h-1q-1 3 -3 6q15 25 15 54.5t-14 55.5l4 8q10 22 10 46v40
q0 46 -32 78t-78 32h-254q-6 1 -11 0zM166 530h254q38 0 64 -26t26 -64v-40q0 -19 -8 -37q-7 -16 -22 -23t-31 -6q-23 2 -82.5 11.5t-106.5 9.5q-4 0 -7 -3t-3 -7t3 -7t7 -3q45 0 103.5 -9.5t83.5 -11.5q31 -2 54 16q9 -19 9 -39q0 -21 -9 -39q-30 27 -66 16q-21 -5 -58 -18
t-62.5 -19t-54.5 -6q-4 0 -7 -3t-3 -7t3 -7t7 -3q31 0 58.5 6.5t65 19.5t56.5 18q16 5 33 -2.5t28 -25.5q9 -19 9 -41v-80q0 -37 -26 -63.5t-64 -26.5h-253h-1q-20 -1 -39.5 6.5t-33.5 22.5t-20 35q-3 9 -3 42v308q0 33 2 40q5 18 17.5 33.5t30 24t36.5 8.5q5 1 10 0z" />
    <glyph glyph-name="Edieresis" unicode="&#xcb;" horiz-adv-x="520" 
d="M335 762q0 -23 -15.5 -38t-36.5 -15q-22 0 -37 15q-15 16 -15 38.5t15.5 37.5t36.5 15q20 0 36 -15.5t16 -37.5zM513 762q0 -23 -16 -38t-36 -15t-36 15q-17 16 -17 38.5t16.5 37.5t36.5 15t36 -15.5t16 -37.5zM155 550q-23 0 -44.5 -10.5t-36.5 -29t-21 -41.5
q-3 -9 -3 -45v-308q0 -36 4 -48q7 -24 24.5 -42.5t40.5 -27.5t48 -8h253q46 0 78 32.5t32 77.5v80q0 26 -11 50h-1q-1 3 -3 6q15 25 15 54.5t-14 55.5l4 8q10 22 10 46v40q0 46 -32 78t-78 32h-254q-6 1 -11 0zM166 530h254q38 0 64 -26t26 -64v-40q0 -19 -8 -37
q-7 -16 -22 -23t-31 -6q-23 2 -82.5 11.5t-106.5 9.5q-4 0 -7 -3t-3 -7t3 -7t7 -3q45 0 103.5 -9.5t83.5 -11.5q31 -2 54 16q9 -19 9 -39q0 -21 -9 -39q-30 27 -66 16q-21 -5 -58 -18t-62.5 -19t-54.5 -6q-4 0 -7 -3t-3 -7t3 -7t7 -3q31 0 58.5 6.5t65 19.5t56.5 18
q16 5 33 -2.5t28 -25.5q9 -19 9 -41v-80q0 -37 -26 -63.5t-64 -26.5h-253h-1q-20 -1 -39.5 6.5t-33.5 22.5t-20 35q-3 9 -3 42v308q0 33 2 40q5 18 17.5 33.5t30 24t36.5 8.5q5 1 10 0z" />
    <glyph glyph-name="Igrave" unicode="&#xcc;" horiz-adv-x="300" 
d="M252 864q-43 0 -85 -31q-55 -41 -55 -99q0 -39 13.5 -73t32.5 -55.5t39 -37t32.5 -22.5t13.5 -7h1q28 -11 56.5 0t43 38t6.5 56q-5 22 -22 39q12 10 19 22q15 26 15 60q0 43 -28 74q-32 36 -82 36zM252 844q41 0 67 -30q23 -25 23 -60q0 -28 -12 -50q-8 -13 -24 -24
q-4 -3 -4 -8.5t4 -8.5q19 -12 24.5 -34.5t-5 -42.5t-32 -28t-42.5 0q-5 2 -13.5 6.5t-29 20t-36 34t-28 49.5t-12.5 66q0 30 12.5 48.5t34.5 34.5q13 10 21 14.5t21.5 8.5t30.5 4zM160 550q-46 0 -78 -32t-32 -78v-324q0 -37 4 -50q22 -55 73 -72q13 -4 23.5 -4.5t28 0
t21.5 0.5q46 0 78 32t32 78v340q0 46 -32 78t-78 32h-40zM160 530h40q37 0 63.5 -26.5t26.5 -63.5v-340q0 -37 -26.5 -63.5t-63.5 -26.5q-7 0 -18 -0.5t-17 -0.5t-15 1t-17 3q-42 14 -60 60q-3 9 -3 43v324q0 37 26.5 63.5t63.5 26.5z" />
    <glyph glyph-name="Iacute" unicode="&#xcd;" horiz-adv-x="300" 
d="M151.5 820.5q-12.5 -1.5 -20 -10.5t-5.5 -18l1 -18q5 -11 -5 -27q-13 -26 -20 -27l-8 -4q-12 -4 -17.5 -14.5t0.5 -20t18.5 -13.5t24.5 0l10 5q16 6 30 20q12 13 24 38.5t8 50.5l-2 17q-2 10 -14 16.5t-24.5 5zM160 550q-46 0 -78 -32t-32 -78v-324q0 -37 4 -50
q22 -55 73 -72q13 -4 23.5 -4.5t28 0t21.5 0.5q46 0 78 32t32 78v340q0 46 -32 78t-78 32h-40zM160 530h40q37 0 63.5 -26.5t26.5 -63.5v-340q0 -37 -26.5 -63.5t-63.5 -26.5q-7 0 -18 -0.5t-17 -0.5t-15 1t-17 3q-42 14 -60 60q-3 9 -3 43v324q0 37 26.5 63.5t63.5 26.5z
" />
    <glyph glyph-name="Icircumflex" unicode="&#xce;" horiz-adv-x="300" 
d="M257 716h-65l-49 85l-48 -85h-66l93 138h42zM160 550q-46 0 -78 -32t-32 -78v-324q0 -37 4 -50q22 -55 73 -72q13 -4 23.5 -4.5t28 0t21.5 0.5q46 0 78 32t32 78v340q0 46 -32 78t-78 32h-40zM160 530h40q37 0 63.5 -26.5t26.5 -63.5v-340q0 -37 -26.5 -63.5t-63.5 -26.5
q-7 0 -18 -0.5t-17 -0.5t-15 1t-17 3q-42 14 -60 60q-3 9 -3 43v324q0 37 26.5 63.5t63.5 26.5z" />
    <glyph glyph-name="Idieresis" unicode="&#xcf;" horiz-adv-x="300" 
d="M180 762q0 -23 -15.5 -38t-36.5 -15q-22 0 -37 15q-15 16 -15 38.5t15.5 37.5t36.5 15q20 0 36 -15.5t16 -37.5zM358 762q0 -23 -16 -38t-36 -15t-36 15q-17 16 -17 38.5t16.5 37.5t36.5 15t36 -15.5t16 -37.5zM160 550q-46 0 -78 -32t-32 -78v-324q0 -37 4 -50
q22 -55 73 -72q13 -4 23.5 -4.5t28 0t21.5 0.5q46 0 78 32t32 78v340q0 46 -32 78t-78 32h-40zM160 530h40q37 0 63.5 -26.5t26.5 -63.5v-340q0 -37 -26.5 -63.5t-63.5 -26.5q-7 0 -18 -0.5t-17 -0.5t-15 1t-17 3q-42 14 -60 60q-3 9 -3 43v324q0 37 26.5 63.5t63.5 26.5z
" />
    <glyph glyph-name="Eth" unicode="&#xd0;" horiz-adv-x="548" 
d="M520 298q0 -130 -63 -208q-77 -95 -236 -95q-49 0 -161 12v240h-49v65h49v250q137 16 185 15q146 -1 217 -87q58 -72 58 -192zM443 298q0 215 -202 214q-34 0 -105 -7v-193h192v-65h-192v-183q40 -4 99 -4q116 0 169 83q39 61 39 155z" />
    <glyph glyph-name="Ntilde" unicode="&#xd1;" horiz-adv-x="520" 
d="M508 786q-1 -42 -18.5 -67t-52.5 -25q-10 0 -23.5 5.5t-28.5 12t-28.5 12t-21.5 5.5q-10 0 -12 -9q-2 -8 -3 -20h-52q0 36 17 61t50 25q11 0 24.5 -5t27 -11.5t26 -11.5t20.5 -5q23 0 23 33h52zM418 551q-45 0 -77 -33t-31 -78v-15l-63 82q-21 28 -55 38.5t-67.5 -1
t-54 -40.5t-20.5 -64v-340q-1 -46 31.5 -78.5t78.5 -32.5t78.5 32.5t31.5 78.5v15l63 -82q21 -28 55 -38.5t67.5 1t54 40.5t20.5 64v340q0 22 -8 42.5t-24 36.5t-36.5 24.5t-43.5 7.5zM419 531q18 1 35 -6t30 -20t19.5 -30t6.5 -35v0v-340q0 -29 -17 -52.5t-44.5 -33t-55 -1
t-45.5 31.5l-80 106q-3 4 -8 4q-10 0 -10 -10v-45v0q1 -38 -25.5 -64.5t-64.5 -26.5t-64.5 26.5t-25.5 64.5v0v340q0 29 17 52.5t44.5 33t55 1t45.5 -31.5l80 -106q3 -4 8 -4q10 0 10 10v45v0q-1 37 25 64t64 27z" />
    <glyph glyph-name="Ograve" unicode="&#xd2;" horiz-adv-x="520" 
d="M474 864q-43 0 -85 -31q-55 -41 -55 -99q0 -39 13.5 -73t32.5 -55.5t39 -37t32.5 -22.5t13.5 -7h1q28 -11 56.5 0t43 38t6.5 56q-5 22 -22 39q12 10 19 22q15 26 15 60q0 43 -28 74q-32 36 -82 36zM474 844q41 0 67 -30q23 -25 23 -60q0 -28 -12 -50q-8 -13 -24 -24
q-4 -3 -4 -8.5t4 -8.5q19 -12 24.5 -34.5t-5 -42.5t-32 -28t-42.5 0q-5 2 -13.5 6.5t-29 20t-36 34t-28 49.5t-12.5 66q0 30 12.5 48.5t34.5 34.5q13 10 21 14.5t21.5 8.5t30.5 4zM290 563q-67 0 -132 -13q-55 -11 -76 -32q-32 -32 -32 -78v-324q0 -62 31 -94q7 -6 15 -10.5
t14.5 -7.5t17 -5.5t15 -3.5t17 -2.5t14.5 -2.5q136 -22 248 0q55 11 76 32q32 32 32 78v340q0 46 -32 78q-21 21 -76 32q-65 13 -132 13zM290 543q65 0 128 -13q49 -9 66 -26q26 -27 26 -64v-340q0 -37 -26 -64q-17 -17 -66 -26q-108 -22 -240 0q-3 0 -13.5 2t-13.5 2.5
l-12 2t-13 3t-10.5 4t-11.5 6t-9 7.5q-25 25 -25 79v324q0 37 26 64q17 17 66 26q63 13 128 13zM290 350q-14 0 -23 -11q-7 -8 -11 -22q-6 -19 -6 -47t6 -47q4 -14 11 -22q9 -11 23 -11t23 11q7 8 11 22q6 19 6 47t-6 47q-4 14 -11 22q-9 11 -23 11zM290 330q4 0 8 -4
q4 -5 7 -14q5 -17 5 -42t-5 -42q-3 -9 -7 -14q-4 -4 -8 -4t-8 4q-4 5 -7 14q-5 17 -5 42t5 42q3 9 7 14q4 4 8 4z" />
    <glyph glyph-name="Oacute" unicode="&#xd3;" horiz-adv-x="520" 
d="M375.5 820.5q-12.5 -1.5 -20 -10.5t-5.5 -18l1 -18q5 -11 -5 -27q-13 -26 -20 -27l-8 -4q-12 -4 -17.5 -14.5t0.5 -20t18.5 -13.5t24.5 0l10 5q16 6 30 20q12 13 24 38.5t8 50.5l-2 17q-2 10 -14 16.5t-24.5 5zM290 563q-67 0 -132 -13q-55 -11 -76 -32q-32 -32 -32 -78
v-324q0 -62 31 -94q7 -6 15 -10.5t14.5 -7.5t17 -5.5t15 -3.5t17 -2.5t14.5 -2.5q136 -22 248 0q55 11 76 32q32 32 32 78v340q0 46 -32 78q-21 21 -76 32q-65 13 -132 13zM290 543q65 0 128 -13q49 -9 66 -26q26 -27 26 -64v-340q0 -37 -26 -64q-17 -17 -66 -26
q-108 -22 -240 0q-3 0 -13.5 2t-13.5 2.5l-12 2t-13 3t-10.5 4t-11.5 6t-9 7.5q-25 25 -25 79v324q0 37 26 64q17 17 66 26q63 13 128 13zM290 350q-14 0 -23 -11q-7 -8 -11 -22q-6 -19 -6 -47t6 -47q4 -14 11 -22q9 -11 23 -11t23 11q7 8 11 22q6 19 6 47t-6 47
q-4 14 -11 22q-9 11 -23 11zM290 330q4 0 8 -4q4 -5 7 -14q5 -17 5 -42t-5 -42q-3 -9 -7 -14q-4 -4 -8 -4t-8 4q-4 5 -7 14q-5 17 -5 42t5 42q3 9 7 14q4 4 8 4z" />
    <glyph glyph-name="Ocircumflex" unicode="&#xd4;" horiz-adv-x="520" 
d="M479 716h-65l-49 85l-48 -85h-66l93 138h42zM290 563q-67 0 -132 -13q-55 -11 -76 -32q-32 -32 -32 -78v-324q0 -62 31 -94q7 -6 15 -10.5t14.5 -7.5t17 -5.5t15 -3.5t17 -2.5t14.5 -2.5q136 -22 248 0q55 11 76 32q32 32 32 78v340q0 46 -32 78q-21 21 -76 32
q-65 13 -132 13zM290 543q65 0 128 -13q49 -9 66 -26q26 -27 26 -64v-340q0 -37 -26 -64q-17 -17 -66 -26q-108 -22 -240 0q-3 0 -13.5 2t-13.5 2.5l-12 2t-13 3t-10.5 4t-11.5 6t-9 7.5q-25 25 -25 79v324q0 37 26 64q17 17 66 26q63 13 128 13zM290 350q-14 0 -23 -11
q-7 -8 -11 -22q-6 -19 -6 -47t6 -47q4 -14 11 -22q9 -11 23 -11t23 11q7 8 11 22q6 19 6 47t-6 47q-4 14 -11 22q-9 11 -23 11zM290 330q4 0 8 -4q4 -5 7 -14q5 -17 5 -42t-5 -42q-3 -9 -7 -14q-4 -4 -8 -4t-8 4q-4 5 -7 14q-5 17 -5 42t5 42q3 9 7 14q4 4 8 4z" />
    <glyph glyph-name="Otilde" unicode="&#xd5;" horiz-adv-x="520" 
d="M508 786q-1 -42 -18.5 -67t-52.5 -25q-10 0 -23.5 5.5t-28.5 12t-28.5 12t-21.5 5.5q-10 0 -12 -9q-2 -8 -3 -20h-52q0 36 17 61t50 25q11 0 24.5 -5t27 -11.5t26 -11.5t20.5 -5q23 0 23 33h52zM290 563q-67 0 -132 -13q-55 -11 -76 -32q-32 -32 -32 -78v-324
q0 -62 31 -94q7 -6 15 -10.5t14.5 -7.5t17 -5.5t15 -3.5t17 -2.5t14.5 -2.5q136 -22 248 0q55 11 76 32q32 32 32 78v340q0 46 -32 78q-21 21 -76 32q-65 13 -132 13zM290 543q65 0 128 -13q49 -9 66 -26q26 -27 26 -64v-340q0 -37 -26 -64q-17 -17 -66 -26q-108 -22 -240 0
q-3 0 -13.5 2t-13.5 2.5l-12 2t-13 3t-10.5 4t-11.5 6t-9 7.5q-25 25 -25 79v324q0 37 26 64q17 17 66 26q63 13 128 13zM290 350q-14 0 -23 -11q-7 -8 -11 -22q-6 -19 -6 -47t6 -47q4 -14 11 -22q9 -11 23 -11t23 11q7 8 11 22q6 19 6 47t-6 47q-4 14 -11 22q-9 11 -23 11z
M290 330q4 0 8 -4q4 -5 7 -14q5 -17 5 -42t-5 -42q-3 -9 -7 -14q-4 -4 -8 -4t-8 4q-4 5 -7 14q-5 17 -5 42t5 42q3 9 7 14q4 4 8 4z" />
    <glyph glyph-name="Odieresis" unicode="&#xd6;" horiz-adv-x="520" 
d="M402 762q0 -23 -15.5 -38t-36.5 -15q-22 0 -37 15q-15 16 -15 38.5t15.5 37.5t36.5 15q20 0 36 -15.5t16 -37.5zM580 762q0 -23 -16 -38t-36 -15t-36 15q-17 16 -17 38.5t16.5 37.5t36.5 15t36 -15.5t16 -37.5zM290 563q-67 0 -132 -13q-55 -11 -76 -32q-32 -32 -32 -78
v-324q0 -62 31 -94q7 -6 15 -10.5t14.5 -7.5t17 -5.5t15 -3.5t17 -2.5t14.5 -2.5q136 -22 248 0q55 11 76 32q32 32 32 78v340q0 46 -32 78q-21 21 -76 32q-65 13 -132 13zM290 543q65 0 128 -13q49 -9 66 -26q26 -27 26 -64v-340q0 -37 -26 -64q-17 -17 -66 -26
q-108 -22 -240 0q-3 0 -13.5 2t-13.5 2.5l-12 2t-13 3t-10.5 4t-11.5 6t-9 7.5q-25 25 -25 79v324q0 37 26 64q17 17 66 26q63 13 128 13zM290 350q-14 0 -23 -11q-7 -8 -11 -22q-6 -19 -6 -47t6 -47q4 -14 11 -22q9 -11 23 -11t23 11q7 8 11 22q6 19 6 47t-6 47
q-4 14 -11 22q-9 11 -23 11zM290 330q4 0 8 -4q4 -5 7 -14q5 -17 5 -42t-5 -42q-3 -9 -7 -14q-4 -4 -8 -4t-8 4q-4 5 -7 14q-5 17 -5 42t5 42q3 9 7 14q4 4 8 4z" />
    <glyph glyph-name="multiply" unicode="&#xd7;" horiz-adv-x="498" 
d="M468 41l-48 -47l-170 178q-42 -42 -86 -89q-44 -48 -84 -89l-48 47l171 177q-42 44 -85.5 90.5t-85.5 91.5l48 46l171 -177q41 43 85 89q44 47 84 88l48 -46l-172 -180z" />
    <glyph glyph-name="Oslash" unicode="&#xd8;" horiz-adv-x="618" 
d="M590 284q0 -126 -78 -211t-201 -85q-56 0 -103 17l-20 -39h-76l36 71q-20 16 -39 36q-78 85 -78 211t78 212t202 86q58 0 107 -19l14 27h77l-33 -62q19 -14 36 -32q78 -86 78 -212zM388 503q-35 14 -77 14q-92 0 -148.5 -66.5t-56.5 -164.5t56 -166q8 -11 18 -19z
M516 286q0 98 -56 164q-7 8 -15 16l-206 -400q32 -11 72 -12q92 0 148.5 67t56.5 165z" />
    <glyph glyph-name="Ugrave" unicode="&#xd9;" horiz-adv-x="520" 
d="M494 864q-43 0 -85 -31q-55 -41 -55 -99q0 -39 13.5 -73t32.5 -55.5t39 -37t32.5 -22.5t13.5 -7h1q28 -11 56.5 0t43 38t6.5 56q-5 22 -22 39q12 10 19 22q15 26 15 60q0 43 -28 74q-32 36 -82 36zM494 844q41 0 67 -30q23 -25 23 -60q0 -28 -12 -50q-8 -13 -24 -24
q-4 -3 -4 -8.5t4 -8.5q19 -12 24.5 -34.5t-5 -42.5t-32 -28t-42.5 0q-5 2 -13.5 6.5t-29 20t-36 34t-28 49.5t-12.5 66q0 30 12.5 48.5t34.5 34.5q13 10 21 14.5t21.5 8.5t30.5 4zM420 551q-46 0 -78.5 -32.5t-31.5 -78.5v-240q-1 -1 -3 -2q-7 -3 -17 -3t-17 3q-2 1 -3 2
v240q0 22 -8 42.5t-24 36.5t-36.5 24.5t-43.5 7.5q-45 0 -77 -33t-31 -78v-340q0 -46 32 -78q21 -21 76 -32q65 -13 132 -13t132 13q55 11 76 32q32 32 32 78v340q1 46 -31.5 78.5t-78.5 32.5zM420 531q38 0 64.5 -26.5t25.5 -64.5v0v-340q0 -37 -26 -64q-17 -17 -66 -26
q-63 -13 -128 -13t-128 13q-49 9 -66 26q-26 27 -26 64v340v0q-1 37 25 64t64 27q18 1 35 -6t30 -20t19.5 -30t6.5 -35v0v-240q0 -7 5 -13q4 -5 10 -7q11 -5 25 -5t25 5q6 2 10 7q5 6 5 13v240v0q-1 38 25.5 64.5t64.5 26.5z" />
    <glyph glyph-name="Uacute" unicode="&#xda;" horiz-adv-x="520" 
d="M404.5 820.5q-12.5 -1.5 -20 -10.5t-5.5 -18l1 -18q5 -11 -5 -27q-13 -26 -20 -27l-8 -4q-12 -4 -17.5 -14.5t0.5 -20t18.5 -13.5t24.5 0l10 5q16 6 30 20q12 13 24 38.5t8 50.5l-2 17q-2 10 -14 16.5t-24.5 5zM420 551q-46 0 -78.5 -32.5t-31.5 -78.5v-240q-1 -1 -3 -2
q-7 -3 -17 -3t-17 3q-2 1 -3 2v240q0 22 -8 42.5t-24 36.5t-36.5 24.5t-43.5 7.5q-45 0 -77 -33t-31 -78v-340q0 -46 32 -78q21 -21 76 -32q65 -13 132 -13t132 13q55 11 76 32q32 32 32 78v340q1 46 -31.5 78.5t-78.5 32.5zM420 531q38 0 64.5 -26.5t25.5 -64.5v0v-340
q0 -37 -26 -64q-17 -17 -66 -26q-63 -13 -128 -13t-128 13q-49 9 -66 26q-26 27 -26 64v340v0q-1 37 25 64t64 27q18 1 35 -6t30 -20t19.5 -30t6.5 -35v0v-240q0 -7 5 -13q4 -5 10 -7q11 -5 25 -5t25 5q6 2 10 7q5 6 5 13v240v0q-1 38 25.5 64.5t64.5 26.5z" />
    <glyph glyph-name="Ucircumflex" unicode="&#xdb;" horiz-adv-x="520" 
d="M502 716h-65l-49 85l-48 -85h-66l93 138h42zM420 551q-46 0 -78.5 -32.5t-31.5 -78.5v-240q-1 -1 -3 -2q-7 -3 -17 -3t-17 3q-2 1 -3 2v240q0 22 -8 42.5t-24 36.5t-36.5 24.5t-43.5 7.5q-45 0 -77 -33t-31 -78v-340q0 -46 32 -78q21 -21 76 -32q65 -13 132 -13t132 13
q55 11 76 32q32 32 32 78v340q1 46 -31.5 78.5t-78.5 32.5zM420 531q38 0 64.5 -26.5t25.5 -64.5v0v-340q0 -37 -26 -64q-17 -17 -66 -26q-63 -13 -128 -13t-128 13q-49 9 -66 26q-26 27 -26 64v340v0q-1 37 25 64t64 27q18 1 35 -6t30 -20t19.5 -30t6.5 -35v0v-240
q0 -7 5 -13q4 -5 10 -7q11 -5 25 -5t25 5q6 2 10 7q5 6 5 13v240v0q-1 38 25.5 64.5t64.5 26.5z" />
    <glyph glyph-name="Udieresis" unicode="&#xdc;" horiz-adv-x="520" 
d="M422 762q0 -23 -15.5 -38t-36.5 -15q-22 0 -37 15q-15 16 -15 38.5t15.5 37.5t36.5 15q20 0 36 -15.5t16 -37.5zM600 762q0 -23 -16 -38t-36 -15t-36 15q-17 16 -17 38.5t16.5 37.5t36.5 15t36 -15.5t16 -37.5zM420 551q-46 0 -78.5 -32.5t-31.5 -78.5v-240q-1 -1 -3 -2
q-7 -3 -17 -3t-17 3q-2 1 -3 2v240q0 22 -8 42.5t-24 36.5t-36.5 24.5t-43.5 7.5q-45 0 -77 -33t-31 -78v-340q0 -46 32 -78q21 -21 76 -32q65 -13 132 -13t132 13q55 11 76 32q32 32 32 78v340q1 46 -31.5 78.5t-78.5 32.5zM420 531q38 0 64.5 -26.5t25.5 -64.5v0v-340
q0 -37 -26 -64q-17 -17 -66 -26q-63 -13 -128 -13t-128 13q-49 9 -66 26q-26 27 -26 64v340v0q-1 37 25 64t64 27q18 1 35 -6t30 -20t19.5 -30t6.5 -35v0v-240q0 -7 5 -13q4 -5 10 -7q11 -5 25 -5t25 5q6 2 10 7q5 6 5 13v240v0q-1 38 25.5 64.5t64.5 26.5z" />
    <glyph glyph-name="Yacute" unicode="&#xdd;" 
d="M411.5 820.5q-12.5 -1.5 -20 -10.5t-5.5 -18l1 -18q5 -11 -5 -27q-13 -26 -20 -27l-8 -4q-12 -4 -17.5 -14.5t0.5 -20t18.5 -13.5t24.5 0l10 5q16 6 30 20q12 13 24 38.5t8 50.5l-2 17q-2 10 -14 16.5t-24.5 5zM318 551q-39 0 -69 -25.5t-37 -63.5v-1l-8 -38l-43 29
q-38 25 -82.5 16t-70 -47t-16.5 -82.5t47 -70.5l146 -97l29 -101q12 -44 52 -67q20 -11 41.5 -13.5t43.5 3.5q44 13 66 53q10 19 12.5 41t-3.5 43l-33 115l35 173q5 25 -1 49.5t-22 44t-38.5 30t-48.5 9.5zM319 531q20 1 39 -7.5t32 -24.5t18 -36t0 -41l-35 -176v-2v-3
l34 -116q5 -18 3 -36t-11 -33q-18 -33 -54 -44q-17 -5 -35 -2.5t-34 10.5q-33 19 -42 55h-1l-29 105q-1 3 -4 5l-150 100v0q-31 21 -38.5 57.5t13.5 67.5t57.5 38.5t67.5 -13.5l56 -37q2 -2 5 -2q8 0 10 8l11 54q6 31 30.5 52t56.5 21z" />
    <glyph glyph-name="Thorn" unicode="&#xde;" horiz-adv-x="469" 
d="M428 299q0 -92 -61 -141t-170 -49q-38 0 -63 5v-114h-70v571h70v-87q24 5 63 4q109 0 170 -48.5t61 -140.5zM359 299q0 126 -160 127q-36 0 -65 -10v-235q28 -10 65 -9q160 0 160 127z" />
    <glyph glyph-name="germandbls" unicode="&#xdf;" horiz-adv-x="509" 
d="M451 131q0 -66 -41.5 -104t-110.5 -38q-31 0 -59.5 8t-55.5 22l24 65q54 -29 92 -29t60 20t22 49q0 26 -18 46.5t-40.5 40t-40.5 41.5t-18 50q0 16 12 34.5t27 37t27 36t12 32.5q0 80 -86 80q-101 0 -101 -185v-385q0 -31 -8 -62.5t-24 -61.5l-69 18q16 30 22.5 56
t6.5 50v404q0 234 181 234q65 0 106.5 -39t41.5 -107q0 -28 -12 -50t-26 -40t-26 -31t-12 -24q0 -12 18 -28.5t39 -38t39 -46.5t18 -55z" />
    <glyph glyph-name="agrave" unicode="&#xe0;" 
d="M264 610q-43 0 -85 -31q-55 -41 -55 -99q0 -39 13.5 -73t32.5 -55.5t39 -37t32.5 -22.5t13.5 -7h1q28 -11 56.5 0t43 38t6.5 56q-5 22 -22 39q12 10 19 22q15 26 15 60q0 43 -28 74q-32 36 -82 36zM264 590q41 0 67 -30q23 -25 23 -60q0 -28 -12 -50q-8 -13 -24 -24
q-4 -3 -4 -8.5t4 -8.5q19 -12 24.5 -34.5t-5 -42.5t-32 -28t-42.5 0q-5 2 -13.5 6.5t-29 20t-36 34t-28 49.5t-12.5 66q0 30 12.5 48.5t34.5 34.5q13 10 21 14.5t21.5 8.5t30.5 4zM238 548q-26 -2 -40.5 -4.5t-41 -9.5t-49.5 -21t-45 -35q-48 -48 -71 -117q-2 -4 0 -7.5
t6 -5t7.5 0.5t4.5 6q23 64 67 109q20 19 41 32t45.5 19.5t37.5 8.5t40 4q53 4 87 2q35 -3 59 -29t24 -61v-340q0 -27 -15 -50t-40.5 -33.5t-52 -5t-46.5 24.5q-30 30 -104 33q-7 1 -9 -6q-10 -22 -29 -36.5t-43 -17t-46 7t-37 28.5q-2 3 -6.5 3.5t-7.5 -2t-3.5 -6.5t1.5 -7
q18 -24 45 -35.5t56 -8t53 21.5q20 15 32 38q61 -3 84.5 -26.5t56 -30t63.5 6t49.5 40.5t18.5 61v340q0 43 -29.5 74.5t-72.5 35.5q-43 3 -90 -2zM220 340q-15 0 -19 -8q-3 -5 -10 -24q-10 -23 -17 -47q-1 -5 1.5 -9t7.5 -4q18 -2 35 -4q5 -1 8.5 2t3.5 8v76q0 4 -3 7t-7 3z
M210 302v-37q-6 1 -13 1q6 20 12 35z" />
    <glyph glyph-name="aacute" unicode="&#xe1;" 
d="M165.5 566.5q-12.5 -1.5 -20 -10.5t-5.5 -18l1 -18q5 -11 -5 -27q-13 -26 -20 -27l-8 -4q-12 -4 -17.5 -14.5t0.5 -20t18.5 -13.5t24.5 0l10 5q16 6 30 20q12 13 24 38.5t8 50.5l-2 17q-2 10 -14 16.5t-24.5 5zM238 548q-26 -2 -40.5 -4.5t-41 -9.5t-49.5 -21t-45 -35
q-48 -48 -71 -117q-2 -4 0 -7.5t6 -5t7.5 0.5t4.5 6q23 64 67 109q20 19 41 32t45.5 19.5t37.5 8.5t40 4q53 4 87 2q35 -3 59 -29t24 -61v-340q0 -27 -15 -50t-40.5 -33.5t-52 -5t-46.5 24.5q-30 30 -104 33q-7 1 -9 -6q-10 -22 -29 -36.5t-43 -17t-46 7t-37 28.5
q-2 3 -6.5 3.5t-7.5 -2t-3.5 -6.5t1.5 -7q18 -24 45 -35.5t56 -8t53 21.5q20 15 32 38q61 -3 84.5 -26.5t56 -30t63.5 6t49.5 40.5t18.5 61v340q0 43 -29.5 74.5t-72.5 35.5q-43 3 -90 -2zM220 340q-15 0 -19 -8q-3 -5 -10 -24q-10 -23 -17 -47q-1 -5 1.5 -9t7.5 -4
q18 -2 35 -4q5 -1 8.5 2t3.5 8v76q0 4 -3 7t-7 3zM210 302v-37q-6 1 -13 1q6 20 12 35z" />
    <glyph glyph-name="acircumflex" unicode="&#xe2;" 
d="M269 462h-65l-49 85l-48 -85h-66l93 138h42zM238 548q-26 -2 -40.5 -4.5t-41 -9.5t-49.5 -21t-45 -35q-48 -48 -71 -117q-2 -4 0 -7.5t6 -5t7.5 0.5t4.5 6q23 64 67 109q20 19 41 32t45.5 19.5t37.5 8.5t40 4q53 4 87 2q35 -3 59 -29t24 -61v-340q0 -27 -15 -50
t-40.5 -33.5t-52 -5t-46.5 24.5q-30 30 -104 33q-7 1 -9 -6q-10 -22 -29 -36.5t-43 -17t-46 7t-37 28.5q-2 3 -6.5 3.5t-7.5 -2t-3.5 -6.5t1.5 -7q18 -24 45 -35.5t56 -8t53 21.5q20 15 32 38q61 -3 84.5 -26.5t56 -30t63.5 6t49.5 40.5t18.5 61v340q0 43 -29.5 74.5
t-72.5 35.5q-43 3 -90 -2zM220 340q-15 0 -19 -8q-3 -5 -10 -24q-10 -23 -17 -47q-1 -5 1.5 -9t7.5 -4q18 -2 35 -4q5 -1 8.5 2t3.5 8v76q0 4 -3 7t-7 3zM210 302v-37q-6 1 -13 1q6 20 12 35z" />
    <glyph glyph-name="atilde" unicode="&#xe3;" 
d="M299 532q-1 -42 -18.5 -67t-52.5 -25q-10 0 -23.5 5.5t-28.5 12t-28.5 12t-21.5 5.5q-10 0 -12 -9q-2 -8 -3 -20h-52q0 36 17 61t50 25q11 0 24.5 -5t27 -11.5t26 -11.5t20.5 -5q23 0 23 33h52zM238 548q-26 -2 -40.5 -4.5t-41 -9.5t-49.5 -21t-45 -35q-48 -48 -71 -117
q-2 -4 0 -7.5t6 -5t7.5 0.5t4.5 6q23 64 67 109q20 19 41 32t45.5 19.5t37.5 8.5t40 4q53 4 87 2q35 -3 59 -29t24 -61v-340q0 -27 -15 -50t-40.5 -33.5t-52 -5t-46.5 24.5q-30 30 -104 33q-7 1 -9 -6q-10 -22 -29 -36.5t-43 -17t-46 7t-37 28.5q-2 3 -6.5 3.5t-7.5 -2
t-3.5 -6.5t1.5 -7q18 -24 45 -35.5t56 -8t53 21.5q20 15 32 38q61 -3 84.5 -26.5t56 -30t63.5 6t49.5 40.5t18.5 61v340q0 43 -29.5 74.5t-72.5 35.5q-43 3 -90 -2zM220 340q-15 0 -19 -8q-3 -5 -10 -24q-10 -23 -17 -47q-1 -5 1.5 -9t7.5 -4q18 -2 35 -4q5 -1 8.5 2t3.5 8
v76q0 4 -3 7t-7 3zM210 302v-37q-6 1 -13 1q6 20 12 35z" />
    <glyph glyph-name="adieresis" unicode="&#xe4;" 
d="M193 510q0 -23 -15.5 -38t-36.5 -15q-22 0 -37 15q-15 16 -15 38.5t15.5 37.5t36.5 15q20 0 36 -15.5t16 -37.5zM371 510q0 -23 -16 -38t-36 -15t-36 15q-17 16 -17 38.5t16.5 37.5t36.5 15t36 -15.5t16 -37.5zM238 548q-26 -2 -40.5 -4.5t-41 -9.5t-49.5 -21t-45 -35
q-48 -48 -71 -117q-2 -4 0 -7.5t6 -5t7.5 0.5t4.5 6q23 64 67 109q20 19 41 32t45.5 19.5t37.5 8.5t40 4q53 4 87 2q35 -3 59 -29t24 -61v-340q0 -27 -15 -50t-40.5 -33.5t-52 -5t-46.5 24.5q-30 30 -104 33q-7 1 -9 -6q-10 -22 -29 -36.5t-43 -17t-46 7t-37 28.5
q-2 3 -6.5 3.5t-7.5 -2t-3.5 -6.5t1.5 -7q18 -24 45 -35.5t56 -8t53 21.5q20 15 32 38q61 -3 84.5 -26.5t56 -30t63.5 6t49.5 40.5t18.5 61v340q0 43 -29.5 74.5t-72.5 35.5q-43 3 -90 -2zM220 340q-15 0 -19 -8q-3 -5 -10 -24q-10 -23 -17 -47q-1 -5 1.5 -9t7.5 -4
q18 -2 35 -4q5 -1 8.5 2t3.5 8v76q0 4 -3 7t-7 3zM210 302v-37q-6 1 -13 1q6 20 12 35z" />
    <glyph glyph-name="aring" unicode="&#xe5;" 
d="M280 557q0 -40 -28.5 -68t-68 -28t-67.5 28t-28 68t28 68t68 28t68 -28t28 -68zM229 557q0 19 -13 32t-32 13t-33 -13t-14 -32t13.5 -33t33 -14t32.5 14t13 33zM238 548q-26 -2 -40.5 -4.5t-41 -9.5t-49.5 -21t-45 -35q-48 -48 -71 -117q-2 -4 0 -7.5t6 -5t7.5 0.5t4.5 6
q23 64 67 109q20 19 41 32t45.5 19.5t37.5 8.5t40 4q53 4 87 2q35 -3 59 -29t24 -61v-340q0 -27 -15 -50t-40.5 -33.5t-52 -5t-46.5 24.5q-30 30 -104 33q-7 1 -9 -6q-10 -22 -29 -36.5t-43 -17t-46 7t-37 28.5q-2 3 -6.5 3.5t-7.5 -2t-3.5 -6.5t1.5 -7q18 -24 45 -35.5
t56 -8t53 21.5q20 15 32 38q61 -3 84.5 -26.5t56 -30t63.5 6t49.5 40.5t18.5 61v340q0 43 -29.5 74.5t-72.5 35.5q-43 3 -90 -2zM220 340q-15 0 -19 -8q-3 -5 -10 -24q-10 -23 -17 -47q-1 -5 1.5 -9t7.5 -4q18 -2 35 -4q5 -1 8.5 2t3.5 8v76q0 4 -3 7t-7 3zM210 302v-37
q-6 1 -13 1q6 20 12 35z" />
    <glyph glyph-name="ae" unicode="&#xe6;" horiz-adv-x="744" 
d="M696 22q-82 -32 -168 -33q-118 0 -180 84q-44 -84 -172 -84q-30 0 -56 8.5t-46 24t-31.5 38.5t-11.5 52q0 157 274 158q-2 41 -27 66t-72 26q-38 0 -141 -31l-10 69q84 25 156 25q54 0 89.5 -16.5t55.5 -56.5q58 73 167 73q184 0 191 -233h-335q6 -66 47.5 -101
t106.5 -35q70 0 157 32zM305 204q-102 -1 -148.5 -22t-46.5 -63q0 -31 20 -47.5t49 -16.5q58 0 92 32.5t34 90.5v26zM640 256q-8 44 -40 75q-31 31 -82 31q-53 0 -87 -28t-45 -78h254z" />
    <glyph glyph-name="ccedilla" unicode="&#xe7;" 
d="M301 -108q0 -38 -25 -60.5t-71 -22.5q-17 0 -37 5.5t-38 16.5l16 38q17 -8 34 -13q18 -5 28 -5q38 0 38 36q0 34 -77 47l52 79h51l-33 -47q32 -10 47 -28t15 -46zM190 563q-67 0 -132 -13q-55 -11 -76 -32l-10 -12q-3 -4 -2 -8t4 -6.5t7 -1.5t7 4l8 10q17 16 66 26
q63 13 128 13t128 -13q49 -10 66 -26q26 -26 26 -63v-1v-120v0q0 -21 -9 -41q-7 -13 -17 -24q-26 -26 -64 -26t-64 26.5t-26 64.5v20q0 8 -8 10l-22 2q-10 0 -15 -4q-35 -22 -35 -78t35 -78q8 -6 24 -4l13 2q8 2 8 10q0 23 10 43l2 -2q32 -32 78 -32t78 32l2 2
q10 -20 10 -43v-100q0 -37 -26 -64q-17 -16 -66 -26q-128 -26 -256 0q-49 10 -66 26q-4 4 -7 9q-3 3 -7 3.5t-7 -2t-3.5 -6.5t1.5 -7q4 -6 9 -11q21 -21 76 -32q132 -26 264 0q55 11 76 32q32 32 32 78v100q0 32 -17 60q9 15 14 33q3 13 3 27v120q0 46 -32 78q-21 21 -76 32
q-65 13 -132 13zM201 332h9q0 -23 2 -36q4 -19 15 -36q-15 -24 -17 -52h-1h-2h-5.5h-4.5t-1 0q-12 8 -19 26t-7 36t7 36t18 26h1h5z" />
    <glyph glyph-name="egrave" unicode="&#xe8;" 
d="M294 610q-43 0 -85 -31q-55 -41 -55 -99q0 -39 13.5 -73t32.5 -55.5t39 -37t32.5 -22.5t13.5 -7h1q28 -11 56.5 0t43 38t6.5 56q-5 22 -22 39q12 10 19 22q15 26 15 60q0 43 -28 74q-32 36 -82 36zM294 590q41 0 67 -30q23 -25 23 -60q0 -28 -12 -50q-8 -13 -24 -24
q-4 -3 -4 -8.5t4 -8.5q19 -12 24.5 -34.5t-5 -42.5t-32 -28t-42.5 0q-5 2 -13.5 6.5t-29 20t-36 34t-28 49.5t-12.5 66q0 30 12.5 48.5t34.5 34.5q13 10 21 14.5t21.5 8.5t30.5 4zM57 549q-24 -1 -46 -11q-9 -5 -17 -11q-4 -3 -4.5 -7t2 -7.5t7 -4t7.5 2.5q7 5 14 9
q18 8 37 9h10h255q37 0 63.5 -26.5t26.5 -63.5v-40q0 -28 -17.5 -48t-44.5 -18q-23 2 -82.5 11.5t-105.5 9.5q-5 0 -8 -3t-3 -7t3 -7t8 -3q44 0 102.5 -9.5t83.5 -11.5q31 -3 55 16q8 -19 8 -40q0 -20 -9 -39q-21 20 -49 19q-9 0 -17 -2q-21 -6 -58 -18.5t-62.5 -18.5
t-53.5 -6q-5 0 -8 -3t-3 -7t3 -7t8 -3q30 0 57.5 6t65 19.5t56.5 18.5q17 4 34 -3t27 -26t10 -40v-80q0 -37 -26.5 -63.5t-63.5 -26.5h-254h-1q-20 -2 -39 6q-12 4 -22 12q-3 3 -7.5 2.5t-7 -4t-2 -8t4.5 -6.5q12 -9 26 -15q23 -9 48 -7h254q45 0 77.5 32t32.5 78v80
q-4 38 -16 55q15 26 15.5 55.5t-14.5 54.5q14 23 15 55v40q0 45 -32.5 77.5t-77.5 32.5h-255h-10z" />
    <glyph glyph-name="eacute" unicode="&#xe9;" 
d="M195.5 566.5q-12.5 -1.5 -20 -10.5t-5.5 -18l1 -18q5 -11 -5 -27q-13 -26 -20 -27l-8 -4q-12 -4 -17.5 -14.5t0.5 -20t18.5 -13.5t24.5 0l10 5q16 6 30 20q12 13 24 38.5t8 50.5l-2 17q-2 10 -14 16.5t-24.5 5zM57 549q-24 -1 -46 -11q-9 -5 -17 -11q-4 -3 -4.5 -7
t2 -7.5t7 -4t7.5 2.5q7 5 14 9q18 8 37 9h10h255q37 0 63.5 -26.5t26.5 -63.5v-40q0 -28 -17.5 -48t-44.5 -18q-23 2 -82.5 11.5t-105.5 9.5q-5 0 -8 -3t-3 -7t3 -7t8 -3q44 0 102.5 -9.5t83.5 -11.5q31 -3 55 16q8 -19 8 -40q0 -20 -9 -39q-21 20 -49 19q-9 0 -17 -2
q-21 -6 -58 -18.5t-62.5 -18.5t-53.5 -6q-5 0 -8 -3t-3 -7t3 -7t8 -3q30 0 57.5 6t65 19.5t56.5 18.5q17 4 34 -3t27 -26t10 -40v-80q0 -37 -26.5 -63.5t-63.5 -26.5h-254h-1q-20 -2 -39 6q-12 4 -22 12q-3 3 -7.5 2.5t-7 -4t-2 -8t4.5 -6.5q12 -9 26 -15q23 -9 48 -7h254
q45 0 77.5 32t32.5 78v80q-4 38 -16 55q15 26 15.5 55.5t-14.5 54.5q14 23 15 55v40q0 45 -32.5 77.5t-77.5 32.5h-255h-10z" />
    <glyph glyph-name="ecircumflex" unicode="&#xea;" 
d="M300 462h-65l-49 85l-48 -85h-66l93 138h42zM57 549q-24 -1 -46 -11q-9 -5 -17 -11q-4 -3 -4.5 -7t2 -7.5t7 -4t7.5 2.5q7 5 14 9q18 8 37 9h10h255q37 0 63.5 -26.5t26.5 -63.5v-40q0 -28 -17.5 -48t-44.5 -18q-23 2 -82.5 11.5t-105.5 9.5q-5 0 -8 -3t-3 -7t3 -7t8 -3
q44 0 102.5 -9.5t83.5 -11.5q31 -3 55 16q8 -19 8 -40q0 -20 -9 -39q-21 20 -49 19q-9 0 -17 -2q-21 -6 -58 -18.5t-62.5 -18.5t-53.5 -6q-5 0 -8 -3t-3 -7t3 -7t8 -3q30 0 57.5 6t65 19.5t56.5 18.5q17 4 34 -3t27 -26t10 -40v-80q0 -37 -26.5 -63.5t-63.5 -26.5h-254h-1
q-20 -2 -39 6q-12 4 -22 12q-3 3 -7.5 2.5t-7 -4t-2 -8t4.5 -6.5q12 -9 26 -15q23 -9 48 -7h254q45 0 77.5 32t32.5 78v80q-4 38 -16 55q15 26 15.5 55.5t-14.5 54.5q14 23 15 55v40q0 45 -32.5 77.5t-77.5 32.5h-255h-10z" />
    <glyph glyph-name="edieresis" unicode="&#xeb;" 
d="M222 510q0 -23 -15.5 -38t-36.5 -15q-22 0 -37 15q-15 16 -15 38.5t15.5 37.5t36.5 15q20 0 36 -15.5t16 -37.5zM400 510q0 -23 -16 -38t-36 -15t-36 15q-17 16 -17 38.5t16.5 37.5t36.5 15t36 -15.5t16 -37.5zM57 549q-24 -1 -46 -11q-9 -5 -17 -11q-4 -3 -4.5 -7
t2 -7.5t7 -4t7.5 2.5q7 5 14 9q18 8 37 9h10h255q37 0 63.5 -26.5t26.5 -63.5v-40q0 -28 -17.5 -48t-44.5 -18q-23 2 -82.5 11.5t-105.5 9.5q-5 0 -8 -3t-3 -7t3 -7t8 -3q44 0 102.5 -9.5t83.5 -11.5q31 -3 55 16q8 -19 8 -40q0 -20 -9 -39q-21 20 -49 19q-9 0 -17 -2
q-21 -6 -58 -18.5t-62.5 -18.5t-53.5 -6q-5 0 -8 -3t-3 -7t3 -7t8 -3q30 0 57.5 6t65 19.5t56.5 18.5q17 4 34 -3t27 -26t10 -40v-80q0 -37 -26.5 -63.5t-63.5 -26.5h-254h-1q-20 -2 -39 6q-12 4 -22 12q-3 3 -7.5 2.5t-7 -4t-2 -8t4.5 -6.5q12 -9 26 -15q23 -9 48 -7h254
q45 0 77.5 32t32.5 78v80q-4 38 -16 55q15 26 15.5 55.5t-14.5 54.5q14 23 15 55v40q0 45 -32.5 77.5t-77.5 32.5h-255h-10z" />
    <glyph glyph-name="igrave" unicode="&#xec;" horiz-adv-x="216" 
d="M208 610q-43 0 -85 -31q-55 -41 -55 -99q0 -39 13.5 -73t32.5 -55.5t39 -37t32.5 -22.5t13.5 -7h1q28 -11 56.5 0t43 38t6.5 56q-5 22 -22 39q12 10 19 22q15 26 15 60q0 43 -28 74q-32 36 -82 36zM208 590q41 0 67 -30q23 -25 23 -60q0 -28 -12 -50q-8 -13 -24 -24
q-4 -3 -4 -8.5t4 -8.5q19 -12 24.5 -34.5t-5 -42.5t-32 -28t-42.5 0q-5 2 -13.5 6.5t-29 20t-36 34t-28 49.5t-12.5 66q0 30 12.5 48.5t34.5 34.5q13 10 21 14.5t21.5 8.5t30.5 4zM31 540q-10 -7 -15 -43q-7 -41 0 -73q4 -14 11.5 -31t13.5 -21q-2 17 2 23.5t10 4.5t9 -6
q11 -13 15 -34q0 -29 -9 -82q-16 -97 -8 -146q10 -50 50.5 -103.5t81.5 -52.5q-26 28 -43 71.5t-17 96.5q-1 73 7 124q16 96 4 147q-2 11 -7 21q-4 10 -9 16t-12 11h-1q-8 5 -31.5 13t-33.5 15q-6 5 -12 21.5t-6 27.5zM144 480v-48h24v48h-24z" />
    <glyph glyph-name="iacute" unicode="&#xed;" horiz-adv-x="216" 
d="M108.5 566.5q-12.5 -1.5 -20 -10.5t-5.5 -18l1 -18q5 -11 -5 -27q-13 -26 -20 -27l-8 -4q-12 -4 -17.5 -14.5t0.5 -20t18.5 -13.5t24.5 0l10 5q16 6 30 20q12 13 24 38.5t8 50.5l-2 17q-2 10 -14 16.5t-24.5 5zM31 540q-10 -7 -15 -43q-7 -41 0 -73q4 -14 11.5 -31
t13.5 -21q-2 17 2 23.5t10 4.5t9 -6q11 -13 15 -34q0 -29 -9 -82q-16 -97 -8 -146q10 -50 50.5 -103.5t81.5 -52.5q-26 28 -43 71.5t-17 96.5q-1 73 7 124q16 96 4 147q-2 11 -7 21q-4 10 -9 16t-12 11h-1q-8 5 -31.5 13t-33.5 15q-6 5 -12 21.5t-6 27.5zM144 480v-48h24v48
h-24z" />
    <glyph glyph-name="icircumflex" unicode="&#xee;" horiz-adv-x="216" 
d="M213 462h-65l-49 85l-48 -85h-66l93 138h42zM31 540q-10 -7 -15 -43q-7 -41 0 -73q4 -14 11.5 -31t13.5 -21q-2 17 2 23.5t10 4.5t9 -6q11 -13 15 -34q0 -29 -9 -82q-16 -97 -8 -146q10 -50 50.5 -103.5t81.5 -52.5q-26 28 -43 71.5t-17 96.5q-1 73 7 124q16 96 4 147
q-2 11 -7 21q-4 10 -9 16t-12 11h-1q-8 5 -31.5 13t-33.5 15q-6 5 -12 21.5t-6 27.5zM144 480v-48h24v48h-24z" />
    <glyph glyph-name="idieresis" unicode="&#xef;" horiz-adv-x="216" 
d="M229 654q0 -23 -15.5 -38t-36 -15t-36.5 15q-16 16 -16 38.5t16 37.5t36 15t36 -15.5t16 -37.5zM40 654q0 -23 -15.5 -38t-36 -15t-36.5 15q-16 16 -16 38.5t16 37.5t36 15t36 -15.5t16 -37.5zM31 540q-10 -7 -15 -43q-7 -41 0 -73q4 -14 11.5 -31t13.5 -21q-2 17 2 23.5
t10 4.5t9 -6q11 -13 15 -34q0 -29 -9 -82q-16 -97 -8 -146q10 -50 50.5 -103.5t81.5 -52.5q-26 28 -43 71.5t-17 96.5q-1 73 7 124q16 96 4 147q-2 11 -7 21q-4 10 -9 16t-12 11h-1q-8 5 -31.5 13t-33.5 15q-6 5 -12 21.5t-6 27.5zM144 480v-48h24v48h-24z" />
    <glyph glyph-name="eth" unicode="&#xf0;" horiz-adv-x="450" 
d="M409 196q0 -97 -54.5 -156t-138.5 -59q-76 0 -124.5 54.5t-48.5 134.5q0 79 49.5 133.5t121.5 54.5t106 -39q-29 60 -102 118q-1 2 -2 1l-121 -62l-33 52l96 50q-43 24 -85 36l7 60q85 -17 150 -59l110 56l26 -55l-82 -42q125 -120 125 -278zM328 170q0 52 -32 87.5
t-78 35.5q-43 0 -74 -37.5t-31 -85.5t31 -85q30 -37 74 -37q46 0 78 36t32 86z" />
    <glyph glyph-name="ntilde" unicode="&#xf1;" 
d="M363 532q-1 -42 -18.5 -67t-52.5 -25q-10 0 -23.5 5.5t-28.5 12t-28.5 12t-21.5 5.5q-10 0 -12 -9q-2 -8 -3 -20h-52q0 36 17 61t50 25q11 0 24.5 -5t27 -11.5t26 -11.5t20.5 -5q23 0 23 33h52zM319 553q-46 -1 -77.5 -33.5t-30.5 -78.5v-15l-63 82v0q-16 20 -39 31.5
t-48.5 11.5t-48.5 -11t-38 -31q-2 -3 -2 -7q0 -10 10 -10q4 0 7 4q13 17 32 26t40 9t39.5 -9.5t31.5 -25.5l81 -105q3 -4 8 -4q9 0 10 10v44v0q-1 38 25 64.5t63 27.5q18 0 35 -7t30 -20t20 -29.5t7 -35.5v0v-340q0 -29 -17 -52.5t-44.5 -32.5t-55 -0.5t-45.5 31.5l-81 105
q-3 4 -7 4q-10 0 -10 -10v-45v0q0 -29 -17 -53t-45 -33.5t-56 -0.5t-45 33q-3 4 -8 4q-10 0 -10 -10q0 -4 2 -6q21 -29 55.5 -40t68 0.5t54.5 40.5t21 65v15l62 -82q22 -28 55.5 -38t67 1t54.5 40t21 64v340q0 22 -8.5 43t-24.5 36.5t-36.5 24t-42.5 8.5z" />
    <glyph glyph-name="ograve" unicode="&#xf2;" 
d="M340 610q-43 0 -85 -31q-55 -41 -55 -99q0 -39 13.5 -73t32.5 -55.5t39 -37t32.5 -22.5t13.5 -7h1q28 -11 56.5 0t43 38t6.5 56q-5 22 -22 39q12 10 19 22q15 26 15 60q0 43 -28 74q-32 36 -82 36zM340 590q41 0 67 -30q23 -25 23 -60q0 -28 -12 -50q-8 -13 -24 -24
q-4 -3 -4 -8.5t4 -8.5q19 -12 24.5 -34.5t-5 -42.5t-32 -28t-42.5 0q-5 2 -13.5 6.5t-29 20t-36 34t-28 49.5t-12.5 66q0 30 12.5 48.5t34.5 34.5q13 10 21 14.5t21.5 8.5t30.5 4zM190 563q-67 0 -132 -13q-55 -11 -76 -32q-5 -5 -9 -11q-2 -2 -2 -6q0 -10 10 -10q5 0 8 4
q4 5 7 9q17 16 66 26q63 13 128 13t128 -13q49 -10 66 -26q26 -27 26 -64v-340q0 -37 -26 -64q-17 -16 -66 -26q-108 -22 -240 0q-3 0 -13.5 2t-13.5 2.5l-12 2t-13 3t-10.5 4t-11.5 6t-9 7.5t-7 8q-3 5 -9 5q-10 0 -10 -10q0 -4 2 -7q5 -5 10 -11q7 -6 15 -10.5t14.5 -7.5
t17 -5.5t15 -3.5t17 -2.5t14.5 -2.5q136 -22 248 0q55 11 76 32q32 32 32 78v340q0 46 -32 78q-21 21 -76 32q-65 13 -132 13zM190 350q-14 0 -23 -11q-7 -8 -11 -22q-6 -19 -6 -47t6 -47q4 -14 11 -22q9 -11 23 -11t23 11q7 8 11 22q6 19 6 47t-6 47q-4 14 -11 22
q-9 11 -23 11zM190 330q4 0 8 -4q4 -5 7 -14q5 -17 5 -42t-5 -42q-3 -9 -7 -14q-4 -4 -8 -4t-8 4q-4 5 -7 14q-5 17 -5 42t5 42q3 9 7 14q4 4 8 4z" />
    <glyph glyph-name="oacute" unicode="&#xf3;" 
d="M241.5 566.5q-12.5 -1.5 -20 -10.5t-5.5 -18l1 -18q5 -11 -5 -27q-13 -26 -20 -27l-8 -4q-12 -4 -17.5 -14.5t0.5 -20t18.5 -13.5t24.5 0l10 5q16 6 30 20q12 13 24 38.5t8 50.5l-2 17q-2 10 -14 16.5t-24.5 5zM190 563q-67 0 -132 -13q-55 -11 -76 -32q-5 -5 -9 -11
q-2 -2 -2 -6q0 -10 10 -10q5 0 8 4q4 5 7 9q17 16 66 26q63 13 128 13t128 -13q49 -10 66 -26q26 -27 26 -64v-340q0 -37 -26 -64q-17 -16 -66 -26q-108 -22 -240 0q-3 0 -13.5 2t-13.5 2.5l-12 2t-13 3t-10.5 4t-11.5 6t-9 7.5t-7 8q-3 5 -9 5q-10 0 -10 -10q0 -4 2 -7
q5 -5 10 -11q7 -6 15 -10.5t14.5 -7.5t17 -5.5t15 -3.5t17 -2.5t14.5 -2.5q136 -22 248 0q55 11 76 32q32 32 32 78v340q0 46 -32 78q-21 21 -76 32q-65 13 -132 13zM190 350q-14 0 -23 -11q-7 -8 -11 -22q-6 -19 -6 -47t6 -47q4 -14 11 -22q9 -11 23 -11t23 11q7 8 11 22
q6 19 6 47t-6 47q-4 14 -11 22q-9 11 -23 11zM190 330q4 0 8 -4q4 -5 7 -14q5 -17 5 -42t-5 -42q-3 -9 -7 -14q-4 -4 -8 -4t-8 4q-4 5 -7 14q-5 17 -5 42t5 42q3 9 7 14q4 4 8 4z" />
    <glyph glyph-name="ocircumflex" unicode="&#xf4;" 
d="M346 462h-65l-49 85l-48 -85h-66l93 138h42zM190 563q-67 0 -132 -13q-55 -11 -76 -32q-5 -5 -9 -11q-2 -2 -2 -6q0 -10 10 -10q5 0 8 4q4 5 7 9q17 16 66 26q63 13 128 13t128 -13q49 -10 66 -26q26 -27 26 -64v-340q0 -37 -26 -64q-17 -16 -66 -26q-108 -22 -240 0
q-3 0 -13.5 2t-13.5 2.5l-12 2t-13 3t-10.5 4t-11.5 6t-9 7.5t-7 8q-3 5 -9 5q-10 0 -10 -10q0 -4 2 -7q5 -5 10 -11q7 -6 15 -10.5t14.5 -7.5t17 -5.5t15 -3.5t17 -2.5t14.5 -2.5q136 -22 248 0q55 11 76 32q32 32 32 78v340q0 46 -32 78q-21 21 -76 32q-65 13 -132 13z
M190 350q-14 0 -23 -11q-7 -8 -11 -22q-6 -19 -6 -47t6 -47q4 -14 11 -22q9 -11 23 -11t23 11q7 8 11 22q6 19 6 47t-6 47q-4 14 -11 22q-9 11 -23 11zM190 330q4 0 8 -4q4 -5 7 -14q5 -17 5 -42t-5 -42q-3 -9 -7 -14q-4 -4 -8 -4t-8 4q-4 5 -7 14q-5 17 -5 42t5 42
q3 9 7 14q4 4 8 4z" />
    <glyph glyph-name="otilde" unicode="&#xf5;" 
d="M375 532q-1 -42 -18.5 -67t-52.5 -25q-10 0 -23.5 5.5t-28.5 12t-28.5 12t-21.5 5.5q-10 0 -12 -9q-2 -8 -3 -20h-52q0 36 17 61t50 25q11 0 24.5 -5t27 -11.5t26 -11.5t20.5 -5q23 0 23 33h52zM190 563q-67 0 -132 -13q-55 -11 -76 -32q-5 -5 -9 -11q-2 -2 -2 -6
q0 -10 10 -10q5 0 8 4q4 5 7 9q17 16 66 26q63 13 128 13t128 -13q49 -10 66 -26q26 -27 26 -64v-340q0 -37 -26 -64q-17 -16 -66 -26q-108 -22 -240 0q-3 0 -13.5 2t-13.5 2.5l-12 2t-13 3t-10.5 4t-11.5 6t-9 7.5t-7 8q-3 5 -9 5q-10 0 -10 -10q0 -4 2 -7q5 -5 10 -11
q7 -6 15 -10.5t14.5 -7.5t17 -5.5t15 -3.5t17 -2.5t14.5 -2.5q136 -22 248 0q55 11 76 32q32 32 32 78v340q0 46 -32 78q-21 21 -76 32q-65 13 -132 13zM190 350q-14 0 -23 -11q-7 -8 -11 -22q-6 -19 -6 -47t6 -47q4 -14 11 -22q9 -11 23 -11t23 11q7 8 11 22q6 19 6 47
t-6 47q-4 14 -11 22q-9 11 -23 11zM190 330q4 0 8 -4q4 -5 7 -14q5 -17 5 -42t-5 -42q-3 -9 -7 -14q-4 -4 -8 -4t-8 4q-4 5 -7 14q-5 17 -5 42t5 42q3 9 7 14q4 4 8 4z" />
    <glyph glyph-name="odieresis" unicode="&#xf6;" 
d="M268 510q0 -23 -15.5 -38t-36.5 -15q-22 0 -37 15q-15 16 -15 38.5t15.5 37.5t36.5 15q20 0 36 -15.5t16 -37.5zM446 510q0 -23 -16 -38t-36 -15t-36 15q-17 16 -17 38.5t16.5 37.5t36.5 15t36 -15.5t16 -37.5zM190 563q-67 0 -132 -13q-55 -11 -76 -32q-5 -5 -9 -11
q-2 -2 -2 -6q0 -10 10 -10q5 0 8 4q4 5 7 9q17 16 66 26q63 13 128 13t128 -13q49 -10 66 -26q26 -27 26 -64v-340q0 -37 -26 -64q-17 -16 -66 -26q-108 -22 -240 0q-3 0 -13.5 2t-13.5 2.5l-12 2t-13 3t-10.5 4t-11.5 6t-9 7.5t-7 8q-3 5 -9 5q-10 0 -10 -10q0 -4 2 -7
q5 -5 10 -11q7 -6 15 -10.5t14.5 -7.5t17 -5.5t15 -3.5t17 -2.5t14.5 -2.5q136 -22 248 0q55 11 76 32q32 32 32 78v340q0 46 -32 78q-21 21 -76 32q-65 13 -132 13zM190 350q-14 0 -23 -11q-7 -8 -11 -22q-6 -19 -6 -47t6 -47q4 -14 11 -22q9 -11 23 -11t23 11q7 8 11 22
q6 19 6 47t-6 47q-4 14 -11 22q-9 11 -23 11zM190 330q4 0 8 -4q4 -5 7 -14q5 -17 5 -42t-5 -42q-3 -9 -7 -14q-4 -4 -8 -4t-8 4q-4 5 -7 14q-5 17 -5 42t5 42q3 9 7 14q4 4 8 4z" />
    <glyph glyph-name="divide" unicode="&#xf7;" horiz-adv-x="498" 
d="M469 188h-438v65h438v-65zM308 67q0 -24 -16.5 -40.5t-39.5 -16.5t-39.5 16.5t-16.5 40.5t16.5 41t39.5 17t39.5 -17t16.5 -41zM308 376q0 -24 -16.5 -41t-39.5 -17t-39.5 17t-16.5 41t16.5 40.5t39.5 16.5t39.5 -16.5t16.5 -40.5z" />
    <glyph glyph-name="oslash" unicode="&#xf8;" horiz-adv-x="492" 
d="M463 206q0 -91 -61 -153.5t-155 -62.5q-39 0 -73 11l-18 -35h-77l35 68q-12 8 -22 19q-61 62 -61 153t61.5 154.5t154.5 63.5q34 0 64 -9l20 39h77l-35 -69q14 -11 29 -25q60 -63 61 -154zM389 206q0 64 -40 108q-5 5 -8 9l-137 -263q20 -6 43 -6q62 0 102 43.5t40 108.5
zM280 355q-16 4 -33 4q-62 0 -102 -44q-40 -43 -39 -109q0 -65 39 -109l1 -1z" />
    <glyph glyph-name="ugrave" unicode="&#xf9;" 
d="M316 610q-43 0 -85 -31q-55 -41 -55 -99q0 -39 13.5 -73t32.5 -55.5t39 -37t32.5 -22.5t13.5 -7h1q28 -11 56.5 0t43 38t6.5 56q-5 22 -22 39q12 10 19 22q15 26 15 60q0 43 -28 74q-32 36 -82 36zM316 590q41 0 67 -30q23 -25 23 -60q0 -28 -12 -50q-8 -13 -24 -24
q-4 -3 -4 -8.5t4 -8.5q19 -12 24.5 -34.5t-5 -42.5t-32 -28t-42.5 0q-5 2 -13.5 6.5t-29 20t-36 34t-28 49.5t-12.5 66q0 30 12.5 48.5t34.5 34.5q13 10 21 14.5t21.5 8.5t30.5 4zM320 551q-46 0 -78.5 -32.5t-31.5 -78.5v-240q-1 -1 -3 -2q-7 -3 -17 -3t-17 3q-2 1 -3 2
v240q0 22 -8 42.5t-24 36.5t-36.5 24.5t-43.5 7.5q-45 0 -77 -33q-4 -4 -9 -10q-2 -3 -2 -6q0 -10 10 -10q5 0 8 4q4 4 7 8q26 27 64 27q18 1 35 -6t30 -20t19.5 -30t6.5 -35v0v-240q0 -7 5 -13q4 -5 10 -7q11 -5 25 -5t25 5q6 2 10 7q5 6 5 13v240v0q-1 38 25.5 64.5
t64.5 26.5t64.5 -26.5t25.5 -64.5v0v-340q0 -37 -26 -64q-17 -16 -66 -26q-128 -26 -256 0q-49 10 -66 26l-8 10q-3 4 -8 4q-10 0 -10 -10q0 -3 2 -6l10 -12q21 -21 76 -32q132 -26 264 0q55 11 76 32q32 32 32 78v340q1 46 -31.5 78.5t-78.5 32.5z" />
    <glyph glyph-name="uacute" unicode="&#xfa;" 
d="M241.5 566.5q-12.5 -1.5 -20 -10.5t-5.5 -18l1 -18q5 -11 -5 -27q-13 -26 -20 -27l-8 -4q-12 -4 -17.5 -14.5t0.5 -20t18.5 -13.5t24.5 0l10 5q16 6 30 20q12 13 24 38.5t8 50.5l-2 17q-2 10 -14 16.5t-24.5 5zM320 551q-46 0 -78.5 -32.5t-31.5 -78.5v-240q-1 -1 -3 -2
q-7 -3 -17 -3t-17 3q-2 1 -3 2v240q0 22 -8 42.5t-24 36.5t-36.5 24.5t-43.5 7.5q-45 0 -77 -33q-4 -4 -9 -10q-2 -3 -2 -6q0 -10 10 -10q5 0 8 4q4 4 7 8q26 27 64 27q18 1 35 -6t30 -20t19.5 -30t6.5 -35v0v-240q0 -7 5 -13q4 -5 10 -7q11 -5 25 -5t25 5q6 2 10 7
q5 6 5 13v240v0q-1 38 25.5 64.5t64.5 26.5t64.5 -26.5t25.5 -64.5v0v-340q0 -37 -26 -64q-17 -16 -66 -26q-128 -26 -256 0q-49 10 -66 26l-8 10q-3 4 -8 4q-10 0 -10 -10q0 -3 2 -6l10 -12q21 -21 76 -32q132 -26 264 0q55 11 76 32q32 32 32 78v340q1 46 -31.5 78.5
t-78.5 32.5z" />
    <glyph glyph-name="ucircumflex" unicode="&#xfb;" 
d="M330 462h-65l-49 85l-48 -85h-66l93 138h42zM320 551q-46 0 -78.5 -32.5t-31.5 -78.5v-240q-1 -1 -3 -2q-7 -3 -17 -3t-17 3q-2 1 -3 2v240q0 22 -8 42.5t-24 36.5t-36.5 24.5t-43.5 7.5q-45 0 -77 -33q-4 -4 -9 -10q-2 -3 -2 -6q0 -10 10 -10q5 0 8 4q4 4 7 8
q26 27 64 27q18 1 35 -6t30 -20t19.5 -30t6.5 -35v0v-240q0 -7 5 -13q4 -5 10 -7q11 -5 25 -5t25 5q6 2 10 7q5 6 5 13v240v0q-1 38 25.5 64.5t64.5 26.5t64.5 -26.5t25.5 -64.5v0v-340q0 -37 -26 -64q-17 -16 -66 -26q-128 -26 -256 0q-49 10 -66 26l-8 10q-3 4 -8 4
q-10 0 -10 -10q0 -3 2 -6l10 -12q21 -21 76 -32q132 -26 264 0q55 11 76 32q32 32 32 78v340q1 46 -31.5 78.5t-78.5 32.5z" />
    <glyph glyph-name="udieresis" unicode="&#xfc;" 
d="M246 510q0 -23 -15.5 -38t-36.5 -15q-22 0 -37 15q-15 16 -15 38.5t15.5 37.5t36.5 15q20 0 36 -15.5t16 -37.5zM424 510q0 -23 -16 -38t-36 -15t-36 15q-17 16 -17 38.5t16.5 37.5t36.5 15t36 -15.5t16 -37.5zM320 551q-46 0 -78.5 -32.5t-31.5 -78.5v-240q-1 -1 -3 -2
q-7 -3 -17 -3t-17 3q-2 1 -3 2v240q0 22 -8 42.5t-24 36.5t-36.5 24.5t-43.5 7.5q-45 0 -77 -33q-4 -4 -9 -10q-2 -3 -2 -6q0 -10 10 -10q5 0 8 4q4 4 7 8q26 27 64 27q18 1 35 -6t30 -20t19.5 -30t6.5 -35v0v-240q0 -7 5 -13q4 -5 10 -7q11 -5 25 -5t25 5q6 2 10 7
q5 6 5 13v240v0q-1 38 25.5 64.5t64.5 26.5t64.5 -26.5t25.5 -64.5v0v-340q0 -37 -26 -64q-17 -16 -66 -26q-128 -26 -256 0q-49 10 -66 26l-8 10q-3 4 -8 4q-10 0 -10 -10q0 -3 2 -6l10 -12q21 -21 76 -32q132 -26 264 0q55 11 76 32q32 32 32 78v340q1 46 -31.5 78.5
t-78.5 32.5z" />
    <glyph glyph-name="yacute" unicode="&#xfd;" horiz-adv-x="380" 
d="M181.5 566.5q-12.5 -1.5 -20 -10.5t-5.5 -18l1 -18q5 -11 -5 -27q-13 -26 -20 -27l-8 -4q-12 -4 -17.5 -14.5t0.5 -20t18.5 -13.5t24.5 0l10 5q16 6 30 20q12 13 24 38.5t8 50.5l-2 17q-2 10 -14 16.5t-24.5 5zM278 551q-39 0 -69 -25.5t-37 -63.5v-1l-8 -38l-43 29
q-29 19 -64 18t-63 -22q-4 -3 -4 -8q0 -10 10 -10q3 0 6 2q23 17 51.5 18t52.5 -15l56 -37q2 -2 5 -2q8 0 10 8l11 54q6 31 30.5 52t56.5 21q20 1 39 -7.5t32 -24.5t18 -36v0q5 -20 0 -41l-35 -176v-2v-3l34 -116q5 -18 3 -36t-11 -33q-18 -33 -54 -44q-17 -5 -35 -2.5
t-34 10.5q-33 19 -42 55h-1l-29 105q-1 3 -4 5l-150 100q-2 1 -4 3q-3 2 -6 2q-10 0 -10 -10q0 -5 4 -8q2 -2 5 -3v-1l146 -97l29 -101q12 -44 52 -67q20 -11 41.5 -13.5t43.5 3.5q44 13 66 53q10 19 12.5 41t-3.5 43l-33 115l35 173q5 25 -1 49.5t-22 44t-38.5 30
t-48.5 9.5z" />
    <glyph glyph-name="thorn" unicode="&#xfe;" horiz-adv-x="524" 
d="M482 215q0 -101 -59 -163q-58 -63 -153 -63q-80 0 -133 49v-199h-71v732h71v-203q60 56 145 57q88 0 144 -59.5t56 -150.5zM413 214q0 65 -38.5 106.5t-99.5 41.5q-56 0 -97 -35t-41 -92v-68q0 -46 41 -79t96 -33q62 0 100.5 42.5t38.5 116.5z" />
    <glyph glyph-name="ydieresis" unicode="&#xff;" horiz-adv-x="380" 
d="M226 510q0 -23 -15.5 -38t-36.5 -15q-22 0 -37 15q-15 16 -15 38.5t15.5 37.5t36.5 15q20 0 36 -15.5t16 -37.5zM404 510q0 -23 -16 -38t-36 -15t-36 15q-17 16 -17 38.5t16.5 37.5t36.5 15t36 -15.5t16 -37.5zM278 551q-39 0 -69 -25.5t-37 -63.5v-1l-8 -38l-43 29
q-29 19 -64 18t-63 -22q-4 -3 -4 -8q0 -10 10 -10q3 0 6 2q23 17 51.5 18t52.5 -15l56 -37q2 -2 5 -2q8 0 10 8l11 54q6 31 30.5 52t56.5 21q20 1 39 -7.5t32 -24.5t18 -36v0q5 -20 0 -41l-35 -176v-2v-3l34 -116q5 -18 3 -36t-11 -33q-18 -33 -54 -44q-17 -5 -35 -2.5
t-34 10.5q-33 19 -42 55h-1l-29 105q-1 3 -4 5l-150 100q-2 1 -4 3q-3 2 -6 2q-10 0 -10 -10q0 -5 4 -8q2 -2 5 -3v-1l146 -97l29 -101q12 -44 52 -67q20 -11 41.5 -13.5t43.5 3.5q44 13 66 53q10 19 12.5 41t-3.5 43l-33 115l35 173q5 25 -1 49.5t-22 44t-38.5 30
t-48.5 9.5z" />
    <glyph glyph-name="dotlessi" unicode="&#x131;" horiz-adv-x="216" 
d="M31 540q-10 -7 -15 -43q-7 -41 0 -73q4 -14 11.5 -31t13.5 -21q-2 17 2 23.5t10 4.5t9 -6q11 -13 15 -34q0 -29 -9 -82q-16 -97 -8 -146q10 -50 50.5 -103.5t81.5 -52.5q-26 28 -43 71.5t-17 96.5q-1 73 7 124q16 96 4 147q-2 11 -7 21q-4 10 -9 16t-12 11h-1
q-8 5 -31.5 13t-33.5 15q-6 5 -12 21.5t-6 27.5zM144 480v-48h24v48h-24z" />
    <glyph glyph-name="Lslash" unicode="&#x141;" horiz-adv-x="428" 
d="M415 0h-355v179l-35 -9v75l35 8v318h76v-300l270 64v-75l-270 -63v-132h279v-65z" />
    <glyph glyph-name="lslash" unicode="&#x142;" horiz-adv-x="258" 
d="M248 59l-8 -69q-179 10 -179 220v73l-51 -14v65l51 14v257h76v-234l111 33v-64l-111 -34v-79q1 -92 29 -131q24 -32 82 -37z" />
    <glyph glyph-name="OE" unicode="&#x152;" horiz-adv-x="864" 
d="M838 0h-340v32q-72 -44 -163 -44q-133 0 -218.5 85t-85.5 213q0 126 85.5 211.5t218.5 85.5q90 -1 163 -45v33h340v-65h-264v-172h235v-65h-235v-204h264v-65zM498 125v318q-61 74 -163 74q-91 0 -159 -70q-68 -69 -69 -161q0 -94 67.5 -163.5t160.5 -69.5q102 0 163 72z
" />
    <glyph glyph-name="oe" unicode="&#x153;" horiz-adv-x="824" 
d="M770 88l9 -66q-88 -32 -167 -33q-121 0 -188 89q-64 -88 -177 -88q-94 0 -155 62.5t-61 153.5t61.5 154.5t154.5 63.5q116 0 178 -93q72 92 182 93q185 0 189 -232h-333q5 -64 46.5 -100t107 -35.5t153.5 31.5zM389 206q0 65 -39.5 109t-102 44t-102.5 -44
q-40 -43 -39 -109q0 -65 39.5 -108.5t101.5 -43.5t102 43.5t40 108.5zM468 256h253q-6 48 -39 76.5t-82 28.5q-48 0 -86 -29t-46 -76z" />
    <glyph glyph-name="Scaron" unicode="&#x160;" horiz-adv-x="520" 
d="M305 653h-42l-92 138h65l49 -85l48 85h66zM290 563q-67 0 -132 -13q-55 -11 -76 -32q-32 -32 -32 -78v-169q0 -9 2 -22q3 -13 8 -25q3 -7 9 -15q0 -1 2 -3q-21 -30 -21 -66v-40q0 -46 32 -78q21 -21 76 -32q65 -13 132 -13t132 13q55 11 76 32q28 29 32 77q5 67 0 171
q-2 31 -14 54q14 26 14 55q5 37 0 63q-11 55 -32 76t-76 32q-65 13 -132 13zM290 543q65 0 128 -13q49 -9 66 -26t26 -66q5 -23 0 -56v-1q-5 -34 -12 -48l-1 -1q-3 -5 -7 -10q-20 -25 -51.5 -31.5t-60.5 8.5q-13 7 -24 19q-16 18 -24 23q-15 8 -44 9h-42q-4 0 -7 -3t-3 -7
t3 -7t7 -3h42q24 -1 34 -6q5 -4 19 -19v-1q13 -14 30 -23q35 -18 73 -10q36 7 60 35q7 -17 8 -36q5 -104 0 -169q-3 -41 -26 -65q-17 -17 -66 -26q-63 -13 -128 -13t-128 13q-49 9 -66 26q-26 27 -26 64v40v0q0 27 14 50q32 -30 76 -30h80h40q15 0 23 -7q7 -7 7 -18v-35
q0 -4 3 -7t7 -3t7 3t3 7v35q0 20 -14 32.5t-36 12.5h-40h-80q-37 0 -64 26q-3 4 -6 7q-11 14 -16 31q-2 7 -3 14q-1 6 -1 12v170q0 37 26 64q17 17 66 26q63 13 128 13z" />
    <glyph glyph-name="scaron" unicode="&#x161;" 
d="M230 462h-42l-92 138h65l49 -85l48 85h66zM190 563q-67 0 -132 -13q-55 -11 -76 -32q-5 -5 -9 -11q-2 -3 -1.5 -7t3.5 -6.5t7 -2t7 3.5q4 5 7 9q17 16 66 26q63 13 128 13t128 -13q49 -10 65.5 -26.5t26.5 -65.5q4 -30 -0.5 -63.5t-19.5 -52.5q-20 -25 -51.5 -31.5
t-60.5 8.5q-11 5 -26.5 21.5t-21.5 20.5q-15 8 -44 9h-42q-4 0 -7 -3t-3 -7t3 -7t7 -3h42q24 -1 34 -6l14.5 -14.5t17.5 -16.5t17 -12q35 -18 73 -10q36 7 60 35q7 -17 8 -36q5 -104 0 -169q-3 -42 -26 -65q-17 -16 -66 -26q-128 -26 -256 0q-49 10 -66 26l-8 10
q-2 3 -6.5 4t-7.5 -1.5t-4 -7t2 -7.5l10 -12q21 -21 76 -32q132 -26 264 0q55 11 76 32q28 29 32 77q5 67 0 171q-2 31 -14 54q11 25 15 59.5t-1 58.5q-11 55 -32 76t-76 32q-65 13 -132 13zM-1 200q-7 0 -9 -7t4 -11q30 -22 66 -22h120q15 0 23 -7q7 -7 7 -18v-35
q0 -4 3 -7t7 -3t7 3t3 7v35q0 20 -14 32.5t-36 12.5h-120q-30 0 -54 18q-3 2 -7 2z" />
    <glyph glyph-name="Ydieresis" unicode="&#x178;" 
d="M358 700q0 -23 -15.5 -38t-36.5 -15q-22 0 -37 15q-15 16 -15 38.5t15.5 37.5t36.5 15q20 0 36 -15.5t16 -37.5zM536 700q0 -23 -16 -38t-36 -15t-36 15q-17 16 -17 38.5t16.5 37.5t36.5 15t36 -15.5t16 -37.5zM318 551q-39 0 -69 -25.5t-37 -63.5v-1l-8 -38l-43 29
q-38 25 -82.5 16t-70 -47t-16.5 -82.5t47 -70.5l146 -97l29 -101q12 -44 52 -67q20 -11 41.5 -13.5t43.5 3.5q44 13 66 53q10 19 12.5 41t-3.5 43l-33 115l35 173q5 25 -1 49.5t-22 44t-38.5 30t-48.5 9.5zM319 531q20 1 39 -7.5t32 -24.5t18 -36t0 -41l-35 -176v-2v-3
l34 -116q5 -18 3 -36t-11 -33q-18 -33 -54 -44q-17 -5 -35 -2.5t-34 10.5q-33 19 -42 55h-1l-29 105q-1 3 -4 5l-150 100v0q-31 21 -38.5 57.5t13.5 67.5t57.5 38.5t67.5 -13.5l56 -37q2 -2 5 -2q8 0 10 8l11 54q6 31 30.5 52t56.5 21z" />
    <glyph glyph-name="florin" unicode="&#x192;" horiz-adv-x="481" 
d="M392 305h-112l-42 -193q-42 -194 -192 -195q-47 0 -78 30l31 53q28 -17 59 -17q78 1 108 135l40 187h-64l12 62h67l3 19q24 94 72 144.5t120 50.5q48 0 78 -30l-31 -53q-29 17 -59 17q-79 0 -108 -135l-3 -13h111z" />
    <glyph glyph-name="circumflex" unicode="&#x2c6;" horiz-adv-x="258" 
d="M245 462h-65l-49 85l-48 -85h-66l93 138h42z" />
    <glyph glyph-name="caron" unicode="&#x2c7;" horiz-adv-x="366" 
d="M205 462h-42l-92 138h65l49 -85l48 85h66z" />
    <glyph glyph-name="breve" unicode="&#x2d8;" horiz-adv-x="408" 
d="M347 589q-12 -68 -48 -101t-94 -33t-93.5 33t-47.5 101h64q6 -30 25 -53.5t52.5 -23.5t52.5 23.5t25 53.5h64z" />
    <glyph glyph-name="dotaccent" unicode="&#x2d9;" horiz-adv-x="228" 
d="M168 654q0 -23 -15.5 -38t-36 -15t-36.5 15q-16 16 -16 38.5t16 37.5t36 15t36 -15.5t16 -37.5z" />
    <glyph glyph-name="ring" unicode="&#x2da;" horiz-adv-x="317" 
d="M256 557q0 -40 -28.5 -68t-68 -28t-67.5 28t-28 68t28 68t68 28t68 -28t28 -68zM205 557q0 19 -13 32t-32 13t-33 -13t-14 -32t13.5 -33t33 -14t32.5 14t13 33z" />
    <glyph glyph-name="ogonek" unicode="&#x2db;" horiz-adv-x="304" 
d="M242 -163q-49 -20 -87 -21q-47 0 -69 28t-22 65q0 23 6.5 51.5t15.5 62.5h71q-25 -63 -25 -97q1 -38 34 -42q13 0 34 6t42 16v-69z" />
    <glyph glyph-name="tilde" unicode="&#x2dc;" horiz-adv-x="308" 
d="M274 532q-1 -42 -18.5 -67t-52.5 -25q-10 0 -23.5 5.5t-28.5 12t-28.5 12t-21.5 5.5q-10 0 -12 -9q-2 -8 -3 -20h-52q0 36 17 61t50 25q11 0 24.5 -5t27 -11.5t26 -11.5t20.5 -5q23 0 23 33h52z" />
    <glyph glyph-name="hungarumlaut" unicode="&#x2dd;" horiz-adv-x="428" 
d="M265 384h-50l75 205h77zM114 384h-50l75 205h76z" />
    <glyph glyph-name="uni0E01" unicode="&#xe01;" horiz-adv-x="421" 
d="M233 552q-68 -1 -135 -23q-68 -22 -105 -69q-3 -4 -3 -8t3.5 -7t8 -2t6.5 4q34 43 96 63q65 22 130 22q55 1 106 -14q36 -12 52 -32q19 -25 19 -56v-119v-210q0 -37 -26.5 -64t-64 -27t-64 27t-25.5 64v210v15v15t-3.5 8t-8.5 2q-43 -6 -58 -11l-4 -2q-7 -3 -6 -11
q1 -11 6 -27q2 -4 11.5 -31.5t15 -51t6.5 -50.5l1 -68v-1q-1 -37 -28.5 -63t-65 -24.5t-63 29t-23.5 64.5v23v16.5t-1 16.5q0 4 -3.5 6.5t-7.5 2t-6.5 -4t-2.5 -7.5q1 -7 1 -30v-22v0q-2 -46 29 -79.5t77 -35t79 30t35 77.5v0v2q0 -45 31 -77q33 -33 79 -33t78 32.5t32 78.5
v1v209v119q0 38 -24 69q-19 25 -61 38q-54 16 -113 15zM211 330v-19v-148l-0.5 2t-0.5 4q-1 28 -7 53.5t-16 53t-11 30.5q-2 9 -4 16q12 3 39 8z" />
    <glyph glyph-name="uni0E02" unicode="&#xe02;" horiz-adv-x="380" 
d="M278 551q-43 -3 -72 -29q-1 0 -2.5 1t-2.5 2q-43 27 -88 25q-13 -1 -22 -3q-58 -13 -99 -67q-2 -3 -1.5 -7t3.5 -6.5t7 -2t7 3.5q37 48 88 60q10 2 17 2q67 -1 110.5 -55.5t31.5 -124.5h-1q-3 -28 -15 -81q-11 -54 -14 -70q-1 -4 1.5 -7.5t6.5 -4.5t7.5 2t3.5 7
q3 14 15 69q12 53 15 83q8 45 -7 87.5t-48 71.5q26 23 60 24q18 0 35 -7q35 -16 49 -49q7 -17 7 -35v-1v-200v-140q0 -37 -26.5 -63.5t-63.5 -26.5h-60q-58 0 -109 37q-27 19 -43 40t-23 55.5t3 89.5q45 -10 81 10v0h1q23 12 39 33q16 22 21 48q1 5 -2.5 8.5t-8.5 3.5
q-8 0 -9 -9q-4 -21 -17 -38.5t-33 -27.5q-2 -1 -4.5 -2t-10.5 -4t-16 -4t-20.5 -0.5t-23.5 4.5t-15 6q-12 6 -23 16q-3 3 -7.5 3t-7.5 -3t-2.5 -7.5t3.5 -6.5q18 -16 36 -23q-11 -65 -4 -100q8 -39 27 -63.5t47 -44.5q57 -41 121 -41h60q46 0 78 32.5t32 77.5v140v200
q0 23 -8 43q-20 44 -61 61q-20 8 -43 8z" />
    <glyph glyph-name="uni0E03" unicode="&#xe03;" horiz-adv-x="380" 
d="M232 540q-10 4 -11 4q-17 5 -31 5q-22 1 -43 -8h-1q-12 4 -24 5q-4 1 -8 1q-27 1 -55 -10t-47 -30q-11 -11 -20 -24q-3 -3 -2.5 -7.5t4 -7t8 -1.5t6.5 4q9 12 18 22q15 15 40.5 24.5t46.5 9.5h6q16 -3 25 -6v0q46 -14 56 -56q0 -4 3.5 -6t8 -1.5t6.5 4t1 7.5
q-8 38 -43 60q9 1 14 0q17 -1 27 -5q3 -1 7 -2.5t5 -2.5q36 -17 48 -54q10 -35 1 -95q-6 -31 -22 -90q-17 -62 -22 -81q-1 -4 1.5 -7.5t6.5 -4.5t7.5 1.5t4.5 6.5q4 18 21 79t23 92v1q10 65 -2 104q-11 35 -41 56q30 9 59 -3q35 -16 49 -49q7 -17 7 -35v-1v-200v-140
q0 -37 -26.5 -63.5t-63.5 -26.5h-60q-60 0 -109 39q-51 39 -61 94q-2 7 -3 13t-1 12.5t-0.5 10.5t0.5 10t1 8.5t1.5 8.5t1.5 8t2 8.5t2 8.5q19 -4 38 -1q14 3 28 13t21 20q21 30 4 56q-3 5 -8 5q-6 0 -9 -5.5t0 -10.5q10 -15 -3 -34q-14 -19 -36 -25q-22 -3 -39 3
q-26 9 -43 26q-3 3 -7 3t-7 -3t-3 -7t3 -7q19 -19 42 -28l-2 -7t-2 -8.5t-1.5 -7.5t-2 -8.5t-1 -8.5t-0.5 -10v-10t0.5 -11.5t1 -12t2.5 -13.5q12 -62 69 -106q55 -43 121 -43h60q46 0 78 32.5t32 77.5v140v200q0 23 -8 43q-20 44 -61 61q-47 17 -89 -3z" />
    <glyph glyph-name="uni0E04" unicode="&#xe04;" 
d="M247 550q-79 0 -146 -43q-71 -45 -110 -121q-2 -4 -0.5 -7.5t5 -5.5t7.5 -1t6 5q37 71 102 113q62 40 136 40h8q37 0 91 -19q30 -11 46 -33q18 -24 18 -53v-120v-210q0 -33 -21 -58.5t-53.5 -31.5t-60.5 11q-28 16 -39 46q4 7 8 17q10 21 16 44q38 11 60 43q24 34 19 75
q-6 51 -29 85q-35 52 -96 54q-54 2 -95 -32q-27 -23 -43 -59q-13 -28 -24 -84q-1 -7 -4 -16q-1 -4 1.5 -8t6.5 -5t7.5 1.5t4.5 6.5q2 10 4 17q10 54 22 80q14 32 38 51q15 13 38 21t43 7q51 -2 81 -46q21 -32 25 -73q5 -35 -16 -64t-56 -36t-65 12t-39 54q-1 4 -4.5 6
t-7.5 1t-6 -4.5t-1 -7.5q11 -42 47 -65q31 -20 67 -17q-5 -17 -12 -33q-19 -41 -38 -55q-17 -14 -41 -21t-44 -6q-26 2 -51 16t-40 33q-2 2 -4 5t-6.5 4t-7.5 -1.5t-4 -7t2 -7.5q2 -3 5 -6q17 -22 45 -37.5t59 -18.5q50 -4 93 26q17 12 30 29q15 -26 41 -41q35 -21 74.5 -14
t65 38t25.5 72v210v120q0 36 -22 65q-19 27 -56 40q-50 18 -96 20h-9z" />
    <glyph glyph-name="uni0E05" unicode="&#xe05;" horiz-adv-x="422" 
d="M193 551q-12 0 -27 -3q-54 -14 -94 -50t-65 -83q-9 -16 -16 -34q-2 -4 -0.5 -7.5t5.5 -5t8 0t5 4.5q7 18 15 32q23 44 60.5 77.5t86.5 45.5q7 2 21 2q46 0 81 -28q21 -18 36 -46q2 -4 6 -5t8 1t5 6t-1 7q-17 32 -42 52q-2 3 -6 5q6 4 14 5q20 5 51 -3q20 -6 37.5 -23
t23.5 -31q8 -18 8 -39v-120v-210q0 -33 -21 -58.5t-53.5 -31t-60.5 10.5t-39 46q1 2 2.5 6t2.5 5q10 21 16 44q38 11 60 43q24 34 19 75q-2 21 -9 42q-7 24 -20 43q-35 52 -96 54q-54 2 -95 -32q-27 -23 -43 -59q-13 -28 -24 -84q-1 -7 -4 -16q-1 -4 1.5 -8t6.5 -5t7.5 1.5
t4.5 6.5q2 10 4 17q10 54 22 80q14 32 38 51q15 13 38 21t43 7q51 -2 81 -46q11 -16 17 -37q7 -25 8 -36q5 -35 -16 -64t-56 -36t-65 12t-39 54q-1 4 -4.5 6t-7.5 1t-6 -4.5t-1 -7.5q11 -42 47 -65q31 -20 67 -17q-5 -17 -12 -33q-11 -23 -16 -30q-9 -12 -21 -21
q-16 -12 -39.5 -19t-44.5 -6q-26 2 -50 15.5t-39 31.5l-8 10q-2 3 -6.5 4t-7.5 -1.5t-4 -6.5t2 -8q4 -5 9 -11q41 -49 103 -54q54 -4 97 29q14 11 26 26q15 -26 41 -41q34 -20 74 -13t65.5 38t25.5 71v210v120q0 25 -9 46t-29 40t-45 26q-37 10 -62 4q-15 -4 -27 -13
q-30 16 -68 17z" />
    <glyph glyph-name="uni0E06" unicode="&#xe06;" 
d="M318 552q-35 -1 -64 -22q-23 15 -47 18q-28 4 -55 -6q-16 6 -35 7h-2q-73 -4 -123 -67q-2 -4 -1.5 -8t3.5 -6.5t7 -2t7 3.5q43 56 107 60q31 -3 53 -18q24 -15 31 -41q1 -4 5 -6t8 -1t6 4.5t0 7.5q-9 33 -39 53q12 2 25 0q25 -4 45 -20q15 -11 23 -29q28 -66 -7 -143
q-19 -33 -27 -61l-1 1l-23 13q-3 1 -6 1q-8 0 -9.5 -7.5t5.5 -10.5l23 -14l46 -26q3 -3 7 -1.5t6.5 5t1 7.5t-4.5 6l-27 15q2 11 6.5 21.5t11.5 23.5t9 19h1q7 17 11 28t9.5 34.5t1.5 48t-16 49.5q-8 16 -20 28q22 15 49 16q39 -1 65 -27q26 -28 26 -65v-160v-180
q0 -24 -12 -45t-33 -33t-45 -12t-45 12l-69 40q-4 2 -8 2q-3 -1 -10 -10q-14 -18 -39.5 -32.5t-57.5 -11.5q-50 5 -83 46q-3 3 -7 3.5t-7.5 -2t-3.5 -7t2 -7.5q39 -47 97 -52q38 -4 67.5 12.5t46.5 37.5l62 -36q25 -15 54.5 -15t55.5 15t40.5 40.5t14.5 54.5v180v160
q-1 48 -32 79q-35 33 -80 33zM150 326q-6 0 -9 -5.5t1 -10.5q5 -9 3 -19t-11 -20q-19 -21 -47 -22q-21 1 -40 12q-27 15 -40 27q-3 3 -7.5 3t-7 -3t-2.5 -7.5t3 -6.5q16 -14 44 -31v0q23 -13 49 -14h1q37 1 62 29q13 14 16 29q3 18 -7 34q-2 4 -8 5zM100 180q-8 0 -14 -6
t-6 -14t6 -14t14 -6t14 6t6 14t-6 14t-14 6z" />
    <glyph glyph-name="uni0E07" unicode="&#xe07;" horiz-adv-x="380" 
d="M256 551q-13 0 -28 -3q-46 -9 -79 -49q-15 -18 -27 -42q-21 -44 -22 -73q-23 8 -47 7q-33 -2 -59 -22q-4 -2 -4.5 -6.5t2 -7.5t6.5 -3.5t8 1.5q21 17 48 18q25 1 47 -10q3 -19 12 -36q17 -30 47 -45q3 -5 5 -8q18 -30 35 -51q17 -20 31 -30q1 -1 2 -1v-1q2 -1 3 -1
t1.5 -0.5t1.5 -0.5h2q3 0 6 2q5 4 3 11q0 2 -2 4q-1 1 -2 1q-1 1 -2 1l-1 1q-12 9 -28 27q-13 16 -25 35v1q17 -3 33 -1q22 3 41 14q40 23 52 68q1 4 -1 7.5t-6 4.5t-7.5 -1t-4.5 -6q-10 -37 -43 -56q-15 -9 -33 -11q-19 -3 -35 2q-5 2 -18 7q-23 10 -37 37q-9 20 -9.5 41
t4.5 36.5t14 35.5q11 22 25 38q28 34 67 42q13 3 25 3q28 0 58 -17q21 -13 38 -38t17 -56v-150v-170q0 -37 -26.5 -63.5t-63.5 -26.5h-60q-22 0 -41 6t-29.5 12t-25.5 18q-31 23 -62 60t-54 76q-2 3 -6 4.5t-8 -1t-4.5 -6.5t1.5 -8q24 -40 56.5 -78.5t64.5 -62.5
q54 -40 108 -40h60q46 0 78 32t32 78v170v150q0 37 -19.5 66.5t-45.5 44.5q-35 21 -69 20zM243 206zM234 189h1v0h-1z" />
    <glyph glyph-name="uni0E08" unicode="&#xe08;" horiz-adv-x="419" 
d="M191 552q-48 1 -94 -19q-59 -24 -106 -87q-2 -4 -1.5 -8t4 -6.5t7.5 -2t7 4.5q21 29 47.5 50t49.5 31q42 18 86 17q66 0 117 -11.5t83 -44.5q19 -19 18 -55v-65q0 -30 0.5 -90t0.5 -84l-1 -81q0 -37 -26 -63t-64 -26h-79h-1q-25 0 -42 10.5t-23 25.5q-12 37 33 74
q11 5 20 13q4 2 4.5 6.5t-2 7.5t-7 3.5t-7.5 -2.5q-25 -20 -57 -19q-34 0 -56 20q-23 21 -30 45q-9 35 7 66v0q16 32 36.5 53t55.5 32q20 7 42 6q25 0 46 -10q39 -18 61 -61q12 -25 12 -73q1 -40 -5 -61q-5 -15 -11 -31q-1 -4 0.5 -7.5t5.5 -5t7.5 0t5.5 5.5q6 16 11 32
q7 24 6 67q0 53 -14 82q-25 49 -71 70q-25 11 -53 12q-26 1 -49 -7q-68 -22 -104 -95v-1q-5 -9 -8 -19q-18 1 -34 9q-7 3 -14 8q-2 2 -6 2q-7 0 -9 -7t4 -11q7 -6 16 -10q18 -9 39 -11q-1 -17 2 -33q4 -18 11 -30q12 -20 27 -32q30 -25 69 -25h11q-25 -35 -13 -69
q7 -23 29.5 -36.5t53.5 -13.5h80q46 0 78 32t32 77q1 39 1 81q0 32 -0.5 90.5t-0.5 83.5v11.5v10.5v9.5v9v8v6.5v5v3.5v1.5q1 37 -22 67q0 1 -1 2q-38 37 -92.5 49t-122.5 13z" />
    <glyph glyph-name="uni0E09" unicode="&#xe09;" 
d="M154 553q-54 0 -104 -25q-33 -16 -58 -48q-2 -4 -1.5 -8t3.5 -6.5t7 -2t7 3.5q22 29 51 43q46 23 95 23q4 0 53 -3q81 -5 141 -25q27 -9 44.5 -32.5t17.5 -52.5v-142q-1 -34 -11 -63q-11 13 -25 23q-3 2 -7 2q-7 0 -9 -7t4 -11q23 -17 34.5 -42t12.5 -45q1 -14 1 -37
q-1 -36 -27 -62t-63 -26q-60 0 -98 22q-4 3 -10 7t-7 5q-9 7 -23 28q-2 3 -6 4t-7.5 -1.5t-4.5 -6.5t2 -7q9 -15 20 -26q-9 -11 -16 -15q-14 -8 -46 -9h-1q-32 0 -59 18t-34 44q-6 20 15 56q11 18 29 40q3 -1 4 -1q4 -2 7.5 0t5.5 5.5t0 7.5t-6 6q-28 11 -45 39
q-8 14 -10 25q-5 26 4.5 51t31.5 40.5t48 16.5q43 2 83 -27q14 -10 21 -16t16 -21t14 -36q14 -62 -24 -137q-2 -3 -0.5 -7t5 -6t7.5 -1t6 5q41 81 25 151q-3 14 -8 26q1 2 1 5v55q0 8 -8 10q-20 4 -34 4q-13 0 -27 -4q-46 20 -77 19h-1q-32 -2 -58.5 -21t-38.5 -49
q-1 -4 -3 -8q-3 3 -7 5q-3 3 -7 2q-7 0 -9 -7t4 -11t15 -9q-2 -23 4 -44q11 -34 43 -59q-17 -21 -28 -39q-26 -43 -18 -72q10 -33 42 -54.5t72 -21.5q37 1 56 12q5 3 12.5 10.5t8.5 7.5l10 -6q41 -26 109 -26q45 0 77 32t33 76v10v13q0 9 -1 17q-2 29 -17 57q17 38 18 84
v142q0 36 -21 64.5t-55 39.5q-62 21 -146 26q-50 3 -54 3zM218 344q8 0 22 -2v-19q-6 6 -12 11q-3 3 -12 10h1h1zM320 140q-8 0 -14 -6t-6 -14t6 -14t14 -6t14 6t6 14t-6 14t-14 6z" />
    <glyph glyph-name="uni0E0A" unicode="&#xe0a;" horiz-adv-x="380" 
d="M192 546q-5 -6 -8 -13q-31 17 -59 18q-17 0 -33 -3h-1q-58 -14 -99 -67q-2 -3 -1.5 -7.5t3.5 -7t7 -2t7 4.5q36 47 88 59q11 2 17 2q45 -4 76 -24h1q36 -25 54.5 -67t10.5 -89h-1q-3 -28 -15 -81q-11 -54 -14 -70q-1 -4 1.5 -7.5t6.5 -4.5t7.5 2t3.5 7q3 14 15 69
q12 53 15 83q9 51 -11.5 98t-60.5 75l-1 1q3 6 7 12q13 17 33.5 26.5t40.5 9.5q22 -1 41 -11q41 -25 46 -68q3 -22 -5 -42q-1 -5 -4 -13q-6 8 -14 13q-3 2 -6 2q-7 0 -9.5 -7t3.5 -11q17 -13 26.5 -32t9.5 -41v-120v-140q0 -37 -26.5 -63.5t-63.5 -26.5h-60q-58 0 -109 36
q-27 20 -43 41t-23 55t3 89q45 -10 81 10v0h1q23 12 39 33q16 22 21 48q1 5 -2.5 8.5t-8.5 3.5q-8 0 -9 -9q-4 -21 -17 -38.5t-33 -27.5q-2 -1 -4 -2.5t-10 -4t-16.5 -4t-20 -0.5t-23.5 4q-23 8 -39 24q-3 3 -7.5 3t-7.5 -3.5t-2.5 -7.5t3.5 -7q21 -17 36 -23
q-11 -65 -4 -100q8 -38 27 -62.5t47 -45.5q57 -40 121 -40h60q46 0 78 32t32 78v140v120q-2 35 -15 57l4 12q3 8 4 13q9 25 6 51q-9 57 -56 83q-24 13 -50 14q-61 -5 -91 -44z" />
    <glyph glyph-name="uni0E0B" unicode="&#xe0b;" horiz-adv-x="380" 
d="M217 570q-12 -8 -22 -20q-25 1 -48 -8q-16 5 -26 5h-16q-67 -5 -113 -64q-3 -4 -2.5 -8t4 -6.5t7.5 -2t7 3.5q43 55 103 57h8q69 -8 81 -62q0 -4 3.5 -6t8 -1.5t6.5 4t1 7.5q-8 39 -44 60q7 1 13 1q32 -3 56 -19.5t33 -45.5q10 -35 1 -95q-6 -31 -22 -90q-17 -62 -22 -81
q-1 -4 1.5 -7.5t6.5 -4.5t7.5 1.5t4.5 6.5q4 18 21 79t23 92v1q10 65 -2 104q-13 40 -50 62q-12 7 -28 12q5 5 11 9q24 17 53 16q48 -3 73 -40q12 -18 14.5 -39.5t-5.5 -41.5q-1 -5 -4 -12q-6 7 -14 13q-3 2 -7 2q-7 -1 -9 -7.5t4 -11.5q7 -5 12 -11q24 -26 24 -62v-120
v-140q0 -37 -26.5 -63.5t-63.5 -26.5h-60q-60 0 -109 38q-51 40 -61 94q-4 20 -4 37.5t1.5 24t6.5 26.5q19 -4 38 -2q14 4 28 14t21 20q21 30 4 56q-3 5 -8 5q-6 0 -9 -5.5t0 -10.5q10 -15 -3 -34q-14 -19 -36 -25q-20 -2 -39 4q-24 7 -43 25q-3 3 -7.5 3t-7 -3t-2.5 -7.5
t3 -7.5q21 -18 42 -27q-1 -1 -1 -5q-13 -48 -4 -92q12 -62 69 -105q55 -43 121 -43h60q46 0 78 32t32 78v260q0 30 -15 57l4 12q13 37 10 64t-18 49q-34 46 -88 48q-38 -1 -66 -20z" />
    <glyph glyph-name="uni0E0C" unicode="&#xe0c;" horiz-adv-x="561" 
d="M248 553q-75 -1 -153 -23q-63 -18 -103 -72q-3 -3 -2.5 -7.5t4 -7t7.5 -1.5t6 4q37 48 93 65q94 22 148 22q82 0 130 -35q12 -8 14 -11q20 -23 20 -56v-120v-39q-2 1 -4 1q-7 -1 -9 -7.5t4 -11.5l37 -27q4 -2 8 -1.5t6.5 4t2 7.5t-4.5 6l-20 16v52v120q0 39 -25 69
q-1 2 -5 5q1 2 3 3q12 12 18 15q24 10 44 8q28 -2 50 -18q16 -13 25 -31q10 -20 10 -42v-160v-180q0 -25 -13.5 -47t-36.5 -33.5t-48 -9t-46 17.5l-30 22q-3 2 -6.5 1.5t-6.5 -3.5q-41 -45 -96 -37q-26 4 -48 16q10 9 17 19q17 24 25 59q8 30 7 55v0q0 22 -8 43
q-8 20 -24 36t-37 24q-6 3 -12 4q0 1 -7 22q5 5 12 9q18 12 43 19q22 6 40 6q4 0 7 3t3 7t-3 7t-7 3q-21 0 -45 -7l-6 -2q2 4 0.5 8.5t-5.5 6t-7 1.5q-30 -1 -51 -8q-4 -2 -7 -3q-7 -4 -6 -11q2 -11 7 -28q2 -8 10 -29h-9q-20 0 -39 -7q-3 -2 -5 -6t-0.5 -7.5t5.5 -5.5t8 0
q15 6 32 6q19 0 35 -6q17 -7 29.5 -20t19.5 -30t7 -35q1 -23 -6 -51q-7 -30 -23 -52q-18 -26 -55 -40q-18 -7 -34 -7q-32 0 -65 22q-31 20 -42 43q-7 13 -10 26.5t-3 20.5v8q1 24 -3 37q-1 5 -4.5 7t-7.5 1t-6 -4.5t-1 -7.5q2 -8 2 -33q-2 -31 15 -64q14 -28 49 -51
q37 -24 74 -25h2q38 0 73 24q28 -18 61 -23q60 -8 107 37l23 -17q26 -18 56.5 -20.5t58.5 11.5t44.5 40.5t16.5 57.5v179v161q-1 24 -9 43q-5 12 -11 22q-18 26 -49 39q-21 8 -43 8q-26 -1 -46 -11q-9 -5 -23 -18q-3 -3 -5 -6q-54 36 -138 36zM213 330q-17 -6 -30 -15l-8 -6
q-2 8 -3 14q17 6 41 7z" />
    <glyph glyph-name="uni0E0D" unicode="&#xe0d;" horiz-adv-x="560" 
d="M194 549q-66 -10 -97 -20q-67 -23 -105 -69q-2 -3 -2 -7t3.5 -7t7.5 -2.5t7 4.5q34 41 95 62q30 9 94 20q32 6 93 -3l47 -8q30 -7 49.5 -30.5t21.5 -54.5q3 -83 3 -123v-112q0 -4 3 -7t7 -3t7 3t3 7v112q0 63 -3 124q-2 37 -26 66q-2 3 -4 5q17 17 39 23q28 7 55 -2.5
t43 -33.5t16 -52v-140v-1v-6v-16t-0.5 -23t-0.5 -28v-30.5t-0.5 -30.5t-0.5 -28v-23v-15q0 -38 -26 -64q-5 -5 -10 -8q-5 3 -11 6q-17 8 -37 7q-30 -1 -52 -22q-9 8 -20 14q-17 7 -34 7h-1q-34 -4 -44 -8q-18 12 -34 30q-12 12 -21 28q2 6 4 15q7 31 6 56v0q1 26 -11 50
q-10 20 -27 35v65l-1 30q0 4 -3 7t-7 3h-1q-45 -7 -59 -12q-2 -1 -3 -1h-1q-7 -3 -6 -11q2 -11 6 -27q3 -7 10 -28h-1q-19 1 -38 -5q-4 -1 -6 -4.5t-0.5 -7.5t5 -6t7.5 -1q21 6 42 3q1 -1 3 -1h1q1 0 2 -1q19 -4 34 -16v-1q16 -12 25 -30q10 -20 9 -41v-1q1 -22 -6 -50
q-6 -28 -22 -52q-13 -17 -38.5 -32t-51.5 -15q-31 0 -65 21q-30 20 -42 43q-4 9 -6.5 15t-4 12t-2 9t-0.5 9.5v9.5v17t-1 15q-2 9 -10 8q-5 0 -8 -3.5t-2 -8.5q1 -4 1 -27q0 -33 15 -65q14 -27 49 -50q39 -25 76 -25q32 0 61 16.5t45 38.5q7 10 13 22q7 -11 15 -20
q14 -15 29 -26q-10 -6 -18 -14q-28 -28 -28 -68q0 -34 19.5 -64.5t46.5 -45.5q36 -20 84 -20q42 0 72.5 22t48.5 50q19 29 26 56v0q6 19 2.5 38t-15.5 34l-4 4q5 4 9 8q32 32 32 78l2 200v1v140q0 35 -19.5 63.5t-52.5 40.5t-67 3q-28 -8 -49 -29q-13 9 -31 15t-26.5 7.5
t-32.5 5.5q-56 9 -99 2zM210 329q1 -15 1 -18v-52q-11 6 -23 9q-11 34 -12 38l-5 15q12 3 39 8zM468 21q14 0 26 -6q7 -3 12 -8q6 -4 10 -9q9 -12 11.5 -26t-1.5 -28q-7 -25 -24 -51q-40 -63 -104 -63q-43 0 -75 18q-21 11 -38 38t-17 54q0 14 6.5 29.5t15.5 24.5
q29 27 68 26q14 0 26 -6q7 -2 12 -7q1 0 1 -1q17 -14 21 -36t-8 -41q-2 -3 -1 -7t4.5 -6.5t7.5 -1t7 4.5q15 26 10 55q-3 16 -12 29q17 17 40 18h2z" />
    <glyph glyph-name="uni0E0E" unicode="&#xe0e;" 
d="M231 550q-79 1 -138 -20q-65 -23 -101 -69q-3 -4 -2.5 -8t4 -6.5t7.5 -2t6 3.5q33 42 92 63q58 19 132 19q110 0 157 -41q22 -26 22 -59v-120v-210v-170q0 -37 -26 -65q-25 -25 -63 -25h-1q-18 0 -34 11q-18 13 -42 30q10 12 35 49q16 25 31 52q2 -1 7.5 -5t8.5 -7
q4 -3 8 -2.5t6.5 4t2 8t-4.5 6.5q-3 3 -9.5 7.5t-9.5 6.5q13 23 11 46q-1 20 -11.5 37.5t-28.5 27.5t-38 11q-11 0 -22 -3v8v36v147v29q0 4 -3 7q-1 2 -6 3q-4 1 -9 1q-32 -2 -51 -8q-4 -1 -6 -5t0 -8q3 -9 8 -21q3 -6 12.5 -25.5t15 -33t11.5 -36.5t8 -47v-39q0 -6 -1 -15
v-2q-13 -8 -23 -21q-4 -6 -11 -20q-65 5 -91 0q-36 -7 -63 -33q-8 6 -14 12q-3 3 -7 3q-7 1 -9.5 -5.5t1.5 -11.5q7 -7 15 -13q-35 -44 -26 -95q11 -57 68 -87q46 -25 93 -17q34 6 60 22q15 9 29 22q26 -19 43 -31q21 -15 45 -15h1q47 0 78 31q33 33 32 79v170v210v120
q0 41 -27 73h-1q-53 47 -171 47zM210 330v-20v-56q-6 15 -16.5 36.5t-12 25.5t-4.5 10q16 3 33 4zM58 271q-35 0 -64 -22q-3 -2 -4 -6t1.5 -7.5t7 -4t7.5 1.5q24 18 53 18q34 1 60 -22q3 -3 7.5 -2.5t7 3.5t2.5 7.5t-4 6.5q-32 28 -74 27zM251 102q16 -1 29 -8.5t21 -20.5
t9 -28t-5 -29q-25 -48 -42 -75q-5 -5 -18.5 -25.5t-21.5 -29.5q-26 -27 -59 -39q-12 -3 -24 -5q-41 -8 -81 14q-49 26 -58 73q-8 44 24 82q26 31 63 39q41 5 77 1q-9 -18 -19 -32q-21 -31 -34 -41q-3 -3 -3.5 -7t2 -7.5t6.5 -4t7 2.5q16 12 39 46q18 28 32 56q10 19 23 28
q19 10 33 10z" />
    <glyph glyph-name="uni0E0F" unicode="&#xe0f;" 
d="M231 550q-79 1 -138 -20q-64 -23 -100 -68q-3 -3 -2.5 -7.5t3.5 -7t7.5 -2t6.5 3.5q33 42 91 62q58 19 132 19q113 0 157 -41q22 -21 22 -59v-120v-210v-170q1 -38 -26 -65q-25 -25 -63 -25h-1q-10 0 -25 7q-16 7 -22 16l-13 17q-3 3 -7 3.5t-7 -1.5q-14 -11 -32 -12
q-10 -1 -21 2q3 5 6 9q18 27 31 67q7 19 12 41q15 2 30 -3q15 -6 25 -19q3 -4 7 -4.5t7.5 2t4 7t-2.5 7.5q-14 18 -34 26q-16 5 -32 5h-1q2 11 3 19v0q6 36 -17 63l-3 3q1 2 1 5v63v147v29q0 4 -3 7q-1 2 -6 3q-4 1 -9 1q-32 -2 -51 -8q-4 -1 -6 -5t0 -8q3 -9 8 -21
q3 -6 12.5 -25.5t15 -33t11.5 -36.5t8 -47q0 -7 -1 -31t-2 -23q-18 8 -32 9q-28 1 -52 -15q-19 -16 -27 -36q-7 -1 -12 -2q-36 -7 -62 -33q-8 6 -14 12q-3 3 -7 3q-7 0 -9.5 -6t1.5 -11q7 -7 15 -13q-30 -39 -28 -84q3 -44 35 -79q42 -45 97 -36q15 3 24 6q24 9 43 29
q18 -7 37 -6q17 2 33 11l8 -10q9 -13 30 -22q18 -9 32 -9h1q47 0 78 31q33 33 32 79v170v210v120q0 41 -27 73h-1q-53 47 -171 47zM210 330v-20v-56q-6 15 -16.5 36.5t-12 25.5t-4.5 10q16 3 33 4zM58 271q-35 0 -64 -22q-3 -2 -4 -6t1.5 -7.5t7 -4t7.5 1.5q24 18 53 18
q34 1 60 -22q3 -3 7.5 -2.5t7 3.5t2.5 7.5t-4 6.5q-32 28 -74 27zM178 100q23 -3 38 -21q18 -21 13 -47q-9 -51 -18 -78q-12 -37 -28 -62q-30 -38 -57 -47q-8 -3 -16 -4q-45 -8 -80 30q-28 29 -30 66q-2 39 25 72q26 32 63 40h2q-4 -27 -12 -51q-5 -16 -11 -26
q-4 -5 -1 -10.5t9 -5.5t9 4q7 12 13 32q4 12 7.5 26t4.5 22l2 8q0 7 3 14q7 18 23 29q14 9 30 10q5 0 11 -1z" />
    <glyph glyph-name="uni0E10" unicode="&#xe10;" 
d="M320 551q-18 -1 -50 -13q-2 0 -7.5 -2.5t-9.5 -3.5q-44 18 -84 18q-65 0 -131 -44q-29 -19 -45 -36q-3 -3 -3 -7t3 -7t7 -3t7 3q15 16 42 34q31 20 58 30t62.5 10t76.5 -17q6 -2 9 -1q14 3 24 9q19 9 41 10q26 0 50 -15q23 -16 34 -41q4 -11 5 -35q1 -20 -1 -39
q-1 -22 -5 -33q-13 21 -32 36q-32 26 -81 35q-37 7 -82 7q-12 0 -34 -0.5t-32 -0.5q-4 0 -7 -3t-3 -7t2.5 -7t7.5 -3q9 0 39 1t55 -0.5t50 -5.5q44 -9 73 -32q17 -13 29.5 -33t15.5 -38q3 -17 4.5 -33t1.5 -24.5t-0.5 -26.5t-0.5 -23v-110q0 -35 -24 -61q-25 13 -51 10
q-9 -1 -17 -3t-14.5 -5t-9.5 -4.5t-8.5 -5.5l-5.5 -4q-6 -4 -13 -10q-10 13 -22 21q-20 12 -40 13q-14 1 -27 -3q-21 -9 -32 -19q-14 16 -16 36q-2 26 24 45q3 0 6 1q4 1 6.5 4.5t1.5 7.5t-4.5 6t-7.5 2q-28 -6 -55 7q-27 10 -43 42.5t-6 61.5q10 28 25 42q41 37 101 40
q34 1 58 -11q30 -15 51 -42q24 -33 27 -80t-12 -88q-2 -4 0 -7.5t6 -5t7.5 0.5t4.5 6q17 43 13.5 95.5t-30.5 89.5q-23 32 -58 49q-28 14 -68 13q-70 -3 -114 -46v0q-16 -16 -25 -37q-14 6 -27 16l-3 3q-3 3 -8 3q-6 -1 -8.5 -7.5t2.5 -10.5q3 -2 5 -4q16 -12 33 -19
q-8 -37 8 -71q20 -40 59 -54q13 -5 27 -7q-18 -21 -16 -47q2 -28 23 -49q-4 -7 -6 -14h-2.5h-1.5q-50 -5 -83 -48q-31 -40 -29 -86q3 -44 35 -79q42 -45 97 -36q5 1 9 2q20 5 37 16q24 -20 55 -19q30 1 52 22q17 -16 39 -20q24 -5 46.5 4.5t36 29.5t13.5 44v130q0 36 -23 62
l-5 5q27 31 27 73v110q0 67 -5 109q-1 9 -8 25q10 22 12 55q2 20 1 41q-1 28 -7 42q-12 31 -40.5 50t-61.5 19zM208 31q28 -7 41 -25q1 -1 1 -2q13 -19 9 -42q-5 -37 -18 -77q-12 -38 -28 -63q-15 -21 -28 -31q-17 -12 -33 -17q-7 -2 -12 -3q-45 -7 -80 30q-28 29 -30 66
q-2 39 24 72q28 35 66 41q-4 -28 -12 -52q-5 -17 -11 -27q-3 -3 -2 -7.5t5 -6.5t8 -1t6 5q7 12 13 31q6 17 14 57q2 14 7 22q7 11 17 19q18 14 43 11zM339 29q12 1 27.5 -4.5t25.5 -16.5q18 -19 18 -48v-130q0 -18 -10 -33t-27 -22t-35 -4q-16 4 -37 23q-3 2 -7.5 2t-6.5 -4
q-17 -21 -45 -22q-20 -1 -37 12q13 12 24 29q17 26 30 63q17 -13 39 -14q33 0 57 22q3 3 3 7t-2.5 7t-7 3t-7.5 -3q-18 -16 -42 -16q-20 1 -34 14q10 35 14 65v0q3 20 -4 40q8 6 16 11q1 1 7 6t9 6.5t10.5 3.5t18.5 3h3z" />
    <glyph glyph-name="uni0E11" unicode="&#xe11;" 
d="M107 550q-14 -1 -27 -5q-32 -9 -60 -35q-15 -14 -28 -31q-3 -4 -2.5 -8t4 -6.5t8 -2t6.5 4.5q12 15 25 28q1 1 4.5 4t4.5 4t4.5 4t5.5 4.5t6 3.5t7.5 3.5t8.5 3.5t11 4q11 3 23 4q23 1 39 -5q7 -3 13 -6.5t9.5 -6.5t8.5 -9.5t6 -8.5t6 -10.5l5 -8.5q2 -4 6 -5t8 1t5 6
t-1 8q-17 29 -34 43q9 2 19 1q23 -4 37 -12q24 -14 36 -37q23 -46 6 -102q-8 -27 -28 -62q-3 -5 -29 -49q-14 -23 -16 -29q-21 -56 -23 -64q-1 -4 -1.5 -8.5t2.5 -7.5t7 -3.5t7 2t4 6.5q0 3 1 7q1 6 22 61q1 4 14 26q26 43 29 49q21 37 30 66q19 64 -7 116q-10 20 -27 35
q24 7 42.5 5.5t36 -8t25.5 -12.5l8 -6q17 -13 26.5 -32t9.5 -40v-160v-170q0 -30 -17.5 -54.5t-46.5 -33t-57 1.5q-25 9 -41 30q4 7 9 16q9 17 17 44q9 27 26 93q13 53 27 101q2 5 -1 9.5t-8 3.5q-8 0 -10 -7q-14 -48 -28 -102q-16 -66 -25 -92q-14 -45 -32 -66
q-25 -29 -61 -33q-6 -1 -12 -1q-35 0 -56 7q-45 17 -69 53q-10 15 -16 30q-1 4 -5 6t-8 0.5t-5.5 -5.5t0.5 -8q7 -18 17 -34q23 -34 65 -55q22 -11 46 -14q21 -3 44 1q44 7 73 37q19 -22 46 -33q34 -12 69.5 -1.5t57 40t21.5 66.5v170v160q0 26 -12 49q-20 29 -32 39
q-33 26 -80 30q-29 3 -65 -11q-19 10 -41.5 12t-44.5 -6q-29 7 -48 7zM148 377h-4q-4 0 -7 -3.5t-2.5 -7.5t4 -6.5t7.5 -2.5q7 1 12 -4q6 -5 10 -15q7 -22 -5 -37q-26 -31 -55 -38v0q-17 -4 -49 8q-28 11 -53 27q-4 3 -8 2t-6.5 -4.5t-1.5 -7.5t4 -6q27 -18 58 -30
q38 -14 60 -9h1q36 9 65 45q19 24 8 56q-4 15 -14.5 24t-23.5 9z" />
    <glyph glyph-name="uni0E12" unicode="&#xe12;" horiz-adv-x="582" 
d="M481 552q-51 -3 -82 -40q-23 24 -50 31q-39 11 -76 -6q-5 -2 -10 -5q-35 19 -71 19q-13 0 -26 -3q-54 -14 -94.5 -50t-65.5 -83q-8 -15 -15 -32q-2 -4 -0.5 -8t5.5 -6t8 0t5 6q7 16 15 30q23 44 60 77.5t86 45.5q8 2 22 2q46 0 81 -28q21 -18 36 -46q2 -4 6 -5t8 1t5 6
t-1 7q-27 41 -44 55q29 12 61 4q25 -7 40 -25q16 -19 22 -33q7 -17 6 -35v-120v-35q-1 1 -3 1q-7 0 -9 -7.5t4 -11.5q2 -1 42 -27q4 -3 8 -2t6 4.5t1.5 7.5t-4.5 7l-25 16v47v120q1 22 -8 43q-5 12 -13 23q29 34 70 35q39 -1 65 -27q13 -13 20 -29.5t6 -35.5v-160v-180
q0 -25 -12.5 -46t-34 -33t-46.5 -11t-45 15l-45 29q-4 2 -7 1q-5 -1 -8 -5q-13 -16 -36.5 -29.5t-54.5 -10.5q-31 4 -56 21q30 25 53 64q42 73 42 155q0 35 -17 64q8 -1 15 -5q4 -2 8 -0.5t6 5t0.5 7.5t-5.5 6q-8 4 -21 6.5t-19 0.5l-5 5q-33 31 -81 31q-5 0 -9 -1
q-47 -5 -91 -38q-48 -35 -59 -77q-1 -5 -1 -9q-1 -2 -1 -3q-5 -45 22.5 -80.5t72 -41.5t80.5 21q3 2 3.5 6t-2 7.5t-6.5 4t-7 -1.5q-30 -22 -66.5 -17t-58.5 34q-6 7 -10 15v3q-13 27 -6 57v1q9 35 50 65t82 34q3 1 7 1q40 0 68 -26q31 -29 31 -74q0 -76 -39 -145
q-26 -44 -57 -65q-16 -11 -31 -17q-31 -13 -62 -12h-11q-52 6 -87 48q-4 4 -7 9q-2 3 -6.5 4t-8 -1.5t-4 -7t2.5 -7.5l8 -10q40 -47 99 -54q22 -2 36 0q41 4 76 27q31 -25 70 -28q61 -6 104 41l38 -24q25 -17 55 -18t57 13.5t42 40.5t15 56v180v160q1 22 -7.5 43t-24.5 36
q-36 34 -79 33z" />
    <glyph glyph-name="uni0E13" unicode="&#xe13;" horiz-adv-x="620" 
d="M97 530v-1q-69 -25 -105 -70q-3 -3 -2.5 -7.5t3.5 -7t7.5 -2t6.5 3.5q33 41 96 64v1q79 20 137 19q46 0 100 -12q33 -12 50 -31q19 -24 20 -55q1 -70 0 -109q0 -4 3 -7t7 -3.5t7 2.5t3 7q-2 3 -1 59.5t1 59.5q0 27 14 48t37 32q39 15 72 2q35 -16 49 -50q7 -17 7 -33
q0 -118 -1 -148q-2 -33 -18 -63q-6 5 -13 10q-3 1 -6 1q-7 0 -9 -7.5t5 -11.5q38 -23 43 -86q1 -21 -1 -37v-1q-1 -36 -27.5 -61.5t-62.5 -25.5h-16h-3q-45 0 -86 26q-36 26 -48 47q-3 5 -9 5q-6 -1 -8.5 -6t0.5 -10t8 -11q-14 -14 -29 -24q-32 -22 -58 -22q-28 0 -46 15
q8 7 14 16q17 24 25 59q8 30 7 55v0q0 22 -8 43q-8 20 -24 36l-6 6v66q0 13 -5 32q-1 5 -6 7q-4 1 -7 1q-30 -1 -51 -8q-4 -2 -7 -3q-7 -4 -6 -11q2 -11 7 -28q2 -8 10 -30h-9q-20 0 -39 -7q-3 -2 -5 -6t-0.5 -7.5t5.5 -5.5t8 0q15 6 32 6q18 1 35 -6t30 -20t19.5 -30
t6.5 -35q1 -23 -6 -51q-7 -30 -23 -52q-11 -16 -32.5 -29.5t-45.5 -16.5q-38 -3 -76 22q-31 20 -42 43q-14 27 -13 55q1 24 -3 37q-2 9 -10 8q-5 0 -7.5 -4t-1.5 -9q2 -6 2 -31v-1q-2 -31 15 -64q14 -28 49 -51q38 -25 75 -25q9 0 15 1q28 2 50 14q7 4 13 10q23 -21 61 -21
q32 0 69 26q16 11 31 25q14 -15 33 -27q45 -28 95 -29h21q44 0 76 31t34 75v1q2 19 1 38v1q-4 49 -25 78q20 37 23 77q1 21 1 149q0 20 -8 41q-20 43 -61 60q-45 17 -86 -1q-42 -24 -57 -58v-1q-5 10 -12 18q-24 30 -61 38q-6 3 -43.5 7.5t-60.5 5.5q-78 1 -143 -20z
M209 331q3 -10 3 -20v-52q-11 6 -23 9q-12 35 -13 39q-3 9 -4 17q15 6 37 7zM500 140q-8 0 -14 -6t-6 -14t6 -14t14 -6t14 6t6 14t-6 14t-14 6z" />
    <glyph glyph-name="uni0E14" unicode="&#xe14;" 
d="M234 550q-76 -1 -134 -39q-70 -46 -109 -122q-2 -4 -1 -7.5t5 -5.5t8 -1t5 5q37 71 103 114q53 35 123 36q63 -1 111 -14q29 -9 47 -33t18 -54v-120v-210q-3 -35 -18 -55q-18 -24 -47 -32.5t-57 2.5q-24 9 -40 30q17 16 36 42q56 71 56 164q0 54 -38 89q-34 31 -82 30
q-45 0 -95 -34q-50 -35 -62 -77q-9 -34 3 -67q9 -20 16 -29q28 -36 72 -42t80 20q4 3 4.5 7t-2 7.5t-6.5 4t-8 -1.5q-29 -22 -65.5 -17t-58.5 34t-18 65q0 7 2 14q10 35 55 65q44 31 83 31q40 0 68 -25q32 -29 32 -74q0 -86 -51 -152q-34 -39 -44 -48q-52 -45 -111 -42
q-10 1 -18 2q-24 4 -47 18t-37 32l-4 6q-3 3 -7 3.5t-7.5 -2t-4 -6.5t2 -7.5t4.5 -5.5q38 -49 98 -58q6 -1 19 -1q53 -4 99 26q11 7 21 16q19 -25 47 -36q35 -13 70.5 -2.5t57.5 40t22 66.5v210v120q0 37 -22 66q-18 24 -57 40q-39 15 -117 15z" />
    <glyph glyph-name="uni0E15" unicode="&#xe15;" horiz-adv-x="422" 
d="M192 551q-13 0 -26 -4q-54 -13 -94.5 -49.5t-65.5 -82.5q-8 -16 -16 -34q-1 -4 0.5 -7.5t5 -5.5t7.5 0t6 5q7 17 15 32q23 44 60 77.5t86 45.5q9 2 22 2q46 0 81 -28q21 -18 36 -46q2 -4 6 -5t8 1t5 6t-1 7q-17 32 -42 52q-1 2 -2 2q29 13 61 4q20 -5 37.5 -22.5
t23.5 -32.5q7 -17 7 -37v-120v-210q-3 -35 -17 -55q-18 -24 -47 -32.5t-58 1.5q-24 9 -40 31q19 18 35 40q55 79 55 164q0 54 -38 89q-34 31 -82 30q-45 0 -95 -34q-50 -35 -62 -77q-9 -34 3 -67q9 -20 16 -29q28 -36 72 -42t80 20q4 3 4.5 7t-2 7.5t-6.5 4t-8 -1.5
q-29 -22 -65.5 -17t-58.5 34t-18 65q0 7 2 14q10 35 55 65q44 31 83 31q40 0 68 -25q32 -29 32 -74q0 -78 -52 -152q-60 -87 -143 -88q-13 0 -27 2q-50 8 -83 48q-4 4 -7 9q-3 4 -7 4.5t-7.5 -2t-4 -6.5t1.5 -7q4 -6 8 -11q38 -45 95 -55q23 -4 46 -1q51 5 96 41
q19 -25 47 -36q35 -13 70.5 -2.5t57.5 40.5t21 67v210v120q0 24 -8 45q-8 20 -28.5 39.5t-46.5 27.5q-39 11 -76 -6q-5 -2 -10 -5q-5 2 -14.5 7t-14 6.5t-16 3t-26.5 2.5z" />
    <glyph glyph-name="uni0E16" unicode="&#xe16;" horiz-adv-x="421" 
d="M248 554q-27 0 -53 -4q-66 -11 -97 -21q-68 -22 -106 -70q-3 -3 -2.5 -7.5t4 -7t7.5 -2t7 4.5q34 42 96 63q30 10 94 20q25 4 50 4q94 0 144 -47q20 -25 20 -56v-120v-210q0 -32 -19.5 -56.5t-50 -32t-59.5 6.5q-25 11 -39 36q13 21 20 50q7 30 6 55v0q1 22 -8 43
q-8 20 -24 36l-6 6v66v30q0 5 -3 7.5t-7 2.5h-2q-45 -7 -59 -12q-2 0 -3 -1h-1q-7 -3 -6 -11q2 -11 6 -26q3 -8 11 -30h-9q-20 0 -39 -7q-4 -2 -5.5 -6t0 -7.5t5 -5.5t7.5 0q16 6 32 6q18 1 35 -6t30 -20t20 -30t6 -35q1 -23 -6 -51q-7 -29 -18 -45q-1 -1 -2.5 -3t-1.5 -3
q-13 -17 -38.5 -32t-51.5 -15q-31 0 -65 22q-30 20 -42 43q-6 13 -9.5 26.5t-3.5 20.5v8v12.5v11.5q0 5 -2 13q-1 5 -5 7t-8 1t-6 -4.5t-1 -8.5q2 -5 2 -9v-23q-1 -31 15 -64q14 -28 49 -51q36 -23 71 -25q2 -1 5 -1q29 0 55.5 14t43.5 33q17 -24 44 -37q35 -16 72.5 -7
t61 39.5t23.5 68.5v210v120q0 39 -25 69q0 1 -1 1q-56 53 -158 53zM212 330v-19v-52q-11 6 -22 9q-12 35 -13 39q-3 8 -5 15q12 3 40 8z" />
    <glyph glyph-name="uni0E17" unicode="&#xe17;" 
d="M120 550q-77 0 -128 -67q-3 -3 -2.5 -7.5t4 -7t8 -2t6.5 4.5q45 59 112 59q37 0 75 -34q33 -29 40 -66q14 -78 -38 -207q-15 -37 -18 -52v-3q-1 -4 1.5 -7.5t6.5 -4t7.5 1.5t3.5 6q1 1 1 3q2 13 17 49q54 135 39 217q-6 33 -37 69q46 30 86 26q19 -1 36.5 -7.5
t25.5 -12.5l8 -6q17 -13 26.5 -32t9.5 -40v-160v-170q0 -30 -17.5 -54.5t-46.5 -33t-57 1.5q-25 9 -41 30q4 7 9 16q9 17 17 44q9 27 26 93q13 53 27 101q2 5 -1 9.5t-8 3.5q-8 0 -10 -7q-14 -48 -28 -102q-16 -66 -25 -92q-16 -50 -39 -74q-36 -26 -66 -26q-40 0 -67 11
q-18 7 -35.5 23.5t-25.5 30.5q-7 13 -13 27q-1 3 -5 5t-7.5 0.5t-5.5 -5.5t0 -8q5 -15 14 -29q10 -18 29 -35.5t41 -27.5h1q30 -12 74 -12q25 0 47 10q21 9 39 28q19 -22 46 -33q34 -12 69.5 -1.5t57 40t21.5 66.5v170v160q0 28 -12 49q-12 23 -32 39q-33 26 -80 30
q-50 5 -102 -32q-37 34 -84 34zM-1 309q-7 0 -9 -7t4 -11q24 -18 53 -21q42 -5 77 20q3 2 4 6t-1.5 7.5t-6.5 4t-8 -1.5q-28 -20 -62 -16q-24 3 -44 17q-3 2 -7 2z" />
    <glyph glyph-name="uni0E18" unicode="&#xe18;" horiz-adv-x="379" 
d="M278 553q-34 -1 -62 -19q-29 16 -67 16q-72 0 -132 -52q-14 -11 -25 -24q-3 -3 -2.5 -7.5t3.5 -7t7.5 -2t7.5 3.5q10 11 22 22q55 47 119 47q36 0 63 -17q6 -3 11 1q31 20 55 19q17 0 33 -6q17 -6 30 -19q28 -26 28 -64q0 -25 -2 -52q-3 -28 -9 -47q-2 -6 -3 -10
q-33 47 -89 69q-55 22 -103 21q-27 0 -60 -6q-4 -1 -6.5 -4.5t-1.5 -7.5t4.5 -6.5t7.5 -1.5q39 9 74 6t78 -19q24 -10 49 -30t39 -46v0q17 -35 22 -121l1 -87q1 -38 -25.5 -65t-64.5 -27h-151q-45 0 -82 27q-26 20 -38 45q-2 4 -6 5.5t-7.5 0t-5 -5.5t0.5 -8q14 -30 44 -53
q42 -31 94 -31h151q46 0 78.5 33t31.5 79q-1 59 -1 87v1v0q1 74 -21 121q0 1 -1 3q6 11 10 25q7 21 10 51q2 28 2 54q0 46 -34 79q-16 15 -37 23q-24 8 -40 7zM87 331q-45 0 -77 -33q-11 -12 -19 -26q-2 -4 -0.5 -8t5 -6t7.5 -0.5t6 4.5q6 13 15 22q26 27 64 27q18 1 35 -6
t29.5 -20t19.5 -30t7 -35v-39q0 -4 3 -7t7 -3t7 3t3 7v39q0 22 -8.5 42.5t-24 36.5t-36 24.5t-43.5 7.5z" />
    <glyph glyph-name="uni0E19" unicode="&#xe19;" horiz-adv-x="419" 
d="M119 550q-60 0 -104 -45h-1q-11 -13 -22 -29q-3 -3 -2 -7t4.5 -6.5t7.5 -1.5t6 4q10 15 21 26q39 39 90 39q25 0 51.5 -14.5t41.5 -32.5q23 -32 33 -60q5 -15 5.5 -31t-3 -34.5t-7 -31t-9.5 -32.5q-12 -37 -60 -106q-2 -3 -1.5 -7.5t4 -7t7.5 -1.5t7 5q49 71 62 111
q8 25 11 35.5t7 32t3 39t-7 34.5q-8 26 -26 52q26 47 79 48q42 -1 65 -24q27 -28 27 -65v-85t-1 -83q-3 -43 -7 -54q-10 12 -24 21q-3 1 -6 1q-7 0 -9 -7.5t5 -11.5q38 -23 43 -86q0 -8 -1 -37q-2 -38 -27 -62q-27 -26 -63 -26h-10h-10q-52 0 -85 35q-15 15 -28 38
q-3 5 -9 5q-6 -1 -8.5 -6t0.5 -10q10 -18 23 -32q-28 -30 -73 -30q-22 0 -32 2q-26 5 -49 22q-18 13 -29 33q-3 5 -9 5t-9 -5t0 -10q14 -23 35 -39q27 -20 58 -26q11 -2 35 -2q52 0 87 36q38 -35 92 -36h21q44 0 76 31q29 28 34 75q1 15 1 41q0 31 -15 60q3 7 5 13.5
t3.5 15.5t2 13t1.5 16.5t1 15.5q1 29 1 169q-1 48 -32 79q-35 31 -80 30q-62 -3 -92 -50q-19 21 -47.5 36t-58.5 15zM158 357q-9 0 -10 -9q-5 -35 -32.5 -57.5t-63.5 -20.5q-25 2 -46 17q-4 2 -8 1t-6.5 -4t-1.5 -7.5t4 -6.5q26 -18 57 -20q43 -3 77 25t39 71q1 4 -2 7.5
t-7 3.5zM300 140q-8 0 -14 -6t-6 -14t6 -14t14 -6t14 6t6 14t-6 14t-14 6z" />
    <glyph glyph-name="uni0E1A" unicode="&#xe1a;" 
d="M318 551q-37 0 -66 -23q-19 -15 -30 -37l-0.5 0.5t-0.5 1.5q-37 57 -101 57q-77 0 -128 -67q-3 -3 -2.5 -7.5t4 -7t8 -2t6.5 4.5q45 59 112 59q19 0 34 -4.5t25.5 -14t14 -14.5l10.5 -15q6 -10 10 -19v-1q37 -82 -26 -251v-1q0 -2 -1 -4t-1 -3q-2 -5 1 -9t8 -4h25
q4 0 7 3t3 7v67q0 1 -1 3q36 123 5 197q8 28 30 45q24 19 55 19q39 0 65 -26q26 -28 26 -65v-170v-170q0 -37 -26.5 -63.5t-63.5 -26.5h-170q-40 0 -67 11q-18 7 -35.5 23.5t-25.5 30.5q-8 13 -13 27q-1 4 -5 6t-8 0.5t-5.5 -5.5t0.5 -8q5 -15 13 -30q11 -18 30 -36t42 -27
q30 -12 74 -12h170q46 0 78 32t32 78v170v170q-1 48 -32 79q-35 33 -80 32zM-1 309q-7 -1 -9 -7.5t4 -10.5q17 -13 38 -19q23 -6 48 -2q4 1 6 4.5t1.5 7.5t-4 6.5t-7.5 1.5q-20 -3 -39 2q-17 4 -31 15q-3 2 -7 2zM210 211v-1v1z" />
    <glyph glyph-name="uni0E1B" unicode="&#xe1b;" 
d="M318 651q-45 0 -77 -33t-31 -78v-32q-34 42 -90 42q-77 0 -128 -67q-3 -3 -2.5 -7.5t4 -7t8 -2t6.5 4.5q45 59 112 59q19 0 34 -4.5t25.5 -14t14 -14.5l10.5 -15q4 -6 7 -12v-1q40 -88 -23 -258v-1q0 -2 -1 -4t-1 -3q-2 -5 1 -9t8 -4h25q4 0 7 3t3 7v67q0 2 -1 4
q35 127 1 204v65q-1 37 25 64t64 27q18 1 35 -6t30 -20t19.5 -30t6.5 -35v-270v-170q0 -37 -26.5 -63.5t-63.5 -26.5h-170q-40 0 -67 11q-18 7 -35.5 23.5t-25.5 30.5q-8 13 -13 27q-1 4 -5 6t-8 0.5t-5.5 -5.5t0.5 -8q5 -15 13 -30q11 -18 30 -36t42 -27q30 -12 74 -12h170
q46 0 78 32t32 78v170v270q0 22 -8 42.5t-24 36.5t-36.5 24.5t-43.5 7.5zM-1 309q-7 -1 -9 -7.5t4 -10.5q17 -13 38 -19q23 -6 48 -2q4 1 6 4.5t1.5 7.5t-4 6.5t-7.5 1.5q-20 -3 -39 2q-17 4 -31 15q-3 2 -7 2zM210 211v-1v1z" />
    <glyph glyph-name="uni0E1C" unicode="&#xe1c;" horiz-adv-x="460" 
d="M358 551q-45 0 -77 -33q-26 -27 -30 -65q-4 14 -11 27q-12 24 -32 41q-34 29 -78 29q-55 0 -97 -36q-24 -21 -40 -53q-1 -2 -2 -3q-2 -3 -0.5 -7t5 -6t7.5 -1t6 5l0.5 1t0.5 2q15 28 36 47q37 31 84 31q37 0 65 -24q17 -14 27 -35q18 -41 18 -91q0 -28 -15 -51t-41 -33.5
t-53 -4.5t-46 26q-3 3 -7 3t-7.5 -3t-3.5 -7t4 -7q23 -25 56 -32t64.5 6t50 41t18.5 62v0q0 5 -1 18q19 -4 29.5 -12.5t22.5 -24.5v-1q29 -33 29 -118q0 -5 3 -8t7 -3t7 3t3 8q0 89 -33 131q-28 35 -57 43v24q-1 37 25 64t64 27q18 1 35 -6q35 -16 49 -50q7 -17 7 -35v-170
v-170q0 -37 -26.5 -63.5t-63.5 -26.5q-67 0 -114 63q2 5 6 12q12 24 34 78q2 5 -1 9.5t-8 4.5q-7 0 -10 -7q-21 -52 -33 -77q-18 -36 -38 -56l-3.5 -3.5l-4.5 -4.5t-4.5 -3.5t-6 -4t-6.5 -3.5t-8 -3t-9 -2.5t-11 -2t-13 -0.5q-64 0 -105 59q-9 13 -16 27q-2 4 -6 5.5
t-7.5 -0.5t-5 -6t0.5 -8q8 -15 18 -29q47 -68 121 -68q46 0 80 32q14 15 25 32q52 -64 125 -64q45 0 77.5 32t32.5 78v170v170q0 22 -8 43q-20 43 -61 60q-20 9 -43 8z" />
    <glyph glyph-name="uni0E1D" unicode="&#xe1d;" horiz-adv-x="460" 
d="M358 651q-45 0 -77 -33t-31 -78v-85q-4 13 -10 25q-12 24 -32 41q-34 29 -78 29q-55 0 -97 -36q-24 -21 -40 -53q-1 -2 -2 -3q-2 -3 -0.5 -7t5 -6t7.5 -1t6 5l0.5 1t0.5 2q15 28 36 47q37 31 84 31q37 0 65 -24q17 -14 27 -35q20 -44 18 -91q-1 -29 -15 -51
q-15 -23 -41 -33.5t-53 -4.5t-46 26q-3 3 -7 3t-7.5 -3t-3.5 -7t4 -7q23 -25 56 -32t64.5 6t50 41t18.5 62v0q0 5 -1 18q20 -4 33 -15q6 -5 19 -22q29 -40 29 -119q0 -5 3 -8t7 -3t7 3t3 8q0 85 -33 131q-14 19 -22 25q-14 12 -35 18v124q-1 37 25 64t64 27q18 1 35 -6
t30 -20t19.5 -30t6.5 -35v-270v-170q0 -37 -26.5 -63.5t-63.5 -26.5q-67 0 -114 63q2 5 6 12q12 24 34 78q2 5 -1 9.5t-8 4.5q-7 0 -10 -7q-21 -52 -33 -77q-18 -37 -38 -56l-3.5 -3.5t-4.5 -4t-4.5 -3.5t-5.5 -4.5t-6.5 -3.5t-8.5 -3t-9 -2.5t-11 -2t-13 -0.5
q-64 0 -105 59q-9 13 -16 27q-2 4 -6 5.5t-7.5 -0.5t-5 -6t0.5 -8q8 -15 18 -29q47 -68 121 -68q46 0 80 32q14 15 25 32q52 -64 125 -64q45 0 77.5 32t32.5 78v170v270q0 22 -8 42.5t-24 36.5t-36.5 24.5t-43.5 7.5z" />
    <glyph glyph-name="uni0E1E" unicode="&#xe1e;" horiz-adv-x="460" 
d="M358 551q-25 0 -48 -11q-18 -10 -33 -26q-24 6 -38 6q-18 0 -34 -5q-37 35 -85 35q-59 0 -104 -45q-14 -14 -24 -29q-3 -4 -2 -8t4.5 -6.5t7.5 -1.5t6 5q10 14 22 26q39 39 90 39q20 0 41.5 -10.5t33.5 -22.5v-1q45 -49 39 -123q-2 -16 -6 -37t-7 -32.5t-12 -42.5
t-11 -37q-15 -38 -17 -53q-1 -3 -1 -4q-1 -3 0.5 -7t5.5 -5t8 0.5t5 5.5q0 1 1 7q3 13 17 49v1q2 8 11 37.5t12 42t7.5 34.5t5.5 39q7 75 -33 127q9 2 19 2q18 0 39 -8q16 -6 31 -24q24 -27 32.5 -81t4.5 -107q0 -4 2.5 -7.5t7 -3.5t7.5 2.5t3 7.5q9 143 -41 202
q-13 15 -29 24q11 10 23 17q19 9 40 9q18 1 35 -6t30 -20t19.5 -30t6.5 -35v-170v-170q0 -37 -26.5 -63.5t-63.5 -26.5q-53 0 -91 43q-9 10 -17 21q7 15 15 42q7 22 15 53q2 5 -1 9t-9 4q-7 -1 -9 -8q-9 -31 -15 -52q-18 -53 -30 -70q-8 -12 -19 -20q-21 -18 -46 -21
q-6 -1 -13 -1q-41 0 -70 16q-32 18 -50 52q-6 12 -11 25q-1 4 -5 6t-8 0.5t-5.5 -5.5t0.5 -8q5 -14 12 -27q21 -40 57 -60q34 -19 79 -19h1q40 0 72 26q18 15 30 37l12 -14q45 -49 106 -49q45 0 77.5 32t32.5 78v170v170q0 22 -8 42.5t-24 36.5t-36.5 24.5t-43.5 7.5z
M158 347q-8 0 -10 -7q-8 -34 -36 -54t-62 -16q-24 3 -44 17q-3 3 -7.5 2.5t-7 -4t-2 -7.5t4.5 -7q24 -18 53 -21q42 -5 76.5 19.5t43.5 65.5q1 5 -1.5 8.5t-7.5 3.5z" />
    <glyph glyph-name="uni0E1F" unicode="&#xe1f;" horiz-adv-x="460" 
d="M358 651q-44 1 -77 -33q-32 -33 -31 -78v-20q-23 2 -45 -5q-37 35 -85 35q-59 0 -104 -45q-14 -14 -24 -29q-3 -4 -2 -8t4.5 -6.5t7.5 -1.5t6 5q10 14 22 26q39 39 90 39q21 0 43 -10.5t32 -22.5q44 -54 39 -124q-2 -16 -6 -37t-7 -32.5t-12 -42.5t-11 -37
q-15 -38 -17 -53q-1 -3 -1 -4q-1 -3 0.5 -7t5.5 -5t8 0.5t5 5.5q0 1 1 7q3 13 17 49v1q2 8 11 37.5t12 42t7.5 34.5t5.5 39q7 75 -33 127q17 4 40 0q27 -4 49 -30q24 -27 32.5 -81t4.5 -107q0 -4 2.5 -7.5t7 -3.5t7.5 2.5t3 7.5q9 143 -41 202q-23 26 -55 35v24q-1 37 25 64
t64 27q40 0 65 -26q26 -27 26 -65v-270v-170q0 -37 -26.5 -63.5t-63.5 -26.5q-53 0 -91 43q-9 10 -17 21q7 15 15 42q7 22 15 53q2 5 -1 9t-9 4q-7 -1 -9 -8q-9 -31 -15 -52q-13 -39 -19 -50q-12 -26 -30 -40q-21 -18 -46 -21q-6 -1 -13 -1q-41 0 -70 16q-32 18 -50 52
q-6 12 -11 25q-1 4 -5 6t-8 0.5t-5.5 -5.5t0.5 -8q5 -14 12 -27q21 -40 57 -60q34 -19 79 -19h1q40 0 72 26q18 15 30 37l12 -14q45 -49 106 -49q45 0 77.5 32t32.5 78v170v270q-1 52 -32 79q-36 32 -80 32zM158 347q-8 0 -10 -7q-8 -34 -36 -54t-62 -16q-24 3 -44 17
q-3 3 -7.5 2.5t-7 -4t-2 -7.5t4.5 -7q24 -18 53 -21q42 -5 76.5 19.5t43.5 65.5q1 5 -1.5 8.5t-7.5 3.5z" />
    <glyph glyph-name="uni0E20" unicode="&#xe20;" 
d="M193 550q-68 -11 -97 -20q-66 -21 -103 -67q-3 -3 -2.5 -7t4 -7t7.5 -2.5t7 4.5q33 41 94 60q26 9 93 19q24 4 41 3q110 -2 154 -45q19 -25 19 -57v-120v-210q1 -37 -25.5 -64t-64 -27t-64 27t-26.5 64v27v36v147v31q0 4 -3 7t-7 3h-1q-42 -7 -56 -11q-4 -1 -6 -5t-1 -8
q3 -9 7 -18q7 -18 20.5 -49.5t19.5 -52.5t7 -42q1 -19 0 -40q-1 -25 -13 -50q-11 -23 -42 -43q-33 -22 -65 -22q-22 0 -44.5 11.5t-37.5 26.5q-3 3 -7 3t-7 -3t-3 -7t3 -7q42 -44 96 -44q38 0 76 25q31 21 46 46q2 2 3 4l1 1q8 -26 26 -44q32 -33 78 -33t78.5 32.5
t31.5 78.5v1v209v120q0 39 -24 70h-1q-31 31 -72.5 41t-94.5 11q-23 0 -45 -3zM210 330v-19v-56q-6 16 -16.5 37.5t-11.5 25.5q-1 1 -2 3.5l-1 2.5q10 3 31 6zM59 271q-36 0 -65 -22q-3 -2 -3.5 -6t2 -7.5t6.5 -4t7 1.5q24 18 53 18q34 1 60 -22q4 -3 8 -2.5t7 3.5t2.5 7.5
t-3.5 6.5q-32 28 -74 27z" />
    <glyph glyph-name="uni0E21" unicode="&#xe21;" 
d="M318 552q-39 -1 -69 -27q-19 -16 -29 -39q-11 18 -27 33q-36 31 -83 31q-63 0 -106 -53l-12 -18q-3 -4 -2 -8t4.5 -6t7.5 -1t6 4q6 9 12 16v1q37 45 90 45q38 0 68 -25l2 -2q18 -16 29 -40q11 -25 16 -61q5 -34 5 -92v-31l-37 22q-2 1 -5 1q-8 0 -9.5 -7.5t4.5 -11.5
q14 -8 29 -16.5t33.5 -19t28.5 -16.5q4 -2 8 -1t6 4.5t1 7.5t-5 6l-34 20v42q0 60 -5 95q-4 33 -13 55q6 30 30 50q24 21 57 22q39 -1 65 -27q26 -28 26 -65v-160v-180q0 -24 -12 -45t-33 -33t-45 -12t-45 12l-69 40q-4 2 -7 2q-3 -1 -11 -11q-15 -17 -40 -31.5t-57 -10.5
q-50 4 -83 46q-3 3 -7 3.5t-7.5 -2t-4 -7t2.5 -7.5q39 -48 97 -53q38 -4 67.5 12t46.5 38l62 -36q25 -15 54.5 -15t55.5 15t40.5 40.5t14.5 54.5v180v160q-1 48 -32 80q-35 32 -80 32zM159 357q-9 0 -10 -9q-4 -35 -31.5 -58t-63.5 -20q-26 2 -48 18q-3 2 -7.5 1.5t-7 -4
t-1.5 -7.5t4 -6q26 -20 59 -22q43 -3 76.5 24.5t39.5 70.5q1 5 -2 8.5t-8 3.5zM100 180q-8 0 -14 -6t-6 -14t6 -14t14 -6t14 6t6 14t-6 14t-14 6z" />
    <glyph glyph-name="uni0E22" unicode="&#xe22;" 
d="M318 551q-45 -1 -76 -33q-42 32 -102 32q-43 0 -81.5 -20.5t-62.5 -51.5l-4 -4q-3 -4 -2 -8t4 -6.5t7.5 -2t6.5 4.5q2 3 3 4q21 27 56 45.5t73 18.5q57 0 92 -29q16 -14 29 -38t15 -46q3 -33 -6 -57q-16 -43 -47 -60q-25 -14 -54 -11q-29 4 -50.5 23.5t-27.5 47.5
q0 4 -3.5 6.5t-8 1.5t-6.5 -4.5t-1 -7.5q7 -35 33 -58.5t61 -28t66 12.5q18 10 31 25q18 -35 13 -76q-2 -20 -13 -54q-2 -4 0 -8t6 -5t7.5 1t5.5 6q11 36 14 58q6 53 -21 96q11 19 14 29q10 30 7 65q-4 50 -39 86q27 27 62 26q39 0 65 -26q26 -27 26 -65v-170v-170
q0 -37 -26.5 -63.5t-63.5 -26.5h-100q-47 0 -88.5 20.5t-61.5 57.5q-8 16 -9 33t1 26t8.5 27t8.5 23q1 4 -1 8t-6 5q-35 11 -59 35q-3 2 -5.5 5t-7 3.5t-7.5 -2.5t-3 -7t3 -7q3 -4 6 -6q24 -24 58 -37q-1 0 -4 -9t-4 -11t-3.5 -10.5t-3 -12.5t-2 -12.5t-0.5 -14.5t2 -14
t3.5 -15.5t6.5 -15.5q23 -43 69.5 -66t98.5 -23h100q46 0 78 32t32 78v170v170q-1 49 -32 79q-35 34 -80 32z" />
    <glyph glyph-name="uni0E23" unicode="&#xe23;" horiz-adv-x="379" 
d="M275 551q-38 -2 -66 -24q-39 23 -82 23q-40 0 -75 -18t-59 -47q-3 -3 -2.5 -7t3.5 -6.5t7.5 -2.5t6.5 4q21 25 52.5 41t66.5 16q13 0 23 -1t19 -4.5t12 -4.5t13 -7t11 -7q6 -3 11 2q33 23 60 23q34 1 60 -21q27 -23 31 -59q8 -64 -12 -99q-40 51 -119 66q-26 6 -54 6
q-42 1 -77 -7q-5 -1 -7 -4.5t-1 -8t4.5 -6.5t7.5 -1q60 14 124 2q78 -16 113 -69q22 -46 21 -160v-1v-69q0 -37 -26 -63.5t-64 -26.5h-70q-27 0 -50 15q-18 12 -33 33.5t-17 47.5q-5 44 25 79q11 13 23 23q8 7 22 13q25 10 41 10q22 0 42 -11q20 -10 33 -28q2 -4 6 -4.5
t7.5 1.5t4.5 6.5t-2 7.5q-16 23 -40 35q-26 14 -51 13q-36 -2 -65 -20l-6 -4q-73 20 -134 55q-4 2 -7 4q-4 3 -8 2t-6.5 -4.5t-1.5 -7.5t4 -6q5 -3 9 -6q58 -33 126 -53q-7 -7 -12 -13q-35 -42 -30 -94q3 -31 20.5 -56t38.5 -40q28 -18 61 -18h70q46 0 78 32t32 78v69v1
q1 113 -21 164q30 41 20 120q-4 43 -37 71q-34 29 -74 26z" />
    <glyph glyph-name="uni0E24" unicode="&#xe24;" 
d="M231 550q-79 1 -138 -21q-64 -23 -101 -69q-3 -3 -2.5 -7.5t3.5 -7t7.5 -2t6.5 3.5q34 42 92 64q59 19 132 19q110 0 157 -41q22 -26 22 -59v-120v-210v-1l-2 -170q1 -37 -26 -63.5t-64.5 -26.5t-63.5 27t-26 65l1 105q5 5 9 10q17 24 25 59q8 30 7 55v0q0 22 -8 43
q-8 20 -24 36q-4 4 -8 7v64v29q0 4 -3 7q-1 2 -6 3q-4 1 -9 1q-32 -2 -51 -8q-3 -2 -7 -4q-6 -3 -5 -10q1 -11 7 -28q2 -8 9 -29h-7q-20 0 -39 -7q-3 -2 -5 -6t-0.5 -7.5t5.5 -5.5t8 0q18 7 32 6q41 -2 65 -26q13 -13 19 -30q8 -18 7 -35q-2 -33 -6 -51q-8 -34 -23 -52
q-15 -19 -40.5 -32.5t-47.5 -14.5h-3q-31 0 -65 22q-30 20 -42 43q-13 26 -13 55q0 2 0.5 15t-1.5 15q0 4 -3.5 6.5t-8 2t-6.5 -4.5t-1 -8v-26v0q-1 -31 15 -64q14 -28 49 -51q39 -25 76 -25h4q40 1 75 27l-1 -86v0q0 -46 32 -79t77.5 -33.5t78.5 32t32 78.5l2 170v1v210
v120q0 41 -27 73h-1q-53 47 -171 47zM210 330v-20v-51q-11 6 -22 9q-12 33 -13 37q-3 11 -5 18q17 6 40 7z" />
    <glyph glyph-name="uni0E25" unicode="&#xe25;" 
d="M160 550q-51 0 -95 -24.5t-73 -61.5q-3 -3 -2.5 -7t4 -7t7.5 -2.5t7 4.5q26 33 66 55.5t86 22.5q39 0 84.5 -6t68.5 -10.5t26 -5.5q35 -12 51 -32q20 -24 20 -56v-140v-180q0 -37 -26.5 -63.5t-63.5 -26.5q-42 0 -77 30q12 18 16 38q8 38 -10.5 73t-54.5 50q-2 1 -4 1
q-8 0 -10 -8t6 -11q30 -13 45 -41.5t8.5 -60t-31.5 -51.5q-30 -20 -58 -20q-45 0 -73.5 20t-49.5 55q-11 20 -17 40q-2 4 -5.5 5.5t-7.5 0.5t-6 -4.5t-1 -7.5q8 -23 20 -44q19 -34 56.5 -59.5t83.5 -25.5q25 0 49 11q19 10 32 23q40 -34 89 -34q46 0 78 32t32 78v180v140
q0 39 -24 69t-62 38v0q-93 23 -184 23zM160 390q-44 0 -80 -21t-59 -53q-20 -28 -31 -59q-1 -4 1 -7.5t6 -5t7.5 0.5t5.5 6q9 28 27 53q21 28 53 47t70 19q36 0 72.5 -20t54.5 -46q25 -34 39 -92q1 -4 4.5 -6.5t7.5 -1.5t6.5 5t0.5 8q-15 62 -41 99q-23 31 -62.5 52.5
t-81.5 21.5z" />
    <glyph glyph-name="uni0E26" unicode="&#xe26;" 
d="M231 550q-79 1 -138 -20q-65 -23 -101 -69q-3 -4 -2.5 -8t4 -6.5t7.5 -2t6 3.5q33 42 92 63q58 19 132 19q110 0 157 -41q22 -26 22 -59v-120v-210v-170q1 -38 -25.5 -64.5t-64.5 -26.5t-64.5 26.5t-25.5 64.5v170v63v147v29q0 4 -2.5 7t-6.5 3q-1 0 -2.5 0.5t-2.5 0.5
h-4q-33 -2 -51 -8q-4 -1 -6 -5t0 -8q3 -9 8 -21q3 -6 12.5 -25.5t15 -33t11.5 -36.5t8 -47q3 -58 -13 -91v-1q-12 -22 -42 -42q-34 -22 -65 -22q-23 0 -46 11.5t-37 26.5q-3 3 -7.5 3.5t-7.5 -2.5t-3 -7.5t3 -7.5q42 -44 98 -44q37 0 76 25q29 19 44 43v-128
q-1 -46 31.5 -78.5t78.5 -32.5t78.5 32.5t31.5 78.5v170v210v120q0 41 -27 73h-1q-53 47 -171 47zM210 330v-20v-56q-6 15 -16.5 36.5t-12 25.5t-4.5 10q16 3 33 4zM58 271q-35 0 -64 -22q-3 -2 -4 -6t1.5 -7.5t7 -4t7.5 1.5q24 18 53 18q34 1 60 -22q3 -3 7.5 -2.5t7 3.5
t2.5 7.5t-4 6.5q-32 28 -74 27z" />
    <glyph glyph-name="uni0E27" unicode="&#xe27;" horiz-adv-x="378" 
d="M158 550q-50 0 -94 -24.5t-72 -60.5q-3 -3 -2.5 -7.5t4 -7t7.5 -2t7 4.5q25 32 65 54.5t85 22.5q34 0 71 -6t53 -11t21 -6q32 -13 47 -33q18 -24 18 -54v-150v-170q0 -37 -26 -63.5t-64 -26.5h-80q-21 0 -40 10q-47 23 -62 67q-7 29 -2.5 52t14.5 39q24 33 70 51
q17 6 35 3q12 -3 36 -17q11 -7 21 -21q2 -3 6 -4t7.5 1.5t4 6.5t-1.5 8q-12 17 -26 26h-1q-26 16 -42 19q-5 1 -10 1q-8 1 -19 -1v19v68q0 9 -8 10q-12 2 -19 2q-12 -2 -13 -20q1 -38 -25.5 -64.5t-64.5 -26.5q-28 0 -52 17q-4 2 -8 1.5t-6.5 -4t-1.5 -7.5t4 -7
q29 -20 64 -20q46 0 79 32q31 32 31 78v-59v-23q-47 -13 -77 -58q-13 -21 -17.5 -47t3.5 -61q18 -52 72 -79q23 -12 49 -12h80q46 0 78 32t32 78v170v150q0 37 -22 66t-57 40q-4 1 -19 5.5t-19 5.5t-16.5 4t-20 4t-20 2.5t-26 2t-30.5 0.5z" />
    <glyph glyph-name="uni0E28" unicode="&#xe28;" 
d="M261 574q-16 -11 -28 -26q-3 2 -6 1q-110 -13 -192 -116q-25 -32 -44 -69q-2 -3 -1 -7.5t5 -6t8 -0.5t5 5q18 35 43 66q73 92 170 107q-3 -6 -7 -16q-2 -3 -0.5 -7t5 -6t7.5 -0.5t6 5.5l8 17q11 22 32 36q46 27 91 4q21 -11 34 -31.5t14 -45t-11 -45.5q-8 -16 -17 -40
q-1 -4 0.5 -7.5t5.5 -5t7.5 0t5.5 5.5q0 1 0.5 2l0.5 1q5 -10 6 -26q1 -6 1 -59v-210q0 -33 -21 -58.5t-53.5 -31t-60.5 10.5q-26 16 -38 44q4 6 7 14q10 21 16 44q38 11 60 43q24 34 19 75q-6 51 -29 85q-35 52 -96 54q-54 2 -95 -32q-27 -23 -43 -59q-13 -28 -24 -84
q-1 -7 -4 -16q-1 -4 1.5 -8t6.5 -5t7.5 1.5t4.5 6.5q2 10 4 17q10 54 22 80q14 32 38 51q15 13 38 21t43 7q51 -2 81 -46q21 -32 25 -72v-1q5 -35 -16 -64t-56 -36t-65 12t-39 54q-1 4 -4.5 6t-7.5 1t-6 -4.5t-1 -7.5q11 -42 47 -65q31 -20 67 -17q-5 -17 -12 -33
q-10 -21 -24 -36q-5 -7 -17 -17q-16 -12 -39 -18.5t-43 -5.5q-26 3 -50.5 16.5t-39.5 30.5q-3 4 -6 7q-2 4 -6 4.5t-7.5 -2t-4 -7t2.5 -7.5l6 -8q41 -48 103 -54q54 -4 96 29q15 11 27 26q15 -26 41 -41q35 -20 74.5 -13t65 38t25.5 71v210q0 54 -1 61q-3 30 -17 46
q19 40 19 68q-1 30 -17 55t-42 39q-60 27 -111 -5z" />
    <glyph glyph-name="uni0E29" unicode="&#xe29;" 
d="M318 551q-37 0 -66 -23q-19 -15 -30 -37l-0.5 0.5t-0.5 1.5q-37 57 -101 57q-77 0 -128 -67q-3 -3 -2.5 -7.5t4 -7t8 -2t6.5 4.5q45 59 112 59q19 0 34 -4.5t25.5 -14t14 -14.5l10.5 -15q17 -27 21 -69q2 -15 2 -31q-1 -5 2 -8t7.5 -3t7.5 3t2 7q1 18 -1 34q-3 28 -11 51
q8 28 30 46q24 19 55 19q39 0 65 -26q26 -28 26 -65v-136q-13 9 -29 10q-19 2 -38 -17q-3 -3 -3 -7t3 -7t7 -3t7 3q13 12 22 11q11 -1 19 -7q9 -6 11 -15q2 -17 -1 -28q-6 -23 -24 -51q-40 -63 -104 -63q-43 0 -75 17q-21 12 -38 38.5t-17 54.5q0 14 6.5 29.5t15.5 24.5
q14 14 34 20q35 12 60 0q13 -5 22 -18t12 -26q4 -22 -8 -41q-2 -3 -1 -7t4.5 -6t7.5 -1t6 4q15 25 11 54q-10 43 -45 59q-35 15 -75 1q-25 -8 -42 -25q-28 -28 -28 -68q0 -34 19.5 -65t45.5 -45q37 -20 85 -20q42 0 72.5 21.5t48.5 50.5q5 7 9 15v-97q0 -37 -26.5 -63.5
t-63.5 -26.5h-170q-40 0 -67 11q-18 7 -35.5 23.5t-25.5 30.5q-8 13 -13 27q-1 4 -5 6t-8 0.5t-5.5 -5.5t0.5 -8q5 -15 13 -30q11 -18 30 -36t42 -27q30 -12 74 -12h170q46 0 78 32t32 78v155v15v170q-1 48 -32 79q-35 33 -80 32zM-1 309q-7 -1 -9 -7.5t4 -10.5
q17 -13 38 -19q23 -6 48 -2q4 1 6 4.5t1.5 7.5t-4 6.5t-7.5 1.5q-20 -3 -39 2q-17 4 -31 15q-3 2 -7 2z" />
    <glyph glyph-name="uni0E2A" unicode="&#xe2a;" 
d="M320 591h-4q-30 -1 -55 -17q-17 -12 -29 -28h-3h-2q-36 4 -67 4q-51 0 -95 -24.5t-73 -61.5q-3 -3 -2.5 -7t4 -7t7.5 -2.5t7 4.5q26 33 66 55.5t86 22.5q28 0 60 -3q-3 -6 -6 -15q-2 -3 -0.5 -7t5 -6t7.5 -0.5t6 5.5l8 17q11 22 31.5 35.5t45.5 14.5q24 1 45.5 -10
t34.5 -31.5t14 -45t-11 -45.5q-9 -17 -17 -40q-3 -7 3.5 -11.5t12.5 0.5q11 -20 11 -42v-66v-180q0 -37 -26.5 -63.5t-63.5 -26.5q-42 0 -77 30q12 18 16 38q8 38 -10.5 73t-54.5 50q-2 1 -4 1q-8 0 -10 -8t6 -11q30 -13 45 -41.5t8.5 -60t-31.5 -51.5q-20 -16 -46 -19
q-5 -1 -12 -1q-36 0 -70.5 22t-52.5 53q-11 20 -17 40q-2 4 -5.5 5.5t-7.5 0.5t-6 -4.5t-1 -7.5q8 -23 20 -44q19 -34 56.5 -59.5t83.5 -25.5h12q22 4 37 11q19 10 32 23q40 -34 89 -34q46 0 78 32t32 78v180v66q0 36 -21 65q5 11 9 19q14 26 13 55.5t-17 54.5t-42 39
q-25 12 -52 12zM160 390q-44 0 -80 -21t-59 -53q-20 -28 -31 -59q-1 -4 1 -7.5t6 -5t7.5 0.5t5.5 6q9 28 27 53q21 28 53 47t70 19q36 0 72.5 -20t54.5 -46q25 -34 39 -92q1 -4 4.5 -6.5t7.5 -1.5t6.5 5t0.5 8q-15 62 -41 99q-23 31 -62.5 52.5t-81.5 21.5z" />
    <glyph glyph-name="uni0E2B" unicode="&#xe2b;" 
d="M120 550q-77 0 -128 -67q-3 -3 -2.5 -7.5t4 -7t8 -2t6.5 4.5q45 59 112 59q20 0 40 -9.5t33 -21.5v-1q26 -29 32 -68q7 -46 -2.5 -107t-25.5 -100q-15 -37 -18 -52v-3q-1 -4 1.5 -7.5t6.5 -4t7.5 1.5t3.5 6q1 1 1 3q2 13 17 49q17 42 27 104t2 113q-6 40 -31 72
q32 25 76 25q52 0 86 -34t34 -86q0 -42 -17 -79q-2 -5 1 -10q16 -23 16 -51v-170q0 -30 -17.5 -54t-46 -33t-56.5 1q-25 9 -42 30q4 7 9 16q9 17 17 44q9 27 26 93q13 53 27 101q2 5 -1 9.5t-8 3.5q-8 0 -10 -7q-14 -48 -28 -102q-16 -66 -25 -92q-8 -25 -15.5 -40.5
t-18.5 -26.5q-29 -33 -71 -33q-40 0 -67 11q-18 7 -35.5 23.5t-25.5 30.5q-7 13 -13 27q-1 3 -5 5t-7.5 0.5t-5.5 -5.5t0 -8q5 -15 14 -29q10 -18 29 -35.5t41 -27.5h1q30 -12 74 -12h5q29 1 48 11q16 10 33 26q20 -22 48 -32q34 -12 69 -1.5t56 40.5t21 66v170q0 31 -16 58
q16 38 16 82q0 61 -39.5 100.5t-100.5 39.5q-51 0 -90 -31q-36 31 -80 31zM300 440q-8 0 -14 -6t-6 -14t6 -14t14 -6t14 6t6 14t-6 14t-14 6zM-1 309q-7 0 -9 -7t4 -11q24 -18 53 -21q42 -5 77 20q3 2 4 6t-1.5 7.5t-6.5 4t-8 -1.5q-28 -20 -62 -16q-24 3 -44 17q-3 2 -7 2z
" />
    <glyph glyph-name="uni0E2C" unicode="&#xe2c;" horiz-adv-x="460" 
d="M358 591q-48 -2 -75 -32t-49 -83q-9 18 -24 34l-3 3q-37 37 -87 37q-59 0 -104 -45q-14 -14 -24 -29q-3 -4 -2 -8t4.5 -6.5t7.5 -1.5t6 5q10 14 22 26q39 39 90 39q20 0 41 -10t33 -22l4 -4q16 -20 28 -48v-1q11 -31 8 -72q-2 -16 -6 -37t-7 -32.5t-12 -42.5t-11 -37
q-15 -38 -17 -53q-1 -3 -1 -4q-1 -3 0.5 -7t5.5 -5t8 0.5t5 5.5q0 1 1 7q3 13 17 49v1q28 100 32 121q33 -2 58 -27q6 -6 10.5 -13.5t7.5 -18t4.5 -17.5t4.5 -22t4 -22q1 -4 4.5 -6.5t7.5 -1.5t6.5 4.5t1.5 7.5q-1 7 -4 22t-5 23.5t-5.5 20t-9 20.5t-13.5 17q-30 29 -69 33
q1 6 1 12q4 43 -7 79l10 25t10.5 23t13 24t14.5 18.5t18.5 17t20.5 9t26 4.5q38 1 65 -26q27 -28 26 -65q-1 -18 -6 -35t-9 -25t-14 -25q-3 -7 2 -12t12 -2q3 -3 6 -7q9 -15 9 -34v-70v-170q0 -37 -26.5 -63.5t-63.5 -26.5q-63 0 -111 51l-1.5 1.5l-0.5 0.5q1 1 3 6
q8 17 17 47q1 4 -2 8.5t-8 4.5q-7 0 -9 -7q-9 -28 -16 -45q-13 -29 -33 -45q-25 -21 -56 -22h-3q-41 0 -70 16q-32 18 -50 52q-6 12 -11 25q-1 4 -5 6t-8 0.5t-5.5 -5.5t0.5 -8q5 -14 12 -27q21 -40 57 -60q34 -19 79 -19h5q42 1 64 17q10 8 31 36q54 -53 121 -53
q45 0 77.5 32t32.5 78v169v1v70q0 25 -12 44q-5 8 -12 14q24 43 24 82v0q-1 52 -32 79q-39 34 -80 32zM158 347q-8 0 -10 -7q-8 -34 -36 -54t-62 -16q-24 3 -44 17q-3 3 -7.5 2.5t-7 -4t-2 -7.5t4.5 -7q27 -20 53 -21q45 -2 77 20q34 24 43 65q1 5 -1.5 8.5t-7.5 3.5z" />
    <glyph glyph-name="uni0E2D" unicode="&#xe2d;" 
d="M160 550q-49 0 -93.5 -20.5t-73.5 -52.5q-3 -3 -3 -7.5t3 -7t7.5 -2.5t6.5 3q27 30 67.5 48.5t85.5 18.5q31 0 108 -11l67 -10q32 -6 53.5 -31t21.5 -58v-150v-170q0 -37 -26.5 -63.5t-63.5 -26.5h-120q-73 0 -129 35q-40 24 -62 65q-2 3 -6 4.5t-7.5 -0.5t-5 -6t0.5 -8
q25 -46 69 -73q61 -37 140 -37h120q46 0 78 32t32 78v170v150q0 40 -26 71t-66 37q-31 6 -67 11q-78 11 -111 11zM151 389q-48 0 -90 -25.5t-64 -68.5v-1q-4 -6 -6 -12q-2 -3 -0.5 -7t5.5 -6t7.5 -0.5t5.5 5.5q3 6 5 11v0q21 39 59 61.5t81 22.5q37 0 70 -19q28 -17 47 -55
t19 -75q0 -22 -10 -42q-24 -41 -64 -48q-34 -5 -61 11q-29 17 -40 48q-2 7 -10 7q-5 -1 -7.5 -5t-1.5 -9q14 -38 49 -58q31 -19 69 -14q26 3 48.5 18.5t35 40t12.5 51.5v0q0 43 -21 84.5t-55 62.5q-37 22 -80 22h-3z" />
    <glyph glyph-name="uni0E2E" unicode="&#xe2e;" 
d="M316 591q-28 0 -55 -17q-18 -12 -30 -29q-53 5 -71 5q-49 0 -93.5 -20.5t-73.5 -52.5q-3 -3 -3 -7.5t3 -7t7.5 -2.5t6.5 3q27 30 67.5 48.5t85.5 18.5q30 -1 60 -4q-3 -6 -6 -14q-2 -3 -0.5 -7t5 -6t7.5 -0.5t6 5.5l8 17q15 25 32 36q20 13 45 14q24 1 45.5 -10
t34.5 -31.5t14 -45t-11 -45.5q-9 -17 -17 -40q-2 -6 3 -10.5t11 -1.5q13 -22 13 -47v-70v-170q0 -37 -26.5 -63.5t-63.5 -26.5h-120q-73 0 -129 35q-40 24 -62 65q-2 3 -6 4.5t-7.5 -0.5t-5 -6t0.5 -8q25 -46 69 -73q61 -37 140 -37h120q46 0 78 32t32 78v170v70
q0 37 -23 67q6 14 11 23q14 26 13 55.5t-17 54.5q-18 28 -42 39q-29 12 -56 12zM151 389q-48 0 -90 -25.5t-64 -68.5v-1q-4 -6 -6 -12q-2 -3 -0.5 -7t5.5 -6t7.5 -0.5t5.5 5.5q3 6 5 11v0q21 39 59 61.5t81 22.5q37 0 70 -19q28 -17 47 -55t19 -75q0 -22 -10 -42t-28 -33
q-20 -12 -36 -15q-33 -5 -61 11q-29 17 -40 48q-2 7 -10 7q-5 -1 -7.5 -5t-1.5 -9q14 -38 49 -58q31 -19 69 -14q27 3 49 18.5t34.5 40t12.5 51.5v0q0 43 -21 84.5t-55 62.5q-37 22 -80 22h-3z" />
    <glyph glyph-name="uni0E2F" unicode="&#xe2f;" horiz-adv-x="380" 
d="M100 549q-61 0 -101 -51q-4 -5 -7 -10q-3 -3 -2 -7t4.5 -6.5t7.5 -2t6 4.5l6 8q10 12 17.5 20t26.5 16t42 8q24 1 45 -11q15 -8 26.5 -23.5t16.5 -29.5q8 -29 -3 -57.5t-36 -44.5q-4 -2 -5 -6t1.5 -7.5t6.5 -4.5t7 1q32 19 45 54t3 70q-3 10 -7 19l0.5 0.5l1.5 1.5
q33 35 73 38q27 2 49 -11q25 -14 37 -41q9 -20 9 -38v-340q1 -37 -26 -64q-24 -25 -64 -25t-64 25q-27 27 -26 64v138q0 5 -4 8t-9 1q-10 -3 -19 -5q-40 -8 -86 1q-29 6 -50 19q-8 4 -15 11q-3 3 -7.5 3t-7 -3t-2.5 -7.5t3 -6.5q9 -9 18 -14q28 -17 57 -22q59 -9 102 2v-124
v-1q-1 -46 32 -78q30 -31 78 -31t78 31q33 32 32 78v1v339q0 22 -10 46q-15 33 -46 51q-27 15 -60 13q-47 -4 -85 -43q-14 18 -34 29q-26 15 -55 14z" />
    <glyph glyph-name="uni0E30" unicode="&#xe30;" horiz-adv-x="340" 
d="M120 550q-57 0 -106 -39q-11 -9 -21 -20q-3 -3 -3 -7.5t3.5 -7t7.5 -2.5t7 4q9 10 18 17q24 19 44 27t49 8h1q33 0 58.5 -21t31 -53.5t-11 -61t-47.5 -39.5q-4 -1 -5.5 -5t-0.5 -8t5 -5.5t8 -0.5q38 14 58 49q21 36 13 76q5 14 18.5 21.5t27.5 7.5q23 0 39 -16t16 -39
v-114v-1q0 -22 -2 -31q-1 -10 -5 -16q-21 17 -48 17q-31 0 -53 -22l-1 -1q-6 12 -15 23q-16 19 -38 30q-22 10 -48 10q-57 0 -106 -39q-11 -9 -22 -21q-2 -3 -2 -7t3 -7t7.5 -2.5t7.5 3.5q8 10 18 18q25 20 45 28.5t48 6.5q36 -2 59 -21q26 -21 31.5 -53.5t-11 -61
t-47.5 -39.5q-4 -1 -5.5 -5t-0.5 -8t5 -5.5t8 -0.5q38 14 58 49q8 14 12 30q1 2 1 3q5 22 0 43q1 2 2 5t2 3q0 2 3 5q16 16 39 16t39 -16t16 -39v-114v-1q0 -39 -25 -64q-27 -27 -65 -26h-120q-30 0 -50 8t-44 27q-10 8 -18 18q-3 3 -7.5 3.5t-7.5 -2.5t-3 -7t2 -7
q11 -12 22 -21q49 -39 106 -39h120q46 -1 79 32q31 30 31 77v1v115q0 24 -14 43q9 11 12 27q2 12 2 34v1v115q0 31 -22 53t-53 22q-20 0 -31 -5.5t-23 -17.5q-16 33 -53 53q-19 10 -48 10z" />
    <glyph glyph-name="uni0E31" unicode="&#xe31;" horiz-adv-x="0" 
d="M-33 851q34 1 58 -23t24 -58v0q1 -45 -21 -93q-20 -43 -65 -75t-104 -32q-65 0 -117 21q-35 14 -58 36q-35 35 -35 83q0 55 26 92q16 22 41.5 35t52.5 13q35 0 62 -16q31 -19 43 -53q2 -5 4 -14q3 -15 2 -29q1 3 2 5q7 14 7 28q-1 32 22 56t56 24zM-32 831q-25 0 -42 -18
q-17 -17 -17 -43q-1 -16 -9 -35q-6 -15 -8 -17q-6 -6 -19 -7q-10 -26 -33 -40q-4 -3 -8 -2t-6 5t-1 8t5 6q19 12 25 33q6 15 5 27q0 13 -4 26q-10 28 -35 43q-22 13 -52 13q-22 0 -43.5 -11.5t-33.5 -28.5q-23 -32 -23 -80q0 -39 30 -69q19 -19 50 -32q49 -19 110 -19
q52 0 93 29t57 66q9 19 14 40.5t5 32.5l1 12q0 26 -18 43.5t-43 17.5z" />
    <glyph glyph-name="uni0E32" unicode="&#xe32;" horiz-adv-x="380" 
d="M160 550q-52 0 -96 -25t-72 -62q-2 -3 -1.5 -7.5t3.5 -7t7.5 -1.5t6.5 4q25 33 65.5 56t86.5 23q33 0 69 -6t56 -11l19 -6h1q29 -9 47 -33t18 -54v-150v-170q1 -38 -25.5 -64.5t-64.5 -26.5t-64.5 26.5t-25.5 64.5v170v68q0 9 -9 10q-11 2 -18 2q-8 0 -10 -7t-4 -20.5
t-4.5 -23t-7.5 -17.5q-13 -22 -36 -33.5t-48.5 -9.5t-46.5 18q-3 2 -7.5 1.5t-7 -4t-1.5 -7.5t4 -6q25 -19 56.5 -22t59.5 11.5t44 41.5q16 26 16 57v-59v-170q0 -47 32 -79t78 -32t78.5 32.5t31.5 78.5v170v150q0 37 -22 66t-57 40h-1q-72 24 -150 24z" />
    <glyph glyph-name="uni0E33" unicode="&#xe33;" horiz-adv-x="490" 
d="M-108 911q-53 -1 -99 -37q-63 -48 -63 -123v0q-1 -41 26 -73q9 -32 27 -53q38 -44 101 -53q68 -11 126 38q54 46 59 111q6 69 -43 127q-49 56 -117 62q-9 1 -17 1zM-108 891q7 0 15 -1q60 -5 103 -55q45 -52 40 -112q-5 -57 -53 -98q-51 -42 -110 -34q-56 8 -89 47
q-16 19 -24 48q0 2 -2 4q-23 26 -22 61v0q0 65 55 108q41 31 87 32zM-100 760q-8 0 -14 -6t-6 -14t6 -14t14 -6t14 6t6 14t-6 14t-14 6zM260 550q-64 0 -115.5 -36.5t-72.5 -83.5q-23 -52 -22 -100v0q0 -46 32 -79q32 -32 78 -32t78 32t32 78v-59v-170q-1 -46 31.5 -78.5
t78.5 -32.5t78.5 32.5t31.5 78.5v170v150q0 37 -22 66t-57 40h-1q-72 24 -150 24zM260 530q33 0 69 -6t56 -11l19 -6h1q29 -9 47 -33t18 -54v-150v-170v0q1 -38 -25.5 -64.5t-64.5 -26.5t-64.5 26.5t-25.5 64.5v0v170v68q0 9 -9 10q-11 2 -18 2h-1q-7 0 -9 -7l-3 -11v-2
q1 -38 -25.5 -64.5t-64.5 -26.5t-64.5 26.5t-25.5 64.5v0q-1 44 21 92q18 40 65 74t104 34z" />
    <glyph glyph-name="uni0E34" unicode="&#xe34;" horiz-adv-x="0" 
d="M-194 917h1q52 0 105 -20q65 -24 90 -65l1 -1q4 -9 6 -19.5t2.5 -18.5t0.5 -20t-0.5 -18t-2 -19.5t-1.5 -17.5q-2 -28 -7 -49q-3 -15 -8 -26q-5 -13 -14 -23q-25 -30 -63 -30q-61 0 -122 5q-57 5 -92 14q-29 8 -48 19q-18 12 -33 32.5t-15 49.5q0 57 43 115q41 56 96 79
q30 12 61 13zM-193 897q-27 0 -54 -12q-50 -20 -88 -72q-39 -53 -39 -103q0 -41 39 -64q16 -10 42 -17q33 -9 89 -14q27 -2 57 -3.5t46 -1.5h17v0q29 0 48 23q6 8 11 18q4 9 7 22q4 20 6 47q0 2 1.5 14.5t1.5 16t0.5 14.5t0 16t-1 13.5t-2 15t-3.5 12.5q-22 35 -80 56
q-50 19 -98 19zM-176 772q1 0 2 -1q5 0 9 -2q12 -7 14 -25q1 -9 -3 -15q-5 -9 -16 -9q-18 0 -25 2q-13 2 -19 14q-2 5 -1 10q1 4 4 8q5 5 12.5 10t15.5 7q3 0 7 1zM-177 751h-2q-4 -1 -9 -4q-4 -2 -6 -5l3 -1q4 -1 20 -1v2q0 2 -1 4t-2 3.5l-1 1.5h-1h-1z" />
    <glyph glyph-name="uni0E35" unicode="&#xe35;" horiz-adv-x="0" 
d="M-227 910q-73 -7 -123 -82q-40 -60 -40 -118q0 -47 41 -78q17 -13 43 -23q33 -12 86 -23q25 -4 53.5 -8t43.5 -6l15 -2h8q27 0 56 17q31 17 42.5 41.5t11.5 62.5v119q0 24 -13 44.5t-35 29.5q-17 6 -33 7q-27 0 -48 -17l-0.5 0.5l-0.5 0.5q-45 34 -90 35h-17zM-211 890
q38 -1 78 -30q-17 -22 -17 -50q0 -4 3 -7t7 -3t7 3t3 7q0 25 17 43v0l1 1q8 8 18 12q6 3 13 4q18 3 34.5 -4t26.5 -22.5t10 -33.5v-119l0.5 -9t0 -13t-3 -13t-7.5 -19q-9 -19 -34 -33q-24 -14 -46 -14h-6q-54 5 -110 16q-51 10 -83 22q-23 9 -38 20q-33 25 -33 62
q0 52 36 107q45 67 109 73h14zM-231 770q-11 0 -19 -10q-10 -13 -4 -24q6 -12 19 -14q7 -2 25 -2q7 0 11 4.5t3.5 11t-6.5 15.5q-5 7 -12 12q-8 7 -16 7h-1zM-230 750q3 -2 4 -3q4 -2 7 -7q-9 0 -12 1q-4 1 -5 3v1l2 2z" />
    </font>
</defs>
</svg>
