<?xml version="1.0" standalone="no"?>
<!DOCTYPE svg PUBLIC "-//W3C//DTD SVG 1.1//EN" "http://www.w3.org/Graphics/SVG/1.1/DTD/svg11.dtd" >
<svg xmlns="http://www.w3.org/2000/svg" xmlns:xlink="http://www.w3.org/1999/xlink" version="1.1">
<metadata>
Created by FontForge 20170805 at Sun Apr  9 13:48:21 2017
 By Manatsawin
Copyright (C) April 2017, Worawut Thanawatanawanich. All rights reserved.
</metadata>
<defs>
<font id="SOV_wayo-Bold" horiz-adv-x="320" >
  <font-face 
    font-family="SOV_wayo"
    font-weight="700"
    font-stretch="normal"
    units-per-em="1000"
    panose-1="2 7 5 6 6 0 0 2 0 4"
    ascent="800"
    descent="-200"
    x-height="391"
    cap-height="596"
    bbox="-433.5 -454.161 1286 1039.78"
    underline-thickness="30"
    underline-position="-50"
    unicode-range="U+0020-FB04"
  />
<missing-glyph horiz-adv-x="274" 
d="M16 406v-390h242v390h-242zM274 0h-274v423h274v-423z" />
    <glyph glyph-name="nine_in_heart" unicode="&#xe2f;&#xe23;&#xe2f;" horiz-adv-x="453" 
d="M308 417h-1h-1q-19 -2 -36 -14q-16 -11 -26 -23q-9 -11 -22 -29l-1 -1q-2 -8 -5 -10q-3 -1 -7 0q-6 2 -9.5 4.5t-10.5 8.5q-7 7 -8 9h-1q-19 17 -39 22q-21 6 -45 -4v-1h-1q-34 -23 -59 -85v0q-32 -94 40 -202q70 -102 166 -143q29 -16 66 24q63 70 113 206v1v1q0 1 2 4
v1q4 18 -4 18h-3l-1 -2q-7 -13 -24 -45q-16 -33 -26 -49q-6 -9 -21 -33.5t-26 -41.5t-24 -32q-1 -1 -6.5 -7t-7.5 -8t-7 -6t-9 -5q-3 -1 -6.5 -0.5t-7.5 2.5h-1v1q-95 44 -156 146q-15 27 -24 55q-9 27 -9 58q0 30 12 56q2 2 5 8q3 7 3.5 9t3.5 7t5 7q2 3 5 8l5 5q3 2 7 6
q3 3 6 4.5l7 3.5q9 1 16 -2q8 -3 22 -15l14 -13q14 -13 31 -18t35 7h1q5 6 23 29q17 23 30 32q13 7 24 4t21 -13q12 -15 31 -18q7 -1 12 2.5t5 10.5q0 4 -2 9q-10 21 -30 36t-44 15zM619 466q-34 1 -77 -21q-33 -16 -94 -66q-60 -50 -99 -65v-1q-22 -10 -55 1q-16 8 -36 3
q-24 -5 -20 -30q3 -16 6 -34q-32 34 -67 43q-22 6 -41.5 -5.5t-25.5 -32.5q-15 -56 11 -131v0q29 -66 75 -69v0q26 1 35 26q8 24 1 47q-20 66 -66 68h-1h-1q-10 -5 -10 -12q-1 -6 3 -13q4 -6 9 -12q5 -4 10 -10q4 -5 5 -8v-1l1 -1q8 -10 12 -28q2 -12 -3 -16q-33 20 -46 83
v0q-5 18 -5 41q1 21 10 37q18 12 53 -15q37 -31 63 -80q6 -21 14 -46q1 -18 17 -28q11 -5 17 0t7 17v1q-4 30 -28 75q-3 8 -14 53q-3 10 -7 31q-2 13 -3 21q10 -2 26 -5q24 -6 36 -5h1q16 3 31 10q15 6 26 12t28 18t23 16.5t25 20t23 18.5h1q1 2 6 6q27 23 43 35t42 23
q26 12 51 12h1h1q2 1 8 1q8 -1 13 0l16 4l-15 6q-17 6 -36 6z" />
    <glyph glyph-name="uvSOV" unicode="&#xe2f;&#xe23;&#xe2d;&#xe07;&#xe2f;" horiz-adv-x="1310" 
d="M743 543q0 1 6 -3q8 -7 29 -3q20 5 30 -4q5 -6 8 -6t11 6q8 5 12.5 4.5t12.5 -8.5q6 -6 8 -7t6 0q5 0 5 -1q-3 -2 -9.5 -2t-14 8t-11.5 6.5t-9 -6.5t-10.5 -5.5t-12 5t-9.5 2.5q-5 -5 -19 -61q-7 -28 -2 -34q3 -4 9.5 -3t9.5 -1.5t1 -3.5q0 -1 -2 1q-3 2 -7 -1
q-8 -4 -16 5t-28 44q-26 44 -34 48q-4 1 -6.5 4.5t-7.5 5.5l2 1q7 -1 10.5 -3t17.5 -1l13 1l6 -7q5 -6 7 -5.5t2 -1t-2.5 -1.5t-5.5 2l-5 2q-4 4 -7 3q-3 -2 -1.5 -6t14.5 -25q14 -23 15 -21q1 3 6 28.5t5 27.5q-1 2 -9 3t-13 6.5t-5 6.5zM614 568q2 7 3 7q1 -1 1 -6
q0 -10 9 -3q5 3 12 2t10 -6q6 -9 -1 -34q-5 -16 -5 -21t5 -9q4 -5 14 -4t17 1h8v6q-1 7 -13 29q-6 11 -4.5 21.5t9.5 15.5q6 3 14.5 1t11.5 -7q1 -3 0 -11v-8l4 -2q8 -2 -2 -3q-3 -1 -7 -1q-8 0 -10 4q-6 9 2 12q3 2 2.5 3.5t-4.5 2t-6 -3.5q-6 -8 8 -25q14 -16 14 -30
q0 -9 -5.5 -15t-5.5 -11q0 -4 1 -5t6 -2l6 -2h-7q-9 0 -13 10l-3 5h-22q-19 1 -24.5 3t-10.5 10q-6 9 1 37q7 25 3 25q-2 0 -6 -2t-8 -1q-8 4 -4 17zM682 585q40 9 47 -4q3 -6 -2 -2q-9 6 -34 -1q-22 -6 -33 -2q-4 2 -8.5 5t-8.5 3l-2 2q2 3 17 -1q9 -2 24 0zM579 -63
q15 -3 39 -3q21 -1 40 1q1 -1 64 14q31 7 52 17q13 7 30.5 22t29.5 29q36 44 50.5 92.5t6.5 93.5q-17 98 -92 147q-59 39 -141 55q-16 3 -45 3t-40 -3l-11 -3l9 10q29 35 29 68q0 24 -12.5 44.5t-30.5 27.5q-11 4 -51 3q-21 0 -28 1q-38 11 -36 53q1 13 5 22q10 21 45 43
q21 14 28 21.5t7 18.5t-6.5 20t-26.5 26q-31 27 -31 46q0 12 15 28t17 38q2 23 -4 35l1 -7q3 -22 -3 -38t-27 -29q-19 -13 -21.5 -26.5t10.5 -35.5q15 -25 16 -39q1 -9 -3 -17q-5 -12 -22 -26q-37 -29 -48 -70q-4 -14 -4 -36t4 -34q10 -32 31 -44.5t64 -10.5l24 1l8 -6
q14 -11 14 -28q0 -22 -41 -61q-58 -54 -74 -95q-20 -50 3 -80q2 -3 5 -5q16 -18 17 -13q1 2 5 18q27 101 123 113q37 4 74 -1q72 -9 118 -56q53 -55 53 -119q0 -34 -8 -57t-27 -47q-11 -13 -31 -27.5t-38 -21.5q-30 -13 -52 -18q-18 -4 -55 -2t-59 7q-67 17 -66 88
q0 34 19 54q14 13 40 20q42 10 53 -24q6 -15 0 -20q-4 -2 -7 1q-11 10 -25.5 6.5t-20.5 -17.5q-4 -10 -3.5 -24.5t6.5 -24.5q9 -17 23 -24q20 -11 52 -9.5t59 13.5l9 4h-16q-43 1 -53 11q-4 4 -4 13q2 17 15 36q16 24 2 57q-8 20 -19.5 30.5t-31.5 15.5q-11 3 -36 3t-35 -3
q-30 -8 -54 -32t-31 -52q-6 -24 -4 -51q3 -28 16 -52.5t32 -37.5q17 -13 51 -25t60 -15zM22 221l7 -6q7 -6 22.5 -13.5t26 -10.5t59 -3t53.5 -2.5t7.5 -6.5t-1.5 -16q-8 -24 -1 -44q3 -10 2 -10q-8 -3 -11 -12q-1 -5 0 -14q2 -11 9 -17t29 -14q33 -12 23 -41
q-5 -14 -24.5 -26.5t-36.5 -12.5q-9 0 -34 5q-46 9 -73 2q-11 -3 -12 -4l2 -1q18 4 37 4q20 0 52 -8q27 -8 52 -3q18 4 33 15q11 9 17 24t3 31q-2 10 -4 15q-6 12 -23 18q-9 4 -13.5 7t-3.5 5q3 5 18 0q12 -4 46.5 -4t52.5 4q25 5 42 18q34 25 31 84q-1 24 -16 40
q-13 14 -55 29q-63 23 -83 37q-23 15 -27 27q-8 20 12 35q25 18 57 18q30 0 52 -9q11 -4 20 -13t12 -19q3 -11 1.5 -24t-6.5 -13q-2 0 -8.5 4t-16.5 4.5t-11.5 2t0.5 9.5t-1 13q-4 9 -17 15h-2q12 -10 13.5 -14.5t-6.5 -16.5q-11 -16 -3 -31q4 -8 12 -11q24 -10 45 9
q10 10 12.5 17.5t2.5 25.5q0 28 -7.5 40t-32.5 23l-18 9q-21 13 -7 37q5 9 4 9q-1 1 -2.5 -1t-3 -5t-3.5 -6t-3.5 -6.5t-1.5 -4.5q-3 -16 6 -27l4 -4h-4q-3 0 -16 3q-27 6 -55 -3t-46 -30q-19 -23 -17 -55q1 -24 17.5 -37t83.5 -42q42 -19 55.5 -28t19.5 -20q5 -11 3 -25.5
t-9 -22.5q-8 -8 -30.5 -17t-38.5 -10q-21 -2 -42 7t-27 22q-4 11 0 28l2 8l5 -3q8 -5 19 0q12 5 12 20q0 12 -8 23t-19 14q-26 6 -94 -5q-60 -10 -87 -2q-26 7 -33 13zM1286 321h-7q-14 -3 -27 4q-11 6 -21 21q-12 20 -31 27q-22 9 -85 1q-58 -7 -73 -2q-6 3 -15 10t-17 7
t-14 -2t-11 -1q-11 3 -21 23l-4 10l1 -9q2 -18 14 -29t25 -8q7 1 9 0.5t6 -7.5q6 -13 26 -14q12 -1 14 -5q4 -7 -2 -24.5t-39 -93.5q-41 -96 -42 -96l-38 91l-42 102q-1 1 -0.5 1.5t2 0.5t4 0.5t6.5 0.5q20 1 25 11t16 4q25 -15 2 -45q-15 -18 -15 -41q0 -17 11 -26
q14 -13 17 -11l-4 4q-22 14 -18 36q4 17 18 36q13 18 13 30q0 17 -17 35q-11 11 -36 14q-12 2 -17 0.5t-13 -9.5q-8 -9 -11 -8t-8 10q-7 13 -13 16t-17 -1t-13.5 -2.5t-8.5 12.5q-9 18 -26 18l-7 -1l8 -1q15 -3 19 -21q2 -10 5 -13t22 0q7 1 11 -2q8 -5 56 -137
q41 -114 57 -146q24 -50 44 -60q15 -8 14 -23l1 -7q2 2 2.5 12t-1.5 13t-13 8t-13 8q-7 7 0 29q4 14 50.5 123t57.5 129q11 22 40 36q23 12 41 10q28 -5 47 -31q21 -30 44 -21z" />
    <glyph glyph-name=".notdef" horiz-adv-x="274" 
d="M16 406v-390h242v390h-242zM274 0h-274v423h274v-423z" />
    <glyph glyph-name=".null" horiz-adv-x="0" 
 />
    <glyph glyph-name="nonmarkingreturn" horiz-adv-x="249" 
 />
    <glyph glyph-name="space" unicode=" " horiz-adv-x="300" 
 />
    <glyph glyph-name="exclam" unicode="!" horiz-adv-x="215" 
d="M83 -75q-3 -4 -6 -9q-9 -14 -4 -22q-5 0 -8 3q-1 9 7 18q5 6 11 10zM91 -35q-18 0 -32 -14q-14 -13 -22 -31q-8 -17 2 -35q9 -19 29 -17q15 1 29 11q14 9 19 14t20 21l1 2q1 4 -1.5 8.5t-8.5 2.5v-1h-1q-1 0 -2 -1q1 7 -1 13q-3 19 -19 25q-7 2 -13 2zM150 444
q-13 0 -16 -14q-17 -93 -37 -213q-22 -152 -24 -236v-1q1 -9 6 -10q7 -2 10 9v1v0q12 108 44 245q6 28 18 90q13 61 21 94q7 12 -2 24t-20 11z" />
    <glyph glyph-name="quotedbl" unicode="&#x22;" horiz-adv-x="215" 
d="M166 538q-11 0 -13 -8q-5 -18 -23 -105q-4 -20 -10 -63t-9 -62v-1v-1q2 -6 5 -8q4 -2 10 5v1h1q6 19 16 58q11 40 18 59q6 17 12 39t9 35q4 13 5 15q8 18 3 24q-7 11 -22 12h-2zM112 553q-12 -1 -14 -12q-3 -18 -14 -110q-3 -21 -6 -67t-5 -66v-1v-1q4 -8 8 -8q3 0 8 6
l1 1v1q5 20 12 62q8 42 13 63q5 19 9.5 42t6.5 38q3 14 4 16q7 19 2 25v0q-9 10 -23 11h-1h-1z" />
    <glyph glyph-name="numbersign" unicode="#" 
d="M126 338q-10 0 -14 -9h-1v-1q-3 -18 -8 -63q-13 -1 -24 -2h-1h-1q-2 -1 -16 0q-17 1 -21 -7q-6 -8 -5 -19q1 -14 14 -17h1h1q12 2 47 6q-1 -11 -3 -24q-11 -1 -24 -3v0q-4 -1 -17 -1q-17 0 -22 -8q-4 -7 -3 -18q0 -14 12 -17h1h1q20 3 49 9q-1 -14 -2 -40q-3 -35 -4 -53
v-1q2 -7 7 -7.5t8 5.5h1v1q5 20 11 57q6 31 8 44q6 1 9 2q14 3 31 7q-1 -19 -3 -51q-3 -38 -5 -56v-1v-1q2 -7 7.5 -8t8.5 5l1 1v1q4 20 11 55.5t10 48.5v0q1 6 3 14q62 16 95 19h1h1q6 2 6 8t-6 8h-1h-1q-30 2 -89 -5q2 6 3 13q4 -4 11 -3v0q8 2 22 7q13 5 20 7q14 2 21 13
q7 13 -9 18h-1q-12 1 -34 -1q-14 0 -22 -1q0 4 1 7v1q0 3 4 14q4 14 1 23l-1 1l-1 1q-24 19 -36 1l-1 -1v-1q-3 -17 -6 -47q-15 0 -31 -1l4 24v1q0 2 4 13q4 13 0 21v1l-1 1q-11 9 -22 9zM168 235q-2 -10 -3 -23q-16 -2 -35 -4q2 12 4 23z" />
    <glyph glyph-name="dollar" unicode="$" horiz-adv-x="310" 
d="M158 81q6 45 18 110q3 -2 4 -4l29 -28q5 -5 12 -13.5t11.5 -16.5t7.5 -16q3 -12 -5 -21q-9 -10 -23 -14q-27 -9 -55 -8q0 6 1 11zM128 338q17 18 41 21q-6 -41 -14 -100q-15 17 -25 32v0q-21 30 -3 47h1zM219 452.5q-9 10.5 -20 9.5q-13 0 -16 -14q-4 -21 -7 -47
q-42 -2 -71 -30q-17 -13 -21 -36t6 -42q16 -33 59 -76q-11 -84 -15 -148q-28 4 -49 19q-15 10 -19 27q-5 18 0 34v1q0 2 1 6v0q2 13 -5 13h-2l-2 -2q-16 -21 -14.5 -50.5t21.5 -48.5q23 -22 68 -29q-2 -26 -2 -49q0 -11 6 -13l5 -1l4 8v1q2 9 6 52h1q71 -2 104 31v0
q14 17 14 38q0 20 -11 37q-5 9 -12 17q-6 8 -11 14.5t-14 16t-13 13.5l-14 15q-8 7 -12 11q14 75 18 98l5 25q2 -2 5 -4q2 -3 9 -13q8 -12 16 -17q9 -5 20 -4h2l1 2q17 22 -15 58q-12 13 -30 20q3 19 7 35q6 12 -3 22.5z" />
    <glyph glyph-name="percent" unicode="%" horiz-adv-x="310" 
d="M221 140q3 1 5 2q1 -4 -1 -7q-1 -4 -4 -8q-10 -10 -2 -22q-5 -3 -10 -5q-11 -4 -14 5q2 19 26 35zM252 171q-11 7 -24 7q-10 1 -19 -4q-19 -10 -31 -28q-13 -18 -13 -39q-1 -16 13.5 -28t31.5 -6q15 6 30 20q6 0 11 3l1 1v1q3 5 5 10q4 4 9 10t8 8l1 1l1 2q1 6 -1 9
t-4 3.5t-4 -0.5l-2 -1v10v0q-3 13 -13 21zM112 288q2 1 5 2q-2 -6 -6 -11q-11 -10 -7 -22q-12 -4 -15 3q1 16 23 28zM129 324q-4 1 -8 1q-17 0 -32 -12q-14 -11 -22 -26q-8 -13 -5 -30q4 -17 19 -23v0q19 -5 40 8l4 -2h1q11 1 16 9q3 6 7 17q3 9 4 13v0q6 14 -1 28
q-8 14 -23 17zM280 387q-7 13 -19 13q-8 0 -13 -7v-1q-18 -27 -61 -107q-59 -104 -133 -267v0q-2 -12 4 -14q5 -2 11 6v1q71 126 83 146q7 13 41.5 68.5t51.5 86.5q6 10 19 30q12 18 15 22q8 10 1 23z" />
    <glyph glyph-name="ampersand" unicode="&#x26;" 
d="M112 200q4 -6 10 -13q28 -34 61 -66q-34 -37 -64 -53q-25 -12 -34 -4q-14 19 -6 58q9 34 33 78zM134 319q1 -1 1 -2q1 -1 0 -5q-2 -5 -3 -8t-3 -8l-3 -7q-4 -5 -12 -21q-4 9 -5 18q-2 11 6 21q8 8 19 12zM134 353q-9 0 -18 -4q-19 -8 -32 -25q-12 -18 -11 -38
q2 -27 18 -56q-27 -50 -39 -88q-16 -60 7 -94q10 -14 28 -16q18 -3 32 3q38 16 86 65l1 -1v-1h1h1q1 -1 6 -5t7 -5.5t7 -5.5q6 -4 10 -5l8 -2q5 -1 10 -1q9 -1 14 3t4 12q-1 14 -13 20q-16 12 -29 23q31 39 59 91h1q2 6 3 8v1h1q1 1 0 8t-8 3q-4 -2 -8 -9q-40 -52 -70 -84
q-34 30 -58 58q-13 16 -20 27l9 15q7 12 11 18v1q22 43 14 66v0q-9 19 -32 18z" />
    <glyph glyph-name="quotesingle" unicode="'" horiz-adv-x="215" 
d="M166 538q-11 0 -13 -8q-5 -18 -23 -105q-4 -20 -10 -63t-9 -62v-1v-1q2 -6 5 -8q4 -2 10 5v1h1q6 19 16 58q11 40 18 59q6 17 12 39t9 35q4 13 5 15q8 18 3 24q-7 11 -22 12h-2z" />
    <glyph glyph-name="parenleft" unicode="(" 
d="M214 491q-2 -1 -6 -2h-1l-1 -1q-25 -18 -53 -72q-52 -114 -48 -260q6 -162 82 -259l2 -2h2q5 -5 8 -6q6 -1 7 2.5t-1 7.5l-2 3v1q-29 45 -40 77q-52 137 -10 315q24 98 60 142q16 9 18 31q3 23 -15 23h-1h-1z" />
    <glyph glyph-name="parenright" unicode=")" 
d="M142.5 487q-10.5 0 -15 -6.5t-2.5 -16.5v-1l1 -1q3 -4 10.5 -14.5t12.5 -18.5q4 -7 7 -15q38 -90 27 -232q-17 -173 -90 -276l-1 -1v-1l-1 -2v-1h-1q-6 -14 4 -14h2l2 1q0 1 4 4l1 1q31 33 62 101q48 116 55 252q4 133 -44 219q-3 10 -13 16t-20.5 6z" />
    <glyph glyph-name="asterisk" unicode="*" 
d="M166 312q-13 0 -14 -12q-2 -11 -6 -67q-7 5 -13 9q-11 7 -17 11t-7 6q-13 12 -20 8q-11 -4 -16 -17q-7 -12 1 -17q11 -7 50 -29q-4 -2 -8 -5q-9 -6 -13 -9t-5 -4q-15 -4 -15 -12v0q1 -12 10 -22t18 -5v0q7 5 31 24q0 -10 -1 -27q-1 -29 -1 -47v-1l1 -1v-1q1 -6 7 -6
q2 0 7 4l1 1v2q4 17 8 48q4 23 6 36q13 -6 34 -17q28 -12 43 -20l1 -1h2q6 1 7 3q3 2 1 9l-1 2l-1 1q-14 10 -40 27q-20 14 -32 22q10 10 26 25q20 19 32 29l1 1l1 2q2 7 -1 9q-2 2 -8 2h-1l-2 -1q-12 -7 -32 -20q-10 -7 -17 -11l2 12q2 13 3 20q1 6 1 8h1q6 17 1 23h-1
q-9 8 -23 8h-1z" />
    <glyph glyph-name="plus" unicode="+" 
d="M168 326q-15 -1 -16 -14q-2 -14 -7 -85q-10 1 -20 0q-15 0 -31 -1q-33 -2 -36 -2h-11q-11 0 -14 -5v-1q-2 -2 -4 -8v-1q-1 -8 0 -14q3 -14 16 -13q2 0 17 2t27 3l32 4q11 2 22 3q-1 -21 -2 -58q-1 -44 -1 -65v-1l1 -1v-1q1 -6 7 -6q2 0 7 6l1 1v1q4 20 9 62q6 42 10 63v1
q7 1 25 3q18 1 28 2q32 3 61 5h1l1 1q7 3 7 7q0 3 -6 8l-1 1h-2q-24 1 -58 2h-23q-17 1 -27 1q1 13 3 26q2 17 3 27q2 10 3 12q6 19 1 25v1q-10 9 -23 9v0z" />
    <glyph glyph-name="comma" unicode="," horiz-adv-x="215" 
d="M105 64q-10 0 -18 -6l-1 -1q-16 -17 -14 -43q1 -13 10.5 -23.5t22.5 -12.5h2q-4 -9 -11 -19q-30 -42 -69 -70l-1 -1q-3 -3 -3 -9t7.5 -5.5t12.5 5.5q49 30 83 74v0q27 40 25 70q-1 20 -21 33q-11 8 -25 8zM111 26l1 -1q4 -1 5 -6q-2 0 -2 -1h-3q-3 2 -1 8z" />
    <glyph glyph-name="hyphen" unicode="-" 
d="M143 227q-16 0 -31 -2q-3 0 -16 -1t-19 -1q-10 2 -15.5 -2t-5.5 -12q-3 -23 9 -27h1h1q13 1 35 5q23 3 34 4q111 14 127 15h1l1 1q5 2 5 7t-5 7l-1 1q-17 2 -90 4q-17 1 -31 1z" />
    <glyph glyph-name="period" unicode="." horiz-adv-x="215" 
d="M103 61q-9 0 -15 -5q-14 -12 -20 -32q-4 -17 4 -30q7 -10 21 -14q9 -2 15 -3h1q11 0 14 5l1 1v2q1 0 1 1h1q16 10 20 25v0q2 16 -6 29q-10 14 -25 20h-1q-6 1 -11 1zM109 29q5 -1 11 -6q4 -7 2 -13q-4 9 -10 9v0q-4 0 -8 -1q2 5 5 11zM94 18h10v-10h-10v10z" />
    <glyph glyph-name="slash" unicode="/" 
d="M244 448q-10 0 -15 -11q-29 -54 -79 -185q-17 -43 -48 -138q-32 -94 -52 -143v-1q-3 -11 2 -14q5 -4 13 7v1q17 31 45 100q36 93 85 204q4 10 14.5 34.5t16.5 38t15 32.5t19 35q9 11 3 25q-7 15 -19 15z" />
    <glyph glyph-name="zero" unicode="0" 
d="M236 381q-20 14 -43 14h-6q-26 -1 -52 -30q-11 3 -27 -18v0q-33 -49 -44 -85v0q-1 -5 -3 -10q-6 -15 -12 -32v0q-2 -8 -3 -11q-6 -13 4 -13l3 1q-2 -60 19 -119q25 -67 73 -74q27 -4 52 10q24 14 41 38q46 64 53 151q6 88 -24 144q-11 21 -31 34zM159 344q13 16 32 17
q4 0 9 -1v0q18 -3 31 -18t20 -36q15 -53 8 -108.5t-34 -102.5q-32 -53 -69 -52q-29 0 -46 41q-30 72 -15 140q6 28 37 81q7 9 10 20q12 13 17 19z" />
    <glyph glyph-name="one" unicode="1" horiz-adv-x="190" 
d="M61 4v-6q0 -5 2 -18v-4l1 -1q18 -19 38 24v-1l1 1v11l-1 1q-7 5 -13 -2q-3 -4 -6 -9q4 31 13 87q10 58 12 65v0q6 35 18 100t18 93v1q0 3 3 14q4 11 4 16q1 7 -3 19h-1q-6 17 -19 15q-11 0 -16 -14v-1q-4 -25 -21 -137q-6 -34 -27 -227v0q0 -4 -1 -16q-1 -4 -1 -7z" />
    <glyph glyph-name="two" unicode="2" 
d="M185 394q-26 -1 -54 -17q-47 -29 -63 -57v0l-1 -1q-3 -9 -1 -19q3 -13 11 -16q9 -3 19 6l1 1q18 21 25 29q7 7 23 18q15 12 30 16h1q10 3 20 0q11 -4 17 -15q17 -27 -1 -82q-7 -21 -16.5 -42t-24 -44t-23.5 -37q-9 -15 -29 -45q-19 -28 -26 -38q-6 -6 -8 -13
q-3 -8 -1 -16q2 -12 12 -17q5 -3 16 -2q10 1 13.5 1.5t13.5 3.5q9 2 13 3q21 6 67 22q44 14 68 19l4 1v1h1l9 5q5 4 1 9h-2h-5q-16 1 -73 -8q-19 -2 -56 -14q-29 -8 -47 -12q11 17 29 43q24 35 35 53q60 93 71 152q6 28 -2 55q-8 28 -29 44q-16 13 -38 13z" />
    <glyph glyph-name="three" unicode="3" 
d="M161 391q-46 0 -90 -24l-1 -1l-1 -1q-1 -1 -4 -3q-5 -2 -6 -3q-3 -1 -7 -4.5t-6.5 -6t-5.5 -7.5t-3 -10q-1 -4 -1 -9q0 -12 14 -18q13 -3 26 0q14 0 15 8q1 9 -3 16q51 35 102 22q11 -3 20 -14q7 -7 2 -15q-5 -7 -10 -11.5t-14 -10.5q-9 -9 -13 -12q-3 -3 -16 -9
q-11 -6 -14 -7q-14 -5 -17 -20q-4 -16 14 -22v0q11 -2 33 -3q21 -1 29 -2q17 -2 25 -3q6 -2 19 -8q11 -5 17 -13q8 -18 -7 -55q-32 -72 -96 -104q-45 -28 -73 2q-13 11 -15 30q-2 17 7 31l13 21l-11 -1q-9 -1 -18 -14q-8 -11 -11 -23q-7 -28 10 -53q17 -26 44 -31
q58 -8 118 47q63 57 73 123q3 18 -3 36q-7 17 -22 27q-26 16 -80 22q14 8 23 15q8 8 19 21q11 12 13 25q3 24 -13 43t-39 25q-17 4 -36 4z" />
    <glyph glyph-name="four" unicode="4" 
d="M240 206l1 4q4 -14 4 -17v-1q3 -16 -5 -31q-5 -12 -15 -18q4 25 8 41v1q0 7 7 21zM207 369q-4 7 -14 7q-11 0 -18 -7q-73 -61 -110 -153q-2 -5 -5 -14t-4 -13q-2 -5 -3 -15q-2 -10 0 -16q8 -33 59 -51q39 -12 74 -9q-5 -26 -12 -68q-8 -49 -13 -73v-2q-1 -13 1 -16
q3 -5 6 -3t5 7l2 5q11 27 32 100v1q4 20 10 55q12 4 22 10q21 12 31 35q9 23 5 48q0 3 -2 11q-1 9 -2 12q-1 4 -3 10q-1 7 -6 13q-4 5 -8 8l-1 1q-15 7 -27 -5q-9 -10 -14 -26q-6 -16 -19 -89q-35 -5 -75 10q-11 6 -15 7q-3 2 -10 8q-5 5 -6 11q23 82 85 141q4 4 13 11
t14.5 15t7.5 17q4 10 0 17z" />
    <glyph glyph-name="five" unicode="5" 
d="M156 364q-3 11 -14 11q-4 0 -8 -1v-1h-1q-5 -4 -11 -9q-7 -6 -10 -10q-3 -5 -9 -12q-6 -8 -8 -11q-47 -64 -26 -121v0q8 -18 24 -32q15 -14 28 -21q12 -7 33 -17q7 -4 21 -11q15 -7 23 -11q9 -4 19.5 -11.5t17.5 -15.5q10 -13 7 -27q-4 -16 -14 -27q-22 -21 -53 -28.5
t-58 3.5h-1q-18 5 -31 21q-12 15 -18 35l-1 4q-2 5 -7.5 8t-7.5 -5v0q-1 -24 9.5 -47t29.5 -37q32 -21 83 -14q32 5 59 24t38 48q6 19 1 38t-19 32q-20 19 -68 43q-47 23 -66 40v1q-23 19 -16 52v0q3 23 26 51l2 -2h3q7 1 48 17q12 4 33 13q20 10 37 16q16 6 32 8h1q6 2 6 8
t-6 8h-1h-1q-21 2 -66 -7q-22 -4 -58 -13q0 5 -2 10zM67 70v0v0z" />
    <glyph glyph-name="six" unicode="6" horiz-adv-x="295" 
d="M179 230q2 1 5 1q11 0 21 -8t15 -20q20 -48 -3 -107q-20 -47 -56 -54q-27 -3 -47 36q-19 34 -16 78q9 17 19 30v0q22 37 61 44h1zM202 404h-1q-11 -2 -23 -11q-11 -8 -15 -12t-16 -18v0q-40 -51 -62 -105q-28 -67 -22 -128q-5 -20 -8 -42v-1v-7q-5 -13 5 -13q7 0 11 16
l1 3l6 -14q26 -61 71 -68q48 -5 84 50q34 52 24 128q-4 27 -19 49q-15 23 -39 29v0q-43 10 -85 -29l1 1q28 73 89 130v1q12 17 12 27q1 13 -14 14z" />
    <glyph glyph-name="seven" unicode="7" horiz-adv-x="286" 
d="M267 404q-3 1 -8 0q-11 0 -31 -5q-19 -5 -22 -5h-1l-12 -3l-11 -3q-4 -1 -14 -2q-10 -3 -13.5 -3.5t-11.5 -1.5h-12q-6 1 -13 1h-13q-5 1 -11 3q-14 12 -31 3q-18 -10 -13 -29q12 -45 32 -52q19 -8 24 8t-6 29q10 -1 21 -1q13 0 24.5 1t27 4t24 5t25.5 7q8 2 14 3
q-28 -62 -48 -106q-42 -97 -61 -197v-1q0 -2 -2 -13q-2 -12 -2.5 -16.5t-1.5 -14.5q-2 -10 -2 -17v-14q-1 -8 0 -16.5t3 -15.5v-1l2 -2q8 -13 14 -8q2 3 0 16q-1 6 -1 9v0q-2 41 21 130q6 21 15 46t15.5 42t20.5 46.5t19 39.5t22.5 45.5t20.5 41.5q8 13 10 23q5 20 -14 24z
" />
    <glyph glyph-name="eight" unicode="8" 
d="M146 162l2 3q35 -27 40 -31q1 -1 9 -7q8 -7 10 -9l8 -9q6 -5 9 -9t6 -9q2 -5 4 -11q2 -17 -27 -39q-49 -33 -89 -31v0q-10 0 -17 8.5t-6 19.5v0q-1 51 51 124v0zM178 391v0q-34 -2 -62 -22q-28 -21 -44 -52q-11 -19 -9.5 -41t14.5 -39q16 -24 47 -49q-50 -70 -58 -122
q-10 -55 26 -74q32 -17 88 4q57 24 79 56v1q10 17 8 36t-15 34q-7 9 -15 17.5t-18 16.5q-10 9 -16.5 14.5t-19.5 15.5q-8 6 -14 10q48 61 95 111q1 1 4 4.5t5 6.5q6 6 2 11l-3 2l-3 -2q-10 -5 -34 -25q-65 -58 -89 -89q-3 2 -5 4q-13 12 -19 19q-6 5 -14 17q-7 11 -9 23
q0 24 32 52q16 13 35 17q17 4 35 -5q3 -2 8 -4q7 -2 11 -3t10 -1t9.5 4.5t2.5 12.5v1q-7 19 -26 28q-18 10 -38 10z" />
    <glyph glyph-name="nine" unicode="9" 
d="M218 330q9 1 17 5v-9q-11 -22 -33 -51q-41 -50 -79 -58v0q-13 -3 -23.5 6t-11.5 23q3 31 34 56q34 29 95 28h1zM273 377q-4 15 -17 15q-8 0 -15 -8q-4 -5 -5 -12q-15 5 -42 4q-47 -4 -86 -32.5t-53 -72.5q-7 -22 0 -43q8 -21 25 -34q29 -27 75 -3q42 22 76 70
q-4 -74 -9 -120q-1 -6 -3 -29q-3 -23 -5 -33t-7 -26.5t-10 -29.5q-1 -2 -2 -3q-2 -2 -4 -4.5t-3 -3.5l-12 -13l17 4q5 1 8 3q4 2 8 6q3 3 4.5 5.5l4.5 7.5q2 5 3 6l4 8l3 6l1 1q20 54 23 99q5 44 13 173q15 35 8 59z" />
    <glyph glyph-name="colon" unicode=":" horiz-adv-x="215" 
d="M109 136q5 -2 9 -5t5 -8q0 -3 -1 -5q-1 2 -3 4q-5 5 -14 4l2 6zM103 168q-14 -1 -23 -15q-22 -29 -8 -52q8 -14 36 -17q11 -3 15 7l9 6q21 15 13 40t-35 30q-4 1 -7 1v0zM123 296q4 -2 8 -5q5 -3 5 -8v-1q0 -2 -1 -5q-1 3 -3 5q-6 6 -14 3q1 4 3 6zM117 328
q-15 -1 -24 -15q-22 -29 -8 -52q8 -14 36 -17q11 -3 16 7q3 2 8 6q21 15 14 39v1q-9 25 -36 30q-4 1 -6 1v0z" />
    <glyph glyph-name="semicolon" unicode=";" horiz-adv-x="215" 
d="M111 26l1 -1q4 -1 5 -6q-2 0 -2 -1h-3q-3 2 -1 8zM105 64q-10 0 -18 -6l-1 -1q-16 -17 -14 -43q1 -13 10 -23q9 -9 22 -13v0h3q-4 -9 -11 -19q-30 -42 -69 -70l-1 -1q-3 -3 -3 -9t7.5 -5.5t12.5 5.5q49 30 83 74v0q27 40 25 70q-1 20 -21 33q-11 8 -25 8zM107 284h10v-10
h-10v10zM123 295q6 -1 11 -6q3 -6 2 -12q-4 7 -10 9h-1q-4 0 -7 -1q2 5 5 10zM118 328q-10 0 -17 -6q-14 -12 -20 -33v0q-3 -16 4 -28t21 -14q9 -2 15 -3h1q11 0 14 5q1 0 1 1v1l1 1q19 10 21 26q3 16 -6 29q-10 14 -25 19q-5 2 -10 2z" />
    <glyph glyph-name="less" unicode="&#x3c;" 
d="M202 334q-6 0 -10 -3q-65 -46 -91 -71q-33 -32 -32 -58v-1q3 -26 39 -50h1q18 -10 37.5 -20t46.5 -23q27 -12 38 -18v-1h1q8 -1 10 0q4 2 3.5 5t-2.5 6l-2 2l-1 1q-7 5 -22 14q-14 8 -16 9q-7 5 -22 13q-15 9 -23.5 14t-21 13.5t-21.5 16.5q-17 16 -11 27v0q2 3 5.5 7.5
t7.5 8.5q5 4 8 7q2 2 9 7.5t8 6.5h1q41 30 53 37l8 4t9 5q3 3 6 7q3 5 2 12q0 8 -5 14q-5 8 -13 8z" />
    <glyph glyph-name="equal" unicode="=" 
d="M144 200q-15 0 -28 -1q-3 0 -18 -2q-13 -1 -20 0q-10 2 -16 -2t-6 -12q-3 -24 9 -28h1h1q13 1 35 5q22 3 32 4q110 14 129 15h1l1 1q6 3 6 8t-6 8h-1h-1q-21 2 -59 3q-10 0 -30 0.5t-30 0.5zM71 262q-12 0 -14 -12q-7 -23 6 -29h1h1q11 -1 70 1q19 0 41 2q21 2 47.5 4.5
t40.5 4.5h1v1q5 2 5 7t-5 7v1h-1q-15 2 -59 3q-15 0 -43 3q-30 3 -44 3h-16q-14 1 -22 3q-4 1 -9 1z" />
    <glyph glyph-name="greater" unicode="&#x3e;" 
d="M114 331q-2 0 -5 -1q-10 -3 -15 -12q-6 -11 3 -21h1q10 -7 29.5 -20t35.5 -25l28 -22l4 -4q4 -3 5 -4t4 -5q3 -3 3.5 -4.5l1.5 -4.5q1 -2 2 -5q-3 -10 -22 -26q-29 -23 -113 -74h-1q-8 -9 -4 -14q3 -2 12 -1h1q65 31 108 57h1q0 1 1 2h1q36 24 46 44q11 26 -15 54
q-10 13 -25 24q-14 12 -32 25.5t-27 20.5h-1l-5 5q-5 6 -9 9q-5 3 -13 2z" />
    <glyph glyph-name="question" unicode="?" 
d="M138 -74q-1 -3 -2 -4q-6 -9 -9 -14q-3 -6 2 -14q-5 0 -8 2q-5 1 -1 9q3 8 12 16q3 2 6 5zM144 -35q-17 -1 -31 -14t-21 -31q-8 -17 1 -35q9 -19 29 -17q15 1 29 11q14 9 19 14l22 22v9l-3 1q-5 1 -11 -1q1 9 -2 19q-5 16 -21 21v0q-6 1 -11 1v0zM176 363q-27 0 -51 -10
q-27 -10 -46 -31q-20 -21 -24 -48q-8 -62 24 -91v0q21 -13 31 4t-6 30q-11 19 -11 40t12 39q25 27 63 32q39 4 67 -18q13 -10 16 -27q2 -18 -5 -33h-1q-14 -33 -64 -84q-51 -52 -67 -84q-30 -53 -2 -89q9 -16 27 -19q20 -4 33 10v0q6 8 6 15v12l-9 -8q-3 -4 -9 -7
q-5 -3 -12 -3q-5 0 -8 4l-1 1q-22 21 -2 65q15 32 62 79q47 48 62 71q18 26 21 53q4 28 -12 55v0q-34 42 -94 42z" />
    <glyph glyph-name="at" unicode="@" horiz-adv-x="350" 
d="M211 256q-4 -10 -9 -22q-10 -27 -17 -40q-7 -12 -12 -19q-4 -6 -12 -14q-8 -7 -17 -10q-9 0 -13 7q-5 8 -2 16v1q6 23 23 41q17 19 40 29l1 1q3 2 13 8q2 1 5 2zM220 365q-34 0 -69 -19q-83 -42 -110 -120v-1q-10 -37 -1 -71q8 -34 32 -65q45 -59 103 -56q66 5 120 59v1
q12 16 15 22l6 21l-15 -15q-54 -55 -116 -61q-35 -5 -73 28q-24 22 -37 53q-14 30 -10 60q11 54 67 98q57 43 106 33v0q14 -2 23 -12q10 -11 14 -25q19 -67 -14 -125q-13 -21 -25 -24l-1 2q1 17 4 34q3 19 8 44q6 24 7 35q8 16 -4 28q-14 13 -26 -4l-2 -3q-13 9 -42 2h-1
q-32 -12 -56.5 -38t-31.5 -59q-5 -19 2 -39q7 -21 26 -29.5t37 -3.5q19 6 33 21q6 6 12 14v-7q1 -16 10 -26h1h1q15 -9 32 -5q17 5 28 18q45 50 40 131q-4 69 -44 93h-1v1q-22 10 -48 10z" />
    <glyph glyph-name="A" unicode="A" horiz-adv-x="400" 
d="M312 574h1q6 0 10 -5q6 -6 8 -12t5 -19q3 -12 4 -15q14 -92 4 -238q-90 0 -197 -21q47 123 101 225q4 5 12 19t11.5 20t10.5 17q8 11 15 17.5t15 11.5zM314 612v0q-15 -1 -25 -10q-14 -10 -27 -28q-14 -18 -20 -27.5t-20 -37.5q-14 -27 -17 -31v-1q-51 -95 -102 -222
q-5 -1 -14 -2l-18 -3q-12 -1 -16 -15q-5 -13 3 -23v0q5 -4 11 -5q5 -1 10 1q3 1 7 2q-21 -54 -48 -129q-2 -4 -6 -17t-5.5 -19t-3.5 -16q-2 -11 -0.5 -21t7.5 -19l2 -3l4 1q11 5 19 16q7 11 11 29q5 16 7 21v0q28 90 58 165q124 30 211 33q-1 -14 -3 -30q-20 -190 -34 -262
v0l-1 -9l-2 -27l10 9l3 6q18 49 41 171v0q11 80 16 147q9 1 23 2q17 2 21 3h3l6 3v3q0 8 -9 11q-7 2 -16 3q-8 1 -10 2h-1q-6 2 -15 3q5 81 4 152q0 5 -0.5 22t-1 23t-2 20.5t-3 23t-4.5 20.5q-2 13 -6 23t-10 19q-11 23 -37 23z" />
    <glyph glyph-name="B" unicode="B" horiz-adv-x="375" 
d="M292 557q-70 15 -134 15q-48 0 -95 -9v0q-4 -1 -17 -4t-20 -6q-8 -3 -15 -10q-9 -8 -9 -20q0 -7 2 -14q2 -6 4 -10q1 -6 5 -13q4 -6 6 -10t7 -11t6 -9q2 -3 8 -11q6 -7 7 -8v-1q11 -13 20 -20l1 -1q6 -2 7 1.5t-1 7.5l-1 5q-5 7 -12 16q-6 9 -7 12v1l-1 1q-3 4 -8.5 13
t-8.5 15q-4 5 -7 14q-4 9 -3.5 13.5t2.5 12.5q14 5 32 9q20 3 30 4q11 0 38 1q26 1 32 1q117 -2 186 -35v-1h1q19 -5 20.5 -22t-17.5 -25l-1 -1q-26 -20 -57 -36q-30 -16 -71 -36q-40 -19 -59 -29q-3 -2 -9 -5l-11 -6q-6 -3 -11.5 -8t-8.5 -9q-4 -6 -3 -13q0 -7 5 -14v-1h1
q14 -9 28 -14q15 -6 37 -13q22 -8 28 -10t19 -7q14 -5 20.5 -8t17.5 -8q10 -5 17.5 -11.5t14.5 -15.5l2 -8q1 -5 1 -9q0 -3 -2 -8q-2 -7 -3 -10t-4 -9.5t-5 -8.5q-1 -2 -6 -9q-3 -6 -5 -9q-58 -85 -136 -133h-1q-13 -12 -30 -9q-15 3 -14 23v0q-5 55 -4 86t5 86q4 56 4 87
q1 56 -26 74l-4 3l-3 -4q-6 -9 -7 -22q-2 -13 -1 -24q1 -10 0 -22v0q0 -30 -3 -87q-3 -58 -3.5 -88t4.5 -87q2 -25 15 -44q13 -20 38 -19h1q18 2 40 14q21 11 32 19l33 27h1q83 77 112 145q9 23 3 47q-6 25 -26 39q-30 23 -92 43q-45 15 -63 22q26 15 87 45q75 37 113 64
q53 38 35 73v1q-10 16 -30 28t-34 16t-39 11v0z" />
    <glyph glyph-name="C" unicode="C" horiz-adv-x="400" 
d="M257 560q-59 0 -114 -81q-81 -119 -98 -279q-13 -127 50 -206q23 -30 58 -45q32 -15 67 -13q80 2 167 102v1q11 16 12 19l9 15l-16 -11q-10 -7 -28 -22q-17 -16 -27 -23q-86 -68 -158 -47q-36 10 -62 44q-25 34 -35 78q-19 85 17 211q40 132 102 193q12 12 25 19
q12 7 28 8q14 1 25 -11q36 -34 34 -128q-5 -19 4 -43v0q5 -10 10 -13q11 -6 20 13h1q16 52 -2 124q-9 38 -32 65q-23 29 -55 30h-2z" />
    <glyph glyph-name="D" unicode="D" horiz-adv-x="400" 
d="M98 559v0q-12 -1 -15 -20v-1v-5q-24 -5 -39 -17q-6 -4 -9 -7q-9 -10 3 -20q11 -10 27 -3q8 2 17 4q-4 -216 -33 -430q-1 -9 -5 -29q-4 -19 -6 -29q-37 -25 -67 -45l-4 -3l-20 -18h13q2 0 6 1h1q27 13 75 38l1 -1q12 -19 25 -5q9 10 10 25q8 4 14 8v0q10 6 46.5 29.5
t53 34.5t42 33t43.5 45q95 114 110 226q6 46 -11 88q-17 43 -54 67q-28 18 -66 22q-36 5 -59 3t-66 -8h-1q-3 -2 -9 -3q-3 7 -8 13q-7 7 -15 7zM121 503q65 15 102 15q21 0 41 -3q37 -6 63.5 -38t26.5 -71q2 -92 -76 -206q-43 -67 -119 -116q-59 -38 -78 -51q4 37 10 100
q7 71 11 105q4 40 7.5 84.5t6.5 100.5q3 52 5 80z" />
    <glyph glyph-name="E" unicode="E" horiz-adv-x="350" 
d="M376 550h-2q-42 0 -121 -10q-73 -10 -105 -12h-1q-2 -1 -5 -1q-4 5 -10 5q-7 1 -13 -4q-32 5 -45 -3l-1 -1q-14 -21 5 -30q12 -6 27 -4q-12 -51 -46 -202q-19 4 -29 -13q-12 -20 9 -31l1 -1l10 2q-11 -48 -20 -84v0q-2 -11 -7 -29q-6 -19 -9 -35q-4 -17 -2 -32
q3 -31 29 -51q26 -21 59 -28q119 -29 231 33l3 1q1 1 3.5 2.5t4 2t2.5 2.5t1 4v6l-16 -2h-1q-44 -16 -131 -27q-89 -6 -135 28q-14 11 -18 29q-4 19 4 36v1q17 59 39 151q70 17 100 21v0q19 4 55 4q37 1 56 4l9 3l-2 5q-5 13 -45 18v0q-58 2 -163 -15q23 98 35 141v0
q1 7 8 28q6 19 7 31q26 2 89 9q69 8 108 8q12 -5 24 0q14 5 17 16q4 11 -7 23z" />
    <glyph glyph-name="F" unicode="F" horiz-adv-x="350" 
d="M376 550h-2q-41 0 -116 -10q-63 -9 -90 -12q-8 11 -18 12q-12 1 -17 -14q-5 1 -14 2q-14 3 -24 2q-12 0 -21 -6h-1v-1q-7 -10 -5 -18.5t13 -12.5q18 -6 36 -1h12q-3 -27 -8 -78q-6 -55 -9 -85l-15 -3q-20 6 -29 -12q-8 -20 10 -31l2 -1h2q11 3 26 7q-17 -145 -39 -246
q-1 -5 -9 -31q-9 -31 -5 -48v-1q4 -9 9 -12q13 -8 25 16q6 9 7 18q32 189 37 226q6 37 13 88q32 9 52 13q18 4 51 5q34 1 49 3h1q5 3 7 6q1 4 0 6.5t-5 4.5t-6 2.5t-7 2.5q-17 5 -23 5q-46 2 -115 -11q13 108 20 159q14 1 69 8q67 7 105 8q12 -6 24 -1q14 5 17 17
q4 11 -7 23z" />
    <glyph glyph-name="G" unicode="G" horiz-adv-x="455" 
d="M357 32q12 18 19 34q-3 -17 -6 -29q-4 -17 -13 -48t-12 -42v0q-2 -10 5 -13q6 -2 11 8h1q43 120 52 173q4 25 -2 46q-7 23 -29 31h-1q-21 5 -63 7q-36 3 -44 4q-17 10 -32 -5q-9 -9 -8.5 -18t10.5 -16l1 -1h31q18 -2 25 -4v0q54 -10 55 -41q-2 -35 -24 -66t-53 -53
q-21 -14 -41 -23q-20 -8 -44 -8q-23 1 -42 12q-33 21 -53 57q-19 36 -23 78q-5 111 67 240q59 103 121 137v0q14 9 34.5 7t28.5 -17q4 -12 6 -25q1 -12 -3 -28q-4 -17 -6 -25q-2 -7 -9 -26q-9 -18 -6 -42q1 -6 4 -10q7 -9 20 2h1v1q27 33 37 99q5 33 -6 62q-11 30 -39 42v0
q-15 5 -31 5q-44 0 -90 -44q-89 -82 -139 -227q-41 -135 -6 -220q19 -43 51 -74q33 -31 74 -33q48 -3 92 24q46 26 79 69zM383 130v-4q-3 12 -9 22v0q-6 7 -14 13q9 -1 15 -6q11 -9 8 -24v-1z" />
    <glyph glyph-name="H" unicode="H" horiz-adv-x="400" 
d="M113 8l5 4q3 4 5 11v1q8 59 15 194q44 11 74 17v0q16 4 77 12q-5 -57 -9 -104q-8 -82 -5 -150v-1l2 -3l3 -11h3q5 1 5 3q4 14 6.5 27t5 28t3.5 25v0q5 82 16 179q2 7 2 12q16 3 29 6l12 4l-4 5q-5 9 -34 11q22 194 35 281q7 14 0 31q-9 19 -22 18q-13 0 -17 -19v-1
q-3 -34 -28 -310q-63 -7 -153 -24q7 128 -11 282q5 21 -14 38q-6 5 -11 7q-15 4 -20 -16l-1 -1q1 -13 7 -47t8 -52q10 -95 11 -217q-43 -8 -54 -9q-21 6 -36 -13q-14 -20 9 -33l2 -1h1q23 5 78 19q-1 -55 -3 -141q0 -7 -2 -25v-8q-3 4 -5 8q-7 11 -15.5 28l-11.5 23l-1 1
l-4 4l-6 10l-4 -8q-3 -6 1 -17q4 -10 10 -23q7 -12 7 -16l1 -1q7 -25 24 -36q7 -5 14 -2z" />
    <glyph glyph-name="I" unicode="I" horiz-adv-x="330" 
d="M269 595q-11 1 -24.5 1t-36.5 -3q-24 -2 -26 -2h-1h-1q-7 -3 -27 -1q-25 3 -31 -7t-1 -23q6 -15 21 -8q23 3 39 4q-5 -34 -18 -152q-3 -29 -15.5 -156.5t-22.5 -196.5v-1v-1v-5l-2 -4l-4 -4q-1 -1 -3 -2q-3 -2 -5 -2q-1 0 -6 -1q-5 -2 -6 -2q-3 -1 -6 -1t-6 -1
q-17 5 -27 -10q-6 -9 -2.5 -15.5t14.5 -9.5h1q19 0 41 2t38.5 4.5t42 7t37.5 6.5q1 0 2 0.5t2 0.5v0q10 3 11 7q1 6 -2.5 7.5t-9.5 1.5q0 1 -1 1v0q-55 -1 -83 -3q3 7 4 15q9 62 22.5 176.5t16.5 143.5q11 85 27 178q3 8 0 18h24q17 -12 27 4q10 14 1 30l-1 3h-3z" />
    <glyph glyph-name="J" unicode="J" 
d="M291 589q-10 7 -25 7q-13 0 -36 -7t-29 -8h-1l-1 -1q-9 -5 -31 -8q-23 -3 -31 -10h-1q-5 -9 -3 -21q3 -15 16 -13h1q7 2 19 6t23 7q7 2 15 5q28 -184 3 -314q-27 -144 -110 -196h-1q-44 -32 -96 -10v0q-29 10 -47 35.5t-17 55.5q1 23 20 41.5t43 21.5h34l-14 10
q-34 21 -80 -15q-20 -14 -28.5 -38.5t-1.5 -47.5q11 -49 55 -78q45 -29 93 -23q44 7 81 40t61 80q60 115 57 309v1q-1 11 -2 33.5t-2 37.5q0 15 -3 35q-3 16 -6 30q7 2 13 2q16 -6 26 3t8 26v3z" />
    <glyph glyph-name="K" unicode="K" horiz-adv-x="375" 
d="M127 544q-9 15 -21 14q-13 0 -17 -18v-1q1 -250 1 -264q-4 -6 -6 -11q-8 -20 5 -24q-3 -74 -10 -136q-1 -8 -4 -24q-4 -17 -5 -26t3 -26v-1l1 -1q15 -19 27 -4q10 12 10 28q1 8 6 87q5 66 7 106q4 -46 30 -93q68 -134 219 -230q2 -2 6 -3q1 -1 4.5 -3.5t5.5 -3t5 -0.5
t5 1q5 6 -7 14q-72 56 -123 111q-92 101 -113 193q-7 27 0 56q117 120 206 217q18 10 21 32q1 10 -4 16t-15 5h-6l-2 -1q-13 -8 -26.5 -18.5t-30.5 -25.5t-24 -22q-6 -6 -28 -27q-22 -22 -31 -31.5t-26 -28.5q-18 -19 -30 -36t-21 -36q-3 -4 -4 -8q-4 -3 -9 -7q0 23 1 80
q1 79 4 122q5 13 -4 28zM364 560v0v0z" />
    <glyph glyph-name="L" unicode="L" horiz-adv-x="350" 
d="M171 515q-2 17 -13 17q-10 -1 -16 -12t-7 -21q-14 -90 -34 -256q-21 -166 -27 -208v-3q-17 2 -30 3q-19 3 -37 -3q-21 -7 -16 -29v-1q9 -19 29.5 -31.5t41.5 -12.5q19 0 29 15q9 12 11 28q86 -6 174 -16v0q10 0 31 -2q22 -3 31 -3t32 3l1 1q10 5 12 13q2 9 -3 18
q-4 8 -9 14t-12 11q-6 5 -11 9l-3 2l-3 -2q-7 -5 2 -17q6 -7 13 -17q4 -6 6 -10q-12 -1 -18 -1q-6 1 -23 4q-16 3 -23 4q-80 10 -192 19q7 47 25 184q19 146 33 225v0q1 7 5 24q3 17 3 25q1 8 -2 26zM53 -9q-11 0 -28 14h1q21 -1 43 -3q-3 -14 -15 -11h-1z" />
    <glyph glyph-name="M" unicode="M" horiz-adv-x="430" 
d="M386 569q-8 0 -17 -9l-1 -1l-1 -3q-7 -15 -12 -35q-6 -20 -8.5 -31t-6.5 -37q-5 -25 -6 -31q-17 -107 -20 -169l-6 -10q-46 -81 -100 -72q-11 6 -22 21q-11 16 -15 24q-3 7 -14 30q-23 55 -39 120q1 87 -23 149l-1 2v1q-6 7 -12 9q-15 8 -24 -17q-7 -20 1 -35
q10 -57 21 -104q-1 -91 -27 -201v0q-4 -22 -19 -68q-15 -45 -19 -70q-2 -9 0 -14q3 -14 12 -8q14 6 27 31l4 8q36 80 53 223q13 -32 26 -60v0q39 -78 83 -75q51 3 93 59q1 -21 2 -41v0q6 -39 21 -85q15 -45 27.5 -73t37.5 -78q7 -13 10 -18v-1l13 -19l3 11q1 4 -8 25
q-3 9 -15 38q-11 29 -15.5 41t-14 37.5t-13.5 42t-9.5 39t-7.5 43t-2 41.5q0 19 1 40q2 4 4 6v1q62 119 64 256q2 18 -3 39q-6 30 -22 28zM381 509q1 -17 0 -21v-2q-6 -82 -30 -152q9 81 28 165v1v1q0 2 2 8z" />
    <glyph glyph-name="N" unicode="N" horiz-adv-x="430" 
d="M344 608q-11 0 -20 -10q-8 -8 -11 -22q-5 -17 -5 -30v-9l9 9q2 2 8 16q4 13 11 22q4 6 8 4q4 -9 6 -20q3 -11 4 -18t3.5 -21t2.5 -19v0q8 -66 11 -108t2 -100.5t-11 -107.5q-21 -112 -87 -147q-13 -8 -26 -5q-14 4 -25 17q-19 20 -35.5 49.5t-25.5 50.5q-8 22 -20 61
q-24 69 -39 135q3 79 -11 132q2 21 -17 34q-11 7 -19 3q-8 -5 -11 -20v-4q2 -47 21 -133q-3 -95 -28 -236q-2 -12 -7.5 -38.5t-6.5 -38.5t2 -39q1 -16 6 -21q8 -7 18 8q11 15 11 30q21 98 34 223q32 -107 74 -176q46 -76 96 -68v0q63 14 101 96q25 59 31 126q7 65 4 147
q-6 114 -34 201q-4 28 -24 27z" />
    <glyph glyph-name="O" unicode="O" horiz-adv-x="430" 
d="M94 381q-15 -14 -27 -30q21 61 52 106q27 40 63 66q35 26 75 26h3q27 0 52 -13t36 -37q34 -66 16 -183q-24 -133 -98 -218q-24 -30 -58 -45q-33 -15 -65 -5q-45 14 -68 89q-7 27 -10 49l8 -10l21 -19l1 -1q6 -2 7 1.5t-1 8.5l-2 4v0q-24 28 -36 61q1 24 10 45v0
q5 17 25 45q19 29 25 46q4 6 6 10q3 14 -10 17v0q-14 2 -25 -13zM327 562q-31 17 -66 17q-60 0 -108 -42q-79 -65 -116 -181q-13 -39 -8 -82q-3 -14 -5 -27v-1q-4 -111 47 -187q15 -25 42.5 -38.5t55.5 -11.5q41 -1 78 26q37 26 65 67q48 68 70.5 148.5t18.5 163.5
q-6 112 -74 148z" />
    <glyph glyph-name="P" unicode="P" horiz-adv-x="350" 
d="M305 550q-41 11 -83 11q-60 1 -116 -22q-20 -6 -33 -23q-12 -17 -14 -37q-5 -20 3 -41q10 -25 32 -18l2 1l1 2q2 7 2 38q1 28 12 38q62 32 149 25q82 -9 99 -59q15 -47 -37 -120q-68 -89 -132 -125q-36 -20 -77 -33q11 113 21 155q12 17 -2 35q-16 21 -28 3q-2 -3 -4 -8
h-1v-1q-13 -67 -22 -194q-34 -8 -70 -12l-20 -5v-4q0 -7 10 -7h1h1h3l1 -1h1q38 -1 72 3q-5 -65 -9 -102v-1q0 -7 -3 -21q-4 -15 -5 -24q-1 -10 4 -25l1 -1q12 -14 25 -4q11 9 11 23q1 37 10 161q33 8 61 21q75 32 151 118q35 40 55 77q21 38 19 79q-2 36 -28 63
q-26 26 -63 35z" />
    <glyph glyph-name="Q" unicode="Q" horiz-adv-x="430" 
d="M449 -8q-2 1 -7 0h-1v-1q-2 0 -12 -4q-10 -3 -13 -4t-12 -5q-9 -3 -13 -4q-4 0 -13 -2q-8 -2 -12 -2h-13q-7 1 -12 3q-6 2 -13 5q-15 7 -25 21t-21 39q-10 20 -14 30q33 28 57 64q86 127 73 255q-4 39 -23 69q-2 78 -49 110v0q-29 18 -65 17q-54 0 -98 -36
q-94 -74 -129 -219v0q-24 -132 7 -236q11 -35 34 -60q25 -26 59 -25h1q56 7 107 41q4 -8 14 -25q14 -25 25 -39t26 -23q47 -30 123 8q8 3 15 8h1l1 1q8 12 2 14zM167 64q22 17 39 17q11 0 19 -8q-14 -9 -28 -15v-1q-2 0 -16.5 -6t-20 -7.5t-15.5 -3.5q-4 -1 -8 -1l4 4
q7 8 13 13t12 7v1h1zM224 539q19 6 37 7q42 0 59 -28q6 -10 9 -21l-12 4q-46 14 -95 -3t-84 -56v0q-13 -18 -17 -27l-8 -26l17 21q38 47 89 63h1q26 11 61 8q32 -4 53 -22q1 -23 -8 -78v-1q0 -2 -1 -11q-1 -10 -1 -16q-1 -7 0 -15q0 -10 4 -15q4 -7 13 -7h3l1 2q16 21 24 68
q6 -39 -4 -88q-29 -133 -113 -205q-8 9 -16 15v0q-40 26 -105 -23h-1q-3 -4 -18 -13q-11 -8 -17 -14q-21 25 -32 85q-20 140 29 249q54 119 132 147z" />
    <glyph glyph-name="R" unicode="R" horiz-adv-x="350" 
d="M160 345q-49 -30 -63 -64q0 2 1 3q2 44 7 105t10 111q1 8 3 19q45 11 80 12q26 1 44 0q17 -2 39 -10q22 -7 36 -22q12 -13 11 -29.5t-14 -27.5v0q-26 -25 -83 -56q-57 -32 -71 -41zM91 164q2 39 4 71q27 -90 99 -167q39 -45 87 -79q49 -34 120 -71l7 -4q14 -6 18 -3l1 2
v2q0 3 -4 8h-1q-17 13 -60 42q-42 29 -62 47h-1q-123 91 -167 213l-1 1q-9 15 -6 35q2 19 16 30v0q28 25 86 57t74 42q72 45 61 97q-6 37 -39 58q-31 20 -68 26q-64 8 -130 -4q0 7 -1 13v0q-7 16 -18 16t-18 -13q-7 -11 -5 -24v-2q-17 1 -36 -22q-7 -9 -8 -15q-2 -13 13 -14
l1 -1h8q9 3 16 6q-7 -77 -14 -215q-7 -145 -12 -210q-1 -10 -4 -28t-4 -27q-1 -11 4 -29v-1l3 -6h2q13 -7 21 1q8 6 10 19q2 10 3 22q0 12 -1 19z" />
    <glyph glyph-name="S" unicode="S" horiz-adv-x="350" 
d="M406 591q-13 2 -24 2q-54 0 -101 -33q-47 -34 -75 -83q-41 -63 -14 -165q7 -31 35 -110q27 -78 32 -123v0q5 -24 -6 -46t-32 -30q-67 -22 -163 -1q-20 6 -34 11t-29 17q-15 11 -21 26q-3 14 4 31q7 18 15 27q8 10 25 27l6 6l1 1q14 12 5 17q-3 2 -12 -4q-68 -46 -71 -98
v-1q0 -55 80 -81q103 -32 194 -10q30 8 50 34.5t19 59.5q0 32 -8 64q-8 33 -23 78l-20 60q-9 31 -13 44t-8 39q-5 25 -3 45.5t9 38.5q22 49 62 82t87 35h1q14 2 43 -7q32 -9 50 -4l4 1v4q0 32 -65 46v0z" />
    <glyph glyph-name="T" unicode="T" 
d="M337 557h-3q-42 0 -120 -11q-70 -10 -105 -12v0q-10 -2 -36 2q-29 4 -39 -5v-1q-16 -21 4 -30q17 -7 34 -2q34 0 83 5q-4 -33 -11 -109q-9 -83 -14 -127t-15 -112q-9 -67 -21 -121q-2 -4 -10 -31q-9 -31 -4 -48v-1q4 -8 9 -12q12 -7 24 13q6 11 7 20q32 189 36 227
q6 41 16 139q11 97 19 149q3 8 1 18q72 8 112 9q12 -6 25 -1q14 5 17 16t-8 23z" />
    <glyph glyph-name="U" unicode="U" horiz-adv-x="400" 
d="M130 570q-13 0 -33 -39l-1 -1q-51 -106 -64 -249q-9 -140 37 -211q24 -38 66 -53q41 -14 77 11q31 23 51 58q20 34 42 85q1 5 3 10q3 -99 31 -184v-1l15 -35l6 5q3 3 -1 18q-27 111 -23 210q1 41 5 87q28 103 45 232q7 16 0 36q-5 13 -13 13.5t-16 -9.5l-1 -1v-4
q-26 -109 -40 -222q-2 -12 -3 -26l-12 -39q-14 -43 -23 -69t-26 -59.5t-37 -57.5q-14 -18 -33 -25t-39 2q-57 21 -71 112q-18 122 30 269q4 12 21 55t19 68v4l-1 2q-5 8 -11 8z" />
    <glyph glyph-name="V" unicode="V" 
d="M416 570v0h-13q-34 -7 -59 -33q-24 -25 -46 -62v-1q-20 -39 -38.5 -89.5t-28 -82.5t-26.5 -94q-6 -21 -17 -63q-11 -43 -21 -75q-9 -31 -21 -60q-1 4 -2 6q-13 67 -19 194q-7 127 -10 156v0q-1 4 -4 25q-2 21 -3 27.5t-5 23.5q-3 18 -6.5 28t-10.5 23q-6 12 -13 22
q-7 18 -34 21q-26 3 -24 -14q0 -4 1 -8l1 -1l1 -1q32 -26 43 -66q10 -39 15.5 -78.5t9.5 -104.5q3 -65 4 -80v-1q1 -7 3.5 -36t3.5 -41t4 -35t7 -40q3 -18 9 -36q4 -21 24.5 -25t28.5 18q10 21 18 44q7 24 16.5 60t11.5 47q2 8 13.5 50.5t15.5 55.5t14 49t17 54.5t17.5 47.5
t22.5 52q11 23 24 46q38 56 74 60h5q1 0 4.5 -1t5 -1h4.5t4 1.5t1 4.5q0 8 -22 13z" />
    <glyph glyph-name="W" unicode="W" horiz-adv-x="430" 
d="M465 569q6 14 14 26q1 1 2 2.5t2.5 4.5t0.5 5t-5 2h-2l-6 -8q-19 -20 -21 -24v0q-15 -26 -28 -56q-13 -31 -22.5 -53.5t-20.5 -62t-14.5 -56t-15 -62.5t-13.5 -58l-12 -47q-8 -34 -14 -58l-2 -6q1 21 3 48q4 53 6 82.5t3 83.5t-2 83v1q-3 18 -4.5 26.5t-5.5 24.5
q-5 16 -12.5 26t-19.5 17v0q-15 6 -29 -1q-13 -7 -20 -15q-7 -9 -16 -22h-1q-29 -47 -55 -111q-4 63 -30 134q-12 32 -39 52q-28 21 -60 13q-18 -2 -22 -8q-6 -8 6 -17q13 -9 32 -11q38 -13 55 -75v0q26 -66 19 -145q-3 -32 -8 -64q-1 -3 -2 -7t-2 -6v0q-52 -151 -65 -216v0
q1 -12 5 -17q8 -11 23 1q17 13 18 30q47 118 63 227q37 108 77 183q3 4 11 19q9 15 16 21q5 5 13 4q5 -4 8 -9q4 -5 7 -15t4 -15t2 -18q2 -13 2 -15q3 -78 1.5 -114.5t-6.5 -115.5q-5 -78 -6 -114q-7 -21 9 -33v-1q19 -11 28 14q8 20 15 44.5t11 40.5t11.5 46.5t10.5 42.5
q10 35 27 113q16 77 33 134q18 57 43 105z" />
    <glyph glyph-name="X" unicode="X" horiz-adv-x="375" 
d="M420 598h-2q-31 -6 -83 -42v0q-63 -55 -135 -154q-16 -24 -31 -47q-17 37 -25 54q-10 19 -30.5 50.5t-42.5 53.5q-11 20 -37 15q-12 -2 -17 -11q-5 -7 -1 -18h1q1 -2 3 -5l1 1l1 -1q33 -14 65 -62q29 -46 60 -111q-82 -122 -129 -234q-4 -10 -6 -18q-9 -40 19 -48
q13 -4 18 4q4 6 3 17v4v0v3q1 11 4 22.5t8 24.5q6 13 10 21.5t12 25t11 21.5q32 65 66 123q10 -22 32 -73q27 -64 47 -105q19 -40 42 -78q10 -15 14 -22q6 -8 19 -17q14 -10 29 -8h1q18 7 12 22h-1q-6 10 -27 28q-20 19 -27 33h-1q-21 36 -41 76q-19 41 -44 101
q-24 56 -33 78q55 89 117 162l36.5 36.5t33.5 29t43 30.5v0q2 2 4 3q3 2 6 5q3 8 -5 10z" />
    <glyph glyph-name="Y" unicode="Y" 
d="M44 594q-13 -5 -18 -13t1 -17q4 -7 10 -12q5 -5 14 -13t11 -10v0q61 -57 95 -147v-1q5 -6 10 -28q6 -21 12 -29q-7 -34 -18 -94q-12 -64 -18 -90q-24 -89 -35 -142v-1q0 -1 -1 -3v-1v0q2 -20 10 -14l2 1l1 4q5 10 30 72v1q13 47 31 135t24 116q9 25 22 50q14 26 35 60
q20 32 28 46h1q3 8 15 27t19 33.5t9 30.5v1q-1 14 -7 20q-6 8 -16 5q-20 -6 -21 -30v-2q-15 -38 -51 -100q-30 -55 -42 -81q-6 11 -7 15v1q-42 108 -89 160l-1 1q-6 4 -22 22q-17 23 -32 27h-1h-1z" />
    <glyph glyph-name="Z" unicode="Z" horiz-adv-x="400" 
d="M281 597q-39 0 -98 -12q-50 -12 -87 -29q-37 -18 -60 -52q-13 -15 -9 -44q2 -9 8 -14q6 -2 16 0l2 1l1 -1q20 46 41 60q67 47 190 54h1h1l4 2q-1 -5 -4 -12q-5 -9 -7 -12q-23 -44 -72 -119q-48 -78 -65 -107q-30 -48 -45 -74t-35 -71q-20 -43 -28 -81q-8 -37 2 -73
q11 -39 41 -59q52 -32 142 -6q120 37 162 114q16 27 11 60q-5 29 -28 49q-4 4 -9 7q-9 6 -13 6t-5 1q0 -3 2 -8q3 -4 4.5 -6.5t3.5 -4.5q11 -13 13 -16v-1q14 -20 11 -43q-3 -26 -20 -45q-62 -67 -158 -90q-77 -16 -111 18q-36 37 -9 119q14 42 39 91q26 47 42 72
q14 24 50 81q12 19 37 58q25 37 44 66q19 30 33 59q10 13 8 30q-1 26 -21 30l-25 2v0z" />
    <glyph glyph-name="bracketleft" unicode="[" 
d="M198 493q-23 0 -37 -10h-1q-7 -8 -12.5 -16t-8.5 -19q-4 -10 -6 -17t-4 -20q-3 -13 -4 -18q-29 -185 -24 -378v-1q1 -4 2 -26t2 -31.5t5 -25.5t12 -29q10 -16 32 -18q20 -2 35 1h1v1q2 0 4 1q4 0 7 2v1l1 1q3 9 -10 10q-6 1 -16 0h-13h-1q-14 -2 -22 11q-9 15 -11 34
q-7 68 3 204q17 169 34 253q1 3 5 19t8 22q3 5 12 7q9 -3 21 2q13 5 17 15q5 11 -5 22l-2 1h-1q-13 2 -23 2z" />
    <glyph glyph-name="backslash" unicode="\" 
d="M66 444q-10 0 -16 -5q-6 -7 -2 -18h1q42 -88 95 -216q69 -164 105 -240l1 -1q7 -10 13 -7t2 15q-9 23 -41 107q-12 32 -44 121q-31 90 -51 138h-1q-2 6 -37 88q-2 9 -9 14q-8 4 -16 4z" />
    <glyph glyph-name="bracketright" unicode="]" 
d="M159 491q-6 0 -12 -1q-21 -1 -21 -18t20 -21h1h7l6 -1q2 -1 7 -2q4 -1 6 -1q2 -2 6 -3q3 -1 3 -2l4 -6q1 -2 1 -4v-8v-1q3 -25 3.5 -55.5t-0.5 -51.5t-3 -58t-3 -53q-15 -166 -36 -278v-1q-1 -17 -13.5 -28.5t-28.5 -9.5h-1h-1q-15 -3 -15 -9q0 -9 23 -8h2q20 0 35 14
q14 14 18 34q19 78 47 260q14 109 14 204q0 4 -1 21.5t-2 24.5q0 8 -4 20.5t-11 22.5v0q-18 19 -51 19z" />
    <glyph glyph-name="asciicircum" unicode="^" 
d="M175 489q-10 0 -17 -6q-13 -9 -39 -45v-1q-4 -6 -12.5 -18.5t-15.5 -22.5t-14 -17q-15 -16 -5 -29q4 -8 12 -12q10 -4 18 5v0q12 17 32.5 49.5t29.5 46.5q6 9 12 15q5 -5 13 -17q12 -20 35 -59t34 -57v-1q7 -6 12 -3t3 11v1q-9 19 -26 54t-22 45q-2 4 -5.5 12.5
t-6.5 14.5q-3 5 -7 12q-5 7 -9 12q-9 10 -22 10z" />
    <glyph glyph-name="underscore" unicode="_" 
d="M269 -16q-18 0 -51.5 -1t-47.5 -1q-51 1 -133 -6h-1q-5 -1 -10 0q-7 1 -14 0t-12 -9q-6 -7 -4 -19q2 -14 14 -15h1h1q102 12 107 13q24 2 91 10t105 10h1h1q6 2 6 8t-6 8h-1h-1q-21 2 -46 2z" />
    <glyph glyph-name="grave" unicode="`" horiz-adv-x="215" 
d="M91 537q-6 0 -10 -2q-12 -5 -11 -16v0q4 -16 28 -102q6 -20 19.5 -61t19.5 -60l1 -1l1 -1q5 -4 7 -4q6 0 7 7l1 1v1v2q-3 19 -12 59q-8 39 -11 60q-3 18 -7.5 40t-7.5 36q-3 13 -3 15q0 20 -7 23q-5 3 -15 3z" />
    <glyph glyph-name="a" unicode="a" horiz-adv-x="350" 
d="M238 405h-5q-44 0 -83 -23q-42 -22 -69 -61q-37 -51 -49.5 -115.5t-0.5 -129.5q5 -30 20 -55q16 -25 43 -33q55 -15 113 41q39 39 64 91q4 -45 14 -82q21 -69 60 -82h1q15 -3 27 1l20 8l-22 2q-26 2 -40 20q-10 16 -17 38q-6 23 -8 38t-4 43q-3 44 -3 86q17 55 19 112
q3 18 -2 35q-3 11 -11.5 12.5t-16.5 -5.5l-1 -1l-1 -2q-3 -10 -5 -20.5t-4 -30.5q-2 -16 -3 -20v-1v-1q-3 -38 -4 -67q-28 -98 -92 -157q-46 -38 -81 -22q-27 15 -35 77q-6 59 9 114q15 56 52 97q43 52 117 50v0q38 1 53 16l2 3l-2 3q-2 5 -6 8q-3 3 -8 5q-4 3 -7 4t-9 2
t-9 1h-8q-6 1 -8 1z" />
    <glyph glyph-name="b" unicode="b" horiz-adv-x="350" 
d="M218 345q20 12 43 12q14 0 27 -5h1q15 -4 22 -20q8 -18 7 -39q-4 -38 -27 -71q-24 -34 -60 -70q-54 -53 -111 -86q-13 -5 -25 -11q1 5 1 8q3 12 5 16v1q12 57 22 124q29 64 62 109v0q13 20 33 32zM161 631q-4 18 -12.5 18t-15.5 -17q-5 -14 -5 -24q-30 -310 -38 -370
q-2 -11 -5 -34q-28 -66 -46 -139q-2 -9 -3 -19q-2 -10 -1 -21q1 -13 9 -19q8 -7 23 -1l1 1h1q3 4 7 9q5 1 11 5q22 11 44 23q33 14 195 67l15 5q14 5 18 8l10 11l-15 -2q-19 -3 -37.5 -7t-46.5 -11q-27 -7 -35 -9v0q-2 -1 -28 -8q42 35 79 75q79 86 59 163q-7 32 -38 48
q-30 14 -62 9q-57 -6 -106 -85q-2 -2 -3 -5q4 39 11 96q10 78 12 108q1 8 5 38q3 30 2 49q0 20 -5 38z" />
    <glyph glyph-name="c" unicode="c" horiz-adv-x="350" 
d="M182 411q-38 -1 -83 -55q-45 -56 -62 -128q-18 -71 -4 -140q15 -71 60 -94q58 -31 134 11q67 32 125 111l1 1v1q1 1 1 2q3 5 4 9q4 6 -3 9l-3 2l-2 -2q-9 -8 -27 -28q-17 -16 -27 -23v0q-6 -5 -20 -15t-22 -16t-19 -14q-11 -7 -20 -12q-65 -34 -111 -7q-32 21 -42 94
q-7 58 12 116q18 60 58 105q33 35 55 31q3 -2 8 -7q7 -6 12 -10q7 -5 14 -4q8 0 13 7l1 1v-1q0 21 -14 37q-13 15 -30 18q-4 1 -9 1z" />
    <glyph glyph-name="d" unicode="d" horiz-adv-x="375" 
d="M368 595q-8 0 -14 -8q-6 -7 -7 -19q-52 -227 -70 -317q-20 -70 -45 -124q-30 -69 -87 -92h-1q-16 -11 -40 -9q-24 3 -32 23q-26 54 9 136q47 107 123 138q11 5 37 7q26 3 41 9l2 1l1 -1q7 21 -18 29q-19 6 -37 3q-87 -11 -157 -123q-65 -107 -40 -194q7 -27 29 -44
q22 -18 48 -16q38 3 70 24t54 53q9 15 18 33q-6 -44 -10 -85q-6 -23 9 -38q16 -14 35 1q19 16 37 41q17 24 27 42q9 17 24 48v1q2 6 3 11l2 9l-8 -2q-6 -2 -13 -14q-7 -9 -15 -21q-7 -12 -12 -17v0q-6 -8 -18 -23t-21 -27q-10 -12 -19 -21h-1q-1 -2 -3 -4q0 8 1 23
q25 187 101 469v0q1 7 6 22t7 27q3 12 2 24q-1 25 -18 25z" />
    <glyph glyph-name="e" unicode="e" horiz-adv-x="375" 
d="M219 374q2 1 4 1q6 0 7 -4q1 -7 -2 -14q-3 -8 -8 -13v-1q-33 -45 -86 -81q14 30 30 58q10 16 16 24q5 8 17 18q11 9 22 12v0zM248 401q-12 8 -26 8q-10 0 -18 -3q-25 -10 -42 -32t-37 -55q-21 -40 -35 -82q-7 -3 -19 -9q-15 -7 -24 -13q-10 -7 -16 -17v0q-4 -10 1 -16
t16 -5q16 0 27 7q1 1 3 2q-6 -36 -5 -69q4 -65 40 -84q53 -30 125 1q87 35 141 138l3 6q3 5 3 9q1 5 -2 8l-4 4l-3 -5q-2 -3 -14.5 -19t-17.5 -22q-5 -7 -15 -17l-18 -18q-65 -55 -111 -65q-54 -13 -81 13q-15 19 -15 68q2 34 10 70q69 39 118 99q12 14 17 22q5 9 11 23
q5 15 4 29v1q-3 15 -16 23z" />
    <glyph glyph-name="f" unicode="f" horiz-adv-x="270" 
d="M200 506q4 -54 -9 -109q-16 -61 -48 -115q-6 -9 -14 -23q32 127 65 226v3l-1 1v1l2 8l4 6zM207 568q-16 0 -26 -18q-10 -15 -17 -40q-8 -24 -10 -28v-1q-43 -140 -81 -314q-9 -20 -15 -36v-1q-5 -22 2 -28q-14 -64 -28 -138q-3 -16 -10.5 -57t-10.5 -60.5t-8.5 -56
t-8 -60.5t-5 -56t-2.5 -60q-4 -28 11 -51q18 -31 44 -6v1q10 9 18.5 19.5t17.5 24.5q8 13 13 21t14.5 24.5t12.5 22.5q80 144 37 244q-4 15 -27 46q-21 28 -19 45q9 13 19 24q12 11 28 22q17 12 27 19t31 19.5t28 16.5h1q3 2 10 7q9 5 14 9q11 10 5 17l-2 2l-3 -1
q-107 -47 -167 -105q-17 -12 -19 -27q-2 -16 3 -29q6 -11 17 -29q12 -18 16 -25q24 -43 24 -88q0 -48 -21 -95q-38 -91 -94 -159q-5 -14 -7 4q-1 4 -1 13v32q1 28 3.5 56.5t7 63.5t7.5 55t11 63t10.5 55t12.5 62.5t11 56.5q11 52 20 93l2 3q30 45 48 74q18 32 40 76
q23 42 34.5 84t12.5 84v50q0 11 -3 25t-9 25v5h-2q-9 4 -16 5h-1z" />
    <glyph glyph-name="g" unicode="g" horiz-adv-x="350" 
d="M64 -204q77 128 196 246q-13 -111 -38 -208q-23 -78 -49 -135q-27 -56 -70 -95q-10 -8 -21.5 -13t-23.5 -6t-20 5t-11 19v1q-28 72 37 186zM294 396q-27 15 -60 14q-36 0 -74 -18q-56 -29 -89 -91q-34 -61 -39 -134q-5 -107 36 -154q16 -19 41 -22q22 -4 43 3q20 6 37 20
q46 33 78 88q-1 -15 -3 -29q-138 -124 -210 -238q-38 -59 -56 -113q-18 -55 -4 -108q6 -26 23 -45q17 -20 43 -14q43 5 74 36q29 31 56 79q42 82 65 177q25 97 41 219l2 14l26 23q18 15 32 26l22 17l-26 -8q-15 -5 -52 -32q3 31 6 84q15 46 20 94v1q0 3 0.5 10.5t1.5 13.5
q1 7 1 15.5t-1 14.5q-1 7 -5 13q-4 8 -12 7q-6 -1 -14 -3h-3l-1 -3q-6 -13 -9 -29t-5 -40t-3 -30v0q0 -25 -2 -47q-41 -126 -122 -171v0q-17 -10 -38 -5t-29 24q-36 84 4 193q17 48 54 83q37 34 83 38h1h1q5 2 22 3q19 1 32 4q17 4 15 17v2z" />
    <glyph glyph-name="h" unicode="h" 
d="M121 649q-8 0 -15 -19q-5 -14 -4 -24q-2 -22 -8 -86q-6 -65 -9 -96.5t-8 -83.5q-6 -53 -12 -97l-12 -86q-21 -53 -36 -107q-8 -13 -5 -34q1 -15 9 -20h19h1l1 2q6 8 12 18q6 11 8 19q2 7 5 22q4 12 5 16h1v2q8 40 16 84q7 17 17 42q20 42 29 61q8 18 26 48.5t38 50.5v0
q8 14 23 14q13 0 17 -18v0q16 -45 4 -130q-4 -19 -19 -73q-14 -55 -17 -87q-4 -22 3 -42q7 -29 31 -17v0q11 6 19 13l18 18q10 11 13 15t15 21l12 16l34 61l-28 -31q-10 -10 -28 -31q-19 -22 -29 -31h-1q-27 -28 -35 -28q-1 4 0 13q2 18 6.5 41t8.5 37l12 45q8 29 11 39v0
q18 97 -1 158q-6 21 -24 34q-18 15 -36 5q-6 -2 -12 -5q-6 -4 -12 -9l-8 -8q-5 -4 -10 -12q-6 -7 -8 -9q-2 -3 -8 -14q-6 -8 -8 -11q-3 -5 -7 -12q-1 -2 -5 -8l-2 -2q-12 -20 -23 -41q7 47 15 119q11 97 15 129q0 7 3 33t3 43q-1 19 -8 37q-3 16 -12 16z" />
    <glyph glyph-name="i" unicode="i" horiz-adv-x="190" 
d="M128 409q-10 0 -16 -15v0q-9 -52 -28 -180q-2 -10 -5.5 -38t-4.5 -38t-4 -38t-3 -38q1 -10 1 -38q-3 -21 11 -30q15 -8 28 9q48 48 99 115v1l1 2l1 3q1 4 2 6q0 2 -0.5 4.5t-3.5 3.5q-4 2 -11 -6q-53 -61 -90 -98l-1 -1l-1 1q0 -2 -2 -4q-3 -3 -6 -5q0 16 2 50
q4 29 10 62t13 73q7 41 11 63q7 44 19 96q5 12 -2 25q-8 15 -20 15zM130 502q-6 0 -14 -6q-6 -3 -9 -7q-11 -11 9 -30q4 -4 10 -12t13 -13q7 -6 16 -8h1q4 0 7 2q2 1 3 2.5t1 5.5v8l-1 1q-15 19 -25 40q1 17 -11 17z" />
    <glyph glyph-name="j" unicode="j" horiz-adv-x="245" 
d="M143 409q-15 0 -15 -27q0 -21 1 -71.5t0 -78.5q-9 -182 -40 -294q-16 -55 -38 -95t-59 -63q-13 -8 -27 -12q-13 -4 -28 0q-14 3 -23 16q-31 46 -5 131v2q0 2 1 6q2 7 2 11v11l-9 -11q-14 -16 -24 -65v0q-5 -36 4 -69q9 -36 39 -52v0q48 -19 107 27q41 35 64 85
q22 49 40 116q28 119 35 268v0q0 9 1 68q2 59 -2 70q-2 11 -8 18q-8 9 -16 9zM128 501q-10 0 -22 -13l-1 -1v-6q0 -13 16 -29q16 -17 33 -26l2 -1l2 1q11 5 8 13q-1 9 -7 17q-4 5 -9 12q-5 6 -6 9q-1 26 -16 24z" />
    <glyph glyph-name="k" unicode="k" 
d="M198 302q21 27 44 43q-17 -18 -44 -43zM135 594h-1q-8 -2 -13 -14v-1q-4 -21 -7 -62q-3 -39 -5 -54q-21 -186 -56 -342q-34 -70 -37 -110v-1q1 -12 7 -18t16 -3h1q18 7 21 26q1 2 1 5q15 45 28 100q16 31 34 57q11 -41 53 -100v0q77 -94 161 -124h1q21 -4 30 -3l23 3
l-23 7q-68 21 -133 92q-24 28 -35 43t-27 42q-15 27 -22 52h-1q-4 12 -1 28q4 5 8 9q9 8 35 33q28 25 45 42q17 16 33 36q20 12 19 36q0 13 -7.5 18.5t-19.5 2.5q-2 0 -6 -2q-43 -15 -92 -82v0q-29 -44 -37 -67q-10 -10 -18 -21q6 32 15 83q3 15 10 56t9.5 62.5t6.5 54.5
t5 61q1 11 -4 31q-7 24 -17 24z" />
    <glyph glyph-name="l" unicode="l" horiz-adv-x="240" 
d="M168 618q-12 0 -18 -17q-7 -14 -12 -29.5t-11 -38.5t-8 -30q-52 -219 -69 -384v0q0 -2 -1 -26q-2 -25 -2 -33t2 -26t6 -31v-1q8 -21 30 -28q20 -6 38 3q79 31 130 131l1 1q4 12 4 14l14 29l-22 -21q-5 -6 -21 -30q-16 -21 -27 -31q-5 -4 -21 -18q-17 -16 -24.5 -22
t-21.5 -15t-26 -13h-1q-14 -8 -22 8q-10 13 -8 32v0q-2 72 26 226q35 174 66 267v0q1 8 9 25q8 18 10 26v0q2 16 -3 23q-6 11 -18 9z" />
    <glyph glyph-name="m" unicode="m" horiz-adv-x="590" 
d="M151 412q-48 0 -88 -59v-1q-1 -2 -6 -10q-4 -9 -7 -14.5t-5 -13.5q-3 -9 -2 -16q2 -4 7 -7l3 -2l3 2q14 9 34 32q19 23 27 29v0q16 14 26 18q7 5 9 -6q1 -9 1.5 -17.5t0.5 -14.5t-1 -16q-2 -10 -2 -16l-3 -15q-3 -12 -3 -16q-1 -4 -4 -17q-3 -12 -3 -14h-1v-1
q-15 -55 -27 -89q-19 -33 -38 -70q-21 -31 -17 -49v-1q5 -20 24 -13l1 1l1 1l11 11q5 6 8 10q4 5 9 14q4 8 6 11.5t6 13.5q5 10 5 12h1q10 27 19 52q5 7 11 15q43 70 83 120q38 49 85 84q-1 -9 0 -14q-9 -47 -35 -133q-26 -88 -30 -101q-3 -9 -4.5 -14.5t-2.5 -14.5
q-1 -14 6 -20q6 -7 18 -4l1 1l1 2q9 11 18 23t19 28q9 17 15 26q5 6 20 29q16 23 22 31.5t21 28.5l22 33q9 11 22 26.5t25 28.5t24 25q3 1 6 3q4 4 6 5.5t6.5 4.5t6.5 4q2 2 6 4q3 1 5 1h7q1 0 3 -3q2 -1 3 -3q0 -15 1 -21q1 -4 -2 -15q-3 -13 -4.5 -18t-5.5 -17.5t-6 -16.5
q-38 -104 -31 -194q2 -35 19 -65q18 -31 50 -39q27 -9 41 2l15 9h-18q-40 0 -60 24q-33 37 -21 127q5 35 25 96q20 63 25 88q12 60 -21 73l-1 1q-15 4 -32 -2q-16 -6 -25 -14q-9 -6 -23 -18v-1q-17 -16 -35 -36q-17 -20 -29 -34q-12 -16 -31 -45q-19 -26 -26 -36t-29 -42
q-4 -6 -9 -13q5 17 12 38q15 47 25 84q10 36 16 69q6 16 0 36q-6 28 -28 22h-1q-9 -4 -17 -9q-7 -5 -16 -12q-8 -7 -12 -10q-5 -3 -15 -14l-12 -12q-39 -41 -75 -91q9 40 13 78v0q4 69 -29 81l-1 1q-7 1 -12 1z" />
    <glyph glyph-name="n" unicode="n" horiz-adv-x="375" 
d="M173.5 401.5q-10.5 8.5 -22.5 7.5q-4 0 -8 -1q-49 -6 -92 -73v0l-1 -1q-10 -23 -10 -34q1 -14 14 -13h5l1 1q12 10 37 40q24 30 44 37v1h1q7 5 9 1q4 -6 3 -17v0q1 -57 -26 -151q-39 -68 -68 -135v-1v-1q0 -2 -2 -6l-3 -7q-1 -3 -2 -8t-1 -9t1 -8q2 -5 6 -9q4 -2 9 -3
l1 -1l1 1q6 1 11 4t10 8q4 5 6 9t6 10t5 8q34 65 58 149q17 32 36 63q17 24 25 35.5t24 29.5t32 27v1q9 6 20 3q8 -3 7 -13v0q0 -19 -4 -38q-5 -19 -15 -47q-10 -29 -13 -38v0q-29 -115 -12 -184q7 -29 28 -50t50 -22q17 0 26 3l26 10h-28q-2 0 -15 2q-21 2 -37.5 15.5
t-22.5 33.5q-2 6 -3.5 15l-2.5 15q-1 5 -1 16v15q0 4 1 16q2 13 2 16q0 2 2 16t2 16q4 32 34 119v0v1q0 2 3 13q4 11 5 16l3 15t2 17q0 6 -1 14.5t-3 16.5v0q-9 20 -31 22q-21 3 -35 -7q-19 -11 -37 -30t-28 -32q-8 -10 -19 -27q8 56 1 85q-3 14 -13.5 22.5z" />
    <glyph glyph-name="o" unicode="o" horiz-adv-x="375" 
d="M190 359q13 7 27 7q32 0 53 -23q25 -26 36.5 -62t9.5 -73q-9 -64 -61 -123q-44 -50 -81 -44q-23 6 -43 27q-20 22 -28 51q-2 8 -3 14l15 30l-18 -18q-8 38 -4 62v1v4q1 4 1 6v4q0 4 -1 7q0 3 -1 6q0 4 -2 6q-1 3 -2 4l-3 4q3 4 5 9q47 78 100 101zM283 372q-27 24 -65 24
q-25 0 -47 -14q-67 -35 -117 -133q-36 -71 -16 -118q8 -19 25 -23q8 -23 18 -42v-1q17 -30 46 -51q28 -21 57 -20q55 4 108 74q56 76 57 148q-1 45 -17 86q-17 42 -49 70z" />
    <glyph glyph-name="p" unicode="p" horiz-adv-x="350" 
d="M112 319q84 52 136 52q8 0 16 -1q17 -2 28 -15q11 -12 7 -28q-5 -24 -18 -50q-14 -26 -26 -42q-11 -15 -32 -43q-87 -103 -165 -145q-4 0 -7 -1q5 32 14 88q12 66 17 101q2 13 6 38q4 23 6 33q4 3 18 13zM91 406h-8q-9 0 -15 -14q-5 -11 -7 -28q-3 -17 -4 -21
q-2 -9 -5 -30q-21 -18 -31 -37l-1 -1v-1q2 -90 -3 -184q-1 -14 -2 -29q-15 -101 -24 -167q-2 -15 -6 -42t-5.5 -42.5t-3.5 -42.5q-3 -28 -2 -43q0 -15 2 -42v-1l1 -1q6 -11 12 -14q14 -8 26 16q8 18 6 35q16 142 24 288q7 -1 17 4q146 45 260 98q9 1 32 20h1l10 11h-12
q-3 0 -11 -4q-76 -34 -203 -73q46 39 98 101v0q26 32 39 50q14 18 30 49q17 31 23 60q5 29 -13 52.5t-47 26.5q-43 5 -85 -10q-40 -15 -87 -44q1 31 -5 56z" />
    <glyph glyph-name="q" unicode="q" horiz-adv-x="350" 
d="M261 -72q6 34 11 58q6 -11 24 -40q20 -33 27 -54q31 -88 -41 -217q-5 -7 -16 -25q-10 -18 -16.5 -28t-15.5 -23q-8 -11 -15 -20l-2 6q-1 9 0 26t1 19q3 45 11 101q7 55 13 94q7 38 19 103zM272 406q-19 4 -38 4q-46 0 -90 -29q-47 -30 -72 -78q-32 -58 -39 -125.5
t13 -130.5q11 -33 42.5 -49t62.5 -5q60 22 107 95q-9 -51 -27 -156q-22 -135 -31 -209q-1 -11 -4 -37.5t-5 -41.5q-1 -15 -0.5 -37t3.5 -40l1 -1q8 -24 25 -18q14 5 25 18q12 12 19 25q30 45 48 77t34 78t17 89q0 29 -12 60q-12 30 -24 50q-13 19 -34 49q-16 49 35 107
q8 10 17 17q10 7 12 10q3 13 -13 6q-5 -2 -10 -5v-1q-4 -2 -6 -5q-25 -20 -39 -43q8 49 16 107q26 77 22 149v2l-2 1q-7 8 -14 9q-11 1 -17 -10t-8 -32v0q0 -5 -1 -13q-1 -3 -1 -7q-4 -38 -9 -82q-14 -41 -35 -76q-52 -91 -112 -101q-21 -3 -36 15q-15 19 -18 44v0
q-12 70 7 137q18 68 67 110q13 12 30 20q19 9 29 11q11 3 38 7q29 4 35 5q21 0 19 13q-1 11 -20 16q-4 1 -7 1z" />
    <glyph glyph-name="r" unicode="r" 
d="M95 363q-6 10 -14 10q-9 0 -14 -10q-4 -8 -2 -17q1 -15 4 -47q4 -32 6 -56t2 -47q-1 -34 -3 -64q-7 -14 -13 -30v-1v-1q-1 -2 -3 -9q-4 -8 -5 -11q0 -1 -3 -10t-3.5 -11.5t-2.5 -10.5q-2 -10 -2 -13t-1 -9q-2 -11 0 -15v-7v-1q0 -19 17 -20t23 14q18 40 29 123v1
q0 5 1 11q23 54 57 101q33 54 80 73q13 6 45 14q31 8 47 15v1q8 6 11 10q6 10 -4 15q-22 11 -67 -1v0q-78 -30 -113 -74q-28 -32 -53 -73q0 37 -4 92q0 5 -1 15q-1 9 -2 15q0 6 -4 14q-3 8 -8 14z" />
    <glyph glyph-name="s" unicode="s" 
d="M237 420q-21 0 -41 -9q-24 -10 -42 -30t-20 -48q-2 -7 0 -19q1 -12 0 -17q0 -6 3 -17q3 -12 5 -17q1 -6 5 -18q3 -12 5 -17t6 -16q5 -10 7 -16q1 -6 10 -28q8 -21 12 -31q3 -11 7 -29q4 -16 4 -30v-1q1 -17 -8 -31q-10 -13 -23 -18q-70 -26 -128 8q-14 9 -19 28
q-5 18 1 34v0q0 1 1 5t1 5.5v4.5q0 1 -2 1h-5q-9 -3 -16 -23q-1 -3 -1 -6q-5 -22 4 -43q10 -23 30 -35q34 -20 93 -18v0q64 7 89 42q25 36 3 110q-4 11 -28 71q-21 60 -25 93v1q-2 17 3 33q6 17 18 25v0q46 29 78 7q4 -4 10 -13q7 -8 14 -14q8 -5 18 -7h2h1q12 5 10 16
q-1 12 -6 21q-4 8 -11 17q-23 29 -65 29z" />
    <glyph glyph-name="t" unicode="t" horiz-adv-x="375" 
d="M247 602q-9 13 -23 13t-22 -15q-6 -10 -12 -21.5t-10 -19.5q-3 -8 -9 -23l-7 -21q-3 -6 -8 -24l-7 -21q-10 -36 -17 -68q-41 -8 -94 -22q-21 6 -33 -13q-8 -10 -5 -19t15 -14h1h2q16 4 46 13t42 12q5 2 17 4q-25 -110 -25 -202v0q2 -28 4 -46q2 -17 11 -41t25 -39h1
q46 -36 134 -11q79 25 120 77v1q4 7 6 13l1 8l-8 -2q-4 -2 -21 -17q-16 -15 -24 -17l-1 -1q-64 -32 -114 -41q-67 -11 -87 28q-14 32 -16 76t4 78v0q8 74 25 146q108 28 177 26q11 0 11 7q0 6 -8 10h-1q-52 7 -133 -3q-17 -2 -36 -5q16 59 38 114v0q3 9 13 28q7 12 10 19
q15 -8 20 4q8 16 -2 29z" />
    <glyph glyph-name="u" unicode="u" horiz-adv-x="375" 
d="M77 398h-1q-8 -1 -14 -13q-20 -32 -37 -111q-23 -129 11 -212q14 -35 45 -57.5t67 -21.5q57 0 94 71q14 25 25 56.5t17.5 54.5t16.5 61q2 9 4 17q0 -35 2 -64q4 -60 28 -114q24 -53 67 -88q4 -3 9 -5q12 -9 16 -3q1 2 1.5 3.5t-1.5 3.5t-2.5 3t-3 2.5l-2.5 1.5
q-53 51 -70 131v1q-26 97 -6 234q5 12 3 30q0 11 -7.5 14t-16.5 -3h-2l-1 -2q-19 -43 -38 -113q-2 -7 -13.5 -49.5t-16.5 -58t-17 -45.5q-11 -30 -24 -51t-33 -34q-19 -13 -40 -9q-26 4 -45 23q-20 20 -27 46q-27 86 8 203q2 5 10 30q8 24 9 39q2 10 -2 19q-5 10 -13 10z
" />
    <glyph glyph-name="v" unicode="v" 
d="M260 350q-2 5 4 8q1 -4 1 -14q-3 3 -5 6zM54 404q-7 6 -14 6q-11 0 -14 -13q-2 -11 3 -21q19 -50 22 -116q8 -171 25 -252q12 -53 46 -53v0q15 1 28 11q11 9 16 17q4 6 14 23h1q44 80 87 216q16 56 21 84l8 -4q10 -5 13 -5q16 -5 18 -5h14l-11 9q-6 5 -12.5 9.5
t-16.5 10.5l-10 6q2 18 2 34q2 17 -11 28t-28 1q-14 -6 -20 -19q-7 -14 2 -28v0q10 -12 24 -23q-14 -80 -57 -193q-13 -31 -19.5 -47t-19.5 -41q-13 -24 -28 -41v-1q-6 -10 -15 -8q-9 3 -10 16v0q-9 37 -17 125q-3 24 -4.5 98t-8.5 114q0 3 -3 13q-2 11 -3 14.5t-4 11.5
q-4 9 -9 14z" />
    <glyph glyph-name="w" unicode="w" horiz-adv-x="510" 
d="M450 437h-1q-28 -1 -49 -48q-6 -16 -7 -28v-5h5q2 0 3.5 1t2.5 2t1.5 3t0.5 3q4 6 7 14q3 7 6 9v1l1 1q3 9 12 17q7 8 15 8q7 0 10 -10t5 -21q1 -11 2 -23t1.5 -20.5t0 -24t-1 -21.5t-1.5 -23.5t-1 -21.5q-15 -143 -86 -212q-1 -2 -5.5 -6t-6.5 -6t-7 -5.5t-8 -5.5
q-2 -2 -6 -3q-4 -2 -7 -3q-4 0 -8 -1q-3 0 -7 1q-3 2 -6 5l-7 7q-2 2 -5 7t-4 8t-3.5 9t-2.5 8q-1 3 -3 11q-1 7 -3 10q-4 22 -8 48q-3 27 -4.5 44.5t-3 51t-1.5 44.5v98q6 17 -6 32q-6 7 -12.5 5.5t-11.5 -9.5v-1q-2 -6 -4 -15l-11 -3h10q-5 -17 -11 -43q-9 -41 -15 -62
q-13 -43 -19 -62t-21 -52q-14 -33 -31 -56q-11 -15 -26 -20q-13 -5 -29 3q-30 24 -31 93q2 101 54 176l1 1v1l4 7q1 1 2.5 3t2.5 2l3 3q5 6 7 9q1 3 3 6q4 7 -3 11q-3 2 -11 3h-1h-1q-17 -3 -32 -16q-14 -12 -21 -25q-7 -12 -16 -31q-44 -108 -26 -207q6 -32 25 -57t49 -30
q51 -6 90 64q32 60 58 160q1 -40 3 -72q0 -3 2 -18q1 -14 1 -18t1.5 -17t2.5 -19q1 -5 3 -16q1 -12 3 -19l3 -16q3 -11 5.5 -18t6 -16t6.5 -16q10 -21 30 -32t40 -2q67 31 108 124q54 132 33 278q0 3 -2 11q-1 8 -2 12q-1 2 -3 9q-2 8 -5 12q-2 3 -6 8t-9 8t-11 4z" />
    <glyph glyph-name="x" unicode="x" 
d="M266 408q-8 0 -17 -8q-8 -8 -11 -15q-16 -32 -77 -151q-31 -58 -46 -83q-18 51 -30 126q-4 28 -5 85q3 22 -16 31q-10 3 -17 1q-8 -5 -9 -19v0v-5q3 -89 25 -173q15 -52 29 -85q-17 -28 -35 -51v0q-2 -3 -14 -15q-13 -11 -16 -20q-5 -27 16 -29q18 -2 25 16q23 27 45 62
q14 -21 30 -36q20 -21 47 -27t52 5q30 14 52 40q22 25 45 62v0l2 3v0v7q1 4 -1.5 7t-6.5 0h-1q-8 -8 -18 -24q-11 -15 -16 -21h-1q-46 -54 -85 -56q-41 -1 -74 58l-6 12q12 22 43 81q8 15 24 47q16 33 29 59q13 24 26 45v0q3 6 10 15q8 8 13 16q5 9 4 17q0 23 -15 23z" />
    <glyph glyph-name="y" unicode="y" horiz-adv-x="375" 
d="M86 391q-9 -1 -21 -17q-11 -14 -14 -25q-41 -98 -37 -220q3 -45 14 -77q12 -35 43 -51v-1q45 -15 88 9q41 22 68 64q39 61 61 133q-1 -60 -11 -138q-7 -45 -15 -89q-39 -57 -69 -110q-76 -151 -107 -268q-11 -29 12 -39q22 -11 36 16q57 79 111 229q32 91 51 179
q31 46 69 96v1l1 2q1 2 6 8q5 8 9 14q5 8 2 12l-4 4l-4 -4q-38 -44 -70 -83q21 127 13 245q-5 54 -13 64q-11 -20 -28 1l-2 -2v-5q-7 -79 -16 -109q-39 -135 -105 -183q-13 -9 -28 -13t-31 0q-15 3 -23 16q-16 30 -18.5 72t2.5 74v1q3 34 18.5 93t18.5 74q2 8 2 12
q0 15 -9 15zM245 -94q-42 -165 -120 -291l-6 -8q20 80 68 188q26 54 58 111z" />
    <glyph glyph-name="z" unicode="z" horiz-adv-x="350" 
d="M271 408q-12 1 -26 1q-27 0 -76 -5h-2q-2 -1 -7 -2q-79 -13 -113 -37q-14 -9 -20 -26q-6 -18 7 -33l2 -1h1q12 -2 26 16q11 14 17 16h1v0q48 25 143 33h1q5 1 20 2h10q-8 -21 -14 -29v-1q-25 -43 -86 -126q-61 -85 -88 -131v0l-6 -12t-7 -12q-1 -3 -6 -13t-5 -15
q0 -2 -2 -12q-3 -11 0 -17q6 -26 42 -26q89 -2 184 32v0q55 23 73 54v1q10 18 2 36q-8 17 -24 27q-10 5 -17 8l-9 4l2 -10q2 -5 12 -15q9 -7 11 -10v-1l1 -1q8 -9 5 -21t-14 -19v0q-21 -13 -75 -33q-89 -26 -158 -20q-4 0 -5.5 2.5t-0.5 6.5q2 6 4 10.5t5 11t5 10.5
q11 21 27 45t27.5 40.5t33.5 45.5q21 29 30 42q5 6 22 29.5t24.5 35t19.5 30.5q11 19 19 36q8 14 5 30q-3 19 -20 23h-1z" />
    <glyph glyph-name="braceleft" unicode="{" 
d="M215 492q-41 -9 -63 -43v-1q-32 -56 -38 -141q-3 -54 -41 -70q-22 -2 -24 -22t18 -28q44 -33 35 -106v-1v-47q-1 -23 2.5 -49t11.5 -48q9 -22 28.5 -36t43.5 -14h2l20 5l-6 7q-4 3 -12 4q-39 4 -50 30q-14 28 -16 69q-2 42 1 73q7 38 -2 76q-9 35 -35 58q21 11 35 27
q19 24 26 76q8 51 11 59l6 18q5 15 7 22q2 6 9 15q5 8 12 13q19 5 30 23q15 23 -8 31h-2h-1z" />
    <glyph glyph-name="bar" unicode="|" horiz-adv-x="215" 
d="M127 485q-11 0 -16 -14v-1q-6 -36 -12 -150q-7 -132 0 -417v-1l1 -4l2 -7h4q8 0 10 11q1 8 0 16q0 8 1 13v1q6 224 14 313q1 18 4 62.5t6 76.5t8 60q6 13 -2 27t-20 14z" />
    <glyph glyph-name="braceright" unicode="}" 
d="M148 488q-6 0 -13 -2l-1 -1q-5 -3 -7 -7q-10 -16 31 -37q1 -1 1 -2h1l1 -1q28 -13 29 -69q-1 -70 10 -107q13 -42 28 -60q-45 -33 -56 -112v-1q-5 -69 -22 -126v0q-11 -61 -47 -74q-8 -2 -14 -9q-1 -1 1 -3t4 -3l3 -1v0q11 -2 21 4q38 18 55 87q15 43 27 126q14 78 65 94
v0q9 4 11 12q3 7 -3 14q-5 5 -9 8q-5 4 -10 6q-24 38 -27 106q0 23 1 44q1 22 -6 45q-7 24 -21 39v1h-1q-32 29 -52 29zM249 188l4 -2q0 -1 1 1t2 4.5l1 2.5l-4 2z" />
    <glyph glyph-name="asciitilde" unicode="~" 
d="M113 243q-20 0 -51 -21h-1q-1 -2 -4 -4q-5 -3 -7 -4q-3 -3 -5 -7q-3 -5 -1 -11q7 -25 25 -20h1v1q5 2 12 9q6 6 9 8q19 13 27 11q8 -3 18 -13q12 -11 13 -13h1q28 -23 61 -18q34 6 83 44l1 1v1q1 1 2 1l3 4l-3 4q-6 5 -10 3q-2 0 -8 -4l-4 -2l-1 -1q-45 -24 -70 -24
q-19 0 -35 18q-2 3 -5 6q-3 4 -4 6l-10 9q-2 2 -5 4.5t-6 4t-6 3.5t-8 2q-3 1 -5 2h-1h-6z" />
    <glyph glyph-name="nonbreakingspace" unicode="&#xa0;" horiz-adv-x="200" 
 />
    <glyph glyph-name="exclamdown" unicode="&#xa1;" horiz-adv-x="166" 
d="M120 -141h-72l7 337h56zM132 296q0 -20 -14 -34t-34 -14t-34 14t-14 34t14 34t34 14t34 -14t14 -34z" />
    <glyph glyph-name="cent" unicode="&#xa2;" horiz-adv-x="479" 
d="M418 52q-53 -29 -133 -31v-77h-55v80q-78 14 -123.5 68.5t-45.5 136.5t45.5 136.5t123.5 68.5v80h55v-77q80 -2 133 -31l-21 -48q-25 11 -52 17t-56 6q-79 0 -123.5 -40t-44.5 -112t44.5 -112t123.5 -40q29 0 56 6t52 17z" />
    <glyph glyph-name="sterling" unicode="&#xa3;" horiz-adv-x="479" 
d="M391 0h-302v37q82 51 82 124q0 8 -1 21t-3 27h-77v46h71q-2 21 -3.5 38.5t-1.5 34.5q0 140 131 140q40 0 91 -23l-18 -42q-44 18 -75 18q-80 0 -80 -93q0 -38 7 -73h111v-46h-103q1 -8 1.5 -19.5t0.5 -21.5q0 -73 -42 -121h211v-47z" />
    <glyph glyph-name="currency" unicode="&#xa4;" horiz-adv-x="479" 
d="M427 226q0 -59 -34 -106l37 -39l-43 -46l-39 41q-44 -35 -109 -35q-63 0 -107 35l-39 -41l-43 46l37 39q-34 47 -34 106t34 106l-37 39l43 46l39 -41q44 35 107 35q65 0 109 -35l39 41l43 -46l-37 -39q34 -47 34 -106zM365 226q0 51 -37 88t-88 37q-53 0 -89 -37t-36 -88
q0 -53 36 -89t89 -36q51 0 88 36t37 89z" />
    <glyph glyph-name="yen" unicode="&#xa5;" horiz-adv-x="479" 
d="M384 91h-115v-73h-58v73h-115v50h115v32h-115v50h105l-145 238h70l113 -190l114 190h71l-146 -237h106v-51h-115v-32h115v-50z" />
    <glyph glyph-name="brokenbar" unicode="&#xa6;" horiz-adv-x="160" 
d="M104 220h-48v256h48v-256zM104 -119h-48v257h48v-257z" />
    <glyph glyph-name="section" unicode="&#xa7;" horiz-adv-x="379" 
d="M307 71q0 -51 -36.5 -80t-92.5 -29q-63 0 -110 38l23 42q20 -19 42 -27t47 -8q36 0 57.5 16.5t21.5 42.5q0 35 -48 59q-25 10 -52 20.5t-52 21.5q-53 26 -53 82q0 43 39 78q-18 23 -18 52q0 45 34 73t90 28q26 0 52.5 -8t52.5 -22l-25 -43q-40 29 -85 29q-29 0 -49 -14.5
t-20 -36.5q0 -11 6.5 -20t17.5 -17q8 -5 26 -12.5t42 -15.5q51 -18 79.5 -45.5t28.5 -62.5q0 -23 -10 -43.5t-27 -39.5q19 -23 19 -58zM274 207q0 17 -19.5 34.5t-49.5 28.5q-26 9 -45.5 17t-32.5 14q-25 -22 -25 -50q0 -12 8 -21.5t22 -19.5q10 -5 26.5 -12.5t42.5 -16.5
q19 -7 32 -12.5t22 -11.5q11 13 15 25t4 25z" />
    <glyph glyph-name="dieresis" unicode="&#xa8;" horiz-adv-x="340" 
d="M140 425q0 -19 -13 -31.5t-30 -12.5q-18 0 -31 12.5t-13 31.5q0 18 13 31t31 13q17 0 30 -13t13 -31zM288 425q0 -19 -13 -31.5t-30 -12.5t-30.5 12.5t-13.5 31.5q0 18 13.5 31t30.5 13t30 -13t13 -31z" />
    <glyph glyph-name="copyright" unicode="&#xa9;" horiz-adv-x="375" 
d="M236 366q-38 0 -78 -22q-81 -46 -105 -123q-10 -33 0 -69t34 -66q48 -59 105 -53q66 6 118 62q2 1 4 4l2 4q2 2 4 5t2.5 5t-0.5 5t-5 3h-2l-2 -1q-56 -57 -121 -59q-47 -2 -82 43q-46 58 -27 112q24 67 96 105q56 25 92 3q23 -15 29 -44q7 -29 -5 -54q-17 -40 -44 -64
q-1 1 -7 6q-11 12 -25 7q-12 -5 -18 -18q-4 -7 -13 -8q-10 -1 -17 4q-9 10 -12 25q-2 15 3 27q24 43 59 49q3 1 5 -2q3 -3 6 -12q2 -10 4 -12v-1q7 -9 14.5 -6t12.5 15v0q4 12 2 21q0 17 -14 28q-14 12 -31 11q-50 -3 -84 -60q-14 -19 -15 -45q-1 -25 10 -46q10 -22 35 -30
q24 -8 46 3q8 4 16 14l4 -4q23 -16 50 15q36 41 49 83q10 36 -2 73q-13 37 -45 55q-22 12 -48 12z" />
    <glyph glyph-name="ordfeminine" unicode="&#xaa;" horiz-adv-x="250" 
d="M225 248h-43q-2 5 -3 11.5t-3 14.5q-28 -29 -70 -29q-80 0 -80 72q0 80 147 83q-2 25 -17.5 35.5t-35.5 10.5q-17 0 -34.5 -4t-34.5 -16l-14 34q21 14 44 20t46 6q90 0 90 -110v-84q0 -5 1.5 -16.5t6.5 -27.5zM173 324v39q-54 0 -78.5 -11.5t-24.5 -34.5q0 -35 42 -35
q9 0 19.5 3t20 8.5t15.5 13t6 17.5z" />
    <glyph glyph-name="guillemotleft" unicode="&#xab;" horiz-adv-x="355" 
d="M326 47h-60l-114 132l114 135h59l-113 -134zM204 47h-61l-113 132l111 136h62l-114 -136z" />
    <glyph glyph-name="logicalnot" unicode="&#xac;" horiz-adv-x="446" 
d="M403 88h-48v146h-321v45h369v-191z" />
    <glyph glyph-name="sfthyphen" unicode="&#xad;" horiz-adv-x="422" 
d="M43.5 167q-5.5 15 1.5 29t23 19l17 5q23 8 47 10q19 2 37 1q18 0 46 -1q27 -1 63 0q43 1 62 -3l13 -5q15 -4 23 -18t4 -30t-18 -24t-30 -3l-13 4q-8 2 -40 1q-39 -2 -67 0h-44h-32q-12 -1 -25 -4l-18 -5q-15 -5 -29.5 2t-20 22z" />
    <glyph glyph-name="registered" unicode="&#xae;" horiz-adv-x="375" 
d="M191 219l1 5q1 2 2.5 9.5t2.5 10l3 7.5t5 7q3 3 7 4q7 3 16 -1q5 -3 1 -8q-6 -7 -20 -18q-11 -9 -18 -16zM180 172q1 -2 1 -4q7 -23 23 -40q14 -13 31 -16q18 -4 34 5q40 22 53 80v0q8 72 -3 105q-9 23 -30 39q-20 15 -45 20q-13 3 -28 3q-41 0 -79 -26q-72 -49 -86 -124
q-6 -36 7 -73q14 -37 39 -66q44 -47 94 -42q67 6 119 62v0q12 15 13 21l3 15l-11 -10q-32 -30 -56 -42q-60 -30 -103 -11q-29 13 -48 40t-27 60q-12 48 25 98q45 60 103 67q43 1 67 -23q21 -23 16 -84q-2 -46 -30 -73l-1 -1q-6 -7 -15.5 -6.5t-15.5 7.5v1q-11 10 -14 21
q-3 10 2 21q4 3 15 10q12 9 18 17q13 11 16 26q4 17 -5 32v0q-17 20 -45 20t-45 -21q-8 -12 -14 -27q-5 -16 -8 -35q-4 -18 -8 -27v0q-3 -9 -12 -28t-11 -30q-3 -6 -3 -11q-1 -11 13 -11t22 12q12 13 21 31q5 9 8 18z" />
    <glyph glyph-name="macron" unicode="&#xaf;" horiz-adv-x="375" 
d="M376 528h-376v53h376v-53z" />
    <glyph glyph-name="degree" unicode="&#xb0;" horiz-adv-x="275" 
d="M227 397q0 -37 -26 -63t-63 -26t-63 26t-26 63t26 63t63 26t63 -26t26 -63zM195 397q0 23 -17 40t-40 17t-40 -17t-17 -40t17 -40t40 -17t40 17t17 40z" />
    <glyph glyph-name="plusminus" unicode="&#xb1;" horiz-adv-x="439" 
d="M405 0h-369v55h369v-55zM400 217h-148v-139h-63v139h-148v55h148v151h63v-151h148v-55z" />
    <glyph glyph-name="twosuperior" unicode="&#xb2;" horiz-adv-x="259" 
d="M217 190h-190q0 31 22.5 59.5t49 54.5t49 50.5t22.5 47.5q0 17 -9.5 26t-24.5 9q-19 0 -34 -14t-17 -41l-42 8q5 45 29 68.5t61 23.5q38 0 61.5 -21.5t23.5 -58.5q0 -21 -13 -46t-41 -54l-65 -67h124z" />
    <glyph glyph-name="threesuperior" unicode="&#xb3;" horiz-adv-x="259" 
d="M228 294q0 -48 -31.5 -77t-85.5 -30q-41 0 -75 25l20 42q14 -12 28 -16t28 -4q32 0 50.5 16.5t18.5 42.5q0 17 -10.5 26t-24.5 9q-12 0 -24 -4.5t-20 -10.5l-16 30q39 18 58.5 37.5t19.5 35.5q0 22 -28 22q-17 0 -33 -11.5t-24 -34.5l-37 19q31 72 97 72q69 0 69 -59
q0 -34 -32 -62q52 -15 52 -68z" />
    <glyph glyph-name="acute" unicode="&#xb4;" horiz-adv-x="201" 
d="M116.5 472q-10.5 -1 -17 -8.5t-4.5 -15.5l1 -15q3 -9 -4 -22q-11 -22 -17 -23l-7 -3q-10 -3 -14.5 -12t0.5 -17t15.5 -11t20.5 0l8 4q13 5 25 17q10 11 20 32t7 42l-2 14q-2 8 -11.5 13.5t-20 4.5z" />
    <glyph glyph-name="mu" unicode="&#xb5;" horiz-adv-x="412" 
d="M386 4l-61 -12q-5 11 -8.5 22.5t-6.5 25.5q-28 -22 -57.5 -35.5t-64.5 -13.5q-23 0 -43.5 8t-34.5 25v-165h-63v483h63v-182q0 -113 86 -113q37 0 71.5 25.5t34.5 66.5v203h63v-251q0 -18 5.5 -40t15.5 -47z" />
    <glyph glyph-name="paragraph" unicode="&#xb6;" horiz-adv-x="379" 
d="M324 -63h-34v506h-48v-506h-35v243h-4q-60 0 -107.5 37.5t-47.5 103.5q0 154 198 154q53 0 78 -5v-533z" />
    <glyph glyph-name="periodcentered" unicode="&#xb7;" horiz-adv-x="170" 
d="M134 182q0 -20 -14 -34t-34 -14t-34 14t-14 34t14 34t34 14t34 -14t14 -34z" />
    <glyph glyph-name="cedilla" unicode="&#xb8;" horiz-adv-x="247" 
d="M196 -90q0 -32 -21 -50.5t-59 -18.5q-14 0 -31 4.5t-32 13.5l14 32q14 -7 28.5 -11t22.5 -4q32 0 32 30q0 28 -64 39l43 66h43l-28 -39q27 -8 39.5 -23.5t12.5 -38.5z" />
    <glyph glyph-name="onesuperior" unicode="&#xb9;" horiz-adv-x="259" 
d="M210 195h-134v39h43v180l-40 -38l-25 34l83 74q15 0 23 -9.5t8 -24.5v-216h42v-39z" />
    <glyph glyph-name="ordmasculine" unicode="&#xba;" horiz-adv-x="292" 
d="M274 359q0 -54 -37.5 -90.5t-90.5 -36.5q-54 0 -90.5 36.5t-36.5 90.5q0 53 36.5 90.5t90.5 37.5q53 0 90.5 -37.5t37.5 -90.5zM230 359q0 34 -25 59t-59 25t-58.5 -25t-24.5 -59t24.5 -58.5t58.5 -24.5t59 24.5t25 58.5z" />
    <glyph glyph-name="guillemotright" unicode="&#xbb;" horiz-adv-x="355" 
d="M90 47h-60l114 133l-113 134h59l114 -135zM213 47h-61l115 132l-114 136h62l111 -136z" />
    <glyph glyph-name="onequarter" unicode="&#xbc;" horiz-adv-x="541" 
d="M180 176h-134v39h43v174l-38 -33l-28 36l84 74q31 -2 31 -35v-216h42v-39zM158 -9h-50l287 483h50zM415 108v118q-23 -20 -39.5 -53.5t-20.5 -64.5h60zM464 0h-49v60h-112q0 32 10 72t30 75.5t51.5 60t69.5 25.5v-185h42l-2 -48h-40v-60z" />
    <glyph glyph-name="onehalf" unicode="&#xbd;" horiz-adv-x="541" 
d="M520 0h-190q3 38 25.5 67t47.5 52q12 12 24.5 23.5t22.5 23.5t16.5 23.5t6.5 22.5q0 14 -8.5 24t-25.5 10q-41 0 -48 -54l-45 8q4 45 28.5 68.5t61.5 23.5q38 0 62 -21t24 -59q0 -25 -14.5 -47t-34 -42.5t-39.5 -39.5t-32 -37h124zM158 -9h-50l287 483h50zM180 176h-134
v39h43v174l-38 -33l-28 36l84 74q31 -2 31 -35v-216h42v-39z" />
    <glyph glyph-name="threequarters" unicode="&#xbe;" horiz-adv-x="541" 
d="M158 -9h-50l287 483h50zM223 285q0 -26 -10 -46t-26 -33.5t-37.5 -20.5t-43.5 -7q-41 0 -75 25l20 43q14 -11 28 -16.5t28 -5.5q32 0 50.5 17t18.5 43q0 35 -33 35q-25 0 -46 -18l-16 30q44 23 59.5 41t15.5 38q0 8 -6 13.5t-19 5.5q-40 0 -57 -49l-37 19q30 72 97 72
q35 0 51.5 -16t16.5 -38q0 -34 -31 -62q27 -4 39.5 -23t12.5 -47zM415 108v118q-23 -20 -39.5 -53.5t-20.5 -64.5h60zM464 0h-49v60h-112q0 32 10 72t30 75.5t51.5 60t69.5 25.5v-185h42l-2 -48h-40v-60z" />
    <glyph glyph-name="questiondown" unicode="&#xbf;" horiz-adv-x="287" 
d="M265 -114q-59 -37 -115 -37q-57 0 -91.5 30.5t-34.5 81.5q0 53 66 121q23 23 34 46.5t12 44.5q0 17 -7 42h57q5 -14 7.5 -25.5t2.5 -19.5q0 -55 -58 -116q-51 -54 -51 -91q0 -57 70 -57q43 0 83 29zM201 293q0 -20 -14 -34t-33 -14t-33 14t-14 34t14 34t33 14t33 -14
t14 -34z" />
    <glyph glyph-name="Agrave" unicode="&#xc0;" horiz-adv-x="400" 
d="M286 749q-6 0 -10 -2q-12 -5 -11 -16v0q4 -16 28 -102q6 -20 19.5 -61t19.5 -60l1 -1l1 -1q5 -4 7 -4q6 0 7 7l1 1v1v2q-3 19 -12 59q-8 39 -11 60q-3 18 -7.5 40t-7.5 36q-3 13 -3 15q0 20 -7 23q-5 3 -15 3zM312 574h1q6 0 10 -5q6 -6 8 -12t5 -19q3 -12 4 -15
q14 -92 4 -238q-90 0 -197 -21q47 123 101 225q4 5 12 19t11.5 20t10.5 17q8 11 15 17.5t15 11.5zM314 612v0q-15 -1 -25 -10q-14 -10 -27 -28q-14 -18 -20 -27.5t-20 -37.5q-14 -27 -17 -31v-1q-51 -95 -102 -222q-5 -1 -14 -2l-18 -3q-12 -1 -16 -15q-5 -13 3 -23v0
q5 -4 11 -5q5 -1 10 1q3 1 7 2q-21 -54 -48 -129q-2 -4 -6 -17t-5.5 -19t-3.5 -16q-2 -11 -0.5 -21t7.5 -19l2 -3l4 1q11 5 19 16q7 11 11 29q5 16 7 21v0q28 90 58 165q124 30 211 33q-1 -14 -3 -30q-20 -190 -34 -262v0l-1 -9l-2 -27l10 9l3 6q18 49 41 171v0
q11 80 16 147q9 1 23 2q17 2 21 3h3l6 3v3q0 8 -9 11q-7 2 -16 3q-8 1 -10 2h-1q-6 2 -15 3q5 81 4 152q0 5 -0.5 22t-1 23t-2 20.5t-3 23t-4.5 20.5q-2 13 -6 23t-10 19q-11 23 -37 23z" />
    <glyph glyph-name="Aacute" unicode="&#xc1;" horiz-adv-x="400" 
d="M307.5 684q-10.5 -1 -17 -8.5t-4.5 -15.5l1 -15q3 -9 -4 -22q-11 -22 -17 -23l-7 -3q-10 -3 -14.5 -12t0.5 -17t15.5 -11t20.5 0l8 4q13 5 25 17q10 11 20 32t7 42l-2 14q-2 8 -11.5 13.5t-20 4.5zM312 574h1q6 0 10 -5q6 -6 8 -12t5 -19q3 -12 4 -15q14 -92 4 -238
q-90 0 -197 -21q47 123 101 225q4 5 12 19t11.5 20t10.5 17q8 11 15 17.5t15 11.5zM314 612v0q-15 -1 -25 -10q-14 -10 -27 -28q-14 -18 -20 -27.5t-20 -37.5q-14 -27 -17 -31v-1q-51 -95 -102 -222q-5 -1 -14 -2l-18 -3q-12 -1 -16 -15q-5 -13 3 -23v0q5 -4 11 -5
q5 -1 10 1q3 1 7 2q-21 -54 -48 -129q-2 -4 -6 -17t-5.5 -19t-3.5 -16q-2 -11 -0.5 -21t7.5 -19l2 -3l4 1q11 5 19 16q7 11 11 29q5 16 7 21v0q28 90 58 165q124 30 211 33q-1 -14 -3 -30q-20 -190 -34 -262v0l-1 -9l-2 -27l10 9l3 6q18 49 41 171v0q11 80 16 147q9 1 23 2
q17 2 21 3h3l6 3v3q0 8 -9 11q-7 2 -16 3q-8 1 -10 2h-1q-6 2 -15 3q5 81 4 152q0 5 -0.5 22t-1 23t-2 20.5t-3 23t-4.5 20.5q-2 13 -6 23t-10 19q-11 23 -37 23z" />
    <glyph glyph-name="Acircumflex" unicode="&#xc2;" horiz-adv-x="400" 
d="M394 597h-54l-41 71l-40 -71h-55l78 115h35zM312 574h1q6 0 10 -5q6 -6 8 -12t5 -19q3 -12 4 -15q14 -92 4 -238q-90 0 -197 -21q47 123 101 225q4 5 12 19t11.5 20t10.5 17q8 11 15 17.5t15 11.5zM314 612v0q-15 -1 -25 -10q-14 -10 -27 -28q-14 -18 -20 -27.5
t-20 -37.5q-14 -27 -17 -31v-1q-51 -95 -102 -222q-5 -1 -14 -2l-18 -3q-12 -1 -16 -15q-5 -13 3 -23v0q5 -4 11 -5q5 -1 10 1q3 1 7 2q-21 -54 -48 -129q-2 -4 -6 -17t-5.5 -19t-3.5 -16q-2 -11 -0.5 -21t7.5 -19l2 -3l4 1q11 5 19 16q7 11 11 29q5 16 7 21v0q28 90 58 165
q124 30 211 33q-1 -14 -3 -30q-20 -190 -34 -262v0l-1 -9l-2 -27l10 9l3 6q18 49 41 171v0q11 80 16 147q9 1 23 2q17 2 21 3h3l6 3v3q0 8 -9 11q-7 2 -16 3q-8 1 -10 2h-1q-6 2 -15 3q5 81 4 152q0 5 -0.5 22t-1 23t-2 20.5t-3 23t-4.5 20.5q-2 13 -6 23t-10 19
q-11 23 -37 23z" />
    <glyph glyph-name="Atilde" unicode="&#xc3;" horiz-adv-x="400" 
d="M423 655q-1 -35 -15.5 -55.5t-43.5 -20.5q-8 0 -19.5 4.5t-24 10t-23.5 10t-18 4.5q-8 0 -10 -7.5t-2 -16.5h-44q0 30 14.5 50.5t41.5 20.5q9 0 20.5 -4t22.5 -9.5t21.5 -9.5t17.5 -4q19 0 19 27h43zM312 574h1q6 0 10 -5q6 -6 8 -12t5 -19q3 -12 4 -15q14 -92 4 -238
q-90 0 -197 -21q47 123 101 225q4 5 12 19t11.5 20t10.5 17q8 11 15 17.5t15 11.5zM314 612v0q-15 -1 -25 -10q-14 -10 -27 -28q-14 -18 -20 -27.5t-20 -37.5q-14 -27 -17 -31v-1q-51 -95 -102 -222q-5 -1 -14 -2l-18 -3q-12 -1 -16 -15q-5 -13 3 -23v0q5 -4 11 -5
q5 -1 10 1q3 1 7 2q-21 -54 -48 -129q-2 -4 -6 -17t-5.5 -19t-3.5 -16q-2 -11 -0.5 -21t7.5 -19l2 -3l4 1q11 5 19 16q7 11 11 29q5 16 7 21v0q28 90 58 165q124 30 211 33q-1 -14 -3 -30q-20 -190 -34 -262v0l-1 -9l-2 -27l10 9l3 6q18 49 41 171v0q11 80 16 147q9 1 23 2
q17 2 21 3h3l6 3v3q0 8 -9 11q-7 2 -16 3q-8 1 -10 2h-1q-6 2 -15 3q5 81 4 152q0 5 -0.5 22t-1 23t-2 20.5t-3 23t-4.5 20.5q-2 13 -6 23t-10 19q-11 23 -37 23z" />
    <glyph glyph-name="Adieresis" unicode="&#xc4;" horiz-adv-x="400" 
d="M327 635q0 -19 -13 -31.5t-30 -12.5q-18 0 -31 12.5t-13 31.5q0 18 13 31t31 13q17 0 30 -13t13 -31zM475 635q0 -19 -13 -31.5t-30 -12.5t-30.5 12.5t-13.5 31.5q0 18 13.5 31t30.5 13t30 -13t13 -31zM312 574h1q6 0 10 -5q6 -6 8 -12t5 -19q3 -12 4 -15q14 -92 4 -238
q-90 0 -197 -21q47 123 101 225q4 5 12 19t11.5 20t10.5 17q8 11 15 17.5t15 11.5zM314 612v0q-15 -1 -25 -10q-14 -10 -27 -28q-14 -18 -20 -27.5t-20 -37.5q-14 -27 -17 -31v-1q-51 -95 -102 -222q-5 -1 -14 -2l-18 -3q-12 -1 -16 -15q-5 -13 3 -23v0q5 -4 11 -5
q5 -1 10 1q3 1 7 2q-21 -54 -48 -129q-2 -4 -6 -17t-5.5 -19t-3.5 -16q-2 -11 -0.5 -21t7.5 -19l2 -3l4 1q11 5 19 16q7 11 11 29q5 16 7 21v0q28 90 58 165q124 30 211 33q-1 -14 -3 -30q-20 -190 -34 -262v0l-1 -9l-2 -27l10 9l3 6q18 49 41 171v0q11 80 16 147q9 1 23 2
q17 2 21 3h3l6 3v3q0 8 -9 11q-7 2 -16 3q-8 1 -10 2h-1q-6 2 -15 3q5 81 4 152q0 5 -0.5 22t-1 23t-2 20.5t-3 23t-4.5 20.5q-2 13 -6 23t-10 19q-11 23 -37 23z" />
    <glyph glyph-name="Aring" unicode="&#xc5;" horiz-adv-x="400" 
d="M407 670q0 -33 -23.5 -56.5t-56.5 -23.5t-56.5 23.5t-23.5 56.5t23.5 56.5t56.5 23.5t56.5 -23.5t23.5 -56.5zM365 670q0 16 -11 27t-27 11t-27.5 -11t-11.5 -27t11.5 -27.5t27.5 -11.5t27 11.5t11 27.5zM312 574h1q6 0 10 -5q6 -6 8 -12t5 -19q3 -12 4 -15
q14 -92 4 -238q-90 0 -197 -21q47 123 101 225q4 5 12 19t11.5 20t10.5 17q8 11 15 17.5t15 11.5zM314 612v0q-15 -1 -25 -10q-14 -10 -27 -28q-14 -18 -20 -27.5t-20 -37.5q-14 -27 -17 -31v-1q-51 -95 -102 -222q-5 -1 -14 -2l-18 -3q-12 -1 -16 -15q-5 -13 3 -23v0
q5 -4 11 -5q5 -1 10 1q3 1 7 2q-21 -54 -48 -129q-2 -4 -6 -17t-5.5 -19t-3.5 -16q-2 -11 -0.5 -21t7.5 -19l2 -3l4 1q11 5 19 16q7 11 11 29q5 16 7 21v0q28 90 58 165q124 30 211 33q-1 -14 -3 -30q-20 -190 -34 -262v0l-1 -9l-2 -27l10 9l3 6q18 49 41 171v0
q11 80 16 147q9 1 23 2q17 2 21 3h3l6 3v3q0 8 -9 11q-7 2 -16 3q-8 1 -10 2h-1q-6 2 -15 3q5 81 4 152q0 5 -0.5 22t-1 23t-2 20.5t-3 23t-4.5 20.5q-2 13 -6 23t-10 19q-11 23 -37 23z" />
    <glyph glyph-name="AE" unicode="&#xc6;" horiz-adv-x="581" 
d="M555 0h-229l-27 190h-140l-101 -190h-68l259 483h294v-55h-218l19 -147h189v-55h-180l26 -171h176v-55zM291 244l-19 161l-86 -161h105z" />
    <glyph glyph-name="Ccedilla" unicode="&#xc7;" horiz-adv-x="400" 
d="M403 -90q0 -32 -21 -50.5t-59 -18.5q-14 0 -31 4.5t-32 13.5l14 32q14 -7 28.5 -11t22.5 -4q32 0 32 30q0 28 -64 39l43 66h43l-28 -39q27 -8 39.5 -23.5t12.5 -38.5zM257 560q-59 0 -114 -81q-81 -119 -98 -279q-13 -127 50 -206q23 -30 58 -45q32 -15 67 -13
q80 2 167 102v1q11 16 12 19l9 15l-16 -11q-10 -7 -28 -22q-17 -16 -27 -23q-86 -68 -158 -47q-36 10 -62 44q-25 34 -35 78q-19 85 17 211q40 132 102 193q12 12 25 19q12 7 28 8q14 1 25 -11q36 -34 34 -128q-5 -19 4 -43v0q5 -10 10 -13q11 -6 20 13h1q16 52 -2 124
q-9 38 -32 65q-23 29 -55 30h-2z" />
    <glyph glyph-name="Egrave" unicode="&#xc8;" horiz-adv-x="350" 
d="M270 749q-6 0 -10 -2q-12 -5 -11 -16v0q4 -16 28 -102q6 -20 19.5 -61t19.5 -60l1 -1l1 -1q5 -4 7 -4q6 0 7 7l1 1v1v2q-3 19 -12 59q-8 39 -11 60q-3 18 -7.5 40t-7.5 36q-3 13 -3 15q0 20 -7 23q-5 3 -15 3zM376 550h-2q-42 0 -121 -10q-73 -10 -105 -12h-1
q-2 -1 -5 -1q-4 5 -10 5q-7 1 -13 -4q-32 5 -45 -3l-1 -1q-14 -21 5 -30q12 -6 27 -4q-12 -51 -46 -202q-19 4 -29 -13q-12 -20 9 -31l1 -1l10 2q-11 -48 -20 -84v0q-2 -11 -7 -29q-6 -19 -9 -35q-4 -17 -2 -32q3 -31 29 -51q26 -21 59 -28q119 -29 231 33l3 1q1 1 3.5 2.5
t4 2t2.5 2.5t1 4v6l-16 -2h-1q-44 -16 -131 -27q-89 -6 -135 28q-14 11 -18 29q-4 19 4 36v1q17 59 39 151q70 17 100 21v0q19 4 55 4q37 1 56 4l9 3l-2 5q-5 13 -45 18v0q-58 2 -163 -15q23 98 35 141v0q1 7 8 28q6 19 7 31q26 2 89 9q69 8 108 8q12 -5 24 0q14 5 17 16
q4 11 -7 23z" />
    <glyph glyph-name="Eacute" unicode="&#xc9;" horiz-adv-x="350" 
d="M297.5 684q-10.5 -1 -17 -8.5t-4.5 -15.5l1 -15q3 -9 -4 -22q-11 -22 -17 -23l-7 -3q-10 -3 -14.5 -12t0.5 -17t15.5 -11t20.5 0l8 4q13 5 25 17q10 11 20 32t7 42l-2 14q-2 8 -11.5 13.5t-20 4.5zM376 550h-2q-42 0 -121 -10q-73 -10 -105 -12h-1q-2 -1 -5 -1
q-4 5 -10 5q-7 1 -13 -4q-32 5 -45 -3l-1 -1q-14 -21 5 -30q12 -6 27 -4q-12 -51 -46 -202q-19 4 -29 -13q-12 -20 9 -31l1 -1l10 2q-11 -48 -20 -84v0q-2 -11 -7 -29q-6 -19 -9 -35q-4 -17 -2 -32q3 -31 29 -51q26 -21 59 -28q119 -29 231 33l3 1q1 1 3.5 2.5t4 2t2.5 2.5
t1 4v6l-16 -2h-1q-44 -16 -131 -27q-89 -6 -135 28q-14 11 -18 29q-4 19 4 36v1q17 59 39 151q70 17 100 21v0q19 4 55 4q37 1 56 4l9 3l-2 5q-5 13 -45 18v0q-58 2 -163 -15q23 98 35 141v0q1 7 8 28q6 19 7 31q26 2 89 9q69 8 108 8q12 -5 24 0q14 5 17 16q4 11 -7 23z
" />
    <glyph glyph-name="Ecircumflex" unicode="&#xca;" horiz-adv-x="350" 
d="M384 597h-54l-41 71l-40 -71h-55l78 115h35zM376 550h-2q-42 0 -121 -10q-73 -10 -105 -12h-1q-2 -1 -5 -1q-4 5 -10 5q-7 1 -13 -4q-32 5 -45 -3l-1 -1q-14 -21 5 -30q12 -6 27 -4q-12 -51 -46 -202q-19 4 -29 -13q-12 -20 9 -31l1 -1l10 2q-11 -48 -20 -84v0
q-2 -11 -7 -29q-6 -19 -9 -35q-4 -17 -2 -32q3 -31 29 -51q26 -21 59 -28q119 -29 231 33l3 1q1 1 3.5 2.5t4 2t2.5 2.5t1 4v6l-16 -2h-1q-44 -16 -131 -27q-89 -6 -135 28q-14 11 -18 29q-4 19 4 36v1q17 59 39 151q70 17 100 21v0q19 4 55 4q37 1 56 4l9 3l-2 5
q-5 13 -45 18v0q-58 2 -163 -15q23 98 35 141v0q1 7 8 28q6 19 7 31q26 2 89 9q69 8 108 8q12 -5 24 0q14 5 17 16q4 11 -7 23z" />
    <glyph glyph-name="Edieresis" unicode="&#xcb;" horiz-adv-x="350" 
d="M319 635q0 -19 -13 -31.5t-30 -12.5q-18 0 -31 12.5t-13 31.5q0 18 13 31t31 13q17 0 30 -13t13 -31zM467 635q0 -19 -13 -31.5t-30 -12.5t-30.5 12.5t-13.5 31.5q0 18 13.5 31t30.5 13t30 -13t13 -31zM376 550h-2q-42 0 -121 -10q-73 -10 -105 -12h-1q-2 -1 -5 -1
q-4 5 -10 5q-7 1 -13 -4q-32 5 -45 -3l-1 -1q-14 -21 5 -30q12 -6 27 -4q-12 -51 -46 -202q-19 4 -29 -13q-12 -20 9 -31l1 -1l10 2q-11 -48 -20 -84v0q-2 -11 -7 -29q-6 -19 -9 -35q-4 -17 -2 -32q3 -31 29 -51q26 -21 59 -28q119 -29 231 33l3 1q1 1 3.5 2.5t4 2t2.5 2.5
t1 4v6l-16 -2h-1q-44 -16 -131 -27q-89 -6 -135 28q-14 11 -18 29q-4 19 4 36v1q17 59 39 151q70 17 100 21v0q19 4 55 4q37 1 56 4l9 3l-2 5q-5 13 -45 18v0q-58 2 -163 -15q23 98 35 141v0q1 7 8 28q6 19 7 31q26 2 89 9q69 8 108 8q12 -5 24 0q14 5 17 16q4 11 -7 23z
" />
    <glyph glyph-name="Igrave" unicode="&#xcc;" horiz-adv-x="330" 
d="M146 749q-6 0 -10 -2q-12 -5 -11 -16v0q4 -16 28 -102q6 -20 19.5 -61t19.5 -60l1 -1l1 -1q5 -4 7 -4q6 0 7 7l1 1v1v2q-3 19 -12 59q-8 39 -11 60q-3 18 -7.5 40t-7.5 36q-3 13 -3 15q0 20 -7 23q-5 3 -15 3zM269 595q-11 1 -24.5 1t-36.5 -3q-24 -2 -26 -2h-1h-1
q-7 -3 -27 -1q-25 3 -31 -7t-1 -23q6 -15 21 -8q23 3 39 4q-5 -34 -18 -152q-3 -29 -15.5 -156.5t-22.5 -196.5v-1v-1v-5l-2 -4l-4 -4q-1 -1 -3 -2q-3 -2 -5 -2q-1 0 -6 -1q-5 -2 -6 -2q-3 -1 -6 -1t-6 -1q-17 5 -27 -10q-6 -9 -2.5 -15.5t14.5 -9.5h1q19 0 41 2t38.5 4.5
t42 7t37.5 6.5q1 0 2 0.5t2 0.5v0q10 3 11 7q1 6 -2.5 7.5t-9.5 1.5q0 1 -1 1v0q-55 -1 -83 -3q3 7 4 15q9 62 22.5 176.5t16.5 143.5q11 85 27 178q3 8 0 18h24q17 -12 27 4q10 14 1 30l-1 3h-3z" />
    <glyph glyph-name="Iacute" unicode="&#xcd;" horiz-adv-x="330" 
d="M171.5 684q-10.5 -1 -17 -8.5t-4.5 -15.5l1 -15q3 -9 -4 -22q-11 -22 -17 -23l-7 -3q-10 -3 -14.5 -12t0.5 -17t15.5 -11t20.5 0l8 4q13 5 25 17q10 11 20 32t7 42l-2 14q-2 8 -11.5 13.5t-20 4.5zM269 595q-11 1 -24.5 1t-36.5 -3q-24 -2 -26 -2h-1h-1q-7 -3 -27 -1
q-25 3 -31 -7t-1 -23q6 -15 21 -8q23 3 39 4q-5 -34 -18 -152q-3 -29 -15.5 -156.5t-22.5 -196.5v-1v-1v-5l-2 -4l-4 -4q-1 -1 -3 -2q-3 -2 -5 -2q-1 0 -6 -1q-5 -2 -6 -2q-3 -1 -6 -1t-6 -1q-17 5 -27 -10q-6 -9 -2.5 -15.5t14.5 -9.5h1q19 0 41 2t38.5 4.5t42 7t37.5 6.5
q1 0 2 0.5t2 0.5v0q10 3 11 7q1 6 -2.5 7.5t-9.5 1.5q0 1 -1 1v0q-55 -1 -83 -3q3 7 4 15q9 62 22.5 176.5t16.5 143.5q11 85 27 178q3 8 0 18h24q17 -12 27 4q10 14 1 30l-1 3h-3z" />
    <glyph glyph-name="Icircumflex" unicode="&#xce;" horiz-adv-x="330" 
d="M259 597h-54l-41 71l-40 -71h-55l78 115h35zM269 595q-11 1 -24.5 1t-36.5 -3q-24 -2 -26 -2h-1h-1q-7 -3 -27 -1q-25 3 -31 -7t-1 -23q6 -15 21 -8q23 3 39 4q-5 -34 -18 -152q-3 -29 -15.5 -156.5t-22.5 -196.5v-1v-1v-5l-2 -4l-4 -4q-1 -1 -3 -2q-3 -2 -5 -2
q-1 0 -6 -1q-5 -2 -6 -2q-3 -1 -6 -1t-6 -1q-17 5 -27 -10q-6 -9 -2.5 -15.5t14.5 -9.5h1q19 0 41 2t38.5 4.5t42 7t37.5 6.5q1 0 2 0.5t2 0.5v0q10 3 11 7q1 6 -2.5 7.5t-9.5 1.5q0 1 -1 1v0q-55 -1 -83 -3q3 7 4 15q9 62 22.5 176.5t16.5 143.5q11 85 27 178q3 8 0 18h24
q17 -12 27 4q10 14 1 30l-1 3h-3z" />
    <glyph glyph-name="Idieresis" unicode="&#xcf;" horiz-adv-x="330" 
d="M195 635q0 -19 -13 -31.5t-30 -12.5q-18 0 -31 12.5t-13 31.5q0 18 13 31t31 13q17 0 30 -13t13 -31zM343 635q0 -19 -13 -31.5t-30 -12.5t-30.5 12.5t-13.5 31.5q0 18 13.5 31t30.5 13t30 -13t13 -31zM269 595q-11 1 -24.5 1t-36.5 -3q-24 -2 -26 -2h-1h-1q-7 -3 -27 -1
q-25 3 -31 -7t-1 -23q6 -15 21 -8q23 3 39 4q-5 -34 -18 -152q-3 -29 -15.5 -156.5t-22.5 -196.5v-1v-1v-5l-2 -4l-4 -4q-1 -1 -3 -2q-3 -2 -5 -2q-1 0 -6 -1q-5 -2 -6 -2q-3 -1 -6 -1t-6 -1q-17 5 -27 -10q-6 -9 -2.5 -15.5t14.5 -9.5h1q19 0 41 2t38.5 4.5t42 7t37.5 6.5
q1 0 2 0.5t2 0.5v0q10 3 11 7q1 6 -2.5 7.5t-9.5 1.5q0 1 -1 1v0q-55 -1 -83 -3q3 7 4 15q9 62 22.5 176.5t16.5 143.5q11 85 27 178q3 8 0 18h24q17 -12 27 4q10 14 1 30l-1 3h-3z" />
    <glyph glyph-name="Eth" unicode="&#xd0;" horiz-adv-x="458" 
d="M433 248q0 -108 -52 -173q-64 -79 -197 -79q-41 0 -134 10v200h-41v54h41v208q114 13 154 13q122 0 181 -73q48 -59 48 -160zM369 248q0 179 -168 179q-28 0 -88 -6v-161h160v-54h-160v-153q33 -3 83 -3q97 0 141 69q32 51 32 129z" />
    <glyph glyph-name="Ntilde" unicode="&#xd1;" horiz-adv-x="430" 
d="M463 655q-1 -35 -15.5 -55.5t-43.5 -20.5q-8 0 -19.5 4.5t-24 10t-23.5 10t-18 4.5q-8 0 -10 -7.5t-2 -16.5h-44q0 30 14.5 50.5t41.5 20.5q9 0 20.5 -4t22.5 -9.5t21.5 -9.5t17.5 -4q19 0 19 27h43zM344 608q-11 0 -20 -10q-8 -8 -11 -22q-5 -17 -5 -30v-9l9 9q2 2 8 16
q4 13 11 22q4 6 8 4q4 -9 6 -20q3 -11 4 -18t3.5 -21t2.5 -19v0q8 -66 11 -108t2 -100.5t-11 -107.5q-21 -112 -87 -147q-13 -8 -26 -5q-14 4 -25 17q-19 20 -35.5 49.5t-25.5 50.5q-8 22 -20 61q-24 69 -39 135q3 79 -11 132q2 21 -17 34q-11 7 -19 3q-8 -5 -11 -20v-4
q2 -47 21 -133q-3 -95 -28 -236q-2 -12 -7.5 -38.5t-6.5 -38.5t2 -39q1 -16 6 -21q8 -7 18 8q11 15 11 30q21 98 34 223q32 -107 74 -176q46 -76 96 -68v0q63 14 101 96q25 59 31 126q7 65 4 147q-6 114 -34 201q-4 28 -24 27z" />
    <glyph glyph-name="Ograve" unicode="&#xd2;" horiz-adv-x="430" 
d="M326 749q-6 0 -10 -2q-12 -5 -11 -16v0q4 -16 28 -102q6 -20 19.5 -61t19.5 -60l1 -1l1 -1q5 -4 7 -4q6 0 7 7l1 1v1v2q-3 19 -12 59q-8 39 -11 60q-3 18 -7.5 40t-7.5 36q-3 13 -3 15q0 20 -7 23q-5 3 -15 3zM94 381q-15 -14 -27 -30q21 61 52 106q27 40 63 66
q35 26 75 26h3q27 0 52 -13t36 -37q34 -66 16 -183q-24 -133 -98 -218q-24 -30 -58 -45q-33 -15 -65 -5q-45 14 -68 89q-7 27 -10 49l8 -10l21 -19l1 -1q6 -2 7 1.5t-1 8.5l-2 4v0q-24 28 -36 61q1 24 10 45v0q5 17 25 45q19 29 25 46q4 6 6 10q3 14 -10 17v0q-14 2 -25 -13
zM327 562q-31 17 -66 17q-60 0 -108 -42q-79 -65 -116 -181q-13 -39 -8 -82q-3 -14 -5 -27v-1q-4 -111 47 -187q15 -25 42.5 -38.5t55.5 -11.5q41 -1 78 26q37 26 65 67q48 68 70.5 148.5t18.5 163.5q-6 112 -74 148z" />
    <glyph glyph-name="Oacute" unicode="&#xd3;" horiz-adv-x="430" 
d="M353.5 684q-10.5 -1 -17 -8.5t-4.5 -15.5l1 -15q3 -9 -4 -22q-11 -22 -17 -23l-7 -3q-10 -3 -14.5 -12t0.5 -17t15.5 -11t20.5 0l8 4q13 5 25 17q10 11 20 32t7 42l-2 14q-2 8 -11.5 13.5t-20 4.5zM94 381q-15 -14 -27 -30q21 61 52 106q27 40 63 66q35 26 75 26h3
q27 0 52 -13t36 -37q34 -66 16 -183q-24 -133 -98 -218q-24 -30 -58 -45q-33 -15 -65 -5q-45 14 -68 89q-7 27 -10 49l8 -10l21 -19l1 -1q6 -2 7 1.5t-1 8.5l-2 4v0q-24 28 -36 61q1 24 10 45v0q5 17 25 45q19 29 25 46q4 6 6 10q3 14 -10 17v0q-14 2 -25 -13zM327 562
q-31 17 -66 17q-60 0 -108 -42q-79 -65 -116 -181q-13 -39 -8 -82q-3 -14 -5 -27v-1q-4 -111 47 -187q15 -25 42.5 -38.5t55.5 -11.5q41 -1 78 26q37 26 65 67q48 68 70.5 148.5t18.5 163.5q-6 112 -74 148z" />
    <glyph glyph-name="Ocircumflex" unicode="&#xd4;" horiz-adv-x="430" 
d="M439 597h-54l-41 71l-40 -71h-55l78 115h35zM94 381q-15 -14 -27 -30q21 61 52 106q27 40 63 66q35 26 75 26h3q27 0 52 -13t36 -37q34 -66 16 -183q-24 -133 -98 -218q-24 -30 -58 -45q-33 -15 -65 -5q-45 14 -68 89q-7 27 -10 49l8 -10l21 -19l1 -1q6 -2 7 1.5t-1 8.5
l-2 4v0q-24 28 -36 61q1 24 10 45v0q5 17 25 45q19 29 25 46q4 6 6 10q3 14 -10 17v0q-14 2 -25 -13zM327 562q-31 17 -66 17q-60 0 -108 -42q-79 -65 -116 -181q-13 -39 -8 -82q-3 -14 -5 -27v-1q-4 -111 47 -187q15 -25 42.5 -38.5t55.5 -11.5q41 -1 78 26q37 26 65 67
q48 68 70.5 148.5t18.5 163.5q-6 112 -74 148z" />
    <glyph glyph-name="Otilde" unicode="&#xd5;" horiz-adv-x="430" 
d="M463 655q-1 -35 -15.5 -55.5t-43.5 -20.5q-8 0 -19.5 4.5t-24 10t-23.5 10t-18 4.5q-8 0 -10 -7.5t-2 -16.5h-44q0 30 14.5 50.5t41.5 20.5q9 0 20.5 -4t22.5 -9.5t21.5 -9.5t17.5 -4q19 0 19 27h43zM94 381q-15 -14 -27 -30q21 61 52 106q27 40 63 66q35 26 75 26h3
q27 0 52 -13t36 -37q34 -66 16 -183q-24 -133 -98 -218q-24 -30 -58 -45q-33 -15 -65 -5q-45 14 -68 89q-7 27 -10 49l8 -10l21 -19l1 -1q6 -2 7 1.5t-1 8.5l-2 4v0q-24 28 -36 61q1 24 10 45v0q5 17 25 45q19 29 25 46q4 6 6 10q3 14 -10 17v0q-14 2 -25 -13zM327 562
q-31 17 -66 17q-60 0 -108 -42q-79 -65 -116 -181q-13 -39 -8 -82q-3 -14 -5 -27v-1q-4 -111 47 -187q15 -25 42.5 -38.5t55.5 -11.5q41 -1 78 26q37 26 65 67q48 68 70.5 148.5t18.5 163.5q-6 112 -74 148z" />
    <glyph glyph-name="Odieresis" unicode="&#xd6;" horiz-adv-x="430" 
d="M375 635q0 -19 -13 -31.5t-30 -12.5q-18 0 -31 12.5t-13 31.5q0 18 13 31t31 13q17 0 30 -13t13 -31zM523 635q0 -19 -13 -31.5t-30 -12.5t-30.5 12.5t-13.5 31.5q0 18 13.5 31t30.5 13t30 -13t13 -31zM94 381q-15 -14 -27 -30q21 61 52 106q27 40 63 66q35 26 75 26h3
q27 0 52 -13t36 -37q34 -66 16 -183q-24 -133 -98 -218q-24 -30 -58 -45q-33 -15 -65 -5q-45 14 -68 89q-7 27 -10 49l8 -10l21 -19l1 -1q6 -2 7 1.5t-1 8.5l-2 4v0q-24 28 -36 61q1 24 10 45v0q5 17 25 45q19 29 25 46q4 6 6 10q3 14 -10 17v0q-14 2 -25 -13zM327 562
q-31 17 -66 17q-60 0 -108 -42q-79 -65 -116 -181q-13 -39 -8 -82q-3 -14 -5 -27v-1q-4 -111 47 -187q15 -25 42.5 -38.5t55.5 -11.5q41 -1 78 26q37 26 65 67q48 68 70.5 148.5t18.5 163.5q-6 112 -74 148z" />
    <glyph glyph-name="multiply" unicode="&#xd7;" horiz-adv-x="416" 
d="M390 34l-40 -39l-142 148q-35 -35 -71 -74t-70 -74l-40 39l142 148q-35 37 -71 75.5t-71 75.5l40 39l142 -148q34 36 71 74.5t70 73.5l40 -39l-143 -150z" />
    <glyph glyph-name="Oslash" unicode="&#xd8;" horiz-adv-x="516" 
d="M492 237q0 -105 -65 -176t-168 -71q-47 0 -86 14l-16 -32h-64l30 59q-17 13 -32 30q-65 71 -65 176t65 176.5t168 71.5q49 0 89 -16l12 23h64l-27 -52q16 -12 30 -27q65 -71 65 -176zM323 419q-29 12 -64 12q-77 0 -124 -55.5t-47 -137.5t47 -138q7 -9 15 -16zM430 238
q0 82 -47 137q-6 7 -12 13l-172 -333q27 -10 60 -10q77 0 124 55.5t47 137.5z" />
    <glyph glyph-name="Ugrave" unicode="&#xd9;" horiz-adv-x="400" 
d="M343 749q-6 0 -10 -2q-12 -5 -11 -16v0q4 -16 28 -102q6 -20 19.5 -61t19.5 -60l1 -1l1 -1q5 -4 7 -4q6 0 7 7l1 1v1v2q-3 19 -12 59q-8 39 -11 60q-3 18 -7.5 40t-7.5 36q-3 13 -3 15q0 20 -7 23q-5 3 -15 3zM130 570q-13 0 -33 -39l-1 -1q-51 -106 -64 -249
q-9 -140 37 -211q24 -38 66 -53q41 -14 77 11q31 23 51 58q20 34 42 85q1 5 3 10q3 -99 31 -184v-1l15 -35l6 5q3 3 -1 18q-27 111 -23 210q1 41 5 87q28 103 45 232q7 16 0 36q-5 13 -13 13.5t-16 -9.5l-1 -1v-4q-26 -109 -40 -222q-2 -12 -3 -26l-12 -39q-14 -43 -23 -69
t-26 -59.5t-37 -57.5q-14 -18 -33 -25t-39 2q-57 21 -71 112q-18 122 30 269q4 12 21 55t19 68v4l-1 2q-5 8 -11 8z" />
    <glyph glyph-name="Uacute" unicode="&#xda;" horiz-adv-x="400" 
d="M377.5 684q-10.5 -1 -17 -8.5t-4.5 -15.5l1 -15q3 -9 -4 -22q-11 -22 -17 -23l-7 -3q-10 -3 -14.5 -12t0.5 -17t15.5 -11t20.5 0l8 4q13 5 25 17q10 11 20 32t7 42l-2 14q-2 8 -11.5 13.5t-20 4.5zM130 570q-13 0 -33 -39l-1 -1q-51 -106 -64 -249q-9 -140 37 -211
q24 -38 66 -53q41 -14 77 11q31 23 51 58q20 34 42 85q1 5 3 10q3 -99 31 -184v-1l15 -35l6 5q3 3 -1 18q-27 111 -23 210q1 41 5 87q28 103 45 232q7 16 0 36q-5 13 -13 13.5t-16 -9.5l-1 -1v-4q-26 -109 -40 -222q-2 -12 -3 -26l-12 -39q-14 -43 -23 -69t-26 -59.5
t-37 -57.5q-14 -18 -33 -25t-39 2q-57 21 -71 112q-18 122 30 269q4 12 21 55t19 68v4l-1 2q-5 8 -11 8z" />
    <glyph glyph-name="Ucircumflex" unicode="&#xdb;" horiz-adv-x="400" 
d="M458 597h-54l-41 71l-40 -71h-55l78 115h35zM130 570q-13 0 -33 -39l-1 -1q-51 -106 -64 -249q-9 -140 37 -211q24 -38 66 -53q41 -14 77 11q31 23 51 58q20 34 42 85q1 5 3 10q3 -99 31 -184v-1l15 -35l6 5q3 3 -1 18q-27 111 -23 210q1 41 5 87q28 103 45 232
q7 16 0 36q-5 13 -13 13.5t-16 -9.5l-1 -1v-4q-26 -109 -40 -222q-2 -12 -3 -26l-12 -39q-14 -43 -23 -69t-26 -59.5t-37 -57.5q-14 -18 -33 -25t-39 2q-57 21 -71 112q-18 122 30 269q4 12 21 55t19 68v4l-1 2q-5 8 -11 8z" />
    <glyph glyph-name="Udieresis" unicode="&#xdc;" horiz-adv-x="400" 
d="M392 635q0 -19 -13 -31.5t-30 -12.5q-18 0 -31 12.5t-13 31.5q0 18 13 31t31 13q17 0 30 -13t13 -31zM540 635q0 -19 -13 -31.5t-30 -12.5t-30.5 12.5t-13.5 31.5q0 18 13.5 31t30.5 13t30 -13t13 -31zM130 570q-13 0 -33 -39l-1 -1q-51 -106 -64 -249q-9 -140 37 -211
q24 -38 66 -53q41 -14 77 11q31 23 51 58q20 34 42 85q1 5 3 10q3 -99 31 -184v-1l15 -35l6 5q3 3 -1 18q-27 111 -23 210q1 41 5 87q28 103 45 232q7 16 0 36q-5 13 -13 13.5t-16 -9.5l-1 -1v-4q-26 -109 -40 -222q-2 -12 -3 -26l-12 -39q-14 -43 -23 -69t-26 -59.5
t-37 -57.5q-14 -18 -33 -25t-39 2q-57 21 -71 112q-18 122 30 269q4 12 21 55t19 68v4l-1 2q-5 8 -11 8z" />
    <glyph glyph-name="Yacute" unicode="&#xdd;" 
d="M383.5 684q-10.5 -1 -17 -8.5t-4.5 -15.5l1 -15q3 -9 -4 -22q-11 -22 -17 -23l-7 -3q-10 -3 -14.5 -12t0.5 -17t15.5 -11t20.5 0l8 4q13 5 25 17q10 11 20 32t7 42l-2 14q-2 8 -11.5 13.5t-20 4.5zM44 594q-13 -5 -18 -13t1 -17q4 -7 10 -12q5 -5 14 -13t11 -10v0
q61 -57 95 -147v-1q5 -6 10 -28q6 -21 12 -29q-7 -34 -18 -94q-12 -64 -18 -90q-24 -89 -35 -142v-1q0 -1 -1 -3v-1v0q2 -20 10 -14l2 1l1 4q5 10 30 72v1q13 47 31 135t24 116q9 25 22 50q14 26 35 60q20 32 28 46h1q3 8 15 27t19 33.5t9 30.5v1q-1 14 -7 20q-6 8 -16 5
q-20 -6 -21 -30v-2q-15 -38 -51 -100q-30 -55 -42 -81q-6 11 -7 15v1q-42 108 -89 160l-1 1q-6 4 -22 22q-17 23 -32 27h-1h-1z" />
    <glyph glyph-name="Thorn" unicode="&#xde;" horiz-adv-x="392" 
d="M357 249q0 -77 -51 -117.5t-142 -40.5q-32 0 -52 4v-95h-59v476h59v-73q20 4 52 4q91 0 142 -40.5t51 -117.5zM299 249q0 106 -133 106q-31 0 -54 -8v-196q23 -8 54 -8q133 0 133 106z" />
    <glyph glyph-name="germandbls" unicode="&#xdf;" horiz-adv-x="425" 
d="M376 109q0 -55 -34.5 -86.5t-92.5 -31.5q-26 0 -49.5 6.5t-46.5 18.5l20 54q45 -24 77 -24t50 16.5t18 40.5q0 22 -15 39t-33.5 33.5t-33.5 34.5t-15 42q0 13 10 28.5t22.5 31t22.5 30t10 26.5q0 67 -72 67q-84 0 -84 -154v-321q0 -26 -6.5 -52t-20.5 -51l-57 15
q13 25 18.5 46.5t5.5 41.5v337q0 195 151 195q54 0 88.5 -32.5t34.5 -89.5q0 -23 -10 -41.5t-21.5 -33.5t-21.5 -26t-10 -20q0 -10 15 -23.5t32.5 -31.5t32.5 -39t15 -46z" />
    <glyph glyph-name="agrave" unicode="&#xe0;" horiz-adv-x="350" 
d="M176 537q-6 0 -10 -2q-12 -5 -11 -16v0q4 -16 28 -102q6 -20 19.5 -61t19.5 -60l1 -1l1 -1q5 -4 7 -4q6 0 7 7l1 1v1v2q-3 19 -12 59q-8 39 -11 60q-3 18 -7.5 40t-7.5 36q-3 13 -3 15q0 20 -7 23q-5 3 -15 3zM238 405h-5q-44 0 -83 -23q-42 -22 -69 -61
q-37 -51 -49.5 -115.5t-0.5 -129.5q5 -30 20 -55q16 -25 43 -33q55 -15 113 41q39 39 64 91q4 -45 14 -82q21 -69 60 -82h1q15 -3 27 1l20 8l-22 2q-26 2 -40 20q-10 16 -17 38q-6 23 -8 38t-4 43q-3 44 -3 86q17 55 19 112q3 18 -2 35q-3 11 -11.5 12.5t-16.5 -5.5l-1 -1
l-1 -2q-3 -10 -5 -20.5t-4 -30.5q-2 -16 -3 -20v-1v-1q-3 -38 -4 -67q-28 -98 -92 -157q-46 -38 -81 -22q-27 15 -35 77q-6 59 9 114q15 56 52 97q43 52 117 50v0q38 1 53 16l2 3l-2 3q-2 5 -6 8q-3 3 -8 5q-4 3 -7 4t-9 2t-9 1h-8q-6 1 -8 1z" />
    <glyph glyph-name="aacute" unicode="&#xe1;" horiz-adv-x="350" 
d="M203.5 472q-10.5 -1 -17 -8.5t-4.5 -15.5l1 -15q3 -9 -4 -22q-11 -22 -17 -23l-7 -3q-10 -3 -14.5 -12t0.5 -17t15.5 -11t20.5 0l8 4q13 5 25 17q10 11 20 32t7 42l-2 14q-2 8 -11.5 13.5t-20 4.5zM238 405h-5q-44 0 -83 -23q-42 -22 -69 -61q-37 -51 -49.5 -115.5
t-0.5 -129.5q5 -30 20 -55q16 -25 43 -33q55 -15 113 41q39 39 64 91q4 -45 14 -82q21 -69 60 -82h1q15 -3 27 1l20 8l-22 2q-26 2 -40 20q-10 16 -17 38q-6 23 -8 38t-4 43q-3 44 -3 86q17 55 19 112q3 18 -2 35q-3 11 -11.5 12.5t-16.5 -5.5l-1 -1l-1 -2q-3 -10 -5 -20.5
t-4 -30.5q-2 -16 -3 -20v-1v-1q-3 -38 -4 -67q-28 -98 -92 -157q-46 -38 -81 -22q-27 15 -35 77q-6 59 9 114q15 56 52 97q43 52 117 50v0q38 1 53 16l2 3l-2 3q-2 5 -6 8q-3 3 -8 5q-4 3 -7 4t-9 2t-9 1h-8q-6 1 -8 1z" />
    <glyph glyph-name="acircumflex" unicode="&#xe2;" horiz-adv-x="350" 
d="M289 385h-54l-41 71l-40 -71h-55l78 115h35zM238 405h-5q-44 0 -83 -23q-42 -22 -69 -61q-37 -51 -49.5 -115.5t-0.5 -129.5q5 -30 20 -55q16 -25 43 -33q55 -15 113 41q39 39 64 91q4 -45 14 -82q21 -69 60 -82h1q15 -3 27 1l20 8l-22 2q-26 2 -40 20q-10 16 -17 38
q-6 23 -8 38t-4 43q-3 44 -3 86q17 55 19 112q3 18 -2 35q-3 11 -11.5 12.5t-16.5 -5.5l-1 -1l-1 -2q-3 -10 -5 -20.5t-4 -30.5q-2 -16 -3 -20v-1v-1q-3 -38 -4 -67q-28 -98 -92 -157q-46 -38 -81 -22q-27 15 -35 77q-6 59 9 114q15 56 52 97q43 52 117 50v0q38 1 53 16l2 3
l-2 3q-2 5 -6 8q-3 3 -8 5q-4 3 -7 4t-9 2t-9 1h-8q-6 1 -8 1z" />
    <glyph glyph-name="atilde" unicode="&#xe3;" horiz-adv-x="350" 
d="M314 443q-1 -35 -15.5 -55.5t-43.5 -20.5q-8 0 -19.5 4.5t-24 10t-23.5 10t-18 4.5q-8 0 -10 -7.5t-2 -16.5h-44q0 30 14.5 50.5t41.5 20.5q9 0 20.5 -4t22.5 -9.5t21.5 -9.5t17.5 -4q19 0 19 27h43zM238 405h-5q-44 0 -83 -23q-42 -22 -69 -61q-37 -51 -49.5 -115.5
t-0.5 -129.5q5 -30 20 -55q16 -25 43 -33q55 -15 113 41q39 39 64 91q4 -45 14 -82q21 -69 60 -82h1q15 -3 27 1l20 8l-22 2q-26 2 -40 20q-10 16 -17 38q-6 23 -8 38t-4 43q-3 44 -3 86q17 55 19 112q3 18 -2 35q-3 11 -11.5 12.5t-16.5 -5.5l-1 -1l-1 -2q-3 -10 -5 -20.5
t-4 -30.5q-2 -16 -3 -20v-1v-1q-3 -38 -4 -67q-28 -98 -92 -157q-46 -38 -81 -22q-27 15 -35 77q-6 59 9 114q15 56 52 97q43 52 117 50v0q38 1 53 16l2 3l-2 3q-2 5 -6 8q-3 3 -8 5q-4 3 -7 4t-9 2t-9 1h-8q-6 1 -8 1z" />
    <glyph glyph-name="adieresis" unicode="&#xe4;" horiz-adv-x="350" 
d="M226 425q0 -19 -13 -31.5t-30 -12.5q-18 0 -31 12.5t-13 31.5q0 18 13 31t31 13q17 0 30 -13t13 -31zM374 425q0 -19 -13 -31.5t-30 -12.5t-30.5 12.5t-13.5 31.5q0 18 13.5 31t30.5 13t30 -13t13 -31zM238 405h-5q-44 0 -83 -23q-42 -22 -69 -61q-37 -51 -49.5 -115.5
t-0.5 -129.5q5 -30 20 -55q16 -25 43 -33q55 -15 113 41q39 39 64 91q4 -45 14 -82q21 -69 60 -82h1q15 -3 27 1l20 8l-22 2q-26 2 -40 20q-10 16 -17 38q-6 23 -8 38t-4 43q-3 44 -3 86q17 55 19 112q3 18 -2 35q-3 11 -11.5 12.5t-16.5 -5.5l-1 -1l-1 -2q-3 -10 -5 -20.5
t-4 -30.5q-2 -16 -3 -20v-1v-1q-3 -38 -4 -67q-28 -98 -92 -157q-46 -38 -81 -22q-27 15 -35 77q-6 59 9 114q15 56 52 97q43 52 117 50v0q38 1 53 16l2 3l-2 3q-2 5 -6 8q-3 3 -8 5q-4 3 -7 4t-9 2t-9 1h-8q-6 1 -8 1z" />
    <glyph glyph-name="aring" unicode="&#xe5;" horiz-adv-x="350" 
d="M298 464q0 -33 -23.5 -56.5t-56.5 -23.5t-56.5 23.5t-23.5 56.5t23.5 56.5t56.5 23.5t56.5 -23.5t23.5 -56.5zM256 464q0 16 -11 27t-27 11t-27.5 -11t-11.5 -27t11.5 -27.5t27.5 -11.5t27 11.5t11 27.5zM238 405h-5q-44 0 -83 -23q-42 -22 -69 -61q-37 -51 -49.5 -115.5
t-0.5 -129.5q5 -30 20 -55q16 -25 43 -33q55 -15 113 41q39 39 64 91q4 -45 14 -82q21 -69 60 -82h1q15 -3 27 1l20 8l-22 2q-26 2 -40 20q-10 16 -17 38q-6 23 -8 38t-4 43q-3 44 -3 86q17 55 19 112q3 18 -2 35q-3 11 -11.5 12.5t-16.5 -5.5l-1 -1l-1 -2q-3 -10 -5 -20.5
t-4 -30.5q-2 -16 -3 -20v-1v-1q-3 -38 -4 -67q-28 -98 -92 -157q-46 -38 -81 -22q-27 15 -35 77q-6 59 9 114q15 56 52 97q43 52 117 50v0q38 1 53 16l2 3l-2 3q-2 5 -6 8q-3 3 -8 5q-4 3 -7 4t-9 2t-9 1h-8q-6 1 -8 1z" />
    <glyph glyph-name="ae" unicode="&#xe6;" horiz-adv-x="620" 
d="M580 18q-68 -27 -140 -27q-98 0 -150 70q-37 -70 -143 -70q-25 0 -47 7t-38.5 20t-26 32t-9.5 43q0 130 228 132q-2 34 -23 55.5t-59 21.5q-32 0 -118 -26l-8 57q70 21 130 21q45 0 74.5 -13.5t46.5 -47.5q48 61 139 61q154 0 159 -194h-279q5 -55 39.5 -84t88.5 -29
q58 0 131 26zM254 170q-85 -1 -123.5 -18.5t-38.5 -52.5q0 -26 16.5 -39.5t40.5 -13.5q48 0 76.5 27t28.5 75v22zM533 213q-7 37 -33 63t-68 26q-44 0 -72.5 -23.5t-37.5 -65.5h211z" />
    <glyph glyph-name="ccedilla" unicode="&#xe7;" horiz-adv-x="350" 
d="M291 -90q0 -32 -21 -50.5t-59 -18.5q-14 0 -31 4.5t-32 13.5l14 32q14 -7 28.5 -11t22.5 -4q32 0 32 30q0 28 -64 39l43 66h43l-28 -39q27 -8 39.5 -23.5t12.5 -38.5zM182 411q-38 -1 -83 -55q-45 -56 -62 -128q-18 -71 -4 -140q15 -71 60 -94q58 -31 134 11
q67 32 125 111l1 1v1q1 1 1 2q3 5 4 9q4 6 -3 9l-3 2l-2 -2q-9 -8 -27 -28q-17 -16 -27 -23v0q-6 -5 -20 -15t-22 -16t-19 -14q-11 -7 -20 -12q-65 -34 -111 -7q-32 21 -42 94q-7 58 12 116q18 60 58 105q33 35 55 31q3 -2 8 -7q7 -6 12 -10q7 -5 14 -4q8 0 13 7l1 1v-1
q0 21 -14 37q-13 15 -30 18q-4 1 -9 1z" />
    <glyph glyph-name="egrave" unicode="&#xe8;" horiz-adv-x="375" 
d="M176 537q-6 0 -10 -2q-12 -5 -11 -16v0q4 -16 28 -102q6 -20 19.5 -61t19.5 -60l1 -1l1 -1q5 -4 7 -4q6 0 7 7l1 1v1v2q-3 19 -12 59q-8 39 -11 60q-3 18 -7.5 40t-7.5 36q-3 13 -3 15q0 20 -7 23q-5 3 -15 3zM219 374q2 1 4 1q6 0 7 -4q1 -7 -2 -14q-3 -8 -8 -13v-1
q-33 -45 -86 -81q14 30 30 58q10 16 16 24q5 8 17 18q11 9 22 12v0zM248 401q-12 8 -26 8q-10 0 -18 -3q-25 -10 -42 -32t-37 -55q-21 -40 -35 -82q-7 -3 -19 -9q-15 -7 -24 -13q-10 -7 -16 -17v0q-4 -10 1 -16t16 -5q16 0 27 7q1 1 3 2q-6 -36 -5 -69q4 -65 40 -84
q53 -30 125 1q87 35 141 138l3 6q3 5 3 9q1 5 -2 8l-4 4l-3 -5q-2 -3 -14.5 -19t-17.5 -22q-5 -7 -15 -17l-18 -18q-65 -55 -111 -65q-54 -13 -81 13q-15 19 -15 68q2 34 10 70q69 39 118 99q12 14 17 22q5 9 11 23q5 15 4 29v1q-3 15 -16 23z" />
    <glyph glyph-name="eacute" unicode="&#xe9;" horiz-adv-x="375" 
d="M203.5 472q-10.5 -1 -17 -8.5t-4.5 -15.5l1 -15q3 -9 -4 -22q-11 -22 -17 -23l-7 -3q-10 -3 -14.5 -12t0.5 -17t15.5 -11t20.5 0l8 4q13 5 25 17q10 11 20 32t7 42l-2 14q-2 8 -11.5 13.5t-20 4.5zM219 374q2 1 4 1q6 0 7 -4q1 -7 -2 -14q-3 -8 -8 -13v-1
q-33 -45 -86 -81q14 30 30 58q10 16 16 24q5 8 17 18q11 9 22 12v0zM248 401q-12 8 -26 8q-10 0 -18 -3q-25 -10 -42 -32t-37 -55q-21 -40 -35 -82q-7 -3 -19 -9q-15 -7 -24 -13q-10 -7 -16 -17v0q-4 -10 1 -16t16 -5q16 0 27 7q1 1 3 2q-6 -36 -5 -69q4 -65 40 -84
q53 -30 125 1q87 35 141 138l3 6q3 5 3 9q1 5 -2 8l-4 4l-3 -5q-2 -3 -14.5 -19t-17.5 -22q-5 -7 -15 -17l-18 -18q-65 -55 -111 -65q-54 -13 -81 13q-15 19 -15 68q2 34 10 70q69 39 118 99q12 14 17 22q5 9 11 23q5 15 4 29v1q-3 15 -16 23z" />
    <glyph glyph-name="ecircumflex" unicode="&#xea;" horiz-adv-x="375" 
d="M290 385h-54l-41 71l-40 -71h-55l78 115h35zM219 374q2 1 4 1q6 0 7 -4q1 -7 -2 -14q-3 -8 -8 -13v-1q-33 -45 -86 -81q14 30 30 58q10 16 16 24q5 8 17 18q11 9 22 12v0zM248 401q-12 8 -26 8q-10 0 -18 -3q-25 -10 -42 -32t-37 -55q-21 -40 -35 -82q-7 -3 -19 -9
q-15 -7 -24 -13q-10 -7 -16 -17v0q-4 -10 1 -16t16 -5q16 0 27 7q1 1 3 2q-6 -36 -5 -69q4 -65 40 -84q53 -30 125 1q87 35 141 138l3 6q3 5 3 9q1 5 -2 8l-4 4l-3 -5q-2 -3 -14.5 -19t-17.5 -22q-5 -7 -15 -17l-18 -18q-65 -55 -111 -65q-54 -13 -81 13q-15 19 -15 68
q2 34 10 70q69 39 118 99q12 14 17 22q5 9 11 23q5 15 4 29v1q-3 15 -16 23z" />
    <glyph glyph-name="edieresis" unicode="&#xeb;" horiz-adv-x="375" 
d="M225 425q0 -19 -13 -31.5t-30 -12.5q-18 0 -31 12.5t-13 31.5q0 18 13 31t31 13q17 0 30 -13t13 -31zM373 425q0 -19 -13 -31.5t-30 -12.5t-30.5 12.5t-13.5 31.5q0 18 13.5 31t30.5 13t30 -13t13 -31zM219 374q2 1 4 1q6 0 7 -4q1 -7 -2 -14q-3 -8 -8 -13v-1
q-33 -45 -86 -81q14 30 30 58q10 16 16 24q5 8 17 18q11 9 22 12v0zM248 401q-12 8 -26 8q-10 0 -18 -3q-25 -10 -42 -32t-37 -55q-21 -40 -35 -82q-7 -3 -19 -9q-15 -7 -24 -13q-10 -7 -16 -17v0q-4 -10 1 -16t16 -5q16 0 27 7q1 1 3 2q-6 -36 -5 -69q4 -65 40 -84
q53 -30 125 1q87 35 141 138l3 6q3 5 3 9q1 5 -2 8l-4 4l-3 -5q-2 -3 -14.5 -19t-17.5 -22q-5 -7 -15 -17l-18 -18q-65 -55 -111 -65q-54 -13 -81 13q-15 19 -15 68q2 34 10 70q69 39 118 99q12 14 17 22q5 9 11 23q5 15 4 29v1q-3 15 -16 23z" />
    <glyph glyph-name="igrave" unicode="&#xec;" horiz-adv-x="180" 
d="M69 537q-6 0 -10 -2q-12 -5 -11 -16v0q4 -16 28 -102q6 -20 19.5 -61t19.5 -60l1 -1l1 -1q5 -4 7 -4q6 0 7 7l1 1v1v2q-3 19 -12 59q-8 39 -11 60q-3 18 -7.5 40t-7.5 36q-3 13 -3 15q0 20 -7 23q-5 3 -15 3zM128 409q-10 0 -16 -15v0q-9 -52 -28 -180q-2 -10 -5.5 -38
t-4.5 -38t-4 -38t-3 -38q1 -10 1 -38q-3 -21 11 -30q15 -8 28 9q48 48 99 115v1l1 2l1 3q1 4 2 6q0 2 -0.5 4.5t-3.5 3.5q-4 2 -11 -6q-53 -61 -90 -98l-1 -1l-1 1q0 -2 -2 -4q-3 -3 -6 -5q0 16 2 50q4 29 10 62t13 73q7 41 11 63q7 44 19 96q5 12 -2 25q-8 15 -20 15z" />
    <glyph glyph-name="iacute" unicode="&#xed;" horiz-adv-x="180" 
d="M95.5 472q-10.5 -1 -17 -8.5t-4.5 -15.5l1 -15q3 -9 -4 -22q-11 -22 -17 -23l-7 -3q-10 -3 -14.5 -12t0.5 -17t15.5 -11t20.5 0l8 4q13 5 25 17q10 11 20 32t7 42l-2 14q-2 8 -11.5 13.5t-20 4.5zM128 409q-10 0 -16 -15v0q-9 -52 -28 -180q-2 -10 -5.5 -38t-4.5 -38
t-4 -38t-3 -38q1 -10 1 -38q-3 -21 11 -30q15 -8 28 9q48 48 99 115v1l1 2l1 3q1 4 2 6q0 2 -0.5 4.5t-3.5 3.5q-4 2 -11 -6q-53 -61 -90 -98l-1 -1l-1 1q0 -2 -2 -4q-3 -3 -6 -5q0 16 2 50q4 29 10 62t13 73q7 41 11 63q7 44 19 96q5 12 -2 25q-8 15 -20 15z" />
    <glyph glyph-name="icircumflex" unicode="&#xee;" horiz-adv-x="180" 
d="M182 385h-54l-41 71l-40 -71h-55l78 115h35zM128 409q-10 0 -16 -15v0q-9 -52 -28 -180q-2 -10 -5.5 -38t-4.5 -38t-4 -38t-3 -38q1 -10 1 -38q-3 -21 11 -30q15 -8 28 9q48 48 99 115v1l1 2l1 3q1 4 2 6q0 2 -0.5 4.5t-3.5 3.5q-4 2 -11 -6q-53 -61 -90 -98l-1 -1l-1 1
q0 -2 -2 -4q-3 -3 -6 -5q0 16 2 50q4 29 10 62t13 73q7 41 11 63q7 44 19 96q5 12 -2 25q-8 15 -20 15z" />
    <glyph glyph-name="idieresis" unicode="&#xef;" horiz-adv-x="180" 
d="M196 545q0 -19 -13 -31.5t-30 -12.5t-30.5 12.5t-13.5 31.5q0 18 13.5 31t30.5 13t30 -13t13 -31zM38 545q0 -19 -13 -31.5t-30 -12.5t-30.5 12.5t-13.5 31.5q0 18 13.5 31t30.5 13t30 -13t13 -31zM128 409q-10 0 -16 -15v0q-9 -52 -28 -180q-2 -10 -5.5 -38t-4.5 -38
t-4 -38t-3 -38q1 -10 1 -38q-3 -21 11 -30q15 -8 28 9q48 48 99 115v1l1 2l1 3q1 4 2 6q0 2 -0.5 4.5t-3.5 3.5q-4 2 -11 -6q-53 -61 -90 -98l-1 -1l-1 1q0 -2 -2 -4q-3 -3 -6 -5q0 16 2 50q4 29 10 62t13 73q7 41 11 63q7 44 19 96q5 12 -2 25q-8 15 -20 15z" />
    <glyph glyph-name="eth" unicode="&#xf0;" horiz-adv-x="376" 
d="M341 163q0 -81 -45.5 -130t-115.5 -49q-63 0 -103.5 45.5t-40.5 112.5q0 66 41 111t101 45t89 -32q-24 50 -85 98q-1 1 -2 1l-101 -52l-27 44l80 41q-36 20 -71 30l6 50q70 -14 125 -49l91 47l22 -46l-68 -35q104 -100 104 -232zM273 142q0 43 -26.5 72.5t-64.5 29.5
q-36 0 -62 -31t-26 -71t26 -71t62 -31q38 0 64.5 30t26.5 72z" />
    <glyph glyph-name="ntilde" unicode="&#xf1;" horiz-adv-x="375" 
d="M342 443q-1 -35 -15.5 -55.5t-43.5 -20.5q-8 0 -19.5 4.5t-24 10t-23.5 10t-18 4.5q-8 0 -10 -7.5t-2 -16.5h-44q0 30 14.5 50.5t41.5 20.5q9 0 20.5 -4t22.5 -9.5t21.5 -9.5t17.5 -4q19 0 19 27h43zM173.5 401.5q-10.5 8.5 -22.5 7.5q-4 0 -8 -1q-49 -6 -92 -73v0l-1 -1
q-10 -23 -10 -34q1 -14 14 -13h5l1 1q12 10 37 40q24 30 44 37v1h1q7 5 9 1q4 -6 3 -17v0q1 -57 -26 -151q-39 -68 -68 -135v-1v-1q0 -2 -2 -6l-3 -7q-1 -3 -2 -8t-1 -9t1 -8q2 -5 6 -9q4 -2 9 -3l1 -1l1 1q6 1 11 4t10 8q4 5 6 9t6 10t5 8q34 65 58 149q17 32 36 63
q17 24 25 35.5t24 29.5t32 27v1q9 6 20 3q8 -3 7 -13v0q0 -19 -4 -38q-5 -19 -15 -47q-10 -29 -13 -38v0q-29 -115 -12 -184q7 -29 28 -50t50 -22q17 0 26 3l26 10h-28q-2 0 -15 2q-21 2 -37.5 15.5t-22.5 33.5q-2 6 -3.5 15l-2.5 15q-1 5 -1 16v15q0 4 1 16q2 13 2 16
q0 2 2 16t2 16q4 32 34 119v0v1q0 2 3 13q4 11 5 16l3 15t2 17q0 6 -1 14.5t-3 16.5v0q-9 20 -31 22q-21 3 -35 -7q-19 -11 -37 -30t-28 -32q-8 -10 -19 -27q8 56 1 85q-3 14 -13.5 22.5z" />
    <glyph glyph-name="ograve" unicode="&#xf2;" horiz-adv-x="375" 
d="M214 537q-6 0 -10 -2q-12 -5 -11 -16v0q4 -16 28 -102q6 -20 19.5 -61t19.5 -60l1 -1l1 -1q5 -4 7 -4q6 0 7 7l1 1v1v2q-3 19 -12 59q-8 39 -11 60q-3 18 -7.5 40t-7.5 36q-3 13 -3 15q0 20 -7 23q-5 3 -15 3zM190 359q13 7 27 7q32 0 53 -23q25 -26 36.5 -62t9.5 -73
q-9 -64 -61 -123q-44 -50 -81 -44q-23 6 -43 27q-20 22 -28 51q-2 8 -3 14l15 30l-18 -18q-8 38 -4 62v1v4q1 4 1 6v4q0 4 -1 7q0 3 -1 6q0 4 -2 6q-1 3 -2 4l-3 4q3 4 5 9q47 78 100 101zM283 372q-27 24 -65 24q-25 0 -47 -14q-67 -35 -117 -133q-36 -71 -16 -118
q8 -19 25 -23q8 -23 18 -42v-1q17 -30 46 -51q28 -21 57 -20q55 4 108 74q56 76 57 148q-1 45 -17 86q-17 42 -49 70z" />
    <glyph glyph-name="oacute" unicode="&#xf3;" horiz-adv-x="375" 
d="M241.5 472q-10.5 -1 -17 -8.5t-4.5 -15.5l1 -15q3 -9 -4 -22q-11 -22 -17 -23l-7 -3q-10 -3 -14.5 -12t0.5 -17t15.5 -11t20.5 0l8 4q13 5 25 17q10 11 20 32t7 42l-2 14q-2 8 -11.5 13.5t-20 4.5zM190 359q13 7 27 7q32 0 53 -23q25 -26 36.5 -62t9.5 -73
q-9 -64 -61 -123q-44 -50 -81 -44q-23 6 -43 27q-20 22 -28 51q-2 8 -3 14l15 30l-18 -18q-8 38 -4 62v1v4q1 4 1 6v4q0 4 -1 7q0 3 -1 6q0 4 -2 6q-1 3 -2 4l-3 4q3 4 5 9q47 78 100 101zM283 372q-27 24 -65 24q-25 0 -47 -14q-67 -35 -117 -133q-36 -71 -16 -118
q8 -19 25 -23q8 -23 18 -42v-1q17 -30 46 -51q28 -21 57 -20q55 4 108 74q56 76 57 148q-1 45 -17 86q-17 42 -49 70z" />
    <glyph glyph-name="ocircumflex" unicode="&#xf4;" horiz-adv-x="375" 
d="M328 385h-54l-41 71l-40 -71h-55l78 115h35zM190 359q13 7 27 7q32 0 53 -23q25 -26 36.5 -62t9.5 -73q-9 -64 -61 -123q-44 -50 -81 -44q-23 6 -43 27q-20 22 -28 51q-2 8 -3 14l15 30l-18 -18q-8 38 -4 62v1v4q1 4 1 6v4q0 4 -1 7q0 3 -1 6q0 4 -2 6q-1 3 -2 4l-3 4
q3 4 5 9q47 78 100 101zM283 372q-27 24 -65 24q-25 0 -47 -14q-67 -35 -117 -133q-36 -71 -16 -118q8 -19 25 -23q8 -23 18 -42v-1q17 -30 46 -51q28 -21 57 -20q55 4 108 74q56 76 57 148q-1 45 -17 86q-17 42 -49 70z" />
    <glyph glyph-name="otilde" unicode="&#xf5;" horiz-adv-x="375" 
d="M352 443q-1 -35 -15.5 -55.5t-43.5 -20.5q-8 0 -19.5 4.5t-24 10t-23.5 10t-18 4.5q-8 0 -10 -7.5t-2 -16.5h-44q0 30 14.5 50.5t41.5 20.5q9 0 20.5 -4t22.5 -9.5t21.5 -9.5t17.5 -4q19 0 19 27h43zM190 359q13 7 27 7q32 0 53 -23q25 -26 36.5 -62t9.5 -73
q-9 -64 -61 -123q-44 -50 -81 -44q-23 6 -43 27q-20 22 -28 51q-2 8 -3 14l15 30l-18 -18q-8 38 -4 62v1v4q1 4 1 6v4q0 4 -1 7q0 3 -1 6q0 4 -2 6q-1 3 -2 4l-3 4q3 4 5 9q47 78 100 101zM283 372q-27 24 -65 24q-25 0 -47 -14q-67 -35 -117 -133q-36 -71 -16 -118
q8 -19 25 -23q8 -23 18 -42v-1q17 -30 46 -51q28 -21 57 -20q55 4 108 74q56 76 57 148q-1 45 -17 86q-17 42 -49 70z" />
    <glyph glyph-name="odieresis" unicode="&#xf6;" horiz-adv-x="375" 
d="M263 425q0 -19 -13 -31.5t-30 -12.5q-18 0 -31 12.5t-13 31.5q0 18 13 31t31 13q17 0 30 -13t13 -31zM411 425q0 -19 -13 -31.5t-30 -12.5t-30.5 12.5t-13.5 31.5q0 18 13.5 31t30.5 13t30 -13t13 -31zM190 359q13 7 27 7q32 0 53 -23q25 -26 36.5 -62t9.5 -73
q-9 -64 -61 -123q-44 -50 -81 -44q-23 6 -43 27q-20 22 -28 51q-2 8 -3 14l15 30l-18 -18q-8 38 -4 62v1v4q1 4 1 6v4q0 4 -1 7q0 3 -1 6q0 4 -2 6q-1 3 -2 4l-3 4q3 4 5 9q47 78 100 101zM283 372q-27 24 -65 24q-25 0 -47 -14q-67 -35 -117 -133q-36 -71 -16 -118
q8 -19 25 -23q8 -23 18 -42v-1q17 -30 46 -51q28 -21 57 -20q55 4 108 74q56 76 57 148q-1 45 -17 86q-17 42 -49 70z" />
    <glyph glyph-name="divide" unicode="&#xf7;" horiz-adv-x="416" 
d="M391 157h-365v54h365v-54zM257 56q0 -20 -14 -34t-33 -14t-33 14t-14 34t14 34t33 14t33 -14t14 -34zM257 313q0 -20 -14 -34t-33 -14t-33 14t-14 34t14 34t33 14t33 -14t14 -34z" />
    <glyph glyph-name="oslash" unicode="&#xf8;" horiz-adv-x="410" 
d="M386 172q0 -76 -51 -128t-129 -52q-33 0 -61 9l-15 -29h-64l29 56q-10 7 -18 16q-51 52 -51 128t51 128.5t129 52.5q28 0 53 -7l17 32h64l-29 -57q12 -9 24 -21q51 -52 51 -128zM324 172q0 54 -33 90l-7 7l-114 -219q17 -5 36 -5q52 0 85 36.5t33 90.5zM233 296
q-13 3 -27 3q-52 0 -85 -36.5t-33 -90.5t33 -91l1 -1z" />
    <glyph glyph-name="ugrave" unicode="&#xf9;" horiz-adv-x="375" 
d="M194 537q-6 0 -10 -2q-12 -5 -11 -16v0q4 -16 28 -102q6 -20 19.5 -61t19.5 -60l1 -1l1 -1q5 -4 7 -4q6 0 7 7l1 1v1v2q-3 19 -12 59q-8 39 -11 60q-3 18 -7.5 40t-7.5 36q-3 13 -3 15q0 20 -7 23q-5 3 -15 3zM77 398h-1q-8 -1 -14 -13q-20 -32 -37 -111
q-23 -129 11 -212q14 -35 45 -57.5t67 -21.5q57 0 94 71q14 25 25 56.5t17.5 54.5t16.5 61q2 9 4 17q0 -35 2 -64q4 -60 28 -114q24 -53 67 -88q4 -3 9 -5q12 -9 16 -3q1 2 1.5 3.5t-1.5 3.5t-2.5 3t-3 2.5l-2.5 1.5q-53 51 -70 131v1q-26 97 -6 234q5 12 3 30q0 11 -7.5 14
t-16.5 -3h-2l-1 -2q-19 -43 -38 -113q-2 -7 -13.5 -49.5t-16.5 -58t-17 -45.5q-11 -30 -24 -51t-33 -34q-19 -13 -40 -9q-26 4 -45 23q-20 20 -27 46q-27 86 8 203q2 5 10 30q8 24 9 39q2 10 -2 19q-5 10 -13 10z" />
    <glyph glyph-name="uacute" unicode="&#xfa;" horiz-adv-x="375" 
d="M241.5 472q-10.5 -1 -17 -8.5t-4.5 -15.5l1 -15q3 -9 -4 -22q-11 -22 -17 -23l-7 -3q-10 -3 -14.5 -12t0.5 -17t15.5 -11t20.5 0l8 4q13 5 25 17q10 11 20 32t7 42l-2 14q-2 8 -11.5 13.5t-20 4.5zM77 398h-1q-8 -1 -14 -13q-20 -32 -37 -111q-23 -129 11 -212
q14 -35 45 -57.5t67 -21.5q57 0 94 71q14 25 25 56.5t17.5 54.5t16.5 61q2 9 4 17q0 -35 2 -64q4 -60 28 -114q24 -53 67 -88q4 -3 9 -5q12 -9 16 -3q1 2 1.5 3.5t-1.5 3.5t-2.5 3t-3 2.5l-2.5 1.5q-53 51 -70 131v1q-26 97 -6 234q5 12 3 30q0 11 -7.5 14t-16.5 -3h-2
l-1 -2q-19 -43 -38 -113q-2 -7 -13.5 -49.5t-16.5 -58t-17 -45.5q-11 -30 -24 -51t-33 -34q-19 -13 -40 -9q-26 4 -45 23q-20 20 -27 46q-27 86 8 203q2 5 10 30q8 24 9 39q2 10 -2 19q-5 10 -13 10z" />
    <glyph glyph-name="ucircumflex" unicode="&#xfb;" horiz-adv-x="375" 
d="M315 385h-54l-41 71l-40 -71h-55l78 115h35zM77 398h-1q-8 -1 -14 -13q-20 -32 -37 -111q-23 -129 11 -212q14 -35 45 -57.5t67 -21.5q57 0 94 71q14 25 25 56.5t17.5 54.5t16.5 61q2 9 4 17q0 -35 2 -64q4 -60 28 -114q24 -53 67 -88q4 -3 9 -5q12 -9 16 -3q1 2 1.5 3.5
t-1.5 3.5t-2.5 3t-3 2.5l-2.5 1.5q-53 51 -70 131v1q-26 97 -6 234q5 12 3 30q0 11 -7.5 14t-16.5 -3h-2l-1 -2q-19 -43 -38 -113q-2 -7 -13.5 -49.5t-16.5 -58t-17 -45.5q-11 -30 -24 -51t-33 -34q-19 -13 -40 -9q-26 4 -45 23q-20 20 -27 46q-27 86 8 203q2 5 10 30
q8 24 9 39q2 10 -2 19q-5 10 -13 10z" />
    <glyph glyph-name="udieresis" unicode="&#xfc;" horiz-adv-x="375" 
d="M245 425q0 -19 -13 -31.5t-30 -12.5q-18 0 -31 12.5t-13 31.5q0 18 13 31t31 13q17 0 30 -13t13 -31zM393 425q0 -19 -13 -31.5t-30 -12.5t-30.5 12.5t-13.5 31.5q0 18 13.5 31t30.5 13t30 -13t13 -31zM77 398h-1q-8 -1 -14 -13q-20 -32 -37 -111q-23 -129 11 -212
q14 -35 45 -57.5t67 -21.5q57 0 94 71q14 25 25 56.5t17.5 54.5t16.5 61q2 9 4 17q0 -35 2 -64q4 -60 28 -114q24 -53 67 -88q4 -3 9 -5q12 -9 16 -3q1 2 1.5 3.5t-1.5 3.5t-2.5 3t-3 2.5l-2.5 1.5q-53 51 -70 131v1q-26 97 -6 234q5 12 3 30q0 11 -7.5 14t-16.5 -3h-2
l-1 -2q-19 -43 -38 -113q-2 -7 -13.5 -49.5t-16.5 -58t-17 -45.5q-11 -30 -24 -51t-33 -34q-19 -13 -40 -9q-26 4 -45 23q-20 20 -27 46q-27 86 8 203q2 5 10 30q8 24 9 39q2 10 -2 19q-5 10 -13 10z" />
    <glyph glyph-name="yacute" unicode="&#xfd;" horiz-adv-x="375" 
d="M241.5 472q-10.5 -1 -17 -8.5t-4.5 -15.5l1 -15q3 -9 -4 -22q-11 -22 -17 -23l-7 -3q-10 -3 -14.5 -12t0.5 -17t15.5 -11t20.5 0l8 4q13 5 25 17q10 11 20 32t7 42l-2 14q-2 8 -11.5 13.5t-20 4.5zM86 391q-9 -1 -21 -17q-11 -14 -14 -25q-41 -98 -37 -220q3 -45 14 -77
q12 -35 43 -51v-1q45 -15 88 9q41 22 68 64q39 61 61 133q-1 -60 -11 -138q-7 -45 -15 -89q-39 -57 -69 -110q-76 -151 -107 -268q-11 -29 12 -39q22 -11 36 16q57 79 111 229q32 91 51 179q31 46 69 96v1l1 2q1 2 6 8q5 8 9 14q5 8 2 12l-4 4l-4 -4q-38 -44 -70 -83
q21 127 13 245q-5 54 -13 64q-11 -20 -28 1l-2 -2v-5q-7 -79 -16 -109q-39 -135 -105 -183q-13 -9 -28 -13t-31 0q-15 3 -23 16q-16 30 -18.5 72t2.5 74v1q3 34 18.5 93t18.5 74q2 8 2 12q0 15 -9 15zM245 -94q-42 -165 -120 -291l-6 -8q20 80 68 188q26 54 58 111z" />
    <glyph glyph-name="thorn" unicode="&#xfe;" horiz-adv-x="437" 
d="M402 179q0 -84 -49.5 -136t-127.5 -52q-67 0 -111 41v-166h-59v610h59v-169q50 47 121 47q73 0 120 -49.5t47 -125.5zM344 178q0 54 -32 89t-83 35q-47 0 -81 -29.5t-34 -76.5v-57q0 -38 34.5 -65.5t79.5 -27.5q52 0 84 35t32 97z" />
    <glyph glyph-name="ydieresis" unicode="&#xff;" horiz-adv-x="375" 
d="M278 425q0 -19 -13 -31.5t-30 -12.5q-18 0 -31 12.5t-13 31.5q0 18 13 31t31 13q17 0 30 -13t13 -31zM426 425q0 -19 -13 -31.5t-30 -12.5t-30.5 12.5t-13.5 31.5q0 18 13.5 31t30.5 13t30 -13t13 -31zM86 391q-9 -1 -21 -17q-11 -14 -14 -25q-41 -98 -37 -220
q3 -45 14 -77q12 -35 43 -51v-1q45 -15 88 9q41 22 68 64q39 61 61 133q-1 -60 -11 -138q-7 -45 -15 -89q-39 -57 -69 -110q-76 -151 -107 -268q-11 -29 12 -39q22 -11 36 16q57 79 111 229q32 91 51 179q31 46 69 96v1l1 2q1 2 6 8q5 8 9 14q5 8 2 12l-4 4l-4 -4
q-38 -44 -70 -83q21 127 13 245q-5 54 -13 64q-11 -20 -28 1l-2 -2v-5q-7 -79 -16 -109q-39 -135 -105 -183q-13 -9 -28 -13t-31 0q-15 3 -23 16q-16 30 -18.5 72t2.5 74v1q3 34 18.5 93t18.5 74q2 8 2 12q0 15 -9 15zM245 -94q-42 -165 -120 -291l-6 -8q20 80 68 188
q26 54 58 111z" />
    <glyph glyph-name="dotlessi" unicode="&#x131;" horiz-adv-x="180" 
d="M128 409q-10 0 -16 -15v0q-9 -52 -28 -180q-2 -10 -5.5 -38t-4.5 -38t-4 -38t-3 -38q1 -10 1 -38q-3 -21 11 -30q15 -8 28 9q48 48 99 115v1l1 2l1 3q1 4 2 6q0 2 -0.5 4.5t-3.5 3.5q-4 2 -11 -6q-53 -61 -90 -98l-1 -1l-1 1q0 -2 -2 -4q-3 -3 -6 -5q0 16 2 50
q4 29 10 62t13 73q7 41 11 63q7 44 19 96q5 12 -2 25q-8 15 -20 15z" />
    <glyph glyph-name="Lslash" unicode="&#x141;" horiz-adv-x="358" 
d="M346 0h-296v149l-29 -7v62l29 7v265h63v-250l225 53v-62l-225 -53v-110h233v-54z" />
    <glyph glyph-name="lslash" unicode="&#x142;" horiz-adv-x="216" 
d="M207 49l-7 -57q-149 8 -149 183v61l-43 -12v54l43 12v214h63v-195l93 28v-54l-93 -28v-66q0 -77 24 -109q21 -27 69 -31z" />
    <glyph glyph-name="OE" unicode="&#x152;" horiz-adv-x="721" 
d="M698 0h-283v27q-60 -37 -136 -37q-111 0 -182 71t-71 177q0 105 71 176.5t182 71.5q76 0 136 -38v28h283v-54h-220v-144h196v-54h-196v-170h220v-54zM415 104v265q-51 62 -136 62q-76 0 -133 -58.5t-57 -134.5q0 -78 56.5 -136t133.5 -58q85 0 136 60z" />
    <glyph glyph-name="oe" unicode="&#x153;" horiz-adv-x="687" 
d="M642 73l7 -55q-73 -27 -139 -27q-101 0 -157 74q-53 -73 -147 -73q-78 0 -129 52t-51 128t51 128.5t129 52.5q97 0 148 -77q60 77 152 77q154 0 157 -193h-277q4 -53 38.5 -83t89.5 -30t128 26zM324 172q0 54 -33 90.5t-85 36.5t-85 -36.5t-33 -90.5t33 -90.5t85 -36.5
t85 36.5t33 90.5zM390 213h211q-5 40 -32.5 64t-68.5 24q-40 0 -71.5 -24.5t-38.5 -63.5z" />
    <glyph glyph-name="Scaron" unicode="&#x160;" horiz-adv-x="350" 
d="M294 544h-35l-77 115h54l41 -71l40 71h55zM406 591q-13 2 -24 2q-54 0 -101 -33q-47 -34 -75 -83q-41 -63 -14 -165q7 -31 35 -110q27 -78 32 -123v0q5 -24 -6 -46t-32 -30q-67 -22 -163 -1q-20 6 -34 11t-29 17q-15 11 -21 26q-3 14 4 31q7 18 15 27q8 10 25 27l6 6l1 1
q14 12 5 17q-3 2 -12 -4q-68 -46 -71 -98v-1q0 -55 80 -81q103 -32 194 -10q30 8 50 34.5t19 59.5q0 32 -8 64q-8 33 -23 78l-20 60q-9 31 -13 44t-8 39q-5 25 -3 45.5t9 38.5q22 49 62 82t87 35h1q14 2 43 -7q32 -9 50 -4l4 1v4q0 32 -65 46v0z" />
    <glyph glyph-name="scaron" unicode="&#x161;" 
d="M232 385h-35l-77 115h54l41 -71l40 71h55zM237 420q-21 0 -41 -9q-24 -10 -42 -30t-20 -48q-2 -7 0 -19q1 -12 0 -17q0 -6 3 -17q3 -12 5 -17q1 -6 5 -18q3 -12 5 -17t6 -16q5 -10 7 -16q1 -6 10 -28q8 -21 12 -31q3 -11 7 -29q4 -16 4 -30v-1q1 -17 -8 -31
q-10 -13 -23 -18q-70 -26 -128 8q-14 9 -19 28q-5 18 1 34v0q0 1 1 5t1 5.5v4.5q0 1 -2 1h-5q-9 -3 -16 -23q-1 -3 -1 -6q-5 -22 4 -43q10 -23 30 -35q34 -20 93 -18v0q64 7 89 42q25 36 3 110q-4 11 -28 71q-21 60 -25 93v1q-2 17 3 33q6 17 18 25v0q46 29 78 7
q4 -4 10 -13q7 -8 14 -14q8 -5 18 -7h2h1q12 5 10 16q-1 12 -6 21q-4 8 -11 17q-23 29 -65 29z" />
    <glyph glyph-name="Ydieresis" unicode="&#x178;" 
d="M338 583q0 -19 -13 -31.5t-30 -12.5q-18 0 -31 12.5t-13 31.5q0 18 13 31t31 13q17 0 30 -13t13 -31zM486 583q0 -19 -13 -31.5t-30 -12.5t-30.5 12.5t-13.5 31.5q0 18 13.5 31t30.5 13t30 -13t13 -31zM44 594q-13 -5 -18 -13t1 -17q4 -7 10 -12q5 -5 14 -13t11 -10v0
q61 -57 95 -147v-1q5 -6 10 -28q6 -21 12 -29q-7 -34 -18 -94q-12 -64 -18 -90q-24 -89 -35 -142v-1q0 -1 -1 -3v-1v0q2 -20 10 -14l2 1l1 4q5 10 30 72v1q13 47 31 135t24 116q9 25 22 50q14 26 35 60q20 32 28 46h1q3 8 15 27t19 33.5t9 30.5v1q-1 14 -7 20q-6 8 -16 5
q-20 -6 -21 -30v-2q-15 -38 -51 -100q-30 -55 -42 -81q-6 11 -7 15v1q-42 108 -89 160l-1 1q-6 4 -22 22q-17 23 -32 27h-1h-1z" />
    <glyph glyph-name="florin" unicode="&#x192;" horiz-adv-x="402" 
d="M327 254h-94l-35 -161q-35 -162 -160 -162q-39 0 -65 25l26 44q24 -14 49 -14q65 0 90 112l34 156h-54l10 52h56l3 16q20 78 60 120t100 42q39 0 65 -25l-26 -44q-24 14 -49 14q-66 0 -90 -112l-3 -11h93z" />
    <glyph glyph-name="circumflex" unicode="&#x2c6;" horiz-adv-x="216" 
d="M204 385h-54l-41 71l-40 -71h-55l78 115h35z" />
    <glyph glyph-name="caron" unicode="&#x2c7;" horiz-adv-x="306" 
d="M171 385h-35l-77 115h54l41 -71l40 71h55z" />
    <glyph glyph-name="breve" unicode="&#x2d8;" horiz-adv-x="341" 
d="M289 491q-10 -57 -40 -84.5t-78 -27.5t-78 27.5t-40 84.5h54q5 -25 20.5 -44.5t43.5 -19.5t44 19.5t21 44.5h53z" />
    <glyph glyph-name="dotaccent" unicode="&#x2d9;" horiz-adv-x="191" 
d="M140 545q0 -19 -13 -31.5t-30 -12.5t-30.5 12.5t-13.5 31.5q0 18 13.5 31t30.5 13t30 -13t13 -31z" />
    <glyph glyph-name="ring" unicode="&#x2da;" horiz-adv-x="265" 
d="M213 464q0 -33 -23.5 -56.5t-56.5 -23.5t-56.5 23.5t-23.5 56.5t23.5 56.5t56.5 23.5t56.5 -23.5t23.5 -56.5zM171 464q0 16 -11 27t-27 11t-27.5 -11t-11.5 -27t11.5 -27.5t27.5 -11.5t27 11.5t11 27.5z" />
    <glyph glyph-name="ogonek" unicode="&#x2db;" horiz-adv-x="254" 
d="M202 -136q-41 -17 -73 -17q-39 0 -57.5 23t-18.5 54q0 19 5.5 43t13.5 52h59q-21 -53 -21 -81q0 -32 28 -35q11 0 28.5 5.5t35.5 13.5v-58z" />
    <glyph glyph-name="tilde" unicode="&#x2dc;" horiz-adv-x="258" 
d="M228 443q-1 -35 -15.5 -55.5t-43.5 -20.5q-8 0 -19.5 4.5t-24 10t-23.5 10t-18 4.5q-8 0 -10 -7.5t-2 -16.5h-44q0 30 14.5 50.5t41.5 20.5q9 0 20.5 -4t22.5 -9.5t21.5 -9.5t17.5 -4q19 0 19 27h43z" />
    <glyph glyph-name="hungarumlaut" unicode="&#x2dd;" horiz-adv-x="358" 
d="M221 320h-42l63 171h64zM95 320h-42l63 171h63z" />
    <glyph glyph-name="kokaithai" unicode="&#xe01;" 
d="M120 405q-20 0 -36 -12t-19 -31v-1q0 -11 7 -39q7 -26 5 -41q-9 -90 -52 -218q-1 -3 -3 -10l-3 -9t-2 -9.5t-1 -10.5t1 -9.5t3 -11.5l1 -1v-1q5 -4 10 -6q6 -2 12 4q4 4 7 8t5 11t3 10t3 8v1q44 151 51 239v0v17q1 5 -2 18q-2 12 -3 16t-5 16q-3 10 -4 15q7 17 40 13h1
q40 -2 76.5 -22t58.5 -54q37 -57 5 -143q-24 -63 -54 -175l-2 -8v-12q2 -4 7 -1h1q4 3 10 16q6 16 18 44q13 28 22 51.5t16 44.5q27 72 26 118q0 71 -57 121q-59 54 -144 54h-2z" />
    <glyph glyph-name="khokhaithai" unicode="&#xe02;" horiz-adv-x="267" 
d="M141 147q-2 -13 -6 -28q-18 -62 -45 -89q-3 -4 -4 -4q0 1 -1 1q0 3 2 6l1 1q18 53 53 113zM43 391h-7l-2 -1q-13 -8 -12 -23q0 -14 8 -25q17 -25 73 -85l1 -1q4 -3 9 -9l8 -8q9 -16 14 -34h1l2 -6q-49 -78 -74 -139q-5 -12 -6 -18q-2 -6 -2 -18q0 -13 7 -21l1 -1
q15 -11 31 -5q14 5 24 18q37 44 52 117q8 32 1 67q13 19 47 71q35 55 56 84l1 1q1 3 3 8q3 5 5 6l12 13l-17 -4q-5 -1 -11 -6q-5 -5 -10 -11q-5 -7 -7 -8v-1q-60 -73 -81 -102l-12 12q-11 10 -13 13q-2 1 -4 3h-1q-25 48 -61 89v1l-12 12q-3 2 -6 5q-5 4 -10 5q-4 1 -8 1z
" />
    <glyph glyph-name="khokhuatthai" unicode="&#xe03;" horiz-adv-x="267" 
d="M155 408q-9 0 -15 -9v0q-8 -13 -20 -45q-10 -28 -20 -43q-8 15 -16 40q-9 29 -12 36q-5 19 -23 16t-18 -21q-1 -20 10 -75q1 -4 3.5 -15t4.5 -17q1 -7 6 -15q5 -9 11 -14q4 -6 7 -8q11 -7 19 6v1q5 10 2 20l-2 6q17 -5 29 9t26 46q-1 -40 -10 -108q-2 -20 -7 -55
q-6 -34 -9.5 -62.5t-5.5 -55.5v0q0 -36 20 -39h1q19 -1 35 30h1q6 13 11 26t9 30l6 26q3 10 7.5 30t6.5 27q6 25 19 91t23 101q1 4 2 11q6 12 -4 12h-2l-8 -9l-3 -5q-15 -34 -42 -130v0q-30 -133 -38 -160q-7 -19 -13 -32q3 34 12 92q11 64 13 77v1q0 3 2 18t2 20l2 18
q2 14 2.5 20.5t1 18.5t0.5 20t-1 18q0 10 -2 19q1 11 -5 21q-7 11 -18 11z" />
    <glyph glyph-name="khokhwaithai" unicode="&#xe04;" horiz-adv-x="347" 
d="M215 225v-2q1 -3 0 -7q-2 -6 -3.5 -10t-3.5 -11l-3 -9q-2 -3 -5 -10q-4 -9 -6 -12t-7 -8q-4 -4 -8 -7q-7 -1 -25 2q3 5 5 10q10 18 15.5 27.5t17.5 21.5q10 10 23 15zM238 404q-41 -1 -80 -27q-51 -35 -85 -88.5t-45 -113.5q-19 -103 21 -160q7 -19 27 -19t27 20
q6 14 12.5 31t13.5 38q6 18 10 29q54 -20 78 13q36 48 37 99q0 17 -13 29q-12 12 -29 9q-46 -10 -81 -78q-8 -15 -16 -35q-8 -1 -10 -7t2 -11q-3 -10 -14 -43q-11 -32 -19 -51q-24 38 -17 110q10 96 79 168q59 62 113 56q37 -3 55 -58q19 -63 15 -113q-12 -94 -63 -230v-1
v-1q0 -3 -2 -6l-3 -11q-2 -5 -2 -7v-15l9 12q9 12 30 55q44 105 54 161q13 60 1 118q-15 85 -56 113q-22 14 -49 14z" />
    <glyph glyph-name="khokhonthai" unicode="&#xe05;" 
d="M184 225q-4 -32 -31 -64v0q-3 -5 -5 -6q-2 1 -3 3q-3 3 -7 11v2q9 18 20 32v0q5 7 15 15q6 5 11 7zM298 385q-5 0 -10 -2t-9 -7l-6 -6q-3 -3 -7 -8t-5 -5v-1q-20 -32 -39 -17l-1 1q-7 2 -23 14q-17 12 -31 18q-15 5 -30 2q-30 -8 -51 -30t-40 -54q-41 -66 -49 -138
q-10 -93 30 -143q13 -19 32 -10q17 8 21 27q8 19 21 55q10 28 16 44q9 -9 22 -11q17 -3 30 7q36 27 52 85q5 15 0 33q-5 20 -23 25v0q-32 4 -66 -34q-10 -12 -20 -28q-8 4 -14 -5l-1 -1v-1q-2 -11 0 -23q-8 -16 -14 -33q-7 -18 -15.5 -43t-11.5 -36v-1q0 -3 -5 -13
q-2 -3 -4 -7q-5 8 -7 14q-24 61 2 152q17 55 55 104q29 35 53 35q14 -3 36 -19q25 -17 41 -20q27 -7 55 29l1 1v1q1 2 8 9q1 2 3 4q8 -31 1 -80q-13 -137 -31 -269v-1q0 -3 -1 -8q-1 -7 -1 -11q0 -5 1 -9l5 -14l5 14q4 13 14 57q2 8 9.5 44t10.5 51.5t7 42.5t6 50v0
q0 9 4.5 50t2.5 64q0 3 -2 12q-1 10 -2 14.5t-4 10.5q-3 8 -7 13l-1 1q-7 4 -13 4z" />
    <glyph glyph-name="khorakhangthai" unicode="&#xe06;" horiz-adv-x="400" 
d="M95 157q5 0 9 -2q7 -3 14 -8t11.5 -9t11.5 -12.5t9.5 -12t9.5 -14.5q5 -7 8 -11q-13 -22 -28 -39v0q-11 -14 -25 -19q-13 -5 -29 1q-35 26 -32 85v0q0 16 12.5 28t28.5 13zM369 413v-5q17 -63 -9 -161q-31 -108 -72 -197q-1 -2 -6 -17q-5 -14 -11 -19q-4 -4 -10 -1
q-8 6 -15 14q-8 9 -13 16t-13 19.5t-11 17.5v0q-1 2 -3 5q53 85 52 181q-4 75 -18 105q-8 19 -28 28q-21 10 -38 -4h-1v-1q-12 -14 -20 -46q-3 -12 -6 -20q-1 4 -3 9q-5 17 -10 25q-17 45 -46 40v0q-27 -7 -24 -51q6 -59 32 -89q8 -13 28 -19v0q16 -3 16 10q0 3 -1 7h-1
q-3 7 -6 13q3 -2 7 -4q15 -6 27 7v0q9 12 13 26q5 15 9 32q4 18 8 27v1q0 3 1 5q3 -1 7 -7q7 -10 8 -17v0q27 -107 -14 -202q-7 -13 -13 -24q-31 45 -60 62q-27 16 -56 3q-29 -12 -41 -39v0q-18 -53 14 -109q11 -22 33 -33q23 -11 46 -4q34 11 67 61q32 -50 53 -67
q16 -14 35 -7q19 6 26 24q48 104 70 179q34 122 18 198q0 5 -5 17q-5 10 -7 12q-4 4 -8 1z" />
    <glyph glyph-name="ngonguthai" unicode="&#xe07;" 
d="M195 405q-16 0 -21 -15v-1v-1v-10q-1 -5 3 -14q4 -7 5.5 -10t5.5 -10q5 -6 7 -9q46 -61 83 -99q7 -22 8 -42v-1q5 -42 -6 -82q-11 -39 -39 -69v0q-7 -9 -18.5 -11.5t-21.5 2.5q-45 18 -92 78q-32 40 -56 119q-26 82 -18 125v1q0 3 1 7q8 14 -3 14q-8 -3 -13 -14
q-12 -30 -5 -94q6 -51 37 -122h1q39 -78 105 -126q54 -37 92 -12v0q50 39 65 110q10 47 3 91q11 -1 18 4l2 2v2q0 11 -6 19q-5 8 -15 18l-12 12q-1 2 -6 8q-35 74 -79 118q-9 11 -25 12v0z" />
    <glyph glyph-name="chochanthai" unicode="&#xe08;" 
d="M195 408q-17 0 -33 -5q-73 -26 -118 -102q-20 -30 -22 -92q0 -74 34 -103q7 -6 14 -7q6 -2 8 -2q5 0 5 3t-2 7l-3 3l-4 2q-31 23 -26 87q7 70 29 100q47 66 107 78q26 7 60 -18q29 -19 41 -53.5t1 -66.5q-5 -15 -12 -29.5t-19 -32.5l-18 -25.5t-23 -29.5q-6 -7 -11 -12
q1 12 1 25q8 5 5 17v1q-3 8 -8 18q-9 45 -32 78q-10 18 -29 10q-19 -9 -13 -28q8 -38 38 -79l1 -3q4 -45 -9 -100q-11 -19 -12 -38q-3 -10 3.5 -18t15.5 -8q11 0 16 11q8 19 13 42q13 20 40 55q29 36 41 53q56 83 47 142q-4 33 -24 61q-21 28 -50 44q-24 15 -52 15z" />
    <glyph glyph-name="chochingthai" unicode="&#xe09;" horiz-adv-x="347" 
d="M279 77q5 0 10 -1q38 -8 40 -28q-2 -11 -12 -20t-24 -13q-11 0 -16 11q-6 13 -3 26v0q2 12 5 25zM195 402q-14 0 -26 -4q-50 -14 -86.5 -54.5t-49.5 -92.5q-16 -76 11 -126q12 -22 22 -23l13 -1l-8 9q-27 34 -21 93v0q3 65 59 125q51 53 102 43q29 -7 52 -28t33 -49
q5 -14 5.5 -29.5t-4.5 -34.5t-8.5 -29.5t-11.5 -32.5v-1q-2 -7 -10 -27q-6 -17 -10 -28q-25 0 -46 -7l-6 -3q7 19 9 37q8 1 13 4q9 5 1 17v1h-1q-5 4 -13 7q0 12 -3 22q-4 20 -20 33q-15 12 -36 17q-15 5 -29 -2q-15 -8 -13 -26q4 -24 23 -43q17 -18 40 -26q-3 -21 -14 -48
q-8 -21 -17 -36q-16 -14 -34 -34q-8 -6 -12 -16q-4 -11 -1 -20q5 -11 21 -8h1q27 13 56 59q14 11 31 23v0q15 12 40 15q-5 -22 -5 -40q0 -22 15 -39q15 -18 37 -16q25 2 45.5 21t22.5 44q1 21 -15 37q-15 15 -37 20q-10 3 -21 5q5 13 14 37q11 29 18 51q7 23 9 45
q9 63 -35 109q-45 50 -100 50z" />
    <glyph glyph-name="chochangthai" unicode="&#xe0a;" horiz-adv-x="240" 
d="M134 205q3 -9 5 -19q9 -52 -22 -125v-1q-6 -22 -17 -28h-2q-2 1 -3 7q0 14 1 27q1 12 5 30t5 24q2 7 10 30q8 24 8 26q4 15 10 29zM426 605q-7 0 -22 -14q-108 -98 -161 -165q-75 -92 -106 -143q-30 56 -69 96q-11 15 -26 13q-16 -3 -20 -17t5 -28q31 -49 90 -103
q-8 -17 -14 -35q-2 -5 -9.5 -26t-10 -29t-7.5 -26t-7 -29t-4 -27t-2 -30q-2 -22 16 -37q19 -15 39 0q13 11 23 29q11 18 15 30t10 34q19 67 1 119q8 1 11 5q6 6 -3 22l-16 16q28 49 84 121q90 108 173 198q1 2 3 5q3 3 4 3q1 2 2.5 3.5t4 5.5t2 6.5t-5.5 2.5z" />
    <glyph glyph-name="sosothai" unicode="&#xe0b;" horiz-adv-x="267" 
d="M431 611q-36 -18 -103 -77q-90 -80 -142 -209v-1q-7 -33 7 -91q13 -55 14 -68q-9 -66 -61 -119q3 42 16 121q14 82 17 123q3 24 3 55q0 32 -9 54l-1 1l-1 1q-4 4 -9 6q-12 4 -21 -7t-17 -33v-1q-3 -11 -14 -35q-6 -11 -10 -19q-2 3 -3 7q-4 10 -7 16l-6 18q-3 10 -5 16
q1 21 -19 31q-11 6 -19 1.5t-11 -18.5v-1q0 -35 19 -104q3 -19 21 -35q5 -5 10 -5q11 -2 14 16v1q-1 8 -2 17q3 -1 7 -2h1h1q13 2 22 13q9 9 13 18q4 7 10 22q-1 -29 -4 -59q-5 -46 -14 -102t-12 -88v0q0 -1 -1 -5v-1q-1 -13 -1 -20.5t1 -19.5q1 -14 10 -19q8 -5 22 -3h1
l1 1q68 53 87 143v0q3 25 -9 69q-11 43 -12 53v1q-9 34 13 76q61 126 190 237h1q0 1 7 7q8 7 11 11l13 17z" />
    <glyph glyph-name="chochoethai" unicode="&#xe0c;" horiz-adv-x="427" 
d="M189 88q3 0 7 -1q13 -4 26 -15q-12 -34 -32 -50q-14 -12 -27 -2q-14 12 -10 30v0q2 15 13 27q10 11 23 11zM139 403q-8 0 -16 -1q-26 -1 -47 -16q-23 -16 -26 -41v-1q1 -12 7 -22q6 -9 13 -19q8 -11 11 -16v-1q17 -21 0 -53q-6 -10 -23 -37q-17 -28 -27 -48
q-10 -22 -13 -44q-7 -70 18 -103q13 -18 31 -7q17 10 15 29q3 53 -13 93h-1q-1 4 -5 9q7 19 31 58q27 43 32 71v1q1 11 -2 23.5t-9 21.5q-5 8 -13 20q-9 12 -12 17v1v1q-5 5 -1 10q5 8 16 13q47 17 77 -7q45 -39 61 -118q11 -54 -8 -123q-2 -7 -4 -12q-5 4 -10 7
q-20 12 -43 8t-37 -23q-15 -15 -18 -36q-3 -22 5 -41q6 -16 21 -26q16 -10 33 -6q39 8 64 62q3 -3 7 -8q9 -11 14 -16q3 -4 10 -12l12 -12t11 -9q8 -6 15 -9q8 -3 16 -4h1q30 2 45 55v0q13 61 32 175t25 147v1q0 1 1 9q3 17 2 21q-1 6 -7 3h-2l-1 -4h-1q-9 -28 -16 -56
t-16.5 -71t-12.5 -55q-7 -30 -17.5 -85.5t-15.5 -79.5q-4 -16 -12 -27q-5 -7 -14 0q-12 9 -22 20q-11 12 -24 27q-11 13 -18 21q21 66 22 115q-1 110 -65 179q-29 31 -76 31z" />
    <glyph glyph-name="yoyingthai" unicode="&#xe0d;" horiz-adv-x="427" 
d="M412 18q-4 0 -8 -3l-1 -1q-34 -35 -52 -51q-40 -34 -71 -41v0q-10 -3 -19 -3q2 9 1 18v1q-2 13 -13 21t-22 7q-15 0 -25 -12.5t-8 -27.5q3 -26 36 -37q40 -13 83 12q46 28 103 103v1h1q4 13 -5 13zM139 403q-29 0 -55 -13q-17 -8 -27 -25q-11 -18 -2 -34v-1q3 -5 21 -19
q15 -12 14 -23q-2 -18 -10 -38q-9 -20 -21 -44q-14 -25 -19 -38q-39 -79 -14 -148q4 -21 24 -27q22 -6 30 17q18 53 3 115q-1 10 -11 23q6 14 20 44q17 33 24 51v1v1q0 1 1 2q14 46 2 67q-2 5 -7 10t-9.5 9t-8.5 7t-7 6q10 22 52 23v0q40 3 67 -37q41 -57 22 -158v-1
q-2 -19 -14 -65q-13 -47 -14 -74q-1 -15 9 -27q10 -13 27 -11v0q29 7 72 6q2 0 11 1h11q5 0 12.5 1.5t12 4t9.5 6.5t8 10v1q3 12 5 36q2 23 3 28v1q1 9 6 51.5t7.5 59.5t8 49.5t12 57.5t16.5 50v1v1q0 2 2 7q3 6 4 11q4 11 -5 11h-3l-1 -2q-28 -43 -52 -137
q-13 -47 -25 -167q-1 -5 -2 -25q-1 -17 -6 -24q-12 -3 -30 -3h-34q-9 1 -26 -3q-13 -2 -21 -2q-1 4 -1 9q0 7 1 11q1 5 3 14t2 12q30 110 30 168q-1 46 -20 88q-20 42 -59 63v1q-22 10 -48 10z" />
    <glyph glyph-name="dochadathai" unicode="&#xe0e;" 
d="M149 394q-16 0 -32 -4q-20 -1 -36 -14q-18 -14 -4 -33l1 -1q31 -30 35 -88q2 -58 -10 -115q-17 13 -36 0q-43 -30 -38 -100q-2 -22 13 -38q16 -19 37 -2q16 14 28 36t16 36q4 13 12 43q9 39 12.5 68t1.5 66q-2 38 -13 69q-3 8 -12 23q-5 8 -9 13q5 2 10 3q16 5 20 3h1h1
q37 2 69 -20q33 -22 53 -57q8 -17 11 -41q3 -23 2 -38q-2 -15 -7 -46t-6 -42q-9 -52 -27 -116.5t-30 -99.5q-11 -35 -37 -107q-12 13 -31 31q-19 20 -30 31q37 42 91 113q9 12 14 20l7 10v2q0 4 -4.5 4.5t-5.5 -1.5q-12 -13 -38 -42.5t-46 -50.5l-36 -38l-6 7q-3 2 -12 10
t-14 11q-5 2 -13 7q-9 5 -18 4q-8 0 -16 -5q-42 -23 -78 -92q-9 -15 -12 -23q-3 -9 -2 -24q0 -17 13 -25l1 -1h1q15 -3 34 2q18 5 27 11q8 6 27 19v0q33 26 66 61q9 -9 22 -23q17 -18 25 -27h1q4 -3 9 -9q6 -7 11 -12t13 -9q10 -4 18 3l1 1l1 1q67 183 95 300q19 90 25 156
q3 40 -15.5 78.5t-51.5 64.5q-44 37 -99 37zM84 100v-3l2 -10v-5q-4 -12 -9 -22v-1v-1q-1 -3 -8 -12q-1 30 14 53v1h1zM34 -120q3 0 6 -1q17 -11 36 -28q-41 -38 -80 -66v0q-2 -2 -7 -5q-7 -4 -13 -6.5t-12 -5.5q-5 -2 -9 -1q-1 0 -2 2q5 30 40 76q2 2 11.5 13t16.5 17
q6 5 13 5z" />
    <glyph glyph-name="topatakthai" unicode="&#xe0f;" 
d="M-9 -124q3 0 6 -1q2 0 5 -3q4 -4 7 -6q2 -2 5 -7q4 -5 5.5 -7.5t5.5 -8.5l2 -5q-19 -21 -39 -40q-4 -2 -10 -7l-12 -10q-5 -5 -11 -9q-5 -3 -9 -3q-3 0 -4 3q-4 28 7.5 56t33.5 46q5 2 8 2zM84 101q0 -2 1 -6q-1 -7 1 -13q-3 -9 -6 -16l-1 -1v-1q0 -3 -1 -6q-2 -3 -4 -5
l-5 -5q0 30 12 48v0zM110 -88q16 24 32 51v1l7 13q2 3 5 8l4.5 7.5t2 5t0.5 4.5q-2 4 -4.5 4t-4.5 -2l-2 -2v0q-8 -12 -25.5 -36.5t-27.5 -39t-25 -34.5q-13 -16 -25 -31q-9 14 -18 24q-16 23 -41.5 20.5t-40.5 -25.5q-21 -26 -30 -58t-2 -63v-1q8 -19 25 -19q16 0 30 8
q12 8 23 19q25 22 48 49q3 -6 6 -14q8 -17 15 -25q9 -10 23 -10h2l2 1q9 10 14 25q4 13 6 30t5 25l1 3l-2 2q0 1 1 4q2 6 5 13q0 1 1 2q4 -6 7 -12q7 -12 9.5 -18.5t10 -24.5t8.5 -21l1 -1q1 -2 3 -8q2 -7 4 -13q1 -6 5 -12q5 -8 13 -7q5 0 12 5l2 1l1 1q46 125 69 203
q31 96 46 210q16 95 -30 150q-25 32 -59 51q-35 19 -72 19q-16 0 -29 -3q-21 -3 -36 -12q-19 -11 -12 -32l1 -3h2q2 -2 6 -7q7 -8 9 -10.5t7 -9.5q5 -6 6.5 -10.5l3.5 -10.5t3 -13q7 -72 -9 -144q-12 9 -28 3v0q-43 -20 -45 -87q0 -12 0.5 -19t2.5 -17q2 -13 9.5 -19.5
t18.5 -8.5h1h1q11 2 22 12t15 16q3 7 11 22h1q43 98 38 214q2 59 -33 98q7 1 12 3q35 9 69 -8q36 -17 60 -48q14 -18 20 -45q6 -26 5 -47q-2 -21 -7 -51q-7 -57 -24.5 -124.5t-32.5 -112.5q-13 -42 -36 -109q-12 29 -19 44l-1 1q-2 4 -9 19q-10 20 -19 28t-23 9h-1zM90 -120
q-3 -11 -5 -24q-2 -18 -5 -25v-2v-1q1 -3 0 -7q-1 -5 -4 -11q-2 4 -7.5 14.5t-8.5 14.5q14 18 30 41z" />
    <glyph glyph-name="thothanthai" unicode="&#xe10;" horiz-adv-x="287" 
d="M-33 -136q9 0 17 -8q9 -10 12 -21v-1h1q3 -6 6 -13q-17 -18 -34 -31q-5 -2 -12 -7q-9 -6 -14 -9t-12 -5q-4 -1 -6 1q-9 43 27 83v0q8 11 15 11zM86 -126q8 10 19 26q14 20 18.5 27t21 31.5t19.5 28.5l1 1l8 16l-7 8q-7 -6 -15 -15q2 4 3 8q4 12 8 26q13 18 50 53
q38 37 54 63q13 17 12 41q-1 25 -20 38q-28 20 -63 38t-78.5 38.5t-66.5 32.5q-6 4 -8 6q-1 2 3 5q14 10 31 6h1q24 -1 66 -19q42 -19 63 -21q31 -7 59 5q30 13 41 42q2 7 3 12q5 15 -4 15q-2 0 -4 -1.5t-3 -3.5t-2.5 -5.5t-2.5 -4.5q-5 -9 -7 -12v0l-1 -1q-14 -19 -40 -23
t-47 6v1q-8 3 -23.5 9.5t-24 10t-24.5 9.5q-17 6 -26 7q-8 1 -25 3t-28 -3q-18 0 -28 -14q-9 -14 -5 -30.5t21 -23.5q23 -12 74 -37q50 -23 76 -38q3 -2 21 -12q16 -9 25 -16t14 -16q2 -7 1 -13q-2 -6 -6 -13q-5 -7 -9 -12t-11.5 -13.5t-10.5 -10.5v-1q-6 -7 -13.5 -14
t-17.5 -16q-3 -3 -6 -5q2 17 1 33q4 2 6 5l1 2v2q-3 11 -10 24q-4 22 -11 41h-1q0 2 -4 11l-7.5 13.5t-6.5 10.5q-6 7 -13 10q-6 2 -15 1h-1l-1 -1q-8 -6 -11 -15q-2 -8 0 -17q1 -8 4 -15q2 -6 7 -15.5t7 -13.5q5 -15 18 -29q5 -40 -6 -91v-3q-2 -3 -10 -19q-3 -3 -4 -6
q-7 -21 11 -31q10 -6 17 -2q-6 -7 -13 -16q-21 -26 -25 -31q-14 -16 -42 -50q-23 -29 -38 -46q-19 41 -45 50h-1q-30 5 -62 -38v0q-38 -60 -15 -105v-1q6 -9 14.5 -12t20.5 1q10 3 14.5 5.5t17.5 10.5l13 8q16 13 32 28q10 -24 20 -36l1 -1l1 -1q15 -5 24 3q8 7 16 27
q7 19 7 21q0 5 8 19q4 6 6 11q13 -19 31 -65q2 -7 5 -12q10 -13 26 -2q18 12 23 35q30 78 21 127q0 14 -10 25q-11 11 -24 10q-15 -1 -19 -19q-10 -43 14 -74q-4 -28 -14 -51q-22 50 -47 66l-1 1h-2q-7 1 -14 -2zM61 -158q0 -2 -1 -4q-6 -19 -7 -23l-1 -1v-1q-1 -3 -6 -13
q-5 11 -7 17q11 11 22 25z" />
    <glyph glyph-name="thonangmonthothai" unicode="&#xe11;" horiz-adv-x="347" 
d="M151 406q-11 0 -19 -6h-1q-8 -9 -13 -21q-5 -10 -9 -27q-4 -16 -6 -21v-2v-1q-2 4 -2 5v1v1q-2 5 -6 17t-7.5 18t-8.5 15q-6 10 -14 15v0q-16 10 -31 -2q-14 -12 -14 -28q-2 -57 28 -104q8 -13 28 -20q8 -3 14 0.5t5 11.5v3l-1 1q-3 7 -6 13q3 -2 7 -4q15 -6 27 7v0
q8 12 13 26q5 15 9 32q3 12 5 21v-11q-1 -57 -21 -147q-36 -74 -56 -143q-6 -12 -3 -29q2 -10 9 -13.5t16 -0.5l1 1q21 17 36 56v1q18 60 33 131q30 60 66 112q2 3 10.5 15t12.5 16.5t13 10.5q8 6 16 8q20 -2 36 -40q16 -35 9 -76q-14 -99 -51 -257q-1 -4 -2 -10t-2 -8v-1
q-3 -11 0 -14l5 -5l12 24q31 90 56 195v0q15 81 13 117v1q-11 66 -46 93q-17 13 -37 9q-20 -3 -35 -17h-1v-1q-24 -25 -58 -78q7 49 2 79q-1 12 -10.5 21t-21.5 10v0zM95 258v0.5t0 -0.5z" />
    <glyph glyph-name="thophuthaothai" unicode="&#xe12;" horiz-adv-x="480" 
d="M282 100q3 0 6 -1q9 -4 18 -11l-5 -21v-1q0 -2 -2 -6l-1 -5q-3 -5 -5 -10t-2 -7l-4 -7q-2 -4 -4 -5q-2 -2 -6 -5q-2 -3 -4.5 -4t-6.5 -2q-13 0 -18 17q-6 20 1 33h1q13 35 32 35zM152 216q4 0 9 -4q5 -5 6 -11v-1q11 -24 9 -53q-9 8 -13 13q-7 6 -13 19t-4 25v1
q1 10 6 11zM290 402q-9 -1 -18 -5q-39 -16 -33 -79v-1q1 -2 1 -7v-9q-2 1 -2 2q-9 10 -10 14h-1q-1 3 -9 13q-7 10 -9 13q-3 4 -10 12.5t-12 12.5t-12 9q-8 5 -16 8.5t-15 4.5q-31 3 -58 -16q-26 -19 -40 -47q-48 -92 -20 -194v-1q30 -81 74 -117q14 -13 35 -12q22 1 33 18
q53 77 47 154q-3 29 -17 52q-14 25 -39 31q-23 4 -38 -14q-15 -17 -17 -40q-3 -31 18 -59q18 -25 47 -36q-6 -22 -18 -45h-1v-1q-4 -15 -16 -20q-9 -5 -19 8v0q-41 44 -58 107q-18 95 26 164q12 18 30 29q16 9 33 3q13 -6 22 -16q10 -9 25 -30q16 -22 18 -25q4 -7 10 -14
t13 -12q9 -7 18 -6q10 1 16 13h1q5 15 2 51q-2 33 5 46q8 9 18 8q11 -2 15 -13h1q36 -65 17 -174q-6 -31 -13 -63q-6 4 -12 7q-20 9 -41 -2q-20 -10 -30 -30q-14 -21 -14 -45q-1 -25 13 -47q12 -18 35 -17q22 1 37 17q18 21 29 59q2 -3 4 -5q7 -8 11 -13t13.5 -16.5
t15.5 -18.5t16 -14q11 -9 22 -12v0q20 -5 33 12q12 15 17 36q14 59 22 170q9 109 15 146v1v5q0 3 2 14l2 42l-12 -24v-1q-15 -51 -26 -147q-12 -96 -17 -122q-2 -9 -5 -30q-4 -21 -7 -36q-4 -15 -10 -28v0q-1 -5 -4 -7q-8 -7 -33 23v1q-8 7 -24 29q-16 20 -26 31q4 20 6 28
q38 145 -2 235q-7 17 -21 29q-15 13 -32 13h-1z" />
    <glyph glyph-name="nonenthai" unicode="&#xe13;" horiz-adv-x="427" 
d="M332 110l5 -1q59 -10 63 -43q2 -14 -9 -30.5t-24 -19.5q-11 -2 -23 13q-15 35 -12 81zM435 403q-69 -80 -95 -138q-27 -67 -34 -123h-6q-21 1 -41 -10q11 67 -1 133q-21 112 -87 134q-30 9 -65 0t-50 -37h-1q-9 -22 1 -32q7 -9 21 -22q12 -11 13 -20q-3 -21 -11 -45
t-20 -53q-10 -26 -15 -41q-13 -1 -11 -17v-1l1 -2l3 -3q-10 -37 -7 -68q1 -27 15 -50q16 -26 43 -10h1l1 1q22 27 19 60q-3 32 -23 60q-2 5 -8 12q5 18 20 55q15 40 22 61q9 23 5 50q-4 28 -28 41v1q-9 3 -11 6q-3 3 9 11q16 11 32 12h1q22 5 43 -7t31 -33q50 -104 15 -236
q-7 -13 -13 -27q-13 -23 -11 -46q1 -10 9 -12.5t17 3.5h2v2q17 34 28 70q0 1 1 1v1q16 25 53 28q-1 -37 5 -69q4 -27 25 -45q21 -20 47 -10v0q28 13 42 44t3 59h-1v1q-24 40 -88 48q3 19 13 69q16 73 79 160v1q14 26 15 28l18 36z" />
    <glyph glyph-name="dodekthai" unicode="&#xe14;" horiz-adv-x="400" 
d="M213 402q-39 0 -75 -23q-44 -27 -73.5 -71.5t-37.5 -96.5q-7 -38 7 -78q14 -39 41 -69q26 -28 58 -44q34 -15 67 -6q31 10 51 37t29 61q15 56 -21 119q-42 72 -94 85q-21 5 -40 -5q-21 -10 -24 -31q-5 -40 24 -94v-1q4 -5 8.5 -9.5t11.5 -10.5q9 -9 15 -7q5 2 10 9l1 2v2
q-3 15 -15 44q-11 27 -14 42v1q-6 12 4 18t20 -1h1q44 -23 71 -87q12 -28 9 -55q-4 -27 -19 -54q-10 -16 -27 -27q-16 -10 -34 -6q-59 11 -96 82q-28 51 -2 117q17 44 48 78q31 33 70 45q32 10 64 -3t58 -39q58 -58 55 -114q-4 -82 -65 -212l-1 -3v-1q-1 -2 -3 -8h-1
l-14 -35l18 17q0 1 3 3h1v1q34 50 68 132q35 92 18 152v1q-17 45 -50.5 81t-77.5 54q-22 9 -47 8z" />
    <glyph glyph-name="totaothai" unicode="&#xe15;" horiz-adv-x="427" 
d="M301 402q-27 0 -43 -18q-6 -7 -10 -17q-3 -9 -4 -15q-2 -7 -1 -20q1 -12 1 -16q0 -3 3 -19q2 -13 2 -15v-1l1 -4q-6 9 -13 21q-16 28 -30 47q-14 20 -34 33v0q-26 15 -54 9q-27 -5 -48 -25q-34 -32 -50 -79q-15 -46 -12 -94q2 -54 49 -103q62 -65 117 -76q21 -5 39.5 7
t21.5 33q9 47 -1 95t-39 86q-9 15 -27 20q-19 5 -32 -12l-1 -1q-13 -33 23 -84q18 -25 41 -34q3 -20 2 -40v0q0 -2 -0.5 -7.5t-1 -8.5t-1.5 -8q-1 -4 -2 -5q-1 -2 -4 -4q-2 -1 -6 -1q-27 1 -72 35q-20 17 -31 29q-12 11 -24 30q-11 18 -15 37q-7 41 4 82t37 72q14 17 34 23
q18 6 38 -4q15 -12 27 -28q13 -18 26.5 -42t22.5 -35q4 -9 12 -17q8 -9 18 -11q13 -3 20 14v1q2 18 -4 51q-6 32 -6 37v1q-5 39 13 48q40 12 76 -35q46 -60 42 -116q-4 -51 -23 -101t-50 -115q-2 -2 -5 -8.5t-5 -11.5q-4 -7 -1 -11l3 -7l5 6q25 31 66 114q15 33 23 55t13 54
q6 32 2 60v0q-21 90 -83 133q-23 15 -49 16z" />
    <glyph glyph-name="thothungthai" unicode="&#xe16;" 
d="M56 62v-6q-1 3 0 6zM142 402q-24 0 -46 -7q-17 -7 -30 -20q-13 -14 -14 -32v-1q4 -15 18 -40q13 -24 16 -33h1q13 -26 -16 -63q-49 -62 -52 -109q-5 -69 23 -99l1 -1q15 -12 31 -2q14 9 17 25q17 66 -16 114q-2 4 -6 8q6 10 13 19v1q1 1 8 11q7 9 9.5 12.5t8.5 12.5
q5 9 8 14l5 13q3 8 3 16q1 8 1 15v1q-3 20 -21 51q-15 28 -20 38q4 5 12 12q10 8 19 9h1q42 10 83 -9q43 -18 70 -55q42 -55 14 -141q-23 -64 -57 -182q-2 -7 -3 -11q-3 -13 4 -14q3 0 4.5 1.5t3 3.5t2 3t2 4.5t2.5 4.5v0q6 16 18 44.5t21.5 52t17.5 44.5q27 72 25 116
q0 71 -57 122q-54 51 -124 51z" />
    <glyph glyph-name="thothahanthai" unicode="&#xe17;" horiz-adv-x="347" 
d="M51 403q-14 0 -22 -15q-6 -14 -2 -28q9 -37 56 -87l1 -1q3 -2 6 -6q7 -31 10 -62q-22 -60 -36 -129q-1 -4 -3 -17t-2.5 -20t0.5 -17q0 -11 3 -20h1v-1q9 -14 23 -8q10 5 18 14q7 9 12 19q23 53 22 155v0q-1 15 -2 28q29 75 69 119q33 34 62 31q10 -3 19 -13
q11 -11 15 -17q4 -7 13 -25v0q8 -15 9 -38t-3 -40v0q-16 -102 -53 -239v-1q0 -2 -1 -6q-2 -7 -3 -9v-1v-3t0.5 -6.5t2.5 -4.5t6 2q4 5 7 16q26 66 54 162v0q17 70 19 127q2 29 -25 77q-32 58 -76 49q-57 -10 -106 -90q-6 -10 -11 -20q-4 5 -10 12q-9 33 -23 59
q-1 2 -5.5 10.5t-7 13t-6.5 10.5q-5 8 -11 12q-5 3 -12 6v1q-4 1 -8 1z" />
    <glyph glyph-name="thothongthai" unicode="&#xe18;" horiz-adv-x="293" 
d="M308 410q-12 -20 -41 -27q-25 -7 -51 -7q-28 0 -64 3q-37 4 -52 5q-21 1 -40 -10t-30 -30q-10 -14 -4 -30q6 -14 21 -22q27 -15 85 -32q56 -17 81 -29q44 -22 44 -51q0 -10 -2 -20t-6 -22t-6.5 -19t-8.5 -22t-8 -19q-2 -6 -10 -24q-6 -16 -13 -23q-8 -2 -15 0
q-10 2 -22 6t-18 5q-45 15 -77 11q7 9 7 11q19 26 29 41q10 16 20 43t9 51q0 15 -6 29q-8 15 -22 16h-2l-2 -2q-6 -7 -7 -17q-2 -10 -1 -18q0 -8 -1 -16q-2 -18 -10 -38t-13.5 -30t-22.5 -36q-17 -25 -20 -30q-2 -4 -7 -10q-4 -7 -6 -11q-3 -4 -5 -12q-2 -10 3 -17
q7 -8 15.5 -8.5t15.5 3.5q5 3 12 7q8 4 11 5h1v1q9 4 26 3q17 -2 27 -5l28 -8q17 -5 28 -7q15 -5 33 0q19 5 26 21q3 7 11.5 26t12.5 29t10 25.5t10 30t7 28.5q4 23 -4 45.5t-26 36.5q-23 16 -49 27t-64 21q-36 11 -51 17h-1h-1q-3 1 -13 5q-13 4 -19 9q-4 2 -6 7
q6 12 17 20q12 9 26 8v0q11 0 44 -3q34 -3 53 -2q81 5 113 35q3 3 7 12q7 12 0 15l-4 3z" />
    <glyph glyph-name="nonuthai" unicode="&#xe19;" horiz-adv-x="347" 
d="M228 131q30 -19 44 -58q13 -32 -13 -62q-26 -32 -48 -25q-9 6 -11 20q-2 17 1 29q9 47 27 96zM94 398q-16 0 -21 -17v0q-1 -11 2 -19q2 -8 12 -23l9 -15q28 -40 32 -46q2 -6 3 -12q4 -64 -31 -148q-35 -35 -66 -84q-13 -15 -10 -33q4 -18 25 -12l1 1q33 20 68 85
q7 13 14 28l3 3q15 13 22 19q7 5 20 11q12 5 23 5q-11 -33 -22 -74q-5 -21 -7 -31q-2 -11 0 -29q1 -18 9 -32v-1q11 -17 34 -19q21 -2 37 9q26 15 41 40q16 26 14 54q-3 33 -22 61q-18 27 -46 42q22 53 52 114q3 4 11 18.5t12 21.5t11 17.5t14 19.5t15 16v1v1q2 2 7 8
q7 7 10 12l10 17l-16 -10q-22 -12 -39 -32q-42 -50 -81 -122q-17 -32 -33 -71q-27 6 -57 -11q14 46 15 87q4 0 7 1q7 3 7 11q0 6 -4 13q-7 13 -18 30q-12 37 -36 73q-3 10 -12 16t-19 6z" />
    <glyph glyph-name="bobaimaithai" unicode="&#xe1a;" horiz-adv-x="347" 
d="M97 400q-22 0 -23 -23v0q0 -6 2 -14q1 -8 3 -14q1 -6 6 -14q4 -8 6 -11.5t7.5 -13t6.5 -11.5v-1q3 -4 8 -12l10 -15t9 -11q2 -55 -27 -130q-20 -47 -39 -74q-16 -13 -39 -39q-8 -7 -7.5 -15t8.5 -13q15 -9 27 5q20 16 38 41q10 5 19 4v0q21 -1 44 -9q23 -9 51 -21
q27 -11 43 -17q12 -6 26 -3q16 3 19 19v1q-1 70 1 87v1q1 19 5 42.5t7.5 37.5t11.5 44t10 38q12 54 35 111v1v1q0 1 2 5v1l6 31l-12 -12l-3 -6q-31 -51 -51 -112q-44 -121 -42 -228q-1 -5 -0.5 -15t1.5 -16v-1q-9 2 -19 6q-12 5 -27 12q-14 6 -23 10q-3 1 -11 4
q-8 4 -10.5 5t-10.5 4t-12 4t-11 2.5t-12 2.5t-12 1l-3 1q7 13 15 29q33 76 38 137q7 -1 11.5 2.5t3.5 9.5v1q-3 15 -18 35q-11 49 -40 96q-7 19 -28 19z" />
    <glyph glyph-name="poplathai" unicode="&#xe1b;" horiz-adv-x="347" 
d="M437 605q-4 -2 -16 -23q-3 -4 -14 -26q-11 -21 -14 -27t-13 -24q-10 -19 -15 -28q-4 -9 -11 -25q-9 -17 -13 -29q-5 -11 -11 -26q-6 -14 -10 -29q-49 -150 -55 -266q-2 -55 0 -83q-7 2 -13 5q-11 4 -26 11q-16 7 -21 9v0q-3 1 -18 7q-15 7 -21 8q-6 2 -17 6q-13 4 -23 5
q-5 0 -10 1q37 65 50 145q2 10 3 21q5 0 9 2q10 5 2 18q-5 12 -14 27q-5 28 -20 57q-1 4 -4 11q-4 6 -7 12q-3 5 -6 12q-4 8 -8 13l-10 8q-7 4 -14 3q-7 0 -14 -4h-1l-1 -1q-3 -5 -5 -10t-2.5 -9t0 -9.5t1.5 -9.5t4 -10q2 -5 3 -7q1 -3 5 -9l2 -6l1 -2q28 -46 41 -60
q4 -53 -28 -136q-21 -48 -38 -72q-26 -19 -44 -46l-1 -2v-1q0 -10 4 -15q9 -14 35 6q12 9 19 19q7 8 13 17q8 4 16 5q23 0 45 -8q24 -8 52.5 -20.5t45.5 -18.5q21 -12 37 4q16 15 9 37q-8 126 41 295q32 94 99 247v0q3 8 5 13v1q8 17 -2 17h-1h-1z" />
    <glyph glyph-name="phophungthai" unicode="&#xe1c;" horiz-adv-x="347" 
d="M320 403q-6 0 -6 -10q0 -5 1 -10q11 -112 3 -175v-1q-6 -91 -49 -169q-9 30 -20 86q-11 58 -19 85q-1 20 -18 26q-19 6 -26 -17q-6 -15 -24 -77q-18 -61 -35 -92q-7 -12 -17 -19q-8 -6 -17 0h-1q-31 18 -37 80q-4 79 28 159q32 11 68 48v0q5 6 7 8.5l6 7.5q5 6 7 11
q2 4 4 10t2 12t-2 12h-1q-8 16 -28 16q-17 0 -29 -9q-34 -22 -61 -82q-17 -7 -27 -6h-1l-2 -1q-9 -6 -6 -13.5t14 -13.5q4 -3 8 -4q-31 -96 -19 -178q5 -31 22 -57t45 -35q18 -5 35 5q17 9 26 26q15 24 25 52q10 27 20 65q6 21 10 36q4 -15 8 -37v0q3 -11 8 -37
q5 -27 10 -47q5 -19 12 -36q5 -16 21 -19q17 -4 24 11q31 51 47 117q25 99 -4 246v1q-3 8 -4 14v0q0 1 -0.5 3t-1 3.5t-2 3t-4.5 1.5z" />
    <glyph glyph-name="fofathai" unicode="&#xe1d;" horiz-adv-x="347" 
d="M288 640q0 -22 4 -64q4 -41 5 -61q6 -108 9 -195q0 -55 -1 -90t-7 -82q-7 -47 -19 -87q-1 -3 -5 -11v0q-2 -8 -4 -13q-10 27 -19 77q-10 53 -14 70q-1 9 -4 18q-2 10 -8 20q-6 13 -15 13q-9 1 -20 -9v-1v-1q-12 -22 -24 -66q-12 -42 -18 -58q-1 -3 -5.5 -15t-7 -18
t-6.5 -15q-5 -8 -11 -14q-4 -5 -11 -9q-17 -2 -28 12q-13 16 -18 37q-18 81 22 190q36 13 76 57q8 9 14 21q5 12 3 25q-3 15 -17 21h-1q-41 11 -78 -44q-14 -21 -24 -46q-9 -3 -17 -5q-18 1 -20 -8v-1q0 -12 20 -21l2 -2q-20 -61 -22 -130q0 -98 52 -131q19 -14 42 -9
q22 6 34 25q16 24 27 51t22 68q6 22 10 37q6 -25 14 -64v0q2 -8 6 -31q4 -24 9 -40t15 -31v0q10 -13 26 -7q14 5 20 20q15 31 23 71t10.5 66t4.5 75q7 181 -28 378v0q-7 23 -8 27h-10z" />
    <glyph glyph-name="phophanthai" unicode="&#xe1e;" horiz-adv-x="373" 
d="M46 21h10v-10h-10v10zM55 396q-11 0 -17 -10q-4 -5 -5 -11t0 -12q0 -6 1 -9q0 -3 3 -11q3 -7 4 -8q0 -2 5 -10l4 -8v-1q28 -44 40 -58q5 -29 6 -54q-38 -80 -67 -159q-8 -12 -7 -30q1 -11 7.5 -15.5t16.5 -1.5l2 1q45 42 68 91q21 43 17 114q39 83 74 133v1q1 1 5 6
q7 9 12 13q20 -80 28 -145q3 -25 4 -46q-21 -73 -29 -138q-8 -16 5 -30q15 -15 27 7h1q30 64 26 158q2 7 5 17q36 115 81 181l1 1q0 3 4 7l8 10q6 6 6 9v8l-7 -4q-13 -6 -32 -29v0q-39 -53 -72 -131q-10 71 -28 140v1q-5 14 -21 17q-16 2 -27 -8q-6 -7 -13 -14.5
t-11.5 -13.5t-11.5 -16.5t-10 -15.5q-2 -5 -10 -18q-7 -12 -9 -16q-4 -8 -9 -17l-4 6q-11 45 -38 94q-4 9 -13 17q-10 8 -20 8z" />
    <glyph glyph-name="fofanthai" unicode="&#xe1f;" horiz-adv-x="373" 
d="M466 605q-4 0 -8 -7q-47 -67 -114 -195q-31 -55 -55 -129q-3 14 -7 31v1q-3 8 -6 26t-8 32q-6 15 -17 24l-1 1h-1q-10 2 -18 0t-16 -9q-8 -6 -12 -11t-11 -14t-9 -12q-26 -38 -50 -81q-3 7 -7 13q-6 28 -16 53h-1v1q-3 4 -8 17q-6 12 -9 19q-4 7 -11 16q-8 9 -18 14h-1
q-23 4 -29 -20q-5 -21 6 -37q24 -50 51 -79q4 -24 6 -67q-25 -51 -57 -122v-1q-1 -6 -5 -16q-5 -10 -8 -17q-4 -9 -4 -19q0 -11 7 -19l2 -2h3q14 2 26 13q12 10 24 28q11 18 16 22v1q37 54 34 133q36 71 73 128q2 2 9 11q14 20 21 23q27 -108 33 -152q-7 -31 -20 -90v0
q-1 -6 -6 -33q-6 -27 -6 -34v-36l1 -2q7 -6 14 -8q7 -3 14 3q5 5 8.5 9.5t7.5 13.5l6 12q2 5 4 11q20 66 8 157q9 34 20 69q37 105 135 292h1l1 3l1 2q2 3 2.5 5l0.5 2v1q8 16 9 19q2 6 -5 6z" />
    <glyph glyph-name="phosamphaothai" unicode="&#xe20;" 
d="M74 105q4 -9 7 -15q-9 -26 -22 -46q0 15 4 34v1v1q-1 5 7 18q2 3 4 7zM142 402q-10 0 -21 -2q-23 -2 -41 -17t-19 -37v0q0 -22 20 -55q19 -30 22 -44q4 -33 -8 -98q-8 5 -19 4q-16 0 -27 -12q-31 -35 -29 -106q0 -17 8 -31q8 -15 26 -13h1q11 5 21 14q9 10 13 18
q4 7 11 20h1q34 79 37 184q3 31 -21 68q-2 5 -8 13q-6 9 -9 14q-2 5 -5 13q-2 7 -1 13q8 21 49 22q36 0 69 -18q34 -19 57 -49q42 -55 14 -141q-23 -63 -57 -182v-1v-1h-1v-1q0 -3 -1.5 -6.5t-1.5 -5.5v-4.5t2 -4.5q4 -4 6.5 -1.5t4 6t1.5 4.5q12 23 30 68t25 60v0
q32 86 32 130q3 70 -49 119q-60 60 -132 60z" />
    <glyph glyph-name="momathai" unicode="&#xe21;" horiz-adv-x="373" 
d="M95 156q14 0 23 -10h1q21 -18 45 -52q-4 -9 -9 -18q-9 -14 -15 -23q-6 -7 -17 -16q-10 -8 -21 -9q-30 1 -43 47q-12 50 9 69l1 1q10 11 26 11zM372 416q-7 0 -11 -14q-1 -3 -1 -4q-15 -42 -45 -170v0q-6 -32 -16.5 -91.5t-14.5 -85.5q-2 -11 -4 -20q-3 -9 -9 -15
q-4 -5 -11 -3q-8 6 -15 15q-8 9 -13 16.5t-13 20t-12 18.5q-1 2 -5 8q41 86 22 173q-9 50 -61 106q-9 10 -17 16q-9 7 -21 9q-15 3 -22 -13h-1v-1q-6 -27 19 -67v0q32 -44 59 -54q3 -2 8 -4q4 -18 5 -38q3 -43 -15 -91q-26 36 -53 52q-28 17 -59 2q-30 -14 -40 -44v-1
q-15 -60 21 -112q13 -19 35 -27q22 -7 44 2q33 15 59 61q8 -11 13 -18q2 -3 8 -13q7 -10 10.5 -14.5t10.5 -11.5q7 -8 14 -12.5t15 -8.5h1q16 -5 30 7q12 11 19 27v1q4 15 7.5 33t6.5 39l6 33q7 34 22 125q15 90 25 139q2 7 3 16q1 3 1 5q1 2 1 3q0 6 -6 6z" />
    <glyph glyph-name="yoyakthai" unicode="&#xe22;" 
d="M122 402h-2q-27 -1 -51 -16l-4 2q-7 2 -10 2q-3 1 -7 1q-6 0 -10 -2t-6 -6l-1 -2v-2q3 -11 12 -19q-5 -7 -8 -14v-1q-11 -35 30 -66q17 -14 39 -26q-15 -11 -25 -26q-42 -65 -28 -141v-1q18 -56 68 -80q17 -9 38 -4t32 20l12 16q5 7 11 18q4 11 7 17q4 6 9 20t6 17t6 20
q5 16 6 19q12 36 30 108q19 72 30 108q1 3 1 5q1 2 1 5l1 4q5 13 -4 13h-1l-1 -1q-4 -1 -8 -11q-17 -34 -53 -141q-5 -14 -12 -42q-8 -27 -13 -43t-13 -39q-7 -22 -16 -40q-2 -2 -4.5 -8t-4 -8t-5 -7t-5.5 -8t-5 -6t-6 -4.5t-7 -2.5q-24 -3 -52 30q-22 27 -20 61
q3 71 44 105q8 7 18 10q22 -10 48 -18q13 -7 26 2q16 11 6 26v0q-16 18 -51 24q-11 2 -23 1q-13 6 -27 13l-1 1l-4 2q-4 3 -6 4q-2 2 -6 4q-5 3 -6.5 4t-5.5 4q-3 3 -5 4q-1 2 -4 6q-3 2 -5 4.5t-4 5.5l-2 4q-1 7 3 14q55 -23 87 -18q15 1 22 14t0 25v0q-22 40 -61 40z" />
    <glyph glyph-name="roruathai" unicode="&#xe23;" horiz-adv-x="267" 
d="M45 404q-13 0 -19 -12h-1v-1q-1 -4 -1 -8q0 -3 1 -7q0 -4 3 -8q2 -3 3.5 -5l4.5 -6l5 -4l5 -5q4 -3 4 -4h1q24 -19 49 -33q48 -72 58 -126q2 -24 -4 -51q0 1 -1 1q-6 16 -24 21q-17 5 -30 -7q-26 -23 -35 -80v0q-5 -51 17 -68h1q18 -9 34 -3q16 7 27 22q35 47 47 122
q8 49 -20 110q-9 19 -19 36q29 -11 60 -3t51 32l1 1v1q1 1 2 3l4 6q3 6 0 10l-4 3l-3 -3q-36 -29 -59 -30h-1q-9 -1 -13 -2q-2 0 -10 3t-12 4q-3 1 -11 4l-12 6l-21 10q-21 29 -43 52q-18 19 -35 19zM119 113q5 -13 8 -32q1 -6 5 -12q-15 -29 -29 -37q-1 0 -2 1q-1 2 -2 5v9
q1 4 2 10t1 9q7 32 17 47z" />
    <glyph glyph-name="ruthai" unicode="&#xe24;" 
d="M54 61q1 -1 1 -4q0 2 -1 4zM132 394q-4 -1 -7 -1q-27 -1 -49 -16q-23 -15 -26 -41v-1v-1q4 -15 18 -40q13 -25 17 -37h1q2 -5 2 -11q0 -5 -1 -11q-2 -5 -3.5 -10t-5.5 -11t-7 -10t-8 -10t-7 -10q-27 -32 -35.5 -74t2.5 -82q4 -20 21 -32q20 -14 37 5v0q24 39 7 101
q-2 18 -21 34q8 13 22 33q17 24 23 37q23 40 -2 81q-3 8 -11 20t-12 22q-3 8 -1 12q14 17 40 20t47 -6q34 -12 61 -35q26 -22 35 -53q6 -50 -3 -111t-19 -98t-32 -108q-12 -40 -18 -63t-10 -59q-5 -36 -2 -66v-1l2 -9q3 -12 5 -15q2 -1 5 -0.5t3 2.5l1 1v1q-4 64 30 161v1
q2 8 18.5 62t21.5 72t15 59q10 42 13 74.5t3 65.5q3 50 -26 84q-28 33 -65 53q-38 21 -78 21h-1z" />
    <glyph glyph-name="lolingthai" unicode="&#xe25;" 
d="M77 106q3 -15 2 -29v0q1 -12 -1 -23q-5 25 -1 52zM42 248q-3 0 -6 1l-2 1l-1 1q-14 21 6 52q25 34 65 53t83 16q30 -2 54 -14q24 -13 36 -36q30 -61 11 -160q-15 -67 -41 -106v10q1 20 1 27q0 1 -1 13v13t-1 13v13t-1 13t-2 15q-1 4 -3 11q-1 8 -2.5 14t-4 12.5
t-6.5 12.5q-8 18 -25.5 27.5t-37.5 7.5q-53 -5 -94 -72q-43 -67 -30 -139q4 -22 14 -38q12 -17 33 -14h1q10 5 17 16t8 17q2 6 5 21v0q9 66 -14 107v1l-6 6q31 52 66 60v0q12 4 22 -3q11 -7 14 -19v-1q5 -12 8 -26t5 -30q1 -16 1.5 -26t0.5 -30v-42q0 -12 2 -20q1 -9 7 -16
h1q16 -14 39 15h2l1 2q43 61 56 160q11 105 -31 165q-36 49 -115 49h-18q-40 -2 -75 -23t-57 -54q-14 -19 -17 -39q-3 -21 9 -42v0q5 -7 15 -7q8 -1 14 3z" />
    <glyph glyph-name="luthai" unicode="&#xe26;" 
d="M73 104q0 -2 1 -5q2 -4 4 -9q-6 -18 -14 -35l-1 -1v-1q0 -2 -5 -9q0 31 13 58h1q0 1 1 2zM111 338q-7 11 -12 17q32 12 64 3q37 -11 66 -36q28 -24 40 -56q4 -24 5 -51q0 -27 -2.5 -48t-9 -51.5t-11.5 -48t-14 -50.5q-1 -6 -3 -12q-11 -36 -17.5 -60.5t-11.5 -58.5
q-6 -34 -5 -65t8 -60l2 -6l1 -4v-1q3 -9 7 -12q12 -6 7 20q0 1 -1 4v2q-1 9 -2 18.5t-2 17.5q0 8 1 18q2 12 2 18q0 7 2 19q3 13 4 18t4 19q4 14 4 17q1 3 5 18t4 17h1v1q5 18 12.5 44t13 45t12 43.5t10 46t6.5 44.5q3 24 3 47.5t-3 46.5v0q-14 70 -100 114q-31 18 -67 17
q-20 0 -41 -6q-19 -2 -29 -18q-11 -18 7 -32q33 -32 30 -100q0 -47 -8 -91q-10 6 -22 4q-34 -6 -48 -67v-1q0 -2 -1 -9q-1 -8 -1 -10q-1 -2 -1 -10q-1 -8 -1 -11t1 -10q0 -7 1 -11t3 -9q1 -6 5 -11q9 -13 22 -10q10 2 19 10q9 7 14 16q39 60 50 175q4 32 0 73q-3 40 -19 67z
" />
    <glyph glyph-name="wowaenthai" unicode="&#xe27;" 
d="M163 402q-32 1 -59 -15q-35 -19 -60 -53t-33 -73q-7 -34 9.5 -66.5t48.5 -47.5h1h1q1 0 5 -2q5 -2 7 -2q3 -1 7 1l9 4l-8 4q-24 14 -39 34q-15 21 -15 45q1 41 25 78q20 29 48 48q28 18 59 15q36 -4 67 -28t51 -59q21 -37 9 -82q-11 -48 -36 -91q-13 28 -38 29v0
q-29 -2 -52 -47h-1q-23 -50 -9 -79h1v-1q9 -15 28 -16q18 -1 31 10q17 13 32 30l4 -2l2 2q10 8 11 23q12 17 26 44v0q42 84 37 143v1q-6 42 -35 78q-28 36 -68 57q-31 18 -66 18zM220 99q1 -1 1 -3q1 -3 2 -7q1 -2 2 -6t1 -5v-1q1 -5 3 -10l-7 -9q-4 -3 -7 -7
q-5 -4 -8.5 -7.5t-7.5 -6.5q-3 -2 -5 -2q0 1 -1 1q1 30 23 58v0q2 3 4 5z" />
    <glyph glyph-name="sosalathai" unicode="&#xe28;" horiz-adv-x="347" 
d="M203 219q-9 -17 -23 -30v-1q-4 -5 -11 -10q11 18 23 32l1 1q0 2 3 4q2 2 7 4zM452 565q-4 0 -15 -12q-10 -9 -12 -15q-21 -31 -39 -73q-19 -42 -27.5 -65.5t-27.5 -78.5v-1q-6 -20 -10 -35q-5 28 -13 49q-11 31 -35 52v0q-30 21 -64 16q-33 -4 -60 -25q-49 -38 -81 -93.5
t-42 -117.5q-16 -109 29 -161q14 -15 27 -9q11 5 20 17q7 11 10 24q6 14 16 42q8 25 13 37q57 18 90 69q30 47 11 71l-1 1q-28 25 -73 -17h-1v-1q-32 -34 -56 -97q-7 -6 -12 -10q-7 -6 -9 -11q-2 -9 9 -11q-2 -7 -6 -18q-7 -20 -11 -31v-1v-1q0 -2 -2 -6q-2 -6 -6 -11l-1 -2
q-7 12 -10 23q-20 79 21 176q43 91 105 125q19 10 43 6q23 -4 34 -22q11 -20 19 -48.5t9.5 -44t4.5 -53.5q-19 -79 -27 -140v-1q0 -2 -1 -14t-1 -18q0 -7 4 -16t14 -13l1 -1q19 -2 29 14q9 14 12 33q8 61 0 159l14 53q4 12 19.5 66.5t22.5 76t22 60.5t31 69v0q8 15 17 26
l1 1v8h-5z" />
    <glyph glyph-name="sorusithai" unicode="&#xe29;" horiz-adv-x="347" 
d="M97 400q-22 0 -23 -23v0q0 -6 2 -14q1 -8 3 -14q1 -6 6 -14q4 -8 6 -11.5t7.5 -13t6.5 -11.5v-1q3 -4 8 -12l10 -15t9 -11q2 -55 -27 -130q-20 -47 -39 -74q-17 -13 -39 -39q-8 -7 -7.5 -15t8.5 -13q15 -9 27 5q20 16 38 41q10 5 19 4v0q21 -1 43 -9q23 -8 50 -20t42 -18
q11 -5 27 -3q18 1 21 19v1q-1 70 1 87v1q2 33 11 76q28 13 86 53v0q8 7 34 31l1 1l1 1q2 6 2 8q0 4 -2.5 5.5t-5.5 0.5l-3 -1h-1q-6 -2 -37 -17l-1 -1q-19 -15 -44 -30q-11 -6 -19 -11q2 7 4 16q5 20 8 30v0q12 54 35 111v1v1q0 2 2 7l6 19h-7q-4 0 -6 -4q-31 -50 -53 -115
q-14 -42 -24 -83q-10 -4 -19 -5q-1 1 -2 3v0q-28 31 -64 25q-11 -1 -17.5 -10.5t-2.5 -21.5v0q6 -15 37 -27q26 -10 59 0q-10 -55 -9 -107q-1 -5 0 -16q0 -10 1 -16v-2q-9 2 -19 6q-12 5 -27 12q-14 6 -23 10q-3 1 -11 4q-8 4 -10.5 5t-10.5 4t-12 4t-11 2.5t-12 2.5t-12 1
l-3 1q7 13 15 29q33 76 38 137q7 -1 11.5 2.5t3.5 9.5v1q-3 15 -18 35q-11 49 -40 96q-7 19 -28 19z" />
    <glyph glyph-name="sosuathai" unicode="&#xe2a;" 
d="M77 105q4 -23 2 -44v-1q0 -2 -1 -6q-4 20 -1 51zM172 375q32 0 57 -11l-33 -30q-11 -9 -31 -21q-20 -11 -38 -13h-1q-16 -3 -28 8q-11 9 -4 23v1q5 19 22 29q18 11 39 13q8 1 17 1zM373 539q-3 0 -9 -7v0q-72 -100 -112 -145q-54 29 -119 13q-29 -5 -49.5 -27.5
t-21.5 -51.5q-1 -21 16 -35q16 -14 38 -15q46 -4 110 50q15 13 29 28q10 -9 18 -22q34 -60 15 -162q-16 -71 -43 -112q-1 9 -3 39q-2 32 -4 45.5t-8 36.5t-17 40q-12 22 -38 29q-26 6 -47 -4q-62 -28 -86 -116v0q-14 -72 13 -115q11 -18 31 -13t25 24q22 61 0 124
q-3 8 -14 19q16 26 41 41v0q12 9 28 5q15 -3 20 -17v0q11 -23 16 -48q4 -26 6.5 -61t5.5 -51q1 -24 22 -25q21 -2 29 18q45 60 59 162q12 112 -35 172v0q-7 8 -14 14q42 52 90 132l5 8h-2q4 7 7 13q9 14 -2 14z" />
    <glyph glyph-name="hohipthai" unicode="&#xe2b;" horiz-adv-x="347" 
d="M311 372h3q0 -5 -1 -9q-1 -6 -4 -13t-4.5 -11t-6.5 -12q-5 -9 -6 -11q-26 -39 -52 -70q9 53 44 102q19 24 27 24zM208 224v2q-4 10 -10 17q-10 13 -28 32v1v1q-26 68 -68 112q-13 16 -30.5 6t-10.5 -30q2 -5 4 -9q1 -6 4 -12l4 -10q3 -4 7 -11l6 -9q2 -3 7 -9.5t6.5 -8.5
t7.5 -9q5 -7 6 -8v-1v-1q2 -1 12 -13q8 -10 14 -16q4 -26 -3 -66q-4 -20 -10 -38q-48 -45 -84 -91q-8 -7 -10 -17q-3 -11 2 -20q7 -10 20 -6h1q70 29 103 119q21 19 53 45q10 -63 48 -132q19 -40 75 -84q1 -1 7 -5l11 -7q5 -4 9 -4h12l-33 33q-15 16 -28 28q-12 13 -20 26
q-41 81 -53 158q-1 5 -1 11q60 60 94 131h1q6 14 8 21q3 8 3 22t-8 23l-1 1q-9 7 -21 7q-22 0 -41 -21q-44 -50 -61 -126q-3 -15 -4 -32zM208 215v-2q-14 -14 -30 -24l-5 -5q3 18 4 33q8 -5 17 -7v0q10 -2 14 5z" />
    <glyph glyph-name="lochulathai" unicode="&#xe2c;" 
d="M184 446q22 1 52 -30q18 -20 30 -41q-15 -9 -30 -13q-29 -7 -56 32q-4 7 -8 13q-15 28 0 37q6 2 12 2zM439 486q-11 -2 -21 -5.5t-23 -11.5l-16.5 -11t-19.5 -15q-14 -10 -16 -12h-1q-6 -5 -25 -21q-15 -12 -25 -19q-37 61 -85 81q-22 8 -45 -1q-25 -9 -27 -34v0
q-2 -44 44 -87q15 -15 38 -17q22 -2 40 7q11 5 22 12q13 -31 14 -61q-3 -20 -7 -42l-16 -75q-13 30 -33 60q-8 21 -29 23.5t-35 -14.5q-23 -20 -45 -47q1 7 1 13l2 22q7 -1 9.5 4t1.5 11v1q-6 13 -16 29q-8 34 -28 78l-1 1v1q-1 0 -2 1q-2 6 -4 9q-2 4 -6 11q-4 6 -8 9
q-3 3 -8 7q-7 6 -14 3q-4 -1 -10 -3h-1l-1 -1q-21 -18 -2 -60h1q26 -50 48 -72q7 -39 -9 -119v-1q0 -2 -1 -8q-2 -5 -3 -8l-8 -14q-2 -3 -8 -14q-5 -11 -8 -15q-3 -5 -7 -14.5t-6 -16t-3.5 -15.5t-1.5 -17v0q1 -13 8 -18t19 -2q20 7 23 27q18 44 28 91l3 4q18 27 27 39.5
t26 32.5q16 19 33 31h1q0 1 1 2q1 -1 1 -2q3 -3 4 -8q3 -4 6 -9.5t6 -7.5q30 -49 36 -95q-12 -61 -13 -91v-1q3 -9 7 -12q9 -9 22 6q9 11 9 22q12 38 7 80q5 29 15 82q11 54 15 72q13 46 -14 104l-2 4q15 13 49 43q38 33 61 47h1v1q5 4 28 17l27 14z" />
    <glyph glyph-name="oangthai" unicode="&#xe2d;" 
d="M85 -12q0 2 -1 4t-2 2.5t-3.5 2l-2.5 1.5q-20 15 -36 57v0q-25 51 -23 124v0q-3 40 9 66q33 82 100 109q31 12 65 -1q34 -12 59 -39q51 -57 44 -113q-11 -77 -84 -137q-45 -34 -75 -26q-52 25 -71 76q-18 47 12 96q21 31 39 26q22 -8 38 -29q15 -19 16 -43l-3 -18
q-1 -5 -6 -13q-4 -6 -11 -7v0q-17 -4 -37 21v1h-1q-8 5 -12.5 1t-5.5 -14t2 -16q5 -20 24 -29t39 -5q34 3 46 47q9 31 0 61q-10 29 -33 52q-44 42 -82 26q-43 -19 -63 -85q-11 -39 4 -81t47 -70q45 -38 78 -33q57 7 113 72q66 78 58 156v0q-9 55 -48 99.5t-93 56.5
q-13 4 -27 3q-50 0 -91 -36q-71 -62 -80 -142v-1q-2 -87 23 -145l1 -1q3 -4 8 -16q7 -12 10.5 -19t9.5 -16q7 -9 14 -15q4 -6 21 -13q5 -3 7 -2z" />
    <glyph glyph-name="honokhukthai" unicode="&#xe2e;" 
d="M144 358q20 0 41 -6q-28 -18 -52 -29v-1q-7 -3 -16.5 -6t-19.5 -5q-9 -1 -13 3q-4 3 -3 12q14 24 56 32h7zM396 536q-35 -47 -111 -110q-5 -3 -31 -23q-24 -19 -40 -30q-50 24 -96 12h-1q-62 -20 -66 -62q-2 -23 18 -35q19 -11 39 -5q46 12 108 55q49 -28 69 -79v0
q28 -60 -17 -131q-49 -75 -110 -91q-21 -6 -49 17v0q-28 21 -44 51q-15 29 -5 58q9 24 29 41t43 20q36 -5 47 -30q4 -17 -6.5 -33t-26.5 -21q-6 3 -17 11q-15 11 -25 12h-5l-1 -3q-7 -22 21 -51h1q19 -13 39 -8q20 4 34 20q23 22 27 52t-16 55v0q-20 21 -46 30q-26 8 -55 -1
v0q-32 -15 -55 -43q-24 -28 -27 -62q-3 -40 21 -77q23 -36 61 -60q25 -16 51 -13q26 2 50 17q43 25 75 66.5t44 89.5q12 46 -8 94q-20 47 -59 79q-6 5 -12 9l1 1q97 79 147 147v0q12 20 13 27l3 20z" />
    <glyph glyph-name="paiyannoithai" unicode="&#xe2f;" horiz-adv-x="213" 
d="M187 402q-11 -1 -17 -12h-1q-12 -31 -32 -50q-37 -35 -64 -30h-1h-1q-5 -1 -10 14q-1 1 -1 2q5 -4 13 -8q9 -3 17 0q8 4 6 18q-1 23 -26 32t-42 -9v0q-11 -18 -7 -37q3 -18 16 -33q15 -17 39 -17q24 -1 41 10q41 21 66 60q2 -23 1 -57q-7 -87 -35 -171q-36 -100 -45 -122
v-1v-1q0 -1 -1 -2q-4 -14 4 -15q6 1 9 6q17 24 43 77h1q33 83 48 169q15 81 3 150q1 11 -7 19.5t-17 7.5z" />
    <glyph glyph-name="saraathai" unicode="&#xe30;" horiz-adv-x="187" 
d="M155 165q-6 -2 -12 -10q-5 -7 -7 -8q-26 -28 -54 -27q-3 1 -6 1q-5 16 -19 25q-9 6 -20 5q-13 0 -19 -10v-1q-11 -19 11 -37q25 -19 59 -14q24 4 44 22t32 43l1 2l-2 2q-3 7 -7 7h-1zM170 299h-4l-2 -1q-1 -2 -8 -8t-11 -9v0q-21 -18 -44 -14h-1h-4q-5 19 -22 27
q-10 6 -21 4q-12 -3 -17 -14v0q-7 -21 16 -37v0q32 -20 69 -7q12 3 24 13q10 8 16 14q5 6 16 19l1 1q1 4 -1 8t-7 4z" />
    <glyph glyph-name="maihanakatthai" unicode="&#xe31;" horiz-adv-x="0" 
d="M-122 511q12 -1 19 -12q-10 2 -18 7q-5 3 -4 5h3zM223 670q-5 0 -11 -5q-5 -4 -11 -10l-7 -7q-110 -90 -205 -129q-32 -12 -49 -17q-7 23 -28 37q-23 15 -49 9q-17 -5 -25 -22t2 -33q11 -16 30 -24q18 -8 38 -7q5 0 11 1q12 -5 19 4q38 8 96 40q102 58 192 146v1l1 1
q2 5 2 7l1 1v1q0 6 -7 6z" />
    <glyph glyph-name="saraaathai" unicode="&#xe32;" horiz-adv-x="213" 
d="M81 403q-32 0 -51 -14l-1 -1q-20 -22 -15 -70q-2 -17 18 -26q10 -4 17 -0.5t8 13.5v1q0 7 -2 20q-1 11 -1 20q0 7 3 14q26 11 60 1q28 -7 48 -31q19 -23 18 -50q-4 -89 -42 -181q-21 -47 -38 -108q-4 -12 4 -17q7 0 9 5v1q7 13 19.5 36t16.5 32q43 104 54 160l3 18
q2 12 3 20q2 7 3 18t0.5 20.5t-2.5 18.5q-6 39 -39 66q-32 27 -72 33h-1q-11 1 -20 1z" />
    <glyph glyph-name="saraamthai" unicode="&#xe33;" horiz-adv-x="213" 
d="M81 403q-32 0 -51 -14l-1 -1q-20 -22 -15 -70q-2 -17 18 -26q10 -4 17 -0.5t8 13.5v1q0 7 -2 20q-1 11 -1 20q0 7 3 14q26 11 60 1q28 -7 48 -31q19 -23 18 -50q-4 -89 -42 -181q-21 -47 -38 -108q-4 -12 4 -17q7 0 9 5v1q7 13 19.5 36t16.5 32q43 104 54 160l3 18
q2 12 3 20q2 7 3 18t0.5 20.5t-2.5 18.5q-6 39 -39 66q-32 27 -72 33h-1q-11 1 -20 1zM-25 633q3 0 7 -2v0q36 -11 52 -55v0q10 -23 -1 -46q-14 -34 -42 -37q-38 -3 -60 25l-4 10q5 1 9 4q8 8 5 19q-3 30 -2 38v1q0 4 1 8q8 9 18 17h1q0 1 4 4q8 6 2 11q4 3 10 3zM-28 669
q-5 0 -11 -1v0q-33 -9 -54 -49h-1q-8 -18 -9 -42q-8 -21 0 -53q9 -37 50 -54q48 -20 83 6q20 16 31 39q12 24 10 48q-5 54 -50 88q-25 19 -49 18z" />
    <glyph glyph-name="saraithai" unicode="&#xe34;" horiz-adv-x="0" 
d="M-339 746q-12 0 -21 -8q-10 -8 -9 -20q0 -10 5 -17t16 -16q9 -9 12 -10q49 -40 143 -109q94 -68 124 -91l14 -11q10 -7 18 -11q8 -5 18 -5q15 -3 22 8q8 12 -7 22q-10 9 -31 24q-21 14 -26 16q-189 131 -253 180q-11 8 -18 15q15 -1 39 -10q62 -26 139 -96
q58 -54 119 -98v0q14 -8 18 -7q5 2 4.5 5t-3.5 7l-4 3q-9 10 -33.5 34.5t-37.5 38.5v1h-1q-70 64 -105 90q-81 58 -135 64q-4 1 -7 1z" />
    <glyph glyph-name="saraiithai" unicode="&#xe35;" horiz-adv-x="0" 
d="M-329 718q29 0 55 -16q9 -7 18 -16q10 -9 16 -15q6 -5 17 -18q11 -12 14.5 -16t16.5 -20q13 -15 15 -17q1 -1 2 -3q-86 60 -140 103q-3 3 -11 9q-7 5 -9 8q2 0 6 1zM-331 749q-33 0 -38 -24v0q-1 -10 4 -20q5 -9 8 -13q4 -3 14 -11q24 -21 54 -43.5t51 -38t57.5 -42
t52.5 -38.5q10 -7 48 -36q1 -1 2 -3q2 -2 3 -4h1l7 -6q6 -8 16 -8q9 -7 18 -11q17 -9 31 2q16 10 -2 26q-9 7 -21 16q11 21 30 65q20 48 32 73q8 19 -13 26q-20 7 -28 -10q-5 -12 -13 -37q-9 -24 -13 -36q-5 -11 -9 -23q-8 -17 -13 -29h-1q-1 -3 -4 -8q-5 4 -9 7l-32 22
q-5 6 -10 14q-7 10 -10 15v0q-7 8 -27.5 33t-30.5 37t-27 31t-32 33q-33 35 -83 41h-1h-12z" />
    <glyph glyph-name="sarauethai" unicode="&#xe36;" horiz-adv-x="0" 
d="M-10 612q11 0 17 -6q15 -17 5 -37q-16 -30 -56 -38q-11 -2 -21 1v6q1 6 2 10v1q1 4 9 30q8 20 26 28q9 5 18 5zM-324 707q13 -5 33 -14q21 -14 46 -36t36 -33q3 -4 7 -8q-67 47 -114 84h-1zM-343 743h-6h-1q-14 -3 -18 -18q-3 -14 5 -24q9 -10 19 -19.5t27.5 -23
t21.5 -16.5q38 -30 115.5 -85.5t113.5 -83.5h1q3 -2 12 -10q10 -8 18.5 -12t18.5 -3q16 -3 20 11q4 13 -9 21q-10 8 -24 18q8 2 15 5q47 21 59 63q10 39 -18 64v0q-27 23 -67 6v-1q-31 -15 -44 -50v-1q-5 -19 -1 -43q-8 5 -19 14v1q-5 4 -56 58q-2 2 -11 11.5t-11.5 12
l-11.5 11.5q-9 10 -12 13q-4 3 -12 10.5t-12.5 11.5t-12 10l-12.5 10q-6 5 -13 9.5t-15 8.5v0q-41 21 -60 21z" />
    <glyph glyph-name="saraueethai" unicode="&#xe37;" horiz-adv-x="0" 
d="M19 641q-5 0 -8 -3q-5 -10 -24 -49q-9 -15 -20 -44q-11 -26 -14 -35q-1 2 -3 3l-2 1q7 16 24 59q2 5 10 27t9 35q3 15 -10 25v0q-15 9 -23 -7h-1q-8 -22 -17 -62l-12 -48v-1q0 -1 -1 -4q-1 -2 -4 -7l-3 2q-15 22 -42 59q-28 39 -37 53v0q-68 89 -154 107q-13 3 -23 3
q-23 0 -32 -15l-1 -1q-5 -15 0 -29q6 -13 18 -22q21 -18 46.5 -38t43.5 -33t50 -36.5t45 -33.5v0q16 -11 57 -42q42 -32 66 -48v0q19 -11 36 -7q13 3 10 17v1h-1q-4 9 -12 16q-8 6 -20 14q-2 1 -4 3v0q8 9 20 28t19 28q10 12 32 47l1 2q1 1 3 2q6 6 6 12v2l-1 1q-4 6 -13 12
v0q-10 6 -14 6zM-335 721q5 1 19 -2q73 -16 132 -93q10 -13 28 -37l3 -5q-100 69 -161 117q-3 3 -9.5 8t-10.5 9l-3 3h1h1z" />
    <glyph glyph-name="sarauthai" unicode="&#xe38;" horiz-adv-x="0" 
d="M-197 -64q-11 0 -19 -8t-8 -19q0 -7 2 -13l2 -10t4 -12q3 -6 5 -9t6 -11q3 -6 4 -9q1 -2 5 -9q5 -7 9 -11q2 -2 6 -4q-7 -51 -31 -129q-3 -11 -7.5 -31t-5.5 -26v-1v-10l1 -2q6 -5 12 5q8 13 25 48h1v1q25 84 30 110q14 69 7 105q-3 17 -15 30t-27 15h-1h-5z" />
    <glyph glyph-name="sarauuthai" unicode="&#xe39;" horiz-adv-x="0" 
d="M-185 -245q-3 -15 -6 -32q-11 -47 -22 -72q-1 15 4 38q8 31 24 66zM-89 -49q-4 0 -9 -6q-13 -13 -47 -58l-2 -2q-8 38 -34 49q-11 6 -24 3q-15 -3 -19 -17v-1q0 -4 -1 -7q0 -3 2 -8l2 -4q1 -4 4 -8q3 -5 4 -7q1 0 4 -4t4 -6q2 -1 8 -8q5 -7 10 -10q3 -3 7 -5q1 -9 1 -19
v-1q-51 -93 -63 -149q-9 -48 13 -69v0q12 -8 23 -3t16 15q18 29 33 96q14 66 14 115h1v1v1q42 75 53 92v1q1 2 2 5q10 14 -2 14z" />
    <glyph glyph-name="phinthuthai" unicode="&#xe3a;" horiz-adv-x="0" 
d="M-150 -60q-10 1 -18 -6q-16 -14 -14 -34q1 -15 8 -23q8 -12 21 -8q6 -3 10 -2v1q5 2 10 6q12 13 15 20q6 14 -1 26q-7 14 -23 19q-3 1 -8 1z" />
    <glyph glyph-name="bahtthai" unicode="&#xe3f;" 
d="M234 225q9 0 17 -1q12 -2 20.5 -12.5t7.5 -23.5v0q1 -27 -14 -50q-16 -24 -40 -40q-14 -8 -30 -16q9 88 12 122v0q0 4 1 10l15 10q6 1 11 1zM176 333q0 -49 -1 -74q-1 -5 -1 -16q-26 -10 -49 -27q3 24 8 43q14 55 43 74zM215 343q18 -2 27 -15v0q9 -10 8 -21
q-2 -13 -11 -23q-13 -15 -28 -28q0 14 1 40q2 29 3 47zM194 418q-13 0 -17 -14v-31q-44 -16 -65 -61q-5 -10 -9 -22q-4 -11 -6.5 -19.5t-5.5 -23.5t-4 -21t-3 -24t-2 -22q0 -3 -1 -23q-2 -21 -2 -22q0 -5 -1 -21t0 -27q1 -12 5 -22q3 -10 7 -14q8 -8 19 4q10 11 9 25
q1 19 2 58q1 26 2 43q9 -5 20 0q15 6 29 13q-4 -69 -13 -128q-51 -19 -112 -30q-3 0 -7 -1l-8 -2t-6 -3l-16 -7l18 -2q33 -3 102 9q11 2 23 5q-1 -5 -4 -16q-4 -13 -4 -19.5t4 -19.5l1 -1v-1q4 -6 9 -8q13 -7 21 9q10 17 8 35q2 16 4 33q32 13 56 31q30 21 47 52t14 65
q-1 22 -17 39q-14 17 -34 20q38 39 23 77q-9 20 -27 34q-16 11 -35 14v5q4 11 -4 22q-8 12 -20 12z" />
    <glyph glyph-name="saraethai" unicode="&#xe40;" horiz-adv-x="160" 
d="M168 406q-11 1 -16 -6q-4 -6 -6 -17q-2 -9 -2 -11h-1v-1q-57 -198 -81 -297v0q-1 -6 -4 -18t-4 -20t-1 -18q0 -12 3 -22l1 -1q13 -15 24 0q8 10 10 23q2 11 -4 13h-4q1 3 1 4q7 39 45 167q42 131 55 163q7 12 3 24q-4 13 -17 17h-2z" />
    <glyph glyph-name="saraaethai" unicode="&#xe41;" horiz-adv-x="187" 
d="M178 378q-8 -1 -13 -9l-1 -1v-1q-15 -54 -41 -157.5t-29 -114.5q-2 -7 -7 -27q-5 -21 -6.5 -35.5t-0.5 -28.5v-1q1 -10 5 -14q8 -10 20 1q14 13 13 28v7l-1 1q-1 4 -7 3q6 35 15 66q60 203 77 251q4 11 -4 21.5t-19 10.5h-1zM126 404q-10 0 -16 -12v-1
q-11 -43 -33.5 -134t-34.5 -138q-6 -24 -8 -32.5t-5 -29t-3 -35.5t3 -31v0q4 -14 11 -18q11 -8 24 12q11 15 12 30q2 9 -2 12q-6 6 -15 -8q-1 -1 -1 -2l-2 -3q-1 22 3 45q8 36 27 101.5t22 75.5q20 74 41 138q4 10 -5 20q-8 10 -18 10zM118 18v0v0z" />
    <glyph glyph-name="saraothai" unicode="&#xe42;" horiz-adv-x="213" 
d="M80 102q-2 -11 -5 -19v-1v-1q0 -3 -2 -9t-5 -9q-1 -2 -3 -5q5 19 15 44zM210 749q-34 0 -61 -5q-24 -2 -29 -19q-4 -15 3 -32q8 -16 19 -26q57 -60 56 -107v0q2 -72 -20 -144q-22 -71 -63 -160q-3 -8 -39 -80.5t-49 -112.5q-11 -27 -1 -54q13 -30 41 -10v0q64 60 61 176
q1 7 -4 19q46 97 72 170q27 75 33 154q9 91 -43 145q-2 5 -9 11.5t-13.5 13.5t-11.5 14q-4 5 -3 9q0 2 5 4q19 3 40 4q22 1 37 0q16 -1 42 -3q27 -2 39 -2q3 0 21.5 -1t22.5 -1q5 -1 22 -1.5t24 -0.5h20q15 0 23.5 0.5t21.5 1.5t24 2.5t21 3.5h1q18 8 23 11l16 12l-20 -3
q-18 -3 -35.5 -4.5t-39 -1t-35 1.5t-40 3.5t-36.5 3.5q-18 1 -64 4q-47 4 -72 4z" />
    <glyph glyph-name="saraaimaimuanthai" unicode="&#xe43;" horiz-adv-x="213" 
d="M74 100q-2 -25 -11 -43q1 6 2 7l1 1v1q3 17 8 34zM161 766q-17 0 -33 -5q-43 -17 -76 -54q-32 -36 -51 -82v0q-27 -86 10 -160q12 -27 41.5 -37t54.5 7q31 18 52 50q21 31 24 66q5 27 -17 40q-25 15 -38 -12q0 -1 -1 -1v-1v-1q-10 -17 -10 -28q0 -4 2.5 -4t5.5 2l3 1
q3 4 4 6q6 17 19 22q5 2 7 0t3 -12q1 -50 -53 -93q-15 -13 -33 -15q-16 -2 -29 12q-39 50 -20 135q12 41 39.5 74.5t63.5 52.5q18 9 37 6q20 -3 37 -12q16 -9 31 -24q26 -24 30 -65q3 -41 -13 -73h-1q-12 -31 -44 -83q-31 -53 -42 -74q-52 -95 -85 -174q-34 -78 -51 -159v-1
v-1h-1v-1q-3 -14 -4 -23t-1 -23q0 -15 8.5 -23t23.5 -7h1l1 1q40 21 55 78v0q14 71 -11 112q30 81 90 200q12 23 43 76q31 54 46 84q19 39 16 89q-2 50 -33 83q-47 51 -101 51z" />
    <glyph glyph-name="saraaimaimalaithai" unicode="&#xe44;" horiz-adv-x="213" 
d="M-66 745q0 -6 11 -13q8 -5 20 -12q11 -6 15 -11h1q54 -35 96 -122q2 -4 4 -10q3 -6 5.5 -10t5.5 -11q4 -6 7 -9t8 -7q7 -4 14 -3q4 1 11 2h1q21 9 41 23q19 14 43 36q23 20 34 30q4 1 13 9q-16 -48 -37 -102q-23 -60 -39.5 -97t-50 -110.5t-44.5 -98.5
q-6 -15 -18.5 -42.5t-20 -44.5t-15.5 -42q-9 -24 -14 -46q-9 -23 3 -46q13 -28 39 -8v0q59 53 62 161q2 8 -1 21q-3 11 -8 21q14 32 43 99q31 69 49 109.5t41 100.5q22 58 37 110q12 15 7 37q-7 26 -33 15v-1h-1q-22 -14 -61 -49t-62 -49h-1q-6 -7 -12 -8q-5 -1 -9 4
q-5 6 -7 12q-3 6 -7 16q-21 49 -59 86.5t-87 58.5q-10 4 -18 6l-6 2v-7zM81 110q-4 -23 -11 -39v-1v-1q0 -3 -6 -11q5 26 11 38h1q2 7 5 14z" />
    <glyph glyph-name="lakkhangyaothai" unicode="&#xe45;" horiz-adv-x="213" 
d="M71 392q-7 0 -15 -1q-22 -1 -34 -19q-12 -16 -10 -38q-2 -17 7 -35q11 -21 30 -14l2 1l1 2q4 11 1 35q-2 18 2 27q32 13 72 -14q29 -18 42.5 -50.5t6.5 -64.5q-10 -52 -39 -145q-30 -94 -37 -122q-33 -121 -18 -202l1 -5q3 -12 8 -12q3 -1 5 1t2 4v2v1q0 60 8 99v0
q10 74 49 189q5 16 16 50.5t17 54.5q7 21 14 50.5t9 55.5q3 58 -40 104t-100 46z" />
    <glyph glyph-name="maiyamokthai" unicode="&#xe46;" horiz-adv-x="293" 
d="M246 396q-5 0 -10 -3h-1q-11 -9 -22 -34q-9 -23 -11 -25v-1h-1q-2 -7 -4 -10q-5 3 -13 18q-4 7 -4 9q-10 21 -25 34q-16 14 -37 2q-44 -28 -47 -102q-2 -23 13.5 -41t38.5 -18q24 -1 35 23t-3 42q-7 12 -16 12q-10 1 -15 -9q-4 -9 -2 -20q1 -3 0 -4v-1q0 -1 -1 -2
q-2 0 -6 4q-10 8 -6 17l1 1v1q3 46 25 64q8 -9 18 -27q14 -25 27 -35h1q35 -18 59 43v1v1q0 2 3 7q4 -24 3 -69q-3 -34 -13 -74q-10 -41 -18 -66.5t-24.5 -74.5t-23.5 -68q-47 -142 -34 -234l1 -3q1 -2 1.5 -6t1 -5.5t2 -3.5t4.5 -3q4 -1 5.5 1t1.5 5v3q-2 66 14 125v0
q13 59 50 165q37 107 49 156q23 83 13 157q-1 16 -7 31q-8 18 -23 17z" />
    <glyph glyph-name="maitaikhuthai" unicode="&#xe47;" horiz-adv-x="0" 
d="M585 831q-5 0 -11 -2v-1h-1q-10 -6 -19 -15t-17 -22l-12 -20q-4 -8 -12 -24.5t-10 -21.5v0q-7 -22 -7 -27v-21l9 19q2 4 26 49q24 43 43 61q5 3 9 3q5 1 8.5 -2.5t5.5 -15.5q3 -19 1 -33q-1 -9 -5 -16v-1q-34 -119 -184 -193q-124 -59 -219 -48q-24 6 -50 17
q-27 11 -44 21t-47.5 28t-45.5 26v0q-6 3 -23 14q-19 11 -32 17q-14 6 -29 6h-1h-1q-6 -2 -13 -6q-5 -4 -10 -6q-6 -3 -12 -10q-5 -6 -8 -8q-3 -4 -8 -12l-7 -10q-2 -3 -7 -13l-5 -11q-2 -2 -6 -12q-3 -7 -5 -10l-1 -1v-1q-1 -4 -5 -13q-5 -10 -10 -18q-5 -9 -8 -17
q-4 -11 2 -18q5 -7 19 -8h1l1 1l26 13t29 14q10 4 26 8q15 3 27 1q16 -9 33 -37q18 -30 21 -34l1 -1l1 -1q7 -3 13 -3q20 -2 22 25q1 30 -16 48q-4 6 -7 9q-9 10 -17 3q-16 19 -35 28h-1q-36 10 -87 -12q3 7 4 10q25 55 49 66q17 -6 34 -15q18 -9 40 -23q22 -13 33 -19
q8 -5 32.5 -18t37 -19.5t32.5 -14.5q20 -9 38.5 -13t37.5 -5v0q134 2 267 91q126 87 141 199q4 24 -2 48q-7 26 -30 27v0z" />
    <glyph glyph-name="maiekthai" unicode="&#xe48;" horiz-adv-x="0" 
d="M30 871q-10 0 -12 -8q-3 -12 -20 -81v0q-3 -16 -9 -50t-9 -49v-2l1 -1q2 -5 3 -6q4 -4 11 2l1 1l1 1q6 14 15 46q10 30 17 45q6 14 11.5 31t8.5 27t4 13q8 13 4 19v0q-8 10 -21 12h-1h-5z" />
    <glyph glyph-name="maithothai" unicode="&#xe49;" horiz-adv-x="0" 
d="M-28 857q-5 0 -11 -2q-12 -5 -17 -17t2 -23v-1q10 -15 37 -38q3 -2 7 -5q1 0 3 -1q-8 -29 -26 -41q-13 -2 -29 -5q-12 -1 -19 -9q-9 -10 1 -21h1h1q19 -10 46 -3h1q11 4 22 12q77 17 125 35q75 30 107 64l2 2l1 3q7 8 -1 11q-5 3 -11 -3q-24 -22 -58 -37
q-55 -24 -137 -40q5 12 9 25q9 4 11 12q3 11 -7 19q-1 21 -15 37q-20 26 -45 26z" />
    <glyph glyph-name="maitrithai" unicode="&#xe4a;" horiz-adv-x="0" 
d="M181 862q-5 0 -9 -1h-1q-41 -16 -94 -63q-14 -13 -40 -38l-22 -23q4 14 5 23q1 3 3 10q2 9 2.5 12t1.5 11t1 12v11q0 7 -2 12q-1 6 -3 11q-4 10 -14 16t-19 0q-7 -3 -12 -8q-4 -5 -10 -16q-4 -9 -6 -11h-1v-2q-1 -3 -7 -11l-2 -4q-8 11 -16 33q-3 11 -14 15t-20 -4l-1 -1
q-12 -13 -13 -54v0q2 -45 9 -69q10 -29 25 -34q13 -5 21 4t4 21h-1q-11 22 -14 39q-2 10 -3 19q6 -5 14 -8q12 -3 23 4q9 5 15 15q6 8 13 21l2 5v-1q0 -14 -2.5 -30t-6.5 -35q-5 -20 -7 -31q-3 -14 11 -20q13 -5 22 6q12 11 31.5 33t25.5 28l1 1q62 66 107 85v1q2 1 5 3
q6 2 7 6t-1 5.5t-5 1.5h-3z" />
    <glyph glyph-name="maichattawathai" unicode="&#xe4b;" horiz-adv-x="0" 
d="M12 872q-9 -2 -12 -9q-2 -6 -3 -14q-1 -7 -2 -10q-2 -7 -8 -42q-11 -2 -49 -8q-11 2 -18 -4t-5 -17q-1 -14 11 -17q9 -2 19 3q7 1 21 5q8 2 15 4q-3 -19 -8 -65q-1 -11 8 -15v-1q5 -2 8.5 1.5t4.5 8.5v1q0 4 6 35q4 16 13 43q51 13 79 13h2l1 1q7 6 3 10.5t-11 5.5
q-3 1 -8 1q-18 2 -58 -1q2 6 4 15q4 15 7 25q8 9 2 19q-5 9 -16 11l-2 1h-3h-1z" />
    <glyph glyph-name="thanthakhatthai" unicode="&#xe4c;" horiz-adv-x="0" 
d="M189 905q-5 2 -6.5 -1t-1.5 -7l1 -4v0q6 -24 -10 -46q-28 -39 -96 -73q-11 -5 -32.5 -13t-31.5 -15q-19 -10 -32 -26q-17 1 -22 -11q-4 -10 2 -19q-4 -12 -5 -25q-1 -16 7 -31t22 -22q13 -8 26 0q12 7 17 19q2 6 2 13q0 6 -1 10q0 4 -3 12q-3 7 -4.5 9t-5.5 10q-3 5 -4 8
v1l-1 2q-1 1 -4 3q13 15 31 25q90 38 136 91q38 42 26 80l-1 1v1q-6 7 -9 8z" />
    <glyph glyph-name="nikhahitthai" unicode="&#xe4d;" horiz-adv-x="0" 
d="M-52 632q4 0 8 -1q35 -12 52 -55q10 -23 -1 -46q-15 -35 -43 -38q-38 -2 -59 25q-3 4 -5 10q5 1 8 5q6 6 6 14q0 4 -2 20q-1 15 0 22v1q0 4 1 8q8 9 18 17q2 1 5 4q7 5 2 12q4 2 10 2zM-56 669l-10 -2v0q-33 -9 -54 -48h-1q-8 -20 -8 -43q-9 -22 -1 -52q9 -38 50 -54
q49 -21 83 5q20 16 32 39q12 24 10 49q-6 53 -50 87q-25 19 -50 19h-1z" />
    <glyph glyph-name="yamakkanthai" unicode="&#xe4e;" horiz-adv-x="0" 
d="M-15 713q-10 0 -18 -3v-1q-33 -17 -36 -62q-2 -15 7 -35q-28 5 -53 -21q-22 -20 -23 -48q-2 -27 11 -52t37 -36q16 -9 36 -6t31 18q7 8 7 18q1 10 -8 18v0q-11 8 -21 2q-8 -4 -12 -13q-6 -5 -12 -4q-9 2 -14 7q-12 13 -16 28q-5 16 0 31q10 20 27 25q6 2 11 0q6 -2 14 -7
t12 -6q10 -7 19 0q11 8 5 20v1q-4 5 -13 16t-11 17h-1v1q-13 19 -7 39v0q3 13 11 23t18 11q9 1 16.5 -4.5t10.5 -12.5q1 -4 4 -8l1 -1l1 -1q4 -1 7 1t3 6q1 11 -5 18q-13 22 -39 21z" />
    <glyph glyph-name="fongmanthai" unicode="&#xe4f;" 
d="M153 242q21 -2 35 -26v0q10 -15 -4 -30v0q-7 -9 -20 -11t-24 3v1h-1q-9 2 -14 12q-5 11 -3 21q1 4 2 6q2 3 6 7l5 5q5 2 11 7q4 3 7 5zM151 281q-12 0 -23 -5q-8 -3 -13 -11q-7 -3 -11 -8q-13 -13 -17 -33.5t3 -39.5q6 -19 24 -31t40 -13q21 -2 40.5 10t28.5 32v0
q7 21 1 41t-22 35q-24 23 -51 23zM150 313q22 0 49 -17q27 -18 45 -43q17 -25 19 -53q1 -48 -48 -83v0q-30 -24 -68 -14q-55 11 -74 50v0q-7 13 -10 56q9 40 12 49q25 36 56 50q9 4 19 5zM147 350q-47 -3 -93 -55q-23 -24 -29 -64q-3 -11 -2 -21q-3 -24 7 -54q14 -40 54 -65
q31 -20 66 -24t68 12q32 16 54 45.5t26 63.5v1q4 62 -53 117q-47 44 -98 44v0z" />
    <glyph glyph-name="zerothai" unicode="&#xe50;" horiz-adv-x="347" 
d="M190 250q9 0 17 -1q65 -8 89 -50q3 -37 2 -52q-3 -37 -43 -76q-53 -52 -105 -39q-29 8 -53 28t-35 47q-9 25 -2 47q6 22 25 43q46 53 105 53zM194 287q-37 1 -68 -15q-36 -17 -63 -46q-27 -28 -38 -65q-16 -53 23 -101q25 -29 58 -47t68 -17q75 4 132 80q23 29 29 66
q8 2 12 12q4 11 1 20q-2 20 -12 39q-5 16 -13 27v0q-9 11 -18 10q-16 13 -35 21q-37 16 -76 16z" />
    <glyph glyph-name="onethai" unicode="&#xe51;" 
d="M181 295q-4 0 -10 -1q-70 -9 -120 -82q-43 -64 -24 -119v0q11 -25 36 -40t54 -19q49 -7 79 30q34 36 20 83q-14 54 -49 68q-14 7 -30 -5q-15 -12 0 -24h1v-1q29 -10 39 -48v-1q7 -18 -2 -36t-28 -26q-39 -12 -76 18q-22 18 -10 62q10 33 34.5 60.5t57.5 41.5
q43 19 93 -14q55 -37 52 -84q-4 -54 -70 -108q-74 -58 -166 -97l-1 -1q-2 -1 -7 -3q-6 -4 -10 -6l-14 -9h17q12 0 43 10q93 34 140 70q83 62 96 127q11 50 -26 93q-52 61 -119 61z" />
    <glyph glyph-name="twothai" unicode="&#xe52;" 
d="M-158 472q-6 0 -5 -5t4 -6q2 -2 7 -3q67 -23 115 -110v-1q20 -31 36 -66.5t37.5 -90.5t28.5 -72q17 -42 46.5 -73t68.5 -44q22 -9 45 -4q24 6 38 25q44 52 57 129v1q7 75 -6 120q-8 27 -31 18q-20 -7 -23 -28l-10 -20q-7 -16 -14 -25q-4 -6 -10 -12q-7 9 -24 34
q-23 35 -42 47q-19 13 -37 2q-17 -10 -20 -30q-11 -54 26 -113q10 -17 29 -27t37 -4l1 1q4 3 7 7q15 23 -32 54q-11 7 -20 11q-14 27 -12 58q0 6 2 8q6 -1 21 -21l5 -5q3 -4 18 -27q17 -26 33 -32h1q7 -1 13.5 0.5t12.5 6.5q5 4 8 6q5 4 10 12l6 10q1 3 6 11q3 7 5 9l1 1v2
q0 3 1 6q2 2 4 6q2 -14 3 -38q4 -63 -28 -125l-4 -7q-4 -7 -5 -9q-1 -1 -5 -7l-6 -7.5t-6 -6.5q-3 -4 -5 -5q-3 -2 -8 -4q-3 -2 -7 -2q-33 1 -63 23q-29 21 -47 53q-15 33 -47 113t-56 121q-60 106 -136 131q-11 4 -24 4z" />
    <glyph glyph-name="threethai" unicode="&#xe53;" horiz-adv-x="347" 
d="M58 129l4 -4q15 -16 21 -39q4 -17 1 -33q-14 18 -22 45q-3 15 -4 31zM242 296q-4 0 -10 -1v0q-18 -5 -30 -19q-12 -13 -23 -36q-4 -7 -8 -15q-23 34 -55 43q-23 5 -44 -8q-21 -14 -31 -36q-30 -63 -14 -137v-1q16 -47 39 -71q10 -12 25.5 -10.5t22.5 16.5q24 54 -1 102
q-21 43 -53 43q3 23 13 43v0q5 14 17 22q11 7 23 3q26 -12 43 -48q-9 -29 -11 -55q-3 -18 12 -26q17 -7 26 9q24 26 6 75q7 18 17 38v1l2 4q3 5 4 6.5t4 5.5q2 4 3.5 6t4.5 5q2 3 4 4.5t5 3.5q3 1 5 2q25 3 50 -30q33 -49 25 -88q-13 -62 -72 -153q-2 -2 -4 -6q-2 -5 -4 -8
q-2 -4 -2 -7v-12l22 22q8 8 12 13q3 5 11 16t11 13v1q46 68 54 108q13 54 -28 115q-30 47 -71 47z" />
    <glyph glyph-name="fourthai" unicode="&#xe54;" horiz-adv-x="347" 
d="M489 467q-4 -6 -9 -28q-6 -20 -10 -29h-1q-21 -52 -86 -83q-43 -20 -127 -41q-85 -20 -102 -25q-42 -10 -75 -33q-33 -24 -48 -60q-15 -41 7 -84q23 -42 65 -56q18 -5 39 -6t38 1q17 1 40 4q21 3 35 4q2 -1 5 -3t12 -6q9 -5 14 -8t12 -6q9 -4 16.5 -5t15.5 0h1
q21 9 13 31q-8 20 -26 26q-21 7 -50 6q-23 16 -38 37q17 8 42 28q13 6 17 20q4 15 -4 26q-9 11 -27 7q-26 -4 -48 -21t-23 -42q-5 -5 -7 -9q-7 -12 6 -18v-1h1q2 -1 6 -1q8 -16 24 -31l-13 -2q-4 0 -16 -2q-11 -1 -15 -1t-15 -1t-16 -1q-4 1 -14 2q-9 1 -14 3q-6 3 -13 6
q-6 3 -12 8v0q-23 16 -30 43t6 51q25 47 113 69h1q23 8 72 19t88 23q38 12 70 30q38 20 61.5 56t27.5 79q1 14 0 23l-2 16z" />
    <glyph glyph-name="fivethai" unicode="&#xe55;" horiz-adv-x="347" 
d="M252 348q6 0 11 -3h1v-1q11 -4 17 -15q-23 -4 -43 -1q-9 5 -5 11q7 9 19 9zM491 468q-3 -2 -5 -4t-2.5 -4t-3 -6.5t-3.5 -8.5q-30 -58 -118 -93q-34 -12 -48 -16q-9 24 -31 33q-17 10 -41 6q-25 -3 -34 -24q-10 -20 4 -37t34 -16q19 -1 40 2q-2 -6 -7 -11
q-11 -12 -29 -23q-18 -10 -31 -15q-14 -5 -39 -13t-35 -12q-41 -14 -70 -33q-30 -20 -43 -52v0q-12 -40 11 -77q24 -37 64 -50q17 -5 39 -6q21 -1 37 1q17 1 40 4q22 3 36 3q26 -16 55 -26q23 -11 34 11q9 21 -11 35q-22 19 -65 16q-23 17 -38 37q3 2 23 14q8 5 12 8t11 10
q8 7 11 12q4 7 3.5 15.5t-7.5 16.5l-1 1l-2 1q-21 6 -41 -1q-19 -7 -35.5 -21.5t-17.5 -38.5q-12 -12 -7 -23l2 -2l2 -1q4 -1 9 -1q4 -8 9 -14q7 -9 15 -17q-8 -1 -19 -3q-22 -2 -32 -3t-27 0q-16 1 -28 6q-28 9 -44 35q-15 25 -5 50q7 16 24 30q18 14 31 19q14 6 39 15
q5 2 37 13t43.5 16.5t32.5 18.5t34 30q11 14 12 31q28 7 56 19q94 45 121 113v0q2 7 3 12l1 3t1.5 5t0.5 4.5t-2 4t-5 1.5z" />
    <glyph glyph-name="sixthai" unicode="&#xe56;" 
d="M-151 472q-17 0 -12 -9l1 -3h2q42 -7 69 -46q13 -19 34 -55.5t30 -53.5q23 -37 49 -62q26 -26 60 -31q28 -3 68 21q36 22 53 25q46 2 72 -30q26 -41 -10 -102q-38 -58 -91 -86h-1q-11 -9 -29 -6q-17 3 -20 18q-5 22 2 44q6 20 22 31q-1 -1 -1 -2q-3 -11 -2 -17v-4
q-1 -5 -1 -7t0.5 -7t1 -7l1.5 -6q2 -4 4 -7q4 -3 9 -3h1l2 1q24 14 27 65q2 22 -18 33q-19 11 -36 0q-28 -13 -41 -43t-11 -63q1 -24 18 -43t41 -20q47 -1 107 57q78 75 66 155q-3 33 -29 53q-25 20 -58 26q-8 2 -15 2t-13 -1q-7 0 -15 -3q-8 -2 -12 -4q-4 -1 -13 -7
q-10 -5 -12.5 -6.5t-11.5 -7.5q-9 -5 -11 -7q-16 -11 -34 -12t-32 9q-17 11 -31.5 27.5t-22.5 29.5t-22 37t-20 34q-12 19 -19.5 29.5t-21.5 25.5q-14 16 -29 25t-33 13h-12z" />
    <glyph glyph-name="seventhai" unicode="&#xe57;" horiz-adv-x="347" 
d="M649 471q-5 0 -12 -2q-71 -21 -163 -102v0q-43 -42 -88 -97t-73 -93q-27 -38 -74 -106q3 10 5 21q9 35 12 51t5.5 43t1.5 50v1q-3 22 -14 39q-12 20 -33 15h-1q-12 -6 -21 -16q-8 -9 -18 -28q-9 -17 -11 -20q-3 -4 -12 -21q-8 -15 -15 -24q-6 -7 -13 -11q-8 7 -14 16
q-7 10 -15 31q-7 20 -10 25q-2 17 -16 25t-27.5 0t-13.5 -27q-12 -103 10 -174h1q1 -4 5 -15q3 -11 5.5 -17t7.5 -15t11 -15t15 -10h1q17 -2 25 7t6 24q-1 13 -4.5 25t-9.5 21q-15 39 -35 50q-6 35 -4 79v1l-1 2v3l2 -4q6 -14 8 -19v0q12 -25 30 -40q20 -17 43 -2v0
q21 16 45 59q23 42 26 47l1 1q2 7 5 10q2 -3 5 -13q3 -11 4 -19q1 -29 -3 -57.5t-15 -74.5q-10 -44 -13 -56q-14 -23 6.5 -33.5t31.5 12.5q1 1 2 1v1q13 19 44.5 64t48.5 69t44.5 59.5t52.5 64.5q35 39 47.5 52.5t42.5 42.5t56 47t55 30v1h1q4 2 10 4q0 1 3 1.5t4.5 1.5l3 2
t2.5 2.5t1 3.5q0 6 -7 6z" />
    <glyph glyph-name="eightthai" unicode="&#xe58;" horiz-adv-x="347" 
d="M640 471q-4 0 -8 -7q-60 -86 -130 -129v0q-70 -50 -163.5 -60.5t-174.5 17.5q-20 7 -41 -2q-19 -9 -33 -27q-19 -25 -34 -56q-16 -30 -33 -75q-18 -44 -25 -60v-2v-2q6 -13 18 -13q10 0 19 6q8 6 18 13t15 8h1l1 1q2 1 7 4l9 5q2 0 8.5 3t9 4t8.5 3q7 2 10 3q2 1 7.5 2
t9.5 2h9q4 -1 8 -1q15 -8 30 -21q15 -14 23.5 -24.5t23.5 -29.5q8 -21 31 -30q26 -11 35 18v1q-2 28 -6 60h6h3l3 7q2 3 2 6t-1 5q0 2 -2 5q-2 2 -3 4q-1 3 -4 6l-3 3q-1 2 -4 6l-3 2q-1 10 -3 19q2 25 -21 33q-24 10 -32 -17v-1q0 -1 -1 -5v-1q0 -27 20 -48q2 -12 6 -42
q-19 23 -27 32q-9 10 -29 26q-22 17 -42 22h-1q-44 2 -107 -33q3 7 6 15q8 21 13 32.5t12 27.5t15 30q2 2 6 9t6 9l6 9t7 8q3 3 8 6q4 4 9 5q4 2 8 2q149 -44 275 -3q67 22 123 69.5t91 111.5l2 2q8 18 8 21q2 6 -5 6z" />
    <glyph glyph-name="ninethai" unicode="&#xe59;" horiz-adv-x="347" 
d="M650 458q-25 0 -60 -13q-52 -21 -140 -87q-86 -65 -135 -85v-1q-36 -17 -63 -2q-17 13 -40 7q-26 -6 -20 -34q7 -38 17 -80q-9 13 -16 22q-13 16 -36 35q-22 19 -45 29t-46 -3q-23 -12 -28 -38q-18 -66 9 -145v0q10 -23 18 -38t24 -32t35 -25h1q29 -7 47 21q17 26 10 54
q-7 29 -24 52t-43 30h-1q-10 1 -16 -2q-9 -6 -1 -19v0q4 -6 17 -21q9 -10 11 -13v0q6 -7 10.5 -17t6.5 -21q2 -10 -2 -17q-2 -6 -10 -7q-27 18 -50 74q-23 73 -5 124q1 3 3 5q16 19 60 -19q61 -58 103 -139q3 -10 7 -21q-1 -20 18 -27q9 -3 15 1.5t7 14.5v0q0 3 -1 7
q-6 22 -20 47q-4 12 -28 98q-2 9 -7 26q-4 17 -7 31q-2 9 -2 18q9 -1 24 -7q23 -9 37 -8h1q19 4 39 12q19 8 32.5 15t36 21t30.5 20t33 24q24 18 29 23q6 4 30 23q25 19 35 25.5t30 18.5t37.5 18t36.5 8h1q4 1 12 1h37l-22 10q-15 6 -32 6z" />
    <glyph glyph-name="angkhankhuthai" unicode="&#xe5a;" horiz-adv-x="293" 
d="M266 404q-15 0 -28 -9q-12 -9 -18 -17q-4 -4 -9 -11v3q1 11 -6 20q-7 11 -17 11q-11 1 -19 -12v-1h-1q-21 -54 -70 -75v-1h-1q-11 -7 -25 -1q-11 4 -13 16q1 -1 2 -1q9 -5 16 -9q13 -7 19 9v1q5 25 -20 38q-23 13 -43 -2h-1q-15 -16 -12 -37q2 -19 15 -34q13 -18 38 -20
q24 -2 42 8q40 20 66 58q9 -110 -27 -215q-26 -73 -50 -131v-1v-1q0 -1 -1 -4q-2 -5 -2 -9v-12l9 8q7 8 12.5 16t11.5 20q6 10 10 16q19 29 44 103q26 83 27 168q9 6 12 17l4 10q5 8 6 12q1 3 5 9t7 9.5t7 7.5q3 2 7 4q2 -2 3 -5q2 -7 4 -21.5t2 -16.5v-1q11 -102 -56 -251
q-23 -47 -46 -111v-1v-1q0 -1 -1 -2l-1 -5q-1 -3 1 -5.5t5 -2.5h2l2 2q7 8 14 18q6 10 14 23t12 19v1q23 44 49 107q54 130 37 238q-4 52 -38 54v0z" />
    <glyph glyph-name="khomutthai" unicode="&#xe5b;" horiz-adv-x="1013" 
d="M107 351q-32 0 -51 -23q-40 -43 -35.5 -108t49.5 -104q26 -25 64 -22.5t60 31.5q17 18 25 44q8 24 12 57q1 10 2 18q1 -2 1 -4q1 -8 4 -37q3 -31 10 -49q8 -19 26 -30l2 -1h2q20 6 26 26q5 17 5 43q0 24 4 33v2v2q-2 3 0 12q1 -5 1 -9q3 -24 7 -39q3 -16 9 -29h1v-1
q8 -14 16 -18q16 -7 27 18q9 24 5 48v1q-1 2 -1 7q7 -24 16 -36v-1h1q16 -13 29 -3q10 8 16 25q3 8 4 15q42 -25 111 -30q69 -4 202 2q132 6 196 4h11l33 2l-8 8q-3 2 -15 4v0q-132 15 -296 9q-11 0 -43 -1q-31 -1 -46.5 -0.5t-40.5 2.5t-45 7q-20 6 -38 15q-12 13 -23 14
q-13 1 -20 -11q-7 -10 -10 -21q-1 -2 -2 -5q-1 4 -1 9q-2 23 -8 40q-8 19 -27 17h-1l-2 -1q-7 -8 -12 -17q-4 -9 -6.5 -20.5t-2.5 -19.5q-1 -4 -1 -11q-2 13 -5 32q-4 42 -19 60l-2 2h-3q-16 -2 -25 -17q-9 -14 -10 -29q-2 -13 -4 -33q-2 -19 -4 -28v-1q0 -3 -1 -14
q-4 17 -7 42q-4 42 -7 56q4 26 -18 37q-25 11 -34 -17q-1 -4 -1 -7q-8 -20 -11.5 -54.5t-11.5 -61.5q-8 -26 -28 -42q-23 -16 -47 -6t-36 35h-1v1q-18 29 -14 71q4 41 32 64q7 4 12 4t8 -2q3 -3 5.5 -8t4.5 -12q1 -8 2 -15t2 -15t2 -13l1 -2l2 -1q19 -10 27 23q7 30 0 49
q-5 18 -18.5 27.5t-32.5 10.5v0z" />
    <glyph glyph-name="enspace" unicode="&#x2002;" horiz-adv-x="375" 
 />
    <glyph glyph-name="emspace" unicode="&#x2003;" horiz-adv-x="750" 
 />
    <glyph glyph-name="zerowidthspace" unicode="&#x200b;" horiz-adv-x="0" 
 />
    <glyph glyph-name="afii61664" unicode="&#x200c;" horiz-adv-x="0" 
 />
    <glyph glyph-name="afii301" unicode="&#x200d;" horiz-adv-x="0" 
 />
    <glyph glyph-name="afii299" unicode="&#x200e;" horiz-adv-x="0" 
 />
    <glyph glyph-name="afii300" unicode="&#x200f;" horiz-adv-x="0" 
 />
    <glyph glyph-name="endash" unicode="&#x2013;" horiz-adv-x="412" 
d="M408 133h-340v49h340v-49z" />
    <glyph glyph-name="emdash" unicode="&#x2014;" horiz-adv-x="734" 
d="M730 133h-673v51h673v-51z" />
    <glyph glyph-name="quoteleft" unicode="&#x2018;" 
d="M146 358q2 0 3 -6h-2q-3 0 -6 4q2 1 5 2zM163 524q-10 -1 -14 -11q-33 -48 -44 -102q-8 -47 7 -73q9 -19 30 -22q30 -7 41 15h1q7 18 -1 41q-9 25 -36 26q-8 0 -15 -1q1 10 3 23q9 50 32 90l1 1v1q1 2 0 7t-5 5z" />
    <glyph glyph-name="quoteright" unicode="&#x2019;" 
d="M171 475h3q3 0 6 -4q-3 -2 -4 -2h-1h-1l-1 -1v1zM167 512q-21 -1 -29 -15v-1h-1q-7 -18 0 -41q9 -25 36 -26q7 -1 15 1q-1 -11 -4 -24q-10 -49 -34 -89l-1 -1v-1q-3 -13 6 -12t13 11q34 46 46 101q10 45 -4 73q-8 18 -31 22q-6 2 -12 2v0z" />
    <glyph glyph-name="quotesinglbase" unicode="&#x201a;" horiz-adv-x="219" 
d="M61 -116v14q71 31 71 95q0 11 -7 10q-2 0 -6 -2q-9 -6 -23 -5q-20 0 -33.5 15t-13.5 34q0 22 16.5 38t38.5 16q32 0 50 -25q17 -22 17 -55q0 -101 -110 -135z" />
    <glyph glyph-name="quotedblleft" unicode="&#x201c;" 
d="M120 358q1 -1 1 -2l1 -4q-7 0 -9 3q6 3 7 3zM205 364v-1l2 -6q-5 0 -7 2q-1 1 -1 2q4 3 6 3zM212 512q-5 0 -9 -4q-3 -3 -6 -8l-3 -5v0q-29 -49 -33 -100q-3 -42 17 -63h1q22 -19 49 -9q18 7 17 31q1 16 -7 30q-9 14 -24 18q-13 2 -25 0q1 3 1 6v1q4 50 26 90h1v3
q1 2 1 5v5h-6zM134 524q-2 0 -6 -3h-1l-1 -1q-31 -42 -45 -99q-12 -50 1 -79q9 -20 30 -25q33 -9 44 14h1q8 20 -2 44q-6 12 -18 18t-24 5h-1q-3 -1 -7 -1q1 7 2 15q7 53 33 98l1 1v1q1 4 1 6q0 3 -2.5 5t-5.5 1z" />
    <glyph glyph-name="quotedblright" unicode="&#x201d;" 
d="M113 469q5 0 7 -2v-1l1 -1l-5 -3h-2v1q0 2 -1 6zM199 475q6 0 7 -3v-1h1l-4 -2q-1 0 -3 -1q-1 1 -1 3v4zM109 506q-8 0 -15 -3q-20 -6 -19 -30q-1 -16 7 -30t23 -19v0q13 -3 25 0q1 -4 0 -10q-5 -48 -26 -87h-1v-3q-1 -2 -1 -4v-4l3 -1q6 -2 11 3q3 3 6 8l4 5v1
q29 47 33 99q3 42 -17 63h-1q-14 11 -32 12v0zM193 512q-20 -1 -28 -15v-1h-1q-8 -20 1 -44h1q5 -12 16.5 -18.5t24.5 -4.5h7q-1 -6 -2 -15q-9 -53 -35 -97v-1h-1q-3 -9 2 -12q4 -3 11 2h1v1q32 41 48 98q13 49 1 79q-9 20 -30 26q-7 2 -16 2v0z" />
    <glyph glyph-name="quotedblbase" unicode="&#x201e;" horiz-adv-x="330" 
d="M38 -116v16q71 27 71 93q0 6 -2 9q-1 2 -3 2t-5 -2q-10 -7 -26 -7q-30 0 -42 31q-4 9 -4 19q0 23 16.5 39t39.5 16q31 0 49 -27q17 -23 17 -55q0 -93 -111 -134zM193 -116v16q30 11 50 36q21 26 21 57q0 5 -2 9q-2 2 -3 2q-2 -1 -5 -2q-11 -7 -25 -7q-20 0 -33.5 15
t-13.5 35q0 23 16 39t39 16q31 0 50 -27q16 -23 17 -55q0 -93 -111 -134z" />
    <glyph glyph-name="dagger" unicode="&#x2020;" horiz-adv-x="330" 
d="M172 -129h-16v29q0 125 -11 200q-8 52 -23 93q16 13 24 30q10 22 10 44q-7 -1 -22 -4q-4 -1 -31 -16q-20 -10 -32 -10q-39 0 -39 37t37 38q13 0 42 -14q31 -15 45 -17q0 24 -17 61q-15 33 -15 49q0 18 10 32q11 14 30 14q42 0 41 -46q0 -11 -2 -20q-2 -7 -13 -28
q-8 -16 -13 -34q-2 -8 -4 -12q-1 -8 -1 -16q8 0 24 5q5 2 29 15l18 9q6 2 15 2q40 0 40 -38q0 -15 -11.5 -26t-26.5 -11t-50 19q-18 10 -38 11q4 -48 35 -74q-19 -57 -26 -108q-9 -67 -9 -185v-29z" />
    <glyph glyph-name="daggerdbl" unicode="&#x2021;" horiz-adv-x="330" 
d="M208 239q-34 -31 -34 -81q0 -41 10 -64q6 -15 24 -28q-30 -29 -35 -56q15 2 35 10q28 12 35 14t15 2q36 0 36 -32q0 -33 -35 -33q-15 0 -40 12q-17 8 -27 11q-9 2 -19 3q2 -15 4 -22q5 -15 13 -31q13 -26 13 -39q0 -36 -36 -36t-37 35q0 15 13 45q14 33 16 48
q-7 -1 -17 -3q-6 -1 -27 -11q-27 -12 -44 -12q-35 0 -35 32q0 14 10 24t23 10q9 0 15 -2q23 -11 75 -25q-6 31 -35 56q19 15 25 29q9 19 10 52q0 38 -8 57q-7 17 -27 35q30 22 35 55q-18 0 -47 -14q-26 -13 -42 -12q-34 0 -34 33q0 13 10 22.5t24 9.5q12 0 31 -8q3 -2 15 -7
q21 -10 43 -11q-3 15 -12 37q-11 26 -15 36q-4 11 -4 19q0 15 11 26.5t26 11.5t25.5 -10.5t10.5 -26.5q0 -14 -14 -46q-10 -24 -14 -47q8 1 22 4q8 3 15 6q4 2 15 7q22 10 33 10q15 0 27 -11q9 -9 9 -23q0 -32 -35 -31q-9 0 -16 2q-3 0 -18 7q-20 9 -29 12q-3 1 -10 2
q-9 2 -13 2q0 -16 9 -29q7 -11 26 -26z" />
    <glyph glyph-name="bullet" unicode="&#x2022;" horiz-adv-x="230" 
d="M62 220q0 23 16 39t39 16t39 -16t16 -39t-16 -39t-39 -16t-39 16t-16 39z" />
    <glyph glyph-name="ellipsis" unicode="&#x2026;" horiz-adv-x="523" 
d="M87 52q12 0 21 -8.5t9 -21.5q0 -11 -9 -19.5t-20.5 -8.5t-20.5 8.5t-9 19.5q0 13 8.5 21.5t20.5 8.5zM262 52q12 0 20.5 -8.5t8.5 -21.5q0 -11 -8.5 -19.5t-20.5 -8.5q-11 0 -20 8.5t-9 19.5q0 13 8.5 21.5t20.5 8.5zM437 52q12 0 20.5 -8.5t8.5 -21.5q0 -11 -9 -19.5
t-21 -8.5q-10 0 -18.5 8.5t-8.5 19.5q0 13 8.5 21.5t19.5 8.5z" />
    <glyph glyph-name="perthousand" unicode="&#x2030;" horiz-adv-x="523" 
d="M106 356q9 0 17.5 -6t15.5 -13t20 -12t29 -5q23 0 37.5 8.5t48.5 42.5h24l-225 -381h-26l206 346q-14 -17 -28 -23.5t-35 -6.5q-18 0 -40 8q3 -13 3 -23q0 -27 -10.5 -53.5t-29.5 -44.5q-20 -21 -47 -21t-44.5 20.5t-17.5 50.5q0 45 30.5 79t71.5 34zM104 341
q-7 -4 -13 -7q-20 -12 -35 -45t-15 -67q0 -16 8 -26t22 -10q28 0 48.5 33.5t20.5 80.5q0 9 -2 14t-5.5 6.5t-12 6.5t-16.5 14zM281 174q24 0 37.5 -16.5t13.5 -46.5q0 -47 -26 -84t-60 -37q-27 0 -45.5 21t-18.5 51q0 42 30.5 77t68.5 35zM288 158q-16 0 -27 -12
q-17 -19 -29 -49.5t-12 -55.5q0 -16 8.5 -26.5t20.5 -10.5q27 0 49 33.5t22 74.5q0 20 -9.5 33t-22.5 13zM472 174q24 0 37 -16.5t13 -46.5q0 -47 -26 -84t-60 -37q-27 0 -45.5 21t-18.5 52q0 41 31 76t69 35zM477 158q-19 0 -35 -22.5t-24 -49t-8 -45.5q0 -15 8.5 -26
t20.5 -11q27 0 49 33.5t22 74.5q0 21 -9 33.5t-24 12.5z" />
    <glyph glyph-name="guilsinglleft" unicode="&#x2039;" horiz-adv-x="174" 
d="M83 118q2 -5 20.5 -28.5t32 -42.5t13.5 -25q0 -4 -5 -4q-3 0 -5 3q-44 42 -90 81l-16 15l33 31q3 1 5.5 3t4.5 3l1 2q33 27 44 41q6 8 13.5 14.5t9.5 6.5q6 0 6 -5q0 -11 -29 -47q-26 -30 -38 -48z" />
    <glyph glyph-name="guilsinglright" unicode="&#x203a;" horiz-adv-x="174" 
d="M25 22q-5 4 68 96l-39 48q-29 34 -29 47q0 5 5.5 5t23.5 -21q2 -5 54 -49l33 -31l-16 -15q-56 -48 -85 -78q-6 -6 -9 -6q-6 0 -6 4z" />
    <glyph glyph-name="fraction" unicode="&#x2044;" horiz-adv-x="86" 
d="M174 356l-236 -364h-26l238 364h24z" />
    <glyph glyph-name="Euro" unicode="&#x20ac;" horiz-adv-x="374" 
d="M222 505q22 0 42.5 -8t33 -16.5t16.5 -8.5q12 0 18 34h14l12 -168h-13q-7 49 -22 79q-15 31 -41.5 49t-54.5 18q-32 0 -58 -24t-40 -68q-11 -36 -17 -100h165l-21 -30h-146v-25v-23h116l-19 -30h-95q9 -79 43.5 -125t86.5 -46q33 0 65 19.5t51 53.5v-26
q-22 -33 -58.5 -51.5t-77.5 -18.5q-67 0 -115.5 52t-62.5 142h-56l20 30h32v28v20h-52l20 30h36q12 94 62 153.5t116 59.5z" />
    <glyph glyph-name="trademark" unicode="&#x2122;" horiz-adv-x="330" 
d="M301 450q-4 0 -12 -2l-3.5 -0.5t-5.5 -0.5q-1 0 -2 -1h-1q-13 -22 -25 -61q-6 -16 -9 -29q-1 -2 -1 -5q-8 20 -11.5 28.5t-11.5 25t-17 30.5q0 1 -1 1q-4 2 -7 2h-2q-3 -1 -9 -2q-11 -5 -15 -5q-2 0 -3 -2q-3 -13 -3 -73v-41q-1 -20 -3 -27q0 -1 1 -2v-0.5v-0.5v0
q2 -1 3 0l14 2q15 3 22 3q1 0 2 0.5t1 1.5q0 18 -0.5 46t-1 43t1.5 43q5 -8 9.5 -16.5t8.5 -18.5t6.5 -16t7 -17.5t6.5 -16.5q1 -2 3.5 -2t2.5 3q0 4 3 15q3 13 9 29q10 31 20 52q3 -17 4.5 -38t1.5 -34.5t-0.5 -39t-0.5 -34.5q0 -1 1 -2t2 -1q13 0 25 3q1 0 2 1v0v0v0
q1 1 1 2q0 34 -3 86q-1 27 -3 44q-1 10 -2 16q-2 7 -3 9t-2 2zM140 445h-1q-11 -1 -51 -4q-50 -4 -64 -2q-1 0 -2 -0.5t-1 -1.5t0.5 -2t1.5 -1q13 -2 46 1q-1 -56 -4 -93t-6 -47v0l-8 2q-1 1 -1 0q-3 0 -3.5 -2t2.5 -3q28 -8 63 -8q1 0 2 1t1 2t-1 2t-2 1h-14q1 4 3 19
q0 6 2 28q3 32 6 60q3 32 3 41q28 2 36 1q2 0 3 0.5t1 1.5t-0.5 2t-2.5 1q-3 1 -9 1z" />
    <glyph glyph-name="minus" unicode="&#x2212;" horiz-adv-x="422" 
d="M401 165h-379v49h379v-49z" />
    <glyph glyph-name="blank" unicode="&#x2423;" horiz-adv-x="549" 
d="M77 176v-99q0 -17 5 -28t14 -15t14.5 -5t14.5 -1h293q58 0 58 53v95h27v-176h-453v176h27z" />
    <glyph glyph-name="dottedcircle" unicode="&#x25cc;" horiz-adv-x="453" 
d="M57 326q5 0 9 -4.5t4 -9.5q0 -6 -4 -10t-9 -4t-9 4t-4 10q0 5 4 9.5t9 4.5zM130 390q14 0 14 -14q0 -4 -4.5 -8t-10 -4t-9.5 4t-4 8q0 6 4 10t10 4zM123 57q5 0 9 -4t4 -9q0 -6 -4 -10t-9 -4q-6 0 -10 4t-4 10q0 5 4.5 9t9.5 4zM52 122q12 0 12 -13.5t-12 -13.5
q-6 0 -10 4.5t-4 9.5t4 9t10 4zM322 64q6 0 9.5 -4t3.5 -10q0 -4 -4 -8t-9.5 -4t-9 4t-3.5 8q0 6 3.5 10t9.5 4zM381 130q13 0 13 -12q0 -14 -13 -14t-13 14q0 12 13 12zM381 321q13 0 13 -13t-13 -13t-13 13t13 13zM313 386q6 0 10.5 -4.5t4.5 -10.5q0 -5 -4.5 -9t-10.5 -4
q-5 0 -9 4t-4 9t4 10t9 5zM406 224q6 0 10.5 -4t4.5 -9t-4.5 -9t-10.5 -4q-5 0 -9 4t-4 9t4 9t9 4zM26 229q12 0 12 -14q0 -5 -3.5 -9t-8.5 -4q-14 0 -14 13q0 14 14 14zM230 30q6 0 9.5 -4t3.5 -10t-3.5 -9.5t-9.5 -3.5t-9.5 4t-3.5 9.5t3.5 9.5t9.5 4zM229 416q5 0 9 -4.5
t4 -9.5q0 -13 -13 -13q-5 0 -9.5 4t-4.5 9t4.5 9.5t9.5 4.5z" />
    <glyph glyph-name="dotlessj" unicode="&#xf6be;" horiz-adv-x="240" 
d="M138 404q-15 0 -15 -22q0 -21 1 -71.5t0 -78.5q-9 -181 -40 -293q-16 -54 -38 -94q-22 -38 -59 -61q-13 -7 -27 -11q-13 -4 -28 -1q-14 3 -23 15q-32 46 -5 130v1q0 2 1 6q2 6 2 10v14l-9 -11q-14 -17 -24 -67v0q-5 -36 4 -69t39 -48v-1q48 -18 107 27q41 34 64 83
q22 48 40 116q28 117 35 266v0q0 9 1 67q2 58 -2 69q-2 10 -8 17q-8 7 -16 7z" />
    <glyph glyph-name="uni0E10.descless" unicode="&#xf700;" horiz-adv-x="293" 
d="M309 393q-2 -3 -5 -9t-5 -9t-5.5 -8t-6.5 -8t-7 -6q-33 -25 -90 1q-28 13 -43 19q-16 6 -41 11q-27 6 -48 4q-18 -1 -32 -10q-15 -10 -14 -28v-1q1 -7 4.5 -13t7 -9.5t10 -8t10.5 -6.5l21 -11q13 -6 44 -20.5t48 -23t41.5 -22.5t43.5 -28v0q9 -6 10 -17q1 -12 -5 -20
q-10 -15 -21.5 -28t-33.5 -33l-16 -16q1 17 1 32q9 5 6 18v1l-9 18q-10 53 -35 82q-15 16 -30 2q-15 -12 -8 -29q10 -40 38 -75q5 -44 -8 -97q-15 -22 -13 -42q1 -15 12 -18q10 -2 19 5q8 6 9 17l8 25q5 8 13 17q9 8 20 19t17 16l14 15q13 13 17 18l12 15q9 10 14 20
q6 10 10 20v0q5 17 -2 35q-7 17 -22 27q-27 19 -56.5 34.5t-77.5 38.5q-48 21 -59 27v1h-1q-11 3 -19 11q-4 4 1 10q35 10 89 -11q59 -28 94 -29q26 -1 50 13q23 14 33 38q6 15 5 24l-2 13z" />
    <glyph glyph-name="uni0E34.left" unicode="&#xf701;" horiz-adv-x="4" 
d="M-401 746q-12 0 -21 -8q-10 -8 -9 -20q0 -10 5 -17t16 -16q9 -9 12 -10q49 -40 143 -109q94 -68 124 -91l14 -11q10 -7 18 -11q8 -5 18 -5q15 -3 22 8q8 12 -7 22q-10 9 -31 24q-21 14 -26 16q-189 131 -253 180q-11 8 -18 15q15 -1 39 -10q62 -26 139 -96
q58 -54 119 -98v0q14 -8 18 -7q5 2 4.5 5t-3.5 7l-4 3q-9 10 -33.5 34.5t-37.5 38.5v1h-1q-70 64 -105 90q-81 58 -135 64q-4 1 -7 1z" />
    <glyph glyph-name="uni0E35.left" unicode="&#xf702;" horiz-adv-x="0" 
d="M-391 718q29 0 55 -16q9 -7 18 -16q10 -9 16 -15q6 -5 17 -18q11 -12 14.5 -16t16.5 -20q13 -15 15 -17q1 -1 2 -3q-86 60 -140 103q-3 3 -11 9q-7 5 -9 8q2 0 6 1zM-393 749q-33 0 -38 -24v0q-1 -10 4 -20q5 -9 8 -13q4 -3 14 -11q24 -21 54 -43.5t51 -38t57.5 -42
t52.5 -38.5q10 -7 48 -36q1 -1 2 -3q2 -2 3 -4h1l7 -6q6 -8 16 -8q9 -7 18 -11q17 -9 31 2q16 10 -2 26q-9 7 -21 16q11 21 30 65q20 48 32 73q8 19 -13 26q-20 7 -28 -10q-5 -12 -13 -37q-9 -24 -13 -36q-5 -11 -9 -23q-8 -17 -13 -29h-1q-1 -3 -4 -8q-5 4 -9 7l-32 22
q-5 6 -10 14q-7 10 -10 15v0q-7 8 -27.5 33t-30.5 37t-27 31t-32 33q-33 35 -83 41h-1h-12z" />
    <glyph glyph-name="uni0E36.left" unicode="&#xf703;" horiz-adv-x="0" 
d="M-72 612q11 0 17 -6q15 -17 5 -37q-16 -30 -56 -38q-11 -2 -21 1v6q1 6 2 10v1q1 4 9 30q8 20 26 28q9 5 18 5zM-386 707q13 -5 33 -14q21 -14 46 -36t36 -33q3 -4 7 -8q-67 47 -114 84h-1zM-405 743h-6h-1q-14 -3 -18 -18q-3 -14 5 -24q9 -10 19 -19.5t27.5 -23
t21.5 -16.5q38 -30 115.5 -85.5t113.5 -83.5h1q3 -2 12 -10q10 -8 18.5 -12t18.5 -3q16 -3 20 11q4 13 -9 21q-10 8 -24 18q8 2 15 5q47 21 59 63q10 39 -18 64v0q-27 23 -67 6v-1q-31 -15 -44 -50v-1q-5 -19 -1 -43q-8 5 -19 14v1q-5 4 -56 58q-2 2 -11 11.5t-11.5 12
l-11.5 11.5q-9 10 -12 13q-4 3 -12 10.5t-12.5 11.5t-12 10l-12.5 10q-6 5 -13 9.5t-15 8.5v0q-41 21 -60 21z" />
    <glyph glyph-name="uni0E37.left" unicode="&#xf704;" horiz-adv-x="0" 
d="M-43 641q-5 0 -8 -3q-5 -10 -24 -49q-9 -15 -20 -44q-11 -26 -14 -35q-1 2 -3 3l-2 1q7 16 24 59q2 5 10 27t9 35q3 15 -10 25v0q-15 9 -23 -7h-1q-8 -22 -17 -62l-12 -48v-1q0 -1 -1 -4q-1 -2 -4 -7l-3 2q-15 22 -42 59q-28 39 -37 53v0q-68 89 -154 107q-13 3 -23 3
q-23 0 -32 -15l-1 -1q-5 -15 0 -29q6 -13 18 -22q21 -18 46.5 -38t43.5 -33t50 -36.5t45 -33.5v0q16 -11 57 -42q42 -32 66 -48v0q19 -11 36 -7q13 3 10 17v1h-1q-4 9 -12 16q-8 6 -20 14q-2 1 -4 3v0q8 9 20 28t19 28q10 12 32 47l1 2q1 1 3 2q6 6 6 12v2l-1 1q-4 6 -13 12
v0q-10 6 -14 6zM-397 721q5 1 19 -2q73 -16 132 -93q10 -13 28 -37l3 -5q-100 69 -161 117q-3 3 -9.5 8t-10.5 9l-3 3h1h1z" />
    <glyph glyph-name="uni0E48.low_left" unicode="&#xf705;" horiz-adv-x="0" 
d="M-82 704q-12 0 -15 -11v0q-4 -18 -26 -118q-5 -22 -13.5 -71t-12.5 -71v-1v-1q2 -9 7 -9q3 0 8 6v1h1q7 22 19 66q13 44 21 67q7 21 13 45q7 25 11.5 40.5t5.5 17.5q9 19 5 25v1v1q-3 2 -8 6q-7 6 -14 6h-2z" />
    <glyph glyph-name="uni0E49.low_left" unicode="&#xf706;" horiz-adv-x="0" 
d="M-216 672h-7h-1q-14 -2 -21.5 -15t-1.5 -25l6 -10t5.5 -8t8 -8.5t7.5 -6.5q2 -2 8.5 -7.5t6.5 -6.5h1h1q1 -1 7 -6l8 -6l-2 -6v-1q-8 -31 -29 -46q-11 -2 -27 -5q-3 0 -8 -1q-6 -1 -10 -2q-5 -1 -9 -4q-6 -2 -8 -8q-2 -4 -1 -11v-1l1 -1q13 -14 53 -9v0q17 5 32 16
q95 21 154 42q89 35 127 75l1 2q1 2 2 3q8 10 0 13l-1 1h-1q-5 0 -12 -6q-25 -25 -63 -42q-70 -32 -178 -53q10 16 15 35q9 3 13 11q5 10 -6 19q-1 2 -3 3q-1 23 -13 40q-23 35 -55 35zM88 616v0v0z" />
    <glyph glyph-name="uni0E4A.low_left" unicode="&#xf707;" horiz-adv-x="0" 
d="M76 673q-14 0 -47 -17q-23 -12 -43 -26t-45 -37q-25 -22 -34.5 -30.5t-41.5 -41t-35 -35.5v-1l-3 -3q1 5 3 11q4 17 6 24v0q1 6 4 21q4 16 5.5 23.5t2.5 20.5q2 13 1.5 24.5t-2.5 21.5v0q-11 41 -39 34h-1q-7 -3 -13 -10q-6 -6 -9 -10.5t-8 -14.5q-4 -8 -6 -11t-8 -14
q-5 -10 -10 -15q-2 -3 -6 -5q-12 15 -28 57q-8 19 -27 13q-17 -5 -20 -23q-8 -33 -1 -103q8 -58 28 -81q12 -15 30 -9q15 6 8 22h-1q-17 34 -21 53q-8 36 -9 66q1 -3 3 -4q21 -37 49 -27q10 4 18 12q7 8 10 13q3 6 10 18q6 11 8 13l1 2v1q1 4 7 13l2 3q5 -12 4 -21
q-1 -19 -3.5 -38t-8.5 -49q-7 -28 -9 -38q-9 -16 5 -29t29 4q16 14 44 45t38 40q27 29 46.5 47t49 39.5t56.5 33.5l7 4q6 3 9 5l8 9h-13z" />
    <glyph glyph-name="uni0E4B.low_left" unicode="&#xf708;" horiz-adv-x="0" 
d="M-106 628q-8 0 -13 -6l-1 -1v-1q-3 -13 -14 -66v0l-2 -10q-17 -3 -52 -10h-1v-1q-3 -1 -6 0q-6 1 -12 -1q-7 -2 -9 -10v0q-4 -27 11 -31h1h1q9 2 61 15q-5 -31 -8 -58q-7 -2 -6.5 -6.5t3.5 -9.5q1 -1 2 -3q1 -8 3 -12q6 -8 16 -1l1 1v1q3 5 2 11q4 27 16 68l6 18
q59 14 91 15h1h1q6 3 6.5 8t-5.5 8v1h-1q-28 4 -84 0q2 8 5 19q5 17 7 24v1q0 2 3 6q3 8 3 11q0 4 -5 10v1h-1q-11 9 -20 9z" />
    <glyph glyph-name="uni0E4C.low_left" unicode="&#xf709;" horiz-adv-x="0" 
d="M102 832q-10 0 -18 -7h-1v-1q-10 -12 -10 -33q-1 -19 2 -34l1 -3q3 -12 7 -13t6 1.5t2 5v4.5v0q1 7 0 14q0 2 -1 13v16q1 5 4 11q2 4 6 6q18 -4 42 -35q14 -21 13 -46t-15 -46q-37 -54 -138 -99q-18 -8 -39 -15t-46.5 -15t-39.5 -12h-1l-9 -4q-1 0 -2 1q-9 4 -20 -2
q-10 -5 -14 -13q-3 -8 2 -15q-3 -6 -3 -12v-1q3 -31 44 -54q13 -9 32 -7q20 2 23 21v1q0 31 -21 56q2 1 5 2q88 26 158 69q84 53 104 113q9 30 -1 61t-34 52q-22 19 -38 20v0z" />
    <glyph glyph-name="uni0E48.low" unicode="&#xf70a;" horiz-adv-x="0" 
d="M6 704q-12 0 -15 -11v0q-4 -18 -26 -118q-5 -22 -13.5 -71t-12.5 -71v-1v-1q2 -9 7 -9q3 0 8 6v1h1q7 22 19 66q13 44 21 67q7 21 13 45q7 25 11.5 40.5t5.5 17.5q9 19 5 25v1v1q-3 2 -8 6q-7 6 -14 6h-2z" />
    <glyph glyph-name="uni0E49.low" unicode="&#xf70b;" horiz-adv-x="0" 
d="M-98 673h-7h-1q-14 -2 -21.5 -15t-1.5 -25l6 -10t5.5 -8t8 -8.5t7.5 -6.5q2 -2 8.5 -7.5t6.5 -6.5h1h1q1 -1 7 -6l8 -6l-2 -6v-1q-8 -31 -29 -46q-11 -2 -27 -5q-3 0 -8 -1q-6 -1 -10 -2q-5 -1 -9 -4q-6 -2 -8 -8q-2 -4 -1 -11v-1l1 -1q13 -14 53 -9v0q17 5 32 16
q95 21 154 42q89 35 127 75l1 2q1 2 2 3q8 10 0 13l-1 1h-1q-5 0 -12 -6q-25 -25 -63 -42q-70 -32 -178 -53q10 16 15 35q9 3 13 11q5 10 -6 19q-1 2 -3 3q-1 23 -13 40q-23 35 -55 35zM206 617v0v0z" />
    <glyph glyph-name="uni0E4A.low" unicode="&#xf70c;" horiz-adv-x="0" 
d="M199 673q-14 0 -47 -17q-23 -12 -43 -26t-45 -37q-25 -22 -34.5 -30.5t-41.5 -41t-35 -35.5v-1l-3 -3q1 5 3 11q4 17 6 24v0q1 6 4 21q4 16 5.5 23.5t2.5 20.5q2 13 1.5 24.5t-2.5 21.5v0q-11 41 -39 34h-1q-7 -3 -13 -10q-6 -6 -9 -10.5t-8 -14.5q-4 -8 -6 -11t-8 -14
q-5 -10 -10 -15q-2 -3 -6 -5q-12 15 -28 57q-8 19 -27 13q-17 -5 -20 -23q-8 -33 -1 -103q8 -58 28 -81q12 -15 30 -9q15 6 8 22h-1q-17 34 -21 53q-8 36 -9 66q1 -3 3 -4q21 -37 49 -27q10 4 18 12q7 8 10 13q3 6 10 18q6 11 8 13l1 2v1q1 4 7 13l2 3q5 -12 4 -21
q-1 -19 -3.5 -38t-8.5 -49q-7 -28 -9 -38q-9 -16 5 -29t29 4q16 14 44 45t38 40q27 29 46.5 47t49 39.5t56.5 33.5l7 4q6 3 9 5l8 9h-13z" />
    <glyph glyph-name="uni0E4B.low" unicode="&#xf70d;" horiz-adv-x="0" 
d="M6 672q-8 0 -13 -6l-1 -1v-1q-3 -13 -14 -66v0l-2 -10q-17 -3 -52 -10h-1v-1q-3 -1 -6 0q-6 1 -12 -1q-7 -2 -9 -10v0q-4 -27 11 -31h1h1q9 2 61 15q-5 -31 -8 -58q-7 -2 -6.5 -6.5t3.5 -9.5q1 -1 2 -3q1 -8 3 -12q6 -8 16 -1l1 1v1q3 5 2 11q4 27 16 68l6 18
q59 14 91 15h1h1q6 3 6.5 8t-5.5 8v1h-1q-28 4 -84 0q2 8 5 19q5 17 7 24v1q0 2 3 6q3 8 3 11q0 4 -5 10v1h-1q-11 9 -20 9z" />
    <glyph glyph-name="uni0E4C.low" unicode="&#xf70e;" horiz-adv-x="0" 
d="M141 832q-10 0 -18 -7h-1v-1q-10 -12 -10 -33q-1 -19 2 -34l1 -3q3 -12 7 -13t6 1.5t2 5v4.5v0q1 7 0 14q0 2 -1 13v16q1 5 4 11q2 4 6 6q18 -4 42 -35q14 -21 13 -46t-15 -46q-37 -54 -138 -99q-18 -8 -39 -15t-46.5 -15t-39.5 -12h-1l-9 -4q-1 0 -2 1q-9 4 -20 -2
q-10 -5 -14 -13q-3 -8 2 -15q-3 -6 -3 -12v-1q3 -31 44 -54q13 -9 32 -7q20 2 23 21v1q0 31 -21 56q2 1 5 2q88 26 158 69q84 53 104 113q9 30 -1 61t-34 52q-22 19 -38 20v0z" />
    <glyph glyph-name="uni0E0D.descless" unicode="&#xf70f;" horiz-adv-x="427" 
d="M139 403q-29 0 -55 -13q-17 -8 -27 -25q-11 -18 -2 -34v-1q3 -5 21 -19q15 -12 14 -23q-2 -18 -10 -38q-9 -20 -21 -44q-14 -25 -19 -38q-39 -79 -14 -148q4 -21 24 -27q22 -6 30 17q18 53 3 115q-1 10 -11 23q6 14 20 44q17 33 24 51v1v1q0 1 1 2q14 46 2 67q-2 5 -7 10
t-9.5 9t-8.5 7t-7 6q10 22 52 23v0q40 3 67 -37q41 -57 22 -158v-1q-2 -19 -14 -65q-13 -47 -14 -74q-1 -15 9 -27q10 -13 27 -11v0q29 7 72 6q2 0 11 1h11q5 0 12.5 1.5t12 4t9.5 6.5t8 10v1q3 12 5 36q2 23 3 28v1q1 9 6 51.5t7.5 59.5t8 49.5t12 57.5t16.5 50v1v1
q0 2 2 7q3 6 4 11q4 11 -5 11h-3l-1 -2q-28 -43 -52 -137q-13 -47 -25 -167q-1 -5 -2 -25q-1 -17 -6 -24q-12 -3 -30 -3h-34q-9 1 -26 -3q-13 -2 -21 -2q-1 4 -1 9q0 7 1 11q1 5 3 14t2 12q30 110 30 168q-1 46 -20 88q-20 42 -59 63v1q-22 10 -48 10z" />
    <glyph glyph-name="uni0E31.left" unicode="&#xf710;" horiz-adv-x="0" 
d="M-184 511q12 -1 19 -12q-10 2 -18 7q-5 3 -4 5h3zM161 670q-5 0 -11 -5q-5 -4 -11 -10l-7 -7q-110 -90 -205 -129q-32 -12 -49 -17q-7 23 -28 37q-23 15 -49 9q-17 -5 -25 -22t2 -33q11 -16 30 -24q18 -8 38 -7q5 0 11 1q12 -5 19 4q38 8 96 40q102 58 192 146v1l1 1
q2 5 2 7l1 1v1q0 6 -7 6z" />
    <glyph glyph-name="uni0E4D.left" unicode="&#xf711;" horiz-adv-x="0" 
d="M-152 629q4 0 8 -1q35 -12 52 -55q10 -23 -1 -46q-15 -35 -43 -38q-38 -2 -59 25q-3 4 -5 10q5 1 8 5q6 6 6 14q0 4 -2 20q-1 15 0 22v1q0 4 1 8q8 9 18 17q2 1 5 4q7 5 2 12q4 2 10 2zM-156 666l-10 -2v0q-33 -9 -54 -48h-1q-8 -20 -8 -43q-9 -22 -1 -52q9 -38 50 -54
q49 -21 83 5q20 16 32 39q12 24 10 49q-6 53 -50 87q-25 19 -50 19h-1z" />
    <glyph glyph-name="uni0E47.left" unicode="&#xf712;" horiz-adv-x="0" 
d="M534 830q-5 0 -11 -2v-1h-1q-10 -6 -19 -15t-17 -22l-12 -20q-4 -8 -12 -24.5t-10 -21.5v0q-7 -22 -7 -27v-21l9 19q2 4 26 49q24 43 43 61q5 3 9 3q5 1 8.5 -2.5t5.5 -15.5q3 -19 1 -33q-1 -9 -5 -16v-1q-34 -119 -184 -193q-124 -59 -219 -48q-24 6 -50 17
q-27 11 -44 21t-47.5 28t-45.5 26v0q-6 3 -23 14q-19 11 -32 17q-14 6 -29 6h-1h-1q-6 -2 -13 -6q-5 -4 -10 -6q-6 -3 -12 -10q-5 -6 -8 -8q-3 -4 -8 -12l-7 -10q-2 -3 -7 -13l-5 -11q-2 -2 -6 -12q-3 -7 -5 -10l-1 -1v-1q-1 -4 -5 -13q-5 -10 -10 -18q-5 -9 -8 -17
q-4 -11 2 -18q5 -7 19 -8h1l1 1l26 13t29 14q10 4 26 8q15 3 27 1q16 -9 33 -37q18 -30 21 -34l1 -1l1 -1q7 -3 13 -3q20 -2 22 25q1 30 -16 48q-4 6 -7 9q-9 10 -17 3q-16 19 -35 28h-1q-36 10 -87 -12q3 7 4 10q25 55 49 66q17 -6 34 -15q18 -9 40 -23q22 -13 33 -19
q8 -5 32.5 -18t37 -19.5t32.5 -14.5q20 -9 38.5 -13t37.5 -5v0q134 2 267 91q126 87 141 199q4 24 -2 48q-7 26 -30 27v0z" />
    <glyph glyph-name="uni0E48.left" unicode="&#xf713;" horiz-adv-x="0" 
d="M-31 870q-10 0 -12 -8q-3 -12 -20 -81v0q-3 -16 -9 -50t-9 -49v-2l1 -1q2 -5 3 -6q4 -4 11 2l1 1l1 1q6 14 15 46q10 30 17 45q6 14 11.5 31t8.5 27t4 13q8 13 4 19v0q-8 10 -21 12h-1h-5z" />
    <glyph glyph-name="uni0E49.left" unicode="&#xf714;" horiz-adv-x="0" 
d="M-38 846q-5 0 -11 -2q-12 -5 -17 -17t2 -23v-1q10 -15 37 -38q3 -2 7 -5q1 0 3 -1q-8 -29 -26 -41q-13 -2 -29 -5q-12 -1 -19 -9q-9 -10 1 -21h1h1q19 -10 46 -3h1q11 4 22 12q77 17 125 35q75 30 107 64l2 2l1 3q7 8 -1 11q-5 3 -11 -3q-24 -22 -58 -37
q-55 -24 -137 -40q5 12 9 25q9 4 11 12q3 11 -7 19q-1 21 -15 37q-20 26 -45 26z" />
    <glyph glyph-name="uni0E4A.left" unicode="&#xf715;" horiz-adv-x="0" 
d="M185 851q-5 0 -9 -1h-1q-41 -16 -94 -63q-14 -13 -40 -38l-22 -23q4 14 5 23q1 3 3 10q2 9 2.5 12t1.5 11t1 12v11q0 7 -2 12q-1 6 -3 11q-4 10 -14 16t-19 0q-7 -3 -12 -8q-4 -5 -10 -16q-4 -9 -6 -11h-1v-2q-1 -3 -7 -11l-2 -4q-8 11 -16 33q-3 11 -14 15t-20 -4l-1 -1
q-12 -13 -13 -54v0q2 -45 9 -69q10 -29 25 -34q13 -5 21 4t4 21h-1q-11 22 -14 39q-2 10 -3 19q6 -5 14 -8q12 -3 23 4q9 5 15 15q6 8 13 21l2 5v-1q0 -14 -2.5 -30t-6.5 -35q-5 -20 -7 -31q-3 -14 11 -20q13 -5 22 6q12 11 31.5 33t25.5 28l1 1q62 66 107 85v1q2 1 5 3
q6 2 7 6t-1 5.5t-5 1.5h-3z" />
    <glyph glyph-name="uni0E4B.left" unicode="&#xf716;" horiz-adv-x="0" 
d="M-52 861q-9 -2 -12 -9q-2 -6 -3 -14q-1 -7 -2 -10q-2 -7 -8 -42q-11 -2 -49 -8q-11 2 -18 -4t-5 -17q-1 -14 11 -17q9 -2 19 3q7 1 21 5q8 2 15 4q-3 -19 -8 -65q-1 -11 8 -15v-1q5 -2 8.5 1.5t4.5 8.5v1q0 4 6 35q4 16 13 43q51 13 79 13h2l1 1q7 6 3 10.5t-11 5.5
q-3 1 -8 1q-18 2 -58 -1q2 6 4 15q4 15 7 25q8 9 2 19q-5 9 -16 11l-2 1h-3h-1z" />
    <glyph glyph-name="uni0E4C.left" unicode="&#xf717;" horiz-adv-x="0" 
d="M208 907q-5 2 -6.5 -1t-1.5 -7l1 -4v0q6 -24 -10 -46q-28 -39 -96 -73q-11 -5 -32.5 -13t-31.5 -15q-19 -10 -32 -26q-17 1 -22 -11q-4 -10 2 -19q-4 -12 -5 -25q-1 -16 7 -31t22 -22q13 -8 26 0q12 7 17 19q2 6 2 13q0 6 -1 10q0 4 -3 12q-3 7 -4.5 9t-5.5 10q-3 5 -4 8
v1l-1 2q-1 1 -4 3q13 15 31 25q90 38 136 91q38 42 26 80l-1 1v1q-6 7 -9 8z" />
    <glyph glyph-name="uni0E38.low" unicode="&#xf718;" horiz-adv-x="0" 
d="M-147 -181q-10 -1 -16 -9v0q-9 -13 1 -40q6 -17 23 -44l1 -3q-5 -36 -22 -91v0q-2 -9 -5 -25t-4 -18v-2v-1v-1q-1 -10 7 -10q2 0 3.5 1t3 3t2.5 2v1q10 17 20 36v1q8 27 13 44q9 33 12 52q6 4 9 9q5 8 0 16v1q-2 3 -5 6q1 9 1 17q-1 37 -23 49q-10 6 -20 6h-1z" />
    <glyph glyph-name="uni0E39.low" unicode="&#xf719;" horiz-adv-x="0" 
d="M-162 -387h10v-10h-10v10zM-99 -260l1 2q21 43 31 60l1 1l1 3q6 12 -4 12q-5 0 -10 -6q-13 -12 -26 -29q-1 4 -2 6q-5 12 -17 20q-12 7 -25 4q-9 -1 -14 -10q-4 -8 -3 -17v0q3 -12 18 -29q6 -7 12 -11v-11q-19 -36 -30 -62q-15 -44 -11 -67q1 -10 8 -18q8 -9 19 -6
q14 4 27 31v0q16 45 22 104q1 12 1 20z" />
    <glyph glyph-name="uni0E3A.low" unicode="&#xf71a;" horiz-adv-x="4" 
d="M-148 -206q-10 1 -18 -6q-16 -14 -14 -34q1 -15 8 -23q8 -12 21 -8q6 -3 10 -2v1q5 2 10 6q12 13 15 20q6 14 -1 26q-7 14 -23 19q-3 1 -8 1z" />
    <glyph glyph-name="uniF71B" unicode="&#xf71b;" horiz-adv-x="274" 
d="M16 406v-390h242v390h-242zM274 0h-274v423h274v-423z" />
    </font>
</defs>
</svg>
