<?xml version="1.0" standalone="no"?>
<!DOCTYPE svg PUBLIC "-//W3C//DTD SVG 1.1//EN" "http://www.w3.org/Graphics/SVG/1.1/DTD/svg11.dtd" >
<svg xmlns="http://www.w3.org/2000/svg" xmlns:xlink="http://www.w3.org/1999/xlink" version="1.1">
<metadata>
Created by FontForge 20170805 at Sun Apr  9 13:43:42 2017
 By Manatsawin
Copyright (C) April 2017, Worawut Thanawatanawanich. All rights reserved.
</metadata>
<defs>
<font id="SOV_wayo" horiz-adv-x="320" >
  <font-face 
    font-family="SOV_wayo"
    font-weight="400"
    font-stretch="normal"
    units-per-em="1000"
    panose-1="2 7 5 6 6 0 0 2 0 4"
    ascent="800"
    descent="-200"
    x-height="381"
    cap-height="586"
    bbox="-428.5 -443.327 1286 1035.23"
    underline-thickness="30"
    underline-position="-50"
    unicode-range="U+0020-FB04"
  />
<missing-glyph horiz-adv-x="274" 
d="M16 406v-390h242v390h-242zM274 0h-274v423h274v-423z" />
    <glyph glyph-name="nine_in_heart" unicode="&#xe2f;&#xe23;&#xe2f;" horiz-adv-x="453" 
d="M619 461q-33 1 -75 -20q-32 -16 -92.5 -66t-100.5 -66q-24 -12 -59 0q-14 8 -33 3.5t-16 -24.5q4 -25 10 -53q-37 46 -78 56q-19 6 -37 -4.5t-23 -29.5q-15 -55 11 -128q27 -63 70 -66q22 1 30 23t1 43q-19 63 -61 65q-7 -3 -7.5 -7.5t3 -10t8.5 -10.5t10 -11t6 -10
q9 -11 12.5 -30t-7.5 -22q-37 19 -51 87q-5 18 -4.5 42t10.5 40q21 16 60 -14q38 -32 65 -82q6 -21 14 -47q0 -16 15 -25q14 -8 16 13q-4 30 -28 74q-2 7 -14 54q-3 10 -6.5 31.5t-5.5 26.5q11 0 34 -5.5t35 -4.5q15 3 30 9.5t25.5 12t27.5 17.5t23 16.5t25 20t23 18.5
q2 2 7 6q27 23 43 35t43 24t53 12q3 1 10.5 0.5t11.5 0.5q-16 6 -34 6zM308 412h-1q-18 -2 -34 -13t-25 -22t-22 -29q-3 -9 -7.5 -12t-11 -0.5t-10.5 5t-11 9t-9 8.5q-18 16 -37.5 21.5t-41.5 -4.5q-33 -22 -57 -83q-31 -91 39 -197q69 -101 164 -142q26 -14 60 23
q63 70 112 205q0 1 2 6q3 12 1 12q-7 -12 -23.5 -44.5t-26.5 -49.5q-6 -9 -21 -33.5t-26 -41.5t-24 -32q-1 -1 -6.5 -7t-8 -8.5t-8 -6.5t-9.5 -5.5t-9 -1t-10 3.5q-97 45 -158 148q-16 28 -25 56t-9 60t13 59q1 1 4 7.5t4 8.5t4 7.5t5 8t5 7t6 6.5t6.5 5.5t7 5.5t8.5 4
q10 1 19 -2.5t23.5 -16l14.5 -12.5q13 -13 28 -17.5t31 6.5q5 5 23 28.5t32 32.5q14 8 27 4.5t24 -14.5q10 -13 28 -16q11 -2 11 8q0 3 -2 7q-9 20 -28 34t-41 14z" />
    <glyph glyph-name="uvSOV" unicode="&#xe2f;&#xe23;&#xe2d;&#xe07;&#xe2f;" horiz-adv-x="1310" 
d="M743 543q0 1 6 -3q8 -7 29 -3q20 5 30 -4q5 -6 8 -6t11 6q8 5 12.5 4.5t12.5 -8.5q6 -6 8 -7t6 0q5 0 5 -1q-3 -2 -9.5 -2t-14 8t-11.5 6.5t-9 -6.5t-10.5 -5.5t-12 5t-9.5 2.5q-5 -5 -19 -61q-7 -28 -2 -34q3 -4 9.5 -3t9.5 -1.5t1 -3.5q0 -1 -2 1q-3 2 -7 -1
q-8 -4 -16 5t-28 44q-26 44 -34 48q-4 1 -6.5 4.5t-7.5 5.5l2 1q7 -1 10.5 -3t17.5 -1l13 1l6 -7q5 -6 7 -5.5t2 -1t-2.5 -1.5t-5.5 2l-5 2q-4 4 -7 3q-3 -2 -1.5 -6t14.5 -25q14 -23 15 -21q1 3 6 28.5t5 27.5q-1 2 -9 3t-13 6.5t-5 6.5zM614 568q2 7 3 7q1 -1 1 -6
q0 -10 9 -3q5 3 12 2t10 -6q6 -9 -1 -34q-5 -16 -5 -21t5 -9q4 -5 14 -4t17 1h8v6q-1 7 -13 29q-6 11 -4.5 21.5t9.5 15.5q6 3 14.5 1t11.5 -7q1 -3 0 -11v-8l4 -2q8 -2 -2 -3q-3 -1 -7 -1q-8 0 -10 4q-6 9 2 12q3 2 2.5 3.5t-4.5 2t-6 -3.5q-6 -8 8 -25q14 -16 14 -30
q0 -9 -5.5 -15t-5.5 -11q0 -4 1 -5t6 -2l6 -2h-7q-9 0 -13 10l-3 5h-22q-19 1 -24.5 3t-10.5 10q-6 9 1 37q7 25 3 25q-2 0 -6 -2t-8 -1q-8 4 -4 17zM682 585q40 9 47 -4q3 -6 -2 -2q-9 6 -34 -1q-22 -6 -33 -2q-4 2 -8.5 5t-8.5 3l-2 2q2 3 17 -1q9 -2 24 0zM579 -63
q15 -3 39 -3q21 -1 40 1q1 -1 64 14q31 7 52 17q13 7 30.5 22t29.5 29q36 44 50.5 92.5t6.5 93.5q-17 98 -92 147q-59 39 -141 55q-16 3 -45 3t-40 -3l-11 -3l9 10q29 35 29 68q0 24 -12.5 44.5t-30.5 27.5q-11 4 -51 3q-21 0 -28 1q-38 11 -36 53q1 13 5 22q10 21 45 43
q21 14 28 21.5t7 18.5t-6.5 20t-26.5 26q-31 27 -31 46q0 12 15 28t17 38q2 23 -4 35l1 -7q3 -22 -3 -38t-27 -29q-19 -13 -21.5 -26.5t10.5 -35.5q15 -25 16 -39q1 -9 -3 -17q-5 -12 -22 -26q-37 -29 -48 -70q-4 -14 -4 -36t4 -34q10 -32 31 -44.5t64 -10.5l24 1l8 -6
q14 -11 14 -28q0 -22 -41 -61q-58 -54 -74 -95q-20 -50 3 -80q2 -3 5 -5q16 -18 17 -13q1 2 5 18q27 101 123 113q37 4 74 -1q72 -9 118 -56q53 -55 53 -119q0 -34 -8 -57t-27 -47q-11 -13 -31 -27.5t-38 -21.5q-30 -13 -52 -18q-18 -4 -55 -2t-59 7q-67 17 -66 88
q0 34 19 54q14 13 40 20q42 10 53 -24q6 -15 0 -20q-4 -2 -7 1q-11 10 -25.5 6.5t-20.5 -17.5q-4 -10 -3.5 -24.5t6.5 -24.5q9 -17 23 -24q20 -11 52 -9.5t59 13.5l9 4h-16q-43 1 -53 11q-4 4 -4 13q2 17 15 36q16 24 2 57q-8 20 -19.5 30.5t-31.5 15.5q-11 3 -36 3t-35 -3
q-30 -8 -54 -32t-31 -52q-6 -24 -4 -51q3 -28 16 -52.5t32 -37.5q17 -13 51 -25t60 -15zM22 221l7 -6q7 -6 22.5 -13.5t26 -10.5t59 -3t53.5 -2.5t7.5 -6.5t-1.5 -16q-8 -24 -1 -44q3 -10 2 -10q-8 -3 -11 -12q-1 -5 0 -14q2 -11 9 -17t29 -14q33 -12 23 -41
q-5 -14 -24.5 -26.5t-36.5 -12.5q-9 0 -34 5q-46 9 -73 2q-11 -3 -12 -4l2 -1q18 4 37 4q20 0 52 -8q27 -8 52 -3q18 4 33 15q11 9 17 24t3 31q-2 10 -4 15q-6 12 -23 18q-9 4 -13.5 7t-3.5 5q3 5 18 0q12 -4 46.5 -4t52.5 4q25 5 42 18q34 25 31 84q-1 24 -16 40
q-13 14 -55 29q-63 23 -83 37q-23 15 -27 27q-8 20 12 35q25 18 57 18q30 0 52 -9q11 -4 20 -13t12 -19q3 -11 1.5 -24t-6.5 -13q-2 0 -8.5 4t-16.5 4.5t-11.5 2t0.5 9.5t-1 13q-4 9 -17 15h-2q12 -10 13.5 -14.5t-6.5 -16.5q-11 -16 -3 -31q4 -8 12 -11q24 -10 45 9
q10 10 12.5 17.5t2.5 25.5q0 28 -7.5 40t-32.5 23l-18 9q-21 13 -7 37q5 9 4 9q-1 1 -2.5 -1t-3 -5t-3.5 -6t-3.5 -6.5t-1.5 -4.5q-3 -16 6 -27l4 -4h-4q-3 0 -16 3q-27 6 -55 -3t-46 -30q-19 -23 -17 -55q1 -24 17.5 -37t83.5 -42q42 -19 55.5 -28t19.5 -20q5 -11 3 -25.5
t-9 -22.5q-8 -8 -30.5 -17t-38.5 -10q-21 -2 -42 7t-27 22q-4 11 0 28l2 8l5 -3q8 -5 19 0q12 5 12 20q0 12 -8 23t-19 14q-26 6 -94 -5q-60 -10 -87 -2q-26 7 -33 13zM1286 321h-7q-14 -3 -27 4q-11 6 -21 21q-12 20 -31 27q-22 9 -85 1q-58 -7 -73 -2q-6 3 -15 10t-17 7
t-14 -2t-11 -1q-11 3 -21 23l-4 10l1 -9q2 -18 14 -29t25 -8q7 1 9 0.5t6 -7.5q6 -13 26 -14q12 -1 14 -5q4 -7 -2 -24.5t-39 -93.5q-41 -96 -42 -96l-38 91l-42 102q-1 1 -0.5 1.5t2 0.5t4 0.5t6.5 0.5q20 1 25 11t16 4q25 -15 2 -45q-15 -18 -15 -41q0 -17 11 -26
q14 -13 17 -11l-4 4q-22 14 -18 36q4 17 18 36q13 18 13 30q0 17 -17 35q-11 11 -36 14q-12 2 -17 0.5t-13 -9.5q-8 -9 -11 -8t-8 10q-7 13 -13 16t-17 -1t-13.5 -2.5t-8.5 12.5q-9 18 -26 18l-7 -1l8 -1q15 -3 19 -21q2 -10 5 -13t22 0q7 1 11 -2q8 -5 56 -137
q41 -114 57 -146q24 -50 44 -60q15 -8 14 -23l1 -7q2 2 2.5 12t-1.5 13t-13 8t-13 8q-7 7 0 29q4 14 50.5 123t57.5 129q11 22 40 36q23 12 41 10q28 -5 47 -31q21 -30 44 -21z" />
    <glyph glyph-name=".notdef" horiz-adv-x="274" 
d="M16 406v-390h242v390h-242zM274 0h-274v423h274v-423z" />
    <glyph glyph-name=".null" horiz-adv-x="0" 
 />
    <glyph glyph-name="nonmarkingreturn" horiz-adv-x="249" 
 />
    <glyph glyph-name="space" unicode=" " horiz-adv-x="300" 
 />
    <glyph glyph-name="exclam" unicode="!" horiz-adv-x="215" 
d="M150 439q-9 0 -11 -10q-17 -93 -37 -213q-22 -151 -24 -235q2 -13 6 0q12 108 44 245q6 28 18.5 90t20.5 95q6 9 -1 19t-16 9zM91 -40q-16 0 -29 -12.5t-20 -29.5q-7 -15 1 -31t25 -14q13 1 26.5 10t18 13.5t19.5 20.5q2 7 -3 5q-3 -2 -11 -8q-3 -3 -4 -3q7 11 4.5 26.5
t-16.5 20.5q-6 2 -11 2zM91 -67q1 -3 -9.5 -19.5t0.5 -20.5q0 -1 1 -2q-14 -5 -23 3q-2 12 8 24.5t23 14.5z" />
    <glyph glyph-name="quotedbl" unicode="&#x22;" horiz-adv-x="215" 
d="M113 548q-9 -1 -10 -8q-3 -18 -14 -110q-3 -21 -6 -66.5t-5 -65.5q2 -5 3 -5t4 4q5 20 12.5 62t12.5 63q5 19 9.5 42t7 37.5t3.5 17.5q6 16 3 20q-7 8 -19 9h-1zM166 533q-8 0 -9 -6q-4 -16 -22 -103q-4 -20 -10 -63t-9 -62q1 -4 2 -4.5t4 3.5q6 18 16.5 57.5t17.5 59.5
q6 17 12 38.5t9.5 35t4.5 15.5q7 15 4 19q-6 9 -18 10h-2z" />
    <glyph glyph-name="numbersign" unicode="#" 
d="M126 333q-7 0 -10 -6q-3 -18 -8 -67q-15 -1 -29 -2q-3 -1 -18 0t-17 -4q-5 -7 -4 -17t10 -12q14 2 54 7q-2 -16 -4 -34q-12 -2 -28 -4q-4 -1 -18.5 -1t-16.5 -5q-4 -6 -3.5 -16t8.5 -12q23 3 56 10q-1 -12 -3.5 -46.5t-3.5 -52.5q2 -9 6 -1q5 20 11.5 56.5t8.5 47.5
q10 2 11 3q17 3 39 9q-2 -20 -4.5 -58t-4.5 -57q2 -9 7 -1q4 20 11 55.5t10 48.5q1 7 4 17q64 17 99 20q9 3 0 6q-32 2 -95 -6q4 17 7 33q18 3 34 6q-18 -9 -25 -12q-3 -3 -2.5 -5t5.5 -1q7 2 21 7t21 7q12 1 18 11q4 7 -6 10q-12 1 -34 -0.5t-28 -1.5q1 6 2 13q0 4 4 16
t1 19q-20 16 -29 2q-3 -18 -7 -51q-20 0 -41 -2q3 15 5 31q0 3 4 14.5t1 17.5q-10 8 -19 8zM174 241q-1 -4 -1 -5q-2 -13 -4 -28q-20 -3 -46 -6q4 16 7 33q1 0 1.5 0.5t1.5 0.5q20 2 41 5z" />
    <glyph glyph-name="dollar" unicode="$" 
d="M194 452.5q-9 -0.5 -11 -10.5q-4 -22 -8 -50q-42 0 -72 -28q-15 -12 -19 -32.5t5 -37.5q16 -33 60 -75q-11 -87 -15 -153q-32 4 -57 21q-16 10 -21 29t0 36q0 1 1 6q1 7 0 7q-15 -19 -13.5 -46t19.5 -44q23 -22 70 -28q-2 -28 -2 -52q0 -7 3 -8l2 4q2 9 7 55h5
q69 -2 100 29q13 15 13 33t-10 34q-5 8 -11.5 16t-11.5 14t-14 15.5t-12.5 13l-14.5 14.5t-14 13q15 75 19 99q4 21 6 31q6 -3 12 -8q3 -3 10.5 -13.5t14.5 -15t16 -3.5q14 18 -15 50q-13 14 -32 20q4 22 8 39q5 9 -2 17.5t-16 8zM170 364q-7 -45 -17 -116q-20 21 -32 40
q-24 34 -2 54q21 21 51 22zM168 201q7 -6 11 -10l13.5 -13.5l15 -15t12.5 -14t12 -17t8 -17.5q4 -14 -6 -25t-25 -16q-31 -10 -63 -8q1 9 2 17q6 48 20 119z" />
    <glyph glyph-name="percent" unicode="%" 
d="M256 390q-5 0 -9 -5q-17 -27 -61 -105q-58 -101 -132 -259q-1 -7 0.5 -7.5t5.5 4.5q71 123 83 143q7 12 41.5 66.5t51.5 84.5q6 10 19 29t15 22q6 7 0.5 17t-14.5 10zM116 320q-15 0 -28.5 -10.5t-21.5 -25.5q-7 -11 -4 -25.5t16 -19.5q17 -5 37 8l6 -2q8 1 11.5 6.5
t6.5 15.5t5 14q5 12 -1.5 24t-19.5 14q-3 1 -7 1zM114 295q4 -1 2.5 -7.5t-6.5 -12.5q-12 -9 -4 -20q-21 -10 -27 4q0 19 26 33q6 3 9 3zM223 173q-9 1 -16 -3q-18 -10 -30 -27t-12 -36q-1 -14 11.5 -24t26.5 -5q15 6 31 20q5 -1 9 2q3 6 5 11q4 4 9.5 10t8.5 9q1 4 0 5.5
t-5 -0.5q-1 -1 -3.5 -3t-3.5 -3q2 11 1 20q-2 11 -11 17.5t-21 6.5zM222 147q4 0 4.5 -4.5t-1.5 -9.5t-5 -9q-9 -9 2 -20q-31 -21 -37 0q1 23 29 40q5 2 8 3z" />
    <glyph glyph-name="ampersand" unicode="&#x26;" 
d="M134 348q-8 0 -16 -4q-18 -7 -29.5 -23t-10.5 -35q2 -27 19 -56q-28 -51 -40 -89q-16 -58 6 -90q9 -12 25 -14.5t29 3.5q39 16 88 67l5 -5q2 -1 7 -5t7 -5.5t7 -5t8.5 -4.5t8 -2t8.5 -1q14 -2 13 9.5t-11 16.5q-18 14 -33 26q32 40 62 94q2 6 4 9q3 7 0 5t-7 -8
q-42 -55 -73 -87v-1q-37 32 -63 62q-15 19 -22 30l10.5 17.5t11.5 18.5q21 41 13 62q-7 16 -27 15zM135 324q4 -2 5 -5t-0.5 -8t-2.5 -8.5t-3.5 -8.5l-3.5 -7q-4 -7 -17 -30q-7 14 -9 28t7.5 25t23.5 14zM111 209q6 -8 15 -19q29 -36 64 -69q-36 -40 -69 -57q-28 -14 -40 -3
q-16 20 -7 62q10 38 37 86z" />
    <glyph glyph-name="quotesingle" unicode="'" horiz-adv-x="215" 
d="M166 533q-8 0 -9 -6q-4 -16 -22 -103q-4 -20 -10 -63t-9 -62q1 -4 2 -4.5t4 3.5q6 18 16.5 57.5t17.5 59.5q6 17 12 38.5t9.5 35t4.5 15.5q7 15 4 19q-6 9 -18 10h-2z" />
    <glyph glyph-name="parenleft" unicode="(" 
d="M216 486q-3 -1 -7 -2q-24 -17 -51 -70q-52 -113 -48 -258q6 -160 81 -256q1 0 4 -2q4 -4 5 -4q3 -1 -1 6q-30 46 -41 78q-52 139 -10 318q25 101 62 145q14 7 16 28q2 17 -10 17z" />
    <glyph glyph-name="parenright" unicode=")" 
d="M143 482q-17 0 -13 -17q3 -4 10.5 -14.5t12.5 -18.5t8 -16q38 -91 27 -234q-17 -175 -91 -279q0 -1 -2 -4q-3 -7 -1 -7q1 1 5 4q31 33 61 100q48 115 55 250q4 132 -44 217q-2 8 -10.5 13.5t-17.5 5.5z" />
    <glyph glyph-name="asterisk" unicode="*" 
d="M166 307q-9 0 -9 -6q-2 -13 -7 -77q-9 7 -20 14t-17 11t-8 6q-10 10 -14 8q-9 -4 -14 -15q-5 -9 1 -12q10 -6 55 -31q-6 -5 -14.5 -10.5t-12.5 -8.5t-6 -4q-12 -4 -12 -8q1 -10 9 -19q6 -7 11 -4q8 6 39 31q0 -10 -1 -38.5t-1 -46.5q2 -4 2.5 -4t3.5 3q4 17 8.5 47.5
t7.5 42.5q12 -6 39.5 -19t42.5 -21q4 1 4.5 1.5t-0.5 4.5q-14 10 -39.5 27t-37.5 26q10 9 30.5 28.5t32.5 29.5q1 4 0.5 4.5t-4.5 0.5q-12 -7 -32.5 -20.5t-26.5 -17.5q2 11 4 24t3 20t2 9q5 14 2 17q-8 7 -20 7h-1z" />
    <glyph glyph-name="plus" unicode="+" 
d="M168 321q-11 -1 -11 -8q-2 -16 -7 -91q-13 1 -25 0q-15 0 -31 -1q-35 -2 -36 -2h-11q-8 0 -10 -3q-1 -2 -3 -8q-1 -7 0 -12q2 -10 10 -9q3 0 17.5 2t26.5 3l32 4q15 2 28 3q-1 -20 -2 -63.5t-1 -64.5q2 -4 2.5 -4t3.5 4q4 20 9.5 62t9.5 63l1 5h1.5h1.5q7 1 25.5 2.5
t28.5 2.5q32 3 61 5q4 2 4 3t-4 4q-24 1 -58 2q-2 0 -23.5 0.5t-32.5 0.5q2 15 4 32t3.5 27t2.5 13q5 16 2 20q-8 8 -19 8z" />
    <glyph glyph-name="comma" unicode="," horiz-adv-x="215" 
d="M105 59q-8 0 -15 -5q-15 -16 -13 -40q1 -11 9.5 -20t19.5 -11q5 -1 9 -1q-5 -11 -15 -26q-30 -43 -70 -71q-6 -7 0 -6.5t10 4.5q48 29 82 73q26 38 24 67q-1 17 -19 29q-10 7 -22 7zM108 32q5 -1 6 -2q9 -4 8 -16q-1 0 -7 -0.5t-6 0.5q-8 4 -1 18z" />
    <glyph glyph-name="hyphen" unicode="-" 
d="M143 222q-16 0 -31 -2q-2 0 -15.5 -1t-20.5 -1q-16 4 -15 -9q-3 -19 6 -22q12 1 34.5 4.5t33.5 4.5q112 14 128 15q6 3 0 6q-16 2 -89 4q-17 1 -31 1z" />
    <glyph glyph-name="period" unicode="." horiz-adv-x="215" 
d="M103 56q-7 0 -12 -4q-13 -11 -18 -29q-4 -15 3 -26q6 -9 18 -12q9 -2 15 -3q8 0 10 3q0 2 1 3t3 2q15 9 18 22q2 14 -5 25q-9 13 -23 18q-5 1 -10 1zM107 34q9 0 17 -8q6 -10 2 -18q-2 -4 -6 -9q-1 4 -2 7q-3 8 -6 8q-10 -1 -13 -1v1q0 9 7 20h1zM99 13z" />
    <glyph glyph-name="slash" unicode="/" 
d="M244 443q-7 0 -11 -8q-28 -54 -78 -185q-17 -43 -48.5 -137.5t-51.5 -143.5q-2 -8 -0.5 -9t6.5 6q16 31 44 100q36 93 85 204q4 10 14.5 34.5t16.5 38t15.5 33t19.5 35.5q7 8 2 20t-14 12z" />
    <glyph glyph-name="zero" unicode="0" 
d="M187 385h-6q-25 -1 -51 -30q-8 6 -24 -15q-32 -47 -43 -81q-1 -5 -3 -10q-6 -15 -12 -31q-2 -8 -3 -11q-2 -6 -1 -6q3 0 6 7q1 2 4 7q-8 -66 17 -132q24 -63 69 -69q25 -4 48.5 9t39.5 36q45 61 52 144q6 85 -23 138q-11 19 -29.5 31.5t-40.5 12.5zM185 366q5 0 10 -1
q20 -3 34 -19.5t21 -38.5q15 -54 8 -110.5t-35 -104.5q-33 -55 -73 -54q-32 0 -51 44q-30 74 -15 143q6 29 38 83q7 9 10 19q12 14 17 20q15 18 36 19z" />
    <glyph glyph-name="one" unicode="1" horiz-adv-x="190" 
d="M123 400q-8 0 -11 -8q-4 -24 -21 -135q-6 -34 -27 -226q0 -4 -1.5 -16t-1.5 -16.5t2 -16.5q13 -13 29 21q0 1 1 2v6q-2 2 -5 -2t-6.5 -9.5t-5.5 -7.5q-4 -7 -5 -5q1 -1 1 12q4 31 14 89t12 65q6 35 18 99.5t18 92.5q0 4 3.5 15t4 16t-3.5 15q-5 10 -15 9z" />
    <glyph glyph-name="two" unicode="2" 
d="M180 384q-25 -1 -51 -16q-46 -27 -62 -53q-3 -7 -1 -15.5t8 -10.5t14 5q18 19 25.5 26t23.5 18.5t32 15.5q12 5 24 0.5t19 -15.5q18 -28 0 -84q-7 -21 -17 -42t-24.5 -44.5t-23.5 -37.5t-28.5 -42t-26.5 -38q-5 -5 -7.5 -12.5t-1 -14.5t9.5 -10q4 -2 13.5 -1t13 1.5t13 3
t13.5 3.5q21 6 66 21t69 20q0 1 4 2q9 3 8 4h-3q-16 1 -72 -8q-19 -2 -56 -13.5t-57 -14.5l-1 1q11 17 35 50t35 50q59 92 70 150q6 26 -1.5 51t-27.5 39q-15 11 -35 11z" />
    <glyph glyph-name="three" unicode="3" 
d="M156 381q-45 0 -88 -23q-1 -1 -5.5 -4t-6.5 -4t-6 -4t-6 -5t-4.5 -5.5t-3 -6.5t-0.5 -7q0 -12 11.5 -17.5t22.5 -0.5q10 0 11 8t-6 13q55 39 111 25q13 -3 22.5 -13.5t2.5 -21.5q-5 -7 -10.5 -12.5t-14.5 -11.5t-13 -8.5t-16.5 -9t-14.5 -7.5q-12 -3 -14.5 -15.5
t10.5 -16.5q11 -2 32 -3t30 -2q17 -2 24.5 -3.5t20.5 -7.5t19 -15q10 -20 -6 -60q-33 -71 -99 -102q-48 -22 -78 2q-15 11 -17 30t8 34l7 12q-7 -1 -14.5 -11.5t-10.5 -20.5q-7 -25 9 -47.5t41 -26.5q55 -8 114 44q61 55 71 117q3 17 -3 33t-20 25q-29 18 -94 22q7 4 13 7
q15 9 23.5 15.5t18.5 18t12 24.5q3 20 -12 36.5t-36 21.5q-17 4 -35 4zM67 319q0 -1 -1 -1q1 0 1 1z" />
    <glyph glyph-name="four" unicode="4" 
d="M188 366q-9 0 -15 -6q-72 -59 -108 -148q-2 -4 -5 -12.5t-4.5 -13t-3 -13.5t0.5 -13q7 -30 56 -47q42 -13 78 -8q-5 -25 -13 -73t-13 -71v-2q-1 -11 0 -12.5t4 7.5q11 27 32 98q4 21 11 57q13 4 24 10q19 11 28 32.5t5 44.5q0 2 -1.5 10t-2.5 11.5t-2.5 9.5t-5 10.5
t-7.5 7.5q-12 6 -21 -3.5t-13 -23.5q-6 -16 -20 -90q-37 -6 -81 10q-10 5 -14.5 7t-11.5 8.5t-8 14.5q23 82 87 141q4 4 12.5 11t14 14t6.5 15q4 8 1 12.5t-10 4.5zM237 227q8 -30 8 -34q3 -18 -5 -34.5t-24 -23.5q-1 0 -3 -1q6 32 10 51q0 8 7 23.5t7 18.5z" />
    <glyph glyph-name="five" unicode="5" 
d="M137 365q-3 0 -6 -1q-5 -4 -11 -9t-9 -9t-9 -11.5t-8 -10.5q-45 -60 -25 -113q7 -16 22 -29.5t27 -20t33 -16.5q7 -4 21.5 -10.5t23 -10.5t19.5 -11.5t19 -16.5q11 -14 7.5 -30.5t-15.5 -28.5q-23 -22 -55 -29.5t-61 3.5q-20 6 -33.5 22t-19.5 36l-1 4q-4 10 -5 4
q-1 -22 9 -43t28 -34q30 -20 79 -13q31 5 57 22.5t36 44.5q6 17 1.5 34t-17.5 29q-20 18 -67.5 41t-66.5 40q-26 21 -18 56q4 26 31 57q2 -3 4 -5q7 1 47 16q12 4 32.5 13t37.5 15t33 8q3 1 3 3t-3 3q-21 2 -65 -7q-24 -4 -65 -15q2 8 -0.5 15.5t-9.5 7.5z" />
    <glyph glyph-name="six" unicode="6" horiz-adv-x="295" 
d="M196 394q-10 -2 -21 -9.5t-14.5 -11.5t-15.5 -17q-40 -49 -62 -101q-27 -65 -21 -124q-5 -19 -8 -41v-7q-1 -8 0 -8q3 0 6 12q3 11 6 19q4 -15 10 -29q25 -57 67 -63q45 -5 80 47q33 49 23 121q-4 25 -18 45.5t-36 26.5q-42 9 -83 -30q-8 -9 -14 -18q3 14 9 27
q29 72 90 129q21 31 2 32zM178 236q13 0 24 -9t16 -22q21 -50 -2 -111q-22 -50 -61 -57q-30 -3 -52 39q-19 35 -16 81q9 18 20 32q23 39 64 46q3 1 7 1z" />
    <glyph glyph-name="seven" unicode="7" horiz-adv-x="286" 
d="M255 394q3 1 6 0q22 -5 0 -39q-3 -6 -20.5 -40.5t-22.5 -44.5t-19 -39t-20.5 -45.5t-15.5 -41t-15 -45.5q-23 -88 -21 -129q0 -3 1 -9q2 -10 1 -11t-6 6l-1 2q-2 7 -3 14.5t-0.5 15.5t0.5 14t1.5 16t2 14t2.5 15.5t2 13.5q19 98 61 192q21 47 52 114q-7 -2 -24 -6.5
t-25.5 -6.5t-24 -5t-26.5 -4t-24.5 -1t-25.5 2q-2 1 -5 1q2 -8 5 -9q11 -11 6 -25q-3 -10 -17 -4q-18 6 -29 47q-4 15 10.5 22.5t26.5 -2.5q6 -2 12.5 -3t13.5 -1t12 -0.5t13.5 0.5t12 1.5t13.5 2.5t12 2t13.5 3l11.5 3q3 0 23 5t31 5z" />
    <glyph glyph-name="eight" unicode="8" 
d="M173 381q-32 -2 -59 -21.5t-43 -49.5q-10 -18 -8.5 -38.5t13.5 -36.5q17 -25 50 -51q-52 -71 -60 -124q-9 -51 23 -69q30 -16 84 5q56 23 77 54q9 16 7 33.5t-14 31.5q-7 9 -14.5 17t-17.5 16.5t-16.5 14t-19.5 15.5t-18 13q49 63 98 115q1 1 4 4.5t5.5 6.5t1.5 4
q-9 -5 -33 -25q-67 -60 -90 -91l-0.5 -0.5l-0.5 -0.5q-5 4 -9 7q-14 13 -20 19t-14 18.5t-10 25.5q0 26 34 56q17 14 36.5 18t39.5 -6q1 -1 7 -3t10 -3t8.5 -1t6.5 2.5t1 8.5q-6 17 -23 26t-36 9zM142 172q39 -30 44 -34q1 -1 9 -7.5t10.5 -9l8.5 -8.5t9 -10t6 -10t5 -12
q3 -20 -29 -44q-51 -34 -92 -32q-12 0 -20.5 10t-7.5 23q-1 53 52 127q3 5 5 7z" />
    <glyph glyph-name="nine" unicode="9" 
d="M251 382q-6 0 -11 -6t-3 -14v-1.5v-1.5q-13 9 -48 7q-45 -3 -83 -30t-51 -69q-7 -19 0 -38t23 -31q27 -24 70 -2q47 24 84 80q-4 -84 -10 -134q-1 -5 -3.5 -28t-4.5 -33t-7 -26.5t-11 -29.5q-1 -2 -2.5 -4t-3.5 -4.5t-3 -3.5q4 1 7 2.5t6 4.5t4.5 5t4 7t3.5 6.5t3.5 7
t3.5 6.5q20 52 23 95q5 43 13 169q15 33 8 55q-3 11 -12 11zM236 344q-1 -7 -1 -19q-11 -23 -34 -53q-42 -52 -82 -60q-15 -4 -27.5 7t-13.5 27q3 33 36 60q35 30 98 29q15 2 24 9z" />
    <glyph glyph-name="colon" unicode=":" horiz-adv-x="215" 
d="M117 323q-12 -1 -20 -13q-20 -26 -8 -46q7 -12 33 -15q8 -2 11 6q1 0 9 6q18 13 12 34q-8 23 -33 27q-2 1 -4 1zM121 301q7 -1 13.5 -6t6.5 -12q1 -9 -8 -17q0 8 -4.5 12.5t-10.5 1.5q-3 1 -5 -1l-1 2q1 6 4 12.5t5 7.5zM103 163q-11 -1 -19 -13q-20 -26 -8 -46
q7 -12 33 -15q8 -2 10 6q1 0 10 6q18 13 11 34q-7 23 -32 27q-2 1 -5 1zM107 141q8 -1 14 -6t7 -12q0 -9 -8 -17q0 8 -4.5 12.5t-11.5 1.5q-2 1 -4 -1l-1 2q1 6 3.5 12.5t4.5 7.5z" />
    <glyph glyph-name="semicolon" unicode=";" horiz-adv-x="215" 
d="M118 323q-8 0 -14 -5q-13 -11 -18 -30q-3 -14 3 -24t18 -12q9 -2 15 -3q8 0 10 3q1 1 1 3q2 1 3 1q16 9 18 23q3 14 -5 25q-9 13 -23 17q-4 2 -8 2zM120 301q10 -1 18 -9q5 -9 2 -17q-2 -5 -7 -9q0 4 -1 7q-3 7 -7 8q-10 -1 -13 -1q1 9 8 20l-1 1h1zM112 279zM105 59
q-8 0 -15 -5q-15 -16 -13 -40q1 -11 9 -19.5t19 -11.5q6 -1 10 -1q-5 -11 -15 -26q-30 -43 -70 -71q-6 -7 0 -6.5t10 4.5q48 29 82 73q26 38 24 67q-1 17 -19 29q-10 7 -22 7zM108 32q5 -1 6 -2q9 -4 8 -16q-1 0 -7 -0.5t-6 0.5q-8 4 -1 18z" />
    <glyph glyph-name="less" unicode="&#x3c;" 
d="M202 329q-4 0 -7 -2q-65 -46 -91 -71q-31 -30 -30 -54q3 -24 37 -47q18 -10 37.5 -20t46.5 -22.5t38 -18.5q6 -1 7 -0.5t-3 5.5q-7 5 -21.5 13.5t-16.5 9.5q-6 4 -21.5 13t-24 14t-21 13.5t-21.5 16.5q-20 19 -12 33q2 4 5.5 8.5t8.5 9t7.5 7t9.5 8t9 6.5q41 30 54 37
q2 1 7.5 4t8 5t5 6t1.5 8q0 7 -4 12.5t-9 5.5z" />
    <glyph glyph-name="equal" unicode="=" 
d="M71 257q-8 0 -9 -8q-6 -19 3 -23q11 -1 70 1q19 0 40.5 2t47.5 4.5t40 4.5q6 3 0 6q-14 2 -58 3q-15 0 -44 3t-43 3q-2 0 -16.5 0.5t-22.5 2.5q-4 1 -8 1zM144 195q-15 0 -28 -1q-3 0 -17 -1.5t-22 -0.5q-17 3 -16 -9q-3 -20 6 -23q12 1 34 4.5t32 4.5q111 14 130 15
q7 4 0 7q-21 2 -59 3q-10 0 -30 0.5t-30 0.5z" />
    <glyph glyph-name="greater" unicode="&#x3e;" 
d="M115 326q-2 0 -5 -1q-8 -2 -12 -9.5t3 -14.5q10 -7 29.5 -20t35 -24.5t28.5 -22.5q1 -1 4.5 -4t5 -4.5t4.5 -5t4 -5.5t2 -5.5t2 -6.5q-2 -11 -24 -30q-29 -23 -113 -74q-5 -5 -4 -6t7 0q65 30 107 56q1 1 3 2q35 23 44 42q10 23 -14 49q-10 12 -24 23.5t-32 25t-27 20.5
q-2 1 -6.5 6t-8.5 7.5t-9 1.5z" />
    <glyph glyph-name="question" unicode="?" 
d="M176 358q-26 0 -49 -10q-26 -9 -44.5 -29t-22.5 -46q-8 -59 22 -86q16 -10 24 3t-6 24q-12 20 -12 43t13 42q26 29 66.5 33.5t70.5 -18.5q15 -11 17.5 -30.5t-5.5 -35.5q-15 -34 -65.5 -85.5t-66.5 -82.5q-28 -51 -2 -84q8 -14 24.5 -17.5t27.5 8.5q5 7 5 12
q-4 -4 -10.5 -7.5t-14.5 -3.5t-12 6q-25 24 -4 71q16 33 63 80.5t62 70.5q17 25 20.5 51t-11.5 51q-32 40 -90 40zM144 -40q-15 -1 -28 -13t-19 -29q-8 -15 0 -31t25 -14q13 1 26.5 10t18 13.5l20.5 20.5v3q-6 2 -18 -8q0 2 1 3q6 12 1.5 26t-17.5 18q-5 1 -10 1zM146 -67
q0 -5 -6 -14t-8.5 -13.5t4.5 -12.5q0 -1 1 -2q-10 -4 -18.5 0t-3.5 16q4 9 13.5 17.5t17.5 8.5z" />
    <glyph glyph-name="at" unicode="@" horiz-adv-x="350" 
d="M220 360q-33 0 -67 -18q-81 -42 -107 -118q-10 -36 -1.5 -69t31.5 -63q43 -57 99 -54q64 5 116 58q12 15 14 21q-56 -56 -119 -62q-38 -5 -77 29q-25 23 -39 54.5t-10 63.5q11 56 69 101q59 44 110 34q15 -2 25.5 -13.5t15.5 -27.5q19 -69 -15 -129q-18 -28 -34 -27
q1 3 -1 7q1 17 4 36t8.5 44t6.5 36q8 12 -3 22q-9 9 -18 -3l-4 -8q-10 13 -43 5q-31 -11 -54.5 -36t-30.5 -57q-5 -18 1.5 -36.5t23.5 -26.5t34 -3t30 19q12 13 22 30q-2 -11 -1 -25.5t9 -22.5q14 -8 29 -4t25 16q44 49 39 128q-4 66 -42 89q-21 10 -46 10zM222 270
q-5 -11 -15.5 -38t-17.5 -41q-7 -12 -11.5 -18.5t-13.5 -15t-19 -11.5q-12 -1 -18.5 9t-2.5 21q6 24 24 43.5t42 30.5q1 1 14 8t18 12z" />
    <glyph glyph-name="A" unicode="A" horiz-adv-x="400" 
d="M319 602q-13 -1 -23 -9q-14 -10 -28 -27t-20.5 -26.5t-21.5 -36.5t-18 -31q-54 -95 -106 -221q-5 -1 -17 -2.5t-18 -2.5q-9 -1 -12.5 -11.5t2.5 -17.5q3 -3 7.5 -3.5t8 0.5t9 2.5t7.5 2.5q-22 -56 -51 -136q-2 -4 -6 -16.5t-5.5 -18.5t-3.5 -16t-0.5 -18.5t6.5 -16.5
q10 4 16.5 14t11 27t6.5 22q29 91 59 167q135 32 227 34h3q-1 -16 -3 -36q-20 -190 -34 -262l-1 -8l-1 -14q1 1 2 4q18 48 41 167q11 82 16 149q10 1 28 2.5t20 2.5h3l2 1q0 4 -6 6t-14.5 3t-11.5 2q-8 2 -19 3q5 82 4 155q0 4 -0.5 21t-1 22.5t-2 20t-3 22.5t-4 20
t-6.5 21.5t-9 18.5q-10 20 -33 20zM318 579q8 0 14 -6.5t8.5 -13.5t5.5 -19.5t4 -15.5q14 -94 4 -244h-1.5h-0.5q-97 0 -218 -23q52 129 112 235q3 3 11.5 18t12.5 21t12 17t16 18t17 12q1 1 3 1z" />
    <glyph glyph-name="B" unicode="B" horiz-adv-x="375" 
d="M155 572q-50 0 -96 -9q-4 -1 -17 -4t-19.5 -5.5t-13.5 -9t-7 -16.5q0 -6 2 -12t3.5 -11t5 -11.5t5.5 -10t7 -10.5t6.5 -9.5t7.5 -10t7 -9.5q11 -12 19 -19q3 -1 -1.5 6t-11.5 16.5t-8 13.5q-3 4 -8.5 13t-9 15t-7.5 15.5t-3.5 15.5t3.5 16q15 6 35 9.5t31 4t38.5 1.5
t33.5 1q126 -2 196 -36q23 -6 24.5 -26.5t-20.5 -30.5q-26 -20 -57.5 -36.5t-75 -36t-62.5 -29.5q-3 -1 -10 -4.5l-12 -6t-10.5 -7t-8.5 -8.5t-2.5 -9.5t4.5 -11.5q14 -8 29 -13.5t39 -13t30 -9.5q5 -2 20 -7t22 -8t18.5 -8.5t19.5 -12.5t15 -16q2 -5 3 -10.5t1 -9.5t-2 -10
t-3 -9.5t-4.5 -10.5t-5 -9t-6 -9t-4.5 -8q-63 -87 -147 -135q-16 -13 -35.5 -9.5t-18.5 27.5q-5 55 -4 86t5 86.5t4 86.5q1 53 -24 70q-5 -8 -6.5 -20t-0.5 -22.5t0 -22.5q0 -30 -3 -87.5t-3.5 -87.5t4.5 -87q2 -23 14 -41t34 -17q19 2 41 13t33.5 19.5t35.5 26.5
q86 76 114 143q9 21 3.5 44t-24.5 36q-29 22 -94 42.5t-77 25.5q0 1 1 1q24 14 100.5 50t114.5 63q50 36 34 67q-10 15 -29 26.5t-32.5 15.5t-38.5 11q-73 15 -141 15z" />
    <glyph glyph-name="C" unicode="C" horiz-adv-x="400" 
d="M260 550q-62 0 -118 -77q-80 -116 -97 -274q-13 -123 49 -199q22 -28 55.5 -42t69.5 -12q84 2 169 99q11 15 12 17q-10 -7 -27.5 -22.5t-27.5 -22.5q-91 -68 -171 -47q-39 10 -65.5 44t-36.5 78q-19 86 17 212q41 131 107 192q13 12 27.5 19t32 8t31.5 -11
q38 -35 36 -129q-5 -17 4 -40q10 -22 21 0q16 50 -2 120q-9 35 -30.5 60.5t-53.5 26.5h-2z" />
    <glyph glyph-name="D" unicode="D" horiz-adv-x="400" 
d="M87 559q-9 -1 -11 -16v-9q-27 -5 -42 -17q-17 -10 -6 -19q9 -8 22 -2q11 2 25 5q-4 -219 -34 -437q-1 -9 -5.5 -29.5t-5.5 -30.5q-38 -25 -69 -46l-4 -3l-10 -9q1 0 5 1q28 13 80 40q1 -2 2 -5q9 -14 17.5 -4.5t9.5 22.5v1v1q9 5 17 9q10 6 48.5 29.5t55.5 34.5t43.5 33
t44.5 44q94 113 109 224q6 44 -10.5 85.5t-52.5 64.5q-27 17 -64.5 21.5t-61 2.5t-68.5 -8q-6 -2 -14 -3q-3 8 -9 14t-12 6zM218 523q22 0 43 -3q40 -6 67.5 -39.5t27.5 -74.5q2 -94 -77 -209q-45 -68 -126 -117q-86 -54 -90 -56q4 38 11.5 109.5t11.5 105.5q4 39 7.5 83.5
t7 100.5t5.5 84q71 16 112 16z" />
    <glyph glyph-name="E" unicode="E" horiz-adv-x="350" 
d="M379 550q-42 0 -121 -10t-114 -12q-4 -1 -8 -1q-4 5 -9.5 5.5t-10.5 -4.5q-32 5 -44 -2q-11 -16 3 -22.5t32 -2.5q-12 -47 -49 -213l-1.5 -0.5l-1.5 -0.5q-17 6 -26 -9.5t7 -24.5l15 3q-11 -52 -21 -91q-2 -11 -7.5 -29.5t-9 -34.5t-1.5 -30q3 -29 27.5 -48.5t56.5 -26.5
q124 -29 238 32l2 1q9 6 9 7l-10 -1q-45 -16 -138 -27q-96 -6 -143 29q-16 12 -20 32.5t4 38.5q17 60 40 154q74 18 107 22q21 4 60 4.5t57 3.5l3 1q-4 10 -41 15q-64 2 -179 -16q25 103 37 148q1 7 8.5 29t8.5 34q26 1 99 9t112 8q10 -5 21.5 -0.5t14 13t-6.5 17.5z" />
    <glyph glyph-name="F" unicode="F" horiz-adv-x="350" 
d="M379 550q-41 0 -116 -10t-102 -12q-7 11 -16.5 12t-12.5 -14q-6 0 -19 2.5t-23 2t-18 -5.5q-12 -17 5.5 -23t33.5 -1q9 0 19 1q-3 -27 -9 -85t-9 -88l-20 -4q-17 6 -24 -9.5t8 -24.5q13 3 33 9q-17 -150 -40 -254q0 -1 -9 -31t-5 -46q10 -23 25 4q5 9 6 17q32 189 37 226
q6 38 13 91q35 10 59 14q20 4 56.5 5t50.5 3q12 5 -10 12q-17 5 -22 5q-53 2 -131 -12q14 118 22 170q7 0 79.5 7.5t109.5 8.5q10 -6 21.5 -1.5t14 13.5t-6.5 18z" />
    <glyph glyph-name="G" unicode="G" horiz-adv-x="455" 
d="M301 537q-45 0 -94 -43q-91 -81 -140 -225q-41 -133 -6 -216q18 -42 49.5 -72t72.5 -32q50 -3 96.5 23t78.5 68q43 61 17 105q-11 14 -30 21h8q18 3 30.5 -7.5t9.5 -28.5q0 -22 -4.5 -47.5t-8.5 -42t-13 -47.5t-12 -42q-1 -6 1.5 -7t5.5 5q43 117 52 168q4 23 -2 43
t-26 27q-21 5 -62 7.5t-47 3.5q-15 10 -30 -4q-16 -14 2 -26h32q20 -2 27 -4q58 -10 59 -45q-2 -36 -24.5 -67t-56.5 -53q-22 -14 -44.5 -22.5t-49 -8t-47.5 12.5q-34 21 -54 58.5t-24 80.5q-5 112 68 242q62 105 130 139q16 10 39.5 8t32.5 -20q5 -13 6.5 -26t-2.5 -30
t-6 -25t-9 -27q-9 -17 -6 -39q2 -17 16 -5q26 32 36 97q5 31 -5.5 59t-36.5 39q-14 5 -29 5z" />
    <glyph glyph-name="H" unicode="H" horiz-adv-x="400" 
d="M342 598q-9 0 -12 -15q-3 -34 -29 -309q-67 -7 -172 -25v0.5v1.5q8 127 -11 282q5 17 -13 33q-17 15 -23 -7q1 -11 7 -44.5t8 -51.5q10 -96 11 -218q-49 -9 -60 -10q-18 6 -31 -11q-11 -15 7 -25q24 5 84 20q-1 -55 -3 -145q0 -7 -2 -25t0 -23q-8 9 -15 20.5t-15.5 28
t-11.5 22.5l-4 4l-2 3q-2 -4 1.5 -13t10 -21.5t7.5 -17.5q7 -23 22 -33q12 -8 17 10q8 59 15 194q50 12 85 18q18 4 86 13q-5 -60 -9 -109q-8 -80 -5 -147l1 -3l2 -7q1 0 1 2q3 11 5.5 23.5t5 27.5t3.5 24q5 81 16 176q2 12 2 16q18 3 33 6l5 2q-5 7 -36 9q23 196 36 283
q7 11 0 26.5t-17 14.5z" />
    <glyph glyph-name="I" unicode="I" 
d="M240 586q-13 0 -36.5 -2.5t-26.5 -2.5q-8 -3 -29.5 -0.5t-25.5 -4.5q-5 -8 -1 -18.5t15 -4.5q29 3 46 4q-4 -26 -19 -155q-3 -29 -15.5 -154.5t-22.5 -193.5q1 -4 0 -7t-3 -5.5t-3.5 -4.5t-5 -3.5t-5.5 -2t-6.5 -1.5t-6 -1.5t-7 -1t-5.5 -1.5q-15 6 -24 -7t9 -17
q19 0 41 2t38 4.5t41.5 7t38.5 6.5q1 0 1.5 0.5t2.5 0.5q14 4 -2 6q-66 -1 -93 -3q8 9 9 21q9 61 22.5 173.5t16.5 140.5q11 85 27 176q4 9 -2 21q17 1 33 0q13 -10 21 2t1 25q-11 1 -24 1z" />
    <glyph glyph-name="J" unicode="J" 
d="M271 586q-12 0 -35 -7t-29 -8q-10 -6 -33.5 -8.5t-31.5 -8.5q-4 -6 -2 -16t12 -9q7 2 20 6t23.5 7t20.5 6q29 -185 4 -316q-28 -144 -118 -196q-50 -33 -106 -10q-30 10 -49 36.5t-18 57.5q1 25 21.5 44.5t46.5 22.5h8.5h8.5q-31 19 -74 -14q-19 -13 -27 -35.5t-1 -44.5
q10 -46 53 -73.5t91 -21.5q46 7 84.5 38.5t62.5 76.5q59 112 56 302q-1 11 -2 33.5t-1.5 37t-3.5 33.5t-7 35q10 2 20 3q14 -6 22 1t6 22q-9 6 -22 6z" />
    <glyph glyph-name="K" unicode="K" horiz-adv-x="375" 
d="M101 558q-9 0 -12 -14q1 -264 1 -265q-4 -6 -6 -12q-8 -18 5 -17q-3 -77 -10 -142q-1 -8 -4.5 -24.5t-4.5 -25t3 -24.5q11 -14 19.5 -3.5t8.5 24.5q1 8 6.5 87t6.5 120q1 1 2 3q1 1 3.5 3t3.5 3q-2 -55 30 -114q72 -133 228 -228q1 -1 5 -3q13 -7 14 -6t-6 6
q-72 56 -125 112q-102 101 -123 195q-7 29 0 60q127 120 218 218q16 9 19 29q2 16 -14 15h-5q-13 -8 -26.5 -18.5t-30.5 -25.5t-24 -22q-6 -5 -31 -27t-35 -31.5t-28 -28t-30 -35.5t-21 -36q-3 -4 -4 -8q-4 -3 -10 -8.5t-8 -7.5q0 12 1 92.5t4 122.5q5 11 -3 24t-17 12z
M237 418q-9 -8 -15 -14q7 8 15 14z" />
    <glyph glyph-name="L" unicode="L" horiz-adv-x="350" 
d="M156 532q-7 0 -13 -10t-6 -18q-15 -90 -36 -256.5t-27 -208.5q-1 -3 -1 -7q-19 2 -34 3q-19 3 -35.5 -2.5t-12.5 -23.5q8 -18 27 -29.5t39 -11.5q16 0 25 12.5t10 28.5v1v1q93 -6 189 -16q10 0 31.5 -2.5t30.5 -2.5t31 3q8 4 9.5 10.5t-2.5 14t-9 13t-11 10.5t-11 9
q-3 -2 3 -9.5t13.5 -18t6.5 -16.5q-16 -2 -23 -1.5t-23.5 3.5t-23.5 4q-85 10 -207 19q7 44 27.5 190t35.5 225q1 7 4.5 24t4 24.5t-2.5 24.5q-2 14 -9 13zM16 15h5q24 -1 49 -3q-3 -25 -22 -21q-13 0 -31 15q-11 9 -1 9z" />
    <glyph glyph-name="M" unicode="M" horiz-adv-x="430" 
d="M391 559q-6 0 -14 -7q-7 -15 -12.5 -34t-8 -30t-7 -36.5t-5.5 -31.5q-17 -107 -20 -168q-3 -6 -7 -12q-50 -78 -111 -69q-13 6 -25.5 20.5t-16.5 22t-15 30.5q-25 56 -41 121q1 86 -23 146q-18 18 -27 -5q-7 -18 1 -32q10 -56 21 -102q-1 -92 -27 -202q-4 -22 -19 -67.5
t-19 -70.5q-3 -16 5 -13q13 5 25 27q2 4 3 7q37 81 54 228q1 3 1 12q16 -42 34 -79q39 -70 83 -67q57 3 103 63q0 -28 2 -54q6 -38 21 -82.5t27.5 -72.5t36.5 -77q7 -13 10 -19l7 -10q1 3 -8 22q-3 9 -14.5 38t-16 41t-14 37.5t-13.5 42t-9.5 39t-7.5 43t-2 41.5q0 20 1 41
q3 5 5 8q61 118 63 254q2 16 -3 37t-17 20zM389 527q4 -35 2 -42q-7 -103 -44 -187q9 98 32 201q-1 5 10 28z" />
    <glyph glyph-name="N" unicode="N" horiz-adv-x="430" 
d="M349 598q-9 0 -16.5 -7t-9.5 -18q-5 -15 -5 -27q2 2 7 15.5t12 22t16 3.5q4 -8 7 -19t4 -18t3.5 -21t2.5 -19q8 -66 11 -108t2 -100.5t-11 -107.5q-22 -112 -90 -147q-16 -8 -32 -4.5t-29 16.5q-21 20 -39 49.5t-27 50.5t-22 59q-24 70 -39 137q3 78 -11 130q2 17 -15 27
q-17 11 -22 -10v-2q2 -47 21 -133q-3 -95 -28 -236q-2 -12 -7.5 -38.5t-6.5 -38t2 -38.5q2 -25 15 -8q10 13 10 26q23 107 37 247q34 -122 82 -196q48 -71 98 -64q62 13 98 90q25 57 31.5 122t3.5 147q-6 113 -34 198q-3 21 -19 20z" />
    <glyph glyph-name="O" unicode="O" horiz-adv-x="430" 
d="M264 574q-62 0 -112 -41q-79 -64 -115 -179q-13 -38 -8 -80q-3 -14 -5 -28q-4 -110 46 -184q15 -24 41 -37t54 -11q43 -1 81.5 25t66.5 66q47 67 69.5 147t18.5 162q-6 109 -71 144q-30 16 -66 16zM260 554h3q30 0 56.5 -13.5t38.5 -39.5q34 -67 16 -186
q-24 -134 -100 -220q-27 -31 -64 -46.5t-73 -5.5q-48 15 -72 93q-10 40 -12 69q8 -13 19 -26l20 -18q3 -1 -2 6q-25 29 -37 63q1 26 10 48q6 17 25.5 46t25.5 45q11 17 -1 20q-11 2 -20 -11q-30 -28 -48 -63l0.5 0.5l0.5 0.5q23 85 64 144q28 41 67 67.5t83 26.5z" />
    <glyph glyph-name="P" unicode="P" horiz-adv-x="350" 
d="M224 561q-63 1 -122 -22q-18 -5 -29.5 -21t-13.5 -35q-5 -18 3 -38.5t25 -14.5q2 6 2.5 36.5t14.5 41.5q66 33 160 26q87 -9 105 -62q16 -50 -38 -125q-70 -90 -139 -126q-42 -22 -89 -36q12 122 23 164q12 14 -1 30t-22 3q-2 -3 -4 -7q-13 -68 -22 -197q-36 -9 -74 -13
l-16 -4q0 -1 7 -2q3 0 5 -1q41 -1 77 4q-5 -70 -9 -109q0 -8 -3.5 -22.5t-4.5 -23t4 -22.5q9 -10 18 -3t9 19q1 38 11 165q36 8 67 22q78 31 155 116q35 40 55 76.5t18 76.5q-2 34 -27 59t-60 34q-41 11 -85 11z" />
    <glyph glyph-name="Q" unicode="Q" horiz-adv-x="430" 
d="M262 578q-55 0 -100 -35q-94 -73 -128 -216q-24 -131 7 -234q10 -33 33 -57.5t55 -23.5q60 7 115 43q3 -5 17.5 -29.5t25.5 -38t26 -22.5q51 -31 135 16q5 7 5 6q-1 1 -5 0q-2 -1 -12 -4.5t-13 -4.5t-12.5 -4.5t-13.5 -4t-12.5 -2.5t-14 -2t-13 0.5t-13.5 2.5t-13 5
q-17 8 -28 22.5t-23.5 40.5t-16.5 33q36 28 63 66q87 128 72 251q-4 39 -23 68q-1 77 -47 108q-29 17 -66 16zM262 551q47 0 67 -30q9 -15 12 -33q-10 5 -21 8q-47 14 -97.5 -2.5t-85.5 -54.5q-13 -17 -16 -26q40 48 96 65q29 11 66.5 7.5t60.5 -24.5q1 -22 -8 -81
q0 -2 -1 -11.5t-1.5 -16t0 -14.5t3.5 -12.5t9 -4.5q19 26 27 92q15 -48 2 -116q-30 -138 -123 -211q-9 11 -19 18q-39 24 -104 -23q-4 -4 -19 -13.5t-20 -16.5q-25 24 -37 91q-20 142 29 252q56 121 140 150q20 6 40 7zM204 86q15 0 25 -11l3 -3q-17 -11 -35 -19
q-2 -1 -17.5 -7t-21.5 -7.5t-17 -3.5t-20 0q3 3 11 11.5t14.5 13.5t13.5 8q25 18 44 18z" />
    <glyph glyph-name="R" unicode="R" horiz-adv-x="350" 
d="M101 586q-8 0 -14 -10t-4 -21q0 -1 -0.5 -3.5t-0.5 -3.5q-3 -1 -4 -1q-15 2 -32 -19q-15 -19 2 -21h7q13 4 23 7q-8 -75 -15 -218t-12 -207q-1 -10 -4 -27.5t-4 -27t4 -26.5l2 -4q10 -5 16 0.5t8 16t2.5 22t-0.5 18.5l6 108t6.5 115.5t7.5 104.5t10 112q1 9 4 22
q47 12 86 13q28 1 47.5 -0.5t43.5 -9.5t40 -24q13 -14 12 -33t-16 -31q-28 -25 -89 -56.5t-75 -40.5q-72 -45 -65 -94q26 -92 102 -171q41 -44 92 -78t121 -71q0 1 5 -2q13 -6 14 -5q0 1 -3 4q-17 13 -59.5 42t-63.5 46q-133 91 -179 212q-10 17 -7.5 38t18.5 33
q29 25 91 56.5t79 41.5q69 42 59 90q-6 34 -37 53.5t-69 24.5q-71 9 -141 -5q1 10 -1 18q-5 12 -13 12z" />
    <glyph glyph-name="S" unicode="S" horiz-adv-x="350" 
d="M387 583q-53 0 -100.5 -32t-76.5 -80q-41 -60 -14 -158q7 -30 36 -107.5t34 -122.5q5 -25 -7 -48.5t-36 -31.5q-71 -22 -171 -1q-21 6 -35 11t-30 17t-23 28q-3 16 4.5 34.5t15.5 28t25 26.5l6 6q9 9 8 9.5t-7 -3.5q-66 -44 -69 -93q0 -51 76 -75q104 -32 197 -10
q30 7 49.5 32t18.5 55q0 31 -8 62.5t-24 76t-21 59.5q-9 30 -13 43t-9 38.5t-3 46.5t10 40q23 49 65.5 82.5t92.5 35.5q15 2 45.5 -7t47.5 -4q0 27 -61 40q-12 2 -23 2z" />
    <glyph glyph-name="T" unicode="T" 
d="M339 557q-42 0 -121 -10.5t-114 -12.5q-10 -2 -37 2t-35 -4q-12 -16 3 -22.5t31 -1.5q36 0 90 6q-4 -32 -12.5 -115.5t-13.5 -127.5t-15 -111.5t-22 -122.5q-1 -1 -9.5 -30.5t-4.5 -45.5q10 -22 24 2q6 10 7 18q32 189 37 227q6 41 18 139t21 150q5 9 0 20q83 9 124 10
q10 -6 21.5 -1.5t14 13t-6.5 18.5z" />
    <glyph glyph-name="U" unicode="U" horiz-adv-x="400" 
d="M125 560q-10 0 -29 -34q-51 -105 -64 -245q-9 -137 36 -206q23 -35 64 -48t77 9q33 22 54 55.5t42 83.5q6 16 13 33q-1 -112 31 -208l12 -27q1 1 -2 11q-27 111 -23 210q1 42 5 88q28 102 45 230q7 15 0 33q-7 16 -20 1q-26 -108 -40 -221q-2 -12 -3 -26l-12 -40
q-14 -42 -23.5 -67.5t-28 -59t-40.5 -57.5q-16 -18 -38 -25t-45 2q-59 21 -74 112q-18 122 30 269q4 12 21 55t19 68q-3 4 -7 4z" />
    <glyph glyph-name="V" unicode="V" 
d="M415 570h-6q-32 -7 -56 -31.5t-47 -61.5q-21 -39 -40 -89.5t-29 -82.5t-28 -94q-7 -20 -18.5 -62.5t-21.5 -75t-23 -61.5l-5 -11q-1 0 -2 5q-2 9 -4 14q-14 67 -20.5 194.5t-9.5 155.5q-1 4 -3.5 25t-3.5 27.5t-4.5 24t-7 27t-10 22t-13.5 22.5q-5 15 -30 18
q-19 2 -18 -9q0 -3 1 -6q33 -27 45 -69q10 -39 15.5 -79t9 -105t4.5 -80q1 -7 3.5 -36.5t3.5 -41t4 -34.5t6.5 -40.5t9.5 -35.5q3 -18 21 -21t24 15q11 21 19 44t17.5 59t12.5 47q2 8 14 50.5t16 55.5t15 49.5t18 55t18.5 47.5t23.5 52.5t25 46.5q39 58 78 62h2h4
q13 -3 13 -1q0 4 -18 8h-5z" />
    <glyph glyph-name="W" unicode="W" horiz-adv-x="430" 
d="M484 599l-4 -6q5 6 4 6zM480 593q-19 -20 -21 -23q-15 -25 -28 -55t-22 -52t-20 -60.5t-15 -55t-15.5 -61.5t-14.5 -57l-11.5 -46t-15.5 -57.5t-14 -44.5v6q2 30 6 82t6 81t3 81.5t-2 81.5q-3 18 -4.5 26t-6 23.5t-12 24.5t-18.5 15q-13 5 -25.5 -1t-19.5 -14t-17 -21
q-35 -53 -67 -129q2 69 -31 153q-11 30 -37 49t-56 12q-31 -4 -14 -16q12 -8 30 -10q41 -13 59 -77q26 -66 19 -145q-3 -32 -8 -64q-1 -2 -2.5 -6.5t-2.5 -6.5q-51 -148 -64 -211q2 -25 20 -11q15 12 16 27q48 116 64 223q39 107 81 182q2 2 11.5 17.5t17.5 22.5t19 5
q6 -5 10.5 -11t7.5 -16t4 -15t3 -18.5t2 -15.5q3 -77 1.5 -113t-7 -113.5t-6.5 -112.5q-7 -18 7 -28q15 -8 22 11q8 20 15.5 43.5t11.5 39.5t12 46t11 42q10 34 26.5 110t34 132.5t42.5 104.5q7 14 15 26z" />
    <glyph glyph-name="X" unicode="X" horiz-adv-x="375" 
d="M425 588h-2q-29 -6 -80 -40q-64 -54 -140 -152q-20 -26 -37 -51q-21 41 -31 59.5t-30.5 49.5t-42.5 52q-9 16 -32 12q-21 -3 -14 -19q1 -2 3 -5q34 -14 67 -62q30 -46 63 -111q-84 -122 -131 -234q-20 -49 9 -56q10 -2 13 1t2 9.5t0 8.5q1 12 4 24t8.5 25.5t9.5 22t12 25
t11 22.5q35 68 74 128q8 -18 37 -80.5t49.5 -102.5t44.5 -77q10 -15 15 -22t17.5 -15t25.5 -6q13 4 9 12q-6 10 -26.5 28.5t-28.5 32.5q-23 36 -43.5 76t-47 99t-36.5 80q59 89 126 162q26 26 37 36.5t34 29t43 30.5l4 3q8 5 4 5z" />
    <glyph glyph-name="Y" unicode="Y" 
d="M40 584q-11 -3 -14.5 -8.5t0.5 -12t9 -11.5t14 -13t11 -10q62 -56 98 -145q6 -7 12.5 -29.5t14.5 -29.5q-9 -34 -22 -96.5t-20 -88.5q-24 -89 -35 -142q0 -1 -1 -4q1 -7 3 -6q5 10 31 72q15 47 35.5 134.5t27.5 115.5q10 25 24 50t34.5 57.5t28.5 46.5q4 8 16 27
t18.5 33.5t8.5 30.5q-2 20 -17 16q-16 -4 -17 -21v-4q-15 -38 -52 -102t-48 -86q-11 17 -13 24q-48 105 -95 155q-6 4 -22.5 24t-29.5 23z" />
    <glyph glyph-name="Z" unicode="Z" horiz-adv-x="400" 
d="M286 587q-41 0 -104 -12q-52 -12 -88.5 -28.5t-58.5 -49.5q-12 -12 -8 -37q3 -20 17 -14q21 46 43 60q70 47 203 54q13 6 12 -2q-1 -3 -6 -13q-5 -9 -6 -12q-25 -44 -77.5 -120t-70.5 -104q-30 -48 -45 -73.5t-34.5 -68.5t-27.5 -81q-8 -36 2 -70.5t39 -52.5
q50 -29 144 -5q122 35 163 109q15 25 10 54.5t-26 49.5q-4 4 -9 7q-8 6 -9.5 6t8.5 -12q11 -14 13 -18q15 -22 12 -48t-21 -45q-63 -67 -167 -90q-84 -15 -119 18q-39 39 -11 122q14 42 40 90t42 72.5t55 81.5q12 18 39 55t46.5 66.5t33.5 58.5q9 12 7.5 29.5t-17.5 20.5z
" />
    <glyph glyph-name="bracketleft" unicode="[" 
d="M198 488q-21 0 -34 -9q-7 -7 -12 -14.5t-8.5 -18t-5.5 -17t-4.5 -19.5t-3.5 -18q-29 -184 -24 -377q1 -4 2 -26.5t2 -31.5t5 -24.5t11 -27.5q9 -14 28.5 -16t33.5 1q2 1 5 1.5t4 1.5q1 3 -5 3.5t-16 0t-13 -0.5q-18 -2 -27.5 13.5t-11.5 35.5q-7 69 3 205q17 171 34 255
q1 1 5 18t9 24t16 9q8 -3 19 1.5t14.5 12.5t-4.5 16q-12 2 -22 2z" />
    <glyph glyph-name="backslash" unicode="\" 
d="M65.5 439q-7.5 0 -11.5 -4t-1 -12q43 -88 96 -216q69 -164 105 -240q5 -7 7 -6t-1 9q-9 23 -41 107q-12 32 -43.5 121.5t-51.5 137.5q-3 6 -38 89q-1 7 -7 10.5t-13.5 3.5z" />
    <glyph glyph-name="bracketright" unicode="]" 
d="M159 486q-6 0 -12 -1q-16 0 -16 -13t16 -16q1 0 7 -0.5t7.5 -1t6.5 -1.5t7 -2t6 -2.5t5.5 -4t3.5 -5.5t2 -6.5v-8.5q3 -26 3.5 -56.5t-0.5 -51.5t-3 -58t-3 -53q-15 -167 -36 -279q-1 -19 -15 -32t-33 -11q-11 -2 -11 -4q0 -4 18 -3h2q18 0 31.5 13t16.5 31q19 78 47 260
q14 108 14 203q0 4 -1 21.5t-1.5 24.5t-4.5 19t-10 21q-16 17 -47 17z" />
    <glyph glyph-name="asciicircum" unicode="^" 
d="M175 484q-8 0 -14 -5q-12 -9 -38 -44q-4 -7 -12.5 -19.5t-15.5 -22.5t-14 -18q-13 -13 -5 -22q3 -7 10 -10t12 3q12 17 32.5 49.5t29.5 46.5q8 12 16 19q5 -3 17 -21q12 -20 35 -59t34 -57q4 -4 5.5 -3t0.5 6q-9 19 -25.5 54t-21.5 45q-2 4 -6 12.5t-6.5 14t-7 12
t-8.5 11.5q-7 8 -18 8z" />
    <glyph glyph-name="underscore" unicode="_" 
d="M269 -21q-18 0 -51.5 -1t-47.5 -1q-51 1 -133 -6q-6 -1 -12 0t-12 0t-9 -6q-5 -6 -3.5 -16t10.5 -11q107 13 108 13q23 2 90.5 10t105.5 10q9 3 0 6q-21 2 -46 2z" />
    <glyph glyph-name="grave" unicode="`" horiz-adv-x="215" 
d="M91 532q-5 0 -8 -2q-9 -3 -8 -10q4 -16 28 -102q6 -19 19.5 -60t19.5 -60q4 -3 4.5 -3t2.5 5q-3 19 -11.5 58.5t-11.5 60.5q-3 18 -7.5 40t-7.5 35.5t-3 16.5q0 17 -4 19t-13 2z" />
    <glyph glyph-name="a" unicode="a" horiz-adv-x="350" 
d="M235 395q-46 0 -87.5 -21.5t-67.5 -58.5q-36 -49 -48.5 -111t-0.5 -124q5 -29 19.5 -52t39.5 -30q53 -14 114 40q47 44 76 106q3 -55 15 -100q20 -66 57 -78q14 -3 24 1q-29 2 -44 22q-11 16 -17.5 38.5t-8.5 37.5t-4 43q-3 43 -3 85q17 53 19 109q3 16 -2 32t-20 4
q-3 -10 -5 -20t-4 -29t-3 -21q-3 -38 -4 -66q-31 -98 -101 -156q-52 -39 -89 -22q-30 16 -38 79q-6 58 9.5 113t52.5 96q46 53 128 51q39 1 52 14q-2 4 -5 6.5t-7 4.5t-7 3t-9 2t-8.5 1t-9 0.5t-8.5 0.5h-5z" />
    <glyph glyph-name="b" unicode="b" horiz-adv-x="350" 
d="M143 639q-5 0 -10 -13.5t-5 -22.5q-30 -311 -38 -371q-2 -11 -5 -34q-28 -66 -46 -139q-2 -9 -3.5 -18.5t-0.5 -20t7 -15.5t18 0q4 4 8 10q5 0 11 4q23 11 45 24q34 13 205 67q3 1 15.5 5t15.5 7q-19 -3 -37.5 -7t-46 -11t-36.5 -9q-3 -1 -57 -15q59 41 104 90
q77 84 58 159q-6 30 -35 44t-60 9q-61 -6 -112 -83q-8 -12 -15 -26q5 43 14.5 121t12.5 108q1 8 4.5 37.5t3 48.5t-5.5 37q-4 14 -9 14zM266 362q15 0 29 -5q18 -5 26 -23.5t7 -40.5q-4 -40 -28 -74t-63 -71q-60 -53 -120 -87q-18 -7 -35 -14q2 6 4.5 17.5t4.5 16.5
q12 57 22 124q29 65 66 111q15 21 38.5 33.5t48.5 12.5z" />
    <glyph glyph-name="c" unicode="c" horiz-adv-x="350" 
d="M181 401q-40 -1 -83 -51q-44 -54 -61.5 -123.5t-3.5 -136.5q14 -66 57 -87q57 -30 139 11q67 31 124 108q0 1 2.5 4t3.5 5t-1 3q-9 -7 -26.5 -23.5t-27.5 -23.5q-6 -5 -20 -15t-22 -16t-20 -13.5t-23 -12.5q-74 -36 -123 -7q-34 21 -44 94q-7 59 12 118t60 103
q37 36 64 31q3 -2 10.5 -7.5t13.5 -10t12 -4t10 7.5q0 17 -13.5 30t-30.5 15q-4 1 -9 1z" />
    <glyph glyph-name="d" unicode="d" horiz-adv-x="375" 
d="M373 585q12 0 13 -16q1 -11 -1.5 -23t-7.5 -27t-6 -22q-76 -281 -101 -468q-3 -27 2 -27q3 0 9 7q10 9 19.5 21t21.5 27t18 23q5 5 12.5 17t14 20.5t10.5 9.5q-1 -4 -3 -10q-14 -30 -23.5 -47.5t-27 -41t-35.5 -38.5q-16 -14 -30 -1.5t-8 30.5q6 56 16 117
q-15 -32 -34 -59q-23 -30 -56.5 -50t-70.5 -23q-25 -2 -45.5 13.5t-26.5 39.5q-25 84 39 188q69 106 161 116q18 3 37.5 -2.5t14.5 -19.5q-14 -6 -42 -8.5t-41 -7.5q-83 -31 -131 -136q-36 -83 -9 -138q10 -20 36 -22.5t44 8.5q63 23 97 92q27 53 48 123q18 90 70 316
q1 9 5.5 14t10.5 5z" />
    <glyph glyph-name="e" unicode="e" horiz-adv-x="375" 
d="M223 399q-9 0 -17 -3q-26 -9 -44 -30.5t-37 -53.5q-22 -41 -35 -83q-1 0 -3 -2q-5 -2 -19 -8.5t-23 -12.5t-14 -15q-7 -15 12 -14q15 0 25 7q6 2 12 5q-8 -40 -7 -77q4 -62 38 -80q52 -28 128 2q88 34 141 135q1 2 3 6.5t2.5 7t-0.5 3.5q-2 -3 -14.5 -19t-17.5 -22.5
t-15 -17t-19 -18.5q-67 -56 -118 -66q-62 -14 -91 15q-16 20 -16 71q2 36 11 73q72 39 126 99q12 14 17.5 22t11 22t4.5 27q-3 13 -15 20t-26 7zM225 375q10 0 12 -8t-2 -17t-10 -15q-41 -51 -106 -90q15 38 37 73q11 16 17.5 24.5t19.5 18.5t26 13q3 1 6 1z" />
    <glyph glyph-name="f" unicode="f" horiz-adv-x="270" 
d="M202 558q-13 0 -22 -13.5t-16.5 -37.5t-9.5 -29q-43 -140 -81 -313q-9 -19 -15 -36q-6 -21 3 -19q-14 -67 -29 -146q-3 -16 -10.5 -57t-10.5 -60.5t-8.5 -56t-8 -60.5t-5 -56t-2.5 -60q-4 -24 10.5 -45t36.5 -4q9 9 17.5 19t17 23t13.5 21t14.5 24.5t12.5 22.5
q79 142 36 239q-3 15 -26 46t-20 50q9 14 21 26t28.5 23.5t26.5 18.5t31.5 20t28.5 17q3 2 11 6.5t13.5 8.5t4.5 5q-106 -45 -166 -100q-15 -12 -17 -26.5t3 -25t16.5 -28.5t15.5 -25q25 -45 25 -93t-21 -95q-39 -91 -95 -159q-15 -13 -17 17v18v14q1 29 3.5 57.5t7 63.5
t7.5 55.5t11 63.5t10.5 55t12.5 62.5t11 56.5q11 53 20 93q2 2 2 3q31 45 49 75t40 72.5t33.5 84.5t12.5 84v24v26t-3 23t-8 23q-8 3 -15 4zM199 519q7 -61 -8.5 -124t-48.5 -118q-10 -18 -30 -48q35 145 72 256q-1 2 -0.5 5.5t2.5 7t4 6.5t5 8t4 7z" />
    <glyph glyph-name="g" unicode="g" horiz-adv-x="350" 
d="M238 400q-38 0 -77 -18q-58 -27 -91 -86t-38 -129q-5 -102 35 -146q15 -17 37.5 -20.5t43.5 3t39 19.5q56 39 92 106q-2 -27 -5 -54q-148 -124 -221 -238q-37 -58 -55 -111.5t-4 -105.5q6 -25 21.5 -42.5t38.5 -12.5q42 5 73 35t59 77q45 82 69.5 176.5t40.5 214.5
q1 8 2 15l28 24q18 15 32 26q-16 -5 -59 -38q4 31 7 95q15 44 20 92q0 3 0.5 10.5t1.5 14t1 14.5t-1 13.5t-4 10.5t-8 4.5t-13 -2.5q-6 -13 -9 -28t-5 -38.5t-3 -29.5q0 -25 -2 -47q-43 -126 -132 -171q-19 -11 -43.5 -5.5t-33.5 26.5q-36 85 4 193q18 49 58.5 83.5
t91.5 38.5q6 2 25 3t31.5 4t11.5 11q-26 14 -59 13zM272 60q-14 -119 -43 -222q-24 -79 -52.5 -136t-75.5 -97q-10 -8 -22.5 -13.5t-25.5 -6.5t-23 6t-13 22q-29 74 38 191q82 133 217 256z" />
    <glyph glyph-name="h" unicode="h" 
d="M116 639q-5 0 -10 -12.5t-4 -20.5q-2 -22 -8 -87t-9 -96.5t-8.5 -84t-11.5 -96t-12 -86.5q-21 -52 -36 -105q-8 -13 -5.5 -33.5t21.5 -12.5q6 7 11.5 16.5t7.5 16.5t5.5 21t5.5 18q8 40 16 83q7 17 18 43q20 41 29 59t29 48.5t42 50.5q10 14 28.5 14t23.5 -18
q16 -46 4 -131q-4 -19 -19.5 -73.5t-18.5 -85.5q-5 -20 2 -39t27 -11q10 5 17.5 11.5t17.5 17.5t13 14.5t15 20l12 16.5l14 24q-10 -10 -28.5 -31.5t-29.5 -30.5q-36 -36 -43 -26q-2 4 -1 12q2 19 6.5 42t8.5 37.5l12 43.5t11 39q18 95 -1 154q-5 18 -21.5 29t-33.5 4
q-7 -2 -13 -5t-12 -8t-10 -8t-10 -10.5t-8.5 -10t-9 -12t-7.5 -10.5t-8 -12t-8 -11q-19 -32 -36 -66q8 53 19 150t15 129q1 7 4 33t2.5 43t-7.5 33q-3 10 -8 10zM21 27l-1 -1z" />
    <glyph glyph-name="i" unicode="i" horiz-adv-x="190" 
d="M125 492q-5 0 -11 -5q-22 -7 1 -28q4 -4 10 -12t12 -13.5t14 -7.5q2 0 3.5 1.5t2 3t0.5 5v3.5q-16 21 -26 43q1 10 -6 10zM123 399q-7 0 -11 -9q-9 -50 -28 -177q-2 -10 -5.5 -38t-4.5 -37.5t-4 -37.5t-2.5 -38t0.5 -38q-3 -15 8.5 -21t21.5 7q48 47 99 114q3 9 2 9.5
t-5 -4.5q-53 -59 -91 -95q-1 -2 -4 -4.5t-7.5 -5t-6.5 -4.5q-1 9 2 56q4 29 10 62t13 73t11 62q7 44 19 96q5 9 -1.5 19.5t-15.5 10.5z" />
    <glyph glyph-name="j" unicode="j" horiz-adv-x="245" 
d="M123 491q-8 0 -18 -10q0 -13 15 -29.5t31 -25.5q7 4 5.5 11t-6 12.5t-10 13t-6.5 12.5q-1 17 -11 16zM138 399q-10 0 -10 -17q0 -21 1 -71.5t0 -78.5q-9 -182 -40 -294q-16 -55 -38.5 -95t-60.5 -63q-14 -8 -28.5 -12t-30.5 -0.5t-26 16.5q-33 48 -6 134q0 1 1.5 7t1.5 9
q-13 -16 -23 -65q-5 -35 3.5 -66.5t36.5 -45.5q45 -17 102 26q40 33 62 81t40 115q28 117 35 265q0 9 1.5 67.5t-2.5 67.5q-1 8 -7 14t-12 6z" />
    <glyph glyph-name="k" unicode="k" 
d="M130 584q-5 -1 -9 -11q-4 -21 -7 -61t-5 -55q-21 -182 -56 -335q-34 -68 -37 -107q1 -21 17 -16q16 6 18 23q1 2 1 3q15 46 28 102q19 37 42 67q6 -42 57 -109q82 -93 166 -122q20 -4 28 -3q-70 21 -138 91q-26 28 -38 43t-29 41.5t-25 51.5q-6 14 -2 31q5 6 10 11
q9 7 38.5 31.5t48 41t35.5 35.5q18 10 17 31q0 22 -22 16q-2 0 -4 -1q-46 -15 -98 -81q-31 -44 -39 -67q-17 -17 -32 -39q7 32 20 105q3 15 10 56t10 62.5t7 54.5t5 61q2 9 -4 29t-13 20zM262 361h4q-24 -29 -94 -87l-3 -2q42 64 93 89z" />
    <glyph glyph-name="l" unicode="l" horiz-adv-x="240" 
d="M163 608q10 1 14 -4.5t2 -17.5q-2 -8 -10 -25.5t-9 -25.5q-31 -93 -66 -267q-28 -154 -26 -225q-2 -19 8.5 -33.5t28.5 -7.5q13 4 27.5 13t22 15t24.5 21.5t21 18.5q11 10 27.5 31t21.5 26q-1 -2 -5 -14q-51 -97 -128 -127q-16 -8 -35 -2.5t-26 22.5q-4 12 -6 29t-2 25
t1.5 33t1.5 26q17 164 69 381q2 7 8 30t11 38.5t12 28.5q4 11 13 11z" />
    <glyph glyph-name="m" unicode="m" horiz-adv-x="590" 
d="M146 402q-45 0 -84 -55q-1 -2 -5.5 -10t-7 -13.5t-5 -13t-1.5 -12t5 -7.5q14 9 33.5 32t27.5 29q37 31 43 11q1 -8 1.5 -16.5t0.5 -15t-1.5 -16.5t-2 -15.5t-3 -17t-3 -15t-3.5 -16.5t-4 -15q-15 -56 -27 -90q-20 -32 -39 -68q-20 -30 -16 -47q3 -10 18 -6q5 4 10 9.5
t8.5 10t8 12.5t6 11t6 13t5.5 12q11 26 20 50q5 7 11 16q44 68 85 117.5t91 84.5q8 9 8 6q1 -1 -1 -7q-2 -11 -1 -15q-9 -47 -36 -133.5t-31 -99.5q-3 -9 -4.5 -14.5t-2.5 -14.5t3.5 -12.5t14.5 -1.5q9 10 18 22t19 27.5t16 23.5q5 6 21 29t22.5 31.5t21 28t23.5 30.5
t22.5 26.5t26 28.5t26.5 25q1 0 5 3.5t6 5t6.5 4.5t7 4.5t6.5 3t7.5 1.5h6.5t6 -2.5t5 -5.5q0 -13 1 -18.5t-2 -18t-4.5 -18t-5.5 -18t-6 -17.5q-38 -101 -31 -189q2 -33 18.5 -60.5t46.5 -34.5q25 -6 37 1q-42 0 -64 24q-34 38 -22 128q5 35 25 97t25 86q11 53 -18 64
q-14 4 -29.5 -1.5t-24 -12t-23.5 -18.5q-17 -16 -35 -36t-30 -34t-31.5 -40.5t-27 -36.5t-30 -42t-27.5 -38q7 21 22 67.5t25.5 82.5t16.5 69q6 14 0.5 33t-23.5 15q-9 -3 -16.5 -7.5t-16 -11.5t-13 -10t-15 -13t-12.5 -12q-48 -47 -91 -106q13 51 19 100q4 61 -27 72
q-6 1 -11 1z" />
    <glyph glyph-name="n" unicode="n" horiz-adv-x="375" 
d="M146 399q-4 0 -7 -1q-47 -5 -89 -69q-19 -41 -1 -39h3q12 9 36.5 38.5t45.5 37.5q11 8 16 0t4 -20q1 -56 -26 -149q-39 -66 -68 -132q0 -2 -2 -7l-3 -7.5t-2 -7t-1 -7.5t1 -6.5t4 -5.5t7 -3q5 1 9.5 3.5t8.5 7t6 8t6 9.5t5 8q34 63 58 145q19 31 40 62q18 24 27 35.5
t26.5 29t34.5 27.5q11 8 24 4t11 -18q0 -19 -4.5 -38t-14.5 -46.5t-13 -36.5q-31 -111 -13 -177q7 -27 27 -46.5t47 -20.5q16 0 24 3q-1 0 -16 2q-22 2 -39.5 16t-24.5 35q-2 7 -3.5 15.5t-2.5 14.5t-1 16.5v15t1.5 16.5t1.5 14.5t2 16.5t2 15q4 31 34 117q0 3 3.5 14
t4.5 15.5t3 14t2 15.5t-1 14t-3 15q-7 16 -26.5 18.5t-32.5 -6.5q-20 -11 -39.5 -29.5t-30 -31.5t-29.5 -39q-3 -4 -4 -6q14 71 5 105q-2 12 -12 19.5t-21 6.5z" />
    <glyph glyph-name="o" unicode="o" horiz-adv-x="375" 
d="M222 386q-27 0 -51 -13q-68 -34 -118 -128q-34 -67 -15 -110q7 -18 24 -21q8 -23 18 -43q17 -29 44.5 -48.5t58.5 -18.5q58 4 110 70q55 73 56 141q-1 43 -17 82.5t-47 66.5q-26 22 -63 22zM221 366q35 0 58 -25q25 -26 37 -63.5t10 -75.5q-9 -65 -62 -125
q-48 -52 -93 -46q-28 6 -48.5 29t-29.5 53q-2 9 -3 16l2 4q-1 -1 -3 -1q-10 43 -6 71q0 1 0.5 4.5t0.5 5v5t-0.5 6t-1 5.5t-1.5 5t-2 3.5t-2.5 2.5t-3.5 1q4 7 8 15q48 79 107 103q16 7 33 7zM50 191v-17q4 -27 10 -50q-2 1 -4 3q-18 19 -7 61q0 1 1 3z" />
    <glyph glyph-name="p" unicode="p" horiz-adv-x="350" 
d="M78 396q-6 0 -10.5 -10.5t-7 -27t-3.5 -20.5q-2 -9 -5 -31q-22 -18 -32 -36q2 -88 -3 -180q-1 -14 -2 -29q-15 -99 -24 -164q-2 -15 -6 -42t-5.5 -42t-4 -42.5t-2 -42.5t2.5 -42q15 -27 29 2q8 17 6 33q16 142 24 289q0 1 0.5 2t0.5 2q5 -8 19 -1q154 45 271 97
q7 0 30 19l2 2q-2 0 -9 -4q-84 -36 -237 -79q57 40 126 115q26 31 39.5 48.5t29.5 47.5t22 58q5 26 -12 47.5t-44 24.5q-43 5 -86 -10t-93 -44q-3 -3 -7 -5q2 36 -5 65h-4zM253 371q8 0 17 -1q19 -2 31 -16.5t8 -32.5q-5 -25 -19 -51.5t-25.5 -42t-34.5 -43.5
q-94 -105 -176 -147q-10 0 -15 -6q5 32 16.5 98.5t16.5 101.5q2 13 6 38t6 34q0 1 21 15q91 53 148 53zM47 272q-1 -5 -5 -32q0 16 -1 24q2 4 6 8z" />
    <glyph glyph-name="q" unicode="q" horiz-adv-x="350" 
d="M238 400q-50 0 -96 -28t-71 -74q-31 -56 -38 -120.5t13 -125.5q10 -30 39.5 -44.5t58.5 -4.5q74 24 128 113q-8 -45 -32.5 -180t-34.5 -209q-1 -11 -4.5 -37.5t-5 -41t-1 -36t4.5 -39.5q8 -20 22 -15.5t25.5 16.5t18.5 25q30 45 47.5 76.5t33.5 77t17 87.5q0 28 -11.5 58
t-24 49.5t-33.5 49.5q-18 50 35 110q9 10 18 17q10 7 10 8q1 4 -15 -6q-4 -3 -6 -5q-45 -35 -56 -83q13 64 25 150q26 74 22 144q-25 23 -31 -29q0 -5 -1 -13q-1 -4 -1 -6q-4 -38 -9 -81q-14 -41 -36 -76q-59 -91 -125 -101q-24 -3 -40.5 16.5t-19.5 45.5q-12 69 7 136
t69 109q14 12 34.5 20.5t32.5 11t42 6.5t36 5q15 0 14 7q-1 8 -17 12q-3 1 -6 1q-18 4 -38 4zM280 36q-4 -20 0 -40q5 -9 25.5 -42.5t27.5 -54.5q32 -91 -42 -222q-5 -7 -15.5 -25t-17 -28t-17 -23.5t-20.5 -23.5q-5 3 -6.5 12.5t-0.5 26.5t1 19q4 46 12 101.5t15 94t19 103
t18 96.5q0 1 1 6z" />
    <glyph glyph-name="r" unicode="r" 
d="M76 373q-6 0 -9.5 -7t-1.5 -14q1 -15 4.5 -47.5t5.5 -56.5t2 -47q-1 -35 -3 -65q-7 -14 -13 -31q0 -1 -3.5 -10.5t-4 -10.5t-3.5 -10.5t-3 -10.5t-2.5 -11t-2 -11t-1.5 -11t-0.5 -11.5t0.5 -10.5q0 -14 13 -15t17 11q18 39 29 122q0 6 1 12q24 55 59 103q39 55 91 75
q14 6 45.5 14t46.5 15q16 12 7 17q-20 10 -63 -2q-81 -29 -120 -72q-34 -38 -63 -89q1 42 -4 111q0 5 -1 14.5t-1.5 15t-3.5 13t-8 12.5q-4 8 -10 8z" />
    <glyph glyph-name="s" unicode="s" 
d="M242 410q-20 0 -40 -8q-26 -10 -45 -28t-21 -43q-2 -6 -0.5 -17.5t1 -17t3 -17t5 -16.5t5.5 -16.5t6 -16.5t7 -16t7 -16q2 -6 11.5 -27.5t13.5 -32t8.5 -28t4.5 -32.5q1 -18 -10.5 -31.5t-28.5 -18.5q-78 -25 -137 8q-16 9 -21.5 28.5t0.5 36.5q3 14 1 13q-6 -2 -12 -23
q-1 -3 -1 -5q-5 -20 4 -40t27 -30q33 -19 92 -17q69 6 94 38q24 33 2 102q-4 11 -28.5 71t-28.5 94q-3 18 4 35t22 25q51 32 85 7q4 -4 11 -12.5t13.5 -14t15.5 -7.5q9 5 7.5 15t-5.5 17.5t-11 14.5q-21 26 -61 26z" />
    <glyph glyph-name="t" unicode="t" horiz-adv-x="375" 
d="M226 605q-13 0 -19 -13q-7 -9 -13 -20.5t-10 -19.5t-9.5 -23t-8 -21t-8.5 -24l-7 -21q-11 -37 -19 -70q-43 -8 -99 -23q-18 6 -29 -11q-12 -17 8 -25q16 4 46 13t42 12q7 2 25 6q-27 -114 -27 -209q2 -28 4 -45t11 -40t25 -37q47 -35 138 -10q78 24 118 75q4 7 5 12
q-3 -1 -19.5 -16t-25.5 -18q-65 -33 -119 -42q-75 -11 -98 31q-15 33 -17 77.5t4 79.5q9 75 28 149q117 29 188 27q6 0 6 2.5t-5 4.5q-51 7 -136 -3q-22 -2 -46 -6q18 63 43 122q3 9 14.5 28.5t12.5 23.5q15 -10 19 -1q7 13 -1.5 24t-20.5 11z" />
    <glyph glyph-name="u" unicode="u" horiz-adv-x="375" 
d="M72 388q-6 -1 -11 -10q-19 -31 -36 -107q-23 -124 11 -204q13 -33 43 -54t65 -20q57 0 95 68q14 25 26 56.5t18.5 54t17 60.5t16.5 57q-4 -58 0 -105q4 -59 27.5 -111.5t65.5 -86.5q4 -3 8 -5q9 -6 10 -4.5t-7 7.5q-55 51 -72 131q-26 97 -6 231q5 11 3.5 27.5t-17.5 7.5
q-20 -43 -40 -112q-2 -7 -14 -49.5t-17.5 -58.5t-18 -46t-26.5 -52t-36 -35.5t-46 -9.5q-27 4 -47.5 24.5t-28.5 48.5q-27 87 8 206q2 5 10 29.5t9 38.5q2 8 -1.5 15.5t-8.5 7.5z" />
    <glyph glyph-name="v" unicode="v" 
d="M35 400q-7 0 -9 -9t3 -17q19 -50 22 -116q8 -166 25 -245q11 -48 41 -48q13 1 25.5 10t17 15.5t16.5 22.5q49 78 92 210q18 61 22 87q5 -2 14.5 -6.5t11.5 -4.5q16 -5 17 -5q-6 5 -12.5 9.5t-15.5 9.5t-13 8q2 19 2 36q2 14 -9 23t-23 1q-12 -5 -17.5 -16.5t1.5 -22.5
q10 -12 26 -23q-14 -79 -61 -192q-14 -31 -21.5 -46.5t-22.5 -40t-31 -41.5q-8 -13 -20.5 -9.5t-13.5 19.5q-9 36 -17 122q-3 24 -4.5 96t-8.5 111q0 1 -2.5 11.5t-3.5 14t-4 11t-7.5 12t-9.5 8.5q-5 5 -10 5zM271 364q6 0 3 -31q-27 23 -4 31h1z" />
    <glyph glyph-name="w" unicode="w" horiz-adv-x="510" 
d="M454 427q-25 -1 -44 -45q-6 -15 -7 -26q1 0 4 6t6.5 14t6.5 11q4 10 13 19t19.5 9t14.5 -14q3 -10 4.5 -21t2.5 -23.5t1.5 -21t0 -24t-1 -21.5t-1.5 -23.5t-1 -21.5q-15 -145 -87 -216q-2 -2 -6.5 -6t-7 -6t-7.5 -5.5t-8 -5.5t-7.5 -4t-8.5 -2.5t-8.5 -1t-9.5 1.5
q-4 2 -8 5.5t-7 6.5t-6 8.5t-4.5 8.5t-4 9.5t-3 9t-2.5 10t-3 9.5q-5 23 -8.5 49.5t-5 44.5t-3 51.5t-1.5 45v51.5v47q6 15 -5 28q-8 10 -17 -4q-6 -19 -16 -60t-16 -62q-14 -44 -20 -63t-21.5 -52.5t-33.5 -56.5q-12 -16 -28 -22t-34 4q-32 25 -33 97q2 103 55 179
q0 1 1 2.5l2 3l2 3t2.5 3.5t2.5 3l3 3q5 5 6.5 7.5t3 5.5t-1 4.5t-9.5 2.5q-16 -3 -29.5 -14.5t-20.5 -23t-15 -29.5q-44 -104 -26 -199q6 -30 24 -53.5t46 -27.5q48 -6 87 60q38 67 69 189q1 -61 4 -106q0 -3 1.5 -17t1.5 -18t1.5 -16.5t2.5 -17.5t2.5 -16.5t3 -17.5l4 -16
t5 -17t6 -15.5t7.5 -15.5q9 -19 28 -28.5t38 -1.5q66 29 106 118q54 128 33 269q0 2 -1.5 10t-2.5 11t-3 10t-4 10t-5.5 7.5t-8 7t-9.5 3.5zM265 371q3 -1 -1 -2q1 0 1 0.5v1.5z" />
    <glyph glyph-name="x" unicode="x" 
d="M261 398q-6 0 -13.5 -6t-10.5 -12q-16 -31 -77 -148q-38 -71 -51 -93q-21 54 -34 136q-4 29 -5 87q3 15 -13 22q-17 7 -19 -10v-4q3 -88 25 -172q15 -52 30 -84q-18 -29 -37 -53q-2 -3 -14.5 -14.5t-14.5 -20.5q-4 -18 11 -19.5t21 12.5q25 29 49 68q15 -24 34 -41
q18 -19 43.5 -24.5t49.5 4.5q29 13 50.5 37.5t44.5 60.5l1 2q1 7 -1 6q-7 -6 -17.5 -20.5t-16.5 -20.5q-48 -54 -89 -56q-44 -1 -78 58q-4 7 -8 15q11 19 44 80q8 15 24 47t29.5 56.5t26.5 45.5q3 6 10.5 14.5t12 16.5t3.5 16q0 14 -10 14z" />
    <glyph glyph-name="y" unicode="y" horiz-adv-x="375" 
d="M81 381q-6 0 -17 -13t-13 -22q-41 -96 -37 -217q3 -43 14 -74t40 -45q43 -14 86 7.5t71 61.5q52 74 72 163q3 -70 -10 -174q-7 -45 -16 -88q-42 -57 -74 -111q-81 -151 -111 -268q-10 -22 8.5 -30t30.5 13q61 78 119 227q33 91 52 180q31 46 70 97q1 3 6.5 11t9 13.5
t2.5 6.5q-46 -53 -82 -99q25 135 16 260q-5 50 -12 59q-8 10 -21 -1q-7 -79 -17 -110q-42 -133 -115 -181q-15 -9 -31 -13t-33 -0.5t-26 16.5q-17 30 -19.5 72t2.5 75q3 34 18.5 93t18.5 74q5 18 -2 17zM262 -61q-46 -185 -138 -324q-16 -23 -18 -23q-1 0 0 6q20 85 76 201
q34 68 80 140z" />
    <glyph glyph-name="z" unicode="z" horiz-adv-x="350" 
d="M240 399q-27 0 -76 -5q-3 -1 -8 -2q-78 -12 -111 -35q-13 -8 -18 -23t6 -27q9 -1 21 14t20 17q49 25 145 33q5 1 20.5 1.5t18.5 1.5q-10 -28 -18 -38q-25 -42 -86 -124t-88 -127q-1 -2 -6 -11.5t-6.5 -12t-6 -12t-4.5 -12.5t-2.5 -13t0.5 -13q4 -23 37 -23q88 -2 182 31
q54 22 71 51q8 16 1 31t-22 24q-9 5 -16 8q1 -4 10.5 -12t11.5 -12q11 -11 7 -25.5t-17 -21.5q-21 -13 -76 -33q-90 -26 -160 -20q-6 1 -8.5 5t-1 10t3.5 11t5.5 11.5t4.5 9.5q11 21 27.5 45t28 40t33 44.5t30.5 40.5q5 6 22 29t24.5 34t19 29.5t19.5 35.5q7 11 4.5 26
t-16.5 18q-12 1 -26 1z" />
    <glyph glyph-name="braceleft" unicode="{" 
d="M216 487q-39 -8 -60 -41q-31 -55 -37 -139q-3 -58 -45 -75q-18 -1 -20 -17.5t15 -23.5q47 -34 38 -111q0 -25 -0.5 -47.5t3 -48t11.5 -46.5t26.5 -34t40.5 -13h1l11 3q-2 2 -9 3q-41 4 -54 33q-14 29 -16 71t1 73q7 38 -2 74.5t-37 59.5q-1 1 -1 2q24 10 39 28
q18 23 25.5 74t10.5 60l6 18t7.5 21.5t9 16t14.5 15.5q17 3 28 21q11 17 -6 23z" />
    <glyph glyph-name="bar" unicode="|" horiz-adv-x="215" 
d="M127 480q-7 0 -11 -11q-6 -36 -12 -149q-7 -132 0 -417l1 -4l1 -3q4 0 5 7t0.5 15t0.5 14q6 224 14 313q1 18 4 62.5t6 77t8 61.5q6 10 -1 22t-16 12z" />
    <glyph glyph-name="braceright" unicode="}" 
d="M148 483q-5 0 -11 -2q-21 -13 23 -36q2 -1 3 -2q31 -15 32 -74q-1 -69 10 -106q14 -46 31 -62q-48 -30 -59 -112q-5 -70 -22 -127q-12 -64 -50 -78q-8 -2 -9 -4q-2 -1 2 -2q10 -2 17 3q37 17 53 84q15 43 27 126q15 81 68 98q7 3 8.5 8t-2.5 9.5t-8.5 8t-9.5 5.5
q-26 39 -29 110q0 23 1 44t-5.5 43.5t-20.5 37.5q-31 28 -49 28zM251 192l4 -2z" />
    <glyph glyph-name="asciitilde" unicode="~" 
d="M113 238q-18 0 -48 -20q-1 -1 -5.5 -4t-6.5 -4.5t-4 -5t0 -6.5q5 -21 19 -17q4 2 10.5 8.5t9.5 8.5q21 15 32 12q8 -3 19.5 -14t13.5 -13q26 -22 57 -17q33 6 81 43q1 2 2 3q-3 3 -4.5 2.5t-6.5 -3.5t-6 -3q-46 -25 -72 -25q-22 0 -40 21q0 1 -3.5 5t-4.5 5l-4.5 4.5
l-5 5t-4.5 4t-5.5 4t-5.5 3t-6.5 2t-6.5 1.5h-5z" />
    <glyph glyph-name="nonbreakingspace" unicode="&#xa0;" horiz-adv-x="200" 
 />
    <glyph glyph-name="exclamdown" unicode="&#xa1;" horiz-adv-x="166" 
d="M120 -141h-72l7 337h56zM132 296q0 -20 -14 -34t-34 -14t-34 14t-14 34t14 34t34 14t34 -14t14 -34z" />
    <glyph glyph-name="cent" unicode="&#xa2;" horiz-adv-x="479" 
d="M418 52q-53 -29 -133 -31v-77h-55v80q-78 14 -123.5 68.5t-45.5 136.5t45.5 136.5t123.5 68.5v80h55v-77q80 -2 133 -31l-21 -48q-25 11 -52 17t-56 6q-79 0 -123.5 -40t-44.5 -112t44.5 -112t123.5 -40q29 0 56 6t52 17z" />
    <glyph glyph-name="sterling" unicode="&#xa3;" horiz-adv-x="479" 
d="M391 0h-302v37q82 51 82 124q0 8 -1 21t-3 27h-77v46h71q-2 21 -3.5 38.5t-1.5 34.5q0 140 131 140q40 0 91 -23l-18 -42q-44 18 -75 18q-80 0 -80 -93q0 -38 7 -73h111v-46h-103q1 -8 1.5 -19.5t0.5 -21.5q0 -73 -42 -121h211v-47z" />
    <glyph glyph-name="currency" unicode="&#xa4;" horiz-adv-x="479" 
d="M427 226q0 -59 -34 -106l37 -39l-43 -46l-39 41q-44 -35 -109 -35q-63 0 -107 35l-39 -41l-43 46l37 39q-34 47 -34 106t34 106l-37 39l43 46l39 -41q44 35 107 35q65 0 109 -35l39 41l43 -46l-37 -39q34 -47 34 -106zM365 226q0 51 -37 88t-88 37q-53 0 -89 -37t-36 -88
q0 -53 36 -89t89 -36q51 0 88 36t37 89z" />
    <glyph glyph-name="yen" unicode="&#xa5;" horiz-adv-x="479" 
d="M384 91h-115v-73h-58v73h-115v50h115v32h-115v50h105l-145 238h70l113 -190l114 190h71l-146 -237h106v-51h-115v-32h115v-50z" />
    <glyph glyph-name="brokenbar" unicode="&#xa6;" horiz-adv-x="160" 
d="M104 220h-48v256h48v-256zM104 -119h-48v257h48v-257z" />
    <glyph glyph-name="section" unicode="&#xa7;" horiz-adv-x="379" 
d="M307 71q0 -51 -36.5 -80t-92.5 -29q-63 0 -110 38l23 42q20 -19 42 -27t47 -8q36 0 57.5 16.5t21.5 42.5q0 35 -48 59q-25 10 -52 20.5t-52 21.5q-53 26 -53 82q0 43 39 78q-18 23 -18 52q0 45 34 73t90 28q26 0 52.5 -8t52.5 -22l-25 -43q-40 29 -85 29q-29 0 -49 -14.5
t-20 -36.5q0 -11 6.5 -20t17.5 -17q8 -5 26 -12.5t42 -15.5q51 -18 79.5 -45.5t28.5 -62.5q0 -23 -10 -43.5t-27 -39.5q19 -23 19 -58zM274 207q0 17 -19.5 34.5t-49.5 28.5q-26 9 -45.5 17t-32.5 14q-25 -22 -25 -50q0 -12 8 -21.5t22 -19.5q10 -5 26.5 -12.5t42.5 -16.5
q19 -7 32 -12.5t22 -11.5q11 13 15 25t4 25z" />
    <glyph glyph-name="dieresis" unicode="&#xa8;" horiz-adv-x="340" 
d="M140 425q0 -19 -13 -31.5t-30 -12.5q-18 0 -31 12.5t-13 31.5q0 18 13 31t31 13q17 0 30 -13t13 -31zM288 425q0 -19 -13 -31.5t-30 -12.5t-30.5 12.5t-13.5 31.5q0 18 13.5 31t30.5 13t30 -13t13 -31z" />
    <glyph glyph-name="copyright" unicode="&#xa9;" horiz-adv-x="375" 
d="M236 361q-37 0 -76 -21q-79 -45 -102 -120q-10 -32 0 -67t33 -64q46 -57 100 -51q66 6 116 61q1 0 2.5 2.5t3 4.5t3 4.5t2 4t-0.5 1.5q-58 -58 -125 -60q-49 -2 -86 45q-48 60 -28 117q25 69 99 107q58 27 97 3q24 -16 31 -47t-5 -57q-18 -41 -46 -66q-5 -4 -5.5 -4.5
t-2.5 4t-5 6.5q-9 10 -20 6t-15 -15q-6 -10 -18 -11t-20 5q-11 11 -13.5 28t3.5 30q25 46 62 52q6 1 10 -3.5t6.5 -14t3.5 -11.5q9 -13 18 8q4 11 2 18q0 15 -12.5 25.5t-27.5 9.5q-47 -3 -80 -58q-13 -18 -14 -42t9 -44t32.5 -27.5t42.5 3.5q8 3 17 17l4.5 -4.5l3.5 -3.5
q19 -13 43 14q36 40 48 81q10 35 -2 70.5t-42 52.5q-21 11 -46 11z" />
    <glyph glyph-name="ordfeminine" unicode="&#xaa;" horiz-adv-x="250" 
d="M225 248h-43q-2 5 -3 11.5t-3 14.5q-28 -29 -70 -29q-80 0 -80 72q0 80 147 83q-2 25 -17.5 35.5t-35.5 10.5q-17 0 -34.5 -4t-34.5 -16l-14 34q21 14 44 20t46 6q90 0 90 -110v-84q0 -5 1.5 -16.5t6.5 -27.5zM173 324v39q-54 0 -78.5 -11.5t-24.5 -34.5q0 -35 42 -35
q9 0 19.5 3t20 8.5t15.5 13t6 17.5z" />
    <glyph glyph-name="guillemotleft" unicode="&#xab;" horiz-adv-x="355" 
d="M326 47h-60l-114 132l114 135h59l-113 -134zM204 47h-61l-113 132l111 136h62l-114 -136z" />
    <glyph glyph-name="logicalnot" unicode="&#xac;" horiz-adv-x="446" 
d="M403 88h-48v146h-321v45h369v-191z" />
    <glyph glyph-name="sfthyphen" unicode="&#xad;" horiz-adv-x="422" 
d="M43.5 167q-5.5 15 1.5 29t23 19l17 5q23 8 47 10q19 2 37 1q18 0 46 -1q27 -1 63 0q43 1 62 -3l13 -5q15 -4 23 -18t4 -30t-18 -24t-30 -3l-13 4q-8 2 -40 1q-39 -2 -67 0h-44h-32q-12 -1 -25 -4l-18 -5q-15 -5 -29.5 2t-20 22z" />
    <glyph glyph-name="registered" unicode="&#xae;" horiz-adv-x="375" 
d="M216 359q-39 0 -76 -25q-70 -48 -84 -121q-6 -35 7 -70.5t38 -64.5q42 -45 90 -40q65 6 115 60q11 14 12 19q-32 -30 -57 -42q-62 -32 -107 -12q-30 14 -50 42t-28 62q-12 50 26 102q46 62 106 69q46 1 72 -25q22 -24 17 -87q-2 -48 -32 -77q-8 -9 -20 -8.5t-19 9.5
q-11 11 -15 23.5t3 25.5q4 3 16 11.5t17 15.5q12 10 15.5 24.5t-4.5 27.5q-15 18 -41 18t-41 -19q-8 -11 -13 -26t-8.5 -33.5t-7.5 -28.5q-3 -9 -12 -28t-11 -30q-8 -15 5 -15q12 0 18 10q12 12 21 30.5t12 31.5t7 37q1 2 2.5 9.5t2.5 10.5t3.5 8.5t6 8.5t8.5 5q9 4 20 -1.5
t3 -15.5q-6 -8 -21.5 -19.5t-20.5 -19.5q-11 -20 -5 -41.5t22 -37.5q12 -12 28 -15.5t31 4.5q38 21 50 77q8 70 -3 102q-8 22 -27.5 36.5t-43.5 19.5q-13 3 -27 3z" />
    <glyph glyph-name="macron" unicode="&#xaf;" horiz-adv-x="375" 
d="M376 528h-376v53h376v-53z" />
    <glyph glyph-name="degree" unicode="&#xb0;" horiz-adv-x="275" 
d="M227 397q0 -37 -26 -63t-63 -26t-63 26t-26 63t26 63t63 26t63 -26t26 -63zM195 397q0 23 -17 40t-40 17t-40 -17t-17 -40t17 -40t40 -17t40 17t17 40z" />
    <glyph glyph-name="plusminus" unicode="&#xb1;" horiz-adv-x="439" 
d="M405 0h-369v55h369v-55zM400 217h-148v-139h-63v139h-148v55h148v151h63v-151h148v-55z" />
    <glyph glyph-name="twosuperior" unicode="&#xb2;" horiz-adv-x="259" 
d="M217 190h-190q0 31 22.5 59.5t49 54.5t49 50.5t22.5 47.5q0 17 -9.5 26t-24.5 9q-19 0 -34 -14t-17 -41l-42 8q5 45 29 68.5t61 23.5q38 0 61.5 -21.5t23.5 -58.5q0 -21 -13 -46t-41 -54l-65 -67h124z" />
    <glyph glyph-name="threesuperior" unicode="&#xb3;" horiz-adv-x="259" 
d="M228 294q0 -48 -31.5 -77t-85.5 -30q-41 0 -75 25l20 42q14 -12 28 -16t28 -4q32 0 50.5 16.5t18.5 42.5q0 17 -10.5 26t-24.5 9q-12 0 -24 -4.5t-20 -10.5l-16 30q39 18 58.5 37.5t19.5 35.5q0 22 -28 22q-17 0 -33 -11.5t-24 -34.5l-37 19q31 72 97 72q69 0 69 -59
q0 -34 -32 -62q52 -15 52 -68z" />
    <glyph glyph-name="acute" unicode="&#xb4;" horiz-adv-x="201" 
d="M116.5 472q-10.5 -1 -17 -8.5t-4.5 -15.5l1 -15q3 -9 -4 -22q-11 -22 -17 -23l-7 -3q-10 -3 -14.5 -12t0.5 -17t15.5 -11t20.5 0l8 4q13 5 25 17q10 11 20 32t7 42l-2 14q-2 8 -11.5 13.5t-20 4.5z" />
    <glyph glyph-name="mu" unicode="&#xb5;" horiz-adv-x="412" 
d="M386 4l-61 -12q-5 11 -8.5 22.5t-6.5 25.5q-28 -22 -57.5 -35.5t-64.5 -13.5q-23 0 -43.5 8t-34.5 25v-165h-63v483h63v-182q0 -113 86 -113q37 0 71.5 25.5t34.5 66.5v203h63v-251q0 -18 5.5 -40t15.5 -47z" />
    <glyph glyph-name="paragraph" unicode="&#xb6;" horiz-adv-x="379" 
d="M324 -63h-34v506h-48v-506h-35v243h-4q-60 0 -107.5 37.5t-47.5 103.5q0 154 198 154q53 0 78 -5v-533z" />
    <glyph glyph-name="periodcentered" unicode="&#xb7;" horiz-adv-x="170" 
d="M134 182q0 -20 -14 -34t-34 -14t-34 14t-14 34t14 34t34 14t34 -14t14 -34z" />
    <glyph glyph-name="cedilla" unicode="&#xb8;" horiz-adv-x="247" 
d="M196 -90q0 -32 -21 -50.5t-59 -18.5q-14 0 -31 4.5t-32 13.5l14 32q14 -7 28.5 -11t22.5 -4q32 0 32 30q0 28 -64 39l43 66h43l-28 -39q27 -8 39.5 -23.5t12.5 -38.5z" />
    <glyph glyph-name="onesuperior" unicode="&#xb9;" horiz-adv-x="259" 
d="M210 195h-134v39h43v180l-40 -38l-25 34l83 74q15 0 23 -9.5t8 -24.5v-216h42v-39z" />
    <glyph glyph-name="ordmasculine" unicode="&#xba;" horiz-adv-x="292" 
d="M274 359q0 -54 -37.5 -90.5t-90.5 -36.5q-54 0 -90.5 36.5t-36.5 90.5q0 53 36.5 90.5t90.5 37.5q53 0 90.5 -37.5t37.5 -90.5zM230 359q0 34 -25 59t-59 25t-58.5 -25t-24.5 -59t24.5 -58.5t58.5 -24.5t59 24.5t25 58.5z" />
    <glyph glyph-name="guillemotright" unicode="&#xbb;" horiz-adv-x="355" 
d="M90 47h-60l114 133l-113 134h59l114 -135zM213 47h-61l115 132l-114 136h62l111 -136z" />
    <glyph glyph-name="onequarter" unicode="&#xbc;" horiz-adv-x="541" 
d="M180 176h-134v39h43v174l-38 -33l-28 36l84 74q31 -2 31 -35v-216h42v-39zM158 -9h-50l287 483h50zM415 108v118q-23 -20 -39.5 -53.5t-20.5 -64.5h60zM464 0h-49v60h-112q0 32 10 72t30 75.5t51.5 60t69.5 25.5v-185h42l-2 -48h-40v-60z" />
    <glyph glyph-name="onehalf" unicode="&#xbd;" horiz-adv-x="541" 
d="M520 0h-190q3 38 25.5 67t47.5 52q12 12 24.5 23.5t22.5 23.5t16.5 23.5t6.5 22.5q0 14 -8.5 24t-25.5 10q-41 0 -48 -54l-45 8q4 45 28.5 68.5t61.5 23.5q38 0 62 -21t24 -59q0 -25 -14.5 -47t-34 -42.5t-39.5 -39.5t-32 -37h124zM158 -9h-50l287 483h50zM180 176h-134
v39h43v174l-38 -33l-28 36l84 74q31 -2 31 -35v-216h42v-39z" />
    <glyph glyph-name="threequarters" unicode="&#xbe;" horiz-adv-x="541" 
d="M158 -9h-50l287 483h50zM223 285q0 -26 -10 -46t-26 -33.5t-37.5 -20.5t-43.5 -7q-41 0 -75 25l20 43q14 -11 28 -16.5t28 -5.5q32 0 50.5 17t18.5 43q0 35 -33 35q-25 0 -46 -18l-16 30q44 23 59.5 41t15.5 38q0 8 -6 13.5t-19 5.5q-40 0 -57 -49l-37 19q30 72 97 72
q35 0 51.5 -16t16.5 -38q0 -34 -31 -62q27 -4 39.5 -23t12.5 -47zM415 108v118q-23 -20 -39.5 -53.5t-20.5 -64.5h60zM464 0h-49v60h-112q0 32 10 72t30 75.5t51.5 60t69.5 25.5v-185h42l-2 -48h-40v-60z" />
    <glyph glyph-name="questiondown" unicode="&#xbf;" horiz-adv-x="287" 
d="M265 -114q-59 -37 -115 -37q-57 0 -91.5 30.5t-34.5 81.5q0 53 66 121q23 23 34 46.5t12 44.5q0 17 -7 42h57q5 -14 7.5 -25.5t2.5 -19.5q0 -55 -58 -116q-51 -54 -51 -91q0 -57 70 -57q43 0 83 29zM201 293q0 -20 -14 -34t-33 -14t-33 14t-14 34t14 34t33 14t33 -14
t14 -34z" />
    <glyph glyph-name="Agrave" unicode="&#xc0;" horiz-adv-x="400" 
d="M286 744q-5 0 -8 -2q-9 -3 -8 -10q4 -16 28 -102q6 -19 19.5 -60t19.5 -60q4 -3 4.5 -3t2.5 5q-3 19 -11.5 58.5t-11.5 60.5q-3 18 -7.5 40t-7.5 35.5t-3 16.5q0 17 -4 19t-13 2zM319 602q-13 -1 -23 -9q-14 -10 -28 -27t-20.5 -26.5t-21.5 -36.5t-18 -31
q-54 -95 -106 -221q-5 -1 -17 -2.5t-18 -2.5q-9 -1 -12.5 -11.5t2.5 -17.5q3 -3 7.5 -3.5t8 0.5t9 2.5t7.5 2.5q-22 -56 -51 -136q-2 -4 -6 -16.5t-5.5 -18.5t-3.5 -16t-0.5 -18.5t6.5 -16.5q10 4 16.5 14t11 27t6.5 22q29 91 59 167q135 32 227 34h3q-1 -16 -3 -36
q-20 -190 -34 -262l-1 -8l-1 -14q1 1 2 4q18 48 41 167q11 82 16 149q10 1 28 2.5t20 2.5h3l2 1q0 4 -6 6t-14.5 3t-11.5 2q-8 2 -19 3q5 82 4 155q0 4 -0.5 21t-1 22.5t-2 20t-3 22.5t-4 20t-6.5 21.5t-9 18.5q-10 20 -33 20zM318 579q8 0 14 -6.5t8.5 -13.5t5.5 -19.5
t4 -15.5q14 -94 4 -244h-1.5h-0.5q-97 0 -218 -23q52 129 112 235q3 3 11.5 18t12.5 21t12 17t16 18t17 12q1 1 3 1z" />
    <glyph glyph-name="Aacute" unicode="&#xc1;" horiz-adv-x="400" 
d="M307.5 684q-10.5 -1 -17 -8.5t-4.5 -15.5l1 -15q3 -9 -4 -22q-11 -22 -17 -23l-7 -3q-10 -3 -14.5 -12t0.5 -17t15.5 -11t20.5 0l8 4q13 5 25 17q10 11 20 32t7 42l-2 14q-2 8 -11.5 13.5t-20 4.5zM319 602q-13 -1 -23 -9q-14 -10 -28 -27t-20.5 -26.5t-21.5 -36.5
t-18 -31q-54 -95 -106 -221q-5 -1 -17 -2.5t-18 -2.5q-9 -1 -12.5 -11.5t2.5 -17.5q3 -3 7.5 -3.5t8 0.5t9 2.5t7.5 2.5q-22 -56 -51 -136q-2 -4 -6 -16.5t-5.5 -18.5t-3.5 -16t-0.5 -18.5t6.5 -16.5q10 4 16.5 14t11 27t6.5 22q29 91 59 167q135 32 227 34h3q-1 -16 -3 -36
q-20 -190 -34 -262l-1 -8l-1 -14q1 1 2 4q18 48 41 167q11 82 16 149q10 1 28 2.5t20 2.5h3l2 1q0 4 -6 6t-14.5 3t-11.5 2q-8 2 -19 3q5 82 4 155q0 4 -0.5 21t-1 22.5t-2 20t-3 22.5t-4 20t-6.5 21.5t-9 18.5q-10 20 -33 20zM318 579q8 0 14 -6.5t8.5 -13.5t5.5 -19.5
t4 -15.5q14 -94 4 -244h-1.5h-0.5q-97 0 -218 -23q52 129 112 235q3 3 11.5 18t12.5 21t12 17t16 18t17 12q1 1 3 1z" />
    <glyph glyph-name="Acircumflex" unicode="&#xc2;" horiz-adv-x="400" 
d="M394 597h-54l-41 71l-40 -71h-55l78 115h35zM319 602q-13 -1 -23 -9q-14 -10 -28 -27t-20.5 -26.5t-21.5 -36.5t-18 -31q-54 -95 -106 -221q-5 -1 -17 -2.5t-18 -2.5q-9 -1 -12.5 -11.5t2.5 -17.5q3 -3 7.5 -3.5t8 0.5t9 2.5t7.5 2.5q-22 -56 -51 -136q-2 -4 -6 -16.5
t-5.5 -18.5t-3.5 -16t-0.5 -18.5t6.5 -16.5q10 4 16.5 14t11 27t6.5 22q29 91 59 167q135 32 227 34h3q-1 -16 -3 -36q-20 -190 -34 -262l-1 -8l-1 -14q1 1 2 4q18 48 41 167q11 82 16 149q10 1 28 2.5t20 2.5h3l2 1q0 4 -6 6t-14.5 3t-11.5 2q-8 2 -19 3q5 82 4 155
q0 4 -0.5 21t-1 22.5t-2 20t-3 22.5t-4 20t-6.5 21.5t-9 18.5q-10 20 -33 20zM318 579q8 0 14 -6.5t8.5 -13.5t5.5 -19.5t4 -15.5q14 -94 4 -244h-1.5h-0.5q-97 0 -218 -23q52 129 112 235q3 3 11.5 18t12.5 21t12 17t16 18t17 12q1 1 3 1z" />
    <glyph glyph-name="Atilde" unicode="&#xc3;" horiz-adv-x="400" 
d="M423 655q-1 -35 -15.5 -55.5t-43.5 -20.5q-8 0 -19.5 4.5t-24 10t-23.5 10t-18 4.5q-8 0 -10 -7.5t-2 -16.5h-44q0 30 14.5 50.5t41.5 20.5q9 0 20.5 -4t22.5 -9.5t21.5 -9.5t17.5 -4q19 0 19 27h43zM319 602q-13 -1 -23 -9q-14 -10 -28 -27t-20.5 -26.5t-21.5 -36.5
t-18 -31q-54 -95 -106 -221q-5 -1 -17 -2.5t-18 -2.5q-9 -1 -12.5 -11.5t2.5 -17.5q3 -3 7.5 -3.5t8 0.5t9 2.5t7.5 2.5q-22 -56 -51 -136q-2 -4 -6 -16.5t-5.5 -18.5t-3.5 -16t-0.5 -18.5t6.5 -16.5q10 4 16.5 14t11 27t6.5 22q29 91 59 167q135 32 227 34h3q-1 -16 -3 -36
q-20 -190 -34 -262l-1 -8l-1 -14q1 1 2 4q18 48 41 167q11 82 16 149q10 1 28 2.5t20 2.5h3l2 1q0 4 -6 6t-14.5 3t-11.5 2q-8 2 -19 3q5 82 4 155q0 4 -0.5 21t-1 22.5t-2 20t-3 22.5t-4 20t-6.5 21.5t-9 18.5q-10 20 -33 20zM318 579q8 0 14 -6.5t8.5 -13.5t5.5 -19.5
t4 -15.5q14 -94 4 -244h-1.5h-0.5q-97 0 -218 -23q52 129 112 235q3 3 11.5 18t12.5 21t12 17t16 18t17 12q1 1 3 1z" />
    <glyph glyph-name="Adieresis" unicode="&#xc4;" horiz-adv-x="400" 
d="M327 635q0 -19 -13 -31.5t-30 -12.5q-18 0 -31 12.5t-13 31.5q0 18 13 31t31 13q17 0 30 -13t13 -31zM475 635q0 -19 -13 -31.5t-30 -12.5t-30.5 12.5t-13.5 31.5q0 18 13.5 31t30.5 13t30 -13t13 -31zM319 602q-13 -1 -23 -9q-14 -10 -28 -27t-20.5 -26.5t-21.5 -36.5
t-18 -31q-54 -95 -106 -221q-5 -1 -17 -2.5t-18 -2.5q-9 -1 -12.5 -11.5t2.5 -17.5q3 -3 7.5 -3.5t8 0.5t9 2.5t7.5 2.5q-22 -56 -51 -136q-2 -4 -6 -16.5t-5.5 -18.5t-3.5 -16t-0.5 -18.5t6.5 -16.5q10 4 16.5 14t11 27t6.5 22q29 91 59 167q135 32 227 34h3q-1 -16 -3 -36
q-20 -190 -34 -262l-1 -8l-1 -14q1 1 2 4q18 48 41 167q11 82 16 149q10 1 28 2.5t20 2.5h3l2 1q0 4 -6 6t-14.5 3t-11.5 2q-8 2 -19 3q5 82 4 155q0 4 -0.5 21t-1 22.5t-2 20t-3 22.5t-4 20t-6.5 21.5t-9 18.5q-10 20 -33 20zM318 579q8 0 14 -6.5t8.5 -13.5t5.5 -19.5
t4 -15.5q14 -94 4 -244h-1.5h-0.5q-97 0 -218 -23q52 129 112 235q3 3 11.5 18t12.5 21t12 17t16 18t17 12q1 1 3 1z" />
    <glyph glyph-name="Aring" unicode="&#xc5;" horiz-adv-x="400" 
d="M407 670q0 -33 -23.5 -56.5t-56.5 -23.5t-56.5 23.5t-23.5 56.5t23.5 56.5t56.5 23.5t56.5 -23.5t23.5 -56.5zM365 670q0 16 -11 27t-27 11t-27.5 -11t-11.5 -27t11.5 -27.5t27.5 -11.5t27 11.5t11 27.5zM319 602q-13 -1 -23 -9q-14 -10 -28 -27t-20.5 -26.5t-21.5 -36.5
t-18 -31q-54 -95 -106 -221q-5 -1 -17 -2.5t-18 -2.5q-9 -1 -12.5 -11.5t2.5 -17.5q3 -3 7.5 -3.5t8 0.5t9 2.5t7.5 2.5q-22 -56 -51 -136q-2 -4 -6 -16.5t-5.5 -18.5t-3.5 -16t-0.5 -18.5t6.5 -16.5q10 4 16.5 14t11 27t6.5 22q29 91 59 167q135 32 227 34h3q-1 -16 -3 -36
q-20 -190 -34 -262l-1 -8l-1 -14q1 1 2 4q18 48 41 167q11 82 16 149q10 1 28 2.5t20 2.5h3l2 1q0 4 -6 6t-14.5 3t-11.5 2q-8 2 -19 3q5 82 4 155q0 4 -0.5 21t-1 22.5t-2 20t-3 22.5t-4 20t-6.5 21.5t-9 18.5q-10 20 -33 20zM318 579q8 0 14 -6.5t8.5 -13.5t5.5 -19.5
t4 -15.5q14 -94 4 -244h-1.5h-0.5q-97 0 -218 -23q52 129 112 235q3 3 11.5 18t12.5 21t12 17t16 18t17 12q1 1 3 1z" />
    <glyph glyph-name="AE" unicode="&#xc6;" horiz-adv-x="581" 
d="M555 0h-229l-27 190h-140l-101 -190h-68l259 483h294v-55h-218l19 -147h189v-55h-180l26 -171h176v-55zM291 244l-19 161l-86 -161h105z" />
    <glyph glyph-name="Ccedilla" unicode="&#xc7;" horiz-adv-x="400" 
d="M403 -90q0 -32 -21 -50.5t-59 -18.5q-14 0 -31 4.5t-32 13.5l14 32q14 -7 28.5 -11t22.5 -4q32 0 32 30q0 28 -64 39l43 66h43l-28 -39q27 -8 39.5 -23.5t12.5 -38.5zM260 550q-62 0 -118 -77q-80 -116 -97 -274q-13 -123 49 -199q22 -28 55.5 -42t69.5 -12q84 2 169 99
q11 15 12 17q-10 -7 -27.5 -22.5t-27.5 -22.5q-91 -68 -171 -47q-39 10 -65.5 44t-36.5 78q-19 86 17 212q41 131 107 192q13 12 27.5 19t32 8t31.5 -11q38 -35 36 -129q-5 -17 4 -40q10 -22 21 0q16 50 -2 120q-9 35 -30.5 60.5t-53.5 26.5h-2z" />
    <glyph glyph-name="Egrave" unicode="&#xc8;" horiz-adv-x="350" 
d="M270 744q-5 0 -8 -2q-9 -3 -8 -10q4 -16 28 -102q6 -19 19.5 -60t19.5 -60q4 -3 4.5 -3t2.5 5q-3 19 -11.5 58.5t-11.5 60.5q-3 18 -7.5 40t-7.5 35.5t-3 16.5q0 17 -4 19t-13 2zM379 550q-42 0 -121 -10t-114 -12q-4 -1 -8 -1q-4 5 -9.5 5.5t-10.5 -4.5q-32 5 -44 -2
q-11 -16 3 -22.5t32 -2.5q-12 -47 -49 -213l-1.5 -0.5l-1.5 -0.5q-17 6 -26 -9.5t7 -24.5l15 3q-11 -52 -21 -91q-2 -11 -7.5 -29.5t-9 -34.5t-1.5 -30q3 -29 27.5 -48.5t56.5 -26.5q124 -29 238 32l2 1q9 6 9 7l-10 -1q-45 -16 -138 -27q-96 -6 -143 29q-16 12 -20 32.5
t4 38.5q17 60 40 154q74 18 107 22q21 4 60 4.5t57 3.5l3 1q-4 10 -41 15q-64 2 -179 -16q25 103 37 148q1 7 8.5 29t8.5 34q26 1 99 9t112 8q10 -5 21.5 -0.5t14 13t-6.5 17.5z" />
    <glyph glyph-name="Eacute" unicode="&#xc9;" horiz-adv-x="350" 
d="M297.5 684q-10.5 -1 -17 -8.5t-4.5 -15.5l1 -15q3 -9 -4 -22q-11 -22 -17 -23l-7 -3q-10 -3 -14.5 -12t0.5 -17t15.5 -11t20.5 0l8 4q13 5 25 17q10 11 20 32t7 42l-2 14q-2 8 -11.5 13.5t-20 4.5zM379 550q-42 0 -121 -10t-114 -12q-4 -1 -8 -1q-4 5 -9.5 5.5
t-10.5 -4.5q-32 5 -44 -2q-11 -16 3 -22.5t32 -2.5q-12 -47 -49 -213l-1.5 -0.5l-1.5 -0.5q-17 6 -26 -9.5t7 -24.5l15 3q-11 -52 -21 -91q-2 -11 -7.5 -29.5t-9 -34.5t-1.5 -30q3 -29 27.5 -48.5t56.5 -26.5q124 -29 238 32l2 1q9 6 9 7l-10 -1q-45 -16 -138 -27
q-96 -6 -143 29q-16 12 -20 32.5t4 38.5q17 60 40 154q74 18 107 22q21 4 60 4.5t57 3.5l3 1q-4 10 -41 15q-64 2 -179 -16q25 103 37 148q1 7 8.5 29t8.5 34q26 1 99 9t112 8q10 -5 21.5 -0.5t14 13t-6.5 17.5z" />
    <glyph glyph-name="Ecircumflex" unicode="&#xca;" horiz-adv-x="350" 
d="M384 597h-54l-41 71l-40 -71h-55l78 115h35zM379 550q-42 0 -121 -10t-114 -12q-4 -1 -8 -1q-4 5 -9.5 5.5t-10.5 -4.5q-32 5 -44 -2q-11 -16 3 -22.5t32 -2.5q-12 -47 -49 -213l-1.5 -0.5l-1.5 -0.5q-17 6 -26 -9.5t7 -24.5l15 3q-11 -52 -21 -91q-2 -11 -7.5 -29.5
t-9 -34.5t-1.5 -30q3 -29 27.5 -48.5t56.5 -26.5q124 -29 238 32l2 1q9 6 9 7l-10 -1q-45 -16 -138 -27q-96 -6 -143 29q-16 12 -20 32.5t4 38.5q17 60 40 154q74 18 107 22q21 4 60 4.5t57 3.5l3 1q-4 10 -41 15q-64 2 -179 -16q25 103 37 148q1 7 8.5 29t8.5 34q26 1 99 9
t112 8q10 -5 21.5 -0.5t14 13t-6.5 17.5z" />
    <glyph glyph-name="Edieresis" unicode="&#xcb;" horiz-adv-x="350" 
d="M319 635q0 -19 -13 -31.5t-30 -12.5q-18 0 -31 12.5t-13 31.5q0 18 13 31t31 13q17 0 30 -13t13 -31zM467 635q0 -19 -13 -31.5t-30 -12.5t-30.5 12.5t-13.5 31.5q0 18 13.5 31t30.5 13t30 -13t13 -31zM379 550q-42 0 -121 -10t-114 -12q-4 -1 -8 -1q-4 5 -9.5 5.5
t-10.5 -4.5q-32 5 -44 -2q-11 -16 3 -22.5t32 -2.5q-12 -47 -49 -213l-1.5 -0.5l-1.5 -0.5q-17 6 -26 -9.5t7 -24.5l15 3q-11 -52 -21 -91q-2 -11 -7.5 -29.5t-9 -34.5t-1.5 -30q3 -29 27.5 -48.5t56.5 -26.5q124 -29 238 32l2 1q9 6 9 7l-10 -1q-45 -16 -138 -27
q-96 -6 -143 29q-16 12 -20 32.5t4 38.5q17 60 40 154q74 18 107 22q21 4 60 4.5t57 3.5l3 1q-4 10 -41 15q-64 2 -179 -16q25 103 37 148q1 7 8.5 29t8.5 34q26 1 99 9t112 8q10 -5 21.5 -0.5t14 13t-6.5 17.5z" />
    <glyph glyph-name="Igrave" unicode="&#xcc;" 
d="M141 744q-5 0 -8 -2q-9 -3 -8 -10q4 -16 28 -102q6 -19 19.5 -60t19.5 -60q4 -3 4.5 -3t2.5 5q-3 19 -11.5 58.5t-11.5 60.5q-3 18 -7.5 40t-7.5 35.5t-3 16.5q0 17 -4 19t-13 2zM240 586q-13 0 -36.5 -2.5t-26.5 -2.5q-8 -3 -29.5 -0.5t-25.5 -4.5q-5 -8 -1 -18.5
t15 -4.5q29 3 46 4q-4 -26 -19 -155q-3 -29 -15.5 -154.5t-22.5 -193.5q1 -4 0 -7t-3 -5.5t-3.5 -4.5t-5 -3.5t-5.5 -2t-6.5 -1.5t-6 -1.5t-7 -1t-5.5 -1.5q-15 6 -24 -7t9 -17q19 0 41 2t38 4.5t41.5 7t38.5 6.5q1 0 1.5 0.5t2.5 0.5q14 4 -2 6q-66 -1 -93 -3q8 9 9 21
q9 61 22.5 173.5t16.5 140.5q11 85 27 176q4 9 -2 21q17 1 33 0q13 -10 21 2t1 25q-11 1 -24 1z" />
    <glyph glyph-name="Iacute" unicode="&#xcd;" 
d="M166.5 684q-10.5 -1 -17 -8.5t-4.5 -15.5l1 -15q3 -9 -4 -22q-11 -22 -17 -23l-7 -3q-10 -3 -14.5 -12t0.5 -17t15.5 -11t20.5 0l8 4q13 5 25 17q10 11 20 32t7 42l-2 14q-2 8 -11.5 13.5t-20 4.5zM240 586q-13 0 -36.5 -2.5t-26.5 -2.5q-8 -3 -29.5 -0.5t-25.5 -4.5
q-5 -8 -1 -18.5t15 -4.5q29 3 46 4q-4 -26 -19 -155q-3 -29 -15.5 -154.5t-22.5 -193.5q1 -4 0 -7t-3 -5.5t-3.5 -4.5t-5 -3.5t-5.5 -2t-6.5 -1.5t-6 -1.5t-7 -1t-5.5 -1.5q-15 6 -24 -7t9 -17q19 0 41 2t38 4.5t41.5 7t38.5 6.5q1 0 1.5 0.5t2.5 0.5q14 4 -2 6
q-66 -1 -93 -3q8 9 9 21q9 61 22.5 173.5t16.5 140.5q11 85 27 176q4 9 -2 21q17 1 33 0q13 -10 21 2t1 25q-11 1 -24 1z" />
    <glyph glyph-name="Icircumflex" unicode="&#xce;" 
d="M254 597h-54l-41 71l-40 -71h-55l78 115h35zM240 586q-13 0 -36.5 -2.5t-26.5 -2.5q-8 -3 -29.5 -0.5t-25.5 -4.5q-5 -8 -1 -18.5t15 -4.5q29 3 46 4q-4 -26 -19 -155q-3 -29 -15.5 -154.5t-22.5 -193.5q1 -4 0 -7t-3 -5.5t-3.5 -4.5t-5 -3.5t-5.5 -2t-6.5 -1.5t-6 -1.5
t-7 -1t-5.5 -1.5q-15 6 -24 -7t9 -17q19 0 41 2t38 4.5t41.5 7t38.5 6.5q1 0 1.5 0.5t2.5 0.5q14 4 -2 6q-66 -1 -93 -3q8 9 9 21q9 61 22.5 173.5t16.5 140.5q11 85 27 176q4 9 -2 21q17 1 33 0q13 -10 21 2t1 25q-11 1 -24 1z" />
    <glyph glyph-name="Idieresis" unicode="&#xcf;" 
d="M190 635q0 -19 -13 -31.5t-30 -12.5q-18 0 -31 12.5t-13 31.5q0 18 13 31t31 13q17 0 30 -13t13 -31zM338 635q0 -19 -13 -31.5t-30 -12.5t-30.5 12.5t-13.5 31.5q0 18 13.5 31t30.5 13t30 -13t13 -31zM240 586q-13 0 -36.5 -2.5t-26.5 -2.5q-8 -3 -29.5 -0.5t-25.5 -4.5
q-5 -8 -1 -18.5t15 -4.5q29 3 46 4q-4 -26 -19 -155q-3 -29 -15.5 -154.5t-22.5 -193.5q1 -4 0 -7t-3 -5.5t-3.5 -4.5t-5 -3.5t-5.5 -2t-6.5 -1.5t-6 -1.5t-7 -1t-5.5 -1.5q-15 6 -24 -7t9 -17q19 0 41 2t38 4.5t41.5 7t38.5 6.5q1 0 1.5 0.5t2.5 0.5q14 4 -2 6
q-66 -1 -93 -3q8 9 9 21q9 61 22.5 173.5t16.5 140.5q11 85 27 176q4 9 -2 21q17 1 33 0q13 -10 21 2t1 25q-11 1 -24 1z" />
    <glyph glyph-name="Eth" unicode="&#xd0;" horiz-adv-x="458" 
d="M433 248q0 -108 -52 -173q-64 -79 -197 -79q-41 0 -134 10v200h-41v54h41v208q114 13 154 13q122 0 181 -73q48 -59 48 -160zM369 248q0 179 -168 179q-28 0 -88 -6v-161h160v-54h-160v-153q33 -3 83 -3q97 0 141 69q32 51 32 129z" />
    <glyph glyph-name="Ntilde" unicode="&#xd1;" horiz-adv-x="430" 
d="M463 655q-1 -35 -15.5 -55.5t-43.5 -20.5q-8 0 -19.5 4.5t-24 10t-23.5 10t-18 4.5q-8 0 -10 -7.5t-2 -16.5h-44q0 30 14.5 50.5t41.5 20.5q9 0 20.5 -4t22.5 -9.5t21.5 -9.5t17.5 -4q19 0 19 27h43zM349 598q-9 0 -16.5 -7t-9.5 -18q-5 -15 -5 -27q2 2 7 15.5t12 22
t16 3.5q4 -8 7 -19t4 -18t3.5 -21t2.5 -19q8 -66 11 -108t2 -100.5t-11 -107.5q-22 -112 -90 -147q-16 -8 -32 -4.5t-29 16.5q-21 20 -39 49.5t-27 50.5t-22 59q-24 70 -39 137q3 78 -11 130q2 17 -15 27q-17 11 -22 -10v-2q2 -47 21 -133q-3 -95 -28 -236
q-2 -12 -7.5 -38.5t-6.5 -38t2 -38.5q2 -25 15 -8q10 13 10 26q23 107 37 247q34 -122 82 -196q48 -71 98 -64q62 13 98 90q25 57 31.5 122t3.5 147q-6 113 -34 198q-3 21 -19 20z" />
    <glyph glyph-name="Ograve" unicode="&#xd2;" horiz-adv-x="430" 
d="M326 744q-5 0 -8 -2q-9 -3 -8 -10q4 -16 28 -102q6 -19 19.5 -60t19.5 -60q4 -3 4.5 -3t2.5 5q-3 19 -11.5 58.5t-11.5 60.5q-3 18 -7.5 40t-7.5 35.5t-3 16.5q0 17 -4 19t-13 2zM264 574q-62 0 -112 -41q-79 -64 -115 -179q-13 -38 -8 -80q-3 -14 -5 -28
q-4 -110 46 -184q15 -24 41 -37t54 -11q43 -1 81.5 25t66.5 66q47 67 69.5 147t18.5 162q-6 109 -71 144q-30 16 -66 16zM260 554h3q30 0 56.5 -13.5t38.5 -39.5q34 -67 16 -186q-24 -134 -100 -220q-27 -31 -64 -46.5t-73 -5.5q-48 15 -72 93q-10 40 -12 69q8 -13 19 -26
l20 -18q3 -1 -2 6q-25 29 -37 63q1 26 10 48q6 17 25.5 46t25.5 45q11 17 -1 20q-11 2 -20 -11q-30 -28 -48 -63l0.5 0.5l0.5 0.5q23 85 64 144q28 41 67 67.5t83 26.5z" />
    <glyph glyph-name="Oacute" unicode="&#xd3;" horiz-adv-x="430" 
d="M353.5 684q-10.5 -1 -17 -8.5t-4.5 -15.5l1 -15q3 -9 -4 -22q-11 -22 -17 -23l-7 -3q-10 -3 -14.5 -12t0.5 -17t15.5 -11t20.5 0l8 4q13 5 25 17q10 11 20 32t7 42l-2 14q-2 8 -11.5 13.5t-20 4.5zM264 574q-62 0 -112 -41q-79 -64 -115 -179q-13 -38 -8 -80
q-3 -14 -5 -28q-4 -110 46 -184q15 -24 41 -37t54 -11q43 -1 81.5 25t66.5 66q47 67 69.5 147t18.5 162q-6 109 -71 144q-30 16 -66 16zM260 554h3q30 0 56.5 -13.5t38.5 -39.5q34 -67 16 -186q-24 -134 -100 -220q-27 -31 -64 -46.5t-73 -5.5q-48 15 -72 93q-10 40 -12 69
q8 -13 19 -26l20 -18q3 -1 -2 6q-25 29 -37 63q1 26 10 48q6 17 25.5 46t25.5 45q11 17 -1 20q-11 2 -20 -11q-30 -28 -48 -63l0.5 0.5l0.5 0.5q23 85 64 144q28 41 67 67.5t83 26.5z" />
    <glyph glyph-name="Ocircumflex" unicode="&#xd4;" horiz-adv-x="430" 
d="M439 597h-54l-41 71l-40 -71h-55l78 115h35zM264 574q-62 0 -112 -41q-79 -64 -115 -179q-13 -38 -8 -80q-3 -14 -5 -28q-4 -110 46 -184q15 -24 41 -37t54 -11q43 -1 81.5 25t66.5 66q47 67 69.5 147t18.5 162q-6 109 -71 144q-30 16 -66 16zM260 554h3q30 0 56.5 -13.5
t38.5 -39.5q34 -67 16 -186q-24 -134 -100 -220q-27 -31 -64 -46.5t-73 -5.5q-48 15 -72 93q-10 40 -12 69q8 -13 19 -26l20 -18q3 -1 -2 6q-25 29 -37 63q1 26 10 48q6 17 25.5 46t25.5 45q11 17 -1 20q-11 2 -20 -11q-30 -28 -48 -63l0.5 0.5l0.5 0.5q23 85 64 144
q28 41 67 67.5t83 26.5z" />
    <glyph glyph-name="Otilde" unicode="&#xd5;" horiz-adv-x="430" 
d="M463 655q-1 -35 -15.5 -55.5t-43.5 -20.5q-8 0 -19.5 4.5t-24 10t-23.5 10t-18 4.5q-8 0 -10 -7.5t-2 -16.5h-44q0 30 14.5 50.5t41.5 20.5q9 0 20.5 -4t22.5 -9.5t21.5 -9.5t17.5 -4q19 0 19 27h43zM264 574q-62 0 -112 -41q-79 -64 -115 -179q-13 -38 -8 -80
q-3 -14 -5 -28q-4 -110 46 -184q15 -24 41 -37t54 -11q43 -1 81.5 25t66.5 66q47 67 69.5 147t18.5 162q-6 109 -71 144q-30 16 -66 16zM260 554h3q30 0 56.5 -13.5t38.5 -39.5q34 -67 16 -186q-24 -134 -100 -220q-27 -31 -64 -46.5t-73 -5.5q-48 15 -72 93q-10 40 -12 69
q8 -13 19 -26l20 -18q3 -1 -2 6q-25 29 -37 63q1 26 10 48q6 17 25.5 46t25.5 45q11 17 -1 20q-11 2 -20 -11q-30 -28 -48 -63l0.5 0.5l0.5 0.5q23 85 64 144q28 41 67 67.5t83 26.5z" />
    <glyph glyph-name="Odieresis" unicode="&#xd6;" horiz-adv-x="430" 
d="M375 635q0 -19 -13 -31.5t-30 -12.5q-18 0 -31 12.5t-13 31.5q0 18 13 31t31 13q17 0 30 -13t13 -31zM523 635q0 -19 -13 -31.5t-30 -12.5t-30.5 12.5t-13.5 31.5q0 18 13.5 31t30.5 13t30 -13t13 -31zM264 574q-62 0 -112 -41q-79 -64 -115 -179q-13 -38 -8 -80
q-3 -14 -5 -28q-4 -110 46 -184q15 -24 41 -37t54 -11q43 -1 81.5 25t66.5 66q47 67 69.5 147t18.5 162q-6 109 -71 144q-30 16 -66 16zM260 554h3q30 0 56.5 -13.5t38.5 -39.5q34 -67 16 -186q-24 -134 -100 -220q-27 -31 -64 -46.5t-73 -5.5q-48 15 -72 93q-10 40 -12 69
q8 -13 19 -26l20 -18q3 -1 -2 6q-25 29 -37 63q1 26 10 48q6 17 25.5 46t25.5 45q11 17 -1 20q-11 2 -20 -11q-30 -28 -48 -63l0.5 0.5l0.5 0.5q23 85 64 144q28 41 67 67.5t83 26.5z" />
    <glyph glyph-name="multiply" unicode="&#xd7;" horiz-adv-x="416" 
d="M390 34l-40 -39l-142 148q-35 -35 -71 -74t-70 -74l-40 39l142 148q-35 37 -71 75.5t-71 75.5l40 39l142 -148q34 36 71 74.5t70 73.5l40 -39l-143 -150z" />
    <glyph glyph-name="Oslash" unicode="&#xd8;" horiz-adv-x="516" 
d="M492 237q0 -105 -65 -176t-168 -71q-47 0 -86 14l-16 -32h-64l30 59q-17 13 -32 30q-65 71 -65 176t65 176.5t168 71.5q49 0 89 -16l12 23h64l-27 -52q16 -12 30 -27q65 -71 65 -176zM323 419q-29 12 -64 12q-77 0 -124 -55.5t-47 -137.5t47 -138q7 -9 15 -16zM430 238
q0 82 -47 137q-6 7 -12 13l-172 -333q27 -10 60 -10q77 0 124 55.5t47 137.5z" />
    <glyph glyph-name="Ugrave" unicode="&#xd9;" horiz-adv-x="400" 
d="M343 744q-5 0 -8 -2q-9 -3 -8 -10q4 -16 28 -102q6 -19 19.5 -60t19.5 -60q4 -3 4.5 -3t2.5 5q-3 19 -11.5 58.5t-11.5 60.5q-3 18 -7.5 40t-7.5 35.5t-3 16.5q0 17 -4 19t-13 2zM125 560q-10 0 -29 -34q-51 -105 -64 -245q-9 -137 36 -206q23 -35 64 -48t77 9
q33 22 54 55.5t42 83.5q6 16 13 33q-1 -112 31 -208l12 -27q1 1 -2 11q-27 111 -23 210q1 42 5 88q28 102 45 230q7 15 0 33q-7 16 -20 1q-26 -108 -40 -221q-2 -12 -3 -26l-12 -40q-14 -42 -23.5 -67.5t-28 -59t-40.5 -57.5q-16 -18 -38 -25t-45 2q-59 21 -74 112
q-18 122 30 269q4 12 21 55t19 68q-3 4 -7 4z" />
    <glyph glyph-name="Uacute" unicode="&#xda;" horiz-adv-x="400" 
d="M377.5 684q-10.5 -1 -17 -8.5t-4.5 -15.5l1 -15q3 -9 -4 -22q-11 -22 -17 -23l-7 -3q-10 -3 -14.5 -12t0.5 -17t15.5 -11t20.5 0l8 4q13 5 25 17q10 11 20 32t7 42l-2 14q-2 8 -11.5 13.5t-20 4.5zM125 560q-10 0 -29 -34q-51 -105 -64 -245q-9 -137 36 -206
q23 -35 64 -48t77 9q33 22 54 55.5t42 83.5q6 16 13 33q-1 -112 31 -208l12 -27q1 1 -2 11q-27 111 -23 210q1 42 5 88q28 102 45 230q7 15 0 33q-7 16 -20 1q-26 -108 -40 -221q-2 -12 -3 -26l-12 -40q-14 -42 -23.5 -67.5t-28 -59t-40.5 -57.5q-16 -18 -38 -25t-45 2
q-59 21 -74 112q-18 122 30 269q4 12 21 55t19 68q-3 4 -7 4z" />
    <glyph glyph-name="Ucircumflex" unicode="&#xdb;" horiz-adv-x="400" 
d="M458 597h-54l-41 71l-40 -71h-55l78 115h35zM125 560q-10 0 -29 -34q-51 -105 -64 -245q-9 -137 36 -206q23 -35 64 -48t77 9q33 22 54 55.5t42 83.5q6 16 13 33q-1 -112 31 -208l12 -27q1 1 -2 11q-27 111 -23 210q1 42 5 88q28 102 45 230q7 15 0 33q-7 16 -20 1
q-26 -108 -40 -221q-2 -12 -3 -26l-12 -40q-14 -42 -23.5 -67.5t-28 -59t-40.5 -57.5q-16 -18 -38 -25t-45 2q-59 21 -74 112q-18 122 30 269q4 12 21 55t19 68q-3 4 -7 4z" />
    <glyph glyph-name="Udieresis" unicode="&#xdc;" horiz-adv-x="400" 
d="M392 635q0 -19 -13 -31.5t-30 -12.5q-18 0 -31 12.5t-13 31.5q0 18 13 31t31 13q17 0 30 -13t13 -31zM540 635q0 -19 -13 -31.5t-30 -12.5t-30.5 12.5t-13.5 31.5q0 18 13.5 31t30.5 13t30 -13t13 -31zM125 560q-10 0 -29 -34q-51 -105 -64 -245q-9 -137 36 -206
q23 -35 64 -48t77 9q33 22 54 55.5t42 83.5q6 16 13 33q-1 -112 31 -208l12 -27q1 1 -2 11q-27 111 -23 210q1 42 5 88q28 102 45 230q7 15 0 33q-7 16 -20 1q-26 -108 -40 -221q-2 -12 -3 -26l-12 -40q-14 -42 -23.5 -67.5t-28 -59t-40.5 -57.5q-16 -18 -38 -25t-45 2
q-59 21 -74 112q-18 122 30 269q4 12 21 55t19 68q-3 4 -7 4z" />
    <glyph glyph-name="Yacute" unicode="&#xdd;" 
d="M383.5 684q-10.5 -1 -17 -8.5t-4.5 -15.5l1 -15q3 -9 -4 -22q-11 -22 -17 -23l-7 -3q-10 -3 -14.5 -12t0.5 -17t15.5 -11t20.5 0l8 4q13 5 25 17q10 11 20 32t7 42l-2 14q-2 8 -11.5 13.5t-20 4.5zM40 584q-11 -3 -14.5 -8.5t0.5 -12t9 -11.5t14 -13t11 -10
q62 -56 98 -145q6 -7 12.5 -29.5t14.5 -29.5q-9 -34 -22 -96.5t-20 -88.5q-24 -89 -35 -142q0 -1 -1 -4q1 -7 3 -6q5 10 31 72q15 47 35.5 134.5t27.5 115.5q10 25 24 50t34.5 57.5t28.5 46.5q4 8 16 27t18.5 33.5t8.5 30.5q-2 20 -17 16q-16 -4 -17 -21v-4
q-15 -38 -52 -102t-48 -86q-11 17 -13 24q-48 105 -95 155q-6 4 -22.5 24t-29.5 23z" />
    <glyph glyph-name="Thorn" unicode="&#xde;" horiz-adv-x="392" 
d="M357 249q0 -77 -51 -117.5t-142 -40.5q-32 0 -52 4v-95h-59v476h59v-73q20 4 52 4q91 0 142 -40.5t51 -117.5zM299 249q0 106 -133 106q-31 0 -54 -8v-196q23 -8 54 -8q133 0 133 106z" />
    <glyph glyph-name="germandbls" unicode="&#xdf;" horiz-adv-x="425" 
d="M376 109q0 -55 -34.5 -86.5t-92.5 -31.5q-26 0 -49.5 6.5t-46.5 18.5l20 54q45 -24 77 -24t50 16.5t18 40.5q0 22 -15 39t-33.5 33.5t-33.5 34.5t-15 42q0 13 10 28.5t22.5 31t22.5 30t10 26.5q0 67 -72 67q-84 0 -84 -154v-321q0 -26 -6.5 -52t-20.5 -51l-57 15
q13 25 18.5 46.5t5.5 41.5v337q0 195 151 195q54 0 88.5 -32.5t34.5 -89.5q0 -23 -10 -41.5t-21.5 -33.5t-21.5 -26t-10 -20q0 -10 15 -23.5t32.5 -31.5t32.5 -39t15 -46z" />
    <glyph glyph-name="agrave" unicode="&#xe0;" horiz-adv-x="350" 
d="M176 532q-5 0 -8 -2q-9 -3 -8 -10q4 -16 28 -102q6 -19 19.5 -60t19.5 -60q4 -3 4.5 -3t2.5 5q-3 19 -11.5 58.5t-11.5 60.5q-3 18 -7.5 40t-7.5 35.5t-3 16.5q0 17 -4 19t-13 2zM235 395q-46 0 -87.5 -21.5t-67.5 -58.5q-36 -49 -48.5 -111t-0.5 -124q5 -29 19.5 -52
t39.5 -30q53 -14 114 40q47 44 76 106q3 -55 15 -100q20 -66 57 -78q14 -3 24 1q-29 2 -44 22q-11 16 -17.5 38.5t-8.5 37.5t-4 43q-3 43 -3 85q17 53 19 109q3 16 -2 32t-20 4q-3 -10 -5 -20t-4 -29t-3 -21q-3 -38 -4 -66q-31 -98 -101 -156q-52 -39 -89 -22q-30 16 -38 79
q-6 58 9.5 113t52.5 96q46 53 128 51q39 1 52 14q-2 4 -5 6.5t-7 4.5t-7 3t-9 2t-8.5 1t-9 0.5t-8.5 0.5h-5z" />
    <glyph glyph-name="aacute" unicode="&#xe1;" horiz-adv-x="350" 
d="M203.5 472q-10.5 -1 -17 -8.5t-4.5 -15.5l1 -15q3 -9 -4 -22q-11 -22 -17 -23l-7 -3q-10 -3 -14.5 -12t0.5 -17t15.5 -11t20.5 0l8 4q13 5 25 17q10 11 20 32t7 42l-2 14q-2 8 -11.5 13.5t-20 4.5zM235 395q-46 0 -87.5 -21.5t-67.5 -58.5q-36 -49 -48.5 -111t-0.5 -124
q5 -29 19.5 -52t39.5 -30q53 -14 114 40q47 44 76 106q3 -55 15 -100q20 -66 57 -78q14 -3 24 1q-29 2 -44 22q-11 16 -17.5 38.5t-8.5 37.5t-4 43q-3 43 -3 85q17 53 19 109q3 16 -2 32t-20 4q-3 -10 -5 -20t-4 -29t-3 -21q-3 -38 -4 -66q-31 -98 -101 -156
q-52 -39 -89 -22q-30 16 -38 79q-6 58 9.5 113t52.5 96q46 53 128 51q39 1 52 14q-2 4 -5 6.5t-7 4.5t-7 3t-9 2t-8.5 1t-9 0.5t-8.5 0.5h-5z" />
    <glyph glyph-name="acircumflex" unicode="&#xe2;" horiz-adv-x="350" 
d="M289 385h-54l-41 71l-40 -71h-55l78 115h35zM235 395q-46 0 -87.5 -21.5t-67.5 -58.5q-36 -49 -48.5 -111t-0.5 -124q5 -29 19.5 -52t39.5 -30q53 -14 114 40q47 44 76 106q3 -55 15 -100q20 -66 57 -78q14 -3 24 1q-29 2 -44 22q-11 16 -17.5 38.5t-8.5 37.5t-4 43
q-3 43 -3 85q17 53 19 109q3 16 -2 32t-20 4q-3 -10 -5 -20t-4 -29t-3 -21q-3 -38 -4 -66q-31 -98 -101 -156q-52 -39 -89 -22q-30 16 -38 79q-6 58 9.5 113t52.5 96q46 53 128 51q39 1 52 14q-2 4 -5 6.5t-7 4.5t-7 3t-9 2t-8.5 1t-9 0.5t-8.5 0.5h-5z" />
    <glyph glyph-name="atilde" unicode="&#xe3;" horiz-adv-x="350" 
d="M314 443q-1 -35 -15.5 -55.5t-43.5 -20.5q-8 0 -19.5 4.5t-24 10t-23.5 10t-18 4.5q-8 0 -10 -7.5t-2 -16.5h-44q0 30 14.5 50.5t41.5 20.5q9 0 20.5 -4t22.5 -9.5t21.5 -9.5t17.5 -4q19 0 19 27h43zM235 395q-46 0 -87.5 -21.5t-67.5 -58.5q-36 -49 -48.5 -111
t-0.5 -124q5 -29 19.5 -52t39.5 -30q53 -14 114 40q47 44 76 106q3 -55 15 -100q20 -66 57 -78q14 -3 24 1q-29 2 -44 22q-11 16 -17.5 38.5t-8.5 37.5t-4 43q-3 43 -3 85q17 53 19 109q3 16 -2 32t-20 4q-3 -10 -5 -20t-4 -29t-3 -21q-3 -38 -4 -66q-31 -98 -101 -156
q-52 -39 -89 -22q-30 16 -38 79q-6 58 9.5 113t52.5 96q46 53 128 51q39 1 52 14q-2 4 -5 6.5t-7 4.5t-7 3t-9 2t-8.5 1t-9 0.5t-8.5 0.5h-5z" />
    <glyph glyph-name="adieresis" unicode="&#xe4;" horiz-adv-x="350" 
d="M226 425q0 -19 -13 -31.5t-30 -12.5q-18 0 -31 12.5t-13 31.5q0 18 13 31t31 13q17 0 30 -13t13 -31zM374 425q0 -19 -13 -31.5t-30 -12.5t-30.5 12.5t-13.5 31.5q0 18 13.5 31t30.5 13t30 -13t13 -31zM235 395q-46 0 -87.5 -21.5t-67.5 -58.5q-36 -49 -48.5 -111
t-0.5 -124q5 -29 19.5 -52t39.5 -30q53 -14 114 40q47 44 76 106q3 -55 15 -100q20 -66 57 -78q14 -3 24 1q-29 2 -44 22q-11 16 -17.5 38.5t-8.5 37.5t-4 43q-3 43 -3 85q17 53 19 109q3 16 -2 32t-20 4q-3 -10 -5 -20t-4 -29t-3 -21q-3 -38 -4 -66q-31 -98 -101 -156
q-52 -39 -89 -22q-30 16 -38 79q-6 58 9.5 113t52.5 96q46 53 128 51q39 1 52 14q-2 4 -5 6.5t-7 4.5t-7 3t-9 2t-8.5 1t-9 0.5t-8.5 0.5h-5z" />
    <glyph glyph-name="aring" unicode="&#xe5;" horiz-adv-x="350" 
d="M298 464q0 -33 -23.5 -56.5t-56.5 -23.5t-56.5 23.5t-23.5 56.5t23.5 56.5t56.5 23.5t56.5 -23.5t23.5 -56.5zM256 464q0 16 -11 27t-27 11t-27.5 -11t-11.5 -27t11.5 -27.5t27.5 -11.5t27 11.5t11 27.5zM235 395q-46 0 -87.5 -21.5t-67.5 -58.5q-36 -49 -48.5 -111
t-0.5 -124q5 -29 19.5 -52t39.5 -30q53 -14 114 40q47 44 76 106q3 -55 15 -100q20 -66 57 -78q14 -3 24 1q-29 2 -44 22q-11 16 -17.5 38.5t-8.5 37.5t-4 43q-3 43 -3 85q17 53 19 109q3 16 -2 32t-20 4q-3 -10 -5 -20t-4 -29t-3 -21q-3 -38 -4 -66q-31 -98 -101 -156
q-52 -39 -89 -22q-30 16 -38 79q-6 58 9.5 113t52.5 96q46 53 128 51q39 1 52 14q-2 4 -5 6.5t-7 4.5t-7 3t-9 2t-8.5 1t-9 0.5t-8.5 0.5h-5z" />
    <glyph glyph-name="ae" unicode="&#xe6;" horiz-adv-x="620" 
d="M580 18q-68 -27 -140 -27q-98 0 -150 70q-37 -70 -143 -70q-25 0 -47 7t-38.5 20t-26 32t-9.5 43q0 130 228 132q-2 34 -23 55.5t-59 21.5q-32 0 -118 -26l-8 57q70 21 130 21q45 0 74.5 -13.5t46.5 -47.5q48 61 139 61q154 0 159 -194h-279q5 -55 39.5 -84t88.5 -29
q58 0 131 26zM254 170q-85 -1 -123.5 -18.5t-38.5 -52.5q0 -26 16.5 -39.5t40.5 -13.5q48 0 76.5 27t28.5 75v22zM533 213q-7 37 -33 63t-68 26q-44 0 -72.5 -23.5t-37.5 -65.5h211z" />
    <glyph glyph-name="ccedilla" unicode="&#xe7;" horiz-adv-x="350" 
d="M291 -90q0 -32 -21 -50.5t-59 -18.5q-14 0 -31 4.5t-32 13.5l14 32q14 -7 28.5 -11t22.5 -4q32 0 32 30q0 28 -64 39l43 66h43l-28 -39q27 -8 39.5 -23.5t12.5 -38.5zM181 401q-40 -1 -83 -51q-44 -54 -61.5 -123.5t-3.5 -136.5q14 -66 57 -87q57 -30 139 11
q67 31 124 108q0 1 2.5 4t3.5 5t-1 3q-9 -7 -26.5 -23.5t-27.5 -23.5q-6 -5 -20 -15t-22 -16t-20 -13.5t-23 -12.5q-74 -36 -123 -7q-34 21 -44 94q-7 59 12 118t60 103q37 36 64 31q3 -2 10.5 -7.5t13.5 -10t12 -4t10 7.5q0 17 -13.5 30t-30.5 15q-4 1 -9 1z" />
    <glyph glyph-name="egrave" unicode="&#xe8;" horiz-adv-x="375" 
d="M176 532q-5 0 -8 -2q-9 -3 -8 -10q4 -16 28 -102q6 -19 19.5 -60t19.5 -60q4 -3 4.5 -3t2.5 5q-3 19 -11.5 58.5t-11.5 60.5q-3 18 -7.5 40t-7.5 35.5t-3 16.5q0 17 -4 19t-13 2zM223 399q-9 0 -17 -3q-26 -9 -44 -30.5t-37 -53.5q-22 -41 -35 -83q-1 0 -3 -2
q-5 -2 -19 -8.5t-23 -12.5t-14 -15q-7 -15 12 -14q15 0 25 7q6 2 12 5q-8 -40 -7 -77q4 -62 38 -80q52 -28 128 2q88 34 141 135q1 2 3 6.5t2.5 7t-0.5 3.5q-2 -3 -14.5 -19t-17.5 -22.5t-15 -17t-19 -18.5q-67 -56 -118 -66q-62 -14 -91 15q-16 20 -16 71q2 36 11 73
q72 39 126 99q12 14 17.5 22t11 22t4.5 27q-3 13 -15 20t-26 7zM225 375q10 0 12 -8t-2 -17t-10 -15q-41 -51 -106 -90q15 38 37 73q11 16 17.5 24.5t19.5 18.5t26 13q3 1 6 1z" />
    <glyph glyph-name="eacute" unicode="&#xe9;" horiz-adv-x="375" 
d="M203.5 472q-10.5 -1 -17 -8.5t-4.5 -15.5l1 -15q3 -9 -4 -22q-11 -22 -17 -23l-7 -3q-10 -3 -14.5 -12t0.5 -17t15.5 -11t20.5 0l8 4q13 5 25 17q10 11 20 32t7 42l-2 14q-2 8 -11.5 13.5t-20 4.5zM223 399q-9 0 -17 -3q-26 -9 -44 -30.5t-37 -53.5q-22 -41 -35 -83
q-1 0 -3 -2q-5 -2 -19 -8.5t-23 -12.5t-14 -15q-7 -15 12 -14q15 0 25 7q6 2 12 5q-8 -40 -7 -77q4 -62 38 -80q52 -28 128 2q88 34 141 135q1 2 3 6.5t2.5 7t-0.5 3.5q-2 -3 -14.5 -19t-17.5 -22.5t-15 -17t-19 -18.5q-67 -56 -118 -66q-62 -14 -91 15q-16 20 -16 71
q2 36 11 73q72 39 126 99q12 14 17.5 22t11 22t4.5 27q-3 13 -15 20t-26 7zM225 375q10 0 12 -8t-2 -17t-10 -15q-41 -51 -106 -90q15 38 37 73q11 16 17.5 24.5t19.5 18.5t26 13q3 1 6 1z" />
    <glyph glyph-name="ecircumflex" unicode="&#xea;" horiz-adv-x="375" 
d="M290 385h-54l-41 71l-40 -71h-55l78 115h35zM223 399q-9 0 -17 -3q-26 -9 -44 -30.5t-37 -53.5q-22 -41 -35 -83q-1 0 -3 -2q-5 -2 -19 -8.5t-23 -12.5t-14 -15q-7 -15 12 -14q15 0 25 7q6 2 12 5q-8 -40 -7 -77q4 -62 38 -80q52 -28 128 2q88 34 141 135q1 2 3 6.5
t2.5 7t-0.5 3.5q-2 -3 -14.5 -19t-17.5 -22.5t-15 -17t-19 -18.5q-67 -56 -118 -66q-62 -14 -91 15q-16 20 -16 71q2 36 11 73q72 39 126 99q12 14 17.5 22t11 22t4.5 27q-3 13 -15 20t-26 7zM225 375q10 0 12 -8t-2 -17t-10 -15q-41 -51 -106 -90q15 38 37 73
q11 16 17.5 24.5t19.5 18.5t26 13q3 1 6 1z" />
    <glyph glyph-name="edieresis" unicode="&#xeb;" horiz-adv-x="375" 
d="M225 425q0 -19 -13 -31.5t-30 -12.5q-18 0 -31 12.5t-13 31.5q0 18 13 31t31 13q17 0 30 -13t13 -31zM373 425q0 -19 -13 -31.5t-30 -12.5t-30.5 12.5t-13.5 31.5q0 18 13.5 31t30.5 13t30 -13t13 -31zM223 399q-9 0 -17 -3q-26 -9 -44 -30.5t-37 -53.5q-22 -41 -35 -83
q-1 0 -3 -2q-5 -2 -19 -8.5t-23 -12.5t-14 -15q-7 -15 12 -14q15 0 25 7q6 2 12 5q-8 -40 -7 -77q4 -62 38 -80q52 -28 128 2q88 34 141 135q1 2 3 6.5t2.5 7t-0.5 3.5q-2 -3 -14.5 -19t-17.5 -22.5t-15 -17t-19 -18.5q-67 -56 -118 -66q-62 -14 -91 15q-16 20 -16 71
q2 36 11 73q72 39 126 99q12 14 17.5 22t11 22t4.5 27q-3 13 -15 20t-26 7zM225 375q10 0 12 -8t-2 -17t-10 -15q-41 -51 -106 -90q15 38 37 73q11 16 17.5 24.5t19.5 18.5t26 13q3 1 6 1z" />
    <glyph glyph-name="igrave" unicode="&#xec;" horiz-adv-x="190" 
d="M64 532q-5 0 -8 -2q-9 -3 -8 -10q4 -16 28 -102q6 -19 19.5 -60t19.5 -60q4 -3 4.5 -3t2.5 5q-3 19 -11.5 58.5t-11.5 60.5q-3 18 -7.5 40t-7.5 35.5t-3 16.5q0 17 -4 19t-13 2zM123 399q-7 0 -11 -9q-9 -50 -28 -177q-2 -10 -5.5 -38t-4.5 -37.5t-4 -37.5t-2.5 -38
t0.5 -38q-3 -15 8.5 -21t21.5 7q48 47 99 114q3 9 2 9.5t-5 -4.5q-53 -59 -91 -95q-1 -2 -4 -4.5t-7.5 -5t-6.5 -4.5q-1 9 2 56q4 29 10 62t13 73t11 62q7 44 19 96q5 9 -1.5 19.5t-15.5 10.5z" />
    <glyph glyph-name="iacute" unicode="&#xed;" horiz-adv-x="190" 
d="M90.5 472q-10.5 -1 -17 -8.5t-4.5 -15.5l1 -15q3 -9 -4 -22q-11 -22 -17 -23l-7 -3q-10 -3 -14.5 -12t0.5 -17t15.5 -11t20.5 0l8 4q13 5 25 17q10 11 20 32t7 42l-2 14q-2 8 -11.5 13.5t-20 4.5zM123 399q-7 0 -11 -9q-9 -50 -28 -177q-2 -10 -5.5 -38t-4.5 -37.5
t-4 -37.5t-2.5 -38t0.5 -38q-3 -15 8.5 -21t21.5 7q48 47 99 114q3 9 2 9.5t-5 -4.5q-53 -59 -91 -95q-1 -2 -4 -4.5t-7.5 -5t-6.5 -4.5q-1 9 2 56q4 29 10 62t13 73t11 62q7 44 19 96q5 9 -1.5 19.5t-15.5 10.5z" />
    <glyph glyph-name="icircumflex" unicode="&#xee;" horiz-adv-x="190" 
d="M177 385h-54l-41 71l-40 -71h-55l78 115h35zM123 399q-7 0 -11 -9q-9 -50 -28 -177q-2 -10 -5.5 -38t-4.5 -37.5t-4 -37.5t-2.5 -38t0.5 -38q-3 -15 8.5 -21t21.5 7q48 47 99 114q3 9 2 9.5t-5 -4.5q-53 -59 -91 -95q-1 -2 -4 -4.5t-7.5 -5t-6.5 -4.5q-1 9 2 56
q4 29 10 62t13 73t11 62q7 44 19 96q5 9 -1.5 19.5t-15.5 10.5z" />
    <glyph glyph-name="idieresis" unicode="&#xef;" horiz-adv-x="190" 
d="M191 545q0 -19 -13 -31.5t-30 -12.5t-30.5 12.5t-13.5 31.5q0 18 13.5 31t30.5 13t30 -13t13 -31zM33 545q0 -19 -13 -31.5t-30 -12.5t-30.5 12.5t-13.5 31.5q0 18 13.5 31t30.5 13t30 -13t13 -31zM123 399q-7 0 -11 -9q-9 -50 -28 -177q-2 -10 -5.5 -38t-4.5 -37.5
t-4 -37.5t-2.5 -38t0.5 -38q-3 -15 8.5 -21t21.5 7q48 47 99 114q3 9 2 9.5t-5 -4.5q-53 -59 -91 -95q-1 -2 -4 -4.5t-7.5 -5t-6.5 -4.5q-1 9 2 56q4 29 10 62t13 73t11 62q7 44 19 96q5 9 -1.5 19.5t-15.5 10.5z" />
    <glyph glyph-name="eth" unicode="&#xf0;" horiz-adv-x="376" 
d="M341 163q0 -81 -45.5 -130t-115.5 -49q-63 0 -103.5 45.5t-40.5 112.5q0 66 41 111t101 45t89 -32q-24 50 -85 98q-1 1 -2 1l-101 -52l-27 44l80 41q-36 20 -71 30l6 50q70 -14 125 -49l91 47l22 -46l-68 -35q104 -100 104 -232zM273 142q0 43 -26.5 72.5t-64.5 29.5
q-36 0 -62 -31t-26 -71t26 -71t62 -31q38 0 64.5 30t26.5 72z" />
    <glyph glyph-name="ntilde" unicode="&#xf1;" horiz-adv-x="375" 
d="M342 443q-1 -35 -15.5 -55.5t-43.5 -20.5q-8 0 -19.5 4.5t-24 10t-23.5 10t-18 4.5q-8 0 -10 -7.5t-2 -16.5h-44q0 30 14.5 50.5t41.5 20.5q9 0 20.5 -4t22.5 -9.5t21.5 -9.5t17.5 -4q19 0 19 27h43zM146 399q-4 0 -7 -1q-47 -5 -89 -69q-19 -41 -1 -39h3q12 9 36.5 38.5
t45.5 37.5q11 8 16 0t4 -20q1 -56 -26 -149q-39 -66 -68 -132q0 -2 -2 -7l-3 -7.5t-2 -7t-1 -7.5t1 -6.5t4 -5.5t7 -3q5 1 9.5 3.5t8.5 7t6 8t6 9.5t5 8q34 63 58 145q19 31 40 62q18 24 27 35.5t26.5 29t34.5 27.5q11 8 24 4t11 -18q0 -19 -4.5 -38t-14.5 -46.5t-13 -36.5
q-31 -111 -13 -177q7 -27 27 -46.5t47 -20.5q16 0 24 3q-1 0 -16 2q-22 2 -39.5 16t-24.5 35q-2 7 -3.5 15.5t-2.5 14.5t-1 16.5v15t1.5 16.5t1.5 14.5t2 16.5t2 15q4 31 34 117q0 3 3.5 14t4.5 15.5t3 14t2 15.5t-1 14t-3 15q-7 16 -26.5 18.5t-32.5 -6.5
q-20 -11 -39.5 -29.5t-30 -31.5t-29.5 -39q-3 -4 -4 -6q14 71 5 105q-2 12 -12 19.5t-21 6.5z" />
    <glyph glyph-name="ograve" unicode="&#xf2;" horiz-adv-x="375" 
d="M214 532q-5 0 -8 -2q-9 -3 -8 -10q4 -16 28 -102q6 -19 19.5 -60t19.5 -60q4 -3 4.5 -3t2.5 5q-3 19 -11.5 58.5t-11.5 60.5q-3 18 -7.5 40t-7.5 35.5t-3 16.5q0 17 -4 19t-13 2zM222 386q-27 0 -51 -13q-68 -34 -118 -128q-34 -67 -15 -110q7 -18 24 -21q8 -23 18 -43
q17 -29 44.5 -48.5t58.5 -18.5q58 4 110 70q55 73 56 141q-1 43 -17 82.5t-47 66.5q-26 22 -63 22zM221 366q35 0 58 -25q25 -26 37 -63.5t10 -75.5q-9 -65 -62 -125q-48 -52 -93 -46q-28 6 -48.5 29t-29.5 53q-2 9 -3 16l2 4q-1 -1 -3 -1q-10 43 -6 71q0 1 0.5 4.5t0.5 5v5
t-0.5 6t-1 5.5t-1.5 5t-2 3.5t-2.5 2.5t-3.5 1q4 7 8 15q48 79 107 103q16 7 33 7zM50 191v-17q4 -27 10 -50q-2 1 -4 3q-18 19 -7 61q0 1 1 3z" />
    <glyph glyph-name="oacute" unicode="&#xf3;" horiz-adv-x="375" 
d="M241.5 472q-10.5 -1 -17 -8.5t-4.5 -15.5l1 -15q3 -9 -4 -22q-11 -22 -17 -23l-7 -3q-10 -3 -14.5 -12t0.5 -17t15.5 -11t20.5 0l8 4q13 5 25 17q10 11 20 32t7 42l-2 14q-2 8 -11.5 13.5t-20 4.5zM222 386q-27 0 -51 -13q-68 -34 -118 -128q-34 -67 -15 -110
q7 -18 24 -21q8 -23 18 -43q17 -29 44.5 -48.5t58.5 -18.5q58 4 110 70q55 73 56 141q-1 43 -17 82.5t-47 66.5q-26 22 -63 22zM221 366q35 0 58 -25q25 -26 37 -63.5t10 -75.5q-9 -65 -62 -125q-48 -52 -93 -46q-28 6 -48.5 29t-29.5 53q-2 9 -3 16l2 4q-1 -1 -3 -1
q-10 43 -6 71q0 1 0.5 4.5t0.5 5v5t-0.5 6t-1 5.5t-1.5 5t-2 3.5t-2.5 2.5t-3.5 1q4 7 8 15q48 79 107 103q16 7 33 7zM50 191v-17q4 -27 10 -50q-2 1 -4 3q-18 19 -7 61q0 1 1 3z" />
    <glyph glyph-name="ocircumflex" unicode="&#xf4;" horiz-adv-x="375" 
d="M328 385h-54l-41 71l-40 -71h-55l78 115h35zM222 386q-27 0 -51 -13q-68 -34 -118 -128q-34 -67 -15 -110q7 -18 24 -21q8 -23 18 -43q17 -29 44.5 -48.5t58.5 -18.5q58 4 110 70q55 73 56 141q-1 43 -17 82.5t-47 66.5q-26 22 -63 22zM221 366q35 0 58 -25
q25 -26 37 -63.5t10 -75.5q-9 -65 -62 -125q-48 -52 -93 -46q-28 6 -48.5 29t-29.5 53q-2 9 -3 16l2 4q-1 -1 -3 -1q-10 43 -6 71q0 1 0.5 4.5t0.5 5v5t-0.5 6t-1 5.5t-1.5 5t-2 3.5t-2.5 2.5t-3.5 1q4 7 8 15q48 79 107 103q16 7 33 7zM50 191v-17q4 -27 10 -50q-2 1 -4 3
q-18 19 -7 61q0 1 1 3z" />
    <glyph glyph-name="otilde" unicode="&#xf5;" horiz-adv-x="375" 
d="M352 443q-1 -35 -15.5 -55.5t-43.5 -20.5q-8 0 -19.5 4.5t-24 10t-23.5 10t-18 4.5q-8 0 -10 -7.5t-2 -16.5h-44q0 30 14.5 50.5t41.5 20.5q9 0 20.5 -4t22.5 -9.5t21.5 -9.5t17.5 -4q19 0 19 27h43zM222 386q-27 0 -51 -13q-68 -34 -118 -128q-34 -67 -15 -110
q7 -18 24 -21q8 -23 18 -43q17 -29 44.5 -48.5t58.5 -18.5q58 4 110 70q55 73 56 141q-1 43 -17 82.5t-47 66.5q-26 22 -63 22zM221 366q35 0 58 -25q25 -26 37 -63.5t10 -75.5q-9 -65 -62 -125q-48 -52 -93 -46q-28 6 -48.5 29t-29.5 53q-2 9 -3 16l2 4q-1 -1 -3 -1
q-10 43 -6 71q0 1 0.5 4.5t0.5 5v5t-0.5 6t-1 5.5t-1.5 5t-2 3.5t-2.5 2.5t-3.5 1q4 7 8 15q48 79 107 103q16 7 33 7zM50 191v-17q4 -27 10 -50q-2 1 -4 3q-18 19 -7 61q0 1 1 3z" />
    <glyph glyph-name="odieresis" unicode="&#xf6;" horiz-adv-x="375" 
d="M263 425q0 -19 -13 -31.5t-30 -12.5q-18 0 -31 12.5t-13 31.5q0 18 13 31t31 13q17 0 30 -13t13 -31zM411 425q0 -19 -13 -31.5t-30 -12.5t-30.5 12.5t-13.5 31.5q0 18 13.5 31t30.5 13t30 -13t13 -31zM222 386q-27 0 -51 -13q-68 -34 -118 -128q-34 -67 -15 -110
q7 -18 24 -21q8 -23 18 -43q17 -29 44.5 -48.5t58.5 -18.5q58 4 110 70q55 73 56 141q-1 43 -17 82.5t-47 66.5q-26 22 -63 22zM221 366q35 0 58 -25q25 -26 37 -63.5t10 -75.5q-9 -65 -62 -125q-48 -52 -93 -46q-28 6 -48.5 29t-29.5 53q-2 9 -3 16l2 4q-1 -1 -3 -1
q-10 43 -6 71q0 1 0.5 4.5t0.5 5v5t-0.5 6t-1 5.5t-1.5 5t-2 3.5t-2.5 2.5t-3.5 1q4 7 8 15q48 79 107 103q16 7 33 7zM50 191v-17q4 -27 10 -50q-2 1 -4 3q-18 19 -7 61q0 1 1 3z" />
    <glyph glyph-name="divide" unicode="&#xf7;" horiz-adv-x="416" 
d="M391 157h-365v54h365v-54zM257 56q0 -20 -14 -34t-33 -14t-33 14t-14 34t14 34t33 14t33 -14t14 -34zM257 313q0 -20 -14 -34t-33 -14t-33 14t-14 34t14 34t33 14t33 -14t14 -34z" />
    <glyph glyph-name="oslash" unicode="&#xf8;" horiz-adv-x="410" 
d="M386 172q0 -76 -51 -128t-129 -52q-33 0 -61 9l-15 -29h-64l29 56q-10 7 -18 16q-51 52 -51 128t51 128.5t129 52.5q28 0 53 -7l17 32h64l-29 -57q12 -9 24 -21q51 -52 51 -128zM324 172q0 54 -33 90l-7 7l-114 -219q17 -5 36 -5q52 0 85 36.5t33 90.5zM233 296
q-13 3 -27 3q-52 0 -85 -36.5t-33 -90.5t33 -91l1 -1z" />
    <glyph glyph-name="ugrave" unicode="&#xf9;" horiz-adv-x="375" 
d="M194 532q-5 0 -8 -2q-9 -3 -8 -10q4 -16 28 -102q6 -19 19.5 -60t19.5 -60q4 -3 4.5 -3t2.5 5q-3 19 -11.5 58.5t-11.5 60.5q-3 18 -7.5 40t-7.5 35.5t-3 16.5q0 17 -4 19t-13 2zM72 388q-6 -1 -11 -10q-19 -31 -36 -107q-23 -124 11 -204q13 -33 43 -54t65 -20
q57 0 95 68q14 25 26 56.5t18.5 54t17 60.5t16.5 57q-4 -58 0 -105q4 -59 27.5 -111.5t65.5 -86.5q4 -3 8 -5q9 -6 10 -4.5t-7 7.5q-55 51 -72 131q-26 97 -6 231q5 11 3.5 27.5t-17.5 7.5q-20 -43 -40 -112q-2 -7 -14 -49.5t-17.5 -58.5t-18 -46t-26.5 -52t-36 -35.5
t-46 -9.5q-27 4 -47.5 24.5t-28.5 48.5q-27 87 8 206q2 5 10 29.5t9 38.5q2 8 -1.5 15.5t-8.5 7.5z" />
    <glyph glyph-name="uacute" unicode="&#xfa;" horiz-adv-x="375" 
d="M241.5 472q-10.5 -1 -17 -8.5t-4.5 -15.5l1 -15q3 -9 -4 -22q-11 -22 -17 -23l-7 -3q-10 -3 -14.5 -12t0.5 -17t15.5 -11t20.5 0l8 4q13 5 25 17q10 11 20 32t7 42l-2 14q-2 8 -11.5 13.5t-20 4.5zM72 388q-6 -1 -11 -10q-19 -31 -36 -107q-23 -124 11 -204
q13 -33 43 -54t65 -20q57 0 95 68q14 25 26 56.5t18.5 54t17 60.5t16.5 57q-4 -58 0 -105q4 -59 27.5 -111.5t65.5 -86.5q4 -3 8 -5q9 -6 10 -4.5t-7 7.5q-55 51 -72 131q-26 97 -6 231q5 11 3.5 27.5t-17.5 7.5q-20 -43 -40 -112q-2 -7 -14 -49.5t-17.5 -58.5t-18 -46
t-26.5 -52t-36 -35.5t-46 -9.5q-27 4 -47.5 24.5t-28.5 48.5q-27 87 8 206q2 5 10 29.5t9 38.5q2 8 -1.5 15.5t-8.5 7.5z" />
    <glyph glyph-name="ucircumflex" unicode="&#xfb;" horiz-adv-x="375" 
d="M315 385h-54l-41 71l-40 -71h-55l78 115h35zM72 388q-6 -1 -11 -10q-19 -31 -36 -107q-23 -124 11 -204q13 -33 43 -54t65 -20q57 0 95 68q14 25 26 56.5t18.5 54t17 60.5t16.5 57q-4 -58 0 -105q4 -59 27.5 -111.5t65.5 -86.5q4 -3 8 -5q9 -6 10 -4.5t-7 7.5
q-55 51 -72 131q-26 97 -6 231q5 11 3.5 27.5t-17.5 7.5q-20 -43 -40 -112q-2 -7 -14 -49.5t-17.5 -58.5t-18 -46t-26.5 -52t-36 -35.5t-46 -9.5q-27 4 -47.5 24.5t-28.5 48.5q-27 87 8 206q2 5 10 29.5t9 38.5q2 8 -1.5 15.5t-8.5 7.5z" />
    <glyph glyph-name="udieresis" unicode="&#xfc;" horiz-adv-x="375" 
d="M245 425q0 -19 -13 -31.5t-30 -12.5q-18 0 -31 12.5t-13 31.5q0 18 13 31t31 13q17 0 30 -13t13 -31zM393 425q0 -19 -13 -31.5t-30 -12.5t-30.5 12.5t-13.5 31.5q0 18 13.5 31t30.5 13t30 -13t13 -31zM72 388q-6 -1 -11 -10q-19 -31 -36 -107q-23 -124 11 -204
q13 -33 43 -54t65 -20q57 0 95 68q14 25 26 56.5t18.5 54t17 60.5t16.5 57q-4 -58 0 -105q4 -59 27.5 -111.5t65.5 -86.5q4 -3 8 -5q9 -6 10 -4.5t-7 7.5q-55 51 -72 131q-26 97 -6 231q5 11 3.5 27.5t-17.5 7.5q-20 -43 -40 -112q-2 -7 -14 -49.5t-17.5 -58.5t-18 -46
t-26.5 -52t-36 -35.5t-46 -9.5q-27 4 -47.5 24.5t-28.5 48.5q-27 87 8 206q2 5 10 29.5t9 38.5q2 8 -1.5 15.5t-8.5 7.5z" />
    <glyph glyph-name="yacute" unicode="&#xfd;" horiz-adv-x="375" 
d="M241.5 472q-10.5 -1 -17 -8.5t-4.5 -15.5l1 -15q3 -9 -4 -22q-11 -22 -17 -23l-7 -3q-10 -3 -14.5 -12t0.5 -17t15.5 -11t20.5 0l8 4q13 5 25 17q10 11 20 32t7 42l-2 14q-2 8 -11.5 13.5t-20 4.5zM81 381q-6 0 -17 -13t-13 -22q-41 -96 -37 -217q3 -43 14 -74t40 -45
q43 -14 86 7.5t71 61.5q52 74 72 163q3 -70 -10 -174q-7 -45 -16 -88q-42 -57 -74 -111q-81 -151 -111 -268q-10 -22 8.5 -30t30.5 13q61 78 119 227q33 91 52 180q31 46 70 97q1 3 6.5 11t9 13.5t2.5 6.5q-46 -53 -82 -99q25 135 16 260q-5 50 -12 59q-8 10 -21 -1
q-7 -79 -17 -110q-42 -133 -115 -181q-15 -9 -31 -13t-33 -0.5t-26 16.5q-17 30 -19.5 72t2.5 75q3 34 18.5 93t18.5 74q5 18 -2 17zM262 -61q-46 -185 -138 -324q-16 -23 -18 -23q-1 0 0 6q20 85 76 201q34 68 80 140z" />
    <glyph glyph-name="thorn" unicode="&#xfe;" horiz-adv-x="437" 
d="M402 179q0 -84 -49.5 -136t-127.5 -52q-67 0 -111 41v-166h-59v610h59v-169q50 47 121 47q73 0 120 -49.5t47 -125.5zM344 178q0 54 -32 89t-83 35q-47 0 -81 -29.5t-34 -76.5v-57q0 -38 34.5 -65.5t79.5 -27.5q52 0 84 35t32 97z" />
    <glyph glyph-name="ydieresis" unicode="&#xff;" horiz-adv-x="375" 
d="M278 425q0 -19 -13 -31.5t-30 -12.5q-18 0 -31 12.5t-13 31.5q0 18 13 31t31 13q17 0 30 -13t13 -31zM426 425q0 -19 -13 -31.5t-30 -12.5t-30.5 12.5t-13.5 31.5q0 18 13.5 31t30.5 13t30 -13t13 -31zM81 381q-6 0 -17 -13t-13 -22q-41 -96 -37 -217q3 -43 14 -74
t40 -45q43 -14 86 7.5t71 61.5q52 74 72 163q3 -70 -10 -174q-7 -45 -16 -88q-42 -57 -74 -111q-81 -151 -111 -268q-10 -22 8.5 -30t30.5 13q61 78 119 227q33 91 52 180q31 46 70 97q1 3 6.5 11t9 13.5t2.5 6.5q-46 -53 -82 -99q25 135 16 260q-5 50 -12 59q-8 10 -21 -1
q-7 -79 -17 -110q-42 -133 -115 -181q-15 -9 -31 -13t-33 -0.5t-26 16.5q-17 30 -19.5 72t2.5 75q3 34 18.5 93t18.5 74q5 18 -2 17zM262 -61q-46 -185 -138 -324q-16 -23 -18 -23q-1 0 0 6q20 85 76 201q34 68 80 140z" />
    <glyph glyph-name="dotlessi" unicode="&#x131;" horiz-adv-x="190" 
d="M123 399q-7 0 -11 -9q-9 -50 -28 -177q-2 -10 -5.5 -38t-4.5 -37.5t-4 -37.5t-2.5 -38t0.5 -38q-3 -15 8.5 -21t21.5 7q48 47 99 114q3 9 2 9.5t-5 -4.5q-53 -59 -91 -95q-1 -2 -4 -4.5t-7.5 -5t-6.5 -4.5q-1 9 2 56q4 29 10 62t13 73t11 62q7 44 19 96q5 9 -1.5 19.5
t-15.5 10.5z" />
    <glyph glyph-name="Lslash" unicode="&#x141;" horiz-adv-x="358" 
d="M346 0h-296v149l-29 -7v62l29 7v265h63v-250l225 53v-62l-225 -53v-110h233v-54z" />
    <glyph glyph-name="lslash" unicode="&#x142;" horiz-adv-x="216" 
d="M207 49l-7 -57q-149 8 -149 183v61l-43 -12v54l43 12v214h63v-195l93 28v-54l-93 -28v-66q0 -77 24 -109q21 -27 69 -31z" />
    <glyph glyph-name="OE" unicode="&#x152;" horiz-adv-x="721" 
d="M698 0h-283v27q-60 -37 -136 -37q-111 0 -182 71t-71 177q0 105 71 176.5t182 71.5q76 0 136 -38v28h283v-54h-220v-144h196v-54h-196v-170h220v-54zM415 104v265q-51 62 -136 62q-76 0 -133 -58.5t-57 -134.5q0 -78 56.5 -136t133.5 -58q85 0 136 60z" />
    <glyph glyph-name="oe" unicode="&#x153;" horiz-adv-x="687" 
d="M642 73l7 -55q-73 -27 -139 -27q-101 0 -157 74q-53 -73 -147 -73q-78 0 -129 52t-51 128t51 128.5t129 52.5q97 0 148 -77q60 77 152 77q154 0 157 -193h-277q4 -53 38.5 -83t89.5 -30t128 26zM324 172q0 54 -33 90.5t-85 36.5t-85 -36.5t-33 -90.5t33 -90.5t85 -36.5
t85 36.5t33 90.5zM390 213h211q-5 40 -32.5 64t-68.5 24q-40 0 -71.5 -24.5t-38.5 -63.5z" />
    <glyph glyph-name="Scaron" unicode="&#x160;" horiz-adv-x="350" 
d="M294 544h-35l-77 115h54l41 -71l40 71h55zM387 583q-53 0 -100.5 -32t-76.5 -80q-41 -60 -14 -158q7 -30 36 -107.5t34 -122.5q5 -25 -7 -48.5t-36 -31.5q-71 -22 -171 -1q-21 6 -35 11t-30 17t-23 28q-3 16 4.5 34.5t15.5 28t25 26.5l6 6q9 9 8 9.5t-7 -3.5
q-66 -44 -69 -93q0 -51 76 -75q104 -32 197 -10q30 7 49.5 32t18.5 55q0 31 -8 62.5t-24 76t-21 59.5q-9 30 -13 43t-9 38.5t-3 46.5t10 40q23 49 65.5 82.5t92.5 35.5q15 2 45.5 -7t47.5 -4q0 27 -61 40q-12 2 -23 2z" />
    <glyph glyph-name="scaron" unicode="&#x161;" 
d="M232 385h-35l-77 115h54l41 -71l40 71h55zM242 410q-20 0 -40 -8q-26 -10 -45 -28t-21 -43q-2 -6 -0.5 -17.5t1 -17t3 -17t5 -16.5t5.5 -16.5t6 -16.5t7 -16t7 -16q2 -6 11.5 -27.5t13.5 -32t8.5 -28t4.5 -32.5q1 -18 -10.5 -31.5t-28.5 -18.5q-78 -25 -137 8
q-16 9 -21.5 28.5t0.5 36.5q3 14 1 13q-6 -2 -12 -23q-1 -3 -1 -5q-5 -20 4 -40t27 -30q33 -19 92 -17q69 6 94 38q24 33 2 102q-4 11 -28.5 71t-28.5 94q-3 18 4 35t22 25q51 32 85 7q4 -4 11 -12.5t13.5 -14t15.5 -7.5q9 5 7.5 15t-5.5 17.5t-11 14.5q-21 26 -61 26z" />
    <glyph glyph-name="Ydieresis" unicode="&#x178;" 
d="M338 583q0 -19 -13 -31.5t-30 -12.5q-18 0 -31 12.5t-13 31.5q0 18 13 31t31 13q17 0 30 -13t13 -31zM486 583q0 -19 -13 -31.5t-30 -12.5t-30.5 12.5t-13.5 31.5q0 18 13.5 31t30.5 13t30 -13t13 -31zM40 584q-11 -3 -14.5 -8.5t0.5 -12t9 -11.5t14 -13t11 -10
q62 -56 98 -145q6 -7 12.5 -29.5t14.5 -29.5q-9 -34 -22 -96.5t-20 -88.5q-24 -89 -35 -142q0 -1 -1 -4q1 -7 3 -6q5 10 31 72q15 47 35.5 134.5t27.5 115.5q10 25 24 50t34.5 57.5t28.5 46.5q4 8 16 27t18.5 33.5t8.5 30.5q-2 20 -17 16q-16 -4 -17 -21v-4
q-15 -38 -52 -102t-48 -86q-11 17 -13 24q-48 105 -95 155q-6 4 -22.5 24t-29.5 23z" />
    <glyph glyph-name="florin" unicode="&#x192;" horiz-adv-x="402" 
d="M327 254h-94l-35 -161q-35 -162 -160 -162q-39 0 -65 25l26 44q24 -14 49 -14q65 0 90 112l34 156h-54l10 52h56l3 16q20 78 60 120t100 42q39 0 65 -25l-26 -44q-24 14 -49 14q-66 0 -90 -112l-3 -11h93z" />
    <glyph glyph-name="circumflex" unicode="&#x2c6;" horiz-adv-x="216" 
d="M204 385h-54l-41 71l-40 -71h-55l78 115h35z" />
    <glyph glyph-name="caron" unicode="&#x2c7;" horiz-adv-x="306" 
d="M171 385h-35l-77 115h54l41 -71l40 71h55z" />
    <glyph glyph-name="breve" unicode="&#x2d8;" horiz-adv-x="341" 
d="M289 491q-10 -57 -40 -84.5t-78 -27.5t-78 27.5t-40 84.5h54q5 -25 20.5 -44.5t43.5 -19.5t44 19.5t21 44.5h53z" />
    <glyph glyph-name="dotaccent" unicode="&#x2d9;" horiz-adv-x="191" 
d="M140 545q0 -19 -13 -31.5t-30 -12.5t-30.5 12.5t-13.5 31.5q0 18 13.5 31t30.5 13t30 -13t13 -31z" />
    <glyph glyph-name="ring" unicode="&#x2da;" horiz-adv-x="265" 
d="M213 464q0 -33 -23.5 -56.5t-56.5 -23.5t-56.5 23.5t-23.5 56.5t23.5 56.5t56.5 23.5t56.5 -23.5t23.5 -56.5zM171 464q0 16 -11 27t-27 11t-27.5 -11t-11.5 -27t11.5 -27.5t27.5 -11.5t27 11.5t11 27.5z" />
    <glyph glyph-name="ogonek" unicode="&#x2db;" horiz-adv-x="254" 
d="M202 -136q-41 -17 -73 -17q-39 0 -57.5 23t-18.5 54q0 19 5.5 43t13.5 52h59q-21 -53 -21 -81q0 -32 28 -35q11 0 28.5 5.5t35.5 13.5v-58z" />
    <glyph glyph-name="tilde" unicode="&#x2dc;" horiz-adv-x="258" 
d="M228 443q-1 -35 -15.5 -55.5t-43.5 -20.5q-8 0 -19.5 4.5t-24 10t-23.5 10t-18 4.5q-8 0 -10 -7.5t-2 -16.5h-44q0 30 14.5 50.5t41.5 20.5q9 0 20.5 -4t22.5 -9.5t21.5 -9.5t17.5 -4q19 0 19 27h43z" />
    <glyph glyph-name="hungarumlaut" unicode="&#x2dd;" horiz-adv-x="358" 
d="M221 320h-42l63 171h64zM95 320h-42l63 171h63z" />
    <glyph glyph-name="kokaithai" unicode="&#xe01;" 
d="M120 400q-18 0 -32.5 -11t-17.5 -28q0 -10 7 -37.5t5 -43.5q-9 -90 -52 -219q-1 -2 -3 -9t-3 -9.5t-2 -8.5t-1 -10t1 -9t3 -10q4 -4 7.5 -5t7 2.5t6 7t4.5 10t3 10t3 8.5q44 151 51 238q0 13 0.5 17.5t-2 16.5t-3.5 16t-4.5 16t-4.5 16q7 23 46 18q41 -2 78.5 -22.5
t60.5 -55.5q39 -59 6 -148q-24 -63 -54 -174l-2 -8q-2 -9 0 -8q3 2 8 14q6 16 18.5 44t21.5 51.5t16 44.5q27 71 26 116q0 69 -55 117q-58 53 -141 53h-2z" />
    <glyph glyph-name="khokhaithai" unicode="&#xe02;" horiz-adv-x="267" 
d="M43 386h-6q-11 -7 -10.5 -19t7.5 -22q17 -25 73 -85q4 -3 10 -9.5t8 -8.5q9 -17 15 -35q2 -4 3 -9q-49 -78 -74 -140q-5 -12 -6.5 -17.5t-1.5 -16.5t6 -18q13 -9 26 -4.5t22 16.5q36 43 51 115q8 32 1 67v0q12 18 47.5 73t56.5 84q1 3 4 8.5t5 7.5q-4 -1 -8.5 -5
t-9.5 -10.5t-7 -8.5q-66 -80 -84 -107q-5 6 -16 16t-14 13q-1 1 -3 2.5t-2 2.5q-25 47 -61 88l-5.5 5.5l-6.5 6.5t-5.5 5t-7.5 4t-7 1zM147 168q0 -23 -7 -50q-19 -64 -46 -92q-5 -5 -9 -4.5t-4.5 5t2.5 9.5q21 61 64 132z" />
    <glyph glyph-name="khokhuatthai" unicode="&#xe03;" horiz-adv-x="267" 
d="M155 403q-6 0 -11 -7q-7 -12 -19 -43.5t-23 -46.5q-2 -1 -3 -2h-1q-9 15 -18.5 45t-12.5 37q-3 14 -17 12t-14 -16q-1 -20 10 -74q1 -4 3.5 -15t4 -17t6 -14t10.5 -13q10 -15 18 -2q4 8 1 17q-2 7 -4 16q19 -12 32 3q16 18 34 69q3 -39 -9 -135q-2 -20 -7.5 -54.5t-9 -63
t-5.5 -54.5q0 -32 16 -34q16 -1 31 27q6 13 11 26t9 29l6.5 26t7 30t6.5 27q6 25 19 91t23 101q1 4 2 11q2 6 1 6l-6 -7l-2 -4q-15 -34 -42 -129q-30 -133 -38 -160q-14 -40 -23 -50q-1 11 0 13q2 35 12.5 99t12.5 77q0 3 2 18.5t2.5 20l2 18t2 20t1 18.5t0.5 20t-0.5 18
t-2.5 19q1 9 -4.5 18t-13.5 9z" />
    <glyph glyph-name="khokhwaithai" unicode="&#xe04;" horiz-adv-x="347" 
d="M238 399q-39 -1 -77 -26q-50 -35 -83.5 -87.5t-44.5 -111.5q-19 -101 20 -157q6 -16 22.5 -16t22.5 17q6 14 12.5 31t14 38t11.5 32h3q52 -20 74 11q35 47 36 96q0 15 -11 25.5t-25 7.5q-44 -9 -78 -75q-8 -16 -16 -37q-16 -2 -6 -13q-2 -6 -15.5 -45.5t-21.5 -58.5
l-1 -1q-31 39 -23 121q10 97 80 170q61 64 117 58q41 -3 60 -62q19 -64 15 -115q-12 -94 -63 -231q0 -2 -2 -8l-3.5 -10.5t-1.5 -5.5q9 12 29 54q44 104 54 160q13 59 1 116q-15 83 -54 110q-20 13 -46 13zM216 231q3 -2 4 -6.5t-0.5 -10t-3 -10t-4 -11.5t-2.5 -9
q-1 -1 -5.5 -10t-6.5 -12.5t-7 -9t-10 -8.5q-8 -1 -34 3q4 8 7 16q10 18 16 28t18.5 22.5t27.5 17.5z" />
    <glyph glyph-name="khokhonthai" unicode="&#xe05;" 
d="M298 380q-4 0 -8 -1.5t-7.5 -5.5t-6 -6.5t-6.5 -7.5t-5 -6q-23 -36 -46 -18q-7 3 -23.5 15t-30 17t-27.5 2q-28 -7 -48.5 -28.5t-39.5 -53.5q-40 -65 -48 -136q-10 -91 29 -139q10 -16 25.5 -8.5t18.5 23.5q8 19 21 55.5t20 53.5q1 -1 2 -3q7 -12 22 -14.5t26 6.5
q35 26 50 83q5 13 0.5 30t-19.5 21q-29 4 -61 -32q-12 -14 -22 -32q-7 7 -12 -1q-2 -11 0 -23q-8 -16 -14.5 -34t-15 -43t-11.5 -35q0 -4 -6 -15.5t-7 -13.5q-10 12 -13 21q-24 63 2 155q18 56 56 106q31 38 58 37q14 -3 38 -19.5t39 -19.5q24 -6 50 27q1 4 9 12t9 10
q12 -33 4 -91q-13 -137 -31 -269q0 -3 -1 -9t-1 -10t1 -7q4 12 14 56q2 8 9.5 44t10.5 51.5t7 42.5t6 49q0 9 4.5 50.5t2.5 63.5q0 2 -1.5 11.5t-2.5 13.5t-3.5 10.5t-6.5 11.5q-5 3 -10 3zM186 230q3 1 3 -2q-2 -35 -32 -70q-5 -8 -9.5 -7.5t-7 4.5t-6.5 12l-2 4
q10 20 22 35q5 7 15.5 15.5t16.5 8.5z" />
    <glyph glyph-name="khorakhangthai" unicode="&#xe06;" horiz-adv-x="400" 
d="M374 411v-2q17 -64 -9 -163q-31 -109 -72 -198q-1 -2 -6.5 -17t-12 -21t-16.5 -1q-8 6 -16 15t-13 16t-13 19.5t-11 17.5q-2 3 -5 8q54 85 53 181q-4 74 -18 103q-7 17 -25 25.5t-33 -3.5q-11 -13 -19.5 -44.5t-9.5 -34.5q-3 6 -8.5 23t-9.5 25q-16 41 -41 37
q-23 -6 -20 -46q6 -58 31 -86q7 -12 25 -17q10 -2 10 5q0 2 -1 5q-31 59 -33 96q5 -10 12.5 -31.5t11.5 -31.5q4 -12 16 -17t21 5q8 11 12.5 25t8.5 31.5t8 27.5q3 19 17 0q8 -11 9 -19q27 -109 -15 -205q-9 -18 -17 -32q-32 50 -63 68q-24 14 -51 2.5t-38 -36.5
q-18 -51 13 -105q11 -20 31.5 -30.5t41.5 -3.5q35 11 69 65q34 -54 56 -72q14 -12 30.5 -6.5t22.5 21.5q48 104 70 178q34 122 18 197q1 2 -4.5 14.5t-6.5 11.5zM95 162q6 0 11 -2q8 -4 15 -9t12 -9.5t12 -13t9.5 -12t10 -14.5t9.5 -13v-1q-14 -24 -30 -42q-12 -15 -27 -21
t-33 2q-38 27 -35 89q0 18 14 31.5t32 14.5z" />
    <glyph glyph-name="ngonguthai" unicode="&#xe07;" 
d="M195 400q-12 0 -16 -12q0 -8 -0.5 -11t3 -10.5t5 -10t6 -9.5t6.5 -9q46 -61 83 -99q8 -23 9 -45q5 -43 -6.5 -84t-39.5 -71q-8 -10 -21.5 -13t-24.5 2q-46 19 -94 80q-33 41 -57 121q-26 83 -18 127q0 4 2 9q4 8 2 7q-5 -1 -9 -11q-12 -29 -5 -91q6 -51 37 -121
q39 -77 104 -124q51 -35 86 -12q48 38 63 107q11 50 2 97q13 -5 21 1q0 9 -5 16.5t-14.5 17l-12.5 12.5q0 1 -6 7l-1 1q-35 74 -78 117q-8 10 -21 11z" />
    <glyph glyph-name="chochanthai" unicode="&#xe08;" 
d="M195 403q-16 0 -31 -5q-72 -25 -116 -100q-19 -29 -21 -89q0 -72 32 -99q6 -5 12 -6q6 -2 7 -2q2 0 -3 4l-4 2q-33 24 -28 91q7 72 30 103q48 67 110 80q28 7 64 -19q30 -20 42.5 -56t1.5 -70q-5 -15 -12.5 -30t-19.5 -32.5t-18 -26t-23.5 -29.5t-21.5 -26q0 1 0.5 2
t0.5 2q3 21 2 42q8 0 5 12q-3 8 -8 18q-8 45 -31 78q-8 14 -23 7t-10 -22q8 -38 38 -78q0 -2 1 -4q4 -46 -9 -103q-11 -19 -12 -37q-3 -8 2 -14t12.5 -6t10.5 8q8 19 13 42q13 20 41.5 56t40.5 53q55 81 46 138q-4 32 -23.5 59t-48.5 43q-22 14 -49 14z" />
    <glyph glyph-name="chochingthai" unicode="&#xe09;" horiz-adv-x="347" 
d="M195 397q-13 0 -25 -4q-48 -13 -83.5 -52.5t-48.5 -90.5q-16 -74 10 -123q11 -19 19 -20q-28 35 -22 96q3 67 60 128q53 55 107 45q30 -7 54 -29t35 -51q5 -15 5.5 -31.5t-4.5 -35.5t-8.5 -30t-11.5 -33q-2 -8 -10 -28t-12 -31q-25 1 -47 -7q-9 -3 -17 -8q11 27 13 51
q10 1 15 4t0 10q-6 4 -15 8q0 13 -3 24q-4 18 -18.5 30t-33.5 16q-13 5 -25.5 -1.5t-10.5 -20.5q4 -23 21.5 -41t41.5 -26q-2 -23 -14 -53q-9 -22 -18 -37q-16 -14 -35 -35q-7 -5 -10.5 -14t-0.5 -16t15 -5q26 12 54 57q15 12 32 24q19 15 49 16q-6 -24 -6 -45
q0 -20 13.5 -36t33.5 -14q23 2 42 19.5t21 40.5q1 19 -13.5 33t-34.5 19q-13 4 -27 6q5 13 16 42.5t18 51.5t9 44q9 60 -34 105q-43 48 -96 48zM155 203q14 -5 18 -10q3 -5 4 -11q-14 9 -22 21zM275 82q7 0 15 -1q42 -9 44 -33q-2 -13 -13.5 -23.5t-26.5 -14.5
q-15 -1 -21.5 13.5t-3.5 29.5q2 14 6 29z" />
    <glyph glyph-name="chochangthai" unicode="&#xe0a;" horiz-adv-x="240" 
d="M426 600q-5 0 -19 -13q-107 -97 -160 -164q-80 -98 -109 -149q0 1 -2 2l-1 1q-31 58 -71 99q-9 13 -21.5 11t-16 -13.5t4.5 -23.5q31 -49 91 -104q0 -1 0.5 -1.5l0.5 -0.5q-9 -18 -15 -37q-2 -5 -9.5 -26t-10 -28.5t-7.5 -25.5t-7 -29t-4 -26.5t-2 -29.5q-2 -20 14 -33
t33 0q12 10 22 27.5t14 29t10 33.5q20 71 -1 124q11 -2 14.5 2t-3.5 16l-18 18q28 50 86 125q90 108 173 199q1 1 3.5 4t3.5 4q9 9 7 9zM134 219q6 -16 10 -32q9 -54 -22 -128q-7 -24 -20 -31q-9 -5 -12 11q0 14 1 27t5 31t5.5 24.5t9.5 30.5t8 25q6 21 15 42z" />
    <glyph glyph-name="sosothai" unicode="&#xe0b;" horiz-adv-x="267" 
d="M433 607q-35 -18 -102 -77q-89 -79 -140 -207q-7 -32 6.5 -89t14.5 -69q-9 -72 -69 -129q0 5 -2 8q3 42 16.5 124t16.5 123q3 23 3 54t-9 52q-22 20 -39 -32q-3 -12 -15 -36t-13 -27q-5 6 -9 15.5t-6.5 15.5t-6 18.5t-5.5 16.5q2 19 -16 28q-18 10 -23 -14q0 -35 19 -103
q2 -17 19 -32q13 -12 16 8q-1 11 -4 25q7 -4 15 -5q11 2 19.5 11t12.5 17t10 23l8 20q0 2 1 5q1 -41 -4 -87.5t-14 -102.5t-12 -87q0 -2 -1 -6q-1 -13 -1 -20.5t1 -19t7.5 -15.5t18.5 -2q66 52 85 140q3 24 -8.5 67t-12.5 54q-9 36 14 79q61 127 191 239q1 1 8 7t10 10z" />
    <glyph glyph-name="chochoethai" unicode="&#xe0c;" horiz-adv-x="427" 
d="M139 398q-8 0 -15 -1q-25 -1 -45.5 -15.5t-23.5 -37.5q1 -10 6.5 -19t13 -19.5t10.5 -16.5q19 -23 0 -58q-6 -11 -23 -38t-26.5 -47.5t-12.5 -42.5q-7 -68 17 -99q10 -14 24.5 -5.5t12.5 24.5q3 52 -13 91q-2 4 -6 11q6 18 32 60.5t31 69.5q1 11 -2 22.5t-8 19.5
t-13.5 20t-11.5 18q-8 8 -1.5 17t18.5 15q50 18 82 -8q47 -40 63 -121q11 -55 -8 -125q-5 -17 -6 -19q-8 6 -16 11q-18 11 -39.5 7t-33.5 -21q-14 -14 -17 -34t5 -38q5 -15 19 -24t29 -5q39 8 63 66q3 -3 12.5 -14t14.5 -16q2 -3 10 -11.5t11.5 -12t10.5 -9t14 -8t15 -3.5
q26 2 40 51q13 61 32 175t25 147q0 1 1 10q4 20 2 19l-1 -2q-9 -27 -16 -55t-16.5 -71t-12.5 -55q-7 -30 -17.5 -85.5t-15.5 -79.5q-4 -17 -12.5 -28.5t-21.5 -1.5q-12 9 -23 21t-23.5 27t-20.5 23q22 67 23 116q-1 108 -64 176q-27 29 -72 29zM189 93q4 0 8 -1
q16 -5 31 -19q-13 -37 -35 -55q-17 -15 -33 -1.5t-12 34.5q2 16 14 29t27 13z" />
    <glyph glyph-name="yoyingthai" unicode="&#xe0d;" horiz-adv-x="427" 
d="M139 398q-28 0 -53 -12q-15 -8 -24.5 -23.5t-2.5 -29.5q3 -5 20 -18.5t16 -26.5q-2 -19 -10.5 -39.5t-21.5 -45t-18 -37.5q-39 -78 -14 -145q3 -18 20.5 -23t23.5 14q18 52 3 112q-1 10 -12 23q6 14 22 47t23 51q0 1 1 4q14 44 3 63q-2 4 -6.5 8.5t-9 8.5t-9 7.5t-7 5.5
l-2.5 2q9 29 58 30q42 3 71 -39q42 -59 23 -162q-2 -20 -14.5 -66.5t-13.5 -72.5q-1 -13 7.5 -24t22.5 -9q29 7 73 6q2 0 10.5 0.5t12 0.5t10.5 1.5t11 3.5t8.5 5.5t6.5 8.5q3 12 5 35.5t3 28.5q1 10 6 52.5t7.5 59.5t8 49.5t12 58t16.5 50.5q0 2 2.5 8.5t4 11t-0.5 4.5
q-27 -42 -51 -135q-13 -47 -25 -167q-1 -4 -2 -24.5t-8 -27.5q-13 -4 -33 -4h-34q-8 1 -25 -2.5t-25 -2.5q-3 6 -3 13.5t1 12.5t3 14t2 12q30 109 30 167q-1 45 -20 85.5t-56 61.5q-21 10 -46 10zM51 97q3 -27 1 -47q-3 16 -1 47v0zM412 13q-2 0 -5 -2q-35 -36 -53 -52
q-41 -35 -73 -42q-13 -4 -26 -2q3 10 2 22q-2 11 -11 18t-19 6q-13 0 -21.5 -10.5t-6.5 -23.5q3 -23 33 -33q37 -13 78 11q46 28 102 102q2 6 0 6zM227.5 -67q0.5 0 0.5 -1h-1q0 1 0.5 1z" />
    <glyph glyph-name="dochadathai" unicode="&#xe0e;" 
d="M149 389q53 0 96 -36q32 -25 50 -62.5t15 -76.5q-6 -65 -25 -155q-28 -117 -95 -299q-6 -5 -13 -2t-11.5 7.5t-10.5 11.5t-10 10q-8 8 -25 26t-26 27q-35 -37 -69 -64q-19 -13 -27 -18.5t-25.5 -10.5t-31.5 -2q-11 7 -11.5 21t2.5 22t11 23q36 67 76 90q7 4 14.5 4.5
t15.5 -4t12.5 -7t13.5 -10.5t11 -10l10 -10q20 20 40 41.5t46 51t38 42.5q1 1 1 0l-6 -9q-5 -8 -14 -20q-56 -74 -94 -116q10 -10 33.5 -34t36.5 -37q28 78 40 114t30 100.5t27 117.5q1 10 6 41t6.5 46.5t-1.5 39.5t-12 42q-20 36 -54 59t-72 21q-6 2 -23 -3t-18 -5
q5 -5 13.5 -19t11.5 -22q11 -30 13 -67t-1.5 -65.5t-12.5 -67.5q-8 -30 -12 -43t-15.5 -34.5t-26.5 -34.5q-17 -14 -30.5 1t-11.5 35q-5 67 36 96q20 13 36 -6q14 61 12 125q-4 60 -37 92q-11 15 3.5 26.5t33.5 12.5q15 4 31 4zM85 111q-2 0 -6 -9q-19 -30 -14 -68
q17 18 17 24q5 11 9 23v7q-1 4 -2 10t-1.5 9.5t-2.5 3.5zM34 -115q-9 0 -16.5 -6t-17 -17.5t-11.5 -13.5q-36 -48 -41 -79q1 -6 6 -7t11.5 1.5t12.5 5.5t13 7t8 5q41 29 84 70q-21 20 -41 33q-4 1 -8 1z" />
    <glyph glyph-name="topatakthai" unicode="&#xe0f;" 
d="M150 389q36 0 69.5 -18.5t57.5 -49.5q45 -53 29 -146q-15 -114 -46 -210q-23 -77 -69 -202q-7 -4 -11 -4.5t-7.5 5t-5 11t-3.5 12.5t-4 10q-1 3 -8.5 21t-10.5 24.5t-9.5 18.5t-13.5 21q-1 -4 -4 -11t-5 -13t0 -9q-3 -9 -5 -26t-6 -30t-13 -22q-12 0 -19 8t-14 24t-10 21
q-25 -30 -52 -54q-11 -11 -23 -18.5t-26.5 -7.5t-20.5 16q-7 30 2 61t29 56q14 21 37 23.5t37 -18.5q11 -12 22 -29q13 16 28.5 36t25.5 34.5t27.5 39t25.5 36.5q6 8 -9 -20l-7 -13q-50 -83 -84 -126q1 -2 10 -18t13 -24q1 3 4 10t4 12t0 9q3 8 5 26t6.5 31t14.5 21
q12 -1 20 -8t17 -26t10 -20q9 -19 24 -56q26 75 41 121t32.5 113.5t24.5 124.5q5 30 6.5 51.5t-4.5 49t-21 46.5q-25 32 -61.5 49.5t-73.5 8.5q-7 -4 -21 -4q41 -38 39 -102q5 -115 -38 -212q-8 -15 -11.5 -21t-13.5 -15t-20 -11q-10 2 -16 7.5t-8 16t-2.5 17t-0.5 18.5
q2 64 42 82q18 7 29 -8q19 77 11 155q-1 7 -3 13.5t-4 11t-7 11.5t-7 9.5t-9 11t-8 8.5q-6 17 9 25.5t35 11.5q13 3 28 3zM86 111q-2 0 -9 -12q-16 -24 -12 -64q1 1 5.5 6.5t7 8t4.5 6.5t2 8q4 8 7 18q-2 6 -1 13q-2 16 -4 16zM-9 -119q-5 0 -11 -3q-23 -18 -35 -48t-8 -60
q3 -6 8.5 -6t12 4t12 9t12 10.5t9.5 6.5q21 20 42 43q0 2 -4 8.5t-5.5 9t-5 7.5t-6.5 7.5t-6.5 6t-7 4.5t-7.5 1z" />
    <glyph glyph-name="thothanthai" unicode="&#xe10;" horiz-adv-x="287" 
d="M305 381q1 0 -1 -9q-1 -5 -3 -11q-10 -27 -37.5 -39t-56.5 -5q-20 2 -62.5 20.5t-67.5 19.5q-19 4 -35 -7q-13 -9 6 -19q23 -12 66.5 -32.5t78 -38.5t62.5 -38q17 -12 18 -34.5t-11 -37.5q-15 -25 -53.5 -62t-51.5 -55q-4 -14 -8 -27q-6 -21 -20 -12q-15 8 -9 25q1 3 3 6
q5 10 11 19q1 3 0 4q11 53 6 94q-13 14 -19 29q-2 4 -6.5 13.5t-7 15.5t-4 14t0.5 15t9 12q7 1 12.5 -1t10 -8t7 -10t6.5 -13t5 -11q7 -19 11 -41q7 -12 10 -23q-3 -4 -7 -5q1 -24 -2 -49q5 5 15 14t18 16.5t14 14.5q3 3 10.5 11.5t11.5 13.5t9 12.5t6.5 15t-0.5 15.5
q-6 10 -15.5 17.5t-26.5 17t-20 11.5q-26 15 -77 39t-74 36q-15 7 -18.5 21t5 26t24.5 12q10 5 26.5 3t25 -3t24.5 -7t24.5 -9.5t24 -10t23.5 -9.5q22 -11 50 -7t43 25q2 1 8.5 13.5t7.5 12.5zM169 8q-1 -1 -9 -18q-3 -4 -19.5 -28.5t-21 -31.5t-19 -27.5t-22.5 -31
t-20.5 -26t-24.5 -27.5q0 -3 13 -29q11 21 11 24q2 4 8 23t14 27.5t21 7.5q27 -17 50 -74q14 27 19 64q-24 30 -14 72q3 14 14 15t20 -8.5t9 -21.5q9 -48 -21 -126q-4 -21 -21 -32q-17 -12 -23 12q-22 56 -38 73q0 -4 -8.5 -19t-8.5 -21q0 -1 -7 -19.5t-14 -24.5t-19 -2
q-11 13 -22 42q-18 -18 -37 -33l-12.5 -8t-17 -10t-14.5 -5.5t-17 -1t-12 10.5q-21 43 15 100q30 41 57 36q26 -9 46 -54q15 17 43 51.5t42 50.5q3 4 24.5 31t35.5 39zM-33 -131q-10 0 -19 -13q-38 -42 -28 -88q4 -6 12 -4t13.5 5.5t14 9.5t11.5 7q19 14 38 34q-4 9 -8 16
q-4 13 -13.5 23t-20.5 10zM140 -221q-2 -1 -3 -3z" />
    <glyph glyph-name="thonangmonthothai" unicode="&#xe11;" horiz-adv-x="347" 
d="M151 401q-9 0 -16 -5q-8 -8 -12.5 -18.5t-8.5 -26.5t-6 -22q1 -4 -5 -15q-7 16 -7 19q-2 5 -6 17t-7 18t-8.5 14.5t-12.5 13.5q-13 8 -25 -2t-12 -24q-2 -56 27 -101q7 -12 26 -18q13 -5 12 7v2q-31 60 -34 96q5 -10 12.5 -31.5t12.5 -31.5q4 -12 16 -17t21 5q7 11 12 25
t9 31.5t7 27.5q6 21 8 -8v-8v-3q-1 -58 -21 -149q-36 -74 -56 -143q-6 -10 -3 -26t18 -10q20 16 34 54q18 61 33 132q30 60 67 113q2 3 10.5 15t13 17t13.5 11.5t19 8.5q23 -1 41 -43q16 -36 9 -79q-14 -99 -51 -258q-1 -2 -2 -8.5t-2 -9.5q-2 -8 -1 -9l8 17q31 89 56 194
q15 80 13 116q-11 64 -44 90q-15 12 -33.5 8.5t-32.5 -16.5q-29 -30 -71 -99q12 66 6 102q-1 11 -9 18.5t-18 8.5z" />
    <glyph glyph-name="thophuthaothai" unicode="&#xe12;" horiz-adv-x="480" 
d="M291 397q-9 -1 -17 -5q-36 -14 -30 -73q1 -3 1 -8.5t-0.5 -13t-0.5 -10.5q-1 2 -10 12.5t-11 15.5q-1 2 -8.5 12t-10 13.5t-9.5 11.5t-11.5 12t-11.5 9t-14.5 8t-14.5 4q-29 3 -54 -15t-39 -45q-47 -91 -19 -191q29 -80 72 -115q13 -12 32 -11t29 16q52 75 46 151
q-3 27 -16 50t-36 28q-20 4 -33.5 -12t-15.5 -37q-3 -30 16.5 -56t49.5 -36q-6 -24 -20 -50q-5 -18 -18.5 -24t-25.5 10q-42 44 -59 109q-18 97 27 168q12 19 31 30t38 4q14 -7 24 -17t25.5 -31.5t17.5 -24.5q4 -7 9.5 -13.5t12.5 -12t14.5 -4.5t12.5 10q5 14 2.5 49t5.5 49
q9 12 23 9.5t19 -15.5q37 -66 18 -177q-7 -35 -15 -71q-8 7 -17 11q-18 8 -37 -1.5t-28 -27.5q-13 -20 -13.5 -43.5t12.5 -43.5q11 -16 31 -15t33 15q20 23 31 67q3 -4 10 -12.5t11 -13.5t13.5 -16.5t15 -18t15.5 -14t20 -10.5q17 -4 28 10t16 34q14 59 22.5 169t14.5 147v5
q0 3 2 15l1 17l-1 -2q-15 -51 -26.5 -147t-16.5 -122q-2 -9 -5.5 -30t-7 -36.5t-9.5 -28.5q-11 -28 -46 15q-8 8 -24.5 30t-27.5 32q5 22 7 31q38 144 -2 232q-6 16 -19.5 27.5t-28.5 11.5zM152 221q6 0 12 -5.5t8 -13.5q13 -29 8 -66q-14 13 -21 20t-13.5 21t-4.5 28
q1 15 11 16zM282 105q4 0 8 -1q11 -5 22 -14l-6 -24q0 -1 -2 -7.5t-3 -8t-3 -7t-3 -7.5l-3.5 -7t-5 -7t-5.5 -5t-6.5 -4.5t-7.5 -2.5q-18 -1 -24 21t2 36q15 38 37 38z" />
    <glyph glyph-name="nonenthai" unicode="&#xe13;" horiz-adv-x="427" 
d="M439 400q-69 -80 -94 -137q-28 -70 -35 -126h-10q-25 1 -48 -15q14 72 1 142q-20 109 -84 130q-28 9 -61.5 0.5t-47.5 -34.5q-8 -19 -0.5 -27t21 -21t14.5 -24q-3 -22 -11 -46.5t-20 -53.5t-17 -45q-11 3 -9 -10q2 -2 4 -6q-10 -37 -7 -69q1 -25 14.5 -47t36.5 -9
q21 26 18 57t-22 58q-2 5 -10 12q5 18 21 58.5t22 61.5q9 21 5 47t-25 38q-28 9 -3 26q17 12 35 13q24 5 46.5 -7.5t33.5 -35.5q51 -106 15 -240q-8 -13 -13 -27q-13 -22 -11 -43q2 -15 19 -6q17 34 27 70q1 2 2 3q18 29 62 30q-2 -39 5 -73q4 -25 23 -42.5t42 -8.5
q26 12 39.5 41t2.5 55q-24 40 -90 47q2 14 14 74q16 74 80 162q14 26 15 28zM328 116l10 -2q63 -11 67 -47q2 -16 -10 -34t-27 -21.5t-28 15.5q-17 38 -12 89zM64 87q13 -28 7 -50q-3 11 -6 20q-2 15 -1 30z" />
    <glyph glyph-name="dodekthai" unicode="&#xe14;" horiz-adv-x="400" 
d="M213 397q-38 0 -72 -22q-43 -27 -72 -70.5t-37 -94.5q-7 -37 6.5 -75t40.5 -68q25 -27 56.5 -42t63.5 -6q29 9 48 35t28 59q15 54 -20 115q-41 71 -91 83q-19 5 -37 -4t-21 -28q-5 -38 23 -91q4 -5 8 -9t11 -10.5t10.5 -5.5t7.5 7q-3 15 -14.5 43t-14.5 43q-7 16 6 24
t26 -1q46 -23 74 -89q12 -29 8.5 -57.5t-19.5 -55.5q-10 -18 -28 -29t-38 -7q-61 12 -99 85q-30 53 -3 121q18 45 49.5 79t72.5 47q33 10 66.5 -3.5t60.5 -39.5q59 -60 56 -118q-4 -83 -65 -214l-1 -2q0 -2 -4 -10l-5 -12q1 1 4 3q34 49 67 131q35 90 18 149
q-16 44 -49 79.5t-76 52.5q-21 9 -45 8z" />
    <glyph glyph-name="totaothai" unicode="&#xe15;" horiz-adv-x="427" 
d="M301 397q-25 0 -39 -16q-6 -7 -9 -15.5t-4.5 -14.5t-0.5 -18.5t1 -16t2.5 -18.5t2.5 -16q4 -20 5 -28l-2 2q-8 12 -24 39.5t-30 46.5t-33 32q-24 14 -50 8.5t-46 -24.5q-33 -31 -48 -76.5t-12 -92.5q2 -52 48 -100q61 -63 114 -74q19 -5 35.5 6t19.5 30q9 46 -1 93
t-38 84q-8 14 -24 18t-27 -10q-12 -30 22 -79q19 -26 42 -33q3 -22 2 -44q0 -2 -0.5 -8t-1 -9t-1.5 -8t-3 -7.5t-5.5 -4.5t-8.5 -2q-29 1 -75 36q-20 17 -32 29t-24 31t-16 39q-7 42 4 84t38 74q15 18 36 25t43 -5q15 -12 28 -29.5t27 -42t22 -34.5q4 -9 11.5 -16.5t16 -9.5
t13.5 11q2 17 -4 49.5t-6 37.5q-5 44 16 54q43 13 82 -37q47 -61 43 -119q-4 -52 -23 -102.5t-51 -115.5q-1 -2 -4 -8.5t-5.5 -11.5t-1.5 -7q25 31 65 113q15 33 23 54.5t13.5 53t1.5 58.5q-20 88 -81 130q-22 14 -46 15zM172 205q11 -15 19 -33q-15 22 -19 33z" />
    <glyph glyph-name="thothungthai" unicode="&#xe16;" 
d="M142 397q-23 0 -44 -7q-16 -6 -28 -18.5t-13 -28.5q4 -14 17 -38.5t17 -33.5q15 -28 -16 -68q-48 -61 -51 -106q-5 -67 22 -96q12 -10 25 -2t15 22q17 65 -15 111q-2 4 -8 8q6 13 15 24q1 2 8 11.5t9.5 13t8 12t7.5 13.5l5 12.5t3.5 15t0.5 14.5q-3 19 -20 50t-21 40
q2 6 13.5 15.5t22.5 10.5q43 10 86.5 -9t71.5 -57q44 -57 15 -146q-23 -64 -57 -181q-2 -7 -3 -11q-2 -9 -1 -8q3 0 9 14q6 16 18 44.5t21.5 52t17.5 44.5q27 71 25 114q0 69 -55 118q-53 50 -121 50zM52 103q9 -25 9 -49q2 -4 -3 -21q-9 22 -7 31q-3 19 1 39z" />
    <glyph glyph-name="thothahanthai" unicode="&#xe17;" horiz-adv-x="347" 
d="M51 398q-11 0 -17 -12.5t-2 -23.5q9 -37 55 -86q4 -3 8 -7q7 -33 10 -66q-22 -59 -36 -129q-1 -4 -3 -17t-2.5 -19.5t0 -16.5t3.5 -18q7 -11 16.5 -6.5t16.5 13t11 17.5q23 52 22 153q-1 16 -2 29q29 76 70 121q36 37 67 33q11 -3 22 -14.5t15 -18.5t13 -25
q9 -16 10 -39.5t-3 -41.5q-16 -102 -53 -239q0 -1 -1.5 -7.5t-2.5 -9.5q-2 -9 0 -7q4 4 6 13q26 66 54 162q17 70 19 126q2 28 -24 75q-31 54 -71 46q-55 -10 -103 -88q-8 -13 -15 -27q-3 7 -15 19q-8 33 -22 60q-1 2 -5.5 10.5t-7 12.5t-7 10.5t-9.5 10t-11 6.5q-3 1 -6 1z
M126 256h2q0 -1 -1 -2.5l-1 -1.5v4zM107 138q0 -23 -3 -45q-8 -44 -17 -60q2 40 20 105zM76 19l-1 -1q0 1 1 1z" />
    <glyph glyph-name="thothongthai" unicode="&#xe18;" horiz-adv-x="293" 
d="M312 407q-13 -21 -44 -29q-25 -7 -52.5 -7t-64 3.5t-51.5 4.5q-20 1 -37.5 -9.5t-28.5 -28.5q-8 -12 -3 -25t18 -19q27 -15 84 -32t82 -30q47 -23 47 -55q0 -10 -2 -20.5t-6 -23t-6.5 -19.5t-9 -22t-7.5 -19q-2 -4 -10 -23.5t-16 -26.5q-9 -2 -18.5 0t-22 6t-17.5 5
q-53 18 -87 8q14 20 14 21q19 27 29 42t19.5 41.5t8.5 49.5q0 14 -6 26.5t-17 13.5q-5 -6 -6.5 -15t-1 -17t-0.5 -17q-2 -18 -10 -38.5t-14 -31t-23 -36t-20 -30.5q-2 -3 -6.5 -10t-6.5 -10.5t-4 -11t2 -11.5q5 -7 12 -7.5t12 2.5t13 7.5t12 5.5q10 5 28 3.5t28.5 -4.5
l28 -8t27.5 -7q14 -5 30.5 -0.5t22.5 18.5q3 7 11.5 26t12.5 29t10 25.5t10 29.5t7 28q4 22 -3.5 43t-24.5 34q-22 16 -48 26.5t-63 21t-52 16.5q-2 0 -15 5t-19.5 9.5t-8.5 11.5q6 15 19.5 24.5t28.5 8.5q11 0 44.5 -3t52.5 -2q79 5 110 34q2 2 6 10t2 9z" />
    <glyph glyph-name="nonuthai" unicode="&#xe19;" horiz-adv-x="347" 
d="M94 393q-12 0 -16 -13q-1 -9 1.5 -16.5t11.5 -22l9 -14.5q30 -43 33 -47q2 -7 3 -14q4 -65 -32 -151q-35 -35 -66 -84q-12 -13 -9 -29q3 -13 18 -8q32 20 67 83q7 14 14 29l4 4q15 13 22 18.5t21 12t27 5.5q2 0 5 -1q-12 -35 -24 -79q-5 -21 -7 -31t-0.5 -27.5t8.5 -30.5
q10 -15 30 -17t34 8q25 15 40 39t13 51q-3 31 -21.5 58.5t-47.5 42.5q22 55 54 118q3 5 11 19t12 21.5t11 18t14 19.5t15 17q1 2 7.5 9t9.5 12q-21 -12 -37 -31q-42 -50 -81 -121q-18 -34 -34 -75q-32 9 -68 -16l-1 -1q19 56 19 107q6 -4 10 -2.5t4 6.5t-3 11q-7 13 -19 30
q-11 37 -35 73q-3 8 -11 13.5t-16 5.5zM225 138q36 -19 52 -63q14 -35 -14 -67q-29 -35 -54 -27q-12 7 -14 24.5t1 30.5q10 50 29 102z" />
    <glyph glyph-name="bobaimaithai" unicode="&#xe1a;" horiz-adv-x="347" 
d="M97 395q-17 0 -18 -18q0 -6 1.5 -13.5t3 -13t5.5 -13.5t6 -11.5t7.5 -13t6.5 -11.5q3 -4 8.5 -12.5t10 -15t9.5 -11.5q3 -56 -27 -134q-21 -49 -40 -76q-16 -12 -40 -39q-13 -12 1 -20q11 -7 20 5q21 16 39 41q11 6 22 5q22 -1 45.5 -9.5t51 -20.5t43.5 -17
q10 -6 23 -3.5t15 15.5q-1 70 1 88q1 20 5 43.5t7.5 37.5t11.5 44t10 38q12 54 35 112q0 1 2 7l3 14q-1 -1 -3 -5q-30 -50 -50 -111q-44 -120 -42 -227q-1 -4 -0.5 -14t1 -15.5t-1.5 -7.5q-11 2 -23.5 7t-27.5 12t-23 10q-2 1 -10.5 4.5t-11 4.5t-10.5 4t-11.5 4t-10.5 2.5
t-12 2.5t-11 1.5t-12 -0.5q9 15 19 37q35 80 38 142q16 -6 15 5q-3 14 -18 34q-10 49 -40 96q-5 16 -23 16z" />
    <glyph glyph-name="poplathai" unicode="&#xe1b;" horiz-adv-x="347" 
d="M439 600q-3 -1 -14 -21q-3 -4 -14 -25t-14 -27t-13 -24.5t-14 -27.5t-12 -25.5t-12.5 -28t-10.5 -26t-10 -28.5q-49 -150 -55 -265q-2 -64 1 -89q-10 2 -21 6t-26.5 11t-20.5 9q-3 1 -18 7.5t-20.5 8t-17.5 5.5t-21.5 5t-18.5 1q40 67 54 151q3 13 3 27q7 -3 12 -0.5
t0 11.5q-6 12 -15 27q-5 28 -19 57q-2 4 -5 10.5t-6 12t-6.5 12.5t-7.5 11t-9 7.5t-11 3t-12 -3.5q-3 -4 -4.5 -8.5t-2 -8t0 -8.5t1.5 -8.5t3.5 -9t3.5 -8t4 -8.5t3 -7q30 -49 42 -61q5 -54 -28 -140q-22 -50 -39 -74q-26 -18 -44 -45q1 -28 31 -5q12 9 18 18q7 8 14 18
q9 5 19 6q23 0 47 -8t52.5 -21t45.5 -18q18 -11 32 2.5t7 32.5q-8 127 41 297q32 95 99 248q3 8 5 13q4 11 3 11z" />
    <glyph glyph-name="phophungthai" unicode="&#xe1c;" horiz-adv-x="347" 
d="M320 398q-1 0 -1 -5t1 -10q11 -112 3 -176q-6 -93 -50 -172q-3 -8 -4 -8l-5 11q-9 28 -20 85.5t-19 84.5q0 17 -14.5 22t-19.5 -13q-6 -16 -24 -77.5t-36 -92.5q-7 -13 -18 -21t-23 0q-34 19 -40 84q-4 81 29 163q32 10 68 47q5 6 7 8.5t6.5 8t6 9.5t3.5 9.5t2 10.5
t-2 10q-7 13 -23.5 13t-26.5 -8q-34 -22 -60 -82q-19 -8 -31 -7q-13 -8 7 -19q6 -3 13 -4q-33 -98 -21 -181q5 -30 21 -55t42 -33q16 -5 31.5 4t24.5 25q14 23 24 50.5t20 64.5t15 53q5 -15 13 -54q3 -11 8 -37.5t10 -46t12 -36.5q3 -13 16.5 -15.5t19.5 9.5q30 50 46 115
q25 98 -4 244q-3 9 -4 15q-2 7 -3 7zM139 358q-13 -20 -36 -36q17 28 36 36z" />
    <glyph glyph-name="fofathai" unicode="&#xe1d;" horiz-adv-x="347" 
d="M293 640q0 -22 4 -63.5t5 -61.5q6 -108 9 -195q0 -55 -1 -90t-7.5 -83t-18.5 -88q-1 -2 -5 -11q-7 -21 -10 -21q-2 0 -3 5q-10 27 -20 81t-14 70q-1 9 -3.5 18t-7.5 19t-11.5 10.5t-15.5 -8.5q-11 -22 -23 -65t-18 -59q-1 -3 -5.5 -15t-7 -18t-7.5 -15t-11 -15.5
t-13 -10.5q-20 -3 -34 14t-19 39q-18 82 22 193l1 3q37 12 76 56q8 8 13 19t3 22.5t-14 16.5q-38 10 -73 -42q-14 -22 -24 -47q-11 -4 -21 -6q-14 1 -15 -4q0 -9 17 -17q4 -2 7 -2q-22 -63 -24 -134q0 -95 50 -127q17 -13 37.5 -8t31.5 23q16 23 26.5 50t21.5 67t15 55
q8 -27 19 -82q2 -8 6 -31.5t9 -39t14 -29.5q8 -10 20.5 -5.5t16.5 17.5q15 30 23 70t10.5 65.5t4.5 74.5q7 181 -28 377q-8 26 -8 28zM137 357h1q-15 -20 -35 -35q15 24 34 35z" />
    <glyph glyph-name="phophanthai" unicode="&#xe1e;" horiz-adv-x="373" 
d="M55 391q-8 0 -13 -8q-3 -4 -4 -9t-0.5 -10.5t1 -8.5t3.5 -10t3.5 -8.5t4.5 -9.5l4 -8q29 -46 41 -59q5 -31 6 -57q-38 -81 -68 -160q-7 -11 -6 -28t18 -12q44 41 66 89q21 43 17 113q39 84 75 135q1 2 5 7q18 22 20 14q21 -82 29 -148q3 -26 4 -48q-21 -73 -29 -138
q-7 -14 4 -26q10 -10 19 6q30 63 26 157q2 7 5 17q36 116 82 183q1 3 5 8t8.5 10t4.5 6q-12 -6 -30 -28q-43 -58 -78 -147q-10 80 -31 158q-4 12 -17 14t-22 -7q-6 -6 -13 -13.5t-11.5 -13.5t-11.5 -16.5t-9.5 -15t-10 -17.5t-8.5 -16q-7 -12 -14 -26q-3 7 -9 15
q-10 44 -37 94q-4 8 -12.5 15t-16.5 7zM100 143q-6 -36 -30 -72q7 20 30 72zM33 26l-0.5 -0.5l-0.5 -0.5q0 1 1 1zM238 17v-1v1zM51 16z" />
    <glyph glyph-name="fofanthai" unicode="&#xe1f;" horiz-adv-x="373" 
d="M466 600q-1 0 -4 -5q-47 -67 -114 -194q-35 -62 -60 -148q-3 20 -11 51q-3 9 -6 27t-8 31.5t-15 21.5q-9 2 -16 0t-14 -8t-11 -10.5t-11 -13.5t-9 -12q-28 -41 -54 -88q-5 10 -12 21q-6 28 -16 53q-3 5 -8.5 17.5t-9 19t-10.5 15t-16 12.5q-18 3 -23 -16.5t5 -32.5
q24 -51 52 -80q4 -24 6 -70q-25 -51 -57 -123q-1 -6 -5.5 -16.5t-8 -18t-3.5 -16.5t6 -16q13 2 24 11.5t22.5 27.5t16.5 23q36 53 33 131q36 72 74 130q2 2 9 11q25 35 30 22q27 -110 33 -154q-7 -31 -20 -91q-1 -6 -6.5 -33t-5.5 -33.5v-33.5q6 -6 11 -7.5t9.5 2.5t8 8.5
t7 12.5t5.5 12.5t4 10.5q20 65 8 155q9 34 20 71q37 105 136 292l1 3l2 3q-2 -3 0 3q1 1 3 4q9 18 8 18zM280 138q0 -24 -3 -46q0 -15 -13 -46q6 44 16 92zM92 114q-4 -12 -11 -24q6 14 11 24z" />
    <glyph glyph-name="phosamphaothai" unicode="&#xe20;" 
d="M142 397q-10 0 -21 -2q-21 -2 -37.5 -15.5t-17.5 -33.5q0 -21 19.5 -52.5t22.5 -45.5q4 -34 -8 -100q-1 -3 -2 -9q-8 10 -22 9.5t-23 -10.5q-30 -34 -28 -103q0 -16 7 -28.5t21 -10.5q10 4 19 13t13 16t11 20q34 78 37 182q3 30 -20 66q-2 4 -8 12.5t-9 14t-5.5 14
t-1.5 15.5q9 25 54 26q37 0 71.5 -19t58.5 -50q44 -57 15 -146q-23 -63 -57 -181q0 -1 -1 -3q-3 -16 -2.5 -16.5t4.5 7.5q11 23 29 68t25 60q32 85 32 128q3 68 -47 115q-59 59 -129 59zM74 118q2 -3 5.5 -12.5t6.5 -14.5q-12 -37 -31 -60l-1 -1q-2 18 4 49q-1 7 8 21.5
t8 17.5z" />
    <glyph glyph-name="momathai" unicode="&#xe21;" horiz-adv-x="373" 
d="M372 411q-3 0 -7 -14q-15 -42 -45 -170q-6 -32 -16.5 -91.5t-14.5 -85.5q-2 -11 -4.5 -20.5t-9.5 -17t-17 -3.5q-9 6 -17 15.5t-13 17t-13 20t-12 18.5q-2 3 -7 11q42 85 23 172q-9 49 -60 104q-8 9 -16 15t-19 8t-17 -10q-6 -25 18 -63q32 -43 57 -53q3 -2 10 -4
q5 -20 6 -42q3 -48 -19 -102q-28 42 -57 59q-25 15 -53.5 1.5t-37.5 -41.5q-15 -58 20 -108q12 -18 32.5 -25t40.5 2q34 15 61 66q11 -17 17 -25q2 -3 8.5 -13t10 -14.5t10 -11.5t13 -11.5t14.5 -7.5q14 -4 25.5 6t17.5 25q4 15 7.5 33t7 39l5.5 33q7 34 22 124.5t25 139.5
q2 7 3 16q1 3 1.5 5t0.5 2.5t-1 0.5zM95 161q16 0 27 -11q23 -19 48 -56q-5 -10 -11 -21q-9 -14 -15 -22.5t-18 -17.5t-24 -10q-34 0 -48 51q-13 53 11 74q12 13 30 13z" />
    <glyph glyph-name="yoyakthai" unicode="&#xe22;" 
d="M122 397h-2q-27 -1 -50 -16l-6.5 2t-9 2.5t-7 0.5t-7 -1.5t-4.5 -4.5q3 -11 13 -19q-5 -8 -9 -17q-10 -32 28 -61q20 -16 45 -29q-18 -12 -30 -30q-41 -63 -27 -137q17 -54 65 -78q16 -8 35 -3.5t29 18.5q6 8 11.5 15.5t10.5 18t8 16.5t8 20t6 17t6.5 20t5.5 18
q12 36 30.5 108.5t29.5 108.5q1 2 1.5 4t1 4.5t0.5 4.5q3 7 1 7q-2 -1 -6 -9q-16 -34 -52 -141q-5 -14 -12.5 -41t-12.5 -43.5t-13 -39t-17 -41.5q-1 -1 -4 -7t-4.5 -8.5t-5 -7.5t-5.5 -8t-5.5 -6.5t-7.5 -5.5t-8 -3q-27 -4 -57 32q-23 28 -21 64q3 73 46 109q9 8 21 11
q23 -10 50 -18q10 -6 21.5 1.5t4.5 18.5q-15 16 -48 22q-11 2 -23 1q-13 6 -28 14q-1 0 -6 3t-6 4t-6 4t-6.5 4t-5.5 4t-5.5 5t-4.5 5t-5 5.5t-4 5.5t-3 6q-2 11 6 21q56 -24 89 -19q12 1 17.5 11.5t0.5 20.5q-21 37 -57 37zM118 369q17 0 27 -12q-17 2 -39 10q6 2 12 2z
" />
    <glyph glyph-name="roruathai" unicode="&#xe23;" horiz-adv-x="267" 
d="M45 399q-10 0 -15 -9q-1 -4 -1 -7t0.5 -6t2.5 -6t3.5 -5t4.5 -5l4.5 -4.5t5 -4.5t4.5 -4q25 -19 50 -33q49 -74 59 -129q3 -31 -7 -67q-3 7 -7 14q-6 14 -21 18t-26 -6q-24 -22 -33 -77q-5 -48 15 -63q16 -8 30.5 -2t24.5 20q34 46 46 120q8 47 -20 107q-12 25 -25 48
q6 -3 13 -5q27 -11 56.5 -3.5t48.5 30.5q0 1 2.5 4.5t4 6t0.5 3.5q-37 -30 -62 -31q-9 -1 -13 -1.5t-12.5 2.5t-12 4t-11.5 5t-12 5l-22 11q-21 29 -44 53q-16 17 -31 17zM121 122q7 -15 11 -40q1 -6 6 -12q-17 -35 -34 -43q-4 0 -6.5 3t-3 8t0 9.5t1.5 10.5t1 9q9 41 24 55
z" />
    <glyph glyph-name="ruthai" unicode="&#xe24;" 
d="M133 389q39 0 75.5 -20t63.5 -52q28 -33 25 -81q0 -33 -3 -65t-13 -73.5t-15 -59.5t-21.5 -72t-18.5 -62q-34 -98 -30 -163q-1 -2 -4 12l-2 9q-3 30 1.5 65.5t10.5 58.5t18 63q22 71 32 108t19 98.5t3 112.5q-9 32 -36.5 55.5t-62.5 36.5q-22 9 -50 6t-43 -22
q-4 -6 0.5 -16.5t12.5 -23t11 -19.5q23 -39 2 -77q-6 -12 -23 -36t-24 -37q21 -16 22 -34q17 -60 -6 -97q-14 -15 -30 -4t-19 29q-11 39 -2.5 80t34.5 72q2 3 7 9.5t8 10.5t7 10.5t6 11.5t3.5 11t1.5 12.5t-3 12.5q-4 12 -17.5 37t-17.5 39q3 24 24 38t46 15q4 0 8 1z
M50 101v-6q-4 -38 6 -62q6 25 3 30q0 16 -9 38z" />
    <glyph glyph-name="lolingthai" unicode="&#xe25;" 
d="M177 396h-18q-38 -2 -72 -22.5t-56 -52.5q-13 -18 -16 -37t8 -38q4 -5 11 -5.5t12 3.5q1 0 -3 -0.5t-8.5 0.5t-5.5 4q-16 24 6 58q26 35 67 54.5t85 16.5q31 -2 56.5 -15t37.5 -38q31 -62 12 -163q-18 -79 -50 -120q-1 6 -0.5 25.5t0.5 26.5q0 1 -0.5 12.5t-0.5 13.5
t-0.5 12.5t-0.5 13.5t-1 12.5t-2 14t-2.5 12t-3 13t-4 12t-5.5 12.5q-8 16 -24 25t-34 7q-51 -5 -91 -70q-42 -65 -29 -135q4 -21 13.5 -36t27.5 -12q9 4 15 14t7.5 15.5t4.5 20.5q9 64 -13 104q-2 3 -8 8l1 2q32 55 70 64q14 4 26 -4t16 -22q5 -13 8 -27t4.5 -30.5t2 -26.5
t0.5 -30.5v-27.5v-14.5t1.5 -19t6.5 -12.5q13 -11 33 15q1 1 2 1q42 60 55 158q11 103 -30 161q-35 47 -111 47zM77 128q8 -27 7 -51q1 -22 -5 -43q-2 3 -2 5q-14 42 0 89z" />
    <glyph glyph-name="luthai" unicode="&#xe26;" 
d="M134 388q35 1 65 -16q84 -43 97 -111q3 -22 3 -45.5t-3 -46.5t-6.5 -44.5t-10 -46t-12 -43.5t-13 -45t-12.5 -44q-1 -2 -5 -17.5t-4.5 -18.5t-4 -17t-4.5 -19t-3.5 -18t-2.5 -19.5t-1.5 -17.5t-1 -19t1.5 -18t2 -19q4 -23 2 -21q-2 1 -5 10l-1 4l-2 6q-7 29 -8 59.5
t4.5 64t12 58t17.5 60.5l3 12q9 33 14 50.5t11.5 48t9 52t2 49t-4.5 51.5q-12 34 -42 59t-68 37q-37 10 -73 -6q5 -5 16 -22l3 -4q1 -1 -1 2q17 -27 20.5 -68t-0.5 -72q-11 -114 -49 -173q-5 -9 -13 -15.5t-17.5 -8.5t-16.5 8q-3 4 -4.5 9t-2.5 9t-1.5 10.5t-0.5 9.5
t0.5 10.5t1 9.5t1.5 10.5t1 9.5q13 58 44 63q15 2 24 -9q10 48 10 101q3 71 -32 104q-15 11 -6 25.5t26 15.5q20 6 40 6zM74 114q-3 0 -7 -10q-17 -34 -14 -72q15 15 15 21q9 18 16 38q-3 4 -5 10t-3 9.5t-2 3.5z" />
    <glyph glyph-name="wowaenthai" unicode="&#xe27;" 
d="M163 397q-31 1 -57 -14q-34 -19 -58 -52t-32 -71q-7 -32 9 -63t46 -45q1 0 6.5 -2t7 -2.5t3.5 0.5q-24 14 -40 35.5t-16 47.5q1 43 26 81q20 30 49.5 49t61.5 16q38 -4 70 -29t52 -61q22 -38 10 -85q-13 -54 -42 -102q-11 35 -37 36q-26 -2 -48 -44q-22 -48 -9 -75
q8 -13 24.5 -14t27.5 9q18 13 34 32l4 -2q9 7 9 21q12 17 27 44q41 83 36 141q-6 41 -33.5 76t-66.5 56q-30 17 -64 17zM220 105q2 0 3.5 -2t2.5 -5.5t2 -6.5t2 -7t1 -6q1 -6 4 -12l-10 -12q-2 -1 -6.5 -6t-8.5 -8.5t-8.5 -6.5t-8 -2.5t-5.5 4.5q0 32 24 62q5 8 8 8z" />
    <glyph glyph-name="sosalathai" unicode="&#xe28;" horiz-adv-x="347" 
d="M452 560q-2 0 -11.5 -10t-11.5 -14q-20 -31 -38.5 -73t-27 -65.5t-27.5 -78.5q-11 -39 -16 -58q-6 42 -16.5 71.5t-33.5 49.5q-28 20 -60 15.5t-58 -24.5q-48 -37 -79.5 -92t-41.5 -116q-16 -106 28 -157q11 -12 21 -7.5t17.5 15t9.5 22.5q6 14 16 42.5t14 39.5
q57 17 90 68q28 44 11 65q-25 22 -67 -17q-32 -34 -56 -97q-7 -6 -13 -11q-16 -13 4 -14q-1 -3 -8 -23.5t-11 -31.5q0 -3 -2.5 -8.5t-6 -11.5t-4.5 -9q-12 17 -16 32q-20 80 21 179q44 93 108 127q20 11 45.5 7t37.5 -24q12 -21 20 -50t9.5 -45t4.5 -54q-19 -79 -27 -141
q0 -2 -1 -14t-1 -18t3.5 -13.5t11.5 -11.5q15 -2 23.5 11.5t11.5 31.5q8 61 0 158l14 54q4 12 19.5 66.5t22.5 76.5t22 61t32 69q8 16 17 27v1zM213 228q-10 -24 -29 -43q-10 -12 -29 -23q15 30 33 51q1 3 5 6t12 6zM308 134q3 -62 -7 -100l-6 -10v4q1 8 0 13q3 42 13 93z
" />
    <glyph glyph-name="sorusithai" unicode="&#xe29;" horiz-adv-x="347" 
d="M97 395q-17 0 -18 -18q0 -6 1.5 -13.5t3 -13t5.5 -13.5t6 -11.5t7.5 -13t6.5 -11.5q3 -4 8.5 -12.5t10 -15t9.5 -11.5q3 -56 -27 -134q-21 -49 -40 -76q-17 -12 -40 -39q-13 -12 1 -20q11 -7 20 5q21 16 39 41q11 6 22 5q22 -1 45 -9t50 -20t42 -18q10 -5 24.5 -3.5
t16.5 15.5q-1 70 1 88q2 35 12 79q26 12 87 54q8 7 34 31q2 5 2 6t-5 0q-6 -2 -37 -17q-19 -15 -44 -30q-20 -12 -30 -17q2 8 7 27.5t8 29.5q12 54 35 112q0 1 2 8l4 13q-1 0 -2 -2q-30 -49 -52 -114q-15 -43 -25 -85q-14 -5 -27 -7q0 3 -2 6q-26 29 -59 23q-9 -1 -14 -8.5
t-2 -16.5q5 -13 34 -24q28 -11 64 2q-12 -59 -11 -114q-1 -5 -0.5 -15.5t1 -16t-1.5 -8.5q-11 2 -23.5 7t-27.5 12t-23 10q-2 1 -10.5 4.5t-11 4.5t-10.5 4t-11.5 4t-10.5 2.5t-12 2.5t-11 1.5t-12 -0.5q9 15 19 37q35 80 38 142q16 -6 15 5q-3 14 -18 34q-10 49 -40 96
q-5 16 -23 16z" />
    <glyph glyph-name="sosuathai" unicode="&#xe2a;" 
d="M373 534q-1 0 -5 -5q-74 -104 -115 -148q-54 30 -119 14q-27 -5 -46.5 -26t-20.5 -48q-1 -19 14 -31.5t35 -13.5q44 -4 107 49q16 14 31 31q14 -11 23 -26q35 -62 16 -166q-18 -82 -51 -123q0 6 -2 12q-1 8 -3 39t-4 44.5t-8 36t-16 39.5q-11 20 -35 26t-44 -4
q-60 -27 -83 -112q-14 -70 12 -111q9 -15 26 -11t21 20q22 60 0 121q-3 9 -15 20q17 30 44 46q14 10 32 6t24 -20q11 -23 15.5 -49t7 -61.5t5.5 -51.5q0 -19 17.5 -20.5t24.5 15.5q44 59 58 161q12 110 -34 168q-8 9 -17 16q43 52 93 136q-1 0 2.5 7t7 13.5t2.5 6.5z
M172 380q37 0 66 -14l-6 -6q-22 -20 -33 -29.5t-31.5 -21.5t-40.5 -14q-18 -3 -32 9t-6 29q6 21 24.5 32.5t40.5 13.5q9 1 18 1zM77 128q10 -35 7 -67q1 -4 -6 -24q-10 22 -6 67q2 12 5 24z" />
    <glyph glyph-name="hohipthai" unicode="&#xe2b;" horiz-adv-x="347" 
d="M314 398q-20 0 -37 -19q-43 -49 -60 -124q-4 -21 -4 -44q-15 -15 -32 -26l-16 -14q7 32 7 54q11 -7 23 -10q12 -2 8 9q-3 9 -9 16q-10 13 -29 33v2q-25 67 -67 111q-10 13 -24 5t-8 -24q2 -5 3.5 -10t4 -10.5t4.5 -10t6 -10.5l6 -9t7 -9.5t6.5 -8.5t7 -9t6.5 -9
q2 -2 11.5 -13.5t15.5 -17.5q4 -26 -3 -69q-4 -21 -11 -40q-48 -45 -84 -92q-7 -5 -9.5 -14t2 -16t14.5 -4q69 28 101 117q23 21 61 52q8 -67 49 -140q18 -39 73 -82q1 -1 7 -5l10.5 -7t6.5 -3l-24.5 24.5t-28 28.5t-20.5 27q-42 81 -54 159q-1 7 -1 14q60 60 95 131
q6 14 8.5 21t2.5 19.5t-7 20.5q-8 6 -18 6zM311 377q5 0 8 -3q0 -6 -1 -12t-4 -13.5t-5 -11.5t-7 -12.5t-6 -10.5q-31 -49 -63 -83q6 62 47 120q21 26 31 26zM48 39h1h-1zM60 28l-1 -1z" />
    <glyph glyph-name="lochulathai" unicode="&#xe2c;" 
d="M440 481q-11 -2 -20.5 -5.5t-21.5 -11t-16.5 -10.5t-19.5 -14.5t-17 -12.5q-6 -5 -25 -20.5t-30 -22.5q-36 63 -85 83q-20 8 -41.5 -0.5t-23.5 -29.5q-2 -42 42 -83q14 -14 35 -16t38 7q13 6 26 14q16 -34 17 -68q-3 -20 -7.5 -42.5l-10 -50l-8.5 -42.5q-14 38 -39 76
q-7 18 -25.5 20.5t-30.5 -12.5q-29 -25 -56 -61q2 15 3 31q2 14 2 28q14 -6 11 7q-6 13 -16 29q-7 33 -28 78q-1 1 -2 3q-3 6 -4.5 9.5t-5.5 9.5t-7 8.5t-8 6.5t-9 2.5t-11 -3.5q-18 -15 0 -54q27 -51 49 -72q7 -39 -9 -122q0 -3 -1.5 -9t-2.5 -9q-4 -7 -9 -15
q-2 -3 -7.5 -13.5t-8 -15t-6.5 -14t-6 -15.5t-3.5 -14.5t-1.5 -16.5q2 -21 20 -15t20 23q18 45 29 93q1 1 1.5 2.5t1.5 1.5q18 27 27 39.5t26 32.5t34 32q4 4 6 3.5t4.5 -4.5t4.5 -8.5t5 -9.5t6 -7q31 -50 37 -98q-12 -61 -13 -91q6 -20 20 -4q8 10 8 20q12 37 7 79
q5 29 15.5 83t14.5 72q13 45 -14 101q-1 3 -3 8q14 11 52 44.5t61 47.5q1 2 30 18zM184 451q24 1 56 -32q20 -23 33 -46q-18 -11 -36 -16q-32 -8 -61 34q-30 44 -6 57q7 3 14 3zM252 23q0 -2 -1 -2q1 1 1 2z" />
    <glyph glyph-name="oangthai" unicode="&#xe2d;" 
d="M158 384q-48 0 -88 -35q-69 -60 -78 -139q-2 -86 23 -143q3 -4 9 -16.5t9.5 -19t10 -15.5t13.5 -15q3 -5 20 -12q3 -2 3 -1q1 1 -7 6q-21 16 -38 59q-25 52 -23 126q-3 41 9 68q34 84 103 112q33 12 68.5 -1t61.5 -41q52 -58 45 -117q-11 -79 -86 -140q-47 -36 -80 -27
q-54 26 -74 79q-19 50 13 101q23 34 44 28q24 -9 40.5 -30.5t17.5 -46.5q-2 -12 -3 -18.5t-6.5 -15t-14.5 -9.5q-20 -4 -42 23q-9 7 -10 -9q-1 -10 2 -14q4 -18 21.5 -26.5t35.5 -4.5q31 2 42 43q9 30 0 58t-31 50q-42 40 -77 25q-41 -18 -60 -81q-11 -38 3.5 -78.5
t45.5 -67.5q43 -37 74 -32q55 7 110 70q65 77 57 152q-9 54 -47 97t-90 55q-13 4 -26 3z" />
    <glyph glyph-name="honokhukthai" unicode="&#xe2e;" 
d="M400 533q-36 -48 -112 -111q-4 -2 -31 -23t-42 -32q-50 25 -96 13q-59 -19 -63 -58q-2 -19 15.5 -29.5t35.5 -4.5q46 12 109 56q52 -29 74 -83q29 -62 -18 -136q-50 -76 -113 -93q-23 -7 -53 18q-29 22 -45 53t-6 62q10 25 31 43t46 21q40 -5 52 -33q5 -19 -7 -37.5
t-31 -23.5q-6 2 -20 12t-23 11q-6 -19 20 -45q17 -12 35 -7.5t32 19.5q21 20 25 48.5t-15 51.5q-19 20 -43.5 28t-51.5 -1q-31 -14 -53.5 -41t-25.5 -59q-3 -39 20 -74t60 -59q23 -15 47.5 -12.5t47.5 16.5q43 25 74 65.5t43 87.5q12 45 -7.5 91t-57.5 77q-9 7 -19 13
q1 1 3.5 3t4.5 2q96 78 146 146q11 19 12 25zM144 363q26 0 52 -9q-32 -22 -61 -36q-7 -4 -17 -7t-20.5 -4.5t-16.5 3.5t-5 17q15 28 61 36h7z" />
    <glyph glyph-name="paiyannoithai" unicode="&#xe2f;" horiz-adv-x="213" 
d="M187 397q-8 0 -13 -9q-13 -32 -34 -52q-38 -36 -68 -31q-9 -1 -16 17q-4 10 0 11q2 1 7 -3t12 -7t12.5 -0.5t3.5 12.5q-1 20 -23 28t-36 -7q-10 -16 -6.5 -33t15.5 -31q13 -15 35.5 -15.5t38.5 9.5q46 24 71 71q4 -25 3 -72q-7 -88 -35 -173q-36 -100 -45 -122
q0 -1 -1 -4q-3 -10 -1 -8q2 0 5 4q17 24 43 76q33 82 48 168q15 81 3 149q1 9 -5.5 16t-13.5 6z" />
    <glyph glyph-name="saraathai" unicode="&#xe30;" horiz-adv-x="187" 
d="M170 294h-2q-2 -2 -9 -8t-11 -9q-23 -19 -48 -15q-4 0 -8 1q-4 19 -21 27q-7 5 -16.5 3t-13.5 -11q-6 -17 14 -31q30 -19 65 -6q11 3 21.5 11.5t15.5 14t16 18.5q2 5 -3 5zM156 160q-4 -1 -9 -8t-7 -9q-28 -29 -58 -28q-6 1 -10 2q-3 16 -18 25q-7 5 -17 4.5t-15 -8.5
q-9 -16 10 -31q23 -18 55 -13q23 4 42 21t30 41q-2 4 -3 4z" />
    <glyph glyph-name="maihanakatthai" unicode="&#xe31;" horiz-adv-x="0" 
d="M223 665q-3 0 -8 -4t-10.5 -9.5l-7.5 -7.5q-110 -90 -206 -130q-38 -14 -54 -18q-6 24 -27.5 38.5t-45.5 8.5q-14 -4 -21 -19t1 -28q10 -15 27.5 -22.5t36.5 -6.5q6 0 12 1q10 -5 15 3q38 8 97 40q101 58 190 146q2 5 3 7q0 1 -2 1zM-122 516q19 -1 27 -23q-4 0 -8 1
q-11 2 -21 8t-4 13q3 1 6 1z" />
    <glyph glyph-name="saraaathai" unicode="&#xe32;" horiz-adv-x="213" 
d="M81 398q-30 0 -48 -13q-19 -21 -14 -67q-2 -14 15 -21q16 -7 18 9q0 7 -1.5 19t-1.5 21.5t4 17.5q28 13 65 2q30 -8 50.5 -32.5t19.5 -53.5q-4 -90 -42 -183q-21 -47 -38 -108q-3 -9 0 -10q1 -1 4 4q7 12 19 35t16 32q43 103 54 159l3 18t3.5 19.5t2.5 18t0.5 19.5
t-2.5 18q-6 37 -37 63t-70 32q-11 1 -20 1z" />
    <glyph glyph-name="saraamthai" unicode="&#xe33;" horiz-adv-x="213" 
d="M-28 664q-5 0 -10 -1q-31 -8 -51 -46q-8 -18 -9 -41q-8 -20 0 -51q8 -34 47 -50q45 -19 78 5q19 15 30 37.5t9 45.5q-5 51 -48 84q-24 18 -46 17zM-25 638q4 0 9 -2q38 -12 55 -58q11 -25 -1 -50q-16 -37 -47 -40q-41 -3 -64 27q-5 9 -8 20q7 -5 13 1t4 14q-3 31 -2 40
q0 5 1 10q9 10 20 19q1 1 5 4t1 3q-3 1 -7 -1q-3 -1 -6 -3q4 5 9 9q8 7 18 7zM81 398q-30 0 -48 -13q-19 -21 -14 -67q-2 -14 15 -21q16 -7 18 9q0 7 -1.5 19t-1.5 21.5t4 17.5q28 13 65 2q30 -8 50.5 -32.5t19.5 -53.5q-4 -90 -42 -183q-21 -47 -38 -108q-3 -9 0 -10
q1 -1 4 4q7 12 19 35t16 32q43 103 54 159l3 18t3.5 19.5t2.5 18t0.5 19.5t-2.5 18q-6 37 -37 63t-70 32q-11 1 -20 1z" />
    <glyph glyph-name="saraithai" unicode="&#xe34;" horiz-adv-x="0" 
d="M-339 741q-10 0 -18 -6.5t-7 -16.5q0 -8 4.5 -14.5t14.5 -15t12 -9.5q49 -40 143 -108.5t124 -91.5l14 -10.5t17.5 -11.5t16.5 -4q11 -3 16.5 5.5t-5.5 15.5q-10 9 -31 23.5t-25 16.5q-191 132 -254 180q-19 14 -26 24q16 3 52 -10q63 -27 140 -97q58 -54 119 -98
q12 -7 14 -6.5t-5 6.5q-10 10 -34.5 35t-37.5 39q-70 64 -105 90q-80 58 -133 63q-3 1 -6 1z" />
    <glyph glyph-name="saraiithai" unicode="&#xe35;" horiz-adv-x="0" 
d="M-331 744q-29 0 -33 -20q-1 -8 3.5 -16.5t7.5 -11.5t13 -11q24 -21 54 -43.5t51 -38t57.5 -42t52.5 -38.5q10 -7 48 -36q1 -1 3 -3.5t3 -3.5q7 -6 8 -7q5 -7 13 -6q10 -7 19 -12q14 -7 26 2q11 7 -2 18q-10 8 -24 18q11 21 31 69t32 73q6 14 -9.5 19.5t-21.5 -7.5
q-5 -12 -13.5 -36.5t-12.5 -36.5q-5 -11 -9 -23q-8 -17 -14 -29q-2 -5 -8 -13q-7 6 -13 10q-16 11 -33 22q-4 6 -10.5 15.5t-9.5 14.5q-7 8 -27.5 33t-30.5 37t-27 31t-32 33q-31 33 -80 39h-12zM-330 723q31 0 59 -17q9 -7 18.5 -16t16 -15t17.5 -18.5t14.5 -16.5
t16.5 -19.5t15 -17.5q11 -14 23 -29q-106 73 -169 122q-2 3 -10 9q-19 14 -8 17q3 0 7 1z" />
    <glyph glyph-name="sarauethai" unicode="&#xe36;" horiz-adv-x="0" 
d="M-343 738h-6q-11 -2 -14 -14t4 -20q9 -10 18.5 -19t27 -22.5t21.5 -16.5q38 -30 115.5 -85.5t113.5 -83.5q4 -2 13.5 -10t17 -11.5t16.5 -2.5q12 -3 15 7t-7 16q-12 10 -34 24q13 2 26 8q45 20 56 59q9 36 -16 59q-25 21 -62 5q-29 -15 -41 -48q-6 -22 1 -51q-8 3 -29 19
q-1 0 -1 1q-5 5 -56 59q-2 2 -11 11.5t-11.5 12t-11 11.5t-12 12t-11.5 10.5t-12.5 11.5t-12 10t-13 10.5t-12.5 9t-14 8.5q-40 20 -58 20zM-341 716q15 -1 52 -19q22 -14 47 -36t36.5 -34t40.5 -43q-94 65 -154 112q-4 2 -12 10.5t-10 9.5zM-10 617q13 0 21 -7
q17 -20 5 -43q-17 -32 -59 -41q-14 -3 -27 2q0 3 0.5 10t1.5 11q0 2 9 32q9 22 29 31q10 5 20 5z" />
    <glyph glyph-name="saraueethai" unicode="&#xe37;" horiz-adv-x="0" 
d="M-336 750q-20 0 -28 -13q-5 -13 0 -25t16 -20q21 -18 46.5 -38t43.5 -33t50 -36.5t45 -33.5q16 -11 57.5 -42.5t65.5 -47.5q17 -10 32 -6q8 2 6 11q-4 8 -11.5 14t-19 13.5t-14.5 10.5q-2 2 -6 4.5t-6 3.5q7 13 26 63q2 5 10 27t9 34q3 12 -8 20q-10 6 -16 -5
q-8 -21 -17.5 -61t-11.5 -48q0 -2 -1 -6q-1 -1 -7 -12q-2 1 -4.5 3t-3.5 2q-15 22 -43 60.5t-37 52.5q-67 87 -151 105q-13 3 -22 3zM-336 726q6 1 21 -2q75 -17 135 -95q10 -13 28 -37.5t21 -28.5q-118 81 -186 134q-3 3 -9.5 8t-11 9.5t-5.5 8.5q0 3 7 3zM19 636
q-3 0 -4 -2q-5 -8 -24 -47q-8 -15 -19.5 -44t-14.5 -36q0 -6 5 -3q8 9 20 28t19 28q10 12 32 47q0 1 4.5 5t4.5 8q-4 5 -12 11q-8 5 -11 5z" />
    <glyph glyph-name="sarauthai" unicode="&#xe38;" horiz-adv-x="0" 
d="M-197 -69q-9 0 -15.5 -6.5t-6.5 -15.5q0 -6 1.5 -11.5t2.5 -10t4 -11t4.5 -9.5t5.5 -10.5t5 -9.5q0 -1 4.5 -8t8 -10t7.5 -5q-6 -52 -31 -133q-3 -11 -7.5 -31t-5.5 -26v-8q1 -1 4 4q8 12 25 47q25 84 30 110q14 68 7 103q-3 16 -13.5 27.5t-24.5 13.5h-5zM-191 -96
q9 -4 9 -8q6 -11 8 -27q-9 13 -14 24q-1 1 -3 11z" />
    <glyph glyph-name="sarauuthai" unicode="&#xe39;" horiz-adv-x="0" 
d="M-89 -54q-2 0 -5 -4q-13 -13 -47 -58q-5 -5 -9 -12q-6 47 -33 58q-9 5 -21 2.5t-15 -13.5q0 -5 -0.5 -6.5t1.5 -6t2 -6t3 -6t4 -5.5t4 -5t4 -5q2 -2 7.5 -8.5t9.5 -10t9 -5.5q1 -11 1 -24l-1 -1q-50 -93 -62 -148q-9 -45 11 -64q9 -6 18 -2t14 13q17 28 32 94
q14 67 14 115l0.5 1t1.5 2q42 76 53 93q1 2 2 5q5 7 2 7zM-177 -215q-2 -28 -9 -63q-14 -60 -28 -83l-1 -1q-7 15 1 52q12 44 37 95z" />
    <glyph glyph-name="phinthuthai" unicode="&#xe3a;" horiz-adv-x="0" 
d="M-150 -65q-8 1 -15 -5q-14 -12 -12 -30q1 -13 7 -20q7 -10 19 -5q3 -4 6 -3q4 2 8 6q12 12 14 18q6 11 0 22q-6 12 -20 16q-3 1 -7 1zM-154 -92l-0.5 -2t-0.5 -3t-1 -2v2q1 3 2 5z" />
    <glyph glyph-name="bahtthai" unicode="&#xe3f;" 
d="M194 413q-9 0 -12 -10v-34q-44 -14 -65 -59q-5 -10 -9 -21.5t-6.5 -19.5t-5.5 -23t-4 -21t-3 -23.5t-2 -21t-1.5 -24t-1.5 -21.5q0 -5 -1 -21t0 -27t5 -21q5 -21 17 -8q9 10 8 22q1 19 2 58t3 59q0 -8 6.5 -11.5t15.5 0.5q19 7 37 16q-5 -76 -15 -140q-52 -20 -116 -31
q-2 0 -6 -1t-7.5 -2t-5.5 -2q33 -3 101 9q16 3 31 7q-1 -5 -2 -6q0 -5 -4 -18t-4 -18.5t4 -18.5q13 -16 22 0.5t7 32.5q2 17 4 37q33 13 58 31q29 20 45.5 50t13.5 63q-1 20 -15.5 36t-34.5 18q-4 1 -7 1q3 2 4 4q40 39 25 75q-8 19 -25 31.5t-38 13.5q1 6 1 11q4 9 -3 18.5
t-16 9.5zM210 348q24 0 36 -17q10 -11 8.5 -25t-11.5 -25q-15 -18 -34 -33h-4q1 14 2.5 48t2.5 52zM181 341q0 -55 -1 -83q-1 -5 -1 -18q-27 -10 -50 -27q-9 -4 -11 -13q3 34 10 60q17 65 53 81zM234 230q9 0 18 -1q14 -2 23.5 -14t8.5 -27q1 -28 -15 -53t-41 -41
q-19 -11 -39 -21q10 96 13 131q0 6 1 13l18 12q7 1 13 1z" />
    <glyph glyph-name="saraethai" unicode="&#xe40;" horiz-adv-x="160" 
d="M167 401q-7 1 -10.5 -4t-5.5 -15t-3 -12q-57 -198 -81 -297q-1 -6 -4 -18t-4 -19.5t-1 -18t3 -19.5q9 -10 16 -0.5t9 21.5q1 7 -0.5 7.5t-5.5 -5.5q-1 -1 -4 -5q3 19 3 20q7 38 45 167q43 133 56 164q6 10 2.5 20.5t-13.5 13.5h-2z" />
    <glyph glyph-name="saraaethai" unicode="&#xe41;" horiz-adv-x="187" 
d="M126.5 399q-7.5 0 -11.5 -9q-11 -43 -33.5 -134t-34.5 -138q-6 -24 -8 -32.5t-5 -28.5t-3 -35t3 -30q9 -30 26 -4q10 14 11 28q3 16 -9 -2q-2 -2 -5 -7q-4 -6 -5 -7q-4 28 2 60q8 36 27 101.5t22 75.5q20 74 41 139q3 7 -3.5 15t-14 8zM179 373q-6 -1 -10 -7
q-15 -54 -41 -157.5t-29 -114.5q-2 -7 -7 -27.5t-6.5 -34.5t-0.5 -28q3 -22 17 -10q12 11 11 24v3v3q-1 2 -10 -8q6 43 17 80q60 204 77 252q4 8 -2.5 16.5t-15.5 8.5z" />
    <glyph glyph-name="saraothai" unicode="&#xe42;" horiz-adv-x="213" 
d="M210 744q-34 0 -61 -5q-20 -2 -24 -15.5t3 -28.5t18 -25q58 -61 57 -110q2 -73 -20 -145t-63 -161q-4 -8 -40 -80.5t-48 -112.5q-11 -25 -1 -50q10 -24 33 -8q62 58 59 172q1 6 -5 19q47 98 73.5 172t32.5 152q9 90 -42 142q-2 4 -9 11t-13.5 14t-11.5 14t-4 12.5t9 8.5
q19 3 41 4t37.5 0t42 -3t38.5 -2q3 0 21.5 -1t23 -1.5t21.5 -1t23.5 -0.5h21t23 0.5t21 1.5t23.5 2.5t21 3.5q18 7 22 10q-18 -3 -36 -4.5t-39.5 -1t-35 1.5t-40 3.5t-36.5 3.5q-18 1 -64.5 4.5t-71.5 3.5zM90 135q-3 -32 -10 -54q0 -4 -2.5 -10.5t-5.5 -10.5t-8.5 -11.5
t-7.5 -9.5q2 26 24 75q5 11 10 21z" />
    <glyph glyph-name="saraaimaimuanthai" unicode="&#xe43;" horiz-adv-x="213" 
d="M161 761q-16 0 -31 -5q-42 -16 -74 -52t-50 -81q-27 -84 10 -156q11 -25 38 -34t50 6q30 18 50.5 48.5t23.5 64.5q5 23 -15 35t-30 -10q-1 -2 -2 -3q-9 -16 -9 -26q0 -2 2 3q2 1 3 4q7 19 22 25t17 -17q1 -52 -55 -97q-16 -14 -35 -16t-34 14q-40 52 -21 140
q13 41 41 75.5t65 53.5q19 10 40 7t38 -12.5t32 -24.5q28 -26 31.5 -68.5t-13.5 -75.5q-13 -31 -44.5 -83.5t-42.5 -73.5q-51 -95 -84.5 -173.5t-50.5 -158.5q0 -1 -1 -3q-3 -14 -4 -22.5t-1 -22t7 -20t20 -5.5q38 20 52 75q14 71 -12 110q30 82 92 203q12 23 43 76.5
t45 83.5q19 38 16.5 86.5t-32.5 80.5q-45 49 -97 49zM78 135q6 -63 -21 -97q0 24 4 29q7 34 17 68z" />
    <glyph glyph-name="saraaimaimalaithai" unicode="&#xe44;" horiz-adv-x="213" 
d="M-61 745q0 -3 8.5 -8.5t20 -12t16.5 -11.5q55 -36 98 -124q1 -3 4 -9.5t5 -10.5t5.5 -10t6 -8.5t7.5 -6t9.5 -2.5t11.5 2q21 8 40 22t43 35.5t35 30.5q4 1 22 18q6 4 4 0q-1 -2 -4 -7q-16 -50 -39 -110t-39.5 -97t-50 -110.5t-44.5 -98.5q-6 -15 -18.5 -42.5t-20 -44.5
t-16 -41.5t-13.5 -46.5q-9 -20 2 -42t32 -6q57 52 60 158q2 6 -1 18.5t-9 22.5q14 32 44.5 101t48.5 109.5t41 100t38 110.5q11 13 6 33.5t-26 11.5q-22 -14 -61 -49t-62 -49q-8 -8 -15.5 -9t-13 5.5t-8.5 13t-7 16.5q-20 48 -57.5 85t-85.5 57q-10 4 -17 6zM91 148
q-4 -50 -16 -79q0 -7 -19 -30q6 43 15 59q9 23 20 50z" />
    <glyph glyph-name="lakkhangyaothai" unicode="&#xe45;" horiz-adv-x="213" 
d="M71 387q55 0 96.5 -44.5t38.5 -100.5q-2 -25 -9 -54.5t-13.5 -49.5t-17.5 -54.5t-16 -50.5q-39 -116 -49 -190q-8 -39 -8 -100q-1 -9 -5 5l-1 5q-15 80 18 200q7 28 36.5 121.5t39.5 145.5q7 34 -7 67.5t-44 52.5q-44 30 -79 14q-5 -10 -2.5 -32t-1.5 -32
q-15 -6 -23.5 11t-6.5 33q-2 20 9 35.5t30 16.5q8 1 15 1z" />
    <glyph glyph-name="maiyamokthai" unicode="&#xe46;" horiz-adv-x="293" 
d="M246 391q12 1 18 -13.5t7 -29.5q10 -73 -13 -156q-12 -49 -49 -155.5t-50 -165.5q-16 -59 -14 -126q0 -12 -6 10l-1 3q-13 91 34 231q7 19 23.5 68t24.5 75t18 66.5t13 75.5q1 60 -6 84q-10 -18 -10 -22q-22 -56 -52 -41q-12 9 -25.5 33t-21.5 32q-27 -18 -31 -71
q-6 -12 7 -23q12 -11 15 1q1 3 0 7q-2 9 1.5 16.5t10 7t12.5 -10.5q12 -16 2.5 -37t-30.5 -20q-21 0 -35 16.5t-12 37.5q3 71 45 98q17 10 31 -2t23 -32q1 -2 5 -9q14 -27 21 -19q2 3 5 11q2 3 12 26.5t20 31.5q4 2 8 2z" />
    <glyph glyph-name="maitaikhuthai" unicode="&#xe47;" horiz-adv-x="0" 
d="M585 826q-4 0 -9 -2q-10 -6 -18.5 -14.5t-16 -21l-12 -20t-12 -24t-9.5 -21.5q-7 -21 -7 -25q2 4 26 49t44 63q25 15 30.5 -18t-3.5 -52q-35 -121 -187 -197q-126 -59 -222 -48q-24 6 -51 17.5t-44.5 21.5t-48 28t-44.5 26q-6 3 -24 14t-31 16.5t-27 5.5q-6 -2 -12 -5.5
t-11 -6t-10 -8.5t-8 -9t-8 -10.5l-7 -10.5t-6.5 -12l-5.5 -11t-5.5 -12t-5.5 -11q-1 -5 -6 -14.5t-9.5 -18t-7.5 -16.5t1 -13t15 -6q6 3 26 13.5t29.5 14.5t26 7.5t30.5 1.5q17 -9 35 -39t21 -34q26 -11 28 17q1 29 -15 45q-14 22 -19 6q-17 23 -38 32q-39 11 -96 -17
q2 5 5.5 12t3.5 9q27 60 54 70q18 -6 36 -15.5t40.5 -23t33.5 -19.5q8 -5 32 -18t36.5 -19t32.5 -14.5t38 -12.5t36 -5q132 2 264 90q124 86 139 196q4 23 -2 45.5t-25 23.5z" />
    <glyph glyph-name="maiekthai" unicode="&#xe48;" horiz-adv-x="0" 
d="M30 866q-6 0 -7 -4q-3 -12 -20 -81q-3 -16 -9 -50t-9 -49q2 -4 2.5 -4.5t4.5 2.5q6 14 15.5 45t16.5 46q6 14 11.5 30.5t8.5 27t4 13.5q7 11 5 14q-7 8 -18 10h-5z" />
    <glyph glyph-name="maithothai" unicode="&#xe49;" horiz-adv-x="0" 
d="M-28 852q-5 0 -9 -2q-10 -3 -14 -13.5t1 -19.5q10 -15 37 -37q2 -2 6 -4.5t5 -3.5v-1q-8 -33 -29 -47q-13 -2 -31 -5q-9 0 -15 -7t1 -14q18 -9 43 -2q12 4 22 12q77 17 125 35q74 29 105 62l2 2l1 2q3 4 1 5t-6 -3q-24 -22 -59 -38q-59 -25 -149 -42q10 16 15 36
q8 2 10 9.5t-5 13.5h-1.5h-0.5q0 22 -14 38q-18 24 -41 24z" />
    <glyph glyph-name="maitrithai" unicode="&#xe4a;" horiz-adv-x="0" 
d="M181 857q-4 0 -8 -1q-40 -15 -93 -62q-14 -13 -39 -38l-35 -35q0 3 4 17.5t5 22.5q1 2 3 10.5t2.5 11.5t1.5 10.5t1 11.5v10.5t-1.5 11.5t-3.5 10q-3 9 -11 13.5t-15 0.5q-6 -3 -10 -7.5t-9.5 -15t-6.5 -11.5q-1 -4 -7.5 -13t-6.5 -10q-10 11 -21 41q-2 8 -10.5 11
t-15.5 -3q-11 -12 -12 -51q2 -44 9 -68q9 -27 22 -30q9 -4 15 2.5t3 15.5q-12 22 -15 40q-4 23 -5 37l6 -8q6 -9 16 -12t19 3q8 5 14 13.5t12 21t9 17.5q3 -10 3 -16q0 -14 -2.5 -30.5t-7 -36t-6.5 -30.5q-2 -10 8 -14t16 4q12 11 31.5 33.5t26.5 28.5q63 67 109 87q2 1 4 3
q10 4 1 4z" />
    <glyph glyph-name="maichattawathai" unicode="&#xe4b;" horiz-adv-x="0" 
d="M13 867q-6 -1 -8 -6t-3 -12.5t-2 -10.5q-2 -7 -9 -45q-3 -1 -53 -9q-9 2 -14.5 -2.5t-3.5 -13.5q-1 -10 7 -12t16 3q7 1 22 5t22 6q-3 -15 -9 -73q-1 -7 5 -10q5 -2 6 6q0 4 6 36q4 17 14 46q53 14 83 14q8 6 -6 7q-3 1 -7 1q-20 2 -65 -2q2 6 6.5 22.5t7.5 25.5
q6 7 2 14.5t-13 8.5l-2 1h-2z" />
    <glyph glyph-name="thanthakhatthai" unicode="&#xe4c;" horiz-adv-x="0" 
d="M187.5 900.5q-1.5 0.5 -0.5 -6.5q6 -26 -11 -50q-29 -40 -98 -75q-11 -5 -32.5 -13t-30.5 -14q-20 -10 -33 -27q-2 1 -4 0q-11 2 -15 -7.5t3 -16.5q-5 -13 -6 -26q-1 -15 6.5 -28.5t20.5 -20.5q10 -6 20.5 0t14.5 17q2 5 2 11t-0.5 9.5t-3.5 10.5t-4 9t-5.5 10t-4.5 9
q-2 2 -6 7q14 18 35 30q89 37 134 89q36 40 25 76q-5 6 -6.5 6.5zM-14 666q8 -11 10 -21q-1 0 -1 -1q-10 8 -9 22z" />
    <glyph glyph-name="nikhahitthai" unicode="&#xe4d;" horiz-adv-x="0" 
d="M-55 664l-10 -2q-31 -8 -51 -45q-8 -19 -8 -42q-9 -20 -1 -50q8 -35 47 -50q46 -20 78 4q19 15 30.5 37.5t9.5 45.5q-6 51 -48 84q-24 18 -47 18zM-52 637q5 0 9 -1q38 -13 56 -58q10 -25 -1 -50q-17 -38 -48 -41q-40 -2 -63 27q-6 9 -8 20l1 -1q6 -3 10.5 2t4.5 11
q0 4 -1.5 19.5t-0.5 23.5q0 5 1 10q9 10 20 19q2 1 5 4q4 3 1 4q-3 0 -6 -2q-4 -1 -7 -2q5 5 10 9q7 6 17 6z" />
    <glyph glyph-name="yamakkanthai" unicode="&#xe4e;" horiz-adv-x="0" 
d="M-15 708q-9 0 -16 -3q-30 -16 -33 -58q-2 -19 12 -43q-1 1 -2 1q-30 11 -58 -18q-20 -18 -21 -44q-2 -26 10.5 -49.5t34.5 -34.5q15 -8 33 -5t28 16q6 7 6.5 15t-6.5 14q-8 6 -15.5 2t-10.5 -12q-7 -7 -17 -5.5t-17 8.5q-12 13 -17 30t0 34q11 22 31 28q7 2 13.5 0
t15 -7.5t11.5 -6.5q7 -5 14.5 0.5t3.5 13.5q-4 5 -13 16t-12 18q-14 21 -8 43q3 14 12 25.5t22 12.5q10 1 19 -5.5t13 -16.5q0 -1 3 -5q3 -1 3 2q1 10 -4 15q-11 20 -35 19z" />
    <glyph glyph-name="fongmanthai" unicode="&#xe4f;" 
d="M147 345q-45 -3 -89 -54q-22 -22 -28 -61q-3 -11 -2 -20q-3 -23 7 -52q13 -39 52 -63q30 -19 63.5 -23t65.5 11q31 16 52 44.5t25 61.5q4 60 -51 113q-46 43 -95 43zM150 318q23 0 52 -18q28 -18 46 -44t20 -56q1 -51 -50 -87q-32 -25 -72 -15q-57 12 -77 53
q-8 14 -11 58q9 42 13 51q25 38 58 53q10 4 21 5zM151 276q-11 0 -21 -5q-8 -3 -12 -10q-7 -2 -10 -7q-12 -12 -16 -31.5t3 -36.5q5 -18 22 -29t37 -12q20 -2 38 9t26 30q7 19 1.5 37.5t-20.5 32.5q-23 22 -48 22zM152 247q24 -1 40 -28q12 -18 -4 -36q-8 -11 -23 -13t-27 4
q-12 3 -17.5 15t-3.5 24q1 5 3 8t6.5 7.5l5.5 5.5q4 1 10.5 6.5t9.5 6.5z" />
    <glyph glyph-name="zerothai" unicode="&#xe50;" horiz-adv-x="347" 
d="M194 282q-36 1 -66 -14q-35 -17 -61.5 -45t-36.5 -63q-15 -51 22 -97q24 -28 56 -45.5t66 -16.5q72 4 128 78q24 30 29 67q7 0 11 10t1 17q-2 20 -12 38q-4 15 -12 26q-8 10 -15 7q-16 14 -36 22q-36 16 -74 16zM190 255q9 0 18 -1q68 -8 93 -54q3 -38 2 -53
q-3 -39 -44 -80q-55 -53 -110 -40q-30 8 -55 29t-37 49q-9 27 -2 50.5t26 44.5q48 55 109 55z" />
    <glyph glyph-name="onethai" unicode="&#xe51;" 
d="M181 290q-4 0 -9 -1q-68 -9 -117 -80q-41 -62 -23 -114q10 -24 34 -38t52 -18q46 -7 74 28q32 34 19 79q-13 52 -46 65q-11 6 -25 -5q-10 -8 0 -16q31 -11 42 -52q7 -20 -3 -40t-30 -29q-42 -13 -81 19q-25 20 -12 67q11 35 36 63t59 43q45 20 98 -15q57 -38 54 -88
q-4 -57 -72 -112q-74 -58 -167 -98q-1 -1 -7.5 -4t-9.5 -5q11 0 41 10q93 33 139 69q81 61 94 124q11 48 -25 89q-50 59 -115 59z" />
    <glyph glyph-name="twothai" unicode="&#xe52;" 
d="M-158 467q-4 0 1 -2q2 -1 6 -2q69 -24 118 -113q20 -32 36.5 -67.5t38 -90.5t28.5 -72q16 -41 45 -71.5t67 -42.5q20 -9 42 -4t35 23q43 51 56 127q7 75 -6 119q-6 21 -24 14.5t-20 -25.5q-3 -4 -10.5 -20t-14 -25.5t-15.5 -16.5q-4 4 -27 38t-41 46q-16 11 -31 2
t-18 -27q-11 -52 25 -109q10 -16 27 -25.5t33 -3.5q25 20 -25 53q-11 7 -21 11q-15 29 -13 62q2 31 32 -10l5 -5q2 -3 18 -27.5t31 -29.5q6 -1 11.5 0.5t10.5 5.5t8.5 6.5t8 10l6 10t6 11t5.5 9.5q0 4 2 8t6 10t5 9q3 -13 5 -53q4 -64 -29 -127l-4 -7t-5 -9t-5 -7.5t-6 -8
t-6 -7t-7 -6t-7.5 -4t-9.5 -2.5q-35 1 -65.5 23.5t-48.5 55.5q-16 33 -48 113t-55 121q-60 104 -134 128q-9 4 -22 4z" />
    <glyph glyph-name="threethai" unicode="&#xe53;" horiz-adv-x="347" 
d="M242 291q-4 0 -9 -1q-16 -4 -27.5 -17t-22.5 -35q-6 -12 -11 -23q-23 39 -57 48q-21 5 -40.5 -7.5t-28.5 -33.5q-30 -62 -14 -134q15 -46 38 -70q8 -10 21 -8.5t18 13.5q23 52 0 98q-21 42 -52 40h-3q3 27 14 50q6 15 19.5 24t27.5 4q28 -13 46 -53q-9 -29 -11 -56
q-3 -14 9.5 -20t19.5 7q23 24 5 72q7 19 17 40q0 1 3 6t4 6.5t3.5 5.5t4 6t4.5 5.5t5 5t5.5 3.5t6.5 3q28 4 55 -32q34 -51 26 -92q-13 -63 -73 -155q-1 -1 -3.5 -5.5t-4 -7.5t-1.5 -5l13.5 13.5t11 12.5t11.5 16t11 14q45 67 53 106q13 52 -27 111q-29 45 -67 45zM53 142
q2 -3 13 -14q16 -17 21.5 -40.5t-1.5 -45.5q-18 20 -29 55q-5 23 -4 45z" />
    <glyph glyph-name="fourthai" unicode="&#xe54;" horiz-adv-x="347" 
d="M493 465q-3 -6 -8.5 -27t-10.5 -30q-22 -54 -89 -86q-43 -20 -128 -40.5t-102 -25.5q-41 -10 -73 -32.5t-46 -57.5q-15 -39 6.5 -79.5t61.5 -53.5q18 -5 38.5 -6t37 0.5t39.5 4.5t37 4h1q2 -2 5 -3q3 -2 12 -7t14 -7.5t12.5 -6t14.5 -4.5t14 0q17 7 10 24.5t-23 22.5
q-21 7 -49 6q-25 17 -41 39q-2 2 -3 5q17 7 46 30q12 5 15.5 17.5t-3.5 21.5t-22 5q-25 -3 -46 -19.5t-21 -40.5q-16 -15 -4 -21q4 -1 8 0q9 -21 32 -41l-24 -3q-3 0 -15 -1.5t-16 -1.5t-15 -1t-16 -0.5t-14.5 1.5t-15.5 3.5t-13 6t-13 8.5q-24 17 -31.5 46t6.5 54
q26 49 116 72q24 8 73 19t87 23t70 29q36 20 59 55t27 76q1 14 0 22z" />
    <glyph glyph-name="fivethai" unicode="&#xe55;" horiz-adv-x="347" 
d="M492 463q-1 0 -11 -20q-30 -60 -120 -96q-42 -14 -53 -17q-8 25 -30 35q-16 9 -38.5 5.5t-29.5 -21.5q-9 -17 3 -32t30 -14q23 -1 47 3q-2 -12 -10 -20q-12 -13 -30.5 -24t-32 -16t-38.5 -13t-35 -12q-41 -14 -69.5 -32.5t-40.5 -49.5q-12 -37 10.5 -72.5t60.5 -47.5
q17 -5 38 -6t37 0.5t39.5 4.5t37.5 3q26 -16 56 -26q19 -9 27 8.5t-9 28.5q-21 18 -64 15q-24 18 -40 39q-2 3 -3 5q9 5 27 16q8 5 12 8t11 9.5t10 11.5t2.5 12t-6.5 14q-20 6 -38 -0.5t-34 -20.5t-16 -37q-11 -10 -7 -19q6 -1 11 -1q4 -9 10 -16q10 -13 22 -24
q-7 -1 -29 -3.5t-32.5 -3.5t-27.5 0t-30 6q-29 10 -46 37t-6 55q8 17 26 31.5t32 20.5t39 15q5 2 37 13t43.5 16t32 18t32.5 29q11 14 11 32q29 7 59 20q92 44 118 110q2 6 3 11q4 13 2 12zM252 353q8 0 14 -4q16 -6 22 -24q-28 -5 -51 -2q-16 8 -8 19t23 11zM315 10v-1v1z
" />
    <glyph glyph-name="sixthai" unicode="&#xe56;" 
d="M-151 467q-9 0 -8 -2q44 -7 72 -48q13 -19 34 -56t30 -53q23 -37 48 -61.5t58 -29.5q26 -3 64 20t55 26q50 3 77 -32q28 -44 -10 -108q-39 -59 -93 -87q-13 -10 -33 -6.5t-24 21.5q-5 23 2 46t25 35q8 7 8 2q0 -2 -2 -10q-3 -11 -2 -16l-0.5 -4.5t-0.5 -6.5t0.5 -6.5
t1 -6.5t1.5 -5t3 -5t5 -2q22 13 25 62q2 18 -15 27.5t-32 0.5q-26 -13 -38.5 -41.5t-10.5 -60.5q1 -22 16.5 -39.5t37.5 -18.5q45 -1 104 56q76 73 64 151q-3 30 -27.5 49.5t-55.5 24.5q-7 2 -14 2t-13 -0.5t-13.5 -3t-11.5 -4t-13 -6.5t-11.5 -6.5t-12 -7.5t-10.5 -7
q-17 -12 -36.5 -13t-35.5 10q-17 11 -32 28t-23 30t-22 37t-20 34q-12 19 -19.5 29.5t-21 25.5t-28 23.5t-31.5 12.5h-2h-4.5h-4.5z" />
    <glyph glyph-name="seventhai" unicode="&#xe57;" horiz-adv-x="347" 
d="M649 466q-4 0 -11 -2q-70 -20 -161 -101q-42 -41 -87 -96t-72.5 -93t-74.5 -106q-2 -5 -14 -19q2 10 10.5 44.5t11.5 50.5t5.5 42.5t1.5 49.5q-3 21 -13 37.5t-28 12.5q-11 -5 -19 -14t-17.5 -27t-11.5 -21q-3 -4 -11.5 -20t-16 -25t-17.5 -14q-10 8 -17 19t-15.5 32.5
t-10.5 24.5q-1 16 -13 22.5t-23 0t-11 -23.5q-12 -102 10 -171q2 -4 5.5 -15t6 -17t7 -14.5t10 -14t13.5 -8.5q14 -2 20.5 5.5t5 20t-5 24t-8.5 20.5q-16 40 -36 49q-6 36 -4 82q-3 5 2 23q2 -5 8.5 -19t8.5 -19q11 -24 28 -38.5t37 -1.5q20 15 43.5 57.5t26.5 47.5
q11 28 20 -4q3 -11 4 -20q1 -29 -3 -58t-15 -75t-13 -57q-12 -19 4 -27t25 10q1 2 2 3q13 19 44.5 64t48.5 69t44.5 59.5t52.5 64.5q35 39 47.5 52.5t43 43t57 47.5t55.5 31q5 3 11 5q11 4 11 6q0 1 -2 1z" />
    <glyph glyph-name="eightthai" unicode="&#xe58;" horiz-adv-x="347" 
d="M640 466q-1 0 -4 -5q-60 -87 -131 -130q-71 -51 -166 -61.5t-177 17.5q-18 7 -36.5 -1.5t-31.5 -25.5q-19 -25 -34 -55t-32.5 -74.5t-24.5 -60.5q4 -10 12.5 -10t16.5 5.5t18.5 13t16.5 8.5q1 1 8 4.5l9 4.5t8.5 4t9 4t9 3t9.5 3t8.5 2t10 1.5t9.5 0t9 -0.5
q16 -8 32 -22.5t24.5 -25t23.5 -30.5q7 -19 28.5 -27.5t28.5 14.5q-2 31 -7 66q6 -1 12 -1l2 4t1 4t-0.5 3.5t-2 4t-2.5 4.5t-3.5 4.5t-3.5 4t-4 4.5l-4 4q-1 11 -3 21q2 21 -17.5 28.5t-25.5 -13.5q0 -2 -1 -6q0 -26 20 -46q2 -13 8 -61q-3 4 -8 10q-21 26 -29.5 35.5
t-29 25.5t-39.5 21q-47 2 -118 -40q4 8 12 29t13 32.5t12.5 28t15.5 30.5q1 1 5.5 8.5t6.5 10t6 8.5t7.5 9t8.5 6.5t10 5.5t11 2q147 -44 272 -3q67 21 122 68t90 110l1 2q9 20 8 20z" />
    <glyph glyph-name="ninethai" unicode="&#xe59;" horiz-adv-x="347" 
d="M650 453q-24 0 -58 -13q-52 -20 -138.5 -85.5t-136.5 -86.5q-39 -19 -68 -2q-15 12 -36 6.5t-16 -28.5q9 -49 24 -105q-19 27 -32 42.5t-35 34.5t-44 28q-21 9 -42 -2.5t-25 -34.5q-18 -65 9 -142q10 -23 17.5 -37.5t23 -31t33.5 -23.5q26 -6 42 18.5t9 50.5
q-7 28 -23 50t-40 28q-22 2 -13 -13q4 -6 17 -21q9 -10 11 -13q6 -7 11 -18t7 -22.5t-2 -20t-16 -9.5q-29 18 -54 78q-23 75 -5 127q18 34 71 -12q62 -59 105 -141q3 -11 7 -22q-2 -17 15 -23q14 -5 15 11q0 3 -1 5q-6 22 -20 47q-3 10 -28 99q-2 9 -6.5 26t-7.5 30.5
t-2 25.5q9 0 31 -8.5t35 -7.5q19 4 38 12t32.5 14.5t35.5 20.5t30 20t33 24.5t29 22.5q5 3 30 22.5t35 26t30.5 19t38.5 18.5t38 8q5 1 13 1h13q-14 6 -30 6z" />
    <glyph glyph-name="angkhankhuthai" unicode="&#xe5a;" horiz-adv-x="293" 
d="M266 399q-13 0 -25 -8.5t-17.5 -15.5t-15.5 -21h-1q0 8 -1 16q1 9 -5 17.5t-13.5 9t-14.5 -10.5q-22 -56 -73 -78q-14 -9 -30 -2t-16 25q1 4 9.5 -1t16 -9t11.5 7q4 21 -17 32.5t-38 -1.5q-14 -14 -11.5 -32t14.5 -32q12 -16 34.5 -18t39.5 7q46 24 72 70q1 -9 1 -13
q10 -112 -27 -220q-26 -73 -50 -131q0 -1 -1.5 -5.5t-1.5 -7.5q7 7 12.5 15t11.5 19t10 17q18 28 43 102q26 83 27 169q10 5 12 16l5 10t5.5 11.5t5.5 10t7 10t8 8t10 6.5q5 -2 7.5 -9.5t4.5 -22.5t2 -17q11 -104 -56 -254q-23 -47 -46 -111q0 -1 -1 -4l-1.5 -4.5t1.5 -1.5
q7 8 13.5 18t14.5 23t12 19q22 44 48 107q54 129 37 236q-4 47 -33 49z" />
    <glyph glyph-name="khomutthai" unicode="&#xe5b;" horiz-adv-x="1013" 
d="M107 346q-30 0 -47 -21q-39 -42 -34.5 -105t47.5 -100q25 -24 60.5 -21.5t56.5 29.5q17 18 24.5 42t11.5 57t7 48l3 -18t3 -16q1 -8 4 -38t10 -47.5t24 -27.5q17 5 22 22t5 42t4 35q-4 9 7 35q1 -6 4 -29.5t6.5 -38.5t9.5 -28q20 -34 34 -1q9 23 5 45q-3 8 5 32
q6 -40 19 -56q13 -11 22.5 -3.5t15 23t2.5 23.5q42 -30 117 -35q69 -4 201.5 2t196.5 4h11l21 1q-1 1 -12 3q-131 15 -295 9q-11 0 -42.5 -1t-47 -0.5t-41 2.5t-46 7.5t-39.5 15.5q-11 12 -20.5 13t-15.5 -8.5t-9.5 -20t-5.5 -22.5q-5 6 -7 28t-8 38t-21 14q-7 -7 -11 -15.5
t-6.5 -19.5t-3 -18t-1.5 -21.5t-2 -19.5q-1 5 -3 10q-4 11 -8.5 51.5t-18.5 57.5q-14 -2 -22 -15t-9.5 -26.5t-3.5 -33t-4 -28.5q0 -4 -2 -18.5t-3 -20.5q-8 22 -12.5 66.5t-7.5 56.5q4 23 -15.5 32t-26.5 -14q-1 -3 -1 -6q-8 -19 -11.5 -54t-12 -62.5t-29.5 -44.5
q-25 -18 -51.5 -7t-39.5 38q-19 31 -15 74.5t34 67.5q8 5 15 5t11 -3.5t7 -9t4.5 -13.5t2.5 -15t2 -15t2 -13q14 -7 20 20q7 29 0 46q-4 17 -16.5 25.5t-29.5 9.5z" />
    <glyph glyph-name="enspace" unicode="&#x2002;" horiz-adv-x="375" 
 />
    <glyph glyph-name="emspace" unicode="&#x2003;" horiz-adv-x="750" 
 />
    <glyph glyph-name="zerowidthspace" unicode="&#x200b;" horiz-adv-x="0" 
 />
    <glyph glyph-name="afii61664" unicode="&#x200c;" horiz-adv-x="0" 
 />
    <glyph glyph-name="afii301" unicode="&#x200d;" horiz-adv-x="0" 
 />
    <glyph glyph-name="afii299" unicode="&#x200e;" horiz-adv-x="0" 
 />
    <glyph glyph-name="afii300" unicode="&#x200f;" horiz-adv-x="0" 
 />
    <glyph glyph-name="endash" unicode="&#x2013;" horiz-adv-x="412" 
d="M408 133h-340v49h340v-49z" />
    <glyph glyph-name="emdash" unicode="&#x2014;" horiz-adv-x="734" 
d="M730 133h-673v51h673v-51z" />
    <glyph glyph-name="quoteleft" unicode="&#x2018;" 
d="M162 519q-6 0 -9 -8q-32 -47 -43 -101q-8 -45 6 -70q8 -16 27 -19q26 -6 36 12q7 16 -1 37q-8 22 -31 23q-11 0 -20 -3q0 12 3 31q9 51 33 92q2 7 -1 6zM146 363q9 0 8 -16q-6 -1 -7 0q-8 0 -13 11q1 0 4.5 2t6.5 3h1z" />
    <glyph glyph-name="quoteright" unicode="&#x2019;" 
d="M167 507q-18 -1 -25 -13q-7 -16 0 -37q8 -22 31 -23q11 -1 20 2q0 -12 -4 -31q-10 -50 -35 -91q-2 -7 1 -6q6 1 9 8q33 46 45 100q10 44 -4 70q-7 16 -27 19q-5 2 -11 2zM170 480h4q8 0 13 -11q-1 -1 -5 -3t-6 -2q-6 -2 -8 3.5t-2 12.5h2h2z" />
    <glyph glyph-name="quotesinglbase" unicode="&#x201a;" horiz-adv-x="219" 
d="M61 -116v14q71 31 71 95q0 11 -7 10q-2 0 -6 -2q-9 -6 -23 -5q-20 0 -33.5 15t-13.5 34q0 22 16.5 38t38.5 16q32 0 50 -25q17 -22 17 -55q0 -101 -110 -135z" />
    <glyph glyph-name="quotedblleft" unicode="&#x201c;" 
d="M135.5 519.5q-1.5 -0.5 -5.5 -2.5q-30 -41 -44 -97q-12 -48 1 -76q8 -18 26 -22q29 -8 39 11q8 18 -2 40q-5 10 -15.5 15.5t-21.5 4.5q-7 -1 -13 -3q0 9 2 23q7 54 34 100q1 4 1 5.5t-1.5 1zM212 507q-3 0 -5.5 -2.5t-5 -7t-3.5 -5.5q-28 -48 -32 -97q-3 -40 16 -59
q20 -17 44 -8q15 6 14 26q1 15 -6.5 27.5t-20.5 15.5q-16 3 -28 -2q-1 6 0 14q4 51 27 92l0.5 2t0.5 4h-1zM205 369q3 0 5 -4l3 -13q-12 -2 -17 4q-2 3 -4 7q1 0 5.5 3t7.5 3zM120 363q5 0 6 -6q1 0 2 -10q-15 -2 -19 6q-1 2 -2 5q11 5 13 5z" />
    <glyph glyph-name="quotedblright" unicode="&#x201d;" 
d="M193 507q-17 -1 -24 -13q-8 -18 1 -40q5 -10 15 -16t22 -4q7 0 12 2q0 -9 -2 -23q-9 -54 -36 -99q-2 -5 -0.5 -6t5.5 2q31 40 47 96q13 48 1 76q-8 18 -26 23q-7 2 -15 2zM109 501q-7 0 -14 -3q-16 -5 -15 -25q-1 -15 6 -27.5t20 -16.5q16 -4 29 2q1 -7 0 -17
q-5 -50 -27 -89l-0.5 -2t-0.5 -3q3 -1 5.5 1.5t5.5 7.5t4 6q28 46 32 96q3 40 -16 59q-13 10 -29 11zM195 480q14 1 16 -7q1 -2 3 -5q-1 0 -4.5 -1.5t-5 -2t-4 -1t-4 1t-2.5 5.5l-1 10h2zM109 474q12 1 15 -5l4 -6l-5 -2.5l-5 -2.5t-4.5 -0.5t-4.5 3.5q0 1 -2 13h2z" />
    <glyph glyph-name="quotedblbase" unicode="&#x201e;" horiz-adv-x="330" 
d="M38 -116v16q71 27 71 93q0 6 -2 9q-1 2 -3 2t-5 -2q-10 -7 -26 -7q-30 0 -42 31q-4 9 -4 19q0 23 16.5 39t39.5 16q31 0 49 -27q17 -23 17 -55q0 -93 -111 -134zM193 -116v16q30 11 50 36q21 26 21 57q0 5 -2 9q-2 2 -3 2q-2 -1 -5 -2q-11 -7 -25 -7q-20 0 -33.5 15
t-13.5 35q0 23 16 39t39 16q31 0 50 -27q16 -23 17 -55q0 -93 -111 -134z" />
    <glyph glyph-name="dagger" unicode="&#x2020;" horiz-adv-x="330" 
d="M172 -129h-16v29q0 125 -11 200q-8 52 -23 93q16 13 24 30q10 22 10 44q-7 -1 -22 -4q-4 -1 -31 -16q-20 -10 -32 -10q-39 0 -39 37t37 38q13 0 42 -14q31 -15 45 -17q0 24 -17 61q-15 33 -15 49q0 18 10 32q11 14 30 14q42 0 41 -46q0 -11 -2 -20q-2 -7 -13 -28
q-8 -16 -13 -34q-2 -8 -4 -12q-1 -8 -1 -16q8 0 24 5q5 2 29 15l18 9q6 2 15 2q40 0 40 -38q0 -15 -11.5 -26t-26.5 -11t-50 19q-18 10 -38 11q4 -48 35 -74q-19 -57 -26 -108q-9 -67 -9 -185v-29z" />
    <glyph glyph-name="daggerdbl" unicode="&#x2021;" horiz-adv-x="330" 
d="M208 239q-34 -31 -34 -81q0 -41 10 -64q6 -15 24 -28q-30 -29 -35 -56q15 2 35 10q28 12 35 14t15 2q36 0 36 -32q0 -33 -35 -33q-15 0 -40 12q-17 8 -27 11q-9 2 -19 3q2 -15 4 -22q5 -15 13 -31q13 -26 13 -39q0 -36 -36 -36t-37 35q0 15 13 45q14 33 16 48
q-7 -1 -17 -3q-6 -1 -27 -11q-27 -12 -44 -12q-35 0 -35 32q0 14 10 24t23 10q9 0 15 -2q23 -11 75 -25q-6 31 -35 56q19 15 25 29q9 19 10 52q0 38 -8 57q-7 17 -27 35q30 22 35 55q-18 0 -47 -14q-26 -13 -42 -12q-34 0 -34 33q0 13 10 22.5t24 9.5q12 0 31 -8q3 -2 15 -7
q21 -10 43 -11q-3 15 -12 37q-11 26 -15 36q-4 11 -4 19q0 15 11 26.5t26 11.5t25.5 -10.5t10.5 -26.5q0 -14 -14 -46q-10 -24 -14 -47q8 1 22 4q8 3 15 6q4 2 15 7q22 10 33 10q15 0 27 -11q9 -9 9 -23q0 -32 -35 -31q-9 0 -16 2q-3 0 -18 7q-20 9 -29 12q-3 1 -10 2
q-9 2 -13 2q0 -16 9 -29q7 -11 26 -26z" />
    <glyph glyph-name="bullet" unicode="&#x2022;" horiz-adv-x="230" 
d="M62 220q0 23 16 39t39 16t39 -16t16 -39t-16 -39t-39 -16t-39 16t-16 39z" />
    <glyph glyph-name="ellipsis" unicode="&#x2026;" horiz-adv-x="523" 
d="M87 52q12 0 21 -8.5t9 -21.5q0 -11 -9 -19.5t-20.5 -8.5t-20.5 8.5t-9 19.5q0 13 8.5 21.5t20.5 8.5zM262 52q12 0 20.5 -8.5t8.5 -21.5q0 -11 -8.5 -19.5t-20.5 -8.5q-11 0 -20 8.5t-9 19.5q0 13 8.5 21.5t20.5 8.5zM437 52q12 0 20.5 -8.5t8.5 -21.5q0 -11 -9 -19.5
t-21 -8.5q-10 0 -18.5 8.5t-8.5 19.5q0 13 8.5 21.5t19.5 8.5z" />
    <glyph glyph-name="perthousand" unicode="&#x2030;" horiz-adv-x="523" 
d="M106 356q9 0 17.5 -6t15.5 -13t20 -12t29 -5q23 0 37.5 8.5t48.5 42.5h24l-225 -381h-26l206 346q-14 -17 -28 -23.5t-35 -6.5q-18 0 -40 8q3 -13 3 -23q0 -27 -10.5 -53.5t-29.5 -44.5q-20 -21 -47 -21t-44.5 20.5t-17.5 50.5q0 45 30.5 79t71.5 34zM104 341
q-7 -4 -13 -7q-20 -12 -35 -45t-15 -67q0 -16 8 -26t22 -10q28 0 48.5 33.5t20.5 80.5q0 9 -2 14t-5.5 6.5t-12 6.5t-16.5 14zM281 174q24 0 37.5 -16.5t13.5 -46.5q0 -47 -26 -84t-60 -37q-27 0 -45.5 21t-18.5 51q0 42 30.5 77t68.5 35zM288 158q-16 0 -27 -12
q-17 -19 -29 -49.5t-12 -55.5q0 -16 8.5 -26.5t20.5 -10.5q27 0 49 33.5t22 74.5q0 20 -9.5 33t-22.5 13zM472 174q24 0 37 -16.5t13 -46.5q0 -47 -26 -84t-60 -37q-27 0 -45.5 21t-18.5 52q0 41 31 76t69 35zM477 158q-19 0 -35 -22.5t-24 -49t-8 -45.5q0 -15 8.5 -26
t20.5 -11q27 0 49 33.5t22 74.5q0 21 -9 33.5t-24 12.5z" />
    <glyph glyph-name="guilsinglleft" unicode="&#x2039;" horiz-adv-x="174" 
d="M83 118q2 -5 20.5 -28.5t32 -42.5t13.5 -25q0 -4 -5 -4q-3 0 -5 3q-44 42 -90 81l-16 15l33 31q3 1 5.5 3t4.5 3l1 2q33 27 44 41q6 8 13.5 14.5t9.5 6.5q6 0 6 -5q0 -11 -29 -47q-26 -30 -38 -48z" />
    <glyph glyph-name="guilsinglright" unicode="&#x203a;" horiz-adv-x="174" 
d="M25 22q-5 4 68 96l-39 48q-29 34 -29 47q0 5 5.5 5t23.5 -21q2 -5 54 -49l33 -31l-16 -15q-56 -48 -85 -78q-6 -6 -9 -6q-6 0 -6 4z" />
    <glyph glyph-name="fraction" unicode="&#x2044;" horiz-adv-x="86" 
d="M174 356l-236 -364h-26l238 364h24z" />
    <glyph glyph-name="Euro" unicode="&#x20ac;" horiz-adv-x="374" 
d="M222 505q22 0 42.5 -8t33 -16.5t16.5 -8.5q12 0 18 34h14l12 -168h-13q-7 49 -22 79q-15 31 -41.5 49t-54.5 18q-32 0 -58 -24t-40 -68q-11 -36 -17 -100h165l-21 -30h-146v-25v-23h116l-19 -30h-95q9 -79 43.5 -125t86.5 -46q33 0 65 19.5t51 53.5v-26
q-22 -33 -58.5 -51.5t-77.5 -18.5q-67 0 -115.5 52t-62.5 142h-56l20 30h32v28v20h-52l20 30h36q12 94 62 153.5t116 59.5z" />
    <glyph glyph-name="trademark" unicode="&#x2122;" horiz-adv-x="330" 
d="M301 450q-4 0 -12 -2l-3.5 -0.5t-5.5 -0.5q-1 0 -2 -1h-1q-13 -22 -25 -61q-6 -16 -9 -29q-1 -2 -1 -5q-8 20 -11.5 28.5t-11.5 25t-17 30.5q0 1 -1 1q-4 2 -7 2h-2q-3 -1 -9 -2q-11 -5 -15 -5q-2 0 -3 -2q-3 -13 -3 -73v-41q-1 -20 -3 -27q0 -1 1 -2v-0.5v-0.5v0
q2 -1 3 0l14 2q15 3 22 3q1 0 2 0.5t1 1.5q0 18 -0.5 46t-1 43t1.5 43q5 -8 9.5 -16.5t8.5 -18.5t6.5 -16t7 -17.5t6.5 -16.5q1 -2 3.5 -2t2.5 3q0 4 3 15q3 13 9 29q10 31 20 52q3 -17 4.5 -38t1.5 -34.5t-0.5 -39t-0.5 -34.5q0 -1 1 -2t2 -1q13 0 25 3q1 0 2 1v0v0v0
q1 1 1 2q0 34 -3 86q-1 27 -3 44q-1 10 -2 16q-2 7 -3 9t-2 2zM140 445h-1q-11 -1 -51 -4q-50 -4 -64 -2q-1 0 -2 -0.5t-1 -1.5t0.5 -2t1.5 -1q13 -2 46 1q-1 -56 -4 -93t-6 -47v0l-8 2q-1 1 -1 0q-3 0 -3.5 -2t2.5 -3q28 -8 63 -8q1 0 2 1t1 2t-1 2t-2 1h-14q1 4 3 19
q0 6 2 28q3 32 6 60q3 32 3 41q28 2 36 1q2 0 3 0.5t1 1.5t-0.5 2t-2.5 1q-3 1 -9 1z" />
    <glyph glyph-name="minus" unicode="&#x2212;" horiz-adv-x="422" 
d="M401 165h-379v49h379v-49z" />
    <glyph glyph-name="blank" unicode="&#x2423;" horiz-adv-x="549" 
d="M77 176v-99q0 -17 5 -28t14 -15t14.5 -5t14.5 -1h293q58 0 58 53v95h27v-176h-453v176h27z" />
    <glyph glyph-name="dottedcircle" unicode="&#x25cc;" horiz-adv-x="453" 
d="M57 326q5 0 9 -4.5t4 -9.5q0 -6 -4 -10t-9 -4t-9 4t-4 10q0 5 4 9.5t9 4.5zM130 390q14 0 14 -14q0 -4 -4.5 -8t-10 -4t-9.5 4t-4 8q0 6 4 10t10 4zM123 57q5 0 9 -4t4 -9q0 -6 -4 -10t-9 -4q-6 0 -10 4t-4 10q0 5 4.5 9t9.5 4zM52 122q12 0 12 -13.5t-12 -13.5
q-6 0 -10 4.5t-4 9.5t4 9t10 4zM322 64q6 0 9.5 -4t3.5 -10q0 -4 -4 -8t-9.5 -4t-9 4t-3.5 8q0 6 3.5 10t9.5 4zM381 130q13 0 13 -12q0 -14 -13 -14t-13 14q0 12 13 12zM381 321q13 0 13 -13t-13 -13t-13 13t13 13zM313 386q6 0 10.5 -4.5t4.5 -10.5q0 -5 -4.5 -9t-10.5 -4
q-5 0 -9 4t-4 9t4 10t9 5zM406 224q6 0 10.5 -4t4.5 -9t-4.5 -9t-10.5 -4q-5 0 -9 4t-4 9t4 9t9 4zM26 229q12 0 12 -14q0 -5 -3.5 -9t-8.5 -4q-14 0 -14 13q0 14 14 14zM230 30q6 0 9.5 -4t3.5 -10t-3.5 -9.5t-9.5 -3.5t-9.5 4t-3.5 9.5t3.5 9.5t9.5 4zM229 416q5 0 9 -4.5
t4 -9.5q0 -13 -13 -13q-5 0 -9.5 4t-4.5 9t4.5 9.5t9.5 4.5z" />
    <glyph glyph-name="dotlessj" unicode="&#xf6be;" horiz-adv-x="240" 
d="M138 399q-10 0 -10 -17q0 -21 1 -71.5t0 -78.5q-9 -182 -40 -294q-16 -55 -38.5 -95t-60.5 -63q-14 -8 -28.5 -12t-30.5 -0.5t-26 16.5q-33 48 -6 134q0 1 1.5 7t1.5 9q-13 -16 -23 -65q-5 -35 3.5 -66.5t36.5 -45.5q45 -17 102 26q40 33 62 81t40 115q28 117 35 265
q0 9 1.5 67.5t-2.5 67.5q-1 8 -7 14t-12 6z" />
    <glyph glyph-name="uni0E10.descless" unicode="&#xf700;" horiz-adv-x="293" 
d="M313 390q-2 -3 -5 -8.5t-5 -9t-5.5 -8.5t-7 -8.5t-7.5 -6.5q-35 -27 -95 0q-28 13 -43 19t-40.5 11.5t-46.5 3.5q-16 -1 -29 -9.5t-12 -23.5q1 -6 4 -11.5t6 -8.5t9.5 -7.5t9.5 -6l11 -5.5l10 -5q13 -6 44 -21t48 -23.5t42 -22.5t44 -28q11 -7 12 -20.5t-6 -23.5
q-10 -15 -21.5 -28t-34 -34t-26.5 -25q4 26 3 49q9 1 6 13l-9 18q-9 52 -34 81q-11 12 -23 1.5t-6 -23.5q10 -40 37 -74q0 -1 0.5 -1t0.5 -1q5 -45 -8 -100q-15 -21 -13 -40q1 -11 8.5 -13t14.5 3.5t7 14.5l8 26q6 9 14.5 18t20 20t16.5 16l14.5 14.5t16.5 17.5t12.5 15
t13.5 19.5t9 19.5q5 15 -1.5 31t-20.5 25q-27 19 -56 34.5t-77 37.5t-59 28q-13 4 -21.5 12.5t2.5 17.5q36 12 93 -10q58 -28 92 -29q25 -1 47 12t31 36q6 14 5 21z" />
    <glyph glyph-name="uni0E34.left" unicode="&#xf701;" horiz-adv-x="4" 
d="M-401 741q-10 0 -18 -6.5t-7 -16.5q0 -8 4.5 -14.5t14.5 -15t12 -9.5q49 -40 143 -108.5t124 -91.5l14 -10.5t17.5 -11.5t16.5 -4q11 -3 16.5 5.5t-5.5 15.5q-10 9 -31 23.5t-25 16.5q-191 132 -254 180q-19 14 -26 24q16 3 52 -10q63 -27 140 -97q58 -54 119 -98
q12 -7 14 -6.5t-5 6.5q-10 10 -34.5 35t-37.5 39q-70 64 -105 90q-80 58 -133 63q-3 1 -6 1z" />
    <glyph glyph-name="uni0E35.left" unicode="&#xf702;" horiz-adv-x="0" 
d="M-393 744q-29 0 -33 -20q-1 -8 3.5 -16.5t7.5 -11.5t13 -11q24 -21 54 -43.5t51 -38t57.5 -42t52.5 -38.5q10 -7 48 -36q1 -1 3 -3.5t3 -3.5q7 -6 8 -7q5 -7 13 -6q10 -7 19 -12q14 -7 26 2q11 7 -2 18q-10 8 -24 18q11 21 31 69t32 73q6 14 -9.5 19.5t-21.5 -7.5
q-5 -12 -13.5 -36.5t-12.5 -36.5q-5 -11 -9 -23q-8 -17 -14 -29q-2 -5 -8 -13q-7 6 -13 10q-16 11 -33 22q-4 6 -10.5 15.5t-9.5 14.5q-7 8 -27.5 33t-30.5 37t-27 31t-32 33q-31 33 -80 39h-12zM-392 723q31 0 59 -17q9 -7 18.5 -16t16 -15t17.5 -18.5t14.5 -16.5
t16.5 -19.5t15 -17.5q11 -14 23 -29q-106 73 -169 122q-2 3 -10 9q-19 14 -8 17q3 0 7 1z" />
    <glyph glyph-name="uni0E36.left" unicode="&#xf703;" horiz-adv-x="0" 
d="M-405 738h-6q-11 -2 -14 -14t4 -20q9 -10 18.5 -19t27 -22.5t21.5 -16.5q38 -30 115.5 -85.5t113.5 -83.5q4 -2 13.5 -10t17 -11.5t16.5 -2.5q12 -3 15 7t-7 16q-12 10 -34 24q13 2 26 8q45 20 56 59q9 36 -16 59q-25 21 -62 5q-29 -15 -41 -48q-6 -22 1 -51q-8 3 -29 19
q-1 0 -1 1q-5 5 -56 59q-2 2 -11 11.5t-11.5 12t-11 11.5t-12 12t-11.5 10.5t-12.5 11.5t-12 10t-13 10.5t-12.5 9t-14 8.5q-40 20 -58 20zM-403 716q15 -1 52 -19q22 -14 47 -36t36.5 -34t40.5 -43q-94 65 -154 112q-4 2 -12 10.5t-10 9.5zM-72 617q13 0 21 -7
q17 -20 5 -43q-17 -32 -59 -41q-14 -3 -27 2q0 3 0.5 10t1.5 11q0 2 9 32q9 22 29 31q10 5 20 5z" />
    <glyph glyph-name="uni0E37.left" unicode="&#xf704;" horiz-adv-x="0" 
d="M-398 750q-20 0 -28 -13q-5 -13 0 -25t16 -20q21 -18 46.5 -38t43.5 -33t50 -36.5t45 -33.5q16 -11 57.5 -42.5t65.5 -47.5q17 -10 32 -6q8 2 6 11q-4 8 -11.5 14t-19 13.5t-14.5 10.5q-2 2 -6 4.5t-6 3.5q7 13 26 63q2 5 10 27t9 34q3 12 -8 20q-10 6 -16 -5
q-8 -21 -17.5 -61t-11.5 -48q0 -2 -1 -6q-1 -1 -7 -12q-2 1 -4.5 3t-3.5 2q-15 22 -43 60.5t-37 52.5q-67 87 -151 105q-13 3 -22 3zM-398 726q6 1 21 -2q75 -17 135 -95q10 -13 28 -37.5t21 -28.5q-118 81 -186 134q-3 3 -9.5 8t-11 9.5t-5.5 8.5q0 3 7 3zM-43 636
q-3 0 -4 -2q-5 -8 -24 -47q-8 -15 -19.5 -44t-14.5 -36q0 -6 5 -3q8 9 20 28t19 28q10 12 32 47q0 1 4.5 5t4.5 8q-4 5 -12 11q-8 5 -11 5z" />
    <glyph glyph-name="uni0E48.low_left" unicode="&#xf705;" horiz-adv-x="0" 
d="M-82 699h2q5 0 10.5 -4.5t7.5 -6.5q2 -4 -6 -21q-1 -3 -5.5 -18.5t-11 -40t-13.5 -44.5q-8 -23 -20.5 -67.5t-19.5 -65.5q-3 -4 -4 -4t-2 5q4 22 12.5 71t13.5 71q22 100 26 118q2 7 10 7z" />
    <glyph glyph-name="uni0E49.low_left" unicode="&#xf706;" horiz-adv-x="0" 
d="M-216 667h-7q-12 -2 -18 -12.5t-1 -20.5q2 -5 5 -9.5t5.5 -7.5t7.5 -8t7 -6.5t8.5 -7t7.5 -6.5q2 -1 8.5 -6t10.5 -7q-1 -5 -3 -11q-9 -34 -32 -50q-11 -2 -29 -5q-2 0 -7.5 -1t-9.5 -2t-8 -3t-5.5 -5.5t-0.5 -8.5q11 -12 48 -7q17 5 31 16q95 21 154 42q88 34 125 73
l1 2l2 3q4 5 2 6q-3 0 -8 -5q-26 -25 -65 -43q-74 -33 -190 -55q14 20 21 46q9 2 12.5 9t-5.5 14q-1 2 -4 3q0 23 -12 40q-22 33 -51 33zM-210 638q12 -4 22 -18l2 -4q-8 6 -14 12q-3 0 -10 10z" />
    <glyph glyph-name="uni0E4A.low_left" unicode="&#xf707;" horiz-adv-x="0" 
d="M76 668q-13 0 -45 -16q-22 -12 -42 -26t-45 -36.5t-34.5 -31t-41 -41t-34.5 -35.5q-1 -2 -15 -12q2 8 6 24.5t6 23.5q1 6 4.5 21.5t5 23t3 20t1 23.5t-2.5 21q-10 36 -33 30q-6 -2 -11.5 -8t-8.5 -10.5t-7.5 -13.5t-6.5 -12t-7.5 -13.5t-10.5 -16t-11 -7.5q-14 14 -32 61
q-6 15 -20.5 10.5t-16.5 -19.5q-8 -32 -1 -101q8 -57 27 -79q10 -12 24 -7q10 4 5 15q-18 34 -22 54q-11 50 -9 86q6 -12 12 -21q19 -33 43 -24q9 3 16 10.5t10 12.5t9.5 17.5t8.5 14.5q1 5 7.5 15t6.5 12q10 -20 9 -33q-1 -19 -3.5 -38.5t-9 -49.5t-8.5 -39q-8 -13 3 -23
t22 3q16 15 44 45.5t38 40.5q28 29 47.5 47t49 39.5t57.5 34.5l7 3.5t7 4.5h-1z" />
    <glyph glyph-name="uni0E4B.low_left" unicode="&#xf708;" horiz-adv-x="0" 
d="M-106 623q-6 0 -9 -4q-3 -13 -14 -66q-1 -7 -3 -14q-16 -2 -55 -10q-4 -2 -9 -1t-9.5 -0.5t-5.5 -6.5q-3 -22 7 -25q9 2 62 15q1 0 3 0.5t3 1.5q-7 -39 -9 -72q-1 1 -2 1l-1 1q-8 1 -1 -8q1 -2 3 -4q0 -8 2.5 -11.5t8.5 0.5q2 4 1 9q4 27 16 70q4 9 7 20q61 15 95 16
q8 3 1 7q-29 4 -90 -1q3 9 7.5 26t6.5 24q0 2 3 8.5t3 8.5t-4 7q-10 8 -17 8z" />
    <glyph glyph-name="uni0E4C.low_left" unicode="&#xf709;" horiz-adv-x="0" 
d="M102 827q-8 0 -15 -6q-9 -11 -9.5 -30t2.5 -33l1 -3q4 -17 5 -2q1 7 0 13q0 1 -0.5 12.5t0 17t4 12.5t10.5 9q20 -3 46 -37q15 -23 14 -49.5t-16 -48.5q-38 -55 -140 -101q-18 -8 -39 -15t-47 -15t-40 -12l-10 -4q-2 0 -5 1q-7 3 -15.5 -1.5t-11.5 -11t3 -11.5
q-4 -6 -4 -13q3 -29 42 -51q11 -8 28 -6t19 17q0 34 -26 59q9 2 13 4q88 25 157 68q83 52 102 111q9 28 -0.5 57.5t-32.5 49.5q-21 18 -35 19zM-134 502q19 -10 26 -27q1 -1 1 -3q-20 8 -30 27q1 2 3 3z" />
    <glyph glyph-name="uni0E48.low" unicode="&#xf70a;" horiz-adv-x="0" 
d="M6 699h2q5 0 10.5 -4.5t7.5 -6.5q2 -4 -6 -21q-1 -3 -5.5 -18.5t-11 -40t-13.5 -44.5q-8 -23 -20.5 -67.5t-19.5 -65.5q-3 -4 -4 -4t-2 5q4 22 12.5 71t13.5 71q22 100 26 118q2 7 10 7z" />
    <glyph glyph-name="uni0E49.low" unicode="&#xf70b;" horiz-adv-x="0" 
d="M-98 668h-7q-12 -2 -18 -12.5t-1 -20.5q2 -5 5 -9.5t5.5 -7.5t7.5 -8t7 -6.5t8.5 -7t7.5 -6.5q2 -1 8.5 -6t10.5 -7q-1 -5 -3 -11q-9 -34 -32 -50q-11 -2 -29 -5q-2 0 -7.5 -1t-9.5 -2t-8 -3t-5.5 -5.5t-0.5 -8.5q11 -12 48 -7q17 5 31 16q95 21 154 42q88 34 125 73l1 2
l2 3q4 5 2 6q-3 0 -8 -5q-26 -25 -65 -43q-74 -33 -190 -55q14 20 21 46q9 2 12.5 9t-5.5 14q-1 2 -4 3q0 23 -12 40q-22 33 -51 33zM-92 639q12 -4 22 -18l2 -4q-8 6 -14 12q-3 0 -10 10z" />
    <glyph glyph-name="uni0E4A.low" unicode="&#xf70c;" horiz-adv-x="0" 
d="M199 668q-13 0 -45 -16q-22 -12 -42 -26t-45 -36.5t-34.5 -31t-41 -41t-34.5 -35.5q-1 -2 -15 -12q2 8 6 24.5t6 23.5q1 6 4.5 21.5t5 23t3 20t1 23.5t-2.5 21q-10 36 -33 30q-6 -2 -11.5 -8t-8.5 -10.5t-7.5 -13.5t-6.5 -12t-7.5 -13.5t-10.5 -16t-11 -7.5
q-14 14 -32 61q-6 15 -20.5 10.5t-16.5 -19.5q-8 -32 -1 -101q8 -57 27 -79q10 -12 24 -7q10 4 5 15q-18 34 -22 54q-11 50 -9 86q6 -12 12 -21q19 -33 43 -24q9 3 16 10.5t10 12.5t9.5 17.5t8.5 14.5q1 5 7.5 15t6.5 12q10 -20 9 -33q-1 -19 -3.5 -38.5t-9 -49.5t-8.5 -39
q-8 -13 3 -23t22 3q16 15 44 45.5t38 40.5q28 29 47.5 47t49 39.5t57.5 34.5l7 3.5t7 4.5h-1z" />
    <glyph glyph-name="uni0E4B.low" unicode="&#xf70d;" horiz-adv-x="0" 
d="M6 667q-6 0 -9 -4q-3 -13 -14 -66q-1 -7 -3 -14q-16 -2 -55 -10q-4 -2 -9 -1t-9.5 -0.5t-5.5 -6.5q-3 -22 7 -25q9 2 62 15q1 0 3 0.5t3 1.5q-7 -39 -9 -72q-1 1 -2 1l-1 1q-8 1 -1 -8q1 -2 3 -4q0 -8 2.5 -11.5t8.5 0.5q2 4 1 9q4 27 16 70q4 9 7 20q61 15 95 16
q8 3 1 7q-29 4 -90 -1q3 9 7.5 26t6.5 24q0 2 3 8.5t3 8.5t-4 7q-10 8 -17 8z" />
    <glyph glyph-name="uni0E4C.low" unicode="&#xf70e;" horiz-adv-x="0" 
d="M141 827q-8 0 -15 -6q-9 -11 -9.5 -30t2.5 -33l1 -3q4 -17 5 -2q1 7 0 13q0 1 -0.5 12.5t0 17t4 12.5t10.5 9q20 -3 46 -37q15 -23 14 -49.5t-16 -48.5q-38 -55 -140 -101q-18 -8 -39 -15t-47 -15t-40 -12l-10 -4q-2 0 -5 1q-7 3 -15.5 -1.5t-11.5 -11t3 -11.5
q-4 -6 -4 -13q3 -29 42 -51q11 -8 28 -6t19 17q0 34 -26 59q9 2 13 4q88 25 157 68q83 52 102 111q9 28 -0.5 57.5t-32.5 49.5q-21 18 -35 19zM-95 502q19 -10 26 -27q1 -1 1 -3q-20 8 -30 27q1 2 3 3z" />
    <glyph glyph-name="uni0E0D.descless" unicode="&#xf70f;" horiz-adv-x="427" 
d="M139 398q-28 0 -53 -12q-15 -8 -24.5 -23.5t-2.5 -29.5q3 -5 20 -18.5t16 -26.5q-2 -19 -10.5 -39.5t-21.5 -45t-18 -37.5q-39 -78 -14 -145q3 -18 20.5 -23t23.5 14q18 52 3 112q-1 10 -12 23q6 14 22 47t23 51q0 1 1 4q14 44 3 63q-2 4 -6.5 8.5t-9 8.5t-9 7.5t-7 5.5
l-2.5 2q9 29 58 30q42 3 71 -39q42 -59 23 -162q-2 -20 -14.5 -66.5t-13.5 -72.5q-1 -13 7.5 -24t22.5 -9q29 7 73 6q2 0 10.5 0.5t12 0.5t10.5 1.5t11 3.5t8.5 5.5t6.5 8.5q3 12 5 35.5t3 28.5q1 10 6 52.5t7.5 59.5t8 49.5t12 58t16.5 50.5q0 2 2.5 8.5t4 11t-0.5 4.5
q-27 -42 -51 -135q-13 -47 -25 -167q-1 -4 -2 -24.5t-8 -27.5q-13 -4 -33 -4h-34q-8 1 -25 -2.5t-25 -2.5q-3 6 -3 13.5t1 12.5t3 14t2 12q30 109 30 167q-1 45 -20 85.5t-56 61.5q-21 10 -46 10zM51 97q3 -27 1 -47q-3 16 -1 47v0z" />
    <glyph glyph-name="uni0E31.left" unicode="&#xf710;" horiz-adv-x="0" 
d="M161 665q-3 0 -8 -4t-10.5 -9.5l-7.5 -7.5q-110 -90 -206 -130q-38 -14 -54 -18q-6 24 -27.5 38.5t-45.5 8.5q-14 -4 -21 -19t1 -28q10 -15 27.5 -22.5t36.5 -6.5q6 0 12 1q10 -5 15 3q38 8 97 40q101 58 190 146q2 5 3 7q0 1 -2 1zM-184 516q19 -1 27 -23q-4 0 -8 1
q-11 2 -21 8t-4 13q3 1 6 1z" />
    <glyph glyph-name="uni0E4D.left" unicode="&#xf711;" horiz-adv-x="0" 
d="M-155 661l-10 -2q-31 -8 -51 -45q-8 -19 -8 -42q-9 -20 -1 -50q8 -35 47 -50q46 -20 78 4q19 15 30.5 37.5t9.5 45.5q-6 51 -48 84q-24 18 -47 18zM-152 634q5 0 9 -1q38 -13 56 -58q10 -25 -1 -50q-17 -38 -48 -41q-40 -2 -63 27q-6 9 -8 20l1 -1q6 -3 10.5 2t4.5 11
q0 4 -1.5 19.5t-0.5 23.5q0 5 1 10q9 10 20 19q2 1 5 4q4 3 1 4q-3 0 -6 -2q-4 -1 -7 -2q5 5 10 9q7 6 17 6z" />
    <glyph glyph-name="uni0E47.left" unicode="&#xf712;" horiz-adv-x="0" 
d="M534 825q-4 0 -9 -2q-10 -6 -18.5 -14.5t-16 -21l-12 -20t-12 -24t-9.5 -21.5q-7 -21 -7 -25q2 4 26 49t44 63q25 15 30.5 -18t-3.5 -52q-35 -121 -187 -197q-126 -59 -222 -48q-24 6 -51 17.5t-44.5 21.5t-48 28t-44.5 26q-6 3 -24 14t-31 16.5t-27 5.5q-6 -2 -12 -5.5
t-11 -6t-10 -8.5t-8 -9t-8 -10.5l-7 -10.5t-6.5 -12l-5.5 -11t-5.5 -12t-5.5 -11q-1 -5 -6 -14.5t-9.5 -18t-7.5 -16.5t1 -13t15 -6q6 3 26 13.5t29.5 14.5t26 7.5t30.5 1.5q17 -9 35 -39t21 -34q26 -11 28 17q1 29 -15 45q-14 22 -19 6q-17 23 -38 32q-39 11 -96 -17
q2 5 5.5 12t3.5 9q27 60 54 70q18 -6 36 -15.5t40.5 -23t33.5 -19.5q8 -5 32 -18t36.5 -19t32.5 -14.5t38 -12.5t36 -5q132 2 264 90q124 86 139 196q4 23 -2 45.5t-25 23.5z" />
    <glyph glyph-name="uni0E48.left" unicode="&#xf713;" horiz-adv-x="0" 
d="M-31 865q-6 0 -7 -4q-3 -12 -20 -81q-3 -16 -9 -50t-9 -49q2 -4 2.5 -4.5t4.5 2.5q6 14 15.5 45t16.5 46q6 14 11.5 30.5t8.5 27t4 13.5q7 11 5 14q-7 8 -18 10h-5z" />
    <glyph glyph-name="uni0E49.left" unicode="&#xf714;" horiz-adv-x="0" 
d="M-38 841q-5 0 -9 -2q-10 -3 -14 -13.5t1 -19.5q10 -15 37 -37q2 -2 6 -4.5t5 -3.5v-1q-8 -33 -29 -47q-13 -2 -31 -5q-9 0 -15 -7t1 -14q18 -9 43 -2q12 4 22 12q77 17 125 35q74 29 105 62l2 2l1 2q3 4 1 5t-6 -3q-24 -22 -59 -38q-59 -25 -149 -42q10 16 15 36
q8 2 10 9.5t-5 13.5h-1.5h-0.5q0 22 -14 38q-18 24 -41 24z" />
    <glyph glyph-name="uni0E4A.left" unicode="&#xf715;" horiz-adv-x="0" 
d="M185 846q-4 0 -8 -1q-40 -15 -93 -62q-14 -13 -39 -38l-35 -35q0 3 4 17.5t5 22.5q1 2 3 10.5t2.5 11.5t1.5 10.5t1 11.5v10.5t-1.5 11.5t-3.5 10q-3 9 -11 13.5t-15 0.5q-6 -3 -10 -7.5t-9.5 -15t-6.5 -11.5q-1 -4 -7.5 -13t-6.5 -10q-10 11 -21 41q-2 8 -10.5 11
t-15.5 -3q-11 -12 -12 -51q2 -44 9 -68q9 -27 22 -30q9 -4 15 2.5t3 15.5q-12 22 -15 40q-4 23 -5 37l6 -8q6 -9 16 -12t19 3q8 5 14 13.5t12 21t9 17.5q3 -10 3 -16q0 -14 -2.5 -30.5t-7 -36t-6.5 -30.5q-2 -10 8 -14t16 4q12 11 31.5 33.5t26.5 28.5q63 67 109 87q2 1 4 3
q10 4 1 4z" />
    <glyph glyph-name="uni0E4B.left" unicode="&#xf716;" horiz-adv-x="0" 
d="M-51 856q-6 -1 -8 -6t-3 -12.5t-2 -10.5q-2 -7 -9 -45q-3 -1 -53 -9q-9 2 -14.5 -2.5t-3.5 -13.5q-1 -10 7 -12t16 3q7 1 22 5t22 6q-3 -15 -9 -73q-1 -7 5 -10q5 -2 6 6q0 4 6 36q4 17 14 46q53 14 83 14q8 6 -6 7q-3 1 -7 1q-20 2 -65 -2q2 6 6.5 22.5t7.5 25.5
q6 7 2 14.5t-13 8.5l-2 1h-2z" />
    <glyph glyph-name="uni0E4C.left" unicode="&#xf717;" horiz-adv-x="0" 
d="M206.5 902.5q-1.5 0.5 -0.5 -6.5q6 -26 -11 -50q-29 -40 -98 -75q-11 -5 -32.5 -13t-30.5 -14q-20 -10 -33 -27q-2 1 -4 0q-11 2 -15 -7.5t3 -16.5q-5 -13 -6 -26q-1 -15 6.5 -28.5t20.5 -20.5q10 -6 20.5 0t14.5 17q2 5 2 11t-0.5 9.5t-3.5 10.5t-4 9t-5.5 10t-4.5 9
q-2 2 -6 7q14 18 35 30q89 37 134 89q36 40 25 76q-5 6 -6.5 6.5zM5 668q8 -11 10 -21q-1 0 -1 -1q-10 8 -9 22z" />
    <glyph glyph-name="uni0E38.low" unicode="&#xf718;" horiz-adv-x="0" 
d="M-146 -186q-8 -1 -13 -7q-7 -11 2 -35q6 -17 22 -44l2 -4q-5 -37 -22 -93q-2 -9 -5 -25t-4 -19q1 -7 1.5 -7t5.5 5q10 16 19 35q8 27 13 44q10 36 13 55q6 2 9 7.5t0 11.5q-3 4 -6 7q1 10 1 19q-1 34 -21 45q-8 5 -17 5z" />
    <glyph glyph-name="uni0E39.low" unicode="&#xf719;" horiz-adv-x="0" 
d="M-69 -187q-3 0 -6 -4q-16 -15 -32 -37q-2 8 -5 15q-4 11 -14.5 17.5t-21.5 3.5q-7 -1 -10.5 -7.5t-2.5 -13.5q3 -11 17 -27q7 -8 13 -11v-15q-19 -36 -30 -63q-15 -42 -11 -64q1 -9 7 -15.5t14 -4.5q11 3 23 28q16 44 22 102q1 15 1 24q1 0 1.5 1.5l0.5 1.5q22 44 32 61
l1 3q3 5 1 5zM-135 -320q-2 -10 -5 -22q-7 -31 -12 -42q-1 6 3 24q5 19 14 40zM-157 -392z" />
    <glyph glyph-name="uni0E3A.low" unicode="&#xf71a;" horiz-adv-x="4" 
d="M-148 -211q-8 1 -15 -5q-14 -12 -12 -30q1 -13 7 -20q7 -10 19 -5q3 -4 6 -3q4 2 8 6q12 12 14 18q6 11 0 22q-6 12 -20 16q-3 1 -7 1zM-152 -238l-0.5 -2t-0.5 -3t-1 -2v2q1 3 2 5z" />
    <glyph glyph-name="uniF71B" unicode="&#xf71b;" horiz-adv-x="274" 
d="M16 406v-390h242v390h-242zM274 0h-274v423h274v-423z" />
    <glyph glyph-name="dochadathai.alt1" unicode="&#xf71c;" 
d="M155 398q-55 0 -74 -37q-5 -11 -2.5 -26t7 -24.5t11.5 -23.5t10 -24q3 -28 -8 -102q-4 -19 -4 -20q-15 5 -26 -7q-21 -23 -36 -84q-10 -50 15 -55q10 1 19 9t13 14t11 19q36 77 43 202q3 5 1 15t-2.5 14.5t-4.5 14t-6 14t-6.5 13.5l-6.5 13q-11 17 -1 32t29 16
q37 8 73 -11.5t60 -53.5q35 -46 20 -130q-6 -36 -16 -104.5t-19.5 -123t-20.5 -103.5q-13 12 -36.5 36.5t-33.5 34.5q18 21 44 55q10 15 15 23q-1 -1 1 2q4 4 1 3q-9 -9 -32.5 -35t-36.5 -40q-18 17 -34 30q-30 26 -52 9q-44 -28 -78 -97q-6 -13 -8.5 -20.5t-2 -19.5
t8.5 -19q26 -11 70 14q45 30 91 80q10 -9 28.5 -29t27.5 -29q5 -6 10.5 -11.5t13 -10.5t13.5 -2.5t8 14.5q7 27 13.5 60t10 54.5t10.5 63t9 56.5q2 14 11.5 69.5t11.5 86.5q3 61 -39.5 111.5t-103.5 62.5q-10 1 -20 1zM86 105q-8 -33 -21 -55q7 28 21 55zM88 -51q4 0 8 -2
q22 -14 46 -37q-47 -47 -91 -73q-3 -1 -9.5 -4t-12 -5.5t-12 -4t-11 0t-6.5 6.5q6 33 44 84q2 2 11.5 13t17 16.5t15.5 5.5z" />
    <glyph glyph-name="topatakthai.alt1" unicode="&#xf71d;" 
d="M155 398q-25 0 -46 -10t-29 -31q-7 -22 10 -56t18 -48q-3 -62 -13 -112q-16 4 -26 -7q-20 -22 -35 -80q-5 -13 -4.5 -32.5t15.5 -25.5q10 -1 20.5 6.5t14.5 14t11 20.5q36 77 44 202q2 5 0 15t-2.5 14.5t-4.5 14t-6 14t-6.5 13.5l-6.5 13q-11 17 -1 32t29 16
q37 7 72.5 -12t60.5 -53q35 -46 20 -130q-6 -36 -15.5 -99t-18 -115.5t-18.5 -98.5q-18 45 -31 70q-1 1 -3.5 5.5t-4.5 7t-4.5 7t-5 7l-5.5 5.5t-6 4t-6 1.5t-6.5 -1t-6.5 -5.5q-6 -11 -9 -24t-6 -30t-5 -25q2 -3 -6 -25q-6 8 -14.5 24.5t-11.5 21.5q23 33 51 87
q14 33 15 34q-60 -93 -73 -110q-13 22 -27 35q-11 12 -26.5 13.5t-27.5 -9.5q-26 -22 -39.5 -55.5t-10.5 -68.5q1 -18 13 -24t26.5 -1t24.5 16q32 26 61 65q7 -12 10 -18q1 -1 5.5 -10.5t7.5 -13.5t8 -9.5t10.5 -5t11.5 6.5q8 19 14.5 56.5t11.5 51.5v1q9 -12 17 -27
t12 -23.5t12.5 -31.5t9.5 -26q0 -9 6 -15t13 -4t9 13q7 26 13.5 59t10 54t10.5 62t9 57q2 13 11.5 70t11.5 88q4 62 -40 113t-106 61q-8 1 -17 1zM86 106q-8 -27 -18 -51q0 -3 -4 -9q0 7 3 10q3 13 19 50zM46 -54q2 0 3 -1q20 -12 39 -44q-19 -24 -38 -42q-2 -1 -16.5 -13.5
t-24 -17.5t-18.5 -2q-10 36 15 84q7 12 10.5 17t12.5 12t17 7z" />
    <glyph glyph-name="uni0E4D.high" unicode="&#xf71e;" horiz-adv-x="0" 
d="M-106 845l-10 -2q-31 -8 -51 -45q-8 -19 -8 -42q-9 -20 -1 -50q8 -35 47 -50q46 -20 78 4q19 15 30.5 37.5t9.5 45.5q-6 51 -48 84q-24 18 -47 18zM-103 818q5 0 9 -1q38 -13 56 -58q10 -25 -1 -50q-17 -38 -48 -41q-40 -2 -63 27q-6 9 -8 20l1 -1q6 -3 10.5 2t4.5 11
q0 4 -1.5 19.5t-0.5 23.5q0 5 1 10q9 10 20 19q2 1 5 4q4 3 1 4q-3 0 -6 -2q-4 -1 -7 -2q5 5 10 9q7 6 17 6z" />
    <glyph glyph-name="uni0E47.high" unicode="&#xf71f;" horiz-adv-x="0" 
d="M512.049 1035.23q-3.6377 0 -8.18555 -1.81836q-9.09473 -5.45703 -16.8252 -13.1885q-7.73047 -7.73047 -14.5518 -19.0986q-6.82129 -11.3691 -10.9141 -18.1895q-4.09277 -6.82129 -10.9141 -21.8281q-6.82129 -15.0059 -8.63965 -19.5537
q-6.36621 -19.0996 -6.36621 -22.7373q1.81836 3.6377 23.6465 44.5645q21.8271 40.9277 40.0166 57.2979q22.7373 13.6426 27.7393 -16.3701q5.00293 -30.0137 -3.18262 -47.2939q-31.832 -110.048 -170.074 -179.168q-114.595 -53.6602 -201.905 -43.6553
q-21.8271 5.45703 -46.3838 15.916q-24.5557 10.459 -40.4717 19.5537t-43.6553 25.4658q-27.7393 16.3701 -40.4727 23.6465q-5.45703 2.72852 -21.8271 12.7324q-16.3711 10.0049 -28.1943 15.0068t-24.5557 5.00195q-5.45703 -1.81934 -10.9141 -5.00195
q-5.45703 -3.18359 -10.0039 -5.45703q-4.54785 -2.27344 -9.0957 -7.73047q-4.54688 -5.45703 -7.27539 -8.18555t-7.27637 -9.5498q-4.54688 -6.82129 -6.36621 -9.5498q-1.81836 -2.72852 -5.91113 -10.9131q-4.09277 -8.18555 -5.00293 -10.0049
q-0.90918 -1.81836 -5.00195 -10.9141q-4.09277 -9.09473 -5.00195 -10.0039q-0.90918 -4.54785 -5.45703 -13.1875q-4.54688 -8.63965 -8.63965 -16.3711q-4.09277 -7.73047 -6.82129 -15.0059q-2.72852 -7.27637 0.90918 -11.8232q3.6377 -4.54785 13.6426 -5.45703
q5.45703 2.72852 23.6465 12.2773q18.1895 9.5498 26.8301 13.1875q8.63965 3.63867 23.6465 6.82129q15.0059 3.18359 27.7393 1.36426q15.4609 -8.18555 31.832 -35.4697q16.3701 -27.2842 19.0986 -30.9229q23.6465 -10.0039 25.4658 15.4619
q0.90918 26.375 -13.6426 40.9268q-12.7324 20.0088 -17.2803 5.45703q-15.4609 20.918 -34.5596 29.1035q-35.4707 10.0039 -87.3105 -15.4619q1.81836 4.54785 5.00195 10.9141q3.18262 6.36621 3.18262 8.18555q24.5566 54.5693 49.1123 63.6641
q16.3711 -5.45703 32.7422 -14.0967q16.3701 -8.64062 36.834 -20.9189q20.4629 -12.2773 30.4678 -17.7344q7.27539 -4.54785 29.1035 -16.3711q21.8271 -11.8232 33.1963 -17.2803q11.3682 -5.45703 29.5576 -13.1875t34.5605 -11.3682t32.7412 -4.54785
q120.053 1.81934 240.104 81.8535q112.776 78.2158 126.418 178.26q3.6377 20.918 -1.81836 41.3809q-5.45703 20.4639 -22.7373 21.373z" />
    <glyph glyph-name="khokhaithai_r" unicode="&#xf761;" horiz-adv-x="267" 
d="M288 389q-36 0 -74 -49q-29 -37 -55 -84q-8 8 -26 25q-10 18 -25 40q-2 3 -8.5 11.5t-9 12t-8.5 10.5t-10 11t-10 9t-11 9q-17 7 -22.5 -9t5.5 -27q18 -28 71 -84l8.5 -8.5l6.5 -6.5q10 -18 16 -35q-21 -42 -48 -104q-2 -4 -14.5 -33t-15.5 -46q-4 -14 6.5 -25.5
t25.5 -7.5q12 4 22.5 14.5t15.5 18.5t13 24q35 75 29 130q-2 14 -7 28q2 3 5 9h1q14 -1 7 14q22 38 45 70q1 1 10 12.5t12.5 14.5t11.5 10.5t15 10.5t16 4q9 -1 27 -6t27 -6h3q12 -3 14 5t-8 13q-32 24 -61 25zM145 177v-1q3 -53 -30 -118q-2 -2 -5.5 -8t-5.5 -9.5
t-5.5 -7.5t-7.5 -6.5t-9 -4.5q1 10 4 20t8.5 22t8.5 19q23 55 42 94z" />
    <glyph glyph-name="khorakhangthai_r" unicode="&#xf762;" horiz-adv-x="400" 
d="M195 398q-4 0 -8 -1q-11 -5 -16.5 -14.5t-10 -28t-5.5 -21.5q1 -5 -8 -23q0 1 -10.5 30.5t-19.5 42.5q-8 16 -26 12.5t-19 -20.5q-6 -47 21 -97q7 -12 22 -22t21 0q-28 60 -33 88q3 -7 8 -21t9.5 -24.5t10.5 -19.5q18 -16 32 0t17 38q4 18 15 54q4 -2 7 -4.5t5 -4.5
t4 -6.5t3 -7t2.5 -7.5t2 -7t1.5 -8t1 -8q19 -112 -34 -206q-32 48 -63 66q-25 14 -51.5 3.5t-39.5 -34.5q-21 -47 9 -106q11 -23 34 -35.5t46 -3.5q34 13 66 63q27 -43 46 -62q11 -17 32 -16.5t30 19.5q33 62 54 168q8 41 13.5 62.5t20.5 53t37 50.5q4 4 10 6.5t10 3.5
t11.5 0t11 -1.5t12 -2.5t10.5 -2q13 -3 19 -3q7 -1 7 2q-1 8 -17 18q-1 1 -2 1q-20 15 -42 17.5t-44 -9.5q-43 -33 -65 -111q-2 -8 -17.5 -84t-30.5 -113q-3 -5 -7.5 -18.5t-9.5 -22t-14 -10.5q-11 7 -18.5 15.5t-19 26.5t-13.5 20l-10 15q2 3 3 5q35 56 44.5 125.5
t-7.5 133.5q-5 18 -18 32t-29 14zM95 161q16 0 26 -10q25 -21 52 -62q-11 -17 -17.5 -26.5t-19 -21t-25.5 -16.5q-19 -5 -33 9t-21 33q-17 55 6 79q12 15 32 15z" />
    <glyph glyph-name="chochoethai_r" unicode="&#xf763;" horiz-adv-x="427" 
d="M141 398h-9q-28 -1 -51 -15t-25 -39q2 -15 19 -38.5t20 -36.5q1 -12 -3.5 -25.5t-9.5 -21.5t-14 -22t-13 -21q-12 -18 -20 -38q-1 -1 -3 -2v-6q-19 -56 -3 -108q3 -16 18.5 -25t24.5 8q10 36 -5 93q-6 14 -9 19q6 20 32.5 62.5t31.5 69.5q3 15 -1 28.5t-19 34t-16 24.5
q-8 8 6 19t29 12q47 9 73 -22q33 -35 47 -84t8 -100q-8 -43 -14 -66q-8 5 -15 10q-20 12 -43.5 6.5t-36.5 -24.5q-17 -19 -15.5 -47t19.5 -46q20 -14 42.5 -8t36.5 25q12 17 22 39q6 -6 9 -10q5 -5 15.5 -17t17 -19t17 -15t21.5 -11q17 -3 29 10.5t17 32.5q11 34 11 90t1 92
q4 48 14 82.5t37 58.5q8 5 20 5.5t17.5 0t22.5 -5t18 -5.5q1 0 6 -1q20 -5 21 0q0 2 -4 7q-22 22 -51 31.5t-56 0.5q-41 -20 -59 -87q-13 -45 -13.5 -131t-1.5 -100q0 -2 -3.5 -21t-9.5 -27.5t-17 -6.5q-12 9 -23.5 20.5t-25 27.5t-20.5 24q9 26 19 79q7 56 -8 110.5
t-50 95.5q-29 35 -75 34zM187 92q20 -1 39 -19q-8 -21 -18 -37q-8 -18 -28.5 -23t-27.5 17q-9 19 2.5 39t32.5 23z" />
    <glyph glyph-name="yoyingthai_r" unicode="&#xf764;" horiz-adv-x="427" 
d="M142 399q-5 0 -10 -1q-28 0 -51 -14.5t-26 -39.5q2 -13 20 -27t21 -24q-2 -20 -9 -39.5t-20.5 -45.5t-18.5 -36q-41 -81 -16 -150q3 -17 19.5 -22.5t22.5 13.5q17 49 3 108q-2 9 -11 22q6 15 20.5 44t24 52.5t11.5 46.5q1 8 0 15t-7 14t-8.5 10t-13 11.5l-10.5 8.5v1
q7 15 15 17q23 12 52 9t46 -23q55 -56 38 -164q-3 -24 -15.5 -71t-14.5 -72q-3 -16 5.5 -30t25.5 -12q16 3 46.5 9t45.5 9q1 1 10.5 3t12.5 3t11 3.5t11.5 5t9 6t9 8t5.5 10.5q3 21 7.5 67t10 81t15.5 67q2 5 7.5 24t10.5 31.5t12 22.5q13 2 19 1t18.5 -5t18.5 -5
q20 -3 23 -2q-1 3 -2.5 6.5t-3.5 6t-5.5 5.5t-6 5t-7.5 4.5l-7 3.5t-7.5 3.5t-6.5 3.5q-16 9 -37 4.5t-29 -22.5q-36 -94 -47 -226q-1 -6 -2.5 -34.5t-9.5 -40.5q-16 -8 -35.5 -13.5t-45 -9.5t-37.5 -7q-12 -7 -18.5 -1.5t-1.5 18.5q3 21 15 66.5t14 69.5q19 113 -37 178
q-31 40 -79 40zM440 27q-2 -1 -5 -3q-35 -36 -53 -51q-41 -35 -73 -43q-13 -3 -26 -2q3 10 2 23q-2 10 -10.5 17t-19.5 7q-13 0 -21.5 -11t-6.5 -23q3 -23 33 -34q37 -13 78 12q46 27 102 101q2 7 0 7zM256 -54l-1 -1q0 1 1 1z" />
    <glyph glyph-name="thophuthaothai_r" unicode="&#xf765;" horiz-adv-x="480" 
d="M291 398q-9 0 -18 -4q-36 -15 -31 -75q2 -3 0 -29q-6 8 -17.5 24.5t-18.5 26t-19.5 21t-24.5 18.5q-27 13 -56.5 -0.5t-47.5 -40.5q-52 -82 -30 -191q21 -75 68 -122q13 -14 31.5 -16.5t32.5 12.5q33 41 45 101q16 84 -30 121q-13 11 -31 6.5t-25 -20.5q-16 -31 -2 -63.5
t45 -46.5q2 0 12 -5q-4 -17 -12 -34q-1 -2 -8 -18.5t-14.5 -22t-17.5 0.5q-39 31 -65 104q-24 91 17 170q12 21 31 34.5t40 9.5q14 -6 24 -15.5t26 -31.5t17 -24q1 -1 2 -3q5 -7 8 -10.5t8.5 -10t10 -8.5t11 -1t11.5 6q5 9 6 20t-0.5 25.5t-1.5 20.5q-4 18 5.5 34.5
t28.5 10.5l6 -6t5.5 -6t4.5 -7.5t3 -7.5t2.5 -8.5t2 -8t1 -9t0.5 -8t0.5 -8.5t0.5 -8q1 -98 -39 -201q-37 4 -61 -20q-19 -15 -19 -42t19 -41q14 -8 27 0.5t23 23.5q14 22 25 49q8 -4 16.5 -9.5t18 -13.5t14.5 -11q3 -2 18 -13t21.5 -14.5t19 -8t24.5 -3.5q31 5 32 58
q-1 29 -6.5 93t-6.5 98q-3 29 6 56t30 43q4 4 9.5 6.5t9.5 3.5t11 1h10.5t11.5 -1.5t10 -2t11 -3t10 -3.5q2 0 9 -2q24 -5 23 2q-40 39 -88 40q-37 -1 -62.5 -31.5t-29.5 -68.5q0 -29 1.5 -59t6.5 -76.5t6 -58.5q0 -4 2 -24t-1 -31.5t-14 -15.5q-16 5 -32 15t-34 24.5
t-28 21.5q-9 7 -19 11q19 50 32 118q16 103 -4 157q-6 16 -19.5 26.5t-29.5 9.5zM154 220q6 0 12 -10q18 -30 13 -71q-26 24 -33 39q-7 9 -3.5 25t11.5 17zM277 70h1q-1 -3 -3 -7q-2 -3 -9 -17.5t-13.5 -22.5t-14.5 -10q-10 16 -1.5 33t26.5 22q7 2 14 2z" />
    <glyph glyph-name="nonenthai_r" unicode="&#xf766;" horiz-adv-x="427" 
d="M141 399q-5 0 -9 -1q-27 0 -50 -14.5t-26 -39.5q1 -13 19 -27t21 -24q-1 -15 -5.5 -32.5t-8.5 -29t-12 -31t-12 -29.5q-6 -15 -10 -30q-12 4 -11 -7q2 -5 5 -11q-12 -48 -1 -88q2 -19 16.5 -31t30.5 2q17 26 14 55.5t-21 54.5q-3 3 -9 8q6 21 22.5 63t22.5 64q6 16 6 38
t-14 34q-3 2 -8.5 8t-10.5 10t-7 4q10 26 56 27q22 2 40.5 -12t28.5 -35q47 -104 14 -231q-12 -19 -21 -46q-10 -14 -3 -33q6 -16 21 -3q17 35 27 73q15 21 35 27q12 2 23 3q-1 -23 1 -44q7 -68 45 -82q22 -8 42 7t30 39q10 19 5.5 41t-21.5 35q-30 23 -74 28q7 50 27 105
q24 68 73 97q6 4 12.5 6.5t14.5 2.5h13.5t14.5 -3t13.5 -4t14.5 -5t13 -5q6 -1 10 -2q16 -8 15 2q0 7 -10 13q-27 25 -59 33t-65 -9q-62 -36 -91 -134q-17 -61 -21 -96q-14 -1 -28 -3q-13 -3 -24 -10q7 47 5 95q-9 94 -45 140q-27 37 -74 37zM329 115q37 -4 63 -24
q13 -13 12 -28t-11 -30q-7 -13 -19 -19t-25 3q-9 11 -14 27.5t-5.5 27l-1.5 31.5q1 5 1 12zM66 78q7 -19 4 -36q-5 14 -4 36z" />
    <glyph glyph-name="nonuthai_r" unicode="&#xf767;" horiz-adv-x="347" 
d="M93 396q-12 -2 -15 -12.5t1 -21.5t11 -20q17 -31 43 -62q3 -14 3.5 -30t-1 -29t-6.5 -30.5l-8 -28t-10 -28.5q-6 -15 -26 -38t-24 -29q-29 -41 -33 -60q4 -13 14 -11.5t20 10t15 16.5q27 32 50 83q16 14 23 20t21 13.5t28 9.5q-8 -26 -11.5 -42.5t-2 -40t11.5 -40.5
q11 -18 32 -23t38 7q24 15 34 41.5t-2 52.5q-20 43 -67 63q22 60 48 102t67 67q30 22 79 10q26 -7 30 2q2 4 -8 12q-52 33 -91 16q-75 -33 -125 -143q-11 -22 -25 -60q-11 5 -32 -5t-26 -7q16 54 16 97q16 -5 12 9q-4 17 -16 29q-5 8 -15.5 33.5t-19.5 37.5q-16 28 -33 30z
M223 143q24 -11 41 -30.5t17 -43.5q-3 -20 -21 -35t-35 -4q-24 22 -10 83q3 13 8 30zM36 19z" />
    <glyph glyph-name="bobaimaithai_r" unicode="&#xf768;" horiz-adv-x="373" 
d="M97 394h-1q-12 0 -15.5 -18t5.5 -29q22 -47 48 -77q0 -6 1 -11q3 -67 -40 -161q-14 -29 -26 -46q-36 -25 -45 -49q8 -17 23.5 -9t25.5 22q8 10 15 20q7 4 14 6q16 1 34.5 -3t31 -9t33 -14t29.5 -13q53 -23 61 5q0 15 -3 64.5t-2 82t7 63.5q18 85 63 119q10 9 26 10.5
t25 -0.5t28 -8q5 -2 14 -1.5t6 8.5q-33 37 -72 35q-57 -7 -91 -82q-17 -36 -24 -81.5t-6.5 -78.5t3.5 -86q1 -3 1 -19.5t2 -17.5q-20 6 -54.5 21t-48.5 20q-38 12 -57 11q36 63 50 139q5 19 5 39q15 -7 16 9q-7 14 -20 33q-4 14 -9 28q-2 5 -7.5 18t-9 20.5t-9.5 17
t-13 16.5q-8 6 -14 6z" />
    </font>
</defs>
</svg>
