<?xml version="1.0" standalone="no"?>
<!DOCTYPE svg PUBLIC "-//W3C//DTD SVG 1.1//EN" "http://www.w3.org/Graphics/SVG/1.1/DTD/svg11.dtd" >
<svg xmlns="http://www.w3.org/2000/svg" xmlns:xlink="http://www.w3.org/1999/xlink" version="1.1">
<metadata>
Created by FontForge 20170805 at Sun Sep  3 10:01:16 2017
 By Manatsawin
Copyright (C) 2017, Worawut Thanawatanawanich. All rights reserved.
</metadata>
<defs>
<font id="SOV_jaruk" horiz-adv-x="510" >
  <font-face 
    font-family="SOV_jaruk"
    font-weight="400"
    font-stretch="normal"
    units-per-em="1000"
    panose-1="2 7 5 6 6 0 0 2 0 4"
    ascent="800"
    descent="-200"
    x-height="436"
    cap-height="436"
    bbox="-1038.32 -1201 1640 1578"
    underline-thickness="30"
    underline-position="-50"
    unicode-range="U+0020-F78F"
  />
<missing-glyph horiz-adv-x="275" 
d="M16 406v-390h242v390h-242zM274 0h-274v423h274v-423z" />
    <glyph glyph-name="nine_in_heart" unicode="&#xe2f;&#xe23;&#xe2f;" horiz-adv-x="530" 
d="M663 699q12 0 27 -2t15.5 -3t-10.5 -1q-30 1 -46 -2q-27 -3 -79 -25q-29 -12 -61 -36q-26 -19 -47 -46q-14 -18 -34 -58q-5 -11 -26 -76q-1 -5 -14 -55q-1 -4 -5.5 -28t-8.5 -37q-6 -16 -14 -29q-6 -11 -20 -24q-2 -3 -4 -4q-9 -7 -18 -7q-10 -1 -22 5l-17.5 10.5
t-20.5 10.5q-2 -5 -1 -13q2 -2 77 -84q39 -40 50 -47q6 -4 6 -12q0 -4 -5 -12t-9 -11q-7 -3 -14 1q-21 13 -50 50q-16 20 -25 29q-18 21 -35 36q-29 22 -58 33q-16 6 -31 -8q-18 -15 -28 -50q-6 -20 0 -32l2 -4q5 -6 12 -12q8 -6 19 -11t21 -1q10 5 12 20q1 2 0 3t-4 3
t-31 13q-9 4 -9 13q0 5 6 11.5t11 10.5q6 2 11 0q30 -12 34 -15q10 -5 15 -13q6 -10 4 -22q-4 -31 -27 -48q-23 -18 -47 -7q-19 8 -34 21q-10 7 -17 16v1q-2 3 -5 6q-20 31 -11 61q13 43 35 66q29 30 63 17q16 -6 32 -16q-1 12 2 23t10 18q11 10 25 4q9 -4 24.5 -12
t20.5 -10q8 -3 12 -3q2 0 4 2q6 7 11 14q12 23 17 37q1 6 5 22l6 24q11 41 16 55q15 42 32 74q18 35 41 62q23 28 52 48q29 21 66 35q55 20 83 21h9zM362 410q-5 -18 -8 -30q-6 -2 -14 -5q-13 -5 -69 -36l-6 -3l-11 12q-44 36 -89 23q-35 -11 -63 -48t-29 -74
q0 -38 12.5 -67t44.5 -64q13 -14 56 -56t64 -66q50 33 92 73t76.5 95t38.5 107q3 41 -11 66q-13 24 -49 42q-3 2 -8 3q3 15 6 25l8 -2q37 -15 60 -58q22 -41 19 -83q-3 -45 -25.5 -91t-57.5 -84t-70.5 -67.5t-73.5 -54.5l-10 -7q-7 21 -10 24q-14 18 -57 59t-63 62
q-78 87 -77 160q1 45 32 86t74 54q50 15 117 -38q48 27 66 34t35 9z" />
    <glyph glyph-name="uvSOV" unicode="&#xe2f;&#xe23;&#xe2d;&#xe07;&#xe2f;" horiz-adv-x="1320" 
d="M743 543q0 1 6 -3q8 -7 29 -3q20 5 30 -4q5 -6 8 -6t11 6q8 5 12.5 4.5t12.5 -8.5q6 -6 8 -7t6 0q5 0 5 -1q-3 -2 -9.5 -2t-14 8t-11.5 6.5t-9 -6.5t-10.5 -5.5t-12 5t-9.5 2.5q-5 -5 -19 -61q-7 -28 -2 -34q3 -4 9.5 -3t9.5 -1.5t1 -3.5q0 -1 -2 1q-3 2 -7 -1
q-8 -4 -16 5t-28 44q-26 44 -34 48q-4 1 -6.5 4.5t-7.5 5.5l2 1q7 -1 10.5 -3t17.5 -1l13 1l6 -7q5 -6 7 -5.5t2 -1t-2.5 -1.5t-5.5 2l-5 2q-4 4 -7 3q-3 -2 -1.5 -6t14.5 -25q14 -23 15 -21q1 3 6 28.5t5 27.5q-1 2 -9 3t-13 6.5t-5 6.5zM614 568q2 7 3 7q1 -1 1 -6
q0 -10 9 -3q5 3 12 2t10 -6q6 -9 -1 -34q-5 -16 -5 -21t5 -9q4 -5 14 -4t17 1h8v6q-1 7 -13 29q-6 11 -4.5 21.5t9.5 15.5q6 3 14.5 1t11.5 -7q1 -3 0 -11v-8l4 -2q8 -2 -2 -3q-3 -1 -7 -1q-8 0 -10 4q-6 9 2 12q3 2 2.5 3.5t-4.5 2t-6 -3.5q-6 -8 8 -25q14 -16 14 -30
q0 -9 -5.5 -15t-5.5 -11q0 -4 1 -5t6 -2l6 -2h-7q-9 0 -13 10l-3 5h-22q-19 1 -24.5 3t-10.5 10q-6 9 1 37q7 25 3 25q-2 0 -6 -2t-8 -1q-8 4 -4 17zM682 585q40 9 47 -4q3 -6 -2 -2q-9 6 -34 -1q-22 -6 -33 -2q-4 2 -8.5 5t-8.5 3l-2 2q2 3 17 -1q9 -2 24 0zM579 -63
q15 -3 39 -3q21 -1 40 1q1 -1 64 14q31 7 52 17q13 7 30.5 22t29.5 29q36 44 50.5 92.5t6.5 93.5q-17 98 -92 147q-59 39 -141 55q-16 3 -45 3t-40 -3l-11 -3l9 10q29 35 29 68q0 24 -12.5 44.5t-30.5 27.5q-11 4 -51 3q-21 0 -28 1q-38 11 -36 53q1 13 5 22q10 21 45 43
q21 14 28 21.5t7 18.5t-6.5 20t-26.5 26q-31 27 -31 46q0 12 15 28t17 38q2 23 -4 35l1 -7q3 -22 -3 -38t-27 -29q-19 -13 -21.5 -26.5t10.5 -35.5q15 -25 16 -39q1 -9 -3 -17q-5 -12 -22 -26q-37 -29 -48 -70q-4 -14 -4 -36t4 -34q10 -32 31 -44.5t64 -10.5l24 1l8 -6
q14 -11 14 -28q0 -22 -41 -61q-58 -54 -74 -95q-20 -50 3 -80q2 -3 5 -5q16 -18 17 -13q1 2 5 18q27 101 123 113q37 4 74 -1q72 -9 118 -56q53 -55 53 -119q0 -34 -8 -57t-27 -47q-11 -13 -31 -27.5t-38 -21.5q-30 -13 -52 -18q-18 -4 -55 -2t-59 7q-67 17 -66 88
q0 34 19 54q14 13 40 20q42 10 53 -24q6 -15 0 -20q-4 -2 -7 1q-11 10 -25.5 6.5t-20.5 -17.5q-4 -10 -3.5 -24.5t6.5 -24.5q9 -17 23 -24q20 -11 52 -9.5t59 13.5l9 4h-16q-43 1 -53 11q-4 4 -4 13q2 17 15 36q16 24 2 57q-8 20 -19.5 30.5t-31.5 15.5q-11 3 -36 3t-35 -3
q-30 -8 -54 -32t-31 -52q-6 -24 -4 -51q3 -28 16 -52.5t32 -37.5q17 -13 51 -25t60 -15zM22 221l7 -6q7 -6 22.5 -13.5t26 -10.5t59 -3t53.5 -2.5t7.5 -6.5t-1.5 -16q-8 -24 -1 -44q3 -10 2 -10q-8 -3 -11 -12q-1 -5 0 -14q2 -11 9 -17t29 -14q33 -12 23 -41
q-5 -14 -24.5 -26.5t-36.5 -12.5q-9 0 -34 5q-46 9 -73 2q-11 -3 -12 -4l2 -1q18 4 37 4q20 0 52 -8q27 -8 52 -3q18 4 33 15q11 9 17 24t3 31q-2 10 -4 15q-6 12 -23 18q-9 4 -13.5 7t-3.5 5q3 5 18 0q12 -4 46.5 -4t52.5 4q25 5 42 18q34 25 31 84q-1 24 -16 40
q-13 14 -55 29q-63 23 -83 37q-23 15 -27 27q-8 20 12 35q25 18 57 18q30 0 52 -9q11 -4 20 -13t12 -19q3 -11 1.5 -24t-6.5 -13q-2 0 -8.5 4t-16.5 4.5t-11.5 2t0.5 9.5t-1 13q-4 9 -17 15h-2q12 -10 13.5 -14.5t-6.5 -16.5q-11 -16 -3 -31q4 -8 12 -11q24 -10 45 9
q10 10 12.5 17.5t2.5 25.5q0 28 -7.5 40t-32.5 23l-18 9q-21 13 -7 37q5 9 4 9q-1 1 -2.5 -1t-3 -5t-3.5 -6t-3.5 -6.5t-1.5 -4.5q-3 -16 6 -27l4 -4h-4q-3 0 -16 3q-27 6 -55 -3t-46 -30q-19 -23 -17 -55q1 -24 17.5 -37t83.5 -42q42 -19 55.5 -28t19.5 -20q5 -11 3 -25.5
t-9 -22.5q-8 -8 -30.5 -17t-38.5 -10q-21 -2 -42 7t-27 22q-4 11 0 28l2 8l5 -3q8 -5 19 0q12 5 12 20q0 12 -8 23t-19 14q-26 6 -94 -5q-60 -10 -87 -2q-26 7 -33 13zM1286 321h-7q-14 -3 -27 4q-11 6 -21 21q-12 20 -31 27q-22 9 -85 1q-58 -7 -73 -2q-6 3 -15 10t-17 7
t-14 -2t-11 -1q-11 3 -21 23l-4 10l1 -9q2 -18 14 -29t25 -8q7 1 9 0.5t6 -7.5q6 -13 26 -14q12 -1 14 -5q4 -7 -2 -24.5t-39 -93.5q-41 -96 -42 -96l-38 91l-42 102q-1 1 -0.5 1.5t2 0.5t4 0.5t6.5 0.5q20 1 25 11t16 4q25 -15 2 -45q-15 -18 -15 -41q0 -17 11 -26
q14 -13 17 -11l-4 4q-22 14 -18 36q4 17 18 36q13 18 13 30q0 17 -17 35q-11 11 -36 14q-12 2 -17 0.5t-13 -9.5q-8 -9 -11 -8t-8 10q-7 13 -13 16t-17 -1t-13.5 -2.5t-8.5 12.5q-9 18 -26 18l-7 -1l8 -1q15 -3 19 -21q2 -10 5 -13t22 0q7 1 11 -2q8 -5 56 -137
q41 -114 57 -146q24 -50 44 -60q15 -8 14 -23l1 -7q2 2 2.5 12t-1.5 13t-13 8t-13 8q-7 7 0 29q4 14 50.5 123t57.5 129q11 22 40 36q23 12 41 10q28 -5 47 -31q21 -30 44 -21z" />
    <glyph glyph-name="sosala_aa" unicode="&#xe2f;&#xe28;&#xe32;&#xe2f;" horiz-adv-x="600" 
d="M676 515q-2 0 -8 -10t-14.5 -26.5t-12.5 -23.5q-30 -51 -80 -106q-8 6 -13 9q-56 34 -73 40q-5 2 -10 2q-3 0 -9 -2q-9 -3 -36 -17q-20 -11 -35 -22q-28 -21 -44 -37q-6 4 -17 16t-17 17q-35 28 -44 32q-21 10 -35 10q-9 0 -32 -10q-19 -8 -30.5 -14t-18 -10.5
t-22.5 -16.5q-18 -14 -23.5 -42t-1.5 -53q2 -13 5.5 -32.5t5.5 -29.5t3.5 -25t1 -29t-2.5 -31q-8 -59 -17 -94q-3 -9 1 -11q1 -3 5 -0.5t5.5 3.5t5 4.5t5.5 4.5q6 6 6 10q11 38 23.5 107.5t26.5 107.5q27 -1 49 12q19 11 30 34q14 29 -1 48q-9 11 -25 12q-8 0 -16 -2
q-22 -5 -33 -20q-25 -34 -40 -82v1q-16 64 2 82q22 21 78 37q8 2 31 -10q16 -8 37 -26q14 -14 25 -29q2 -2 7 -5t6.5 -8t0.5 -18q-4 -52 -12 -114.5t-14 -99.5l-6 -36q-2 -11 2 -12t7.5 1.5t8 10.5t4.5 9q6 9 8 16q17 99 32 222q4 35 2 49q22 21 35 30q20 14 32 20q7 4 11 5
t5 1q25 -9 79 -42l10 -6q-20 -19 -44 -42l-1 -1q-1 18 -15 29q-9 7 -22 6q-9 0 -20 -5q-15 -8 -28 -23q-11 -12 -15 -25q-4 -10 -3 -17q1 -12 9 -19q13 -12 34 -11q12 0 28 7q5 1 8 4q27 14 47 34q24 25 42 46h1q10 -11 10 -13l-42 -272q-2 -9 2 -11q8 -5 21 4q5 4 6 10
q33 158 49 276q0 3 1.5 10t2 11t0.5 9t-1.5 7t-5.5 2q-5 -1 -13 3q38 47 64 93q14 25 26.5 56t5.5 31zM214 307q19 0 12 -16q-4 -11 -13 -14q-12 -3 -16 4q-5 7 5 21q4 4 12 5zM435 275q10 0 15 -10q8 -15 -10 -15q-10 0 -15 10q-7 15 10 15z" />
    <glyph glyph-name="sosua_aa" unicode="&#xe2f;&#xe2a;&#xe32;&#xe2f;" horiz-adv-x="600" 
d="M676 515q-2 0 -8 -10t-14.5 -26.5t-12.5 -23.5q-30 -51 -80 -106q-8 6 -13 9q-56 34 -73 40q-5 2 -10 2q-3 0 -9 -2q-9 -3 -36 -17q-20 -11 -35 -22q-14 -11 -24 -19q-2 0 -4.5 0.5l-5 1t-5.5 1.5q-45 33 -61 39q-29 13 -77 19q-14 1 -23 1q-4 1 -7 0q-15 -1 -25 -7
q-50 -29 -88.5 -69.5t-84.5 -103.5q-5 -6 -9.5 -18.5t-0.5 -16.5q4 0 5 -0.5t4.5 2.5t4.5 4t4.5 5t3.5 5q88 120 174 160q10 5 36 2q33 -4 63 -18q10 -4 25.5 -15.5t22.5 -15.5q3 -1 9.5 -4l6.5 -3q-2 -2 -2 -3q-6 -7 -6 -10q-2 -9 3 -11q2 -2 5 -2q-7 -54 -16 -110l-15 -93
q-3 9 -11 33.5t-12 37.5t-12 36t-13.5 36.5t-14 32t-16 29.5t-16 21.5t-17.5 15t-18 3.5q-20 0 -34 -26t-20 -50q-26 -108 -21 -173q3 -44 16 -62q15 -19 36 -14q23 6 41 26t21 45q3 35 -18 52q-19 15 -47 5q-6 -2 -12 -6q-5 25 8 94.5t27 68.5q7 0 15.5 -11t18 -31
t18.5 -41.5t19.5 -52t18 -52t17 -51.5t13.5 -42v-2q0 -4 2 -7q2 -5 8 -7t12 1q1 0 2 1q3 2 4 5q11 13 12 17q20 137 40 298q1 3 1 7q16 14 26 21q20 14 32 20q7 4 11 5t5 1q25 -9 79 -42l10 -6q-20 -20 -44 -42l-1 -1q-1 18 -15 29q-9 7 -22 6q-9 0 -20 -5q-15 -8 -28 -23
q-11 -12 -15 -26q-4 -9 -3 -16q1 -12 9 -19q13 -12 34 -11q12 0 28 7q5 0 8 4q27 14 47 34q24 25 42 46h1q10 -12 10 -13l-42 -272q-2 -9 2 -11q8 -5 21 4q5 4 6 10q33 158 49 276q0 3 1.5 10t2 11t0.5 9t-1.5 7t-5.5 1q-5 0 -13 4q38 47 64 93q14 25 26.5 56t5.5 31z
M435 275q10 0 15 -10q7 -15 -10 -15q-10 0 -15 10q-8 15 10 15zM150 95q5 0 10 -5q9 -10 10.5 -22.5t-6.5 -21.5q-3 -4 -9.5 -4.5t-9.5 3.5q-4 6 -7.5 20t2.5 25q5 5 10 5z" />
    <glyph glyph-name="phophan_rorua" unicode="&#xe2f;&#xe1e;&#xe23;&#xe2f;" horiz-adv-x="480" 
d="M365 410q-4 0 -10 -14q-1 -5 -2 -9q-7 -17 -7 -26l-38 -140q-18 72 -30 107q-13 38 -23 57q-9 17 -13 20q-2 1 -4 1q-4 0 -10 -14q-44 -96 -64 -145q-11 -27 -29 -74q3 69 8 107q21 14 29 34q15 37 4 58q-10 20 -40 22q-25 1 -42 -12q-18 -14 -24 -40q-6 -30 10 -47
q10 -10 25 -12q-8 -42 -12 -126t-15 -125q0 -1 -1.5 -7.5t-2 -9.5t0.5 -6q4 -6 10 -6q2 -1 15 13h1q2 1 14 19l14 21q34 100 53 149l49 117q15 -61 23 -91q1 -2 9 -27t9 -38q6 -62 -14 -160q0 -3 2.5 -7.5t5.5 -4.5q6 0 19 9q5 3 6 8q26 87 69 274q9 -33 14 -54q1 -2 9 -27
t9 -38q6 -62 -14 -160q0 -3 2.5 -7.5t5.5 -4.5q6 0 19 9q5 3 6 8q30 102 85 342q2 16 -0.5 33.5t-9.5 18.5q-7 -3 -13.5 -20t-6.5 -24l-38 -140q-22 71 -30 107q-2 5 -5 18.5t-4.5 20t-4.5 16.5t-7 16t-8 10q-2 1 -4 1zM122 357q8 0 15.5 -7t7.5 -14q0 -4 -5 -7t-10 -3
q-14 0 -18 12q-2 4 0 10.5t6 7.5q1 1 3 1h1z" />
    <glyph glyph-name="phophan_yo" unicode="&#xe2f;&#xe1e;&#xe0d;&#xe2f;" horiz-adv-x="700" 
d="M238 406q-4 0 -10 -14q-44 -96 -64 -145q-11 -27 -29 -74q3 69 8 107q21 14 29 34q15 37 4 58q-10 20 -40 22q-25 1 -42 -12q-18 -14 -24 -40q-6 -30 10 -47q10 -10 25 -12q-8 -42 -12 -126t-15 -125q0 -1 -1.5 -7.5t-2 -9.5t0.5 -6q4 -6 10 -6q2 -1 15 13h1q2 1 14 19
l14 21q34 100 53 149l49 117q15 -61 23 -91q1 -2 9 -27t9 -38q6 -62 -14 -160q0 -3 2.5 -7.5t5.5 -4.5q6 0 19 9q5 3 6 8q24 82 78 317q19 -47 29.5 -106.5t12.5 -98.5t4 -115q0 -4 3.5 -7.5t5.5 -3.5q3 0 7 6q1 2 3 4v1h1q8 13 19 44q54 150 61 253q0 20 -15 31
q25 22 41 22q7 0 15 -3t13 -6.5t14 -9.5l12 -8q10 -7 28 -24t30 -24q-4 -39 -10 -122.5t-10 -122.5v-4q-3 -40 -10 -127.5t-11 -131.5q-12 -13 -22 -24q-72 -76 -136 -133q-49 -44 -102 -85q-13 -10 -37 -29q-3 1 -6 1q-25 13 -51 10q-39 -5 -85 -47q-21 -18 -29 -35
q-11 -21 -8 -27q6 -11 30 -11q8 0 16 1.5t17.5 5t14.5 6t16.5 8t14.5 7.5q13 6 45 27q5 -4 28.5 -24t35.5 -29q6 -5 24 -18.5t26.5 -20t23.5 -15.5t29 -14q32 -13 53 -10q19 3 32.5 10.5t18.5 13.5t17 22q17 22 20 42q2 9 5 26q4 25 10 65q8 66 21 189q4 39 11 106
q52 61 109 132q24 31 22.5 32t-26.5 -29q-54 -62 -103 -116q17 167 24 230q3 12 5.5 33.5t2.5 22.5q4 41 10.5 104t10.5 104q1 10 -7 14q-15 7 -38 26.5t-34 25.5q-3 2 -12 7l-13.5 7.5t-11.5 6t-13.5 5.5t-12.5 2q-9 -1 -16.5 -3.5t-16 -6.5t-13 -6t-14.5 -8t-13 -8
q-29 -17 -45 -33q-2 -2 4.5 -7.5t16 -15t13.5 -18.5q-5 -84 -30 -167q-16 168 -63 261q-12 15 -16 16q-5 3 -7.5 -1.5t-3.5 -11.5l-1 -2q-8 -31 -17 -67l-28 -101q-18 72 -30 107q-13 38 -23 57q-9 17 -13 20q-2 1 -4 1zM122 357q8 0 15.5 -7t7.5 -14q0 -4 -5 -7t-10 -3
q-14 0 -18 12q-2 4 0 10.5t6 7.5q1 1 3 1h1zM611 -247q-4 -34 -7 -63q-2 -23 -8.5 -93t-10.5 -99q-8 -64 -10 -70q-3 -17 -5 -28q-9 -28 -30 -38q-12 -6 -20.5 -8t-21 0t-24.5 12q-3 2 -20 16t-38.5 31.5t-34.5 28.5q-8 7 -23 22l-21 21q19 15 32 27q52 44 100 90
q62 61 132 139q1 2 10 12zM230 -530q17 0 17 -5q-1 -6 -22 -10q-31 -6 -31 -3q0 1 1 3q10 15 35 15z" />
    <glyph glyph-name="hohip_yo" unicode="&#xe2f;&#xe2b;&#xe0d;&#xe2f;" horiz-adv-x="640" 
d="M153 403q-18 0 -31 -9q-19 -14 -24 -41q-5 -29 11 -47q8 -8 20 -10q-4 -39 -15 -123t-13 -104q-1 -3 -1 -7q-3 -25 -5 -47q-1 -8 1 -11q6 -6 10 -5q10 2 17 13.5t8 21.5q2 16 5 35q22 36 45 67.5t35.5 47t40.5 46t38 42.5q1 0 9 -1t9 -2q-12 -72 -18 -109l-21 -144
q-1 -7 3 -12q5 -6 10 -5q2 0 3 1q53 10 101 65t68.5 122t0.5 108q-5 10 -16 22.5t-14 17.5q20 20 40 20q25 0 67 -25.5t56 -46.5q-4 -39 -10 -122.5t-10 -122.5v-4q-3 -40 -10 -127.5t-11 -131.5q-12 -13 -22 -24q-72 -76 -136 -133q-49 -44 -102 -85q-13 -11 -37 -29
q-3 1 -6 1q-25 13 -51 10q-39 -5 -85 -47q-21 -19 -29 -35q-11 -21 -8 -27q6 -11 30 -11q8 0 16 1.5t17.5 5t14.5 6t16.5 8t14.5 7.5q13 6 45 27q5 -4 28.5 -24t35.5 -30q6 -4 24 -17.5t26.5 -20t23.5 -15.5t29 -14q32 -13 53 -10q19 3 32.5 10.5t18.5 13.5t17 22
q17 22 20 42q2 9 5 26q4 24 10 65q8 66 21 189q4 39 11 106q52 61 109 132q24 30 22.5 31.5t-26.5 -28.5q-54 -62 -103 -116q17 167 24 230q3 12 5.5 33.5t2.5 22.5q4 41 10.5 104t10.5 103q1 11 -7 15q-18 23 -75.5 55t-72.5 25q-31 -16 -66 -39t-39 -31q0 -2 7 -9.5
t17 -19t16 -21.5q17 -35 2 -82.5t-45 -91.5t-57 -61v1q11 96 19 143l23 107q1 9 -7 14q-2 1 -11 5t-10 5q17 21 17.5 32t-11.5 20q-13 13 -22.5 17.5t-27.5 9.5q-3 1 -6 1q-13 0 -32 -19q-14 -14 -21 -32q-9 -23 -1 -41q2 -5 6.5 -8.5t12.5 -7t9 -4.5q2 -1 10 -4
q-10 -12 -29.5 -33t-31.5 -34.5t-29 -35t-33 -43.5q14 104 21 152q17 5 29 28q18 36 7 60q-9 20 -38 24q-5 1 -11 1zM143 366q4 0 10 -2q12 -6 13 -10q1 -5 -3 -11.5t-9 -3.5q-18 9 -20 11q-3 3 1 9.5t8 6.5zM285 359q17 1 24 -10q8 -14 -4 -20q-31 5 -38 17q0 9 9 12
q4 1 9 1zM551 -247q-4 -34 -7 -63q-2 -23 -8.5 -93t-10.5 -99q-8 -64 -10 -70q-3 -17 -5 -28q-9 -28 -30 -38q-12 -6 -20.5 -8t-21 0t-24.5 12q-3 2 -20 16t-38.5 31t-34.5 29q-8 7 -23 22l-21 21q20 16 32 27q52 43 100 90q62 61 132 139q1 2 10 12zM170 -530q17 0 17 -5
q-1 -6 -22 -10q-31 -6 -31 -3q0 1 1 3q10 15 35 15z" />
    <glyph glyph-name="saraaa_yo1" unicode="&#xe2f;&#xe2d;&#xe32;&#xe2f;" horiz-adv-x="240" 
d="M107 400h-2q-3 0 -9 -2q-9 -3 -36 -17q-20 -11 -35 -22q-39 -30 -58 -53q-6 -7 -6 -10q-2 -9 3 -11q5 -4 11 2q35 36 57 51q20 14 32 20q7 4 11 5t5 1q65 -28 110 -65l2 -2q-3 -38 -9 -129t-10 -130v-4q-3 -40 -10 -127.5t-11 -131.5q-12 -13 -22 -24q-72 -76 -136 -133
q-49 -44 -102 -85q-13 -11 -37 -29q-3 1 -6 1q-25 13 -51 10q-39 -5 -85 -47q-21 -19 -29 -35q-11 -21 -8 -27q6 -11 30 -11q8 0 16 1.5t17.5 5t14.5 6t16.5 8t14.5 7.5q13 6 45 27q5 -4 28.5 -24t35.5 -30q6 -4 24 -17.5t26.5 -20t23.5 -15.5t29 -14q32 -13 53 -10
q19 3 32.5 10.5t18.5 13.5t17 22q17 22 20 42q2 9 5 26q4 24 10 65q8 66 21 189q4 39 11 106q52 61 109 132q24 30 22.5 31.5t-26.5 -28.5q-54 -62 -103 -116q17 167 24 230q3 12 5.5 33.5t2.5 22.5q4 41 10.5 110.5t10.5 110.5q2 3 0.5 5t-3 1.5t-9 3.5t-17.5 12
q-56 42 -96 57q-4 2 -8 2zM151 -247q-4 -34 -7 -63q-2 -23 -8.5 -93t-10.5 -99q-8 -64 -10 -70q-3 -17 -5 -28q-9 -28 -30 -38q-12 -6 -20.5 -8t-21 0t-24.5 12q-3 2 -20 16t-38.5 31t-34.5 29q-8 7 -23 22l-21 21q20 16 32 27q52 43 100 90q62 61 132 139q1 2 10 12z
M-230 -530q17 0 17 -5q-1 -6 -22 -10q-31 -6 -31 -3q0 1 1 3q10 15 35 15z" />
    <glyph glyph-name="yoying_aa1" unicode="&#xe2f;&#xe0d;&#xe32;&#xe2f;" horiz-adv-x="750" 
d="M607 400h-2q-3 0 -9 -2q-9 -3 -36 -17q-20 -11 -35 -22q-39 -30 -58 -53q-6 -7 -6 -10q-2 -9 3 -11q5 -4 11 2q35 36 57 51q20 14 32 20q7 4 11 5t5 1q65 -28 110 -65l2 -2q-3 -38 -9 -129t-10 -130v-4q-3 -40 -10 -127.5t-11 -131.5q-12 -13 -22 -24q-72 -76 -136 -133
q-49 -44 -102 -85q-13 -11 -37 -29q-3 1 -6 1q-25 13 -51 10q-39 -5 -85 -47q-21 -19 -29 -35q-11 -21 -8 -27q6 -11 30 -11q8 0 16 1.5t17.5 5t14.5 6t16.5 8t14.5 7.5q13 6 45 27q5 -4 28.5 -24t35.5 -30q6 -4 24 -17.5t26.5 -20t23.5 -15.5t29 -14q32 -13 53 -10
q19 3 32.5 10.5t18.5 13.5t17 22q17 22 20 42q2 9 5 26q4 24 10 65q8 66 21 189q4 39 11 106q52 61 109 132q24 30 22.5 31.5t-26.5 -28.5q-54 -62 -103 -116q17 167 24 230q3 12 5.5 33.5t2.5 22.5q4 41 10.5 110.5t10.5 110.5q2 3 0.5 5t-3 1.5t-9 3.5t-17.5 12
q-56 42 -96 57q-4 2 -8 2zM651 -247q-4 -34 -7 -63q-2 -23 -8.5 -93t-10.5 -99q-8 -64 -10 -70q-3 -17 -5 -28q-9 -28 -30 -38q-12 -6 -20.5 -8t-21 0t-24.5 12q-3 2 -20 16t-38.5 31t-34.5 29q-8 7 -23 22l-21 21q20 16 32 27q52 43 100 90q62 61 132 139q1 2 10 12z
M270 -530q17 0 17 -5q-1 -6 -22 -10q-31 -6 -31 -3q0 1 1 3q10 15 35 15zM234 407q-5 0 -9 -2q-37 -15 -62 -35.5t-45 -52.5q30 -3 56 -25q-5 -18 -11 -68q-11 -89 -12 -98q-1 -1 -1.5 -2l-0.5 -1q-15 -7 -22 -21q-5 -10 2 -18l-4 -14q-7 -34 8 -54q12 -16 35 -14
q20 1 32 14q19 18 22 49q3 34 -17 51q-10 9 -24 11q2 8 12 93q8 61 17 80q3 7 -12.5 21t-24.5 16q31 25 58 27q16 -4 36.5 -15.5t44 -27t33.5 -21.5l-7.5 -60l-7.5 -60q-3 -21 -7 -76.5t-10 -75.5q-13 -16 -11 -25q1 -5 9 -7q6 -2 11 1t12 6q3 1 11 8t14 9q26 9 71 5
q10 -1 21 -3.5t15.5 -3t9 0.5t6.5 6.5t4 15.5l14 163l7 87q8 46 -6 43q-11 -2 -20 -22q-2 -5 -2 -8l-6 -77l-13 -153q-3 0 -14.5 2t-16.5 2q-37 -1 -74 -14q-2 -1 -5 -3q2 18 5 59t5 58q3 24 12 67.5t13 68.5q3 19 -5 21q-1 0 -8.5 1t-10.5 4q-96 67 -127 67zM169 86
q7 0 13.5 -7t7.5 -14t-7 -10q-16 -6 -23 5q-4 5 -2.5 14t7.5 11q2 1 4 1z" />
    <glyph glyph-name="yoying_aa2" unicode="&#xe2f;&#xe0d;&#xe0d;&#xe32;&#xe2f;" horiz-adv-x="750" 
d="M607 400h-2q-3 0 -9 -2q-9 -3 -36 -17q-20 -11 -35 -22q-39 -30 -58 -53q-6 -7 -6 -10q-2 -9 3 -11q5 -4 11 2q35 36 57 51q20 14 32 20q7 4 11 5t5 1q65 -28 110 -65q1 -1 3 -2q-5 -58 -21 -277.5t-28 -329.5q-1 -10 -2.5 -25.5t-1.5 -19.5q-11 -65 -36 -108t-79 -71
q-50 -26 -115 -6q-36 11 -67 35t-48 55q-18 34 -5 70q12 33 50 40q9 1 25 -6t18 -15l-3 -3q-9 -9 -4 -21.5t15 -14.5q20 -4 35.5 12.5t12.5 45.5q-2 18 -19 32q-29 25 -62 21q-31 -3 -60.5 -30t-39.5 -55q-10 -26 -9 -58.5t11 -57.5q32 -80 118 -102q86 -23 152 12
q50 26 77.5 55t41.5 71q14 33 25 141q5 43 18 168t19 187q3 12 5.5 33.5t2.5 22.5q4 41 10.5 110.5t10.5 110.5q2 3 0.5 5t-3 1.5t-9 3.5t-17.5 12q-56 42 -96 57q-4 2 -8 2zM234 407q-5 0 -9 -2q-37 -15 -62 -35.5t-45 -52.5q30 -3 56 -25q-5 -18 -11 -68q-11 -89 -12 -98
q-1 -1 -1.5 -2l-0.5 -1q-15 -7 -22 -21q-5 -10 2 -18l-4 -14q-7 -34 8 -54q12 -16 35 -14q20 1 32 14q19 18 22 49q3 34 -17 51q-10 9 -24 11q2 8 12 93q8 61 17 80q3 7 -12.5 21t-24.5 16q31 25 58 27q16 -4 36.5 -15.5t44 -27t33.5 -21.5l-7.5 -60l-7.5 -60
q-3 -21 -7 -76.5t-10 -75.5q-13 -16 -11 -25q1 -5 9 -7q6 -2 11 1t12 6q3 1 11 8t14 9q26 9 71 5q10 -1 21 -3.5t15.5 -3t9 0.5t6.5 6.5t4 15.5l14 163l7 87q8 46 -6 43q-11 -2 -20 -22q-2 -5 -2 -8l-6 -77l-13 -153q-3 0 -14.5 2t-16.5 2q-37 -1 -74 -14q-2 -1 -5 -3
q2 18 5 59t5 58q3 24 12 67.5t13 68.5q3 19 -5 21q-1 0 -8.5 1t-10.5 4q-96 67 -127 67zM169 86q7 0 13.5 -7t7.5 -14t-7 -10q-16 -6 -23 5q-4 5 -2.5 14t7.5 11q2 1 4 1z" />
    <glyph glyph-name="wan_thai" unicode="&#xe2f;&#xe27;&#xe2f;" horiz-adv-x="760" 
d="M425 416q-2 0 -4 -1t-4 -6q-16 -42 -37 -106q-93 -2 -118 -3h-22t-37.5 -1t-36.5 -2q-67 -5 -66 -11q0 -2 4 -4q9 -5 56 -10q19 -2 54 -2h155q-12 -36 -18 -55q-15 -43 -12 -63q2 -9 19 15q4 5 6.5 10.5t5 13.5t4.5 11q10 26 26 68l263 1q6 1 10 6q8 14 7 21q-1 5 -4.5 8
t-8.5 3q-138 -3 -255 -5q20 52 36 89q2 4 -1 9q-7 9 -19 13q-2 1 -3 1z" />
    <glyph glyph-name="bahtthai_tamlueng" unicode="&#xe2f;&#xe15;&#xe2f;" horiz-adv-x="1160" 
d="M965 376q-2 0 -4 -1t-4 -6q-15 -41 -36 -102q-458 -5 -542 -7h-37t-65 -1t-63 -2q-115 -5 -114 -11q0 -2 6 -4q17 -5 98 -10q32 -2 93 -2q130 0 613 1q-12 -36 -19 -56q-15 -43 -12 -63q2 -9 19 15q4 5 6.5 10.5t5 13.5t4.5 11q10 26 26 69h131q11 1 17 6q4 4 8.5 11
t3.5 10q-2 5 -8.5 8t-13.5 3q-53 -1 -124 -2q18 49 34 86q2 4 -1 9q-7 9 -19 13q-2 1 -3 1z" />
    <glyph glyph-name="bahtthai_baht" unicode="&#xe2f;&#xe1a;&#xe2f;" horiz-adv-x="1160" 
d="M365 376q-2 0 -4 -1t-4 -6q-16 -42 -38 -109q-62 -1 -105 -3q-115 -5 -114 -11q0 -2 6 -4q17 -5 98 -10q32 -2 93 -2h12q-11 -35 -18 -55q-15 -43 -12 -63q2 -9 19 15q4 5 6.5 10.5t5 13.5t4.5 11q11 26 26 68q204 0 731 1q11 1 17 6q4 4 8.5 11t3.5 10q-2 5 -8.5 8
t-13.5 3q-592 -7 -699 -9h-28q20 55 37 93q2 4 -1 9q-7 9 -19 13q-2 1 -3 1z" />
    <glyph glyph-name="bahtthai_salueng" unicode="&#xe2f;&#xe2a;&#xe2f;" horiz-adv-x="1160" 
d="M365 476q-2 0 -4 -1t-4 -6q-16 -42 -38 -109q-62 -1 -105 -3q-115 -5 -114 -11q0 -2 6 -4q17 -5 98 -10q32 -2 93 -2h12q-11 -35 -18 -55q-15 -43 -12 -63q2 -9 19 15q4 5 6.5 10.5t5 13.5t4.5 11q11 26 26 68q204 0 731 1q11 1 17 6q4 4 8.5 11t3.5 10q-2 5 -8.5 8
t-13.5 3q-592 -7 -699 -9h-28q20 55 37 93q2 4 -1 9q-7 9 -19 13q-2 1 -3 1z" />
    <glyph glyph-name="bahtthai_faung" unicode="&#xe2f;&#xe1f;&#xe2f;" horiz-adv-x="1160" 
d="M965 476q-2 0 -4 -1t-4 -6q-15 -41 -36 -102q-458 -5 -542 -7h-37t-65 -1t-63 -2q-115 -5 -114 -11q0 -2 6 -4q17 -5 98 -10q32 -2 93 -2q130 0 613 1q-12 -36 -19 -56q-15 -43 -12 -63q2 -9 19 15q4 5 6.5 10.5t5 13.5t4.5 11q10 26 26 69h131q11 1 17 6q4 4 8.5 11
t3.5 10q-2 5 -8.5 8t-13.5 3q-53 -1 -124 -2q18 49 34 86q2 4 -1 9q-7 9 -19 13q-2 1 -3 1z" />
    <glyph glyph-name=".notdef" horiz-adv-x="275" 
d="M16 406v-390h242v390h-242zM274 0h-274v423h274v-423z" />
    <glyph glyph-name=".null" horiz-adv-x="360" 
 />
    <glyph glyph-name="nonmarkingreturn" horiz-adv-x="360" 
 />
    <glyph glyph-name="space" unicode=" " horiz-adv-x="360" 
 />
    <glyph glyph-name="exclam" unicode="!" 
d="M389 410l-14 -25q-1 1 -8 4.5t-11 6.5l10 25q2 -2 23 -11zM458 354l-26 -21q-2 2 -4 5.5t-3.5 5.5t-2.5 3l22 23q8 -6 14 -16zM495 295l-37 -14q0 2 -3 12l33 16q2 -7 7 -14zM285 436l-1 -26q-2 0 -11 -0.5t-13 -0.5l-3 26q5 0 14 0.5t13 0.5h1zM510 238l-40 -5v6
q-1 1 -1 6l38 6q3 -9 3 -13zM510 196q0 -4 -3 -14l-38 6q0 4 1 5v6zM193 384q-1 0 -4 -2t-6.5 -4.5t-6.5 -5.5l-16 26q2 0 8.5 4.5t11.5 7.5zM498 140q0 -1 -2.5 -7t-2.5 -7l-35 14q0 1 2 6t2 7zM136 333q0 -1 -3 -5l-6 -8l-26 19q3 6 11 15zM468 81q-2 -1 -5.5 -6t-6.5 -9
l-27 22q0 1 10 14zM108 281q-2 -9 -3 -13l-34 11q1 1 1.5 4t1.5 5.5t3 5.5zM408 24q-9 -4 -22 -12l-13 26q1 1 18 12zM98 233v-12l-38 3q0 4 2 14zM101 175l-36 -6q0 1 -1 5.5t-2 8.5l36 4q0 -4 3 -12zM312 -8q-18 -2 -27 -2h-1v25q10 0 24 1zM115 127l-31 -15l-6 14l32 14
q5 -8 5 -13zM149 74l-21 -21q-1 1 -4 5t-6 6.5t-4 4.5l24 19q9 -8 11 -14zM215 28l-10 -24l-23 10l13 24q3 -1 5.5 -2t7 -3.5t7.5 -4.5z" />
    <glyph glyph-name="quotedbl" unicode="&#x22;" horiz-adv-x="0" 
d="M-74 765q-5 0 -10 -1q-6 0 -9 -4q-3 -2 -5 -17q-3 -42 -10.5 -119t-11.5 -119q-2 -12 3 -19q3 -5 10 -6q4 -1 9 3q3 2 6 18q4 24 11.5 76t14 90.5t14.5 75.5q2 11 -4 16q-6 6 -18 6zM-148 764h-5q-6 -1 -9 -5q-3 -2 -4 -17q3 -48 -1.5 -135t-4.5 -104q0 -3 1 -12t3 -11
q4 -4 10 -5q5 0 9 3q3 3 5 22q1 15 12 107t12 138q0 7 -5 12q-8 7 -23 7z" />
    <glyph glyph-name="numbersign" unicode="#" 
d="M389 410l-14 -25q-1 1 -8 4.5t-11 6.5l10 25q2 -2 23 -11zM458 354l-26 -21q-2 2 -4 5.5t-3.5 5.5t-2.5 3l22 23q8 -6 14 -16zM495 295l-37 -14q0 2 -3 12l33 16q2 -7 7 -14zM285 436l-1 -26q-2 0 -11 -0.5t-13 -0.5l-3 26q5 0 14 0.5t13 0.5h1zM510 238l-40 -5v6
q-1 1 -1 6l38 6q3 -9 3 -13zM510 196q0 -4 -3 -14l-38 6q0 4 1 5v6zM193 384q-1 0 -4 -2t-6.5 -4.5t-6.5 -5.5l-16 26q2 0 8.5 4.5t11.5 7.5zM498 140q0 -1 -2.5 -7t-2.5 -7l-35 14q0 1 2 6t2 7zM136 333q0 -1 -3 -5l-6 -8l-26 19q3 6 11 15zM468 81q-2 -1 -5.5 -6t-6.5 -9
l-27 22q0 1 10 14zM108 281q-2 -9 -3 -13l-34 11q1 1 1.5 4t1.5 5.5t3 5.5zM408 24q-9 -4 -22 -12l-13 26q1 1 18 12zM98 233v-12l-38 3q0 4 2 14zM101 175l-36 -6q0 1 -1 5.5t-2 8.5l36 4q0 -4 3 -12zM312 -8q-18 -2 -27 -2h-1v25q10 0 24 1zM115 127l-31 -15l-6 14l32 14
q5 -8 5 -13zM149 74l-21 -21q-1 1 -4 5t-6 6.5t-4 4.5l24 19q9 -8 11 -14zM215 28l-10 -24l-23 10l13 24q3 -1 5.5 -2t7 -3.5t7.5 -4.5z" />
    <glyph glyph-name="dollar" unicode="$" 
d="M389 410l-14 -25q-1 1 -8 4.5t-11 6.5l10 25q2 -2 23 -11zM458 354l-26 -21q-2 2 -4 5.5t-3.5 5.5t-2.5 3l22 23q8 -6 14 -16zM495 295l-37 -14q0 2 -3 12l33 16q2 -7 7 -14zM285 436l-1 -26q-2 0 -11 -0.5t-13 -0.5l-3 26q5 0 14 0.5t13 0.5h1zM510 238l-40 -5v6
q-1 1 -1 6l38 6q3 -9 3 -13zM510 196q0 -4 -3 -14l-38 6q0 4 1 5v6zM193 384q-1 0 -4 -2t-6.5 -4.5t-6.5 -5.5l-16 26q2 0 8.5 4.5t11.5 7.5zM498 140q0 -1 -2.5 -7t-2.5 -7l-35 14q0 1 2 6t2 7zM136 333q0 -1 -3 -5l-6 -8l-26 19q3 6 11 15zM468 81q-2 -1 -5.5 -6t-6.5 -9
l-27 22q0 1 10 14zM108 281q-2 -9 -3 -13l-34 11q1 1 1.5 4t1.5 5.5t3 5.5zM408 24q-9 -4 -22 -12l-13 26q1 1 18 12zM98 233v-12l-38 3q0 4 2 14zM101 175l-36 -6q0 1 -1 5.5t-2 8.5l36 4q0 -4 3 -12zM312 -8q-18 -2 -27 -2h-1v25q10 0 24 1zM115 127l-31 -15l-6 14l32 14
q5 -8 5 -13zM149 74l-21 -21q-1 1 -4 5t-6 6.5t-4 4.5l24 19q9 -8 11 -14zM215 28l-10 -24l-23 10l13 24q3 -1 5.5 -2t7 -3.5t7.5 -4.5z" />
    <glyph glyph-name="percent" unicode="%" 
d="M389 410l-14 -25q-1 1 -8 4.5t-11 6.5l10 25q2 -2 23 -11zM458 354l-26 -21q-2 2 -4 5.5t-3.5 5.5t-2.5 3l22 23q8 -6 14 -16zM495 295l-37 -14q0 2 -3 12l33 16q2 -7 7 -14zM285 436l-1 -26q-2 0 -11 -0.5t-13 -0.5l-3 26q5 0 14 0.5t13 0.5h1zM510 238l-40 -5v6
q-1 1 -1 6l38 6q3 -9 3 -13zM510 196q0 -4 -3 -14l-38 6q0 4 1 5v6zM193 384q-1 0 -4 -2t-6.5 -4.5t-6.5 -5.5l-16 26q2 0 8.5 4.5t11.5 7.5zM498 140q0 -1 -2.5 -7t-2.5 -7l-35 14q0 1 2 6t2 7zM136 333q0 -1 -3 -5l-6 -8l-26 19q3 6 11 15zM468 81q-2 -1 -5.5 -6t-6.5 -9
l-27 22q0 1 10 14zM108 281q-2 -9 -3 -13l-34 11q1 1 1.5 4t1.5 5.5t3 5.5zM408 24q-9 -4 -22 -12l-13 26q1 1 18 12zM98 233v-12l-38 3q0 4 2 14zM101 175l-36 -6q0 1 -1 5.5t-2 8.5l36 4q0 -4 3 -12zM312 -8q-18 -2 -27 -2h-1v25q10 0 24 1zM115 127l-31 -15l-6 14l32 14
q5 -8 5 -13zM149 74l-21 -21q-1 1 -4 5t-6 6.5t-4 4.5l24 19q9 -8 11 -14zM215 28l-10 -24l-23 10l13 24q3 -1 5.5 -2t7 -3.5t7.5 -4.5z" />
    <glyph glyph-name="ampersand" unicode="&#x26;" 
d="M389 410l-14 -25q-1 1 -8 4.5t-11 6.5l10 25q2 -2 23 -11zM458 354l-26 -21q-2 2 -4 5.5t-3.5 5.5t-2.5 3l22 23q8 -6 14 -16zM495 295l-37 -14q0 2 -3 12l33 16q2 -7 7 -14zM285 436l-1 -26q-2 0 -11 -0.5t-13 -0.5l-3 26q5 0 14 0.5t13 0.5h1zM510 238l-40 -5v6
q-1 1 -1 6l38 6q3 -9 3 -13zM510 196q0 -4 -3 -14l-38 6q0 4 1 5v6zM193 384q-1 0 -4 -2t-6.5 -4.5t-6.5 -5.5l-16 26q2 0 8.5 4.5t11.5 7.5zM498 140q0 -1 -2.5 -7t-2.5 -7l-35 14q0 1 2 6t2 7zM136 333q0 -1 -3 -5l-6 -8l-26 19q3 6 11 15zM468 81q-2 -1 -5.5 -6t-6.5 -9
l-27 22q0 1 10 14zM108 281q-2 -9 -3 -13l-34 11q1 1 1.5 4t1.5 5.5t3 5.5zM408 24q-9 -4 -22 -12l-13 26q1 1 18 12zM98 233v-12l-38 3q0 4 2 14zM101 175l-36 -6q0 1 -1 5.5t-2 8.5l36 4q0 -4 3 -12zM312 -8q-18 -2 -27 -2h-1v25q10 0 24 1zM115 127l-31 -15l-6 14l32 14
q5 -8 5 -13zM149 74l-21 -21q-1 1 -4 5t-6 6.5t-4 4.5l24 19q9 -8 11 -14zM215 28l-10 -24l-23 10l13 24q3 -1 5.5 -2t7 -3.5t7.5 -4.5z" />
    <glyph glyph-name="quotesingle" unicode="'" 
d="M389 410l-14 -25q-1 1 -8 4.5t-11 6.5l10 25q2 -2 23 -11zM458 354l-26 -21q-2 2 -4 5.5t-3.5 5.5t-2.5 3l22 23q8 -6 14 -16zM495 295l-37 -14q0 2 -3 12l33 16q2 -7 7 -14zM285 436l-1 -26q-2 0 -11 -0.5t-13 -0.5l-3 26q5 0 14 0.5t13 0.5h1zM510 238l-40 -5v6
q-1 1 -1 6l38 6q3 -9 3 -13zM510 196q0 -4 -3 -14l-38 6q0 4 1 5v6zM193 384q-1 0 -4 -2t-6.5 -4.5t-6.5 -5.5l-16 26q2 0 8.5 4.5t11.5 7.5zM498 140q0 -1 -2.5 -7t-2.5 -7l-35 14q0 1 2 6t2 7zM136 333q0 -1 -3 -5l-6 -8l-26 19q3 6 11 15zM468 81q-2 -1 -5.5 -6t-6.5 -9
l-27 22q0 1 10 14zM108 281q-2 -9 -3 -13l-34 11q1 1 1.5 4t1.5 5.5t3 5.5zM408 24q-9 -4 -22 -12l-13 26q1 1 18 12zM98 233v-12l-38 3q0 4 2 14zM101 175l-36 -6q0 1 -1 5.5t-2 8.5l36 4q0 -4 3 -12zM312 -8q-18 -2 -27 -2h-1v25q10 0 24 1zM115 127l-31 -15l-6 14l32 14
q5 -8 5 -13zM149 74l-21 -21q-1 1 -4 5t-6 6.5t-4 4.5l24 19q9 -8 11 -14zM215 28l-10 -24l-23 10l13 24q3 -1 5.5 -2t7 -3.5t7.5 -4.5z" />
    <glyph glyph-name="parenleft" unicode="(" horiz-adv-x="0" 
d="M-118 -106h-4q-19 -2 -31 -14q-17 -16 -21 -43q-4 -32 15 -46q11 -8 25 -6q9 2 19 8h1h1q-2 -9 -6 -25t-5 -22v0q-1 -6 -5.5 -32.5t-8.5 -45.5q-11 -61 -25 -100q-10 -26 -18 -35l-4.5 -6t-5.5 -7t-5.5 -3.5t-8 -2t-8.5 3.5t-11 9q-11 11 -28 15t-30 -3q-12 -8 -17.5 -23
t-7 -39.5t-1.5 -26.5q-5 -30 -20 -35q-3 -1 -11 6q-6 5 -33 36q-18 20 -32 32q33 29 71 73.5t60 76t60 86.5q23 34 23 35q-1 1 -18 -22q-5 -6 -8 -10q-105 -135 -213 -220h-1q-26 13 -51 9q-39 -4 -86 -46q-20 -19 -29 -35q-11 -21 -7 -28q5 -10 30 -10q8 0 16 1.5t17 5
t14.5 6t16.5 8t15 6.5q13 7 44 28q16 -11 37 -36q20 -23 42 -35q20 -11 33 -10q17 0 28 11q10 8 20 35q6 13 8 35q1 3 1 13t2 15.5t7 9.5q5 5 15 3.5t16.5 -4t16.5 -7.5t16 -6q4 -3 9 -1t7.5 2t7.5 4t6.5 6t6 6.5t5.5 6.5q14 14 30 56q15 37 28 106q3 16 6 34t5 29t2 13v1
l6 25t8 41q8 50 -5 74q-1 2 -3 4q-10 9 -25 10h-4zM-132 -141q14 -1 19 -5.5t5 -16.5q-6 -5 -12 -3q-12 1 -15 10q-4 8 3 15zM-510 -527q18 0 17 -5q-1 -6 -21 -10q-31 -7 -31 -3q0 1 1 3q10 15 34 15z" />
    <glyph glyph-name="parenright" unicode=")" horiz-adv-x="320" 
d="M277 1360h-2q-15 -1 -26 -10q-20 -20 -22 -53q-3 -33 13 -56q10 -13 28 -19h2l2 -1q-4 -11 -4 -19q-1 -3 -2 -10q-1 -8 -2 -20q-2 -24 -4 -66q-5 -75 -12 -222q-5 -89 -15.5 -316.5t-16.5 -354.5q-23 -453 -39 -717q-4 -54 -9 -151t-8 -147t-8.5 -104t-11.5 -79
q-17 -70 -63 -176q-11 -26 -10 -27l13 18q68 102 87 208q17 87 40 456q16 265 39 717q6 127 16.5 354.5t15.5 316.5q7 149 11 222q3 42 5 65q1 12 2 19q0 3 1 7v1v1v2q1 5 7 25q8 28 11 40q6 26 5 44q-2 27 -17 42q-9 10 -26 10zM272 1309q3 0 6 -1q12 -6 10 -19
q0 -5 -4.5 -10t-9.5 -6q-4 0 -9 7q-5 6 -5 14q1 9 6 13q2 2 6 2z" />
    <glyph glyph-name="asterisk" unicode="*" 
d="M389 410l-14 -25q-1 1 -8 4.5t-11 6.5l10 25q2 -2 23 -11zM458 354l-26 -21q-2 2 -4 5.5t-3.5 5.5t-2.5 3l22 23q8 -6 14 -16zM495 295l-37 -14q0 2 -3 12l33 16q2 -7 7 -14zM285 436l-1 -26q-2 0 -11 -0.5t-13 -0.5l-3 26q5 0 14 0.5t13 0.5h1zM510 238l-40 -5v6
q-1 1 -1 6l38 6q3 -9 3 -13zM510 196q0 -4 -3 -14l-38 6q0 4 1 5v6zM193 384q-1 0 -4 -2t-6.5 -4.5t-6.5 -5.5l-16 26q2 0 8.5 4.5t11.5 7.5zM498 140q0 -1 -2.5 -7t-2.5 -7l-35 14q0 1 2 6t2 7zM136 333q0 -1 -3 -5l-6 -8l-26 19q3 6 11 15zM468 81q-2 -1 -5.5 -6t-6.5 -9
l-27 22q0 1 10 14zM108 281q-2 -9 -3 -13l-34 11q1 1 1.5 4t1.5 5.5t3 5.5zM408 24q-9 -4 -22 -12l-13 26q1 1 18 12zM98 233v-12l-38 3q0 4 2 14zM101 175l-36 -6q0 1 -1 5.5t-2 8.5l36 4q0 -4 3 -12zM312 -8q-18 -2 -27 -2h-1v25q10 0 24 1zM115 127l-31 -15l-6 14l32 14
q5 -8 5 -13zM149 74l-21 -21q-1 1 -4 5t-6 6.5t-4 4.5l24 19q9 -8 11 -14zM215 28l-10 -24l-23 10l13 24q3 -1 5.5 -2t7 -3.5t7.5 -4.5z" />
    <glyph glyph-name="plus" unicode="+" horiz-adv-x="0" 
d="M-46 692q-7 0 -24 -13q-5 -4 -24.5 -21t-21.5 -18q-3 2 -33 23t-39 24q-6 2 -12 2q-22 0 -20 -20q1 -8 8 -14q42 -40 55 -51q-2 -2 -21 -19t-25 -22q-5 -3 -6 -9.5t3 -11.5q6 -7 26 7q5 4 23 20.5t21 19.5l51 -40q6 -4 20 1q19 6 25 19q2 4 0 10q-2 5 -6 8q-32 28 -48 39
l49 47q4 4 5.5 9t-1.5 8q-2 2 -5 2z" />
    <glyph glyph-name="comma" unicode="," horiz-adv-x="0" 
d="M-21 -87q-3 0 -17.5 -11.5t-34.5 -28.5t-31 -25q-7 -6 -26 -20t-27 -20t-24.5 -16.5t-28.5 -15t-30 -9t-36 -5.5q7 13 6 25t-18 27q-18 15 -33 14q-24 -1 -42 -20q-18 -18 -17 -38q1 -13 18 -28q7 -6 13 -9q15 -9 40 -12t34 0q18 4 33.5 8.5t30.5 12.5t24 12t24.5 16
t20.5 15.5t23 19t22 18.5q23 19 52.5 52.5t23.5 37.5zM-333 -205h4q10 -2 18 -9.5t6 -15.5q-1 -3 -7 -5t-11 -1q-10 2 -18 9.5t-6 14.5t14 7z" />
    <glyph glyph-name="hyphen" unicode="-" horiz-adv-x="260" 
d="M249 353q-4 0 -17 -27q-10 -22 -39 -59q-22 -27 -47 -51l-2 -1l-1 -1q-5 12 -14.5 20t-22.5 7q-9 -1 -20 -6q-15 -8 -28 -23q-11 -12 -15 -25q-3 -9 -3 -17q1 -11 9 -19q13 -12 34 -11q13 1 28 7q5 1 8 5q7 3 15 9.5t12.5 11.5t12 13t9.5 10q10 10 35 49q29 47 37 65
q5 11 7.5 21.5t3 15.5t-1.5 6zM94 207q10 0 15 -10q8 -15 -10 -15q-10 0 -15 10q-7 15 10 15z" />
    <glyph glyph-name="period" unicode="." horiz-adv-x="0" 
d="M3 -98q-3 0 -7 -2q-5 -2 -8 -6t-6.5 -10t-4.5 -8q-4 -6 -5 -8q-2 -15 -11 -53.5t-16 -76t-10 -70.5q-1 -15 -1 -29q-9 -4 -31 -16t-23 -13q-5 -2 -70 -45q-1 -1 -13 7q-80 60 -157 58q-66 -2 -140 -50q-37 -24 -76 -66q-19 -19 -11 -19q3 1 12 5q117 74 198 77
q71 2 148 -59q4 -3 10 -3t10 4q-1 0 0 1t3 2.5t4 2.5q8 6 19 13q28 19 57 34q6 3 62 23q3 -15 7 -27q9 -26 20 -41.5t33 -20.5q13 -4 29 5q23 13 38 40q14 27 12 50q-2 20 -16.5 34.5t-34.5 19.5q-13 3 -50 -4q0 20 1 35q3 30 10 66.5t15.5 75t11.5 54.5q2 20 -9 20z
M-16 -392q3 0 12 -3q12 -2 20 -10t9 -16q2 -22 -4 -24q-13 -3 -23 10t-17 33q-4 9 3 10z" />
    <glyph glyph-name="slash" unicode="/" horiz-adv-x="880" 
d="M298 311q-7 0 -8 -6q0 -6 16 -15t24 -10q25 -6 53 -10q14 -2 62 -2q86 0 87 -9q0 -2 -2 -4q-9 -9 -19.5 -23.5t-22.5 -34t-18 -27.5q-91 -129 -120 -165q-4 -4 -10 -16.5t-4 -15.5q5 -7 21 3t23 19q32 39 61 70.5t46.5 49.5t49.5 48.5t53 51.5q20 13 25 30q9 29 -5 46
q-3 4 -10 4q-144 -2 -213 5q-16 1 -45.5 5t-33.5 5q-9 1 -10 1z" />
    <glyph glyph-name="zero" unicode="0" horiz-adv-x="190" 
d="M128 569h-3q-19 -2 -33 -18q-5 -6 -8 -9.5t-5 -10.5t-2 -15q0 -3 2 -9t5 -9q23 -23 49 -23q10 3 25.5 17.5t19.5 24.5q2 4 1 9q-2 13 -19 28t-32 15zM124 546q12 0 30 -25q3 -6 -3.5 -13t-16.5 -12q-4 -3 -12.5 2.5t-16.5 14.5q-6 7 -2 15t15 16q2 2 6 2z" />
    <glyph glyph-name="one" unicode="1" horiz-adv-x="200" 
d="M144 565q-10 -1 -29 -8q-9 -5 -23 -14q-24 -15 -24 -37q1 -17 21 -24q9 -1 27 6q9 3 14 8l2 2l4 3l3 3l3 2l1 4l1 4v4q-2 9 -7 15q-1 1 -2 1.5t-3 0t-3 -0.5t-3.5 -1.5t-2.5 -2.5q-14 -6 -9 -14q4 -4 -0.5 -6.5t-9.5 -2.5q-3 1 -5.5 5t-1.5 7t2 5.5t4 4.5t5 3.5t6 3.5
t5 3q11 5 15 4t7 -3.5t6.5 -8.5t4.5 -6q8 -11 11 -27q1 -7 -11 -15q-16 -8 -26 -11q-2 -1 -21 1q-9 -2 -12 -11q0 -9 13 -14t20 -3q31 7 50 25q6 6 9 13q0 1 2 5l3 5l1 5l1 6v5l-1 5q-13 33 -33 46q-7 5 -14 5z" />
    <glyph glyph-name="two" unicode="2" horiz-adv-x="240" 
d="M-139 665q-2 -1 -9.5 -2t-12 -2t-9.5 -4t-8 -7q0 -3 6 -3.5t18 0t15 0.5q55 0 96 -38q26 -23 66 -77.5t65 -76.5q8 -9 19 -10t20 6q11 6 42 15t46 18q7 5 10.5 8.5t7.5 8.5t3.5 10.5t-4.5 11.5q-13 33 -33 49q-6 2 -9.5 -0.5t-8 -8.5t-6.5 -7q-1 2 -4.5 6t-6 6.5t-6 5
t-8 2t-10.5 -3.5q-34 -19 -34 -53q-2 -13 8 -21t21 -1q12 7 16.5 21t-4.5 24q-2 2 -5 2.5t-5 1t-3 0.5t-0.5 1.5t3.5 4.5q2 2 3.5 3t2.5 1.5t2.5 0t2 -0.5t2 -1.5t2 -2.5t1.5 -3.5t3 -4.5l1 -2l6 -8l5 -2l7 3q8 7 11 5.5t7 -10.5q0 -1 2.5 -5t3.5 -6.5t3 -6.5t1.5 -6
t-1 -4.5t-3.5 -4t-8 -2.5q-5 -2 -31.5 -11.5t-42.5 -16.5q-7 5 -14.5 11.5t-12 12t-12 15t-11.5 13.5q-3 4 -15.5 20t-17 22t-16 19.5t-19 20.5t-18.5 17t-21.5 17t-22.5 14q-32 16 -76 16zM126 530q4 0 7.5 -3t3.5 -6q0 -2 -2 -4.5t-5 -2.5t-6.5 3t-3.5 6q-1 3 1.5 5t4.5 2
z" />
    <glyph glyph-name="three" unicode="3" horiz-adv-x="210" 
d="M106 569q-12 0 -28 -25q-17 -25 -20 -53q-2 -23 11 -35q6 -6 15.5 -5.5t15.5 7.5q16 16 16 38q-1 9 -5.5 16.5t-13.5 8.5q0 1 -8 -2q-1 0 -1.5 0.5t0.5 2.5q5 11 12 18q6 7 16 -15v-1q9 -20 9.5 -25.5t-3.5 -25.5q0 -2 -1.5 -9.5t-1.5 -9.5q3 -5 8.5 -0.5t7.5 10.5
q4 15 8 25q9 29 20 44q8 10 12 3q6 -8 7.5 -13t1.5 -7t-3 -8t-4 -9q-3 -7 -8.5 -19.5t-7.5 -19.5q-2 -5 3 -8t10 -1q3 2 4.5 4t3 6t2.5 5q19 43 22 65q1 16 -15 31q-4 4 -8 4.5t-8 -1.5t-7 -4.5t-7 -7.5q-9 -8 -23 -32q-4 15 -11.5 28.5t-13.5 17.5q-3 2 -7 2zM84 496h3
q4 -2 5.5 -8.5t-2.5 -11.5q-7 0 -12 10q0 10 6 10z" />
    <glyph glyph-name="four" unicode="4" horiz-adv-x="290" 
d="M432 780q-1 0 -5 -4q-4 -3 -17 -15t-17.5 -16t-16.5 -14.5t-18.5 -15.5t-17 -14t-18.5 -14.5t-18 -13t-19.5 -13t-19.5 -11.5q-4 -3 -16.5 -11t-17 -10.5t-16 -9t-19 -10t-19 -8.5t-24.5 -9q-6 -2 -24 -9.5t-27 -14.5q-37 -34 -26 -78q1 -6 3.5 -10.5t5.5 -7.5t5.5 -5
t7.5 -3l8 -1l8 -1h8l8 1l7 1q29 4 61 36q14 0 20 1q52 18 88 15q4 -1 7 1.5t3.5 6.5t-2.5 8q-5 5 -11 6q-14 1 -32 -2t-34.5 -8t-22.5 -6q7 4 12.5 14.5t4.5 17.5q-1 10 -8 17q-5 5 -15 5h-1q-6 0 -13 -3q-13 -5 -23 -16q-17 -20 -9 -45q2 -7 9 -10q-8 -8 -20.5 -10
t-35.5 -1q-14 2 -17.5 12t1.5 25q5 25 34 40q76 30 147 81t142 121l4 5l5 4zM194 552q5 0 8 -3q3 -2 2 -11q-3 -17 -9 -17q-9 0 -13 6q-7 12 0 20q4 5 12 5z" />
    <glyph glyph-name="five" unicode="5" horiz-adv-x="280" 
d="M432 781q-1 0 -5 -4q-4 -3 -17 -15t-17.5 -16t-16.5 -14.5t-18.5 -15.5t-17 -14.5t-18.5 -15t-18 -12.5t-19.5 -13t-19.5 -12q-4 -2 -17 -10.5t-18 -11.5t-15.5 -9t-20 -10.5t-19.5 -7.5q1 3 1 7q1 9 -4 16q-6 9 -17 9h-1q-6 1 -13 -1q-17 -4 -24 -17q-9 -16 -9 -25
q0 -7 7 -13q-7 -4 -13 -8q-19 -18 -25 -36t-1 -43q7 -33 65 -18q13 3 27 9l12 2l19 4l25 8l26 4l31 1q12 -1 14 16q0 3 -2 4.5t-9 1.5q-16 2 -30.5 0t-23 -4.5t-21.5 -7.5t-18 -7q8 8 14.5 19t6.5 17q-1 10 -8 16q-6 7 -15 7h-1q-6 0 -14 -4q-9 -4 -16 -11q-9 -12 -14 -26
t-1 -24q0 -4 4 -7q-7 -3 -32 -3q-14 0 -19 17t3 31q1 3 3 7.5t3 6.5l3 4l5 5l7 5l13 6q1 0 4 3q1 0 6 1q1 0 10 4q42 18 61 29q93 53 208 165l4 4l5 5zM144 605h1q1 0 2 -1q2 0 3.5 -1t3.5 -2q-4 -5 -9 -10l-1 -1q-3 -3 -10 -2q-5 1 -6 3q-1 1 0 2q1 3 3 5q6 5 12 7h1z
M175 534q6 0 9 -5q1 -2 0 -6q-1 -10 -6 -14q-2 -1 -7.5 -1.5t-7.5 1.5q-7 5 -2 17q1 3 6 5.5t8 2.5z" />
    <glyph glyph-name="six" unicode="6" horiz-adv-x="180" 
d="M-134 735q-7 0 -14 -2q-4 -1 -4 -2q0 -5 5.5 -8.5t13.5 -6.5t11 -4q8 -3 14.5 -7.5t16.5 -14.5l12 -12q21 -21 55.5 -66t47.5 -60q6 -5 14 -6t12.5 0t16.5 4t13 3q31 11 47 -9q10 -8 12.5 -20t-7.5 -22q-8 -5 -11.5 -7t-11 -5t-13 -2.5t-11.5 4.5q-8 5 0 9q9 5 14 -2
q9 -6 19.5 5t3.5 18q-10 8 -23 7.5t-23 -9.5q-1 -2 -4 -4.5t-5 -4.5l-5 -5l-3 -4l-3 -6l-2 -6l1 -6q8 -15 25.5 -20t32.5 3q38 17 55 49q7 16 -1 32.5t-23 26.5q-20 16 -43 8q-4 -1 -22.5 -8t-29.5 -7q-5 0 -10.5 5t-13 15t-9.5 12q-2 3 -14.5 19.5t-16.5 20.5t-15.5 17.5
t-17.5 20t-16 16.5t-19.5 17.5t-20.5 13.5q-14 10 -30 10z" />
    <glyph glyph-name="seven" unicode="7" horiz-adv-x="290" 
d="M327 786q-2 -2 -3.5 -9t-2.5 -16t-1 -13q-6 -40 -11 -65t-15 -60t-22 -63q-26 -52 -65 -69q-3 0 -1 3q0 1 2 2q15 25 19 49q-1 24 -27 41q-5 3 -12 3q-5 -1 -9 -5t-9 -10.5t-7 -8.5q-4 0 -13.5 9t-14.5 11q-12 5 -27 -9q-36 -34 -36 -75q0 -5 3 -10t5.5 -7t9 -6.5
t7.5 -6.5q13 -9 38 3q10 6 15.5 17.5t4.5 23.5q-3 11 -11.5 16.5t-17.5 1.5q-7 -2 -15 -11.5t-10 -18.5q-3 2 -7 8q-2 2 -2.5 4t-0.5 4t0.5 3.5t1.5 4t1 3.5t1.5 4t2 3.5t2.5 3t3 3.5q4 9 11 13.5t15 -1.5q4 -1 7.5 -6t6.5 -8.5t7.5 -5.5t8.5 2q15 17 27 23q10 -5 15 -14
t0 -18q-4 -21 -27 -47q-5 -6 -3 -10t8 -5q5 -3 11 -1q28 7 50 26.5t36 47.5q19 36 28.5 78t15.5 97q6 58 7 71zM129 515q3 0 6 -1q4 -7 -4 -13.5t-15 -6.5h-1q-3 6 1 13.5t13 7.5z" />
    <glyph glyph-name="eight" unicode="8" horiz-adv-x="240" 
d="M468 781q-8 0 -18 -5q-87 -33 -184 -135q-30 -29 -45 -40q-1 -1 -4 -3l-6 -4q-10 -8 -27 -11q-36 2 -57 -7q-24 -9 -43 -29q-12 -9 -11 -21q0 -18 19 -48q11 -16 14 -20q6 -4 11.5 1t5.5 12q9 23 20 34l13 -13l14 -14q2 -4 6 -2.5t5.5 2.5t5.5 4t5 3q30 25 37 44
q3 8 1 16t-9 11q-9 5 -20 1t-16 -14q-7 -19 4 -23q7 -2 12 3t4 12q0 5 5 5q3 0 0 -5q-6 -14 -28 -32q-2 3 -11.5 13.5t-14.5 16.5l-6 1l-6 -1l-6 -3l-4 -6l-4 -4q-11 -10 -18 -26q-13 24 -14 38q0 3 2.5 5.5t8 6t6.5 4.5q22 12 45 11h14l14 1q5 1 25 14q2 1 8 5t8 7
q20 15 52 52q94 107 184 141q4 2 3 2z" />
    <glyph glyph-name="nine" unicode="9" horiz-adv-x="260" 
d="M155 559q1 -1 6 -4.5t5.5 -3.5t0.5 2q-3 9 0.5 18t12.5 10q24 1 35 -10q4 -4 5 0l2 11q3 4 5 6t10 2q6 1 7 2q5 2 11 6q2 2 11 13q14 16 27 38q24 40 41 83q7 20 20 34q11 12 26 20q20 11 36 13q11 2 12 2q2 1 3.5 1t1.5 -1q0 -2 -4 -2q-1 0 -13 -3q-20 -6 -34 -15
q-13 -8 -23 -20q-11 -13 -17 -32q-16 -50 -37 -88q-15 -29 -25 -41q-2 -3 -5 -6q-5 -8 -16 -19q-2 -2 -10.5 -4.5t-10.5 -7.5q0 -3 0.5 -7t1.5 -6.5t3 -6.5t3 -7q3 -6 -1 -13t-11 -5q-8 4 -19 15.5t-15 14.5q-5 5 -12 7t-6 -6q4 -19 10 -28q3 -10 3 -17.5t-6 -13.5t-13 0
q-17 28 -36 46l-5 5q-2 2 -5 4q-2 1 -11 4q-11 2 -13 -1q-9 -5 -16 -17q7 7 11 7.5t11.5 0t13.5 -7.5q7 -11 7 -26t-10 -25q-17 -16 -32 -7q-11 7 -17 19t-6 26q0 17 21 41q11 12 30 13q5 0 18 -5q2 -1 9 -4t9 -4zM101 518h1h1q7 -2 10.5 -8.5t0.5 -11.5q-4 -6 -9.5 -4.5
t-9.5 8.5q-3 5 -2 10.5t8 5.5z" />
    <glyph glyph-name="colon" unicode=":" 
d="M389 410l-14 -25q-1 1 -8 4.5t-11 6.5l10 25q2 -2 23 -11zM458 354l-26 -21q-2 2 -4 5.5t-3.5 5.5t-2.5 3l22 23q8 -6 14 -16zM495 295l-37 -14q0 2 -3 12l33 16q2 -7 7 -14zM285 436l-1 -26q-2 0 -11 -0.5t-13 -0.5l-3 26q5 0 14 0.5t13 0.5h1zM510 238l-40 -5v6
q-1 1 -1 6l38 6q3 -9 3 -13zM510 196q0 -4 -3 -14l-38 6q0 4 1 5v6zM193 384q-1 0 -4 -2t-6.5 -4.5t-6.5 -5.5l-16 26q2 0 8.5 4.5t11.5 7.5zM498 140q0 -1 -2.5 -7t-2.5 -7l-35 14q0 1 2 6t2 7zM136 333q0 -1 -3 -5l-6 -8l-26 19q3 6 11 15zM468 81q-2 -1 -5.5 -6t-6.5 -9
l-27 22q0 1 10 14zM108 281q-2 -9 -3 -13l-34 11q1 1 1.5 4t1.5 5.5t3 5.5zM408 24q-9 -4 -22 -12l-13 26q1 1 18 12zM98 233v-12l-38 3q0 4 2 14zM101 175l-36 -6q0 1 -1 5.5t-2 8.5l36 4q0 -4 3 -12zM312 -8q-18 -2 -27 -2h-1v25q10 0 24 1zM115 127l-31 -15l-6 14l32 14
q5 -8 5 -13zM149 74l-21 -21q-1 1 -4 5t-6 6.5t-4 4.5l24 19q9 -8 11 -14zM215 28l-10 -24l-23 10l13 24q3 -1 5.5 -2t7 -3.5t7.5 -4.5z" />
    <glyph glyph-name="semicolon" unicode=";" 
d="M389 410l-14 -25q-1 1 -8 4.5t-11 6.5l10 25q2 -2 23 -11zM458 354l-26 -21q-2 2 -4 5.5t-3.5 5.5t-2.5 3l22 23q8 -6 14 -16zM495 295l-37 -14q0 2 -3 12l33 16q2 -7 7 -14zM285 436l-1 -26q-2 0 -11 -0.5t-13 -0.5l-3 26q5 0 14 0.5t13 0.5h1zM510 238l-40 -5v6
q-1 1 -1 6l38 6q3 -9 3 -13zM510 196q0 -4 -3 -14l-38 6q0 4 1 5v6zM193 384q-1 0 -4 -2t-6.5 -4.5t-6.5 -5.5l-16 26q2 0 8.5 4.5t11.5 7.5zM498 140q0 -1 -2.5 -7t-2.5 -7l-35 14q0 1 2 6t2 7zM136 333q0 -1 -3 -5l-6 -8l-26 19q3 6 11 15zM468 81q-2 -1 -5.5 -6t-6.5 -9
l-27 22q0 1 10 14zM108 281q-2 -9 -3 -13l-34 11q1 1 1.5 4t1.5 5.5t3 5.5zM408 24q-9 -4 -22 -12l-13 26q1 1 18 12zM98 233v-12l-38 3q0 4 2 14zM101 175l-36 -6q0 1 -1 5.5t-2 8.5l36 4q0 -4 3 -12zM312 -8q-18 -2 -27 -2h-1v25q10 0 24 1zM115 127l-31 -15l-6 14l32 14
q5 -8 5 -13zM149 74l-21 -21q-1 1 -4 5t-6 6.5t-4 4.5l24 19q9 -8 11 -14zM215 28l-10 -24l-23 10l13 24q3 -1 5.5 -2t7 -3.5t7.5 -4.5z" />
    <glyph glyph-name="less" unicode="&#x3c;" 
d="M389 410l-14 -25q-1 1 -8 4.5t-11 6.5l10 25q2 -2 23 -11zM458 354l-26 -21q-2 2 -4 5.5t-3.5 5.5t-2.5 3l22 23q8 -6 14 -16zM495 295l-37 -14q0 2 -3 12l33 16q2 -7 7 -14zM285 436l-1 -26q-2 0 -11 -0.5t-13 -0.5l-3 26q5 0 14 0.5t13 0.5h1zM510 238l-40 -5v6
q-1 1 -1 6l38 6q3 -9 3 -13zM510 196q0 -4 -3 -14l-38 6q0 4 1 5v6zM193 384q-1 0 -4 -2t-6.5 -4.5t-6.5 -5.5l-16 26q2 0 8.5 4.5t11.5 7.5zM498 140q0 -1 -2.5 -7t-2.5 -7l-35 14q0 1 2 6t2 7zM136 333q0 -1 -3 -5l-6 -8l-26 19q3 6 11 15zM468 81q-2 -1 -5.5 -6t-6.5 -9
l-27 22q0 1 10 14zM108 281q-2 -9 -3 -13l-34 11q1 1 1.5 4t1.5 5.5t3 5.5zM408 24q-9 -4 -22 -12l-13 26q1 1 18 12zM98 233v-12l-38 3q0 4 2 14zM101 175l-36 -6q0 1 -1 5.5t-2 8.5l36 4q0 -4 3 -12zM312 -8q-18 -2 -27 -2h-1v25q10 0 24 1zM115 127l-31 -15l-6 14l32 14
q5 -8 5 -13zM149 74l-21 -21q-1 1 -4 5t-6 6.5t-4 4.5l24 19q9 -8 11 -14zM215 28l-10 -24l-23 10l13 24q3 -1 5.5 -2t7 -3.5t7.5 -4.5z" />
    <glyph glyph-name="equal" unicode="=" 
d="M389 410l-14 -25q-1 1 -8 4.5t-11 6.5l10 25q2 -2 23 -11zM458 354l-26 -21q-2 2 -4 5.5t-3.5 5.5t-2.5 3l22 23q8 -6 14 -16zM495 295l-37 -14q0 2 -3 12l33 16q2 -7 7 -14zM285 436l-1 -26q-2 0 -11 -0.5t-13 -0.5l-3 26q5 0 14 0.5t13 0.5h1zM510 238l-40 -5v6
q-1 1 -1 6l38 6q3 -9 3 -13zM510 196q0 -4 -3 -14l-38 6q0 4 1 5v6zM193 384q-1 0 -4 -2t-6.5 -4.5t-6.5 -5.5l-16 26q2 0 8.5 4.5t11.5 7.5zM498 140q0 -1 -2.5 -7t-2.5 -7l-35 14q0 1 2 6t2 7zM136 333q0 -1 -3 -5l-6 -8l-26 19q3 6 11 15zM468 81q-2 -1 -5.5 -6t-6.5 -9
l-27 22q0 1 10 14zM108 281q-2 -9 -3 -13l-34 11q1 1 1.5 4t1.5 5.5t3 5.5zM408 24q-9 -4 -22 -12l-13 26q1 1 18 12zM98 233v-12l-38 3q0 4 2 14zM101 175l-36 -6q0 1 -1 5.5t-2 8.5l36 4q0 -4 3 -12zM312 -8q-18 -2 -27 -2h-1v25q10 0 24 1zM115 127l-31 -15l-6 14l32 14
q5 -8 5 -13zM149 74l-21 -21q-1 1 -4 5t-6 6.5t-4 4.5l24 19q9 -8 11 -14zM215 28l-10 -24l-23 10l13 24q3 -1 5.5 -2t7 -3.5t7.5 -4.5z" />
    <glyph glyph-name="greater" unicode="&#x3e;" 
d="M389 410l-14 -25q-1 1 -8 4.5t-11 6.5l10 25q2 -2 23 -11zM458 354l-26 -21q-2 2 -4 5.5t-3.5 5.5t-2.5 3l22 23q8 -6 14 -16zM495 295l-37 -14q0 2 -3 12l33 16q2 -7 7 -14zM285 436l-1 -26q-2 0 -11 -0.5t-13 -0.5l-3 26q5 0 14 0.5t13 0.5h1zM510 238l-40 -5v6
q-1 1 -1 6l38 6q3 -9 3 -13zM510 196q0 -4 -3 -14l-38 6q0 4 1 5v6zM193 384q-1 0 -4 -2t-6.5 -4.5t-6.5 -5.5l-16 26q2 0 8.5 4.5t11.5 7.5zM498 140q0 -1 -2.5 -7t-2.5 -7l-35 14q0 1 2 6t2 7zM136 333q0 -1 -3 -5l-6 -8l-26 19q3 6 11 15zM468 81q-2 -1 -5.5 -6t-6.5 -9
l-27 22q0 1 10 14zM108 281q-2 -9 -3 -13l-34 11q1 1 1.5 4t1.5 5.5t3 5.5zM408 24q-9 -4 -22 -12l-13 26q1 1 18 12zM98 233v-12l-38 3q0 4 2 14zM101 175l-36 -6q0 1 -1 5.5t-2 8.5l36 4q0 -4 3 -12zM312 -8q-18 -2 -27 -2h-1v25q10 0 24 1zM115 127l-31 -15l-6 14l32 14
q5 -8 5 -13zM149 74l-21 -21q-1 1 -4 5t-6 6.5t-4 4.5l24 19q9 -8 11 -14zM215 28l-10 -24l-23 10l13 24q3 -1 5.5 -2t7 -3.5t7.5 -4.5z" />
    <glyph glyph-name="question" unicode="?" horiz-adv-x="0" 
d="M-46.5 -41q-5.5 0 -9.5 -3.5t-4 -9.5q-1 -23 -2 -37t-4.5 -26.5t-5 -16.5t-8.5 -22q-11 -26 -32 -49q-19 -19 -57 -19q-35 0 -49 17t-12 55q2 16 13 33q18 39 52 25q30 -10 28 -30q-1 -4 -6 -7t-10 -3q-9 1 -9 10q0 12 -11.5 15.5t-18.5 -10.5q-7 -16 -2 -30.5t17 -24.5
q8 -6 20.5 -6t21.5 5q20 12 33 56q7 26 -7.5 47t-37.5 23q-35 4 -59.5 -13t-37.5 -43q-12 -27 -13 -44q-5 -67 12 -92q10 -15 30.5 -24t41.5 -9q35 0 70 31q24 20 44 69q9 24 13 35t7.5 32.5t4.5 51.5q0 6 -3.5 10t-9 4zM-47 -217q-9 -1 -18 -14t-9 -21q-3 -21 -8 -67
q-5 -40 -11 -68q-2 -6 -15 -43q-3 -8 -9 -20l-11 -22l-10 -20l-6 -16l4 -7q7 1 11 8t13.5 19.5t16.5 23t12 20.5q12 24 18 52q7 28 12 70q1 9 3 25t3 23.5t2.5 17.5t3.5 16.5t4 12.5q2 2 0.5 5.5t-3.5 3.5q-2 1 -3 1z" />
    <glyph glyph-name="at" unicode="@" 
d="M389 410l-14 -25q-1 1 -8 4.5t-11 6.5l10 25q2 -2 23 -11zM458 354l-26 -21q-2 2 -4 5.5t-3.5 5.5t-2.5 3l22 23q8 -6 14 -16zM495 295l-37 -14q0 2 -3 12l33 16q2 -7 7 -14zM285 436l-1 -26q-2 0 -11 -0.5t-13 -0.5l-3 26q5 0 14 0.5t13 0.5h1zM510 238l-40 -5v6
q-1 1 -1 6l38 6q3 -9 3 -13zM510 196q0 -4 -3 -14l-38 6q0 4 1 5v6zM193 384q-1 0 -4 -2t-6.5 -4.5t-6.5 -5.5l-16 26q2 0 8.5 4.5t11.5 7.5zM498 140q0 -1 -2.5 -7t-2.5 -7l-35 14q0 1 2 6t2 7zM136 333q0 -1 -3 -5l-6 -8l-26 19q3 6 11 15zM468 81q-2 -1 -5.5 -6t-6.5 -9
l-27 22q0 1 10 14zM108 281q-2 -9 -3 -13l-34 11q1 1 1.5 4t1.5 5.5t3 5.5zM408 24q-9 -4 -22 -12l-13 26q1 1 18 12zM98 233v-12l-38 3q0 4 2 14zM101 175l-36 -6q0 1 -1 5.5t-2 8.5l36 4q0 -4 3 -12zM312 -8q-18 -2 -27 -2h-1v25q10 0 24 1zM115 127l-31 -15l-6 14l32 14
q5 -8 5 -13zM149 74l-21 -21q-1 1 -4 5t-6 6.5t-4 4.5l24 19q9 -8 11 -14zM215 28l-10 -24l-23 10l13 24q3 -1 5.5 -2t7 -3.5t7.5 -4.5z" />
    <glyph glyph-name="A" unicode="A" horiz-adv-x="720" 
d="M720 820h-720v20h720v-20zM214 800h-4q-6 0 -18 -4q-18 -6 -72 -34q-40 -22 -70 -44q-78 -60 -116 -106q-12 -14 -12 -20q-4 -18 6 -22q10 -8 22 4q70 72 114 102q40 28 64 40q14 8 22 10t10 2q64 -24 158 -84q20 -12 62 -46q4 -4 10 -8t7 -5t3 -5t0 -8q-22 -98 -43 -234
t-31 -222l-10 -88q-4 -18 4 -22q16 -10 42 8q10 8 12 20q66 316 98 552q4 28 8 52q4 6 1 10t-6 3t-18 7t-35 24q-4 2 -20 15t-26 19q-112 68 -146 80q-8 4 -16 4z" />
    <glyph glyph-name="B" unicode="B" 
d="M389 410l-14 -25q-1 1 -8 4.5t-11 6.5l10 25q2 -2 23 -11zM458 354l-26 -21q-2 2 -4 5.5t-3.5 5.5t-2.5 3l22 23q8 -6 14 -16zM495 295l-37 -14q0 2 -3 12l33 16q2 -7 7 -14zM285 436l-1 -26q-2 0 -11 -0.5t-13 -0.5l-3 26q5 0 14 0.5t13 0.5h1zM510 238l-40 -5v6
q-1 1 -1 6l38 6q3 -9 3 -13zM510 196q0 -4 -3 -14l-38 6q0 4 1 5v6zM193 384q-1 0 -4 -2t-6.5 -4.5t-6.5 -5.5l-16 26q2 0 8.5 4.5t11.5 7.5zM498 140q0 -1 -2.5 -7t-2.5 -7l-35 14q0 1 2 6t2 7zM136 333q0 -1 -3 -5l-6 -8l-26 19q3 6 11 15zM468 81q-2 -1 -5.5 -6t-6.5 -9
l-27 22q0 1 10 14zM108 281q-2 -9 -3 -13l-34 11q1 1 1.5 4t1.5 5.5t3 5.5zM408 24q-9 -4 -22 -12l-13 26q1 1 18 12zM98 233v-12l-38 3q0 4 2 14zM101 175l-36 -6q0 1 -1 5.5t-2 8.5l36 4q0 -4 3 -12zM312 -8q-18 -2 -27 -2h-1v25q10 0 24 1zM115 127l-31 -15l-6 14l32 14
q5 -8 5 -13zM149 74l-21 -21q-1 1 -4 5t-6 6.5t-4 4.5l24 19q9 -8 11 -14zM215 28l-10 -24l-23 10l13 24q3 -1 5.5 -2t7 -3.5t7.5 -4.5z" />
    <glyph glyph-name="C" unicode="C" 
d="M389 410l-14 -25q-1 1 -8 4.5t-11 6.5l10 25q2 -2 23 -11zM458 354l-26 -21q-2 2 -4 5.5t-3.5 5.5t-2.5 3l22 23q8 -6 14 -16zM495 295l-37 -14q0 2 -3 12l33 16q2 -7 7 -14zM285 436l-1 -26q-2 0 -11 -0.5t-13 -0.5l-3 26q5 0 14 0.5t13 0.5h1zM510 238l-40 -5v6
q-1 1 -1 6l38 6q3 -9 3 -13zM510 196q0 -4 -3 -14l-38 6q0 4 1 5v6zM193 384q-1 0 -4 -2t-6.5 -4.5t-6.5 -5.5l-16 26q2 0 8.5 4.5t11.5 7.5zM498 140q0 -1 -2.5 -7t-2.5 -7l-35 14q0 1 2 6t2 7zM136 333q0 -1 -3 -5l-6 -8l-26 19q3 6 11 15zM468 81q-2 -1 -5.5 -6t-6.5 -9
l-27 22q0 1 10 14zM108 281q-2 -9 -3 -13l-34 11q1 1 1.5 4t1.5 5.5t3 5.5zM408 24q-9 -4 -22 -12l-13 26q1 1 18 12zM98 233v-12l-38 3q0 4 2 14zM101 175l-36 -6q0 1 -1 5.5t-2 8.5l36 4q0 -4 3 -12zM312 -8q-18 -2 -27 -2h-1v25q10 0 24 1zM115 127l-31 -15l-6 14l32 14
q5 -8 5 -13zM149 74l-21 -21q-1 1 -4 5t-6 6.5t-4 4.5l24 19q9 -8 11 -14zM215 28l-10 -24l-23 10l13 24q3 -1 5.5 -2t7 -3.5t7.5 -4.5z" />
    <glyph glyph-name="D" unicode="D" 
d="M389 410l-14 -25q-1 1 -8 4.5t-11 6.5l10 25q2 -2 23 -11zM458 354l-26 -21q-2 2 -4 5.5t-3.5 5.5t-2.5 3l22 23q8 -6 14 -16zM495 295l-37 -14q0 2 -3 12l33 16q2 -7 7 -14zM285 436l-1 -26q-2 0 -11 -0.5t-13 -0.5l-3 26q5 0 14 0.5t13 0.5h1zM510 238l-40 -5v6
q-1 1 -1 6l38 6q3 -9 3 -13zM510 196q0 -4 -3 -14l-38 6q0 4 1 5v6zM193 384q-1 0 -4 -2t-6.5 -4.5t-6.5 -5.5l-16 26q2 0 8.5 4.5t11.5 7.5zM498 140q0 -1 -2.5 -7t-2.5 -7l-35 14q0 1 2 6t2 7zM136 333q0 -1 -3 -5l-6 -8l-26 19q3 6 11 15zM468 81q-2 -1 -5.5 -6t-6.5 -9
l-27 22q0 1 10 14zM108 281q-2 -9 -3 -13l-34 11q1 1 1.5 4t1.5 5.5t3 5.5zM408 24q-9 -4 -22 -12l-13 26q1 1 18 12zM98 233v-12l-38 3q0 4 2 14zM101 175l-36 -6q0 1 -1 5.5t-2 8.5l36 4q0 -4 3 -12zM312 -8q-18 -2 -27 -2h-1v25q10 0 24 1zM115 127l-31 -15l-6 14l32 14
q5 -8 5 -13zM149 74l-21 -21q-1 1 -4 5t-6 6.5t-4 4.5l24 19q9 -8 11 -14zM215 28l-10 -24l-23 10l13 24q3 -1 5.5 -2t7 -3.5t7.5 -4.5z" />
    <glyph glyph-name="E" unicode="E" 
d="M389 410l-14 -25q-1 1 -8 4.5t-11 6.5l10 25q2 -2 23 -11zM458 354l-26 -21q-2 2 -4 5.5t-3.5 5.5t-2.5 3l22 23q8 -6 14 -16zM495 295l-37 -14q0 2 -3 12l33 16q2 -7 7 -14zM285 436l-1 -26q-2 0 -11 -0.5t-13 -0.5l-3 26q5 0 14 0.5t13 0.5h1zM510 238l-40 -5v6
q-1 1 -1 6l38 6q3 -9 3 -13zM510 196q0 -4 -3 -14l-38 6q0 4 1 5v6zM193 384q-1 0 -4 -2t-6.5 -4.5t-6.5 -5.5l-16 26q2 0 8.5 4.5t11.5 7.5zM498 140q0 -1 -2.5 -7t-2.5 -7l-35 14q0 1 2 6t2 7zM136 333q0 -1 -3 -5l-6 -8l-26 19q3 6 11 15zM468 81q-2 -1 -5.5 -6t-6.5 -9
l-27 22q0 1 10 14zM108 281q-2 -9 -3 -13l-34 11q1 1 1.5 4t1.5 5.5t3 5.5zM408 24q-9 -4 -22 -12l-13 26q1 1 18 12zM98 233v-12l-38 3q0 4 2 14zM101 175l-36 -6q0 1 -1 5.5t-2 8.5l36 4q0 -4 3 -12zM312 -8q-18 -2 -27 -2h-1v25q10 0 24 1zM115 127l-31 -15l-6 14l32 14
q5 -8 5 -13zM149 74l-21 -21q-1 1 -4 5t-6 6.5t-4 4.5l24 19q9 -8 11 -14zM215 28l-10 -24l-23 10l13 24q3 -1 5.5 -2t7 -3.5t7.5 -4.5z" />
    <glyph glyph-name="F" unicode="F" 
d="M389 410l-14 -25q-1 1 -8 4.5t-11 6.5l10 25q2 -2 23 -11zM458 354l-26 -21q-2 2 -4 5.5t-3.5 5.5t-2.5 3l22 23q8 -6 14 -16zM495 295l-37 -14q0 2 -3 12l33 16q2 -7 7 -14zM285 436l-1 -26q-2 0 -11 -0.5t-13 -0.5l-3 26q5 0 14 0.5t13 0.5h1zM510 238l-40 -5v6
q-1 1 -1 6l38 6q3 -9 3 -13zM510 196q0 -4 -3 -14l-38 6q0 4 1 5v6zM193 384q-1 0 -4 -2t-6.5 -4.5t-6.5 -5.5l-16 26q2 0 8.5 4.5t11.5 7.5zM498 140q0 -1 -2.5 -7t-2.5 -7l-35 14q0 1 2 6t2 7zM136 333q0 -1 -3 -5l-6 -8l-26 19q3 6 11 15zM468 81q-2 -1 -5.5 -6t-6.5 -9
l-27 22q0 1 10 14zM108 281q-2 -9 -3 -13l-34 11q1 1 1.5 4t1.5 5.5t3 5.5zM408 24q-9 -4 -22 -12l-13 26q1 1 18 12zM98 233v-12l-38 3q0 4 2 14zM101 175l-36 -6q0 1 -1 5.5t-2 8.5l36 4q0 -4 3 -12zM312 -8q-18 -2 -27 -2h-1v25q10 0 24 1zM115 127l-31 -15l-6 14l32 14
q5 -8 5 -13zM149 74l-21 -21q-1 1 -4 5t-6 6.5t-4 4.5l24 19q9 -8 11 -14zM215 28l-10 -24l-23 10l13 24q3 -1 5.5 -2t7 -3.5t7.5 -4.5z" />
    <glyph glyph-name="G" unicode="G" 
d="M389 410l-14 -25q-1 1 -8 4.5t-11 6.5l10 25q2 -2 23 -11zM458 354l-26 -21q-2 2 -4 5.5t-3.5 5.5t-2.5 3l22 23q8 -6 14 -16zM495 295l-37 -14q0 2 -3 12l33 16q2 -7 7 -14zM285 436l-1 -26q-2 0 -11 -0.5t-13 -0.5l-3 26q5 0 14 0.5t13 0.5h1zM510 238l-40 -5v6
q-1 1 -1 6l38 6q3 -9 3 -13zM510 196q0 -4 -3 -14l-38 6q0 4 1 5v6zM193 384q-1 0 -4 -2t-6.5 -4.5t-6.5 -5.5l-16 26q2 0 8.5 4.5t11.5 7.5zM498 140q0 -1 -2.5 -7t-2.5 -7l-35 14q0 1 2 6t2 7zM136 333q0 -1 -3 -5l-6 -8l-26 19q3 6 11 15zM468 81q-2 -1 -5.5 -6t-6.5 -9
l-27 22q0 1 10 14zM108 281q-2 -9 -3 -13l-34 11q1 1 1.5 4t1.5 5.5t3 5.5zM408 24q-9 -4 -22 -12l-13 26q1 1 18 12zM98 233v-12l-38 3q0 4 2 14zM101 175l-36 -6q0 1 -1 5.5t-2 8.5l36 4q0 -4 3 -12zM312 -8q-18 -2 -27 -2h-1v25q10 0 24 1zM115 127l-31 -15l-6 14l32 14
q5 -8 5 -13zM149 74l-21 -21q-1 1 -4 5t-6 6.5t-4 4.5l24 19q9 -8 11 -14zM215 28l-10 -24l-23 10l13 24q3 -1 5.5 -2t7 -3.5t7.5 -4.5z" />
    <glyph glyph-name="H" unicode="H" 
d="M389 410l-14 -25q-1 1 -8 4.5t-11 6.5l10 25q2 -2 23 -11zM458 354l-26 -21q-2 2 -4 5.5t-3.5 5.5t-2.5 3l22 23q8 -6 14 -16zM495 295l-37 -14q0 2 -3 12l33 16q2 -7 7 -14zM285 436l-1 -26q-2 0 -11 -0.5t-13 -0.5l-3 26q5 0 14 0.5t13 0.5h1zM510 238l-40 -5v6
q-1 1 -1 6l38 6q3 -9 3 -13zM510 196q0 -4 -3 -14l-38 6q0 4 1 5v6zM193 384q-1 0 -4 -2t-6.5 -4.5t-6.5 -5.5l-16 26q2 0 8.5 4.5t11.5 7.5zM498 140q0 -1 -2.5 -7t-2.5 -7l-35 14q0 1 2 6t2 7zM136 333q0 -1 -3 -5l-6 -8l-26 19q3 6 11 15zM468 81q-2 -1 -5.5 -6t-6.5 -9
l-27 22q0 1 10 14zM108 281q-2 -9 -3 -13l-34 11q1 1 1.5 4t1.5 5.5t3 5.5zM408 24q-9 -4 -22 -12l-13 26q1 1 18 12zM98 233v-12l-38 3q0 4 2 14zM101 175l-36 -6q0 1 -1 5.5t-2 8.5l36 4q0 -4 3 -12zM312 -8q-18 -2 -27 -2h-1v25q10 0 24 1zM115 127l-31 -15l-6 14l32 14
q5 -8 5 -13zM149 74l-21 -21q-1 1 -4 5t-6 6.5t-4 4.5l24 19q9 -8 11 -14zM215 28l-10 -24l-23 10l13 24q3 -1 5.5 -2t7 -3.5t7.5 -4.5z" />
    <glyph glyph-name="I" unicode="I" 
d="M389 410l-14 -25q-1 1 -8 4.5t-11 6.5l10 25q2 -2 23 -11zM458 354l-26 -21q-2 2 -4 5.5t-3.5 5.5t-2.5 3l22 23q8 -6 14 -16zM495 295l-37 -14q0 2 -3 12l33 16q2 -7 7 -14zM285 436l-1 -26q-2 0 -11 -0.5t-13 -0.5l-3 26q5 0 14 0.5t13 0.5h1zM510 238l-40 -5v6
q-1 1 -1 6l38 6q3 -9 3 -13zM510 196q0 -4 -3 -14l-38 6q0 4 1 5v6zM193 384q-1 0 -4 -2t-6.5 -4.5t-6.5 -5.5l-16 26q2 0 8.5 4.5t11.5 7.5zM498 140q0 -1 -2.5 -7t-2.5 -7l-35 14q0 1 2 6t2 7zM136 333q0 -1 -3 -5l-6 -8l-26 19q3 6 11 15zM468 81q-2 -1 -5.5 -6t-6.5 -9
l-27 22q0 1 10 14zM108 281q-2 -9 -3 -13l-34 11q1 1 1.5 4t1.5 5.5t3 5.5zM408 24q-9 -4 -22 -12l-13 26q1 1 18 12zM98 233v-12l-38 3q0 4 2 14zM101 175l-36 -6q0 1 -1 5.5t-2 8.5l36 4q0 -4 3 -12zM312 -8q-18 -2 -27 -2h-1v25q10 0 24 1zM115 127l-31 -15l-6 14l32 14
q5 -8 5 -13zM149 74l-21 -21q-1 1 -4 5t-6 6.5t-4 4.5l24 19q9 -8 11 -14zM215 28l-10 -24l-23 10l13 24q3 -1 5.5 -2t7 -3.5t7.5 -4.5z" />
    <glyph glyph-name="J" unicode="J" horiz-adv-x="720" 
d="M720 820h-720v20h720v-20zM328 800q-40 0 -80 -20q-82 -42 -148 -104q-92 -88 -146 -190q-26 -36 -6 -50q10 -6 26 14q112 150 164 192q74 56 134 68q24 8 55 7t57 -19q66 -44 92 -88q-2 -56 -8 -92q-24 -134 -28 -160q-2 60 -4 88q0 18 3 49t3 39q2 56 -22 92
q-18 24 -44 38q-22 10 -42 8q-16 0 -34 -20q-44 -46 -46 -88q-4 -66 42 -108q8 -8 17 -10t14 0t15 7l14 7q2 2 6 7t6 5q10 -300 2 -450q-2 -14 8 -22q10 -14 20 -12q18 6 30 31t14 39v2q20 66 64 286q20 100 32 170q4 18 10 47t9 48t3 29q0 8 -4 14q-64 84 -106 108
q-54 34 -118 38h-4zM338 594q12 0 23 -9t15 -19q2 -8 -3 -18t-13 -12q-12 -2 -24 8t-14 22q-8 20 8 26q4 2 8 2z" />
    <glyph glyph-name="K" unicode="K" horiz-adv-x="720" 
d="M720 820h-720v20h720v-20zM410 800h-10q-76 -6 -140 -50t-110 -100l-30 -50q44 8 74 -18q20 -16 32 -28q-2 -8 -4 -31t-4 -39q-8 -72 -18 -187t-16 -191t-6 -80q0 -12 8 -22q4 -6 20 2q44 24 44 56q20 256 40 414q10 86 12 90l2 5l3 8l4 8l10 11l17 16q26 22 20 38
q-4 8 -30 6q-10 0 -18 -8q-10 -10 -26 -20q-4 4 -12 8t-10 6q-6 4 -17 9t-15 7q10 10 18 17t14 11t17 11t21 13q28 20 52 21t44 -7q26 -4 53 -19t57 -37t44 -30l40 -20q4 -2 10 -4t7 -6t-1 -22v-6q-10 -96 -21 -235t-17 -226t-6 -89q-2 -14 6 -22q6 -8 20 0q14 6 29 25
t17 25q36 324 56 546q0 6 2 15t3 14t1 10t-4 7t-12 2q-10 0 -26 11t-36 27t-32 24t-43 29t-54 33t-47 18q-16 4 -32 4z" />
    <glyph glyph-name="L" unicode="L" 
d="M389 410l-14 -25q-1 1 -8 4.5t-11 6.5l10 25q2 -2 23 -11zM458 354l-26 -21q-2 2 -4 5.5t-3.5 5.5t-2.5 3l22 23q8 -6 14 -16zM495 295l-37 -14q0 2 -3 12l33 16q2 -7 7 -14zM285 436l-1 -26q-2 0 -11 -0.5t-13 -0.5l-3 26q5 0 14 0.5t13 0.5h1zM510 238l-40 -5v6
q-1 1 -1 6l38 6q3 -9 3 -13zM510 196q0 -4 -3 -14l-38 6q0 4 1 5v6zM193 384q-1 0 -4 -2t-6.5 -4.5t-6.5 -5.5l-16 26q2 0 8.5 4.5t11.5 7.5zM498 140q0 -1 -2.5 -7t-2.5 -7l-35 14q0 1 2 6t2 7zM136 333q0 -1 -3 -5l-6 -8l-26 19q3 6 11 15zM468 81q-2 -1 -5.5 -6t-6.5 -9
l-27 22q0 1 10 14zM108 281q-2 -9 -3 -13l-34 11q1 1 1.5 4t1.5 5.5t3 5.5zM408 24q-9 -4 -22 -12l-13 26q1 1 18 12zM98 233v-12l-38 3q0 4 2 14zM101 175l-36 -6q0 1 -1 5.5t-2 8.5l36 4q0 -4 3 -12zM312 -8q-18 -2 -27 -2h-1v25q10 0 24 1zM115 127l-31 -15l-6 14l32 14
q5 -8 5 -13zM149 74l-21 -21q-1 1 -4 5t-6 6.5t-4 4.5l24 19q9 -8 11 -14zM215 28l-10 -24l-23 10l13 24q3 -1 5.5 -2t7 -3.5t7.5 -4.5z" />
    <glyph glyph-name="M" unicode="M" 
d="M389 410l-14 -25q-1 1 -8 4.5t-11 6.5l10 25q2 -2 23 -11zM458 354l-26 -21q-2 2 -4 5.5t-3.5 5.5t-2.5 3l22 23q8 -6 14 -16zM495 295l-37 -14q0 2 -3 12l33 16q2 -7 7 -14zM285 436l-1 -26q-2 0 -11 -0.5t-13 -0.5l-3 26q5 0 14 0.5t13 0.5h1zM510 238l-40 -5v6
q-1 1 -1 6l38 6q3 -9 3 -13zM510 196q0 -4 -3 -14l-38 6q0 4 1 5v6zM193 384q-1 0 -4 -2t-6.5 -4.5t-6.5 -5.5l-16 26q2 0 8.5 4.5t11.5 7.5zM498 140q0 -1 -2.5 -7t-2.5 -7l-35 14q0 1 2 6t2 7zM136 333q0 -1 -3 -5l-6 -8l-26 19q3 6 11 15zM468 81q-2 -1 -5.5 -6t-6.5 -9
l-27 22q0 1 10 14zM108 281q-2 -9 -3 -13l-34 11q1 1 1.5 4t1.5 5.5t3 5.5zM408 24q-9 -4 -22 -12l-13 26q1 1 18 12zM98 233v-12l-38 3q0 4 2 14zM101 175l-36 -6q0 1 -1 5.5t-2 8.5l36 4q0 -4 3 -12zM312 -8q-18 -2 -27 -2h-1v25q10 0 24 1zM115 127l-31 -15l-6 14l32 14
q5 -8 5 -13zM149 74l-21 -21q-1 1 -4 5t-6 6.5t-4 4.5l24 19q9 -8 11 -14zM215 28l-10 -24l-23 10l13 24q3 -1 5.5 -2t7 -3.5t7.5 -4.5z" />
    <glyph glyph-name="N" unicode="N" 
d="M389 410l-14 -25q-1 1 -8 4.5t-11 6.5l10 25q2 -2 23 -11zM458 354l-26 -21q-2 2 -4 5.5t-3.5 5.5t-2.5 3l22 23q8 -6 14 -16zM495 295l-37 -14q0 2 -3 12l33 16q2 -7 7 -14zM285 436l-1 -26q-2 0 -11 -0.5t-13 -0.5l-3 26q5 0 14 0.5t13 0.5h1zM510 238l-40 -5v6
q-1 1 -1 6l38 6q3 -9 3 -13zM510 196q0 -4 -3 -14l-38 6q0 4 1 5v6zM193 384q-1 0 -4 -2t-6.5 -4.5t-6.5 -5.5l-16 26q2 0 8.5 4.5t11.5 7.5zM498 140q0 -1 -2.5 -7t-2.5 -7l-35 14q0 1 2 6t2 7zM136 333q0 -1 -3 -5l-6 -8l-26 19q3 6 11 15zM468 81q-2 -1 -5.5 -6t-6.5 -9
l-27 22q0 1 10 14zM108 281q-2 -9 -3 -13l-34 11q1 1 1.5 4t1.5 5.5t3 5.5zM408 24q-9 -4 -22 -12l-13 26q1 1 18 12zM98 233v-12l-38 3q0 4 2 14zM101 175l-36 -6q0 1 -1 5.5t-2 8.5l36 4q0 -4 3 -12zM312 -8q-18 -2 -27 -2h-1v25q10 0 24 1zM115 127l-31 -15l-6 14l32 14
q5 -8 5 -13zM149 74l-21 -21q-1 1 -4 5t-6 6.5t-4 4.5l24 19q9 -8 11 -14zM215 28l-10 -24l-23 10l13 24q3 -1 5.5 -2t7 -3.5t7.5 -4.5z" />
    <glyph glyph-name="O" unicode="O" horiz-adv-x="720" 
d="M720 820h-720v20h720v-20zM346 800q-68 0 -96 -36q-38 -54 -85 -132t-61 -98q-8 -10 -6 -28t12 -22q8 -2 14 3t14 18l8 13q132 174 138 184q36 26 104 -12q46 -26 64 -46q8 -8 17 -16t9 -9t3 -10t-3 -17q-4 -10 -7 -18t-5 -17t-4 -15t-4 -19t-3 -20t-3 -24t-2 -27t-2 -34
t-4 -38q-4 -42 -15 -135t-13 -139q-4 -12 -24 -20q-26 -10 -62 -10q-62 8 -76 24q-4 60 0 126t5 76t11 66q22 -8 42 2q70 38 90 114q14 52 12 90q0 30 -10 50q-14 28 -42 36q-26 8 -50 -8q-14 -8 -28 -28q-12 -20 -30 -62q-10 -28 -20 -60q-20 0 -28 -16q-8 -14 0 -70
q2 -18 6 -22q-24 -182 -18 -344q2 -40 50 -62q36 -16 82 -20q50 -2 88 14q50 20 60 62q2 8 6 38q2 16 24 290q10 130 32 206q12 38 11 47t-23 47q-88 122 -172 128h-6zM342 568q10 0 10 -16q2 -16 -8 -54q-10 -34 -36 -36q-8 0 -22 6q16 56 24 72q16 26 32 28z" />
    <glyph glyph-name="P" unicode="P" 
d="M389 410l-14 -25q-1 1 -8 4.5t-11 6.5l10 25q2 -2 23 -11zM458 354l-26 -21q-2 2 -4 5.5t-3.5 5.5t-2.5 3l22 23q8 -6 14 -16zM495 295l-37 -14q0 2 -3 12l33 16q2 -7 7 -14zM285 436l-1 -26q-2 0 -11 -0.5t-13 -0.5l-3 26q5 0 14 0.5t13 0.5h1zM510 238l-40 -5v6
q-1 1 -1 6l38 6q3 -9 3 -13zM510 196q0 -4 -3 -14l-38 6q0 4 1 5v6zM193 384q-1 0 -4 -2t-6.5 -4.5t-6.5 -5.5l-16 26q2 0 8.5 4.5t11.5 7.5zM498 140q0 -1 -2.5 -7t-2.5 -7l-35 14q0 1 2 6t2 7zM136 333q0 -1 -3 -5l-6 -8l-26 19q3 6 11 15zM468 81q-2 -1 -5.5 -6t-6.5 -9
l-27 22q0 1 10 14zM108 281q-2 -9 -3 -13l-34 11q1 1 1.5 4t1.5 5.5t3 5.5zM408 24q-9 -4 -22 -12l-13 26q1 1 18 12zM98 233v-12l-38 3q0 4 2 14zM101 175l-36 -6q0 1 -1 5.5t-2 8.5l36 4q0 -4 3 -12zM312 -8q-18 -2 -27 -2h-1v25q10 0 24 1zM115 127l-31 -15l-6 14l32 14
q5 -8 5 -13zM149 74l-21 -21q-1 1 -4 5t-6 6.5t-4 4.5l24 19q9 -8 11 -14zM215 28l-10 -24l-23 10l13 24q3 -1 5.5 -2t7 -3.5t7.5 -4.5z" />
    <glyph glyph-name="Q" unicode="Q" 
d="M389 410l-14 -25q-1 1 -8 4.5t-11 6.5l10 25q2 -2 23 -11zM458 354l-26 -21q-2 2 -4 5.5t-3.5 5.5t-2.5 3l22 23q8 -6 14 -16zM495 295l-37 -14q0 2 -3 12l33 16q2 -7 7 -14zM285 436l-1 -26q-2 0 -11 -0.5t-13 -0.5l-3 26q5 0 14 0.5t13 0.5h1zM510 238l-40 -5v6
q-1 1 -1 6l38 6q3 -9 3 -13zM510 196q0 -4 -3 -14l-38 6q0 4 1 5v6zM193 384q-1 0 -4 -2t-6.5 -4.5t-6.5 -5.5l-16 26q2 0 8.5 4.5t11.5 7.5zM498 140q0 -1 -2.5 -7t-2.5 -7l-35 14q0 1 2 6t2 7zM136 333q0 -1 -3 -5l-6 -8l-26 19q3 6 11 15zM468 81q-2 -1 -5.5 -6t-6.5 -9
l-27 22q0 1 10 14zM108 281q-2 -9 -3 -13l-34 11q1 1 1.5 4t1.5 5.5t3 5.5zM408 24q-9 -4 -22 -12l-13 26q1 1 18 12zM98 233v-12l-38 3q0 4 2 14zM101 175l-36 -6q0 1 -1 5.5t-2 8.5l36 4q0 -4 3 -12zM312 -8q-18 -2 -27 -2h-1v25q10 0 24 1zM115 127l-31 -15l-6 14l32 14
q5 -8 5 -13zM149 74l-21 -21q-1 1 -4 5t-6 6.5t-4 4.5l24 19q9 -8 11 -14zM215 28l-10 -24l-23 10l13 24q3 -1 5.5 -2t7 -3.5t7.5 -4.5z" />
    <glyph glyph-name="R" unicode="R" horiz-adv-x="720" 
d="M720 820h-720v20h720v-20zM428 810h-4q-20 0 -52 -12q-56 -18 -91 -45t-75 -71q-10 -14 -2 -30q6 -14 46 -14q68 0 100 -18q48 -28 50 -58q0 -18 -4 -46t-13 -78t-15 -88q-2 -20 -14 -68t-14 -62q-28 14 -60 0q-50 -20 -70 -72q-18 -46 -4 -84q12 -38 50 -54
q36 -18 70 -6t60 62q8 14 11 31t6 40t5 39q6 28 12 84t8 76q6 40 17 105t17 106t6 61q0 12 -2 18q-14 6 -39 32t-41 32q-14 8 -48 12q20 14 34 18q38 6 54 -6q62 -48 74 -54q14 -6 46 14q8 4 21 17t13 19q4 20 -10 20q-18 0 -30 6t-31 25l-25 25q-30 24 -56 24zM298 160h2
q14 -2 24 -17t6 -33q-6 -30 -20 -30q-16 0 -28 17t-12 33q0 10 9 20t19 10z" />
    <glyph glyph-name="S" unicode="S" horiz-adv-x="720" 
d="M720 820h-720v20h720v-20zM428 810h-4q-20 0 -52 -12q-56 -18 -91 -45t-75 -71q-10 -14 -2 -30q6 -14 46 -14q68 0 100 -18q48 -28 50 -58q0 -18 -4 -46t-13 -78t-15 -88q-2 -20 -14 -68t-14 -62q-28 14 -60 0q-50 -20 -70 -72q-18 -46 -4 -84q12 -38 50 -54
q36 -18 70 -6t60 62q8 14 11 31t6 40t5 39q6 28 12 84t8 76q6 40 17 105t17 106t6 61q0 12 -2 18q-14 6 -39 32t-41 32q-14 8 -48 12q20 14 34 18q38 6 54 -6q62 -48 74 -54q14 -6 46 14q8 4 21 17t13 19q4 20 -10 20q-18 0 -30 6t-31 25l-25 25q-30 24 -56 24zM298 160h2
q14 -2 24 -17t6 -33q-6 -30 -20 -30q-16 0 -28 17t-12 33q0 10 9 20t19 10z" />
    <glyph glyph-name="T" unicode="T" 
d="M389 410l-14 -25q-1 1 -8 4.5t-11 6.5l10 25q2 -2 23 -11zM458 354l-26 -21q-2 2 -4 5.5t-3.5 5.5t-2.5 3l22 23q8 -6 14 -16zM495 295l-37 -14q0 2 -3 12l33 16q2 -7 7 -14zM285 436l-1 -26q-2 0 -11 -0.5t-13 -0.5l-3 26q5 0 14 0.5t13 0.5h1zM510 238l-40 -5v6
q-1 1 -1 6l38 6q3 -9 3 -13zM510 196q0 -4 -3 -14l-38 6q0 4 1 5v6zM193 384q-1 0 -4 -2t-6.5 -4.5t-6.5 -5.5l-16 26q2 0 8.5 4.5t11.5 7.5zM498 140q0 -1 -2.5 -7t-2.5 -7l-35 14q0 1 2 6t2 7zM136 333q0 -1 -3 -5l-6 -8l-26 19q3 6 11 15zM468 81q-2 -1 -5.5 -6t-6.5 -9
l-27 22q0 1 10 14zM108 281q-2 -9 -3 -13l-34 11q1 1 1.5 4t1.5 5.5t3 5.5zM408 24q-9 -4 -22 -12l-13 26q1 1 18 12zM98 233v-12l-38 3q0 4 2 14zM101 175l-36 -6q0 1 -1 5.5t-2 8.5l36 4q0 -4 3 -12zM312 -8q-18 -2 -27 -2h-1v25q10 0 24 1zM115 127l-31 -15l-6 14l32 14
q5 -8 5 -13zM149 74l-21 -21q-1 1 -4 5t-6 6.5t-4 4.5l24 19q9 -8 11 -14zM215 28l-10 -24l-23 10l13 24q3 -1 5.5 -2t7 -3.5t7.5 -4.5z" />
    <glyph glyph-name="U" unicode="U" horiz-adv-x="0" 
d="M-58 1578h-4q-52 -2 -92 -52q-38 -48 -36 -100q2 -36 38 -74q36 -36 74 -34q52 2 92 52q38 48 36 100q-2 32 -39 70t-69 38zM-88 1490h10q20 -6 38 -25t14 -39q-2 -10 -15 -14t-25 -2q-20 6 -38 25t-14 39q4 16 30 16zM-390 1290q-138 2 -290 -74q-16 -8 -40 -27t-40 -33
l-16 -16q8 2 21 6t42 10t45 4q94 -8 211 -51t189 -85q108 -66 172 -154q50 -70 50 -120q40 60 54 100q60 186 -74 336q-96 104 -324 104zM-410 1232q8 0 18 -2q16 0 30 -2q110 -12 216 -102q44 -34 61 -77t15 -109q-24 54 -68 92t-116 80q-122 70 -292 96q70 24 136 24z" />
    <glyph glyph-name="V" unicode="V" horiz-adv-x="720" 
d="M720 820h-720v20h720v-20zM428 800q-8 0 -18 -2q-48 -6 -78 -36q-32 -32 -36 -86q-6 -58 24 -94q24 -26 68 -32l-4 -12q-24 -114 -54 -322q-34 90 -102 205t-102 163t-102 138q-4 6 -21 15t-23 9q-6 -4 -4 -45t10 -73q6 -22 14 -32q68 -96 100 -144t86 -136t79 -161
t29 -137q2 -8 14 -16q2 -2 4 -2v-2q6 0 19 10t21 30q14 28 20 76q32 234 72 412q2 10 34 58q30 46 40 90q12 62 -22 98q-24 24 -62 26q-4 0 -6 2zM404 722h6q14 0 22 -6q20 -22 16 -50q-4 -14 -18 -22q-10 -6 -26 -4q-24 2 -30 12q-22 30 0 60q8 10 30 10z" />
    <glyph glyph-name="W" unicode="W" 
d="M389 410l-14 -25q-1 1 -8 4.5t-11 6.5l10 25q2 -2 23 -11zM458 354l-26 -21q-2 2 -4 5.5t-3.5 5.5t-2.5 3l22 23q8 -6 14 -16zM495 295l-37 -14q0 2 -3 12l33 16q2 -7 7 -14zM285 436l-1 -26q-2 0 -11 -0.5t-13 -0.5l-3 26q5 0 14 0.5t13 0.5h1zM510 238l-40 -5v6
q-1 1 -1 6l38 6q3 -9 3 -13zM510 196q0 -4 -3 -14l-38 6q0 4 1 5v6zM193 384q-1 0 -4 -2t-6.5 -4.5t-6.5 -5.5l-16 26q2 0 8.5 4.5t11.5 7.5zM498 140q0 -1 -2.5 -7t-2.5 -7l-35 14q0 1 2 6t2 7zM136 333q0 -1 -3 -5l-6 -8l-26 19q3 6 11 15zM468 81q-2 -1 -5.5 -6t-6.5 -9
l-27 22q0 1 10 14zM108 281q-2 -9 -3 -13l-34 11q1 1 1.5 4t1.5 5.5t3 5.5zM408 24q-9 -4 -22 -12l-13 26q1 1 18 12zM98 233v-12l-38 3q0 4 2 14zM101 175l-36 -6q0 1 -1 5.5t-2 8.5l36 4q0 -4 3 -12zM312 -8q-18 -2 -27 -2h-1v25q10 0 24 1zM115 127l-31 -15l-6 14l32 14
q5 -8 5 -13zM149 74l-21 -21q-1 1 -4 5t-6 6.5t-4 4.5l24 19q9 -8 11 -14zM215 28l-10 -24l-23 10l13 24q3 -1 5.5 -2t7 -3.5t7.5 -4.5z" />
    <glyph glyph-name="X" unicode="X" 
d="M389 410l-14 -25q-1 1 -8 4.5t-11 6.5l10 25q2 -2 23 -11zM458 354l-26 -21q-2 2 -4 5.5t-3.5 5.5t-2.5 3l22 23q8 -6 14 -16zM495 295l-37 -14q0 2 -3 12l33 16q2 -7 7 -14zM285 436l-1 -26q-2 0 -11 -0.5t-13 -0.5l-3 26q5 0 14 0.5t13 0.5h1zM510 238l-40 -5v6
q-1 1 -1 6l38 6q3 -9 3 -13zM510 196q0 -4 -3 -14l-38 6q0 4 1 5v6zM193 384q-1 0 -4 -2t-6.5 -4.5t-6.5 -5.5l-16 26q2 0 8.5 4.5t11.5 7.5zM498 140q0 -1 -2.5 -7t-2.5 -7l-35 14q0 1 2 6t2 7zM136 333q0 -1 -3 -5l-6 -8l-26 19q3 6 11 15zM468 81q-2 -1 -5.5 -6t-6.5 -9
l-27 22q0 1 10 14zM108 281q-2 -9 -3 -13l-34 11q1 1 1.5 4t1.5 5.5t3 5.5zM408 24q-9 -4 -22 -12l-13 26q1 1 18 12zM98 233v-12l-38 3q0 4 2 14zM101 175l-36 -6q0 1 -1 5.5t-2 8.5l36 4q0 -4 3 -12zM312 -8q-18 -2 -27 -2h-1v25q10 0 24 1zM115 127l-31 -15l-6 14l32 14
q5 -8 5 -13zM149 74l-21 -21q-1 1 -4 5t-6 6.5t-4 4.5l24 19q9 -8 11 -14zM215 28l-10 -24l-23 10l13 24q3 -1 5.5 -2t7 -3.5t7.5 -4.5z" />
    <glyph glyph-name="Y" unicode="Y" 
d="M389 410l-14 -25q-1 1 -8 4.5t-11 6.5l10 25q2 -2 23 -11zM458 354l-26 -21q-2 2 -4 5.5t-3.5 5.5t-2.5 3l22 23q8 -6 14 -16zM495 295l-37 -14q0 2 -3 12l33 16q2 -7 7 -14zM285 436l-1 -26q-2 0 -11 -0.5t-13 -0.5l-3 26q5 0 14 0.5t13 0.5h1zM510 238l-40 -5v6
q-1 1 -1 6l38 6q3 -9 3 -13zM510 196q0 -4 -3 -14l-38 6q0 4 1 5v6zM193 384q-1 0 -4 -2t-6.5 -4.5t-6.5 -5.5l-16 26q2 0 8.5 4.5t11.5 7.5zM498 140q0 -1 -2.5 -7t-2.5 -7l-35 14q0 1 2 6t2 7zM136 333q0 -1 -3 -5l-6 -8l-26 19q3 6 11 15zM468 81q-2 -1 -5.5 -6t-6.5 -9
l-27 22q0 1 10 14zM108 281q-2 -9 -3 -13l-34 11q1 1 1.5 4t1.5 5.5t3 5.5zM408 24q-9 -4 -22 -12l-13 26q1 1 18 12zM98 233v-12l-38 3q0 4 2 14zM101 175l-36 -6q0 1 -1 5.5t-2 8.5l36 4q0 -4 3 -12zM312 -8q-18 -2 -27 -2h-1v25q10 0 24 1zM115 127l-31 -15l-6 14l32 14
q5 -8 5 -13zM149 74l-21 -21q-1 1 -4 5t-6 6.5t-4 4.5l24 19q9 -8 11 -14zM215 28l-10 -24l-23 10l13 24q3 -1 5.5 -2t7 -3.5t7.5 -4.5z" />
    <glyph glyph-name="Z" unicode="Z" 
d="M389 410l-14 -25q-1 1 -8 4.5t-11 6.5l10 25q2 -2 23 -11zM458 354l-26 -21q-2 2 -4 5.5t-3.5 5.5t-2.5 3l22 23q8 -6 14 -16zM495 295l-37 -14q0 2 -3 12l33 16q2 -7 7 -14zM285 436l-1 -26q-2 0 -11 -0.5t-13 -0.5l-3 26q5 0 14 0.5t13 0.5h1zM510 238l-40 -5v6
q-1 1 -1 6l38 6q3 -9 3 -13zM510 196q0 -4 -3 -14l-38 6q0 4 1 5v6zM193 384q-1 0 -4 -2t-6.5 -4.5t-6.5 -5.5l-16 26q2 0 8.5 4.5t11.5 7.5zM498 140q0 -1 -2.5 -7t-2.5 -7l-35 14q0 1 2 6t2 7zM136 333q0 -1 -3 -5l-6 -8l-26 19q3 6 11 15zM468 81q-2 -1 -5.5 -6t-6.5 -9
l-27 22q0 1 10 14zM108 281q-2 -9 -3 -13l-34 11q1 1 1.5 4t1.5 5.5t3 5.5zM408 24q-9 -4 -22 -12l-13 26q1 1 18 12zM98 233v-12l-38 3q0 4 2 14zM101 175l-36 -6q0 1 -1 5.5t-2 8.5l36 4q0 -4 3 -12zM312 -8q-18 -2 -27 -2h-1v25q10 0 24 1zM115 127l-31 -15l-6 14l32 14
q5 -8 5 -13zM149 74l-21 -21q-1 1 -4 5t-6 6.5t-4 4.5l24 19q9 -8 11 -14zM215 28l-10 -24l-23 10l13 24q3 -1 5.5 -2t7 -3.5t7.5 -4.5z" />
    <glyph glyph-name="bracketleft" unicode="[" 
d="M389 410l-14 -25q-1 1 -8 4.5t-11 6.5l10 25q2 -2 23 -11zM458 354l-26 -21q-2 2 -4 5.5t-3.5 5.5t-2.5 3l22 23q8 -6 14 -16zM495 295l-37 -14q0 2 -3 12l33 16q2 -7 7 -14zM285 436l-1 -26q-2 0 -11 -0.5t-13 -0.5l-3 26q5 0 14 0.5t13 0.5h1zM510 238l-40 -5v6
q-1 1 -1 6l38 6q3 -9 3 -13zM510 196q0 -4 -3 -14l-38 6q0 4 1 5v6zM193 384q-1 0 -4 -2t-6.5 -4.5t-6.5 -5.5l-16 26q2 0 8.5 4.5t11.5 7.5zM498 140q0 -1 -2.5 -7t-2.5 -7l-35 14q0 1 2 6t2 7zM136 333q0 -1 -3 -5l-6 -8l-26 19q3 6 11 15zM468 81q-2 -1 -5.5 -6t-6.5 -9
l-27 22q0 1 10 14zM108 281q-2 -9 -3 -13l-34 11q1 1 1.5 4t1.5 5.5t3 5.5zM408 24q-9 -4 -22 -12l-13 26q1 1 18 12zM98 233v-12l-38 3q0 4 2 14zM101 175l-36 -6q0 1 -1 5.5t-2 8.5l36 4q0 -4 3 -12zM312 -8q-18 -2 -27 -2h-1v25q10 0 24 1zM115 127l-31 -15l-6 14l32 14
q5 -8 5 -13zM149 74l-21 -21q-1 1 -4 5t-6 6.5t-4 4.5l24 19q9 -8 11 -14zM215 28l-10 -24l-23 10l13 24q3 -1 5.5 -2t7 -3.5t7.5 -4.5z" />
    <glyph glyph-name="backslash" unicode="\" 
d="M389 410l-14 -25q-1 1 -8 4.5t-11 6.5l10 25q2 -2 23 -11zM458 354l-26 -21q-2 2 -4 5.5t-3.5 5.5t-2.5 3l22 23q8 -6 14 -16zM495 295l-37 -14q0 2 -3 12l33 16q2 -7 7 -14zM285 436l-1 -26q-2 0 -11 -0.5t-13 -0.5l-3 26q5 0 14 0.5t13 0.5h1zM510 238l-40 -5v6
q-1 1 -1 6l38 6q3 -9 3 -13zM510 196q0 -4 -3 -14l-38 6q0 4 1 5v6zM193 384q-1 0 -4 -2t-6.5 -4.5t-6.5 -5.5l-16 26q2 0 8.5 4.5t11.5 7.5zM498 140q0 -1 -2.5 -7t-2.5 -7l-35 14q0 1 2 6t2 7zM136 333q0 -1 -3 -5l-6 -8l-26 19q3 6 11 15zM468 81q-2 -1 -5.5 -6t-6.5 -9
l-27 22q0 1 10 14zM108 281q-2 -9 -3 -13l-34 11q1 1 1.5 4t1.5 5.5t3 5.5zM408 24q-9 -4 -22 -12l-13 26q1 1 18 12zM98 233v-12l-38 3q0 4 2 14zM101 175l-36 -6q0 1 -1 5.5t-2 8.5l36 4q0 -4 3 -12zM312 -8q-18 -2 -27 -2h-1v25q10 0 24 1zM115 127l-31 -15l-6 14l32 14
q5 -8 5 -13zM149 74l-21 -21q-1 1 -4 5t-6 6.5t-4 4.5l24 19q9 -8 11 -14zM215 28l-10 -24l-23 10l13 24q3 -1 5.5 -2t7 -3.5t7.5 -4.5z" />
    <glyph glyph-name="bracketright" unicode="]" 
d="M389 410l-14 -25q-1 1 -8 4.5t-11 6.5l10 25q2 -2 23 -11zM458 354l-26 -21q-2 2 -4 5.5t-3.5 5.5t-2.5 3l22 23q8 -6 14 -16zM495 295l-37 -14q0 2 -3 12l33 16q2 -7 7 -14zM285 436l-1 -26q-2 0 -11 -0.5t-13 -0.5l-3 26q5 0 14 0.5t13 0.5h1zM510 238l-40 -5v6
q-1 1 -1 6l38 6q3 -9 3 -13zM510 196q0 -4 -3 -14l-38 6q0 4 1 5v6zM193 384q-1 0 -4 -2t-6.5 -4.5t-6.5 -5.5l-16 26q2 0 8.5 4.5t11.5 7.5zM498 140q0 -1 -2.5 -7t-2.5 -7l-35 14q0 1 2 6t2 7zM136 333q0 -1 -3 -5l-6 -8l-26 19q3 6 11 15zM468 81q-2 -1 -5.5 -6t-6.5 -9
l-27 22q0 1 10 14zM108 281q-2 -9 -3 -13l-34 11q1 1 1.5 4t1.5 5.5t3 5.5zM408 24q-9 -4 -22 -12l-13 26q1 1 18 12zM98 233v-12l-38 3q0 4 2 14zM101 175l-36 -6q0 1 -1 5.5t-2 8.5l36 4q0 -4 3 -12zM312 -8q-18 -2 -27 -2h-1v25q10 0 24 1zM115 127l-31 -15l-6 14l32 14
q5 -8 5 -13zM149 74l-21 -21q-1 1 -4 5t-6 6.5t-4 4.5l24 19q9 -8 11 -14zM215 28l-10 -24l-23 10l13 24q3 -1 5.5 -2t7 -3.5t7.5 -4.5z" />
    <glyph glyph-name="asciicircum" unicode="^" 
d="M389 410l-14 -25q-1 1 -8 4.5t-11 6.5l10 25q2 -2 23 -11zM458 354l-26 -21q-2 2 -4 5.5t-3.5 5.5t-2.5 3l22 23q8 -6 14 -16zM495 295l-37 -14q0 2 -3 12l33 16q2 -7 7 -14zM285 436l-1 -26q-2 0 -11 -0.5t-13 -0.5l-3 26q5 0 14 0.5t13 0.5h1zM510 238l-40 -5v6
q-1 1 -1 6l38 6q3 -9 3 -13zM510 196q0 -4 -3 -14l-38 6q0 4 1 5v6zM193 384q-1 0 -4 -2t-6.5 -4.5t-6.5 -5.5l-16 26q2 0 8.5 4.5t11.5 7.5zM498 140q0 -1 -2.5 -7t-2.5 -7l-35 14q0 1 2 6t2 7zM136 333q0 -1 -3 -5l-6 -8l-26 19q3 6 11 15zM468 81q-2 -1 -5.5 -6t-6.5 -9
l-27 22q0 1 10 14zM108 281q-2 -9 -3 -13l-34 11q1 1 1.5 4t1.5 5.5t3 5.5zM408 24q-9 -4 -22 -12l-13 26q1 1 18 12zM98 233v-12l-38 3q0 4 2 14zM101 175l-36 -6q0 1 -1 5.5t-2 8.5l36 4q0 -4 3 -12zM312 -8q-18 -2 -27 -2h-1v25q10 0 24 1zM115 127l-31 -15l-6 14l32 14
q5 -8 5 -13zM149 74l-21 -21q-1 1 -4 5t-6 6.5t-4 4.5l24 19q9 -8 11 -14zM215 28l-10 -24l-23 10l13 24q3 -1 5.5 -2t7 -3.5t7.5 -4.5z" />
    <glyph glyph-name="underscore" unicode="_" horiz-adv-x="720" 
d="M720 820h-720v20h720v-20zM-160 -50q-16 -2 -31 -22t-19 -36q-2 -16 12 -28q20 -16 42 -31t48 -31t43 -26t51 -27l46 -23l53 -25l49 -23q122 -56 377 11t409 189q42 32 30 40q-18 8 -37 3t-29 -15q-100 -70 -219 -115t-251 -56t-248 35q-172 64 -308 174q-8 6 -18 6z" />
    <glyph glyph-name="grave" unicode="`" 
d="M389 410l-14 -25q-1 1 -8 4.5t-11 6.5l10 25q2 -2 23 -11zM458 354l-26 -21q-2 2 -4 5.5t-3.5 5.5t-2.5 3l22 23q8 -6 14 -16zM495 295l-37 -14q0 2 -3 12l33 16q2 -7 7 -14zM285 436l-1 -26q-2 0 -11 -0.5t-13 -0.5l-3 26q5 0 14 0.5t13 0.5h1zM510 238l-40 -5v6
q-1 1 -1 6l38 6q3 -9 3 -13zM510 196q0 -4 -3 -14l-38 6q0 4 1 5v6zM193 384q-1 0 -4 -2t-6.5 -4.5t-6.5 -5.5l-16 26q2 0 8.5 4.5t11.5 7.5zM498 140q0 -1 -2.5 -7t-2.5 -7l-35 14q0 1 2 6t2 7zM136 333q0 -1 -3 -5l-6 -8l-26 19q3 6 11 15zM468 81q-2 -1 -5.5 -6t-6.5 -9
l-27 22q0 1 10 14zM108 281q-2 -9 -3 -13l-34 11q1 1 1.5 4t1.5 5.5t3 5.5zM408 24q-9 -4 -22 -12l-13 26q1 1 18 12zM98 233v-12l-38 3q0 4 2 14zM101 175l-36 -6q0 1 -1 5.5t-2 8.5l36 4q0 -4 3 -12zM312 -8q-18 -2 -27 -2h-1v25q10 0 24 1zM115 127l-31 -15l-6 14l32 14
q5 -8 5 -13zM149 74l-21 -21q-1 1 -4 5t-6 6.5t-4 4.5l24 19q9 -8 11 -14zM215 28l-10 -24l-23 10l13 24q3 -1 5.5 -2t7 -3.5t7.5 -4.5z" />
    <glyph glyph-name="a" unicode="a" horiz-adv-x="720" 
d="M720 820h-720v20h720v-20zM214 800h-4q-6 0 -18 -4q-18 -6 -72 -34q-40 -22 -70 -44q-78 -60 -116 -106q-12 -14 -12 -20q-4 -18 6 -22q10 -8 22 4q70 72 114 102q40 28 64 40q14 8 22 10t10 2q64 -24 158 -84q20 -12 62 -46q4 -4 10 -8t7 -5t3 -5t0 -8q-22 -98 -43 -234
t-31 -222l-10 -88q-4 -18 4 -22q16 -10 42 8q10 8 12 20q66 316 98 552q4 28 8 52q4 6 1 10t-6 3t-18 7t-35 24q-4 2 -20 15t-26 19q-112 68 -146 80q-8 4 -16 4z" />
    <glyph glyph-name="b" unicode="b" 
d="M389 410l-14 -25q-1 1 -8 4.5t-11 6.5l10 25q2 -2 23 -11zM458 354l-26 -21q-2 2 -4 5.5t-3.5 5.5t-2.5 3l22 23q8 -6 14 -16zM495 295l-37 -14q0 2 -3 12l33 16q2 -7 7 -14zM285 436l-1 -26q-2 0 -11 -0.5t-13 -0.5l-3 26q5 0 14 0.5t13 0.5h1zM510 238l-40 -5v6
q-1 1 -1 6l38 6q3 -9 3 -13zM510 196q0 -4 -3 -14l-38 6q0 4 1 5v6zM193 384q-1 0 -4 -2t-6.5 -4.5t-6.5 -5.5l-16 26q2 0 8.5 4.5t11.5 7.5zM498 140q0 -1 -2.5 -7t-2.5 -7l-35 14q0 1 2 6t2 7zM136 333q0 -1 -3 -5l-6 -8l-26 19q3 6 11 15zM468 81q-2 -1 -5.5 -6t-6.5 -9
l-27 22q0 1 10 14zM108 281q-2 -9 -3 -13l-34 11q1 1 1.5 4t1.5 5.5t3 5.5zM408 24q-9 -4 -22 -12l-13 26q1 1 18 12zM98 233v-12l-38 3q0 4 2 14zM101 175l-36 -6q0 1 -1 5.5t-2 8.5l36 4q0 -4 3 -12zM312 -8q-18 -2 -27 -2h-1v25q10 0 24 1zM115 127l-31 -15l-6 14l32 14
q5 -8 5 -13zM149 74l-21 -21q-1 1 -4 5t-6 6.5t-4 4.5l24 19q9 -8 11 -14zM215 28l-10 -24l-23 10l13 24q3 -1 5.5 -2t7 -3.5t7.5 -4.5z" />
    <glyph glyph-name="c" unicode="c" 
d="M389 410l-14 -25q-1 1 -8 4.5t-11 6.5l10 25q2 -2 23 -11zM458 354l-26 -21q-2 2 -4 5.5t-3.5 5.5t-2.5 3l22 23q8 -6 14 -16zM495 295l-37 -14q0 2 -3 12l33 16q2 -7 7 -14zM285 436l-1 -26q-2 0 -11 -0.5t-13 -0.5l-3 26q5 0 14 0.5t13 0.5h1zM510 238l-40 -5v6
q-1 1 -1 6l38 6q3 -9 3 -13zM510 196q0 -4 -3 -14l-38 6q0 4 1 5v6zM193 384q-1 0 -4 -2t-6.5 -4.5t-6.5 -5.5l-16 26q2 0 8.5 4.5t11.5 7.5zM498 140q0 -1 -2.5 -7t-2.5 -7l-35 14q0 1 2 6t2 7zM136 333q0 -1 -3 -5l-6 -8l-26 19q3 6 11 15zM468 81q-2 -1 -5.5 -6t-6.5 -9
l-27 22q0 1 10 14zM108 281q-2 -9 -3 -13l-34 11q1 1 1.5 4t1.5 5.5t3 5.5zM408 24q-9 -4 -22 -12l-13 26q1 1 18 12zM98 233v-12l-38 3q0 4 2 14zM101 175l-36 -6q0 1 -1 5.5t-2 8.5l36 4q0 -4 3 -12zM312 -8q-18 -2 -27 -2h-1v25q10 0 24 1zM115 127l-31 -15l-6 14l32 14
q5 -8 5 -13zM149 74l-21 -21q-1 1 -4 5t-6 6.5t-4 4.5l24 19q9 -8 11 -14zM215 28l-10 -24l-23 10l13 24q3 -1 5.5 -2t7 -3.5t7.5 -4.5z" />
    <glyph glyph-name="d" unicode="d" 
d="M389 410l-14 -25q-1 1 -8 4.5t-11 6.5l10 25q2 -2 23 -11zM458 354l-26 -21q-2 2 -4 5.5t-3.5 5.5t-2.5 3l22 23q8 -6 14 -16zM495 295l-37 -14q0 2 -3 12l33 16q2 -7 7 -14zM285 436l-1 -26q-2 0 -11 -0.5t-13 -0.5l-3 26q5 0 14 0.5t13 0.5h1zM510 238l-40 -5v6
q-1 1 -1 6l38 6q3 -9 3 -13zM510 196q0 -4 -3 -14l-38 6q0 4 1 5v6zM193 384q-1 0 -4 -2t-6.5 -4.5t-6.5 -5.5l-16 26q2 0 8.5 4.5t11.5 7.5zM498 140q0 -1 -2.5 -7t-2.5 -7l-35 14q0 1 2 6t2 7zM136 333q0 -1 -3 -5l-6 -8l-26 19q3 6 11 15zM468 81q-2 -1 -5.5 -6t-6.5 -9
l-27 22q0 1 10 14zM108 281q-2 -9 -3 -13l-34 11q1 1 1.5 4t1.5 5.5t3 5.5zM408 24q-9 -4 -22 -12l-13 26q1 1 18 12zM98 233v-12l-38 3q0 4 2 14zM101 175l-36 -6q0 1 -1 5.5t-2 8.5l36 4q0 -4 3 -12zM312 -8q-18 -2 -27 -2h-1v25q10 0 24 1zM115 127l-31 -15l-6 14l32 14
q5 -8 5 -13zM149 74l-21 -21q-1 1 -4 5t-6 6.5t-4 4.5l24 19q9 -8 11 -14zM215 28l-10 -24l-23 10l13 24q3 -1 5.5 -2t7 -3.5t7.5 -4.5z" />
    <glyph glyph-name="e" unicode="e" 
d="M389 410l-14 -25q-1 1 -8 4.5t-11 6.5l10 25q2 -2 23 -11zM458 354l-26 -21q-2 2 -4 5.5t-3.5 5.5t-2.5 3l22 23q8 -6 14 -16zM495 295l-37 -14q0 2 -3 12l33 16q2 -7 7 -14zM285 436l-1 -26q-2 0 -11 -0.5t-13 -0.5l-3 26q5 0 14 0.5t13 0.5h1zM510 238l-40 -5v6
q-1 1 -1 6l38 6q3 -9 3 -13zM510 196q0 -4 -3 -14l-38 6q0 4 1 5v6zM193 384q-1 0 -4 -2t-6.5 -4.5t-6.5 -5.5l-16 26q2 0 8.5 4.5t11.5 7.5zM498 140q0 -1 -2.5 -7t-2.5 -7l-35 14q0 1 2 6t2 7zM136 333q0 -1 -3 -5l-6 -8l-26 19q3 6 11 15zM468 81q-2 -1 -5.5 -6t-6.5 -9
l-27 22q0 1 10 14zM108 281q-2 -9 -3 -13l-34 11q1 1 1.5 4t1.5 5.5t3 5.5zM408 24q-9 -4 -22 -12l-13 26q1 1 18 12zM98 233v-12l-38 3q0 4 2 14zM101 175l-36 -6q0 1 -1 5.5t-2 8.5l36 4q0 -4 3 -12zM312 -8q-18 -2 -27 -2h-1v25q10 0 24 1zM115 127l-31 -15l-6 14l32 14
q5 -8 5 -13zM149 74l-21 -21q-1 1 -4 5t-6 6.5t-4 4.5l24 19q9 -8 11 -14zM215 28l-10 -24l-23 10l13 24q3 -1 5.5 -2t7 -3.5t7.5 -4.5z" />
    <glyph glyph-name="f" unicode="f" 
d="M389 410l-14 -25q-1 1 -8 4.5t-11 6.5l10 25q2 -2 23 -11zM458 354l-26 -21q-2 2 -4 5.5t-3.5 5.5t-2.5 3l22 23q8 -6 14 -16zM495 295l-37 -14q0 2 -3 12l33 16q2 -7 7 -14zM285 436l-1 -26q-2 0 -11 -0.5t-13 -0.5l-3 26q5 0 14 0.5t13 0.5h1zM510 238l-40 -5v6
q-1 1 -1 6l38 6q3 -9 3 -13zM510 196q0 -4 -3 -14l-38 6q0 4 1 5v6zM193 384q-1 0 -4 -2t-6.5 -4.5t-6.5 -5.5l-16 26q2 0 8.5 4.5t11.5 7.5zM498 140q0 -1 -2.5 -7t-2.5 -7l-35 14q0 1 2 6t2 7zM136 333q0 -1 -3 -5l-6 -8l-26 19q3 6 11 15zM468 81q-2 -1 -5.5 -6t-6.5 -9
l-27 22q0 1 10 14zM108 281q-2 -9 -3 -13l-34 11q1 1 1.5 4t1.5 5.5t3 5.5zM408 24q-9 -4 -22 -12l-13 26q1 1 18 12zM98 233v-12l-38 3q0 4 2 14zM101 175l-36 -6q0 1 -1 5.5t-2 8.5l36 4q0 -4 3 -12zM312 -8q-18 -2 -27 -2h-1v25q10 0 24 1zM115 127l-31 -15l-6 14l32 14
q5 -8 5 -13zM149 74l-21 -21q-1 1 -4 5t-6 6.5t-4 4.5l24 19q9 -8 11 -14zM215 28l-10 -24l-23 10l13 24q3 -1 5.5 -2t7 -3.5t7.5 -4.5z" />
    <glyph glyph-name="g" unicode="g" 
d="M389 410l-14 -25q-1 1 -8 4.5t-11 6.5l10 25q2 -2 23 -11zM458 354l-26 -21q-2 2 -4 5.5t-3.5 5.5t-2.5 3l22 23q8 -6 14 -16zM495 295l-37 -14q0 2 -3 12l33 16q2 -7 7 -14zM285 436l-1 -26q-2 0 -11 -0.5t-13 -0.5l-3 26q5 0 14 0.5t13 0.5h1zM510 238l-40 -5v6
q-1 1 -1 6l38 6q3 -9 3 -13zM510 196q0 -4 -3 -14l-38 6q0 4 1 5v6zM193 384q-1 0 -4 -2t-6.5 -4.5t-6.5 -5.5l-16 26q2 0 8.5 4.5t11.5 7.5zM498 140q0 -1 -2.5 -7t-2.5 -7l-35 14q0 1 2 6t2 7zM136 333q0 -1 -3 -5l-6 -8l-26 19q3 6 11 15zM468 81q-2 -1 -5.5 -6t-6.5 -9
l-27 22q0 1 10 14zM108 281q-2 -9 -3 -13l-34 11q1 1 1.5 4t1.5 5.5t3 5.5zM408 24q-9 -4 -22 -12l-13 26q1 1 18 12zM98 233v-12l-38 3q0 4 2 14zM101 175l-36 -6q0 1 -1 5.5t-2 8.5l36 4q0 -4 3 -12zM312 -8q-18 -2 -27 -2h-1v25q10 0 24 1zM115 127l-31 -15l-6 14l32 14
q5 -8 5 -13zM149 74l-21 -21q-1 1 -4 5t-6 6.5t-4 4.5l24 19q9 -8 11 -14zM215 28l-10 -24l-23 10l13 24q3 -1 5.5 -2t7 -3.5t7.5 -4.5z" />
    <glyph glyph-name="h" unicode="h" 
d="M389 410l-14 -25q-1 1 -8 4.5t-11 6.5l10 25q2 -2 23 -11zM458 354l-26 -21q-2 2 -4 5.5t-3.5 5.5t-2.5 3l22 23q8 -6 14 -16zM495 295l-37 -14q0 2 -3 12l33 16q2 -7 7 -14zM285 436l-1 -26q-2 0 -11 -0.5t-13 -0.5l-3 26q5 0 14 0.5t13 0.5h1zM510 238l-40 -5v6
q-1 1 -1 6l38 6q3 -9 3 -13zM510 196q0 -4 -3 -14l-38 6q0 4 1 5v6zM193 384q-1 0 -4 -2t-6.5 -4.5t-6.5 -5.5l-16 26q2 0 8.5 4.5t11.5 7.5zM498 140q0 -1 -2.5 -7t-2.5 -7l-35 14q0 1 2 6t2 7zM136 333q0 -1 -3 -5l-6 -8l-26 19q3 6 11 15zM468 81q-2 -1 -5.5 -6t-6.5 -9
l-27 22q0 1 10 14zM108 281q-2 -9 -3 -13l-34 11q1 1 1.5 4t1.5 5.5t3 5.5zM408 24q-9 -4 -22 -12l-13 26q1 1 18 12zM98 233v-12l-38 3q0 4 2 14zM101 175l-36 -6q0 1 -1 5.5t-2 8.5l36 4q0 -4 3 -12zM312 -8q-18 -2 -27 -2h-1v25q10 0 24 1zM115 127l-31 -15l-6 14l32 14
q5 -8 5 -13zM149 74l-21 -21q-1 1 -4 5t-6 6.5t-4 4.5l24 19q9 -8 11 -14zM215 28l-10 -24l-23 10l13 24q3 -1 5.5 -2t7 -3.5t7.5 -4.5z" />
    <glyph glyph-name="i" unicode="i" 
d="M389 410l-14 -25q-1 1 -8 4.5t-11 6.5l10 25q2 -2 23 -11zM458 354l-26 -21q-2 2 -4 5.5t-3.5 5.5t-2.5 3l22 23q8 -6 14 -16zM495 295l-37 -14q0 2 -3 12l33 16q2 -7 7 -14zM285 436l-1 -26q-2 0 -11 -0.5t-13 -0.5l-3 26q5 0 14 0.5t13 0.5h1zM510 238l-40 -5v6
q-1 1 -1 6l38 6q3 -9 3 -13zM510 196q0 -4 -3 -14l-38 6q0 4 1 5v6zM193 384q-1 0 -4 -2t-6.5 -4.5t-6.5 -5.5l-16 26q2 0 8.5 4.5t11.5 7.5zM498 140q0 -1 -2.5 -7t-2.5 -7l-35 14q0 1 2 6t2 7zM136 333q0 -1 -3 -5l-6 -8l-26 19q3 6 11 15zM468 81q-2 -1 -5.5 -6t-6.5 -9
l-27 22q0 1 10 14zM108 281q-2 -9 -3 -13l-34 11q1 1 1.5 4t1.5 5.5t3 5.5zM408 24q-9 -4 -22 -12l-13 26q1 1 18 12zM98 233v-12l-38 3q0 4 2 14zM101 175l-36 -6q0 1 -1 5.5t-2 8.5l36 4q0 -4 3 -12zM312 -8q-18 -2 -27 -2h-1v25q10 0 24 1zM115 127l-31 -15l-6 14l32 14
q5 -8 5 -13zM149 74l-21 -21q-1 1 -4 5t-6 6.5t-4 4.5l24 19q9 -8 11 -14zM215 28l-10 -24l-23 10l13 24q3 -1 5.5 -2t7 -3.5t7.5 -4.5z" />
    <glyph glyph-name="j" unicode="j" horiz-adv-x="720" 
d="M720 820h-720v20h720v-20zM328 800q-40 0 -80 -20q-82 -42 -148 -104q-92 -88 -146 -190q-26 -36 -6 -50q10 -6 26 14q112 150 164 192q74 56 134 68q24 8 55 7t57 -19q66 -44 92 -88q-2 -56 -8 -92q-24 -134 -28 -160q-2 60 -4 88q0 18 3 49t3 39q2 56 -22 92
q-18 24 -44 38q-22 10 -42 8q-16 0 -34 -20q-44 -46 -46 -88q-4 -66 42 -108q8 -8 17 -10t14 0t15 7l14 7q2 2 6 7t6 5q10 -300 2 -450q-2 -14 8 -22q10 -14 20 -12q18 6 30 31t14 39v2q20 66 64 286q20 100 32 170q4 18 10 47t9 48t3 29q0 8 -4 14q-64 84 -106 108
q-54 34 -118 38h-4zM338 594q12 0 23 -9t15 -19q2 -8 -3 -18t-13 -12q-12 -2 -24 8t-14 22q-8 20 8 26q4 2 8 2z" />
    <glyph glyph-name="k" unicode="k" horiz-adv-x="720" 
d="M720 820h-720v20h720v-20zM410 800h-10q-76 -6 -140 -50t-110 -100l-30 -50q44 8 74 -18q20 -16 32 -28q-2 -8 -4 -31t-4 -39q-8 -72 -18 -187t-16 -191t-6 -80q0 -12 8 -22q4 -6 20 2q44 24 44 56q20 256 40 414q10 86 12 90l2 5l3 8l4 8l10 11l17 16q26 22 20 38
q-4 8 -30 6q-10 0 -18 -8q-10 -10 -26 -20q-4 4 -12 8t-10 6q-6 4 -17 9t-15 7q10 10 18 17t14 11t17 11t21 13q28 20 52 21t44 -7q26 -4 53 -19t57 -37t44 -30l40 -20q4 -2 10 -4t7 -6t-1 -22v-6q-10 -96 -21 -235t-17 -226t-6 -89q-2 -14 6 -22q6 -8 20 0q14 6 29 25
t17 25q36 324 56 546q0 6 2 15t3 14t1 10t-4 7t-12 2q-10 0 -26 11t-36 27t-32 24t-43 29t-54 33t-47 18q-16 4 -32 4z" />
    <glyph glyph-name="l" unicode="l" 
d="M389 410l-14 -25q-1 1 -8 4.5t-11 6.5l10 25q2 -2 23 -11zM458 354l-26 -21q-2 2 -4 5.5t-3.5 5.5t-2.5 3l22 23q8 -6 14 -16zM495 295l-37 -14q0 2 -3 12l33 16q2 -7 7 -14zM285 436l-1 -26q-2 0 -11 -0.5t-13 -0.5l-3 26q5 0 14 0.5t13 0.5h1zM510 238l-40 -5v6
q-1 1 -1 6l38 6q3 -9 3 -13zM510 196q0 -4 -3 -14l-38 6q0 4 1 5v6zM193 384q-1 0 -4 -2t-6.5 -4.5t-6.5 -5.5l-16 26q2 0 8.5 4.5t11.5 7.5zM498 140q0 -1 -2.5 -7t-2.5 -7l-35 14q0 1 2 6t2 7zM136 333q0 -1 -3 -5l-6 -8l-26 19q3 6 11 15zM468 81q-2 -1 -5.5 -6t-6.5 -9
l-27 22q0 1 10 14zM108 281q-2 -9 -3 -13l-34 11q1 1 1.5 4t1.5 5.5t3 5.5zM408 24q-9 -4 -22 -12l-13 26q1 1 18 12zM98 233v-12l-38 3q0 4 2 14zM101 175l-36 -6q0 1 -1 5.5t-2 8.5l36 4q0 -4 3 -12zM312 -8q-18 -2 -27 -2h-1v25q10 0 24 1zM115 127l-31 -15l-6 14l32 14
q5 -8 5 -13zM149 74l-21 -21q-1 1 -4 5t-6 6.5t-4 4.5l24 19q9 -8 11 -14zM215 28l-10 -24l-23 10l13 24q3 -1 5.5 -2t7 -3.5t7.5 -4.5z" />
    <glyph glyph-name="m" unicode="m" 
d="M389 410l-14 -25q-1 1 -8 4.5t-11 6.5l10 25q2 -2 23 -11zM458 354l-26 -21q-2 2 -4 5.5t-3.5 5.5t-2.5 3l22 23q8 -6 14 -16zM495 295l-37 -14q0 2 -3 12l33 16q2 -7 7 -14zM285 436l-1 -26q-2 0 -11 -0.5t-13 -0.5l-3 26q5 0 14 0.5t13 0.5h1zM510 238l-40 -5v6
q-1 1 -1 6l38 6q3 -9 3 -13zM510 196q0 -4 -3 -14l-38 6q0 4 1 5v6zM193 384q-1 0 -4 -2t-6.5 -4.5t-6.5 -5.5l-16 26q2 0 8.5 4.5t11.5 7.5zM498 140q0 -1 -2.5 -7t-2.5 -7l-35 14q0 1 2 6t2 7zM136 333q0 -1 -3 -5l-6 -8l-26 19q3 6 11 15zM468 81q-2 -1 -5.5 -6t-6.5 -9
l-27 22q0 1 10 14zM108 281q-2 -9 -3 -13l-34 11q1 1 1.5 4t1.5 5.5t3 5.5zM408 24q-9 -4 -22 -12l-13 26q1 1 18 12zM98 233v-12l-38 3q0 4 2 14zM101 175l-36 -6q0 1 -1 5.5t-2 8.5l36 4q0 -4 3 -12zM312 -8q-18 -2 -27 -2h-1v25q10 0 24 1zM115 127l-31 -15l-6 14l32 14
q5 -8 5 -13zM149 74l-21 -21q-1 1 -4 5t-6 6.5t-4 4.5l24 19q9 -8 11 -14zM215 28l-10 -24l-23 10l13 24q3 -1 5.5 -2t7 -3.5t7.5 -4.5z" />
    <glyph glyph-name="n" unicode="n" 
d="M389 410l-14 -25q-1 1 -8 4.5t-11 6.5l10 25q2 -2 23 -11zM458 354l-26 -21q-2 2 -4 5.5t-3.5 5.5t-2.5 3l22 23q8 -6 14 -16zM495 295l-37 -14q0 2 -3 12l33 16q2 -7 7 -14zM285 436l-1 -26q-2 0 -11 -0.5t-13 -0.5l-3 26q5 0 14 0.5t13 0.5h1zM510 238l-40 -5v6
q-1 1 -1 6l38 6q3 -9 3 -13zM510 196q0 -4 -3 -14l-38 6q0 4 1 5v6zM193 384q-1 0 -4 -2t-6.5 -4.5t-6.5 -5.5l-16 26q2 0 8.5 4.5t11.5 7.5zM498 140q0 -1 -2.5 -7t-2.5 -7l-35 14q0 1 2 6t2 7zM136 333q0 -1 -3 -5l-6 -8l-26 19q3 6 11 15zM468 81q-2 -1 -5.5 -6t-6.5 -9
l-27 22q0 1 10 14zM108 281q-2 -9 -3 -13l-34 11q1 1 1.5 4t1.5 5.5t3 5.5zM408 24q-9 -4 -22 -12l-13 26q1 1 18 12zM98 233v-12l-38 3q0 4 2 14zM101 175l-36 -6q0 1 -1 5.5t-2 8.5l36 4q0 -4 3 -12zM312 -8q-18 -2 -27 -2h-1v25q10 0 24 1zM115 127l-31 -15l-6 14l32 14
q5 -8 5 -13zM149 74l-21 -21q-1 1 -4 5t-6 6.5t-4 4.5l24 19q9 -8 11 -14zM215 28l-10 -24l-23 10l13 24q3 -1 5.5 -2t7 -3.5t7.5 -4.5z" />
    <glyph glyph-name="o" unicode="o" horiz-adv-x="720" 
d="M720 820h-720v20h720v-20zM346 800q-68 0 -96 -36q-38 -54 -85 -132t-61 -98q-8 -10 -6 -28t12 -22q8 -2 14 3t14 18l8 13q132 174 138 184q36 26 104 -12q46 -26 64 -46q8 -8 17 -16t9 -9t3 -10t-3 -17q-4 -10 -7 -18t-5 -17t-4 -15t-4 -19t-3 -20t-3 -24t-2 -27t-2 -34
t-4 -38q-4 -42 -15 -135t-13 -139q-4 -12 -24 -20q-26 -10 -62 -10q-62 8 -76 24q-4 60 0 126t5 76t11 66q22 -8 42 2q70 38 90 114q14 52 12 90q0 30 -10 50q-14 28 -42 36q-26 8 -50 -8q-14 -8 -28 -28q-12 -20 -30 -62q-10 -28 -20 -60q-20 0 -28 -16q-8 -14 0 -70
q2 -18 6 -22q-24 -182 -18 -344q2 -40 50 -62q36 -16 82 -20q50 -2 88 14q50 20 60 62q2 8 6 38q2 16 24 290q10 130 32 206q12 38 11 47t-23 47q-88 122 -172 128h-6zM342 568q10 0 10 -16q2 -16 -8 -54q-10 -34 -36 -36q-8 0 -22 6q16 56 24 72q16 26 32 28z" />
    <glyph glyph-name="p" unicode="p" 
d="M389 410l-14 -25q-1 1 -8 4.5t-11 6.5l10 25q2 -2 23 -11zM458 354l-26 -21q-2 2 -4 5.5t-3.5 5.5t-2.5 3l22 23q8 -6 14 -16zM495 295l-37 -14q0 2 -3 12l33 16q2 -7 7 -14zM285 436l-1 -26q-2 0 -11 -0.5t-13 -0.5l-3 26q5 0 14 0.5t13 0.5h1zM510 238l-40 -5v6
q-1 1 -1 6l38 6q3 -9 3 -13zM510 196q0 -4 -3 -14l-38 6q0 4 1 5v6zM193 384q-1 0 -4 -2t-6.5 -4.5t-6.5 -5.5l-16 26q2 0 8.5 4.5t11.5 7.5zM498 140q0 -1 -2.5 -7t-2.5 -7l-35 14q0 1 2 6t2 7zM136 333q0 -1 -3 -5l-6 -8l-26 19q3 6 11 15zM468 81q-2 -1 -5.5 -6t-6.5 -9
l-27 22q0 1 10 14zM108 281q-2 -9 -3 -13l-34 11q1 1 1.5 4t1.5 5.5t3 5.5zM408 24q-9 -4 -22 -12l-13 26q1 1 18 12zM98 233v-12l-38 3q0 4 2 14zM101 175l-36 -6q0 1 -1 5.5t-2 8.5l36 4q0 -4 3 -12zM312 -8q-18 -2 -27 -2h-1v25q10 0 24 1zM115 127l-31 -15l-6 14l32 14
q5 -8 5 -13zM149 74l-21 -21q-1 1 -4 5t-6 6.5t-4 4.5l24 19q9 -8 11 -14zM215 28l-10 -24l-23 10l13 24q3 -1 5.5 -2t7 -3.5t7.5 -4.5z" />
    <glyph glyph-name="q" unicode="q" 
d="M389 410l-14 -25q-1 1 -8 4.5t-11 6.5l10 25q2 -2 23 -11zM458 354l-26 -21q-2 2 -4 5.5t-3.5 5.5t-2.5 3l22 23q8 -6 14 -16zM495 295l-37 -14q0 2 -3 12l33 16q2 -7 7 -14zM285 436l-1 -26q-2 0 -11 -0.5t-13 -0.5l-3 26q5 0 14 0.5t13 0.5h1zM510 238l-40 -5v6
q-1 1 -1 6l38 6q3 -9 3 -13zM510 196q0 -4 -3 -14l-38 6q0 4 1 5v6zM193 384q-1 0 -4 -2t-6.5 -4.5t-6.5 -5.5l-16 26q2 0 8.5 4.5t11.5 7.5zM498 140q0 -1 -2.5 -7t-2.5 -7l-35 14q0 1 2 6t2 7zM136 333q0 -1 -3 -5l-6 -8l-26 19q3 6 11 15zM468 81q-2 -1 -5.5 -6t-6.5 -9
l-27 22q0 1 10 14zM108 281q-2 -9 -3 -13l-34 11q1 1 1.5 4t1.5 5.5t3 5.5zM408 24q-9 -4 -22 -12l-13 26q1 1 18 12zM98 233v-12l-38 3q0 4 2 14zM101 175l-36 -6q0 1 -1 5.5t-2 8.5l36 4q0 -4 3 -12zM312 -8q-18 -2 -27 -2h-1v25q10 0 24 1zM115 127l-31 -15l-6 14l32 14
q5 -8 5 -13zM149 74l-21 -21q-1 1 -4 5t-6 6.5t-4 4.5l24 19q9 -8 11 -14zM215 28l-10 -24l-23 10l13 24q3 -1 5.5 -2t7 -3.5t7.5 -4.5z" />
    <glyph glyph-name="r" unicode="r" horiz-adv-x="720" 
d="M720 820h-720v20h720v-20zM428 810h-4q-20 0 -52 -12q-56 -18 -91 -45t-75 -71q-10 -14 -2 -30q6 -14 46 -14q68 0 100 -18q48 -28 50 -58q0 -18 -4 -46t-13 -78t-15 -88q-2 -20 -14 -68t-14 -62q-28 14 -60 0q-50 -20 -70 -72q-18 -46 -4 -84q12 -38 50 -54
q36 -18 70 -6t60 62q8 14 11 31t6 40t5 39q6 28 12 84t8 76q6 40 17 105t17 106t6 61q0 12 -2 18q-14 6 -39 32t-41 32q-14 8 -48 12q20 14 34 18q38 6 54 -6q62 -48 74 -54q14 -6 46 14q8 4 21 17t13 19q4 20 -10 20q-18 0 -30 6t-31 25l-25 25q-30 24 -56 24zM298 160h2
q14 -2 24 -17t6 -33q-6 -30 -20 -30q-16 0 -28 17t-12 33q0 10 9 20t19 10z" />
    <glyph glyph-name="s" unicode="s" horiz-adv-x="720" 
d="M720 820h-720v20h720v-20zM428 810h-4q-20 0 -52 -12q-56 -18 -91 -45t-75 -71q-10 -14 -2 -30q6 -14 46 -14q68 0 100 -18q48 -28 50 -58q0 -18 -4 -46t-13 -78t-15 -88q-2 -20 -14 -68t-14 -62q-28 14 -60 0q-50 -20 -70 -72q-18 -46 -4 -84q12 -38 50 -54
q36 -18 70 -6t60 62q8 14 11 31t6 40t5 39q6 28 12 84t8 76q6 40 17 105t17 106t6 61q0 12 -2 18q-14 6 -39 32t-41 32q-14 8 -48 12q20 14 34 18q38 6 54 -6q62 -48 74 -54q14 -6 46 14q8 4 21 17t13 19q4 20 -10 20q-18 0 -30 6t-31 25l-25 25q-30 24 -56 24zM298 160h2
q14 -2 24 -17t6 -33q-6 -30 -20 -30q-16 0 -28 17t-12 33q0 10 9 20t19 10z" />
    <glyph glyph-name="t" unicode="t" 
d="M389 410l-14 -25q-1 1 -8 4.5t-11 6.5l10 25q2 -2 23 -11zM458 354l-26 -21q-2 2 -4 5.5t-3.5 5.5t-2.5 3l22 23q8 -6 14 -16zM495 295l-37 -14q0 2 -3 12l33 16q2 -7 7 -14zM285 436l-1 -26q-2 0 -11 -0.5t-13 -0.5l-3 26q5 0 14 0.5t13 0.5h1zM510 238l-40 -5v6
q-1 1 -1 6l38 6q3 -9 3 -13zM510 196q0 -4 -3 -14l-38 6q0 4 1 5v6zM193 384q-1 0 -4 -2t-6.5 -4.5t-6.5 -5.5l-16 26q2 0 8.5 4.5t11.5 7.5zM498 140q0 -1 -2.5 -7t-2.5 -7l-35 14q0 1 2 6t2 7zM136 333q0 -1 -3 -5l-6 -8l-26 19q3 6 11 15zM468 81q-2 -1 -5.5 -6t-6.5 -9
l-27 22q0 1 10 14zM108 281q-2 -9 -3 -13l-34 11q1 1 1.5 4t1.5 5.5t3 5.5zM408 24q-9 -4 -22 -12l-13 26q1 1 18 12zM98 233v-12l-38 3q0 4 2 14zM101 175l-36 -6q0 1 -1 5.5t-2 8.5l36 4q0 -4 3 -12zM312 -8q-18 -2 -27 -2h-1v25q10 0 24 1zM115 127l-31 -15l-6 14l32 14
q5 -8 5 -13zM149 74l-21 -21q-1 1 -4 5t-6 6.5t-4 4.5l24 19q9 -8 11 -14zM215 28l-10 -24l-23 10l13 24q3 -1 5.5 -2t7 -3.5t7.5 -4.5z" />
    <glyph glyph-name="u" unicode="u" horiz-adv-x="0" 
d="M-58 1578h-4q-52 -2 -92 -52q-38 -48 -36 -100q2 -36 38 -74q36 -36 74 -34q52 2 92 52q38 48 36 100q-2 32 -39 70t-69 38zM-88 1490h10q20 -6 38 -25t14 -39q-2 -10 -15 -14t-25 -2q-20 6 -38 25t-14 39q4 16 30 16zM-390 1290q-138 2 -290 -74q-16 -8 -40 -27t-40 -33
l-16 -16q8 2 21 6t42 10t45 4q94 -8 211 -51t189 -85q108 -66 172 -154q50 -70 50 -120q40 60 54 100q60 186 -74 336q-96 104 -324 104zM-410 1232q8 0 18 -2q16 0 30 -2q110 -12 216 -102q44 -34 61 -77t15 -109q-24 54 -68 92t-116 80q-122 70 -292 96q70 24 136 24z" />
    <glyph glyph-name="v" unicode="v" horiz-adv-x="720" 
d="M720 820h-720v20h720v-20zM428 800q-8 0 -18 -2q-48 -6 -78 -36q-32 -32 -36 -86q-6 -58 24 -94q24 -26 68 -32l-4 -12q-24 -114 -54 -322q-34 90 -102 205t-102 163t-102 138q-4 6 -21 15t-23 9q-6 -4 -4 -45t10 -73q6 -22 14 -32q68 -96 100 -144t86 -136t79 -161
t29 -137q2 -8 14 -16q2 -2 4 -2v-2q6 0 19 10t21 30q14 28 20 76q32 234 72 412q2 10 34 58q30 46 40 90q12 62 -22 98q-24 24 -62 26q-4 0 -6 2zM404 722h6q14 0 22 -6q20 -22 16 -50q-4 -14 -18 -22q-10 -6 -26 -4q-24 2 -30 12q-22 30 0 60q8 10 30 10z" />
    <glyph glyph-name="w" unicode="w" 
d="M389 410l-14 -25q-1 1 -8 4.5t-11 6.5l10 25q2 -2 23 -11zM458 354l-26 -21q-2 2 -4 5.5t-3.5 5.5t-2.5 3l22 23q8 -6 14 -16zM495 295l-37 -14q0 2 -3 12l33 16q2 -7 7 -14zM285 436l-1 -26q-2 0 -11 -0.5t-13 -0.5l-3 26q5 0 14 0.5t13 0.5h1zM510 238l-40 -5v6
q-1 1 -1 6l38 6q3 -9 3 -13zM510 196q0 -4 -3 -14l-38 6q0 4 1 5v6zM193 384q-1 0 -4 -2t-6.5 -4.5t-6.5 -5.5l-16 26q2 0 8.5 4.5t11.5 7.5zM498 140q0 -1 -2.5 -7t-2.5 -7l-35 14q0 1 2 6t2 7zM136 333q0 -1 -3 -5l-6 -8l-26 19q3 6 11 15zM468 81q-2 -1 -5.5 -6t-6.5 -9
l-27 22q0 1 10 14zM108 281q-2 -9 -3 -13l-34 11q1 1 1.5 4t1.5 5.5t3 5.5zM408 24q-9 -4 -22 -12l-13 26q1 1 18 12zM98 233v-12l-38 3q0 4 2 14zM101 175l-36 -6q0 1 -1 5.5t-2 8.5l36 4q0 -4 3 -12zM312 -8q-18 -2 -27 -2h-1v25q10 0 24 1zM115 127l-31 -15l-6 14l32 14
q5 -8 5 -13zM149 74l-21 -21q-1 1 -4 5t-6 6.5t-4 4.5l24 19q9 -8 11 -14zM215 28l-10 -24l-23 10l13 24q3 -1 5.5 -2t7 -3.5t7.5 -4.5z" />
    <glyph glyph-name="x" unicode="x" 
d="M389 410l-14 -25q-1 1 -8 4.5t-11 6.5l10 25q2 -2 23 -11zM458 354l-26 -21q-2 2 -4 5.5t-3.5 5.5t-2.5 3l22 23q8 -6 14 -16zM495 295l-37 -14q0 2 -3 12l33 16q2 -7 7 -14zM285 436l-1 -26q-2 0 -11 -0.5t-13 -0.5l-3 26q5 0 14 0.5t13 0.5h1zM510 238l-40 -5v6
q-1 1 -1 6l38 6q3 -9 3 -13zM510 196q0 -4 -3 -14l-38 6q0 4 1 5v6zM193 384q-1 0 -4 -2t-6.5 -4.5t-6.5 -5.5l-16 26q2 0 8.5 4.5t11.5 7.5zM498 140q0 -1 -2.5 -7t-2.5 -7l-35 14q0 1 2 6t2 7zM136 333q0 -1 -3 -5l-6 -8l-26 19q3 6 11 15zM468 81q-2 -1 -5.5 -6t-6.5 -9
l-27 22q0 1 10 14zM108 281q-2 -9 -3 -13l-34 11q1 1 1.5 4t1.5 5.5t3 5.5zM408 24q-9 -4 -22 -12l-13 26q1 1 18 12zM98 233v-12l-38 3q0 4 2 14zM101 175l-36 -6q0 1 -1 5.5t-2 8.5l36 4q0 -4 3 -12zM312 -8q-18 -2 -27 -2h-1v25q10 0 24 1zM115 127l-31 -15l-6 14l32 14
q5 -8 5 -13zM149 74l-21 -21q-1 1 -4 5t-6 6.5t-4 4.5l24 19q9 -8 11 -14zM215 28l-10 -24l-23 10l13 24q3 -1 5.5 -2t7 -3.5t7.5 -4.5z" />
    <glyph glyph-name="y" unicode="y" 
d="M389 410l-14 -25q-1 1 -8 4.5t-11 6.5l10 25q2 -2 23 -11zM458 354l-26 -21q-2 2 -4 5.5t-3.5 5.5t-2.5 3l22 23q8 -6 14 -16zM495 295l-37 -14q0 2 -3 12l33 16q2 -7 7 -14zM285 436l-1 -26q-2 0 -11 -0.5t-13 -0.5l-3 26q5 0 14 0.5t13 0.5h1zM510 238l-40 -5v6
q-1 1 -1 6l38 6q3 -9 3 -13zM510 196q0 -4 -3 -14l-38 6q0 4 1 5v6zM193 384q-1 0 -4 -2t-6.5 -4.5t-6.5 -5.5l-16 26q2 0 8.5 4.5t11.5 7.5zM498 140q0 -1 -2.5 -7t-2.5 -7l-35 14q0 1 2 6t2 7zM136 333q0 -1 -3 -5l-6 -8l-26 19q3 6 11 15zM468 81q-2 -1 -5.5 -6t-6.5 -9
l-27 22q0 1 10 14zM108 281q-2 -9 -3 -13l-34 11q1 1 1.5 4t1.5 5.5t3 5.5zM408 24q-9 -4 -22 -12l-13 26q1 1 18 12zM98 233v-12l-38 3q0 4 2 14zM101 175l-36 -6q0 1 -1 5.5t-2 8.5l36 4q0 -4 3 -12zM312 -8q-18 -2 -27 -2h-1v25q10 0 24 1zM115 127l-31 -15l-6 14l32 14
q5 -8 5 -13zM149 74l-21 -21q-1 1 -4 5t-6 6.5t-4 4.5l24 19q9 -8 11 -14zM215 28l-10 -24l-23 10l13 24q3 -1 5.5 -2t7 -3.5t7.5 -4.5z" />
    <glyph glyph-name="z" unicode="z" 
d="M389 410l-14 -25q-1 1 -8 4.5t-11 6.5l10 25q2 -2 23 -11zM458 354l-26 -21q-2 2 -4 5.5t-3.5 5.5t-2.5 3l22 23q8 -6 14 -16zM495 295l-37 -14q0 2 -3 12l33 16q2 -7 7 -14zM285 436l-1 -26q-2 0 -11 -0.5t-13 -0.5l-3 26q5 0 14 0.5t13 0.5h1zM510 238l-40 -5v6
q-1 1 -1 6l38 6q3 -9 3 -13zM510 196q0 -4 -3 -14l-38 6q0 4 1 5v6zM193 384q-1 0 -4 -2t-6.5 -4.5t-6.5 -5.5l-16 26q2 0 8.5 4.5t11.5 7.5zM498 140q0 -1 -2.5 -7t-2.5 -7l-35 14q0 1 2 6t2 7zM136 333q0 -1 -3 -5l-6 -8l-26 19q3 6 11 15zM468 81q-2 -1 -5.5 -6t-6.5 -9
l-27 22q0 1 10 14zM108 281q-2 -9 -3 -13l-34 11q1 1 1.5 4t1.5 5.5t3 5.5zM408 24q-9 -4 -22 -12l-13 26q1 1 18 12zM98 233v-12l-38 3q0 4 2 14zM101 175l-36 -6q0 1 -1 5.5t-2 8.5l36 4q0 -4 3 -12zM312 -8q-18 -2 -27 -2h-1v25q10 0 24 1zM115 127l-31 -15l-6 14l32 14
q5 -8 5 -13zM149 74l-21 -21q-1 1 -4 5t-6 6.5t-4 4.5l24 19q9 -8 11 -14zM215 28l-10 -24l-23 10l13 24q3 -1 5.5 -2t7 -3.5t7.5 -4.5z" />
    <glyph glyph-name="braceleft" unicode="{" 
d="M389 410l-14 -25q-1 1 -8 4.5t-11 6.5l10 25q2 -2 23 -11zM458 354l-26 -21q-2 2 -4 5.5t-3.5 5.5t-2.5 3l22 23q8 -6 14 -16zM495 295l-37 -14q0 2 -3 12l33 16q2 -7 7 -14zM285 436l-1 -26q-2 0 -11 -0.5t-13 -0.5l-3 26q5 0 14 0.5t13 0.5h1zM510 238l-40 -5v6
q-1 1 -1 6l38 6q3 -9 3 -13zM510 196q0 -4 -3 -14l-38 6q0 4 1 5v6zM193 384q-1 0 -4 -2t-6.5 -4.5t-6.5 -5.5l-16 26q2 0 8.5 4.5t11.5 7.5zM498 140q0 -1 -2.5 -7t-2.5 -7l-35 14q0 1 2 6t2 7zM136 333q0 -1 -3 -5l-6 -8l-26 19q3 6 11 15zM468 81q-2 -1 -5.5 -6t-6.5 -9
l-27 22q0 1 10 14zM108 281q-2 -9 -3 -13l-34 11q1 1 1.5 4t1.5 5.5t3 5.5zM408 24q-9 -4 -22 -12l-13 26q1 1 18 12zM98 233v-12l-38 3q0 4 2 14zM101 175l-36 -6q0 1 -1 5.5t-2 8.5l36 4q0 -4 3 -12zM312 -8q-18 -2 -27 -2h-1v25q10 0 24 1zM115 127l-31 -15l-6 14l32 14
q5 -8 5 -13zM149 74l-21 -21q-1 1 -4 5t-6 6.5t-4 4.5l24 19q9 -8 11 -14zM215 28l-10 -24l-23 10l13 24q3 -1 5.5 -2t7 -3.5t7.5 -4.5z" />
    <glyph glyph-name="bar" unicode="|" 
d="M389 410l-14 -25q-1 1 -8 4.5t-11 6.5l10 25q2 -2 23 -11zM458 354l-26 -21q-2 2 -4 5.5t-3.5 5.5t-2.5 3l22 23q8 -6 14 -16zM495 295l-37 -14q0 2 -3 12l33 16q2 -7 7 -14zM285 436l-1 -26q-2 0 -11 -0.5t-13 -0.5l-3 26q5 0 14 0.5t13 0.5h1zM510 238l-40 -5v6
q-1 1 -1 6l38 6q3 -9 3 -13zM510 196q0 -4 -3 -14l-38 6q0 4 1 5v6zM193 384q-1 0 -4 -2t-6.5 -4.5t-6.5 -5.5l-16 26q2 0 8.5 4.5t11.5 7.5zM498 140q0 -1 -2.5 -7t-2.5 -7l-35 14q0 1 2 6t2 7zM136 333q0 -1 -3 -5l-6 -8l-26 19q3 6 11 15zM468 81q-2 -1 -5.5 -6t-6.5 -9
l-27 22q0 1 10 14zM108 281q-2 -9 -3 -13l-34 11q1 1 1.5 4t1.5 5.5t3 5.5zM408 24q-9 -4 -22 -12l-13 26q1 1 18 12zM98 233v-12l-38 3q0 4 2 14zM101 175l-36 -6q0 1 -1 5.5t-2 8.5l36 4q0 -4 3 -12zM312 -8q-18 -2 -27 -2h-1v25q10 0 24 1zM115 127l-31 -15l-6 14l32 14
q5 -8 5 -13zM149 74l-21 -21q-1 1 -4 5t-6 6.5t-4 4.5l24 19q9 -8 11 -14zM215 28l-10 -24l-23 10l13 24q3 -1 5.5 -2t7 -3.5t7.5 -4.5z" />
    <glyph glyph-name="braceright" unicode="}" 
d="M389 410l-14 -25q-1 1 -8 4.5t-11 6.5l10 25q2 -2 23 -11zM458 354l-26 -21q-2 2 -4 5.5t-3.5 5.5t-2.5 3l22 23q8 -6 14 -16zM495 295l-37 -14q0 2 -3 12l33 16q2 -7 7 -14zM285 436l-1 -26q-2 0 -11 -0.5t-13 -0.5l-3 26q5 0 14 0.5t13 0.5h1zM510 238l-40 -5v6
q-1 1 -1 6l38 6q3 -9 3 -13zM510 196q0 -4 -3 -14l-38 6q0 4 1 5v6zM193 384q-1 0 -4 -2t-6.5 -4.5t-6.5 -5.5l-16 26q2 0 8.5 4.5t11.5 7.5zM498 140q0 -1 -2.5 -7t-2.5 -7l-35 14q0 1 2 6t2 7zM136 333q0 -1 -3 -5l-6 -8l-26 19q3 6 11 15zM468 81q-2 -1 -5.5 -6t-6.5 -9
l-27 22q0 1 10 14zM108 281q-2 -9 -3 -13l-34 11q1 1 1.5 4t1.5 5.5t3 5.5zM408 24q-9 -4 -22 -12l-13 26q1 1 18 12zM98 233v-12l-38 3q0 4 2 14zM101 175l-36 -6q0 1 -1 5.5t-2 8.5l36 4q0 -4 3 -12zM312 -8q-18 -2 -27 -2h-1v25q10 0 24 1zM115 127l-31 -15l-6 14l32 14
q5 -8 5 -13zM149 74l-21 -21q-1 1 -4 5t-6 6.5t-4 4.5l24 19q9 -8 11 -14zM215 28l-10 -24l-23 10l13 24q3 -1 5.5 -2t7 -3.5t7.5 -4.5z" />
    <glyph glyph-name="asciitilde" unicode="~" 
d="M389 410l-14 -25q-1 1 -8 4.5t-11 6.5l10 25q2 -2 23 -11zM458 354l-26 -21q-2 2 -4 5.5t-3.5 5.5t-2.5 3l22 23q8 -6 14 -16zM495 295l-37 -14q0 2 -3 12l33 16q2 -7 7 -14zM285 436l-1 -26q-2 0 -11 -0.5t-13 -0.5l-3 26q5 0 14 0.5t13 0.5h1zM510 238l-40 -5v6
q-1 1 -1 6l38 6q3 -9 3 -13zM510 196q0 -4 -3 -14l-38 6q0 4 1 5v6zM193 384q-1 0 -4 -2t-6.5 -4.5t-6.5 -5.5l-16 26q2 0 8.5 4.5t11.5 7.5zM498 140q0 -1 -2.5 -7t-2.5 -7l-35 14q0 1 2 6t2 7zM136 333q0 -1 -3 -5l-6 -8l-26 19q3 6 11 15zM468 81q-2 -1 -5.5 -6t-6.5 -9
l-27 22q0 1 10 14zM108 281q-2 -9 -3 -13l-34 11q1 1 1.5 4t1.5 5.5t3 5.5zM408 24q-9 -4 -22 -12l-13 26q1 1 18 12zM98 233v-12l-38 3q0 4 2 14zM101 175l-36 -6q0 1 -1 5.5t-2 8.5l36 4q0 -4 3 -12zM312 -8q-18 -2 -27 -2h-1v25q10 0 24 1zM115 127l-31 -15l-6 14l32 14
q5 -8 5 -13zM149 74l-21 -21q-1 1 -4 5t-6 6.5t-4 4.5l24 19q9 -8 11 -14zM215 28l-10 -24l-23 10l13 24q3 -1 5.5 -2t7 -3.5t7.5 -4.5z" />
    <glyph glyph-name="copyright" unicode="&#xa9;" 
d="M389 410l-14 -25q-1 1 -8 4.5t-11 6.5l10 25q2 -2 23 -11zM458 354l-26 -21q-2 2 -4 5.5t-3.5 5.5t-2.5 3l22 23q8 -6 14 -16zM495 295l-37 -14q0 2 -3 12l33 16q2 -7 7 -14zM285 436l-1 -26q-2 0 -11 -0.5t-13 -0.5l-3 26q5 0 14 0.5t13 0.5h1zM510 238l-40 -5v6
q-1 1 -1 6l38 6q3 -9 3 -13zM510 196q0 -4 -3 -14l-38 6q0 4 1 5v6zM193 384q-1 0 -4 -2t-6.5 -4.5t-6.5 -5.5l-16 26q2 0 8.5 4.5t11.5 7.5zM498 140q0 -1 -2.5 -7t-2.5 -7l-35 14q0 1 2 6t2 7zM136 333q0 -1 -3 -5l-6 -8l-26 19q3 6 11 15zM468 81q-2 -1 -5.5 -6t-6.5 -9
l-27 22q0 1 10 14zM108 281q-2 -9 -3 -13l-34 11q1 1 1.5 4t1.5 5.5t3 5.5zM408 24q-9 -4 -22 -12l-13 26q1 1 18 12zM98 233v-12l-38 3q0 4 2 14zM101 175l-36 -6q0 1 -1 5.5t-2 8.5l36 4q0 -4 3 -12zM312 -8q-18 -2 -27 -2h-1v25q10 0 24 1zM115 127l-31 -15l-6 14l32 14
q5 -8 5 -13zM149 74l-21 -21q-1 1 -4 5t-6 6.5t-4 4.5l24 19q9 -8 11 -14zM215 28l-10 -24l-23 10l13 24q3 -1 5.5 -2t7 -3.5t7.5 -4.5z" />
    <glyph glyph-name="registered" unicode="&#xae;" 
d="M389 410l-14 -25q-1 1 -8 4.5t-11 6.5l10 25q2 -2 23 -11zM458 354l-26 -21q-2 2 -4 5.5t-3.5 5.5t-2.5 3l22 23q8 -6 14 -16zM495 295l-37 -14q0 2 -3 12l33 16q2 -7 7 -14zM285 436l-1 -26q-2 0 -11 -0.5t-13 -0.5l-3 26q5 0 14 0.5t13 0.5h1zM510 238l-40 -5v6
q-1 1 -1 6l38 6q3 -9 3 -13zM510 196q0 -4 -3 -14l-38 6q0 4 1 5v6zM193 384q-1 0 -4 -2t-6.5 -4.5t-6.5 -5.5l-16 26q2 0 8.5 4.5t11.5 7.5zM498 140q0 -1 -2.5 -7t-2.5 -7l-35 14q0 1 2 6t2 7zM136 333q0 -1 -3 -5l-6 -8l-26 19q3 6 11 15zM468 81q-2 -1 -5.5 -6t-6.5 -9
l-27 22q0 1 10 14zM108 281q-2 -9 -3 -13l-34 11q1 1 1.5 4t1.5 5.5t3 5.5zM408 24q-9 -4 -22 -12l-13 26q1 1 18 12zM98 233v-12l-38 3q0 4 2 14zM101 175l-36 -6q0 1 -1 5.5t-2 8.5l36 4q0 -4 3 -12zM312 -8q-18 -2 -27 -2h-1v25q10 0 24 1zM115 127l-31 -15l-6 14l32 14
q5 -8 5 -13zM149 74l-21 -21q-1 1 -4 5t-6 6.5t-4 4.5l24 19q9 -8 11 -14zM215 28l-10 -24l-23 10l13 24q3 -1 5.5 -2t7 -3.5t7.5 -4.5z" />
    <glyph glyph-name="kokaithai" unicode="&#xe01;" horiz-adv-x="360" 
d="M205 400h-5q-38 -3 -70 -25t-55 -50l-15 -25q22 4 37 -9q10 -8 16 -14q-1 -4 -2 -15.5t-2 -19.5q-4 -36 -9 -93.5t-8 -95.5t-3 -40q0 -6 4 -11q2 -3 10 1q22 12 22 28q10 128 20 207q5 43 6 45l1 2.5t1.5 4t2 4t5 5.5t8.5 8q13 11 10 19q-2 4 -15 3q-5 0 -9 -4
q-5 -5 -13 -10q-2 2 -6 4t-5 3q-3 2 -8.5 4.5t-7.5 3.5q5 5 9 8.5t7 5.5t8.5 5.5t10.5 6.5q14 10 26 10.5t22 -3.5q13 -2 26.5 -9.5t28.5 -18.5t22 -15l20 -10q2 -1 5 -2t3.5 -3t-0.5 -11v-3q-5 -48 -10.5 -117.5t-8.5 -113t-3 -44.5q-1 -7 3 -11q3 -4 10 0q7 3 14.5 12.5
t8.5 12.5q18 162 28 273q0 3 1 7.5t1.5 7t0.5 5t-2 3.5t-6 1q-5 0 -13 5.5t-18 13.5t-16 12t-21.5 14.5t-27 16.5t-23.5 9q-8 2 -16 2z" />
    <glyph glyph-name="khokhaithai" unicode="&#xe02;" horiz-adv-x="280" 
d="M274 400q-7 0 -19 -19q-6 -9 -9 -27l-38 -301h-9q-7 1 -14 0q39 136 39 287v11t-2 6t-3.5 4l-7.5 5t-12 9q-20 15 -36 15q-3 0 -6 -1q-31 -3 -58 -32q-31 -33 -19 -63q6 -15 14 -27q15 -20 33 -22q24 -3 40 17q16 21 12 54q-1 7 -6 11t-19 3q-3 -1 -6.5 -4t-4 -6
t-0.5 -7.5t-1 -6t-3 -1.5q-7 -3 -15 2t-10 13q-3 8 10 20q10 9 32 12q7 0 25 -13l6 -4q5 -3 5 -9v-2q0 -69 -16 -159t-32 -126q-4 -3 -7 -6q-11 -9 -14 -19q-7 -22 -1 -32q3 -5 10 -5q5 1 12.5 8.5t10.5 9.5q6 3 14 5q13 2 28 2q5 -1 11.5 -2t10.5 -1q5 2 11 7q5 5 6 10
l44 371q2 11 -4 13h-2z" />
    <glyph glyph-name="khokhuatthai" unicode="&#xe03;" horiz-adv-x="280" 
d="M289 390q-7 0 -19 -19q-6 -9 -9 -27l-53 -290q-9 1 -10 1q-10 1 -23 -2q17 51 40 185q1 9 9 33.5t11 35.5q5 23 3 39q-2 22 -18 35q-9 7 -20 7q-7 -1 -15 -5q-4 -1 -8 -3.5t-7 -3.5t-4 -2q-2 0 -6 1q-14 6 -16 6q-13 3 -27 -5q-13 -7 -29 -27q-17 -21 -23 -49
q-3 -16 0 -28q3 -17 18 -25q31 -17 60 3q14 9 23 29.5t9 40.5q0 9 -4 11q-8 3 -20 -8q-1 -2 -2 -6t-2 -5q-4 -6 -12 -9q-19 -10 -30 -2q-4 3 -2 12t9 18q12 14 20 19q3 2 5 -1t4 -8t4 -6q3 -1 25 10q3 1 7.5 4.5t6.5 4.5q3 2 8 -4.5t8 -14.5q8 -20 4 -39q-3 -9 -10 -24.5
t-9 -29.5q-25 -148 -47 -202q-3 -3 -6 -5q-10 -9 -14 -20q-5 -14 -1 -21q2 -5 10 -5q4 0 7.5 1t8 3.5t7.5 3.5l14 5q14 2 32 1q5 0 11.5 -1.5t10.5 -0.5q5 1 11 7q5 5 6 10l60 360q2 10 -4 12h-2z" />
    <glyph glyph-name="khokhwaithai" unicode="&#xe04;" horiz-adv-x="360" 
d="M228 397q-10 0 -32 -10q-19 -8 -30.5 -14t-18 -10.5t-22.5 -16.5q-18 -14 -23.5 -42t-1.5 -53q2 -13 5.5 -32.5t5.5 -29.5t3.5 -25t1 -29t-2.5 -31q-8 -59 -17 -94q-3 -9 1 -11q1 -3 5 -0.5t5.5 3.5t5.5 4.5t5 4.5q6 6 6 10q11 38 23.5 107.5t26.5 107.5q27 -1 49 12
q19 11 30 34q14 29 -1 48q-9 11 -25 12q-8 0 -16 -2q-22 -5 -33 -20q-25 -34 -40 -82v1q-16 64 2 82q22 21 78 37q8 2 31 -10q16 -8 37 -26q14 -14 25 -29q2 -2 7 -5t6.5 -8t0.5 -18q-4 -52 -12 -114.5t-14 -99.5l-6 -36q-2 -11 2 -12t7.5 1.5t8 10.5t4.5 9q6 9 8 16
q17 99 32 222q6 53 -1 55q-11 4 -27.5 21t-19.5 20q-35 28 -44 32q-21 10 -35 10zM214 307q19 0 12 -16q-4 -11 -13 -14q-12 -3 -16 4q-5 7 5 21q4 4 12 5z" />
    <glyph glyph-name="khokhonthai" unicode="&#xe05;" horiz-adv-x="360" 
d="M214 395q-8 -1 -15.5 -3.5t-15.5 -6.5t-14.5 -7.5t-14 -9t-11.5 -9t-10.5 -8.5t-7.5 -5q-18 -14 -23.5 -42t-1.5 -53q2 -13 5.5 -32.5t5.5 -29.5t3.5 -25t1 -29t-2.5 -31q-8 -59 -17 -94q-3 -9 1 -11q1 -3 5 -0.5t5.5 3.5t5.5 4.5t5 4.5q6 6 6 10q11 38 23.5 107.5
t26.5 107.5q27 -1 49 12q19 11 30 34q14 29 -1 48q-9 11 -25 12q-8 0 -16 -2q-22 -5 -33 -20q-25 -34 -40 -82v1q-16 64 2 82q23 22 68 35q4 1 13.5 -2t14.5 -8q5 -4 18.5 4.5t19.5 7.5q20 -12 46 -62q7 -15 5 -34q-4 -52 -12 -114.5t-14 -99.5l-6 -36q-2 -11 2 -12t7.5 1.5
t8 10.5t4.5 9q6 9 8 16q17 99 32 222q6 53 -1 55q-9 10 -26.5 37.5t-32.5 39.5q-10 7 -30 -4.5t-21 -10.5q-22 18 -30 19zM214 307q19 0 12 -16q-4 -11 -13 -14q-12 -3 -16 4q-5 7 5 21q4 4 12 5z" />
    <glyph glyph-name="khorakhangthai" unicode="&#xe06;" horiz-adv-x="360" 
d="M358 403q-7 0 -16 -7q-5 -4 -5 -10q-19 -168 -21 -195q-2 -21 -5 -58.5t-4 -60.5q-23 23 -34 33.5t-26.5 23t-30.5 20.5q-13 6 -25 0l-1 -1q2 39 4 61q4 30 27 65q24 36 8 60q-10 15 -20 23q-13 6 -19 7q-8 0 -18 -5q-3 -1 -7.5 -3.5t-7 -3.5t-3.5 -2q-3 0 -6 1
q-1 0 -6.5 4.5t-9.5 5.5q-11 2 -23 -5q-15 -8 -33 -31q-19 -23 -17 -49q2 -33 23 -45q27 -16 55 2q31 21 29 56q-1 11 -10 15q-6 2 -17 -5q-2 -2 -5 -6.5t-6 -6.5q-12 -5 -22 3q-5 3 -5.5 11.5t5.5 17.5q7 9 13 8q5 0 11 -8t8 -8q2 -1 5.5 0.5t7.5 5.5t6.5 5t7 4t6.5 5
q4 2 15.5 -6.5t14.5 -14.5q8 -16 -10 -37q-24 -28 -26 -58q-2 -24 -4 -86l-9 -6q-7 -7 -13 -12q-44 -47 -48 -85q-2 -21 12 -32q12 -10 30 -9q21 0 40 29q4 6 6.5 14t3 13.5t1.5 17t2 14.5v16v5q8 7 12 7t13 -6q26 -19 38.5 -30t41.5 -40q10 -11 18 -11t10.5 3.5t6.5 12.5
q17 33 17 41q3 82 6 122q4 70 17 198q2 9 -3 12q-2 1 -5 1zM159 80v-3q-5 -29 -8 -34q-2 -5 -11 -6q-5 -1 -8 1q-1 3 -1 5.5t2.5 7t4.5 7.5t6 7l6.5 6.5l5.5 5.5z" />
    <glyph glyph-name="ngonguthai" unicode="&#xe07;" horiz-adv-x="260" 
d="M214 400q-4 0 -9 -1q-24 -3 -39 -18q-16 -16 -18 -43q-3 -29 12 -47q12 -13 34 -16l-2 -6q-12 -57 -27 -161q-17 45 -51 102.5t-51 81.5t-51 69q-2 3 -10.5 7.5t-11.5 4.5q-3 -2 -2 -22.5t5 -36.5q3 -11 7 -16q34 -48 50 -72t43 -68t39.5 -80.5t14.5 -68.5q1 -4 7 -8
q1 -1 2 -1v-1q3 0 9.5 5t10.5 15q7 14 10 38q16 117 36 206q1 5 17 29q15 23 20 45q6 31 -11 49q-12 12 -31 13q-2 0 -3 1zM202 361h3q7 0 11 -3q10 -11 8 -25q-2 -7 -9 -11q-5 -3 -13 -2q-12 1 -15 6q-11 15 0 30q4 5 15 5z" />
    <glyph glyph-name="chochanthai" unicode="&#xe08;" horiz-adv-x="280" 
d="M164 400q-20 0 -40 -10q-41 -21 -74 -52q-46 -44 -73 -95q-13 -18 -3 -25q5 -3 13 7q56 75 82 96q37 28 67 34q12 4 27.5 3.5t28.5 -9.5q33 -22 46 -44q-1 -28 -4 -46q-12 -67 -14 -80q-1 30 -2 44q0 9 1.5 24.5t1.5 19.5q1 28 -11 46q-9 12 -22 19q-11 5 -21 4
q-8 0 -17 -10q-22 -23 -23 -44q-2 -33 21 -54q4 -4 8.5 -5t7 0t7.5 3.5l7 3.5q1 1 3 3.5t3 2.5q5 -150 1 -225q-1 -7 4 -11q5 -7 10 -6q9 3 15 15.5t7 19.5v1q10 33 32 143q10 50 16 85q2 9 5 23.5t4.5 24t1.5 14.5q0 4 -2 7q-32 42 -53 54q-27 17 -59 19h-2zM169 297
q6 0 11.5 -4.5t7.5 -9.5q1 -4 -1.5 -9t-6.5 -6q-6 -1 -12 4t-7 11q-4 10 4 13q2 1 4 1z" />
    <glyph glyph-name="chochingthai" unicode="&#xe09;" horiz-adv-x="360" 
d="M202 475q-28 0 -66 -18t-84 -54q-23 -18 -46 -40t-34 -35l-11 -13q-3 -4 -3.5 -9t2.5 -8t10.5 0t10.5 6q39 36 89 75q30 24 71 43q27 13 68 4q23 -5 39.5 -14t39.5 -27.5t29 -22.5q0 -1 4 -4q-5 -26 -11 -68.5t-12 -78.5t-13 -72q-12 -3 -27 -12.5t-17 -10.5
q-9 -4 -17.5 -10t-18.5 -14t-16 -13q-25 -17 -36 -25q-6 0 -9 3.5t-3 13.5t0.5 17t2.5 22.5t3 23.5q10 108 26 138q4 7 12 19t11 17q14 23 9 44q-4 15 -16 26q-13 11 -27 11h-5q-27 -5 -44 -35q-19 -32 -6 -57q9 -18 36 -20q-16 -33 -26 -141q-8 -83 -17 -107q-1 -2 -3 -5
q-1 0 -2 -0.5t-4.5 -1t-5.5 -1.5t-3.5 -2.5t-1.5 -4.5q0 -7 4.5 -11t10.5 -4q9 0 19.5 2.5t18 5.5t19.5 10.5t17.5 11t19 13.5t17.5 13q8 5 15 10v-9q1 -37 27 -51q21 -10 42 2q13 7 24 23q12 16 15 37q4 26 -11 42l-2 2q11 55 25.5 144.5t21.5 124.5q2 7 2 9q0 6 -4 10
q-37 32 -67 48.5t-71 25.5q-10 3 -21 2zM151 355q13 0 19 -11q6 -12 -9 -19q-5 -3 -12.5 0.5t-11.5 10.5q-3 5 2.5 12t11.5 7zM269 88q7 0 14.5 -5t9.5 -11t-1.5 -12.5t-8.5 -7.5q-7 -2 -14.5 3t-10.5 12q-2 4 -0.5 11t5.5 9q3 1 6 1z" />
    <glyph glyph-name="chochangthai" unicode="&#xe0a;" horiz-adv-x="280" 
d="M539 1144q-50 -262 -119 -445q-46 -116 -87.5 -197.5t-100.5 -148.5q-5 -5 -8 -10q0 8 -1 11t-2.5 4.5t-8 6t-13.5 9.5q-20 16 -36 16q-3 0 -6 -1q-31 -4 -58 -33q-31 -33 -19 -62q6 -16 14 -27q15 -20 33 -23q24 -2 40 18t12 54q-1 6 -6 10q-5 5 -19 3q-3 0 -6.5 -3.5
t-4 -6.5t-0.5 -7t-1 -5.5t-3 -2.5q-7 -2 -15 3t-10 12q-3 9 10 20q10 10 32 12q7 1 25 -12q3 -2 6 -5q5 -2 5 -8v-3q0 -65 -15 -151.5t-31 -127.5q-7 -3 -14 -10q-10 -9 -14 -19q-5 -15 -1 -21q2 -5 10 -5q4 0 7.5 1t8 3.5t7.5 2.5l14 5q14 3 32 2q5 0 11.5 -1.5t10.5 -0.5
q5 1 11 7q5 5 6 9l30 180q15 60 15 90q0 40 -20 50q2 3 4 7q63 82 106.5 180.5t85.5 230.5q67 222 83 389zM223 308q27 -12 25 -36q-1 -11 -4.5 -29t-6.5 -31l-3 -13l-26 -145q-9 1 -10 1h-13q35 120 38 253z" />
    <glyph glyph-name="sosothai" unicode="&#xe0b;" horiz-adv-x="280" 
d="M539 1144q-50 -262 -119 -444q-46 -115 -86.5 -195.5t-97.5 -146.5q-5 14 -16 24q-9 7 -20 6q-7 -1 -15 -5q-4 -1 -8 -3l-7 -3.5t-4 -1.5q-2 -1 -6 0q-14 6 -16 6q-13 3 -27 -5q-13 -7 -29 -27q-17 -21 -23 -49q-3 -16 0 -28q3 -17 18 -25q31 -17 60 3q14 9 23 29.5
t9 40.5q0 9 -4 11q-8 3 -20 -8q-1 -2 -2 -6t-2 -5q-4 -6 -12 -9q-19 -10 -30 -2q-4 3 -2 12t9 18q12 15 20 19q3 2 5 -1t4 -8t4 -6q3 -1 6.5 0t10.5 5.5t8 4.5q3 1 7.5 4.5t6.5 4.5q3 2 8 -4.5t8 -14.5q8 -20 4 -39q-3 -9 -10 -24.5t-9 -28.5q-25 -149 -47 -203q-3 -2 -6 -5
q-10 -9 -14 -20q-5 -14 -1 -21q2 -4 10 -5q4 0 7.5 1t8 3.5t7.5 3.5l14 5q14 2 32 1q5 0 11.5 -1.5t10.5 -0.5q5 1 11 7q5 5 6 10l30 180q15 59 15 90q0 39 -20 49q2 3 4 7q63 83 106.5 181.5t85.5 229.5q67 222 83 389zM234 302q15 -12 14 -30q-1 -11 -4.5 -29t-6.5 -31
l-3 -13l-26 -145q-9 1 -10 1q-10 1 -23 -2q17 51 40 185q1 9 8.5 32t10.5 32z" />
    <glyph glyph-name="chochoethai" unicode="&#xe0c;" horiz-adv-x="500" 
d="M511 416q-7 -1 -16 -8q-4 -3 -5 -9l-54 -341l-81 77q-12 6 -25 0q-1 -1 -3 -2t-3 -1q2 17 5 34q4 24 15 69.5t15 67.5q0 2 1.5 7t1.5 7.5v5t-2 3.5t-6 1q-5 0 -13 5t-18 13.5t-16 12t-21.5 14.5t-27 17t-23.5 9q-10 3 -21 2q-26 -2 -60 -21q-44 -25 -65 -54l-15 -21
q19 -2 45 -13q25 -10 30 -17h1q-3 -7 -5 -13q-20 -69 -22 -137q-4 -5 -15 -13.5t-14 -14.5q-21 -40 -10 -70q5 -13 19 -20t29 -5q22 3 39 34q20 37 9 65q-7 19 -26 22q2 83 16 133q7 23 20 50q8 16 -1 18.5t-18 -5.5q-2 1 -6.5 2.5t-5.5 1.5q-5 2 -16.5 4.5t-13.5 3.5
q19 21 45 30q22 8 38 3q18 -4 44.5 -27t32.5 -26l20 -10q2 -1 5 -2t3.5 -1.5t1 -2.5t0 -4t-1.5 -9q-2 -14 -11 -60.5t-12 -72.5q-2 -21 -4 -40q-6 -7 -12 -12q-44 -47 -48 -84q-2 -21 12 -33q12 -9 30 -9q36 1 48 25q5 9 5.5 19.5t0 24.5t-0.5 20v26q9 6 14 4.5t14 -9.5
q15 -13 40 -39t40 -39q3 -1 9.5 -1t9.5 2q5 2 12 9.5t8 13.5q8 55 20 149.5t19.5 160.5l7.5 66q2 10 -3 12q-2 2 -5 2zM137 80q7 1 14 -3q4 -7 1 -17t-16 -8q-17 2 -11 23q5 5 12 5zM293 67q1 -2 1 -7v-7q2 -20 0 -24q-2 -5 -11 -6q-5 -1 -8 1q-7 13 18 43z" />
    <glyph glyph-name="yoyingthai" unicode="&#xe0d;" horiz-adv-x="500" 
d="M251 406q-2 0 -6 -1q-11 -1 -23 -5q-18 -5 -37 -16q-48 -25 -68 -56l-11 -18l24 -5q25 -5 44 -13q-5 -18 -11 -68q-11 -89 -12 -98q-1 -1 -1.5 -2l-0.5 -1q-15 -7 -22 -21q-5 -10 2 -18l-4 -14q-7 -34 8 -54q12 -16 35 -14q20 1 32 14q19 18 22 49q3 34 -17 51
q-10 9 -24 11q2 8 12 93q7 61 17 80q0 1 1 2q6 11 5 14q-2 4 -8 8q-14 9 -35 13q10 9 26 17q17 9 32 10q10 0 18 -1.5t17.5 -6.5t13 -7.5t15 -12t13.5 -11.5q14 -11 23.5 -16t12 -5.5t3.5 -1.5q-4 -24 -9 -61t-8 -61q-3 -21 -7 -76.5t-10 -75.5q-13 -16 -11 -25q1 -5 9 -7
q6 -2 11 1t12 6q3 1 11 8t14 9q26 9 71 5q9 -1 25 -5q-7 -149 -29 -219q-11 -36 -30 -55q-18 -19 -65 -23q-38 -3 -57 20q-10 12 -12.5 24t1.5 50l12 33q18 39 52 25q31 -10 28 -30q-1 -4 -6 -7.5t-10 -2.5q-9 1 -9 10q0 12 -11 15.5t-19 -10.5q-7 -16 -2 -30.5t17 -24.5
q9 -6 20.5 -6t21.5 5q20 12 33 56q7 26 -7 47t-38 23q-34 4 -59 -13t-38 -43q-8 -18 -10 -25q-2 -2 -3 -5q-23 -93 8 -130q28 -34 88 -29q49 4 81 38q27 28 43 80q25 83 31 248l29 338q1 11 -4 12q-9 1 -17 -9t-9 -21l-25 -287q-3 0 -14.5 2t-16.5 2q-37 -1 -74 -14
q-2 -1 -5 -3q2 18 5 59t5 58q3 24 12 67.5t13 68.5q3 19 -5 21q-1 0 -8.5 1.5t-10.5 3.5q-7 3 -18 13.5t-15 13.5q-48 32 -70 38q-3 1 -7 1zM169 86q7 0 13.5 -7t7.5 -14t-7 -10q-16 -6 -23 5q-4 5 -2.5 14t7.5 11q2 1 4 1z" />
    <glyph glyph-name="dochadathai" unicode="&#xe0e;" horiz-adv-x="360" 
d="M218 400q-37 -6 -83 -32q-21 -12 -50 -41q-18 -18 -20 -24h15.5h16.5t12 -1t14 -2.5t11 -5.5q-2 -30 -6.5 -88t-6.5 -78q-6 8 -19 3q-16 -6 -29 -22.5t-15 -33.5q-5 -40 16 -64q11 -12 31 -10q17 1 29 11q17 14 20 40q1 8 2 36q1 3 1 6v1v2q2 33 9 103t9 105v3q2 7 -5 15
t-20 13q1 1 7 5t8 5l7 3.5t7.5 3.5t6.5 2.5t7.5 2t7.5 0.5q7 0 15 -3t13 -6.5t14 -9.5t12 -9q10 -6 28 -23t30 -24q-4 -39 -10 -122.5t-10 -122.5v-4q-2 -27 -12 -153t-17 -191q-2 -23 -8.5 -93t-10.5 -99q-8 -64 -10 -70q-3 -17 -5 -28q-9 -28 -30 -38q-12 -6 -20.5 -8
t-21 0t-24.5 12q-3 2 -20 16t-38.5 31t-34.5 29q-8 7 -23 22.5t-22 21.5q99 79 187 184q11 11 14 19q0 3 -7 -4q-100 -109 -208 -185q-6 5 -13 5q-25 13 -51 10q-39 -5 -85 -47q-21 -19 -29 -35q-11 -21 -8 -27q6 -11 30 -11q8 0 16 1.5t17.5 5t14.5 6t16.5 8t14.5 7.5
q13 6 45 27q5 -4 28.5 -24t35.5 -30q6 -4 24 -17.5t26.5 -20t23.5 -15.5t29 -14q32 -13 53 -10q19 3 32.5 10.5t18.5 13.5t17 22q17 22 20 42q2 9 5 26q4 24 10 65q8 66 21 189q5 43 18 168t19 187q3 12 5.5 33.5t2.5 22.5q4 41 10.5 104t10.5 103q1 11 -7 15
q-15 7 -38 26.5t-34 25.5q-3 2 -12 7l-13.5 7.5t-11.5 6t-13.5 5.5t-12.5 2zM107 95q6 1 11 -4t6 -11q2 -6 -2.5 -13t-10.5 -9q-5 -1 -9.5 2.5t-5.5 7.5q-3 7 0 16t9 11h2zM-110 -530q17 0 17 -5q-1 -6 -22 -10q-31 -6 -31 -3q0 1 1 3q10 15 35 15z" />
    <glyph glyph-name="topatakthai" unicode="&#xe0f;" horiz-adv-x="360" 
d="M218 400q-37 -6 -83 -32q-21 -12 -50 -41q-18 -18 -20 -24h15.5h16.5t12 -1t14 -2.5t11 -5.5q-2 -30 -6.5 -88t-6.5 -78q-6 8 -19 3q-16 -6 -29 -22.5t-15 -33.5q-5 -40 16 -64q11 -12 31 -10q17 1 29 11q17 14 20 40q1 8 2 36q1 3 1 6v1v2q2 33 9 103t9 105v3q2 7 -5 15
t-20 13q1 1 7 5t8 5l7 3.5t7.5 3.5t6.5 2.5t7.5 2t7.5 0.5q7 0 15 -3t13 -6.5t14 -9.5t12 -9q10 -6 28 -23t30 -24q-4 -39 -10 -122.5t-10 -122.5v-5q-4 -49 -10.5 -148t-9.5 -128l-11 -90q-12 -61 -26 -100q-9 -26 -17 -35q0 -1 -4.5 -6.5t-6 -6.5t-5.5 -4t-7.5 -2t-9 4
t-11.5 9q-11 11 -28 14.5t-30 -3.5q-12 -7 -17 -22t-6.5 -39.5t-2.5 -27.5q-5 -30 -19 -34q-4 -1 -12 5q-6 5 -33 37q-17 19 -30 30q99 79 186 184q11 11 14 19q0 3 -7 -4q-99 -109 -208 -185q-5 7 -13 6q-25 13 -51 10q-39 -5 -85 -47q-21 -18 -29 -35q-11 -21 -8 -27
q6 -10 30 -10q20 0 47 12q34 12 77 42q16 -11 36.5 -35t42.5 -36q19 -10 33 -10q16 1 28 11q10 8 20 35q5 13 8 35q1 4 1 14t1.5 15.5t6.5 8.5q5 5 15 3.5t16.5 -4t17 -7t16.5 -6.5q3 -2 8.5 -0.5t8 2t7 4.5t6.5 6t6 6.5t6 5.5q13 15 30 56q15 38 27 106q8 58 15 121
t14.5 145t11.5 118q2 12 4.5 31t2.5 22q4 41 10.5 104t10.5 103q1 11 -7 15q-15 7 -38 26.5t-34 25.5q-3 2 -12 7l-13.5 7.5t-11.5 6t-13.5 5.5t-12.5 2zM107 95q6 1 11 -4t6 -11q2 -6 -2.5 -13t-10.5 -9q-5 -1 -9.5 2.5t-5.5 7.5q-3 7 0 16t9 11h2zM-110 -529q17 0 17 -5
q-1 -5 -22 -10q-31 -6 -31 -2q0 1 1 2q10 15 35 15z" />
    <glyph glyph-name="thothanthai" unicode="&#xe10;" horiz-adv-x="280" 
d="M1117.5 1339.5q-0.5 -0.5 -0.5 -2.5v-3.5v-5.5q0 -7 -1 -13q-1 -9 -3 -19q-2 -13 -6 -27q-4 -11 -8 -24q-10 -27 -25 -57t-35 -62q-39 -63 -94 -133q-55 -68 -121 -138q-67 -69 -139 -134q-75 -66 -150 -122q-78 -57 -151 -100q-54 -31 -101 -52q-16 -6 -29 -6.5t-31.5 3
t-26.5 4.5q-24 1 -49 -4q-24 -4 -52 -34q-18 -19 -32 -39.5t-3 -20.5q43 0 105 -14q12 -3 35 -11q12 -5 15 -6q-2 -12 -8 -47q-7 -41 -16 -80q-1 -6 -3.5 -19t-3.5 -16q0 4 -1 29t-1 40q0 9 1 25t1 19q2 29 -11 46q-9 12 -22 19q-11 5 -20 5q-8 -1 -18 -10q-22 -23 -23 -44
q-2 -34 21 -55q4 -4 8.5 -4.5t7.5 0t8 3.5t6 3q2 1 4 3.5t3 2.5q4 -149 0 -225q0 -6 4 -11q6 -7 11 -5q14 4 21 31q5 14 36 137q15 58 24 99q11 49 11 65v15q-3 6 -9.5 8.5t-15.5 4t-13 2.5q-33 12 -42 15q-41 10 -60 10q12 12 25 14.5t36.5 -3.5t33.5 -6q29 0 55 10
q13 4 45 25q2 1 8 5t10 6q34 17 70 40q74 45 151 105q75 57 149 126q72 66 137 138q66 71 119 141q54 71 92 136q19 33 34 63q14 30 24 58q4 13 8 25q3 14 5 27q2 10 2 19v14q0 5 -1 9q0 3 -0.5 2.5zM133 300q5 0 11 -4t7 -9q2 -5 -0.5 -10t-6.5 -6q-6 -1 -12 4t-8 11
q-3 11 5 14h4zM318 -39q-2 0 -27 -28q-45 -53 -89 -101q2 28 -8 46q-1 2 -3 3q-10 10 -25 10q-5 1 -9 0q-19 -2 -31 -14q-16 -16 -20 -42q-5 -32 15 -47q10 -8 24 -6q9 2 18 7q-14 -15 -31 -33q-73 -76 -136 -134q-49 -44 -102 -85q-13 -10 -43 -32h-2q-25 13 -51 10
q-39 -5 -85 -47q-21 -19 -29 -35q-11 -21 -8 -27q6 -11 30 -11q8 0 16 1.5t17.5 5t14.5 6t16.5 8t14.5 7.5q13 6 45 27q16 -11 36 -36q21 -23 43 -35q19 -11 33 -10q16 0 28 11q10 8 20 35q5 13 8 35q1 4 1 10.5t0.5 11t2 9t5.5 7.5q5 8 30 4t33 -2q23 6 44 24t30 40
q14 33 27 106q3 16 6.5 34t5 29.5t2.5 12.5v1l5.5 25.5t8.5 40.5q1 6 1 11q46 54 95 116q24 30 23 31zM147 -144q14 -1 19.5 -5.5t4.5 -16.5q-5 -4 -12 -3q-12 2 -15 10q-3 9 3 15zM161 -232q-4 -19 -6 -25q-1 -5 -5 -31.5t-8 -46.5q-13 -69 -26 -99q-5 -13 -17 -20
q-20 -11 -46 -14q-10 -1 -22.5 0.5t-19.5 1t-14 -5.5q-8 -6 -13 -17.5t-6.5 -20.5t-3.5 -24.5t-3 -18.5q-5 -30 -19 -35q-4 -1 -12 6q-6 5 -33 36q-18 21 -32 33q23 19 36 29q52 44 99 91q63 60 132 139q10 12 19 22zM-230 -530q17 0 17 -5q-1 -6 -22 -10q-31 -6 -31 -3
q0 1 1 3q10 15 35 15z" />
    <glyph glyph-name="thonangmonthothai" unicode="&#xe11;" horiz-adv-x="360" 
d="M248 400q-6 -1 -11 -3q-6 -3 -11 -9q-9 -10 -19 -28q-18 -30 -42 -89q-15 -35 -30 -72q2 15 5 28q1 10 14.5 39.5t16.5 42.5q10 40 6 51q-5 10 -21 23q-8 7 -19 6q-7 0 -15 -4q-4 -1 -8 -3.5t-7 -3.5t-4 -2q-2 0 -6 1q-14 6 -16 6q-14 3 -27 -5q-13 -7 -29 -27
q-17 -21 -23 -49q-4 -16 -1 -29q4 -17 19 -24q31 -17 60 2q14 9 22.5 30t9.5 41q0 9 -5 11q-8 3 -19 -8q-1 -2 -2 -6t-2 -5q-5 -6 -12 -10q-20 -9 -30 -1q-4 3 -2 12t8 17q12 15 21 20q3 2 7 -0.5t8.5 -7t6.5 -4.5q2 -2 5 -0.5t6 4t5 3.5t7 4t7 5q6 4 20 -16q3 -6 4 -12.5
t0.5 -10t-3 -11.5l-2.5 -8q-2 -10 -15 -31.5t-15 -34.5q-7 -41 -18 -112.5t-15 -93.5q-2 -11 -1 -12q2 -9 6 -9q8 0 18 19q8 12 12 21q8 19 36.5 97.5t44.5 117.5q24 57 40 85q6 11 8 12q35 -13 60 -40q24 -27 22 -42q-5 -56 -15 -120.5t-17.5 -103t-7.5 -36.5q-2 -10 4 -13
q7 -2 18 6t12 14q28 150 48 270q6 36 -36 68q-29 24 -74 38q-3 1 -5 1q-1 1 -2 1z" />
    <glyph glyph-name="thophuthaothai" unicode="&#xe12;" horiz-adv-x="540" 
d="M273 406q-6 0 -11 -2q-7 -3 -16 -10q-12 -10 -15 -9q-1 0 -4 1.5t-8.5 5t-10.5 5.5q-12 7 -23 6q-14 -1 -26 -13q-3 -4 -24 -19.5t-32 -27.5q-35 -41 -17 -102q9 -31 15 -61.5t7 -45.5l2 -15v-3q-15 -50 -25 -103q-1 -6 3 -11q5 -7 9 -7q9 2 15.5 12.5t8.5 19.5
q15 83 47 162q6 12 17 37.5t16 39.5t8 27q3 18 -3 33q-4 9 -10 14q-8 7 -19 6q-17 -1 -31 -18q-11 -13 -17 -32t-3 -36q3 -21 19 -30q3 -2 7 -3q-8 -20 -11 -27l-0.5 -0.5l-0.5 -0.5q-3 3 -5 11q-2 7 -7.5 23.5t-7.5 26.5q-5 17 -4.5 34.5t10.5 28.5q7 9 19.5 17.5
t21.5 16.5q3 4 6 4t7 -2q17 -10 25.5 -10.5t17.5 2.5q12 2 34 19q3 5 9 -0.5t13.5 -17t11.5 -14.5q14 -14 23 -24q4 -4 8.5 -7t6 -5t1.5 -7l-5 -112v-3v-9l-1 -25q0 -4 -1 -8q-9 -5 -16 -10q-59 -38 -59 -83q0 -17 7 -26q11 -13 37 -9t41 36q11 22 16 57q1 2 1.5 4.5
t1.5 4.5q1 1 4.5 3.5t5.5 2.5q3 3 8 1.5t5.5 -1.5t5 -3l4.5 -3q15 -10 33.5 -32t29.5 -39l11 -17q6 -9 16 -7q5 1 17 18.5t13 22.5l48 318q1 5 -1 14t-7 10q-10 2 -19.5 -9t-10.5 -21l-35 -273q-39 42 -85 57q-16 5 -40 -2l14 162q1 13 -0.5 16.5t-6.5 6t-9 6t-14.5 13
t-13.5 11.5q-5 4 -11 12t-12.5 14t-15.5 10q-6 3 -13 3zM165 310q7 0 10 -15q2 -10 -5 -20q-5 -9 -13 13q-2 6 -2 7q4 15 10 15zM303 86q3 0 3.5 -2t0.5 -5.5t-0.5 -7t-1.5 -5.5q-4 -14 -12 -14q-4 0 -8 4.5t-3 8.5q5 15 20 21h1z" />
    <glyph glyph-name="nonenthai" unicode="&#xe13;" horiz-adv-x="500" 
d="M508 410q-5 0 -14 -10t-10 -20q-4 -38 -14.5 -122t-14.5 -123v-10q-4 2 -7.5 2.5t-6 0.5t-5.5 -1l-4.5 -1.5t-5.5 -2.5l-6 -3q-47 -22 -60 -30q-2 -1 -6 -4q-10 -6 -14 -8.5t-9.5 -5t-8 -2t-4.5 2.5q5 47 13 93q4 24 14 69.5t14 67.5q0 2 1.5 7t1.5 7.5v5t-2 3.5t-6 1
q-5 0 -13 5t-18 13.5t-16 12t-21.5 14.5t-27 17t-23.5 9q-10 3 -21 2q-26 -2 -60 -21q-44 -25 -65 -54l-15 -21q19 -2 45 -13q25 -10 30 -17h1q-3 -7 -5 -13q-20 -69 -22 -137q-4 -5 -15 -13.5t-14 -14.5q-21 -40 -10 -70q5 -13 19 -20t29 -5q22 3 39 34q20 37 9 65
q-7 19 -26 22q2 83 16 133q7 23 20 50q8 16 -1 18.5t-18 -5.5q-2 1 -6.5 2.5t-5.5 1.5q-5 2 -16.5 4.5t-13.5 3.5q19 21 45 30q22 8 38 3q18 -4 44.5 -27t32.5 -26l20 -10q2 -1 5 -2t3.5 -1.5t1 -2.5t0 -4t-1.5 -9q-2 -15 -7 -42t-8.5 -49t-5.5 -42q-6 -56 -6 -103
q0 -7 -2 -11q-2 -2 -2 -4q-1 -1 -5 -4.5t-6.5 -7.5t-3.5 -10q-1 -7 3 -11q3 -4 10 0q8 4 15 12q13 10 21 16q5 4 19 14t25 17.5t21 13.5q8 5 18 9q-4 -11 -5 -21q0 -16 17 -33q16 -16 30 -15q12 1 31 23q16 18 18 33q6 29 -6 41q-2 3 -6 5q4 40 14 126t14 127q4 45 -2 45z
M449 82q9 0 15 -6q4 -5 1 -16q-3 -3 -12.5 -1t-12.5 8q-6 12 2 14q4 1 7 1zM137 80q7 1 14 -3q4 -7 1 -17t-16 -8q-17 2 -11 23q5 5 12 5z" />
    <glyph glyph-name="dodekthai" unicode="&#xe14;" horiz-adv-x="360" 
d="M200 403q-27 0 -47 -10q-48 -24 -72 -51q-38 -42 -26 -96q18 -79 20 -188q-5 -22 -10 -46q-1 -6 3 -11q5 -7 9 -6q9 2 15.5 12t8.5 20q1 9 3 18q1 2 1 3q14 69 43 140q6 13 17 38.5t16 39.5t8 27q3 17 -3 33q-4 8 -10 14q-8 6 -19 6q-17 -2 -31 -18q-11 -14 -17 -32
q-6 -19 -3 -36q3 -22 19 -31q3 -2 7 -2q-8 -20 -11 -27q-7 -16 -12 -30q-2 44 -10 83q-5 21 -6 28.5t1 19.5t10 21q15 18 61 40q3 2 7 3t9 1h8.5t10 -2t9.5 -2.5t9.5 -3.5t8.5 -3.5t9.5 -4t8.5 -3.5q25 -11 55 -40q4 -3 8 -6.5t6 -5t3.5 -4t1.5 -4.5q-10 -117 -56 -279
q-2 -6 0 -11q4 -8 9 -8q10 1 17 10t10 20q11 40 19.5 74t13.5 55t15 68t18 82q4 17 0.5 24.5t-14 12t-14.5 8.5q-34 32 -64 45q-36 16 -73 15zM145 310q7 0 10 -15q2 -10 -5 -20q-5 -10 -13 12q-2 6 -2 8q4 15 10 15z" />
    <glyph glyph-name="totaothai" unicode="&#xe15;" horiz-adv-x="360" 
d="M253 406q-6 -1 -11 -3q-7 -2 -16 -10q-12 -9 -15 -9q-1 0 -4 2t-8.5 5t-10.5 6q-12 6 -23 5q-14 0 -26 -12q-3 -4 -24 -19.5t-32 -28.5q-35 -41 -17 -102q9 -30 15 -60.5t7 -46.5l2 -15v-3q-15 -49 -25 -103q-1 -6 3 -11q5 -7 9 -6q9 2 15.5 12t8.5 20q15 83 47 161
q6 13 17 38.5t16 39.5t8 27q3 17 -3 33q-4 8 -10 14q-8 6 -19 6q-17 -2 -31 -18q-11 -14 -17 -32q-6 -19 -3 -36q3 -22 19 -31q3 -2 7 -2q-8 -20 -11 -27l-1 -1q-3 2 -5 10t-7.5 24t-7.5 26q-5 18 -4.5 35t10.5 29q7 8 19.5 16.5t21.5 17.5q3 3 6 3.5t7 -2.5q17 -9 25.5 -10
t17.5 2q12 2 34 20q3 4 9 -1.5t13.5 -16.5t11.5 -15q14 -14 23 -24q4 -3 9 -6t6.5 -5.5t0.5 -7.5q-45 -268 -45 -281q-1 -7 2 -12q3 -4 13.5 3.5t14.5 21.5q31 168 54 288q3 9 1.5 14t-3.5 5.5t-6.5 2.5t-7.5 6q-4 4 -14.5 13t-13.5 12q-5 4 -11 12t-12.5 14t-15.5 10
q-6 3 -13 3zM145 310q7 0 10 -15q2 -10 -5 -20q-5 -10 -13 12q-2 6 -2 8q4 15 10 15z" />
    <glyph glyph-name="thothungthai" unicode="&#xe16;" horiz-adv-x="360" 
d="M216 401q-29 -6 -78 -30q-44 -22 -58 -36q-2 -2 -6 -5.5t-6 -5.5t-5.5 -6t-3 -6.5t0.5 -6.5q1 -4 7 -5.5t11 -2.5h6q26 -5 46 -14q-4 -17 -9 -61q-2 -11 -5 -44t-6 -48q-1 -6 -6 -20.5t-8 -28t-3 -25.5q0 -29 10 -42q7 -10 11 -12.5t12 -1.5q24 2 32 10q18 17 21 53
q5 50 -14 67q-12 11 -18 13q1 18 1.5 40.5t2.5 34.5q8 62 17 80q1 3 1 5q1 4 0 5q-1 5 -8 9q-13 9 -34 12q24 16 58 26q7 2 14 2.5t13.5 -1.5t11 -3t11.5 -6t9.5 -7t10.5 -8.5t11 -7.5q8 -7 17 -13t13.5 -9.5t9 -6.5t6 -6t0.5 -6q-5 -73 -9 -110l-19 -157q0 -4 -0.5 -10.5
t-0.5 -9.5t1.5 -6.5t5 -5t7.5 1.5t8.5 8l4.5 5q2 1 6 14t4 17q16 103 21 154q9 77 10 114q0 3 0.5 7.5t0.5 8v7.5t-1 6t-3 3q-20 5 -28 10q-6 3 -11.5 7t-12.5 9.5t-11 8.5q-1 1 -10 7.5t-11.5 8.5t-10.5 7t-12.5 7t-11.5 4t-13 2zM135 82q6 0 12 -5.5t7 -11.5q0 -3 -2.5 -6
t-5.5 -4q-10 -2 -16 11q-6 12 1 15q2 1 4 1z" />
    <glyph glyph-name="thothahanthai" unicode="&#xe17;" horiz-adv-x="360" 
d="M243 404q-6 0 -12 -2q-5 -3 -11 -10q-8 -9 -19 -27q-17 -30 -42 -89q-15 -37 -37 -94q5 48 7 73q2 17 6 26q1 3 14 22q0 1 8 12q13 19 17 32q6 21 -6 37q-11 15 -32 15q-6 1 -11 0q-24 -3 -40 -18q-17 -16 -22 -43q-6 -30 10 -49q10 -11 22 -13q-1 -4 -1 -5
q-5 -34 -9 -115t-15 -142q-2 -6 2 -12q1 -2 10 -2q7 0 11 2q5 4 6 10t3 17q9 21 39 109.5t46 125.5q24 58 40 86q7 11 9 11q34 -12 59 -39q25 -28 23 -42q-9 -54 -18 -121t-14 -107l-4 -40q-1 -6 2 -12q3 -1 11 0t10 3q5 3 6 9q28 165 48 285q6 36 -35 68q-30 23 -75 38
q-2 1 -5 1h-1zM115 365q6 0 11 -6q8 -14 0 -30q-2 -6 -8.5 -8t-13.5 3q-6 7 -3 23.5t13 17.5h1z" />
    <glyph glyph-name="thothongthai" unicode="&#xe18;" horiz-adv-x="280" 
d="M175 386q-5 0 -11 -4q-39 -18 -70 -51q-16 -17 -15 -24q1 -3 18 -4q-13 -29 7 -55q4 -5 10 -6q19 5 21 23q1 6 -3 11q-11 15 -4 17q3 1 9 -4q7 -4 8 -10q3 -7 -1 -17q-3 -6 -7 -19q-7 -10 -9 -26l-25 -150q-3 -23 -10 -33q-3 -3 -7.5 -8t-7.5 -7q-14 -15 -11 -27
q1 -6 9 -7q3 0 8.5 3.5t7.5 4.5q4 2 12.5 4.5t10.5 3.5q8 3 20 3.5t20 -0.5l7 -1q12 1 23 14.5t12 19.5l40 250q1 8 -2 11q-2 3 -8 5q-1 1 -2 1q-28 12 -43 17l-42 14q12 13 20 16q5 3 14 3q8 0 25 -8.5t30 -17.5l13 -8q5 -2 11 0q8 2 17 12q0 1 1 2q11 12 8 14
q-1 0 -6.5 1.5t-12.5 4.5t-22.5 11t-22 11t-17.5 6t-21 4h-2zM178 276q10 -4 23 -10l-32 -207q-1 -6 -14 -8q-3 0 -8.5 -0.5t-7 0t-4.5 2t-2 5.5t1 12l18 118q6 32 19 62q6 15 7 26z" />
    <glyph glyph-name="nonuthai" unicode="&#xe19;" horiz-adv-x="320" 
d="M315 410q-4 0 -11.5 -17t-8.5 -28l-25 -231q-14 -1 -36 -10q-24 -9 -60 -29q-14 -7 -28 -19q-17 -6 -19 8.5t4 46.5q3 28 7.5 78t5.5 63q5 2 9 4q7 3 13 8l2 4q6 6 10 13q17 30 6 55q-8 19 -34 23q-5 1 -10 1q-16 1 -29 -8q-18 -13 -23 -40q-5 -29 11 -47q6 -7 15 -10
q-1 -14 -5 -64t-7.5 -76t-1.5 -45t-3.5 -36.5t-21.5 -28.5q-8 -6 -10 -11q-4 -10 1 -14t11 -4q20 11 63.5 35t53.5 30l12 6q0 -4 -1 -9q-1 -40 26 -54q21 -10 41 2q12 7 23 23q12 17 14 37q4 25 -10 41q-1 2 -3 4q3 4 3 8l22 246q1 7 -0.5 26t-5.5 19zM139 340q8 0 14 -5
q4 -4 0.5 -11t-8.5 -9q-12 -3 -20 4q-3 3 -1.5 10t6.5 9t9 2zM263 85q8 1 12 -4q2 -3 2.5 -11.5t-2.5 -13.5q-4 -4 -12 -5.5t-14 2.5t-5.5 12.5t5.5 13.5q5 6 14 6z" />
    <glyph glyph-name="bobaimaithai" unicode="&#xe1a;" horiz-adv-x="360" 
d="M346 421q-6 0 -10.5 -3.5t-4.5 -9.5l-48 -363q-103 1 -154 -7q-3 0 -7 -1q2 36 6 70q11 102 27 149q5 14 29 50q18 26 22 35q5 12 5 22q0 13 -8 23q-11 13 -32 14q-5 0 -11 -1q-22 -3 -38 -16q-15 -12 -22 -30q-8 -24 4 -41q12 -16 38 -15q-10 -16 -15 -31
q-18 -51 -29 -156q-5 -43 -7 -86q-7 -4 -14 -9q0 -1 -3 -3t-4 -3l-3.5 -3.5t-3 -3.5t-2 -3.5t-1 -3.5t0.5 -4q3 -7 15 -3q14 5 47 11q23 3 66 4t75 1l32 -1q6 0 10 3.5t5 9.5l49 388q1 7 -3 12t-11 5zM153 370h5q12 0 13 -7q5 -28 -12 -29q-14 -1 -19 6q-3 5 -3 10
q-1 11 4 16q7 4 12 4z" />
    <glyph glyph-name="poplathai" unicode="&#xe1b;" horiz-adv-x="360" 
d="M638 1441q-8 -9 -16 -19t-14.5 -18.5t-14.5 -21.5t-12.5 -20t-12.5 -22.5t-11 -21t-11.5 -23.5t-10.5 -21.5t-11 -23.5t-10 -22q-107 -250 -138 -445q-27 -255 -46 -372q-1 -2 -1 -5l-2 -14q0 -1 -0.5 -2t-0.5 -2l-2 -19l-43 -325q-103 1 -154 -7q-4 -1 -7 -1q2 35 6 69
q11 103 27 150q5 14 29 49q18 26 22 36q5 11 5 21q0 13 -8 23q-11 14 -32 15q-5 0 -11 -1q-22 -3 -38 -16q-15 -12 -21 -31q-9 -24 3 -40t38 -16q-10 -16 -15 -30q-18 -51 -29 -157q-5 -43 -7 -85q-7 -4 -14 -10l-2.5 -2t-3.5 -3l-3.5 -3.5l-3.5 -3.5t-2.5 -3.5t-1 -3.5
t0.5 -4q3 -7 15 -3q15 5 48 10q22 4 65 5t75 0h32q6 0 10 3.5t5 9.5l50 388v4q12 81 34 334q8 98 34.5 197.5t69.5 221.5q66 176 141 281zM153 369h3q12 0 13 -8q5 -27 -12 -28q-14 -1 -19 6q-3 4 -3 10q-1 11 4 15q7 5 14 5z" />
    <glyph glyph-name="phophungthai" unicode="&#xe1c;" horiz-adv-x="360" 
d="M352 401q-7 0 -18 -12q-4 -5 -4 -10q-4 -48 -12 -153.5t-11 -146.5q-10 18 -38 50t-54 51q-5 5 -11 5q-7 0 -11 -6q-20 -18 -51 -61q-6 -8 -10 -19q-3 14 -2 35q1 19 18 130q33 -6 55 8q23 15 37 40q18 33 2 56q-11 16 -33 16q-6 1 -12 0q-24 -4 -41 -17q-25 -19 -31 -61
q-12 -2 -13 -13q-2 -13 -1 -16q3 -4 8 -6q-1 -5 -12 -64t-13 -91q-3 -48 8 -74q7 -17 24 -28t34 -9q9 1 14 15q5 10 0 20q-1 4 -7 8.5t-7 6.5l-6 6q-5 22 10 43q28 40 30 41q10 -11 30 -32t34 -38t26 -35q3 -4 3.5 -9t0 -8.5t-1 -6.5t0 -4.5t3.5 -1.5q5 0 19.5 12.5
t20.5 22.5q4 7 4 15q4 48 13 164t12 165q1 9 -4 11q-1 1 -3 1zM197 347q4 0 7 -2q17 -9 10 -22q-7 -12 -22 -18q-13 -5 -33 -2q0 2 1 7.5t1.5 7t1 5t1.5 5t2 4t3 4t5 3.5q11 8 23 8z" />
    <glyph glyph-name="fofathai" unicode="&#xe1d;" horiz-adv-x="360" 
d="M608 1451q-2 0 -10 -13l-25 -40q-21 -37 -39 -70q-33 -61 -58 -116q-26 -57 -46 -114t-35 -118q-14 -60 -25 -128q-11 -69 -19 -144q-21 -223 -21 -328q0 -178 -21 -306q-6 16 -36 50.5t-57 55.5q-5 5 -12 5q-6 -1 -11 -6q-20 -18 -51 -62q-5 -8 -9 -18q-4 14 -2 35
q1 19 18 130q33 -6 54 8q23 15 37 40q18 33 2 56q-10 15 -33 16q-6 0 -12 -1q-23 -3 -41 -17q-24 -18 -31 -61q-11 -1 -13 -12q-2 -13 0 -16q3 -4 7 -6q0 -5 -11 -64t-13 -91q-4 -48 8 -74q7 -17 23.5 -28t33.5 -10q9 1 15 16q4 10 0 20q-2 3 -8 8t-7 6q-2 3 -6 7
q-4 21 11 43q28 39 29 41q10 -11 30 -32t34.5 -38t26.5 -35q3 -5 3.5 -9.5t-0.5 -8t-1.5 -7t0 -5t3.5 -0.5q5 0 20 12.5t20 21.5q4 7 5 16q26 145 23 318q-2 96 16 328q5 79 14 143q9 68 23 128q13 60 31 117q18 56 43 114q24 56 55 117q17 34 38 70q19 34 23 42zM197 346
q5 0 8 -2q16 -8 9 -22q-6 -11 -21 -17q-13 -5 -34 -3q1 3 1.5 8.5t1 7t1.5 5t1.5 5t2 3.5t3.5 4t4 3q11 8 23 8z" />
    <glyph glyph-name="phophanthai" unicode="&#xe1e;" horiz-adv-x="360" 
d="M238 406q-4 0 -10 -14q-44 -96 -64 -145q-11 -27 -29 -74q3 69 8 107q21 14 29 34q15 37 4 58q-10 20 -40 22q-25 1 -42 -12q-18 -14 -24 -40q-6 -30 10 -47q10 -10 25 -12q-8 -42 -12 -126t-15 -125q0 -1 -1.5 -7.5t-2 -9.5t0.5 -6q4 -6 10 -6q2 -1 15 13h1q2 1 14 19
l14 21q34 100 53 149l49 117q15 -61 23 -91q1 -2 9 -27t9 -38q6 -62 -14 -160q0 -3 2.5 -7.5t5.5 -4.5q6 0 19 9q5 3 6 8q30 102 85 342q2 16 -0.5 33.5t-9.5 18.5q-7 -3 -13.5 -20t-6.5 -24l-38 -140q-18 72 -30 107q-13 38 -23 57q-9 17 -13 20q-2 1 -4 1zM122 357
q8 0 15.5 -7t7.5 -14q0 -4 -5 -7t-10 -3q-14 0 -18 12q-2 4 0 10.5t6 7.5q1 1 3 1h1z" />
    <glyph glyph-name="fofanthai" unicode="&#xe1f;" horiz-adv-x="360" 
d="M818 1361q-2 0 -12 -13q-15 -18 -33 -43q-113 -152 -194 -305q-81 -151 -136 -316q-37 -110 -77 -276q-2 -10 -11 -48.5t-14 -59.5l-33 -100q-12 86 -24 128q-9 30 -23 57q-9 17 -13 20q-6 4 -14 -13q-45 -96 -64 -145q-11 -28 -28 -78q2 73 7 111q21 14 29 34
q15 37 4 58q-10 20 -40 21q-25 2 -42 -11q-18 -14 -24 -41q-6 -29 10 -47q10 -10 25 -11q-8 -44 -10 -127t-13 -124q0 -1 -1.5 -7.5t-2 -9.5t0.5 -7q4 -5 10 -6q2 0 5.5 3t7 7.5t4.5 5.5q3 2 13 18t10 19q31 101 49 150l53 127q18 -50 23 -76q13 -56 16 -121q4 -88 -4 -129
q0 -3 2.5 -7.5t5.5 -4.5q1 0 3.5 1.5t4.5 4t3 2.5q2 2 13.5 23.5t12.5 25.5q15 84 28 145q13 51 29 125q5 19 8 32q6 24 7 37q0 2 1 6t1 6q37 167 71 276q51 165 128 316q77 154 187 308q5 7 12 17t11.5 16.5t7.5 10.5zM128 356q8 0 15.5 -6.5t7.5 -13.5q0 -4 -5 -7t-10 -3
q-14 0 -18 12q-2 4 0 10t6 8h3h1z" />
    <glyph glyph-name="phosamphaothai" unicode="&#xe20;" horiz-adv-x="360" 
d="M228 411q-4 0 -8 -1q-52 -10 -85 -30q-13 -8 -23 -16t-16.5 -14t-25.5 -25q23 0 47 -12.5t23 -27.5q-2 -28 -8 -84t-8 -87q-4 5 -14 8.5t-15 2.5q-14 -4 -24.5 -18t-12.5 -32q-5 -40 16 -64q11 -12 31 -10q17 1 29 11q17 14 20 40q2 11 3 45q2 33 10 107t10 109
q0 18 -42 37q29 29 66 28q31 -1 66 -22q11 -6 29.5 -23.5t30.5 -24.5q-9 -102 -32 -258l-1.5 -8t-2.5 -15t0 -15.5t4 -11.5q6 -6 15.5 4.5t11.5 20.5q24 138 48 298q1 9 -5 12q-16 8 -39 28t-35 27q-39 21 -63 21zM101 86q7 0 13.5 -7.5t8.5 -13.5q1 -7 -1.5 -14.5
t-8.5 -9.5q-7 -2 -13.5 4t-9 13.5t0 16.5t8.5 11h2z" />
    <glyph glyph-name="momathai" unicode="&#xe21;" horiz-adv-x="360" 
d="M351 416q-7 0 -16 -7q-4 -3 -5 -9l-54 -341q-19 13 -51.5 40.5t-49.5 36.5q-12 6 -25 0q-1 -1 -3 -2t-3 -1v8l1 2v4q1 7 1 11q7 55 25 107q1 4 7 9q12 10 17 18q2 2 3 4q15 23 20 46q4 15 2 28q-3 16 -16 25q-12 9 -28 9q-14 -1 -29 -8q-27 -14 -41 -37q-12 -19 -11 -43
q1 -29 20 -42q11 -7 26 -5q-19 -65 -24 -107q-1 -7 -2 -16q-4 -19 -4 -37q-7 -6 -13 -12q-44 -47 -48 -84q-2 -21 12 -33q12 -9 30 -9q36 1 48 25q5 9 5.5 19.5t0 24.5t-0.5 20v26q3 3 5 4.5t5 0.5t4 -1.5t5 -4t6 -4.5q12 -8 109 -78q7 -3 13 1q5 2 12 9.5t8 13.5
q8 55 20 149t20 161l7 66q2 10 -3 12q-2 2 -5 1zM163 358q3 0 5 -1q6 0 10 -3q3 -2 4 -6q3 -8 1 -13q-2 -6 -10 -11q-3 -2 -12 -3q-3 -1 -7 2q-7 5 -9 12q-3 12 4 20q4 2 14 3zM113 68q1 -2 1 -7v-7q2 -20 0 -24q-2 -5 -11 -6q-5 -1 -8 1q-7 13 18 43z" />
    <glyph glyph-name="yoyakthai" unicode="&#xe22;" horiz-adv-x="360" 
d="M343 421q-4 0 -8 -8t-5 -13t-5 -50q-2 -19 -4 -50.5t-4.5 -56.5t-6.5 -48q-4 -22 -13 -57.5t-16 -60.5l-7 -25q-6 -1 -23.5 -1t-35.5 -1q-15 -1 -55 -3q-23 -1 -26 11q1 46 25 95q7 6 13 15t4 13q-3 6 -9 8q-5 1 -11 1.5t-10.5 1t-8.5 2.5q-9 3 -12 7q-10 12 -12 29
q-1 5 0 11t2 9.5t3.5 11.5t3.5 13q7 -5 13 -5q18 0 39 13q22 15 32 47q10 37 -11 56q-8 8 -21 8q-8 0 -18 -5q-14 -6 -26 -18q-25 -24 -42 -76q-13 -41 -13 -65q0 -39 15 -61q12 -18 31 -21q2 -1 4 -1q-21 -55 -23 -77q0 -5 -1 -14t-1.5 -15t1 -13t4.5 -13q7 -11 25 -15
q11 -2 23.5 -2.5t31.5 0t25 0.5q78 0 78 2q10 3 12 13q27 105 35 159q15 95 15 183q0 5 0.5 17.5t0.5 20t-1.5 16t-4.5 11.5q-1 1 -2 1zM159 353q12 1 21 -8q4 -4 0.5 -13t-10.5 -17q-5 -5 -24 -1q-7 2 -5 16t9 20q4 3 9 3z" />
    <glyph glyph-name="roruathai" unicode="&#xe23;" horiz-adv-x="280" 
d="M214 405h-2q-10 0 -26 -6q-28 -9 -45.5 -22.5t-37.5 -35.5q-5 -7 -1 -15q3 -7 23 -7q34 0 50 -9q24 -14 25 -29q0 -9 -2 -23t-6.5 -39t-7.5 -44q-1 -10 -7 -34t-7 -31q-14 7 -30 0q-25 -10 -35 -36q-9 -23 -2 -42q6 -19 25 -27q18 -9 35 -3t30 31q4 7 5.5 15.5t3 20
t2.5 19.5q3 14 6 42t4 38q3 20 8.5 52.5t8.5 53t3 30.5q0 6 -1 9q-7 3 -19.5 16t-20.5 16q-7 4 -24 6q10 7 17 9q19 3 27 -3q31 -24 37 -27q7 -3 23 7q4 2 10.5 8.5t6.5 9.5q2 10 -5 10q-9 0 -15 3t-15.5 12.5l-12.5 12.5q-15 12 -28 12zM149 80h1q7 -1 12 -8.5t3 -16.5
q-3 -15 -10 -15q-8 0 -14 8.5t-6 16.5q0 5 4.5 10t9.5 5z" />
    <glyph glyph-name="ruthai" unicode="&#xe24;" horiz-adv-x="360" 
d="M216 401q-29 -6 -78 -30q-44 -22 -58 -36q-2 -1 -6 -5l-6 -6t-5.5 -6t-3 -6t0.5 -7q1 -3 7 -5t11 -2h6q26 -6 46 -14q-4 -17 -9 -62q-2 -11 -5 -44t-6 -48q-1 -5 -6 -20t-8 -28.5t-3 -24.5q0 -29 10 -42q7 -10 11 -12.5t12 -2.5q24 2 32 10q18 18 21 53q5 51 -14 68
q-12 10 -18 13q1 17 1.5 39.5t2.5 35.5q8 62 17 80q1 2 1 5q1 3 0 4q-1 5 -8 9q-13 9 -34 12q24 16 58 26q7 2 14 2.5t13.5 -1t11 -3t11.5 -6.5t9.5 -7t10.5 -8.5t11 -7.5q8 -7 17 -13l13.5 -9t9 -6.5t6 -6.5t0.5 -6q0 -15 -1 -34q-23 -315 -73 -629q-18 -115 -44.5 -298.5
t-34.5 -236.5q-1 -9 -7 -39.5t-10 -54.5q-3 -19 0 -22q2 -2 6 5q2 4 4 11q19 63 27 110q59 367 89 530q29 161 59 410q15 100 20 149q9 78 10 115q0 2 0.5 6.5t0.5 8v7.5t-1 6t-3 3q-1 0 -9 2q-4 5 -9 2q-10 3 -16 6t-11.5 7t-12.5 10t-11 8q-1 1 -10 7.5t-11.5 8.5t-10.5 7
t-12.5 7t-11.5 4t-13 2zM135 82q6 0 12 -5.5t7 -10.5q0 -4 -2.5 -7t-5.5 -4q-10 -1 -16 11t1 16q2 1 4 0z" />
    <glyph glyph-name="lolingthai" unicode="&#xe25;" horiz-adv-x="360" 
d="M185 402q-4 1 -7 0q-15 -1 -25 -7q-50 -29 -88.5 -69.5t-84.5 -103.5q-5 -6 -9.5 -18.5t-0.5 -16.5q4 0 5 -0.5t4.5 2.5t4.5 4t4.5 5t3.5 5q88 120 174 160q10 5 36 2q33 -4 63 -18q10 -4 25.5 -15.5t22.5 -15.5q3 -1 9.5 -4l6.5 -3q3 -1 2 -5q-7 -63 -18 -131
q-3 16 -7 30.5t-11 35t-10 28.5q-11 36 -40 71q-12 16 -26 20q-4 2 -8 2q-11 0 -30 -16t-39 -65q-17 -43 -29 -98q-12 -49 -15 -90l-1 -16q-2 -44 11 -62q13 -16 36 -14q19 2 32 14q19 18 22 49q3 36 -18 52q-20 15 -38 9l-0.5 -0.5t-1.5 -0.5q0 42 2 53q7 51 23 92
q19 47 29 56q2 2 4 1q5 -2 12 -11q22 -26 35 -56q31 -65 41 -114.5t0 -137.5q-2 -5 1 -10q2 -5 8 -7t12 1q1 0 2 1q3 2 4 5q11 13 12 17q20 137 40 298q1 3 1.5 8t1 8t0 6.5t-2.5 4.5q-2 3 -8.5 3.5t-10.5 2.5q-45 33 -61 39q-29 13 -77 19q-14 1 -23 1zM146 87
q7 1 12.5 -7.5t6.5 -17.5q1 -6 -2 -12.5t-8 -7.5q-6 -1 -12 6t-8 14q-1 8 1.5 16t8.5 9h1z" />
    <glyph glyph-name="luthai" unicode="&#xe26;" horiz-adv-x="360" 
d="M226 420q-8 0 -36 -10q-63 -23 -100 -50q-5 -4 -12.5 -11.5l-12.5 -12.5l-5 -6l26 -4q12 -3 22 -16q9 -10 11 -22q-1 -4 -2 -16t-2 -20q-6 -49 -14 -98q-28 -5 -53 -36q-31 -39 -23 -81q6 -29 30 -37q15 -5 29 5q20 15 26 30q12 31 26 110q1 6 13 103q4 30 6 37
q1 2 15 25q2 4 -1.5 8t-12 10.5t-11.5 9.5l-10 10q52 33 75 22q18 -9 55 -35q6 -4 15.5 -13t17.5 -15.5t12 -6.5t4.5 -1.5t0.5 -8.5q-22 -338 -71 -650q-18 -115 -44.5 -298t-34.5 -237q-1 -8 -7 -39t-10 -55q-3 -19 0 -22q2 -2 5 5q2 4 5 11q19 64 27 110q59 367 89 530
q52 288 89 650q0 3 1 9t1.5 9.5t0.5 8t-1.5 6.5t-4.5 2q-12 0 -30 23.5t-25 28.5q-43 30 -75 38h-4zM83 110h2q10 -4 10.5 -19.5t-5.5 -25.5q-5 -10 -14 -9q-8 1 -11 14q0 19 7 29.5t11 10.5z" />
    <glyph glyph-name="wowaenthai" unicode="&#xe27;" horiz-adv-x="240" 
d="M129 390q-8 0 -26 -9q-38 -19 -78 -65q-36 -40 -47 -74q-1 -2 -2.5 -5.5t-2 -5.5t0 -4t2.5 -3q4 -2 9 1.5t8 8.5q17 31 52 67q2 1 8 7.5t8 8.5t7.5 7t9 7.5t9.5 6t12 6.5q14 8 50 -12q2 -1 15 -9.5t20 -10.5q3 -2 8.5 -3t7 -2.5t1.5 -4.5q-4 -84 -9 -124q-3 -25 -6 -48
q-10 5 -20 4q-15 -1 -29 -13q-20 -18 -32 -47q-9 -24 -2 -43q6 -18 25 -27q17 -8 34 -1q16 7 30 27q9 13 17 57q7 35 13 87q18 140 18 146t-1.5 8.5t-9.5 6t-14 8.5q-19 13 -40 27q-31 20 -46 20zM155 85q11 0 16 -18q3 -15 -5 -15q-11 -2 -14.5 1t-9.5 15q-7 13 7 16
q4 1 6 1z" />
    <glyph glyph-name="sosalathai" unicode="&#xe28;" horiz-adv-x="360" 
d="M917 1061q-70 -170 -243 -364q-214 -232 -430 -304q-9 2 -16 2q-9 0 -32 -10q-19 -8 -30.5 -14t-17.5 -10.5t-23 -16.5q-18 -14 -23.5 -42t-1.5 -53q2 -12 6 -32t5.5 -30t3 -25t1.5 -29t-2 -30v-1q-9 -58 -18 -93q-3 -10 1 -12q2 -2 6 0t5 3t5 4.5t5 4.5q6 6 7 10
q10 38 23 107.5t27 108.5q27 -1 48 11q19 11 31 34q14 29 -2 48q-9 11 -25 12q-7 0 -15 -2q-22 -5 -34 -20q-25 -34 -40 -82v1q-16 64 3 82q19 19 59 32h4q10 3 19 5q12 -2 27 -9q16 -8 36 -27q15 -13 25 -28q2 -3 7 -6t7 -8t0 -18q-4 -52 -12 -114.5t-14 -98.5l-5 -37
q-3 -10 2 -12q4 -1 7 1.5t7.5 10.5t4.5 9q7 9 8 17q17 98 32 222q7 52 0 54q-12 4 -28 21t-20 20q-2 2 -12 10l-15 12q94 38 200 117q228 176 385 449q3 5 10.5 19t10.5 20t9 18.5t9.5 21t7 19.5t5.5 22zM215 305q18 0 12 -16q-5 -11 -13 -13q-12 -4 -17 3q-4 8 5 21
q4 4 13 5z" />
    <glyph glyph-name="sorusithai" unicode="&#xe29;" horiz-adv-x="360" 
d="M505 599q-3 0 -8.5 -10t-14 -26.5t-12.5 -23.5q-5 -8 -50 -91t-71 -121l10 76q1 6 -3.5 11.5t-11.5 5.5q-6 0 -10.5 -4t-4.5 -10l-17 -125q-2 -3 -4 -5q-1 0 -2 -1l-1 -1q-6 12 -15.5 20t-21.5 7q-10 -1 -20 -6q-16 -8 -29 -23q-10 -12 -15 -25q-3 -9 -2 -17q0 -12 8 -19
q14 -12 34 -11q13 1 28 7q5 1 9 4q11 6 25 19l-25 -186q-103 1 -154 -7q-4 -1 -7 -1q2 35 6 69q11 103 27 150q5 14 29 49q18 26 22 36q5 11 5 21q0 13 -8 23q-11 14 -32 15q-5 0 -11 -1q-22 -3 -38 -16q-15 -12 -21 -31q-9 -24 3 -40t38 -16q-10 -16 -15 -30
q-18 -51 -29 -157q-5 -43 -7 -85q-7 -4 -14 -10l-2.5 -2t-3.5 -3l-3.5 -3.5l-3.5 -3.5t-2.5 -3.5t-1 -3.5t0.5 -4q3 -7 15 -3q15 5 48 10q22 4 65 5t75 0h32q6 0 10 3.5t5 9.5l33 254q9 11 18.5 25t16.5 25.5t18 31.5t16 30t17 34.5t15 31.5t15.5 34.5t14.5 30.5
q1 4 4.5 10.5t5.5 12t5.5 12.5t6 13l5 12t4 10.5t2.5 8.5t0.5 6t-1.5 2zM153 369h3q12 0 13 -8q5 -27 -12 -28q-14 -1 -19 6q-3 4 -3 10q-1 11 4 15q7 5 14 5zM256 267q10 0 15 -10q7 -15 -10 -15q-10 0 -15 10q-8 15 10 15z" />
    <glyph glyph-name="sosuathai" unicode="&#xe2a;" horiz-adv-x="360" 
d="M957 1081q-70 -170 -243 -364q-218 -236 -439 -307l-26 -8q-10 1 -17 -5l-24 4q-19 2 -30 1q-15 -1 -25 -7q-50 -29 -88.5 -69.5t-84.5 -103.5q-5 -6 -9.5 -18.5t-0.5 -16.5q4 0 5 -0.5t4.5 2.5t4.5 4t4.5 5t3.5 5q88 120 174 160q10 5 36 2q33 -4 63 -18
q10 -4 25.5 -15.5t22.5 -15.5q3 -1 9.5 -4l6.5 -3q3 -1 2 -5q-7 -63 -18 -131q-3 16 -7 30.5t-11 35t-10 28.5q-11 36 -40 71q-12 16 -26 20q-4 2 -8 2q-11 0 -30 -16t-39 -65q-17 -43 -29 -98q-12 -49 -15 -90l-1 -16q-2 -44 11 -62q13 -16 36 -14q19 2 32 14q19 18 22 49
q3 36 -18 52q-20 15 -38 9h-0.5t-1.5 -1q0 42 2 53q7 51 23 92q19 47 29 56q2 2 4 1q5 -2 12 -10q22 -27 35 -57q31 -65 41 -114.5t0 -137.5q-2 -5 1 -10q2 -5 8 -7t12 1q1 0 2 1q3 2 4 5q11 13 12 17q20 137 40 299q1 2 1.5 7t1 8t0 6.5t-2.5 4.5q-2 3 -8.5 3.5t-10.5 2.5
q-45 33 -61 39v1q110 35 235 129q228 176 385 449q3 5 10.5 19t10.5 20t9 18.5t9.5 21t7 19.5t5.5 22zM146 88q7 0 12.5 -8.5t6.5 -17.5q1 -6 -2 -12.5t-8 -7.5q-6 -1 -12 6t-8 14q-1 8 1.5 16.5t8.5 8.5z" />
    <glyph glyph-name="hohipthai" unicode="&#xe2b;" horiz-adv-x="360" 
d="M284 400q-12 0 -32 -19q-14 -14 -21 -32q-9 -23 -1 -41q2 -5 6.5 -8.5t12.5 -7t9 -4.5q2 -1 10 -4q-10 -12 -29.5 -33t-31.5 -34.5t-29 -35t-33 -43.5q10 80 17 122q17 5 29 28q18 36 7 60q-9 20 -38 24q-5 1 -11 1q-18 0 -31 -9q-19 -14 -24 -41q-5 -29 11 -47
q8 -8 20 -10q-4 -39 -13 -109t-11 -88q-1 -3 -1 -7q-3 -25 -5 -47q-1 -8 1 -11q6 -6 10 -5q10 2 17 13.5t8 21.5q2 15 5 35q22 36 45 67.5t35.5 47t40.5 46t38 42.5q1 0 9 -1t9 -2q-12 -72 -18 -109q-21 -139 -21 -144q-1 -7 3 -12q5 -6 10 -5q10 4 19.5 18.5t13.5 28.5
q11 96 19 143l23 107q1 9 -7 14q-2 1 -11 5t-10 5q17 21 17.5 32t-11.5 20q-13 13 -22.5 17.5t-27.5 9.5q-3 1 -6 1zM285 359q17 1 24 -10q8 -14 -4 -20q-31 5 -38 17q0 9 9 12q4 1 9 1zM144 333q10 1 16 -2q2 -4 1.5 -11.5t-5.5 -7.5q-21 0 -23 1q-4 2 -3 9t4 10q4 1 10 1z
" />
    <glyph glyph-name="lochulathai" unicode="&#xe2c;" horiz-adv-x="360" 
d="M1052.5 955q-0.5 0 -7 -7t-14.5 -16t-9 -10q-86 -96 -157.5 -160t-156.5 -104q-134 -68 -278 -77q2 27 -14.5 48t-43.5 22q-32 2 -56.5 -23t-26.5 -57q-1 -25 21 -35t47 -6q19 4 22 4q-5 -25 -12.5 -52t-17 -61t-14.5 -52q-3 -6 -3 -8q-1 -5 -2 -11q-3 -7 -3 -16
q-10 -50 -19 -134q-12 87 -24 128q-9 30 -23 57q-9 17 -13 20q-6 4 -14 -13q-45 -96 -64 -145q-11 -28 -28 -78q2 73 7 111q21 14 29 34q15 37 4 58q-10 20 -40 22q-25 1 -42 -12q-18 -14 -24 -41q-6 -29 10 -46q10 -10 25 -12q-8 -43 -10 -126.5t-13 -124.5q0 -1 -1.5 -7.5
t-2 -9.5t0.5 -7q4 -5 10 -5q2 -1 5.5 2.5t7 7.5t4.5 5q3 2 13 18t10 19q31 101 49 150l53 127q18 -50 23 -75q13 -57 16 -121q4 -88 -4 -130q0 -3 2.5 -7.5t5.5 -4.5q1 0 3.5 1.5t4.5 4t3 3.5q2 1 13.5 23t12.5 25q5 28 15.5 129.5t29.5 172.5q0 1 0.5 2t0.5 2l10 40t13 49
t14 39q3 11 11 31.5t9 24.5q199 37 309 107q155 96 321 302q3 5 2.5 5zM365 624q26 0 23 -44h-6q-22 -8 -40 9q-17 17 5 29q3 2 7 4q6 2 11 2zM128 357q8 -1 15.5 -7.5t7.5 -13.5q0 -10 -15 -10q-14 0 -18 12q-5 15 6 18q2 0 3 1h1z" />
    <glyph glyph-name="oangthai" unicode="&#xe2d;" horiz-adv-x="280" 
d="M173 400q-34 0 -48 -18q-19 -27 -42.5 -66t-30.5 -49q-4 -5 -3 -14t6 -11q4 -1 7 1.5t7 9l4 6.5q66 87 69 92q18 13 52 -6q23 -13 32 -23q4 -4 8.5 -8t4.5 -4.5t1.5 -5t-1.5 -8.5q-2 -5 -3.5 -9t-2.5 -8.5t-2 -7.5t-2 -9.5t-1.5 -10t-1.5 -12t-1 -13.5t-1 -17t-2 -19
q-2 -21 -7.5 -67.5t-6.5 -69.5q-2 -6 -12 -10q-13 -5 -31 -5q-31 4 -38 12q-3 93 4 134q11 -4 21 1q38 20 45 57q6 34 -5 58q-7 14 -21 18q-13 4 -25 -4q-7 -4 -14 -14q-8 -11 -19 -49q-10 0 -14 -8q-4 -7 0 -35q1 -9 3 -11q-8 -65 -5 -172q1 -20 25 -31q18 -8 41 -10
q25 -1 44 7q25 10 30 31q1 4 3 19q1 8 12 145q5 65 16 103q6 19 5.5 23.5t-11.5 23.5q-44 61 -86 64h-3zM160 270q5 0 6 -6q3 -14 -1.5 -23t-14.5 -10q-4 0 -11 3q3 18 6 24q7 12 15 12z" />
    <glyph glyph-name="honokhukthai" unicode="&#xe2e;" horiz-adv-x="280" 
d="M657.5 1140q-0.5 0 -3.5 -17q-1 -11 -6 -53q-13 -111 -31 -196q-11 -56 -25 -103t-31 -88q-17 -40 -38 -76q-21 -35 -47 -69q-25 -32 -56 -65q-30 -30 -68 -65q-12 -11 -31 -23q-18 -13 -39 -25q-13 -7 -26 -13q-39 50 -78 53q-22 1 -40 -9q-12 -5 -23 -12
q-22 -13 -35 -28q-8 -7 -12 -17q-4 -11 -1 -22q2 -9 7 -16t12.5 -10.5t16 -5t17.5 -1.5q11 0 24 2q0 -1 -1 -2q-7 -10 -15 -30q-3 -7 -6 -18q-3 -4 -3 -9q-30 -99 -21 -199q3 -6 4 -10l1 -1v-0.5t1 -0.5q6 -11 20 -17q18 -8 41 -10q25 -1 44 7q25 9 30 31q1 4 3 19
q1 8 12 145q5 65 16 103q6 18 6 21.5t-7 16.5q12 7 24 13q22 13 41 26q19 14 33 27q37 35 67 67q31 35 56 68q26 35 46 71q21 38 37 79q17 42 30 90q13 47 23 104q16 86 27 198q3 31 4 53q1 17 0.5 17zM156 356q20 0 40 -11q13 -8 23 -15q-12 -5 -25 -9q-22 -8 -41 -12
q-21 -2 -35 7q-8 5 -9.5 8t2.5 8q3 4 8 9q8 3 16 9q7 6 21 6zM238 312q6 -5 3 -16q-2 -5 -3.5 -9t-2.5 -8.5t-2 -7.5t-2 -9.5t-1.5 -10t-1.5 -12.5t-1 -13.5t-1 -16.5t-2 -19q-2 -21 -7.5 -67.5t-6.5 -69.5q-2 -6 -12 -10q-13 -5 -31 -5q-21 3 -29 6q-8 7 -9 36t3.5 59.5
t9.5 54.5q13 -7 27 -6q14 0 25 12q10 10 15 28q5 22 0 41q-5 16 -17 24q4 2 11 4q17 7 35 15zM167 261q3 0 7.5 -5.5t5.5 -10.5t-3 -7t-9.5 0.5t-7.5 6.5q-3 7 5 15q1 1 2 1zM404 354z" />
    <glyph glyph-name="paiyannoithai" unicode="&#xe2f;" horiz-adv-x="320" 
d="M264 400q-9 0 -13 -8q-3 -6 -8 -15q-14 -23 -28 -40q-18 -22 -34 -33q-17 -11 -29 -8q-5 2 -7 12q-3 12 1 21q3 8 10 14q4 3 7 4l-5 -17q-2 -6 1 -11.5t9 -7.5t11.5 0.5t7.5 8.5q4 12 6 25t1 21q-3 17 -15 23t-26 1q-11 -4 -20 -13q-18 -16 -25 -37q-7 -24 -2 -49
q8 -34 33 -40q26 -7 55 15q20 15 42 45q6 8 13 19q0 -50 -1 -83q-1 -63 -3 -101q-1 -23 -2 -38q-1 -13 -3 -18q-26 -67 -65 -177t-65 -186l-25 -77q-7 -19 -4 -22q12 11 34 77q67 179 152 357q10 21 16 75q5 41 8 102l4 131q-3 9 -13 19.5t-18 10.5z" />
    <glyph glyph-name="saraathai" unicode="&#xe30;" horiz-adv-x="240" 
d="M217 380q-3 0 -7 -6q-22 -36 -37 -54q2 11 -3.5 21.5t-15.5 13.5q-25 10 -51 -11q-32 -26 -37 -59q-3 -25 17 -40q15 -10 41 -2q34 12 71 56q17 22 28 57q1 8 -1 16t-5 8zM116 314q12 0 21 -15q-1 -6 -5 -9.5t-9 -1.5q-14 9 -13 20q0 5 4 6h2zM197 153q-3 0 -7 -3
q-5 -4 -13 -10.5t-12 -10t-10 -8.5t-10 -11q0 18 -17 25q-25 10 -51 -11q-32 -26 -37 -59q-3 -25 17 -40q15 -10 41 -2q34 12 71 56q24 31 34 53q3 5 1.5 13t-7.5 8zM90 94q7 0 13.5 -4.5t7.5 -10.5q0 -4 -4.5 -8t-9.5 -3q-6 1 -10 7.5t-3 12.5q0 5 4 6h2z" />
    <glyph glyph-name="maihanakatthai" unicode="&#xe31;" horiz-adv-x="0" 
d="M567 861q-32 -58 -85 -103t-127 -90q-153 -87 -294 -135q-80 -27 -169 -38q10 10 16.5 23.5t6 28.5t-12.5 25q-24 15 -49.5 7t-43.5 -29q-19 -19 -12 -46.5t35 -31.5q18 -4 39 -4.5t36.5 1t40 7t36 8.5t37.5 11q210 68 394 200q36 27 58 45.5t48 48t42 58.5q4 12 4 14z
M-144 548q9 0 15 -5q15 -17 2 -31t-28 6q-11 11 -6 20t17 10z" />
    <glyph glyph-name="saraaathai" unicode="&#xe32;" horiz-adv-x="240" 
d="M107 400h-2q-3 0 -9 -2q-9 -3 -36 -17q-20 -11 -35 -22q-39 -30 -58 -53q-6 -7 -6 -10q-2 -9 3 -11q5 -4 11 2q35 36 57 51q20 14 32 20q7 4 11 5t5 1q32 -12 79 -42q10 -6 31 -23q2 -2 5 -4t3.5 -2.5t1.5 -2.5t0 -4q-11 -49 -21.5 -117t-15.5 -111l-5 -44q-2 -9 2 -11
q8 -5 21 4q5 4 6 10q33 158 49 276q2 14 4 26q2 3 0.5 5t-3 1.5t-9 3.5t-17.5 12q-2 1 -10 7.5t-13 9.5q-56 34 -73 40q-4 2 -8 2z" />
    <glyph glyph-name="saraamthai" unicode="&#xe33;" horiz-adv-x="240" 
d="M-83 608q-11 0 -22 -4q-32 -13 -48 -37q-18 -26 -11 -55q8 -31 29 -44q26 -17 64 0q30 13 43 36q15 25 3 56q-8 24 -27 38q-13 10 -31 10zM-97 567q9 0 18 -6q13 -9 21 -28q5 -10 -1.5 -18.5t-19.5 -13.5q-14 -5 -25 1.5t-19 22.5q-8 19 -2 29q6 8 21 12q4 1 7 1z
M106 400h-1q-3 0 -9 -2q-9 -3 -36 -17q-20 -11 -35 -22q-39 -30 -58 -53q-6 -7 -6 -10q-2 -9 3 -11q5 -4 11 2q35 36 57 51q20 14 32 20q7 4 11 5t5 1q32 -12 79 -42q10 -6 31 -23q2 -2 5 -4t3.5 -2.5t1.5 -2.5t0 -4q-11 -49 -21.5 -117t-15.5 -111l-5 -44q-2 -9 2 -11
q8 -5 21 4q5 4 6 10q33 158 49 276q2 14 4 26q2 3 0.5 5t-3 1.5t-9 3.5t-17.5 12q-2 1 -10 7.5t-13 9.5q-56 34 -73 40q-4 2 -8 2h-1z" />
    <glyph glyph-name="saraithai" unicode="&#xe34;" horiz-adv-x="0" 
d="M-162 601q-46 0 -93.5 -20t-83.5 -55l-35 -41l60 15q71 16 188 -32q19 -8 36.5 -20t26 -20.5t19 -20t10.5 -12.5q19 -18 12 -45q17 19 24 55q7 40 -6 94q-10 45 -46 69q-47 30 -106 32q-2 1 -6 1zM-193 570h15q58 -2 104 -45q24 -21 30 -55q-31 32 -94 55q-72 26 -116 20
q30 25 61 25z" />
    <glyph glyph-name="saraiithai" unicode="&#xe35;" horiz-adv-x="0" 
d="M21 800h-5q-5 0 -9 -3.5t-5 -9.5l-34 -216l-0.5 0.5t-0.5 1.5q-48 52 -162 52q-69 1 -145 -37q-8 -4 -20 -13.5t-20 -16.5l-8 -8q4 1 10.5 3t21 5t22.5 2q47 -4 105.5 -25.5t94.5 -42.5q54 -33 86 -77q25 -35 25 -60q20 30 27 50q24 73 -13 135l49 245q1 7 -4 12
q-3 3 -15 3zM-205 596q4 0 9 -1q8 0 15 -1q55 -6 108 -51q22 -17 30.5 -38.5t7.5 -54.5q-12 27 -34 46t-58 40q-61 35 -146 48q35 12 68 12z" />
    <glyph glyph-name="sarauethai" unicode="&#xe36;" horiz-adv-x="0" 
d="M-29 769h-2q-26 -1 -46 -26q-19 -24 -18 -50q1 -18 19 -37q18 -18 37 -17q26 1 46 26q19 24 18 50q-1 16 -19.5 35t-34.5 19zM-44 725h5q10 -3 19 -12.5t7 -19.5q-1 -5 -7.5 -7t-12.5 -1q-10 3 -19 12.5t-7 19.5q2 8 15 8zM-195 625q-69 1 -145 -37q-8 -4 -20 -13.5
t-20 -16.5l-8 -8q4 1 10.5 3t21 5t22.5 2q47 -4 105.5 -25.5t94.5 -42.5q54 -33 86 -77q25 -35 25 -60q20 30 27 50q30 93 -37 168q-48 52 -162 52zM-205 596q4 0 9 -1q8 0 15 -1q55 -6 108 -51q22 -17 30.5 -38.5t7.5 -54.5q-12 27 -34 46t-58 40q-61 35 -146 48
q35 12 68 12z" />
    <glyph glyph-name="saraueethai" unicode="&#xe37;" horiz-adv-x="0" 
d="M-57 794h-5q-5 0 -9 -4t-5 -9l-25 -190q-41 14 -102 14q-69 1 -145 -37q-8 -4 -20 -13.5t-20 -16.5l-8 -8q4 1 10.5 3t21 5t22.5 2q47 -4 105.5 -25.5t94.5 -42.5q54 -33 86 -77q25 -35 25 -60q20 30 27 50q25 76 -16 140l48 243q1 7 -4 13q-3 4 -20 3q-5 0 -9 -4t-5 -9
l-34 -215q-13 13 -31 23l37 199q1 7 -4 13q-3 3 -15 3zM-213 576q4 0 9 -1q8 0 15 -1q55 -6 108 -51q22 -17 30.5 -38.5t7.5 -54.5q-12 27 -34 46t-58 40q-61 35 -146 48q35 12 68 12z" />
    <glyph glyph-name="sarauthai" unicode="&#xe38;" horiz-adv-x="0" 
d="M-62 -106h-2q-17 -1 -29 -10q-24 -20 -26 -42q-3 -29 13 -46q4 -4 22 -9q0 -14 -1 -64t-2 -76v-17q-11 -194 -28 -307q-4 -32 -13.5 -75t-17 -70.5t-18.5 -66t-11 -40.5q-6 -24 -18 -56.5t-19.5 -51t-5.5 -18.5q3 0 23.5 37t24.5 48q7 21 24 70.5t23.5 70.5t17.5 61.5
t20 84.5q29 146 37 458v11q5 2 9 5q7 3 12 9q2 2 3 4q5 6 8 14q12 24 -4 55q-9 18 -34 21h-8zM-66 -147q6 0 9 -3q2 -3 1.5 -7.5t-3.5 -7.5q-4 -3 -11 -3t-10 4q-5 6 2 13q5 4 12 4z" />
    <glyph glyph-name="sarauuthai" unicode="&#xe39;" horiz-adv-x="0" 
d="M-88 -103h-1h-3q-16 -1 -27 -10q-22 -16 -29 -48q-8 -37 13 -55q8 -8 20 -7q-9 -23 -18 -69q-9 -42 -21 -130q-26 -187 -46 -238l-3 -3q-8 -9 -22 -43q-1 -1 -4.5 -7t-3.5 -8v-7q3 -6 11 -4q7 1 15.5 11t11.5 12q22 15 36 19.5t69 8.5l86 3q11 0 14 10q24 85 43 276
q15 154 31 214q7 24 4 45q-1 10 -6 7q-7 -5 -15 -19t-11 -25q-17 -62 -33 -219q-13 -132 -41 -238h-19t-33.5 -0.5t-23.5 -1.5q-58 -4 -66 -6q13 46 35 209q13 87 21 128q12 60 25 79q3 5 9.5 13t11.5 15.5t8 14.5q17 31 3 54q-11 17 -35 19h-6zM-102 -141q7 0 13 -9t6 -18
q0 -10 -9 -12q-6 -1 -12.5 3.5t-8.5 10.5q-2 7 1 15.5t9 9.5h1z" />
    <glyph glyph-name="phinthuthai" unicode="&#xe3a;" horiz-adv-x="0" 
d="M-83 -105h1q13 1 23 13q9 12 9 25q0 9 -10 19q-8 8 -18 8q-12 0 -23 -13q-9 -12 -9 -25q0 -8 9.5 -17.5t17.5 -9.5z" />
    <glyph glyph-name="bahtthai" unicode="&#xe3f;" horiz-adv-x="1600" 
d="M846 520q-4 0 -8 -5q-5 -5 -6 -17q-16 -196 -23 -255q-219 -2 -274 -3h-45l-78 -1l-75 -2q-137 -5 -137 -11q0 -2 8 -4q20 -5 117 -10q38 -2 112 -2h369q-13 -104 -32 -211q-1 -4 -6 -30.5t-8 -44t-5.5 -40.5t-0.5 -37q3 -22 18 28q2 4 4 12q2 5 2 6q5 15 9 32t8 35t6 26
q23 94 44 224l521 1q12 1 20 6q4 4 9.5 11t4.5 10q-3 5 -10 8t-17 3q-282 -3 -522 -5q20 133 25 237q1 14 -3 20q-10 17 -27 19z" />
    <glyph glyph-name="saraethai" unicode="&#xe40;" horiz-adv-x="170" 
d="M133 405q-8 0 -13.5 -22.5t-6.5 -39.5l-16 -230q-6 -4 -9 -9q-4 -5 -3 -11q1 -8 4 -10q-1 -5 -1.5 -14.5t-0.5 -12.5q-4 -35 14 -52q10 -10 27 -9q15 1 26 10q20 18 26 50q6 38 -10 55q-14 15 -41 12q2 26 4 71.5t4 84t4 71.5q3 56 -8 56zM145 79.5q6 -0.5 10 -4.5
q6 -9 5 -17t-5 -13t-12.5 -2.5t-13 8t-5 13t5.5 11.5q9 5 15 4.5z" />
    <glyph glyph-name="saraaethai" unicode="&#xe41;" horiz-adv-x="350" 
d="M172 425h-2q-8 -2 -14 -12t-7 -20q-4 -21 -7 -43.5t-6 -55t-5 -52.5q-11 -86 -17 -118q-6 -2 -7 -2q-13 -5 -19 -13q-3 -4 -3 -9.5t3.5 -9.5t8.5 -5t9 1q-2 -16 -3 -26q-2 -35 17 -51q10 -9 25 -8q14 1 24 9q20 18 26 50q6 35 -13 55q-13 14 -33 14q1 24 11 110
q2 16 6 52.5t7 59t8 42.5q5 21 1 27q-5 6 -10 5zM322 402q-3 0 -6 -4.5t-5.5 -13.5t-4 -16t-3 -17t-1.5 -11l-40 -222q0 -1 -8 -4t-9 -5q-4 -5 -3 -11q1 -8 4 -10q-1 -5 -1.5 -14.5t-0.5 -12.5q-4 -35 14 -52q10 -10 27 -9q16 1 26 10q20 18 26 50q7 38 -10 55
q-9 9 -13.5 11t-14.5 1q4 29 15 99q6 72 16 120q2 10 0.5 33t-8.5 23zM143 92q10 0 17 -7q6 -6 3 -18q-2 -5 -10.5 -4t-13.5 5q-5 5 -1 21q1 2 5 3zM302.5 84.5q5.5 -0.5 9.5 -4.5q6 -9 5 -17t-5 -13t-12 -2.5t-12.5 8t-5.5 13t5 11.5q10 5 15.5 4.5z" />
    <glyph glyph-name="saraothai" unicode="&#xe42;" horiz-adv-x="200" 
d="M-293 1197h-4q-32 0 -65 -12q-106 -37 -143 -80q30 2 45 0q54 -5 125 -25q116 -32 203 -72q99 -46 186 -108q40 -28 66 -57q21 -24 25 -36q14 -42 18 -94.5t1.5 -89t-9 -101t-8.5 -91.5q-3 -52 -23 -167q-4 -20 -12 -52t-12 -52q-2 -5 -4 -15t-5 -22.5t-4 -16.5
q-6 -26 -5 -45q2 -26 17 -41q10 -11 28 -10q16 1 26 10q11 11 23.5 36t13.5 39q2 31 -14 56q-11 17 -31 24q17 99 19 112q19 108 24 168q2 29 9 86t10.5 92.5t1 84t-13.5 87.5q-5 17 -35 52q-38 45 -90 83q-82 60 -190 110q-65 30 -185 65q-46 14 -85 20q27 19 38 21
q35 7 107 -16q16 -5 45 -22.5t45 -22.5q21 -6 50 -5q28 1 55 10l30 15h-35q-27 0 -50 10q-4 2 -42 22.5t-77 36.5q-34 14 -69 13zM125 120q17 0 25 -10q5 -6 6.5 -15t-1.5 -11q-11 -9 -23 -2.5t-12 13.5q0 11 5 25z" />
    <glyph glyph-name="saraaimaimuanthai" unicode="&#xe43;" horiz-adv-x="200" 
d="M62 1227h-7q-75 -3 -131 -39q-50 -34 -59 -75q-3 -16 1 -29t15 -20q18 -11 46 -3q24 6 43 21q23 17 25 37q1 11 -8 21q-6 7 -17 13q-12 6 -29 10q30 19 75 22q70 5 145 -23q20 -8 57 -36q3 -2 6 -4.5t6 -5.5l4 -4q-13 -86 -24.5 -180.5t-24 -209t-18.5 -162.5
q-27 -226 -32 -265q-7 -56 -12 -88q-7 -49 -14 -71q-9 -28 -11 -40q-6 -26 -5 -44q1 -27 16 -42q11 -11 28 -10q16 1 26 11q16 15 23 52q8 44 -3.5 60t-27.5 19q-3 1 -8.5 -1l-5.5 -2q3 11 4 19q3 10 8 44q5 32 12 89q5 42 32 265q51 421 78 582q2 14 -4 14q-9 2 -14.5 4.5
t-11.5 7.5t-8 7q-33 22 -60 31q-71 25 -115 25zM-91 1125h1q35 -7 39 -19q1 -3 -4 -6q-16 -8 -25 -5q-8 2 -14 7.5t-6 12.5q0 3 3 6.5t6 3.5zM132 104q2 0 4 -1q11 1 15.5 -9.5t-1.5 -18.5q-7 -11 -16 -5q-9 9 -2 34z" />
    <glyph glyph-name="saraaimaimalaithai" unicode="&#xe44;" horiz-adv-x="200" 
d="M-949 1327h-2h-1q-18 0 -28.5 -3t-32.5 -14q-10 -7 -19.5 -21t-3.5 -21q3 -2 9 0.5t13.5 7.5t12.5 6q24 4 69 -2q42 -5 94.5 -22.5t91 -34.5t104 -53.5t92.5 -52.5t97 -59q194 -117 208 -126q57 -37 130 -61q32 -11 54 8q12 10 20.5 22.5t13.5 31t7 29.5t5 39t4.5 38.5
t3 39t5 45.5t12.5 27q15 15 41 17t51.5 -4.5t53 -10t44.5 -0.5q-13 -154 -46 -495.5t-48 -503.5l-4 -14q-13 -4 -19 -12q-4 -6 -2 -13q0 -1 0.5 -5t1.5 -6t3 -3q-2 -6 -3 -15.5t-1 -11.5q-8 -42 22 -66q15 -13 39 -5q19 6 30 20q18 22 22 53t-15 56q-7 9 -25 14q-2 1 -9 1
h-1q13 238 90 1079q1 10 -4 11q-12 3 -24 -22q-12 -12 -53.5 -8t-77.5 8t-68 -16q-6 -4 -11 -10t-9 -14t-7 -13t-5.5 -16t-4 -15t-3 -17.5t-2 -16t-2 -17l-1.5 -14.5q-5 -49 -8 -70t-9.5 -44t-17.5 -33q-11 -11 -33 -4q-44 15 -124 66q-13 8 -208 127q-72 44 -123 72.5
t-119.5 63t-130.5 55t-118 27.5q-11 1 -21 1zM134 101q6 1 11.5 -6.5t8.5 -15.5q3 -6 1.5 -15.5t-7.5 -12.5q-5 -2 -11.5 2t-9.5 10q-11 20 2 35q2 3 5 3z" />
    <glyph glyph-name="lakkhangyaothai" unicode="&#xe45;" horiz-adv-x="240" 
d="M106 400h-1q-3 0 -9 -2q-9 -3 -36 -17q-20 -11 -35 -22q-39 -30 -58 -53q-6 -7 -6 -10q-2 -9 3 -11q5 -4 11 2q35 36 57 51q20 14 32 20q7 4 11 5t5 1q25 -9 79 -42q20 -12 31 -23q10 -11 10 -13q-3 -20 -6 -47q-13 -78 -49.5 -296t-52.5 -319q-18 -112 -41 -278
t-32 -227q-1 -6 -4 -37t-7 -57q-3 -19 0 -22q2 -2 5 5q3 4 5 11q6 22 10 40.5t7 40t4 29.5q64 395 83 500q8 44 66 392q32 158 48 272v3q2 10 4 19q1 8 -0.5 12.5t-6.5 4.5q-6 -1 -13.5 3t-17 12t-14.5 11q-56 34 -73 40q-4 2 -8 2h-1z" />
    <glyph glyph-name="maiyamokthai" unicode="&#xe46;" horiz-adv-x="460" 
d="M294 400q-23 0 -50 -23q-21 -17 -32 -32.5t-18 -44.5q-2 -9 3 -17t10.5 -11.5t16.5 -9.5q32 -17 56 1q2 2 7.5 5.5t9 6.5t6.5 8q6 12 6 34q0 6 -4 10.5t-10.5 4.5t-11 -4.5t-4.5 -10.5q0 -9 -1 -15q-2 -1 -6 -2q-9 -3 -18 1q-8 4 -15 16q0 7 12 19.5t23 15.5q13 3 35 -10
q15 -10 25 -30l1 -1q5 -11 8 -8q10 8 16 14l6 6l5 5t4.5 3.5t4.5 1.5t5 -1q1 0 4 -2.5t4 -3t4 -3t3 -3t2.5 -3.5t2 -4.5t1 -5t-0.5 -5.5q-5 -33 -8.5 -66t-5 -51.5t-3.5 -53.5t-3 -51q-1 -25 -4 -33q-27 -68 -64.5 -180.5t-61.5 -191.5l-24 -79q-3 -10 1 -11q1 -1 2.5 0
t3.5 4t3.5 5.5t3.5 7t3.5 8t3.5 9t3 8.5t3 8t2 7q80 235 145 365q10 20 15 40q9 47 17 121t13 107q1 3 5 19.5t5 26.5q2 23 -4 29q-5 5 -12 14.5t-12.5 14t-15.5 8.5q-8 2 -21 -5q-14 -8 -30 -25q-16 24 -33 33q-20 10 -37 10z" />
    <glyph glyph-name="maitaikhuthai" unicode="&#xe47;" horiz-adv-x="0" 
d="M488 1201q-35 -70 -88 -146.5t-94.5 -126t-112.5 -129.5q-45 -49 -66 -71.5t-60 -60t-73 -64.5q-18 -17 -27 -24.5t-27 -14.5t-35 -3q-35 -1 -65.5 -19t-44.5 -49q-7 -17 1 -36t24 -29t35 -12t33 14q4 4 6.5 12.5t4.5 13t7.5 4t14.5 -9.5q15 -13 32.5 -8t31.5 17.5
t22 27.5q13 19 -6 35q-17 13 -26 2q-5 -6 -2 -20q-2 -20 -12 -20t-24 16q-10 17 -21.5 14.5t-19.5 -12.5t-20 -20.5t-21 -10.5q-21 18 -15.5 34.5t28 27t41.5 4.5q47 -6 93 41q193 184 367 420q3 3 17 23t17.5 25.5t15.5 23.5t17 26t14 24t14.5 27.5t12 25.5t11.5 28z" />
    <glyph glyph-name="maiekthai" unicode="&#xe48;" horiz-adv-x="0" 
d="M-112 904h-2q-5 0 -9 -4q-3 -2 -5 -17q0 -48 -10 -134.5t-12 -103.5q-2 -12 3 -19q3 -5 10 -6q4 -1 9 3q3 2 6 18q2 14 19 105t21 137q1 7 -4 12q-9 9 -26 9z" />
    <glyph glyph-name="maithothai" unicode="&#xe49;" horiz-adv-x="0" 
d="M353.5 1225.5q0.5 -0.5 -0.5 -4.5q0 -5 -2 -12q-4 -22 -13 -47q-5 -18 -13 -35q-19 -50 -49 -102q-28 -50 -64 -99q-49 -66 -76 -96q-43 -48 -82 -86q-63 -60 -117.5 -85t-89.5 -26q-48 -2 -64 10q-7 5 1 10q45 32 64 73q1 2 -5 -2t-14.5 -6.5t-19.5 5.5
q-11 9 -13.5 23.5t9.5 35.5q9 14 26.5 20.5t33.5 0.5q27 -16 11 -65q-21 -52 -43 -71q33 -2 97 22q64 28 116 75q42 35 82 78t76 90q37 48 66 97q30 51 51 100q7 17 13 34q8 22 15 47q0 2 1 4.5t1.5 4t0.5 3.5q1 4 1.5 3.5zM-164 774q-13 0 -14 -9q-2 -7 5 -13.5t14 -8.5
q6 -1 12 2t7 8q1 7 -6 13t-15 8h-3z" />
    <glyph glyph-name="maitrithai" unicode="&#xe4a;" horiz-adv-x="0" 
d="M257.5 1101.5q-0.5 0.5 -2.5 -8.5q-2 -4 -7 -25q-19 -77 -52 -146q-38 -82 -89 -145q-51 -62 -106 -96q-23 -15 -47 -23q1 2 5 6q25 36 32 72q-1 34 -44 60q-11 5 -21 5q-9 -2 -16 -7.5t-15 -15t-12 -12.5q-7 0 -22 13t-24 15q-21 9 -46 -13q-61 -49 -61 -110q1 -8 6 -15
t9.5 -11t14.5 -10.5t12 -8.5q21 -13 64 4q17 9 27 26t7 35q-4 16 -19 24.5t-31 2.5q-14 -5 -23.5 -17.5t-2.5 -24.5q10 -11 23 1.5t20 11.5q7 -10 -7 -19.5t-26 -8.5q-7 1 -13.5 5t-13.5 10.5t-10 9.5q-2 2 -3 5t-1 6v5.5t1.5 6t2.5 5t3.5 5.5t3.5 5t4 5l3 4q8 14 19.5 20.5
t26.5 -0.5q5 -3 11.5 -10t11 -12.5t12 -8.5t14.5 3q27 26 47 34q15 -7 24 -20.5t1 -26.5q-8 -30 -45 -68q-1 -1 -3 -2q-2 -2 -3.5 -5t-1.5 -6t2 -6t5 -4q7 -4 16 -2.5t18 3.5q19 3 42 16q19 9 37 22q57 38 107 105t85 152q30 72 46 150q3 15 4 26q1 8 0.5 8.5z" />
    <glyph glyph-name="maichattawathai" unicode="&#xe4b;" horiz-adv-x="0" 
d="M-105 860h-8q-5 -1 -9 -4q-2 -2 -4 -13q2 -31 3 -75l-88 -1q-6 0 -10 -6q-3 -4 1 -20q1 -5 5 -8t8 -3l83 4q0 -36 -2 -98q-1 -9 4 -13q4 -4 10 -4q4 0 9 3q3 2 5 13q6 46 11 101l105 5q10 0 16 5q9 6 9 10t-9 9q-8 4 -16 4l-103 -1q4 46 5 78q1 6 -4 9q-8 5 -21 5z" />
    <glyph glyph-name="thanthakhatthai" unicode="&#xe4c;" horiz-adv-x="0" 
d="M945 1175q-1 0 -9.5 -16t-18.5 -34t-14 -24q-217 -356 -549 -516q-38 -22 -88 -29.5t-92 0.5q-87 8 -115 5h-1h-2t-1 -1q-20 -3 -36 -23q-18 -22 -17 -45q1 -17 18 -34q16 -17 33 -16q24 1 42 24q17 21 17 44q89 0 130 6q43 7 81 22t57.5 26.5t57.5 38.5t53 37
q142 101 257.5 233t189.5 284zM52 521h1q4 0 7 -3q3 -2 5 -3q11 -10 8 -19q-3 -8 -14 -4q-6 2 -10.5 8.5t-3.5 12.5q1 7 7 8z" />
    <glyph glyph-name="nikhahitthai" unicode="&#xe4d;" horiz-adv-x="0" 
d="M-83 568q-11 0 -22 -4q-32 -13 -48 -37q-18 -26 -11 -55q8 -31 29 -44q26 -17 64 0q30 13 43 36q15 25 3 56q-8 24 -27 38q-13 10 -31 10zM-97 527q9 0 18 -6q13 -9 21 -28q5 -10 -1.5 -18.5t-19.5 -13.5q-14 -5 -25 1.5t-19 22.5q-8 19 -2 29q6 8 21 12q4 1 7 1z" />
    <glyph glyph-name="yamakkanthai" unicode="&#xe4e;" horiz-adv-x="0" 
d="M35 728q-7 0 -12 -2q-16 -5 -35 -24q-10 -9 -10 -27q0 -11 4 -28t18 -57q-46 41 -93 35q-52 -7 -82 -67q-24 -48 -10 -89q12 -36 49 -56q34 -18 70 -11q40 7 58 43q3 5 1 11q-1 3 -5.5 6.5t-9.5 3.5q-7 1 -19.5 -5.5t-16.5 -7.5q-25 -5 -50 8.5t-35 39.5q-9 25 1 45
q16 31 45 35q37 5 77 -34q14 -15 22 -19q8 -5 15 -3q2 0 19 20q2 3 3 8q2 7 -2 21q-2 8 -8 25q-14 40 -18 55q-3 13 -3 21q0 6 1 6q5 2 7.5 2t9 -2t9.5 -3q19 -3 48 -12l55 -19q6 -2 11 1q3 1 13 18.5t11 20.5q1 6 -1.5 11.5t-8.5 7.5q-32 10 -69 14q-2 1 -19.5 4t-27.5 3z
" />
    <glyph glyph-name="fongmanthai" unicode="&#xe4f;" horiz-adv-x="360" 
d="M222 380q-48 0 -92 -41q-44 -42 -50 -92q-5 -47 26 -93q32 -50 78 -54q55 -5 106 48q49 50 50 107q1 43 -35 83t-79 42h-4zM212.5 337h1.5q3 -1 6 -1q35 -7 59.5 -50t13.5 -77q-10 -29 -48 -45.5t-67 -6.5q-26 9 -42 43q-15 33 -8 62q7 30 36 55q24 19 47 20h1.5z
M217 315h-3q-26 -1 -48 -25q-21 -24 -21 -50q0 -23 18 -44q19 -22 42 -21q29 1 52 30q20 28 18 56q-2 21 -21 38q-17 16 -37 16zM204.5 270h1.5q12 -1 23 -14q10 -12 8 -21q-1 -6 -10 -11q-11 -5 -19 -3q-10 2 -19 14q-8 11 -6 20q1 6 8 11q6 4 12 4h1.5z" />
    <glyph glyph-name="zerothai" unicode="&#xe50;" horiz-adv-x="200" 
d="M129 398q-7 0 -14 -3q-13 -5 -26 -18q-23 -23 -33 -52q-8 -23 -1 -49q8 -29 28 -39q16 -8 34 -2q13 5 26 18q21 23 31 52q9 27 1.5 51.5t-27.5 36.5q-8 4 -17 5h-2zM123 361.5q1 0.5 2 -0.5q1 0 3 -2q11 -8 15.5 -22t-0.5 -28q-8 -20 -21 -34q-5 -4 -9.5 -5t-9.5 2
q-9 6 -13.5 23t-0.5 28q6 19 21 32q6 5 11 6q1 0 2 0.5z" />
    <glyph glyph-name="onethai" unicode="&#xe51;" horiz-adv-x="360" 
d="M206 404h-3q-57 -2 -103 -63q-25 -34 -34 -65q-6 -34 35 -58q32 -18 55 -19q30 4 62 36q2 2 13.5 14t16 20.5t3.5 19.5q-4 32 -29 40q-15 3 -29 -4t-20 -20q-4 -6 -2.5 -17.5t9.5 -8.5q1 0 8.5 4.5t12 4t7.5 -7.5q5 -16 -20 -30t-47 -2q-16 8 -27.5 21t-5.5 26
q27 55 91 60q30 2 69 -29q30 -23 30 -46q0 -19 -6 -37.5t-19 -37t-23 -31.5t-29 -33.5t-26 -28.5q-11 -8 -15.5 -18t10.5 -14q6 4 16.5 14.5l12.5 12.5q92 93 117 173q11 37 -16 65q-33 34 -94 56q-8 3 -20 3z" />
    <glyph glyph-name="twothai" unicode="&#xe52;" horiz-adv-x="480" 
d="M-274 729q-48 -1 -51 -8q0 -6 3.5 -10.5t9.5 -5.5q48 -7 71.5 -11t57.5 -13.5t55 -23.5q32 -20 63 -77t65 -145q3 -8 16 -42t17.5 -45.5t16 -39.5t18.5 -41.5t18 -34.5t21.5 -35.5t21.5 -26.5q6 -7 17 -9q8 -1 18 1q72 9 143 37q46 18 110 58q23 15 35 26q7 7 10 13
q6 11 1 21q-10 21 -47 72q-12 16 -25 19q-18 4 -33 -13q-23 -28 -40 -43q-5 5 -13 17l-12 18q-10 11 -22 14q-20 1 -44 -13q-28 -17 -45 -32q-12 -10 -18 -20q-4 -6 -5 -13q-1 -6 2 -13q9 -18 21 -27q13 -10 34 -8q17 2 27 10l2 2q3 2 5 5q10 15 5 37q-5 17 -14 25
q-1 1 -3 2q2 4 6.5 6t8.5 -3q9 -17 26 -45q15 -23 16 -24q7 -4 20.5 8t31 33t23.5 27q2 0 6 -5q8 -10 22 -32t14 -29l-1 -1q-14 -15 -28 -24q-52 -32 -96 -47q-54 -17 -126 -22q-8 0 -8 1q-11 13 -21.5 32t-23.5 49.5t-21 49.5t-25 62.5t-23 58.5q-38 96 -70.5 154.5
t-74.5 85.5q-27 17 -54 25t-45 9.5t-63 3.5h-6zM206 331h2q4 -1 10.5 -8.5t6.5 -12.5q0 -4 -5.5 -5.5t-9.5 0.5q-5 2 -10 9t-3 11q4 6 9 6z" />
    <glyph glyph-name="threethai" unicode="&#xe53;" horiz-adv-x="400" 
d="M176 416q-13 -1 -28 -11q-9 -7 -20 -19q-11 -10 -23 -25q-27 -35 -59 -94q-14 -24 -7 -44q4 -13 19 -25q12 -10 26 -8q11 2 22 10q18 15 22 37q4 19 -5 36q-8 15 -25 20q21 34 36 54q11 13 21 20q11 7 16 4q30 -16 43 -30q6 -7 8 -13q1 -6 -2 -11q-8 -13 -21 -42
q-1 -3 -11.5 -24t-14.5 -41q-1 -4 1 -6.5t6.5 -2.5t9.5 4q13 11 15 16q9 14 23 44t28 52t32 37q12 10 18 8q29 -11 36 -17q6 -4 7 -7t-2 -14q-3 -13 -6.5 -23.5t-8 -20.5t-7.5 -16t-9.5 -19.5t-10.5 -20.5t-4 -8q-3 -6 -1 -12q3 -8 8 -8q9 -1 18 8t14 19q3 6 11 20t11 20.5
t8.5 18.5t9.5 25t8 29q9 33 -15 52q-11 9 -44 22q-7 2 -14 2t-13 -3q-11 -4 -23 -14q-12 -11 -26 -29q-3 5 -7 10q-16 17 -51 36q-10 4 -19 4zM75 257h3q7 0 11 -7t2 -14t-5 -7.5t-7 2.5q-6 3 -8 9t2 14q1 0 1.5 1.5z" />
    <glyph glyph-name="fourthai" unicode="&#xe54;" horiz-adv-x="440" 
d="M571 830q-5 0 -15 -24q-29 -60 -62 -109t-59 -78.5t-60.5 -58t-53 -40.5t-50.5 -32q-6 -4 -10 -6q-11 -7 -52 -28.5t-68 -40.5t-47 -43q-17 -20 -26.5 -33t-18 -36t-4.5 -44q6 -31 31 -56q26 -27 57 -31t57 18q51 47 100 52q3 0 10 1t13 1.5t10 0.5q20 0 108 7
q11 2 17.5 12t2.5 15q-2 3 -6 5q-23 6 -72 5q-22 2 -66 -4.5t-66 -3.5q-29 5 -38 19q-1 0 -1 1q16 -3 27 -3q19 1 31 13q15 14 20 35q7 29 -11 43q-10 8 -25 7q-10 -1 -22 -7q-20 -10 -34 -28q-12 -16 -16 -35q-6 -25 5 -42q13 -20 41 -28q-2 -2 -30 -28q-2 -2 -6.5 -5.5
t-5.5 -4.5t-5 -4t-5.5 -2.5t-6.5 -1t-8 -0.5q-21 2 -40 22t-24 43q-6 33 38 82q20 22 73.5 46t74.5 38q143 100 236 238q27 39 59 117q2 5 3.5 10t3 11.5t1 10.5t-4.5 4zM231 351q3 0 5.5 -1.5t4.5 -7t0 -7.5q-2 -3 -9.5 -4t-9.5 1q-3 1 -4 4q-2 4 -1 7t5 5q5 3 9 3z" />
    <glyph glyph-name="fivethai" unicode="&#xe55;" horiz-adv-x="400" 
d="M701 840h-1q-4 -2 -8 -7t-8.5 -13t-7.5 -12q-22 -30 -49 -64q-41 -48 -92 -98q-20 -19 -40 -37h-1q-42 -36 -79 -59q-51 -33 -81 -36q-3 -1 -13 -1q0 9 -2 18v1l-4 12v1q-12 33 -37 48q-28 16 -67 4q-19 -5 -30 -15q-16 -14 -16 -32q0 -27 21 -47q18 -16 48 -25
q7 -2 17 -4q-7 -4 -31 -17t-37 -21t-33 -21t-35 -26.5t-27 -29.5q-23 -30 -39 -67t-10 -69q4 -20 16.5 -29t33.5 -15q28 -7 65 1t58 22q32 23 48 30q7 3 24 5q36 -7 97 -2q9 2 16.5 10t6.5 14q-1 3 -3.5 5t-5 2.5t-7 1t-5.5 1.5q-11 2 -34 3q-46 2 -76 -1q-11 3 -23.5 13.5
t-16.5 20.5q-4 11 -2 27q8 -3 13 -4q18 -3 32 3q12 5 20 14q6 6 9 13q3 10 -2 19q-7 13 -23 17q-12 3 -26 0q-27 -6 -44 -23q-15 -15 -18.5 -37t4.5 -39q8 -22 33 -37q-11 -5 -33.5 -21l-22.5 -16q-12 -7 -28.5 -6.5t-32.5 7.5q-22 8 -27 25q-3 9 0.5 29t8.5 33q11 24 29 47
q16 21 41.5 35.5t59.5 29.5t53 27q15 10 25 22q23 0 42 6q42 11 90.5 48.5t112.5 99.5q37 35 95 105q37 46 52 79q1 3 2.5 7t4 11t2.5 10t-2 4zM255 558q27 -4 26 -46q-11 -1 -29.5 3t-24.5 9q-8 7 -7 17q0 3 4 7q6 5 17 8l10 2h4zM268 365q8 0 -2 -5q-1 -1 -2 -1
q-8 -4 -13 -1q-3 2 5 5q3 1 4 1q4 1 8 1z" />
    <glyph glyph-name="sixthai" unicode="&#xe56;" horiz-adv-x="360" 
d="M-536 907q-25 0 -31 -11q-1 -3 2.5 -4.5t11 -3.5t8.5 -2q69 -25 111 -42.5t95.5 -49.5t91.5 -71q165 -162 305 -371q7 -11 19 -14q10 -1 22 1q14 3 44 16q17 6 22 8t16 5t19.5 2t20.5 -5q33 -8 55 -21q12 -7 17 -14q5 -8 4 -11.5t-12 -18.5q-15 -14 -34 -25q-7 -4 -16 -7
q-1 10 -6 17q-9 11 -26 15q-5 1 -9.5 1.5t-8 1t-7.5 -1t-6 -2t-6.5 -3.5t-5.5 -3.5t-6 -4t-5 -4.5q-27 -21 -29 -48q-1 -14 11 -25q10 -10 23 -11q53 -5 106 33q23 16 48 46q27 34 33 51q6 19 -5 37q-8 13 -25 25q-29 20 -65 29q-6 1 -12 1.5t-13 0t-12 -1.5t-12.5 -3
t-11.5 -3.5t-12 -5t-11 -4.5t-12 -5.5l-11 -5.5q-29 -13 -40 -16q-7 -2 -11 -2q-2 -1 -20 22t-48.5 64t-66.5 88t-82 101t-86 94q-134 131 -313 162h-8zM173 259q10 0 17 -9q1 -2 4 -1q-4 -1 -16 -5q-7 -1 -10.5 3t-2.5 8q2 4 8 4z" />
    <glyph glyph-name="seventhai" unicode="&#xe57;" horiz-adv-x="440" 
d="M675 833q-6 0 -20 -35q-43 -115 -91 -211q-57 -111 -106.5 -188.5t-114.5 -138.5q-5 -3 -5 -2q-1 1 2 9q2 6 4 18t4.5 29.5t3.5 26.5q0 7 -3.5 14t-7.5 12t-12 11.5t-12.5 9.5t-14 9t-11.5 8q-9 5 -19 5q-10 -3 -33.5 -39t-26.5 -38q-6 0 -20 24t-23 26q-11 5 -32 -1.5
t-31 -16.5q-29 -27 -46.5 -53t-17.5 -57q1 -16 16.5 -36.5t30.5 -32.5q20 -14 59 4q17 9 28.5 28t9.5 38q-3 15 -19 25.5t-33 12.5q-7 1 -18 -16t-11 -28q0 -2 5.5 -5t9.5 0q8 8 11 8q4 0 14 -8q6 -11 -0.5 -13.5t-19.5 -1.5q-17 2 -40 30q-2 3 -3 6t-1 6v5.5t1.5 6t2.5 5
t3 5.5t3 5t3.5 5t3.5 5q12 21 29 24.5t28 -8.5q5 -2 12 -11t12 -15.5t13 -10.5t14 2q3 3 17 20t25.5 29.5t18.5 15.5q50 -26 48 -50q-1 -8 -1.5 -14.5t-2 -12.5t-2 -9.5t-3 -8.5t-3 -6.5t-4 -6t-4 -5.5t-5 -6t-5.5 -6q-4 -4 -4.5 -7.5t2 -5.5t5 -3.5t7.5 -2t8 -1t7 -0.5
q26 -2 52 26l12.5 12.5t11.5 13.5q66 75 116.5 165t103.5 211q51 127 71 187q3 8 -2 8z" />
    <glyph glyph-name="eightthai" unicode="&#xe58;" horiz-adv-x="400" 
d="M837 992q-5 0 -22 -11.5t-18 -12.5q-88 -65 -149 -116t-115 -107q-57 -68 -140 -200q-20 -31 -72 -99l-1 -1q-13 -20 -32 -34q-2 -1 -4 -3q-15 -6 -39 -5q-48 6 -68 6q-59 1 -96 -27q-1 0 -2 -2q-32 -25 -41 -56q-12 -36 -2 -61t54 -51q21 -12 54 -21q16 -4 40 13
q13 9 7 14q-4 3 -10.5 7t-9.5 6t-6 7t-5 12q-2 16 5 35q15 35 39 18q6 -4 32 -27t45.5 -33t33.5 -3q27 18 51 42t19 43q-7 20 -20 37q-22 30 -40 23q-21 -8 -31.5 -18.5t-18.5 -36.5q-4 -11 12.5 -27.5t27.5 -11.5q2 1 9.5 8t8.5 9q4 7 2 12q-1 4 -8 8q-2 1 -5.5 1h-5.5
q-1 1 -2 3q-9 15 3 16q9 1 21 -11q7 -9 9.5 -14t1.5 -12.5t-9 -15.5q-18 -17 -28 -19q-5 1 -12.5 5.5t-12.5 8.5t-13 11t-10 9q-20 16 -31 23q-1 0 -7.5 4t-10 5.5t-8.5 3.5t-9.5 1.5t-7.5 -2.5q-4 -2 -11 -6.5t-11 -7t-8.5 -7l-8.5 -8.5q-21 -23 -26 -54v-1v-1
q-14 8 -23 19q-22 25 -24 38q-1 10 5 22t16 19q6 4 13.5 6t13 2t18 -0.5t19.5 -0.5q17 0 50.5 -4t41.5 -5q9 0 17.5 4t13 7.5t13.5 12t11 10.5q6 5 13 12v1l1 1l1 1l2 2q9 11 23.5 34t22.5 33q92 132 127 188q19 30 46.5 61t47.5 49.5t58.5 52t53.5 47.5q5 3 23 17t24.5 19
t22 17.5t24 20.5t20 19t20.5 22q1 6 -3 5z" />
    <glyph glyph-name="ninethai" unicode="&#xe59;" horiz-adv-x="360" 
d="M620 783q12 0 27 -2t15.5 -3t-10.5 -1q-30 1 -46 -2q-27 -3 -79 -25q-29 -12 -61 -36q-26 -19 -47 -46q-14 -18 -34 -58q-5 -11 -26 -76q-1 -5 -14 -55q-1 -4 -5.5 -28t-8.5 -37q-6 -16 -14 -29q-6 -11 -20 -24q-2 -3 -4 -4q-9 -7 -18 -7q-10 -1 -22 5l-17.5 10.5
t-20.5 10.5q-2 -5 -1 -13q2 -2 77 -84q39 -40 50 -47q6 -4 6 -12q0 -4 -5 -12t-9 -11q-7 -3 -14 1q-21 13 -50 50q-16 20 -25 29q-18 21 -35 36q-29 22 -58 33q-16 6 -31 -8q-17 -15 -28 -50q-6 -20 0 -32l2 -4q5 -6 12 -12q8 -6 19 -11t21 -1q10 5 12 20q1 2 0 3t-4 3
t-31 13q-9 4 -9 13q0 5 6 11.5t11 10.5q6 2 11 0q30 -12 34 -15q10 -5 15 -13q6 -10 4 -22q-4 -31 -27 -48q-23 -18 -47 -7q-19 8 -34 21q-10 7 -17 16v1q-2 3 -5 6q-20 31 -11 61q13 43 36 66q28 30 62 17q16 -6 32 -16q-1 12 2 23q4 11 10 17q11 11 25 5q10 -4 25 -12
t20 -10q8 -4 12 -3q2 0 4 2q6 7 11 14q12 23 17 37q1 6 5 22l6 24q11 41 16 55q15 42 32 74q18 35 41 62t52 48q30 21 66 34q55 21 83 22h9z" />
    <glyph glyph-name="angkhankhuthai" unicode="&#xe5a;" horiz-adv-x="320" 
d="M293 395q-3 0 -6 -1q-11 -4 -23 -8q-2 -1 -7.5 -3t-9.5 -3q0 2 -9 10q-4 3 -10 3q-9 0 -13 -8q-3 -6 -8 -15q-14 -23 -28 -40q-18 -22 -34 -33q-17 -11 -29 -8q-5 2 -7 12q-3 12 1 21q3 8 10 14q4 3 6 4h1l-5 -17q-2 -6 1 -11.5t8.5 -7.5t11.5 0.5t8 8.5q4 12 6 25
q2 12 1 21q-3 17 -15 23t-26 1q-11 -4 -21 -13q-17 -16 -24 -37q-7 -24 -2 -49q7 -34 33 -40q26 -7 55 15q20 15 42 45q6 8 13 18q0 -49 -1 -82q-1 -60 -5 -142q-1 -22 -2 -37q-1 -14 -3 -18q-38 -95 -58.5 -148.5t-45.5 -130t-42 -145.5q-10 -41 -6 -45q5 0 11 7
q4 4 15.5 29.5t14.5 32.5q14 36 24 61t27 66q80 198 126 263q0 1 1 2q10 21 17 74q3 20 13 141l8 130q1 6 -3.5 10.5t-10.5 4.5zM276 349q-3 -49 -7 -96q-10 -121 -12 -140q-7 -47 -15 -65q-2 -3 -5 -7q4 18 8 48q5 42 9 139q3 60 3 116q10 2 13 3q2 1 6 2z" />
    <glyph glyph-name="khomutthai" unicode="&#xe5b;" horiz-adv-x="1520" 
d="M278 387q-2 0 -4 -9q-5 -26 -13 -58q-17 -61 -34 -86q-21 -30 -37 -44q-22 -20 -41 -20q-11 0 -24 9.5t-17 20.5q-11 29 -4.5 64t28.5 62q2 1 2 2q19 12 36.5 10t17.5 -20q0 -17 -4 -26q-5 -11 -12 -15q-6 -3 -12 0q-4 2 -1 10q2 3 4.5 5.5t4.5 5.5q8 12 -3 18.5
t-21.5 1.5t-18.5 -15q-8 -12 -12 -35q-3 -24 13 -33q7 -3 23 -0.5t25 6.5q24 11 38 43q13 28 10 54h-1q-4 28 -23 39t-43 3q-12 -3 -22 -10q-26 -17 -43.5 -46.5t-23.5 -62.5q-4 -16 -5 -30q-3 -30 9 -61q8 -20 23 -34t35 -16q29 -2 60 23q10 8 42 42q21 22 49 76l2.5 5
l2.5 5l15 -64q2 -5 5.5 -9.5t7.5 -2.5q29 17 57 100l21 -50q0 -1 0.5 -5t1 -5.5t3 -2.5t6.5 3q23 19 58 60l20 -30q1 -1 2.5 -6t3 -7.5t3.5 -1.5q9 7 16.5 16t14.5 19.5t10 14.5l18 -26l2.5 -5.5t4 -7.5t3.5 -1q10 9 22 23t15 17l18 -21q1 -1 3 -5t4 -6.5t4 -2.5q7 2 11 6
t8 10t7 9l8 -6q1 -3 8 -6.5t9 -2.5q6 2 15 10q6 5 7 6q4 -3 7 -3q100 -1 144 -0.5t145 4t144 4.5q52 1 138.5 4t128.5 4q13 0 29 1.5t26 3t10 2.5q0 2 -43 2q-38 0 -136.5 0.5t-152.5 1.5q-355 5 -427 25q-3 0 -16 -7q-3 -2 -7 -7q-9 8 -26 16q-1 1 -3.5 -2.5t-4.5 -8.5
t-3 -6l-15 -15q-1 2 -5.5 9.5t-9 14.5t-10.5 11q-1 1 -3 -1t-4 -5t-3 -4l-25 -20q-4 3 -15.5 16.5t-19.5 18.5q-1 1 -3 -1t-4 -5t-3 -4l-30 -35q-1 2 -5 13t-9 21t-13 21q-1 2 -3.5 -1t-5.5 -8t-4 -6l-40 -50q-2 4 -16.5 35t-23.5 40q-3 3 -7 -0.5t-6 -7.5l-38 -71
q0 2 -3 12.5t-4 14.5t-4 13t-5 13.5t-5.5 12t-7.5 12t-9 9.5t-11 9h-1z" />
    <glyph glyph-name="quoteleft" unicode="&#x2018;" 
d="M389 410l-14 -25q-1 1 -8 4.5t-11 6.5l10 25q2 -2 23 -11zM458 354l-26 -21q-2 2 -4 5.5t-3.5 5.5t-2.5 3l22 23q8 -6 14 -16zM495 295l-37 -14q0 2 -3 12l33 16q2 -7 7 -14zM285 436l-1 -26q-2 0 -11 -0.5t-13 -0.5l-3 26q5 0 14 0.5t13 0.5h1zM510 238l-40 -5v6
q-1 1 -1 6l38 6q3 -9 3 -13zM510 196q0 -4 -3 -14l-38 6q0 4 1 5v6zM193 384q-1 0 -4 -2t-6.5 -4.5t-6.5 -5.5l-16 26q2 0 8.5 4.5t11.5 7.5zM498 140q0 -1 -2.5 -7t-2.5 -7l-35 14q0 1 2 6t2 7zM136 333q0 -1 -3 -5l-6 -8l-26 19q3 6 11 15zM468 81q-2 -1 -5.5 -6t-6.5 -9
l-27 22q0 1 10 14zM108 281q-2 -9 -3 -13l-34 11q1 1 1.5 4t1.5 5.5t3 5.5zM408 24q-9 -4 -22 -12l-13 26q1 1 18 12zM98 233v-12l-38 3q0 4 2 14zM101 175l-36 -6q0 1 -1 5.5t-2 8.5l36 4q0 -4 3 -12zM312 -8q-18 -2 -27 -2h-1v25q10 0 24 1zM115 127l-31 -15l-6 14l32 14
q5 -8 5 -13zM149 74l-21 -21q-1 1 -4 5t-6 6.5t-4 4.5l24 19q9 -8 11 -14zM215 28l-10 -24l-23 10l13 24q3 -1 5.5 -2t7 -3.5t7.5 -4.5z" />
    <glyph glyph-name="quoteright" unicode="&#x2019;" 
d="M389 410l-14 -25q-1 1 -8 4.5t-11 6.5l10 25q2 -2 23 -11zM458 354l-26 -21q-2 2 -4 5.5t-3.5 5.5t-2.5 3l22 23q8 -6 14 -16zM495 295l-37 -14q0 2 -3 12l33 16q2 -7 7 -14zM285 436l-1 -26q-2 0 -11 -0.5t-13 -0.5l-3 26q5 0 14 0.5t13 0.5h1zM510 238l-40 -5v6
q-1 1 -1 6l38 6q3 -9 3 -13zM510 196q0 -4 -3 -14l-38 6q0 4 1 5v6zM193 384q-1 0 -4 -2t-6.5 -4.5t-6.5 -5.5l-16 26q2 0 8.5 4.5t11.5 7.5zM498 140q0 -1 -2.5 -7t-2.5 -7l-35 14q0 1 2 6t2 7zM136 333q0 -1 -3 -5l-6 -8l-26 19q3 6 11 15zM468 81q-2 -1 -5.5 -6t-6.5 -9
l-27 22q0 1 10 14zM108 281q-2 -9 -3 -13l-34 11q1 1 1.5 4t1.5 5.5t3 5.5zM408 24q-9 -4 -22 -12l-13 26q1 1 18 12zM98 233v-12l-38 3q0 4 2 14zM101 175l-36 -6q0 1 -1 5.5t-2 8.5l36 4q0 -4 3 -12zM312 -8q-18 -2 -27 -2h-1v25q10 0 24 1zM115 127l-31 -15l-6 14l32 14
q5 -8 5 -13zM149 74l-21 -21q-1 1 -4 5t-6 6.5t-4 4.5l24 19q9 -8 11 -14zM215 28l-10 -24l-23 10l13 24q3 -1 5.5 -2t7 -3.5t7.5 -4.5z" />
    <glyph glyph-name="quotedblleft" unicode="&#x201c;" horiz-adv-x="0" 
d="M-74 765q-5 0 -10 -1q-6 0 -9 -4q-3 -2 -5 -17q-3 -42 -10.5 -119t-11.5 -119q-2 -12 3 -19q3 -5 10 -6q4 -1 9 3q3 2 6 18q4 24 11.5 76t14 90.5t14.5 75.5q2 11 -4 16q-6 6 -18 6zM-148 764h-5q-6 -1 -9 -5q-3 -2 -4 -17q3 -48 -1.5 -135t-4.5 -104q0 -3 1 -12t3 -11
q4 -4 10 -5q5 0 9 3q3 3 5 22q1 15 12 107t12 138q0 7 -5 12q-8 7 -23 7z" />
    <glyph glyph-name="quotedblright" unicode="&#x201d;" horiz-adv-x="0" 
d="M-74 765q-5 0 -10 -1q-6 0 -9 -4q-3 -2 -5 -17q-3 -42 -10.5 -119t-11.5 -119q-2 -12 3 -19q3 -5 10 -6q4 -1 9 3q3 2 6 18q4 24 11.5 76t14 90.5t14.5 75.5q2 11 -4 16q-6 6 -18 6zM-148 764h-5q-6 -1 -9 -5q-3 -2 -4 -17q3 -48 -1.5 -135t-4.5 -104q0 -3 1 -12t3 -11
q4 -4 10 -5q5 0 9 3q3 3 5 22q1 15 12 107t12 138q0 7 -5 12q-8 7 -23 7z" />
    <glyph glyph-name="dottedcircle" unicode="&#x25cc;" horiz-adv-x="433" 
d="M57 326q5 0 9 -4.5t4 -9.5q0 -6 -4 -10t-9 -4t-9 4t-4 10q0 5 4 9.5t9 4.5zM130 390q14 0 14 -14q0 -4 -4.5 -8t-10 -4t-9.5 4t-4 8q0 6 4 10t10 4zM123 57q5 0 9 -4t4 -9q0 -6 -4 -10t-9 -4q-6 0 -10 4t-4 10q0 5 4.5 9t9.5 4zM52 122q12 0 12 -13.5t-12 -13.5
q-6 0 -10 4.5t-4 9.5t4 9t10 4zM322 64q6 0 9.5 -4t3.5 -10q0 -4 -4 -8t-9.5 -4t-9 4t-3.5 8q0 6 3.5 10t9.5 4zM381 130q13 0 13 -12q0 -14 -13 -14t-13 14q0 12 13 12zM381 321q13 0 13 -13t-13 -13t-13 13t13 13zM313 386q6 0 10.5 -4.5t4.5 -10.5q0 -5 -4.5 -9t-10.5 -4
q-5 0 -9 4t-4 9t4 10t9 5zM406 224q6 0 10.5 -4t4.5 -9t-4.5 -9t-10.5 -4q-5 0 -9 4t-4 9t4 9t9 4zM26 229q12 0 12 -14q0 -5 -3.5 -9t-8.5 -4q-14 0 -14 13q0 14 14 14zM230 30q6 0 9.5 -4t3.5 -10t-3.5 -9.5t-9.5 -3.5t-9.5 4t-3.5 9.5t3.5 9.5t9.5 4zM229 416q5 0 9 -4.5
t4 -9.5q0 -13 -13 -13q-5 0 -9.5 4t-4.5 9t4.5 9.5t9.5 4.5z" />
    <glyph glyph-name="uni0E10.descless" unicode="&#xf700;" horiz-adv-x="280" 
d="M1117.5 1339.5q-0.5 -0.5 -0.5 -2.5v-3.5v-5.5q0 -7 -1 -13q-1 -9 -3 -19q-2 -13 -6 -27q-4 -11 -8 -24q-10 -27 -25 -57t-35 -62q-39 -63 -94 -133q-55 -68 -121 -138q-67 -69 -139 -134q-75 -66 -150 -122q-78 -57 -151 -100q-54 -31 -101 -52q-16 -6 -29 -6.5t-31.5 3
t-26.5 4.5q-24 1 -49 -4q-24 -4 -52 -34q-18 -19 -32 -39.5t-3 -20.5q43 0 105 -14q12 -3 35 -11q12 -5 15 -6q-2 -12 -8 -47q-7 -41 -16 -80q-1 -6 -3.5 -19t-3.5 -16q0 4 -1 29t-1 40q0 9 1 25t1 19q2 29 -11 46q-9 12 -22 19q-11 5 -20 5q-8 -1 -18 -10q-22 -23 -23 -44
q-2 -34 21 -55q4 -4 8.5 -4.5t7.5 0t8 3.5t6 3q2 1 4 3.5t3 2.5q4 -149 0 -225q0 -6 4 -11q6 -7 11 -5q14 4 21 31q5 14 36 137q15 58 24 99q11 49 11 65v15q-3 6 -9.5 8.5t-15.5 4t-13 2.5q-33 12 -42 15q-41 10 -60 10q12 12 25 14.5t36.5 -3.5t33.5 -6q29 0 55 10
q13 4 45 25q2 1 8 5t10 6q34 17 70 40q74 45 151 105q75 57 149 126q72 66 137 138q66 71 119 141q54 71 92 136q19 33 34 63q14 30 24 58q4 13 8 25q3 14 5 27q2 10 2 19v14q0 5 -1 9q0 3 -0.5 2.5zM133 300q5 0 11 -4t7 -9q2 -5 -0.5 -10t-6.5 -6q-6 -1 -12 4t-8 11
q-3 11 5 14h4z" />
    <glyph glyph-name="uni0E34.left" unicode="&#xf701;" horiz-adv-x="0" 
d="M-224 601q-46 0 -93.5 -20t-83.5 -55l-35 -41l60 15q71 16 188 -32q19 -8 36.5 -20t26 -20.5t19 -20t10.5 -12.5q19 -18 12 -45q17 19 24 55q7 40 -6 94q-10 45 -46 69q-47 30 -106 32q-2 1 -6 1zM-255 570h15q58 -2 104 -45q24 -21 30 -55q-31 32 -94 55q-72 26 -116 20
q30 25 61 25z" />
    <glyph glyph-name="uni0E35.left" unicode="&#xf702;" horiz-adv-x="0" 
d="M-41 800h-5q-5 0 -9 -3.5t-5 -9.5l-34 -216l-0.5 0.5t-0.5 1.5q-48 52 -162 52q-69 1 -145 -37q-8 -4 -20 -13.5t-20 -16.5l-8 -8q4 1 10.5 3t21 5t22.5 2q47 -4 105.5 -25.5t94.5 -42.5q54 -33 86 -77q25 -35 25 -60q20 30 27 50q24 73 -13 135l49 245q1 7 -4 12
q-3 3 -15 3zM-267 596q4 0 9 -1q8 0 15 -1q55 -6 108 -51q22 -17 30.5 -38.5t7.5 -54.5q-12 27 -34 46t-58 40q-61 35 -146 48q35 12 68 12z" />
    <glyph glyph-name="uni0E36.left" unicode="&#xf703;" horiz-adv-x="0" 
d="M-91 769h-2q-26 -1 -46 -26q-19 -24 -18 -50q1 -18 19 -37q18 -18 37 -17q26 1 46 26q19 24 18 50q-1 16 -19.5 35t-34.5 19zM-106 725h5q10 -3 19 -12.5t7 -19.5q-1 -5 -7.5 -7t-12.5 -1q-10 3 -19 12.5t-7 19.5q2 8 15 8zM-257 625q-69 1 -145 -37q-8 -4 -20 -13.5
t-20 -16.5l-8 -8q4 1 10.5 3t21 5t22.5 2q47 -4 105.5 -25.5t94.5 -42.5q54 -33 86 -77q25 -35 25 -60q20 30 27 50q30 93 -37 168q-48 52 -162 52zM-267 596q4 0 9 -1q8 0 15 -1q55 -6 108 -51q22 -17 30.5 -38.5t7.5 -54.5q-12 27 -34 46t-58 40q-61 35 -146 48
q35 12 68 12z" />
    <glyph glyph-name="uni0E37.left" unicode="&#xf704;" horiz-adv-x="0" 
d="M-119 794h-5q-5 0 -9 -4t-5 -9l-25 -190q-41 14 -102 14q-69 1 -145 -37q-8 -4 -20 -13.5t-20 -16.5l-8 -8q4 1 10.5 3t21 5t22.5 2q47 -4 105.5 -25.5t94.5 -42.5q54 -33 86 -77q25 -35 25 -60q20 30 27 50q25 76 -16 140l48 243q1 7 -4 13q-3 4 -20 3q-5 0 -9 -4t-5 -9
l-34 -215q-13 13 -31 23l37 199q1 7 -4 13q-3 3 -15 3zM-275 576q4 0 9 -1q8 0 15 -1q55 -6 108 -51q22 -17 30.5 -38.5t7.5 -54.5q-12 27 -34 46t-58 40q-61 35 -146 48q35 12 68 12z" />
    <glyph glyph-name="uni0E48.low_left" unicode="&#xf705;" horiz-adv-x="360" 
d="M-200 764h-2q-5 0 -9 -4q-3 -2 -5 -17q0 -48 -10 -134.5t-12 -103.5q-2 -12 3 -19q3 -5 10 -6q4 -1 9 3q3 2 6 18q2 14 19 105t21 137q1 7 -4 12q-9 9 -26 9z" />
    <glyph glyph-name="uni0E49.low_left" unicode="&#xf706;" horiz-adv-x="360" 
d="M235.5 1024.5q0.5 -0.5 -0.5 -4.5q0 -5 -2 -12q-4 -22 -13 -47q-5 -18 -13 -35q-19 -50 -49 -102q-28 -50 -64 -99q-49 -66 -76 -96q-43 -48 -82 -86q-63 -60 -117.5 -85t-89.5 -26q-48 -2 -64 10q-7 5 1 10q45 32 64 73q1 2 -5 -2t-14.5 -6.5t-19.5 5.5
q-11 9 -13.5 23.5t9.5 35.5q9 14 26.5 20.5t33.5 0.5q27 -16 11 -65q-21 -52 -43 -71q33 -2 97 22q64 28 116 75q42 35 82 78t76 90q37 48 66 97q30 51 51 100q7 17 13 34q8 22 15 47q0 2 1 4.5t1.5 4t0.5 3.5q1 4 1.5 3.5zM-282 573q-13 0 -14 -9q-2 -7 5 -13.5t14 -8.5
q6 -1 12 2t7 8q1 7 -6 13t-15 8h-3z" />
    <glyph glyph-name="uni0E4A.low_left" unicode="&#xf707;" horiz-adv-x="360" 
d="M134.5 901.5q-0.5 0.5 -2.5 -8.5q-2 -4 -7 -25q-19 -77 -52 -146q-38 -82 -89 -145q-51 -62 -106 -96q-23 -15 -47 -23q1 2 5 6q25 36 32 72q-1 34 -44 60q-11 5 -21 5q-9 -2 -16 -7.5t-15 -15t-12 -12.5q-7 0 -22 13t-24 15q-21 9 -46 -13q-61 -49 -61 -110q1 -8 6 -15
t9.5 -11t14.5 -10.5t12 -8.5q21 -13 64 4q17 9 27 26t7 35q-4 16 -19 24.5t-31 2.5q-14 -5 -23.5 -17.5t-2.5 -24.5q10 -11 23 1.5t20 11.5q7 -10 -7 -19.5t-26 -8.5q-7 1 -13.5 5t-13.5 10.5t-10 9.5q-2 2 -3 5t-1 6v5.5t1.5 6t2.5 5t3.5 5.5t3.5 5t4 5l3 4q8 14 19.5 20.5
t26.5 -0.5q5 -3 11.5 -10t11 -12.5t12 -8.5t14.5 3q27 26 47 34q15 -7 24 -20.5t1 -26.5q-8 -30 -45 -68q-1 -1 -3 -2q-2 -2 -3.5 -5t-1.5 -6t2 -6t5 -4q7 -4 16 -2.5t18 3.5q19 3 42 16q19 9 37 22q57 38 107 105t85 152q30 72 46 150q3 15 4 26q1 8 0.5 8.5z" />
    <glyph glyph-name="uni0E4B.low_left" unicode="&#xf708;" horiz-adv-x="360" 
d="M-217 656h-8q-5 -1 -9 -4q-2 -2 -4 -13q2 -31 3 -75l-88 -1q-6 0 -10 -6q-3 -4 1 -20q1 -5 5 -8t8 -3l83 4q0 -36 -2 -98q-1 -9 4 -13q4 -4 10 -4q4 0 9 3q3 2 5 13q6 46 11 101l105 5q10 0 16 5q9 6 9 10t-9 9q-8 4 -16 4l-103 -1q4 46 5 78q1 6 -4 9q-8 5 -21 5z" />
    <glyph glyph-name="uni0E4C.low_left" unicode="&#xf709;" horiz-adv-x="360" 
d="M539 1256q-51 -138 -108 -225q-81 -127 -196 -230t-253 -177q-15 -9 -50 -26.5t-53 -28.5q-13 -9 -22.5 -32.5t-3.5 -36.5q4 -12 17 -25q16 -17 33 -16q24 1 42 24q18 22 17 45q-1 15 -18 33l-0.5 0.5l-0.5 0.5q270 155 435 369q117 157 161 323l0.5 1t-0.5 1zM-98 538h1
q27 -8 20 -20q-6 -10 -18 -7q-11 3 -10 19q1 7 7 8z" />
    <glyph glyph-name="uni0E48.low" unicode="&#xf70a;" horiz-adv-x="0" 
d="M-112 764h-2q-5 0 -9 -4q-3 -2 -5 -17q0 -48 -10 -134.5t-12 -103.5q-2 -12 3 -19q3 -5 10 -6q4 -1 9 3q3 2 6 18q2 14 19 105t21 137q1 7 -4 12q-9 9 -26 9z" />
    <glyph glyph-name="uni0E49.low" unicode="&#xf70b;" horiz-adv-x="0" 
d="M353.5 1025.5q0.5 -0.5 -0.5 -4.5q0 -5 -2 -12q-4 -22 -13 -47q-5 -18 -13 -35q-19 -50 -49 -102q-28 -50 -64 -99q-49 -66 -76 -96q-43 -48 -82 -86q-63 -60 -117.5 -85t-89.5 -26q-48 -2 -64 10q-7 5 1 10q45 32 64 73q1 2 -5 -2t-14.5 -6.5t-19.5 5.5
q-11 9 -13.5 23.5t9.5 35.5q9 14 26.5 20.5t33.5 0.5q27 -16 11 -65q-21 -52 -43 -71q33 -2 97 22q64 28 116 75q42 35 82 78t76 90q37 48 66 97q30 51 51 100q7 17 13 34q8 22 15 47q0 2 1 4.5t1.5 4t0.5 3.5q1 4 1.5 3.5zM-164 574q-13 0 -14 -9q-2 -7 5 -13.5t14 -8.5
q6 -1 12 2t7 8q1 7 -6 13t-15 8h-3z" />
    <glyph glyph-name="uni0E4A.low" unicode="&#xf70c;" horiz-adv-x="0" 
d="M257.5 901.5q-0.5 0.5 -2.5 -8.5q-2 -4 -7 -25q-19 -77 -52 -146q-38 -82 -89 -145q-51 -62 -106 -96q-23 -15 -47 -23q1 2 5 6q25 36 32 72q-1 34 -44 60q-11 5 -21 5q-9 -2 -16 -7.5t-15 -15t-12 -12.5q-7 0 -22 13t-24 15q-21 9 -46 -13q-61 -49 -61 -110q1 -8 6 -15
t9.5 -11t14.5 -10.5t12 -8.5q21 -13 64 4q17 9 27 26t7 35q-4 16 -19 24.5t-31 2.5q-14 -5 -23.5 -17.5t-2.5 -24.5q10 -11 23 1.5t20 11.5q7 -10 -7 -19.5t-26 -8.5q-7 1 -13.5 5t-13.5 10.5t-10 9.5q-2 2 -3 5t-1 6v5.5t1.5 6t2.5 5t3.5 5.5t3.5 5t4 5l3 4q8 14 19.5 20.5
t26.5 -0.5q5 -3 11.5 -10t11 -12.5t12 -8.5t14.5 3q27 26 47 34q15 -7 24 -20.5t1 -26.5q-8 -30 -45 -68q-1 -1 -3 -2q-2 -2 -3.5 -5t-1.5 -6t2 -6t5 -4q7 -4 16 -2.5t18 3.5q19 3 42 16q19 9 37 22q57 38 107 105t85 152q30 72 46 150q3 15 4 26q1 8 0.5 8.5z" />
    <glyph glyph-name="uni0E4B.low" unicode="&#xf70d;" horiz-adv-x="0" 
d="M-105 700h-8q-5 -1 -9 -4q-2 -2 -4 -13q2 -31 3 -75l-88 -1q-6 0 -10 -6q-3 -4 1 -20q1 -5 5 -8t8 -3l83 4q0 -36 -2 -98q-1 -9 4 -13q4 -4 10 -4q4 0 9 3q3 2 5 13q6 46 11 101l105 5q10 0 16 5q9 6 9 10t-9 9q-8 4 -16 4l-103 -1q4 46 5 78q1 6 -4 9q-8 5 -21 5z" />
    <glyph glyph-name="uni0E4C.low" unicode="&#xf70e;" horiz-adv-x="1024" 
d="M578 1256q-51 -138 -108 -225q-81 -127 -196 -230t-253 -177q-15 -9 -50 -26.5t-53 -28.5q-13 -9 -22.5 -32.5t-3.5 -36.5q4 -12 17 -25q16 -17 33 -16q24 1 42 24q18 22 17 45q-1 15 -18 33l-0.5 0.5l-0.5 0.5q270 155 435 369q117 157 161 323l0.5 1t-0.5 1zM-59 538h1
q27 -8 20 -20q-6 -10 -18 -7q-11 3 -10 19q1 7 7 8z" />
    <glyph glyph-name="uni0E0D.descless" unicode="&#xf70f;" horiz-adv-x="500" 
d="M486 41l29 338q1 11 -4 12q-9 1 -17 -9t-9 -21l-25 -287q-3 0 -14.5 2t-16.5 2q-49 -1 -74 -14q-2 -1 -5 -3q2 18 5 59t5 58q3 24 12 67.5t13 68.5q3 21 -5 21q-1 0 -8.5 1.5t-10.5 3.5q-7 3 -18 13.5t-15 13.5q-44 29 -70 38q-3 1 -7 1q-2 0 -6 -1q-11 -1 -23 -5
q-18 -5 -37 -16q-50 -26 -68 -56l-11 -18l24 -5q26 -5 44 -13q-8 -28 -11 -68q-8 -94 -12 -98q-1 -1 -1 -2l-1 -1q-15 -7 -22 -21q-5 -10 2 -18l-4 -14q-7 -34 8 -54q12 -16 35 -14q20 1 32 14q19 18 22 49q3 34 -17 51q-10 9 -24 11q-6 14 12 93q17 74 17 80q0 1 1 2
q6 11 5 14q-2 4 -8 8q-14 9 -35 13q10 9 26 17q17 9 32 10q10 0 18 -1.5t17.5 -6.5t13 -7.5t15 -12t13.5 -11.5q14 -11 23.5 -16t12 -5.5t3.5 -1.5q-4 -24 -9 -61t-8 -61q-3 -21 -7 -76.5t-10 -75.5q-13 -16 -11 -25q1 -5 9 -7q6 -2 11 1t12 6q3 1 11 8q10 9 14 9q69 5 71 5
q51 -11 56 16zM169 86q7 0 13.5 -7t7.5 -14t-7 -10q-16 -6 -23 5q-4 5 -2.5 14t7.5 11q2 1 4 1z" />
    <glyph glyph-name="uni0E31.left" unicode="&#xf710;" horiz-adv-x="0" 
d="M505 861q-32 -58 -85 -103t-127 -90q-153 -87 -294 -135q-80 -27 -169 -38q10 10 16.5 23.5t6 28.5t-12.5 25q-24 15 -49.5 7t-43.5 -29q-19 -19 -12 -46.5t35 -31.5q18 -4 39 -4.5t36.5 1t40 7t36 8.5t37.5 11q210 68 394 200q36 27 58 45.5t48 48t42 58.5q4 12 4 14z
M-206 548q9 0 15 -5q15 -17 2 -31t-28 6q-11 11 -6 20t17 10z" />
    <glyph glyph-name="uni0E4D.left" unicode="&#xf711;" horiz-adv-x="0" 
d="M-183 565q-11 0 -22 -4q-32 -13 -48 -37q-18 -26 -11 -55q8 -31 29 -44q26 -17 64 0q30 13 43 36q15 25 3 56q-8 24 -27 38q-13 10 -31 10zM-197 524q9 0 18 -6q13 -9 21 -28q5 -10 -1.5 -18.5t-19.5 -13.5q-14 -5 -25 1.5t-19 22.5q-8 19 -2 29q6 8 21 12q4 1 7 1z" />
    <glyph glyph-name="uni0E47.left" unicode="&#xf712;" horiz-adv-x="360" 
d="M437 1200q-35 -70 -88 -146.5t-94.5 -126t-112.5 -129.5q-45 -49 -66 -71.5t-60 -60t-73 -64.5q-18 -17 -27 -24.5t-27 -14.5t-35 -3q-35 -1 -65.5 -19t-44.5 -49q-7 -17 1 -36t24 -29t35 -12t33 14q4 4 6.5 12.5t4.5 13t7.5 4t14.5 -9.5q15 -13 32.5 -8t31.5 17.5
t22 27.5q13 19 -6 35q-17 13 -26 2q-5 -6 -2 -20q-2 -20 -12 -20t-24 16q-10 17 -21.5 14.5t-19.5 -12.5t-20 -20.5t-21 -10.5q-21 18 -15.5 34.5t28 27t41.5 4.5q47 -6 93 41q193 184 367 420q3 3 17 23t17.5 25.5t15.5 23.5t17 26t14 24t14.5 27.5t12 25.5t11.5 28z" />
    <glyph glyph-name="uni0E48.left" unicode="&#xf713;" horiz-adv-x="360" 
d="M-173 903h-2q-5 0 -9 -4q-3 -2 -5 -17q0 -48 -10 -134.5t-12 -103.5q-2 -12 3 -19q3 -5 10 -6q4 -1 9 3q3 2 6 18q2 14 19 105t21 137q1 7 -4 12q-9 9 -26 9z" />
    <glyph glyph-name="uni0E49.left" unicode="&#xf714;" horiz-adv-x="360" 
d="M343.5 1214.5q0.5 -0.5 -0.5 -4.5q0 -5 -2 -12q-4 -22 -13 -47q-5 -18 -13 -35q-19 -50 -49 -102q-28 -50 -64 -99q-49 -66 -76 -96q-43 -48 -82 -86q-63 -60 -117.5 -85t-89.5 -26q-48 -2 -64 10q-7 5 1 10q45 32 64 73q1 2 -5 -2t-14.5 -6.5t-19.5 5.5
q-11 9 -13.5 23.5t9.5 35.5q9 14 26.5 20.5t33.5 0.5q27 -16 11 -65q-21 -52 -43 -71q33 -2 97 22q64 28 116 75q42 35 82 78t76 90q37 48 66 97q30 51 51 100q7 17 13 34q8 22 15 47q0 2 1 4.5t1.5 4t0.5 3.5q1 4 1.5 3.5zM-174 763q-13 0 -14 -9q-2 -7 5 -13.5t14 -8.5
q6 -1 12 2t7 8q1 7 -6 13t-15 8h-3z" />
    <glyph glyph-name="uni0E4A.left" unicode="&#xf715;" horiz-adv-x="360" 
d="M261.5 1090.5q-0.5 0.5 -2.5 -8.5q-2 -4 -7 -25q-19 -77 -52 -146q-38 -82 -89 -145q-51 -62 -106 -96q-23 -15 -47 -23q1 2 5 6q25 36 32 72q-1 34 -44 60q-11 5 -21 5q-9 -2 -16 -7.5t-15 -15t-12 -12.5q-7 0 -22 13t-24 15q-21 9 -46 -13q-61 -49 -61 -110q1 -8 6 -15
t9.5 -11t14.5 -10.5t12 -8.5q21 -13 64 4q17 9 27 26t7 35q-4 16 -19 24.5t-31 2.5q-14 -5 -23.5 -17.5t-2.5 -24.5q10 -11 23 1.5t20 11.5q7 -10 -7 -19.5t-26 -8.5q-7 1 -13.5 5t-13.5 10.5t-10 9.5q-2 2 -3 5t-1 6v5.5t1.5 6t2.5 5t3.5 5.5t3.5 5t4 5l3 4q8 14 19.5 20.5
t26.5 -0.5q5 -3 11.5 -10t11 -12.5t12 -8.5t14.5 3q27 26 47 34q15 -7 24 -20.5t1 -26.5q-8 -30 -45 -68q-1 -1 -3 -2q-2 -2 -3.5 -5t-1.5 -6t2 -6t5 -4q7 -4 16 -2.5t18 3.5q19 3 42 16q19 9 37 22q57 38 107 105t85 152q30 72 46 150q3 15 4 26q1 8 0.5 8.5z" />
    <glyph glyph-name="uni0E4B.left" unicode="&#xf716;" horiz-adv-x="360" 
d="M-169 849h-8q-5 -1 -9 -4q-2 -2 -4 -13q2 -31 3 -75l-88 -1q-6 0 -10 -6q-3 -4 1 -20q1 -5 5 -8t8 -3l83 4q0 -36 -2 -98q-1 -9 4 -13q4 -4 10 -4q4 0 9 3q3 2 5 13q6 46 11 101l105 5q10 0 16 5q9 6 9 10t-9 9q-8 4 -16 4l-103 -1q4 46 5 78q1 6 -4 9q-8 5 -21 5z" />
    <glyph glyph-name="uni0E4C.left" unicode="&#xf717;" horiz-adv-x="360" 
d="M964 1177q-1 0 -9.5 -16t-18.5 -34t-14 -24q-217 -356 -549 -516q-38 -22 -88 -29.5t-92 0.5q-87 8 -115 5h-1h-2t-1 -1q-20 -3 -36 -23q-18 -22 -17 -45q1 -17 18 -34q16 -17 33 -16q24 1 42 24q17 21 17 44q89 0 130 6q43 7 81 22t57.5 26.5t57.5 38.5t53 37
q142 101 257.5 233t189.5 284zM71 523h1q4 0 7 -3q3 -2 5 -3q11 -10 8 -19q-3 -8 -14 -4q-6 2 -10.5 8.5t-3.5 12.5q1 7 7 8z" />
    <glyph glyph-name="uni0E38.low" unicode="&#xf718;" horiz-adv-x="0" 
d="M-60 -252h-2q-17 -1 -29 -10q-24 -20 -26 -42q-3 -29 13 -46q4 -4 22 -9q0 -14 -1 -64t-2 -76v-17q-11 -194 -28 -307q-4 -32 -13.5 -75t-17 -70.5t-18.5 -66t-11 -40.5q-6 -24 -18 -56.5t-19.5 -51t-5.5 -18.5q3 0 23.5 37t24.5 48q7 21 24 70.5t23.5 70.5t17.5 61.5
t20 84.5q29 146 37 458v11q5 2 9 5q7 3 12 9q2 2 3 4q5 6 8 14q12 24 -4 55q-9 18 -34 21h-8zM-64 -293q6 0 9 -3q2 -3 1.5 -7.5t-3.5 -7.5q-4 -3 -11 -3t-10 4q-5 6 2 13q5 4 12 4z" />
    <glyph glyph-name="uni0E39.low" unicode="&#xf719;" horiz-adv-x="0" 
d="M-86 -249h-1h-3q-16 -1 -27 -10q-22 -16 -29 -48q-8 -37 13 -55q8 -8 20 -7q-9 -23 -18 -69q-9 -42 -21 -130q-26 -187 -46 -238l-3 -3q-8 -9 -22 -43q-1 -1 -4.5 -7t-3.5 -8v-7q3 -6 11 -4q7 1 15.5 11t11.5 12q22 15 36 19.5t69 8.5l86 3q11 0 14 10q24 85 43 276
q15 154 31 214q7 24 4 45q-1 10 -6 7q-7 -5 -15 -19t-11 -25q-17 -62 -33 -219q-13 -132 -41 -238h-19t-33.5 -0.5t-23.5 -1.5q-58 -4 -66 -6q13 46 35 209q13 87 21 128q12 60 25 79q3 5 9.5 13t11.5 15.5t8 14.5q17 31 3 54q-11 17 -35 19h-6zM-100 -287q7 0 13 -9t6 -18
q0 -10 -9 -12q-6 -1 -12.5 3.5t-8.5 10.5q-2 7 1 15.5t9 9.5h1z" />
    <glyph glyph-name="uni0E3A.low" unicode="&#xf71a;" horiz-adv-x="0" 
d="M-81 -251h1q13 1 23 13q9 12 9 25q0 9 -10 19q-8 8 -18 8q-12 0 -23 -13q-9 -12 -9 -25q0 -8 9.5 -17.5t17.5 -9.5z" />
    <glyph glyph-name="uniF71B" unicode="&#xf71b;" horiz-adv-x="275" 
d="M16 406v-390h242v390h-242zM274 0h-274v423h274v-423z" />
    <glyph glyph-name="uni0E4D.high" unicode="&#xf71e;" horiz-adv-x="0" 
d="M-83 768q-11 0 -22 -4q-32 -13 -48 -37q-18 -26 -11 -55q8 -31 29 -44q26 -17 64 0q30 13 43 36q15 25 3 56q-8 24 -27 38q-13 10 -31 10zM-97 727q9 0 18 -6q13 -9 21 -28q5 -10 -1.5 -18.5t-19.5 -13.5q-14 -5 -25 1.5t-19 22.5q-8 19 -2 29q6 8 21 12q4 1 7 1z" />
    <glyph glyph-name="uni0E47.high" unicode="&#xf71f;" horiz-adv-x="0" 
d="M423.828 1376.29q-31.8311 -63.6641 -80.0342 -133.239t-85.9463 -114.595q-37.7441 -45.0195 -102.317 -117.778q-40.9268 -44.5654 -60.0254 -65.0283q-19.0996 -20.4639 -54.5693 -54.5693t-66.3926 -58.6621q-16.3711 -15.4609 -24.5557 -22.2822
q-8.18555 -6.82129 -24.5566 -13.1875q-16.3701 -6.36621 -31.832 -2.72852q-31.832 -0.90918 -59.5713 -17.2803q-27.7393 -16.3701 -40.4717 -44.5645q-6.36621 -15.4609 0.90918 -32.7412q7.27637 -17.2803 21.8281 -26.375t31.832 -10.9141t30.0127 12.7324
q3.6377 3.63867 5.91211 11.3691q2.27344 7.73047 4.0918 11.8232q1.81934 4.09277 6.82129 3.6377t13.1875 -8.63965q13.6426 -11.8232 29.5586 -7.27637q15.916 4.54785 28.6484 15.916q12.7334 11.3691 20.0088 25.0107q11.8232 17.2803 -5.45703 31.832
q-15.4609 11.8232 -23.6465 1.81934q-4.54688 -5.45703 -1.81836 -18.1895q-1.81934 -18.1904 -10.9141 -18.1904t-21.8281 14.5518q-9.09473 15.4619 -19.5537 13.1875q-10.459 -2.27344 -17.7344 -11.3682q-7.27637 -9.09473 -18.1904 -18.6445
q-10.9131 -9.5498 -19.0986 -9.5498q-19.0996 16.3711 -14.0977 31.377q5.00293 15.0068 25.4658 24.5566q20.4639 9.5498 37.7441 4.09277q42.7451 -5.45703 84.582 37.2891q175.53 167.345 333.78 381.983q2.72852 2.72852 15.4619 20.918q12.7324 18.1895 15.916 23.1924
q3.18262 5.00195 14.0967 21.3721q10.9141 16.3711 15.4609 23.6465q4.54785 7.27637 12.7334 21.8281q8.18457 14.5518 13.1875 25.0107q5.00195 10.459 10.9131 23.1924q5.91211 12.7324 10.459 25.4648z" />
    <glyph glyph-name="zero_time_x0" unicode="&#xf730;" horiz-adv-x="260" 
d="M160 602h-4q-30 -4 -52 -28q-9 -10 -13 -15.5t-7.5 -16.5t-3.5 -24q0 -4 3.5 -14t8.5 -14q34 -36 76 -36q15 5 39 27.5t31 38.5q3 6 2 14q-3 20 -29.5 44t-50.5 24zM154 565q19 1 46 -39q6 -9 -4 -20.5t-26 -19.5q-8 -4 -21 4.5t-25 23.5q-9 10 -3 22.5t23 25.5q4 3 10 3
z" />
    <glyph glyph-name="one_time_x1" unicode="&#xf731;" horiz-adv-x="260" 
d="M184 600q-15 -1 -45 -13q-14 -7 -36 -21q-38 -24 -38 -58q2 -26 34 -37q13 -2 42 9q14 5 22 12l4 3.5t5 4.5l4 4t4 5l2.5 5t2 6t0.5 6q-3 15 -11 24q-2 2 -4 3t-4.5 0t-4.5 -1.5t-5.5 -2.5t-4.5 -3q-22 -10 -14 -22q6 -7 -1 -11t-14 -3q-5 1 -8.5 7t-2.5 12q1 4 3 8
t6.5 7l7.5 5t9.5 5.5t8.5 4.5q16 8 23 7q6 -2 10.5 -6t10.5 -13t7 -10q13 -17 17 -41q2 -12 -17 -24q-25 -13 -40 -17q-4 -1 -34 1q-14 -3 -18 -17q0 -14 20 -22t32 -5q47 11 77 40q10 9 15 20q0 1 3 7.5t3.5 8.5t2.5 7.5t2 9t-0.5 8t-1.5 8.5q-21 51 -52 72q-11 7 -22 7z
" />
    <glyph glyph-name="two_time_x2" unicode="&#xf732;" horiz-adv-x="360" 
d="M-226 740q-3 -1 -15 -2.5t-19 -3t-15 -6t-12 -10.5q0 -5 9.5 -6t28 0t22.5 1q87 -1 150 -60q41 -36 104 -121t101 -120q13 -13 30 -15t31 10q18 8 66 22.5t72 28.5q10 7 16 12.5t12 13.5t5.5 16.5t-7.5 18.5q-20 52 -52 77q-8 2 -14 -1.5t-12.5 -13t-9.5 -11.5
q-3 3 -8.5 9.5t-9 10.5t-9 7.5t-12.5 3t-16 -5.5q-53 -30 -54 -83q-2 -19 13.5 -31.5t32.5 -2.5q19 11 26 33t-8 38q-3 2 -7.5 3t-7.5 1.5t-5 1t-1 3t6 6.5q3 3 5.5 4.5t4 2.5t3.5 0.5t3 -1t3 -3t3 -4t3 -5.5t4 -6q1 -1 2 -3q6 -9 9 -12.5t8 -4t11 5.5q12 10 17 8t11 -16
q1 -2 4.5 -8.5t5.5 -10t4.5 -9.5t2 -9.5t-1.5 -7.5t-5.5 -6.5t-11.5 -3.5q-9 -3 -50.5 -17.5t-66.5 -25.5q-11 7 -22.5 17.5t-18.5 18.5t-19 23.5t-17 21.5t-24.5 31t-27 34t-25.5 30.5t-29.5 32.5t-28.5 26.5t-33.5 26.5t-34.5 21q-51 26 -119 25zM188 530q6 0 11.5 -4.5
t5.5 -9.5q0 -4 -3.5 -7.5t-7.5 -3.5q-5 0 -10.5 4.5t-5.5 9.5q-1 4 3 7.5t7 3.5z" />
    <glyph glyph-name="three_time_x3" unicode="&#xf733;" horiz-adv-x="280" 
d="M125 605q-19 0 -45 -40q-26 -39 -31 -82q-2 -36 17 -55q10 -9 24.5 -8t24.5 11q25 25 25 60q-1 14 -8.5 25.5t-20.5 13.5q-1 1 -13 -3q-2 0 -2.5 1t0.5 4q8 17 19 28q10 10 25 -24v-1q14 -31 14.5 -40t-4.5 -40q0 -4 -2.5 -15.5t-2.5 -14.5q4 -7 12.5 -0.5t12.5 15.5
q6 24 12 40q15 45 31 68q13 16 20 5q8 -12 10.5 -20t2.5 -11t-4.5 -12.5t-6.5 -14.5q-4 -11 -12.5 -30.5t-12.5 -29.5q-2 -8 5.5 -13t15.5 -1q4 2 6.5 5.5t5 9.5t3.5 8q30 67 34 101q3 25 -23 49q-6 6 -12 7t-12.5 -2.5t-11 -7.5t-11.5 -11q-13 -13 -35 -50q-6 23 -18 44
t-21 27q-5 4 -11 4zM90 491q2 0 5 -1q6 -3 8.5 -12.5t-3.5 -17.5q-12 0 -20 15q0 16 10 16z" />
    <glyph glyph-name="four_time_x4" unicode="&#xf734;" horiz-adv-x="401" 
d="M596 900q-1 0 -8 -6q-6 -5 -26.5 -23.5t-27.5 -25t-26 -23t-28.5 -24t-26.5 -22t-29 -23t-28 -20t-31 -20.5l-30 -18q-6 -4 -26 -17t-27 -17l-24.5 -14t-29.5 -15.5t-30 -13t-38 -13.5q-9 -4 -37.5 -15.5t-41.5 -22.5q-58 -53 -41 -122q2 -9 5.5 -16t8.5 -11.5t9 -8
t11.5 -5t11 -2.5t13 -0.5t12 0.5t13 1.5t11.5 1.5q46 6 95 55q22 0 32 3q81 27 137 22q6 -1 11 3t5.5 10.5t-3.5 11.5q-9 9 -17 10q-23 2 -50.5 -3t-54 -13t-35.5 -9q11 7 19.5 23t7.5 27q-1 16 -12 26q-9 9 -24 9h-1q-10 0 -21 -5q-21 -8 -36 -25q-26 -32 -14 -71
q3 -10 14 -15q-12 -13 -31.5 -16t-55.5 -2q-23 4 -28 19.5t2 39.5q8 39 53 62q120 47 230.5 127t222.5 189l7 7t6.5 7t1.5 3zM224 543q8 0 12 -4q6 -4 4 -18q-5 -26 -15 -26q-14 0 -20 10q-11 18 0 30q7 8 19 8z" />
    <glyph glyph-name="five_time_x5" unicode="&#xf735;" horiz-adv-x="360" 
d="M596 900q-1 0 -8 -6q-6 -5 -26.5 -23.5t-27.5 -25t-26 -23t-28.5 -24t-26.5 -22t-29 -23t-28 -20t-31 -20.5l-30 -18q-6 -4 -26.5 -17t-28.5 -18t-24 -14t-31 -16t-31 -13q2 5 2 11q2 15 -6 26q-10 13 -27 14h-2q-9 1 -19 -2q-28 -6 -39 -27q-14 -25 -14 -39
q1 -11 12 -20q-12 -6 -20 -13q-30 -27 -39.5 -55t-1.5 -67q11 -53 101 -29q21 5 42 14h1.5t18.5 2.5t29 6.5q26 8 39.5 12t39 7.5t49.5 1.5q18 -1 22 25q0 5 -3 7.5t-14 2.5q-25 2 -48 -1t-36 -7t-33.5 -12t-27.5 -10q12 12 22 29t10 27q-1 15 -12 25q-9 10 -24 10h-1
q-10 0 -22 -5q-15 -7 -25 -18q-15 -18 -22.5 -40t-1.5 -38q1 -6 6 -11q-11 -4 -50 -4q-22 0 -29.5 26.5t4.5 48.5q2 4 5 11t4.5 9.5t5 7.5t8 8t12 7.5t18.5 8.5q3 1 7 5q1 1 9 2q2 0 16 6q66 29 95 45q146 83 326 258l7 7t6.5 7t1.5 3zM146 625h2t2 -1q3 0 6 -1.5t5 -3.5
q-5 -8 -14 -16l-1 -1q-5 -4 -15 -3q-9 1 -10 4q-1 2 0 4q2 4 5 7q9 9 19 11h1zM195 515q8 0 13 -8q2 -4 1 -10q-2 -16 -10 -21q-3 -2 -12 -2.5t-12 1.5q-10 9 -3 27q2 4 9.5 8.5t13.5 4.5z" />
    <glyph glyph-name="six_time_x6" unicode="&#xf736;" horiz-adv-x="260" 
d="M-213 836q-10 0 -21 -2q-6 -2 -6 -4q0 -8 8 -13.5t21 -10t17 -6.5q12 -4 22.5 -11.5t26 -22.5t18.5 -18q34 -34 87.5 -104t73.5 -93q9 -8 22 -9.5t20 -0.5t25.5 6t20.5 5q49 17 73 -14q16 -12 20 -31t-12 -34q-12 -8 -17.5 -11t-17 -8t-20.5 -4t-18 7q-13 7 0 14
q14 8 22 -3q13 -9 30 7.5t6 28.5q-16 12 -36.5 11t-35.5 -15q-2 -2 -7 -6.5t-7.5 -7l-7 -7t-6 -7.5t-4.5 -8.5t-2 -9.5t1 -10q12 -23 39.5 -31t50.5 4q60 27 87 77q11 25 -1.5 51t-36.5 42q-31 25 -67 12q-6 -1 -35.5 -12t-46.5 -11q-8 -1 -16.5 7t-20 24t-14.5 19
q-3 4 -23 29.5t-26 32.5t-23.5 28t-27 31t-25.5 25.5t-31 27t-31 21.5q-23 15 -48 15z" />
    <glyph glyph-name="seve_time_x7" unicode="&#xf737;" horiz-adv-x="380" 
d="M448 908q-3 -4 -5 -14.5t-3.5 -24.5t-2.5 -20q-9 -64 -16.5 -103t-23 -93.5t-35.5 -97.5q-40 -81 -101 -108q-5 -1 -2 4q1 2 4 4q23 39 29 76q-1 37 -41 64q-9 5 -19 5q-8 -2 -14.5 -8t-14 -16t-11.5 -13q-6 0 -20.5 14t-22.5 16q-19 9 -43 -14q-56 -52 -56 -116
q1 -8 5.5 -16t8.5 -11.5t13.5 -10.5t11.5 -9q20 -14 59 4q16 9 25 27t7 37q-4 17 -18 26t-28 2q-10 -3 -23 -18t-16 -28q-4 3 -11 12q-2 3 -3 6t-1 6.5t0.5 5.5t2 6t2 5.5t3 6t3 5.5t3.5 5t4 5q7 14 18 21t24 -1q5 -2 11 -10t10.5 -13.5t11.5 -8.5t13 3q24 27 43 36
q15 -7 23 -21.5t0 -28.5q-7 -32 -43 -73q-7 -10 -4 -16.5t13 -7.5q7 -5 17 -1q43 10 77.5 41t56.5 74q29 57 44 122t25 151q9 91 10 112zM139 484q5 0 10 -2q6 -11 -6.5 -21t-23.5 -9h-1q-5 9 1.5 20.5t19.5 11.5z" />
    <glyph glyph-name="eight_time_x8" unicode="&#xf738;" horiz-adv-x="300" 
d="M646 902q-12 0 -28 -8q-136 -52 -287 -210q-46 -46 -70 -64q-2 -1 -6.5 -4t-9.5 -6q-16 -13 -42 -17q-57 2 -89 -12q-38 -13 -68 -44q-18 -14 -17 -33q0 -28 30 -76q18 -25 22 -30q10 -7 18 0.5t9 18.5q13 37 31 53l19 -19l23 -23q4 -5 10 -3t8.5 3.5t8.5 6t8 5.5
q46 39 57 69q5 11 2 24t-14 18q-15 8 -32 1t-24 -22q-11 -29 6 -36q10 -3 18 4.5t7 18.5q0 8 7 8q6 0 1 -8q-10 -21 -44 -49q-4 4 -18.5 20.5t-22.5 25.5q-6 2 -9.5 3t-9 -2.5t-8 -6l-7.5 -7.5l-7 -7q-16 -16 -27 -40q-21 37 -23 59q1 5 5 9t12 9.5t10 6.5q35 18 71 17h21.5
t21.5 1q8 3 39 22q3 2 12.5 8.5t13.5 10.5q30 23 81 81q147 167 287 221q7 3 4 3z" />
    <glyph glyph-name="nine_time_x9" unicode="&#xf739;" horiz-adv-x="360" 
d="M164 550q1 -1 9 -6.5t9 -6t0 3.5q-4 14 1.5 27.5t19.5 15.5q37 2 55 -16q6 -6 7 1q3 16 4 17q4 6 8 10q3 2 15 3q10 1 11 2q7 4 17 10q3 2 18 20q21 25 41 59q38 62 64 130q12 31 32 53q17 19 40 32q32 17 56 20q18 2 20 3q3 1 5 1t2 -1q0 -3 -6 -3q-2 0 -20 -5
q-32 -9 -53 -23q-21 -13 -36 -31q-17 -21 -27 -51q-25 -77 -57 -137q-24 -45 -39 -64q-4 -5 -8 -9v-1q-9 -12 -25 -29q-4 -4 -17.5 -7.5t-15.5 -11.5q-1 -5 0 -11t2.5 -10t4.5 -10.5t5 -10.5q5 -10 -1 -21t-18 -7q-12 6 -29 24t-23 22q-8 9 -19 12q-12 3 -10 -10
q6 -29 15 -44q5 -15 5 -26.5t-9.5 -21t-20.5 -0.5q-26 43 -55 72l-8 8q-3 2 -7 6q-5 2 -19 6q-16 3 -19 -1q-14 -8 -25 -27q11 11 17 12t17.5 0t20.5 -12q12 -17 11.5 -40.5t-15.5 -38.5q-27 -26 -50 -12q-17 11 -26.5 30t-9.5 41q0 26 33 64q16 19 47 20q7 0 27 -7
q4 -2 15 -7t14 -6zM79 486h2h2q10 -3 16 -13t1 -18q-6 -10 -15 -7.5t-15 12.5q-5 8 -3 17t12 9z" />
    <glyph glyph-name="one_time_1x" unicode="&#xf73a;" horiz-adv-x="260" 
d="M184 600q-15 -1 -45 -13q-14 -7 -36 -21q-38 -24 -38 -58q2 -26 34 -37q13 -2 42 9q14 5 22 12l4 3.5t5 4.5l4 4t4 5l2.5 5t2 6t0.5 6q-3 15 -11 24q-2 2 -4 3t-4.5 0t-4.5 -1.5t-5.5 -2.5t-4.5 -3q-22 -10 -14 -22q6 -7 -1 -11t-14 -3q-5 1 -8.5 7t-2.5 12q1 4 3 8
t6.5 7l7.5 5t9.5 5.5t8.5 4.5q16 8 23 7q6 -2 10.5 -6t10.5 -13t7 -10q13 -17 17 -41q2 -12 -17 -24q-25 -13 -40 -17q-4 -1 -34 1q-14 -3 -18 -17q0 -14 20 -22t32 -5q47 11 77 40q10 9 15 20q0 1 3 7.5t3.5 8.5t2.5 7.5t2 9t-0.5 8t-1.5 8.5q-21 51 -52 72q-11 7 -22 7z
" />
    <glyph glyph-name="uniF752" unicode="&#xf752;" horiz-adv-x="280" 
d="M657 1140q-28 -237 -58 -358q-33 -132 -78 -238.5t-117 -189.5q-63 -72 -145 -101q3 28 11 56q6 19 5.5 23.5t-11.5 23.5q-44 60 -86 64q-13 1 -28.5 -3.5t-22.5 -14.5q-15 -14 -22 -26q-30 -37 -35 -81q-1 -40 37 -65q-13 -75 -9 -189q0 -3 6 -11q7 -10 20 -16
q18 -8 41 -10q25 -1 44 7q25 9 30 31q1 4 3 19q1 8 12 145q1 10 2 21q61 20 114 65t91 104q70 109 110 240t66 292q19 141 20 212zM162 376q14 0 34 -11q23 -13 32 -23q4 -4 8.5 -8t4.5 -5t1.5 -5t-1.5 -8q-10 -24 -14 -72q-39 -8 -77 -5q-5 1 -10 3q1 7 2 12q13 -7 27 -6
q14 0 25 12q10 10 15 28q5 22 0 41q-7 25 -29 29q-3 1 -6 1q-9 -1 -17 -6q-7 -5 -14 -14q-7 -10 -15 -30q-3 -7 -6 -18q-3 -4 -3 -9l-6 -22q-27 28 -8 59q9 22 28 44q5 4 11 8q8 5 18 5zM167 321q3 0 7.5 -5.5t5.5 -10.5t-3 -7t-9.5 0.5t-7.5 6.5q-3 7 5 15q1 1 2 1z
M225 219q0 -3 -1 -9q-2 -21 -7.5 -67.5t-6.5 -69.5q-2 -6 -12 -10q-13 -5 -31 -5q-28 4 -36 10q-7 53 5 148q23 -7 45 -3q22 1 44 6z" />
    <glyph glyph-name="uniF753" unicode="&#xf753;" horiz-adv-x="280" 
d="M1236 1020q-2 -1 -12 -13q-2 -2 -12.5 -15t-18.5 -23q-76 -91 -155 -159q-49 -42 -101 -76q-50 -33 -104 -61q-137 -70 -228 -97q-144 -44 -265 -59q-12 -2 -22 -6q-17 -8 -25 -18q-6 -7 -10 -20q-4 -11 -3 -23q1 -8 6 -15q8 -11 20 -13q6 -1 14 0q3 0 7 1q7 3 10 6
q10 8 14 18q2 5 1 9q-1 5 -4 7q-4 2 -16 1q-2 0 -5 -2t-4.5 -2.5t-3.5 0.5q-7 8 14 23q9 6 13 7q50 6 100 17.5t78.5 20t86.5 28.5q92 30 229 103q55 30 104 64q52 36 100 79q79 70 153 164q18 22 30 40q9 13 9 14zM163 400q-19 0 -39 -10q-41 -21 -74 -52q-46 -44 -73 -95
q-13 -18 -4 -25q5 -3 14 7q55 75 82 96q36 28 66 34q12 4 27.5 3.5t29.5 -9.5q33 -22 45 -44q-1 -28 -4 -46q-11 -66 -14 -80q-1 31 -1 44q0 9 1 24.5t2 19.5q1 28 -12 46q-8 12 -22 19q-10 5 -20 4q-8 0 -18 -10q-21 -23 -23 -44q-2 -33 21 -54q4 -4 9 -5t7.5 0t7.5 3.5
l7 3.5q1 1 3 3.5t3 2.5q4 -150 1 -225q-1 -7 3 -11q6 -7 11 -6q8 3 14.5 15.5t6.5 19.5l1 1q9 33 32 143q10 50 16 85q1 9 4 23.5t5 24t2 14.5q0 4 -2 7q-32 42 -53 54q-27 17 -60 19h-2zM169 297q6 0 11.5 -4.5t7.5 -9.5q1 -4 -1.5 -9t-6.5 -6q-6 -1 -12 4t-8 11
q-3 10 5 13q2 1 4 1zM318 -37q-2 0 -27 -29q-45 -53 -89 -101q2 28 -8 46q-1 2 -3 4q-10 9 -25 10h-9q-19 -2 -31 -14q-16 -16 -20 -43q-5 -32 15 -47q10 -7 24 -5q9 1 18 6q-14 -15 -31 -33q-73 -76 -136 -133q-49 -44 -102 -85q-14 -11 -43 -33h-2q-25 13 -51 10
q-39 -5 -85 -47q-21 -18 -29 -35q-11 -20 -8 -27q6 -10 30 -10q8 0 16 1.5t17.5 5t14.5 5.5t16.5 7.5t14.5 7.5q13 6 45 28q16 -12 36 -36q21 -24 43 -36q19 -10 33 -10q16 1 28 11q10 8 20 35q5 13 8 35q1 4 1 11t0.5 11t2 8.5t5.5 7.5q5 8 30 4t33 -2q23 7 44 24
q21 19 30 40q14 33 27 106q3 16 6.5 34.5t5 29.5t2.5 13q0 1 5.5 26t8.5 40q1 6 1 11q46 54 95 116q24 31 23 32zM147 -143q14 -1 19.5 -5t4.5 -16q-5 -5 -12 -4q-12 2 -15 10q-3 9 3 15zM161 -231q-5 -20 -6 -25t-5 -31.5t-8 -45.5q-13 -70 -26 -100q-5 -13 -17 -19
q-20 -12 -46 -14q-10 -1 -22.5 0t-19.5 0.5t-14 -5.5q-8 -6 -13 -17.5t-6.5 -20t-3.5 -24t-3 -19.5q-5 -30 -19 -34q-4 -1 -12 5q-6 5 -33 37q-18 20 -32 32q23 19 36 30q52 44 99 90q63 61 132 140q12 13 19 21zM-230 -529q17 0 17 -5q-1 -5 -22 -10q-31 -6 -31 -2q0 1 1 2
q10 15 35 15z" />
    <glyph glyph-name="yoying_short" unicode="&#xf759;" horiz-adv-x="500" 
d="M234 407q-5 0 -9 -2q-37 -15 -62 -35.5t-45 -52.5q30 -3 56 -25q-5 -18 -11 -68q-11 -89 -12 -98q-1 -1 -1.5 -2l-0.5 -1q-15 -7 -22 -21q-5 -10 2 -18l-4 -14q-7 -34 8 -54q12 -16 35 -14q20 1 32 14q19 18 22 49q3 34 -17 51q-10 9 -24 11q2 8 12 93q8 61 17 80
q3 7 -12.5 21t-24.5 16q31 25 58 27q16 -4 36.5 -15.5t44 -27t33.5 -21.5l-7.5 -60l-7.5 -60q-3 -21 -7 -76.5t-10 -75.5q-13 -16 -11 -25q1 -5 9 -7q6 -2 11 1t12 6q3 1 11 8t14 9q26 9 71 5q10 -1 21 -3.5t15.5 -3t9 0.5t6.5 6.5t4 15.5l14 163l7 87q8 46 -6 43
q-11 -2 -20 -22q-2 -5 -2 -8l-6 -77l-13 -153q-3 0 -14.5 2t-16.5 2q-37 -1 -74 -14q-2 -1 -5 -3q2 18 5 59t5 58q3 24 12 67.5t13 68.5q3 19 -5 21q-1 0 -8.5 1t-10.5 4q-96 67 -127 67zM169 86q7 0 13.5 -7t7.5 -14t-7 -10q-16 -6 -23 5q-4 5 -2.5 14t7.5 11q2 1 4 1z" />
    <glyph glyph-name="saraaa_yo2" unicode="&#xf75b;" horiz-adv-x="240" 
d="M107 400h-2q-3 0 -9 -2q-9 -3 -36 -17q-20 -11 -35 -22q-39 -30 -58 -53q-6 -7 -6 -10q-2 -9 3 -11q5 -4 11 2q35 36 57 51q20 14 32 20q7 4 11 5t5 1q65 -28 110 -65q1 -1 3 -2q-5 -58 -21 -277.5t-28 -329.5q-1 -10 -2.5 -25.5t-1.5 -19.5q-11 -65 -36 -108t-79 -71
q-50 -26 -115 -6q-36 11 -67 35t-48 55q-18 34 -5 70q12 33 50 40q9 1 25 -6t18 -15l-3 -3q-9 -9 -4 -21.5t15 -14.5q20 -4 35.5 12.5t12.5 45.5q-2 18 -19 32q-29 25 -62 21q-31 -3 -60.5 -30t-39.5 -55q-10 -26 -9 -58.5t11 -57.5q32 -80 118 -102q86 -23 152 12
q50 26 77.5 55t41.5 71q14 33 25 141q5 43 18 168t19 187q3 12 5.5 33.5t2.5 22.5q4 41 10.5 110.5t10.5 110.5q2 3 0.5 5t-3 1.5t-9 3.5t-17.5 12q-56 42 -96 57q-4 2 -8 2z" />
    <glyph glyph-name="sosalathai.alt1" unicode="&#xf761;" horiz-adv-x="360" 
d="M228 396q-10 0 -32 -10q-19 -8 -30.5 -14t-18 -10.5t-22.5 -16.5q-18 -14 -23.5 -42t-1.5 -53q2 -12 5.5 -32t5.5 -30t3.5 -25t1 -29t-2.5 -30v-1q-8 -58 -17 -93q-3 -10 1 -12q1 -2 5 0t5.5 3t5 5t5.5 5q6 5 6 9q11 38 23.5 107.5t26.5 108.5q27 -1 49 11q19 12 30 34
q14 29 -1 49q-9 10 -25 11q-8 1 -16 -1q-22 -6 -33 -21q-25 -34 -40 -81q-16 64 2 82q22 22 78 38q8 2 31 -10q16 -8 37 -27q14 -13 25 -28q2 -3 7 -5.5t6.5 -8t0.5 -18.5l-2 -26q-1 0 -1 0.5v0.5q-18 15 -34 14q-23 0 -42 -20q-18 -18 -17 -37q1 -14 18 -29q7 -5 13 -8
q20 -12 52 -14q-4 -32 -8.5 -64.5t-7.5 -49.5l-3 -17q-2 -10 2 -11q4 -2 7.5 1t8 10.5t4.5 8.5q6 9 8 17q7 43 17 108q17 4 31.5 8.5t29.5 12t23.5 12t23.5 16t20 15t22.5 18.5t21.5 18q23 20 53 53.5t24 36.5h-1q-3 0 -17 -11.5t-34.5 -28.5t-30.5 -25q-6 -4 -29.5 -22
t-31.5 -23t-27 -16t-36 -16t-36 -7q5 38 9 73q6 52 -1 55q-11 3 -27.5 20.5t-19.5 19.5q-35 28 -44 33q-21 10 -35 9zM214 306q19 0 12 -16q-4 -10 -13 -13q-12 -4 -16 3q-5 8 5 21q4 5 12 5zM277 217h3q10 -2 18.5 -9.5t6.5 -14.5q-2 -4 -7.5 -6t-10.5 -1q-10 2 -18.5 9.5
t-6.5 15.5q2 6 15 6z" />
    <glyph glyph-name="poplathai.alt1" unicode="&#xf762;" horiz-adv-x="360" 
d="M1291 1172q-1 0 -9 -13q-2 -3 -11.5 -17t-16.5 -25q-66 -99 -137 -174q-44 -47 -92 -86q-46 -38 -98 -72q-129 -84 -216 -120q-139 -59 -258 -87q-12 -3 -20 -8q-17 -10 -24 -20q-6 -8 -8 -21q-2 -12 0 -24q1 -8 7 -14q9 -10 21 -11q7 0 14 1q4 1 7 3q7 3 10 6q9 9 12 20
q1 5 -1 9q-1 5 -4 6q-4 2 -16 0q-2 -1 -5 -3l-4.5 -3t-3.5 0q-7 8 12 25q8 7 12 8q49 11 97.5 28t76 28.5t83.5 36.5q88 40 217 127q51 35 97 75q48 41 91 89q71 78 134 178q16 24 26 43q8 15 7 15zM344 420q-6 0 -10.5 -3.5t-4.5 -9.5l-48 -363q-103 1 -154 -7q-4 0 -7 -1
q2 35 6 70q11 102 27 149q5 14 29 49q18 27 22 36q5 12 5 22q0 13 -8 23q-11 13 -32 14q-5 0 -11 -1q-22 -3 -38 -16q-15 -12 -21 -30q-9 -24 3 -41q12 -16 38 -15q-10 -16 -15 -31q-18 -51 -29 -156q-5 -44 -7 -86q-7 -4 -14 -9q0 -1 -2.5 -3t-3.5 -3l-3.5 -3.5l-3.5 -3.5
t-2.5 -3.5t-1 -3.5t0.5 -4q3 -7 15 -3q15 5 48 11q51 7 172 4q6 0 10 3.5t5 9.5l50 388q1 7 -3.5 12t-11.5 5zM153 369h3q12 0 13 -7q5 -28 -12 -29q-14 -1 -19 6q-3 5 -3 10q-1 11 4 16q7 4 14 4z" />
    </font>
</defs>
</svg>
