<?xml version="1.0" standalone="no"?>
<!DOCTYPE svg PUBLIC "-//W3C//DTD SVG 1.1//EN" "http://www.w3.org/Graphics/SVG/1.1/DTD/svg11.dtd" >
<svg xmlns="http://www.w3.org/2000/svg" xmlns:xlink="http://www.w3.org/1999/xlink" version="1.1">
<metadata>
Created by FontForge 20170805 at Wed May 10 21:00:06 2017
 By Manatsawin
Copyright (C) May 2017, Worawut Thanawatanawanich. All rights reserved.
</metadata>
<defs>
<font id="SOV_sila" horiz-adv-x="380" >
  <font-face 
    font-family="SOV_sila"
    font-weight="700"
    font-stretch="normal"
    units-per-em="1000"
    panose-1="2 7 5 6 6 0 0 2 0 4"
    ascent="800"
    descent="-200"
    x-height="400"
    cap-height="400"
    bbox="-403 -346 1286 907"
    underline-thickness="30"
    underline-position="-50"
    unicode-range="U+0020-F76B"
  />
<missing-glyph 
d="M16 406v-390h242v390h-242zM274 0h-274v423h274v-423z" />
    <glyph glyph-name="nine_in_heart" unicode="&#xe2f;&#xe23;&#xe2f;" horiz-adv-x="740" 
d="M80 500v-620h620v620h-620zM286 420q31 0 56.5 -11.5t35.5 -23.5l11 -12q2 2 5.5 6t15.5 12.5t25.5 15t34.5 10.5t43 2q37 -4 70 -27q34 -23 54 -57q38 -63 16 -154q-14 -55 -86 -131q-22 -23 -66.5 -55.5t-78 -54t-33.5 -20.5q-128 77 -179 131q-23 24 -36.5 40
t-28.5 41t-20 49q-9 37 -3 79.5t26 74.5q21 32 55.5 56t68.5 28q8 1 14 1zM240 360v-140v-120v-40h80q21 0 41 9q2 1 3 1q35 18 49 54q7 17 7 36q0 29 -15 53q-14 22 -37 35q-11 6 -23 9q36 -9 59.5 -37t24.5 -65q0 -17 -9 -39l40 -56h80v100l-70 100h70v100h-100v-57
l-40 57h-160zM320 190q12 0 21 -9t9 -21t-9 -21t-21 -9t-21 9t-9 21t9 21t21 9z" />
    <glyph glyph-name="uvSOV" unicode="&#xe2f;&#xe23;&#xe2d;&#xe07;&#xe2f;" horiz-adv-x="1310" 
d="M743 543q0 1 6 -3q8 -7 29 -3q20 5 30 -4q5 -6 8 -6t11 6q8 5 12.5 4.5t12.5 -8.5q6 -6 8 -7t6 0q5 0 5 -1q-3 -2 -9.5 -2t-14 8t-11.5 6.5t-9 -6.5t-10.5 -5.5t-12 5t-9.5 2.5q-5 -5 -19 -61q-7 -28 -2 -34q3 -4 9.5 -3t9.5 -1.5t1 -3.5q0 -1 -2 1q-3 2 -7 -1
q-8 -4 -16 5t-28 44q-26 44 -34 48q-4 1 -6.5 4.5t-7.5 5.5l2 1q7 -1 10.5 -3t17.5 -1l13 1l6 -7q5 -6 7 -5.5t2 -1t-2.5 -1.5t-5.5 2l-5 2q-4 4 -7 3q-3 -2 -1.5 -6t14.5 -25q14 -23 15 -21q1 3 6 28.5t5 27.5q-1 2 -9 3t-13 6.5t-5 6.5zM614 568q2 7 3 7q1 -1 1 -6
q0 -10 9 -3q5 3 12 2t10 -6q6 -9 -1 -34q-5 -16 -5 -21t5 -9q4 -5 14 -4t17 1h8v6q-1 7 -13 29q-6 11 -4.5 21.5t9.5 15.5q6 3 14.5 1t11.5 -7q1 -3 0 -11v-8l4 -2q8 -2 -2 -3q-3 -1 -7 -1q-8 0 -10 4q-6 9 2 12q3 2 2.5 3.5t-4.5 2t-6 -3.5q-6 -8 8 -25q14 -16 14 -30
q0 -9 -5.5 -15t-5.5 -11q0 -4 1 -5t6 -2l6 -2h-7q-9 0 -13 10l-3 5h-22q-19 1 -24.5 3t-10.5 10q-6 9 1 37q7 25 3 25q-2 0 -6 -2t-8 -1q-8 4 -4 17zM682 585q40 9 47 -4q3 -6 -2 -2q-9 6 -34 -1q-22 -6 -33 -2q-4 2 -8.5 5t-8.5 3l-2 2q2 3 17 -1q9 -2 24 0zM579 -63
q15 -3 39 -3q21 -1 40 1q1 -1 64 14q31 7 52 17q13 7 30.5 22t29.5 29q36 44 50.5 92.5t6.5 93.5q-17 98 -92 147q-59 39 -141 55q-16 3 -45 3t-40 -3l-11 -3l9 10q29 35 29 68q0 24 -12.5 44.5t-30.5 27.5q-11 4 -51 3q-21 0 -28 1q-38 11 -36 53q1 13 5 22q10 21 45 43
q21 14 28 21.5t7 18.5t-6.5 20t-26.5 26q-31 27 -31 46q0 12 15 28t17 38q2 23 -4 35l1 -7q3 -22 -3 -38t-27 -29q-19 -13 -21.5 -26.5t10.5 -35.5q15 -25 16 -39q1 -9 -3 -17q-5 -12 -22 -26q-37 -29 -48 -70q-4 -14 -4 -36t4 -34q10 -32 31 -44.5t64 -10.5l24 1l8 -6
q14 -11 14 -28q0 -22 -41 -61q-58 -54 -74 -95q-20 -50 3 -80q2 -3 5 -5q16 -18 17 -13q1 2 5 18q27 101 123 113q37 4 74 -1q72 -9 118 -56q53 -55 53 -119q0 -34 -8 -57t-27 -47q-11 -13 -31 -27.5t-38 -21.5q-30 -13 -52 -18q-18 -4 -55 -2t-59 7q-67 17 -66 88
q0 34 19 54q14 13 40 20q42 10 53 -24q6 -15 0 -20q-4 -2 -7 1q-11 10 -25.5 6.5t-20.5 -17.5q-4 -10 -3.5 -24.5t6.5 -24.5q9 -17 23 -24q20 -11 52 -9.5t59 13.5l9 4h-16q-43 1 -53 11q-4 4 -4 13q2 17 15 36q16 24 2 57q-8 20 -19.5 30.5t-31.5 15.5q-11 3 -36 3t-35 -3
q-30 -8 -54 -32t-31 -52q-6 -24 -4 -51q3 -28 16 -52.5t32 -37.5q17 -13 51 -25t60 -15zM22 221l7 -6q7 -6 22.5 -13.5t26 -10.5t59 -3t53.5 -2.5t7.5 -6.5t-1.5 -16q-8 -24 -1 -44q3 -10 2 -10q-8 -3 -11 -12q-1 -5 0 -14q2 -11 9 -17t29 -14q33 -12 23 -41
q-5 -14 -24.5 -26.5t-36.5 -12.5q-9 0 -34 5q-46 9 -73 2q-11 -3 -12 -4l2 -1q18 4 37 4q20 0 52 -8q27 -8 52 -3q18 4 33 15q11 9 17 24t3 31q-2 10 -4 15q-6 12 -23 18q-9 4 -13.5 7t-3.5 5q3 5 18 0q12 -4 46.5 -4t52.5 4q25 5 42 18q34 25 31 84q-1 24 -16 40
q-13 14 -55 29q-63 23 -83 37q-23 15 -27 27q-8 20 12 35q25 18 57 18q30 0 52 -9q11 -4 20 -13t12 -19q3 -11 1.5 -24t-6.5 -13q-2 0 -8.5 4t-16.5 4.5t-11.5 2t0.5 9.5t-1 13q-4 9 -17 15h-2q12 -10 13.5 -14.5t-6.5 -16.5q-11 -16 -3 -31q4 -8 12 -11q24 -10 45 9
q10 10 12.5 17.5t2.5 25.5q0 28 -7.5 40t-32.5 23l-18 9q-21 13 -7 37q5 9 4 9q-1 1 -2.5 -1t-3 -5t-3.5 -6t-3.5 -6.5t-1.5 -4.5q-3 -16 6 -27l4 -4h-4q-3 0 -16 3q-27 6 -55 -3t-46 -30q-19 -23 -17 -55q1 -24 17.5 -37t83.5 -42q42 -19 55.5 -28t19.5 -20q5 -11 3 -25.5
t-9 -22.5q-8 -8 -30.5 -17t-38.5 -10q-21 -2 -42 7t-27 22q-4 11 0 28l2 8l5 -3q8 -5 19 0q12 5 12 20q0 12 -8 23t-19 14q-26 6 -94 -5q-60 -10 -87 -2q-26 7 -33 13zM1286 321h-7q-14 -3 -27 4q-11 6 -21 21q-12 20 -31 27q-22 9 -85 1q-58 -7 -73 -2q-6 3 -15 10t-17 7
t-14 -2t-11 -1q-11 3 -21 23l-4 10l1 -9q2 -18 14 -29t25 -8q7 1 9 0.5t6 -7.5q6 -13 26 -14q12 -1 14 -5q4 -7 -2 -24.5t-39 -93.5q-41 -96 -42 -96l-38 91l-42 102q-1 1 -0.5 1.5t2 0.5t4 0.5t6.5 0.5q20 1 25 11t16 4q25 -15 2 -45q-15 -18 -15 -41q0 -17 11 -26
q14 -13 17 -11l-4 4q-22 14 -18 36q4 17 18 36q13 18 13 30q0 17 -17 35q-11 11 -36 14q-12 2 -17 0.5t-13 -9.5q-8 -9 -11 -8t-8 10q-7 13 -13 16t-17 -1t-13.5 -2.5t-8.5 12.5q-9 18 -26 18l-7 -1l8 -1q15 -3 19 -21q2 -10 5 -13t22 0q7 1 11 -2q8 -5 56 -137
q41 -114 57 -146q24 -50 44 -60q15 -8 14 -23l1 -7q2 2 2.5 12t-1.5 13t-13 8t-13 8q-7 7 0 29q4 14 50.5 123t57.5 129q11 22 40 36q23 12 41 10q28 -5 47 -31q21 -30 44 -21z" />
    <glyph glyph-name=".notdef" 
d="M16 406v-390h242v390h-242zM274 0h-274v423h274v-423z" />
    <glyph glyph-name=".null" 
 />
    <glyph glyph-name="nonmarkingreturn" 
 />
    <glyph glyph-name="space" unicode=" " horiz-adv-x="200" 
 />
    <glyph glyph-name="exclam" unicode="!" horiz-adv-x="200" 
d="M80 480v-440h120v440h-120zM140 0q-25 0 -42.5 -17.5t-17.5 -42.5t17.5 -42.5t42.5 -17.5t42.5 17.5t17.5 42.5t-17.5 42.5t-42.5 17.5z" />
    <glyph glyph-name="quotedbl" unicode="&#x22;" horiz-adv-x="240" 
d="M120 520l-40 -40v-120h60l40 40v120h-60zM190 520v-125l-35 -35h55l30 30v130h-50z" />
    <glyph glyph-name="numbersign" unicode="#" 
d="M140 340v-80h-60v-40h60v-60h-60v-40h60v-80h60v80h60v-80h60v80h60v40h-60v60h60v40h-60v80h-60v-80h-60v80h-60zM200 220h60v-60h-60v60z" />
    <glyph glyph-name="dollar" unicode="$" 
d="M80 220l100 -100h-100v-120h100v-40h100v40h100v180l-100 100h100v120h-100v40h-100v-40h-100v-180z" />
    <glyph glyph-name="percent" unicode="%" 
d="M130 300q-21 0 -35.5 -14.5t-14.5 -35.5t14.5 -35.5t35.5 -14.5t35.5 14.5t14.5 35.5t-14.5 35.5t-35.5 14.5zM280 300l-200 -200v-100h100l200 200v100h-100zM330 100q-21 0 -35.5 -14.5t-14.5 -35.5t14.5 -35.5t35.5 -14.5t35.5 14.5t14.5 35.5t-14.5 35.5t-35.5 14.5z
" />
    <glyph glyph-name="ampersand" unicode="&#x26;" 
d="M80 400v-400h260v200h40v60h-140v-20h-60v60h60v100h-160zM240 200h40v-100h-40h-60v60h60v40z" />
    <glyph glyph-name="quotesingle" unicode="'" horiz-adv-x="200" 
d="M120 520l-40 -40v-120h80l40 40v120h-80z" />
    <glyph glyph-name="parenleft" unicode="(" horiz-adv-x="280" 
d="M80 520v-640h200v3q-51 17 -85.5 107t-34.5 210t34.5 210t85.5 107v3h-200z" />
    <glyph glyph-name="parenright" unicode=")" horiz-adv-x="280" 
d="M80 520v-3q51 -17 85.5 -107t34.5 -210t-34.5 -210t-85.5 -107v-3h200v640h-200z" />
    <glyph glyph-name="asterisk" unicode="*" 
d="M80 360v-80l60 -60l-60 -60v-100h100l50 60l50 -60h100v100l-60 60l60 60v80h-100l-50 -60l-50 60h-100z" />
    <glyph glyph-name="plus" unicode="+" 
d="M180 360v-100h-100v-100h100v-100h100v100h100v100h-100v100h-100z" />
    <glyph glyph-name="comma" unicode="," horiz-adv-x="200" 
d="M80 -60l60 60h-60v120h120v-160l-80 -80h-40v60z" />
    <glyph glyph-name="hyphen" unicode="-" 
d="M80 260v-100h300v100h-300z" />
    <glyph glyph-name="period" unicode="." horiz-adv-x="200" 
d="M140 120q-25 0 -42.5 -17.5t-17.5 -42.5t17.5 -42.5t42.5 -17.5t42.5 17.5t17.5 42.5t-17.5 42.5t-42.5 17.5z" />
    <glyph glyph-name="slash" unicode="/" 
d="M240 400l-160 -260v-140h140l160 260v140h-140z" />
    <glyph glyph-name="zero" unicode="0" 
d="M80 400v-400h300v400h-300zM230 280q24 0 40.5 -20.5t16.5 -49.5t-16.5 -49.5t-40.5 -20.5t-40.5 20.5t-16.5 49.5t16.5 49.5t40.5 20.5z" />
    <glyph glyph-name="one" unicode="1" horiz-adv-x="240" 
d="M40 400v-120l80 60v-340h120v400h-200z" />
    <glyph glyph-name="two" unicode="2" 
d="M380 100h-100l100 100v200h-300v-120h60q0 12 9 21t21 9t21 -9t9 -21l-120 -120v-160h300v100z" />
    <glyph glyph-name="three" unicode="3" 
d="M80 140v-140h300v140l-60 60l60 60v140h-300v-140h120l-60 -60l60 -60h-120z" />
    <glyph glyph-name="four" unicode="4" 
d="M80 400v-200v-100h100v-100h200v400h-100v-100h-80l40 100h-160z" />
    <glyph glyph-name="five" unicode="5" 
d="M80 400v-196q41 0 70.5 -24t29.5 -58t-29.5 -58t-70.5 -24v-40h300v200l-100 100h100v100h-300z" />
    <glyph glyph-name="six" unicode="6" 
d="M80 400v-400h300v280h-160v40h160v80h-300zM230 200q21 0 35.5 -14.5t14.5 -35.5t-14.5 -35.5t-35.5 -14.5t-35.5 14.5t-14.5 35.5t14.5 35.5t35.5 14.5z" />
    <glyph glyph-name="seven" unicode="7" 
d="M80 400v-40v-100h180l-40 -260h160v400h-300z" />
    <glyph glyph-name="eight" unicode="8" 
d="M80 400v-160l40 -40l-40 -40v-160h300v160l-40 40l40 40v160h-300zM230 340q21 0 35.5 -14.5t14.5 -35.5t-14.5 -35.5t-35.5 -14.5t-35.5 14.5t-14.5 35.5t14.5 35.5t35.5 14.5zM230 160q21 0 35.5 -14.5t14.5 -35.5t-14.5 -35.5t-35.5 -14.5t-35.5 14.5t-14.5 35.5
t14.5 35.5t35.5 14.5z" />
    <glyph glyph-name="nine" unicode="9" 
d="M80 400v-280h160v-120h140v400h-300zM230 300q21 0 35.5 -14.5t14.5 -35.5t-14.5 -35.5t-35.5 -14.5t-35.5 14.5t-14.5 35.5t14.5 35.5t35.5 14.5z" />
    <glyph glyph-name="colon" unicode=":" horiz-adv-x="200" 
d="M140 320q-25 0 -42.5 -17.5t-17.5 -42.5t17.5 -42.5t42.5 -17.5t42.5 17.5t17.5 42.5t-17.5 42.5t-42.5 17.5zM140 120q-25 0 -42.5 -17.5t-17.5 -42.5t17.5 -42.5t42.5 -17.5t42.5 17.5t17.5 42.5t-17.5 42.5t-42.5 17.5z" />
    <glyph glyph-name="semicolon" unicode=";" horiz-adv-x="200" 
d="M80 -60l60 60h-60v120h120v-160l-80 -80h-40v60zM140 320q-25 0 -42.5 -17.5t-17.5 -42.5t17.5 -42.5t42.5 -17.5t42.5 17.5t17.5 42.5t-17.5 42.5t-42.5 17.5z" />
    <glyph glyph-name="less" unicode="&#x3c;" horiz-adv-x="280" 
d="M80 400v-400h200l-140 200l140 200h-200z" />
    <glyph glyph-name="equal" unicode="=" 
d="M80 320v-80h300v80h-300zM80 180v-80h300v80h-300z" />
    <glyph glyph-name="greater" unicode="&#x3e;" horiz-adv-x="280" 
d="M80 400l140 -200l-140 -200h200v400h-200z" />
    <glyph glyph-name="question" unicode="?" horiz-adv-x="320" 
d="M80 400v-101q30 20 70 20q46 0 78 -26t32 -63.5t-32 -63.5t-78 -26q-40 0 -70 20v-160h80h80v100h80v300h-240zM160 0q-25 0 -42.5 -17.5t-17.5 -42.5t17.5 -42.5t42.5 -17.5t42.5 17.5t17.5 42.5t-17.5 42.5t-42.5 17.5z" />
    <glyph glyph-name="at" unicode="@" 
d="M80 360v-300h150q-62 0 -106 44t-44 106t44 106t106 44h-150zM230 360q62 0 106 -44t44 -106v150h-150zM380 210q0 -62 -44 -106t-106 -44h150v150zM140 320v-220h120l20 40v-40h40v220h-40v-40l-20 40h-120zM210 260q20 0 34.5 -14.5t14.5 -35.5t-14.5 -35.5
t-34.5 -14.5t-34.5 14.5t-14.5 35.5t14.5 35.5t34.5 14.5z" />
    <glyph glyph-name="A" unicode="A" horiz-adv-x="440" 
d="M80 400v-400h120l16 80h88l16 -80h120v400h-360zM260 300l20 -100h-40z" />
    <glyph glyph-name="B" unicode="B" horiz-adv-x="440" 
d="M80 400v-400h360v160l-40 40l40 40v160h-360zM240 340h20q21 0 35.5 -14.5t14.5 -35.5t-14.5 -35.5t-35.5 -14.5h-20v100zM240 160h20q21 0 35.5 -14.5t14.5 -35.5t-14.5 -35.5t-35.5 -14.5h-20v100z" />
    <glyph glyph-name="C" unicode="C" horiz-adv-x="440" 
d="M80 400v-400h360v138q-19 -26 -50.5 -42t-69.5 -16q-58 0 -99 35t-41 85t41 85t99 35q38 0 69.5 -16t50.5 -42v138h-360z" />
    <glyph glyph-name="D" unicode="D" horiz-adv-x="440" 
d="M80 400v-400h360v400h-360zM220 280h20q33 0 56.5 -23.5t23.5 -56.5t-23.5 -56.5t-56.5 -23.5h-20v160z" />
    <glyph glyph-name="E" unicode="E" horiz-adv-x="440" 
d="M80 400v-400h360v130q-41 -30 -100 -30h-100v60h80v80h-80v60h100q59 0 100 -30v130h-360z" />
    <glyph glyph-name="F" unicode="F" horiz-adv-x="400" 
d="M80 400v-400h160v160h80v80h-80v60h100q59 0 100 -30v130h-360z" />
    <glyph glyph-name="G" unicode="G" horiz-adv-x="440" 
d="M80 400v-400h360v40v98v62h-120v-120q-58 0 -99 35t-41 85t41 85t99 35q38 0 69.5 -16t50.5 -42v138h-360z" />
    <glyph glyph-name="H" unicode="H" horiz-adv-x="440" 
d="M80 400v-400h140v160h80v-160h140v400h-140v-160h-80v160h-140z" />
    <glyph glyph-name="I" unicode="I" horiz-adv-x="320" 
d="M80 400v-40h40v-300h-40v-60h240v60h-40v300h40v40h-240z" />
    <glyph glyph-name="J" unicode="J" horiz-adv-x="440" 
d="M80 100v-100h360v400h-180v-40h40v-240q0 -25 -17.5 -42.5t-42.5 -17.5t-42.5 17.5t-17.5 42.5q0 19 11 34.5t29 22.5v23h-140v-100z" />
    <glyph glyph-name="K" unicode="K" horiz-adv-x="440" 
d="M80 400v-400h160v40l40 -40h160v140l-60 60l60 60v140h-160l-40 -40v40h-160z" />
    <glyph glyph-name="L" unicode="L" horiz-adv-x="440" 
d="M80 400v-400h360v100v100h-80v-80h-140v240h40v40h-180z" />
    <glyph glyph-name="M" unicode="M" horiz-adv-x="440" 
d="M80 400v-400h120v100l60 -100l60 100v-100h120v400h-120l-60 -60l-60 60h-120z" />
    <glyph glyph-name="N" unicode="N" horiz-adv-x="440" 
d="M80 400v-400h140v100l40 -100h180v400h-140v-60l-40 60h-180z" />
    <glyph glyph-name="O" unicode="O" horiz-adv-x="440" 
d="M80 400v-400h360v400h-360zM260 320q50 0 85 -35t35 -85t-35 -85t-85 -35t-85 35t-35 85t35 85t85 35z" />
    <glyph glyph-name="P" unicode="P" horiz-adv-x="440" 
d="M80 400v-400h160v100h200v300h-360zM240 320h30q29 0 49.5 -20.5t20.5 -49.5t-20.5 -49.5t-49.5 -20.5h-30v140z" />
    <glyph glyph-name="Q" unicode="Q" horiz-adv-x="440" 
d="M80 400v-400h270v23l10 -23h80v80l-23 10h23v310h-360zM260 320q50 0 85 -35t35 -85q0 -46 -31 -81l-49 21l19 -44q-27 -16 -59 -16q-50 0 -85 35t-35 85t35 85t85 35z" />
    <glyph glyph-name="R" unicode="R" horiz-adv-x="440" 
d="M80 400v-400h160v160h40v-160h160v160l-40 40l40 40v160h-360zM240 340h20q21 0 35.5 -14.5t14.5 -35.5t-14.5 -35.5t-35.5 -14.5h-20v100z" />
    <glyph glyph-name="S" unicode="S" horiz-adv-x="440" 
d="M80 120v-120h360v180l-100 100q0 8 6 14t14 6t14 -6t6 -14h60v120h-360v-180l100 -100q0 -8 -6 -14t-14 -6t-14 6t-6 14h-60z" />
    <glyph glyph-name="T" unicode="T" horiz-adv-x="440" 
d="M80 400v-40v-80h100v-280h160v280h100v120h-360z" />
    <glyph glyph-name="U" unicode="U" horiz-adv-x="440" 
d="M80 400v-400h360v400h-140v-200q0 -17 -11.5 -28.5t-28.5 -11.5t-28.5 11.5t-11.5 28.5v200h-140z" />
    <glyph glyph-name="V" unicode="V" horiz-adv-x="440" 
d="M80 400v-400h360v400h-120l-60 -240l-60 240h-120z" />
    <glyph glyph-name="W" unicode="W" horiz-adv-x="440" 
d="M80 400v-400h120l60 100l60 -100h120v400h-120v-100l-60 60l-60 -60v100h-120z" />
    <glyph glyph-name="X" unicode="X" horiz-adv-x="440" 
d="M80 140v-140h140l40 40l40 -40h140v140l-60 60l60 60v140h-140l-40 -40l-40 40h-140v-140l60 -60z" />
    <glyph glyph-name="Y" unicode="Y" horiz-adv-x="440" 
d="M80 400v-40v-60l80 -100v-200h200v200l80 100v100h-140l-40 -40l-40 40h-140z" />
    <glyph glyph-name="Z" unicode="Z" horiz-adv-x="440" 
d="M80 400v-120h100l-100 -100v-180h360v120h-100l100 100v180h-360z" />
    <glyph glyph-name="bracketleft" unicode="[" horiz-adv-x="280" 
d="M80 520v-640h200v40h-80v560h80v40h-200z" />
    <glyph glyph-name="backslash" unicode="\" 
d="M80 400v-140l160 -260h140v140l-160 260h-140z" />
    <glyph glyph-name="bracketright" unicode="]" horiz-adv-x="280" 
d="M80 520v-40h80v-560h-80v-40h200v640h-200z" />
    <glyph glyph-name="asciicircum" unicode="^" horiz-adv-x="200" 
d="M80 520v-160l60 100l60 -100v160h-120z" />
    <glyph glyph-name="underscore" unicode="_" 
d="M80 -40v-80h300v80h-300z" />
    <glyph glyph-name="grave" unicode="`" horiz-adv-x="200" 
d="M80 520v-120l40 -40h80v120l-40 40h-80z" />
    <glyph glyph-name="a" unicode="a" 
d="M80 400v-112q28 12 60 12q57 0 98 -34.5t42 -82.5q-1 41 -36 70t-84 29q-46 0 -80 -26v-256h160l40 40v-40h100v400h-300zM180 200q25 0 42.5 -17.5t17.5 -42.5t-17.5 -42.5t-42.5 -17.5t-42.5 17.5t-17.5 42.5t17.5 42.5t42.5 17.5z" />
    <glyph glyph-name="b" unicode="b" 
d="M80 520v-520h300v400h-180v120h-120zM200 280q33 0 56.5 -23.5t23.5 -56.5t-23.5 -56.5t-56.5 -23.5v160z" />
    <glyph glyph-name="c" unicode="c" 
d="M80 400v-400h300v134q-16 -25 -42.5 -39.5t-57.5 -14.5q-50 0 -85 35t-35 85t35 85t85 35q31 0 57.5 -14.5t42.5 -39.5v134h-300z" />
    <glyph glyph-name="d" unicode="d" 
d="M260 520v-120h-180v-400h300v520h-120zM260 280v-160q-33 0 -56.5 23.5t-23.5 56.5t23.5 56.5t56.5 23.5z" />
    <glyph glyph-name="e" unicode="e" 
d="M80 400v-400h300v100h-80l80 80v220h-300zM220 320q25 0 42.5 -17.5t17.5 -42.5t-17.5 -42.5t-42.5 -17.5v120z" />
    <glyph glyph-name="f" unicode="f" horiz-adv-x="220" 
d="M80 520v-520h120v360h40v40h-40v60h40v60h-160z" />
    <glyph glyph-name="g" unicode="g" 
d="M80 400v-400h180v-60h-180v-60h300v520h-300zM260 280v-160q-33 0 -56.5 23.5t-23.5 56.5t23.5 56.5t56.5 23.5z" />
    <glyph glyph-name="h" unicode="h" 
d="M80 520v-520h120v300h60v-300h120v400h-180v120h-120z" />
    <glyph glyph-name="i" unicode="i" horiz-adv-x="200" 
d="M140 520q-25 0 -42.5 -17.5t-17.5 -42.5t17.5 -42.5t42.5 -17.5t42.5 17.5t17.5 42.5t-17.5 42.5t-42.5 17.5zM140 400h-60v-400h120v400h-60z" />
    <glyph glyph-name="j" unicode="j" horiz-adv-x="240" 
d="M180 520q-25 0 -42.5 -17.5t-17.5 -42.5t17.5 -42.5t42.5 -17.5t42.5 17.5t17.5 42.5t-17.5 42.5t-42.5 17.5zM180 400h-60v-400h-80v-120h80h60h60v520h-60z" />
    <glyph glyph-name="k" unicode="k" 
d="M80 520v-520h100v40l40 -40h160v140l-60 60l60 60v140h-140l-40 -40v160h-120z" />
    <glyph glyph-name="l" unicode="l" horiz-adv-x="220" 
d="M80 520v-520h160v40h-40v480h-120z" />
    <glyph glyph-name="m" unicode="m" horiz-adv-x="440" 
d="M80 400v-400h100v280l40 40v-320h80v280l40 40v-320h100v400h-100l-40 -40v40h-80l-40 -40v40h-100z" />
    <glyph glyph-name="n" unicode="n" 
d="M80 400v-400h120v260l60 60v-320h120v400h-140l-40 -40v40h-120z" />
    <glyph glyph-name="o" unicode="o" 
d="M80 400v-400h300v400h-300zM230 320q37 0 63.5 -32t26.5 -78t-26.5 -78t-63.5 -32t-63.5 32t-26.5 78t26.5 78t63.5 32z" />
    <glyph glyph-name="p" unicode="p" 
d="M80 400v-520h120v120h180v400h-300zM200 280q33 0 56.5 -23.5t23.5 -56.5t-23.5 -56.5t-56.5 -23.5v160z" />
    <glyph glyph-name="q" unicode="q" 
d="M80 400v-400h180v-120h120v520h-300zM260 280v-160q-33 0 -56.5 23.5t-23.5 56.5t23.5 56.5t56.5 23.5z" />
    <glyph glyph-name="r" unicode="r" horiz-adv-x="340" 
d="M80 400v-400h180v60h-60v200l60 60v-40h120v120h-140l-40 -40v40h-120z" />
    <glyph glyph-name="s" unicode="s" 
d="M80 120v-120h300v180l-100 100h100v120h-300v-180l100 -100h-100z" />
    <glyph glyph-name="t" unicode="t" horiz-adv-x="220" 
d="M80 520v-520h80h40h40v60h-40v300h40v40h-40v120h-120z" />
    <glyph glyph-name="u" unicode="u" 
d="M80 400v-400h300v400h-120v-270q0 -12 -9 -21t-21 -9t-21 9t-9 21v270h-120z" />
    <glyph glyph-name="v" unicode="v" 
d="M80 400v-400h300v400h-100l-50 -300l-50 300h-100z" />
    <glyph glyph-name="w" unicode="w" horiz-adv-x="440" 
d="M80 400v-400h140l40 100l40 -100h140v400h-80l-40 -80l-40 80h-40l-40 -80l-40 80h-80z" />
    <glyph glyph-name="x" unicode="x" 
d="M80 400v-140l60 -60l-60 -60v-140h100l50 60l50 -60h100v140l-60 60l60 60v140h-100l-50 -60l-50 60h-100z" />
    <glyph glyph-name="y" unicode="y" 
d="M80 400v-400h180v-120h120v520h-120v-320l-60 60v260h-120z" />
    <glyph glyph-name="z" unicode="z" 
d="M80 400v-120h100l-100 -100v-180h300v120h-100l100 100v180h-300z" />
    <glyph glyph-name="braceleft" unicode="{" horiz-adv-x="280" 
d="M80 520v-640h200v40q-25 0 -42.5 17.5t-17.5 42.5v180l-40 40l40 40v180q0 25 17.5 42.5t42.5 17.5v40h-200z" />
    <glyph glyph-name="bar" unicode="|" horiz-adv-x="200" 
d="M80 520v-640h120v640h-120z" />
    <glyph glyph-name="braceright" unicode="}" horiz-adv-x="280" 
d="M80 520v-40q25 0 42.5 -17.5t17.5 -42.5v-180l40 -40l-40 -40v-180q0 -25 -17.5 -42.5t-42.5 -17.5v-40h200v640h-200z" />
    <glyph glyph-name="asciitilde" unicode="~" 
d="M80 260v-100q30 30 71 30t78.5 -30t71.5 -30t79 30v100h-300z" />
    <glyph glyph-name="copyright" unicode="&#xa9;" 
d="M80 360v-300h150q-62 0 -106 44t-44 106t44 106t106 44h-150zM230 360q62 0 106 -44t44 -106v150h-150zM380 210q0 -62 -44 -106t-106 -44h150v150zM140 320v-220h180v61q-20 -21 -50 -21q-28 0 -48.5 20.5t-20.5 50t20.5 50t48.5 20.5q30 0 50 -21v60h-180z" />
    <glyph glyph-name="registered" unicode="&#xae;" 
d="M80 360v-300h150q-62 0 -106 44t-44 106t44 106t106 44h-150zM230 360q62 0 106 -44t44 -106v150h-150zM380 210q0 -62 -44 -106t-106 -44h150v150zM140 320v-220h100v40l20 -40h20h40v60l-40 20l40 20v120h-180zM200 280h35q14 0 24.5 -10.5t10.5 -24.5t-10.5 -24.5
t-24.5 -10.5h-35v70z" />
    <glyph glyph-name="kokaithai" unicode="&#xe01;" 
d="M80 400v-120q7 3 20 10t20 10q-40 -40 -40 -100v-200h120v260l60 60v-320h120v400h-300z" />
    <glyph glyph-name="khokhaithai" unicode="&#xe02;" horiz-adv-x="320" 
d="M120 400q-41 0 -70.5 -29.5t-29.5 -70.5t29.5 -70.5t70.5 -29.5q10 0 20 2v-142h-40v-60h220v400h-120v-11q40 -35 40 -89v-180h-20v180q0 38 -31 69t-69 31zM120 330q12 0 21 -9t9 -21t-9 -21t-21 -9t-21 9t-9 21t9 21t21 9z" />
    <glyph glyph-name="khokhuatthai" unicode="&#xe03;" horiz-adv-x="340" 
d="M90 400q-29 0 -49.5 -29.5t-20.5 -70.5t20.5 -70.5t49.5 -29.5q27 0 46.5 24.5t23.5 60.5v-225h-40v-60h220v400h-120q40 -36 40 -100v-180h-20v180q0 41 -20.5 70.5t-49.5 29.5q-21 0 -39 -18q-19 18 -41 18zM90.5 310q12.5 0 21.5 -9t9 -21t-9 -21t-21.5 -9t-21 9
t-8.5 21t8.5 21t21 9z" />
    <glyph glyph-name="khokhwaithai" unicode="&#xe04;" 
d="M80 400v-400h100l40 120q33 0 56.5 23.5t23.5 56.5t-23.5 56.5t-56.5 23.5q-32 0 -55 -22q25 27 60 27t60 -27t25 -66q0 -26 -13 -48.5t-35 -34.5q-1 0 -2 -1v-108h120v400h-300zM220 230q12 0 21 -9t9 -21t-9 -21t-21 -9t-21 9t-9 21t9 21t21 9z" />
    <glyph glyph-name="khokhonthai" unicode="&#xe05;" 
d="M80 400v-400h100l40 120q33 0 56.5 23.5t23.5 56.5t-23.5 56.5t-56.5 23.5q-32 0 -55 -22q25 27 60 27t60 -27t25 -66q0 -26 -13 -48.5t-35 -34.5q-1 0 -2 -1v-108h120v400h-75h-38l-37 -40l-38 40h-37h-75zM220 230q12 0 21 -9t9 -21t-9 -21t-21 -9t-21 9t-9 21t9 21
t21 9z" />
    <glyph glyph-name="khorakhangthai" unicode="&#xe06;" horiz-adv-x="420" 
d="M130 400q-29 0 -49.5 -29.5t-20.5 -70.5q0 -46 25 -76q34 26 77 26q39 0 71 -21t47 -56v127q0 41 -20.5 70.5t-49.5 29.5q-21 0 -39 -18q-19 18 -41 18zM300 400v-300l-23 53q-11 38 -43 63.5t-73 25.5q-40 0 -71 -24q-50 -36 -50 -98q0 -50 35 -85t85 -35q62 0 98 50
l22 -50h140v400h-120zM130 320q12 0 21 -9t9 -21t-9 -21t-21 -9t-21 9t-9 21t9 21t21 9zM160 150q12 0 21 -9t9 -21t-9 -21t-21 -9t-21 9t-9 21t9 21t21 9z" />
    <glyph glyph-name="ngonguthai" unicode="&#xe07;" horiz-adv-x="340" 
d="M240 400q-41 0 -70.5 -29.5t-29.5 -70.5q0 -36 22.5 -63.5t57.5 -34.5v-2v-100h-60v100h-120v-200h180h120v300v100h-100zM240 330q12 0 21 -9t9 -21t-9 -21t-21 -9t-21 9t-9 21t9 21t21 9z" />
    <glyph glyph-name="chochanthai" unicode="&#xe08;" horiz-adv-x="340" 
d="M40 400v-116q38 36 90 36q40 0 74 -23q-12 3 -24 3q-41 0 -70.5 -29.5t-29.5 -70.5t29.5 -70.5t70.5 -29.5q33 0 59 19q-28 -44 -79 -56v-63h180v400h-300zM180 230q12 0 21 -9t9 -21t-9 -21t-21 -9t-21 9t-9 21t9 21t21 9z" />
    <glyph glyph-name="chochingthai" unicode="&#xe09;" 
d="M60 400v-118q39 38 95 38q48 0 85 -29q45 -36 50 -92q-44 -4 -70 -39v10.5v10.5q0 33 -23.5 56.5t-56.5 23.5t-56.5 -23.5t-23.5 -56.5q0 -28 17 -49.5t43 -27.5v-104h100l7 32q30 -32 73 -32q41 0 70.5 29.5t29.5 70.5q0 50 -40 80v220h-300zM138 215q13 0 22.5 -9.5
t9.5 -22.5t-9.5 -22.5t-22.5 -9.5t-22.5 9.5t-9.5 22.5t9.5 22.5t22.5 9.5zM300 130q12 0 21 -9t9 -21t-9 -21t-21 -9t-21 9t-9 21t9 21t21 9z" />
    <glyph glyph-name="chochangthai" unicode="&#xe0a;" horiz-adv-x="320" 
d="M240 520q15 -30 2.5 -67.5t-42.5 -52.5v-11q40 -35 40 -89v-180h-20v180q0 38 -31 69t-69 31q-41 0 -70.5 -29.5t-29.5 -70.5t29.5 -70.5t70.5 -29.5q10 0 20 2v-142h-40v-60h220v400h-60q14 30 5 75t-25 45zM120 330q12 0 21 -9t9 -21t-9 -21t-21 -9t-21 9t-9 21t9 21
t21 9z" />
    <glyph glyph-name="sosothai" unicode="&#xe0b;" horiz-adv-x="340" 
d="M260 520q15 -30 2.5 -67.5t-42.5 -52.5q40 -36 40 -100v-180h-20v180q0 41 -20.5 70.5t-49.5 29.5q-21 0 -39 -18q-19 18 -41 18q-29 0 -49.5 -29.5t-20.5 -70.5t20.5 -70.5t49.5 -29.5q27 0 46.5 24.5t23.5 60.5v-225h-40v-60h220v400h-60q14 30 5 75t-25 45zM90.5 310
q12.5 0 21.5 -9t9 -21t-9 -21t-21.5 -9t-21 9t-8.5 21t8.5 21t21 9z" />
    <glyph glyph-name="chochoethai" unicode="&#xe0c;" horiz-adv-x="520" 
d="M160 110q12 0 21 -9t9 -21t-9 -21t-21 -9t-21 9t-9 21t9 21t21 9zM280 130q12 0 21 -9t9 -21t-9 -21t-21 -9t-21 9t-9 21t9 21t21 9zM400 400v-300l-34 51q-13 22 -36 35.5t-50 13.5q-10 0 -20 -2q-37 -7 -60 -38v1v119l60 40v-112q10 2 20 2q33 0 60 -18t40 -47v255
h-300v-120q7 3 20 10t20 10q-40 -40 -40 -100v-12v-188h80q32 0 56 25.5t24 54.5q0 46 -40 69v11q23 -11 36.5 -32.5t13.5 -47.5q0 -37 -26 -63q28 -17 56 -17q46 0 76 35l24 -35h140v400h-120z" />
    <glyph glyph-name="yoyingthai" unicode="&#xe0d;" horiz-adv-x="520" 
d="M180 130q12 0 21 -9t9 -21t-9 -21t-21 -9t-21 9t-9 21t9 21t21 9zM80 200v-9v-191h100q41 0 70 28.5t30 71.5q1 35 -23 64q-23 27 -57 34v10v72l60 40v-145q30 -31 30 -75q0 -19 -6 -37q25 16 52 11q26 -5 43 -28.5t6 -49.5q-5 -12 -16.5 -15.5t-21.5 9.5q13 -10 23 -1.5
t9 21.5q-1 29 -26.5 43.5t-49 6t-33.5 -22.5t-10 -37q0 -41 38 -70.5t92 -29.5t92 29.5t38 70.5v5v395h-120v-280h-20v280h-300v-120q7 3 20 10t20 10q-40 -40 -40 -100z" />
    <glyph glyph-name="dochadathai" unicode="&#xe0e;" 
d="M120 400v-120q7 3 20 10t20 10q-40 -40 -40 -100q-41 0 -70.5 -29.5t-29.5 -70.5t29.5 -70.5t70.5 -29.5t70.5 29.5t29.5 70.5v180l60 40v-320l-70 20l-90 -40v-100l90 40l70 -40h100v120v400h-260zM120 130q12 0 21 -9t9 -21t-9 -21t-21 -9t-21 9t-9 21t9 21t21 9z" />
    <glyph glyph-name="topatakthai" unicode="&#xe0f;" 
d="M120 400v-120q7 3 20 10t20 10q-40 -40 -40 -100q-41 0 -70.5 -29.5t-29.5 -70.5t29.5 -70.5t70.5 -29.5t70.5 29.5t29.5 70.5v180l60 40v-320l-30 20l-30 -20l-30 10l-70 -30v-100l70 40l30 -40l30 60l30 -60h100v120v400h-260zM120 130q12 0 21 -9t9 -21t-9 -21t-21 -9
t-21 9t-9 21t9 21t21 9z" />
    <glyph glyph-name="thothanthai" unicode="&#xe10;" 
d="M80 400v-153q38 33 90 33q43 0 78 -24q-14 4 -28 4q-41 0 -70.5 -29.5t-29.5 -70.5t29.5 -70.5t70.5 -29.5q21 0 40 8v-68l-50 20l-30 -20l-30 10l-70 -30v-100l70 40l30 -40l30 60l50 -60h120v120v280q-15 15 -58.5 33.5t-81.5 26.5q-55 11 -100 0q50 19 100 20
q19 1 53 -9t52.5 -14.5t34.5 3.5v60h-300zM220 190q12 0 21 -9t9 -21t-9 -21t-21 -9t-21 9t-9 21t9 21t21 9z" />
    <glyph glyph-name="thonangmonthothai" unicode="&#xe11;" 
d="M90 400q-29 0 -49.5 -29.5t-20.5 -70.5t20.5 -70.5t49.5 -29.5q16 0 30 9v-209h120v280l20 40v-320h120v400h-120l-27 -55q-9 25 -26 40t-37 15q-21 0 -39 -18q-19 18 -41 18zM90.5 310q12.5 0 21.5 -9t9 -21t-9 -21t-21.5 -9t-21 9t-8.5 21t8.5 21t21 9z" />
    <glyph glyph-name="thophuthaothai" unicode="&#xe12;" horiz-adv-x="520" 
d="M80 400v-300v-100h100l105 145q15 21 15 55q0 33 -23.5 56.5t-56.5 23.5t-56.5 -23.5t-23.5 -56.5q0 -32 22 -55q-27 25 -27 60t27 60t66 25q26 0 48.5 -13t34.5 -35q8 -17 9 -39q41 -17 60 -57v254h-75h-38l-37 -30l-38 30h-37h-75zM258 80h-1l-41 -57q28 -23 64 -23
q46 0 76 35l24 -35h20h120v400h-120v-300q-5 8 -16.5 25t-17.5 26q-20 30 -46 41q-2 -28 -20 -52l-9 -12q18 -7 19 -28q2 -23 -21 -29q-15 -4 -31 9zM220 230q12 0 21 -9t9 -21t-9 -21t-21 -9t-21 9t-9 21t9 21t21 9z" />
    <glyph glyph-name="nonenthai" unicode="&#xe13;" horiz-adv-x="500" 
d="M180 130q12 0 21 -9t9 -21t-9 -21t-21 -9t-21 9t-9 21t9 21t21 9zM400 150q12 0 21 -9t9 -21t-9 -21t-21 -9t-21 9t-9 21t9 21t21 9zM360 400v-156q20 6 40 6q45 0 80 -27v177h-120zM80 200v-9v-191h100q39 0 69 32t31 68q0 38 -24.5 64.5t-55.5 33.5v10v92l20 20v-118
q31 -12 50.5 -39.5t19.5 -62.5q0 -33 -17.5 -60t-46.5 -40h114l3 14q27 -14 57 -14q50 0 85 35t35 85q0 49 -35.5 84.5t-84.5 35.5q-20 0 -40 -7q-10 -3 -20 -9v11v165h-260v-120q7 3 20 10t20 10q-40 -40 -40 -100z" />
    <glyph glyph-name="dodekthai" unicode="&#xe14;" 
d="M80 400v-400h100l105 145q15 21 15 55q0 33 -23.5 56.5t-56.5 23.5t-56.5 -23.5t-23.5 -56.5q0 -32 22 -55q-27 25 -27 60t27 60t66 25q26 0 48.5 -13t34.5 -35q8 -18 9 -42q0 -16 -15 -62l-45 -138h120v400h-300zM220 230q12 0 21 -9t9 -21t-9 -21t-21 -9t-21 9t-9 21
t9 21t21 9z" />
    <glyph glyph-name="totaothai" unicode="&#xe15;" 
d="M80 400v-400h100l105 145q15 21 15 55q0 33 -23.5 56.5t-56.5 23.5t-56.5 -23.5t-23.5 -56.5q0 -32 22 -55q-27 25 -27 60t27 60t66 25q26 0 48.5 -13t34.5 -35q8 -18 9 -42q0 -16 -15 -62l-45 -138h120v400h-75h-38l-37 -40l-38 40h-37h-75zM220 230q12 0 21 -9t9 -21
t-9 -21t-21 -9t-21 9t-9 21t9 21t21 9z" />
    <glyph glyph-name="thothungthai" unicode="&#xe16;" 
d="M180 130q11 0 20.5 -9t9.5 -21t-9 -21t-21 -9q-13 0 -21.5 8.5t-8.5 21.5q0 12 9.5 21t20.5 9zM80 200v-14v-186h100q39 0 69 32t31 68q-4 50 -35 76q-20 17 -45 22v10v72l60 40v-145q30 -31 30 -75t-30 -76v-24h120v400h-300v-120q7 3 20 10t20 10q-40 -40 -40 -100z
" />
    <glyph glyph-name="thothahanthai" unicode="&#xe17;" 
d="M120 400q-41 0 -70.5 -29.5t-29.5 -70.5t29.5 -70.5t70.5 -29.5v-200h120v280l20 40v-320h120v400h-120l-20 -20v20h-120zM120 330q12 0 21 -9t9 -21t-9 -21t-21 -9t-21 9t-9 21t9 21t21 9z" />
    <glyph glyph-name="thothongthai" unicode="&#xe18;" horiz-adv-x="360" 
d="M60 400v-153q38 33 90 33t90 -33v-147h-60v120h-120v-118v-102h300v260v20q-15 15 -58.5 33.5t-81.5 26.5q-55 11 -100 0q50 19 100 20q19 1 53 -9t52.5 -14.5t34.5 3.5v60h-300z" />
    <glyph glyph-name="nonuthai" unicode="&#xe19;" horiz-adv-x="400" 
d="M120 400q-41 0 -70.5 -29.5t-29.5 -70.5t29.5 -70.5t70.5 -29.5v-200h120l3 14q27 -14 57 -14q50 0 85 35t35 85q0 49 -35 84t-85 36q-32 0 -60 -16v11v165h-120zM260 400v-156q20 6 40 6q45 0 80 -27v177h-120zM120 330q12 0 21 -9t9 -21t-9 -21t-21 -9t-21 9t-9 21
t9 21t21 9zM300 150q12 0 21 -9t9 -21t-9 -21t-21 -9t-21 9t-9 21t9 21t21 9z" />
    <glyph glyph-name="bobaimaithai" unicode="&#xe1a;" horiz-adv-x="420" 
d="M120 400q-41 0 -70.5 -29.5t-29.5 -70.5t29.5 -70.5t70.5 -29.5v-200h300v400h-120v-280h-60v280h-120zM120 330q12 0 21 -9t9 -21t-9 -21t-21 -9t-21 9t-9 21t9 21t21 9z" />
    <glyph glyph-name="poplathai" unicode="&#xe1b;" horiz-adv-x="420" 
d="M300 520v-400h-60v280h-120q-41 0 -70.5 -29.5t-29.5 -70.5t29.5 -70.5t70.5 -29.5v-200h300v520h-120zM120 330q12 0 21 -9t9 -21t-9 -21t-21 -9t-21 9t-9 21t9 21t21 9z" />
    <glyph glyph-name="phophungthai" unicode="&#xe1c;" 
d="M80 400v-400h120l30 60l30 -60h120v400h-120v-56q9 -21 9 -44t-9 -44v-96l-30 40l-30 -40v48q27 12 43.5 37t16.5 55q0 28 -15 52q-13 23 -36 35.5t-49 12.5h-80zM160 330q12 0 21 -9t9 -21t-9 -21t-21 -9t-21 9t-9 21t9 21t21 9z" />
    <glyph glyph-name="fofathai" unicode="&#xe1d;" 
d="M260 520v-176q9 -21 9 -44t-9 -44v-96l-30 40l-30 -40v48q27 12 43.5 37t16.5 55q0 28 -15 52q-13 23 -36 35.5t-49 12.5h-80v-400h120l30 60l30 -60h120v520h-120zM160 330q12 0 21 -9t9 -21t-9 -21t-21 -9t-21 9t-9 21t9 21t21 9z" />
    <glyph glyph-name="phophanthai" unicode="&#xe1e;" horiz-adv-x="420" 
d="M120 400q-41 0 -70.5 -29.5t-29.5 -70.5t29.5 -70.5t70.5 -29.5v-200h120l30 60l30 -60h120v400h-120v-40l-30 40l-30 -40v40h-120zM120 330q12 0 21 -9t9 -21t-9 -21t-21 -9t-21 9t-9 21t9 21t21 9z" />
    <glyph glyph-name="fofanthai" unicode="&#xe1f;" horiz-adv-x="420" 
d="M300 520v-160l-30 40l-30 -40v40h-120q-41 0 -70.5 -29.5t-29.5 -70.5t29.5 -70.5t70.5 -29.5v-200h120l30 60l30 -60h120v520h-120zM120 330q12 0 21 -9t9 -21t-9 -21t-21 -9t-21 9t-9 21t9 21t21 9z" />
    <glyph glyph-name="phosamphaothai" unicode="&#xe20;" 
d="M120 400v-120q7 3 20 10t20 10q-40 -40 -40 -100q-41 0 -70.5 -29.5t-29.5 -70.5t29.5 -70.5t70.5 -29.5t70.5 29.5t29.5 70.5v180l60 40v-320h100v400h-260zM120 130q12 0 21 -9t9 -21t-9 -21t-21 -9t-21 9t-9 21t9 21t21 9z" />
    <glyph glyph-name="momathai" unicode="&#xe21;" horiz-adv-x="420" 
d="M160 400q-41 0 -70.5 -29.5t-29.5 -70.5q0 -43 31 -73q32 21 71 21t71 -21.5t47 -56.5v230h-120zM300 400v-300l-28 64q-30 76 -112 76q-46 0 -83 -36t-37 -84q0 -49 35 -84.5t85 -35.5q33 0 58 15t40 35l22 -50h140v400h-120zM160 330q12 0 21 -9t9 -21t-9 -21t-21 -9
t-21 9t-9 21t9 21t21 9zM160 150q12 0 21 -9t9 -21t-9 -21t-21 -9t-21 9t-9 21t9 21t21 9z" />
    <glyph glyph-name="yoyakthai" unicode="&#xe22;" 
d="M80 400v-400h300v400h-120v-56q9 -21 9 -44t-9 -44v-36v-120h-60v40q60 60 60 80q-8 -8 -26.5 -14t-33.5 -6h-40q63 3 89 54q12 24 11 46q-2 46 -33 74q-28 26 -67 26h-80zM160 330q12 0 21 -9t9 -21t-9 -21t-21 -9t-21 9t-9 21t9 21t21 9z" />
    <glyph glyph-name="roruathai" unicode="&#xe23;" horiz-adv-x="340" 
d="M40 400v-153q38 33 90 33q42 0 76 -22.5t47 -58.5q-7 1 -13 1q-41 0 -70.5 -29.5t-29.5 -70.5t29.5 -70.5t70.5 -29.5h100v100v180q-15 15 -58.5 33.5t-81.5 26.5q-55 11 -100 0q50 19 100 20q19 1 53 -9t52.5 -14.5t34.5 3.5v60h-300zM240 130q12 0 21 -9t9 -21t-9 -21
t-21 -9t-21 9t-9 21t9 21t21 9z" />
    <glyph glyph-name="ruthai" unicode="&#xe24;" 
d="M180 130q-11 0 -20.5 -9t-9.5 -21q0 -13 8.5 -21.5t21.5 -8.5q12 0 21 9t9 21t-9.5 21t-20.5 9zM80 280v120h300v-520h-120v144q30 32 30 76t-30 75v145l-60 -40v-72v-10q25 -5 45 -22q31 -26 35 -76q-1 -36 -31 -68t-69 -32h-100v100v100q0 60 40 100q-7 -3 -20 -10
t-20 -10z" />
    <glyph glyph-name="lolingthai" unicode="&#xe25;" 
d="M80 400v-112q28 12 60 12q57 0 98 -34.5t42 -82.5q-1 41 -36 70t-84 29q-46 0 -80 -26v-256h85q37 2 64 27.5t31 62.5v10q0 36 -22.5 63.5t-57.5 34.5q40 -6 68 -36.5t32 -71.5v-10q0 -46 -31 -80h131v400h-300zM160 130q12 0 21 -9t9 -21t-9 -21t-21 -9t-21 9t-9 21
t9 21t21 9z" />
    <glyph glyph-name="luthai" unicode="&#xe26;" 
d="M120 400v-120q7 3 20 10t20 10q-40 -40 -40 -100q-41 0 -70.5 -29.5t-29.5 -70.5t29.5 -70.5t70.5 -29.5t70.5 29.5t29.5 70.5v180l60 40v-440h100v520h-260zM120 130q12 0 21 -9t9 -21t-9 -21t-21 -9t-21 9t-9 21t9 21t21 9z" />
    <glyph glyph-name="wowaenthai" unicode="&#xe27;" horiz-adv-x="340" 
d="M40 400v-119q32 19 70 19q48 0 84 -28.5t44 -71.5q-41 -1 -69.5 -30t-28.5 -70t29.5 -70.5t70.5 -29.5h100v400h-300zM240 130q12 0 21 -9t9 -21t-9 -21t-21 -9t-21 9t-9 21t9 21t21 9z" />
    <glyph glyph-name="sosalathai" unicode="&#xe28;" 
d="M300 520q15 -30 2.5 -67.5t-42.5 -52.5h-180v-400h100l40 120q33 0 56.5 23.5t23.5 56.5t-23.5 56.5t-56.5 23.5q-32 0 -55 -22q25 27 60 27t60 -27t25 -66q0 -26 -13 -48.5t-35 -34.5q-1 0 -2 -1v-108h120v400h-60q14 30 5 75t-25 45zM220 230q12 0 21 -9t9 -21t-9 -21
t-21 -9t-21 9t-9 21t9 21t21 9z" />
    <glyph glyph-name="sorusithai" unicode="&#xe29;" 
d="M120 400q-41 0 -70.5 -29.5t-29.5 -70.5t29.5 -70.5t70.5 -29.5v-200h260v150q-27 -30 -70 -30q-37 0 -63.5 23.5t-26.5 56.5q0 28 20 50v150h-120zM260 400v-135q11 5 23 6q6 0 11 -1q21 -5 35.5 -26.5t5.5 -44.5q-3 -7 -10.5 -13.5t-19.5 -6t-22 14.5q20 -14 33.5 -3.5
t13.5 24.5q-1 26 -22 37.5t-41 4.5q-8 -3 -17 -11q-20 -19 -20 -46q0 -29 25 -49.5t60 -20.5q47 0 70 30q15 20 15 50q0 32 -20 57v33v100h-120zM120 330q12 0 21 -9t9 -21t-9 -21t-21 -9t-21 9t-9 21t9 21t21 9z" />
    <glyph glyph-name="sosuathai" unicode="&#xe2a;" 
d="M300 520q15 -30 2.5 -67.5t-42.5 -52.5h-180v-112q28 12 60 12q57 0 98 -34.5t42 -82.5q-1 41 -36 70t-84 29q-46 0 -80 -26v-256h85q37 2 64 27.5t31 62.5v10q0 36 -22.5 63.5t-57.5 34.5q40 -6 68 -36.5t32 -71.5v-10q0 -46 -31 -80h131v400h-60q14 30 5 75t-25 45z
M160 130q12 0 21 -9t9 -21t-9 -21t-21 -9t-21 9t-9 21t9 21t21 9z" />
    <glyph glyph-name="hohipthai" unicode="&#xe2b;" 
d="M120 400q-41 0 -70.5 -29.5t-29.5 -70.5t29.5 -70.5t70.5 -29.5v-200h120v140l20 40v-180h120v260h-7q27 24 27 60q0 33 -23.5 56.5t-56.5 23.5t-56.5 -23.5t-23.5 -56.5q0 -36 27 -60h-7l-20 -20v20v60v80h-120zM320 350q12 0 21 -9t9 -21t-9 -21t-21 -9t-21 9t-9 21
t9 21t21 9zM120 330q12 0 21 -9t9 -21t-9 -21t-21 -9t-21 9t-9 21t9 21t21 9z" />
    <glyph glyph-name="lochulathai" unicode="&#xe2c;" horiz-adv-x="420" 
d="M340 520q15 -30 2.5 -67.5t-42.5 -52.5l-40 -20l40 -60v-60l-30 40l-30 -40v140h-120q-41 0 -70.5 -29.5t-29.5 -70.5t29.5 -70.5t70.5 -29.5v-200h120l30 60l30 -60h120v400h-60q14 30 5 75t-25 45zM120 330q12 0 21 -9t9 -21t-9 -21t-21 -9t-21 9t-9 21t9 21t21 9z" />
    <glyph glyph-name="oangthai" unicode="&#xe2d;" 
d="M80 400v-122q36 22 80 22q58 0 99 -35t41 -85q0 -45 -34.5 -79t-85.5 -40v21q35 7 57.5 34.5t22.5 63.5q0 41 -29.5 70.5t-70.5 29.5q-50 0 -80 -40v-130v-110h100h200v400h-300zM160 210q12 0 21 -9t9 -21t-9 -21t-21 -9t-21 9t-9 21t9 21t21 9z" />
    <glyph glyph-name="honokhukthai" unicode="&#xe2e;" 
d="M300 520q15 -30 2.5 -67.5t-42.5 -52.5h-180v-122q36 22 80 22q58 0 99 -35t41 -85q0 -45 -34.5 -79t-85.5 -40v21q35 7 57.5 34.5t22.5 63.5q0 41 -29.5 70.5t-70.5 29.5q-50 0 -80 -40v-130v-110h100h200v400h-60q14 30 5 75t-25 45zM160 210q12 0 21 -9t9 -21t-9 -21
t-21 -9t-21 9t-9 21t9 21t21 9z" />
    <glyph glyph-name="paiyannoithai" unicode="&#xe2f;" horiz-adv-x="300" 
d="M120 400q-41 0 -70.5 -29.5t-29.5 -70.5t29.5 -70.5t70.5 -29.5q33 0 60 20v-120h-60v-100h180v400h-100l-13 -26q-28 26 -67 26zM120 330q12 0 21 -9t9 -21t-9 -21t-21 -9t-21 9t-9 21t9 21t21 9z" />
    <glyph glyph-name="saraathai" unicode="&#xe30;" horiz-adv-x="340" 
d="M80 400v-160h260v70h-170q20 15 20 40q0 21 -14.5 35.5t-35.5 14.5h-60zM140 370q8 0 14 -6t6 -14t-6 -14t-14 -6t-14 6t-6 14t6 14t14 6zM80 200v-160h260v70h-170q20 15 20 40q0 21 -14.5 35.5t-35.5 14.5h-60zM140 170q8 0 14 -6t6 -14t-6 -14t-14 -6t-14 6t-6 14
t6 14t14 6z" />
    <glyph glyph-name="maihanakatthai" unicode="&#xe31;" horiz-adv-x="0" 
d="M-300 620h70q25 0 42.5 -17.5t17.5 -42.5q0 -23 -15 -40h185v-80h-300v180zM-230 584q-10 0 -17 -7t-7 -17t7 -17t17 -7t17 7t7 17t-7 17t-17 7z" />
    <glyph glyph-name="saraaathai" unicode="&#xe32;" horiz-adv-x="280" 
d="M40 400v-133q30 33 65 33t65 -33v-267h110v400h-240z" />
    <glyph glyph-name="saraamthai" unicode="&#xe33;" 
d="M-120 560v-120h120v120h-120zM-60 540q17 0 28.5 -11.5t11.5 -28.5t-11.5 -28.5t-28.5 -11.5t-28.5 11.5t-11.5 28.5t11.5 28.5t28.5 11.5zM80 400v-133q38 33 90 33t90 -33v-267h120v400h-300z" />
    <glyph glyph-name="saraithai" unicode="&#xe34;" horiz-adv-x="0" 
d="M-150 580q-59 0 -102.5 -40.5t-47.5 -99.5h300q-4 59 -47.5 99.5t-102.5 40.5z" />
    <glyph glyph-name="saraiithai" unicode="&#xe35;" horiz-adv-x="0" 
d="M-60 600v-50q-40 30 -90 30q-59 0 -102.5 -40.5t-47.5 -99.5h300v160h-60z" />
    <glyph glyph-name="sarauethai" unicode="&#xe36;" horiz-adv-x="0" 
d="M-100 600v-29q-24 9 -50 9q-59 0 -102.5 -40.5t-47.5 -99.5h300v160h-100zM-50 580q12 0 21 -9t9 -21t-9 -21t-21 -9t-21 9t-9 21t9 21t21 9z" />
    <glyph glyph-name="saraueethai" unicode="&#xe37;" horiz-adv-x="0" 
d="M-90 600v-32q-29 12 -60 12q-59 0 -102.5 -40.5t-47.5 -99.5h300v160h-40v-68l-10 10v58h-40z" />
    <glyph glyph-name="sarauthai" unicode="&#xe38;" horiz-adv-x="0" 
d="M-120 -40q-25 0 -42.5 -17.5t-17.5 -42.5t17.5 -42.5t42.5 -17.5v-40h80v160h-80zM-120 -76q10 0 17 -7t7 -17t-7 -17t-17 -7t-17 7t-7 17t7 17t17 7z" />
    <glyph glyph-name="sarauuthai" unicode="&#xe39;" horiz-adv-x="0" 
d="M-160 -40q-25 0 -42.5 -17.5t-17.5 -42.5t17.5 -42.5t42.5 -17.5v-40h130v160h-60v-120h-10v60v60h-60zM-160 -76q10 0 17 -7t7 -17t-7 -17t-17 -7t-17 7t-7 17t7 17t17 7z" />
    <glyph glyph-name="phinthuthai" unicode="&#xe3a;" horiz-adv-x="0" 
d="M-100 -40q-25 0 -42.5 -17.5t-17.5 -42.5t17.5 -42.5t42.5 -17.5t42.5 17.5t17.5 42.5t-17.5 42.5t-42.5 17.5z" />
    <glyph glyph-name="bahtthai" unicode="&#xe3f;" 
d="M240 160q17 0 28.5 -11.5t11.5 -28.5t-11.5 -28.5t-28.5 -11.5h-40v80h21.5h18.5zM240 340q17 0 28.5 -11.5t11.5 -28.5t-11.5 -28.5t-28.5 -11.5h-40v80h21.5h18.5zM80 400v-400h100v-40h100v40h100v180l-40 40l40 40v140h-100v40h-100v-40h-100z" />
    <glyph glyph-name="saraethai" unicode="&#xe40;" horiz-adv-x="260" 
d="M80 400v-400h100q41 0 70.5 29.5t29.5 70.5q0 36 -22.5 63.5t-57.5 34.5v202h-120zM180 130q12 0 21 -9t9 -21t-9 -21t-21 -9t-21 9t-9 21t9 21t21 9z" />
    <glyph glyph-name="saraaethai" unicode="&#xe41;" horiz-adv-x="420" 
d="M80 400v-400h100q38 0 60 20q40 36 40 80q0 50 -40 80q-18 14 -40 18v10v192h-120zM240 400v-208q23 -15 36.5 -39.5t13.5 -52.5t-13.5 -52.5t-36.5 -39.5v-8h100q41 0 70.5 29.5t29.5 70.5q0 36 -22.5 63.5t-57.5 34.5v202h-120zM180 130q12 0 21 -9t9 -21t-9 -21
t-21 -9t-21 9t-9 21t9 21t21 9zM340 130q12 0 21 -9t9 -21t-9 -21t-21 -9t-21 9t-9 21t9 21t21 9z" />
    <glyph glyph-name="saraothai" unicode="&#xe42;" horiz-adv-x="300" 
d="M119 723l-139 -80l140 -243v-400h100q41 0 70.5 29.5t29.5 70.5q0 36 -22.5 63.5t-57.5 34.5v179q-32 16 -48 29.5t-33 35.5q-25 33 -50.5 110t-39.5 96q20 -19 51.5 -85t55.5 -91q43 -45 105 -71l18 10zM220 130q12 0 21 -9t9 -21t-9 -21t-21 -9t-21 9t-9 21t9 21t21 9z
" />
    <glyph glyph-name="saraaimaimuanthai" unicode="&#xe43;" horiz-adv-x="300" 
d="M156 698l-156 -90l68 -117q13 -18 31 -28q20 -13 46 -6t28 33q1 11 -9 23t-19 5q13 18 31.5 8t25.5 -29q13 -41 -15.5 -69.5t-66.5 -27.5v-400h100q41 0 70.5 29.5t29.5 70.5q0 36 -22.5 63.5t-57.5 34.5v179l76 44zM220 130q12 0 21 -9t9 -21t-9 -21t-21 -9t-21 9t-9 21
t9 21t21 9z" />
    <glyph glyph-name="saraaimaimalaithai" unicode="&#xe44;" horiz-adv-x="300" 
d="M67 692l-87 -50l100 -173l69 40l40 -69l-69 -40v-400h100q41 0 70.5 29.5t29.5 70.5q0 36 -22.5 63.5t-57.5 34.5v179l76 44l-130 225l-69 -40zM220 130q12 0 21 -9t9 -21t-9 -21t-21 -9t-21 9t-9 21t9 21t21 9z" />
    <glyph glyph-name="lakkhangyaothai" unicode="&#xe45;" horiz-adv-x="280" 
d="M40 400v-133q30 33 65 33t65 -33v-387h110v520h-240z" />
    <glyph glyph-name="maiyamokthai" unicode="&#xe46;" horiz-adv-x="340" 
d="M120 400q-41 0 -70.5 -29.5t-29.5 -70.5t29.5 -70.5t70.5 -29.5t70.5 29.5t29.5 70.5v-200h-60v-100h180v400h-90q-36 0 -62 -27q-28 27 -68 27zM120 330q12 0 21 -9t9 -21t-9 -21t-21 -9t-21 9t-9 21t9 21t21 9z" />
    <glyph glyph-name="maitaikhuthai" unicode="&#xe47;" horiz-adv-x="0" 
d="M-280 680v-240h40l40 40l40 -40h140v80q0 25 -17.5 42.5t-42.5 17.5t-42.5 -17.5t-17.5 -42.5q0 -5 1 -11q-21 15 -21 41q0 21 14.5 35.5t35.5 14.5h50l40 40v40h-60l-30 -20l-30 20h-140zM-80 544q10 0 17 -7t7 -17t-7 -17t-17 -7t-17 7t-7 17t7 17t17 7z" />
    <glyph glyph-name="maiekthai" unicode="&#xe48;" horiz-adv-x="0" 
d="M-200 760v-140h100v140h-100z" />
    <glyph glyph-name="maithothai" unicode="&#xe49;" horiz-adv-x="0" 
d="M-200 760q-25 0 -42.5 -17.5t-17.5 -42.5t17.5 -42.5t42.5 -17.5v-20h140v60h-70v80h-70zM-200 724q10 0 17 -7t7 -17t-7 -17t-17 -7t-17 7t-7 17t7 17t17 7z" />
    <glyph glyph-name="maitrithai" unicode="&#xe4a;" horiz-adv-x="0" 
d="M-210 760q-21 0 -35.5 -17.5t-14.5 -42.5t14.5 -42.5t35.5 -17.5q5 0 10 1v-21h140v60h-40v20q0 25 -14.5 42.5t-35.5 17.5q-17 0 -30 -12q-13 12 -30 12zM-210 724q10 0 17 -7t7 -17t-7 -17t-17 -7t-17 7t-7 17t7 17t17 7z" />
    <glyph glyph-name="maichattawathai" unicode="&#xe4b;" horiz-adv-x="0" 
d="M-200 760v-40h-40v-60h40v-40h100v40h40v60h-40v40h-100z" />
    <glyph glyph-name="thanthakhatthai" unicode="&#xe4c;" horiz-adv-x="0" 
d="M-130 780l-50 -70q-10 -13 -10 -30q0 -21 14.5 -35.5t35.5 -14.5t35.5 14.5t14.5 35.5q0 20 -13 34l23 36zM-140 700q8 0 14 -6t6 -14t-6 -14t-14 -6t-14 6t-6 14t6 14t14 6z" />
    <glyph glyph-name="nikhahitthai" unicode="&#xe4d;" horiz-adv-x="0" 
d="M-220 580v-140h140v140h-140zM-150 557q19 0 33 -14t14 -33t-14 -33t-33 -14t-33 14t-14 33t14 33t33 14z" />
    <glyph glyph-name="yamakkanthai" unicode="&#xe4e;" horiz-adv-x="0" 
d="M-180 591l-9 -34l15 -22l-24 -12l-18 -68l96 -26l5 20q-12 3 -18 13.5t-3 23t14 18.5t23 3l4 14l-34 30l43 4l2 10z" />
    <glyph glyph-name="fongmanthai" unicode="&#xe4f;" 
d="M80 360v-300h300v300h-300zM230 300q37 0 63.5 -26.5t26.5 -63.5t-26.5 -63.5t-63.5 -26.5t-63.5 26.5t-26.5 63.5t26.5 63.5t63.5 26.5zM230 260q-21 0 -35.5 -14.5t-14.5 -35.5t14.5 -35.5t35.5 -14.5t35.5 14.5t14.5 35.5t-14.5 35.5t-35.5 14.5z" />
    <glyph glyph-name="zerothai" unicode="&#xe50;" 
d="M80 300v-300h300v300h-300zM230 240q37 0 63.5 -26.5t26.5 -63.5t-26.5 -63.5t-63.5 -26.5t-63.5 26.5t-26.5 63.5t26.5 63.5t63.5 26.5z" />
    <glyph glyph-name="onethai" unicode="&#xe51;" 
d="M80 300v-145q0 -47 38 -76t95 -29q40 0 68.5 29.5t28.5 70.5t-29.5 70.5t-70.5 29.5q-46 0 -76 -35q32 40 81 40q43 0 74 -32t31 -78q0 -43 -26 -73.5t-64 -36.5q-78 -13 -150 35v-70h300v300h-300zM210 180q12 0 21 -9t9 -21t-9 -21t-21 -9t-21 9t-9 21t9 21t21 9z" />
    <glyph glyph-name="twothai" unicode="&#xe52;" 
d="M80 300v-300h100h100h100v200v66v34h-51h-4q-26 -2 -45 -30q-20 30 -50 30q-34 0 -52 -30.5t-18 -69.5q0 -37 18.5 -68.5t51.5 -31.5q29 0 50 29v-49h-100v34q-30 33 -30 86t30 86v14h-100zM230.5 210q12.5 0 21.5 -9t9 -21t-9 -21t-21.5 -9t-21 9t-8.5 21t8.5 21t21 9z
" />
    <glyph glyph-name="threethai" unicode="&#xe53;" 
d="M80 300v-220v-80h80q21 0 40 11q12 7 22 19q18 22 18 50q0 46 -40 69v51l30 -35l30 35v-200h120v300h-75l-75 -80l-75 80h-75zM160 110q12 0 21 -9t9 -21t-9 -21t-21 -9t-21 9t-9 21t9 21t21 9z" />
    <glyph glyph-name="fourthai" unicode="&#xe54;" 
d="M80 300v-300h300v50q-41 -30 -100 -30h-12q30 3 51 26t21 54q0 33 -23.5 56.5t-56.5 23.5t-56.5 -23.5t-23.5 -56.5q0 -23 12.5 -42.5t32.5 -29.5q-38 12 -61.5 36.5t-23.5 55.5q0 41 41 70.5t99 29.5h100v80h-70l-40 -40l-40 40h-150zM260 130q12 0 21 -9t9 -21t-9 -21
t-21 -9t-21 9t-9 21t9 21t21 9z" />
    <glyph glyph-name="fivethai" unicode="&#xe55;" 
d="M80 300v-80h20l-20 -20v-200h300v50q-41 -30 -100 -30h-12q30 3 51 26t21 54q0 33 -23.5 56.5t-56.5 23.5t-56.5 -23.5t-23.5 -56.5q0 -23 12.5 -42.5t32.5 -29.5q-38 12 -61.5 36.5t-23.5 55.5q0 41 41 70.5t99 29.5h100v80h-70l-40 -40l-40 40h-50l-20 -20v20h-80z
M260 130q12 0 21 -9t9 -21t-9 -21t-21 -9t-21 9t-9 21t9 21t21 9z" />
    <glyph glyph-name="sixthai" unicode="&#xe56;" horiz-adv-x="340" 
d="M40 300v-100l100 -40l40 40h40v-40q-33 0 -56.5 -23.5t-23.5 -56.5t23.5 -56.5t56.5 -23.5h120v300h-120h-40l-40 -40l-40 40h-60zM220 110q12 0 21 -9t9 -21t-9 -21t-21 -9t-21 9t-9 21t9 21t21 9z" />
    <glyph glyph-name="seventhai" unicode="&#xe57;" 
d="M80 300v-300h60q21 0 40 11q6 3 13 9q27 24 27 60q0 46 -40 69v71l30 -35l30 35v-220h140v100h-60v200h-55l-55 -60l-55 60h-75zM140 110q12 0 21 -9t9 -21t-9 -21t-21 -9t-21 9t-9 21t9 21t21 9z" />
    <glyph glyph-name="eightthai" unicode="&#xe58;" 
d="M80 300v-300h30l20 20l20 -20h230v120q0 33 -23.5 56.5t-56.5 23.5t-56.5 -23.5t-23.5 -56.5q0 -24 12.5 -43.5t33.5 -28.5q-17 -8 -36 -8q-37 0 -63.5 26.5t-26.5 63.5t26.5 63.5t63.5 26.5h110l40 40v40h-70l-40 -40l-40 40h-150zM300 150q12 0 21 -9t9 -21t-9 -21
t-21 -9t-21 9t-9 21t9 21t21 9z" />
    <glyph glyph-name="ninethai" unicode="&#xe59;" 
d="M80 300v-300h80q23 0 44 10q25 12 40 36q16 24 16 54q0 36 -22.5 63.5t-56.5 34.5q37 -8 61.5 -36.5t26.5 -66.5q-1 -21 -9 -39l40 -56h80v100l-70 100h70v100h-100v-57l-40 57h-160zM160 130q12 0 21 -9t9 -21t-9 -21t-21 -9t-21 9t-9 21t9 21t21 9z" />
    <glyph glyph-name="angkhankhuthai" unicode="&#xe5a;" 
d="M120 400q-41 0 -70.5 -29.5t-29.5 -70.5t29.5 -70.5t70.5 -29.5q21 0 40 8v-208h100v280l20 40v-320h100v300v100h-100l-20 -40v40h-80l-7 -15q-25 15 -53 15zM120 330q12 0 21 -9t9 -21t-9 -21t-21 -9t-21 9t-9 21t9 21t21 9z" />
    <glyph glyph-name="khomutthai" unicode="&#xe5b;" horiz-adv-x="680" 
d="M478 211q21 -47 22 -51q40 93 40 140h60q31 -73 60 -260q9 57 20 260v-300h-80q0 80 -30 200q-36 -143 -70 -200h-40q-11 44 -50 100q-52 -75 -90 -100h-240v300h145q47 0 76 -38t29 -95q0 -40 -29.5 -68.5t-70.5 -28.5t-70.5 29.5t-29.5 70.5q0 46 35 76
q-40 -32 -40 -81q0 -43 32 -74t78 -31q43 0 73.5 26t36.5 64q13 78 -35 150h70h40q23 -16 58 -89zM230 200q12 0 21 -9t9 -21t-9 -21t-21 -9t-21 9t-9 21t9 21t21 9z" />
    <glyph glyph-name="quoteleft" unicode="&#x2018;" horiz-adv-x="200" 
d="M200 460l-60 -60h60v-120h-120v160l80 80h40v-60z" />
    <glyph glyph-name="quoteright" unicode="&#x2019;" horiz-adv-x="200" 
d="M80 340l60 60h-60v120h120v-160l-80 -80h-40v60z" />
    <glyph glyph-name="quotedblleft" unicode="&#x201c;" horiz-adv-x="260" 
d="M260 460l-60 -60h60v-120h-120v160l80 80h40v-60zM140 520l-60 -60v-180h50v170l70 70h-60z" />
    <glyph glyph-name="quotedblright" unicode="&#x201d;" horiz-adv-x="260" 
d="M80 340l60 60h-60v120h120v-160l-80 -80h-40v60zM210 520v-170l-70 -70h60l60 60v180h-50z" />
    <glyph glyph-name="dottedcircle" unicode="&#x25cc;" horiz-adv-x="440" 
d="M57 326q5 0 9 -4.5t4 -9.5q0 -6 -4 -10t-9 -4t-9 4t-4 10q0 5 4 9.5t9 4.5zM130 390q14 0 14 -14q0 -4 -4.5 -8t-10 -4t-9.5 4t-4 8q0 6 4 10t10 4zM123 57q5 0 9 -4t4 -9q0 -6 -4 -10t-9 -4q-6 0 -10 4t-4 10q0 5 4.5 9t9.5 4zM52 122q12 0 12 -13.5t-12 -13.5
q-6 0 -10 4.5t-4 9.5t4 9t10 4zM322 64q6 0 9.5 -4t3.5 -10q0 -4 -4 -8t-9.5 -4t-9 4t-3.5 8q0 6 3.5 10t9.5 4zM381 130q13 0 13 -12q0 -14 -13 -14t-13 14q0 12 13 12zM381 321q13 0 13 -13t-13 -13t-13 13t13 13zM313 386q6 0 10.5 -4.5t4.5 -10.5q0 -5 -4.5 -9t-10.5 -4
q-5 0 -9 4t-4 9t4 10t9 5zM406 224q6 0 10.5 -4t4.5 -9t-4.5 -9t-10.5 -4q-5 0 -9 4t-4 9t4 9t9 4zM26 229q12 0 12 -14q0 -5 -3.5 -9t-8.5 -4q-14 0 -14 13q0 14 14 14zM230 30q6 0 9.5 -4t3.5 -10t-3.5 -9.5t-9.5 -3.5t-9.5 4t-3.5 9.5t3.5 9.5t9.5 4zM229 416q5 0 9 -4.5
t4 -9.5q0 -13 -13 -13q-5 0 -9.5 4t-4.5 9t4.5 9.5t9.5 4.5z" />
    <glyph glyph-name="uni0E10.descless" unicode="&#xf700;" 
d="M80 400v-153q38 33 90 33q43 0 78 -24q-14 4 -28 4q-41 0 -70.5 -29.5t-29.5 -70.5t29.5 -70.5t70.5 -29.5q14 0 28 4q-22 -15 -48 -21v-43h180v280q-15 15 -58.5 33.5t-81.5 26.5q-55 11 -100 0q50 19 100 20q19 1 53 -9t52.5 -14.5t34.5 3.5v60h-300zM220 190
q12 0 21 -9t9 -21t-9 -21t-21 -9t-21 9t-9 21t9 21t21 9z" />
    <glyph glyph-name="uni0E34.left" unicode="&#xf701;" horiz-adv-x="0" 
d="M-212 580q-59 0 -102.5 -40.5t-47.5 -99.5h300q-4 59 -47.5 99.5t-102.5 40.5z" />
    <glyph glyph-name="uni0E35.left" unicode="&#xf702;" horiz-adv-x="0" 
d="M-122 600v-50q-40 30 -90 30q-59 0 -102.5 -40.5t-47.5 -99.5h300v160h-60z" />
    <glyph glyph-name="uni0E36.left" unicode="&#xf703;" horiz-adv-x="0" 
d="M-162 600v-29q-24 9 -50 9q-59 0 -102.5 -40.5t-47.5 -99.5h300v160h-100zM-112 580q12 0 21 -9t9 -21t-9 -21t-21 -9t-21 9t-9 21t9 21t21 9z" />
    <glyph glyph-name="uni0E37.left" unicode="&#xf704;" horiz-adv-x="0" 
d="M-152 600v-32q-29 12 -60 12q-59 0 -102.5 -40.5t-47.5 -99.5h300v160h-40v-68l-10 10v58h-40z" />
    <glyph glyph-name="uni0E48.low_left" unicode="&#xf705;" 
d="M-288 600v-160h100v160h-100z" />
    <glyph glyph-name="uni0E49.low_left" unicode="&#xf706;" 
d="M-338 599q-25 0 -42.5 -17.5t-17.5 -42.5t17.5 -42.5t42.5 -17.5v-40h180v80h-110v80h-70zM-338 563q10 0 17 -7t7 -17t-7 -17t-17 -7t-17 7t-7 17t7 17t17 7z" />
    <glyph glyph-name="uni0E4A.low_left" unicode="&#xf707;" 
d="M-353 600q-21 0 -35.5 -17.5t-14.5 -42.5t14.5 -42.5t35.5 -17.5q5 0 10 1v-41h180v80h-80v20q0 25 -14.5 42.5t-35.5 17.5q-17 0 -30 -12q-13 12 -30 12zM-353 564q10 0 17 -7t7 -17t-7 -17t-17 -7t-17 7t-7 17t7 17t17 7z" />
    <glyph glyph-name="uni0E4B.low_left" unicode="&#xf708;" 
d="M-312 556v-40h-40v-80h40v-40h100v40h40v80h-40v40h-100z" />
    <glyph glyph-name="uni0E4C.low_left" unicode="&#xf709;" 
d="M-169 620l-57 -83q-13 -16 -13 -37q0 -25 17.5 -42.5t42.5 -17.5t42.5 17.5t17.5 42.5q0 30 -24 48l24 42zM-179 524q10 0 17 -7t7 -17t-7 -17t-17 -7t-17 7t-7 17t7 17t17 7z" />
    <glyph glyph-name="uni0E48.low" unicode="&#xf70a;" horiz-adv-x="0" 
d="M-200 600v-160h100v160h-100z" />
    <glyph glyph-name="uni0E49.low" unicode="&#xf70b;" horiz-adv-x="0" 
d="M-220 600q-25 0 -42.5 -17.5t-17.5 -42.5t17.5 -42.5t42.5 -17.5v-40h180v80h-110v80h-70zM-220 564q10 0 17 -7t7 -17t-7 -17t-17 -7t-17 7t-7 17t7 17t17 7z" />
    <glyph glyph-name="uni0E4A.low" unicode="&#xf70c;" horiz-adv-x="0" 
d="M-230 600q-21 0 -35.5 -17.5t-14.5 -42.5t14.5 -42.5t35.5 -17.5q5 0 10 1v-41h180v80h-80v20q0 25 -14.5 42.5t-35.5 17.5q-17 0 -30 -12q-13 12 -30 12zM-230 564q10 0 17 -7t7 -17t-7 -17t-17 -7t-17 7t-7 17t7 17t17 7z" />
    <glyph glyph-name="uni0E4B.low" unicode="&#xf70d;" horiz-adv-x="0" 
d="M-200 600v-40h-40v-80h40v-40h100v40h40v80h-40v40h-100z" />
    <glyph glyph-name="uni0E4C.low" unicode="&#xf70e;" horiz-adv-x="0" 
d="M-130 620l-57 -83q-13 -16 -13 -37q0 -25 17.5 -42.5t42.5 -17.5t42.5 17.5t17.5 42.5q0 30 -24 48l24 42zM-140 524q10 0 17 -7t7 -17t-7 -17t-17 -7t-17 7t-7 17t7 17t17 7z" />
    <glyph glyph-name="uni0E0D.descless" unicode="&#xf70f;" horiz-adv-x="520" 
d="M80 280q7 3 20 10t20 10q-40 -40 -40 -100v-9v-191h100q41 0 71.5 30t28.5 70q-2 45 -31 72q-21 20 -49 26v10v72l60 40v-145q30 -31 30 -75t-30 -76v-24h145h115v400h-120v-280h-20v280h-300v-120zM180 130q12 0 21 -9t9 -21t-9 -21t-21 -9t-21 9t-9 21t9 21t21 9z" />
    <glyph glyph-name="uni0E31.left" unicode="&#xf710;" horiz-adv-x="0" 
d="M-362 620h70q25 0 42.5 -17.5t17.5 -42.5q0 -23 -15 -40h185v-80h-300v180zM-292 584q-10 0 -17 -7t-7 -17t7 -17t17 -7t17 7t7 17t-7 17t-17 7z" />
    <glyph glyph-name="uni0E4D.left" unicode="&#xf711;" horiz-adv-x="0" 
d="M-320 577v-140h140v140h-140zM-250 554q19 0 33 -14t14 -33t-14 -33t-33 -14t-33 14t-14 33t14 33t33 14z" />
    <glyph glyph-name="uni0E47.left" unicode="&#xf712;" 
d="M-331 679v-240h40l40 40l40 -40h140v80q0 25 -17.5 42.5t-42.5 17.5t-42.5 -17.5t-17.5 -42.5q0 -5 1 -11q-21 15 -21 41q0 21 14.5 35.5t35.5 14.5h50l40 40v40h-60l-30 -20l-30 20h-140zM-131 543q10 0 17 -7t7 -17t-7 -17t-17 -7t-17 7t-7 17t7 17t17 7z" />
    <glyph glyph-name="uni0E48.left" unicode="&#xf713;" 
d="M-261 759v-140h100v140h-100z" />
    <glyph glyph-name="uni0E49.left" unicode="&#xf714;" 
d="M-210 749q-25 0 -42.5 -17.5t-17.5 -42.5t17.5 -42.5t42.5 -17.5v-20h140v60h-70v80h-70zM-210 713q10 0 17 -7t7 -17t-7 -17t-17 -7t-17 7t-7 17t7 17t17 7z" />
    <glyph glyph-name="uni0E4A.left" unicode="&#xf715;" 
d="M-206 749q-21 0 -35.5 -17.5t-14.5 -42.5t14.5 -42.5t35.5 -17.5q5 0 10 1v-21h140v60h-40v20q0 25 -14.5 42.5t-35.5 17.5q-17 0 -30 -12q-13 12 -30 12zM-206 713q10 0 17 -7t7 -17t-7 -17t-17 -7t-17 7t-7 17t7 17t17 7z" />
    <glyph glyph-name="uni0E4B.left" unicode="&#xf716;" 
d="M-264 749v-40h-40v-60h40v-40h100v40h40v60h-40v40h-100z" />
    <glyph glyph-name="uni0E4C.left" unicode="&#xf717;" 
d="M-111 782l-50 -70q-10 -13 -10 -30q0 -21 14.5 -35.5t35.5 -14.5t35.5 14.5t14.5 35.5q0 20 -13 34l23 36zM-121 702q8 0 14 -6t6 -14t-6 -14t-14 -6t-14 6t-6 14t6 14t14 6z" />
    <glyph glyph-name="uni0E38.low" unicode="&#xf718;" horiz-adv-x="0" 
d="M-118 -186q-25 0 -42.5 -17.5t-17.5 -42.5t17.5 -42.5t42.5 -17.5v-40h80v160h-80zM-118 -222q10 0 17 -7t7 -17t-7 -17t-17 -7t-17 7t-7 17t7 17t17 7z" />
    <glyph glyph-name="uni0E39.low" unicode="&#xf719;" horiz-adv-x="0" 
d="M-158 -186q-25 0 -42.5 -17.5t-17.5 -42.5t17.5 -42.5t42.5 -17.5v-40h130v160h-60v-120h-10v60v60h-60zM-158 -222q10 0 17 -7t7 -17t-7 -17t-17 -7t-17 7t-7 17t7 17t17 7z" />
    <glyph glyph-name="uni0E3A.low" unicode="&#xf71a;" horiz-adv-x="0" 
d="M-98 -186q-25 0 -42.5 -17.5t-17.5 -42.5t17.5 -42.5t42.5 -17.5t42.5 17.5t17.5 42.5t-17.5 42.5t-42.5 17.5z" />
    <glyph glyph-name="uniF71B" unicode="&#xf71b;" 
d="M16 406v-390h242v390h-242zM274 0h-274v423h274v-423z" />
    <glyph glyph-name="uni0E4D.high" unicode="&#xf71e;" horiz-adv-x="0" 
d="M-220 880v-140h140v140h-140zM-150 857q19 0 33 -14t14 -33t-14 -33t-33 -14t-33 14t-14 33t14 33t33 14z" />
    <glyph glyph-name="uni0E47.high" unicode="&#xf71f;" 
d="M-274.656 902.449v-218.275h36.3799l36.3799 36.3789l36.3789 -36.3789h127.328v72.7578q0 22.7373 -15.916 38.6533t-38.6533 15.916t-38.6533 -15.916t-15.916 -38.6533q0 -4.54688 0.910156 -10.0039q-19.0996 13.6426 -19.0996 37.2891q0 19.0986 13.1875 32.2861
q13.1875 13.1885 32.2871 13.1885h45.4736l36.3799 36.3789v36.3789h-54.5693l-27.2842 -18.1895l-27.2852 18.1895h-127.328zM-92.7588 778.76q9.09473 0 15.4609 -6.36621t6.36621 -15.4619q0 -9.09473 -6.36621 -15.4609t-15.4609 -6.36621t-15.4609 6.36621
t-6.36621 15.4609q0 9.0957 6.36621 15.4619t15.4609 6.36621z" />
    <glyph glyph-name="maihanakatthai.alt1" unicode="&#xf752;" horiz-adv-x="0" 
d="M-300 620v-180h210q26 42 6 80h-101q15 17 15 40q0 25 -17.5 42.5t-42.5 17.5h-70zM-230 584q10 0 17 -7t7 -17t-7 -17t-17 -7t-17 7t-7 17t7 17t17 7zM-71 520q11 -12 19 -34.5t8 -45.5h44v80h-71z" />
    <glyph glyph-name="maitaikhuthai.alt1" unicode="&#xf753;" horiz-adv-x="0" 
d="M-280 680v-240h40l40 40l40 -40h70q17 28 14 56h-4q-10 0 -17 7t-7 17t7 17t17 7t17 -7t7 -17q0 -8 -5 -14q17 -29 17 -66h24v80q0 25 -17.5 42.5t-42.5 17.5t-42.5 -17.5t-17.5 -42.5q0 -5 1 -11q-21 15 -21 41q0 21 14.5 35.5t35.5 14.5h50l40 40v40h-60l-30 -20
l-30 20h-140z" />
    <glyph glyph-name="maiekthai.alt1" unicode="&#xf754;" horiz-adv-x="0" 
d="M-200 600v-160h100v160h-100z" />
    <glyph glyph-name="maithothai.alt1" unicode="&#xf755;" horiz-adv-x="0" 
d="M-220 600q-25 0 -42.5 -17.5t-17.5 -42.5t17.5 -42.5t42.5 -17.5v-40h130q26 42 6 80h-66v80h-70zM-220 564q10 0 17 -7t7 -17t-7 -17t-17 -7t-17 7t-7 17t7 17t17 7zM-71 520q11 -12 19 -34.5t8 -45.5h4v80h-31z" />
    <glyph glyph-name="maitrithai.alt1" unicode="&#xf756;" horiz-adv-x="0" 
d="M-230 600q-21 0 -35.5 -17.5t-14.5 -42.5t14.5 -42.5t35.5 -17.5q5 0 10 1v-41h130q26 42 6 80h-36v20q0 25 -14.5 42.5t-35.5 17.5q-17 0 -30 -12q-13 12 -30 12zM-230 564q10 0 17 -7t7 -17t-7 -17t-17 -7t-17 7t-7 17t7 17t17 7zM-71 520q11 -12 19 -34.5t8 -45.5h4
v80h-31z" />
    <glyph glyph-name="maichattawathai.alt1" unicode="&#xf757;" horiz-adv-x="0" 
d="M-200 600v-40h-40v-80h40v-40h100v40h24q2 28 -14 50q16 0 30 -26v56h-40v40h-100z" />
    <glyph glyph-name="thanthakhatthai.alt1" unicode="&#xf758;" horiz-adv-x="0" 
d="M-130 620l-57 -83q-13 -16 -13 -37q0 -25 17.5 -42.5t42.5 -17.5t42.5 17.5t17.5 42.5q0 30 -24 48l24 42zM-140 524q10 0 17 -7t7 -17t-7 -17t-17 -7t-17 7t-7 17t7 17t17 7z" />
    <glyph glyph-name="nikhahitthai.alt1" unicode="&#xf759;" horiz-adv-x="0" 
d="M-220 580v-140h130q7 10 10 21v50q-4 10 -10 19q5 0 10 -3v53h-140zM-150 557q19 0 33 -14t14 -33t-14 -33t-33 -14t-33 14t-14 33t14 33t33 14z" />
    <glyph glyph-name="yamakkanthai.alt1" unicode="&#xf75a;" horiz-adv-x="0" 
d="M-184 591l-9 -34l15 -22l-24 -12l-18 -68l97 -26l5 20q-12 3 -18.5 13.5t-3 23t14 18.5t22.5 3l4 14l-33 30l42 4l3 10z" />
    <glyph glyph-name="saraithai.alt1" unicode="&#xf75b;" horiz-adv-x="0" 
d="M-150.5 580q-59.5 0 -102.5 -40.5t-47 -99.5h210q14 23 14 46.5t-14 43.5q17 0 31 -28.5t15 -61.5h43q-4 59 -47 99.5t-102.5 40.5z" />
    <glyph glyph-name="saraiithai.alt1" unicode="&#xf75c;" horiz-adv-x="0" 
d="M-60 600v-50q-40 30 -90 30q-60 0 -103 -40.5t-47 -99.5h210q14 23 14 46.5t-14 43.5q17 0 31 -28.5t15 -61.5h43l1 160h-60z" />
    <glyph glyph-name="sarauethai.alt1" unicode="&#xf75d;" horiz-adv-x="0" 
d="M-100 600v-29q-25 9 -50 9q-60 0 -103 -40.5t-47 -99.5h210q14 23 14 46.5t-14 43.5q17 0 31 -28.5t15 -61.5h43l1 160h-100zM-50.5 580q12.5 0 21.5 -9t9 -21t-9 -21t-21.5 -9t-21 9t-8.5 21t8.5 21t21 9z" />
    <glyph glyph-name="saraueethai.alt1" unicode="&#xf75e;" horiz-adv-x="0" 
d="M-90 600v-32q-29 12 -60 12q-59 0 -102.5 -40.5t-47.5 -99.5h210q14 23 14 46.5t-14 43.5q17 0 31.5 -28.5t14.5 -61.5h44v160h-40v-68l-10 10v58h-40z" />
    <glyph glyph-name="maihanakatthai.alt2" unicode="&#xf75f;" horiz-adv-x="0" 
d="M-300 620v-180h170v80h-55q15 17 15 40q0 25 -17.5 42.5t-42.5 17.5h-70zM-230 584q10 0 17 -7t7 -17t-7 -17t-17 -7t-17 7t-7 17t7 17t17 7z" />
    <glyph glyph-name="maitaikhuthai.alt2" unicode="&#xf760;" horiz-adv-x="0" 
d="M-280 680v-240h40l40 40l40 -40h30v90h28q7 14 22 14t22 -14h37q-3 21 -20 35.5t-39 14.5q-25 0 -42.5 -17.5t-17.5 -42.5q0 -5 1 -11q-21 15 -21 41q0 21 14.5 35.5t35.5 14.5h50l40 40v40h-60l-30 -20l-30 20h-140z" />
    <glyph glyph-name="maiekthai.alt2" unicode="&#xf761;" horiz-adv-x="0" 
d="M-200 600v-160h70v90h30v70h-100z" />
    <glyph glyph-name="maithothai.alt2" unicode="&#xf762;" horiz-adv-x="0" 
d="M-220 600q-25 0 -42.5 -17.5t-17.5 -42.5t17.5 -42.5t42.5 -17.5v-40h90v80h-20v80h-70zM-220 564q10 0 17 -7t7 -17t-7 -17t-17 -7t-17 7t-7 17t7 17t17 7z" />
    <glyph glyph-name="maitrithai.alt2" unicode="&#xf763;" horiz-adv-x="0" 
d="M-230 600q-21 0 -35.5 -17.5t-14.5 -42.5t14.5 -42.5t35.5 -17.5q5 0 10 1v-41h90v90h10v10q0 25 -14.5 42.5t-35.5 17.5q-17 0 -30 -12q-13 12 -30 12zM-230 564q10 0 17 -7t7 -17t-7 -17t-17 -7t-17 7t-7 17t7 17t17 7z" />
    <glyph glyph-name="maichattawathai.alt2" unicode="&#xf764;" horiz-adv-x="0" 
d="M-200 600v-40h-40v-80h40v-40h70v90h70v30h-40v40h-100z" />
    <glyph glyph-name="thanthakhatthai.alt2" unicode="&#xf765;" horiz-adv-x="0" 
d="M-130 620l-57 -83q-13 -16 -13 -37q0 -25 17.5 -42.5t42.5 -17.5q5 0 10 1v37q-5 -2 -10 -2q-10 0 -17 7t-7 17t7 17t17 7q5 0 10 -2v8h42q-6 10 -16 18l24 42z" />
    <glyph glyph-name="nikhahitthai.alt2" unicode="&#xf766;" horiz-adv-x="0" 
d="M-220 580v-140h90v28q-9 -5 -20 -5q-19 0 -33 14t-14 33t14 33t33 14q29 0 42 -27h28v50h-140z" />
    <glyph glyph-name="yamakkanthai.alt2" unicode="&#xf767;" horiz-adv-x="0" 
d="M-180 591l-9 -34l15 -22l-24 -12l-18 -68l86 -23v27q-10 12 -6 27q2 6 6 11v33h25l-24 21l43 4l2 10z" />
    <glyph glyph-name="saraithai.alt2" unicode="&#xf768;" horiz-adv-x="0" 
d="M-150 580q-59 0 -102.5 -40.5t-47.5 -99.5h170v90h92q-45 50 -112 50z" />
    <glyph glyph-name="saraiithai.alt2" unicode="&#xf769;" horiz-adv-x="0" 
d="M-60 600v-50q-40 30 -90 30q-60 0 -103 -40.5t-47 -99.5h170v90h130v70h-60z" />
    <glyph glyph-name="sarauethai.alt2" unicode="&#xf76a;" horiz-adv-x="0" 
d="M-100 600v-29q-25 9 -50 9q-60 0 -103 -40.5t-47 -99.5h170v90h57q-7 9 -7 20q0 12 8.5 21t21 9t21.5 -9t9 -21q0 -11 -8 -20h28v70h-100z" />
    <glyph glyph-name="saraueethai.alt2" unicode="&#xf76b;" horiz-adv-x="0" 
d="M-90 600v-32q-29 12 -60 12q-60 0 -103 -40.5t-47 -99.5h170v90h130v70h-40v-68l-10 10v58h-40z" />
    <glyph glyph-name="quotesglleft" 
d="M140 340l-15 -8q-78 90 -97 120q-7 14 -2.5 25.5t14.5 18.5q9 5 22.5 2.5t20.5 -14.5q10 -17 57 -144z" />
    <glyph glyph-name="joker" 
d="M502 549l-20 -34q-7 11 -15 19l17 35q7 -4 18 -20zM463 586l-14 -36q-1 1 -8 6.5t-11 8.5l10 36q2 -2 23 -15zM532 506l-26 -30q-2 3 -4 7.5t-3.5 7.5l-2.5 5l22 33q8 -9 14 -23zM554 464l-32 -26q0 1 -3 8.5t-4 10.5l30 30q1 -4 9 -23zM413 613l-7 -36q-14 5 -24 7l4 37
q21 -4 27 -8zM569 421l-37 -20q0 3 -3 17l33 24q2 -11 7 -21zM359 623l-1 -37q-2 0 -11 -1t-13 -1l-3 37q5 0 14 1t13 1h1zM578 380l-37 -13l-4 16l37 17l1 -7q2 -7 3 -13zM584 340l-40 -7v9q-1 1 -1 8l38 9q3 -13 3 -19zM310 576q-10 -4 -24 -11l-8 36q7 4 25 12zM584 300
h-39v16l39 4v-20zM584 280q0 -6 -3 -20l-38 8q0 6 1 8v8zM267 549q-1 -1 -4 -3.5t-6.5 -6t-6.5 -7.5l-16 36q2 1 8.5 7t11.5 11zM579 241q0 -3 -1 -9.5t-1 -11.5l-39 14q0 4 1.5 9.5t1.5 6.5zM572 200q0 -2 -2.5 -10t-2.5 -10l-35 20q0 2 2 9t2 9zM234 515l-14 -19l-21 31
q7 8 16 21zM560 158q0 -2 -9 -21l-31 27q2 3 6 18zM210 476q0 -1 -3 -7l-6 -12l-26 27q3 9 11 22zM542 116q-2 -2 -5.5 -9t-6.5 -12l-27 31q0 1 10 19zM194 438q-3 -4 -6 -18l-32 20q4 7 9 23zM516 74l-16 -20l-20 35q8 9 12 19zM182 401l-3 -18l-34 16q1 1 1.5 5t1.5 8t3 8
zM176 366q0 -4 -1.5 -9.5t-1.5 -6.5l-36 9l3 20zM482 34q-9 -6 -22 -17l-13 38q1 1 18 16zM172 333v-17l-38 4q0 6 2 20zM172 284l-37 -4q-1 1 -1 20h38v-16zM437 3q-3 -1 -11 -3.5t-14 -4.5l-6 35q16 7 22 10zM175 250l-36 -9q0 2 -1 8.5t-2 12.5l36 5q0 -5 3 -17zM180 218
l-34 -16q-4 15 -4 18l35 14zM386 -12q-18 -2 -27 -2h-1v35q10 0 24 2zM189 182l-31 -22l-6 20l32 20q5 -11 5 -18zM334 23l-3 -34q-15 2 -27 7l7 34q11 -6 23 -7zM203 145l-26 -27q-9 16 -10 22l29 23q0 -3 3 -9t4 -9zM223 106l-21 -30q-1 1 -4 6.5t-6 9.5t-4 6l24 28
q9 -11 11 -20zM289 40l-10 -35l-23 15l13 35q3 -2 5.5 -3.5t7 -5t7.5 -6.5zM251 70l-15 -32q-10 8 -18 18l18 32q3 -5 8.5 -11t6.5 -7z" />
  </font>
</defs>
</svg>
